<?xml version="1.0" standalone="no"?>
<!DOCTYPE svg PUBLIC "-//W3C//DTD SVG 20010904//EN"
 "http://www.w3.org/TR/2001/REC-SVG-20010904/DTD/svg10.dtd">
<svg version="1.0" xmlns="http://www.w3.org/2000/svg"
 width="3542.000000pt" height="3750.000000pt" viewBox="0 0 3542.000000 3750.000000"
 preserveAspectRatio="xMidYMid meet">

<g transform="translate(0.000000,3750.000000) scale(0.100000,-0.100000)"
fill="#65340A" stroke="none">
<path d="M12300 17125 c0 -1448 -1 -1495 -19 -1495 -26 0 -81 -20 -81 -30 0
-5 11 -21 25 -36 45 -49 22 -112 -47 -129 -16 -4 -28 -13 -28 -21 0 -8 -8 -14
-18 -14 -48 0 -57 -56 -12 -73 17 -6 30 -17 30 -23 0 -6 13 -14 30 -17 67 -14
92 -83 45 -127 -14 -13 -25 -27 -25 -31 0 -12 56 -39 80 -39 l20 0 0 -1445 0
-1445 -20 0 c-20 0 -80 -26 -80 -35 0 -2 11 -16 25 -31 38 -40 34 -89 -7 -114
-18 -11 -41 -20 -50 -20 -10 0 -18 -6 -18 -14 0 -8 -11 -17 -24 -20 -33 -8
-45 -45 -20 -63 10 -7 24 -13 31 -13 7 0 13 -6 13 -14 0 -8 13 -17 29 -21 69
-15 93 -84 46 -131 -14 -14 -25 -28 -25 -32 0 -9 59 -32 83 -32 16 0 17 -102
17 -1496 0 -1012 -3 -1502 -10 -1515 -6 -10 -14 -19 -19 -19 -5 0 -29 -9 -55
-21 l-47 -20 26 -20 c43 -35 30 -96 -25 -119 -28 -12 -30 -16 -30 -66 0 -61
-12 -53 129 -79 108 -19 121 -19 268 7 l123 21 0 54 c0 42 -4 55 -17 60 -62
22 -82 87 -38 122 l26 20 -47 20 c-26 12 -50 21 -55 21 -5 0 -13 9 -19 19 -7
13 -10 503 -10 1515 0 1394 1 1496 17 1496 28 0 83 23 83 35 0 6 -11 22 -25
35 -47 44 -22 110 46 125 16 4 29 12 29 19 0 6 14 17 30 23 21 8 30 18 30 33
0 15 -9 25 -30 33 -16 6 -30 17 -30 24 0 7 -8 13 -17 13 -10 0 -33 9 -50 20
-43 26 -46 76 -8 111 13 13 25 29 25 34 0 12 -56 35 -83 35 -16 0 -17 99 -17
1445 0 1407 0 1445 19 1445 10 0 35 7 55 15 l37 16 -30 35 c-17 19 -31 45 -31
58 0 27 35 62 73 71 15 4 27 12 27 19 0 6 14 17 30 23 45 17 36 73 -12 73 -10
0 -18 6 -18 14 0 8 -14 19 -32 25 -75 26 -88 74 -36 128 l31 33 -36 15 c-20 8
-46 15 -57 15 l-20 0 0 1495 0 1495 -100 0 -100 0 0 -1495z"/>
</g>
</svg>
