<?xml version="1.0" standalone="no"?>
<!DOCTYPE svg PUBLIC "-//W3C//DTD SVG 20010904//EN"
 "http://www.w3.org/TR/2001/REC-SVG-20010904/DTD/svg10.dtd">
<svg version="1.0" xmlns="http://www.w3.org/2000/svg"
 width="3542.000000pt" height="3750.000000pt" viewBox="0 0 3542.000000 3750.000000"
 preserveAspectRatio="xMidYMid meet">

<g transform="translate(0.000000,3750.000000) scale(0.100000,-0.100000)"
fill="#65340A" stroke="none">
<path d="M17390 17310 c0 -1166 -2 -1380 -14 -1380 -7 0 -30 -7 -51 -15 l-37
-16 25 -25 c48 -47 40 -94 -20 -122 -21 -9 -40 -20 -43 -23 -3 -3 -15 -11 -27
-18 -31 -16 -30 -49 2 -61 14 -5 25 -13 25 -18 0 -4 15 -14 34 -20 65 -24 78
-73 31 -122 -21 -22 -25 -31 -14 -34 8 -2 31 -10 52 -16 l37 -12 0 -1334 0
-1334 -20 0 c-12 0 -35 -7 -51 -16 l-30 -15 25 -26 c32 -32 34 -75 4 -103 -12
-11 -27 -20 -33 -20 -6 0 -20 -7 -30 -15 -72 -54 -70 -52 -56 -69 7 -9 20 -16
28 -16 7 0 16 -7 19 -15 3 -8 21 -19 40 -25 59 -20 72 -75 27 -122 -24 -26
-25 -28 -7 -33 10 -4 27 -11 36 -16 10 -5 25 -9 33 -9 13 0 15 -155 15 -1383
0 -1305 -1 -1385 -17 -1400 -10 -8 -37 -23 -60 -32 -41 -16 -42 -18 -24 -34
33 -28 34 -56 5 -90 -14 -17 -32 -31 -40 -31 -10 0 -14 -13 -14 -48 l0 -49 53
-11 c131 -29 183 -31 304 -11 65 10 119 19 121 19 1 0 2 23 2 50 0 36 -4 50
-14 50 -7 0 -25 9 -40 21 -34 27 -35 70 -1 97 l24 19 -44 18 c-25 9 -52 23
-60 32 -13 13 -15 189 -15 1399 0 1153 2 1384 13 1384 15 0 77 29 77 35 0 2
-11 16 -25 31 -14 15 -25 37 -25 49 0 25 39 65 63 65 10 0 20 6 23 14 3 8 19
19 35 25 42 14 37 42 -12 74 -22 15 -44 27 -49 27 -4 0 -19 9 -34 21 -33 26
-33 59 -1 97 14 17 25 32 25 35 0 3 -20 11 -45 18 l-45 13 -2 1071 c-2 588 -1
1189 2 1335 5 255 6 265 25 269 11 2 30 7 43 12 l24 9 -26 31 c-14 17 -26 41
-26 53 0 25 33 60 68 71 12 3 22 11 22 16 0 6 14 15 30 20 39 14 40 45 3 62
-16 6 -32 17 -36 24 -4 7 -14 13 -21 13 -24 0 -66 41 -66 65 0 13 11 37 25 53
30 36 31 42 6 42 -11 0 -23 5 -26 10 -3 6 -15 10 -26 10 -19 0 -19 21 -19
1380 l0 1380 -90 0 -90 0 0 -1380z"/>
</g>
</svg>
