<?xml version="1.0" standalone="no"?>
<!DOCTYPE svg PUBLIC "-//W3C//DTD SVG 20010904//EN"
 "http://www.w3.org/TR/2001/REC-SVG-20010904/DTD/svg10.dtd">
<svg version="1.0" xmlns="http://www.w3.org/2000/svg"
 width="3542.000000pt" height="3750.000000pt" viewBox="0 0 3542.000000 3750.000000"
 preserveAspectRatio="xMidYMid meet">

<g transform="translate(0.000000,3750.000000) scale(0.100000,-0.100000)"
fill="#65340A" stroke="none">
<path d="M23480 17470 l0 -1279 -40 -11 c-51 -14 -55 -22 -25 -50 14 -13 25
-34 25 -47 0 -28 -33 -63 -60 -63 -10 0 -23 -6 -27 -12 -4 -7 -17 -18 -28 -24
-30 -17 -30 -41 2 -59 15 -9 46 -26 68 -38 52 -29 59 -66 19 -108 l-27 -28 27
-11 c15 -5 36 -10 47 -10 19 0 19 -21 19 -1243 l0 -1243 -46 -12 -46 -12 27
-32 c37 -44 31 -77 -20 -103 -21 -11 -44 -24 -50 -28 -5 -4 -19 -14 -29 -21
-23 -16 -15 -45 13 -53 11 -3 22 -11 25 -19 3 -8 12 -14 19 -14 25 0 67 -41
67 -64 0 -12 -11 -33 -25 -46 -30 -28 -20 -46 31 -56 l34 -6 0 -1280 c0 -791
-4 -1286 -10 -1297 -5 -10 -29 -26 -54 -35 l-44 -17 24 -24 c37 -37 27 -73
-26 -95 -27 -11 -30 -17 -30 -55 0 -27 5 -45 14 -48 7 -3 65 -11 129 -18 97
-11 130 -10 209 2 l93 14 2 45 c3 41 0 47 -30 65 -41 26 -50 75 -16 98 21 16
21 16 -16 31 -21 9 -41 16 -46 16 -5 0 -13 9 -19 19 -7 13 -10 436 -10 1299
l0 1280 33 6 c58 11 64 20 34 56 -15 17 -27 40 -27 50 0 22 45 60 71 60 11 0
19 6 19 14 0 7 9 16 20 19 28 7 38 38 16 51 -10 6 -27 19 -38 29 -12 9 -26 17
-33 17 -18 0 -55 39 -55 59 0 10 11 30 25 45 31 33 26 44 -26 52 l-39 7 2
1241 c3 1232 3 1241 23 1245 11 2 30 7 43 12 l24 9 -26 31 c-14 17 -26 38 -26
48 0 19 39 61 57 61 5 0 19 8 31 18 11 9 28 22 38 28 21 12 13 41 -13 51 -10
4 -22 12 -26 20 -4 7 -16 13 -26 13 -21 0 -61 40 -61 62 0 9 12 30 26 47 l26
31 -24 9 c-13 5 -32 10 -43 12 -20 4 -20 13 -23 1287 l-2 1282 -85 0 -85 0 0
-1280z"/>
</g>
</svg>
