<?xml version="1.0" standalone="no"?>
<!DOCTYPE svg PUBLIC "-//W3C//DTD SVG 20010904//EN"
 "http://www.w3.org/TR/2001/REC-SVG-20010904/DTD/svg10.dtd">
<svg version="1.0" xmlns="http://www.w3.org/2000/svg"
 width="3542.000000pt" height="3750.000000pt" viewBox="0 0 3542.000000 3750.000000"
 preserveAspectRatio="xMidYMid meet">

<g transform="translate(0.000000,3750.000000) scale(0.100000,-0.100000)"
fill="#65340A" stroke="none">
<path d="M26448 17383 l-3 -1337 -35 -9 c-55 -14 -62 -24 -33 -53 38 -38 29
-83 -22 -109 -22 -11 -42 -24 -44 -28 -2 -5 -14 -12 -27 -17 -30 -12 -31 -45
-2 -61 12 -6 27 -16 32 -21 6 -5 27 -17 46 -26 47 -23 54 -69 15 -108 -31 -31
-24 -40 38 -50 l37 -7 0 -1281 c0 -704 -4 -1286 -8 -1292 -4 -6 -20 -14 -37
-18 -53 -13 -59 -26 -30 -56 39 -41 32 -79 -20 -105 -22 -11 -42 -24 -44 -28
-2 -5 -14 -13 -28 -18 -29 -11 -28 -46 2 -63 11 -6 24 -17 28 -23 4 -7 16 -13
26 -13 26 0 61 -37 61 -66 0 -14 -12 -36 -26 -51 -14 -14 -24 -26 -22 -28 11
-10 69 -35 81 -35 11 0 14 -218 15 -1336 3 -1242 1 -1338 -14 -1355 -10 -11
-20 -19 -24 -19 -4 0 -24 -7 -43 -15 l-36 -15 24 -25 c14 -13 25 -31 25 -40 0
-20 -44 -65 -65 -65 -11 0 -15 -11 -15 -49 0 -57 -11 -53 165 -75 108 -15 193
-11 270 12 28 8 30 12 33 60 2 42 0 52 -13 52 -21 0 -65 44 -65 65 0 9 11 27
24 40 l25 25 -46 20 c-25 11 -52 28 -59 38 -11 14 -13 249 -12 1349 l2 1331
40 13 c58 18 61 23 32 52 -34 34 -35 79 -1 101 13 9 31 16 39 16 8 0 19 6 23
14 4 7 18 18 31 25 30 16 29 49 -3 61 -14 5 -25 14 -25 20 0 5 -7 10 -16 10
-9 0 -29 9 -45 21 -38 26 -39 70 -4 101 30 26 20 44 -31 54 -24 4 -36 13 -39
28 -3 11 -4 592 -3 1290 l3 1270 35 9 c55 14 62 24 33 53 -37 37 -29 84 17
106 19 9 40 21 46 26 5 5 20 15 32 21 28 15 28 47 0 62 -13 7 -25 15 -28 18
-3 3 -22 14 -43 23 -46 22 -60 53 -41 90 8 15 22 31 31 36 14 8 12 12 -15 26
-17 9 -40 16 -52 16 l-20 0 0 1340 0 1340 -85 0 -85 0 -2 -1337z"/>
</g>
</svg>
