<?xml version="1.0" standalone="no"?>
<!DOCTYPE svg PUBLIC "-//W3C//DTD SVG 20010904//EN"
 "http://www.w3.org/TR/2001/REC-SVG-20010904/DTD/svg10.dtd">
<svg version="1.0" xmlns="http://www.w3.org/2000/svg"
 width="3542.000000pt" height="3750.000000pt" viewBox="0 0 3542.000000 3750.000000"
 preserveAspectRatio="xMidYMid meet">

<g transform="translate(0.000000,3750.000000) scale(0.100000,-0.100000)"
fill="#65340A" stroke="none">
<path d="M30828 17248 l-3 -1422 -42 -11 c-57 -14 -60 -20 -30 -51 35 -35 35
-76 1 -103 -15 -12 -35 -21 -45 -21 -11 0 -19 -6 -19 -13 0 -7 -13 -18 -30
-24 -45 -17 -36 -73 12 -73 10 0 18 -7 18 -15 0 -8 8 -15 19 -15 10 0 30 -9
45 -21 34 -27 35 -71 1 -105 -14 -14 -23 -29 -20 -33 2 -5 25 -14 50 -21 l45
-13 0 -1368 0 -1369 -45 -11 c-25 -6 -48 -15 -51 -20 -3 -5 6 -23 20 -40 14
-17 26 -41 26 -54 0 -26 -42 -65 -71 -65 -11 0 -19 -4 -19 -10 0 -5 -14 -17
-31 -25 -38 -20 -36 -54 4 -73 15 -7 27 -17 27 -22 0 -5 13 -11 30 -15 59 -13
77 -74 35 -119 -14 -15 -25 -29 -25 -31 0 -9 60 -35 79 -35 20 0 20 -7 21
-1420 0 -1339 -1 -1422 -18 -1440 -9 -10 -36 -26 -60 -35 -43 -18 -43 -18 -24
-39 11 -11 22 -28 24 -36 9 -25 -20 -67 -52 -78 -28 -10 -30 -14 -30 -60 l0
-49 153 -21 153 -22 97 22 97 21 0 48 c0 44 -2 48 -37 66 -47 25 -57 72 -23
107 l20 23 -42 18 c-24 11 -51 27 -61 37 -16 16 -17 96 -16 1433 2 1295 3
1417 18 1422 30 10 81 34 81 38 0 3 -9 14 -20 25 -46 46 -30 112 30 125 16 4
33 12 37 18 5 7 17 17 28 23 29 16 31 50 3 65 -13 6 -27 18 -31 25 -4 8 -16
14 -26 14 -10 0 -30 9 -45 21 -34 27 -34 68 -1 99 33 31 28 42 -26 55 l-44 11
-3 1370 -2 1371 42 13 c60 19 64 25 34 55 -35 35 -35 77 0 104 15 12 35 21 45
21 11 0 19 6 19 13 0 7 14 18 30 24 39 15 41 49 3 66 -16 6 -32 17 -36 24 -4
7 -14 13 -21 13 -7 0 -25 9 -40 21 -34 27 -34 67 0 104 29 32 27 36 -29 50
l-42 11 -3 1422 -2 1422 -90 0 -90 0 -2 -1422z"/>
</g>
</svg>
