<?xml version="1.0" standalone="no"?>
<!DOCTYPE svg PUBLIC "-//W3C//DTD SVG 20010904//EN"
 "http://www.w3.org/TR/2001/REC-SVG-20010904/DTD/svg10.dtd">
<svg version="1.0" xmlns="http://www.w3.org/2000/svg"
 width="3542.000000pt" height="3750.000000pt" viewBox="0 0 3542.000000 3750.000000"
 preserveAspectRatio="xMidYMid meet">

<g transform="translate(0.000000,3750.000000) scale(0.100000,-0.100000)"
fill="#65340A" stroke="none">
<path d="M32016 18653 c-3 -3 -6 -653 -6 -1442 l0 -1437 -45 -13 c-25 -7 -48
-17 -51 -23 -3 -5 6 -21 20 -35 34 -34 34 -75 0 -102 -15 -12 -30 -21 -34 -21
-5 0 -27 -12 -49 -27 -49 -32 -56 -69 -16 -79 14 -3 25 -10 25 -15 0 -5 18
-16 40 -25 65 -26 78 -71 35 -122 -14 -17 -25 -32 -25 -36 0 -3 21 -12 48 -19
l47 -14 3 -1389 2 -1390 -45 -13 c-25 -7 -48 -17 -51 -22 -3 -5 6 -23 20 -40
14 -17 26 -41 26 -54 0 -24 -42 -65 -66 -65 -8 0 -22 -9 -31 -20 -10 -11 -23
-20 -30 -20 -19 0 -33 -33 -22 -53 6 -9 16 -17 22 -17 7 0 20 -9 30 -20 9 -11
25 -20 35 -20 24 0 62 -41 62 -67 0 -12 -12 -35 -26 -52 -14 -17 -23 -35 -20
-39 3 -5 26 -15 50 -22 l45 -12 1 -1443 0 -1444 -26 -20 c-14 -11 -41 -25 -60
-31 -39 -13 -42 -20 -14 -38 14 -8 20 -23 20 -46 0 -35 -19 -59 -58 -71 -21
-6 -23 -12 -20 -58 l3 -52 154 -22 155 -22 95 23 c92 21 96 23 99 50 6 47 -6
73 -38 86 -55 23 -66 72 -25 110 l25 24 -51 21 c-28 12 -55 28 -60 36 -5 8 -9
633 -9 1455 l0 1440 50 18 c50 18 62 32 36 42 -7 3 -22 20 -32 39 -16 31 -16
35 -1 58 9 14 32 30 52 37 19 6 35 15 35 20 0 5 12 15 28 22 34 16 35 48 3 64
-13 7 -26 16 -30 21 -3 5 -21 15 -39 22 -18 8 -40 27 -48 42 -13 26 -13 32 1
59 8 16 23 33 32 39 23 13 11 24 -40 36 l-42 11 -3 1397 c-2 1251 0 1397 13
1397 9 0 32 7 52 15 l36 15 -25 24 c-14 12 -29 33 -33 46 -10 30 22 72 64 84
17 5 31 15 31 22 0 7 10 14 21 16 12 2 27 11 33 21 11 19 11 19 -59 72 -10 8
-24 15 -31 15 -19 0 -64 48 -64 69 0 11 14 36 31 56 28 31 29 35 12 41 -10 3
-26 10 -35 15 -10 5 -24 6 -33 3 -13 -6 -15 142 -15 1440 l0 1446 -32 1 c-18
0 -58 2 -89 4 -31 3 -59 2 -63 -2z"/>
</g>
</svg>
