<?xml version="1.0" standalone="no"?>
<!DOCTYPE svg PUBLIC "-//W3C//DTD SVG 20010904//EN"
 "http://www.w3.org/TR/2001/REC-SVG-20010904/DTD/svg10.dtd">
<svg version="1.0" xmlns="http://www.w3.org/2000/svg"
 width="3542.000000pt" height="3750.000000pt" viewBox="0 0 3542.000000 3750.000000"
 preserveAspectRatio="xMidYMid meet">

<g transform="translate(0.000000,3750.000000) scale(0.100000,-0.100000)"
fill="#65340A" stroke="none">
<path d="M6300 16910 l0 -1630 -24 0 c-14 0 -28 -4 -31 -10 -3 -5 -14 -10 -23
-10 -9 0 -24 -5 -32 -10 -13 -8 -12 -12 8 -25 30 -21 55 -71 47 -95 -8 -26
-62 -70 -86 -70 -10 0 -19 -7 -19 -15 0 -8 -8 -15 -18 -15 -23 0 -52 -30 -52
-54 0 -9 12 -22 28 -28 15 -7 35 -20 45 -30 10 -10 26 -18 37 -18 19 0 70 -53
70 -73 0 -19 -39 -77 -55 -83 -8 -4 -15 -9 -15 -13 0 -11 73 -41 98 -41 l22 0
0 -1574 0 -1574 -50 -13 c-65 -17 -78 -31 -47 -52 36 -24 53 -72 36 -103 -14
-27 -57 -54 -84 -54 -8 0 -15 -6 -15 -12 0 -7 -15 -20 -33 -28 -47 -22 -49
-56 -4 -75 19 -8 37 -21 40 -30 4 -8 16 -15 27 -15 28 0 80 -52 80 -79 0 -12
-16 -38 -35 -60 l-35 -38 38 -16 c20 -9 47 -19 60 -22 l22 -6 0 -1627 c-1
-1333 -3 -1630 -14 -1644 -7 -10 -39 -29 -70 -43 l-57 -25 25 -23 c42 -38 42
-63 3 -102 -19 -19 -42 -35 -51 -35 -13 0 -16 -12 -16 -59 l0 -59 112 -27 c85
-20 126 -25 168 -20 98 11 294 50 292 58 -1 4 -2 29 -2 56 0 45 -2 50 -30 61
-62 26 -78 83 -35 126 14 14 25 26 25 28 0 2 -27 14 -59 26 -52 21 -60 28 -70
60 -11 39 -16 3195 -5 3238 4 12 14 22 24 22 21 0 90 28 90 36 0 3 -13 19 -30
34 -39 37 -41 81 -4 115 15 14 38 25 51 25 16 0 27 7 30 20 3 11 13 20 22 20
24 0 41 20 41 48 0 17 -8 26 -30 33 -16 6 -30 17 -30 24 0 7 -12 15 -28 18
-83 17 -106 86 -50 144 27 28 30 35 18 43 -8 5 -23 10 -32 10 -10 0 -18 4 -18
9 0 5 -12 11 -27 13 l-28 3 1 1570 1 1570 24 3 c13 2 28 8 33 13 6 5 18 9 27
9 31 0 31 19 0 51 -56 56 -37 118 43 140 20 5 36 15 36 22 0 7 14 18 30 24 23
9 30 17 30 38 0 21 -7 29 -30 38 -16 6 -30 17 -30 23 0 6 -12 14 -28 17 -82
16 -108 90 -51 146 31 32 31 51 0 51 -9 0 -21 4 -27 9 -5 5 -20 11 -34 13
l-25 3 -2 1605 c-2 883 -3 1615 -3 1628 0 21 -3 22 -105 22 l-105 0 0 -1630z"/>
</g>
</svg>
