<?xml version="1.0" standalone="no"?>
<!DOCTYPE svg PUBLIC "-//W3C//DTD SVG 20010904//EN"
 "http://www.w3.org/TR/2001/REC-SVG-20010904/DTD/svg10.dtd">
<svg version="1.0" xmlns="http://www.w3.org/2000/svg"
 width="3542.000000pt" height="3750.000000pt" viewBox="0 0 3542.000000 3750.000000"
 preserveAspectRatio="xMidYMid meet">

<g transform="translate(0.000000,3750.000000) scale(0.100000,-0.100000)"
fill="#65340A" stroke="none">
<path d="M7589 18553 c0 -5 -2 -726 -3 -1603 l-3 -1595 -37 -7 c-20 -4 -46
-13 -58 -19 -20 -11 -19 -12 11 -43 53 -55 33 -123 -41 -141 -16 -4 -28 -13
-28 -20 0 -7 -13 -15 -29 -18 -54 -11 -50 -67 7 -88 13 -5 21 -13 18 -18 -3
-5 9 -11 26 -15 78 -15 103 -89 48 -141 -16 -15 -27 -32 -24 -36 3 -5 26 -15
52 -22 l47 -14 6 -1519 c3 -835 3 -1531 1 -1546 -3 -22 -10 -28 -28 -28 -13 0
-24 -4 -24 -10 0 -5 -8 -10 -17 -10 -41 -1 -45 -16 -14 -48 23 -22 31 -40 31
-65 0 -37 -15 -54 -72 -80 -21 -9 -38 -21 -38 -26 0 -5 -10 -11 -21 -13 -49
-7 -50 -69 -1 -76 12 -2 24 -11 27 -21 3 -10 19 -21 35 -24 72 -15 92 -86 40
-139 -17 -17 -30 -31 -28 -33 15 -11 75 -35 89 -35 14 0 18 -11 22 -62 6 -88
-2 -3117 -8 -3148 -4 -19 -19 -31 -65 -50 l-59 -25 24 -25 c14 -15 25 -38 25
-54 0 -31 -42 -76 -72 -76 -17 0 -19 -7 -16 -62 l3 -63 100 -23 c112 -26 156
-24 339 8 60 11 111 20 113 20 2 0 3 27 3 60 0 52 -3 60 -19 60 -28 0 -71 45
-71 75 0 14 11 37 25 51 14 14 25 26 25 28 0 2 -27 14 -59 27 -40 15 -62 30
-65 44 -5 17 -6 811 -6 2818 l0 397 24 0 c14 0 28 5 31 10 3 6 15 10 25 10 32
0 33 19 1 49 -55 51 -33 123 41 138 18 3 33 14 35 24 3 10 14 19 25 21 48 7
48 69 0 76 -11 2 -22 11 -25 21 -2 10 -17 21 -35 24 -74 15 -96 87 -42 137 17
15 30 31 30 34 0 9 -69 36 -91 36 -17 0 -19 10 -21 103 -1 56 -2 120 -1 142 0
22 1 673 2 1448 l1 1407 20 0 c11 0 37 7 56 15 l36 15 -31 35 c-40 46 -41 86
-4 115 15 12 40 24 55 27 16 3 28 11 28 17 0 6 14 17 30 23 23 9 30 17 30 38
0 21 -7 29 -30 38 -16 6 -30 17 -30 23 0 6 -12 14 -28 17 -15 3 -40 15 -55 27
-37 29 -36 69 4 115 l31 35 -36 15 c-19 8 -45 15 -56 15 -17 0 -20 7 -20 48 0
26 -1 748 0 1605 l0 1557 -105 0 c-58 0 -105 -3 -106 -7z"/>
</g>
</svg>
