<?xml version="1.0" standalone="no"?>
<!DOCTYPE svg PUBLIC "-//W3C//DTD SVG 20010904//EN"
 "http://www.w3.org/TR/2001/REC-SVG-20010904/DTD/svg10.dtd">
<svg version="1.0" xmlns="http://www.w3.org/2000/svg"
 width="3542.000000pt" height="3750.000000pt" viewBox="0 0 3542.000000 3750.000000"
 preserveAspectRatio="xMidYMid meet">

<g transform="translate(0.000000,3750.000000) scale(0.100000,-0.100000)"
fill="#65340A" stroke="none">
<path d="M11187 18603 c-4 -3 -7 -690 -7 -1525 l0 -1518 -20 0 c-11 0 -36 -6
-55 -14 l-35 -15 30 -30 c41 -40 40 -81 -1 -115 -17 -14 -39 -26 -50 -26 -10
0 -19 -7 -19 -15 0 -8 -8 -15 -18 -15 -48 0 -57 -56 -12 -73 17 -6 30 -17 30
-23 0 -7 12 -15 28 -19 73 -18 94 -86 42 -135 -34 -32 -31 -36 34 -55 l41 -12
2 -1470 3 -1470 -38 -7 c-63 -10 -69 -20 -39 -56 48 -56 26 -120 -44 -135 -16
-4 -29 -13 -29 -21 0 -8 -8 -14 -18 -14 -48 0 -57 -56 -12 -73 17 -6 30 -17
30 -23 0 -7 14 -15 30 -19 72 -16 92 -86 40 -135 -35 -32 -32 -35 43 -59 l37
-13 0 -1522 c0 -1438 -1 -1524 -17 -1538 -10 -8 -40 -23 -67 -33 l-48 -19 26
-19 c48 -35 24 -117 -39 -129 -17 -3 -20 -11 -20 -58 l0 -55 118 -24 117 -24
148 24 147 24 3 58 c3 50 1 57 -16 57 -27 0 -72 45 -72 71 0 13 12 35 26 50
l25 27 -54 22 c-31 13 -60 32 -66 44 -8 15 -11 442 -9 1536 l3 1514 40 11 c66
17 69 22 35 61 -16 19 -30 43 -30 53 0 29 37 69 70 76 17 4 30 13 30 21 0 8 8
14 18 14 25 0 54 33 46 53 -3 9 -19 20 -35 26 -16 5 -29 14 -29 20 0 5 -16 15
-35 21 -68 23 -84 82 -35 132 17 16 30 31 30 33 0 4 -65 26 -88 29 -16 3 -17
101 -20 1470 -2 1168 0 1467 10 1470 60 17 98 30 98 34 0 2 -13 20 -30 39 -16
18 -30 43 -30 54 0 25 40 66 74 75 14 3 26 10 26 16 0 5 13 14 29 19 31 11 44
30 35 53 -3 8 -19 19 -35 25 -16 5 -29 14 -29 19 0 6 -12 13 -26 16 -34 9 -74
50 -74 75 0 11 14 36 31 56 18 20 29 38 25 42 -3 3 -27 11 -53 18 l-48 12 -3
1522 -2 1521 -93 0 c-52 0 -97 -3 -100 -7z"/>
</g>
</svg>
