<?xml version="1.0" standalone="no"?>
<!DOCTYPE svg PUBLIC "-//W3C//DTD SVG 20010904//EN"
 "http://www.w3.org/TR/2001/REC-SVG-20010904/DTD/svg10.dtd">
<svg version="1.0" xmlns="http://www.w3.org/2000/svg"
 width="2550.000000pt" height="2700.000000pt" viewBox="0 0 2550.000000 2700.000000"
 preserveAspectRatio="xMidYMid meet">

<g transform="translate(0.000000,2700.000000) scale(0.100000,-0.100000)"
fill="#3a4548" stroke="none">
<path d="M10309 14114 c-6 -7 -10 -336 -12 -835 l-2 -824 -139 -5 -138 -5 -1
-2798 c0 -1714 3 -2801 9 -2806 5 -6 60 -6 134 -1 69 4 128 6 133 3 9 -5 10
-1574 1 -1598 -4 -9 -24 -23 -45 -32 l-38 -15 20 -28 c24 -32 16 -58 -26 -86
-19 -12 -25 -25 -25 -53 0 -30 7 -42 41 -70 l40 -33 77 10 c42 6 107 14 145
18 l67 6 0 37 c0 28 -7 44 -30 66 -33 31 -39 65 -15 85 20 17 19 27 -4 35 -10
3 -31 17 -45 30 l-26 24 0 805 c0 443 4 807 8 810 5 3 47 8 93 11 46 3 107 8
134 11 l51 5 -1 2787 0 2787 -140 0 -140 0 -2 835 -2 835 -57 0 c-30 0 -60 -5
-65 -11z m276 -4436 c0 -2035 -3 -2670 -12 -2679 -13 -13 -409 -46 -421 -35
-4 4 -7 1214 -7 2689 l0 2682 120 6 c66 3 165 5 220 5 l100 -1 0 -2667z"/>
</g>
</svg>
