<?xml version="1.0" standalone="no"?>
<!DOCTYPE svg PUBLIC "-//W3C//DTD SVG 20010904//EN"
 "http://www.w3.org/TR/2001/REC-SVG-20010904/DTD/svg10.dtd">
<svg version="1.0" xmlns="http://www.w3.org/2000/svg"
 width="2550.000000pt" height="2700.000000pt" viewBox="0 0 2550.000000 2700.000000"
 preserveAspectRatio="xMidYMid meet">

<g transform="translate(0.000000,2700.000000) scale(0.100000,-0.100000)"
fill="#3a4548" stroke="none">
<path d="M23717 26994 c-4 -4 -7 -976 -7 -2160 l0 -2153 33 -3 c17 -2 64 2
102 9 39 7 78 12 88 12 16 1 17 -20 15 -346 l-3 -348 -40 -20 c-22 -11 -42
-21 -44 -22 -2 -2 3 -11 12 -21 31 -34 15 -77 -35 -95 -10 -4 -18 -11 -18 -17
0 -14 14 -13 197 11 160 22 161 22 151 44 -11 24 4 65 22 65 6 0 10 4 10 8 0
5 -24 14 -52 21 -29 8 -60 18 -68 23 -11 7 -10 8 5 4 20 -6 20 -1 20 357 l0
362 123 19 122 20 0 2118 0 2118 -75 0 -75 0 0 -2064 c0 -1360 -3 -2067 -10
-2071 -8 -5 -299 -55 -322 -55 -5 0 -9 942 -10 2093 l-3 2092 -65 3 c-36 2
-69 0 -73 -4z"/>
</g>
</svg>
