<?xml version="1.0" standalone="no"?>
<!DOCTYPE svg PUBLIC "-//W3C//DTD SVG 20010904//EN"
 "http://www.w3.org/TR/2001/REC-SVG-20010904/DTD/svg10.dtd">
<svg version="1.0" xmlns="http://www.w3.org/2000/svg"
 width="2550.000000pt" height="2700.000000pt" viewBox="0 0 2550.000000 2700.000000"
 preserveAspectRatio="xMidYMid meet">

<g transform="translate(0.000000,2700.000000) scale(0.100000,-0.100000)"
fill="#3a4548" stroke="none">
<path d="M9309 14098 c0 -13 -1 -372 -2 -798 l-2 -775 -102 -3 -102 -3 -3
-137 c-2 -75 -3 -1293 -3 -2707 l0 -2569 38 -8 c25 -5 60 -3 100 6 34 8 65 13
68 10 8 -5 10 -1505 2 -1535 -4 -13 -23 -28 -51 -40 -42 -18 -44 -20 -28 -38
32 -35 14 -86 -36 -104 -13 -5 -17 -15 -14 -39 4 -36 -4 -32 131 -62 68 -16
73 -15 167 8 53 13 101 27 107 31 6 3 11 21 11 38 0 26 -6 35 -30 45 -37 17
-48 53 -26 87 9 13 16 26 16 28 0 2 -18 9 -39 16 -26 7 -42 19 -47 34 -8 24
-12 1544 -4 1557 3 4 49 15 103 25 l97 17 0 2680 0 2680 -102 -3 -103 -4 -2
765 c-1 421 -2 777 -2 793 -1 27 -1 27 -71 27 -66 0 -70 -1 -71 -22z m204
-4246 c0 -1414 -2 -2574 -5 -2577 -10 -10 -243 -53 -250 -47 -5 5 -13 4763 -8
5164 0 26 3 27 58 31 31 2 90 3 131 3 l73 -1 1 -2573z"/>
</g>
</svg>
