<?xml version="1.0" standalone="no"?>
<!DOCTYPE svg PUBLIC "-//W3C//DTD SVG 20010904//EN"
 "http://www.w3.org/TR/2001/REC-SVG-20010904/DTD/svg10.dtd">
<svg version="1.0" xmlns="http://www.w3.org/2000/svg"
 width="2550.000000pt" height="2700.000000pt" viewBox="0 0 2550.000000 2700.000000"
 preserveAspectRatio="xMidYMid meet">

<g transform="translate(0.000000,2700.000000) scale(0.100000,-0.100000)"
fill="#3a4548" stroke="none">
<path d="M10347 14552 l-67 -68 0 -506 0 -507 -117 -3 -118 -3 0 -2190 c-1
-1204 1 -2395 5 -2645 l5 -455 60 0 c33 1 83 3 110 5 l50 4 3 -332 2 -333 -46
-20 c-38 -17 -43 -23 -30 -32 31 -24 24 -71 -14 -94 -26 -15 -30 -23 -28 -53
3 -34 4 -35 73 -51 62 -14 84 -15 182 -3 62 7 117 15 123 19 23 14 10 60 -25
88 -37 30 -44 57 -20 77 22 18 19 29 -12 41 -66 25 -63 9 -63 375 l0 334 23 4
c12 3 51 8 87 11 36 3 80 8 98 12 l32 5 0 2624 0 2623 -117 3 -118 3 -2 564
c-1 310 -3 565 -5 567 -2 2 -34 -27 -71 -64z m171 -3696 c1 -1386 -2 -2524 -6
-2528 -10 -10 -310 -47 -317 -39 -3 2 -5 1146 -5 2542 l0 2538 38 4 c20 2 93
3 162 3 l125 -1 3 -2519z"/>
</g>
</svg>
