<?xml version="1.0" standalone="no"?>
<!DOCTYPE svg PUBLIC "-//W3C//DTD SVG 20010904//EN"
 "http://www.w3.org/TR/2001/REC-SVG-20010904/DTD/svg10.dtd">
<svg version="1.0" xmlns="http://www.w3.org/2000/svg"
 width="2550.000000pt" height="2700.000000pt" viewBox="0 0 2550.000000 2700.000000"
 preserveAspectRatio="xMidYMid meet">

<g transform="translate(0.000000,2700.000000) scale(0.100000,-0.100000)"
fill="#3a4548" stroke="none">
<path d="M12867 17222 l-57 -58 0 -551 0 -552 -119 -3 -118 -3 -7 -2542 c-5
-1950 -4 -2543 5 -2549 7 -4 63 -6 126 -5 l113 2 0 -736 0 -735 -32 -20 c-18
-11 -37 -22 -43 -23 -5 -2 -2 -13 8 -24 25 -28 21 -49 -13 -75 -23 -16 -30
-30 -30 -54 0 -31 3 -34 50 -48 46 -14 94 -14 265 -2 38 3 40 5 40 36 0 23 -7
37 -26 51 -35 25 -41 53 -18 83 19 24 19 24 -4 30 -12 3 -32 15 -45 26 l-22
21 0 738 0 738 123 9 122 9 -4 2530 c-1 1392 -4 2531 -5 2531 -1 1 -197 13
-223 14 -10 0 -13 129 -13 610 0 336 -4 610 -8 610 -4 0 -33 -26 -65 -58z
m188 -3707 l0 -2440 -170 -8 c-93 -4 -175 -5 -182 -3 -11 4 -13 480 -13 2450
0 1594 3 2445 10 2448 5 2 87 1 182 -2 l173 -5 0 -2440z"/>
</g>
</svg>
