<?xml version="1.0" standalone="no"?>
<!DOCTYPE svg PUBLIC "-//W3C//DTD SVG 20010904//EN"
 "http://www.w3.org/TR/2001/REC-SVG-20010904/DTD/svg10.dtd">
<svg version="1.0" xmlns="http://www.w3.org/2000/svg"
 width="2550.000000pt" height="2700.000000pt" viewBox="0 0 2550.000000 2700.000000"
 preserveAspectRatio="xMidYMid meet">

<g transform="translate(0.000000,2700.000000) scale(0.100000,-0.100000)"
fill="#3a4548" stroke="none">
<path d="M13703 18068 l-53 -54 0 -547 c0 -430 -3 -547 -12 -548 -7 -1 -65 -2
-128 -3 l-115 -1 -3 -2527 -2 -2528 130 0 130 0 0 -319 c0 -277 -2 -322 -16
-335 -8 -9 -18 -16 -22 -16 -4 0 -13 -4 -20 -9 -11 -7 -11 -12 -1 -28 16 -26
4 -74 -21 -80 -16 -4 -20 -14 -20 -43 0 -35 3 -39 33 -48 17 -6 55 -9 82 -7
28 2 83 3 123 4 l72 1 0 31 c0 21 -9 40 -25 55 -28 26 -32 59 -10 84 14 16 13
18 -15 30 -17 7 -35 21 -40 31 -6 10 -10 150 -10 333 l0 316 93 2 c50 1 108 3
127 3 l35 1 3 2522 2 2521 -127 3 -128 3 -5 603 -5 603 -52 -53z m205 -3680
l2 -2428 -147 -1 c-82 -1 -173 -2 -203 -3 l-55 -1 -3 2433 -2 2432 202 -2 203
-3 3 -2427z"/>
</g>
</svg>
