<?xml version="1.0" standalone="no"?>
<!DOCTYPE svg PUBLIC "-//W3C//DTD SVG 20010904//EN"
 "http://www.w3.org/TR/2001/REC-SVG-20010904/DTD/svg10.dtd">
<svg version="1.0" xmlns="http://www.w3.org/2000/svg"
 width="2550.000000pt" height="2700.000000pt" viewBox="0 0 2550.000000 2700.000000"
 preserveAspectRatio="xMidYMid meet">

<g transform="translate(0.000000,2700.000000) scale(0.100000,-0.100000)"
fill="#3a4548" stroke="none">
<path d="M1388 12458 l-3 -1132 -37 -9 c-33 -8 -54 -27 -29 -27 5 0 14 -13 21
-30 10 -25 10 -34 -4 -55 -9 -14 -30 -28 -46 -31 -16 -4 -31 -12 -34 -20 -3
-8 -12 -14 -21 -14 -22 0 -18 -31 5 -37 11 -3 20 -9 20 -13 0 -5 15 -13 34
-20 40 -13 60 -49 46 -84 -5 -13 -14 -27 -20 -31 -16 -10 7 -25 36 -25 12 0
25 -7 28 -16 8 -22 6 -2205 -2 -2224 -4 -8 -20 -16 -37 -18 -38 -4 -41 -8 -23
-29 38 -45 28 -86 -28 -109 -19 -8 -34 -18 -34 -23 0 -5 -9 -11 -20 -14 -22
-6 -28 -37 -6 -37 7 0 19 -7 26 -15 7 -8 21 -15 30 -15 10 0 28 -12 39 -27 22
-27 21 -54 -5 -84 -17 -19 -9 -29 22 -29 13 0 28 -9 34 -19 16 -30 13 -2611
-3 -2632 -7 -9 -27 -24 -46 -33 -19 -10 -30 -21 -24 -25 33 -22 12 -94 -32
-111 -18 -7 -24 -16 -23 -35 1 -14 3 -25 4 -25 1 0 48 -5 105 -11 95 -10 113
-8 207 12 l102 23 0 30 c0 25 -6 34 -30 44 -37 17 -48 53 -27 86 15 23 15 24
-12 29 -66 13 -61 -97 -61 1348 l0 1309 40 16 39 16 -21 28 c-27 37 -18 74 24
96 17 9 40 25 51 35 12 10 24 19 29 19 17 0 7 19 -14 26 -13 4 -25 9 -28 13
-3 3 -18 13 -35 21 -44 23 -55 62 -27 99 l21 29 -39 7 -40 7 0 1114 c0 1053 1
1115 18 1120 9 3 28 10 41 15 l24 10 -22 23 c-11 12 -21 32 -21 43 0 21 42 63
63 63 12 0 67 50 67 61 0 4 -11 10 -25 13 -14 4 -25 11 -25 16 0 6 -8 10 -18
10 -22 0 -62 40 -62 62 0 8 9 27 21 42 l20 26 -26 10 c-14 5 -33 10 -41 10
-12 0 -14 155 -14 1130 l0 1130 -75 0 -75 0 -2 -1132z"/>
</g>
</svg>
