<?xml version="1.0" standalone="no"?>
<!DOCTYPE svg PUBLIC "-//W3C//DTD SVG 20010904//EN"
 "http://www.w3.org/TR/2001/REC-SVG-20010904/DTD/svg10.dtd">
<svg version="1.0" xmlns="http://www.w3.org/2000/svg"
 width="2550.000000pt" height="2700.000000pt" viewBox="0 0 2550.000000 2700.000000"
 preserveAspectRatio="xMidYMid meet">

<g transform="translate(0.000000,2700.000000) scale(0.100000,-0.100000)"
fill="#3a4548" stroke="none">
<path d="M1857 13593 c-2 -5 -2 -505 -1 -1113 2 -608 0 -1129 -3 -1157 -4 -40
-9 -53 -22 -53 -9 -1 -26 -6 -39 -13 l-23 -13 21 -19 c39 -35 20 -92 -37 -109
-27 -9 -30 -23 -5 -29 9 -2 2 -4 -16 -4 -18 0 -38 -5 -44 -11 -12 -12 -2 -32
16 -32 8 0 19 -7 26 -15 7 -8 20 -15 30 -15 30 0 53 -36 47 -74 -5 -29 -3 -34
12 -31 10 2 24 -1 32 -6 10 -6 1 -9 -28 -7 -23 1 -45 -1 -49 -5 -7 -7 38 -27
60 -27 8 0 15 -15 18 -32 3 -26 2 -1794 -1 -2150 l-1 -77 -35 -12 c-39 -15
-40 -16 -20 -43 33 -43 7 -106 -43 -106 -12 0 -22 -6 -22 -14 0 -8 -11 -17
-25 -20 -14 -4 -25 -13 -25 -21 0 -8 11 -17 25 -21 14 -3 25 -10 25 -14 0 -5
14 -11 30 -15 51 -11 65 -63 30 -108 l-21 -26 36 -7 c20 -3 38 -12 41 -18 2
-6 5 -601 7 -1323 3 -1438 7 -1334 -55 -1361 -25 -10 -26 -13 -15 -41 8 -22 8
-36 -1 -56 -11 -25 -11 -27 5 -21 15 6 16 5 5 -6 -7 -7 -25 -13 -40 -13 -23 0
-27 -5 -30 -32 -2 -18 1 -33 6 -33 5 0 55 -5 113 -10 96 -10 112 -9 199 13 92
22 95 24 98 53 2 24 -2 33 -23 42 -37 17 -52 55 -33 84 15 22 14 24 -26 43
l-41 20 0 1329 0 1330 35 9 c45 12 46 12 21 38 -12 13 -21 33 -21 45 0 27 36
64 62 64 10 0 18 5 18 10 0 6 12 15 26 20 31 12 29 44 -4 48 -12 2 -22 8 -22
13 0 5 -6 9 -14 9 -24 0 -66 41 -66 64 0 13 9 35 20 49 l20 25 -40 7 -40 7 2
1131 3 1131 35 9 c45 11 45 12 21 36 -12 12 -21 32 -21 46 0 30 32 65 60 65
11 0 20 5 20 10 0 6 11 15 25 20 14 5 25 16 25 25 0 8 -11 17 -25 21 -14 3
-25 10 -25 15 0 5 -6 9 -14 9 -23 0 -66 40 -66 62 0 11 9 33 20 48 l20 28 -38
9 -37 9 -3 1162 -2 1162 -74 0 c-41 0 -77 -3 -79 -7z m-50 -2509 c-3 -3 -12
-4 -19 -1 -8 3 -5 6 6 6 11 1 17 -2 13 -5z m130 -10 c-3 -3 -12 -4 -19 -1 -8
3 -5 6 6 6 11 1 17 -2 13 -5z m-90 -2610 c-3 -3 -12 -4 -19 -1 -8 3 -5 6 6 6
11 1 17 -2 13 -5z m-64 -61 c-7 -2 -19 -2 -25 0 -7 3 -2 5 12 5 14 0 19 -2 13
-5z m71 -181 c3 -5 -9 -9 -26 -10 -24 -1 -28 2 -18 8 19 12 37 13 44 2z"/>
</g>
</svg>
