<?xml version="1.0" standalone="no"?>
<!DOCTYPE svg PUBLIC "-//W3C//DTD SVG 20010904//EN"
 "http://www.w3.org/TR/2001/REC-SVG-20010904/DTD/svg10.dtd">
<svg version="1.0" xmlns="http://www.w3.org/2000/svg"
 width="2550.000000pt" height="2700.000000pt" viewBox="0 0 2550.000000 2700.000000"
 preserveAspectRatio="xMidYMid meet">

<g transform="translate(0.000000,2700.000000) scale(0.100000,-0.100000)"
fill="#3a4548" stroke="none">
<path d="M3410 13478 c-1 -73 -1 -512 -1 -975 -1 -623 -4 -845 -12 -851 -7 -6
-27 -13 -45 -17 l-32 -7 25 -30 c14 -16 25 -33 25 -37 0 -15 -41 -61 -55 -61
-7 0 -20 -6 -27 -13 -7 -8 -23 -19 -35 -26 -36 -19 -25 -32 64 -74 56 -27 63
-66 18 -110 -15 -15 -9 -19 57 -41 17 -5 18 -70 16 -1103 0 -683 -4 -1103 -10
-1110 -6 -7 -25 -15 -44 -19 -19 -3 -34 -8 -34 -10 0 -2 11 -14 25 -28 14 -14
25 -32 25 -41 0 -21 -48 -65 -70 -65 -10 0 -20 -7 -24 -15 -3 -8 -12 -15 -20
-15 -7 0 -16 -6 -19 -14 -6 -16 11 -36 30 -36 7 0 13 -4 13 -9 0 -5 13 -11 30
-14 16 -4 36 -17 45 -31 15 -22 15 -27 0 -55 -8 -17 -20 -31 -26 -31 -23 0 4
-20 36 -26 20 -3 36 -13 38 -23 2 -9 5 -668 6 -1466 1 -1173 -1 -1453 -12
-1466 -7 -10 -30 -24 -51 -33 -34 -14 -36 -17 -22 -32 19 -19 21 -55 4 -73
-11 -11 -10 -13 5 -8 9 4 17 2 17 -3 0 -6 -11 -10 -24 -10 -44 0 -56 -10 -56
-46 0 -21 5 -34 13 -34 6 0 59 -4 117 -10 95 -9 113 -8 194 13 88 22 90 23 93
55 3 27 0 34 -20 41 -51 20 -65 69 -29 98 13 11 11 14 -12 23 -15 5 -31 10
-35 10 -4 0 -15 8 -23 18 -14 15 -16 177 -16 1480 0 1351 1 1464 17 1469 9 3
28 9 43 15 l28 10 -25 30 c-14 16 -25 34 -25 39 0 16 48 59 65 59 8 0 15 5 15
10 0 6 11 15 25 20 30 12 35 50 6 50 -10 0 -21 7 -25 15 -3 8 -14 15 -24 15
-20 0 -62 39 -62 57 0 6 11 25 25 41 27 32 20 42 -30 42 -12 0 -26 7 -29 16
-8 20 -8 2178 0 2198 3 9 12 16 19 16 8 0 25 4 39 10 l26 9 -25 27 c-14 15
-25 33 -25 41 0 16 44 63 60 63 17 0 70 43 70 57 0 7 -25 24 -55 38 -67 30
-86 61 -61 100 9 14 21 25 26 25 6 0 10 4 10 9 0 4 -19 12 -42 17 l-43 9 -3
978 -2 977 -70 0 -70 0 0 -132z"/>
</g>
</svg>
