<?xml version="1.0" standalone="no"?>
<!DOCTYPE svg PUBLIC "-//W3C//DTD SVG 20010904//EN"
 "http://www.w3.org/TR/2001/REC-SVG-20010904/DTD/svg10.dtd">
<svg version="1.0" xmlns="http://www.w3.org/2000/svg"
 width="2550.000000pt" height="2700.000000pt" viewBox="0 0 2550.000000 2700.000000"
 preserveAspectRatio="xMidYMid meet">

<g transform="translate(0.000000,2700.000000) scale(0.100000,-0.100000)"
fill="#3a4548" stroke="none">
<path d="M4203 14100 l-73 -92 0 -687 0 -688 -40 -12 -41 -12 26 -30 c14 -17
25 -35 25 -40 0 -16 -48 -59 -65 -59 -8 0 -15 -5 -15 -10 0 -6 -11 -15 -25
-20 -39 -15 -30 -34 30 -64 79 -39 88 -62 42 -113 l-20 -22 27 -11 c15 -5 34
-10 42 -10 12 0 14 -150 14 -1090 0 -940 -2 -1090 -14 -1090 -8 0 -27 -5 -41
-10 l-27 -10 26 -31 c14 -17 26 -35 26 -40 0 -12 -49 -59 -62 -59 -16 0 -68
-43 -68 -57 0 -7 25 -24 55 -38 80 -38 88 -61 42 -112 l-20 -22 29 -8 c16 -4
34 -7 39 -8 11 0 20 -2000 10 -2043 -4 -14 -20 -28 -46 -38 -37 -15 -39 -18
-24 -34 8 -9 15 -25 15 -36 0 -26 -27 -64 -46 -64 -9 0 -14 -11 -14 -35 0 -41
4 -42 130 -48 73 -4 192 10 253 29 11 3 17 15 17 34 0 21 -8 33 -35 49 -38 22
-47 59 -20 81 22 19 18 28 -15 35 -64 14 -60 -63 -60 1056 0 884 2 1019 15
1019 8 0 26 5 40 12 l25 11 -21 23 c-30 32 -22 75 16 94 52 27 85 52 85 65 0
7 -26 26 -57 42 -68 34 -81 68 -42 109 l22 23 -27 11 c-15 5 -34 10 -42 10
-12 0 -14 147 -12 1087 l3 1086 39 11 c36 10 38 12 21 26 -44 37 -35 83 21
106 19 8 34 18 34 23 0 5 9 11 20 14 11 3 20 13 20 22 0 9 -9 19 -20 22 -11 3
-20 9 -20 14 0 5 -6 9 -14 9 -24 0 -66 41 -66 64 0 12 9 32 20 44 l21 22 -26
10 c-15 6 -33 10 -41 10 -12 0 -14 112 -16 781 l-3 782 -72 -93z"/>
</g>
</svg>
