<?xml version="1.0" standalone="no"?>
<!DOCTYPE svg PUBLIC "-//W3C//DTD SVG 20010904//EN"
 "http://www.w3.org/TR/2001/REC-SVG-20010904/DTD/svg10.dtd">
<svg version="1.0" xmlns="http://www.w3.org/2000/svg"
 width="2550.000000pt" height="2700.000000pt" viewBox="0 0 2550.000000 2700.000000"
 preserveAspectRatio="xMidYMid meet">

<g transform="translate(0.000000,2700.000000) scale(0.100000,-0.100000)"
fill="#3a4548" stroke="none">
<path d="M22142 25242 l-52 -47 -3 -1090 -2 -1089 -37 -9 -38 -9 20 -25 c36
-46 16 -113 -33 -113 -9 0 -17 -5 -17 -10 0 -6 -11 -15 -25 -20 -14 -5 -25
-15 -25 -21 0 -12 69 -79 81 -79 4 0 15 -7 23 -16 22 -21 20 -67 -4 -89 -24
-21 -21 -28 25 -49 l35 -17 -2 -1121 -3 -1122 -35 -9 c-45 -12 -46 -12 -21
-38 12 -13 21 -35 21 -49 0 -26 -26 -60 -46 -60 -5 0 -25 -14 -44 -30 l-35
-29 33 -31 c18 -16 37 -30 43 -30 19 0 49 -41 49 -67 0 -15 -9 -37 -21 -49
l-21 -23 41 -20 41 -21 0 -1585 c0 -1565 0 -1585 -20 -1605 -11 -11 -31 -22
-45 -26 -29 -7 -31 -16 -10 -34 8 -7 15 -23 15 -36 0 -24 -31 -64 -50 -64 -5
0 -10 -14 -10 -31 0 -29 1 -30 43 -25 23 2 108 5 190 5 136 1 147 2 147 19 0
10 -12 25 -26 33 -40 21 -49 57 -25 90 l20 27 -27 8 c-15 4 -34 8 -42 8 -13 1
-15 187 -15 1610 l0 1609 30 10 c40 13 40 11 14 46 -28 38 -19 74 26 99 17 9
32 20 35 23 3 3 13 8 23 12 23 9 22 44 -3 52 -11 3 -20 10 -20 15 0 5 -13 16
-30 25 -42 22 -55 50 -40 86 7 16 16 29 21 29 21 0 6 22 -26 37 l-35 17 0
1122 0 1122 35 6 c40 8 40 8 19 41 -9 14 -22 21 -30 18 -8 -3 -14 1 -14 8 0 7
3 9 7 5 4 -3 12 8 17 26 7 19 23 38 41 48 16 8 35 21 43 28 7 6 18 12 23 12
36 0 -27 81 -78 101 -34 13 -40 55 -13 91 21 28 21 30 3 43 -10 8 -26 17 -35
20 -17 6 -18 69 -18 1134 0 1113 -1 1152 -29 1151 -4 0 -30 -22 -59 -48z"/>
</g>
</svg>
