<?xml version="1.0" standalone="no"?>
<!DOCTYPE svg PUBLIC "-//W3C//DTD SVG 20010904//EN"
 "http://www.w3.org/TR/2001/REC-SVG-20010904/DTD/svg10.dtd">
<svg version="1.0" xmlns="http://www.w3.org/2000/svg"
 width="2550.000000pt" height="2700.000000pt" viewBox="0 0 2550.000000 2700.000000"
 preserveAspectRatio="xMidYMid meet">

<g transform="translate(0.000000,2700.000000) scale(0.100000,-0.100000)"
fill="#3a4548" stroke="none">
<path d="M23277 26330 l-56 -51 0 -937 c0 -515 0 -998 -1 -1073 l0 -137 -36
-6 c-19 -4 -34 -10 -32 -14 2 -4 12 -24 22 -44 18 -35 18 -38 2 -62 -9 -14
-27 -28 -41 -32 -14 -3 -25 -10 -25 -14 0 -4 -9 -10 -20 -13 -42 -11 -11 -60
74 -120 32 -22 33 -46 4 -82 -22 -28 -22 -28 -2 -41 10 -7 27 -19 37 -26 17
-13 18 -62 18 -1048 0 -569 0 -1076 -1 -1126 0 -87 -1 -92 -22 -98 -48 -12
-53 -22 -29 -51 11 -15 21 -35 21 -44 0 -26 -29 -61 -51 -61 -11 0 -22 -6 -25
-14 -3 -8 -14 -16 -25 -19 -32 -8 -22 -41 22 -73 87 -62 95 -81 58 -128 -12
-15 -20 -28 -18 -30 2 -2 19 -11 37 -20 24 -12 32 -23 32 -44 4 -309 -1 -2233
-5 -2244 -4 -9 -24 -23 -45 -33 l-39 -17 21 -29 c18 -24 20 -32 10 -54 -7 -14
-23 -30 -37 -37 -14 -6 -25 -17 -25 -25 0 -15 28 -16 238 -6 132 6 140 7 120
21 -13 9 -26 21 -30 26 -13 19 -9 54 9 71 14 14 14 18 2 26 -8 5 -20 9 -26 9
-7 0 -22 9 -33 20 -20 20 -20 33 -20 1160 0 984 2 1140 14 1140 8 0 27 5 42
10 26 10 26 11 9 30 -10 11 -21 18 -24 15 -4 -2 -5 15 -2 38 5 33 12 44 36 57
17 8 34 21 38 28 4 6 14 12 22 12 43 0 6 56 -67 103 -34 21 -37 63 -9 98 l19
24 -39 23 -39 23 0 1125 0 1124 28 11 c15 5 33 12 41 15 11 3 9 10 -8 28 -32
34 -26 82 14 104 17 9 32 20 33 25 2 4 9 7 17 7 7 0 18 7 25 15 11 13 8 21
-21 51 -19 19 -46 41 -61 50 -34 18 -37 59 -8 96 l19 25 -37 24 -37 24 -3
1111 c-2 932 -4 1113 -16 1123 -11 9 -25 1 -69 -39z"/>
</g>
</svg>
