<?xml version="1.0" standalone="no"?>
<!DOCTYPE svg PUBLIC "-//W3C//DTD SVG 20010904//EN"
 "http://www.w3.org/TR/2001/REC-SVG-20010904/DTD/svg10.dtd">
<svg version="1.0" xmlns="http://www.w3.org/2000/svg"
 width="2550.000000pt" height="2700.000000pt" viewBox="0 0 2550.000000 2700.000000"
 preserveAspectRatio="xMidYMid meet">

<g transform="translate(0.000000,2700.000000) scale(0.100000,-0.100000)"
fill="#3a4548" stroke="none">
<path d="M24380 26005 c0 -719 -2 -835 -14 -835 -8 0 -26 -4 -41 -10 l-26 -10
21 -28 c30 -40 24 -82 -15 -102 -16 -8 -34 -21 -38 -27 -4 -7 -15 -13 -23 -13
-8 0 -17 -7 -21 -16 -4 -11 11 -31 48 -65 29 -27 57 -49 61 -49 17 0 7 -55
-14 -77 -12 -13 -20 -24 -17 -26 2 -1 21 -15 42 -30 l37 -28 0 -1133 0 -1133
-40 -12 -41 -12 21 -29 c42 -59 27 -85 -77 -141 -13 -7 -23 -17 -23 -22 0 -12
55 -66 93 -90 34 -22 36 -63 6 -96 -24 -25 -23 -26 34 -57 l27 -15 0 -1613 c0
-1524 -1 -1614 -18 -1629 -9 -8 -30 -20 -45 -26 -27 -10 -27 -12 -13 -33 24
-35 20 -65 -14 -90 -56 -41 -42 -48 93 -47 110 1 285 14 246 17 -20 2 -59 44
-59 64 0 8 9 26 19 39 l19 25 -43 17 c-28 12 -45 26 -49 40 -3 12 -5 743 -5
1623 -1 1268 2 1604 12 1612 6 6 24 13 40 17 30 8 35 22 12 31 -8 4 -15 12
-15 20 0 8 -7 11 -17 8 -11 -4 -14 -2 -8 3 6 4 15 21 20 38 6 16 23 36 40 45
17 8 32 18 35 21 3 3 13 8 23 12 18 7 24 47 7 47 -6 0 -20 11 -32 25 -22 25
-45 35 -32 13 4 -7 3 -8 -5 -4 -6 4 -9 11 -6 15 2 5 -4 16 -15 26 -26 23 -25
46 2 80 21 27 21 29 4 39 -10 6 -29 19 -42 29 l-24 18 0 1122 c1 617 4 1127 8
1133 4 6 22 15 40 19 38 8 38 9 12 42 -11 14 -20 36 -20 48 0 25 38 65 62 65
9 0 18 7 22 15 3 8 12 15 21 15 32 0 13 39 -45 90 -33 29 -60 60 -60 68 0 7
10 27 21 44 l21 29 -23 17 c-62 43 -57 -30 -58 868 -2 627 -5 820 -14 826 -7
4 -36 8 -64 8 l-53 0 0 -835z"/>
</g>
</svg>
