<?xml version="1.0" standalone="no"?>
<!DOCTYPE svg PUBLIC "-//W3C//DTD SVG 20010904//EN"
 "http://www.w3.org/TR/2001/REC-SVG-20010904/DTD/svg10.dtd">
<svg version="1.0" xmlns="http://www.w3.org/2000/svg"
 width="2550.000000pt" height="2700.000000pt" viewBox="0 0 2550.000000 2700.000000"
 preserveAspectRatio="xMidYMid meet">

<g transform="translate(0.000000,2700.000000) scale(0.100000,-0.100000)"
fill="#3a4548" stroke="none">
<path d="M13238 12243 c-3 -1299 -3 -1308 -23 -1312 -11 -2 -30 -7 -43 -12
l-24 -9 26 -31 c14 -17 26 -39 26 -48 0 -10 -25 -44 -55 -76 -30 -31 -55 -60
-55 -63 1 -15 27 -39 56 -51 52 -21 63 -70 26 -114 -18 -20 -12 -28 31 -43
l32 -11 0 -1248 0 -1247 -42 -17 -41 -16 24 -28 c33 -38 31 -70 -7 -101 -17
-14 -34 -26 -39 -26 -5 0 -21 -12 -35 -26 -27 -27 -27 -54 -1 -54 7 0 16 -7
20 -15 3 -8 14 -15 24 -15 24 0 62 -41 62 -67 0 -11 -10 -32 -21 -47 -25 -31
-25 -31 21 -43 l35 -9 3 -1450 c2 -1048 -1 -1455 -9 -1470 -6 -12 -26 -28 -45
-37 -34 -17 -42 -31 -24 -42 6 -3 10 -22 10 -41 0 -29 -6 -38 -36 -56 -31 -18
-35 -25 -32 -57 l3 -36 135 -13 134 -12 73 26 c41 15 76 31 79 36 14 22 10 70
-5 76 -26 8 -61 44 -61 62 0 8 7 26 16 38 9 13 14 24 13 25 -2 1 -22 11 -44
22 l-40 20 -3 1458 -2 1457 40 16 39 16 -20 27 c-34 47 -23 78 46 126 68 48
79 71 41 81 -14 3 -26 10 -26 15 0 5 -6 9 -14 9 -7 0 -25 9 -40 21 -32 25 -34
66 -6 102 11 14 20 27 20 30 0 3 -18 8 -40 12 l-40 7 0 1249 0 1249 28 11 c15
5 33 12 40 14 10 4 8 11 -7 31 -36 46 -19 105 34 118 14 4 25 11 25 16 0 6 11
15 25 20 14 5 25 16 25 25 0 9 -11 20 -25 25 -14 5 -25 14 -25 20 0 5 -8 10
-18 10 -24 0 -62 41 -62 67 0 11 9 32 21 47 25 32 19 43 -26 52 l-35 6 0 1304
0 1304 -80 0 -80 0 -2 -1307z"/>
</g>
</svg>
