<?xml version="1.0" standalone="no"?>
<!DOCTYPE svg PUBLIC "-//W3C//DTD SVG 20010904//EN"
 "http://www.w3.org/TR/2001/REC-SVG-20010904/DTD/svg10.dtd">
<svg version="1.0" xmlns="http://www.w3.org/2000/svg"
 width="2550.000000pt" height="2700.000000pt" viewBox="0 0 2550.000000 2700.000000"
 preserveAspectRatio="xMidYMid meet">

<g transform="translate(0.000000,2700.000000) scale(0.100000,-0.100000)"
fill="#3a4548" stroke="none">
<path d="M13047 13534 c-3 -4 -7 -444 -7 -978 0 -534 0 -1007 0 -1052 l0 -81
-40 -12 c-41 -12 -50 -24 -26 -38 7 -4 19 -18 25 -31 15 -29 -6 -66 -47 -85
-14 -7 -39 -24 -55 -38 -25 -23 -27 -28 -13 -40 32 -29 43 -37 65 -44 25 -8
61 -43 61 -61 0 -7 -11 -26 -25 -42 -14 -17 -25 -33 -25 -36 0 -3 18 -9 40
-12 36 -6 40 -9 41 -38 4 -99 5 -2363 1 -2374 -2 -7 -22 -20 -43 -29 -22 -8
-39 -17 -39 -19 0 -1 11 -15 25 -30 14 -15 25 -33 25 -41 0 -17 -41 -57 -98
-96 -24 -16 -39 -33 -36 -41 3 -7 29 -25 59 -40 78 -38 93 -78 45 -121 -28
-26 -25 -32 19 -40 36 -6 40 -10 45 -43 8 -59 0 -3155 -9 -3175 -4 -10 -25
-27 -47 -38 -37 -19 -38 -21 -23 -42 8 -12 15 -31 15 -42 0 -23 -38 -65 -58
-65 -7 0 -12 -16 -12 -39 0 -46 2 -47 175 -57 101 -5 115 -4 175 19 64 25 65
25 68 66 2 32 0 41 -12 41 -24 0 -56 37 -56 64 0 14 7 32 17 41 14 14 14 18 2
26 -8 5 -19 9 -25 9 -6 0 -23 9 -37 20 l-25 20 -1 1594 -1 1593 46 18 45 17
-19 22 c-31 34 -35 60 -12 89 11 14 30 29 41 32 27 9 69 49 69 66 0 14 -10 21
-77 52 -56 27 -63 66 -20 114 l20 22 -24 9 c-13 5 -33 11 -44 13 -20 4 -20 13
-22 1189 -1 652 0 1195 2 1206 3 13 15 24 32 27 38 9 62 27 45 34 -7 2 -19 18
-28 35 -14 27 -14 32 1 54 9 14 28 30 43 37 61 28 96 87 52 87 -11 0 -20 7
-20 15 0 8 -8 15 -19 15 -22 0 -71 44 -71 64 0 8 11 28 25 44 14 17 25 32 25
35 0 3 -18 8 -40 12 l-40 7 -1 61 c0 34 -1 510 -2 1057 l-2 995 -70 3 c-39 1
-74 0 -78 -4z"/>
</g>
</svg>
