<?xml version="1.0" standalone="no"?>
<!DOCTYPE svg PUBLIC "-//W3C//DTD SVG 20010904//EN"
 "http://www.w3.org/TR/2001/REC-SVG-20010904/DTD/svg10.dtd">
<svg version="1.0" xmlns="http://www.w3.org/2000/svg"
 width="2550.000000pt" height="2700.000000pt" viewBox="0 0 2550.000000 2700.000000"
 preserveAspectRatio="xMidYMid meet">

<g transform="translate(0.000000,2700.000000) scale(0.100000,-0.100000)"
fill="#3a4548" stroke="none">
<path d="M14250 15035 l-65 -110 -5 -750 -5 -750 -37 -9 c-43 -11 -46 -18 -18
-48 11 -12 20 -32 20 -44 0 -21 -42 -64 -62 -64 -5 0 -16 -6 -23 -12 -8 -7
-21 -19 -30 -26 -13 -11 -13 -17 -4 -28 6 -8 18 -14 25 -14 8 0 14 -4 14 -8 0
-5 16 -16 35 -25 46 -22 55 -58 25 -99 -12 -16 -20 -31 -18 -33 1 -2 19 -7 38
-12 l35 -9 3 -1156 2 -1155 -27 -6 c-52 -12 -60 -23 -35 -50 12 -13 22 -32 22
-43 0 -22 -39 -64 -58 -64 -7 0 -15 -7 -18 -15 -4 -8 -12 -15 -19 -15 -7 0
-18 -6 -24 -14 -12 -14 -10 -17 33 -53 8 -7 21 -13 29 -13 20 0 57 -43 57 -67
0 -11 -9 -28 -20 -38 -28 -25 -25 -32 18 -42 l37 -9 3 -1519 c1 -836 0 -1530
-3 -1542 -3 -14 -23 -32 -51 -46 -45 -23 -45 -23 -25 -42 30 -26 26 -50 -14
-82 -27 -22 -35 -35 -35 -60 0 -18 3 -33 8 -33 4 0 63 -5 131 -10 110 -8 130
-7 187 11 l64 20 0 39 c0 27 -4 40 -13 40 -39 0 -62 75 -31 101 13 11 10 15
-28 33 l-43 21 -3 1536 -2 1536 40 12 c36 11 56 31 30 31 -5 0 -17 11 -25 24
-20 31 -6 72 32 88 16 7 31 16 34 21 4 5 17 14 29 20 35 18 35 33 0 45 -16 6
-30 15 -30 21 0 5 -10 11 -21 13 -12 2 -31 15 -41 29 -19 25 -19 28 -4 58 9
17 21 31 26 31 6 0 10 4 10 9 0 5 -18 12 -40 16 l-40 7 0 1159 c0 1000 2 1159
14 1159 8 0 27 5 42 10 l27 11 -20 22 c-45 50 -35 75 51 128 31 19 54 39 53
44 -2 6 -16 16 -30 23 -15 7 -27 17 -27 23 0 5 -9 9 -19 9 -18 0 -61 43 -61
61 0 4 12 21 26 38 l26 31 -27 10 c-14 5 -33 10 -41 10 -12 0 -14 123 -16 863
l-3 862 -65 -110z"/>
</g>
</svg>
