<?xml version="1.0" standalone="no"?>
<!DOCTYPE svg PUBLIC "-//W3C//DTD SVG 20010904//EN"
 "http://www.w3.org/TR/2001/REC-SVG-20010904/DTD/svg10.dtd">
<svg version="1.0" xmlns="http://www.w3.org/2000/svg"
 width="2550.000000pt" height="2700.000000pt" viewBox="0 0 2550.000000 2700.000000"
 preserveAspectRatio="xMidYMid meet">

<g transform="translate(0.000000,2700.000000) scale(0.100000,-0.100000)"
fill="#3a4548" stroke="none">
<path d="M17797 21082 l-47 -48 -2 -1049 -3 -1049 -35 -9 c-19 -5 -37 -10 -38
-12 -2 -2 6 -17 18 -33 29 -38 23 -72 -15 -92 -16 -8 -32 -19 -34 -23 -2 -5
-14 -12 -27 -17 -37 -15 -29 -34 34 -77 65 -44 75 -71 43 -114 l-21 -29 37
-17 38 -18 3 -1078 2 -1077 -27 -11 c-16 -5 -34 -12 -41 -14 -9 -4 -7 -12 8
-33 33 -45 23 -71 -42 -115 -63 -41 -70 -57 -35 -76 96 -50 115 -82 78 -132
-13 -17 -21 -32 -19 -34 1 -2 19 -7 38 -12 l35 -9 0 -1539 0 -1539 -33 -22
c-18 -13 -38 -25 -45 -27 -8 -3 -7 -10 6 -24 25 -29 21 -59 -13 -85 -24 -17
-30 -29 -30 -58 l0 -37 120 -2 c66 -1 151 1 190 5 l70 7 0 34 c0 26 -5 36 -22
42 -13 5 -26 7 -31 4 -4 -2 -6 -1 -5 4 1 4 -2 19 -6 32 -6 17 -3 31 12 50 l20
28 -33 12 c-18 6 -38 18 -44 25 -15 18 -22 3071 -7 3086 6 6 17 10 25 10 9 0
22 4 30 9 12 7 10 14 -8 36 -11 15 -21 35 -21 45 0 18 40 60 58 60 6 0 23 11
38 25 27 25 27 55 0 55 -7 0 -16 7 -20 15 -3 8 -12 15 -20 15 -20 0 -56 39
-56 61 0 9 9 28 20 42 26 33 26 34 -12 42 -18 4 -35 11 -38 15 -4 6 -4 1705 0
2146 0 17 8 23 35 28 19 4 35 9 35 12 0 3 -10 20 -22 36 -27 38 -16 75 27 98
17 8 32 18 33 23 2 4 10 7 18 7 8 0 17 7 20 15 7 17 -25 51 -72 75 -43 23 -53
63 -26 100 22 29 22 29 3 40 -11 5 -26 10 -34 10 -8 0 -17 10 -19 23 -3 12 -4
505 -3 1095 2 1019 1 1073 -16 1082 -24 13 -19 16 -72 -38z"/>
</g>
</svg>
