<?xml version="1.0" standalone="no"?>
<!DOCTYPE svg PUBLIC "-//W3C//DTD SVG 20010904//EN"
 "http://www.w3.org/TR/2001/REC-SVG-20010904/DTD/svg10.dtd">
<svg version="1.0" xmlns="http://www.w3.org/2000/svg"
 width="2550.000000pt" height="2700.000000pt" viewBox="0 0 2550.000000 2700.000000"
 preserveAspectRatio="xMidYMid meet">

<g transform="translate(0.000000,2700.000000) scale(0.100000,-0.100000)"
fill="#65340A" stroke="none">
<path d="M10307 14110 c-9 -11 -11 -214 -7 -837 l5 -822 -115 -3 -115 -3 -3
-2794 c-1 -2102 1 -2797 10 -2808 7 -9 24 -12 52 -9 23 3 69 8 104 11 l62 6 0
-795 c0 -437 -3 -802 -6 -811 -4 -9 -24 -23 -45 -32 l-38 -15 20 -28 c24 -32
16 -58 -26 -86 -19 -12 -25 -25 -25 -53 0 -30 7 -42 41 -70 l40 -33 77 10 c42
6 107 14 145 18 l67 6 0 37 c0 28 -7 44 -30 66 -33 31 -39 65 -15 85 20 17 19
27 -4 35 -10 3 -31 17 -45 30 l-26 24 0 805 c0 449 4 807 9 810 5 3 42 8 82
11 41 3 93 8 117 11 l42 5 0 2791 0 2790 -122 -3 -123 -4 -2 835 -2 835 -56 0
c-38 0 -60 -5 -68 -15z m261 -2286 l2 -521 -67 -6 c-38 -4 -125 -7 -196 -7
l-127 0 2 523 3 522 105 6 c58 3 143 5 190 5 l85 -1 3 -521z m0 -775 l3 -136
-68 -6 c-38 -4 -126 -7 -196 -7 l-128 0 3 138 3 137 105 6 c58 3 143 5 190 5
l85 -1 3 -136z m-1 -1455 l3 -1201 -68 -6 c-37 -4 -124 -7 -194 -7 l-128 0 3
1203 2 1202 105 6 c58 3 143 5 190 5 l85 -1 2 -1201z m1 -1440 l3 -121 -68 -6
c-37 -4 -126 -7 -196 -7 l-128 0 3 123 3 122 105 6 c58 3 143 5 190 5 l85 -1
3 -121z m-4 -696 c0 -252 -3 -460 -7 -464 -3 -3 -85 -13 -182 -22 -143 -12
-178 -13 -185 -2 -4 7 -7 220 -6 474 l1 461 105 6 c58 3 143 5 190 5 l85 -1
-1 -457z"/>
</g>
</svg>
