<?xml version="1.0" standalone="no"?>
<!DOCTYPE svg PUBLIC "-//W3C//DTD SVG 20010904//EN"
 "http://www.w3.org/TR/2001/REC-SVG-20010904/DTD/svg10.dtd">
<svg version="1.0" xmlns="http://www.w3.org/2000/svg"
 width="2550.000000pt" height="2700.000000pt" viewBox="0 0 2550.000000 2700.000000"
 preserveAspectRatio="xMidYMid meet">

<g transform="translate(0.000000,2700.000000) scale(0.100000,-0.100000)"
fill="#65340A" stroke="none">
<path d="M19034 23249 l-49 -50 4 -584 3 -584 -33 -5 c-19 -3 -63 -7 -97 -10
-35 -3 -68 -8 -73 -12 -10 -6 -3 -5029 7 -5046 4 -6 41 -7 100 -3 l94 7 0
-326 0 -326 -32 -20 c-18 -11 -37 -22 -43 -23 -5 -2 -2 -13 8 -24 25 -28 21
-49 -13 -75 -21 -15 -30 -30 -30 -50 l0 -28 103 0 c56 0 132 3 170 7 55 5 67
9 67 24 0 10 -13 27 -30 39 -33 24 -39 54 -14 81 16 17 15 19 -10 29 -15 5
-33 10 -41 10 -11 0 -14 60 -15 340 l-1 340 54 0 c30 0 75 3 101 6 l46 7 0
2531 c0 1679 -3 2535 -10 2542 -6 6 -32 7 -68 3 -31 -4 -72 -8 -89 -8 l-33 -1
0 624 c0 519 -2 625 -14 629 -8 3 -34 -16 -62 -44z m176 -1769 l0 -460 -22 -4
c-13 -3 -59 -7 -103 -11 -44 -3 -106 -8 -137 -12 l-58 -6 0 462 c0 360 3 463
13 466 17 7 179 22 250 24 l57 1 0 -460z m0 -680 c0 -126 12 -115 -125 -125
-44 -3 -106 -8 -137 -12 l-58 -6 0 112 c0 80 4 113 13 116 17 7 179 22 250 24
l57 1 0 -110z m0 -1315 l0 -1095 -22 -4 c-13 -3 -59 -7 -103 -11 -44 -3 -106
-8 -137 -12 l-58 -6 0 1097 c0 868 3 1098 13 1101 17 7 179 22 250 24 l57 1 0
-1095z m0 -1305 c0 -126 12 -115 -125 -125 -44 -3 -106 -8 -138 -12 l-58 -6 3
109 3 109 60 7 c33 4 98 11 145 16 47 5 91 10 98 11 9 1 12 -27 12 -109z m0
-668 l0 -449 -107 -6 c-58 -4 -130 -7 -160 -7 l-53 0 0 440 c0 343 3 442 13
445 17 7 179 22 250 24 l57 1 0 -448z"/>
</g>
</svg>
