<?xml version="1.0" standalone="no"?>
<!DOCTYPE svg PUBLIC "-//W3C//DTD SVG 20010904//EN"
 "http://www.w3.org/TR/2001/REC-SVG-20010904/DTD/svg10.dtd">
<svg version="1.0" xmlns="http://www.w3.org/2000/svg"
 width="2550.000000pt" height="2700.000000pt" viewBox="0 0 2550.000000 2700.000000"
 preserveAspectRatio="xMidYMid meet">

<g transform="translate(0.000000,2700.000000) scale(0.100000,-0.100000)"
fill="#65340A" stroke="none">
<path d="M23760 24841 l0 -2160 28 -3 c15 -2 54 2 87 9 33 7 63 12 68 13 4 0
6 -156 5 -347 l-3 -348 -40 -20 c-22 -11 -42 -21 -44 -22 -2 -2 3 -11 12 -21
31 -34 15 -77 -35 -95 -10 -4 -18 -11 -18 -17 0 -14 14 -13 197 11 160 22 161
22 151 44 -11 24 4 65 22 65 6 0 10 4 10 8 0 5 -24 14 -52 21 -29 8 -60 18
-68 23 -11 7 -10 8 5 4 20 -6 20 -2 17 358 l-3 364 101 17 100 18 0 2120 0
2120 -99 -7 c-93 -6 -292 -39 -312 -52 -5 -3 -9 8 -9 24 0 29 -1 29 -60 31
l-60 2 0 -2160z m418 1920 c-1 -71 -6 -132 -9 -135 -3 -3 -65 -17 -138 -31
-73 -14 -137 -27 -142 -30 -5 -4 -9 49 -9 129 0 120 2 135 18 140 14 4 157 35
227 50 60 12 57 18 53 -123z m-1 -1410 c-1 -638 -5 -1162 -8 -1165 -3 -3 -65
-17 -138 -31 -73 -14 -137 -27 -142 -30 -5 -4 -9 451 -9 1159 0 1101 1 1165
18 1170 9 2 60 14 112 25 131 28 133 29 152 30 16 1 17 -77 15 -1158z m1
-1390 c-1 -60 -6 -112 -9 -115 -5 -5 -260 -56 -280 -56 -5 0 -9 49 -9 109 0
96 2 110 18 115 14 4 157 35 227 50 59 12 57 15 53 -103z m1 -654 c0 -232 -3
-428 -7 -434 -9 -14 -269 -66 -283 -57 -5 3 -9 190 -9 429 0 395 1 424 18 429
14 4 157 35 227 50 58 12 54 45 54 -417z"/>
</g>
</svg>
