<?xml version="1.0" standalone="no"?>
<!DOCTYPE svg PUBLIC "-//W3C//DTD SVG 20010904//EN"
 "http://www.w3.org/TR/2001/REC-SVG-20010904/DTD/svg10.dtd">
<svg version="1.0" xmlns="http://www.w3.org/2000/svg"
 width="2550.000000pt" height="2700.000000pt" viewBox="0 0 2550.000000 2700.000000"
 preserveAspectRatio="xMidYMid meet">

<g transform="translate(0.000000,2700.000000) scale(0.100000,-0.100000)"
fill="#65340A" stroke="none">
<path d="M24649 26993 c0 -4 0 -672 1 -1483 0 -811 0 -1543 0 -1626 l0 -152
24 -6 c14 -3 53 1 88 9 35 8 69 15 76 15 9 0 12 -165 12 -792 0 -436 -3 -803
-6 -815 -4 -14 -19 -26 -43 -34 -52 -17 -52 -18 -31 -39 11 -11 20 -26 20 -34
0 -20 -39 -66 -56 -66 -8 0 -14 -7 -14 -16 0 -13 7 -15 38 -11 20 3 96 13 167
22 164 21 159 19 144 46 -9 18 -7 26 10 50 23 31 22 31 -30 48 -24 8 -39 20
-43 34 -3 12 -6 293 -6 625 0 360 -4 610 -9 621 -11 19 -17 478 -7 488 3 3 54
15 113 27 l108 22 3 1535 2 1536 -65 2 -65 2 0 -860 0 -860 -77 -16 c-43 -9
-108 -23 -145 -31 -37 -8 -72 -14 -77 -14 -8 0 -11 273 -11 889 l0 888 -60 2
c-33 1 -60 -2 -61 -6z m428 -2060 c-5 -4 -283 -63 -299 -63 -10 0 -9 222 1
236 10 15 69 32 236 68 l60 13 3 -125 c1 -69 1 -127 -1 -129z m-1 -1000 c-8
-8 -237 -54 -281 -57 -20 -1 -20 6 -22 434 -2 239 1 440 5 445 12 16 67 32
237 69 l60 13 3 -450 c1 -248 0 -452 -2 -454z m-81 -1803 c3 -5 1 -10 -4 -10
-6 0 -11 5 -11 10 0 6 2 10 4 10 3 0 8 -4 11 -10z"/>
</g>
</svg>
