<?xml version="1.0" standalone="no"?>
<!DOCTYPE svg PUBLIC "-//W3C//DTD SVG 20010904//EN"
 "http://www.w3.org/TR/2001/REC-SVG-20010904/DTD/svg10.dtd">
<svg version="1.0" xmlns="http://www.w3.org/2000/svg"
 width="2550.000000pt" height="2700.000000pt" viewBox="0 0 2550.000000 2700.000000"
 preserveAspectRatio="xMidYMid meet">

<g transform="translate(0.000000,2700.000000) scale(0.100000,-0.100000)"
fill="#65340A" stroke="none">
<path d="M10347 14552 l-67 -68 0 -507 0 -507 -95 0 -95 0 0 -2645 c0 -2446 1
-2646 16 -2652 9 -3 52 -2 95 3 l79 9 0 -333 0 -333 -46 -20 c-38 -17 -43 -23
-30 -32 31 -24 24 -71 -14 -94 -26 -15 -30 -23 -28 -53 3 -34 4 -35 73 -51 62
-14 84 -15 182 -3 62 7 117 15 123 19 23 14 10 60 -25 88 -37 30 -44 57 -20
77 22 19 18 28 -17 43 -60 25 -59 15 -56 378 l3 334 60 7 c33 4 75 10 93 13
l32 6 0 2624 0 2625 -95 0 -95 0 0 566 c1 311 0 568 -2 570 -2 2 -34 -27 -71
-64z m143 -1651 c0 -427 -2 -480 -16 -485 -9 -3 -72 -6 -140 -6 l-124 0 0 479
0 480 38 4 c20 2 83 4 140 5 l102 2 0 -479z m0 -710 c0 -108 -3 -130 -16 -135
-9 -3 -72 -6 -140 -6 l-125 0 3 128 3 127 35 6 c19 4 81 7 138 8 l102 1 0
-129z m0 -1375 c0 -1034 -2 -1144 -16 -1150 -9 -3 -72 -6 -140 -6 l-124 0 2
1143 3 1142 35 6 c19 4 81 7 138 8 l102 1 0 -1144z m0 -1355 c0 -90 -3 -110
-16 -115 -9 -3 -72 -6 -140 -6 l-125 0 3 108 3 107 35 6 c19 4 81 7 138 8
l102 1 0 -109z m0 -675 l0 -465 -42 -6 c-24 -3 -83 -12 -133 -19 -65 -9 -92
-10 -97 -2 -4 6 -7 220 -5 476 l2 465 35 6 c19 4 81 7 138 8 l102 1 0 -464z"/>
</g>
</svg>
