<?xml version="1.0" standalone="no"?>
<!DOCTYPE svg PUBLIC "-//W3C//DTD SVG 20010904//EN"
 "http://www.w3.org/TR/2001/REC-SVG-20010904/DTD/svg10.dtd">
<svg version="1.0" xmlns="http://www.w3.org/2000/svg"
 width="2550.000000pt" height="2700.000000pt" viewBox="0 0 2550.000000 2700.000000"
 preserveAspectRatio="xMidYMid meet">

<g transform="translate(0.000000,2700.000000) scale(0.100000,-0.100000)"
fill="#65340A" stroke="none">
<path d="M11977 16321 l-59 -66 1 -512 2 -513 -106 0 -105 0 2 -2577 3 -2578
102 3 102 4 0 -312 c1 -194 -3 -319 -9 -331 -6 -10 -27 -26 -46 -34 -33 -13
-34 -16 -20 -31 9 -8 16 -26 16 -38 0 -24 -28 -56 -48 -56 -7 0 -12 -15 -12
-36 0 -31 4 -37 38 -51 43 -18 88 -20 225 -9 l97 8 0 30 c0 21 -10 39 -35 62
-37 35 -39 58 -8 83 13 10 8 15 -25 32 -22 11 -42 27 -46 36 -3 9 -6 160 -6
335 l0 318 31 6 c17 3 62 6 100 6 l68 0 3 343 c2 188 2 1341 0 2562 l-2 2220
-100 3 -100 3 -2 578 -3 579 -58 -67z m163 -1676 l0 -484 -52 -3 c-29 -2 -101
-2 -160 0 l-108 3 0 483 c0 265 2 485 4 487 2 2 74 3 160 1 l156 -3 0 -484z
m0 -705 l0 -119 -52 -3 c-29 -2 -101 -2 -160 0 l-108 3 0 118 c0 65 2 120 4
122 2 2 74 3 160 1 l156 -3 0 -119z m0 -1340 l0 -1119 -52 -3 c-29 -2 -101 -2
-160 0 l-108 3 0 1118 c0 615 2 1120 4 1122 2 2 74 3 160 1 l156 -3 0 -1119z
m-2 -1337 l3 -112 -53 -3 c-29 -2 -101 -2 -160 0 l-108 3 0 113 c0 62 2 115 4
117 2 2 73 2 158 -1 l153 -5 3 -112z m2 -638 l0 -424 -32 -5 c-18 -3 -90 -8
-160 -11 l-128 -7 0 435 c0 238 2 436 4 438 2 2 74 3 160 1 l156 -3 0 -424z"/>
</g>
</svg>
