<?xml version="1.0" standalone="no"?>
<!DOCTYPE svg PUBLIC "-//W3C//DTD SVG 20010904//EN"
 "http://www.w3.org/TR/2001/REC-SVG-20010904/DTD/svg10.dtd">
<svg version="1.0" xmlns="http://www.w3.org/2000/svg"
 width="2644.000000pt" height="2800.000000pt" viewBox="0 0 2644.000000 2800.000000"
 preserveAspectRatio="xMidYMid meet">

<g transform="translate(0.000000,2800.000000) scale(0.100000,-0.100000)"
fill="#3a4548" stroke="none">
<path d="M9420 17261 c0 -3 -1 -348 -4 -766 -3 -609 -7 -792 -20 -920 -28
-276 -30 -302 -16 -334 6 -16 18 -32 26 -35 23 -9 17 -46 -7 -46 -11 0 -29 -5
-40 -11 -19 -10 -20 -12 -4 -29 35 -38 4 -92 -67 -116 -10 -4 -18 -15 -18 -25
0 -11 8 -23 18 -26 9 -4 19 -9 22 -13 3 -3 17 -13 33 -23 31 -20 35 -51 10
-79 -19 -22 -15 -28 29 -37 43 -9 51 -46 16 -72 -21 -16 -23 -25 -22 -101 0
-46 8 -160 17 -253 36 -362 32 -894 -8 -1248 -21 -185 -20 -213 10 -241 31
-29 33 -56 4 -56 -11 0 -29 -5 -40 -11 -18 -9 -19 -13 -6 -27 27 -32 28 -52 3
-75 -35 -32 -49 -42 -68 -50 -10 -3 -18 -13 -18 -22 0 -9 8 -19 18 -22 19 -8
33 -18 68 -50 21 -19 23 -25 12 -48 -6 -14 -15 -25 -20 -25 -4 0 -8 -4 -8 -9
0 -9 27 -21 59 -25 26 -4 25 -44 -3 -77 -31 -36 -32 -68 -11 -244 8 -66 15
-143 15 -170 0 -49 -1 -51 -35 -63 -34 -13 -34 -13 -15 -32 11 -11 20 -23 20
-28 0 -16 -32 -52 -46 -52 -11 0 -14 -9 -12 -37 l3 -38 85 -3 c47 -2 122 -1
168 3 l82 7 0 30 c0 21 -10 39 -31 59 -30 28 -31 30 -15 54 21 32 21 30 -15
45 l-31 13 7 96 c4 53 11 128 16 166 14 117 11 169 -12 198 -32 42 -32 66 -1
79 15 7 28 13 30 14 1 1 -5 15 -15 32 -20 34 -13 56 22 76 11 6 25 17 33 24 7
6 18 12 23 12 5 0 9 9 9 20 0 11 -4 20 -9 20 -5 0 -16 6 -23 13 -8 6 -22 17
-33 23 -35 20 -42 42 -22 76 10 17 16 31 15 32 -2 1 -15 7 -30 13 -31 14 -31
28 0 67 26 34 28 70 8 246 -24 204 -29 346 -28 705 0 305 6 435 30 645 4 36 7
100 7 144 0 68 -3 80 -21 92 -33 22 -21 70 19 78 l30 6 -21 23 c-36 38 -28 63
28 98 28 17 50 36 50 43 0 14 -30 39 -70 59 -33 17 -37 53 -9 83 l22 23 -27
11 c-15 5 -31 10 -35 10 -16 0 -4 37 18 59 23 23 23 29 18 115 -3 50 -13 163
-22 251 -13 129 -17 305 -18 917 l-2 758 -25 5 c-31 6 -100 4 -100 -4z"/>
</g>
</svg>
