<?xml version="1.0" standalone="no"?>
<!DOCTYPE svg PUBLIC "-//W3C//DTD SVG 20010904//EN"
 "http://www.w3.org/TR/2001/REC-SVG-20010904/DTD/svg10.dtd">
<svg version="1.0" xmlns="http://www.w3.org/2000/svg"
 width="2644.000000pt" height="2800.000000pt" viewBox="0 0 2644.000000 2800.000000"
 preserveAspectRatio="xMidYMid meet">

<g transform="translate(0.000000,2800.000000) scale(0.100000,-0.100000)"
fill="#3a4548" stroke="none">
<path d="M10356 16378 c-2 -445 -9 -839 -15 -883 -5 -44 -13 -120 -17 -168 -6
-81 -5 -90 14 -117 29 -39 29 -70 0 -70 -13 0 -30 -4 -38 -10 -12 -7 -12 -12
4 -29 22 -24 18 -62 -9 -76 -72 -37 -93 -68 -55 -80 11 -3 20 -10 20 -15 0 -4
11 -11 25 -14 32 -8 43 -48 21 -81 -21 -33 -21 -33 19 -41 28 -5 35 -11 35
-30 0 -13 -9 -33 -20 -44 -25 -25 -25 -56 -3 -260 23 -213 25 -1008 3 -1210
-21 -188 -20 -288 3 -304 9 -7 17 -22 17 -33 0 -16 -9 -22 -35 -27 -38 -7 -43
-17 -20 -36 24 -20 18 -57 -12 -77 -16 -10 -30 -20 -33 -23 -3 -4 -13 -9 -22
-13 -10 -3 -18 -13 -18 -22 0 -9 8 -19 18 -22 9 -4 19 -9 22 -12 3 -4 17 -12
33 -18 20 -10 27 -20 27 -42 0 -16 -7 -34 -16 -42 -14 -12 -14 -14 2 -26 10
-7 26 -13 36 -13 26 0 23 -43 -4 -81 -22 -29 -22 -31 -9 -167 7 -75 15 -167
18 -203 l6 -65 -32 -13 c-33 -14 -37 -21 -20 -38 17 -17 6 -57 -18 -68 -17 -7
-23 -18 -23 -41 l0 -31 106 -6 c58 -3 132 -3 165 0 59 6 59 6 59 38 0 24 -7
37 -25 49 -26 17 -33 54 -14 73 8 8 3 16 -20 27 -37 20 -36 7 -14 244 l17 182
-22 30 c-24 32 -30 80 -9 80 6 0 19 4 27 10 12 7 12 12 -4 29 -22 24 -18 62 9
76 44 23 75 48 75 61 0 8 -4 14 -9 14 -5 0 -16 6 -23 13 -7 7 -25 18 -40 24
-32 14 -37 46 -12 81 14 21 14 23 -10 32 -31 11 -33 33 -6 67 25 32 25 64 3
241 -27 206 -26 1057 1 1289 19 166 16 230 -10 240 -25 9 -17 58 12 71 24 11
24 13 10 34 -25 35 -20 67 12 81 15 6 33 17 40 24 7 7 18 13 23 13 25 0 3 32
-41 59 -53 33 -66 66 -35 91 21 18 19 27 -10 34 -18 5 -25 13 -25 31 0 14 4
25 9 25 5 0 14 14 21 31 11 26 10 60 -6 202 -16 148 -19 283 -24 962 l-5 790
-62 3 -61 3 -6 -803z"/>
</g>
</svg>
