<?xml version="1.0" standalone="no"?>
<!DOCTYPE svg PUBLIC "-//W3C//DTD SVG 20010904//EN"
 "http://www.w3.org/TR/2001/REC-SVG-20010904/DTD/svg10.dtd">
<svg version="1.0" xmlns="http://www.w3.org/2000/svg"
 width="2644.000000pt" height="2800.000000pt" viewBox="0 0 2644.000000 2800.000000"
 preserveAspectRatio="xMidYMid meet">

<g transform="translate(0.000000,2800.000000) scale(0.100000,-0.100000)"
fill="#3a4548" stroke="none">
<path d="M6727 17513 c-4 -3 -7 -371 -7 -817 0 -799 -3 -927 -35 -1176 -22
-169 -20 -212 10 -248 36 -43 33 -68 -10 -76 -19 -4 -35 -9 -35 -12 0 -3 9
-18 21 -33 27 -37 18 -68 -27 -87 -19 -8 -34 -19 -34 -24 0 -6 -7 -10 -15 -10
-28 0 -29 -31 -2 -56 14 -13 32 -24 40 -24 18 0 57 -37 57 -54 0 -7 -9 -25
-21 -40 -24 -31 -19 -42 21 -51 25 -5 30 -12 30 -35 0 -16 -6 -33 -14 -37 -40
-24 -44 -81 -21 -268 28 -220 35 -378 36 -756 0 -360 -13 -619 -41 -794 -6
-33 -10 -88 -10 -121 0 -53 4 -65 25 -85 37 -36 33 -65 -10 -73 -19 -4 -35 -9
-35 -12 0 -3 9 -18 21 -33 28 -37 22 -62 -20 -83 -19 -9 -37 -21 -40 -26 -3
-5 -14 -11 -23 -15 -24 -9 -23 -44 2 -52 11 -3 20 -10 20 -14 0 -4 16 -13 34
-19 45 -17 54 -46 27 -83 -25 -34 -22 -45 18 -54 41 -9 45 -37 10 -81 -35 -44
-36 -75 -14 -257 31 -260 35 -385 36 -1178 0 -776 0 -814 -18 -827 -10 -8 -31
-19 -46 -24 l-28 -10 22 -24 c19 -20 21 -27 11 -49 -7 -14 -23 -30 -37 -37
-19 -9 -25 -19 -25 -44 0 -45 15 -48 198 -41 187 7 192 8 192 58 0 27 -4 39
-14 39 -40 0 -59 59 -30 91 16 17 15 19 -12 29 -16 5 -36 14 -44 19 -13 7 -15
112 -15 852 0 859 2 932 41 1217 17 128 13 163 -22 191 -27 22 -35 81 -10 81
8 0 27 5 42 10 l27 11 -22 22 c-11 13 -21 33 -21 44 0 25 25 53 46 53 8 0 17
7 20 15 4 8 12 15 19 15 7 0 18 6 24 14 9 11 8 17 -3 27 -24 22 -40 33 -71 49
-39 20 -45 63 -15 95 l22 24 -41 12 c-32 9 -41 17 -41 35 0 12 7 25 15 28 9 3
23 22 31 43 14 33 14 49 0 167 -9 72 -21 172 -27 221 -5 50 -13 264 -16 477
-6 411 2 584 38 876 22 176 18 221 -22 242 -23 13 -27 70 -4 70 8 0 26 5 40
12 l25 11 -21 23 c-29 31 -22 74 16 94 16 8 35 20 42 25 43 34 44 37 32 51 -6
8 -18 14 -25 14 -8 0 -14 4 -14 10 0 5 -16 16 -35 24 -28 12 -35 21 -35 42 0
15 10 38 21 51 l22 22 -27 11 c-15 5 -34 10 -42 10 -22 0 -17 47 6 60 35 18
42 76 26 202 -40 311 -46 471 -46 1273 l0 773 -31 6 c-41 8 -104 8 -112 -1z"/>
</g>
</svg>
