<?xml version="1.0" standalone="no"?>
<!DOCTYPE svg PUBLIC "-//W3C//DTD SVG 20010904//EN"
 "http://www.w3.org/TR/2001/REC-SVG-20010904/DTD/svg10.dtd">
<svg version="1.0" xmlns="http://www.w3.org/2000/svg"
 width="2644.000000pt" height="2800.000000pt" viewBox="0 0 2644.000000 2800.000000"
 preserveAspectRatio="xMidYMid meet">

<g transform="translate(0.000000,2800.000000) scale(0.100000,-0.100000)"
fill="#3a4548" stroke="none">
<path d="M7858 16568 c-3 -814 -4 -850 -27 -1048 -25 -213 -24 -249 9 -278 28
-24 27 -62 -2 -62 -13 0 -30 -5 -38 -10 -12 -8 -11 -13 9 -34 33 -35 24 -55
-42 -99 -31 -20 -57 -42 -57 -47 0 -6 11 -16 25 -22 14 -6 25 -15 25 -19 0 -4
11 -10 25 -13 14 -4 31 -18 37 -32 10 -20 8 -29 -10 -54 -22 -29 -22 -29 -3
-40 11 -5 27 -10 35 -10 25 0 19 -48 -9 -82 -30 -35 -32 -73 -11 -234 30 -231
38 -443 33 -844 -4 -267 -11 -437 -21 -525 -9 -71 -19 -169 -23 -217 -6 -84
-5 -87 21 -112 29 -30 35 -66 10 -66 -8 0 -24 -5 -35 -10 -19 -11 -19 -11 3
-40 18 -25 20 -34 10 -54 -6 -14 -23 -28 -37 -32 -14 -3 -25 -9 -25 -13 0 -4
-11 -13 -25 -19 -14 -6 -25 -16 -25 -22 0 -6 25 -26 56 -46 30 -19 58 -42 61
-50 3 -9 -4 -29 -17 -46 -25 -33 -17 -48 28 -48 18 0 22 -6 22 -31 0 -20 -8
-37 -22 -49 -21 -16 -23 -27 -22 -102 0 -45 9 -148 19 -228 16 -127 19 -245
22 -974 3 -456 2 -839 -1 -851 -3 -13 -22 -29 -45 -39 -38 -18 -39 -18 -20
-37 27 -27 24 -44 -12 -72 -25 -20 -30 -30 -27 -58 l3 -34 115 -3 c63 -2 146
2 183 8 l68 12 -3 32 c-2 21 -12 37 -33 51 -37 26 -42 48 -15 75 l20 20 -27
10 c-16 6 -35 14 -43 19 -13 7 -15 111 -15 837 1 728 3 847 18 979 10 83 21
191 24 242 6 89 5 92 -21 116 -31 29 -36 77 -8 77 26 0 60 28 46 37 -41 29
-36 85 8 99 34 10 78 46 78 62 0 8 -9 16 -20 19 -11 3 -20 9 -20 14 0 5 -7 9
-15 9 -9 0 -27 11 -40 24 -25 25 -25 55 1 77 22 18 17 28 -21 35 -28 5 -35 11
-35 30 0 12 6 27 14 31 37 22 45 94 26 227 -52 354 -54 1029 -5 1463 22 192
20 226 -10 254 -14 14 -25 35 -25 50 0 23 5 28 35 33 19 4 35 9 35 11 0 2 -9
19 -20 38 l-20 34 21 27 c11 14 26 26 32 26 7 0 26 11 42 25 l30 24 -26 24
c-14 14 -35 28 -47 32 -13 3 -30 18 -39 31 -15 24 -15 27 6 54 11 16 21 31 21
34 0 3 -16 8 -35 12 -28 5 -35 11 -35 29 0 12 10 29 23 38 20 13 22 22 22 98
0 46 -8 158 -17 249 -27 262 -28 295 -28 1078 l0 742 -69 0 -70 0 -3 -842z"/>
</g>
</svg>
