<?xml version="1.0" standalone="no"?>
<!DOCTYPE svg PUBLIC "-//W3C//DTD SVG 20010904//EN"
 "http://www.w3.org/TR/2001/REC-SVG-20010904/DTD/svg10.dtd">
<svg version="1.0" xmlns="http://www.w3.org/2000/svg"
 width="2644.000000pt" height="2800.000000pt" viewBox="0 0 2644.000000 2800.000000"
 preserveAspectRatio="xMidYMid meet">

<g transform="translate(0.000000,2800.000000) scale(0.100000,-0.100000)"
fill="#3a4548" stroke="none">
<path d="M19287 26022 l-57 -58 0 -604 c0 -675 -9 -811 -72 -1115 -52 -250
-50 -275 28 -317 57 -30 61 -63 9 -72 -44 -9 -51 -21 -26 -48 35 -37 19 -108
-24 -108 -8 0 -18 -6 -22 -14 -4 -8 -17 -15 -28 -18 -49 -9 -12 -73 66 -113
40 -21 43 -63 6 -102 -11 -13 -19 -24 -16 -26 2 -2 21 -14 42 -26 50 -31 50
-60 -2 -84 -50 -23 -75 -69 -69 -127 3 -25 19 -112 36 -195 62 -298 67 -357
67 -835 0 -480 -6 -562 -67 -855 -44 -213 -46 -244 -14 -283 15 -17 40 -33 56
-37 25 -5 30 -12 30 -35 0 -22 -5 -29 -27 -33 -52 -12 -60 -23 -35 -50 13 -14
22 -36 22 -55 0 -27 -6 -35 -35 -49 -19 -9 -35 -20 -35 -24 0 -4 -9 -9 -20
-12 -37 -10 -36 -37 5 -73 21 -19 42 -34 46 -34 4 0 15 -7 23 -16 22 -22 20
-67 -4 -89 -28 -25 -26 -29 20 -50 32 -14 40 -23 40 -45 0 -21 -7 -29 -36 -39
-43 -16 -74 -62 -74 -113 0 -20 9 -74 20 -120 29 -121 59 -300 75 -456 12
-111 15 -351 15 -1274 0 -625 -3 -1144 -6 -1153 -4 -9 -24 -23 -45 -32 -43
-17 -47 -24 -24 -43 32 -27 11 -88 -35 -102 -9 -3 -15 -18 -16 -38 l-1 -33
151 6 c83 4 175 7 204 7 49 0 52 2 52 25 0 14 -6 25 -13 25 -19 0 -57 43 -57
65 0 10 9 29 21 41 l20 22 -30 10 c-16 6 -39 20 -50 31 l-21 21 0 1108 c0 673
4 1154 10 1227 15 171 46 378 81 536 29 128 29 139 15 172 -11 27 -27 43 -61
59 -38 19 -45 26 -43 47 2 19 11 28 38 35 46 12 45 10 20 44 -31 42 -24 82 19
104 19 9 37 21 40 26 3 5 14 11 24 15 9 3 17 14 17 22 0 18 -53 75 -69 75 -20
0 -51 39 -51 64 0 13 9 35 20 49 l20 25 -23 14 c-12 8 -30 17 -39 21 -11 4
-18 17 -18 32 0 16 7 28 18 31 40 13 68 35 86 70 17 32 18 43 8 88 -90 410
-103 515 -109 912 -7 444 9 643 83 1001 35 168 35 173 18 208 -12 25 -31 43
-61 58 -56 27 -61 61 -8 71 45 9 51 20 26 52 -37 46 -21 91 37 108 12 4 22 11
22 16 0 5 9 12 20 15 11 3 20 14 20 23 0 18 -48 67 -92 95 -34 21 -36 54 -7
91 12 15 20 28 18 30 -2 1 -21 13 -41 25 -52 31 -51 60 5 86 29 14 48 32 61
58 l18 38 -35 167 c-78 365 -87 501 -87 1216 0 320 0 598 0 618 0 26 -6 40
-18 47 -15 8 -29 0 -75 -47z"/>
</g>
</svg>
