<?xml version="1.0" standalone="no"?>
<!DOCTYPE svg PUBLIC "-//W3C//DTD SVG 20010904//EN"
 "http://www.w3.org/TR/2001/REC-SVG-20010904/DTD/svg10.dtd">
<svg version="1.0" xmlns="http://www.w3.org/2000/svg"
 width="2644.000000pt" height="2800.000000pt" viewBox="0 0 2644.000000 2800.000000"
 preserveAspectRatio="xMidYMid meet">

<g transform="translate(0.000000,2800.000000) scale(0.100000,-0.100000)"
fill="#65340A" stroke="none">
<path d="M9898 14603 l-3 -2617 -38 -22 c-33 -18 -36 -23 -22 -34 24 -20 18
-47 -15 -72 -21 -15 -30 -30 -30 -50 0 -28 0 -28 65 -28 39 0 65 -4 65 -11 0
-6 23 -9 60 -8 33 1 60 6 60 10 0 4 19 9 43 11 39 3 42 5 45 36 3 26 -1 34
-22 41 -32 13 -43 47 -22 70 22 24 20 28 -14 36 -17 4 -35 15 -40 25 -7 12
-10 919 -10 2618 l0 2600 -22 6 c-13 3 -40 6 -60 6 l-38 0 -2 -2617z"/>
</g>
</svg>
