<?xml version="1.0" standalone="no"?>
<!DOCTYPE svg PUBLIC "-//W3C//DTD SVG 20010904//EN"
 "http://www.w3.org/TR/2001/REC-SVG-20010904/DTD/svg10.dtd">
<svg version="1.0" xmlns="http://www.w3.org/2000/svg"
 width="2644.000000pt" height="2800.000000pt" viewBox="0 0 2644.000000 2800.000000"
 preserveAspectRatio="xMidYMid meet">

<g transform="translate(0.000000,2800.000000) scale(0.100000,-0.100000)"
fill="#65340A" stroke="none">
<path d="M10360 15138 c0 -1124 1 -2283 0 -2575 l0 -532 -32 -17 c-44 -22 -44
-21 -24 -43 20 -22 10 -53 -24 -71 -13 -7 -20 -21 -20 -41 l0 -29 163 2 162 3
3 33 c3 26 -1 34 -21 41 -32 13 -41 39 -22 68 15 23 15 24 -19 38 -19 8 -36
20 -39 27 -2 7 -2 1163 1 2569 l5 2556 -39 6 c-21 4 -52 7 -67 7 l-28 0 1
-2042z"/>
</g>
</svg>
