<?xml version="1.0" standalone="no"?>
<!DOCTYPE svg PUBLIC "-//W3C//DTD SVG 20010904//EN"
 "http://www.w3.org/TR/2001/REC-SVG-20010904/DTD/svg10.dtd">
<svg version="1.0" xmlns="http://www.w3.org/2000/svg"
 width="2644.000000pt" height="2800.000000pt" viewBox="0 0 2644.000000 2800.000000"
 preserveAspectRatio="xMidYMid meet">

<g transform="translate(0.000000,2800.000000) scale(0.100000,-0.100000)"
fill="#65340A" stroke="none">
<path d="M2130 9740 l0 -4299 -25 -19 c-13 -11 -38 -25 -55 -32 -30 -13 -30
-13 -10 -27 32 -23 24 -72 -17 -98 -27 -16 -32 -26 -33 -57 0 -26 5 -38 18
-42 41 -12 251 -18 283 -8 19 6 60 18 92 27 57 16 57 16 57 55 0 31 -4 40 -22
46 -57 17 -74 61 -38 99 l21 22 -45 13 c-31 8 -48 19 -52 34 -4 11 -7 1944 -7
4293 1 3233 -2 4275 -10 4280 -7 4 -45 9 -84 10 l-73 2 0 -4299z"/>
</g>
</svg>
