<?xml version="1.0" standalone="no"?>
<!DOCTYPE svg PUBLIC "-//W3C//DTD SVG 20010904//EN"
 "http://www.w3.org/TR/2001/REC-SVG-20010904/DTD/svg10.dtd">
<svg version="1.0" xmlns="http://www.w3.org/2000/svg"
 width="2644.000000pt" height="2800.000000pt" viewBox="0 0 2644.000000 2800.000000"
 preserveAspectRatio="xMidYMid meet">

<g transform="translate(0.000000,2800.000000) scale(0.100000,-0.100000)"
fill="#65340A" stroke="none">
<path d="M4500 14602 l-75 -105 -5 -3416 -5 -3416 -47 -25 -48 -26 22 -22 c30
-29 16 -71 -30 -92 -29 -12 -33 -18 -30 -50 l3 -35 125 -9 c103 -7 139 -5 205
9 44 9 85 21 91 26 5 4 8 23 6 42 -3 26 -10 36 -32 44 -41 15 -50 56 -20 88
l22 24 -41 12 c-23 7 -46 18 -51 24 -7 8 -11 1232 -12 3522 l-3 3509 -75 -104z"/>
</g>
</svg>
