<?xml version="1.0" standalone="no"?>
<!DOCTYPE svg PUBLIC "-//W3C//DTD SVG 20010904//EN"
 "http://www.w3.org/TR/2001/REC-SVG-20010904/DTD/svg10.dtd">
<svg version="1.0" xmlns="http://www.w3.org/2000/svg"
 width="2644.000000pt" height="2800.000000pt" viewBox="0 0 2644.000000 2800.000000"
 preserveAspectRatio="xMidYMid meet">

<g transform="translate(0.000000,2800.000000) scale(0.100000,-0.100000)"
fill="#65340A" stroke="none">
<path d="M15903 13983 l-23 -4 0 -4787 c0 -2633 -4 -4792 -8 -4797 -4 -6 -29
-23 -55 -39 -47 -27 -47 -28 -28 -44 37 -32 31 -77 -14 -103 -32 -19 -35 -25
-35 -69 l0 -47 159 -13 158 -12 64 33 c62 33 64 35 67 77 3 33 -1 44 -15 49
-31 11 -63 45 -63 68 0 12 9 30 20 40 28 25 26 30 -20 45 -22 7 -45 19 -51 26
-7 9 -12 1452 -15 4786 -2 2625 -4 4778 -4 4785 0 12 -83 15 -137 6z"/>
</g>
</svg>
