<?xml version="1.0" standalone="no"?>
<!DOCTYPE svg PUBLIC "-//W3C//DTD SVG 20010904//EN"
 "http://www.w3.org/TR/2001/REC-SVG-20010904/DTD/svg10.dtd">
<svg version="1.0" xmlns="http://www.w3.org/2000/svg"
 width="2644.000000pt" height="2800.000000pt" viewBox="0 0 2644.000000 2800.000000"
 preserveAspectRatio="xMidYMid meet">

<g transform="translate(0.000000,2800.000000) scale(0.100000,-0.100000)"
fill="#65340A" stroke="none">
<path d="M14250 9276 c0 -2587 -3 -4712 -6 -4721 -4 -9 -28 -27 -55 -40 l-48
-25 25 -25 c19 -19 23 -31 18 -48 -9 -30 -24 -48 -51 -58 -19 -7 -23 -16 -23
-54 0 -29 4 -45 13 -45 6 0 74 -7 150 -15 l138 -14 69 31 68 31 4 45 c3 38 0
45 -18 52 -54 21 -70 74 -33 111 24 24 26 22 -27 37 -31 9 -44 19 -52 40 -7
19 -11 1465 -11 4712 l-1 4685 -80 3 -80 3 0 -4705z"/>
</g>
</svg>
