<?xml version="1.0" standalone="no"?>
<!DOCTYPE svg PUBLIC "-//W3C//DTD SVG 20010904//EN"
 "http://www.w3.org/TR/2001/REC-SVG-20010904/DTD/svg10.dtd">
<svg version="1.0" xmlns="http://www.w3.org/2000/svg"
 width="2644.000000pt" height="2800.000000pt" viewBox="0 0 2644.000000 2800.000000"
 preserveAspectRatio="xMidYMid meet">

<g transform="translate(0.000000,2800.000000) scale(0.100000,-0.100000)"
fill="#65340A" stroke="none">
<path d="M17003 23870 l-53 -49 0 -4290 c0 -3685 -2 -4292 -14 -4304 -8 -8
-28 -20 -45 -27 -35 -14 -38 -22 -16 -40 8 -7 15 -26 15 -42 0 -22 -8 -33 -33
-48 -24 -15 -33 -26 -31 -43 1 -12 3 -28 3 -34 1 -10 48 -13 201 -13 l200 0 0
40 c0 28 -4 40 -15 40 -20 0 -55 40 -55 62 0 10 9 27 20 38 20 20 20 20 -13
36 -17 9 -40 23 -50 32 -16 14 -17 232 -17 4344 0 2382 -2 4334 -6 4339 -12
19 -41 6 -91 -41z"/>
</g>
</svg>
