<?xml version="1.0" standalone="no"?>
<!DOCTYPE svg PUBLIC "-//W3C//DTD SVG 20010904//EN"
 "http://www.w3.org/TR/2001/REC-SVG-20010904/DTD/svg10.dtd">
<svg version="1.0" xmlns="http://www.w3.org/2000/svg"
 width="2644.000000pt" height="2800.000000pt" viewBox="0 0 2644.000000 2800.000000"
 preserveAspectRatio="xMidYMid meet">

<g transform="translate(0.000000,2800.000000) scale(0.100000,-0.100000)"
fill="#65340A" stroke="none">
<path d="M19295 26059 l-55 -54 0 -4365 c0 -2401 -4 -4370 -8 -4376 -4 -6 -23
-19 -42 -29 -19 -10 -36 -19 -38 -20 -2 -2 4 -15 13 -29 23 -35 13 -72 -26
-91 -24 -13 -30 -22 -27 -43 3 -26 5 -27 63 -26 33 0 122 2 198 2 135 2 137 2
137 25 0 14 -11 28 -30 39 -25 14 -30 24 -30 53 0 22 6 38 15 41 24 10 18 20
-24 39 -22 10 -42 24 -45 32 -4 8 -6 1996 -6 4417 0 4364 0 4403 -20 4421 -19
17 -21 16 -75 -36z"/>
</g>
</svg>
