<?xml version="1.0" standalone="no"?>
<!DOCTYPE svg PUBLIC "-//W3C//DTD SVG 20010904//EN"
 "http://www.w3.org/TR/2001/REC-SVG-20010904/DTD/svg10.dtd">
<svg version="1.0" xmlns="http://www.w3.org/2000/svg"
 width="3542.000000pt" height="3750.000000pt" viewBox="0 0 3542.000000 3750.000000"
 preserveAspectRatio="xMidYMid meet">

<g transform="translate(0.000000,3750.000000) scale(0.100000,-0.100000)"
fill="#C5C3C1" stroke="none">
<path d="M13390 17678 c0 -524 -1 -1562 -3 -2307 l-2 -1353 -50 -20 c-27 -11
-51 -21 -53 -23 -2 -1 11 -16 28 -33 17 -17 30 -41 30 -54 0 -29 -34 -64 -72
-73 -16 -4 -28 -13 -28 -21 0 -8 -8 -14 -18 -14 -48 0 -57 -56 -12 -73 17 -6
30 -17 30 -23 0 -6 13 -14 30 -17 38 -8 70 -40 70 -71 0 -13 -14 -38 -30 -56
-17 -18 -28 -35 -25 -38 2 -3 26 -10 52 -17 l48 -12 3 -2309 c2 -1731 -1
-2314 -9 -2331 -7 -12 -36 -32 -65 -44 l-54 -21 25 -20 c43 -34 30 -95 -25
-118 -27 -11 -30 -16 -30 -60 l0 -48 116 -22 116 -22 131 22 c73 12 135 24
140 27 4 2 7 24 7 47 0 39 -3 45 -30 56 -60 25 -76 75 -36 115 l24 24 -54 22
c-29 12 -56 29 -59 37 -5 12 -6 1367 -5 4248 l0 401 38 7 c63 10 71 21 40 53
-42 45 -44 69 -9 103 16 17 39 30 50 30 12 0 21 4 21 10 0 5 14 17 31 25 36
19 37 53 0 71 -13 7 -26 16 -30 21 -3 5 -21 15 -39 22 -46 19 -62 45 -51 84 5
18 18 40 30 49 27 23 19 33 -36 49 l-45 13 0 2308 0 2308 -95 0 -95 0 0 -952z"/>
</g>
</svg>
