<?xml version="1.0" standalone="no"?>
<!DOCTYPE svg PUBLIC "-//W3C//DTD SVG 20010904//EN"
 "http://www.w3.org/TR/2001/REC-SVG-20010904/DTD/svg10.dtd">
<svg version="1.0" xmlns="http://www.w3.org/2000/svg"
 width="3542.000000pt" height="3750.000000pt" viewBox="0 0 3542.000000 3750.000000"
 preserveAspectRatio="xMidYMid meet">

<g transform="translate(0.000000,3750.000000) scale(0.100000,-0.100000)"
fill="#C5C3C1" stroke="none">
<path d="M17388 16519 l-3 -2172 -48 -14 -48 -14 25 -30 c45 -53 29 -108 -36
-124 -16 -4 -28 -13 -28 -21 0 -8 -9 -14 -20 -14 -29 0 -44 -34 -24 -54 8 -9
22 -16 30 -16 8 0 14 -7 14 -15 0 -8 8 -15 19 -15 10 0 30 -9 45 -21 34 -27
35 -72 1 -103 -14 -13 -25 -26 -25 -29 0 -4 21 -13 48 -20 l47 -14 3 -2164 c1
-1190 0 -2174 -3 -2185 -3 -15 -22 -29 -59 -43 l-54 -22 24 -24 c13 -13 24
-34 24 -45 0 -23 -45 -70 -67 -70 -11 0 -13 -12 -11 -47 l3 -48 115 -19 c111
-18 119 -18 225 -1 60 10 115 20 122 22 18 7 17 93 -1 93 -7 0 -25 9 -40 21
-32 25 -35 70 -6 97 21 19 20 19 -29 40 -40 16 -52 27 -58 51 -7 27 -8 733 -4
3657 l1 691 39 7 c52 8 58 20 27 57 -14 17 -26 39 -26 50 0 24 32 57 65 65 14
3 25 10 25 15 0 4 12 14 28 21 16 8 27 21 27 33 0 12 -11 25 -27 33 -16 7 -28
17 -28 21 0 5 -10 11 -23 15 -31 7 -67 43 -67 66 0 10 12 32 26 49 31 37 25
49 -27 57 l-39 7 0 2173 0 2174 -90 0 -90 0 -2 -2171z"/>
</g>
</svg>
