<?xml version="1.0" standalone="no"?>
<!DOCTYPE svg PUBLIC "-//W3C//DTD SVG 20010904//EN"
 "http://www.w3.org/TR/2001/REC-SVG-20010904/DTD/svg10.dtd">
<svg version="1.0" xmlns="http://www.w3.org/2000/svg"
 width="3542.000000pt" height="3750.000000pt" viewBox="0 0 3542.000000 3750.000000"
 preserveAspectRatio="xMidYMid meet">

<g transform="translate(0.000000,3750.000000) scale(0.100000,-0.100000)"
fill="#C5C3C1" stroke="none">
<path d="M19210 16606 l0 -2104 -32 -6 c-57 -11 -66 -21 -41 -48 34 -38 38
-66 12 -94 -12 -13 -28 -24 -35 -24 -7 0 -20 -8 -30 -17 -10 -10 -27 -23 -38
-28 -34 -17 -32 -44 3 -58 17 -6 31 -17 31 -24 0 -7 9 -13 20 -13 24 0 70 -42
70 -64 0 -8 -12 -29 -26 -46 -30 -35 -26 -44 26 -57 l35 -9 3 -2100 c1 -1154
0 -2109 -3 -2122 -4 -16 -21 -30 -56 -44 l-50 -21 21 -22 c32 -34 24 -75 -21
-100 -32 -18 -36 -24 -35 -60 l1 -40 70 -12 c143 -23 175 -24 285 -7 l110 18
0 43 c0 33 -4 45 -17 50 -31 11 -63 46 -63 69 0 12 11 31 24 42 l25 19 -55 22
c-36 16 -56 30 -59 44 -3 12 -5 967 -3 2121 l3 2099 48 14 c26 7 47 16 47 18
0 2 -11 15 -25 29 -14 14 -25 36 -25 50 0 29 35 66 61 66 10 0 22 6 26 13 4 6
17 17 28 23 31 17 31 52 1 64 -14 5 -26 14 -26 19 0 5 -12 12 -27 16 -66 16
-82 69 -37 116 l27 28 -34 15 c-19 8 -41 17 -51 20 -15 4 -16 159 -17 2093 0
1148 -1 2094 -1 2101 0 8 -24 12 -85 12 l-85 0 0 -2104z"/>
</g>
</svg>
