<?xml version="1.0" standalone="no"?>
<!DOCTYPE svg PUBLIC "-//W3C//DTD SVG 20010904//EN"
 "http://www.w3.org/TR/2001/REC-SVG-20010904/DTD/svg10.dtd">
<svg version="1.0" xmlns="http://www.w3.org/2000/svg"
 width="3542.000000pt" height="3750.000000pt" viewBox="0 0 3542.000000 3750.000000"
 preserveAspectRatio="xMidYMid meet">

<g transform="translate(0.000000,3750.000000) scale(0.100000,-0.100000)"
fill="#C5C3C1" stroke="none">
<path d="M21750 16730 c0 -1991 0 -2020 -19 -2020 -11 0 -32 -5 -46 -10 l-27
-10 26 -31 c14 -17 26 -39 26 -50 0 -22 -34 -59 -53 -59 -8 0 -23 -8 -35 -17
-11 -10 -28 -23 -38 -29 -22 -13 -12 -44 16 -51 11 -3 20 -12 20 -19 0 -8 9
-14 20 -14 24 0 70 -42 70 -64 0 -8 -12 -29 -27 -46 -30 -36 -24 -45 35 -56
l32 -6 0 -2022 c0 -1111 -4 -2026 -8 -2033 -4 -6 -26 -19 -50 -28 -38 -16 -41
-19 -29 -34 29 -32 30 -59 3 -86 -14 -14 -32 -25 -41 -25 -11 0 -15 -11 -15
-45 0 -25 5 -45 11 -45 6 0 60 -7 120 -16 101 -15 116 -15 206 1 54 9 99 18
102 21 2 2 6 17 8 34 3 30 0 34 -49 71 -33 24 -36 55 -7 85 l20 22 -44 17
c-25 9 -50 27 -56 38 -8 16 -10 292 -7 1037 2 558 4 1464 5 2013 1 893 3 997
16 997 9 0 29 7 45 15 l29 15 -24 25 c-42 42 -27 97 31 111 13 3 24 12 24 19
0 7 11 16 24 19 36 9 40 33 8 53 -15 10 -31 22 -37 26 -5 5 -25 17 -42 27 -42
25 -44 62 -6 102 l26 27 -46 13 -47 12 0 2018 0 2018 -85 0 -85 0 0 -2020z"/>
</g>
</svg>
