<?xml version="1.0" standalone="no"?>
<!DOCTYPE svg PUBLIC "-//W3C//DTD SVG 20010904//EN"
 "http://www.w3.org/TR/2001/REC-SVG-20010904/DTD/svg10.dtd">
<svg version="1.0" xmlns="http://www.w3.org/2000/svg"
 width="3542.000000pt" height="3750.000000pt" viewBox="0 0 3542.000000 3750.000000"
 preserveAspectRatio="xMidYMid meet">

<g transform="translate(0.000000,3750.000000) scale(0.100000,-0.100000)"
fill="#C5C3C1" stroke="none">
<path d="M32008 16384 l-3 -2267 -47 -14 c-27 -7 -48 -16 -48 -19 0 -4 11 -19
25 -36 14 -16 25 -40 25 -54 0 -29 -30 -61 -65 -70 -14 -3 -25 -10 -25 -15 0
-4 -12 -14 -27 -21 -40 -19 -42 -53 -4 -73 17 -8 31 -20 31 -25 0 -6 8 -10 19
-10 10 0 30 -9 45 -21 34 -27 35 -71 1 -105 -14 -14 -25 -27 -25 -29 0 -9 60
-35 80 -35 l20 0 0 -2273 c0 -1804 -3 -2276 -12 -2288 -7 -9 -33 -24 -58 -34
-25 -10 -46 -20 -48 -21 -2 -1 8 -13 22 -27 14 -15 26 -33 26 -42 0 -21 -54
-75 -74 -75 -12 0 -16 -11 -16 -48 l0 -48 155 -23 156 -23 94 23 95 22 0 49
c0 28 -5 48 -11 48 -6 0 -24 9 -40 21 -35 25 -39 69 -9 99 11 11 20 22 20 24
0 2 -22 12 -50 22 -27 10 -50 24 -50 31 0 7 -4 13 -8 13 -5 0 -8 395 -7 878 1
482 3 1506 3 2275 2 1179 4 1397 16 1397 7 0 30 7 50 15 l37 16 -30 35 c-17
19 -31 44 -31 54 0 27 34 59 70 67 17 3 30 12 30 19 0 8 11 16 25 20 45 11 40
74 -6 74 -11 0 -19 6 -19 14 0 8 -12 17 -27 21 -35 8 -73 43 -73 66 0 10 14
34 31 53 l30 35 -30 15 c-16 9 -39 16 -51 16 l-20 0 0 2270 0 2270 -95 0 -95
0 -2 -2266z"/>
</g>
</svg>
