<?xml version="1.0" standalone="no"?>
<!DOCTYPE svg PUBLIC "-//W3C//DTD SVG 20010904//EN"
 "http://www.w3.org/TR/2001/REC-SVG-20010904/DTD/svg10.dtd">
<svg version="1.0" xmlns="http://www.w3.org/2000/svg"
 width="3542.000000pt" height="3750.000000pt" viewBox="0 0 3542.000000 3750.000000"
 preserveAspectRatio="xMidYMid meet">

<g transform="translate(0.000000,3750.000000) scale(0.100000,-0.100000)"
fill="#C5C3C1" stroke="none">
<path d="M3580 15840 l0 -2660 -24 0 c-14 0 -28 -4 -31 -10 -3 -5 -14 -10 -24
-10 -36 0 -41 -22 -11 -50 61 -57 44 -122 -38 -148 -23 -8 -42 -19 -42 -26 0
-6 -13 -17 -30 -23 -22 -8 -30 -18 -30 -35 0 -28 17 -48 41 -48 9 0 19 -9 22
-20 3 -11 13 -20 24 -20 10 0 33 -9 50 -20 53 -32 55 -90 6 -136 -14 -13 -22
-27 -19 -32 4 -7 40 -20 103 -38 10 -2 12 -590 13 -2659 0 -2360 -2 -2658 -15
-2679 -9 -13 -42 -34 -74 -47 l-59 -23 29 -27 c17 -16 29 -37 29 -52 0 -34
-34 -74 -70 -82 -29 -6 -30 -8 -30 -65 l0 -58 83 -21 c45 -12 95 -26 110 -31
20 -7 80 0 212 22 l185 32 0 57 c0 53 -2 57 -26 63 -37 10 -74 50 -74 82 0 16
11 37 30 54 l30 28 -60 22 c-32 12 -65 32 -73 44 -12 18 -14 422 -15 2666 0
1455 2 2653 4 2663 3 9 13 17 23 17 22 0 91 28 91 36 0 4 -13 22 -30 41 -50
57 -33 111 45 137 22 8 40 20 40 28 0 7 10 14 22 16 55 8 61 75 8 88 -14 3
-25 12 -25 19 0 7 -19 19 -42 27 -82 26 -99 91 -38 148 30 28 25 50 -11 50
-10 0 -21 5 -24 10 -3 6 -17 10 -31 10 l-24 0 0 2660 0 2660 -115 0 -115 0 0
-2660z"/>
</g>
</svg>
