<?xml version="1.0" standalone="no"?>
<!DOCTYPE svg PUBLIC "-//W3C//DTD SVG 20010904//EN"
 "http://www.w3.org/TR/2001/REC-SVG-20010904/DTD/svg10.dtd">
<svg version="1.0" xmlns="http://www.w3.org/2000/svg"
 width="3542.000000pt" height="3750.000000pt" viewBox="0 0 3542.000000 3750.000000"
 preserveAspectRatio="xMidYMid meet">

<g transform="translate(0.000000,3750.000000) scale(0.100000,-0.100000)"
fill="#C5C3C1" stroke="none">
<path d="M33230 16336 l0 -2305 -55 -16 c-30 -8 -55 -17 -55 -20 0 -2 14 -17
30 -33 17 -17 30 -41 30 -54 0 -29 -34 -64 -72 -73 -16 -4 -28 -12 -28 -19 0
-6 -13 -17 -30 -23 -21 -8 -30 -18 -30 -33 0 -15 9 -25 30 -33 17 -6 30 -17
30 -23 0 -6 13 -14 30 -17 38 -8 70 -40 70 -71 0 -14 -13 -38 -30 -54 -34 -35
-27 -47 36 -60 l39 -8 3 -2308 2 -2309 -24 -22 c-14 -13 -41 -28 -61 -35 -40
-13 -43 -20 -15 -38 31 -19 27 -75 -6 -101 -15 -12 -33 -21 -40 -21 -10 0 -14
-14 -14 -49 0 -56 -19 -49 192 -77 l128 -18 95 24 95 24 0 47 c0 41 -3 48 -25
53 -33 8 -65 44 -65 73 0 13 11 33 25 45 l25 22 -51 22 c-29 11 -56 29 -62 39
-10 18 -12 4609 -2 4625 3 4 19 11 37 14 59 11 66 21 36 53 -42 45 -44 69 -9
103 16 17 39 30 50 30 12 0 21 4 21 10 0 5 14 16 30 25 44 23 35 75 -12 75
-10 0 -18 6 -18 13 0 6 -18 20 -40 29 -65 27 -73 87 -18 126 28 20 22 29 -32
47 l-50 17 0 2304 0 2304 -95 0 -95 0 0 -2304z"/>
</g>
</svg>
