<?xml version="1.0" standalone="no"?>
<!DOCTYPE svg PUBLIC "-//W3C//DTD SVG 20010904//EN"
 "http://www.w3.org/TR/2001/REC-SVG-20010904/DTD/svg10.dtd">
<svg version="1.0" xmlns="http://www.w3.org/2000/svg"
 width="3542.000000pt" height="3750.000000pt" viewBox="0 0 3542.000000 3750.000000"
 preserveAspectRatio="xMidYMid meet">

<g transform="translate(0.000000,3750.000000) scale(0.100000,-0.100000)"
fill="#65340A" stroke="none">
<path d="M12307 16723 c-3 -2097 1 -1945 -73 -2393 -22 -133 -33 -227 -29
-249 8 -40 55 -91 84 -91 18 0 21 -6 21 -40 0 -34 -3 -40 -20 -40 -11 0 -36
-6 -55 -14 l-34 -15 29 -31 c38 -41 40 -81 3 -109 -14 -12 -37 -24 -50 -27
-12 -4 -23 -12 -23 -20 0 -8 -8 -14 -18 -14 -47 0 -56 -52 -13 -70 16 -6 32
-18 34 -25 3 -7 18 -16 34 -19 66 -17 82 -72 37 -126 -30 -35 -27 -41 34 -60
39 -12 42 -16 42 -47 0 -28 -5 -36 -27 -44 -34 -12 -72 -65 -80 -111 -3 -21 6
-92 21 -169 32 -169 62 -395 76 -568 6 -85 10 -806 10 -1957 0 -1597 -2 -1824
-15 -1837 -8 -9 -35 -23 -60 -32 -25 -10 -45 -20 -45 -22 0 -3 10 -13 21 -22
13 -10 22 -29 22 -45 0 -31 -38 -76 -65 -76 -15 0 -18 -8 -18 -53 l0 -53 119
-23 120 -22 123 21 c164 27 154 23 156 75 2 42 0 46 -32 59 -59 25 -73 76 -31
118 l25 25 -42 14 c-23 7 -52 23 -65 35 l-24 22 4 1883 c3 1843 4 1888 25
2064 11 99 35 260 51 358 17 98 31 193 31 211 0 45 -38 99 -78 111 -27 8 -32
14 -32 40 0 29 4 33 55 49 55 17 67 29 41 39 -23 9 -48 66 -42 93 6 24 51 54
81 54 8 0 15 6 15 14 0 8 14 19 30 25 22 7 30 16 30 35 0 18 -8 27 -30 35 -16
5 -30 14 -30 20 0 5 -16 15 -35 21 -37 12 -65 43 -65 72 0 9 14 33 30 52 l31
35 -33 15 c-18 8 -42 16 -53 18 -14 2 -21 12 -23 34 -3 25 3 34 35 55 81 52
85 93 39 354 -28 163 -52 370 -66 575 -6 85 -10 880 -10 1913 l0 1767 -95 0
-94 0 -4 -1887z"/>
</g>
</svg>
