<?xml version="1.0" standalone="no"?>
<!DOCTYPE svg PUBLIC "-//W3C//DTD SVG 20010904//EN"
 "http://www.w3.org/TR/2001/REC-SVG-20010904/DTD/svg10.dtd">
<svg version="1.0" xmlns="http://www.w3.org/2000/svg"
 width="3542.000000pt" height="3750.000000pt" viewBox="0 0 3542.000000 3750.000000"
 preserveAspectRatio="xMidYMid meet">

<g transform="translate(0.000000,3750.000000) scale(0.100000,-0.100000)"
fill="#65340A" stroke="none">
<path d="M17390 16978 c0 -1947 4 -1817 -82 -2389 -15 -96 0 -146 50 -168 26
-12 32 -20 32 -47 0 -28 -4 -33 -32 -38 -59 -11 -65 -20 -35 -56 15 -17 27
-40 27 -51 0 -26 -43 -69 -70 -69 -11 0 -20 -4 -20 -10 0 -5 -13 -16 -30 -25
-17 -9 -30 -24 -30 -34 0 -12 11 -23 30 -30 17 -5 30 -15 30 -20 0 -6 11 -13
24 -17 13 -3 34 -16 46 -29 27 -29 22 -63 -16 -98 l-26 -24 51 -19 c47 -17 51
-20 51 -51 0 -22 -5 -33 -14 -33 -22 0 -65 -57 -72 -97 -4 -23 3 -98 20 -202
29 -184 40 -276 56 -460 11 -131 15 -3496 4 -3524 -3 -8 -28 -25 -55 -36 l-49
-21 21 -21 c33 -33 23 -79 -23 -104 -35 -18 -38 -24 -38 -62 0 -47 -12 -41
146 -68 86 -14 98 -14 205 5 63 11 117 20 122 20 4 0 7 20 7 44 0 39 -3 45
-30 56 -53 22 -65 68 -28 107 l21 23 -52 21 c-33 14 -53 29 -57 43 -2 12 -3
806 -1 1766 3 1909 0 1806 63 2205 14 88 26 177 26 197 -1 51 -26 94 -62 106
-24 9 -30 17 -30 41 0 25 5 31 38 41 20 6 43 14 51 16 11 3 7 12 -13 33 -21
22 -27 37 -24 62 3 29 9 37 45 54 23 11 42 25 43 32 0 6 10 13 23 15 16 2 22
10 22 28 0 16 -8 28 -22 35 -13 5 -23 15 -23 22 0 7 -8 13 -19 13 -10 0 -30 9
-45 21 -35 27 -35 71 0 106 14 14 24 26 22 27 -18 11 -63 26 -78 26 -16 0 -20
7 -20 33 0 26 6 36 25 45 37 17 65 70 65 122 0 25 -7 83 -15 130 -22 123 -53
383 -65 545 -6 87 -10 764 -10 1803 l0 1662 -90 0 -90 0 0 -1702z"/>
</g>
</svg>
