<?xml version="1.0" standalone="no"?>
<!DOCTYPE svg PUBLIC "-//W3C//DTD SVG 20010904//EN"
 "http://www.w3.org/TR/2001/REC-SVG-20010904/DTD/svg10.dtd">
<svg version="1.0" xmlns="http://www.w3.org/2000/svg"
 width="3542.000000pt" height="3750.000000pt" viewBox="0 0 3542.000000 3750.000000"
 preserveAspectRatio="xMidYMid meet">

<g transform="translate(0.000000,3750.000000) scale(0.100000,-0.100000)"
fill="#65340A" stroke="none">
<path d="M18317 16983 c-4 -1865 -2 -1794 -63 -2193 -34 -220 -26 -274 44
-301 31 -12 32 -69 2 -69 -12 0 -35 -7 -52 -16 l-30 -16 26 -27 c34 -35 34
-73 0 -100 -15 -12 -35 -21 -45 -21 -11 0 -19 -6 -19 -13 0 -7 -10 -17 -22
-22 -34 -15 -36 -53 -4 -61 14 -3 26 -12 26 -20 0 -8 8 -14 19 -14 10 0 30 -9
45 -21 35 -27 35 -72 0 -104 l-26 -24 31 -15 c16 -9 39 -16 51 -16 16 0 20 -6
20 -32 -1 -26 -8 -37 -33 -53 -66 -42 -68 -73 -24 -375 52 -352 50 -292 54
-2108 3 -1303 1 -1717 -8 -1728 -6 -8 -32 -23 -57 -34 l-45 -20 21 -23 c12
-13 22 -32 22 -43 0 -22 -33 -57 -62 -67 -14 -5 -18 -17 -18 -50 l0 -43 121
-18 c119 -18 124 -18 233 0 l111 19 3 48 c2 35 0 47 -11 47 -24 0 -67 40 -67
63 0 11 10 31 22 44 12 13 20 24 17 25 -2 2 -26 14 -54 28 l-50 25 -3 1595
c-2 1013 1 1662 8 1780 11 193 39 455 65 600 8 47 15 109 15 138 0 46 -4 58
-29 83 -16 16 -37 29 -45 29 -12 0 -16 10 -16 35 0 29 4 35 20 35 12 0 35 7
51 16 l30 15 -25 26 c-34 34 -34 75 0 102 15 12 35 21 45 21 11 0 19 6 19 14
0 8 11 17 25 20 18 5 25 13 25 31 0 18 -7 26 -25 31 -14 3 -25 12 -25 20 0 8
-8 14 -19 14 -10 0 -30 9 -45 21 -34 27 -34 65 0 100 l26 27 -30 16 c-17 9
-40 16 -52 16 -37 0 -26 47 21 89 36 32 42 43 46 86 3 28 -5 106 -16 175 -68
412 -71 501 -71 2306 l0 1614 -85 0 -84 0 -4 -1707z"/>
</g>
</svg>
