<?xml version="1.0" standalone="no"?>
<!DOCTYPE svg PUBLIC "-//W3C//DTD SVG 20010904//EN"
 "http://www.w3.org/TR/2001/REC-SVG-20010904/DTD/svg10.dtd">
<svg version="1.0" xmlns="http://www.w3.org/2000/svg"
 width="2550.000000pt" height="2700.000000pt" viewBox="0 0 2550.000000 2700.000000"
 preserveAspectRatio="xMidYMid meet">

<g transform="translate(0.000000,2700.000000) scale(0.100000,-0.100000)"
fill="#3a4548" stroke="none">
<path d="M15476 19781 l-48 -49 1 -571 1 -571 -105 0 -105 0 0 -1290 0 -1290
105 0 105 0 0 -85 0 -84 -102 -3 -103 -3 -3 -1138 -2 -1139 109 4 c60 1 106 1
102 -2 -4 -3 -7 -150 -7 -327 1 -176 -2 -319 -6 -316 -5 2 -8 0 -8 -6 0 -6
-10 -15 -21 -22 -17 -9 -20 -8 -14 3 6 10 5 10 -4 2 -10 -9 -10 -17 2 -35 21
-33 16 -74 -9 -74 -16 0 -20 -8 -22 -47 -4 -59 -1 -60 163 -56 l120 3 3 47 c2
38 -1 49 -16 57 -29 15 -34 39 -15 68 16 24 16 26 -2 39 -10 8 -24 14 -31 14
-6 0 -14 10 -18 23 -10 37 -7 615 3 622 6 3 55 6 110 7 l101 2 0 1138 0 1138
-110 0 -110 0 0 85 0 84 108 3 107 3 0 1285 0 1285 -108 3 -107 3 2 619 c2
424 0 620 -7 620 -6 0 -32 -22 -59 -49z m-139 -1307 c-3 -3 -12 -4 -19 -1 -8
3 -5 6 6 6 11 1 17 -2 13 -5z m46 -1 c-7 -2 -19 -2 -25 0 -7 3 -2 5 12 5 14 0
19 -2 13 -5z m277 -1173 l0 -1180 -175 0 -175 0 0 1170 0 1170 173 2 172 2
-125 6 -125 6 128 2 127 2 0 -1180z m-323 -1576 c-3 -3 -12 -4 -19 -1 -8 3 -5
6 6 6 11 1 17 -2 13 -5z m46 -1 c-7 -2 -19 -2 -25 0 -7 3 -2 5 12 5 14 0 19
-2 13 -5z m278 -640 c0 -357 1 -822 2 -1034 l2 -387 -66 3 c-36 1 -72 5 -79
10 -8 5 -11 4 -7 -2 4 -6 -4 -10 -18 -10 -14 0 -22 4 -19 9 4 6 0 7 -12 1 -23
-11 -133 -8 -145 4 -5 5 -8 429 -7 1019 l3 1009 170 5 170 5 -125 6 -125 5
128 2 127 2 1 -647z"/>
</g>
</svg>
