<?xml version="1.0" standalone="no"?>
<!DOCTYPE svg PUBLIC "-//W3C//DTD SVG 20010904//EN"
 "http://www.w3.org/TR/2001/REC-SVG-20010904/DTD/svg10.dtd">
<svg version="1.0" xmlns="http://www.w3.org/2000/svg"
 width="2550.000000pt" height="2700.000000pt" viewBox="0 0 2550.000000 2700.000000"
 preserveAspectRatio="xMidYMid meet">

<g transform="translate(0.000000,2700.000000) scale(0.100000,-0.100000)"
fill="#3a4548" stroke="none">
<path d="M16423 20651 l-53 -49 0 -596 0 -596 -105 0 -105 0 0 -1285 0 -1285
105 0 105 0 0 -90 0 -90 -105 0 -105 0 0 -1145 0 -1145 105 0 105 0 -2 -732
c-3 -727 -3 -733 -23 -730 -11 2 -17 1 -13 -4 4 -4 4 -12 -2 -18 -5 -7 -5 -27
-1 -48 7 -30 5 -40 -10 -54 -10 -9 -20 -30 -22 -48 l-4 -31 -1 33 c-2 24 5 40
21 53 l22 20 -27 -17 c-24 -14 -28 -23 -28 -60 0 -39 3 -44 23 -45 25 -1 109
-1 210 0 l67 1 0 40 c0 30 -4 40 -16 40 -8 0 -13 4 -10 9 3 5 -1 11 -9 15 -19
7 -19 50 0 66 21 17 19 29 -7 40 -60 25 -55 -31 -57 764 -2 634 0 728 13 717
9 -8 47 -11 112 -9 l99 3 3 1143 2 1142 -110 0 -110 0 0 85 0 85 110 0 110 0
-2 1288 -3 1287 -107 3 -108 3 0 644 c0 355 -3 645 -7 645 -5 0 -32 -22 -60
-49z m77 -1361 l-115 -6 108 -2 107 -2 0 -1170 0 -1170 -174 0 -175 0 1 1170
0 1170 66 2 67 2 -70 6 c-45 4 -5 6 115 6 164 0 172 -1 70 -6z m0 -2750 l-115
-6 107 -2 108 -2 2 -1022 3 -1023 -170 5 -170 5 -7 205 c-4 113 -6 570 -5
1015 l2 810 65 5 65 4 -70 6 c-43 4 0 6 115 6 164 0 172 -1 70 -6z m67 -2156
c-3 -3 -12 -4 -19 -1 -8 3 -5 6 6 6 11 1 17 -2 13 -5z m126 -1 c-7 -2 -21 -2
-30 0 -10 3 -4 5 12 5 17 0 24 -2 18 -5z"/>
<path d="M16305 12889 c-4 -6 -5 -12 -2 -15 2 -3 7 2 10 11 7 17 1 20 -8 4z"/>
</g>
</svg>
