<?xml version="1.0" standalone="no"?>
<!DOCTYPE svg PUBLIC "-//W3C//DTD SVG 20010904//EN"
 "http://www.w3.org/TR/2001/REC-SVG-20010904/DTD/svg10.dtd">
<svg version="1.0" xmlns="http://www.w3.org/2000/svg"
 width="2550.000000pt" height="2700.000000pt" viewBox="0 0 2550.000000 2700.000000"
 preserveAspectRatio="xMidYMid meet">

<g transform="translate(0.000000,2700.000000) scale(0.100000,-0.100000)"
fill="#3a4548" stroke="none">
<path d="M17276 21471 l-49 -47 2 -565 c1 -310 -1 -572 -4 -581 -6 -16 -21
-18 -106 -18 l-99 0 0 -1280 0 -1280 105 0 105 0 0 -69 c0 -104 4 -101 -111
-101 l-99 0 0 -1140 0 -1140 105 0 105 0 0 -319 c0 -342 0 -340 -51 -356 -14
-5 -18 -12 -13 -23 19 -45 16 -70 -10 -87 -20 -13 -26 -26 -26 -51 l0 -34 150
0 150 0 0 33 c0 25 -6 37 -24 47 -31 16 -38 41 -20 74 7 14 9 26 5 26 -5 0
-20 11 -35 25 l-26 24 0 320 0 320 106 3 106 3 0 505 c1 278 1 794 0 1148 l-2
643 -105 -7 -105 -7 0 82 0 81 94 0 c52 0 100 2 108 5 11 4 13 226 11 1278 -1
699 -2 1277 -2 1282 -1 6 -41 9 -106 7 l-106 -4 1 622 c1 342 0 624 -2 626 -2
2 -26 -18 -52 -45z m184 -2487 l0 -1184 -97 0 c-54 0 -135 -3 -181 -7 l-82 -6
0 1175 c0 917 3 1178 13 1191 10 14 36 17 167 19 85 2 161 1 168 -1 9 -2 12
-248 12 -1187z m-2 -2598 l-3 -1041 -175 0 -175 0 -3 1034 c-1 744 1 1038 9
1047 13 16 316 25 337 10 9 -7 12 -224 10 -1050z"/>
</g>
</svg>
