<?xml version="1.0" standalone="no"?>
<!DOCTYPE svg PUBLIC "-//W3C//DTD SVG 20010904//EN"
 "http://www.w3.org/TR/2001/REC-SVG-20010904/DTD/svg10.dtd">
<svg version="1.0" xmlns="http://www.w3.org/2000/svg"
 width="2550.000000pt" height="2700.000000pt" viewBox="0 0 2550.000000 2700.000000"
 preserveAspectRatio="xMidYMid meet">

<g transform="translate(0.000000,2700.000000) scale(0.100000,-0.100000)"
fill="#3a4548" stroke="none">
<path d="M22249 26993 c-1 -4 -2 -230 -3 -501 -1 -395 -4 -494 -14 -501 -7 -4
-47 -16 -88 -26 l-74 -19 0 -531 c-1 -2286 -2 -2160 15 -2163 9 -2 47 6 85 17
37 12 71 21 74 21 8 0 8 -94 0 -142 -4 -22 -13 -39 -23 -42 -9 -3 -47 -14 -86
-25 l-70 -20 3 -1208 c2 -1186 2 -1208 21 -1215 20 -7 101 3 132 16 12 5 18 1
23 -16 3 -13 6 -163 6 -334 0 -298 -1 -311 -20 -332 -12 -12 -26 -22 -33 -22
-7 0 -18 -4 -26 -9 -11 -7 -10 -13 4 -34 21 -33 13 -58 -25 -80 -16 -10 -30
-25 -30 -34 0 -13 9 -15 53 -10 28 3 114 11 191 18 l138 13 -26 19 c-30 21
-33 52 -10 78 16 17 15 19 -10 29 -15 5 -36 10 -46 10 -17 0 -18 17 -19 359
-2 338 -1 360 16 365 10 3 51 8 91 12 l72 7 0 1243 0 1243 -22 3 c-13 2 -51
-4 -86 -14 -75 -20 -74 -22 -70 88 l3 78 35 9 c19 5 59 16 88 24 l52 14 0
1333 0 1333 -22 10 c-17 7 -40 5 -85 -8 -34 -9 -64 -15 -67 -11 -3 3 -6 219
-6 481 l0 476 -70 3 c-39 1 -71 -1 -71 -5z m201 -2306 l0 -1223 -47 -13 c-98
-28 -139 -38 -176 -45 l-37 -7 2 1223 3 1223 110 32 c61 17 118 32 128 32 16
1 17 -64 17 -1222z m0 -2776 l0 -1118 -122 -20 c-68 -10 -126 -18 -130 -16 -5
3 -8 500 -8 1107 l0 1103 113 30 c61 17 120 31 130 32 16 1 17 -59 17 -1118z"/>
</g>
</svg>
