<?xml version="1.0" standalone="no"?>
<!DOCTYPE svg PUBLIC "-//W3C//DTD SVG 20010904//EN"
 "http://www.w3.org/TR/2001/REC-SVG-20010904/DTD/svg10.dtd">
<svg version="1.0" xmlns="http://www.w3.org/2000/svg"
 width="2550.000000pt" height="2700.000000pt" viewBox="0 0 2550.000000 2700.000000"
 preserveAspectRatio="xMidYMid meet">

<g transform="translate(0.000000,2700.000000) scale(0.100000,-0.100000)"
fill="#3a4548" stroke="none">
<path d="M22900 26584 c-1 -1295 1 -2278 3 -2280 2 -2 91 10 150 21 l28 5 -3
-108 -3 -107 -65 -8 c-36 -4 -75 -9 -87 -12 l-23 -5 0 -1235 0 -1235 53 0 c28
0 69 4 89 9 29 7 38 5 42 -6 3 -8 6 -357 6 -776 -1 -595 -3 -766 -13 -778 -7
-10 -30 -24 -51 -33 l-38 -16 21 -26 c16 -21 18 -30 9 -49 -6 -14 -19 -27 -30
-30 -20 -7 -42 -41 -31 -48 5 -3 87 4 183 14 96 10 181 19 189 19 9 0 4 9 -13
25 -30 27 -32 43 -11 71 21 28 19 31 -20 38 -26 5 -39 14 -45 32 -6 15 -10
260 -10 603 0 570 0 579 -20 584 -19 5 -20 14 -22 206 -1 111 -2 215 -2 233
l-1 32 85 17 c47 10 97 18 113 18 l27 1 0 1204 0 1205 -47 -4 c-27 -2 -67 -7
-90 -10 l-43 -7 0 105 0 105 33 5 c17 3 58 9 90 13 l57 6 0 1309 0 1309 -60 0
-60 0 0 -1255 0 -1255 -22 -5 c-31 -6 -238 -45 -244 -45 -2 0 -3 557 -2 1238
l3 1237 70 22 c39 12 90 27 114 33 23 6 40 14 37 17 -3 4 -82 8 -176 11 l-170
4 0 -418z m390 -3668 c0 -1063 -1 -1125 -17 -1130 -10 -2 -52 -10 -93 -16 -41
-6 -92 -15 -112 -20 -20 -4 -40 -5 -43 -2 -3 3 -5 508 -5 1123 l0 1117 28 7
c20 6 158 32 235 44 4 0 7 -505 7 -1123z"/>
</g>
</svg>
