<?xml version="1.0" standalone="no"?>
<!DOCTYPE svg PUBLIC "-//W3C//DTD SVG 20010904//EN"
 "http://www.w3.org/TR/2001/REC-SVG-20010904/DTD/svg10.dtd">
<svg version="1.0" xmlns="http://www.w3.org/2000/svg"
 width="2550.000000pt" height="2700.000000pt" viewBox="0 0 2550.000000 2700.000000"
 preserveAspectRatio="xMidYMid meet">

<g transform="translate(0.000000,2700.000000) scale(0.100000,-0.100000)"
fill="#3a4548" stroke="none">
<path d="M12867 17222 l-57 -58 0 -552 0 -552 -100 0 -100 0 0 -1305 0 -1305
100 0 100 0 0 -90 0 -90 -100 0 -100 0 0 -1155 c0 -1093 1 -1155 18 -1156 9 0
54 0 100 1 l82 1 0 -736 0 -735 -32 -20 c-18 -11 -37 -22 -43 -23 -5 -2 -2
-13 8 -24 25 -28 21 -49 -13 -75 -23 -16 -30 -30 -30 -54 0 -31 3 -34 50 -48
46 -14 94 -14 265 -2 38 3 40 5 40 36 0 23 -7 37 -26 51 -35 25 -41 53 -18 83
19 24 19 24 -4 30 -12 3 -32 15 -45 26 l-22 21 0 739 0 738 100 7 100 8 0
1138 0 1139 -100 0 -100 0 0 90 0 90 100 0 100 0 0 1305 0 1305 -47 0 c-27 0
-72 3 -100 6 l-53 7 0 608 c0 335 -4 609 -8 609 -4 0 -33 -26 -65 -58z m161
-2474 l2 -1208 -155 0 -155 0 0 1208 c0 665 2 1211 4 1213 2 2 71 2 153 -1
l148 -5 3 -1207z m0 -2626 l-3 -1047 -140 -7 c-77 -5 -146 -6 -152 -3 -10 3
-13 223 -13 1053 0 577 2 1051 4 1053 2 2 72 3 155 1 l151 -3 -2 -1047z"/>
</g>
</svg>
