<?xml version="1.0" standalone="no"?>
<!DOCTYPE svg PUBLIC "-//W3C//DTD SVG 20010904//EN"
 "http://www.w3.org/TR/2001/REC-SVG-20010904/DTD/svg10.dtd">
<svg version="1.0" xmlns="http://www.w3.org/2000/svg"
 width="2551.000000pt" height="2701.000000pt" viewBox="0 0 2551.000000 2701.000000"
 preserveAspectRatio="xMidYMid meet">

<g transform="translate(0.000000,2701.000000) scale(0.100000,-0.100000)"
fill="#C5C3C1" stroke="none">
<path d="M15308 21267 l-58 -52 -3 -625 c-4 -684 -6 -717 -72 -1001 -15 -63
-29 -138 -32 -166 -5 -50 -4 -54 30 -88 19 -19 44 -35 56 -35 29 0 30 -56 2
-65 -34 -10 -46 -33 -29 -53 8 -9 18 -27 20 -39 6 -22 -16 -63 -33 -63 -15 0
-58 -53 -59 -72 0 -19 23 -45 55 -64 10 -5 24 -19 32 -30 11 -17 10 -26 -7
-59 -11 -22 -20 -41 -20 -43 0 -2 14 -8 30 -13 43 -16 42 -54 -3 -73 -44 -18
-77 -61 -77 -99 0 -17 16 -100 34 -186 66 -295 71 -358 71 -836 0 -469 -8
-562 -71 -830 -48 -204 -42 -247 36 -281 33 -15 40 -23 40 -46 0 -16 -5 -28
-13 -28 -7 0 -22 -6 -32 -14 -18 -13 -19 -16 -4 -33 38 -43 34 -60 -28 -118
l-58 -55 38 -35 c21 -19 41 -35 45 -35 4 0 13 -9 20 -20 11 -19 4 -48 -25
-101 -2 -4 10 -12 27 -19 23 -9 30 -19 30 -39 0 -22 -7 -29 -34 -39 -74 -27
-89 -82 -58 -207 31 -122 60 -281 78 -428 13 -108 16 -248 15 -767 0 -349 0
-665 0 -702 -1 -66 -2 -68 -33 -84 -18 -9 -34 -18 -36 -19 -2 -2 4 -15 13 -29
20 -30 13 -61 -21 -82 -18 -13 -24 -25 -24 -55 0 -21 5 -41 11 -44 19 -12 301
-8 308 4 16 25 5 70 -22 91 -31 25 -35 55 -10 83 17 18 17 19 -2 30 -11 6 -30
21 -43 34 l-23 23 4 718 c5 837 2 802 109 1285 11 53 11 62 -7 95 -15 27 -31
41 -62 52 -36 12 -43 19 -43 41 0 22 6 29 30 34 40 9 45 20 21 51 -36 46 -30
61 48 124 47 37 39 67 -31 112 -38 25 -44 54 -19 89 12 15 21 31 21 34 0 3
-16 13 -35 21 -21 9 -35 21 -35 32 0 23 19 42 41 42 22 0 68 47 76 79 3 14 -4
69 -17 125 -73 319 -92 487 -94 846 -3 424 16 640 80 915 40 171 41 195 10
232 -15 18 -42 37 -61 43 -46 15 -46 42 0 70 39 24 41 27 21 49 -29 34 -29 59
1 87 63 58 73 69 73 86 0 19 -33 58 -49 58 -5 0 -19 12 -30 27 -22 27 -21 54
5 84 20 23 18 28 -21 45 -19 8 -35 18 -35 23 0 23 14 41 30 41 25 0 78 52 86
85 4 16 2 52 -4 79 -100 436 -105 495 -107 1229 -1 339 -4 619 -6 621 -2 3
-30 -19 -61 -47z"/>
</g>
</svg>
