<?xml version="1.0" standalone="no"?>
<!DOCTYPE svg PUBLIC "-//W3C//DTD SVG 20010904//EN"
 "http://www.w3.org/TR/2001/REC-SVG-20010904/DTD/svg10.dtd">
<svg version="1.0" xmlns="http://www.w3.org/2000/svg"
 width="2551.000000pt" height="2701.000000pt" viewBox="0 0 2551.000000 2701.000000"
 preserveAspectRatio="xMidYMid meet">

<g transform="translate(0.000000,2701.000000) scale(0.100000,-0.100000)"
fill="#C5C3C1" stroke="none">
<path d="M17653 23199 l-62 -50 -4 -627 c-4 -692 -6 -724 -78 -1041 -41 -180
-33 -224 47 -253 44 -16 45 -46 4 -70 -33 -19 -38 -39 -15 -58 25 -21 19 -67
-12 -87 -38 -24 -72 -65 -73 -84 0 -16 29 -40 75 -64 26 -13 31 -59 11 -90
-22 -34 -20 -43 14 -50 45 -10 42 -49 -6 -71 -42 -20 -74 -66 -74 -107 0 -15
11 -73 24 -130 69 -298 86 -467 86 -873 0 -417 -18 -605 -87 -894 -36 -152
-24 -204 53 -232 45 -16 47 -51 4 -73 -34 -18 -36 -23 -15 -51 28 -38 7 -104
-33 -104 -7 0 -12 -7 -12 -15 0 -8 -6 -15 -14 -15 -8 0 -18 -10 -21 -21 -7
-23 12 -46 68 -82 33 -22 36 -63 6 -101 l-20 -26 26 -10 c14 -5 31 -10 36 -10
5 0 9 -13 9 -28 0 -23 -7 -31 -40 -46 -51 -22 -74 -64 -67 -120 3 -23 17 -90
31 -151 14 -60 36 -171 48 -245 21 -129 22 -167 25 -875 2 -407 2 -749 -1
-760 -3 -12 -22 -29 -43 -39 -22 -10 -32 -20 -26 -24 7 -4 17 -20 22 -35 10
-25 8 -32 -19 -59 -25 -25 -30 -38 -28 -67 l3 -36 163 -3 162 -2 0 41 c0 32
-6 45 -25 61 -29 23 -33 63 -9 89 15 16 13 19 -18 35 -18 9 -36 22 -40 28 -12
17 -9 1373 2 1484 15 136 48 327 79 457 19 77 25 121 20 145 -8 39 -59 90 -89
90 -16 0 -20 7 -20 30 0 17 5 30 13 30 6 0 22 8 35 18 l23 18 -20 19 c-36 32
-27 67 29 115 28 24 50 50 50 58 0 17 -40 62 -56 62 -17 0 -44 35 -44 57 0 11
9 32 21 47 l21 26 -36 15 c-51 22 -50 55 3 78 72 32 87 86 58 202 -74 288 -97
507 -97 914 0 398 19 584 89 890 22 95 26 132 19 157 -9 36 -47 71 -85 80 -16
4 -23 13 -23 30 0 13 4 24 9 24 4 0 20 9 35 21 l26 20 -21 29 c-22 29 -21 80
1 80 19 0 90 79 84 94 -3 8 -24 27 -47 43 -23 15 -45 32 -49 38 -14 18 -8 52
12 78 20 26 20 26 1 36 -11 6 -27 11 -35 11 -10 0 -16 9 -16 25 0 19 8 28 28
36 71 27 99 88 76 171 -8 29 -25 110 -39 179 -57 281 -58 298 -64 1007 l-6
662 -62 -51z"/>
</g>
</svg>
