<?xml version="1.0" standalone="no"?>
<!DOCTYPE svg PUBLIC "-//W3C//DTD SVG 20010904//EN"
 "http://www.w3.org/TR/2001/REC-SVG-20010904/DTD/svg10.dtd">
<svg version="1.0" xmlns="http://www.w3.org/2000/svg"
 width="2551.000000pt" height="2701.000000pt" viewBox="0 0 2551.000000 2701.000000"
 preserveAspectRatio="xMidYMid meet">

<g transform="translate(0.000000,2701.000000) scale(0.100000,-0.100000)"
fill="#C5C3C1" stroke="none">
<path d="M18823 24162 l-62 -52 -3 -622 c-5 -681 -8 -725 -75 -1013 -37 -162
-40 -214 -13 -247 12 -15 36 -31 53 -36 45 -12 46 -38 3 -74 l-36 -30 20 -25
c27 -35 26 -69 -3 -85 -13 -7 -39 -30 -56 -50 l-33 -38 33 -30 c19 -16 37 -30
41 -30 15 0 38 -33 38 -54 0 -13 -9 -35 -21 -50 l-20 -26 26 -10 c14 -5 31
-10 36 -10 5 0 9 -11 9 -25 0 -18 -7 -26 -25 -31 -14 -3 -39 -22 -56 -41 -28
-32 -30 -41 -26 -87 2 -28 21 -127 40 -221 55 -259 68 -414 66 -799 -1 -405
-21 -598 -93 -892 -22 -90 -22 -102 -9 -134 15 -38 47 -67 78 -72 13 -2 21
-12 23 -28 2 -20 -5 -29 -32 -44 l-35 -19 19 -25 c37 -46 28 -72 -49 -132 -44
-35 -40 -60 14 -94 24 -16 47 -37 51 -48 6 -21 -13 -78 -27 -78 -23 0 -5 -20
26 -30 29 -10 35 -16 35 -40 0 -23 -5 -30 -30 -35 -16 -4 -41 -20 -55 -37 -29
-35 -32 -73 -10 -159 26 -101 63 -309 79 -449 13 -114 16 -299 16 -1175 1
-572 1 -1102 0 -1177 l0 -138 -40 -20 c-37 -19 -39 -22 -25 -36 24 -24 19 -70
-10 -92 -19 -16 -25 -29 -25 -61 l0 -41 168 2 167 3 3 34 c3 28 -2 38 -27 58
-35 27 -41 66 -15 94 15 16 13 19 -18 35 -18 9 -36 22 -40 28 -4 6 -8 535 -8
1176 0 978 2 1187 15 1300 18 154 45 310 81 454 19 80 22 106 14 132 -13 38
-38 63 -76 73 -21 5 -30 14 -32 34 -3 22 3 29 32 41 20 8 36 18 36 21 0 3 -10
19 -21 35 -26 34 -20 74 14 91 31 17 77 62 77 75 0 7 -12 21 -27 33 -16 11
-40 30 -55 42 -34 25 -35 47 -6 84 21 27 21 28 3 41 -10 8 -27 14 -37 14 -13
0 -18 8 -18 30 0 23 4 30 20 30 28 0 87 55 93 88 3 15 -7 84 -23 153 -39 168
-67 345 -81 508 -16 185 -6 757 16 911 17 120 56 326 80 418 8 29 12 67 8 83
-6 34 -64 89 -93 89 -34 0 -25 42 15 68 33 21 46 42 26 42 -5 0 -14 13 -21 29
-12 31 -1 71 21 71 12 0 79 71 79 84 0 13 -42 49 -73 63 -38 18 -45 57 -17 95
24 33 20 42 -27 54 -37 10 -28 40 20 66 27 15 49 37 61 61 18 39 18 39 -7 145
-84 344 -89 409 -96 1151 l-6 654 -62 -51z"/>
</g>
</svg>
