<?xml version="1.0" standalone="no"?>
<!DOCTYPE svg PUBLIC "-//W3C//DTD SVG 20010904//EN"
 "http://www.w3.org/TR/2001/REC-SVG-20010904/DTD/svg10.dtd">
<svg version="1.0" xmlns="http://www.w3.org/2000/svg"
 width="2551.000000pt" height="2701.000000pt" viewBox="0 0 2551.000000 2701.000000"
 preserveAspectRatio="xMidYMid meet">

<g transform="translate(0.000000,2701.000000) scale(0.100000,-0.100000)"
fill="#C5C3C1" stroke="none">
<path d="M22269 26983 c0 -5 0 -246 -1 -538 -1 -653 -13 -807 -94 -1148 -16
-68 -24 -120 -20 -141 7 -38 39 -72 78 -81 43 -11 43 -34 -1 -72 -40 -34 -40
-34 -21 -53 31 -31 24 -55 -35 -115 -30 -30 -55 -59 -55 -63 0 -11 39 -43 76
-62 37 -20 44 -62 15 -101 l-21 -28 40 -11 c47 -13 56 -46 15 -56 -36 -9 -95
-78 -95 -112 0 -16 9 -64 20 -107 24 -92 64 -319 80 -455 17 -138 23 -629 10
-799 -13 -166 -49 -399 -85 -543 -14 -56 -25 -113 -25 -127 0 -39 35 -89 67
-97 64 -15 68 -41 13 -79 l-41 -28 21 -22 c31 -32 26 -69 -12 -97 -42 -29 -77
-69 -78 -86 0 -8 9 -16 19 -19 11 -3 22 -11 25 -19 3 -8 12 -14 20 -14 22 0
46 -28 46 -54 0 -13 -9 -35 -21 -50 l-20 -26 26 -10 c14 -5 33 -10 41 -10 8 0
14 -10 14 -24 0 -19 -10 -29 -44 -46 -62 -29 -83 -76 -68 -145 107 -485 113
-549 111 -1368 -2 -698 2 -650 -61 -683 -28 -14 -29 -17 -14 -33 26 -28 20
-67 -13 -92 -16 -12 -28 -29 -27 -38 3 -14 25 -16 179 -19 l177 -2 0 26 c0 16
-11 37 -30 54 -35 32 -37 49 -11 81 l18 23 -41 20 -41 21 -3 660 c-2 440 1
702 8 785 14 153 52 381 86 515 14 55 23 110 19 122 -8 35 -53 81 -85 88 -45
10 -42 50 5 72 31 15 49 43 26 43 -18 0 -33 57 -21 79 6 12 14 21 18 21 14 0
82 67 82 82 0 17 -39 53 -69 63 -36 11 -45 51 -21 90 26 42 26 43 -12 53 -45
11 -51 48 -11 63 37 14 69 44 83 79 10 23 6 51 -19 162 -72 324 -91 503 -91
883 0 382 27 638 96 907 15 59 23 112 19 129 -9 38 -48 78 -85 85 -41 9 -39
35 7 72 36 28 37 31 22 49 -30 33 -32 60 -8 80 33 27 99 97 99 106 0 4 -24 23
-54 42 -29 19 -56 42 -60 51 -4 9 2 32 14 51 27 46 26 51 -15 59 -49 9 -45 33
11 66 30 19 50 40 61 65 15 36 14 44 -15 168 -81 340 -92 475 -92 1128 l0 537
-65 0 c-36 0 -65 -3 -66 -7z"/>
</g>
</svg>
