<?xml version="1.0" standalone="no"?>
<!DOCTYPE svg PUBLIC "-//W3C//DTD SVG 20010904//EN"
 "http://www.w3.org/TR/2001/REC-SVG-20010904/DTD/svg10.dtd">
<svg version="1.0" xmlns="http://www.w3.org/2000/svg"
 width="2551.000000pt" height="2701.000000pt" viewBox="0 0 2551.000000 2701.000000"
 preserveAspectRatio="xMidYMid meet">

<g transform="translate(0.000000,2701.000000) scale(0.100000,-0.100000)"
fill="#C5C3C1" stroke="none">
<path d="M5920 13544 l-55 -46 -6 -612 c-4 -497 -9 -632 -22 -726 -20 -134
-50 -292 -78 -404 -11 -44 -18 -90 -15 -102 9 -36 54 -82 86 -89 23 -5 30 -12
30 -31 0 -13 -4 -24 -9 -24 -4 0 -20 -9 -35 -21 l-26 -21 20 -25 c28 -36 25
-67 -7 -88 -34 -23 -72 -66 -73 -84 0 -14 45 -61 59 -61 15 0 41 -36 41 -57 0
-11 -9 -32 -20 -46 -21 -27 -14 -41 25 -49 11 -2 21 -13 23 -25 3 -17 -5 -25
-31 -36 -37 -16 -74 -57 -83 -93 -3 -12 6 -69 19 -126 78 -319 92 -456 92
-913 0 -462 -15 -606 -96 -929 -11 -44 -17 -91 -14 -106 8 -37 51 -80 87 -87
38 -8 36 -32 -7 -66 l-35 -28 20 -29 c25 -36 26 -67 0 -75 -25 -8 -80 -77 -80
-102 0 -21 29 -49 65 -63 36 -14 43 -55 16 -91 -26 -34 -22 -45 19 -54 42 -9
40 -40 -4 -59 -72 -30 -92 -96 -63 -211 30 -116 68 -331 82 -465 11 -103 15
-293 15 -813 l0 -678 -29 -16 c-43 -25 -56 -51 -37 -72 20 -22 21 -47 2 -58
-22 -14 -36 -50 -36 -97 l0 -46 150 0 149 0 16 30 c23 44 20 107 -5 115 -35
11 -42 40 -20 78 l21 35 -39 15 c-22 9 -42 23 -46 32 -10 28 -7 1256 4 1392
13 159 52 399 86 539 37 152 28 190 -53 226 -46 20 -56 43 -23 53 11 4 28 17
36 30 14 22 14 26 -6 53 -18 24 -20 33 -11 51 7 11 17 21 24 21 7 0 27 22 46
50 34 49 36 80 6 80 -8 0 -15 3 -15 8 0 4 -14 15 -30 24 -35 20 -40 54 -13 95
16 24 16 26 -2 39 -10 8 -25 14 -32 14 -27 0 -13 37 19 51 18 8 43 30 56 49
29 43 27 70 -16 265 -65 296 -80 471 -76 869 4 366 24 557 90 834 13 57 24
115 24 128 0 53 -40 97 -95 106 -30 5 -28 45 3 61 32 15 51 45 36 55 -23 15
-35 51 -24 72 6 11 15 20 19 20 16 0 81 74 81 93 0 10 -9 21 -20 24 -11 3 -20
12 -20 19 0 8 -9 14 -19 14 -44 0 -57 57 -24 105 19 28 17 33 -17 40 -16 4
-32 10 -35 15 -10 16 6 38 36 50 43 18 79 66 79 105 0 18 -11 80 -24 137 -82
346 -91 465 -91 1175 0 332 -2 603 -5 603 -3 0 -30 -21 -60 -46z"/>
</g>
</svg>
