<?xml version="1.0" standalone="no"?>
<!DOCTYPE svg PUBLIC "-//W3C//DTD SVG 20010904//EN"
 "http://www.w3.org/TR/2001/REC-SVG-20010904/DTD/svg10.dtd">
<svg version="1.0" xmlns="http://www.w3.org/2000/svg"
 width="2551.000000pt" height="2701.000000pt" viewBox="0 0 2551.000000 2701.000000"
 preserveAspectRatio="xMidYMid meet">

<g transform="translate(0.000000,2701.000000) scale(0.100000,-0.100000)"
fill="#C5C3C1" stroke="none">
<path d="M12970 19345 l-55 -45 -6 -613 c-6 -695 -12 -761 -99 -1129 -23 -96
-14 -140 33 -168 18 -11 40 -20 50 -20 12 0 17 -8 17 -30 0 -17 -5 -30 -12
-30 -7 0 -22 -7 -32 -15 -18 -13 -18 -16 -2 -39 9 -14 16 -35 16 -46 0 -27
-17 -60 -32 -60 -16 0 -58 -49 -58 -68 0 -10 14 -29 30 -42 55 -45 60 -51 60
-79 0 -16 -7 -34 -15 -41 -23 -19 -18 -36 15 -50 23 -10 30 -19 30 -40 0 -23
-5 -29 -30 -34 -37 -7 -76 -46 -83 -85 -4 -17 4 -71 18 -128 77 -304 99 -544
92 -993 -6 -392 -21 -529 -98 -847 -15 -63 -17 -88 -8 -110 15 -40 47 -71 80
-78 24 -5 29 -12 29 -36 0 -22 -5 -29 -19 -29 -32 0 -45 -26 -27 -52 25 -36
20 -75 -11 -95 -49 -31 -63 -47 -63 -68 1 -21 34 -63 66 -81 25 -15 30 -59 8
-91 -16 -25 -16 -27 2 -40 10 -7 24 -13 31 -13 8 0 13 -12 13 -29 0 -24 -5
-31 -29 -36 -16 -3 -38 -16 -50 -29 -37 -40 -40 -72 -15 -181 87 -374 94 -465
94 -1265 0 -377 -4 -690 -8 -695 -4 -6 -20 -17 -37 -25 -16 -8 -32 -16 -34
-17 -3 -2 6 -14 18 -27 27 -29 22 -59 -15 -82 -18 -12 -24 -25 -24 -53 0 -62
1 -62 166 -59 l149 3 -3 45 c-3 34 -9 50 -28 63 -29 22 -31 50 -5 76 18 18 18
20 3 34 -9 8 -27 20 -39 26 l-23 12 0 697 c0 554 3 724 15 827 17 144 46 310
76 427 10 42 19 93 19 113 0 47 -31 90 -75 106 -28 11 -35 18 -35 40 0 22 6
29 30 34 34 7 36 13 15 41 -25 33 -19 81 12 101 79 51 82 76 18 130 -50 41
-57 71 -28 112 15 23 15 25 -2 37 -10 8 -25 14 -32 14 -8 0 -13 12 -13 29 0
24 5 31 29 36 16 3 38 16 50 29 38 41 41 74 15 182 -77 315 -97 536 -91 994 5
413 17 516 100 866 22 94 -5 156 -75 171 -22 4 -28 11 -28 33 0 21 7 30 30 40
33 14 38 31 14 50 -22 19 -15 82 11 95 32 16 65 53 65 73 0 10 -14 29 -30 42
-55 45 -60 51 -60 78 0 15 7 38 17 51 15 23 15 25 -2 37 -10 8 -25 14 -32 14
-8 0 -13 12 -13 30 0 24 4 30 21 30 12 0 36 15 55 34 43 43 44 70 4 242 -71
311 -73 341 -79 1077 l-6 667 -55 -45z"/>
</g>
</svg>
