<?xml version="1.0" standalone="no"?>
<!DOCTYPE svg PUBLIC "-//W3C//DTD SVG 20010904//EN"
 "http://www.w3.org/TR/2001/REC-SVG-20010904/DTD/svg10.dtd">
<svg version="1.0" xmlns="http://www.w3.org/2000/svg"
 width="2551.000000pt" height="2701.000000pt" viewBox="0 0 2551.000000 2701.000000"
 preserveAspectRatio="xMidYMid meet">

<g transform="translate(0.000000,2701.000000) scale(0.100000,-0.100000)"
fill="#C5C3C1" stroke="none">
<path d="M14138 20306 l-57 -46 -4 -628 c-4 -686 -7 -723 -72 -1003 -39 -165
-42 -217 -16 -251 12 -15 37 -33 56 -39 29 -11 35 -18 35 -41 0 -16 -5 -28
-13 -28 -7 0 -22 -6 -32 -14 -17 -12 -17 -14 -2 -37 30 -41 22 -73 -28 -113
-50 -42 -60 -80 -24 -91 11 -4 18 -9 15 -13 -3 -3 8 -13 24 -23 23 -15 30 -26
30 -51 0 -17 -8 -40 -17 -51 -17 -18 -17 -19 2 -33 10 -8 25 -14 32 -14 8 0
13 -12 13 -28 0 -23 -6 -30 -35 -41 -47 -17 -75 -55 -75 -101 0 -21 11 -85 24
-142 69 -294 86 -465 86 -864 0 -399 -17 -590 -76 -839 -14 -60 -28 -136 -31
-167 -5 -55 -4 -59 30 -93 19 -19 44 -35 56 -35 17 0 21 -6 21 -30 0 -18 -5
-30 -13 -30 -7 0 -22 -6 -32 -14 -17 -12 -17 -14 -2 -37 27 -38 16 -109 -17
-109 -17 0 -56 -43 -56 -63 0 -9 20 -33 45 -54 50 -41 58 -74 29 -118 -16 -24
-15 -25 15 -42 23 -13 31 -25 31 -45 0 -19 -5 -28 -15 -28 -29 0 -71 -28 -83
-55 -18 -39 -15 -63 23 -234 73 -333 70 -257 70 -1621 l0 -1224 -38 -21 -37
-22 20 -23 c27 -31 25 -47 -8 -78 -27 -26 -29 -32 -23 -104 1 -16 16 -18 156
-18 l155 0 0 45 c0 36 -4 47 -25 61 -29 19 -33 58 -9 85 14 16 14 19 -13 35
-15 10 -34 24 -40 33 -17 20 -19 2245 -2 2421 13 147 52 375 85 510 25 100 26
107 11 143 -13 29 -27 43 -62 58 -40 18 -46 24 -43 47 2 19 10 28 26 30 31 5
38 26 18 54 -27 38 -19 62 34 108 28 24 50 48 50 55 0 7 -22 31 -50 55 -55 48
-62 72 -30 113 l20 25 -25 16 c-13 9 -29 16 -35 16 -5 0 -10 14 -10 30 0 22 5
30 18 30 30 0 78 36 92 70 11 26 11 41 1 83 -88 368 -104 502 -107 912 -3 440
11 598 82 917 21 93 32 166 28 182 -8 34 -52 76 -86 83 -23 4 -28 11 -28 34 0
17 5 29 13 29 7 0 23 7 35 16 l22 15 -22 30 c-17 23 -20 34 -12 56 5 14 18 31
28 37 26 14 65 58 66 72 0 6 -22 30 -50 54 -56 48 -62 72 -29 114 l21 26 -36
15 c-44 19 -51 59 -12 69 40 10 83 53 90 90 4 22 -1 65 -14 117 -25 99 -54
251 -77 409 -14 94 -18 232 -22 759 l-6 644 -57 -47z"/>
</g>
</svg>
