<?xml version="1.0" standalone="no"?>
<!DOCTYPE svg PUBLIC "-//W3C//DTD SVG 20010904//EN"
 "http://www.w3.org/TR/2001/REC-SVG-20010904/DTD/svg10.dtd">
<svg version="1.0" xmlns="http://www.w3.org/2000/svg"
 width="2550.000000pt" height="2700.000000pt" viewBox="0 0 2550.000000 2700.000000"
 preserveAspectRatio="xMidYMid meet">

<g transform="translate(0.000000,2700.000000) scale(0.100000,-0.100000)"
fill="#3a4548" stroke="none">
<path d="M1390 9622 c0 -3777 -1 -3980 -17 -3994 -10 -9 -31 -22 -47 -30 -18
-10 -25 -18 -17 -22 6 -4 11 -23 11 -42 0 -29 -6 -38 -35 -55 -27 -16 -35 -28
-35 -49 0 -27 3 -29 54 -35 91 -12 248 -8 301 7 46 13 50 17 53 46 3 26 -3 39
-27 61 -34 32 -38 48 -17 77 13 17 11 20 -27 39 l-42 20 -3 3978 -2 3977 -75
0 -75 0 0 -3978z"/>
</g>
</svg>
