<?xml version="1.0" standalone="no"?>
<!DOCTYPE svg PUBLIC "-//W3C//DTD SVG 20010904//EN"
 "http://www.w3.org/TR/2001/REC-SVG-20010904/DTD/svg10.dtd">
<svg version="1.0" xmlns="http://www.w3.org/2000/svg"
 width="2550.000000pt" height="2700.000000pt" viewBox="0 0 2550.000000 2700.000000"
 preserveAspectRatio="xMidYMid meet">

<g transform="translate(0.000000,2700.000000) scale(0.100000,-0.100000)"
fill="#3a4548" stroke="none">
<path d="M8190 13130 l0 -3212 -40 -15 c-38 -15 -39 -17 -24 -34 23 -25 14
-61 -19 -77 -23 -11 -28 -19 -25 -45 l3 -32 115 -3 c63 -1 140 1 170 5 55 8
55 8 58 46 2 28 -1 37 -12 37 -9 0 -23 11 -32 25 -15 24 -15 27 0 44 22 24 21
26 -24 46 l-40 18 -2 3201 -3 3201 -62 3 -63 3 0 -3211z"/>
</g>
</svg>
