<?xml version="1.0" standalone="no"?>
<!DOCTYPE svg PUBLIC "-//W3C//DTD SVG 20010904//EN"
 "http://www.w3.org/TR/2001/REC-SVG-20010904/DTD/svg10.dtd">
<svg version="1.0" xmlns="http://www.w3.org/2000/svg"
 width="2550.000000pt" height="2700.000000pt" viewBox="0 0 2550.000000 2700.000000"
 preserveAspectRatio="xMidYMid meet">

<g transform="translate(0.000000,2700.000000) scale(0.100000,-0.100000)"
fill="#3a4548" stroke="none">
<path d="M6424 16461 c-2 -2 -4 -1529 -4 -3392 l0 -3389 -40 -20 c-37 -19 -53
-40 -31 -40 5 0 13 -9 16 -21 7 -22 -27 -69 -50 -69 -7 0 -9 -13 -7 -34 l4
-34 109 -7 c59 -3 116 -4 126 -1 10 3 40 8 68 11 55 6 62 10 67 44 2 18 -4 28
-27 41 -35 19 -44 54 -19 81 16 18 15 19 -12 29 -16 5 -36 14 -44 19 -13 7
-15 397 -18 3394 l-2 3385 -66 4 c-36 1 -68 1 -70 -1z"/>
</g>
</svg>
