<?xml version="1.0" standalone="no"?>
<!DOCTYPE svg PUBLIC "-//W3C//DTD SVG 20010904//EN"
 "http://www.w3.org/TR/2001/REC-SVG-20010904/DTD/svg10.dtd">
<svg version="1.0" xmlns="http://www.w3.org/2000/svg"
 width="2550.000000pt" height="2700.000000pt" viewBox="0 0 2550.000000 2700.000000"
 preserveAspectRatio="xMidYMid meet">

<g transform="translate(0.000000,2700.000000) scale(0.100000,-0.100000)"
fill="#3a4548" stroke="none">
<path d="M7629 16348 c0 -18 -1 -1482 -1 -3252 0 -1770 -3 -3228 -6 -3239 -3
-10 -22 -27 -44 -37 -33 -15 -36 -19 -23 -30 26 -21 18 -59 -15 -78 -21 -12
-30 -25 -30 -44 0 -24 5 -27 43 -33 23 -3 76 -7 117 -8 67 -1 93 2 178 19 34
7 31 59 -5 76 -33 16 -42 52 -19 77 15 17 14 19 -24 34 l-40 15 0 3260 0 3260
-22 6 c-13 3 -42 6 -65 6 -42 0 -43 -1 -44 -32z"/>
</g>
</svg>
