<?xml version="1.0" standalone="no"?>
<!DOCTYPE svg PUBLIC "-//W3C//DTD SVG 20010904//EN"
 "http://www.w3.org/TR/2001/REC-SVG-20010904/DTD/svg10.dtd">
<svg version="1.0" xmlns="http://www.w3.org/2000/svg"
 width="2550.000000pt" height="2700.000000pt" viewBox="0 0 2550.000000 2700.000000"
 preserveAspectRatio="xMidYMid meet">

<g transform="translate(0.000000,2700.000000) scale(0.100000,-0.100000)"
fill="#3a4548" stroke="none">
<path d="M14290 9226 c0 -2543 -3 -4632 -6 -4641 -4 -9 -24 -25 -45 -35 l-38
-20 17 -30 c15 -27 16 -32 2 -56 -8 -15 -24 -32 -35 -38 -29 -16 -31 -22 -27
-59 4 -33 5 -34 55 -36 29 -1 89 -6 133 -11 89 -10 104 -8 182 23 52 20 52 21
52 64 0 29 -4 43 -13 43 -8 0 -24 11 -36 24 -18 19 -21 31 -16 55 4 17 11 34
17 37 6 4 -9 16 -33 28 l-44 21 -3 4628 -2 4627 -80 0 -80 0 0 -4624z"/>
<path d="M14600 10969 c0 -5 5 -7 10 -4 6 3 10 8 10 11 0 2 -4 4 -10 4 -5 0
-10 -5 -10 -11z"/>
<path d="M14583 10863 c-16 -11 -23 -25 -23 -50 0 -32 2 -34 28 -31 25 3 27 7
30 51 3 51 -1 54 -35 30z"/>
</g>
</svg>
