<?xml version="1.0" standalone="no"?>
<!DOCTYPE svg PUBLIC "-//W3C//DTD SVG 20010904//EN"
 "http://www.w3.org/TR/2001/REC-SVG-20010904/DTD/svg10.dtd">
<svg version="1.0" xmlns="http://www.w3.org/2000/svg"
 width="2550.000000pt" height="2700.000000pt" viewBox="0 0 2550.000000 2700.000000"
 preserveAspectRatio="xMidYMid meet">

<g transform="translate(0.000000,2700.000000) scale(0.100000,-0.100000)"
fill="#3a4548" stroke="none">
<path d="M23288 26336 l-68 -62 0 -3788 c0 -2451 -3 -3794 -10 -3806 -5 -10
-23 -23 -39 -28 -30 -10 -30 -11 -15 -40 18 -38 5 -77 -31 -94 -53 -24 -18
-31 150 -29 93 1 173 5 177 7 5 3 -1 17 -12 31 -24 31 -26 60 -5 83 14 16 13
18 -14 30 -17 7 -36 19 -43 28 -11 12 -14 754 -18 3872 l-5 3857 -67 -61z"/>
</g>
</svg>
