<?xml version="1.0" standalone="no"?>
<!DOCTYPE svg PUBLIC "-//W3C//DTD SVG 20010904//EN"
 "http://www.w3.org/TR/2001/REC-SVG-20010904/DTD/svg10.dtd">
<svg version="1.0" xmlns="http://www.w3.org/2000/svg"
 width="2550.000000pt" height="2700.000000pt" viewBox="0 0 2550.000000 2700.000000"
 preserveAspectRatio="xMidYMid meet">

<g transform="translate(0.000000,2700.000000) scale(0.100000,-0.100000)"
fill="#3a4548" stroke="none">
<path d="M13139 13778 c-24 -40 -55 -95 -71 -121 l-28 -48 0 -4347 c0 -3796
-2 -4350 -15 -4368 -8 -12 -28 -27 -44 -34 -29 -12 -29 -13 -15 -36 24 -36 10
-82 -32 -102 -30 -14 -35 -20 -32 -47 l3 -30 140 -13 c134 -12 142 -11 205 9
72 24 80 31 80 71 0 20 -8 31 -29 42 -16 9 -31 23 -35 31 -9 25 -7 63 4 70 19
11 10 23 -24 35 -19 6 -36 16 -38 22 -3 8 -11 7 -27 -1 -12 -7 -27 -10 -34 -8
-7 3 0 10 16 16 l27 11 0 4460 c0 2453 -2 4460 -5 4460 -2 0 -23 -33 -46 -72z"/>
</g>
</svg>
