<?xml version="1.0" standalone="no"?>
<!DOCTYPE svg PUBLIC "-//W3C//DTD SVG 20010904//EN"
 "http://www.w3.org/TR/2001/REC-SVG-20010904/DTD/svg10.dtd">
<svg version="1.0" xmlns="http://www.w3.org/2000/svg"
 width="2550.000000pt" height="2700.000000pt" viewBox="0 0 2550.000000 2700.000000"
 preserveAspectRatio="xMidYMid meet">

<g transform="translate(0.000000,2700.000000) scale(0.100000,-0.100000)"
fill="#3a4548" stroke="none">
<path d="M13691 14079 l-71 -121 0 -3463 0 -3464 -26 -20 c-14 -11 -34 -23
-45 -26 -17 -6 -18 -8 -3 -31 23 -34 11 -71 -31 -96 -25 -14 -35 -27 -35 -44
0 -33 23 -40 162 -47 91 -4 131 -2 185 12 68 17 68 17 71 54 3 32 0 38 -22 47
-41 15 -62 80 -34 108 9 9 4 14 -20 23 -18 6 -37 19 -42 29 -7 12 -10 1268
-10 3589 0 1964 -2 3571 -4 3571 -2 0 -36 -54 -75 -121z"/>
</g>
</svg>
