<?xml version="1.0" standalone="no"?>
<!DOCTYPE svg PUBLIC "-//W3C//DTD SVG 20010904//EN"
 "http://www.w3.org/TR/2001/REC-SVG-20010904/DTD/svg10.dtd">
<svg version="1.0" xmlns="http://www.w3.org/2000/svg"
 width="2550.000000pt" height="2700.000000pt" viewBox="0 0 2550.000000 2700.000000"
 preserveAspectRatio="xMidYMid meet">

<g transform="translate(0.000000,2700.000000) scale(0.100000,-0.100000)"
fill="#3a4548" stroke="none">
<path d="M14248 15053 c-30 -48 -61 -98 -67 -110 -8 -17 -11 -941 -11 -3650 1
-1995 1 -3737 0 -3871 l0 -242 -32 -20 c-18 -11 -37 -22 -43 -24 -6 -2 -5 -9
3 -17 6 -7 12 -28 12 -46 0 -28 -6 -37 -35 -54 -27 -16 -35 -28 -35 -49 0 -28
1 -28 78 -34 141 -11 196 -10 260 4 l62 14 0 36 c0 29 -6 41 -30 58 -23 17
-30 31 -30 55 0 18 5 38 11 44 9 9 5 14 -14 18 -14 4 -33 15 -43 26 -16 18
-17 235 -15 3963 1 2168 -2 3953 -7 3966 -7 20 -14 13 -64 -67z"/>
</g>
</svg>
