<?xml version="1.0" standalone="no"?>
<!DOCTYPE svg PUBLIC "-//W3C//DTD SVG 20010904//EN"
 "http://www.w3.org/TR/2001/REC-SVG-20010904/DTD/svg10.dtd">
<svg version="1.0" xmlns="http://www.w3.org/2000/svg"
 width="2550.000000pt" height="2700.000000pt" viewBox="0 0 2550.000000 2700.000000"
 preserveAspectRatio="xMidYMid meet">

<g transform="translate(0.000000,2700.000000) scale(0.100000,-0.100000)"
fill="#3a4548" stroke="none">
<path d="M15737 19112 l-49 -49 0 -4029 -1 -4028 -22 -20 c-11 -12 -29 -26
-40 -31 -15 -9 -16 -14 -6 -34 18 -32 6 -68 -29 -86 -25 -13 -30 -22 -30 -50
l0 -35 63 -1 c34 0 91 -3 127 -5 63 -5 196 11 204 24 11 19 -9 64 -34 77 -35
18 -46 59 -26 90 15 23 14 24 -19 35 -19 6 -36 12 -37 13 -2 1 -5 1840 -8
4087 -5 4076 -5 4085 -25 4088 -13 2 -37 -14 -68 -46z"/>
</g>
</svg>
