<?xml version="1.0" standalone="no"?>
<!DOCTYPE svg PUBLIC "-//W3C//DTD SVG 20010904//EN"
 "http://www.w3.org/TR/2001/REC-SVG-20010904/DTD/svg10.dtd">
<svg version="1.0" xmlns="http://www.w3.org/2000/svg"
 width="2550.000000pt" height="2700.000000pt" viewBox="0 0 2550.000000 2700.000000"
 preserveAspectRatio="xMidYMid meet">

<g transform="translate(0.000000,2700.000000) scale(0.100000,-0.100000)"
fill="#3a4548" stroke="none">
<path d="M17797 21082 l-47 -48 0 -4086 c0 -3016 -3 -4094 -11 -4112 -7 -13
-25 -30 -41 -37 -21 -8 -27 -16 -22 -28 14 -35 15 -48 4 -75 -5 -15 -19 -30
-30 -33 -21 -6 -28 -26 -22 -60 4 -22 9 -23 106 -25 175 -2 270 3 278 15 18
27 7 55 -27 76 -31 18 -35 25 -35 60 0 22 5 43 11 47 6 4 -5 15 -27 28 l-39
22 -2 4139 c-3 3878 -4 4141 -20 4153 -24 17 -24 17 -76 -36z"/>
</g>
</svg>
