<?xml version="1.0" standalone="no"?>
<!DOCTYPE svg PUBLIC "-//W3C//DTD SVG 20010904//EN"
 "http://www.w3.org/TR/2001/REC-SVG-20010904/DTD/svg10.dtd">
<svg version="1.0" xmlns="http://www.w3.org/2000/svg"
 width="3542.000000pt" height="3750.000000pt" viewBox="0 0 3542.000000 3750.000000"
 preserveAspectRatio="xMidYMid meet">

<g transform="translate(0.000000,3750.000000) scale(0.100000,-0.100000)"
fill="#C5C3C1" stroke="none">
<path d="M667 16243 c-3 -2207 -3 -2208 -24 -2373 -12 -91 -32 -218 -43 -284
-18 -105 -30 -165 -72 -363 -6 -28 -7 -68 -4 -88 9 -49 58 -101 104 -112 35
-8 37 -11 40 -51 3 -41 2 -42 -27 -42 -16 0 -33 -4 -36 -10 -3 -5 -15 -10 -25
-10 -33 0 -33 -21 -2 -53 49 -51 51 -80 9 -122 -22 -22 -45 -35 -61 -35 -19 0
-26 -5 -26 -20 0 -15 -7 -20 -24 -20 -14 0 -32 -9 -40 -22 -19 -27 -5 -56 35
-71 16 -6 29 -17 29 -23 0 -6 13 -14 29 -17 16 -3 41 -17 57 -30 37 -33 36
-74 -4 -124 l-31 -40 38 -16 c21 -9 44 -17 52 -17 25 0 35 -18 31 -55 -4 -30
-10 -38 -47 -54 -28 -13 -53 -34 -71 -61 -35 -53 -37 -109 -6 -230 42 -169 89
-468 112 -720 15 -162 17 -4399 2 -4427 -6 -11 -38 -30 -72 -43 -33 -12 -60
-24 -60 -26 0 -2 11 -14 25 -28 49 -49 23 -124 -48 -141 -26 -7 -27 -10 -27
-66 l0 -58 67 -21 c92 -29 103 -32 143 -37 29 -3 387 50 395 59 9 10 11 118 3
118 -25 0 -76 33 -87 56 -17 38 -14 53 19 86 17 17 30 31 28 33 -2 1 -29 12
-60 24 -31 13 -64 34 -73 47 -14 21 -15 240 -14 2141 1 2103 2 2204 33 2483 7
60 32 226 46 305 5 28 12 66 15 85 3 19 17 88 30 154 14 65 25 132 25 148 0
61 -53 122 -116 134 -33 6 -34 8 -34 50 0 42 1 44 29 44 17 0 33 5 36 10 3 6
15 10 25 10 32 0 33 20 3 53 -57 62 -31 137 53 153 20 4 34 12 34 21 0 8 13
19 30 24 51 18 51 75 -1 86 -20 4 -29 12 -29 24 0 13 -7 19 -21 19 -33 0 -88
39 -95 66 -8 32 12 80 44 105 33 26 25 31 -96 65 -7 2 -12 19 -12 39 0 33 4
37 43 54 52 23 94 70 103 116 8 46 2 94 -34 260 -34 159 -65 353 -89 565 -15
131 -17 360 -20 2313 l-4 2167 -114 0 -115 0 -3 -2207z"/>
</g>
</svg>
