<?xml version="1.0" standalone="no"?>
<!DOCTYPE svg PUBLIC "-//W3C//DTD SVG 20010904//EN"
 "http://www.w3.org/TR/2001/REC-SVG-20010904/DTD/svg10.dtd">
<svg version="1.0" xmlns="http://www.w3.org/2000/svg"
 width="3542.000000pt" height="3750.000000pt" viewBox="0 0 3542.000000 3750.000000"
 preserveAspectRatio="xMidYMid meet">

<g transform="translate(0.000000,3750.000000) scale(0.100000,-0.100000)"
fill="#C5C3C1" stroke="none">
<path d="M20123 18712 l-33 -3 0 -382 c0 -210 -1 -953 -3 -1652 -4 -1360 -4
-1352 -58 -1718 -33 -225 -33 -230 -14 -271 11 -22 27 -39 41 -42 39 -10 45
-74 8 -74 -8 0 -29 -7 -45 -16 l-30 -15 25 -26 c46 -46 28 -102 -36 -118 -16
-4 -28 -11 -28 -16 0 -5 -11 -14 -25 -19 -14 -5 -25 -14 -25 -19 0 -21 13 -41
26 -41 8 0 17 -6 20 -14 3 -8 17 -17 32 -21 65 -16 81 -69 35 -117 -25 -26
-25 -28 -7 -34 76 -27 84 -33 82 -60 -2 -17 -11 -30 -26 -37 -28 -13 -62 -75
-62 -114 0 -15 9 -80 19 -143 29 -171 51 -383 59 -548 4 -81 9 -850 11 -1710
2 -1210 0 -1566 -10 -1578 -6 -8 -32 -23 -57 -34 l-45 -20 21 -21 c12 -11 22
-28 22 -37 0 -27 -27 -59 -55 -66 -22 -6 -25 -12 -25 -50 l0 -43 121 -18 c115
-17 125 -17 230 0 l109 18 0 43 c0 30 -4 44 -14 44 -21 0 -66 47 -66 70 0 11
9 28 20 37 27 23 26 27 -15 42 -20 7 -44 22 -55 33 -19 21 -19 50 -15 1662 3
903 7 1659 9 1681 3 22 8 76 11 120 8 110 33 313 50 415 8 47 15 100 15 118 0
44 -25 91 -55 102 -19 7 -25 17 -25 40 0 16 4 30 9 30 5 0 25 7 46 16 l37 15
-26 28 c-45 47 -28 100 37 116 15 4 27 11 27 16 0 5 11 14 25 19 31 12 33 45
3 61 -12 6 -27 16 -32 21 -6 5 -27 17 -46 26 -47 23 -53 63 -15 102 l27 28
-30 16 c-17 9 -38 16 -47 16 -11 0 -15 10 -15 35 0 24 5 35 14 35 21 0 55 47
62 88 4 21 -2 91 -14 171 -12 75 -26 179 -32 231 -6 52 -14 109 -17 125 -3 17
-9 802 -12 1745 l-6 1715 -50 0 c-27 0 -65 -1 -82 -3z"/>
</g>
</svg>
