<?xml version="1.0" standalone="no"?>
<!DOCTYPE svg PUBLIC "-//W3C//DTD SVG 20010904//EN"
 "http://www.w3.org/TR/2001/REC-SVG-20010904/DTD/svg10.dtd">
<svg version="1.0" xmlns="http://www.w3.org/2000/svg"
 width="3542.000000pt" height="3750.000000pt" viewBox="0 0 3542.000000 3750.000000"
 preserveAspectRatio="xMidYMid meet">

<g transform="translate(0.000000,3750.000000) scale(0.100000,-0.100000)"
fill="#C5C3C1" stroke="none">
<path d="M27499 18688 c-1 -7 -2 -764 -4 -1683 -2 -1472 -4 -1687 -18 -1812
-19 -163 -50 -366 -72 -468 -8 -38 -15 -83 -15 -100 0 -41 33 -91 76 -117 28
-16 34 -26 30 -42 -3 -12 -6 -24 -6 -27 0 -4 -15 -10 -32 -13 -60 -11 -66 -21
-35 -54 42 -44 35 -81 -20 -107 -23 -11 -42 -26 -43 -32 0 -7 -9 -13 -20 -13
-29 0 -44 -34 -24 -54 8 -9 22 -16 30 -16 8 0 14 -7 14 -15 0 -8 8 -15 19 -15
29 0 71 -39 71 -65 0 -13 -11 -37 -25 -54 l-26 -30 30 -16 c17 -8 37 -15 46
-15 8 0 16 -4 16 -10 5 -48 3 -54 -29 -62 -71 -19 -82 -79 -48 -254 27 -140
49 -301 66 -479 12 -128 26 -3234 15 -3393 l-7 -104 -46 -19 c-59 -25 -57 -24
-33 -48 12 -12 21 -29 21 -40 0 -21 -46 -71 -66 -71 -10 0 -14 -14 -14 -45 0
-25 2 -45 4 -45 2 0 65 -9 139 -20 124 -19 140 -19 199 -5 61 14 104 23 121
24 4 1 7 21 7 46 0 31 -4 45 -14 45 -7 0 -25 9 -40 21 -32 25 -34 64 -6 94
l21 22 -45 17 c-48 19 -60 42 -50 95 4 20 2 31 -5 31 -15 0 -16 3135 -1 3331
13 163 53 449 81 573 17 77 18 97 8 134 -12 43 -57 92 -85 92 -9 0 -14 11 -14
35 0 23 5 35 14 35 7 0 31 7 52 16 38 16 38 16 17 32 -28 23 -44 57 -37 79 9
24 45 52 66 53 9 0 21 6 25 13 4 6 17 17 28 23 31 17 32 52 1 60 -14 3 -26 12
-26 20 0 8 -9 14 -21 14 -21 0 -79 50 -79 68 0 5 11 26 25 46 14 21 23 42 20
47 -4 5 -24 12 -46 15 -36 6 -39 9 -39 40 0 27 4 34 19 34 30 0 70 39 81 80 8
31 6 64 -14 167 -84 440 -79 315 -83 2241 l-4 1712 -84 0 c-61 0 -85 -4 -86
-12z"/>
</g>
</svg>
