<?xml version="1.0" standalone="no"?>
<!DOCTYPE svg PUBLIC "-//W3C//DTD SVG 20010904//EN"
 "http://www.w3.org/TR/2001/REC-SVG-20010904/DTD/svg10.dtd">
<svg version="1.0" xmlns="http://www.w3.org/2000/svg"
 width="3542.000000pt" height="3750.000000pt" viewBox="0 0 3542.000000 3750.000000"
 preserveAspectRatio="xMidYMid meet">

<g transform="translate(0.000000,3750.000000) scale(0.100000,-0.100000)"
fill="#C5C3C1" stroke="none">
<path d="M29677 16888 c-4 -2009 2 -1841 -84 -2282 -21 -108 -23 -136 -14
-167 12 -38 61 -89 87 -89 9 0 14 -11 14 -33 0 -31 -4 -34 -50 -51 l-50 -18
30 -34 c47 -54 37 -91 -30 -118 -22 -9 -40 -19 -40 -24 0 -4 -10 -12 -22 -17
-34 -15 -36 -53 -4 -61 14 -3 26 -12 26 -19 0 -7 12 -16 28 -20 37 -9 72 -44
72 -71 0 -12 -14 -36 -30 -53 l-31 -30 37 -16 c20 -8 43 -15 50 -15 9 0 14
-12 14 -35 0 -27 -4 -35 -19 -35 -30 0 -70 -38 -82 -79 -9 -31 -7 -59 14 -167
35 -174 64 -382 77 -539 12 -154 21 -3587 10 -3580 -5 3 -31 -6 -59 -19 -45
-21 -49 -25 -35 -37 43 -35 30 -96 -26 -119 -27 -11 -30 -17 -30 -56 0 -24 3
-44 8 -44 4 0 70 -9 147 -21 130 -19 145 -19 205 -5 36 8 80 18 98 21 30 6 32
9 32 51 0 40 -3 45 -34 58 -58 24 -67 65 -25 112 19 20 18 20 -31 38 -44 16
-50 22 -57 54 -10 44 -9 3284 0 3463 10 183 41 413 87 632 27 133 12 190 -60
227 -32 16 -39 25 -36 43 3 12 5 25 5 30 1 4 7 7 14 7 15 0 77 29 77 35 0 2
-11 15 -25 29 -43 43 -29 97 30 116 19 6 35 15 35 20 0 5 12 15 28 22 34 16
35 48 3 64 -13 7 -26 16 -30 21 -3 4 -23 16 -43 25 -45 21 -56 53 -34 97 9 17
21 31 26 31 6 0 10 5 10 10 0 12 -53 35 -92 39 -3 1 -5 15 -4 33 2 26 8 33 30
39 39 11 64 36 77 79 9 29 7 56 -11 141 -33 157 -57 316 -76 499 -16 150 -18
322 -18 1887 l-1 1723 -92 0 -92 0 -4 -1792z"/>
</g>
</svg>
