<?xml version="1.0" standalone="no"?>
<!DOCTYPE svg PUBLIC "-//W3C//DTD SVG 20010904//EN"
 "http://www.w3.org/TR/2001/REC-SVG-20010904/DTD/svg10.dtd">
<svg version="1.0" xmlns="http://www.w3.org/2000/svg"
 width="3542.000000pt" height="3750.000000pt" viewBox="0 0 3542.000000 3750.000000"
 preserveAspectRatio="xMidYMid meet">

<g transform="translate(0.000000,3750.000000) scale(0.100000,-0.100000)"
fill="#C5C3C1" stroke="none">
<path d="M7599 18388 c0 -84 -1 -972 -3 -1973 -2 -1615 -4 -1837 -19 -1975
-27 -252 -56 -441 -94 -618 -26 -124 0 -201 75 -222 34 -9 38 -13 38 -45 0
-33 -2 -35 -53 -50 -28 -8 -54 -19 -57 -24 -3 -4 8 -21 24 -36 54 -52 31 -122
-47 -141 -12 -4 -23 -10 -23 -15 0 -4 -16 -16 -35 -25 -20 -9 -35 -24 -35 -34
0 -21 31 -50 53 -50 9 0 17 -6 17 -14 0 -8 12 -17 28 -21 38 -9 72 -44 72 -75
0 -26 -23 -66 -49 -86 -11 -9 -8 -13 20 -24 19 -8 45 -16 59 -19 22 -5 25 -12
25 -46 0 -34 -3 -40 -22 -43 -31 -4 -91 -77 -99 -119 -4 -21 7 -102 30 -221
41 -210 70 -436 86 -654 6 -93 10 -841 10 -2054 l0 -1907 -26 -23 c-14 -13
-29 -24 -33 -24 -5 0 -25 -7 -46 -16 -37 -15 -37 -15 -16 -31 54 -38 44 -101
-21 -130 -37 -16 -38 -18 -38 -69 l0 -52 93 -21 c144 -33 143 -33 307 -4 l155
28 3 52 c3 48 1 53 -22 59 -34 8 -68 48 -68 80 0 17 9 36 25 50 l26 22 -58 26
c-31 14 -63 36 -70 48 -9 18 -11 460 -8 2018 3 1798 5 2009 20 2135 35 289 40
319 88 572 28 145 8 212 -72 233 -39 11 -40 13 -37 48 2 30 8 38 28 43 14 3
40 11 59 19 l34 13 -27 22 c-38 31 -46 88 -16 120 12 13 33 26 46 29 14 4 32
13 42 22 9 8 28 23 41 33 31 22 21 55 -19 70 -17 5 -30 14 -30 20 0 5 -16 15
-35 21 -69 23 -86 88 -35 139 34 33 32 36 -38 61 -24 8 -43 18 -43 23 1 4 1
20 1 36 0 22 6 30 24 35 34 8 84 69 92 112 4 23 -3 84 -20 172 -56 297 -79
476 -95 757 -6 99 -10 939 -10 2025 0 1020 0 1858 -1 1863 0 4 -45 7 -100 7
l-100 0 -1 -152z"/>
</g>
</svg>
