<?xml version="1.0" standalone="no"?>
<!DOCTYPE svg PUBLIC "-//W3C//DTD SVG 20010904//EN"
 "http://www.w3.org/TR/2001/REC-SVG-20010904/DTD/svg10.dtd">
<svg version="1.0" xmlns="http://www.w3.org/2000/svg"
 width="3542.000000pt" height="3750.000000pt" viewBox="0 0 3542.000000 3750.000000"
 preserveAspectRatio="xMidYMid meet">

<g transform="translate(0.000000,3750.000000) scale(0.100000,-0.100000)"
fill="#C5C3C1" stroke="none">
<path d="M8840 18438 c-1 -68 -1 -899 -1 -1848 0 -1561 -3 -1879 -25 -2090
-15 -151 -38 -313 -69 -481 -37 -203 -36 -241 6 -285 13 -14 37 -28 53 -32 30
-8 31 -11 27 -67 0 -8 -9 -15 -19 -15 -21 0 -82 -28 -82 -38 0 -3 11 -17 24
-31 27 -29 34 -55 22 -89 -8 -23 -53 -52 -81 -52 -8 0 -15 -7 -15 -15 0 -8 -8
-15 -18 -15 -11 0 -27 -9 -36 -19 -22 -24 -8 -56 29 -65 14 -4 25 -13 25 -21
0 -8 8 -15 18 -15 30 0 79 -37 84 -64 5 -25 -19 -77 -41 -90 -22 -14 -10 -25
44 -42 53 -17 55 -19 55 -54 0 -32 -4 -37 -35 -49 -46 -16 -85 -81 -85 -142 0
-24 9 -89 21 -144 25 -127 55 -321 76 -500 15 -125 17 -354 20 -2109 4 -1955
4 -1968 -16 -1985 -11 -10 -39 -26 -63 -36 -56 -25 -55 -23 -31 -40 50 -35 33
-104 -33 -131 -32 -14 -34 -17 -34 -64 0 -28 2 -50 4 -50 3 0 56 -11 118 -25
l114 -24 150 24 c82 14 152 25 157 25 4 0 7 24 7 54 0 49 -2 54 -25 60 -32 8
-65 44 -65 72 0 12 11 35 24 51 l25 29 -50 20 c-28 10 -57 26 -65 35 -13 14
-14 273 -11 2010 1 1097 5 2003 9 2014 3 11 9 56 12 100 11 122 44 346 72 490
15 72 24 146 21 167 -7 54 -41 96 -82 104 -33 6 -35 9 -35 44 0 36 1 38 55 55
55 17 68 31 40 42 -18 6 -45 54 -45 78 0 26 55 75 84 75 16 0 26 6 26 14 0 8
14 19 30 25 23 8 30 16 30 36 0 20 -7 29 -30 38 -16 6 -30 17 -30 24 0 7 -8
13 -17 13 -30 0 -82 38 -89 64 -6 27 17 80 42 94 20 11 10 32 -16 32 -10 0
-22 5 -25 10 -3 6 -17 10 -31 10 -21 0 -24 4 -24 40 0 28 4 40 15 40 22 0 81
56 95 90 15 37 10 90 -24 270 -32 164 -51 311 -71 535 -13 143 -15 471 -15
2068 l0 1897 -100 0 -100 0 0 -122z"/>
</g>
</svg>
