<?xml version="1.0" standalone="no"?>
<!DOCTYPE svg PUBLIC "-//W3C//DTD SVG 20010904//EN"
 "http://www.w3.org/TR/2001/REC-SVG-20010904/DTD/svg10.dtd">
<svg version="1.0" xmlns="http://www.w3.org/2000/svg"
 width="3542.000000pt" height="3750.000000pt" viewBox="0 0 3542.000000 3750.000000"
 preserveAspectRatio="xMidYMid meet">

<g transform="translate(0.000000,3750.000000) scale(0.100000,-0.100000)"
fill="#C5C3C1" stroke="none">
<path d="M11187 16673 c-3 -1732 -5 -1931 -20 -2057 -23 -188 -45 -332 -68
-451 -33 -174 -20 -240 55 -265 32 -10 36 -15 36 -46 0 -29 -3 -34 -24 -34
-14 0 -28 -4 -31 -10 -3 -5 -15 -10 -25 -10 -32 0 -32 -17 0 -48 39 -39 40
-82 4 -111 -15 -12 -33 -21 -40 -21 -8 0 -22 -9 -31 -20 -10 -11 -25 -20 -34
-20 -17 0 -29 -19 -29 -46 0 -8 14 -20 30 -25 17 -6 30 -17 30 -24 0 -7 13
-15 30 -18 38 -8 70 -40 70 -72 0 -13 -14 -40 -31 -59 l-30 -35 37 -16 c20 -8
45 -15 55 -15 15 0 19 -7 19 -37 0 -33 -5 -40 -32 -53 -75 -36 -91 -103 -59
-260 36 -185 56 -323 76 -534 13 -135 15 -444 15 -2027 0 -1027 -3 -1875 -6
-1884 -4 -9 -32 -27 -62 -41 l-55 -24 21 -23 c32 -34 29 -81 -7 -106 -16 -12
-35 -21 -43 -21 -11 0 -14 -13 -13 -50 1 -27 3 -51 6 -53 2 -2 56 -14 119 -26
l115 -22 120 21 c181 31 165 23 165 78 0 45 -2 49 -32 63 -46 20 -64 59 -44
98 9 16 21 31 28 34 7 3 -12 16 -43 30 -31 14 -59 33 -63 43 -11 29 -7 3718 4
3860 14 179 31 328 50 434 5 30 12 71 15 90 3 19 13 72 22 117 9 49 13 97 9
119 -9 43 -55 94 -85 94 -18 0 -21 6 -21 40 0 32 4 40 18 40 10 0 35 8 54 18
l36 17 -29 29 c-40 40 -40 87 0 115 16 12 36 21 45 21 8 0 19 6 23 13 4 7 20
20 36 30 15 10 27 24 27 32 0 8 -12 22 -27 32 -16 10 -32 23 -36 30 -4 7 -16
13 -26 13 -10 0 -30 9 -45 21 -35 28 -36 77 -1 109 14 13 25 27 25 32 0 11
-53 34 -85 37 -10 1 -15 12 -15 34 0 28 7 38 38 58 80 52 84 88 37 343 -28
159 -51 338 -61 476 -3 52 -8 104 -9 115 -2 11 -4 858 -4 1883 l-1 1862 -100
0 -99 0 -4 -1917z"/>
</g>
</svg>
