<?xml version="1.0" standalone="no"?>
<!DOCTYPE svg PUBLIC "-//W3C//DTD SVG 20010904//EN"
 "http://www.w3.org/TR/2001/REC-SVG-20010904/DTD/svg10.dtd">
<svg version="1.0" xmlns="http://www.w3.org/2000/svg"
 width="3542.000000pt" height="3750.000000pt" viewBox="0 0 3542.000000 3750.000000"
 preserveAspectRatio="xMidYMid meet">

<g transform="translate(0.000000,3750.000000) scale(0.100000,-0.100000)"
fill="#C5C3C1" stroke="none">
<path d="M15441 17712 c0 -1052 -6 -1178 -72 -1552 -33 -188 -27 -231 40 -268
33 -19 37 -25 33 -52 -2 -16 -10 -30 -17 -30 -7 0 -29 -7 -49 -15 l-37 -16 31
-30 c17 -17 30 -41 30 -55 0 -31 -32 -63 -70 -71 -17 -3 -30 -12 -30 -19 0 -8
-6 -14 -14 -14 -8 0 -22 -7 -30 -16 -20 -20 -5 -54 24 -54 11 0 20 -6 20 -14
0 -8 13 -17 30 -21 33 -7 70 -47 70 -76 0 -9 -12 -32 -27 -49 -29 -36 -24 -45
34 -56 33 -6 45 -28 36 -64 -3 -11 -11 -20 -17 -20 -7 0 -25 -13 -41 -30 -37
-38 -44 -113 -21 -226 58 -296 76 -537 76 -1044 1 -498 -17 -745 -75 -1054
-23 -120 -20 -178 10 -215 14 -16 36 -31 48 -33 18 -2 22 -10 22 -37 0 -32 -3
-35 -47 -48 -27 -7 -48 -16 -48 -19 0 -4 11 -19 25 -36 14 -16 25 -40 25 -52
0 -27 -35 -62 -72 -71 -16 -4 -28 -13 -28 -20 0 -8 -10 -15 -22 -17 -17 -2
-24 -11 -26 -30 -3 -22 2 -29 22 -34 14 -3 26 -10 26 -15 0 -5 18 -16 40 -25
65 -26 79 -76 35 -120 -14 -14 -25 -27 -25 -29 0 -4 52 -29 83 -39 11 -3 17
-16 17 -35 0 -23 -7 -33 -27 -43 -15 -7 -38 -29 -51 -48 -29 -43 -27 -86 11
-323 59 -360 64 -477 66 -1507 0 -722 -2 -888 -13 -902 -7 -10 -34 -27 -60
-39 l-48 -21 21 -22 c29 -31 27 -70 -5 -95 -15 -12 -33 -21 -40 -21 -10 0 -14
-14 -14 -50 0 -27 3 -50 8 -50 4 0 56 -9 115 -20 108 -20 109 -20 230 0 67 11
125 20 130 20 4 0 7 22 7 50 0 45 -2 50 -25 56 -29 7 -55 39 -55 67 0 10 11
29 24 42 l24 24 -53 21 c-30 12 -56 29 -59 37 -7 17 -8 1903 -2 1943 2 14 7
66 10 115 8 112 41 364 65 495 27 150 15 209 -50 233 -23 9 -29 17 -29 43 0
28 4 32 43 44 23 8 46 15 50 18 4 2 -6 19 -23 38 -16 19 -30 43 -30 53 0 23
54 71 81 71 10 0 19 6 19 13 0 7 14 18 31 24 38 15 36 42 -4 61 -15 7 -27 17
-27 22 0 5 -16 14 -35 20 -37 12 -65 43 -65 71 0 10 12 31 26 48 31 37 25 49
-27 57 -38 6 -39 8 -39 45 0 27 4 39 14 39 23 0 74 67 82 105 3 20 -1 70 -10
117 -23 119 -53 323 -68 468 -9 85 -13 284 -13 620 0 540 6 625 66 993 24 146
27 186 19 219 -13 46 -42 78 -70 78 -17 0 -20 7 -20 39 0 37 2 39 38 45 20 3
44 11 52 16 13 9 13 12 -3 21 -9 5 -24 23 -32 39 -22 42 -5 78 45 97 22 9 40
20 40 25 0 5 11 13 25 18 14 5 28 17 31 25 8 20 -13 45 -37 45 -11 0 -19 6
-19 14 0 8 -13 17 -30 21 -30 7 -70 47 -70 71 0 7 14 29 31 48 l30 35 -30 15
c-16 9 -39 16 -51 16 -16 0 -20 6 -20 34 0 28 5 37 28 48 16 8 37 33 51 61
l23 47 -31 188 c-65 396 -65 382 -68 1470 l-4 992 -94 0 -93 0 -1 -938z"/>
</g>
</svg>
