<?xml version="1.0" standalone="no"?>
<!DOCTYPE svg PUBLIC "-//W3C//DTD SVG 20010904//EN"
 "http://www.w3.org/TR/2001/REC-SVG-20010904/DTD/svg10.dtd">
<svg version="1.0" xmlns="http://www.w3.org/2000/svg"
 width="3542.000000pt" height="3750.000000pt" viewBox="0 0 3542.000000 3750.000000"
 preserveAspectRatio="xMidYMid meet">

<g transform="translate(0.000000,3750.000000) scale(0.100000,-0.100000)"
fill="#C5C3C1" stroke="none">
<path d="M18310 17858 c0 -458 -3 -873 -6 -923 -11 -190 -36 -429 -59 -581
-14 -87 -25 -176 -25 -199 0 -47 27 -91 66 -105 18 -7 24 -17 24 -40 0 -19 -5
-30 -14 -30 -7 0 -30 -7 -51 -16 l-37 -15 26 -28 c15 -15 26 -39 26 -54 0 -29
-34 -67 -61 -67 -10 0 -22 -6 -26 -12 -4 -7 -17 -18 -28 -24 -30 -17 -31 -52
-2 -63 14 -5 26 -13 28 -18 2 -4 22 -17 44 -28 52 -26 60 -71 20 -111 -31 -31
-24 -40 38 -50 34 -6 37 -9 37 -38 -1 -24 -8 -36 -33 -51 -59 -37 -70 -94 -43
-235 48 -251 76 -626 76 -1005 0 -362 -18 -616 -62 -900 -40 -255 -36 -304 29
-331 27 -12 33 -20 33 -44 0 -24 -4 -30 -20 -30 -12 0 -35 -7 -52 -16 l-30
-16 26 -27 c34 -35 34 -73 0 -100 -15 -12 -35 -21 -45 -21 -11 0 -19 -6 -19
-14 0 -8 -12 -17 -26 -20 -20 -5 -25 -12 -22 -34 2 -19 9 -28 26 -30 12 -2 22
-10 22 -18 0 -8 8 -14 19 -14 10 0 30 -9 45 -21 35 -28 35 -72 -1 -105 -14
-13 -24 -25 -22 -27 15 -11 63 -27 79 -27 16 0 20 -7 20 -34 0 -28 -5 -37 -27
-48 -60 -28 -75 -106 -48 -239 22 -109 53 -373 65 -544 11 -173 13 -1854 2
-1872 -4 -6 -29 -21 -56 -33 l-49 -21 22 -22 c11 -13 21 -32 21 -43 0 -22 -33
-57 -62 -67 -14 -5 -18 -17 -18 -49 l0 -44 103 -17 c127 -21 139 -21 265 0
l102 17 0 43 c0 33 -4 45 -17 50 -30 10 -63 45 -63 67 0 11 10 30 21 43 l22
22 -44 19 c-24 11 -50 26 -57 35 -11 13 -13 196 -9 964 4 880 5 961 25 1133
11 102 30 239 41 306 12 67 21 136 21 155 0 44 -33 97 -65 105 -22 5 -26 11
-23 37 3 26 9 32 51 44 26 7 47 16 47 20 0 3 -11 16 -25 29 -34 31 -33 76 1
103 15 12 35 21 45 21 11 0 19 6 19 14 0 8 10 16 23 18 16 2 23 11 25 30 3 22
-2 29 -22 34 -14 3 -26 12 -26 20 0 8 -8 14 -19 14 -10 0 -30 9 -45 21 -34 27
-34 65 0 100 l26 27 -30 16 c-17 9 -40 16 -52 16 -16 0 -20 6 -20 29 0 22 7
34 30 47 37 22 60 69 60 123 0 22 -11 109 -25 193 -40 248 -56 453 -62 798 -8
440 18 833 72 1124 28 146 11 227 -50 242 -22 5 -26 11 -23 37 3 26 9 32 51
44 26 7 47 16 47 18 0 2 -11 15 -25 29 -46 46 -27 105 38 121 15 4 27 13 27
20 0 8 10 15 23 17 16 2 22 10 22 28 0 16 -8 28 -22 35 -13 5 -23 13 -23 17 0
4 -17 15 -37 23 -21 9 -41 21 -45 28 -15 24 -8 61 18 88 l26 27 -33 16 c-18 9
-40 16 -51 16 -13 0 -18 7 -18 30 0 23 7 33 31 45 36 19 59 68 59 125 0 23 -9
91 -20 153 -60 341 -70 558 -70 1520 l0 837 -85 0 -85 0 0 -832z"/>
</g>
</svg>
