<?xml version="1.0" standalone="no"?>
<!DOCTYPE svg PUBLIC "-//W3C//DTD SVG 20010904//EN"
 "http://www.w3.org/TR/2001/REC-SVG-20010904/DTD/svg10.dtd">
<svg version="1.0" xmlns="http://www.w3.org/2000/svg"
 width="3542.000000pt" height="3750.000000pt" viewBox="0 0 3542.000000 3750.000000"
 preserveAspectRatio="xMidYMid meet">

<g transform="translate(0.000000,3750.000000) scale(0.100000,-0.100000)"
fill="#C5C3C1" stroke="none">
<path d="M2147 17328 c-3 -976 -6 -1163 -20 -1283 -29 -247 -47 -366 -89 -572
-28 -140 -38 -214 -34 -239 9 -48 62 -104 106 -113 33 -6 35 -10 38 -49 3 -39
1 -42 -21 -42 -24 0 -86 -22 -98 -34 -4 -4 9 -22 27 -40 43 -43 46 -86 7 -122
-14 -13 -38 -27 -52 -31 -14 -3 -34 -14 -44 -24 -10 -11 -24 -19 -32 -19 -8 0
-19 -9 -25 -20 -14 -27 2 -56 35 -64 14 -4 25 -12 25 -20 0 -7 13 -16 29 -19
15 -3 42 -18 60 -32 41 -35 41 -73 0 -119 -17 -20 -28 -39 -25 -44 4 -7 38
-20 104 -38 6 -2 12 -19 12 -39 0 -31 -4 -37 -37 -50 -52 -22 -80 -50 -99
-101 -19 -50 -18 -58 25 -261 86 -403 114 -747 108 -1333 -3 -234 -7 -434 -10
-445 -2 -11 -8 -56 -12 -100 -12 -145 -55 -424 -91 -595 -30 -147 -33 -175
-24 -211 14 -52 47 -85 99 -99 39 -10 41 -12 41 -50 0 -32 -4 -40 -19 -40 -16
0 -90 -26 -100 -36 -2 -2 10 -19 28 -39 39 -44 41 -86 6 -121 -13 -13 -38 -27
-54 -30 -17 -4 -31 -14 -34 -25 -3 -11 -14 -19 -25 -19 -23 0 -53 -36 -46 -55
3 -6 20 -19 39 -28 19 -9 35 -21 35 -26 0 -5 13 -12 29 -16 16 -3 41 -17 55
-30 36 -33 34 -75 -5 -119 -17 -20 -28 -39 -25 -44 3 -5 30 -17 61 -26 54 -18
55 -18 55 -56 0 -35 -3 -39 -35 -50 -44 -14 -91 -68 -105 -120 -9 -35 -6 -65
24 -208 40 -193 70 -371 93 -562 14 -116 17 -298 20 -1297 5 -1320 14 -1181
-84 -1223 -29 -12 -53 -24 -53 -26 0 -2 11 -14 25 -28 44 -44 25 -105 -41
-132 -33 -14 -34 -16 -34 -73 l0 -58 48 -11 c26 -6 77 -19 115 -28 67 -18 68
-18 235 10 92 15 175 29 185 32 14 4 17 17 17 65 0 52 -2 59 -19 59 -11 0 -33
12 -50 26 -41 34 -42 76 -2 113 l29 27 -58 23 c-100 40 -90 -85 -90 1151 0
891 3 1122 15 1272 21 252 52 460 109 740 19 94 22 125 14 158 -13 50 -46 83
-98 99 -38 11 -40 14 -40 51 0 38 2 40 29 40 17 0 33 5 36 10 3 6 15 10 25 10
32 0 33 19 1 51 -55 55 -36 128 39 150 22 7 40 17 40 24 0 6 15 18 33 26 24
10 32 20 32 39 0 19 -8 29 -32 39 -18 8 -33 20 -33 27 0 6 -12 14 -28 17 -82
17 -110 97 -52 152 17 16 30 32 30 35 0 10 -74 40 -98 40 -19 0 -22 5 -22 43
1 41 3 43 51 65 56 27 88 76 90 139 1 21 -15 117 -34 213 -37 183 -71 402 -83
530 -3 41 -10 107 -14 145 -15 128 -5 1032 14 1195 24 215 53 401 92 591 29
147 33 176 23 214 -13 51 -50 90 -99 102 -32 8 -35 12 -38 51 -3 39 -1 42 21
42 27 0 97 26 97 36 0 4 -13 22 -30 41 -52 59 -35 115 44 144 20 7 36 18 36
24 0 6 15 17 34 23 58 21 58 63 0 84 -19 6 -34 18 -34 24 0 7 -13 15 -29 19
-16 3 -41 17 -55 30 -36 33 -34 75 5 119 31 36 31 56 0 56 -9 0 -21 4 -27 9
-5 5 -20 11 -34 13 -22 3 -25 8 -25 43 0 34 3 40 23 43 37 6 98 72 112 121 10
38 8 59 -14 160 -49 226 -81 430 -107 671 -8 69 -13 501 -16 1253 l-4 1147
-109 0 -109 0 -4 -1142z"/>
</g>
</svg>
