<?xml version="1.0" standalone="no"?>
<!DOCTYPE svg PUBLIC "-//W3C//DTD SVG 20010904//EN"
 "http://www.w3.org/TR/2001/REC-SVG-20010904/DTD/svg10.dtd">
<svg version="1.0" xmlns="http://www.w3.org/2000/svg"
 width="3542.000000pt" height="3750.000000pt" viewBox="0 0 3542.000000 3750.000000"
 preserveAspectRatio="xMidYMid meet">

<g transform="translate(0.000000,3750.000000) scale(0.100000,-0.100000)"
fill="#C5C3C1" stroke="none">
<path d="M34481 17649 c-1 -582 -5 -1015 -11 -1082 -18 -198 -55 -430 -94
-600 -26 -112 -20 -164 26 -207 13 -12 35 -27 51 -32 22 -8 27 -16 27 -43 0
-31 -3 -35 -50 -50 -51 -17 -62 -28 -35 -39 8 -3 23 -21 32 -41 16 -34 16 -36
-3 -63 -12 -15 -35 -31 -52 -37 -18 -5 -32 -14 -32 -20 0 -6 -13 -16 -30 -22
-40 -15 -43 -59 -5 -69 14 -3 30 -15 36 -25 5 -11 19 -19 30 -19 26 0 69 -43
69 -69 0 -11 -14 -36 -31 -55 l-30 -35 30 -15 c16 -9 39 -16 51 -16 17 0 20
-6 20 -38 0 -36 -2 -39 -37 -48 -46 -11 -83 -61 -83 -113 0 -20 13 -101 30
-179 73 -358 91 -566 91 -1062 0 -510 -20 -736 -97 -1080 -38 -170 -25 -230
61 -275 20 -11 37 -23 36 -28 0 -4 -1 -18 -1 -32 0 -18 -5 -25 -19 -25 -11 0
-23 -4 -26 -10 -3 -5 -15 -10 -25 -10 -28 0 -35 -20 -12 -35 10 -8 25 -28 32
-45 11 -28 11 -34 -7 -58 -11 -15 -34 -31 -52 -36 -17 -5 -31 -14 -31 -20 0
-7 -13 -17 -30 -23 -22 -8 -30 -18 -30 -36 0 -19 8 -28 30 -36 17 -5 30 -14
30 -19 0 -6 12 -13 26 -16 34 -9 74 -50 74 -75 0 -11 -14 -36 -31 -55 l-30
-35 30 -15 c16 -9 39 -16 51 -16 16 0 20 -6 20 -34 0 -30 -4 -36 -35 -46 -81
-27 -101 -91 -69 -227 43 -184 87 -502 103 -738 13 -189 14 -1945 1 -1945 -5
0 -10 -6 -10 -13 0 -7 -22 -21 -50 -31 -27 -10 -50 -20 -50 -23 0 -3 9 -16 20
-30 11 -14 20 -36 20 -49 0 -23 -36 -58 -71 -69 -15 -5 -19 -16 -19 -54 l0
-48 93 -12 c50 -7 124 -17 163 -23 62 -9 83 -8 168 12 l96 22 0 48 c0 44 -3
49 -30 60 -61 25 -76 75 -35 116 l25 24 -54 24 c-32 14 -57 32 -61 45 -8 27
-9 1896 -1 1986 26 268 51 439 95 643 30 140 30 177 -4 228 -9 15 -35 34 -56
43 -36 15 -39 19 -37 49 3 30 8 36 42 47 56 20 61 29 32 58 -48 48 -25 117 45
132 16 4 27 11 23 16 -3 5 8 14 24 20 17 6 33 17 36 26 7 18 -20 53 -41 53 -7
0 -13 7 -13 15 0 8 -8 15 -17 15 -10 0 -33 9 -50 20 -43 26 -46 74 -7 113 14
14 23 30 20 35 -3 6 -26 16 -51 23 -41 12 -45 16 -45 45 0 27 4 32 40 43 22 6
47 22 55 35 33 50 34 81 9 198 -37 175 -72 404 -90 591 -13 138 -15 257 -11
617 2 245 7 459 10 475 4 17 11 72 17 123 11 101 62 384 80 453 16 59 15 121
-4 157 -19 37 -62 72 -87 72 -15 0 -19 8 -19 40 0 34 3 40 20 40 12 0 35 7 52
16 l30 16 -20 21 c-53 59 -46 104 24 136 24 12 44 26 44 31 0 6 9 10 20 10 10
0 25 10 31 22 10 19 8 24 -12 39 -13 10 -32 25 -41 33 -10 9 -24 16 -32 16 -7
0 -25 9 -40 21 -35 28 -36 77 -1 109 33 31 28 42 -26 55 -41 10 -44 13 -47 48
-2 23 1 37 8 37 24 0 81 33 92 54 23 42 26 86 12 148 -31 133 -75 390 -89 528
-8 80 -17 163 -20 185 -2 22 -4 478 -4 1013 l-1 972 -99 0 -100 0 0 -971z"/>
</g>
</svg>
