<?xml version="1.0" standalone="no"?>
<!DOCTYPE svg PUBLIC "-//W3C//DTD SVG 20010904//EN"
 "http://www.w3.org/TR/2001/REC-SVG-20010904/DTD/svg10.dtd">
<svg version="1.0" xmlns="http://www.w3.org/2000/svg"
 width="3542.000000pt" height="3750.000000pt" viewBox="0 0 3542.000000 3750.000000"
 preserveAspectRatio="xMidYMid meet">

<g transform="translate(0.000000,3750.000000) scale(0.100000,-0.100000)"
fill="#C5C3C1" stroke="none">
<path d="M4960 17425 c0 -895 -3 -1110 -15 -1246 -18 -192 -56 -444 -92 -614
-15 -71 -23 -137 -20 -162 6 -58 47 -110 92 -119 34 -6 35 -8 35 -50 0 -40 -2
-44 -24 -44 -30 0 -86 -20 -86 -30 0 -4 14 -22 30 -40 51 -55 32 -113 -48
-141 -18 -6 -32 -17 -32 -24 0 -7 -13 -15 -29 -18 -40 -8 -51 -44 -21 -69 12
-10 28 -18 36 -18 8 0 14 -6 14 -14 0 -8 13 -17 29 -21 38 -8 81 -48 81 -75 0
-28 -17 -61 -44 -83 -21 -17 -21 -17 -1 -32 11 -9 36 -18 57 -22 37 -5 38 -7
38 -48 0 -39 -3 -43 -31 -51 -42 -12 -89 -72 -96 -121 -3 -24 8 -110 30 -224
84 -433 96 -581 98 -1179 1 -372 -2 -497 -15 -625 -21 -202 -58 -448 -91 -602
-29 -138 -30 -158 -10 -207 16 -38 43 -61 88 -72 33 -8 42 -24 33 -59 -4 -15
-14 -25 -25 -25 -15 0 -75 -24 -90 -36 -2 -2 10 -18 28 -36 42 -43 42 -87 0
-122 -17 -14 -39 -26 -50 -26 -11 0 -22 -7 -26 -15 -3 -9 -21 -22 -39 -30 -19
-8 -34 -21 -34 -29 0 -18 27 -46 45 -46 8 0 19 -9 25 -20 6 -11 19 -20 30 -20
10 0 32 -12 49 -26 41 -34 41 -72 1 -117 -16 -19 -30 -37 -30 -40 0 -6 55 -29
90 -36 20 -5 26 -13 28 -41 2 -33 -1 -37 -45 -60 -36 -18 -54 -37 -70 -70 -28
-54 -29 -85 -3 -195 49 -209 90 -511 109 -795 6 -80 10 -591 9 -1145 0 -801
-3 -1005 -13 -1025 -9 -16 -35 -34 -73 -49 l-59 -25 29 -24 c50 -42 31 -110
-37 -132 -34 -11 -35 -13 -35 -64 l0 -53 102 -28 c56 -15 116 -27 133 -27 16
0 96 12 177 26 81 14 152 26 157 26 7 0 11 23 11 55 0 52 -1 55 -32 68 -44 18
-61 41 -61 79 0 22 8 38 27 53 l28 22 -57 23 c-31 13 -63 29 -71 37 -21 22
-21 2082 1 2326 19 211 46 408 86 612 38 196 36 246 -10 287 -18 16 -45 31
-62 35 -26 5 -29 9 -29 44 0 27 4 39 14 39 8 0 35 9 60 20 l45 19 -29 29 c-58
58 -44 123 30 148 19 6 36 17 38 23 2 6 19 18 39 26 45 19 43 53 -4 74 -18 8
-33 20 -33 27 0 6 -13 14 -28 17 -31 6 -82 52 -82 74 0 23 28 71 52 87 27 19
24 22 -43 45 -51 18 -54 22 -57 55 -3 32 0 37 25 47 61 23 103 86 103 154 0
20 -15 113 -34 208 -19 95 -43 246 -55 337 -11 91 -23 185 -26 210 -4 25 -9
245 -12 490 -5 399 1 616 22 785 2 17 7 57 10 90 14 132 48 343 77 475 40 187
19 249 -94 284 -13 4 -18 16 -18 46 0 35 3 40 24 40 13 0 40 7 61 16 l38 15
-33 34 c-57 59 -39 123 42 147 21 6 38 17 38 23 0 7 11 16 25 19 38 10 50 41
25 66 -11 11 -27 20 -35 20 -8 0 -15 6 -15 13 0 7 -22 23 -50 34 -78 33 -86
77 -27 140 l30 33 -34 14 c-19 8 -47 18 -62 21 -23 6 -27 12 -27 45 0 34 3 39
29 45 29 6 70 44 90 82 18 35 13 105 -18 262 -33 159 -52 283 -78 497 -14 121
-17 286 -20 1262 l-4 1123 -109 -2 -110 -3 0 -1081z"/>
</g>
</svg>
