<?xml version="1.0" standalone="no"?>
<!DOCTYPE svg PUBLIC "-//W3C//DTD SVG 20010904//EN"
 "http://www.w3.org/TR/2001/REC-SVG-20010904/DTD/svg10.dtd">
<svg version="1.0" xmlns="http://www.w3.org/2000/svg"
 width="3542.000000pt" height="3750.000000pt" viewBox="0 0 3542.000000 3750.000000"
 preserveAspectRatio="xMidYMid meet">

<g transform="translate(0.000000,3750.000000) scale(0.100000,-0.100000)"
fill="#65340A" stroke="none">
<path d="M16428 18023 l-3 -648 -95 -5 -95 -5 1 -3473 c1 -1910 5 -3476 9
-3480 9 -9 101 -9 148 1 l37 8 0 -539 c0 -415 -3 -542 -12 -555 -7 -9 -34 -25
-60 -36 l-48 -20 25 -25 c14 -14 25 -31 25 -39 0 -23 -38 -64 -65 -71 -21 -5
-25 -12 -25 -45 0 -21 6 -43 13 -49 6 -5 59 -18 118 -28 102 -17 109 -17 230
2 l124 19 3 48 c3 38 0 48 -15 54 -28 10 -63 45 -63 63 0 10 10 30 22 45 13
17 18 30 11 32 -5 2 -30 14 -54 26 l-44 22 -3 562 -2 561 27 6 c16 3 58 11 96
17 l67 11 0 3449 0 3449 -95 0 -95 0 0 645 0 645 -90 0 -90 0 -2 -647z m222
-1412 l0 -639 -22 -5 c-21 -5 -131 -9 -205 -8 l-33 1 0 640 0 639 98 4 c53 1
112 4 130 5 l32 2 0 -639z m0 -950 c0 -177 0 -179 -22 -184 -21 -5 -131 -9
-205 -8 l-33 1 0 180 0 179 98 4 c53 1 112 4 130 5 l32 2 0 -179z m0 -1810 l0
-1499 -22 -5 c-21 -5 -131 -9 -205 -8 l-33 1 0 1500 0 1499 98 4 c53 1 112 4
130 5 l32 2 0 -1499z m0 -1800 c0 -167 0 -169 -22 -174 -21 -5 -131 -9 -205
-8 l-33 1 0 170 0 169 98 4 c53 1 112 4 130 5 l32 2 0 -169z m0 -870 c0 -534
-1 -570 -17 -575 -24 -7 -203 -36 -225 -36 -17 0 -18 34 -18 585 l0 584 98 4
c53 1 112 4 130 5 l32 2 0 -569z"/>
</g>
</svg>
