<?xml version="1.0" standalone="no"?>
<!DOCTYPE svg PUBLIC "-//W3C//DTD SVG 20010904//EN"
 "http://www.w3.org/TR/2001/REC-SVG-20010904/DTD/svg10.dtd">
<svg version="1.0" xmlns="http://www.w3.org/2000/svg"
 width="3542.000000pt" height="3750.000000pt" viewBox="0 0 3542.000000 3750.000000"
 preserveAspectRatio="xMidYMid meet">

<g transform="translate(0.000000,3750.000000) scale(0.100000,-0.100000)"
fill="#65340A" stroke="none">
<path d="M18306 18070 c2 -712 14 -640 -105 -640 l-71 0 0 -507 c-2 -4418 0
-6225 6 -6234 5 -8 32 -10 90 -6 l84 6 0 -519 c0 -477 -1 -521 -17 -540 -10
-11 -20 -20 -24 -20 -4 0 -23 -7 -42 -15 l-36 -15 24 -25 c14 -13 25 -30 25
-37 0 -22 -30 -59 -56 -68 -20 -8 -24 -16 -24 -55 0 -36 4 -45 18 -46 20 -1
47 -5 117 -19 73 -15 119 -14 225 4 52 9 98 16 103 16 4 0 7 23 7 50 0 38 -4
50 -15 50 -21 0 -65 45 -65 65 0 9 11 27 24 40 l25 25 -45 19 c-80 36 -74 -12
-74 589 l0 539 85 12 85 13 0 3349 0 3349 -80 0 -80 0 0 33 c-1 17 -1 296 -1
620 l1 587 -93 0 -92 0 1 -620z m194 -1384 l0 -623 -31 -7 c-17 -3 -67 -6
-110 -6 l-79 0 0 48 c-1 79 -1 1196 0 1205 0 4 50 7 110 7 l110 0 0 -624z m0
-915 l0 -148 -31 -7 c-17 -3 -67 -6 -110 -6 l-79 0 0 155 0 155 110 0 110 0 0
-149z m0 -1745 l0 -1453 -31 -7 c-17 -3 -67 -6 -110 -6 l-79 0 -1 628 c-1 939
-1 2244 0 2270 1 21 4 22 111 22 l110 0 0 -1454z m0 -1745 l0 -148 -31 -7
c-17 -3 -67 -6 -110 -6 l-79 0 -1 95 c-1 52 -1 106 -1 120 0 14 0 41 1 60 l1
35 110 0 110 0 0 -149z m0 -438 c0 -129 0 -874 0 -944 0 -24 -4 -26 -107 -42
-58 -10 -108 -15 -111 -13 -3 4 -5 906 -2 1119 l0 27 110 0 110 0 0 -147z"/>
</g>
</svg>
