<?xml version="1.0" standalone="no"?>
<!DOCTYPE svg PUBLIC "-//W3C//DTD SVG 20010904//EN"
 "http://www.w3.org/TR/2001/REC-SVG-20010904/DTD/svg10.dtd">
<svg version="1.0" xmlns="http://www.w3.org/2000/svg"
 width="3542.000000pt" height="3750.000000pt" viewBox="0 0 3542.000000 3750.000000"
 preserveAspectRatio="xMidYMid meet">

<g transform="translate(0.000000,3750.000000) scale(0.100000,-0.100000)"
fill="#65340A" stroke="none">
<path d="M23480 18160 l0 -590 -93 0 -94 0 -2 -2632 c-1 -1448 1 -2870 5
-3159 l7 -527 88 -12 89 -12 -2 -516 -3 -517 -51 -25 -51 -25 26 -21 c22 -19
24 -25 16 -50 -6 -17 -23 -35 -42 -44 -29 -13 -33 -20 -33 -56 l0 -41 125 -17
c117 -15 131 -15 225 1 l100 17 0 42 c0 37 -3 43 -31 54 -52 22 -59 82 -13
108 13 7 7 13 -30 27 -26 10 -51 26 -56 36 -6 10 -10 216 -10 508 l0 490 98
-2 97 -2 3 3182 2 3182 -97 3 -98 3 -3 593 -2 592 -85 0 -85 0 0 -590z m188
-720 l32 0 0 -584 0 -583 -67 -6 c-91 -9 -165 -8 -180 1 -13 8 -14 75 -13 816
l0 369 98 -6 c53 -4 112 -7 130 -7z m0 -1300 l32 0 0 -154 0 -153 -67 -6 c-86
-9 -157 -9 -177 -1 -14 5 -16 29 -16 167 l0 160 98 -6 c53 -4 112 -7 130 -7z
m0 -440 l32 0 0 -1379 0 -1378 -67 -6 c-86 -9 -157 -9 -177 -1 -15 6 -16 137
-16 1392 l0 1385 98 -6 c53 -4 112 -7 130 -7z m-5 -2890 l37 0 0 -134 0 -133
-67 -6 c-86 -9 -157 -9 -177 -1 -14 5 -16 27 -16 138 0 73 3 136 8 140 4 5 45
6 92 2 47 -3 102 -6 123 -6z m0 -400 l37 0 0 -540 0 -540 -22 4 c-13 3 -57 10
-98 16 -41 6 -90 13 -107 16 l-33 5 0 518 c0 285 3 521 8 525 4 5 45 6 92 2
47 -3 102 -6 123 -6z"/>
</g>
</svg>
