<?xml version="1.0" standalone="no"?>
<!DOCTYPE svg PUBLIC "-//W3C//DTD SVG 20010904//EN"
 "http://www.w3.org/TR/2001/REC-SVG-20010904/DTD/svg10.dtd">
<svg version="1.0" xmlns="http://www.w3.org/2000/svg"
 width="3542.000000pt" height="3750.000000pt" viewBox="0 0 3542.000000 3750.000000"
 preserveAspectRatio="xMidYMid meet">

<g transform="translate(0.000000,3750.000000) scale(0.100000,-0.100000)"
fill="#65340A" stroke="none">
<path d="M27488 18084 l-3 -627 -107 2 -108 2 0 -2943 c-1 -3551 0 -3741 5
-3746 2 -2 50 -11 107 -19 57 -8 105 -17 108 -20 3 -3 6 -242 6 -531 2 -427
-1 -531 -12 -549 -7 -11 -34 -29 -59 -39 -45 -17 -46 -17 -27 -38 11 -12 22
-26 26 -33 11 -19 -15 -61 -45 -74 -26 -10 -29 -16 -29 -55 0 -50 -11 -46 158
-69 103 -15 119 -15 195 0 124 25 117 21 117 69 0 39 -3 45 -30 56 -54 22 -65
67 -25 104 l24 22 -50 18 c-27 10 -54 26 -59 36 -16 30 -13 1060 3 1060 6 0
39 -5 72 -10 33 -6 77 -8 98 -4 l37 6 0 3368 0 3368 -110 7 -110 7 0 623 c0
559 -2 623 -16 629 -9 3 -49 6 -90 6 l-74 0 -2 -626z m130 -764 l112 0 0 -631
0 -631 -42 6 c-24 3 -79 6 -123 7 -44 1 -95 4 -113 7 l-32 5 0 617 c0 339 4
620 8 624 4 4 23 5 42 2 19 -3 86 -6 148 -6z m0 -1380 l112 0 0 -166 0 -166
-42 6 c-24 3 -79 6 -123 7 -44 1 -94 4 -111 6 l-31 5 -1 112 c-1 61 1 133 4
160 l6 48 37 -6 c20 -3 87 -6 149 -6z m0 -450 l112 0 0 -1470 0 -1470 -72 5
c-40 3 -106 7 -146 9 -41 2 -76 7 -80 11 -9 8 -16 2783 -7 2862 l7 65 36 -6
c21 -3 88 -6 150 -6z m0 -3060 l112 0 0 -166 0 -166 -42 6 c-24 3 -79 6 -123
7 -44 1 -92 4 -107 6 l-28 6 0 160 0 160 38 -7 c20 -3 88 -6 150 -6z m0 -450
l112 0 0 -566 0 -567 -42 7 c-24 4 -79 11 -123 17 -44 5 -93 11 -110 14 l-30
5 1 197 c1 109 2 357 3 552 l1 354 38 -7 c20 -3 88 -6 150 -6z"/>
</g>
</svg>
