<?xml version="1.0" standalone="no"?>
<!DOCTYPE svg PUBLIC "-//W3C//DTD SVG 20010904//EN"
 "http://www.w3.org/TR/2001/REC-SVG-20010904/DTD/svg10.dtd">
<svg version="1.0" xmlns="http://www.w3.org/2000/svg"
 width="3542.000000pt" height="3750.000000pt" viewBox="0 0 3542.000000 3750.000000"
 preserveAspectRatio="xMidYMid meet">

<g transform="translate(0.000000,3750.000000) scale(0.100000,-0.100000)"
fill="#65340A" stroke="none">
<path d="M28570 18056 l0 -634 -115 5 -115 6 0 -2739 c0 -4232 -1 -4047 11
-4055 6 -3 58 -12 115 -19 l104 -13 0 -543 c0 -298 -3 -550 -6 -558 -4 -9 -28
-26 -56 -38 l-49 -21 21 -22 c28 -30 26 -69 -6 -94 -15 -12 -33 -21 -41 -21
-11 0 -13 -12 -11 -47 l3 -48 142 -19 c140 -19 142 -19 235 0 l93 20 3 45 c3
43 1 47 -28 59 -54 22 -65 67 -25 104 l25 23 -45 18 c-81 30 -75 -16 -75 582
l0 535 33 -5 c87 -15 130 -19 162 -13 l35 7 0 3419 0 3420 -62 0 c-35 0 -87 3
-115 6 l-53 7 0 633 0 634 -90 0 -90 0 0 -634z m219 -774 l31 -4 0 -619 0
-620 -157 3 -158 3 -3 623 -2 623 129 -2 c71 -1 143 -4 160 -7z m0 -1380 l31
-4 0 -159 0 -160 -157 3 -158 3 -3 163 -3 163 130 -2 c71 -1 143 -4 160 -7z
m0 -460 l31 -4 -2 -1462 -3 -1461 -155 0 -155 0 -3 1468 -2 1468 129 -2 c71
-1 143 -4 160 -7z m-1 -3070 l31 -4 -1 -154 0 -154 -156 2 -157 3 -3 158 -3
158 130 -2 c71 -1 142 -4 159 -7z m-2 -449 l29 -5 2 -599 2 -599 -22 0 c-12 0
-80 9 -152 20 -71 11 -133 20 -137 20 -5 0 -8 264 -8 586 l0 585 129 -2 c71
-1 142 -4 157 -6z"/>
</g>
</svg>
