<?xml version="1.0" standalone="no"?>
<!DOCTYPE svg PUBLIC "-//W3C//DTD SVG 20010904//EN"
 "http://www.w3.org/TR/2001/REC-SVG-20010904/DTD/svg10.dtd">
<svg version="1.0" xmlns="http://www.w3.org/2000/svg"
 width="3542.000000pt" height="3750.000000pt" viewBox="0 0 3542.000000 3750.000000"
 preserveAspectRatio="xMidYMid meet">

<g transform="translate(0.000000,3750.000000) scale(0.100000,-0.100000)"
fill="#65340A" stroke="none">
<path d="M29680 18034 l0 -646 -117 4 -118 3 -3 -3447 c-2 -2755 0 -3448 10
-3448 23 -1 221 -30 225 -34 9 -8 2 -1099 -7 -1116 -5 -10 -30 -26 -55 -35
-25 -10 -45 -19 -45 -21 0 -2 9 -13 20 -24 11 -11 20 -31 20 -45 0 -28 -35
-65 -62 -65 -15 0 -18 -8 -18 -50 0 -58 -16 -51 172 -75 124 -17 128 -17 222
5 l96 22 0 44 c0 41 -3 46 -30 56 -51 17 -69 86 -30 110 28 18 26 23 -24 42
-25 9 -50 24 -58 33 -10 13 -13 122 -14 550 -1 293 3 536 7 539 5 3 43 0 86
-6 42 -5 91 -7 110 -4 l33 6 0 3474 0 3473 -112 3 -113 3 -3 648 -2 647 -95 0
-95 0 0 -646z m248 -790 c10 -3 12 -135 10 -636 l-3 -633 -110 2 c-60 1 -136
2 -167 2 l-58 1 0 633 c0 349 3 637 7 641 7 7 295 -2 321 -10z m-2 -1409 c9
-3 12 -53 10 -172 l-1 -168 -110 2 c-60 1 -136 2 -167 2 l-58 1 0 168 c0 93 3
172 7 176 7 6 295 -2 319 -9z m2 -481 c11 -3 13 -261 10 -1411 -2 -775 -4
-1449 -6 -1499 l-3 -92 -157 5 c-86 2 -159 6 -162 9 -8 8 -13 2981 -5 2994 5
8 53 9 158 5 84 -4 158 -8 165 -11z m-3 -3139 c6 -1 10 -16 9 -31 -1 -16 -3
-90 -3 -165 l-1 -137 -157 5 c-87 2 -158 5 -160 6 -2 3 -6 315 -4 330 1 7 290
0 316 -8z m1 -469 c1 0 5 -261 8 -578 l7 -578 -28 0 c-27 0 -245 27 -291 36
l-23 5 6 557 c3 306 5 561 5 565 0 6 310 -1 316 -7z"/>
</g>
</svg>
