<?xml version="1.0" standalone="no"?>
<!DOCTYPE svg PUBLIC "-//W3C//DTD SVG 20010904//EN"
 "http://www.w3.org/TR/2001/REC-SVG-20010904/DTD/svg10.dtd">
<svg version="1.0" xmlns="http://www.w3.org/2000/svg"
 width="2550.000000pt" height="2700.000000pt" viewBox="0 0 2550.000000 2700.000000"
 preserveAspectRatio="xMidYMid meet">

<g transform="translate(0.000000,2700.000000) scale(0.100000,-0.100000)"
fill="#3a4548" stroke="none">
<path d="M18212 22372 l-43 -37 -3 -1235 c-2 -1101 -4 -1247 -19 -1345 -20
-133 -64 -358 -78 -402 -19 -58 24 -133 75 -133 13 0 26 -20 26 -41 0 -6 -16
-17 -35 -25 l-36 -15 21 -26 c31 -39 25 -59 -30 -100 -27 -20 -50 -40 -50 -44
0 -3 23 -27 50 -52 52 -48 61 -75 35 -101 -21 -21 -19 -29 15 -48 41 -23 40
-55 -3 -73 -71 -29 -82 -64 -56 -182 33 -150 57 -284 71 -393 10 -82 13 -472
13 -1810 l0 -1705 -32 -20 c-21 -13 -30 -25 -26 -35 16 -42 14 -60 -11 -85
-16 -16 -26 -37 -26 -55 l0 -30 144 0 144 0 4 30 c4 26 0 34 -24 48 -30 18
-38 58 -16 80 9 9 5 18 -20 40 l-31 27 -2 1700 c-1 1235 1 1726 10 1795 15
127 47 307 71 402 11 42 20 88 20 101 0 28 -44 87 -65 87 -15 0 -45 27 -45 41
0 19 40 49 57 42 14 -6 13 -1 -5 24 -26 36 -28 56 -7 73 8 7 15 18 15 24 0 6
-5 4 -10 -4 -5 -8 -10 -10 -10 -4 0 19 26 35 45 28 14 -6 16 -3 11 17 -3 13
-3 18 0 12 7 -15 34 -17 34 -3 0 5 -22 32 -50 59 -27 28 -50 56 -50 62 0 7 10
23 22 36 22 23 22 24 2 37 -55 40 -57 43 -47 60 5 9 25 24 43 34 53 26 67 59
52 124 -41 185 -72 359 -83 463 -10 92 -14 410 -14 1357 0 681 -2 1238 -5
1238 -3 0 -24 -17 -48 -38z"/>
</g>
</svg>
