<?xml version="1.0" standalone="no"?>
<!DOCTYPE svg PUBLIC "-//W3C//DTD SVG 20010904//EN"
 "http://www.w3.org/TR/2001/REC-SVG-20010904/DTD/svg10.dtd">
<svg version="1.0" xmlns="http://www.w3.org/2000/svg"
 width="2550.000000pt" height="2700.000000pt" viewBox="0 0 2550.000000 2700.000000"
 preserveAspectRatio="xMidYMid meet">

<g transform="translate(0.000000,2700.000000) scale(0.100000,-0.100000)"
fill="#3a4548" stroke="none">
<path d="M19936 24210 l-39 -38 2 -1188 c2 -986 -1 -1215 -13 -1339 -16 -163
-36 -292 -67 -423 -26 -114 -25 -157 6 -187 13 -14 33 -25 44 -25 11 0 22 -9
26 -20 7 -22 -9 -50 -29 -50 -6 0 -17 -4 -25 -9 -11 -7 -9 -14 8 -38 29 -38
20 -56 -45 -98 -33 -22 -52 -40 -48 -48 2 -7 25 -26 50 -42 62 -39 72 -60 45
-96 -12 -15 -21 -30 -21 -33 0 -2 16 -13 35 -25 47 -27 46 -54 -2 -78 -24 -11
-44 -31 -55 -53 -16 -34 -15 -40 16 -185 75 -341 70 -211 74 -2157 l3 -1746
-30 -21 c-16 -12 -34 -21 -40 -21 -15 0 -14 -6 5 -35 18 -27 9 -54 -28 -79
-12 -8 -22 -27 -24 -41 l-3 -25 175 0 174 0 0 25 c0 17 -8 29 -25 37 -33 15
-42 51 -21 83 16 25 16 25 -13 25 -24 0 -62 25 -53 37 1 1 2 246 2 542 l0 540
-22 3 c-23 3 -23 4 -26 204 l-2 201 24 25 25 24 4 1020 c3 1127 0 1068 72
1389 15 66 23 125 19 140 -6 26 -60 75 -82 75 -7 0 -12 13 -12 29 0 25 5 31
31 36 33 7 34 22 3 39 -22 12 -34 27 -34 40 0 6 7 1 15 -10 14 -18 14 -18 15
7 0 28 21 51 72 79 18 9 33 22 33 28 0 12 -90 85 -120 97 -18 7 -18 9 -2 12 9
3 17 11 17 18 0 8 10 23 21 34 l22 20 -37 18 c-32 15 -37 21 -34 48 2 22 9 31
24 33 36 5 68 48 68 90 0 20 -14 105 -32 187 -63 299 -62 265 -64 1675 -3
1277 -3 1285 -23 1287 -11 1 -37 -15 -59 -37z"/>
</g>
</svg>
