<?xml version="1.0" standalone="no"?>
<!DOCTYPE svg PUBLIC "-//W3C//DTD SVG 20010904//EN"
 "http://www.w3.org/TR/2001/REC-SVG-20010904/DTD/svg10.dtd">
<svg version="1.0" xmlns="http://www.w3.org/2000/svg"
 width="2550.000000pt" height="2700.000000pt" viewBox="0 0 2550.000000 2700.000000"
 preserveAspectRatio="xMidYMid meet">

<g transform="translate(0.000000,2700.000000) scale(0.100000,-0.100000)"
fill="#3a4548" stroke="none">
<path d="M23089 26628 c-1 -850 -9 -1022 -64 -1318 -43 -234 -42 -244 23 -275
61 -29 54 -58 -20 -85 l-28 -9 25 -25 c14 -14 25 -33 25 -44 0 -25 -36 -62
-60 -62 -11 0 -20 -5 -20 -10 0 -6 -12 -15 -26 -20 -31 -12 -29 -41 4 -55 12
-5 22 -13 22 -17 0 -5 6 -8 14 -8 18 0 66 -46 66 -64 0 -8 -11 -28 -24 -43
l-25 -28 42 -20 c54 -26 56 -54 7 -87 -46 -31 -63 -82 -51 -151 30 -169 61
-354 72 -437 10 -74 14 -504 16 -1937 3 -1699 2 -1845 -13 -1868 -9 -14 -20
-25 -24 -25 -5 0 -21 -5 -36 -10 l-27 -11 22 -23 c29 -31 21 -58 -25 -85 -20
-12 -34 -27 -31 -34 4 -14 52 -12 237 9 69 8 131 14 139 14 9 0 4 9 -13 25
-30 27 -32 43 -11 71 21 28 19 32 -27 39 -24 4 -50 12 -58 17 -12 8 -11 8 4 4
15 -5 17 -2 12 16 -3 13 -6 282 -6 599 0 568 0 577 -20 582 -19 5 -20 14 -20
235 0 220 1 231 19 237 19 6 20 27 24 1048 5 1113 4 1103 57 1407 42 238 40
258 -28 287 -28 11 -33 18 -30 41 2 21 10 28 38 36 46 12 45 11 21 42 -11 15
-21 37 -21 50 0 23 42 64 66 64 8 0 14 3 14 8 0 4 10 12 23 17 27 12 28 34 2
49 -11 6 -23 15 -26 19 -3 4 -21 16 -40 25 -42 21 -49 54 -19 94 l21 29 -40
16 c-54 21 -53 44 4 97 55 52 56 69 21 249 -13 67 -29 165 -35 217 -6 52 -14
111 -17 130 -4 19 -8 330 -11 691 l-4 655 -70 2 -69 3 -1 -373z"/>
</g>
</svg>
