<?xml version="1.0" standalone="no"?>
<!DOCTYPE svg PUBLIC "-//W3C//DTD SVG 20010904//EN"
 "http://www.w3.org/TR/2001/REC-SVG-20010904/DTD/svg10.dtd">
<svg version="1.0" xmlns="http://www.w3.org/2000/svg"
 width="2550.000000pt" height="2700.000000pt" viewBox="0 0 2550.000000 2700.000000"
 preserveAspectRatio="xMidYMid meet">

<g transform="translate(0.000000,2700.000000) scale(0.100000,-0.100000)"
fill="#3a4548" stroke="none">
<path d="M24680 26986 c0 -12 28 -34 103 -80 33 -20 35 -53 6 -90 -12 -15 -20
-28 -18 -30 2 -1 21 -10 42 -20 49 -22 51 -56 4 -84 -36 -21 -67 -75 -67 -116
0 -14 9 -63 19 -108 29 -125 49 -247 66 -407 13 -122 15 -413 15 -2015 0
-1029 -3 -1881 -6 -1893 -4 -14 -19 -26 -43 -34 -52 -17 -52 -18 -31 -39 36
-36 24 -64 -46 -106 -34 -21 -7 -26 78 -14 283 37 281 36 267 62 -9 16 -7 26
10 49 24 32 24 31 -44 49 -27 7 -54 17 -60 23 -6 6 -3 7 10 3 20 -6 20 -2 17
616 -1 388 -6 626 -12 632 -13 13 -13 479 0 492 5 5 10 416 13 1069 3 1153 2
1131 63 1452 46 243 45 254 -26 294 -53 30 -50 55 7 78 l41 16 -24 28 c-42 49
-31 76 51 122 52 30 67 44 59 57 -3 4 -115 8 -250 8 -199 0 -244 -2 -244 -14z"/>
</g>
</svg>
