<?xml version="1.0" standalone="no"?>
<!DOCTYPE svg PUBLIC "-//W3C//DTD SVG 20010904//EN"
 "http://www.w3.org/TR/2001/REC-SVG-20010904/DTD/svg10.dtd">
<svg version="1.0" xmlns="http://www.w3.org/2000/svg"
 width="2550.000000pt" height="2700.000000pt" viewBox="0 0 2550.000000 2700.000000"
 preserveAspectRatio="xMidYMid meet">

<g transform="translate(0.000000,2700.000000) scale(0.100000,-0.100000)"
fill="#3a4548" stroke="none">
<path d="M10350 14557 l-64 -69 1 -1102 c1 -1265 -3 -1366 -73 -1716 -14 -69
-23 -138 -20 -154 8 -37 33 -66 58 -66 24 0 43 -47 28 -66 -6 -7 -25 -16 -41
-19 -35 -8 -35 -8 -7 -45 20 -27 20 -32 7 -57 -8 -14 -26 -31 -41 -37 -16 -6
-28 -14 -28 -18 0 -4 -6 -8 -14 -8 -7 0 -20 -7 -27 -16 -11 -14 -10 -18 6 -30
11 -7 25 -17 30 -21 6 -5 22 -14 38 -20 15 -7 32 -24 39 -38 10 -22 8 -30 -11
-56 -26 -35 -26 -33 14 -46 24 -8 31 -16 33 -41 3 -26 -1 -34 -21 -41 -34 -13
-67 -58 -67 -92 0 -15 7 -56 15 -91 26 -112 56 -315 65 -446 6 -70 13 -707 16
-1415 8 -1413 11 -1325 -54 -1352 -33 -14 -33 -15 -16 -40 21 -32 7 -69 -31
-87 -22 -10 -26 -17 -23 -47 3 -35 3 -35 78 -53 41 -9 82 -15 90 -13 8 2 40 7
70 10 30 3 76 8 103 11 l47 6 0 39 c0 26 -5 39 -13 39 -17 0 -57 42 -57 60 0
7 8 22 18 33 12 14 13 21 5 24 -7 2 -27 14 -45 27 l-33 22 -3 1224 c-4 1450 0
1552 74 1929 25 127 25 136 10 168 -10 22 -29 39 -51 49 -54 22 -45 64 18 79
32 9 33 10 7 42 -11 14 -20 33 -20 43 0 18 30 50 47 50 5 0 19 8 31 18 11 9
29 22 39 29 17 12 17 13 -2 27 -11 9 -25 20 -32 26 -7 5 -16 10 -21 10 -18 0
-62 42 -62 59 0 10 9 30 20 44 26 32 25 33 -7 42 -64 16 -70 51 -16 86 68 43
70 59 35 243 -70 361 -72 421 -72 1761 1 642 -1 1169 -2 1170 -2 1 -32 -29
-68 -68z"/>
</g>
</svg>
