<?xml version="1.0" standalone="no"?>
<!DOCTYPE svg PUBLIC "-//W3C//DTD SVG 20010904//EN"
 "http://www.w3.org/TR/2001/REC-SVG-20010904/DTD/svg10.dtd">
<svg version="1.0" xmlns="http://www.w3.org/2000/svg"
 width="2550.000000pt" height="2700.000000pt" viewBox="0 0 2550.000000 2700.000000"
 preserveAspectRatio="xMidYMid meet">

<g transform="translate(0.000000,2700.000000) scale(0.100000,-0.100000)"
fill="#3a4548" stroke="none">
<path d="M12868 17223 l-57 -58 -4 -1225 c-3 -1207 -4 -1227 -25 -1355 -12
-71 -33 -178 -46 -237 -13 -59 -21 -119 -18 -133 5 -27 55 -75 78 -75 9 0 14
-11 14 -34 0 -31 -3 -34 -35 -40 l-36 -7 21 -26 c23 -30 24 -42 8 -78 -7 -16
-19 -25 -35 -25 -14 0 -23 -6 -23 -15 0 -8 -6 -15 -14 -15 -7 0 -19 -7 -26
-15 -10 -12 -8 -16 14 -25 14 -5 26 -13 26 -18 0 -4 13 -13 30 -19 41 -15 50
-55 21 -94 -23 -30 -21 -34 24 -41 15 -2 21 -12 23 -39 3 -33 0 -37 -29 -45
-22 -6 -38 -20 -50 -44 -17 -34 -17 -38 6 -145 13 -61 34 -169 47 -240 l22
-130 3 -1765 c2 -971 1 -1775 -2 -1787 -3 -13 -18 -26 -39 -33 -34 -11 -34
-11 -19 -39 14 -24 15 -31 2 -59 -8 -19 -21 -32 -31 -32 -14 0 -18 -8 -18 -35
0 -33 2 -35 53 -49 28 -8 69 -13 91 -11 21 2 76 5 121 6 l83 3 4 34 c3 27 0
37 -19 49 -41 27 -48 51 -24 83 l20 28 -22 6 c-12 3 -32 15 -45 26 l-22 21 0
1712 c0 1952 -5 1830 89 2278 12 56 -7 101 -51 122 -31 15 -38 24 -38 47 0 25
5 30 35 36 19 3 35 8 35 11 0 3 -9 16 -20 30 -11 14 -20 33 -20 43 0 17 39 60
56 60 5 0 22 10 38 23 l28 23 -33 25 c-19 14 -44 31 -56 38 -34 17 -40 57 -14
85 28 30 27 34 -11 44 -25 6 -34 14 -36 35 -3 21 3 29 30 43 61 31 72 70 48
172 -10 42 -25 120 -34 172 -8 52 -21 124 -28 160 -9 49 -13 375 -15 1348 -2
705 -7 1282 -11 1282 -4 0 -33 -26 -64 -57z"/>
</g>
</svg>
