<?xml version="1.0" standalone="no"?>
<!DOCTYPE svg PUBLIC "-//W3C//DTD SVG 20010904//EN"
 "http://www.w3.org/TR/2001/REC-SVG-20010904/DTD/svg10.dtd">
<svg version="1.0" xmlns="http://www.w3.org/2000/svg"
 width="2550.000000pt" height="2700.000000pt" viewBox="0 0 2550.000000 2700.000000"
 preserveAspectRatio="xMidYMid meet">

<g transform="translate(0.000000,2700.000000) scale(0.100000,-0.100000)"
fill="#65340A" stroke="none">
<path d="M9270 15930 l0 -340 -65 0 -65 0 0 -2385 0 -2385 65 0 65 0 0 -359
c0 -390 1 -383 -56 -397 -27 -7 -31 -19 -9 -28 25 -9 17 -44 -15 -68 -23 -16
-30 -29 -28 -48 3 -24 6 -25 101 -32 64 -5 122 -3 165 5 58 11 67 15 70 36 3
16 -6 31 -28 50 -26 21 -31 32 -26 49 4 12 12 22 17 22 5 0 9 5 9 10 0 6 -6
10 -14 10 -7 0 -25 9 -40 21 l-26 21 2 361 3 362 50 9 c28 4 56 10 63 12 9 3
12 483 12 2358 l0 2356 -22 5 c-13 2 -41 6 -63 7 l-40 3 -3 343 -2 342 -60 0
-60 0 0 -340z m128 -2717 l-3 -2278 -59 -8 c-41 -6 -61 -5 -66 3 -8 13 -12
4539 -4 4551 3 5 34 9 70 9 l64 0 -2 -2277z"/>
</g>
</svg>
