<?xml version="1.0" standalone="no"?>
<!DOCTYPE svg PUBLIC "-//W3C//DTD SVG 20010904//EN"
 "http://www.w3.org/TR/2001/REC-SVG-20010904/DTD/svg10.dtd">
<svg version="1.0" xmlns="http://www.w3.org/2000/svg"
 width="2550.000000pt" height="2700.000000pt" viewBox="0 0 2550.000000 2700.000000"
 preserveAspectRatio="xMidYMid meet">

<g transform="translate(0.000000,2700.000000) scale(0.100000,-0.100000)"
fill="#65340A" stroke="none">
<path d="M9787 16233 c-4 -3 -7 -156 -7 -340 l0 -333 -64 0 -65 0 2 -2337 2
-2338 63 -3 62 -3 0 -354 0 -354 -26 -20 c-15 -12 -34 -21 -42 -21 -13 0 -13
-3 1 -18 24 -26 21 -49 -8 -68 -17 -11 -25 -25 -25 -45 0 -24 5 -29 33 -34 53
-10 179 -9 232 1 46 8 50 11 53 41 2 24 -1 33 -17 38 -26 8 -38 50 -21 70 15
18 15 17 -27 39 l-33 17 0 364 0 364 59 7 58 6 6 82 c3 44 6 1088 7 2318 l1
2238 -50 0 c-88 0 -81 -29 -81 345 0 370 5 345 -69 345 -21 0 -41 -3 -44 -7z
m118 -3003 l-1 -2235 -57 -9 c-62 -9 -64 -9 -67 14 -1 8 -2 1018 -1 2243 l1
2228 63 -3 62 -3 0 -2235z"/>
</g>
</svg>
