<?xml version="1.0" standalone="no"?>
<!DOCTYPE svg PUBLIC "-//W3C//DTD SVG 20010904//EN"
 "http://www.w3.org/TR/2001/REC-SVG-20010904/DTD/svg10.dtd">
<svg version="1.0" xmlns="http://www.w3.org/2000/svg"
 width="2550.000000pt" height="2700.000000pt" viewBox="0 0 2550.000000 2700.000000"
 preserveAspectRatio="xMidYMid meet">

<g transform="translate(0.000000,2700.000000) scale(0.100000,-0.100000)"
fill="#65340A" stroke="none">
<path d="M14301 13511 c-8 -13 -11 -230 -11 -665 l0 -645 -72 -3 -73 -3 -3
-2963 -2 -2963 72 2 73 2 3 -824 c2 -600 -1 -830 -9 -846 -6 -11 -29 -29 -50
-39 -43 -19 -46 -25 -23 -44 26 -22 14 -72 -23 -95 -29 -18 -33 -24 -30 -60
l2 -40 141 -12 141 -12 69 29 c67 28 69 30 71 67 3 33 -1 40 -30 58 -37 23
-49 73 -23 95 24 19 20 26 -24 39 -22 6 -44 20 -50 31 -16 29 -14 1696 2 1707
7 4 40 17 73 29 l60 21 3 2922 2 2923 -64 -3 c-36 -2 -68 -1 -71 3 -4 4 -8
299 -9 655 l-1 648 -67 3 c-58 3 -68 0 -77 -17z m129 -2393 c1 -3905 -1 -4633
-10 -4642 -11 -11 -86 -36 -107 -36 -19 0 -19 5636 0 5643 6 3 36 6 65 6 l52
1 0 -972z"/>
</g>
</svg>
