<?xml version="1.0" standalone="no"?>
<!DOCTYPE svg PUBLIC "-//W3C//DTD SVG 20010904//EN"
 "http://www.w3.org/TR/2001/REC-SVG-20010904/DTD/svg10.dtd">
<svg version="1.0" xmlns="http://www.w3.org/2000/svg"
 width="2550.000000pt" height="2700.000000pt" viewBox="0 0 2550.000000 2700.000000"
 preserveAspectRatio="xMidYMid meet">

<g transform="translate(0.000000,2700.000000) scale(0.100000,-0.100000)"
fill="#65340A" stroke="none">
<path d="M19922 23177 l-52 -53 0 -601 0 -601 -22 -6 c-13 -3 -50 -6 -83 -6
-33 0 -84 -3 -113 -6 l-52 -7 2 -2771 3 -2771 130 0 130 0 0 -810 0 -810 -43
-23 c-40 -22 -42 -25 -28 -41 30 -33 8 -101 -32 -101 -7 0 -12 -16 -12 -40 l0
-40 190 0 190 0 0 40 c0 27 -4 40 -13 40 -39 0 -62 75 -31 101 14 11 12 14
-13 27 -69 35 -63 -42 -63 854 l0 808 120 0 120 0 0 35 c0 22 6 38 15 41 13 5
15 320 15 2749 0 2530 -1 2743 -16 2749 -9 4 -70 3 -135 0 l-119 -7 0 639 c0
629 -2 664 -30 664 -3 0 -29 -24 -58 -53z m220 -2179 c2 -447 2 -1649 0 -2670
l-2 -1857 -193 -3 c-105 -2 -195 -2 -199 0 -5 2 -8 1198 -8 2658 0 2115 3
2656 13 2659 11 4 248 20 344 24 l43 1 2 -812z"/>
</g>
</svg>
