<?xml version="1.0" standalone="no"?>
<!DOCTYPE svg PUBLIC "-//W3C//DTD SVG 20010904//EN"
 "http://www.w3.org/TR/2001/REC-SVG-20010904/DTD/svg10.dtd">
<svg version="1.0" xmlns="http://www.w3.org/2000/svg"
 width="2550.000000pt" height="2700.000000pt" viewBox="0 0 2550.000000 2700.000000"
 preserveAspectRatio="xMidYMid meet">

<g transform="translate(0.000000,2700.000000) scale(0.100000,-0.100000)"
fill="#65340A" stroke="none">
<path d="M23261 26377 l-52 -54 1 -139 c1 -76 1 -344 1 -595 l-1 -456 -82 -7
c-46 -4 -109 -9 -140 -13 l-58 -6 0 -2848 c0 -2272 3 -2849 13 -2850 6 -1 69
-1 140 1 l127 2 0 -355 c0 -387 2 -371 -59 -396 l-30 -13 21 -29 c18 -24 20
-32 10 -54 -7 -14 -23 -30 -38 -35 -16 -6 -24 -16 -22 -27 3 -15 17 -17 113
-15 61 1 145 5 187 8 l77 6 -30 25 c-32 27 -38 63 -14 83 22 19 19 25 -25 45
-31 14 -41 25 -45 49 -3 17 -4 184 -3 371 l3 340 143 9 142 9 0 2858 c0 2712
-1 2859 -17 2867 -10 5 -54 5 -98 1 -44 -4 -101 -8 -127 -8 l-48 -1 0 634 c0
569 -2 634 -16 640 -9 3 -17 6 -18 6 -1 0 -25 -24 -55 -53z m239 -4092 l0
-2734 -32 -5 c-18 -3 -115 -8 -216 -11 l-182 -6 2 2728 3 2728 180 16 c99 9
195 17 213 18 l32 1 0 -2735z"/>
</g>
</svg>
