<?xml version="1.0" standalone="no"?>
<!DOCTYPE svg PUBLIC "-//W3C//DTD SVG 20010904//EN"
 "http://www.w3.org/TR/2001/REC-SVG-20010904/DTD/svg10.dtd">
<svg version="1.0" xmlns="http://www.w3.org/2000/svg"
 width="2550.000000pt" height="2700.000000pt" viewBox="0 0 2550.000000 2700.000000"
 preserveAspectRatio="xMidYMid meet">

<g transform="translate(0.000000,2700.000000) scale(0.100000,-0.100000)"
fill="#65340A" stroke="none">
<path d="M13251 13507 c-8 -10 -12 -201 -13 -653 l-3 -639 -132 -3 -133 -3 0
-57 c-1 -1295 1 -5806 3 -5808 1 -1 61 -6 132 -11 l130 -8 3 -845 c1 -465 0
-854 -3 -866 -2 -12 -24 -31 -50 -44 -42 -22 -58 -40 -35 -40 6 0 15 -12 21
-26 12 -33 -9 -70 -47 -84 -22 -9 -25 -15 -22 -52 2 -30 8 -43 18 -43 8 -1 72
-5 142 -9 124 -8 128 -8 197 19 l71 28 0 41 c0 36 -4 43 -33 56 -41 19 -49 61
-18 94 l21 23 -39 11 c-21 7 -44 19 -51 27 -9 11 -12 201 -12 832 0 450 1 829
1 842 l1 24 108 -7 c67 -5 117 -4 135 3 l27 11 0 2940 0 2940 -43 0 c-24 0
-85 3 -135 6 l-92 7 0 653 0 654 -69 0 c-45 0 -72 -5 -80 -13z m112 -1416
l147 -1 0 -2824 c0 -1554 -3 -2827 -7 -2829 -5 -3 -89 2 -187 9 -122 9 -182
17 -188 26 -9 13 -8 5590 0 5616 3 9 17 11 46 8 22 -2 107 -5 189 -5z"/>
</g>
</svg>
