<?xml version="1.0" standalone="no"?>
<!DOCTYPE svg PUBLIC "-//W3C//DTD SVG 20010904//EN"
 "http://www.w3.org/TR/2001/REC-SVG-20010904/DTD/svg10.dtd">
<svg version="1.0" xmlns="http://www.w3.org/2000/svg"
 width="2550.000000pt" height="2700.000000pt" viewBox="0 0 2550.000000 2700.000000"
 preserveAspectRatio="xMidYMid meet">

<g transform="translate(0.000000,2700.000000) scale(0.100000,-0.100000)"
fill="#65340A" stroke="none">
<path d="M13166 13546 l-26 -45 0 -621 0 -620 -26 -10 c-14 -6 -48 -10 -75
-10 l-49 0 0 -2866 0 -2867 75 5 75 5 0 -799 c0 -531 -3 -806 -10 -819 -6 -10
-29 -28 -50 -39 l-40 -21 20 -28 c18 -23 19 -32 10 -53 -7 -13 -25 -32 -41
-42 -23 -13 -29 -24 -29 -50 0 -40 7 -42 180 -51 106 -6 120 -5 175 17 58 23
60 25 63 64 3 35 0 42 -23 52 -14 6 -30 23 -37 37 -10 21 -8 30 9 54 l21 28
-36 13 c-21 7 -43 17 -49 22 -10 8 -13 188 -13 838 l0 827 71 24 71 24 2 2825
1 2825 -72 -3 -73 -4 0 666 0 666 -49 0 c-47 0 -50 -1 -75 -44z m115 -1873 c6
-2159 4 -4950 -3 -4960 -5 -6 -32 -17 -59 -23 -28 -7 -53 -19 -57 -28 -5 -13
-7 -12 -13 4 -4 10 -8 1244 -8 2741 -1 2168 2 2722 12 2726 6 3 38 6 70 6 l57
1 1 -467z"/>
</g>
</svg>
