<?xml version="1.0" standalone="no"?>
<!DOCTYPE svg PUBLIC "-//W3C//DTD SVG 20010904//EN"
 "http://www.w3.org/TR/2001/REC-SVG-20010904/DTD/svg10.dtd">
<svg version="1.0" xmlns="http://www.w3.org/2000/svg"
 width="2550.000000pt" height="2700.000000pt" viewBox="0 0 2550.000000 2700.000000"
 preserveAspectRatio="xMidYMid meet">

<g transform="translate(0.000000,2700.000000) scale(0.100000,-0.100000)"
fill="#65340A" stroke="none">
<path d="M16747 20142 l-47 -48 -2 -564 c-3 -557 -3 -565 -23 -567 -11 -1 -68
-5 -127 -8 l-108 -7 0 -2699 0 -2698 128 -3 127 -3 3 -330 c1 -181 0 -339 -2
-351 -3 -12 -22 -28 -46 -39 -44 -20 -47 -26 -25 -45 30 -25 5 -90 -34 -90 -8
0 -11 -14 -9 -42 l3 -42 115 -4 c63 -1 148 0 188 3 l72 7 0 36 c0 30 -5 40
-29 53 -36 21 -44 52 -20 83 l18 23 -40 18 c-23 11 -42 27 -45 39 -2 12 -3
170 -2 351 l3 330 125 0 125 0 3 2704 c1 1586 -2 2709 -7 2714 -5 5 -63 8
-130 8 l-121 -2 0 605 c0 541 -2 604 -16 610 -25 10 -27 8 -77 -42z m208
-3887 l0 -2600 -185 0 -185 0 -3 2592 -2 2593 22 5 c22 5 217 12 308 11 l45
-1 0 -2600z"/>
</g>
</svg>
