<?xml version="1.0" standalone="no"?>
<!DOCTYPE svg PUBLIC "-//W3C//DTD SVG 20010904//EN"
 "http://www.w3.org/TR/2001/REC-SVG-20010904/DTD/svg10.dtd">
<svg version="1.0" xmlns="http://www.w3.org/2000/svg"
 width="2644.000000pt" height="2800.000000pt" viewBox="0 0 2644.000000 2800.000000"
 preserveAspectRatio="xMidYMid meet">

<g transform="translate(0.000000,2800.000000) scale(0.100000,-0.100000)"
fill="#65340A" stroke="none">
<path d="M3726 14033 c-4 -9 -6 -149 -6 -312 0 -163 0 -896 0 -1628 l0 -1333
-21 0 c-30 0 -48 -28 -49 -73 0 -52 15 -77 46 -77 25 0 26 -1 21 -57 -2 -32
-14 -84 -26 -116 -47 -127 -47 -298 0 -424 12 -32 24 -82 27 -111 4 -51 3 -54
-16 -47 -30 9 -54 -32 -50 -86 3 -41 11 -51 51 -63 16 -5 17 -49 17 -738 0
-403 3 -1325 6 -2048 4 -1075 3 -1318 -8 -1330 -7 -8 -30 -23 -50 -32 -41 -19
-46 -29 -23 -48 23 -19 18 -56 -11 -79 -15 -12 -33 -21 -40 -21 -10 0 -14 -13
-14 -39 0 -37 2 -39 38 -44 20 -3 80 -9 132 -13 81 -5 106 -3 170 15 41 12 83
25 93 27 22 7 25 84 3 84 -22 0 -66 40 -66 61 0 10 9 28 20 39 21 21 21 22
-33 39 -20 7 -41 20 -46 30 -6 10 -8 384 -6 927 1 500 3 1421 4 2047 1 1098 2
1137 19 1137 31 0 52 33 52 81 0 50 -13 69 -47 69 -20 0 -23 5 -23 39 0 22 9
61 20 87 11 25 28 89 37 141 21 117 9 241 -31 329 -16 36 -26 74 -26 104 0 44
2 48 29 53 31 6 41 27 41 87 0 42 -14 60 -47 60 l-23 0 0 1640 0 1640 -79 0
c-64 0 -80 -3 -85 -17z m99 -3719 c8 -69 1 -178 -14 -216 -9 -22 -9 -22 -17 7
-19 65 -7 275 16 275 4 0 12 -30 15 -66z"/>
</g>
</svg>
