<?xml version="1.0" standalone="no"?>
<!DOCTYPE svg PUBLIC "-//W3C//DTD SVG 20010904//EN"
 "http://www.w3.org/TR/2001/REC-SVG-20010904/DTD/svg10.dtd">
<svg version="1.0" xmlns="http://www.w3.org/2000/svg"
 width="2644.000000pt" height="2800.000000pt" viewBox="0 0 2644.000000 2800.000000"
 preserveAspectRatio="xMidYMid meet">

<g transform="translate(0.000000,2800.000000) scale(0.100000,-0.100000)"
fill="#65340A" stroke="none">
<path d="M7301 15903 c0 -852 0 -1554 -1 -1560 0 -7 -8 -13 -19 -13 -49 0 -51
-118 -1 -130 33 -8 33 -54 0 -145 -22 -62 -25 -86 -25 -205 1 -119 4 -143 25
-200 30 -79 29 -127 -3 -132 -48 -7 -46 -128 3 -128 11 0 20 -6 20 -12 1 -43
1 -3174 1 -3266 l-1 -112 -44 -21 c-42 -21 -43 -22 -25 -40 11 -11 19 -26 19
-34 0 -17 -35 -55 -50 -55 -6 0 -10 -18 -10 -40 l0 -40 43 0 c23 0 74 -3 112
-6 39 -3 101 1 140 8 70 13 70 13 73 48 2 30 -2 37 -28 52 -34 19 -40 51 -14
80 16 17 15 19 -19 33 -20 8 -38 19 -41 24 -3 5 -6 454 -6 998 0 2511 -1 2383
14 2383 19 0 46 39 46 65 0 30 -23 70 -40 70 -21 0 -17 83 8 170 29 96 29 218
0 321 -11 43 -23 102 -25 131 -4 48 -3 52 18 55 48 6 47 128 -1 128 -22 0 -21
-50 -20 2520 l0 575 -65 13 c-35 6 -69 12 -74 12 -6 0 -10 -551 -10 -1547z
m89 -2045 c0 -85 -7 -118 -21 -96 -10 15 -12 142 -2 176 11 42 23 2 23 -80z"/>
</g>
</svg>
