<?xml version="1.0" standalone="no"?>
<!DOCTYPE svg PUBLIC "-//W3C//DTD SVG 20010904//EN"
 "http://www.w3.org/TR/2001/REC-SVG-20010904/DTD/svg10.dtd">
<svg version="1.0" xmlns="http://www.w3.org/2000/svg"
 width="2644.000000pt" height="2800.000000pt" viewBox="0 0 2644.000000 2800.000000"
 preserveAspectRatio="xMidYMid meet">

<g transform="translate(0.000000,2800.000000) scale(0.100000,-0.100000)"
fill="#65340A" stroke="none">
<path d="M15968 13982 l-78 -3 0 -2110 0 -2109 -24 -9 c-29 -12 -36 -29 -36
-95 0 -54 12 -76 42 -76 25 0 24 -55 -4 -161 -20 -73 -23 -109 -23 -274 0
-157 4 -200 19 -250 10 -33 21 -84 23 -112 4 -48 3 -53 -16 -53 -28 0 -41 -29
-41 -92 0 -60 6 -74 35 -79 20 -4 20 -13 23 -2064 1 -1133 0 -2070 -3 -2083
-3 -13 -26 -35 -56 -53 l-50 -31 20 -20 c21 -19 27 -54 13 -73 -4 -6 -21 -21
-38 -32 -26 -19 -30 -27 -28 -63 1 -22 3 -43 5 -45 2 -2 74 -9 159 -15 l156
-12 62 31 62 31 0 50 c0 38 -4 50 -15 50 -23 0 -55 37 -55 65 0 14 9 34 20 45
11 11 20 22 20 23 0 2 -18 9 -40 16 -21 6 -46 18 -55 27 -13 14 -15 233 -15
2090 0 1801 2 2074 14 2074 25 0 46 42 46 93 0 58 -14 87 -40 87 -27 0 -27 53
2 156 18 66 21 108 22 259 1 159 -2 189 -21 258 -13 42 -23 100 -23 127 0 43
3 50 20 50 26 0 40 29 40 85 0 56 -14 85 -40 85 -20 0 -20 21 -22 2108 l-3
2107 -77 -3z"/>
</g>
</svg>
