<?xml version="1.0" standalone="no"?>
<!DOCTYPE svg PUBLIC "-//W3C//DTD SVG 20010904//EN"
 "http://www.w3.org/TR/2001/REC-SVG-20010904/DTD/svg10.dtd">
<svg version="1.0" xmlns="http://www.w3.org/2000/svg"
 width="2644.000000pt" height="2800.000000pt" viewBox="0 0 2644.000000 2800.000000"
 preserveAspectRatio="xMidYMid meet">

<g transform="translate(0.000000,2800.000000) scale(0.100000,-0.100000)"
fill="#65340A" stroke="none">
<path d="M25182 27908 c6 -109 31 -185 83 -245 32 -37 35 -47 35 -102 l0 -60
-30 17 c-31 17 -31 17 -60 -16 -41 -45 -40 -81 6 -132 23 -25 45 -40 60 -40
l24 0 0 -1112 c0 -2178 0 -2487 -6 -2501 -3 -8 -23 -22 -45 -32 -43 -20 -46
-26 -24 -45 20 -16 19 -64 0 -80 -11 -9 -13 -16 -5 -24 7 -7 14 -6 22 2 7 7
35 12 63 12 29 0 86 3 128 6 72 6 77 9 77 30 0 13 9 30 21 38 21 14 20 15 -30
51 l-51 37 0 1819 0 1819 33 0 c65 0 107 59 82 116 -19 45 -61 84 -90 84 -34
0 -34 35 1 81 65 87 115 253 100 333 -7 34 -9 36 -45 36 l-38 0 -5 -78 c-5
-81 -43 -185 -82 -225 -71 -71 -156 65 -143 230 l5 73 -45 0 -45 0 4 -92z"/>
</g>
</svg>
