<?xml version="1.0" standalone="no"?>
<!DOCTYPE svg PUBLIC "-//W3C//DTD SVG 20010904//EN"
 "http://www.w3.org/TR/2001/REC-SVG-20010904/DTD/svg10.dtd">
<svg version="1.0" xmlns="http://www.w3.org/2000/svg"
 width="2644.000000pt" height="2800.000000pt" viewBox="0 0 2644.000000 2800.000000"
 preserveAspectRatio="xMidYMid meet">

<g transform="translate(0.000000,2800.000000) scale(0.100000,-0.100000)"
fill="#65340A" stroke="none">
<path d="M14760 11881 c0 -1914 -1 -2109 -16 -2115 -9 -3 -24 -6 -33 -6 -10 0
-30 -9 -45 -21 -33 -26 -36 -84 -5 -123 18 -22 28 -27 58 -24 l36 3 3 -52 c2
-43 -1 -59 -21 -85 -14 -18 -35 -53 -47 -78 -81 -161 -62 -384 46 -526 40 -52
28 -114 -22 -114 -12 0 -33 -9 -48 -21 -21 -16 -26 -29 -26 -63 0 -52 32 -87
82 -90 l33 -2 3 -2069 c2 -1472 -1 -2076 -8 -2091 -6 -11 -31 -31 -56 -44 -24
-14 -44 -27 -44 -30 0 -3 9 -11 20 -18 37 -23 21 -81 -30 -107 -26 -14 -30
-21 -30 -60 0 -52 -10 -49 194 -64 l128 -10 69 35 c68 34 69 35 69 73 0 34 -5
42 -35 59 -45 27 -55 64 -27 102 l21 28 -45 17 c-24 9 -49 25 -54 35 -7 12 -9
737 -7 2077 l2 2058 40 13 c55 18 75 39 75 78 0 68 -27 96 -90 91 -23 -2 -25
2 -28 41 -3 36 3 52 37 102 61 92 76 147 76 275 0 129 -18 195 -77 286 -28 44
-38 70 -38 99 0 39 1 40 45 51 53 13 75 40 75 89 -1 49 -22 73 -72 79 l-43 6
-2 1895 c-2 1042 -3 1992 -3 2111 l0 216 -80 2 -80 1 0 -2109z m128 -2532 c64
-127 66 -255 7 -387 -30 -67 -45 -79 -69 -54 -51 57 -92 210 -81 305 11 101
61 211 94 205 9 -2 31 -33 49 -69z"/>
</g>
</svg>
