<?xml version="1.0" standalone="no"?>
<!DOCTYPE svg PUBLIC "-//W3C//DTD SVG 20010904//EN"
 "http://www.w3.org/TR/2001/REC-SVG-20010904/DTD/svg10.dtd">
<svg version="1.0" xmlns="http://www.w3.org/2000/svg"
 width="2644.000000pt" height="2800.000000pt" viewBox="0 0 2644.000000 2800.000000"
 preserveAspectRatio="xMidYMid meet">

<g transform="translate(0.000000,2800.000000) scale(0.100000,-0.100000)"
fill="#65340A" stroke="none">
<path d="M14395 12098 c0 -1047 -1 -1910 -3 -1918 -2 -9 -13 -20 -25 -25 -16
-7 -24 -23 -30 -55 -11 -56 3 -97 38 -110 33 -12 32 -37 -1 -165 -23 -87 -27
-120 -27 -255 0 -135 3 -167 25 -250 30 -112 30 -144 0 -148 -15 -2 -24 -14
-32 -40 -19 -71 -8 -116 33 -131 l22 -9 0 -2108 c-1 -1160 -4 -2119 -8 -2131
-5 -12 -28 -34 -53 -48 l-46 -27 21 -22 c12 -12 21 -29 21 -38 0 -21 -38 -68
-56 -68 -10 0 -14 -13 -14 -49 l0 -48 63 -6 c225 -22 238 -22 305 12 61 31 62
32 62 74 -1 36 -5 45 -33 62 -40 25 -46 59 -17 90 l22 24 -37 15 c-21 9 -41
16 -46 16 -4 0 -11 10 -15 22 -6 21 -12 3620 -6 4051 2 171 5 207 17 207 22 0
35 34 35 94 0 50 -2 56 -27 68 -22 11 -28 20 -29 48 0 19 5 51 11 70 14 39 31
144 40 236 7 79 -11 248 -35 327 -16 52 -19 97 -11 140 0 4 10 7 20 7 24 0 31
19 31 80 0 61 -7 80 -30 80 -10 0 -20 6 -23 13 -3 8 -6 868 -6 1913 l-1 1899
-78 3 -79 3 2 -1903z"/>
</g>
</svg>
