<?xml version="1.0" standalone="no"?>
<!DOCTYPE svg PUBLIC "-//W3C//DTD SVG 20010904//EN"
 "http://www.w3.org/TR/2001/REC-SVG-20010904/DTD/svg10.dtd">
<svg version="1.0" xmlns="http://www.w3.org/2000/svg"
 width="2644.000000pt" height="2800.000000pt" viewBox="0 0 2644.000000 2800.000000"
 preserveAspectRatio="xMidYMid meet">

<g transform="translate(0.000000,2800.000000) scale(0.100000,-0.100000)"
fill="#65340A" stroke="none">
<path d="M15478 15558 l-78 -159 0 -1520 c0 -1327 -2 -1519 -15 -1519 -21 0
-35 -33 -35 -84 0 -57 8 -76 31 -76 16 0 19 -8 19 -52 0 -29 -7 -78 -16 -108
-25 -88 -30 -347 -8 -440 9 -41 19 -101 21 -132 4 -53 3 -58 -16 -58 -23 0
-35 -40 -29 -105 2 -30 9 -42 26 -50 l22 -10 0 -2012 c0 -1106 -3 -2019 -6
-2028 -4 -9 -24 -25 -45 -36 -43 -21 -47 -30 -24 -49 30 -25 16 -74 -27 -96
-26 -14 -29 -19 -26 -57 l3 -42 85 -6 c47 -4 113 -10 147 -14 38 -5 68 -4 75
2 7 6 37 18 66 28 52 19 52 19 52 62 0 35 -3 43 -18 43 -24 0 -62 41 -62 65 0
10 9 29 21 41 l21 22 -39 12 c-21 7 -44 19 -50 28 -10 13 -13 435 -13 2034 0
1766 2 2018 15 2018 21 0 35 33 35 84 0 57 -8 76 -31 76 -26 0 -25 42 2 173
18 86 20 125 16 252 -3 97 -11 168 -21 200 -22 70 -21 154 2 162 26 10 32 23
32 75 0 59 -7 78 -31 78 -18 0 -19 40 -21 1678 l-3 1678 -77 -158z"/>
</g>
</svg>
