<?xml version="1.0" standalone="no"?>
<!DOCTYPE svg PUBLIC "-//W3C//DTD SVG 20010904//EN"
 "http://www.w3.org/TR/2001/REC-SVG-20010904/DTD/svg10.dtd">
<svg version="1.0" xmlns="http://www.w3.org/2000/svg"
 width="3542.000000pt" height="3750.000000pt" viewBox="0 0 3542.000000 3750.000000"
 preserveAspectRatio="xMidYMid meet">

<g transform="translate(0.000000,3750.000000) scale(0.100000,-0.100000)"
fill="#65340A" stroke="none">
<path d="M15450 18608 c-1 -24 -1 -318 -1 -654 l0 -612 -31 -6 c-17 -3 -64 -6
-104 -6 l-74 0 0 -3530 0 -3530 23 -5 c34 -9 57 -9 120 -1 l57 7 1 -38 c3
-237 -1 -1046 -5 -1060 -4 -11 -29 -29 -61 -42 l-55 -23 25 -20 c34 -27 33
-70 -1 -97 -15 -12 -33 -21 -40 -21 -10 0 -14 -14 -14 -49 l0 -49 118 -22 117
-21 125 21 c68 12 126 23 130 25 3 2 7 22 8 44 3 38 0 42 -36 60 -57 29 -66
91 -16 119 12 7 3 15 -43 38 l-58 29 -3 571 -2 571 42 7 c24 4 71 11 106 17
l62 11 0 3504 0 3504 -105 0 -105 0 0 650 0 650 -90 0 -90 0 0 -42z m230
-2032 l0 -634 -22 -6 c-13 -3 -76 -6 -140 -6 l-118 0 0 635 0 634 68 4 c37 2
100 4 140 5 l72 2 0 -634z m-6 -792 c3 -9 6 -82 6 -164 0 -175 15 -160 -162
-160 l-118 0 0 113 c0 61 3 135 6 164 l7 52 61 4 c160 9 194 7 200 -9z m0
-470 c3 -9 6 -692 6 -1519 l0 -1503 -22 -6 c-13 -3 -76 -6 -140 -6 l-118 0 0
1468 c0 807 3 1490 6 1519 l7 52 61 4 c160 9 194 7 200 -9z m0 -3180 c3 -9 6
-75 6 -149 0 -157 14 -145 -162 -145 l-118 0 0 98 c0 53 3 120 6 149 l7 52 61
4 c160 9 194 7 200 -9z m0 -440 c3 -9 6 -287 6 -619 l0 -603 -27 -6 c-69 -14
-208 -36 -229 -36 l-24 0 0 583 c0 320 3 605 6 634 l7 52 61 4 c160 9 194 7
200 -9z"/>
</g>
</svg>
