<?xml version="1.0" standalone="no"?>
<!DOCTYPE svg PUBLIC "-//W3C//DTD SVG 20010904//EN"
 "http://www.w3.org/TR/2001/REC-SVG-20010904/DTD/svg10.dtd">
<svg version="1.0" xmlns="http://www.w3.org/2000/svg"
 width="3542.000000pt" height="3750.000000pt" viewBox="0 0 3542.000000 3750.000000"
 preserveAspectRatio="xMidYMid meet">

<g transform="translate(0.000000,3750.000000) scale(0.100000,-0.100000)"
fill="#65340A" stroke="none">
<path d="M17380 18040 l0 -639 -86 -3 -87 -3 1 -3419 c1 -1880 4 -3421 8
-3425 3 -3 41 -5 85 -4 l79 2 0 -529 c0 -590 6 -545 -75 -575 l-44 -18 25 -19
c39 -31 30 -77 -18 -103 -35 -18 -38 -24 -38 -62 0 -48 -6 -45 134 -68 92 -16
106 -16 209 0 61 9 117 19 124 22 8 3 13 22 13 49 0 37 -4 46 -23 53 -59 23
-72 66 -33 106 l24 24 -45 17 c-79 30 -73 -16 -73 594 l0 548 73 12 c39 7 81
16 92 20 20 8 20 17 20 3401 l0 3394 -92 -3 -93 -3 0 636 0 635 -90 0 -90 0 0
-640z m218 -1382 l3 -618 -38 0 c-21 0 -75 -3 -120 -7 l-83 -6 0 621 0 621 48
4 c26 2 79 3 117 3 l70 -1 3 -617z m0 -910 l3 -158 -38 0 c-21 0 -75 -3 -120
-7 l-83 -6 0 161 0 161 48 4 c26 2 79 3 117 3 l70 -1 3 -157z m-3 -1780 l0
-1488 -35 0 c-19 0 -72 -3 -117 -7 l-83 -6 0 1491 0 1491 48 4 c26 2 79 3 117
3 l70 -1 0 -1487z m3 -1770 l3 -148 -38 0 c-21 0 -75 -3 -120 -7 l-83 -6 0
151 0 151 48 4 c26 2 79 3 117 3 l70 -1 3 -147z m0 -862 c1 -319 -1 -583 -5
-587 -5 -4 -51 -15 -103 -24 -52 -9 -103 -18 -112 -21 -17 -5 -18 28 -18 600
l0 605 48 4 c26 2 79 3 117 3 l70 -1 3 -579z"/>
</g>
</svg>
