<?xml version="1.0" standalone="no"?>
<!DOCTYPE svg PUBLIC "-//W3C//DTD SVG 20010904//EN"
 "http://www.w3.org/TR/2001/REC-SVG-20010904/DTD/svg10.dtd">
<svg version="1.0" xmlns="http://www.w3.org/2000/svg"
 width="3542.000000pt" height="3750.000000pt" viewBox="0 0 3542.000000 3750.000000"
 preserveAspectRatio="xMidYMid meet">

<g transform="translate(0.000000,3750.000000) scale(0.100000,-0.100000)"
fill="#65340A" stroke="none">
<path d="M26450 18105 l0 -615 -110 0 -110 0 0 -3298 0 -3298 110 -14 110 -13
0 -531 c0 -292 -4 -536 -8 -543 -4 -6 -29 -21 -56 -33 l-49 -21 22 -22 c11
-13 21 -33 21 -44 0 -23 -43 -63 -66 -63 -10 0 -14 -14 -14 -48 l0 -48 143
-17 c136 -17 146 -17 232 0 l90 18 3 48 c2 35 0 47 -11 47 -24 0 -67 40 -67
63 0 11 10 31 21 43 l22 23 -39 18 c-81 36 -74 -15 -74 565 l0 518 43 -7 c57
-9 154 -10 163 -1 4 5 7 952 6 2105 -1 1154 -2 2646 -2 3316 l0 1217 -37 0
c-21 0 -68 3 -105 7 l-68 6 0 618 0 619 -85 0 -85 0 0 -615z m153 -755 l77 0
0 -591 0 -590 -150 2 -150 3 0 586 c0 323 3 590 8 594 4 5 36 5 72 2 36 -3
100 -6 143 -6z m65 -1316 c9 -2 12 -43 12 -159 l0 -156 -151 2 -150 3 2 155
c1 86 3 159 6 164 4 7 254 0 281 -9z m0 -450 c9 -3 12 -296 12 -1424 l0 -1422
-139 4 c-77 2 -143 7 -148 11 -9 10 -18 2821 -8 2837 6 9 249 5 283 -6z m0
-2980 c9 -2 12 -41 12 -149 l0 -147 -139 4 c-77 2 -142 6 -146 9 -4 5 -9 221
-5 292 0 7 252 -1 278 -9z m0 -430 c9 -3 12 -131 12 -599 l0 -595 -32 1 c-18
0 -85 8 -148 17 l-115 17 3 560 c2 308 3 572 2 588 l0 27 133 -6 c72 -3 138
-7 145 -10z"/>
</g>
</svg>
