<?xml version="1.0" standalone="no"?>
<!DOCTYPE svg PUBLIC "-//W3C//DTD SVG 20010904//EN"
 "http://www.w3.org/TR/2001/REC-SVG-20010904/DTD/svg10.dtd">
<svg version="1.0" xmlns="http://www.w3.org/2000/svg"
 width="3542.000000pt" height="3750.000000pt" viewBox="0 0 3542.000000 3750.000000"
 preserveAspectRatio="xMidYMid meet">

<g transform="translate(0.000000,3750.000000) scale(0.100000,-0.100000)"
fill="#65340A" stroke="none">
<path d="M30830 18015 l0 -655 -125 0 -125 0 0 -377 c0 -208 0 -1624 -1 -3148
0 -1523 0 -2928 0 -3121 l1 -351 48 -7 c26 -3 82 -11 125 -17 l77 -11 0 -563
0 -564 -26 -20 c-14 -11 -41 -25 -60 -31 l-34 -12 25 -30 c14 -16 25 -34 25
-39 0 -21 -33 -58 -61 -68 -26 -9 -29 -14 -29 -55 0 -51 -15 -45 170 -72 117
-17 183 -14 294 17 34 10 36 12 36 54 0 42 -2 46 -35 59 -21 9 -39 26 -45 41
-11 28 -8 38 22 71 19 21 19 21 -24 39 -85 33 -78 -20 -78 597 0 515 1 548 18
548 9 0 53 -5 97 -11 55 -7 88 -8 106 -1 l27 11 -2 3523 -1 3523 -110 3 c-60
1 -115 4 -122 7 -10 3 -12 149 -13 637 0 348 0 643 0 656 0 21 -3 22 -90 22
l-90 0 0 -655z m214 -801 l46 -7 0 -650 0 -650 -82 6 c-46 4 -125 7 -175 7
l-93 0 0 650 0 650 129 0 c70 0 149 -3 175 -6z m0 -1440 l46 -7 0 -160 0 -160
-92 7 c-50 3 -129 6 -175 6 l-83 0 0 160 0 160 129 0 c70 0 149 -3 175 -6z
m33 -468 c4 -4 9 -687 11 -1518 l2 -1511 -91 6 c-51 4 -130 7 -176 7 l-83 0 0
1516 0 1516 164 -4 c91 -2 169 -7 173 -12z m0 -3170 c4 -4 9 -75 11 -157 l3
-150 -133 2 c-73 1 -152 4 -175 7 l-43 4 0 155 0 155 164 -4 c91 -2 169 -7
173 -12z m0 -450 c4 -4 9 -284 11 -622 2 -599 2 -614 -17 -614 -34 0 -311 39
-321 45 -6 4 -10 230 -10 596 1 324 -2 595 -6 601 -8 12 330 7 343 -6z"/>
</g>
</svg>
