<?xml version="1.0" standalone="no"?>
<!DOCTYPE svg PUBLIC "-//W3C//DTD SVG 20010904//EN"
 "http://www.w3.org/TR/2001/REC-SVG-20010904/DTD/svg10.dtd">
<svg version="1.0" xmlns="http://www.w3.org/2000/svg"
 width="3542.000000pt" height="3750.000000pt" viewBox="0 0 3542.000000 3750.000000"
 preserveAspectRatio="xMidYMid meet">

<g transform="translate(0.000000,3750.000000) scale(0.100000,-0.100000)"
fill="#65340A" stroke="none">
<path d="M34478 17943 l-3 -688 -130 0 -130 0 0 -3662 c0 -2014 3 -3664 6
-3667 3 -4 63 -14 132 -23 l127 -17 1 -70 c3 -437 0 -1097 -6 -1115 -4 -14
-26 -30 -61 -46 l-54 -24 25 -25 c41 -41 28 -87 -31 -112 -32 -13 -34 -17 -34
-63 l0 -48 88 -12 c48 -7 98 -14 112 -17 105 -16 140 -15 228 6 l92 22 0 50
c0 46 -2 50 -30 60 -58 20 -73 99 -23 127 15 8 10 13 -38 35 -31 13 -59 32
-63 41 -3 9 -6 274 -6 589 l0 572 103 -13 c56 -7 119 -11 139 -7 l38 6 2 516
c2 285 2 1949 0 3700 l-2 3182 -109 0 c-60 0 -123 3 -140 6 l-31 7 0 682 0
682 -46 7 c-26 3 -71 6 -100 6 l-54 0 -2 -687z m300 -848 c3 -3 6 -313 6 -689
l1 -684 -160 5 c-88 2 -176 5 -195 6 l-35 2 -3 689 -2 689 192 -7 c105 -3 194
-8 196 -11z m0 -1519 c2 -3 4 -85 5 -184 l2 -180 -160 5 c-88 2 -176 5 -195 6
l-35 2 -3 184 -2 184 192 -7 c105 -3 193 -8 196 -10z m0 -510 c2 -3 5 -722 5
-1599 l2 -1595 -160 5 c-88 2 -176 5 -195 6 l-35 2 -3 1599 -2 1599 192 -7
c105 -3 193 -8 196 -10z m-105 -3332 l106 -7 3 -168 3 -167 -160 5 c-88 2
-176 5 -195 6 l-35 2 -3 168 -2 167 88 0 c49 0 137 -3 195 -6z m103 -487 c5
-5 11 -1238 5 -1241 -3 -2 -91 8 -196 23 l-190 27 -3 604 -2 603 192 -7 c105
-3 193 -7 194 -9z"/>
</g>
</svg>
