<?xml version="1.0" standalone="no"?>
<!DOCTYPE svg PUBLIC "-//W3C//DTD SVG 20010904//EN"
 "http://www.w3.org/TR/2001/REC-SVG-20010904/DTD/svg10.dtd">
<svg version="1.0" xmlns="http://www.w3.org/2000/svg"
 width="3542.000000pt" height="3750.000000pt" viewBox="0 0 3542.000000 3750.000000"
 preserveAspectRatio="xMidYMid meet">

<g transform="translate(0.000000,3750.000000) scale(0.100000,-0.100000)"
fill="#65340A" stroke="none">
<path d="M4958 17743 l-3 -768 -132 -3 -133 -3 0 -4119 0 -4119 37 -10 c28 -8
61 -7 131 5 51 9 95 14 98 11 8 -7 7 -1252 -1 -1276 -3 -11 -31 -30 -68 -46
l-63 -28 28 -28 c15 -15 28 -38 28 -52 0 -29 -42 -75 -73 -79 -19 -3 -22 -10
-25 -60 l-3 -57 38 -10 c21 -6 73 -19 116 -30 l79 -20 166 30 c92 16 170 29
175 29 4 0 7 27 7 60 0 52 -3 60 -19 60 -10 0 -30 9 -45 21 -42 33 -34 99 17
126 14 7 7 13 -40 32 -101 41 -93 -25 -93 719 0 358 1 652 3 652 1 0 65 11
141 25 77 14 141 25 143 25 2 0 3 1836 3 4080 l0 4080 -145 0 -144 0 -1 438
c0 240 0 582 0 760 l0 322 -110 0 -110 0 -2 -767z m320 -1675 l-3 -763 -198
-3 -197 -3 0 756 c0 709 1 755 18 756 62 4 286 16 330 17 l52 2 -2 -762z m0
-1125 l-3 -218 -198 -3 -198 -3 1 206 c1 136 5 207 12 211 10 6 186 18 336 22
l52 2 -2 -217z m0 -2150 l-3 -1788 -198 -3 -197 -3 2 1781 c3 1574 5 1780 18
1781 40 3 281 16 328 17 l52 2 -2 -1787z m0 -2130 l-3 -198 -197 -3 -198 -3 0
191 c0 174 1 190 18 191 65 4 286 16 330 17 l52 2 -2 -197z m2 -1013 l0 -670
-22 -5 c-67 -15 -369 -61 -373 -57 -3 3 -5 315 -5 694 0 648 1 688 18 689 65
4 286 16 330 17 l52 2 0 -670z"/>
</g>
</svg>
