<?xml version="1.0" standalone="no"?>
<!DOCTYPE svg PUBLIC "-//W3C//DTD SVG 20010904//EN"
 "http://www.w3.org/TR/2001/REC-SVG-20010904/DTD/svg10.dtd">
<svg version="1.0" xmlns="http://www.w3.org/2000/svg"
 width="3542.000000pt" height="3750.000000pt" viewBox="0 0 3542.000000 3750.000000"
 preserveAspectRatio="xMidYMid meet">

<g transform="translate(0.000000,3750.000000) scale(0.100000,-0.100000)"
fill="#65340A" stroke="none">
<path d="M10020 17865 l0 -715 -77 -2 c-43 0 -91 -2 -108 -4 -16 -1 -40 -2
-53 -3 l-23 -1 3 -3835 3 -3835 44 -6 c25 -4 72 -2 106 5 34 6 72 11 84 11
l21 0 0 -595 c0 -582 0 -595 -20 -615 -11 -11 -24 -20 -29 -20 -5 0 -25 -7
-46 -16 l-37 -15 26 -24 c35 -32 35 -77 0 -104 -15 -12 -35 -21 -45 -21 -16 0
-19 -8 -19 -54 0 -63 -12 -55 136 -86 l100 -21 125 21 c199 33 179 23 179 85
0 48 -2 53 -25 59 -32 8 -65 44 -65 71 0 23 33 65 53 66 7 0 -13 11 -43 25
-99 45 -90 -20 -90 673 l0 609 68 12 c37 6 90 14 117 18 l50 7 5 50 c3 28 5
1740 5 3805 l0 3755 -114 -4 c-70 -2 -116 1 -120 7 -3 6 -6 326 -5 711 l1 701
-104 0 -103 0 0 -715z m263 -1532 c-1 -373 -2 -690 -2 -704 l-1 -26 -161 -8
c-88 -4 -163 -5 -165 -2 -3 3 -6 319 -6 703 l0 699 83 6 c46 3 122 6 169 7
l85 2 -2 -677z m-2 -935 c2 -103 -1 -311 -3 -313 -2 -2 -76 -6 -165 -10 l-163
-7 0 185 0 186 83 4 c45 1 119 4 165 5 l82 2 1 -52z m-1 -1305 c-1 -461 2
-1205 5 -1653 3 -448 2 -820 -2 -826 -5 -7 -69 -14 -170 -19 l-163 -7 0 188
c0 104 0 704 0 1334 0 630 0 1294 0 1477 l0 332 83 4 c45 1 119 4 165 5 l82 2
0 -837z m4 -2715 c7 -79 4 -253 -4 -261 -3 -3 -78 -8 -167 -12 l-163 -7 0 170
0 171 83 4 c45 1 119 4 163 5 l82 2 6 -72z m-1 -455 c3 -21 5 -305 6 -630 l1
-593 -23 -5 c-12 -3 -80 -14 -152 -25 -71 -11 -139 -23 -150 -25 -20 -4 -20 1
-18 318 1 177 2 471 2 654 l1 332 83 4 c45 1 119 4 163 5 l82 2 5 -37z"/>
</g>
</svg>
