<?xml version="1.0" standalone="no"?>
<!DOCTYPE svg PUBLIC "-//W3C//DTD SVG 20010904//EN"
 "http://www.w3.org/TR/2001/REC-SVG-20010904/DTD/svg10.dtd">
<svg version="1.0" xmlns="http://www.w3.org/2000/svg"
 width="2644.000000pt" height="2800.000000pt" viewBox="0 0 2644.000000 2800.000000"
 preserveAspectRatio="xMidYMid meet">

<g transform="translate(0.000000,2800.000000) scale(0.100000,-0.100000)"
fill="#65340A" stroke="none">
<path d="M4498 14634 l-78 -108 0 -603 c0 -332 -4 -603 -8 -603 -5 0 -14 -11
-21 -24 -11 -19 -10 -28 3 -53 13 -26 13 -33 1 -49 -20 -27 -18 -39 10 -65 31
-30 31 -63 0 -114 -14 -22 -25 -49 -25 -60 1 -16 6 -13 33 18 18 20 35 37 40
37 20 0 0 -29 -72 -104 -96 -100 -108 -134 -70 -203 13 -23 26 -43 30 -43 13
0 28 47 27 87 -1 42 18 103 31 103 13 0 51 -59 51 -80 0 -11 -30 -53 -70 -95
-99 -108 -102 -137 -19 -235 37 -44 69 -121 69 -165 0 -11 -12 -31 -25 -44
-28 -26 -31 -47 -10 -75 13 -17 12 -22 -2 -46 -15 -26 -15 -29 6 -58 l21 -30
0 -719 c0 -697 -1 -719 -20 -743 -23 -30 -24 -48 -5 -74 12 -16 12 -21 0 -40
-21 -28 -19 -39 11 -71 20 -22 25 -34 20 -58 -4 -17 -13 -38 -21 -47 -17 -19
-32 -80 -19 -80 5 0 20 16 33 35 25 37 41 45 41 20 0 -8 -36 -50 -79 -93 -101
-99 -110 -131 -61 -210 18 -29 23 -32 36 -21 12 9 15 24 11 51 -5 39 5 90 23
118 8 13 14 10 41 -16 27 -27 30 -34 20 -53 -7 -12 -9 -25 -6 -30 3 -5 -19
-31 -49 -58 -69 -61 -100 -113 -91 -151 3 -15 29 -56 57 -90 28 -35 48 -65 45
-68 -3 -3 1 -21 9 -39 20 -49 17 -77 -11 -104 -28 -26 -31 -47 -11 -74 12 -16
12 -22 -2 -46 -15 -26 -14 -30 6 -59 l22 -30 -2 -804 -3 -803 -47 -25 -48 -26
22 -22 c18 -18 20 -26 12 -49 -5 -15 -22 -34 -37 -41 -22 -11 -27 -20 -27 -51
l0 -39 123 -7 c98 -5 141 -3 210 10 l87 18 0 42 c0 37 -3 44 -25 49 -33 8 -51
46 -36 75 7 11 16 21 21 21 23 0 7 19 -25 30 -70 23 -65 -42 -65 836 0 781 0
795 20 816 23 25 25 50 8 78 -10 15 -9 24 2 44 11 22 11 30 0 51 -7 14 -17 25
-22 25 -11 0 -10 67 2 111 5 19 24 48 41 65 38 35 69 94 69 129 0 14 -7 42
-15 62 -14 34 -14 39 6 80 31 65 23 118 -30 186 -22 30 -41 65 -41 78 0 13 -9
39 -20 57 -26 42 -26 87 0 114 23 25 25 50 8 78 -10 15 -9 24 2 44 11 22 11
30 0 51 -7 14 -17 25 -22 25 -4 0 -8 329 -8 730 0 402 4 730 8 730 5 0 15 11
22 25 11 21 11 29 0 51 -11 20 -12 29 -2 44 18 29 15 54 -8 75 -39 35 -16 151
40 200 27 24 60 87 60 114 0 12 -7 39 -16 61 -15 38 -15 42 5 83 33 68 28 105
-24 176 -29 39 -45 71 -45 90 0 15 -9 40 -20 53 -28 36 -29 89 -2 118 25 27
27 42 10 70 -10 16 -10 24 0 40 17 29 15 54 -8 75 -19 18 -20 33 -22 723 l-3
705 -77 -109z m52 -1730 c0 -7 -10 -25 -23 -40 l-23 -27 -28 33 -27 33 27 28
28 29 23 -22 c13 -12 23 -27 23 -34z m76 -89 c7 -19 14 -51 14 -72 l0 -38 -41
42 -42 41 22 31 c12 17 25 31 27 31 3 0 12 -16 20 -35z m46 -27 c-15 -15 -26
-4 -18 18 5 13 9 15 18 6 9 -9 9 -15 0 -24z m-117 -99 l40 -40 -43 -41 -44
-40 -43 42 -44 43 42 38 c23 21 44 38 47 39 3 0 24 -18 45 -41z m-114 -193
c-7 -13 -11 -28 -8 -33 3 -4 -1 -17 -9 -28 -8 -10 -14 -14 -14 -9 0 6 5 15 12
22 9 9 9 12 0 12 -22 0 -61 108 -45 124 4 4 23 -9 42 -28 32 -32 34 -37 22
-60z m219 67 c0 -22 -12 -43 -26 -43 -8 0 -21 -17 -30 -37 l-16 -38 -15 38
c-15 37 -15 39 12 66 27 29 75 38 75 14z m-130 -148 c0 -35 -23 -49 -44 -26
-17 18 -17 21 -1 45 14 21 20 24 31 15 8 -6 14 -22 14 -34z m9 -2229 c23 -24
23 -25 5 -55 -22 -37 -30 -38 -61 -9 -29 27 -29 36 -1 65 27 29 29 29 57 -1z
m87 -111 c7 -19 14 -51 14 -72 l0 -38 -37 37 -37 37 19 36 c11 19 21 35 23 35
2 0 10 -16 18 -35z m44 -27 c0 -16 -3 -19 -11 -11 -6 6 -8 16 -5 22 11 17 16
13 16 -11z m-102 -102 l37 -35 -40 -40 c-21 -23 -44 -41 -49 -41 -6 0 -27 17
-48 37 l-38 37 37 38 c20 21 43 38 50 38 7 0 30 -15 51 -34z m-128 -206 l-22
-31 -15 21 c-19 27 -33 87 -26 107 4 11 16 5 46 -25 l40 -40 -23 -32z m230 85
c0 -17 -26 -55 -37 -55 -8 0 -21 -16 -29 -35 -17 -41 -19 -42 -21 -14 -1 12
-6 26 -12 32 -17 17 37 74 70 75 16 0 29 -1 29 -3z m-142 -149 c5 -39 -13 -55
-35 -33 -15 14 -15 20 -3 42 17 32 34 27 38 -9z m-107 1 c-10 -9 -11 -8 -5 6
3 10 9 15 12 12 3 -3 0 -11 -7 -18z"/>
</g>
</svg>
