<?xml version="1.0" standalone="no"?>
<!DOCTYPE svg PUBLIC "-//W3C//DTD SVG 20010904//EN"
 "http://www.w3.org/TR/2001/REC-SVG-20010904/DTD/svg10.dtd">
<svg version="1.0" xmlns="http://www.w3.org/2000/svg"
 width="2644.000000pt" height="2800.000000pt" viewBox="0 0 2644.000000 2800.000000"
 preserveAspectRatio="xMidYMid meet">

<g transform="translate(0.000000,2800.000000) scale(0.100000,-0.100000)"
fill="#65340A" stroke="none">
<path d="M21590 27271 c0 -635 -2 -730 -15 -741 -18 -15 -20 -61 -3 -78 9 -9
9 -18 0 -37 -17 -37 -15 -59 8 -88 31 -39 25 -76 -20 -136 -22 -29 -41 -63
-41 -75 -1 -11 -2 -33 -3 -47 -1 -14 -12 -39 -25 -55 -57 -72 -67 -160 -27
-238 20 -40 22 -53 14 -85 -13 -52 4 -109 51 -168 21 -26 45 -54 54 -62 24
-19 22 -76 -3 -101 -23 -23 -25 -48 -8 -85 9 -19 9 -28 0 -37 -17 -17 -15 -60
3 -84 12 -16 14 -130 15 -811 0 -552 -3 -794 -11 -798 -21 -14 -27 -50 -12
-79 12 -23 13 -34 4 -48 -17 -27 -13 -62 9 -86 30 -32 25 -72 -14 -123 -35
-45 -59 -110 -50 -134 3 -8 -6 -29 -20 -48 -61 -80 -71 -157 -30 -238 22 -44
24 -55 14 -83 -21 -64 9 -133 89 -211 37 -37 43 -93 11 -127 -22 -24 -26 -68
-9 -85 8 -8 7 -21 -2 -47 -12 -32 -11 -41 4 -69 16 -30 17 -122 15 -1422 l-3
-1390 -40 -20 c-22 -11 -42 -21 -43 -22 -2 -1 6 -14 18 -30 18 -25 19 -33 9
-55 -6 -14 -22 -31 -35 -37 -13 -6 -24 -19 -24 -30 0 -19 7 -19 188 -14 103 2
193 7 201 9 10 3 5 11 -17 24 -43 26 -51 64 -22 95 l23 24 -42 17 c-23 9 -46
25 -51 35 -6 11 -10 523 -10 1394 l0 1376 22 29 c20 27 20 33 8 70 -10 31 -11
43 -2 52 18 18 14 50 -8 78 -13 17 -20 41 -20 75 0 47 4 54 60 119 66 76 70
93 44 163 l-17 43 37 59 c20 32 36 69 36 82 0 12 -21 53 -47 90 -43 64 -46 71
-36 103 13 41 -1 79 -46 120 -37 36 -42 85 -11 118 22 24 26 58 8 76 -9 9 -8
21 2 51 12 36 11 43 -9 76 -21 36 -21 37 -21 811 0 761 0 776 20 801 22 28 26
58 10 68 -5 3 -10 17 -10 30 0 13 5 27 10 30 16 10 11 48 -10 75 -14 17 -20
41 -20 76 0 47 4 56 43 100 85 96 90 112 58 184 l-19 43 39 60 c21 33 39 70
39 81 0 12 -22 53 -50 90 -40 57 -47 73 -39 88 22 42 14 77 -29 121 -48 49
-56 93 -22 129 22 24 26 58 8 76 -9 9 -8 21 2 51 11 36 11 42 -9 69 -21 30
-21 31 -21 761 l0 731 -75 0 -75 0 0 -729z m138 -1136 c-3 -3 -9 2 -12 12 -6
14 -5 15 5 6 7 -7 10 -15 7 -18z m-58 -149 c-33 -34 -41 -38 -54 -26 -9 7 -20
27 -25 44 -7 27 -4 35 23 64 l31 33 32 -38 32 -38 -39 -39z m129 -42 c27 -34
27 -91 0 -123 l-20 -25 -47 47 -46 47 39 40 c21 22 42 40 46 40 4 0 17 -12 28
-26z m-241 -21 c19 -36 19 -36 -2 -69 -12 -18 -24 -33 -28 -34 -9 0 -10 85 -2
118 4 12 8 22 10 22 2 0 12 -16 22 -37z m124 -217 c-19 -23 -40 -43 -45 -45
-13 -5 -77 60 -77 79 0 8 14 32 31 53 l30 37 49 -42 49 -42 -37 -40z m108 -44
c-1 -28 -38 -102 -52 -102 -7 0 -19 9 -26 21 -12 18 -9 25 23 65 36 44 55 49
55 16z m-190 -89 c0 -24 -18 -13 -29 19 -11 31 -11 31 9 13 11 -10 20 -24 20
-32z m75 -72 c3 -5 1 -12 -5 -16 -5 -3 -10 1 -10 9 0 18 6 21 15 7z m13 -2434
l32 -33 -39 -38 c-43 -42 -52 -41 -82 7 l-19 32 32 32 c18 18 35 33 38 33 3 0
20 -15 38 -33z m132 -180 c0 -23 -7 -51 -15 -61 -14 -18 -16 -18 -59 20 -24
21 -45 43 -45 49 -1 5 16 26 37 48 l37 38 23 -26 c15 -18 22 -39 22 -68z
m-255 47 c15 -29 17 -39 7 -52 -7 -9 -17 -27 -24 -39 -18 -37 -28 -27 -28 30
0 56 8 97 19 97 4 0 15 -16 26 -36z m128 -219 c-21 -24 -43 -44 -48 -44 -6 -1
-28 17 -50 39 l-38 39 37 46 38 45 49 -41 49 -41 -37 -43z m97 -40 c0 -19 -26
-84 -42 -102 -9 -11 -13 -10 -24 4 -21 27 -17 44 18 80 35 36 48 41 48 18z
m-192 -96 c-3 -23 -4 -23 -21 8 -24 44 -22 62 4 37 13 -13 19 -31 17 -45z m74
-81 c-9 -9 -12 -7 -12 12 0 19 3 21 12 12 9 -9 9 -15 0 -24z"/>
</g>
</svg>
