<?xml version="1.0" standalone="no"?>
<!DOCTYPE svg PUBLIC "-//W3C//DTD SVG 20010904//EN"
 "http://www.w3.org/TR/2001/REC-SVG-20010904/DTD/svg10.dtd">
<svg version="1.0" xmlns="http://www.w3.org/2000/svg"
 width="2644.000000pt" height="2800.000000pt" viewBox="0 0 2644.000000 2800.000000"
 preserveAspectRatio="xMidYMid meet">

<g transform="translate(0.000000,2800.000000) scale(0.100000,-0.100000)"
fill="#65340A" stroke="none">
<path d="M22810 27850 c0 -137 -2 -153 -20 -172 -21 -23 -27 -63 -10 -73 14
-9 13 -41 -2 -65 -11 -17 -9 -27 10 -63 29 -56 28 -92 -5 -131 -34 -40 -63
-103 -63 -139 0 -16 -9 -42 -20 -57 -53 -75 -64 -170 -26 -243 18 -37 22 -57
18 -97 -6 -68 18 -128 74 -182 38 -37 44 -48 44 -85 0 -24 -4 -43 -8 -43 -5 0
-14 -11 -21 -24 -11 -19 -11 -30 0 -60 10 -28 10 -39 1 -48 -18 -18 -14 -49 8
-78 19 -24 20 -46 20 -818 0 -779 0 -793 -20 -814 -21 -23 -27 -63 -10 -73 14
-9 13 -41 -2 -65 -11 -17 -9 -27 10 -63 32 -60 28 -89 -17 -147 -36 -45 -52
-92 -49 -140 1 -8 -14 -37 -31 -63 -46 -67 -52 -143 -18 -210 21 -40 24 -58
20 -105 -7 -71 9 -110 71 -178 53 -60 62 -108 26 -146 -23 -25 -25 -50 -8 -78
9 -15 9 -24 -1 -44 -15 -27 -9 -67 14 -90 13 -13 15 -125 15 -886 0 -524 -4
-878 -9 -889 -6 -10 -28 -26 -50 -36 l-40 -18 19 -25 c11 -13 20 -32 20 -42 0
-19 -40 -60 -58 -60 -7 0 -12 -5 -12 -11 0 -11 238 -6 317 7 30 4 32 6 22 31
-8 22 -6 32 10 54 l21 28 -43 23 -42 23 -3 887 c-2 864 -2 888 17 919 18 30
19 34 4 63 -12 23 -13 34 -4 48 16 26 13 60 -9 88 -13 16 -20 41 -20 71 0 42
5 52 60 114 33 38 63 78 66 91 3 12 -4 44 -16 72 l-22 51 35 49 c61 82 60 98
-15 199 -33 45 -37 56 -28 78 18 48 11 72 -35 122 -51 54 -59 97 -25 128 23
20 25 43 9 78 -8 19 -8 31 4 54 15 27 14 32 -4 62 -18 30 -19 57 -19 830 0
698 2 800 15 811 18 15 20 53 4 78 -9 14 -8 25 4 48 15 29 14 33 -9 73 -26 46
-31 99 -12 134 6 12 35 50 65 85 29 35 53 67 53 72 0 4 -9 33 -21 63 l-21 54
36 55 c55 86 55 94 -4 173 -50 66 -52 70 -41 105 17 58 14 69 -34 117 -36 35
-45 51 -45 78 0 19 4 35 10 35 5 0 16 12 24 28 12 24 12 31 -1 56 -12 23 -13
34 -4 48 15 24 14 61 -1 76 -9 9 -15 66 -18 180 l-5 167 -72 3 -73 3 0 -151z
m135 -572 l16 -33 -21 24 c-11 13 -20 27 -20 32 0 18 10 8 25 -23z m-52 -83
l27 -31 -44 -43 -44 -43 -16 30 c-9 17 -16 41 -16 53 0 24 50 84 60 72 3 -5
17 -22 33 -38z m117 -115 c41 -41 35 -104 -12 -134 -15 -9 -25 -3 -60 31 l-42
43 39 40 c21 22 43 40 47 40 4 0 17 -9 28 -20z m-240 -23 c15 -30 14 -35 -5
-69 -11 -21 -23 -38 -27 -38 -9 0 -10 85 -2 118 8 30 16 28 34 -11z m111 -134
c21 -20 39 -42 39 -48 -1 -12 -67 -85 -77 -85 -14 0 -73 64 -73 80 0 15 56 90
67 90 2 0 22 -17 44 -37z m115 -155 c-4 -18 -15 -44 -25 -58 -19 -24 -20 -24
-40 -6 -12 11 -21 22 -21 26 0 3 16 26 36 49 41 48 61 43 50 -11z m-180 -75
c-4 -4 -14 1 -22 11 -22 31 -17 43 8 19 12 -13 18 -26 14 -30z m128 -2429 c5
-14 4 -15 -9 -4 -17 14 -19 20 -6 20 5 0 12 -7 15 -16z m-44 -89 l33 -34 -44
-41 -44 -40 -18 23 c-32 41 -32 66 -1 98 15 16 31 29 34 29 3 0 21 -16 40 -35z
m114 -114 c28 -30 32 -92 8 -120 l-19 -25 -47 38 c-25 21 -46 41 -46 43 0 11
65 81 76 82 6 1 19 -8 28 -18z m-240 -25 c18 -34 18 -35 -4 -70 -12 -20 -26
-36 -31 -36 -10 0 -12 83 -3 118 9 30 16 28 38 -12z m124 -139 l42 -43 -44
-43 -44 -43 -43 40 -43 40 34 46 c19 25 40 46 45 46 6 0 30 -19 53 -43z m85
-184 c-23 -46 -36 -50 -53 -18 -13 24 -11 28 26 66 l39 40 3 -26 c2 -14 -5
-42 -15 -62z m-169 -33 c-7 -7 -16 2 -28 27 l-17 38 27 -27 c19 -19 25 -31 18
-38z m76 -71 c0 -5 -4 -9 -10 -9 -5 0 -10 7 -10 16 0 8 5 12 10 9 6 -3 10 -10
10 -16z"/>
</g>
</svg>
