<?xml version="1.0" standalone="no"?>
<!DOCTYPE svg PUBLIC "-//W3C//DTD SVG 20010904//EN"
 "http://www.w3.org/TR/2001/REC-SVG-20010904/DTD/svg10.dtd">
<svg version="1.0" xmlns="http://www.w3.org/2000/svg"
 width="2644.000000pt" height="2800.000000pt" viewBox="0 0 2644.000000 2800.000000"
 preserveAspectRatio="xMidYMid meet">

<g transform="translate(0.000000,2800.000000) scale(0.100000,-0.100000)"
fill="#65340A" stroke="none">
<path d="M23925 27970 c-13 -61 22 -145 89 -209 27 -26 36 -43 36 -68 0 -18
-4 -33 -10 -33 -5 0 -16 -13 -24 -28 -13 -25 -13 -32 1 -60 14 -29 14 -34 -1
-57 -15 -23 -15 -28 7 -72 l23 -48 -2 -788 c-2 -658 -5 -791 -16 -810 -8 -12
-17 -27 -21 -32 -3 -6 1 -25 9 -42 14 -28 14 -34 0 -60 -14 -27 -13 -32 10
-72 32 -56 30 -80 -7 -127 -45 -57 -59 -88 -59 -134 0 -29 -8 -51 -25 -74 -30
-40 -55 -108 -55 -151 0 -18 12 -57 28 -87 23 -47 26 -60 18 -96 -12 -58 14
-123 76 -188 54 -57 63 -99 28 -134 -22 -22 -27 -69 -9 -87 9 -9 8 -20 -4 -45
-15 -31 -15 -35 5 -68 20 -35 20 -38 20 -1443 0 -1019 -3 -1412 -12 -1421 -6
-8 -25 -20 -43 -27 -43 -17 -42 -16 -25 -36 32 -35 26 -79 -12 -101 -45 -25
-37 -34 28 -28 31 3 110 8 175 12 86 4 116 9 108 17 -17 17 -13 55 9 77 20 20
20 20 -11 35 -16 9 -39 25 -50 36 -19 19 -19 45 -19 1425 0 1391 0 1406 20
1431 22 28 26 58 10 68 -14 9 -13 41 2 65 11 17 9 27 -10 63 -13 26 -22 60
-22 88 0 42 5 52 60 114 66 75 70 90 44 164 l-17 46 42 65 c50 77 49 86 -15
173 -32 45 -43 68 -38 82 20 64 17 80 -30 132 -52 58 -60 99 -26 135 23 25 25
40 9 70 -8 16 -8 30 1 59 11 33 10 41 -9 72 -21 34 -21 35 -21 827 l0 792 22
30 c19 27 20 34 9 64 -10 27 -10 41 0 68 11 30 10 37 -9 64 -16 22 -22 45 -22
84 0 50 3 56 60 122 63 73 68 88 48 143 l-12 33 -77 0 c-76 0 -78 -1 -103 -32
l-25 -33 -34 33 c-26 25 -41 32 -74 32 -38 0 -42 -3 -48 -30z m311 -15 c7 -17
-35 -107 -52 -112 -6 -2 -18 7 -27 20 -14 22 -13 25 20 65 37 45 50 51 59 27z
m-189 -90 c9 -25 -4 -29 -17 -6 -7 15 -7 21 0 21 6 0 13 -7 17 -15z m139
-2477 c16 -31 16 -32 0 -19 -23 19 -40 51 -27 51 6 0 18 -15 27 -32z m-52 -84
l29 -35 -42 -42 -42 -42 -20 24 c-34 41 -35 69 -3 102 15 16 33 29 38 28 6 0
24 -16 40 -35z m121 -117 c22 -34 27 -79 13 -107 -20 -37 -40 -35 -89 9 l-44
39 40 41 c45 47 59 50 80 18z m-254 -98 c-14 -20 -29 -35 -33 -32 -12 6 -10
88 2 119 l11 28 23 -39 23 -38 -26 -38z m138 -72 l33 -35 -37 -41 c-21 -23
-43 -41 -49 -41 -14 0 -76 61 -76 75 0 7 14 31 30 54 35 47 42 46 99 -12z
m101 -114 c0 -23 -35 -98 -48 -107 -5 -3 -17 6 -27 20 -17 26 -16 27 21 65 42
43 54 48 54 22z m-200 -68 c6 -8 10 -22 8 -32 -3 -14 -8 -11 -21 15 -18 32 -9
44 13 17z"/>
</g>
</svg>
