<?xml version="1.0" standalone="no"?>
<!DOCTYPE svg PUBLIC "-//W3C//DTD SVG 20010904//EN"
 "http://www.w3.org/TR/2001/REC-SVG-20010904/DTD/svg10.dtd">
<svg version="1.0" xmlns="http://www.w3.org/2000/svg"
 width="2644.000000pt" height="2800.000000pt" viewBox="0 0 2644.000000 2800.000000"
 preserveAspectRatio="xMidYMid meet">

<g transform="translate(0.000000,2800.000000) scale(0.100000,-0.100000)"
fill="#65340A" stroke="none">
<path d="M14750 12750 c0 -1217 0 -1231 -20 -1252 -23 -25 -25 -50 -8 -78 10
-15 10 -27 -1 -55 -14 -40 -2 -89 25 -99 24 -9 15 -59 -20 -109 -39 -55 -49
-86 -38 -117 8 -21 10 -20 42 21 49 64 50 65 50 46 0 -9 -36 -55 -81 -102
-119 -127 -129 -164 -68 -260 l30 -48 18 29 c13 21 15 33 8 42 -17 21 -12 103
7 141 l18 34 38 -44 c52 -60 47 -85 -39 -169 -110 -107 -116 -157 -31 -254 62
-71 66 -79 75 -144 6 -48 5 -55 -19 -79 -26 -26 -35 -67 -16 -78 6 -3 10 -17
10 -30 0 -13 -4 -27 -10 -30 -16 -10 -11 -48 10 -75 19 -24 20 -47 20 -860 0
-813 -1 -836 -20 -860 -21 -27 -26 -65 -10 -75 6 -3 10 -17 10 -30 0 -13 -4
-27 -10 -30 -18 -11 -10 -53 16 -84 21 -25 25 -38 20 -65 -4 -18 -16 -42 -27
-52 -33 -30 -51 -72 -44 -105 4 -16 10 -29 15 -29 4 0 25 23 45 51 20 28 38
49 41 46 12 -12 -21 -58 -85 -121 -85 -83 -118 -142 -103 -185 11 -30 59 -111
67 -111 2 0 11 10 20 23 13 21 13 27 -1 63 -13 33 -14 49 -5 81 18 67 35 73
82 27 25 -25 37 -44 33 -54 -3 -8 -7 -26 -8 -40 -1 -17 -19 -39 -61 -72 -33
-27 -70 -65 -82 -86 -39 -64 -32 -88 61 -197 34 -39 39 -53 43 -109 5 -51 2
-68 -11 -81 -24 -24 -30 -63 -16 -91 10 -18 11 -30 2 -49 -17 -37 -15 -58 8
-83 20 -21 20 -35 20 -1234 0 -1347 6 -1239 -69 -1273 l-41 -18 21 -23 c30
-32 22 -74 -18 -99 -29 -18 -32 -25 -33 -67 0 -55 -3 -54 160 -63 58 -4 115
-11 128 -18 17 -8 25 -8 30 0 4 6 35 25 70 42 62 31 62 32 62 75 0 36 -4 45
-24 54 -14 6 -32 22 -41 36 -14 20 -14 29 -4 48 7 13 19 28 27 34 13 9 6 14
-35 28 -28 9 -54 24 -57 32 -3 9 -6 560 -6 1226 l0 1210 21 30 c20 27 21 33 8
70 -10 31 -10 44 -1 59 18 29 14 55 -13 80 -18 18 -25 34 -25 66 0 36 7 50 51
100 81 93 101 149 75 223 -13 39 -13 44 6 77 46 77 41 153 -16 233 -22 31 -35
62 -38 94 -4 32 -17 64 -42 100 -35 51 -49 116 -26 116 6 0 18 16 27 35 16 33
16 38 1 63 -14 24 -14 31 -2 52 18 34 17 51 -6 80 -19 24 -20 47 -20 860 0
813 1 836 20 860 24 30 24 42 5 79 -12 25 -12 31 0 47 8 11 14 28 14 39 0 24
-21 55 -38 55 -15 0 -15 85 1 113 6 12 30 44 54 70 23 26 50 67 59 92 16 41
16 47 0 97 -16 53 -16 55 5 91 49 82 45 136 -17 225 -28 41 -37 65 -38 97 0
33 -10 56 -38 97 -44 65 -47 103 -12 137 28 26 31 57 10 85 -12 16 -12 22 0
47 19 37 19 45 -5 79 -20 28 -20 47 -22 1251 l-3 1224 -82 3 -83 3 0 -1231z
m132 -1717 c35 -33 35 -39 -2 -83 l-29 -35 -40 40 -41 39 32 33 c18 18 36 33
42 33 5 0 23 -12 38 -27z m93 -113 c10 -16 26 -141 19 -151 -5 -9 -83 68 -84
84 0 11 44 77 52 77 4 0 10 -5 13 -10z m55 -16 c0 -8 -5 -12 -10 -9 -6 4 -8
11 -5 16 9 14 15 11 15 -7z m-130 -159 l44 -45 -47 -48 -47 -47 -47 47 -47 48
44 45 c24 25 47 45 50 45 3 0 26 -20 50 -45z m-146 -160 c36 -43 36 -45 20
-70 -9 -14 -20 -25 -24 -25 -10 0 -50 94 -50 119 0 32 14 25 54 -24z m212 2
c-10 -41 -36 -97 -45 -97 -5 0 -12 11 -15 25 -5 19 1 34 21 60 32 40 48 45 39
12z m-166 -91 c0 -3 -4 -8 -10 -11 -5 -3 -10 -1 -10 4 0 6 5 11 10 11 6 0 10
-2 10 -4z m58 -52 c1 -10 -2 -26 -8 -34 -8 -13 -11 -13 -26 1 -13 14 -14 20
-2 38 15 25 32 23 36 -5z m24 -2581 c34 -33 35 -49 4 -88 l-25 -30 -40 40 -41
39 32 33 c18 18 34 33 37 33 3 0 18 -12 33 -27z m97 -125 c13 -35 22 -138 13
-138 -5 0 -23 18 -41 40 l-32 41 18 39 c21 45 30 49 42 18z m-69 -163 l44 -45
-47 -48 -47 -47 -47 48 -48 48 45 43 c25 24 47 45 50 45 3 1 26 -19 50 -44z
m-153 -157 c42 -41 42 -41 25 -70 -21 -35 -33 -35 -54 0 -19 33 -35 112 -22
112 4 0 27 -19 51 -42z m189 -63 c-16 -38 -36 -39 -36 -3 0 28 44 77 48 55 2
-8 -4 -32 -12 -52z m-86 -72 c0 -20 -13 -53 -20 -53 -14 0 -21 32 -9 46 12 15
29 19 29 7z"/>
</g>
</svg>
