<?xml version="1.0" standalone="no"?>
<!DOCTYPE svg PUBLIC "-//W3C//DTD SVG 20010904//EN"
 "http://www.w3.org/TR/2001/REC-SVG-20010904/DTD/svg10.dtd">
<svg version="1.0" xmlns="http://www.w3.org/2000/svg"
 width="2644.000000pt" height="2800.000000pt" viewBox="0 0 2644.000000 2800.000000"
 preserveAspectRatio="xMidYMid meet">

<g transform="translate(0.000000,2800.000000) scale(0.100000,-0.100000)"
fill="#65340A" stroke="none">
<path d="M14250 12770 c0 -800 3 -1210 10 -1210 6 0 10 -5 10 -11 0 -6 -9 -9
-20 -6 -25 6 -26 -1 -2 -19 15 -12 14 -13 -10 -14 -16 0 -28 -5 -28 -10 0 -24
32 -70 48 -71 11 -1 8 -4 -8 -9 -22 -6 -23 -8 -8 -15 24 -10 13 -25 -12 -18
-30 8 -26 -31 5 -55 35 -28 33 -69 -6 -118 -43 -54 -52 -81 -39 -118 9 -26 7
-33 -14 -55 -83 -89 -94 -144 -45 -230 l31 -53 18 28 c10 17 14 33 9 38 -15
16 -10 115 7 148 l16 31 38 -44 c52 -60 47 -86 -36 -164 -68 -64 -99 -121 -89
-164 3 -14 32 -60 65 -101 50 -63 60 -82 66 -128 6 -47 4 -56 -17 -78 -18 -19
-19 -24 -6 -24 9 0 19 -5 23 -11 5 -8 -1 -10 -20 -7 -29 6 -31 -1 -14 -48 7
-20 20 -35 32 -37 18 -4 17 -4 -3 -6 -24 -1 -24 -1 -5 -17 18 -15 18 -15 -8
-11 -35 5 -38 -18 -8 -56 20 -25 20 -40 20 -849 0 -628 3 -827 12 -836 9 -9 8
-12 -6 -12 -9 0 -14 5 -11 10 3 6 2 10 -3 10 -6 0 -12 -7 -16 -15 -3 -9 0 -15
9 -15 7 0 17 -5 21 -11 5 -8 -1 -10 -20 -7 -25 5 -27 3 -22 -18 3 -13 9 -36
13 -51 3 -16 13 -34 22 -41 14 -12 12 -13 -11 -9 -37 6 -38 -24 -3 -59 34 -34
33 -75 -4 -116 -46 -54 -54 -74 -41 -113 11 -33 9 -37 -39 -100 -62 -81 -65
-108 -17 -188 l35 -57 -25 -55 c-16 -34 -23 -63 -19 -75 4 -11 31 -51 60 -88
38 -47 57 -81 65 -115 13 -62 13 -73 -3 -89 -7 -7 -20 -24 -29 -37 -15 -22
-15 -26 0 -58 13 -27 14 -38 4 -53 -17 -28 -15 -51 8 -80 19 -24 20 -49 20
-1222 0 -1336 7 -1209 -72 -1249 -39 -20 -40 -21 -19 -35 14 -11 21 -26 21
-50 0 -29 -6 -38 -35 -55 -31 -19 -35 -25 -35 -64 0 -50 0 -50 155 -60 50 -4
100 -11 112 -17 18 -9 35 -4 100 30 l78 41 1 41 c0 30 -5 44 -15 48 -29 10
-61 45 -61 67 0 12 9 30 20 40 28 26 26 31 -24 45 -25 7 -47 18 -50 26 -3 8
-6 551 -7 1208 l-2 1194 22 28 c24 31 26 51 6 78 -12 16 -12 22 0 47 21 39 19
53 -10 80 -18 17 -25 35 -25 62 0 47 11 69 62 125 22 24 46 59 54 77 17 41 18
105 3 138 -9 19 -6 32 15 72 42 79 32 152 -34 235 -18 23 -30 50 -30 68 0 40
-15 78 -45 114 -25 30 -36 108 -15 108 5 0 17 14 26 32 15 29 15 34 0 59 -15
26 -15 30 1 63 16 35 16 37 -6 66 l-22 30 -1 819 -1 819 22 30 c25 36 26 45 5
77 -15 23 -15 27 0 50 22 33 20 48 -9 79 -45 49 -31 129 35 191 65 61 87 147
55 209 -15 28 -14 31 11 70 52 77 43 148 -27 237 -22 28 -29 47 -29 82 0 37
-7 55 -35 91 -41 54 -46 102 -15 131 29 26 33 50 15 85 -14 27 -14 33 0 52 21
30 19 50 -7 78 l-21 23 0 1203 -1 1204 -83 0 -83 0 0 -1210z m-6 -1661 c-37
-39 -43 -29 -7 15 15 20 30 31 32 25 2 -6 -9 -24 -25 -40z m136 -24 c36 -37
36 -36 -14 -93 l-20 -22 -33 32 c-18 17 -33 39 -33 47 0 15 48 71 60 71 3 0
21 -16 40 -35z m106 -166 c12 -58 10 -89 -5 -89 -4 0 -23 19 -41 41 l-33 42
24 43 c28 53 38 46 55 -37z m44 41 c0 -5 -4 -10 -10 -10 -5 0 -10 5 -10 10 0
6 5 10 10 10 6 0 10 -4 10 -10z m-130 -155 l45 -46 -48 -46 -48 -46 -45 44
c-24 24 -44 48 -44 54 0 10 79 84 90 85 3 0 26 -20 50 -45z m-146 -154 l37
-38 -19 -32 c-15 -25 -21 -29 -30 -18 -30 35 -54 127 -34 127 4 0 25 -17 46
-39z m205 -13 c-5 -18 -14 -46 -21 -62 -11 -27 -12 -27 -25 -10 -19 26 -16 45
14 76 35 37 44 35 32 -4z m-104 -148 c-7 -23 -18 -25 -33 -7 -9 10 -7 19 5 36
14 21 17 22 25 7 5 -9 6 -25 3 -36z m-85 -170 c0 -5 -7 -10 -16 -10 -8 0 -12
5 -9 10 3 6 10 10 16 10 5 0 9 -4 9 -10z m-3 -2026 c-3 -3 -12 -4 -19 -1 -8 3
-5 6 6 6 11 1 17 -2 13 -5z m5 -281 c-6 -10 -20 -27 -33 -38 -24 -21 -20 -10
14 38 21 30 35 31 19 0z m138 -84 c0 -14 -9 -28 -47 -78 -2 -3 -21 13 -43 34
l-39 38 31 38 30 38 34 -27 c19 -15 34 -34 34 -43z m-124 -161 c-9 -12 -16
-30 -16 -40 0 -18 -37 -58 -54 -58 -5 0 -6 3 -3 7 4 3 -2 12 -12 19 -36 26
-34 113 5 156 17 18 19 17 57 -21 37 -38 38 -41 23 -63z m193 61 c13 -38 15
-119 2 -119 -4 0 -21 18 -36 40 -28 40 -28 42 -12 75 21 43 32 44 46 4z m-70
-146 l42 -47 -43 -43 c-23 -24 -47 -43 -52 -43 -13 0 -86 71 -86 84 0 12 80
96 91 96 4 0 26 -21 48 -47z m-153 -154 c42 -41 42 -41 25 -70 -22 -40 -36
-36 -60 14 -20 42 -28 97 -14 97 4 0 26 -18 49 -41z m204 -9 c0 -18 -32 -90
-40 -90 -20 0 -18 45 3 71 23 29 37 36 37 19z m-106 -154 c-7 -29 -27 -30 -32
-2 -5 22 18 50 30 38 5 -5 6 -21 2 -36z"/>
</g>
</svg>
