<?xml version="1.0" standalone="no"?>
<!DOCTYPE svg PUBLIC "-//W3C//DTD SVG 20010904//EN"
 "http://www.w3.org/TR/2001/REC-SVG-20010904/DTD/svg10.dtd">
<svg version="1.0" xmlns="http://www.w3.org/2000/svg"
 width="2644.000000pt" height="2800.000000pt" viewBox="0 0 2644.000000 2800.000000"
 preserveAspectRatio="xMidYMid meet">

<g transform="translate(0.000000,2800.000000) scale(0.100000,-0.100000)"
fill="#65340A" stroke="none">
<path d="M15478 15556 l-78 -158 0 -574 c0 -562 0 -574 -21 -608 -20 -34 -20
-37 -4 -64 16 -27 16 -30 1 -55 -16 -23 -16 -28 -1 -56 8 -17 20 -31 25 -31 6
0 10 -15 10 -34 0 -24 -10 -46 -35 -76 -25 -30 -35 -52 -35 -77 0 -31 2 -34
23 -27 18 5 14 -1 -16 -32 -95 -96 -109 -149 -63 -229 l29 -48 18 24 c10 13
16 31 13 39 -14 38 -15 79 0 113 8 20 19 37 23 37 12 -1 63 -78 63 -97 0 -9
-26 -41 -58 -72 -38 -37 -65 -73 -77 -104 -17 -46 -17 -50 -1 -84 9 -20 37
-60 62 -89 36 -42 46 -62 51 -102 5 -45 3 -55 -21 -82 -31 -37 -31 -39 -10
-69 16 -22 16 -25 0 -53 -17 -28 -17 -30 3 -64 21 -35 21 -44 21 -799 0 -753
0 -764 -21 -799 -19 -33 -19 -37 -4 -66 14 -27 14 -33 0 -52 -21 -30 -19 -41
10 -72 35 -38 32 -74 -10 -127 -23 -29 -35 -55 -35 -75 0 -43 9 -48 39 -22 14
13 1 -4 -28 -37 -100 -111 -110 -148 -65 -229 29 -51 34 -54 58 -28 15 17 15
22 1 48 -8 16 -15 39 -15 52 0 28 26 92 37 92 4 0 22 -17 39 -38 43 -52 37
-80 -31 -138 -34 -29 -60 -62 -74 -94 -19 -45 -20 -53 -8 -82 8 -18 34 -57 59
-86 58 -67 78 -153 42 -182 -30 -26 -35 -48 -19 -80 14 -28 14 -33 -1 -59 -16
-28 -16 -30 5 -59 l21 -30 0 -1351 c0 -742 -3 -1357 -6 -1366 -4 -9 -24 -25
-45 -36 -43 -21 -47 -30 -24 -49 30 -25 16 -74 -27 -96 -26 -14 -29 -19 -26
-57 l3 -42 45 -2 c25 -1 89 -8 142 -14 82 -10 101 -10 130 3 18 8 48 21 66 28
29 11 32 16 32 56 0 30 -4 44 -13 44 -19 0 -57 43 -57 65 0 10 9 29 21 41 l21
22 -36 12 c-72 23 -66 -103 -66 1397 l0 1355 21 30 c21 29 21 31 5 59 -16 27
-16 31 0 58 17 29 17 30 -9 65 -29 37 -35 83 -15 119 6 12 31 44 54 70 56 62
70 110 50 169 -14 40 -14 45 6 78 46 78 41 141 -17 221 -26 34 -35 57 -35 86
0 29 -9 52 -35 89 -39 55 -44 93 -15 119 29 26 33 51 15 79 -16 23 -15 27 1
54 16 29 16 31 -5 60 l-21 30 0 769 c0 747 1 769 20 793 23 30 24 48 5 74 -13
17 -13 22 0 42 20 31 19 42 -10 80 -42 55 -31 107 40 186 58 65 70 108 49 169
-17 45 -17 46 11 93 38 65 32 125 -18 194 -30 40 -37 59 -37 95 0 33 -6 53
-24 74 -46 56 -61 113 -32 130 28 17 38 51 22 80 -12 24 -12 31 2 59 14 30 13
34 -7 62 -21 30 -21 33 -23 763 l-3 734 -77 -159z m-68 -1720 c0 -2 -8 -10
-17 -17 -16 -13 -17 -12 -4 4 13 16 21 21 21 13z m108 -49 l32 -33 -31 -38
-32 -37 -33 32 c-19 18 -34 37 -34 41 0 10 51 68 60 68 3 0 20 -15 38 -33z
m92 -107 c19 -36 28 -108 16 -126 -11 -14 -17 -10 -50 30 l-37 46 28 35 c15
19 29 35 30 35 1 0 7 -9 13 -20z m-78 -240 l-43 -40 -45 36 c-24 20 -44 39
-44 42 0 4 19 26 42 49 l42 43 46 -45 45 -45 -43 -40z m-102 -105 c0 -6 -6
-20 -14 -30 -13 -18 -15 -16 -35 23 -11 23 -21 51 -21 64 0 21 2 20 35 -12 19
-19 35 -39 35 -45z m170 50 c0 -22 -31 -95 -40 -95 -4 0 -11 11 -14 26 -5 18
0 33 16 54 26 32 38 37 38 15z m-150 -80 c-7 -9 -15 -13 -17 -11 -7 7 7 26 19
26 6 0 6 -6 -2 -15z m48 -59 c2 -10 -1 -23 -7 -29 -16 -16 -34 6 -26 33 8 24
28 22 33 -4z m24 -2383 c15 -15 28 -31 28 -36 0 -4 -12 -24 -27 -43 l-26 -35
-34 32 c-18 18 -33 37 -33 43 0 10 50 66 59 66 3 0 18 -12 33 -27z m97 -142
c13 -40 15 -101 3 -101 -5 0 -23 18 -40 39 l-32 40 23 34 c24 39 29 37 46 -12z
m-51 -180 c-6 -9 -25 -28 -42 -42 l-31 -27 -45 39 -45 39 45 45 44 45 42 -41
c34 -34 40 -45 32 -58z m-140 -154 c-7 -15 -17 -26 -22 -24 -16 5 -46 71 -46
102 l0 30 40 -40 c38 -38 39 -42 28 -68z m158 19 c-16 -39 -30 -46 -40 -20 -3
9 6 31 22 51 32 43 42 26 18 -31z m-86 -89 c0 -30 -10 -40 -26 -26 -10 8 -11
16 -3 30 14 26 29 24 29 -4z"/>
</g>
</svg>
