<?xml version="1.0" standalone="no"?>
<!DOCTYPE svg PUBLIC "-//W3C//DTD SVG 20010904//EN"
 "http://www.w3.org/TR/2001/REC-SVG-20010904/DTD/svg10.dtd">
<svg version="1.0" xmlns="http://www.w3.org/2000/svg"
 width="2550.000000pt" height="2700.000000pt" viewBox="0 0 2550.000000 2700.000000"
 preserveAspectRatio="xMidYMid meet">

<g transform="translate(0.000000,2700.000000) scale(0.100000,-0.100000)"
fill="#C5C3C1" stroke="none">
<path d="M8237 16340 l-38 -5 -1 -1050 c0 -1100 -4 -1263 -38 -1534 -24 -183
-21 -223 16 -248 35 -22 28 -54 -13 -65 -36 -9 -41 -19 -18 -38 8 -7 15 -22
15 -35 0 -21 -28 -55 -46 -55 -5 0 -22 -11 -38 -23 l-29 -24 31 -21 c16 -12
34 -22 39 -22 17 0 43 -36 43 -57 0 -11 -7 -26 -15 -33 -22 -18 -19 -26 18
-37 26 -7 31 -13 28 -33 -1 -14 -11 -30 -22 -38 -30 -21 -32 -69 -10 -241 12
-89 25 -246 31 -349 12 -221 11 -2459 -1 -2483 -5 -9 -22 -22 -39 -29 -31 -13
-37 -24 -20 -35 27 -17 -4 -85 -39 -85 -8 0 -11 -12 -9 -32 l3 -33 95 -7 c52
-4 130 -5 173 -2 l77 6 0 35 c0 26 -7 40 -30 60 -33 28 -37 44 -15 63 22 18
19 25 -20 39 -22 7 -37 21 -40 34 -4 13 -4 603 -2 1312 4 1340 4 1353 47 1617
8 55 8 74 -4 103 -8 19 -22 38 -31 41 -16 7 -21 54 -6 54 5 0 21 4 36 10 l26
10 -22 29 c-21 29 -21 31 -5 55 9 15 25 26 36 26 11 0 20 4 20 9 0 5 9 13 20
16 33 10 23 31 -30 64 -62 38 -69 54 -41 91 l21 29 -32 9 c-38 9 -52 49 -23
65 9 5 23 24 31 42 12 28 11 52 -6 176 -37 277 -40 403 -40 1520 l0 1097 -22
3 c-13 3 -40 2 -61 -1z"/>
</g>
</svg>
