<?xml version="1.0" standalone="no"?>
<!DOCTYPE svg PUBLIC "-//W3C//DTD SVG 20010904//EN"
 "http://www.w3.org/TR/2001/REC-SVG-20010904/DTD/svg10.dtd">
<svg version="1.0" xmlns="http://www.w3.org/2000/svg"
 width="2550.000000pt" height="2700.000000pt" viewBox="0 0 2550.000000 2700.000000"
 preserveAspectRatio="xMidYMid meet">

<g transform="translate(0.000000,2700.000000) scale(0.100000,-0.100000)"
fill="#C5C3C1" stroke="none">
<path d="M8778 16303 l-37 -4 -4 -1182 c-3 -1161 -3 -1185 -26 -1356 -24 -184
-23 -211 9 -239 30 -25 26 -58 -10 -70 l-30 -11 18 -30 c23 -41 5 -67 -75
-107 -25 -12 -12 -33 37 -63 53 -33 66 -66 35 -91 -22 -19 -18 -28 15 -35 38
-8 40 -36 4 -78 -30 -35 -30 -36 3 -277 14 -110 17 -278 20 -1433 l4 -1307
-36 -21 c-26 -15 -33 -25 -26 -32 21 -21 12 -56 -19 -79 -39 -28 -38 -69 0
-79 32 -9 238 -11 279 -3 28 6 31 10 31 41 0 26 -7 41 -25 55 -26 20 -33 56
-14 75 9 9 2 16 -25 27 l-36 15 0 1249 c0 1244 1 1302 36 1589 17 139 12 184
-22 197 -8 3 -14 16 -14 30 0 19 7 26 31 31 16 4 29 10 27 13 -38 74 -36 82
28 118 48 27 50 51 7 74 -18 10 -40 23 -48 30 -19 16 -19 54 0 70 22 19 18 28
-15 35 -23 5 -30 12 -30 31 0 14 7 27 15 30 31 12 38 68 21 192 -33 248 -36
366 -36 1470 l0 1112 -26 10 c-14 6 -26 9 -27 8 -1 -1 -19 -3 -39 -5z"/>
</g>
</svg>
