<?xml version="1.0" standalone="no"?>
<!DOCTYPE svg PUBLIC "-//W3C//DTD SVG 20010904//EN"
 "http://www.w3.org/TR/2001/REC-SVG-20010904/DTD/svg10.dtd">
<svg version="1.0" xmlns="http://www.w3.org/2000/svg"
 width="2550.000000pt" height="2700.000000pt" viewBox="0 0 2550.000000 2700.000000"
 preserveAspectRatio="xMidYMid meet">

<g transform="translate(0.000000,2700.000000) scale(0.100000,-0.100000)"
fill="#C5C3C1" stroke="none">
<path d="M10278 15103 c-4 -1071 -4 -1103 -27 -1291 -12 -107 -20 -205 -17
-218 4 -14 15 -32 26 -42 29 -24 25 -50 -7 -58 -44 -10 -46 -15 -23 -39 30
-32 19 -58 -35 -90 -25 -14 -45 -30 -45 -35 0 -4 23 -22 50 -39 55 -34 60 -46
30 -84 l-21 -26 33 -9 c40 -10 48 -36 19 -63 -11 -11 -23 -30 -27 -44 -3 -13
5 -110 17 -217 23 -190 23 -214 27 -1399 l3 -1207 -27 -21 c-15 -12 -34 -21
-42 -21 -13 0 -13 -3 1 -18 24 -27 21 -49 -11 -72 -28 -21 -30 -28 -24 -90 1
-10 13 -15 35 -16 17 0 51 -5 75 -11 34 -9 45 -8 56 3 8 8 41 15 80 16 55 3
66 6 70 23 11 39 6 75 -9 75 -8 0 -22 11 -31 25 -15 24 -15 27 0 44 21 23 20
28 -8 35 -58 14 -55 -63 -54 1149 1 1117 5 1300 33 1522 21 169 20 191 -11
221 -32 33 -28 56 13 67 l32 10 -21 27 c-25 35 -18 50 47 91 l49 31 -29 22
c-16 11 -38 26 -49 31 -37 19 -43 42 -17 69 l23 25 -36 15 c-43 18 -44 28 -11
68 30 36 30 45 3 263 -20 161 -21 225 -25 1273 l-4 1102 -54 0 -54 0 -3 -1097z"/>
</g>
</svg>
