<?xml version="1.0" standalone="no"?>
<!DOCTYPE svg PUBLIC "-//W3C//DTD SVG 20010904//EN"
 "http://www.w3.org/TR/2001/REC-SVG-20010904/DTD/svg10.dtd">
<svg version="1.0" xmlns="http://www.w3.org/2000/svg"
 width="2550.000000pt" height="2700.000000pt" viewBox="0 0 2550.000000 2700.000000"
 preserveAspectRatio="xMidYMid meet">

<g transform="translate(0.000000,2700.000000) scale(0.100000,-0.100000)"
fill="#C5C3C1" stroke="none">
<path d="M2670 12373 c-1 -1314 -2 -1372 -50 -1693 -28 -184 -27 -216 1 -246
12 -13 28 -24 36 -24 8 0 13 -12 13 -29 0 -23 -5 -30 -27 -34 -52 -12 -60 -23
-35 -50 12 -13 22 -33 22 -44 0 -23 -43 -63 -66 -63 -8 0 -14 -3 -14 -7 0 -5
-14 -16 -31 -26 -26 -14 -29 -20 -19 -32 7 -8 19 -15 27 -15 7 0 16 -7 19 -15
4 -8 14 -15 23 -15 27 0 61 -29 61 -52 0 -12 -9 -32 -21 -44 -26 -28 -19 -41
26 -50 30 -5 35 -10 35 -34 0 -20 -6 -31 -20 -35 -45 -14 -62 -88 -44 -192 20
-111 42 -288 54 -430 10 -129 15 -3648 5 -3676 -4 -8 -24 -22 -46 -32 -42 -19
-48 -29 -24 -39 34 -13 13 -71 -36 -96 -13 -7 -19 -21 -19 -44 0 -30 4 -34 31
-40 17 -3 53 -6 79 -6 26 0 62 -5 79 -11 24 -8 38 -9 54 -1 12 7 56 20 97 30
l75 18 3 37 c2 29 -1 39 -15 44 -53 18 -67 59 -32 92 l21 19 -39 12 c-21 7
-44 19 -50 28 -10 13 -13 385 -13 1786 0 1908 0 1899 53 2261 27 182 24 216
-24 243 -45 26 -37 61 19 80 l44 14 -28 29 c-24 25 -26 33 -18 56 6 17 21 32
39 38 16 5 38 18 47 28 10 9 23 17 29 17 21 0 4 45 -18 48 -13 2 -23 7 -23 12
0 5 -10 12 -22 16 -32 9 -58 34 -58 54 0 10 10 29 21 44 25 31 25 31 -21 43
-48 13 -53 46 -10 82 37 31 53 88 40 146 -16 75 -40 250 -55 415 -12 137 -15
375 -15 1393 l0 1227 -80 0 -80 0 0 -1237z"/>
</g>
</svg>
