<?xml version="1.0" standalone="no"?>
<!DOCTYPE svg PUBLIC "-//W3C//DTD SVG 20010904//EN"
 "http://www.w3.org/TR/2001/REC-SVG-20010904/DTD/svg10.dtd">
<svg version="1.0" xmlns="http://www.w3.org/2000/svg"
 width="2550.000000pt" height="2700.000000pt" viewBox="0 0 2550.000000 2700.000000"
 preserveAspectRatio="xMidYMid meet">

<g transform="translate(0.000000,2700.000000) scale(0.100000,-0.100000)"
fill="#C5C3C1" stroke="none">
<path d="M3436 13728 l-36 -42 0 -1195 c0 -1334 -5 -1472 -66 -1843 -19 -116
-10 -159 37 -184 43 -22 36 -52 -16 -72 -22 -8 -41 -16 -43 -18 -2 -1 8 -13
22 -27 14 -15 26 -32 26 -40 0 -21 -33 -49 -107 -88 -38 -20 -28 -44 30 -74
49 -25 77 -49 77 -66 0 -4 -12 -21 -26 -38 l-26 -31 24 -9 c13 -5 32 -10 43
-12 29 -6 33 -55 5 -64 -12 -4 -30 -26 -42 -50 l-21 -43 21 -138 c60 -392 61
-431 62 -2315 l0 -1685 -22 -20 c-13 -11 -36 -26 -52 -32 l-29 -13 22 -23 c26
-28 19 -51 -24 -83 -16 -12 -25 -29 -27 -52 -3 -38 -14 -35 142 -45 81 -6 108
-3 180 16 l85 23 3 35 c2 31 -1 37 -30 50 -37 17 -49 58 -24 80 23 19 20 27
-16 34 -17 3 -37 11 -45 17 -11 10 -13 307 -13 1757 0 1829 1 1887 46 2199 13
94 24 186 24 203 0 41 -24 86 -50 93 -13 3 -20 13 -20 29 0 20 8 27 40 38 46
15 48 20 20 45 -11 10 -20 28 -20 41 0 23 42 64 66 64 8 0 14 4 14 8 0 5 11
14 25 20 32 15 32 40 1 52 -13 5 -27 14 -31 19 -3 6 -14 11 -24 11 -23 0 -51
31 -51 57 0 11 9 28 20 38 28 25 25 32 -17 42 -52 12 -57 45 -13 82 44 37 47
76 16 287 -44 308 -46 394 -46 1732 l0 1272 -39 0 c-34 0 -45 -6 -75 -42z"/>
<path d="M4010 11202 c0 -5 -11 -14 -25 -20 -32 -15 -32 -40 -1 -52 13 -5 27
-14 31 -20 13 -21 25 2 25 51 0 37 -4 49 -15 49 -8 0 -15 -4 -15 -8z"/>
<path d="M4013 7463 c-8 -2 -13 -22 -13 -45 0 -32 3 -39 18 -36 12 2 18 15 20
46 3 41 0 46 -25 35z"/>
</g>
</svg>
