<?xml version="1.0" standalone="no"?>
<!DOCTYPE svg PUBLIC "-//W3C//DTD SVG 20010904//EN"
 "http://www.w3.org/TR/2001/REC-SVG-20010904/DTD/svg10.dtd">
<svg version="1.0" xmlns="http://www.w3.org/2000/svg"
 width="2550.000000pt" height="2700.000000pt" viewBox="0 0 2550.000000 2700.000000"
 preserveAspectRatio="xMidYMid meet">

<g transform="translate(0.000000,2700.000000) scale(0.100000,-0.100000)"
fill="#C5C3C1" stroke="none">
<path d="M4198 14090 c-38 -47 -68 -92 -68 -100 -1 -8 -2 -447 -4 -975 -3
-1020 -3 -1021 -55 -1379 -11 -71 -17 -136 -14 -145 12 -38 27 -60 49 -70 28
-12 32 -49 7 -57 -10 -3 -30 -10 -45 -16 l-28 -10 25 -30 c32 -38 31 -44 -5
-78 -26 -24 -30 -35 -30 -78 0 -42 3 -52 20 -57 45 -14 45 -69 1 -102 -14 -10
-13 -13 9 -21 14 -5 34 -11 45 -13 33 -7 30 -44 -4 -68 -45 -32 -54 -78 -36
-181 22 -129 44 -330 53 -475 10 -162 8 -2584 -2 -2606 -4 -9 -25 -24 -47 -34
-42 -19 -48 -29 -24 -39 20 -7 20 -60 0 -76 -9 -7 -15 -29 -15 -55 l0 -42 98
-6 c71 -4 120 -1 182 12 l85 17 3 37 c2 28 -1 37 -12 37 -20 0 -56 35 -56 55
0 8 9 24 19 34 19 19 19 20 -27 43 l-47 23 0 1305 c0 1368 1 1407 46 1704 29
196 25 237 -27 256 -39 15 -31 47 16 66 22 9 40 18 40 20 0 3 -10 18 -22 34
-18 25 -20 34 -10 54 6 13 21 28 34 32 28 9 88 53 88 65 0 5 -11 14 -25 19
-14 5 -25 14 -25 19 0 4 -14 11 -30 15 -19 3 -34 15 -42 31 -10 22 -8 30 11
56 26 35 24 39 -21 48 -48 10 -49 42 -4 85 43 40 45 69 21 222 -47 291 -48
318 -54 1439 l-6 1069 -67 -84z"/>
</g>
</svg>
