<?xml version="1.0" standalone="no"?>
<!DOCTYPE svg PUBLIC "-//W3C//DTD SVG 20010904//EN"
 "http://www.w3.org/TR/2001/REC-SVG-20010904/DTD/svg10.dtd">
<svg version="1.0" xmlns="http://www.w3.org/2000/svg"
 width="2550.000000pt" height="2700.000000pt" viewBox="0 0 2550.000000 2700.000000"
 preserveAspectRatio="xMidYMid meet">

<g transform="translate(0.000000,2700.000000) scale(0.100000,-0.100000)"
fill="#C5C3C1" stroke="none">
<path d="M4929 14988 c-19 -24 -52 -65 -72 -91 l-37 -48 0 -929 c0 -947 -3
-1051 -40 -1310 -28 -188 -27 -216 8 -248 16 -15 31 -34 34 -43 7 -19 -9 -39
-32 -39 -8 0 -21 -4 -29 -9 -12 -7 -10 -14 8 -36 11 -15 21 -33 21 -40 0 -16
-43 -55 -62 -55 -9 0 -18 -7 -22 -15 -3 -8 -12 -15 -20 -15 -16 0 -27 -22 -18
-36 10 -13 42 -32 75 -45 25 -10 47 -36 47 -56 0 -5 -10 -20 -22 -33 -21 -22
-21 -23 -3 -36 10 -8 27 -14 37 -14 29 0 22 -44 -12 -78 -36 -36 -38 -66 -15
-218 46 -310 45 -301 45 -2110 0 -942 -3 -1719 -6 -1727 -3 -8 -23 -22 -44
-32 l-39 -18 19 -24 c23 -29 15 -53 -25 -79 -18 -12 -25 -25 -25 -49 l0 -32
98 -8 c120 -9 110 -9 210 11 l82 16 0 34 c0 27 -5 36 -24 44 -34 12 -46 38
-33 67 5 13 14 23 19 23 23 0 3 18 -31 29 -21 6 -42 19 -45 28 -4 9 -7 779 -6
1712 0 1806 0 1792 49 2141 21 148 16 186 -29 210 -15 8 -20 19 -18 38 2 21
10 28 41 35 33 8 53 27 27 27 -5 0 -17 11 -26 25 -15 23 -15 27 0 49 8 14 25
28 37 31 13 4 27 12 33 17 6 5 20 15 31 22 25 18 11 37 -51 66 -69 34 -76 58
-31 107 l20 22 -29 8 c-16 4 -33 7 -39 8 -5 0 -12 11 -13 24 -3 16 4 30 23 45
38 30 46 82 29 180 -47 272 -47 276 -53 1414 l-6 1083 -36 -43z"/>
</g>
</svg>
