<?xml version="1.0" standalone="no"?>
<!DOCTYPE svg PUBLIC "-//W3C//DTD SVG 20010904//EN"
 "http://www.w3.org/TR/2001/REC-SVG-20010904/DTD/svg10.dtd">
<svg version="1.0" xmlns="http://www.w3.org/2000/svg"
 width="2550.000000pt" height="2700.000000pt" viewBox="0 0 2550.000000 2700.000000"
 preserveAspectRatio="xMidYMid meet">

<g transform="translate(0.000000,2700.000000) scale(0.100000,-0.100000)"
fill="#C5C3C1" stroke="none">
<path d="M6424 15277 c-1 -1227 -3 -1310 -45 -1597 -21 -147 -19 -181 15 -207
26 -21 40 -62 23 -68 -7 -3 -25 -9 -41 -15 l-29 -11 23 -24 c28 -30 21 -66
-17 -86 -16 -8 -30 -16 -33 -19 -3 -3 -14 -10 -24 -16 -30 -16 -30 -33 -2 -44
14 -5 26 -14 26 -20 0 -5 8 -10 18 -10 23 0 52 -30 52 -53 0 -9 -9 -26 -20
-37 -26 -26 -26 -28 15 -36 30 -5 35 -10 35 -35 0 -18 -7 -32 -19 -39 -39 -20
-44 -67 -22 -222 43 -311 44 -339 43 -1711 -1 -937 -4 -1322 -12 -1332 -6 -7
-24 -18 -40 -25 -28 -12 -41 -30 -21 -30 13 0 23 -34 15 -54 -4 -9 -19 -23
-35 -32 -29 -15 -39 -53 -21 -81 9 -15 258 -18 327 -5 38 7 40 9 43 50 2 31
-1 42 -11 42 -38 0 -61 66 -32 90 12 10 8 15 -28 34 l-42 21 -3 1255 c-3 1267
1 1472 34 1715 8 61 17 140 21 177 6 65 5 67 -26 99 -41 40 -38 70 7 81 35 9
40 19 17 38 -31 26 -13 90 27 90 9 0 21 6 25 13 4 8 16 16 26 20 23 9 22 38
-3 44 -11 3 -20 9 -20 14 0 5 -7 9 -15 9 -9 0 -27 11 -40 24 -25 25 -25 55 1
77 22 18 17 28 -21 35 -43 8 -47 36 -10 70 36 34 40 66 21 204 -44 327 -46
390 -46 1618 l0 1172 -67 0 -68 0 -1 -1183z"/>
</g>
</svg>
