<?xml version="1.0" standalone="no"?>
<!DOCTYPE svg PUBLIC "-//W3C//DTD SVG 20010904//EN"
 "http://www.w3.org/TR/2001/REC-SVG-20010904/DTD/svg10.dtd">
<svg version="1.0" xmlns="http://www.w3.org/2000/svg"
 width="2550.000000pt" height="2700.000000pt" viewBox="0 0 2550.000000 2700.000000"
 preserveAspectRatio="xMidYMid meet">

<g transform="translate(0.000000,2700.000000) scale(0.100000,-0.100000)"
fill="#C5C3C1" stroke="none">
<path d="M21017 24192 l-47 -48 0 -1219 c0 -1395 -2 -1442 -81 -1821 -16 -78
-29 -155 -29 -171 0 -40 32 -79 76 -93 30 -10 35 -16 32 -38 -2 -20 -11 -28
-38 -35 -46 -12 -46 -12 -21 -43 11 -15 21 -37 21 -49 0 -25 -29 -55 -53 -55
-9 0 -17 -5 -17 -10 0 -6 -11 -15 -25 -20 -40 -15 -32 -42 25 -80 77 -52 87
-76 49 -124 -12 -15 -20 -28 -18 -30 2 -1 21 -10 42 -20 52 -24 51 -56 -3 -80
-79 -34 -83 -72 -36 -289 15 -65 36 -187 48 -270 21 -149 22 -176 25 -1567 2
-778 1 -1425 -2 -1438 -4 -15 -19 -29 -43 -39 -48 -20 -46 -17 -27 -47 23 -34
13 -67 -25 -89 -29 -17 -40 -50 -21 -62 5 -3 93 -2 195 1 162 6 186 9 186 23
0 9 -13 24 -29 34 -16 9 -31 25 -33 35 -6 22 8 62 22 62 23 0 7 18 -30 35 -24
11 -43 27 -46 39 -2 12 -3 667 -2 1456 4 1587 0 1490 70 1825 18 83 32 166 32
186 0 47 -26 85 -69 103 -26 11 -35 21 -35 39 0 19 8 26 41 36 l41 12 -19 22
c-47 52 -38 81 42 127 30 17 55 35 55 40 0 10 -16 26 -55 55 -49 37 -75 64
-75 79 0 8 11 28 25 44 l24 29 -39 18 c-32 14 -40 23 -40 45 0 21 7 29 34 38
36 13 59 40 69 83 4 15 -6 82 -23 160 -16 74 -39 197 -52 274 -22 140 -22 144
-25 1505 -3 1055 -6 1366 -16 1372 -22 14 -32 9 -80 -40z"/>
</g>
</svg>
