<?xml version="1.0" standalone="no"?>
<!DOCTYPE svg PUBLIC "-//W3C//DTD SVG 20010904//EN"
 "http://www.w3.org/TR/2001/REC-SVG-20010904/DTD/svg10.dtd">
<svg version="1.0" xmlns="http://www.w3.org/2000/svg"
 width="2550.000000pt" height="2700.000000pt" viewBox="0 0 2550.000000 2700.000000"
 preserveAspectRatio="xMidYMid meet">

<g transform="translate(0.000000,2700.000000) scale(0.100000,-0.100000)"
fill="#C5C3C1" stroke="none">
<path d="M22132 25258 l-51 -53 -4 -1320 c-4 -1438 -2 -1396 -62 -1685 -52
-246 -52 -246 -29 -277 11 -16 37 -37 57 -48 26 -14 37 -27 37 -42 0 -13 -6
-23 -14 -23 -8 0 -27 -5 -41 -10 l-27 -10 26 -31 c14 -17 26 -39 26 -49 0 -20
-44 -60 -66 -60 -8 0 -14 -4 -14 -9 0 -5 -9 -13 -20 -16 -12 -4 -20 -15 -20
-27 0 -22 55 -78 76 -78 14 0 44 -38 44 -56 0 -7 -11 -26 -26 -43 l-25 -30 40
-21 c31 -16 41 -26 41 -45 0 -15 -6 -25 -15 -25 -8 0 -30 -14 -49 -31 -48 -41
-53 -79 -27 -182 29 -118 69 -362 81 -502 11 -131 15 -3851 4 -3880 -4 -9 -24
-23 -45 -32 -22 -8 -39 -17 -39 -20 0 -3 9 -16 19 -29 24 -31 17 -62 -20 -83
-21 -12 -29 -24 -29 -45 l0 -29 168 6 c92 4 179 7 195 7 36 0 38 36 2 50 -14
5 -30 21 -37 35 -10 22 -8 30 10 54 l21 29 -40 18 c-22 9 -44 25 -49 35 -13
24 -13 3617 0 3789 15 202 37 357 76 538 35 162 35 164 17 199 -11 21 -34 45
-58 58 -49 27 -53 54 -8 69 45 16 47 21 23 54 -33 45 -21 71 50 111 52 30 78
61 51 61 -5 0 -22 14 -38 30 -15 17 -33 30 -39 30 -17 0 -44 35 -44 57 0 11 9
28 20 38 28 26 25 37 -18 60 -48 26 -48 50 3 78 25 14 47 37 59 60 18 37 18
40 -3 130 -33 142 -60 290 -78 427 -14 110 -17 286 -19 1459 -2 734 -6 1341
-8 1348 -10 24 -31 14 -84 -39z"/>
</g>
</svg>
