<?xml version="1.0" standalone="no"?>
<!DOCTYPE svg PUBLIC "-//W3C//DTD SVG 20010904//EN"
 "http://www.w3.org/TR/2001/REC-SVG-20010904/DTD/svg10.dtd">
<svg version="1.0" xmlns="http://www.w3.org/2000/svg"
 width="2550.000000pt" height="2700.000000pt" viewBox="0 0 2550.000000 2700.000000"
 preserveAspectRatio="xMidYMid meet">

<g transform="translate(0.000000,2700.000000) scale(0.100000,-0.100000)"
fill="#C5C3C1" stroke="none">
<path d="M24367 25858 c-4 -1302 1 -1223 -101 -1692 -19 -89 -7 -123 58 -161
45 -26 64 -65 31 -65 -8 0 -25 -5 -38 -11 l-25 -11 24 -36 c13 -19 24 -41 24
-48 0 -18 -36 -54 -54 -54 -8 0 -29 -13 -47 -29 l-32 -30 48 -44 c26 -25 56
-52 66 -61 25 -21 24 -39 -6 -74 l-24 -29 37 -24 c48 -31 53 -62 13 -78 -69
-29 -95 -86 -75 -171 21 -92 63 -308 81 -420 16 -96 17 -276 20 -2089 3 -1832
2 -1985 -13 -2002 -9 -10 -32 -23 -51 -30 -34 -11 -34 -11 -14 -26 13 -8 21
-25 21 -41 0 -33 -8 -45 -37 -61 -13 -6 -23 -19 -23 -29 0 -15 12 -17 117 -15
65 2 151 6 190 9 l73 6 -30 25 c-33 27 -39 63 -15 83 23 19 19 28 -25 50 -23
12 -42 30 -45 43 -3 12 -4 900 -2 1972 3 1949 3 1950 25 2100 20 133 43 258
83 435 16 72 -2 113 -66 154 -54 33 -55 56 -5 69 46 12 46 12 21 43 -11 15
-21 39 -21 54 0 24 9 33 55 59 31 18 58 38 62 47 6 15 -40 66 -90 98 -32 22
-35 53 -7 89 l20 25 -40 32 c-49 39 -50 55 -7 74 37 15 74 57 83 92 3 13 -6
72 -20 131 -26 111 -57 282 -77 433 -9 59 -13 427 -16 1218 l-4 1132 -69 0
-69 0 -4 -1142z"/>
</g>
</svg>
