<?xml version="1.0" standalone="no"?>
<!DOCTYPE svg PUBLIC "-//W3C//DTD SVG 20010904//EN"
 "http://www.w3.org/TR/2001/REC-SVG-20010904/DTD/svg10.dtd">
<svg version="1.0" xmlns="http://www.w3.org/2000/svg"
 width="2550.000000pt" height="2700.000000pt" viewBox="0 0 2550.000000 2700.000000"
 preserveAspectRatio="xMidYMid meet">

<g transform="translate(0.000000,2700.000000) scale(0.100000,-0.100000)"
fill="#C5C3C1" stroke="none">
<path d="M13227 12103 c-4 -1559 0 -1449 -63 -1788 -33 -177 -38 -218 -30
-248 7 -31 54 -77 77 -77 15 0 19 -7 19 -34 0 -30 -4 -36 -41 -50 l-40 -16 20
-27 c33 -41 22 -118 -12 -84 -16 16 -37 13 -37 -5 0 -8 -14 -36 -32 -62 -22
-32 -28 -47 -19 -50 8 -3 22 -13 32 -23 11 -11 25 -19 32 -19 7 0 23 -7 35
-16 28 -20 29 -63 1 -98 -25 -31 -25 -31 21 -43 30 -8 35 -14 38 -41 3 -26 -1
-32 -22 -38 -15 -3 -37 -20 -51 -36 -32 -38 -32 -76 0 -233 14 -67 35 -189 47
-271 22 -148 22 -156 25 -2179 2 -1117 1 -2040 -2 -2052 -3 -14 -23 -32 -51
-46 -45 -23 -45 -23 -25 -42 12 -10 21 -26 21 -35 0 -23 -38 -70 -56 -70 -17
0 -23 -74 -7 -90 2 -2 63 -9 136 -15 l132 -10 78 29 77 30 0 40 c0 36 -4 43
-33 56 -24 11 -33 22 -35 46 -2 19 3 36 12 44 25 20 19 28 -25 41 -22 7 -45
21 -50 31 -6 11 -8 737 -6 2020 4 2215 -1 2059 69 2418 18 91 32 185 33 210 0
56 -24 97 -71 116 -26 11 -34 20 -34 39 0 19 9 29 45 45 l46 21 -26 30 c-14
17 -25 38 -25 48 0 18 39 61 56 61 6 0 28 15 49 34 33 30 37 37 26 50 -8 9
-19 16 -26 16 -7 0 -15 7 -19 15 -3 8 -14 15 -24 15 -22 0 -62 40 -62 62 0 9
12 30 26 47 l26 31 -24 9 c-13 5 -32 10 -43 12 -13 3 -21 14 -23 32 -3 23 2
30 30 41 82 35 89 74 49 271 -32 160 -55 320 -71 505 -6 69 -10 644 -10 1438
l0 1322 -80 0 -79 0 -4 -1427z"/>
<path d="M13096 4510 c-18 -18 -18 -19 3 -13 12 3 21 12 21 19 0 17 -1 17 -24
-6z"/>
</g>
</svg>
