<?xml version="1.0" standalone="no"?>
<!DOCTYPE svg PUBLIC "-//W3C//DTD SVG 20010904//EN"
 "http://www.w3.org/TR/2001/REC-SVG-20010904/DTD/svg10.dtd">
<svg version="1.0" xmlns="http://www.w3.org/2000/svg"
 width="2550.000000pt" height="2700.000000pt" viewBox="0 0 2550.000000 2700.000000"
 preserveAspectRatio="xMidYMid meet">

<g transform="translate(0.000000,2700.000000) scale(0.100000,-0.100000)"
fill="#C5C3C1" stroke="none">
<path d="M13039 13528 c0 -7 -2 -627 -3 -1378 -3 -1371 -5 -1417 -42 -1765
-19 -178 -15 -232 18 -258 38 -31 32 -56 -19 -79 l-44 -19 26 -30 c14 -17 25
-37 25 -45 0 -19 -44 -64 -62 -64 -8 0 -21 -8 -30 -17 -9 -10 -24 -24 -32 -31
-27 -22 -15 -35 71 -75 29 -14 53 -43 53 -66 0 -5 -12 -23 -26 -40 l-26 -31
24 -9 c13 -5 32 -10 43 -12 30 -6 31 -45 1 -79 -35 -43 -41 -88 -27 -220 46
-417 43 -300 48 -2388 2 -1386 0 -1988 -7 -2002 -6 -11 -32 -31 -57 -44 -45
-23 -46 -24 -24 -35 34 -19 26 -70 -16 -96 -29 -18 -33 -24 -30 -60 l2 -40
135 -11 c143 -11 132 -12 258 37 17 7 22 16 22 46 -1 32 -6 41 -33 58 -39 25
-45 57 -18 84 12 12 21 23 21 24 0 2 -17 9 -39 15 -21 7 -44 18 -50 26 -9 10
-11 524 -8 2057 l4 2044 24 211 c26 226 24 278 -10 305 -11 9 -21 28 -21 42 0
20 8 28 40 41 22 9 40 18 40 21 0 3 -9 14 -21 26 -31 31 -23 80 17 99 16 9 37
21 45 28 7 7 22 18 32 25 20 14 14 47 -9 47 -8 0 -17 7 -20 15 -4 8 -14 15
-23 15 -25 0 -61 37 -61 64 0 13 9 35 21 50 l20 26 -26 10 c-14 5 -33 10 -41
10 -9 0 -14 11 -14 35 0 19 4 35 10 35 12 0 31 36 41 79 4 20 2 83 -7 150 -41
334 -44 445 -44 1839 l0 1342 -75 0 c-53 0 -75 -4 -76 -12z"/>
</g>
</svg>
