<?xml version="1.0" standalone="no"?>
<!DOCTYPE svg PUBLIC "-//W3C//DTD SVG 20010904//EN"
 "http://www.w3.org/TR/2001/REC-SVG-20010904/DTD/svg10.dtd">
<svg version="1.0" xmlns="http://www.w3.org/2000/svg"
 width="2550.000000pt" height="2700.000000pt" viewBox="0 0 2550.000000 2700.000000"
 preserveAspectRatio="xMidYMid meet">

<g transform="translate(0.000000,2700.000000) scale(0.100000,-0.100000)"
fill="#C5C3C1" stroke="none">
<path d="M16748 20103 l-47 -48 -4 -1270 c-3 -1240 -4 -1273 -25 -1405 -11
-74 -31 -182 -43 -240 -13 -58 -23 -131 -23 -163 -1 -54 2 -61 29 -83 17 -13
38 -24 48 -24 12 0 17 -8 17 -29 0 -23 -5 -30 -27 -34 -16 -4 -35 -11 -43 -16
-13 -9 -13 -12 2 -23 9 -7 22 -25 27 -41 9 -23 7 -31 -9 -47 -11 -11 -24 -20
-29 -20 -5 0 -16 -6 -23 -12 -8 -7 -22 -18 -33 -24 -26 -14 -29 -30 -10 -46 9
-7 21 -18 28 -24 7 -6 23 -15 35 -18 12 -4 29 -18 38 -31 14 -21 14 -26 -1
-54 -8 -17 -20 -31 -25 -31 -26 0 -6 -20 30 -31 34 -11 40 -16 40 -41 0 -19
-5 -28 -16 -28 -9 0 -31 -15 -50 -34 -42 -42 -43 -53 -4 -243 67 -337 64 -238
67 -1768 2 -764 1 -1399 -1 -1411 -3 -12 -23 -28 -46 -39 -45 -20 -46 -21 -25
-41 29 -30 6 -94 -34 -94 -8 0 -11 -14 -9 -42 l3 -41 120 -3 c66 -2 150 0 188
3 l67 6 0 37 c0 29 -5 39 -25 50 -33 18 -42 53 -21 84 15 24 15 25 -27 48
l-42 23 0 1380 c0 1523 -2 1456 65 1797 16 84 30 165 30 180 0 45 -21 77 -62
95 -28 13 -38 23 -38 40 0 22 5 26 68 48 10 4 8 11 -7 31 -12 15 -21 37 -21
49 0 23 28 55 48 55 6 0 26 14 44 30 l33 31 -35 29 c-19 16 -40 30 -46 30 -17
0 -44 35 -44 57 0 11 9 32 21 47 l20 26 -23 9 c-13 5 -31 12 -40 15 -11 3 -18
15 -18 31 0 19 8 28 34 39 66 28 79 77 51 198 -16 73 -50 265 -67 388 -8 60
-13 474 -17 1385 -6 1290 -6 1300 -26 1303 -13 2 -37 -14 -67 -45z"/>
</g>
</svg>
