<?xml version="1.0" standalone="no"?>
<!DOCTYPE svg PUBLIC "-//W3C//DTD SVG 20010904//EN"
 "http://www.w3.org/TR/2001/REC-SVG-20010904/DTD/svg10.dtd">
<svg version="1.0" xmlns="http://www.w3.org/2000/svg"
 width="2551.000000pt" height="2701.000000pt" viewBox="0 0 2551.000000 2701.000000"
 preserveAspectRatio="xMidYMid meet">

<g transform="translate(0.000000,2701.000000) scale(0.100000,-0.100000)"
fill="#3a4548" stroke="none">
<path d="M4739 12572 l-57 -47 -4 -625 c-5 -691 -7 -723 -80 -1040 -17 -74
-30 -148 -30 -163 1 -42 29 -77 73 -95 29 -11 39 -21 39 -38 0 -13 -8 -25 -19
-29 -10 -3 -26 -14 -35 -24 -15 -16 -15 -19 4 -36 29 -26 26 -69 -7 -90 -60
-40 -98 -115 -58 -115 9 0 18 -7 21 -15 4 -8 12 -15 19 -15 18 0 45 -34 45
-57 0 -11 -9 -32 -20 -46 -20 -26 -20 -26 -1 -36 11 -6 27 -11 35 -11 10 0 16
-9 16 -25 0 -18 -9 -28 -34 -40 -80 -38 -89 -83 -52 -246 71 -314 86 -467 86
-879 0 -396 -11 -521 -71 -810 -10 -53 -24 -111 -29 -130 -6 -19 -10 -54 -10
-78 0 -37 6 -50 34 -78 19 -19 43 -34 55 -34 33 0 26 -31 -14 -63 l-35 -28 20
-26 c25 -32 26 -70 2 -77 -23 -8 -82 -84 -82 -107 0 -16 28 -40 75 -64 28 -15
31 -59 6 -91 -25 -31 -21 -40 19 -49 40 -9 40 -39 -1 -55 -64 -27 -93 -106
-69 -189 24 -83 70 -338 84 -461 16 -136 18 -366 16 -2033 l0 -457 -25 -12
c-14 -6 -32 -22 -41 -35 -14 -23 -14 -26 0 -42 17 -18 22 -51 8 -51 -17 0 -42
-61 -42 -104 l0 -46 150 0 150 0 20 32 c23 39 28 118 7 118 -8 0 -22 9 -32 20
-18 20 -18 22 3 59 l22 39 -30 7 c-65 14 -60 -78 -60 1198 0 967 3 1185 15
1297 17 152 44 304 82 461 25 103 25 107 8 143 -17 36 -58 66 -90 66 -24 0
-18 39 8 51 13 6 29 20 36 31 11 17 9 23 -8 42 -27 28 -27 63 -1 71 10 3 35
28 56 56 35 48 39 79 10 79 -7 0 -16 7 -20 15 -3 8 -12 15 -19 15 -18 0 -47
32 -47 52 0 8 10 28 22 43 21 27 21 28 3 41 -10 8 -27 14 -37 14 -11 0 -18 7
-18 20 0 11 7 20 15 20 24 0 83 59 95 94 9 29 1 121 -14 145 -9 14 -56 259
-72 376 -25 181 -31 750 -10 952 19 177 46 336 81 483 15 59 23 116 20 130 -9
35 -52 78 -86 85 -39 9 -37 34 6 68 l34 27 -19 33 c-26 42 -25 66 4 76 27 11
87 88 80 105 -2 6 -27 26 -54 44 -57 37 -63 62 -29 106 24 31 24 30 -16 43
-42 14 -45 46 -5 63 38 16 76 60 85 100 4 17 0 52 -9 84 -23 79 -54 230 -78
386 -20 125 -22 184 -25 793 -3 361 -7 657 -11 657 -4 -1 -32 -22 -63 -48z"/>
</g>
</svg>
