<?xml version="1.0" standalone="no"?>
<!DOCTYPE svg PUBLIC "-//W3C//DTD SVG 20010904//EN"
 "http://www.w3.org/TR/2001/REC-SVG-20010904/DTD/svg10.dtd">
<svg version="1.0" xmlns="http://www.w3.org/2000/svg"
 width="2551.000000pt" height="2701.000000pt" viewBox="0 0 2551.000000 2701.000000"
 preserveAspectRatio="xMidYMid meet">

<g transform="translate(0.000000,2701.000000) scale(0.100000,-0.100000)"
fill="#3a4548" stroke="none">
<path d="M16513 22261 c-12 -10 -37 -31 -55 -46 l-33 -28 -6 -631 c-6 -689 -9
-727 -74 -1007 -15 -63 -29 -138 -32 -166 -5 -50 -4 -54 30 -88 19 -19 44 -35
56 -35 33 0 26 -39 -11 -71 -31 -25 -32 -28 -17 -45 31 -36 28 -94 -5 -94 -11
0 -76 -71 -76 -83 0 -7 46 -52 65 -63 10 -5 24 -19 31 -30 12 -17 11 -25 -7
-58 -22 -41 -16 -56 24 -56 12 0 17 -8 17 -27 0 -22 -8 -31 -38 -45 -41 -19
-72 -62 -72 -101 0 -14 13 -83 29 -153 70 -309 76 -374 76 -864 0 -485 -7
-564 -71 -835 -14 -60 -28 -134 -31 -162 -5 -50 -4 -54 30 -88 19 -19 44 -35
56 -35 16 0 21 -6 21 -29 0 -22 -6 -31 -30 -41 -33 -14 -38 -31 -15 -50 25
-21 13 -100 -16 -100 -13 0 -69 -55 -69 -67 0 -11 47 -54 75 -68 29 -15 32
-74 5 -102 -20 -22 -20 -22 -1 -33 11 -5 26 -10 35 -10 17 0 24 -16 18 -47 -3
-15 -11 -23 -24 -23 -11 0 -36 -16 -55 -35 -32 -32 -35 -39 -30 -82 2 -27 18
-109 35 -183 30 -135 55 -289 68 -430 8 -91 8 -2372 -1 -2399 -3 -10 -19 -24
-36 -31 -16 -7 -28 -15 -27 -19 31 -58 31 -60 14 -86 -9 -14 -23 -25 -31 -25
-11 0 -15 -12 -15 -44 0 -25 4 -47 10 -51 7 -4 255 -9 308 -6 7 1 12 16 12 40
0 30 -5 42 -24 55 -34 22 -41 52 -21 83 15 22 15 27 3 34 -8 5 -25 16 -37 27
l-23 18 -2 1134 c-2 1198 1 1307 44 1548 12 65 32 163 45 219 28 116 30 141
13 178 -12 27 -54 55 -83 55 -11 0 -15 10 -15 35 0 22 5 35 13 35 7 0 22 6 32
14 19 14 19 15 1 35 -26 29 -24 71 5 93 66 52 79 64 79 74 0 14 -46 64 -58 64
-17 0 -42 37 -42 61 0 14 7 35 17 48 15 23 15 25 -2 37 -10 8 -25 14 -32 14
-8 0 -13 12 -13 29 0 24 5 31 29 36 40 9 72 46 78 92 3 23 -5 80 -21 148 -74
314 -89 484 -83 956 5 419 14 507 77 783 39 170 39 189 -4 232 -19 19 -43 34
-55 34 -16 0 -21 6 -21 28 0 21 7 30 30 40 33 15 38 33 15 52 -23 19 -17 90 8
90 14 0 77 66 77 81 0 13 -46 59 -59 59 -16 0 -41 37 -41 61 0 13 7 33 15 43
21 28 19 36 -15 47 -39 14 -43 55 -5 65 14 3 38 22 55 40 37 43 38 68 4 211
-29 123 -58 294 -73 435 -7 58 -11 346 -11 713 0 338 -3 615 -7 615 -5 -1 -18
-9 -30 -19z"/>
</g>
</svg>
