<?xml version="1.0" standalone="no"?>
<!DOCTYPE svg PUBLIC "-//W3C//DTD SVG 20010904//EN"
 "http://www.w3.org/TR/2001/REC-SVG-20010904/DTD/svg10.dtd">
<svg version="1.0" xmlns="http://www.w3.org/2000/svg"
 width="2551.000000pt" height="2701.000000pt" viewBox="0 0 2551.000000 2701.000000"
 preserveAspectRatio="xMidYMid meet">

<g transform="translate(0.000000,2701.000000) scale(0.100000,-0.100000)"
fill="#3a4548" stroke="none">
<path d="M19988 25122 l-58 -47 0 -556 c0 -660 -12 -807 -90 -1138 -36 -155
-31 -183 43 -220 31 -15 47 -29 47 -42 0 -10 -3 -19 -7 -19 -5 0 -21 -12 -36
-25 l-28 -25 20 -26 c12 -15 21 -33 21 -41 0 -8 -25 -37 -55 -66 -30 -28 -55
-56 -55 -62 0 -15 45 -54 75 -65 35 -13 42 -52 17 -94 l-21 -35 35 -13 c46
-16 44 -41 -9 -71 -77 -45 -83 -79 -44 -247 68 -296 87 -486 87 -880 0 -391
-22 -593 -103 -940 -7 -30 -11 -67 -8 -82 8 -38 46 -78 81 -85 43 -8 41 -45
-5 -73 l-34 -21 19 -32 c26 -43 25 -63 -6 -84 -35 -25 -84 -73 -84 -82 0 -14
44 -56 72 -68 39 -17 46 -57 18 -95 -25 -33 -16 -48 28 -48 17 0 22 -6 22 -28
0 -22 -8 -31 -44 -50 -77 -41 -80 -69 -29 -307 69 -321 73 -382 73 -1162 l0
-682 -22 -20 c-12 -12 -30 -23 -40 -27 -16 -5 -17 -7 -2 -30 21 -31 12 -69
-21 -90 -18 -12 -25 -25 -25 -49 l0 -33 175 -2 175 -1 0 40 c0 30 -5 41 -18
45 -11 4 -25 17 -32 31 -13 25 -12 29 18 86 1 4 -11 12 -28 19 -17 7 -35 21
-40 31 -6 11 -10 275 -10 679 0 798 8 910 97 1281 24 101 24 109 9 141 -17 34
-61 68 -90 68 -32 0 -19 46 19 69 l35 20 -20 33 c-26 44 -25 63 6 85 39 28 84
73 84 85 0 14 -40 50 -72 65 -38 17 -44 47 -18 90 23 39 19 50 -20 56 -18 3
-26 11 -28 28 -2 20 5 28 40 44 26 12 50 33 62 54 17 30 18 39 8 85 -97 426
-106 510 -107 971 0 267 4 420 13 485 21 150 51 315 78 428 20 85 23 110 14
137 -13 39 -38 64 -76 74 -44 11 -43 44 0 71 20 12 36 24 36 27 0 3 -9 16 -20
30 -11 14 -20 32 -20 40 0 8 25 38 55 67 57 54 69 84 35 93 -11 3 -20 9 -20
14 0 4 -12 14 -27 21 -45 22 -51 43 -25 88 12 21 22 41 22 44 0 3 -16 8 -35
12 -51 9 -48 42 7 69 27 13 48 34 61 59 l20 38 -26 112 c-86 366 -97 501 -97
1209 0 323 -3 587 -7 586 -5 0 -34 -21 -65 -47z"/>
</g>
</svg>
