<?xml version="1.0" standalone="no"?>
<!DOCTYPE svg PUBLIC "-//W3C//DTD SVG 20010904//EN"
 "http://www.w3.org/TR/2001/REC-SVG-20010904/DTD/svg10.dtd">
<svg version="1.0" xmlns="http://www.w3.org/2000/svg"
 width="2551.000000pt" height="2701.000000pt" viewBox="0 0 2551.000000 2701.000000"
 preserveAspectRatio="xMidYMid meet">

<g transform="translate(0.000000,2701.000000) scale(0.100000,-0.100000)"
fill="#3a4548" stroke="none">
<path d="M21163 26087 l-63 -51 -1 -545 c0 -300 -2 -555 -4 -566 -1 -11 -6
-58 -9 -105 -8 -109 -48 -356 -81 -490 -15 -60 -23 -116 -20 -132 9 -40 41
-76 76 -83 46 -10 48 -33 4 -69 l-38 -32 21 -30 c21 -28 21 -74 1 -74 -16 0
-89 -84 -89 -103 0 -10 9 -21 20 -24 11 -3 20 -9 20 -13 0 -4 13 -13 30 -20
45 -19 50 -59 11 -103 -14 -17 -14 -20 4 -33 10 -8 27 -14 37 -14 33 0 21 -38
-17 -56 -39 -18 -72 -55 -81 -90 -3 -13 8 -81 24 -151 75 -319 91 -483 87
-923 -3 -413 -22 -591 -97 -883 -11 -45 -17 -90 -13 -107 8 -37 51 -80 87 -87
42 -8 38 -44 -7 -69 -32 -17 -48 -44 -27 -44 5 0 14 -11 20 -25 12 -26 1 -75
-17 -75 -15 0 -81 -66 -81 -80 0 -16 43 -57 70 -65 12 -4 26 -17 32 -30 8 -19
6 -30 -11 -58 -11 -19 -21 -37 -21 -40 0 -3 16 -9 35 -13 30 -5 35 -10 35 -33
0 -21 -8 -29 -40 -43 -23 -9 -48 -30 -60 -50 -23 -37 -21 -62 10 -183 17 -65
46 -215 57 -295 3 -19 9 -62 15 -95 11 -64 24 -2450 13 -2493 -3 -13 -20 -30
-40 -39 -32 -15 -33 -18 -19 -37 22 -32 17 -62 -17 -89 -24 -19 -30 -30 -27
-53 l3 -29 173 -3 172 -2 0 38 c0 32 -5 41 -25 50 -33 15 -42 55 -20 89 10 15
14 28 9 30 -5 2 -24 12 -41 23 l-33 20 0 1154 c0 958 3 1178 15 1297 16 151
52 359 86 492 16 63 18 86 9 112 -13 39 -38 64 -76 74 -43 11 -46 54 -4 71 42
17 45 26 21 56 -12 15 -21 35 -21 45 0 19 6 25 69 78 44 36 53 70 22 78 -11 3
-22 11 -25 19 -3 8 -12 14 -20 14 -22 0 -48 43 -40 66 4 10 14 27 23 37 14 17
14 20 -4 33 -10 8 -27 14 -37 14 -12 0 -18 8 -18 24 0 19 10 29 44 46 31 14
49 32 62 58 16 35 16 40 -5 127 -84 355 -96 472 -96 930 0 458 12 568 92 904
14 60 22 115 18 130 -9 36 -52 79 -86 86 -40 9 -38 39 6 67 41 27 42 30 14 67
-21 28 -20 71 2 71 5 0 27 17 49 39 44 42 52 76 20 86 -11 3 -20 10 -20 15 0
4 -11 11 -25 14 -48 12 -50 48 -7 128 1 3 -13 12 -32 19 -40 15 -48 44 -15 54
37 12 88 65 94 99 4 19 -3 70 -18 131 -84 334 -90 408 -96 1146 l-6 646 -62
-50z"/>
</g>
</svg>
