<?xml version="1.0" standalone="no"?>
<!DOCTYPE svg PUBLIC "-//W3C//DTD SVG 20010904//EN"
 "http://www.w3.org/TR/2001/REC-SVG-20010904/DTD/svg10.dtd">
<svg version="1.0" xmlns="http://www.w3.org/2000/svg"
 width="2551.000000pt" height="2701.000000pt" viewBox="0 0 2551.000000 2701.000000"
 preserveAspectRatio="xMidYMid meet">

<g transform="translate(0.000000,2701.000000) scale(0.100000,-0.100000)"
fill="#3a4548" stroke="none">
<path d="M24600 26972 c0 -10 -17 -31 -39 -47 l-39 -30 24 -31 c13 -17 24 -33
24 -36 0 -3 -27 -33 -60 -67 -62 -64 -72 -87 -42 -98 9 -4 19 -9 22 -12 3 -4
17 -12 32 -18 43 -19 50 -44 28 -89 -22 -41 -18 -51 20 -57 40 -6 34 -30 -14
-64 -52 -36 -80 -84 -73 -122 3 -14 18 -84 35 -156 66 -286 77 -399 77 -830 0
-457 -15 -610 -92 -918 l-27 -109 19 -36 c13 -24 34 -44 63 -57 53 -25 54 -45
2 -79 l-41 -27 26 -30 c31 -38 31 -44 0 -72 -100 -89 -115 -114 -75 -124 11
-3 20 -9 20 -14 0 -5 16 -15 35 -23 30 -13 35 -20 35 -47 0 -20 -9 -42 -21
-56 l-22 -22 27 -11 c15 -5 34 -10 42 -10 8 0 14 -10 14 -24 0 -17 -8 -27 -29
-36 -43 -17 -80 -61 -84 -100 -2 -19 2 -57 9 -84 23 -87 53 -237 76 -377 20
-126 22 -175 25 -854 2 -395 2 -729 -1 -740 -3 -12 -24 -31 -46 -44 l-41 -23
21 -20 c30 -28 13 -79 -31 -93 -54 -17 -4 -25 166 -25 172 0 185 1 185 18 0
10 -13 28 -30 40 -35 26 -38 54 -10 82 l20 20 -37 18 c-21 9 -41 22 -45 27 -4
6 -8 315 -8 688 0 760 4 833 67 1137 48 233 50 261 23 300 -12 16 -35 33 -53
38 -24 6 -33 14 -35 33 -2 20 4 29 33 44 19 11 35 21 35 23 0 1 -10 16 -21 32
-26 34 -20 73 13 91 40 21 91 78 85 94 -4 8 -13 15 -21 15 -7 0 -16 6 -19 14
-3 8 -16 16 -29 18 -12 2 -29 15 -37 30 -14 25 -14 29 7 57 30 41 28 49 -13
57 -46 8 -50 45 -6 64 35 14 66 46 80 81 7 20 4 52 -15 130 -72 310 -94 518
-94 904 0 401 21 608 94 915 32 137 18 184 -60 210 -45 15 -45 43 1 72 38 25
43 39 20 58 -35 29 -29 49 34 109 34 32 61 65 61 74 0 10 -22 27 -54 42 -66
31 -75 52 -46 102 23 39 16 53 -27 53 -16 0 -23 6 -23 20 0 18 -7 20 -70 20
-61 0 -70 -2 -70 -18z"/>
</g>
</svg>
