<?xml version="1.0" standalone="no"?>
<!DOCTYPE svg PUBLIC "-//W3C//DTD SVG 20010904//EN"
 "http://www.w3.org/TR/2001/REC-SVG-20010904/DTD/svg10.dtd">
<svg version="1.0" xmlns="http://www.w3.org/2000/svg"
 width="2551.000000pt" height="2701.000000pt" viewBox="0 0 2551.000000 2701.000000"
 preserveAspectRatio="xMidYMid meet">

<g transform="translate(0.000000,2701.000000) scale(0.100000,-0.100000)"
fill="#3a4548" stroke="none">
<path d="M7098 14512 l-58 -45 0 -521 c0 -689 -9 -793 -106 -1234 -18 -81 -18
-83 1 -118 19 -35 59 -64 90 -64 21 0 20 -47 -2 -55 -10 -3 -26 -12 -36 -19
-17 -13 -17 -15 4 -50 18 -31 20 -41 11 -62 -7 -13 -18 -24 -26 -24 -8 0 -28
-19 -45 -42 l-31 -42 28 -28 c15 -15 33 -28 39 -28 7 0 20 -12 29 -26 16 -24
16 -27 -2 -62 -10 -20 -20 -40 -22 -44 -2 -3 13 -12 32 -19 46 -17 47 -44 4
-63 -45 -19 -78 -57 -84 -97 -4 -20 4 -74 19 -134 74 -295 91 -458 91 -895 1
-451 -9 -541 -105 -971 -10 -46 -10 -62 1 -89 14 -34 62 -70 93 -70 28 0 20
-38 -12 -54 -39 -21 -45 -43 -21 -73 28 -35 26 -45 -17 -80 -21 -17 -46 -44
-56 -61 -17 -30 -17 -31 5 -55 13 -13 33 -27 46 -31 39 -13 48 -49 23 -91 -25
-42 -22 -51 19 -60 42 -9 40 -40 -3 -59 -37 -15 -74 -57 -83 -92 -3 -13 8 -83
24 -156 91 -394 92 -421 92 -1742 0 -1018 -2 -1136 -16 -1150 -8 -9 -22 -16
-30 -16 -8 0 -20 -11 -26 -25 -9 -20 -8 -28 5 -43 23 -25 21 -49 -2 -57 -22
-7 -38 -72 -32 -130 1 -14 290 -10 304 4 6 6 13 37 15 69 4 53 2 60 -17 65
-30 7 -37 35 -17 67 21 37 22 37 -21 57 l-38 18 -3 1160 c-2 1005 -1 1180 13
1310 17 163 43 306 80 456 19 75 22 103 15 130 -12 41 -44 74 -82 83 -37 9
-36 36 2 58 33 19 39 48 15 68 -26 22 -17 55 23 88 22 17 45 45 52 62 12 29
11 33 -13 56 -14 13 -30 24 -35 24 -15 0 -42 35 -42 54 0 10 9 31 21 47 l21
29 -36 15 c-48 20 -47 45 4 67 32 13 45 27 61 63 l20 46 -30 132 c-72 308 -91
494 -91 893 0 382 23 598 95 894 14 58 22 114 18 131 -7 39 -46 78 -83 85 -42
9 -42 47 0 69 33 17 37 31 15 59 -25 33 -18 60 23 93 20 16 43 42 51 57 14 25
13 28 -10 49 -14 12 -34 27 -44 33 -10 6 -23 18 -29 27 -10 16 -9 24 19 90 6
14 1 20 -24 30 -38 14 -43 52 -8 63 78 24 103 78 81 176 -50 225 -62 286 -81
413 -13 90 -17 232 -22 771 l-6 662 -57 -46z"/>
</g>
</svg>
