<?xml version="1.0" standalone="no"?>
<!DOCTYPE svg PUBLIC "-//W3C//DTD SVG 20010904//EN"
 "http://www.w3.org/TR/2001/REC-SVG-20010904/DTD/svg10.dtd">
<svg version="1.0" xmlns="http://www.w3.org/2000/svg"
 width="2551.000000pt" height="2701.000000pt" viewBox="0 0 2551.000000 2701.000000"
 preserveAspectRatio="xMidYMid meet">

<g transform="translate(0.000000,2701.000000) scale(0.100000,-0.100000)"
fill="#3a4548" stroke="none">
<path d="M11794 18377 l-52 -42 -5 -605 c-2 -376 -9 -635 -16 -685 -22 -153
-53 -321 -77 -420 -14 -58 -23 -113 -19 -131 6 -36 49 -80 88 -89 22 -6 27
-13 27 -36 0 -17 -5 -29 -13 -29 -7 0 -21 -6 -30 -13 -17 -11 -17 -14 -1 -45
19 -40 12 -77 -18 -93 -29 -15 -57 -50 -57 -69 0 -18 27 -50 54 -66 33 -19 42
-61 21 -97 -17 -30 -17 -32 0 -44 10 -7 24 -13 31 -13 8 0 13 -12 13 -29 0
-23 -5 -30 -27 -36 -39 -9 -82 -53 -89 -90 -3 -18 3 -65 15 -110 70 -278 91
-461 98 -827 8 -423 -16 -679 -93 -1000 -15 -65 -23 -119 -19 -136 7 -36 50
-78 88 -87 20 -5 27 -13 27 -31 0 -13 -6 -24 -13 -24 -7 0 -22 -6 -33 -14 -18
-14 -18 -16 -1 -44 9 -17 17 -39 17 -49 0 -19 -28 -53 -44 -53 -4 0 -16 -10
-27 -22 -27 -33 -24 -72 8 -94 65 -47 77 -72 48 -110 -23 -31 -18 -52 15 -59
25 -5 30 -11 30 -36 0 -20 -5 -29 -15 -29 -32 0 -73 -30 -90 -66 -16 -35 -16
-39 14 -172 91 -404 93 -427 89 -1757 l-3 -1140 -37 -20 c-39 -21 -50 -48 -23
-59 23 -9 18 -50 -11 -75 -21 -18 -25 -29 -22 -69 l3 -47 153 -3 152 -3 0 61
c0 33 -4 60 -10 60 -5 0 -10 -5 -10 -11 0 -21 -19 2 -25 32 -5 22 -2 36 11 50
17 19 17 20 -5 35 -12 9 -31 25 -42 37 -20 22 -20 32 -16 1217 3 1059 5 1209
21 1314 20 145 61 357 81 422 8 27 15 63 15 80 0 43 -38 95 -80 109 -26 9 -36
18 -38 37 -3 22 2 27 27 33 35 7 39 24 15 60 -20 31 -12 70 18 86 12 7 32 22
45 34 20 18 22 25 14 46 -14 32 -32 54 -54 62 -9 3 -22 18 -29 32 -10 22 -8
30 11 55 25 34 22 44 -20 65 -39 20 -39 51 0 60 35 8 79 49 87 82 7 28 4 49
-30 198 -66 283 -89 552 -82 936 6 341 29 541 91 799 14 56 25 114 25 130 0
38 -51 96 -90 105 -23 5 -30 12 -30 31 0 18 9 27 35 38 l35 15 -20 33 c-33 55
-29 67 49 128 17 14 31 30 31 36 0 15 -41 58 -68 73 -33 18 -38 55 -12 96 l21
35 -28 12 c-58 26 -57 51 2 79 48 23 75 60 75 102 0 14 -14 81 -30 150 -76
320 -92 535 -88 1220 2 295 1 537 -2 537 -3 0 -28 -20 -56 -43z"/>
</g>
</svg>
