<?xml version="1.0" standalone="no"?>
<!DOCTYPE svg PUBLIC "-//W3C//DTD SVG 20010904//EN"
 "http://www.w3.org/TR/2001/REC-SVG-20010904/DTD/svg10.dtd">
<svg version="1.0" xmlns="http://www.w3.org/2000/svg"
 width="3542.000000pt" height="3750.000000pt" viewBox="0 0 3542.000000 3750.000000"
 preserveAspectRatio="xMidYMid meet">

<g transform="translate(0.000000,3750.000000) scale(0.100000,-0.100000)"
fill="#3a4548" stroke="none">
<path d="M20118 18712 l-36 -3 -5 -902 c-4 -839 -6 -915 -25 -1092 -12 -104
-31 -244 -42 -310 -11 -66 -20 -133 -20 -150 0 -39 33 -93 66 -105 20 -8 25
-16 22 -37 -2 -21 -10 -29 -38 -36 -55 -14 -62 -24 -34 -52 44 -44 21 -115
-38 -115 -10 0 -18 -4 -18 -10 0 -5 -14 -17 -31 -25 -35 -19 -36 -45 -1 -60
12 -5 22 -13 22 -17 0 -4 17 -15 37 -23 21 -9 41 -21 45 -28 15 -24 8 -61 -18
-88 l-26 -28 48 -14 c44 -13 49 -17 52 -45 2 -23 -1 -32 -11 -32 -23 0 -65
-56 -73 -96 -4 -20 3 -90 15 -167 57 -348 76 -663 68 -1087 -7 -313 -22 -514
-58 -750 -32 -219 -33 -233 -15 -268 9 -17 29 -38 45 -46 21 -11 28 -22 27
-42 -1 -23 -7 -29 -49 -41 l-48 -14 25 -30 c15 -17 26 -41 26 -54 0 -24 -42
-65 -66 -65 -7 0 -17 -6 -21 -12 -4 -7 -17 -18 -28 -24 -11 -6 -20 -19 -20
-29 0 -10 9 -23 20 -29 11 -6 24 -17 28 -23 4 -7 16 -13 25 -13 59 0 82 -71
37 -116 -14 -14 -25 -27 -25 -29 0 -2 21 -11 48 -18 63 -19 67 -44 14 -94 -57
-54 -60 -83 -28 -271 58 -346 59 -372 63 -1365 4 -744 2 -921 -9 -934 -7 -9
-32 -24 -56 -34 l-42 -19 20 -20 c28 -28 25 -64 -6 -89 -15 -12 -33 -21 -40
-21 -10 0 -14 -14 -14 -44 l0 -45 48 -7 c26 -4 81 -12 122 -18 64 -10 90 -9
183 8 l107 19 0 42 c0 36 -3 42 -30 52 -16 6 -35 23 -41 37 -11 23 -9 31 10
56 l22 30 -43 19 c-24 10 -48 27 -54 37 -12 21 -12 1715 0 1844 4 41 11 125
17 185 6 61 21 179 35 263 13 84 24 169 24 188 0 47 -25 92 -55 100 -20 5 -25
12 -25 39 0 29 4 33 33 39 56 11 62 20 33 49 -34 34 -33 70 0 96 15 12 33 21
40 21 7 0 17 6 21 13 4 6 17 17 28 23 31 17 32 52 1 60 -14 3 -26 12 -26 20 0
8 -8 14 -19 14 -29 0 -71 39 -71 66 0 14 11 36 25 50 31 31 25 42 -26 50 -35
6 -39 9 -39 36 0 20 8 37 25 50 34 27 55 69 55 112 0 20 -9 91 -20 158 -46
287 -53 379 -57 844 -5 485 5 676 48 963 32 205 34 243 15 280 -10 17 -28 37
-41 43 -19 9 -25 19 -25 43 0 30 3 33 37 40 54 10 56 13 28 47 -14 16 -25 40
-25 53 0 26 42 65 71 65 11 0 19 6 19 14 0 8 11 17 25 20 32 8 33 41 3 57 -13
7 -27 18 -31 25 -4 8 -16 14 -26 14 -26 0 -61 37 -61 66 0 14 12 37 26 51 29
29 23 38 -33 49 -29 5 -33 10 -33 38 0 24 7 35 29 48 45 25 58 80 42 182 -69
457 -71 509 -71 1497 l0 880 -47 -3 c-27 -2 -65 -4 -85 -6z"/>
</g>
</svg>
