<?xml version="1.0" standalone="no"?>
<!DOCTYPE svg PUBLIC "-//W3C//DTD SVG 20010904//EN"
 "http://www.w3.org/TR/2001/REC-SVG-20010904/DTD/svg10.dtd">
<svg version="1.0" xmlns="http://www.w3.org/2000/svg"
 width="3542.000000pt" height="3750.000000pt" viewBox="0 0 3542.000000 3750.000000"
 preserveAspectRatio="xMidYMid meet">

<g transform="translate(0.000000,3750.000000) scale(0.100000,-0.100000)"
fill="#3a4548" stroke="none">
<path d="M20938 18723 c-17 -4 -18 -54 -18 -866 0 -919 -4 -1024 -52 -1337
-31 -197 -30 -261 1 -294 14 -14 30 -26 38 -26 8 0 13 -12 13 -34 0 -30 -3
-34 -32 -40 -57 -11 -63 -20 -34 -49 14 -14 26 -37 26 -51 0 -25 -41 -66 -67
-66 -7 0 -16 -6 -19 -14 -3 -8 -14 -16 -25 -19 -27 -7 -37 -38 -15 -51 10 -6
27 -19 38 -28 12 -10 27 -18 35 -18 21 0 53 -38 53 -62 0 -12 -12 -34 -26 -49
l-26 -28 37 -15 c21 -9 41 -16 46 -16 23 0 7 -54 -25 -84 -48 -45 -52 -81 -27
-244 51 -336 61 -486 61 -936 0 -405 -12 -598 -56 -899 -31 -208 -28 -240 23
-272 23 -14 32 -28 33 -47 0 -19 -5 -28 -15 -28 -9 0 -30 -7 -47 -16 l-30 -16
26 -27 c14 -15 26 -37 26 -49 0 -24 -32 -62 -53 -62 -8 0 -23 -8 -35 -17 -11
-10 -28 -23 -38 -29 -22 -13 -12 -44 15 -51 11 -3 22 -11 25 -19 3 -8 12 -14
19 -14 26 0 67 -41 67 -66 0 -14 -12 -37 -26 -51 -29 -29 -23 -38 34 -49 29
-6 32 -10 32 -40 0 -19 -4 -34 -10 -34 -5 0 -20 -12 -34 -27 -36 -38 -42 -98
-23 -207 22 -120 44 -293 57 -441 14 -158 14 -1848 0 -1874 -5 -10 -29 -27
-53 -37 l-43 -17 23 -23 c13 -13 23 -30 23 -39 0 -20 -44 -65 -65 -65 -11 0
-15 -11 -15 -43 l0 -44 119 -17 c114 -17 123 -17 225 0 l106 18 0 41 c0 35 -4
42 -28 53 -53 23 -62 84 -16 110 12 7 5 14 -35 31 -35 15 -53 29 -57 45 -7 30
1 1851 9 1896 4 19 14 98 22 175 9 77 23 182 32 234 24 146 6 231 -49 231 -14
0 -18 8 -18 35 0 29 4 35 21 35 17 0 54 14 68 26 2 2 -8 17 -23 34 -14 17 -26
38 -26 46 0 22 46 64 70 64 11 0 20 6 20 14 0 8 10 16 23 18 28 4 30 46 2 62
-10 6 -25 17 -33 24 -7 6 -19 12 -26 12 -17 0 -56 43 -56 62 0 9 11 30 25 46
14 17 25 32 25 35 0 3 -20 11 -45 18 -39 12 -45 17 -45 41 0 20 7 32 25 40 13
6 32 27 41 46 19 41 18 67 -20 337 -39 280 -49 500 -43 918 5 379 18 548 57
795 11 67 20 141 20 163 0 50 -24 97 -55 109 -19 7 -25 17 -25 38 0 26 5 31
45 42 25 7 45 15 45 17 0 3 -11 18 -25 35 -14 16 -25 37 -25 47 0 21 36 56 68
66 12 3 22 10 22 14 0 4 11 13 25 19 15 7 25 20 25 32 0 13 -9 22 -25 26 -14
3 -25 12 -25 20 0 8 -9 14 -20 14 -24 0 -70 42 -70 64 0 8 12 29 26 46 15 17
25 32 23 34 -14 12 -51 26 -68 26 -17 0 -21 6 -21 35 0 22 5 35 13 35 26 0 59
48 64 92 3 24 -4 107 -16 184 -54 354 -53 350 -58 1332 l-4 922 -67 -1 c-37
-1 -75 -3 -84 -6z"/>
</g>
</svg>
