<?xml version="1.0" standalone="no"?>
<!DOCTYPE svg PUBLIC "-//W3C//DTD SVG 20010904//EN"
 "http://www.w3.org/TR/2001/REC-SVG-20010904/DTD/svg10.dtd">
<svg version="1.0" xmlns="http://www.w3.org/2000/svg"
 width="3542.000000pt" height="3750.000000pt" viewBox="0 0 3542.000000 3750.000000"
 preserveAspectRatio="xMidYMid meet">

<g transform="translate(0.000000,3750.000000) scale(0.100000,-0.100000)"
fill="#3a4548" stroke="none">
<path d="M23480 17908 c0 -948 -7 -1075 -71 -1412 -10 -56 -19 -114 -19 -131
0 -39 33 -93 65 -105 19 -7 25 -17 25 -40 0 -24 -5 -31 -27 -36 -16 -4 -36
-11 -46 -16 -17 -9 -17 -11 7 -35 14 -14 26 -36 26 -49 0 -27 -32 -64 -55 -64
-8 0 -24 -8 -34 -17 -11 -10 -26 -24 -35 -31 -19 -15 -12 -36 17 -51 91 -48
102 -57 105 -85 3 -20 -4 -36 -24 -57 l-27 -28 27 -11 c15 -5 36 -10 47 -10
15 0 19 -7 19 -33 0 -28 -5 -36 -32 -48 -49 -21 -65 -72 -50 -158 72 -400 85
-584 79 -1102 -5 -437 -10 -496 -58 -771 -34 -196 -35 -217 -7 -258 13 -19 34
-39 46 -45 16 -7 22 -18 22 -40 0 -28 -4 -32 -47 -43 l-46 -13 26 -27 c44 -46
31 -98 -30 -116 -13 -4 -23 -12 -23 -17 0 -5 -6 -9 -13 -9 -8 0 -22 -9 -32
-20 -15 -16 -15 -22 -5 -35 7 -8 19 -15 27 -15 7 0 16 -6 19 -14 3 -8 16 -17
29 -20 57 -14 72 -70 30 -111 l-24 -25 29 -15 c16 -8 36 -15 45 -15 10 0 15
-10 15 -31 0 -25 -5 -32 -30 -41 -34 -11 -60 -53 -60 -95 0 -15 9 -80 20 -143
30 -166 48 -306 61 -460 16 -188 20 -1791 5 -1811 -6 -8 -30 -23 -54 -33 l-42
-19 20 -22 c11 -12 20 -31 20 -42 0 -22 -43 -63 -66 -63 -9 0 -12 -13 -11 -42
2 -48 1 -47 147 -63 36 -4 68 -9 73 -12 4 -2 57 4 117 14 l110 18 0 42 c0 32
-4 43 -15 43 -21 0 -65 45 -65 65 0 9 11 27 24 40 l24 24 -49 17 c-26 10 -51
24 -54 32 -3 7 -5 390 -5 850 0 681 3 866 15 992 19 187 42 354 61 435 28 122
13 200 -46 230 -22 12 -30 23 -30 43 0 24 6 29 45 41 25 7 45 15 45 18 0 3
-11 18 -25 35 -14 16 -25 38 -25 48 0 20 44 60 67 60 7 0 16 6 19 14 3 8 14
16 25 19 28 8 36 37 13 53 -10 7 -23 17 -29 22 -5 4 -25 14 -43 21 -57 24 -66
63 -27 109 28 34 26 37 -28 47 -34 7 -37 10 -37 41 0 27 4 34 19 34 11 0 31
14 45 31 32 38 33 76 7 220 -58 314 -65 416 -66 899 0 485 6 589 51 844 14 78
28 173 31 211 5 66 4 73 -21 102 -15 18 -36 35 -47 38 -28 9 -23 68 6 74 11 2
30 7 43 12 l24 9 -26 31 c-14 17 -26 39 -26 49 0 21 36 60 55 60 7 0 21 8 33
18 11 9 28 22 38 28 21 12 13 41 -13 51 -10 4 -22 12 -26 20 -4 7 -16 13 -26
13 -21 0 -61 40 -61 62 0 9 11 30 25 46 28 33 27 34 -27 51 -32 11 -38 17 -38
41 0 22 6 30 29 38 35 12 61 57 61 104 0 18 -13 112 -29 208 -16 96 -34 229
-41 295 -6 66 -13 138 -15 160 -2 22 -4 419 -4 883 l-1 842 -85 0 -85 0 0
-842z"/>
</g>
</svg>
