<?xml version="1.0" standalone="no"?>
<!DOCTYPE svg PUBLIC "-//W3C//DTD SVG 20010904//EN"
 "http://www.w3.org/TR/2001/REC-SVG-20010904/DTD/svg10.dtd">
<svg version="1.0" xmlns="http://www.w3.org/2000/svg"
 width="3542.000000pt" height="3750.000000pt" viewBox="0 0 3542.000000 3750.000000"
 preserveAspectRatio="xMidYMid meet">

<g transform="translate(0.000000,3750.000000) scale(0.100000,-0.100000)"
fill="#3a4548" stroke="none">
<path d="M26447 17793 c-5 -1029 -6 -1050 -79 -1423 -27 -137 -22 -194 21
-232 17 -15 38 -28 46 -28 10 0 15 -11 15 -35 0 -28 -4 -35 -20 -35 -23 0 -70
-20 -70 -30 0 -4 7 -14 16 -21 46 -38 32 -100 -27 -121 -16 -5 -29 -14 -29
-18 0 -4 -13 -13 -30 -19 -39 -13 -41 -47 -2 -64 15 -6 29 -14 32 -18 3 -3 19
-14 37 -23 18 -9 37 -25 43 -35 12 -23 1 -60 -24 -80 -9 -7 -16 -17 -16 -21 0
-10 47 -30 70 -30 16 0 20 -7 20 -34 0 -29 -4 -34 -30 -39 -19 -4 -37 -18 -51
-39 -25 -41 -23 -89 14 -298 47 -268 59 -405 64 -777 7 -462 -10 -712 -72
-1039 -14 -72 -25 -148 -25 -170 0 -48 29 -98 70 -119 23 -12 30 -22 30 -45 0
-24 -4 -30 -20 -30 -12 0 -35 -7 -52 -16 -27 -14 -29 -18 -15 -26 9 -5 24 -23
33 -39 14 -28 14 -33 -1 -56 -9 -13 -30 -29 -46 -35 -16 -5 -29 -14 -29 -19 0
-6 -13 -15 -30 -20 -56 -20 -28 -60 72 -105 53 -24 57 -65 10 -116 l-24 -27
48 -14 c44 -13 49 -17 52 -45 3 -26 0 -32 -17 -32 -11 0 -33 -11 -48 -24 -26
-22 -28 -30 -28 -93 0 -37 12 -138 28 -223 59 -338 59 -338 64 -1334 2 -506 2
-929 -1 -941 -4 -15 -23 -29 -58 -44 l-51 -21 21 -21 c39 -35 24 -89 -28 -108
-29 -10 -31 -13 -28 -53 l3 -42 130 -18 c132 -19 178 -17 298 13 35 9 37 12
37 50 0 34 -4 41 -27 50 -53 20 -69 73 -33 109 20 20 19 20 -30 41 -33 14 -52
29 -56 43 -3 12 -3 434 -1 937 3 763 7 935 20 1039 20 152 43 302 63 393 29
139 15 203 -52 234 -30 15 -35 22 -32 47 3 25 9 31 52 43 l48 14 -24 27 c-55
59 -46 85 47 137 73 41 83 65 35 85 -16 7 -30 15 -30 19 0 4 -13 12 -29 18
-16 6 -36 22 -46 36 -15 23 -15 28 -1 56 9 16 24 34 33 39 14 8 12 12 -15 26
-17 9 -40 16 -52 16 -16 0 -20 6 -20 30 0 24 6 32 34 44 76 32 80 70 32 338
-53 302 -61 418 -61 883 1 464 9 578 62 870 36 203 39 262 13 304 -12 18 -34
38 -50 44 -25 9 -30 17 -30 43 0 29 3 32 39 38 50 8 59 21 34 49 -44 48 -34
92 26 117 17 7 31 16 31 20 0 5 14 13 30 19 21 7 30 17 30 31 0 14 -9 24 -30
31 -16 6 -30 15 -30 19 0 4 -13 13 -29 18 -59 21 -73 83 -27 121 9 7 16 17 16
21 0 10 -47 30 -70 30 -16 0 -20 7 -20 34 0 29 4 34 30 39 38 8 70 58 70 112
0 22 -9 85 -19 140 -11 55 -27 154 -36 220 -39 282 -43 390 -44 1264 -1 469
-3 857 -6 861 -2 4 -40 8 -84 9 l-80 2 -4 -928z"/>
</g>
</svg>
