<?xml version="1.0" standalone="no"?>
<!DOCTYPE svg PUBLIC "-//W3C//DTD SVG 20010904//EN"
 "http://www.w3.org/TR/2001/REC-SVG-20010904/DTD/svg10.dtd">
<svg version="1.0" xmlns="http://www.w3.org/2000/svg"
 width="3542.000000pt" height="3750.000000pt" viewBox="0 0 3542.000000 3750.000000"
 preserveAspectRatio="xMidYMid meet">

<g transform="translate(0.000000,3750.000000) scale(0.100000,-0.100000)"
fill="#3a4548" stroke="none">
<path d="M14439 17268 c0 -761 0 -1411 1 -1446 1 -44 -2 -63 -12 -66 -7 -2
-32 -9 -56 -15 l-43 -12 30 -35 c17 -19 31 -44 31 -55 0 -25 -40 -66 -74 -75
-14 -3 -26 -12 -26 -20 0 -8 -8 -14 -19 -14 -24 0 -45 -25 -37 -45 3 -8 17
-20 31 -25 14 -5 25 -14 25 -19 0 -5 12 -12 28 -16 37 -9 72 -44 72 -71 0 -13
-14 -39 -31 -58 l-30 -35 43 -12 c24 -6 49 -13 57 -15 11 -4 13 -222 8 -1402
l-6 -1397 -28 -6 c-15 -3 -38 -11 -50 -17 l-22 -12 30 -29 c16 -16 29 -39 29
-51 0 -27 -52 -80 -79 -80 -12 0 -21 -6 -21 -15 0 -8 -8 -15 -19 -15 -24 0
-45 -25 -37 -45 3 -8 17 -20 31 -25 14 -5 25 -14 25 -19 0 -5 16 -15 35 -21
37 -12 65 -43 65 -72 0 -9 -14 -33 -31 -53 -28 -31 -29 -35 -12 -41 10 -3 26
-10 35 -15 10 -5 25 -9 33 -9 13 0 15 -84 17 -717 2 -1252 -3 -2187 -14 -2200
-5 -6 -29 -20 -54 -30 -24 -10 -44 -21 -44 -24 0 -3 9 -14 20 -24 11 -10 20
-29 20 -42 0 -26 -41 -73 -63 -73 -18 0 -27 -21 -27 -66 0 -42 7 -46 150 -68
103 -16 108 -16 233 5 l127 22 0 54 c0 38 -4 53 -14 53 -7 0 -25 9 -40 21 -32
25 -35 70 -5 100 11 11 19 22 17 23 -1 2 -23 11 -47 20 -25 10 -51 25 -58 34
-10 14 -12 304 -13 1462 l0 1446 45 13 c25 7 48 17 51 23 3 5 -6 21 -20 35
-47 46 -23 111 47 128 15 4 27 13 27 20 0 8 10 15 23 17 16 2 23 11 25 30 3
22 -2 29 -22 34 -14 3 -26 12 -26 20 0 8 -9 14 -19 14 -29 0 -81 48 -81 75 0
13 11 37 25 53 14 17 25 32 25 36 0 3 -21 12 -47 19 l-48 14 0 1399 0 1398 44
11 c54 13 59 24 26 55 -46 43 -29 102 35 121 22 7 37 16 34 21 -3 5 8 13 25
19 40 14 44 55 6 65 -14 3 -25 10 -25 16 0 5 -15 15 -34 23 -71 30 -87 81 -39
129 30 31 27 37 -30 51 l-42 11 -3 1447 -2 1447 -90 0 -90 0 -1 -1382z"/>
</g>
</svg>
