<?xml version="1.0" standalone="no"?>
<!DOCTYPE svg PUBLIC "-//W3C//DTD SVG 20010904//EN"
 "http://www.w3.org/TR/2001/REC-SVG-20010904/DTD/svg10.dtd">
<svg version="1.0" xmlns="http://www.w3.org/2000/svg"
 width="3542.000000pt" height="3750.000000pt" viewBox="0 0 3542.000000 3750.000000"
 preserveAspectRatio="xMidYMid meet">

<g transform="translate(0.000000,3750.000000) scale(0.100000,-0.100000)"
fill="#3a4548" stroke="none">
<path d="M24440 17442 l0 -1298 -45 -13 c-25 -7 -45 -16 -45 -18 0 -3 11 -16
25 -29 14 -13 25 -34 25 -47 0 -26 -38 -67 -63 -67 -9 0 -20 -6 -24 -12 -4 -7
-17 -18 -28 -24 -11 -6 -20 -19 -20 -29 0 -10 9 -23 20 -29 11 -6 24 -17 28
-23 4 -7 16 -13 26 -13 26 0 61 -37 61 -66 0 -14 -12 -36 -27 -50 -31 -29 -24
-39 35 -50 l32 -6 -2 -1256 -3 -1256 -35 -9 c-50 -12 -55 -21 -26 -50 14 -14
26 -36 26 -47 0 -25 -46 -70 -71 -70 -11 0 -19 -4 -19 -8 0 -5 -11 -14 -25
-20 -15 -7 -25 -20 -25 -32 0 -13 10 -24 25 -30 14 -5 25 -14 25 -19 0 -5 11
-12 25 -15 33 -8 65 -41 65 -66 0 -12 -12 -33 -26 -47 -29 -29 -25 -35 29 -53
l37 -12 -2 -1306 -3 -1307 -54 -26 c-41 -20 -50 -29 -39 -35 8 -5 21 -19 27
-32 16 -29 -7 -69 -44 -78 -22 -5 -25 -11 -25 -54 l0 -48 88 -13 c104 -17 248
-15 317 3 49 13 50 14 53 56 3 33 -1 44 -15 49 -28 10 -63 45 -63 63 0 10 9
29 20 43 l20 25 -42 17 c-23 9 -48 24 -55 33 -10 14 -12 270 -11 1313 l1 1296
49 18 49 17 -25 27 c-43 45 -29 97 31 115 11 4 24 13 27 21 3 8 12 15 19 15 8
0 20 6 26 14 13 16 4 46 -14 46 -6 0 -22 9 -35 20 -13 11 -28 20 -35 20 -19 0
-45 35 -45 60 0 13 12 36 27 52 28 30 28 30 -37 46 l-35 8 -3 1257 -2 1257 21
0 c17 0 54 14 68 26 3 2 -5 14 -16 27 -35 38 -37 64 -9 92 14 14 34 25 46 25
11 0 20 6 20 14 0 8 11 17 24 20 13 3 26 12 29 21 7 17 -18 45 -39 45 -8 0
-14 7 -14 15 0 8 -9 15 -19 15 -24 0 -57 29 -65 56 -5 15 2 32 20 54 31 36 25
45 -33 56 l-33 6 0 1299 0 1299 -85 0 -85 0 0 -1298z"/>
</g>
</svg>
