<?xml version="1.0" standalone="no"?>
<!DOCTYPE svg PUBLIC "-//W3C//DTD SVG 20010904//EN"
 "http://www.w3.org/TR/2001/REC-SVG-20010904/DTD/svg10.dtd">
<svg version="1.0" xmlns="http://www.w3.org/2000/svg"
 width="3542.000000pt" height="3750.000000pt" viewBox="0 0 3542.000000 3750.000000"
 preserveAspectRatio="xMidYMid meet">

<g transform="translate(0.000000,3750.000000) scale(0.100000,-0.100000)"
fill="#3a4548" stroke="none">
<path d="M33230 17175 c0 -1427 0 -1465 -19 -1465 -10 0 -35 -7 -55 -15 l-37
-16 30 -35 c17 -19 31 -44 31 -55 0 -25 -40 -66 -74 -75 -14 -3 -26 -12 -26
-20 0 -8 -8 -14 -19 -14 -46 0 -51 -65 -5 -76 13 -3 24 -12 24 -20 0 -8 10
-14 25 -14 31 0 75 -41 75 -69 0 -11 -14 -36 -30 -55 -34 -38 -32 -42 34 -61
l41 -12 1 -1404 c1 -843 -2 -1409 -7 -1415 -5 -7 -24 -14 -41 -18 -56 -11 -62
-24 -28 -63 17 -18 30 -42 30 -52 0 -23 -38 -58 -72 -66 -16 -4 -28 -12 -28
-19 0 -6 -14 -17 -31 -23 -39 -15 -37 -52 4 -71 15 -7 27 -17 27 -22 0 -5 16
-14 35 -20 37 -12 65 -43 65 -71 0 -9 -13 -31 -30 -49 -16 -18 -28 -36 -25
-40 3 -4 25 -14 50 -21 l45 -13 -1 -56 c0 -30 2 -687 5 -1460 5 -1164 4 -1408
-7 -1422 -8 -10 -37 -28 -65 -41 l-51 -24 24 -23 c42 -40 28 -91 -30 -110 -34
-11 -35 -13 -35 -60 0 -27 4 -51 8 -54 4 -2 46 -10 92 -16 47 -6 96 -13 110
-16 98 -17 133 -16 220 7 l90 23 0 53 c0 48 -2 53 -25 59 -27 7 -65 48 -65 70
0 7 11 26 25 42 l25 30 -53 22 c-28 12 -55 28 -59 34 -4 6 -8 671 -8 1479 0
1109 3 1467 12 1467 16 0 88 33 88 40 0 4 -11 17 -25 30 -44 41 -29 101 30
120 19 6 35 16 35 21 0 6 13 15 29 20 16 6 31 19 34 29 5 21 -21 50 -46 50 -9
0 -16 5 -15 11 2 7 -10 15 -26 20 -68 19 -89 84 -41 129 14 13 25 27 25 31 0
5 -21 15 -47 22 l-48 14 -3 1417 -2 1416 20 0 c12 0 35 7 52 16 l30 16 -26 27
c-35 37 -35 82 0 110 15 12 35 21 45 21 11 0 19 6 19 14 0 8 14 19 30 25 22 7
30 16 30 35 0 18 -8 27 -30 35 -16 5 -30 15 -30 20 0 6 -7 11 -16 11 -9 0 -29
9 -45 21 -39 27 -40 79 -4 115 27 27 25 44 -5 44 -10 0 -22 5 -25 10 -3 6 -15
10 -26 10 -19 0 -19 22 -19 1465 l0 1465 -95 0 -95 0 0 -1465z"/>
</g>
</svg>
