<?xml version="1.0" standalone="no"?>
<!DOCTYPE svg PUBLIC "-//W3C//DTD SVG 20010904//EN"
 "http://www.w3.org/TR/2001/REC-SVG-20010904/DTD/svg10.dtd">
<svg version="1.0" xmlns="http://www.w3.org/2000/svg"
 width="3542.000000pt" height="3750.000000pt" viewBox="0 0 3542.000000 3750.000000"
 preserveAspectRatio="xMidYMid meet">

<g transform="translate(0.000000,3750.000000) scale(0.100000,-0.100000)"
fill="#3a4548" stroke="none">
<path d="M4968 16863 l-3 -1658 -25 -3 c-14 -2 -29 -8 -34 -13 -6 -5 -18 -9
-27 -9 -31 0 -31 -20 0 -56 40 -45 41 -85 4 -114 -15 -12 -40 -24 -55 -27 -16
-3 -28 -11 -28 -17 0 -7 -15 -19 -32 -27 -25 -10 -33 -20 -33 -39 0 -19 8 -29
33 -39 17 -8 32 -20 32 -27 0 -6 12 -14 28 -17 15 -3 40 -15 55 -27 37 -29 36
-69 -3 -113 -16 -19 -30 -37 -30 -40 0 -6 54 -28 88 -36 l23 -6 2 -1599 c1
-1059 -1 -1599 -8 -1601 -49 -13 -97 -30 -101 -37 -3 -5 8 -24 25 -44 19 -21
31 -46 31 -63 0 -34 -35 -68 -78 -77 -18 -4 -32 -12 -32 -18 0 -6 -15 -18 -33
-26 -45 -21 -45 -59 1 -79 17 -8 32 -20 32 -27 0 -6 14 -14 32 -18 43 -9 78
-43 78 -77 0 -17 -12 -42 -31 -63 -30 -35 -32 -56 -3 -56 8 0 24 -5 37 -12 12
-6 29 -14 37 -18 13 -6 15 -202 18 -1654 2 -1860 11 -1678 -84 -1717 -30 -13
-54 -25 -54 -28 0 -3 12 -17 25 -30 14 -13 25 -34 25 -48 0 -29 -38 -70 -74
-79 -24 -6 -26 -10 -26 -66 0 -51 3 -61 20 -65 11 -3 20 -9 20 -14 0 -5 13 -9
29 -9 17 0 60 -7 97 -16 65 -15 74 -14 228 11 89 15 168 28 176 29 11 2 16 18
17 62 l3 59 -42 20 c-33 15 -45 28 -52 54 -9 31 -7 36 23 63 18 16 31 31 29
32 -1 1 -29 13 -61 26 -32 12 -62 31 -67 41 -6 11 -10 630 -10 1678 0 1618 0
1661 19 1661 22 0 91 28 91 36 0 4 -13 22 -30 41 -16 18 -30 45 -30 59 0 32
40 73 80 80 16 4 30 12 30 18 0 7 15 19 33 27 45 20 45 58 0 79 -18 8 -33 20
-33 26 0 6 -14 14 -30 18 -40 7 -80 48 -80 80 0 14 14 41 31 61 36 41 33 47
-31 68 l-45 15 -3 1601 c-2 1561 -2 1601 17 1601 22 0 91 28 91 36 0 4 -13 22
-30 41 -16 18 -30 45 -30 59 0 32 40 73 80 80 16 4 30 12 30 18 0 7 15 19 33
27 45 20 45 58 0 79 -18 8 -33 20 -33 26 0 6 -14 14 -30 18 -40 7 -80 48 -80
80 0 14 14 41 30 59 17 19 30 37 30 41 0 8 -69 36 -91 36 -21 0 -20 -205 -19
2233 l0 1087 -110 0 -110 0 -2 -1657z"/>
</g>
</svg>
