<?xml version="1.0" standalone="no"?>
<!DOCTYPE svg PUBLIC "-//W3C//DTD SVG 20010904//EN"
 "http://www.w3.org/TR/2001/REC-SVG-20010904/DTD/svg10.dtd">
<svg version="1.0" xmlns="http://www.w3.org/2000/svg"
 width="2644.000000pt" height="2800.000000pt" viewBox="0 0 2644.000000 2800.000000"
 preserveAspectRatio="xMidYMid meet">

<g transform="translate(0.000000,2800.000000) scale(0.100000,-0.100000)"
fill="#3a4548" stroke="none">
<path d="M6730 17518 c0 -2 -1 -324 -1 -716 l0 -712 -38 -20 c-85 -43 -176
-159 -234 -297 l-32 -78 -3 -406 -3 -406 71 -254 c108 -386 160 -575 160 -583
0 -3 -24 -6 -54 -6 -73 0 -100 -12 -130 -57 -53 -81 -58 -202 -11 -249 20 -20
34 -24 83 -24 32 0 66 6 76 13 19 14 50 113 40 128 -3 5 -27 9 -55 9 -48 0
-49 -1 -49 -30 0 -16 -4 -30 -10 -30 -31 0 4 146 43 178 14 12 20 8 46 -33 45
-70 91 -188 91 -231 0 -21 6 -45 14 -53 18 -20 70 -205 92 -331 58 -321 -29
-815 -162 -916 -32 -25 -37 -26 -61 -13 -39 21 -90 105 -109 179 -25 98 -16
222 19 283 16 26 32 47 37 47 17 0 30 -38 30 -85 0 -39 -5 -52 -30 -75 -16
-15 -30 -30 -30 -33 0 -13 93 -19 116 -8 67 30 71 205 6 240 -12 6 -52 11 -91
11 -60 0 -74 -3 -100 -26 l-31 -26 0 -217 0 -218 31 -42 c17 -24 44 -50 60
-59 16 -10 29 -19 29 -22 -1 -3 -15 -14 -32 -25 -18 -11 -45 -40 -60 -65 l-28
-45 -1 -347 -2 -347 42 -71 c47 -78 114 -136 169 -145 17 -3 47 -7 66 -10 l34
-6 1 -676 c2 -749 5 -710 -64 -733 l-37 -12 23 -24 c19 -20 21 -27 11 -49 -7
-14 -23 -30 -37 -37 -19 -9 -25 -19 -25 -43 0 -30 3 -33 38 -39 61 -10 235 -7
295 5 l57 12 0 38 c0 32 -4 39 -19 39 -43 0 -59 63 -24 92 13 10 8 15 -29 33
l-43 20 -3 702 -2 701 34 21 c60 37 141 135 188 227 91 178 132 363 132 604
-1 222 5 195 -225 1020 -29 106 -45 177 -39 180 6 4 32 5 58 3 61 -5 102 20
129 78 41 87 38 184 -7 229 -19 19 -31 20 -143 11 -16 -2 -47 -68 -47 -103 l0
-38 50 0 c47 0 50 2 50 25 0 14 5 25 11 25 17 0 4 -95 -19 -133 -27 -47 -43
-44 -80 16 -37 62 -95 213 -89 236 2 9 -3 29 -11 45 -29 58 -73 233 -88 351
-42 316 26 721 141 841 23 24 46 44 53 44 21 0 74 -54 98 -101 30 -61 54 -158
54 -225 0 -63 -26 -147 -52 -171 -19 -17 -20 -17 -34 2 -8 10 -14 38 -14 62 0
33 7 50 30 76 16 19 27 37 23 41 -3 3 -30 6 -59 6 -44 0 -56 -4 -72 -25 -41
-52 -36 -170 9 -211 17 -15 36 -19 99 -19 69 0 81 3 104 24 14 13 35 49 47 80
18 48 20 71 16 161 -7 154 -55 271 -129 318 l-29 19 28 18 c141 89 192 411
112 705 -28 104 -71 189 -125 249 -55 61 -92 83 -154 90 l-45 6 -3 701 -2 702
-31 6 c-31 6 -109 9 -109 4z m168 -1462 c49 -25 123 -115 158 -191 56 -121 77
-228 77 -385 0 -149 -15 -229 -60 -312 -38 -71 -67 -94 -101 -82 -65 23 -133
196 -117 302 7 51 43 142 55 142 11 0 30 -58 30 -92 0 -16 -7 -45 -15 -65 -8
-19 -15 -37 -15 -39 0 -2 24 -4 54 -4 52 0 55 1 65 31 25 73 -1 206 -44 223
-8 3 -44 3 -80 -1 -58 -5 -69 -10 -95 -39 -106 -122 -62 -412 75 -490 18 -10
16 -12 -18 -29 -45 -21 -77 -60 -112 -138 -33 -72 -81 -261 -91 -355 -3 -41
-10 -70 -14 -65 -9 9 -126 429 -146 521 -79 365 6 793 196 982 51 52 128 100
158 100 7 0 25 -6 40 -14z m137 -3367 c81 -295 87 -333 89 -509 1 -207 -26
-355 -95 -522 -60 -146 -155 -257 -265 -311 -39 -19 -42 -19 -78 -2 -84 40
-169 179 -201 330 -34 161 -19 390 34 510 26 60 94 127 122 123 50 -7 108
-137 109 -245 0 -53 -18 -139 -37 -177 -15 -28 -16 -29 -29 -11 -18 24 -17
113 1 145 22 38 19 40 -39 40 -54 0 -55 -1 -66 -36 -7 -20 -10 -65 -8 -100 5
-81 29 -110 96 -116 26 -3 55 -8 65 -12 13 -7 27 1 56 32 53 55 71 115 71 230
0 86 -3 102 -30 158 -31 63 -62 103 -94 121 -17 9 -14 14 28 53 78 72 140 236
166 442 19 147 20 151 37 98 8 -25 38 -133 68 -241z"/>
</g>
</svg>
