<?xml version="1.0" standalone="no"?>
<!DOCTYPE svg PUBLIC "-//W3C//DTD SVG 20010904//EN"
 "http://www.w3.org/TR/2001/REC-SVG-20010904/DTD/svg10.dtd">
<svg version="1.0" xmlns="http://www.w3.org/2000/svg"
 width="2644.000000pt" height="2800.000000pt" viewBox="0 0 2644.000000 2800.000000"
 preserveAspectRatio="xMidYMid meet">

<g transform="translate(0.000000,2800.000000) scale(0.100000,-0.100000)"
fill="#3a4548" stroke="none">
<path d="M20456 27141 l-56 -57 0 -529 0 -530 -48 -17 c-78 -28 -222 -122
-306 -200 -163 -150 -269 -334 -323 -560 -27 -112 -24 -356 5 -464 29 -110 20
-90 328 -718 151 -307 272 -561 270 -564 -3 -2 -27 15 -54 39 -108 97 -212
118 -319 63 -133 -68 -193 -236 -111 -311 99 -90 231 -70 273 41 20 53 17 66
-19 86 -24 12 -28 12 -36 0 -6 -8 -10 -26 -10 -38 0 -38 -61 -92 -103 -92 -90
0 -90 138 0 222 57 54 159 82 216 60 32 -13 146 -132 191 -200 32 -48 43 -75
41 -96 -3 -22 4 -36 30 -60 37 -35 131 -216 163 -316 69 -213 75 -421 17 -643
-63 -243 -201 -444 -341 -496 -36 -14 -83 -21 -151 -23 -92 -2 -101 -1 -152
27 -135 74 -217 278 -166 411 36 96 131 164 228 164 60 0 97 -33 97 -87 0 -61
-28 -96 -92 -117 -28 -9 -21 -33 14 -45 58 -20 131 35 147 110 22 106 -70 189
-209 189 -105 0 -199 -63 -245 -165 -34 -73 -39 -122 -21 -198 33 -143 117
-248 238 -302 37 -17 68 -32 68 -35 0 -3 -26 -16 -58 -30 -80 -34 -182 -137
-222 -222 -86 -183 -78 -424 21 -620 36 -71 117 -169 177 -214 107 -79 290
-144 410 -144 l52 0 -2 -572 -3 -573 -40 -20 c-22 -11 -42 -21 -44 -22 -2 -2
3 -11 12 -21 27 -29 21 -68 -13 -94 -16 -12 -30 -29 -30 -38 0 -18 58 -19 299
-4 l94 6 -31 25 c-37 28 -41 58 -11 89 l20 21 -40 16 c-22 9 -45 25 -51 36 -7
14 -9 205 -8 597 l3 577 90 36 c261 105 452 298 563 567 84 202 99 443 41 654
-20 72 -134 314 -463 979 -80 162 -143 297 -141 300 3 2 24 -15 48 -39 75 -76
195 -115 283 -91 115 31 217 161 200 255 -18 97 -150 165 -235 121 -67 -34
-113 -134 -75 -162 30 -22 51 -16 58 18 9 48 43 87 85 100 49 15 75 1 91 -47
10 -30 9 -43 -5 -81 -37 -97 -119 -154 -221 -154 -70 0 -107 22 -185 115 -79
92 -119 162 -119 206 0 27 -8 43 -38 71 -47 44 -134 234 -168 366 -61 239 -36
487 72 735 102 236 223 338 417 353 72 6 97 4 140 -12 136 -48 245 -252 208
-390 -31 -116 -129 -193 -246 -193 -77 0 -95 16 -95 82 0 37 6 52 29 77 16 17
39 31 50 31 29 0 38 27 15 46 -45 35 -140 -19 -165 -93 -34 -103 50 -191 191
-201 88 -6 153 21 219 93 85 94 102 215 49 351 -30 76 -139 189 -220 229 -32
15 -58 30 -57 34 0 3 27 19 60 35 71 33 150 109 196 187 96 161 100 448 9 627
-119 233 -377 392 -616 380 l-65 -3 -3 555 c-2 528 -3 556 -21 567 -16 10 -26
4 -75 -46z m373 -1148 c175 -45 333 -220 386 -428 20 -78 20 -235 0 -320 -32
-138 -127 -265 -242 -321 -56 -28 -105 -35 -237 -35 -45 1 -131 47 -161 87
-38 49 -65 125 -65 179 0 103 74 216 166 256 63 27 88 24 118 -11 45 -54 44
-113 -4 -180 -25 -36 -26 -35 10 -50 27 -11 33 -11 46 6 71 88 53 197 -44 271
-53 40 -109 44 -177 12 -107 -50 -166 -141 -173 -265 -4 -73 -1 -88 23 -143
34 -76 111 -149 190 -182 30 -12 55 -25 55 -28 0 -3 -29 -19 -64 -34 -119 -53
-205 -153 -290 -337 -88 -191 -127 -455 -96 -649 6 -35 8 -66 6 -69 -3 -3 -57
100 -120 229 -62 129 -156 320 -208 424 -158 319 -180 394 -180 610 1 164 28
280 106 439 118 245 330 435 578 520 139 47 248 53 377 19z m-71 -3355 c28
-57 127 -260 222 -453 110 -225 180 -380 196 -435 60 -209 40 -478 -51 -678
-91 -199 -261 -376 -454 -473 -215 -107 -416 -116 -611 -26 -25 12 -80 56
-126 101 -131 132 -186 273 -185 471 1 116 24 219 67 292 40 69 120 145 186
177 51 25 69 28 156 29 109 0 124 -5 200 -77 115 -108 131 -269 40 -380 -51
-62 -149 -100 -203 -80 -49 19 -62 132 -21 194 25 38 25 38 5 56 -26 24 -47
12 -77 -47 -47 -89 -8 -206 79 -236 47 -16 133 -16 173 1 56 23 111 81 141
147 23 52 27 71 23 133 -7 134 -66 212 -244 323 -18 11 -18 11 1 18 11 4 45
19 75 34 213 103 392 530 366 875 -4 50 -10 101 -13 114 -11 46 7 19 55 -80z"/>
</g>
</svg>
