<?xml version="1.0" standalone="no"?>
<!DOCTYPE svg PUBLIC "-//W3C//DTD SVG 20010904//EN"
 "http://www.w3.org/TR/2001/REC-SVG-20010904/DTD/svg10.dtd">
<svg version="1.0" xmlns="http://www.w3.org/2000/svg"
 width="2644.000000pt" height="2800.000000pt" viewBox="0 0 2644.000000 2800.000000"
 preserveAspectRatio="xMidYMid meet">

<g transform="translate(0.000000,2800.000000) scale(0.100000,-0.100000)"
fill="#3a4548" stroke="none">
<path d="M22319 27953 c-106 -141 -162 -254 -205 -408 -26 -91 -28 -116 -29
-265 0 -241 9 -269 241 -733 102 -204 240 -477 305 -605 66 -128 119 -235 119
-238 0 -3 -30 22 -67 55 -89 80 -137 104 -216 104 -104 -1 -194 -54 -247 -147
-34 -59 -40 -131 -14 -174 20 -35 84 -81 123 -88 78 -16 158 34 182 114 11 39
11 45 -7 62 -33 32 -44 28 -62 -25 -41 -120 -182 -129 -182 -11 0 98 108 197
224 204 77 5 110 -10 179 -82 83 -86 137 -169 137 -210 0 -28 7 -42 37 -68 39
-36 134 -222 172 -338 99 -308 49 -669 -133 -953 -42 -65 -129 -148 -186 -177
-63 -32 -234 -46 -306 -25 -108 31 -187 125 -220 258 -14 57 -15 76 -5 121 28
127 135 216 258 216 59 0 80 -13 94 -59 9 -32 8 -44 -6 -75 -17 -36 -58 -66
-90 -66 -24 0 -18 -35 9 -50 32 -16 67 -7 109 30 72 63 70 161 -5 224 -167
143 -440 -8 -441 -244 -1 -166 95 -311 255 -385 l71 -32 -74 -39 c-181 -95
-279 -276 -279 -514 0 -272 139 -499 375 -616 105 -51 179 -72 293 -81 l82 -6
0 -564 c0 -333 -4 -572 -9 -582 -6 -10 -28 -26 -50 -36 l-40 -18 19 -25 c11
-13 20 -32 20 -42 0 -19 -40 -60 -58 -60 -7 0 -12 -5 -12 -11 0 -11 186 -7
302 7 46 6 47 6 37 32 -8 21 -6 31 10 53 l21 28 -43 23 -42 23 0 603 0 603 83
33 c253 102 453 294 572 549 77 163 112 368 91 534 -22 181 -28 196 -360 861
-174 347 -314 632 -312 632 2 0 31 -25 64 -57 78 -71 152 -106 227 -106 176 0
330 198 252 324 -50 82 -155 114 -226 70 -39 -25 -70 -70 -80 -117 -6 -27 -3
-35 20 -53 28 -22 44 -20 44 6 0 30 34 86 64 104 59 36 118 20 132 -38 16 -63
-58 -177 -141 -214 -52 -24 -138 -24 -190 0 -46 21 -134 112 -193 200 -34 51
-40 67 -35 95 5 31 1 39 -41 80 -50 48 -114 171 -155 296 -79 239 -64 535 38
781 80 192 175 309 299 366 68 32 82 34 180 36 99 2 111 0 165 -27 105 -51
177 -177 177 -308 0 -101 -56 -192 -146 -238 -65 -33 -170 -36 -204 -5 -48 43
-1 154 71 170 33 8 37 25 11 48 -23 21 -45 21 -82 2 -68 -35 -104 -123 -77
-187 47 -113 195 -152 325 -88 115 58 167 145 167 281 0 78 -3 91 -38 161 -45
92 -131 182 -212 222 -30 14 -55 28 -55 31 0 2 21 14 48 27 67 32 193 160 224
228 84 178 85 409 3 588 -20 44 -28 52 -51 52 -21 0 -25 -3 -19 -17 59 -141
77 -275 56 -413 -23 -149 -116 -289 -240 -364 -68 -41 -97 -48 -215 -50 -102
-1 -150 16 -214 77 -105 99 -102 268 6 381 42 43 123 86 165 86 82 0 115 -144
47 -205 -27 -25 -25 -43 6 -57 24 -11 29 -9 50 15 29 34 47 99 39 140 -10 47
-59 119 -97 141 -100 60 -260 -20 -327 -163 -21 -45 -26 -70 -26 -131 1 -66 5
-83 35 -138 40 -75 102 -133 182 -170 32 -15 58 -29 58 -32 0 -4 -15 -11 -34
-18 -63 -23 -155 -91 -199 -148 -60 -76 -139 -228 -177 -341 -64 -193 -77
-431 -34 -623 3 -16 2 -21 -4 -15 -14 16 -461 899 -478 947 -78 212 -83 451
-13 661 44 135 118 262 235 405 l27 32 -50 0 c-47 0 -50 -2 -84 -47z m1076
-3523 c100 -201 194 -399 208 -442 84 -250 51 -546 -87 -790 -136 -242 -384
-433 -641 -494 -78 -18 -223 -18 -304 1 -218 52 -393 240 -436 468 -52 275 43
515 246 622 66 34 78 37 167 40 116 3 159 -12 222 -75 89 -89 117 -212 71
-315 -37 -85 -116 -150 -186 -155 -53 -4 -66 0 -90 25 -36 35 -35 117 1 170
l25 38 -21 21 -21 21 -29 -32 c-79 -88 -55 -218 50 -270 207 -105 433 165 328
390 -33 69 -134 175 -195 203 -23 10 -42 21 -42 24 0 3 30 18 67 35 110 49
184 131 265 295 37 74 78 174 91 222 44 153 54 335 30 513 -5 36 0 31 46 -55
29 -52 134 -259 235 -460z"/>
</g>
</svg>
