<?xml version="1.0" standalone="no"?>
<!DOCTYPE svg PUBLIC "-//W3C//DTD SVG 20010904//EN"
 "http://www.w3.org/TR/2001/REC-SVG-20010904/DTD/svg10.dtd">
<svg version="1.0" xmlns="http://www.w3.org/2000/svg"
 width="2644.000000pt" height="2800.000000pt" viewBox="0 0 2644.000000 2800.000000"
 preserveAspectRatio="xMidYMid meet">

<g transform="translate(0.000000,2800.000000) scale(0.100000,-0.100000)"
fill="#3a4548" stroke="none">
<path d="M25212 27968 c72 -95 87 -123 82 -145 -7 -26 10 -57 55 -100 44 -41
143 -243 174 -353 81 -294 37 -616 -122 -889 -62 -107 -134 -180 -224 -227
-59 -31 -79 -36 -128 -35 -31 0 -69 -3 -83 -9 -53 -20 -188 32 -252 97 -82 84
-117 242 -75 338 34 76 66 111 132 144 97 48 211 40 225 -16 16 -61 -28 -133
-88 -148 -32 -8 -36 -25 -10 -48 35 -32 92 -11 138 49 56 73 25 185 -66 239
-51 29 -168 28 -232 -4 -96 -47 -176 -159 -186 -262 -14 -151 100 -334 255
-411 35 -17 63 -34 63 -37 -1 -3 -24 -17 -51 -30 -71 -33 -173 -131 -216 -208
-53 -96 -75 -187 -76 -318 -1 -200 60 -353 198 -491 87 -87 184 -151 280 -183
75 -24 218 -45 262 -36 l33 6 0 -585 c0 -646 5 -603 -66 -626 l-36 -12 21 -22
c25 -26 27 -68 6 -86 -8 -7 -15 -16 -15 -21 0 -12 37 -11 45 1 3 6 35 10 69
10 35 0 91 3 125 6 55 6 61 9 61 30 0 13 10 30 23 39 13 9 18 18 12 23 -6 4
-29 19 -53 35 l-42 27 0 604 0 604 28 7 c47 11 207 91 273 136 35 24 104 81
152 128 293 283 407 705 290 1075 -14 44 -64 154 -111 245 -425 821 -561 1086
-558 1089 2 2 36 -28 75 -67 93 -90 145 -116 231 -115 200 2 359 211 263 347
-44 63 -76 82 -137 82 -39 0 -61 -6 -89 -25 -64 -44 -96 -130 -63 -172 18 -25
46 -23 46 2 0 78 108 153 171 119 32 -16 39 -28 39 -67 0 -93 -113 -203 -225
-219 -79 -10 -130 12 -217 95 -85 81 -164 190 -150 204 21 21 -24 103 -64 119
-5 2 -21 24 -35 49 l-24 45 -78 2 -77 1 22 -30z m524 -895 c70 -137 143 -277
162 -313 119 -221 214 -418 235 -486 149 -472 -99 -1010 -569 -1236 -125 -59
-236 -88 -351 -90 -109 -1 -188 15 -278 57 -230 106 -349 299 -349 565 1 233
99 411 277 498 65 32 120 41 251 41 46 0 123 -38 162 -81 112 -125 112 -291
-2 -400 -79 -76 -168 -94 -227 -48 -45 36 -42 124 6 177 18 20 19 26 7 48 -18
33 -34 32 -64 -8 -48 -63 -52 -158 -8 -216 10 -14 41 -39 68 -54 41 -23 58
-27 106 -24 136 8 258 154 258 310 0 107 -113 274 -218 321 -23 11 -42 22 -41
25 0 3 26 19 59 34 117 55 204 157 290 341 59 125 87 214 105 336 21 137 17
316 -11 424 -3 14 -4 26 -1 26 3 0 63 -111 133 -247z"/>
</g>
</svg>
