<?xml version="1.0" standalone="no"?>
<!DOCTYPE svg PUBLIC "-//W3C//DTD SVG 20010904//EN"
 "http://www.w3.org/TR/2001/REC-SVG-20010904/DTD/svg10.dtd">
<svg version="1.0" xmlns="http://www.w3.org/2000/svg"
 width="2644.000000pt" height="2800.000000pt" viewBox="0 0 2644.000000 2800.000000"
 preserveAspectRatio="xMidYMid meet">

<g transform="translate(0.000000,2800.000000) scale(0.100000,-0.100000)"
fill="#3a4548" stroke="none">
<path d="M15053 14680 c-6 -14 -41 -86 -77 -160 l-66 -135 0 -284 0 -283 -57
-62 c-149 -159 -216 -407 -229 -841 -10 -321 22 -544 182 -1298 24 -114 44
-212 44 -217 0 -6 -24 -10 -53 -10 -62 0 -83 -16 -116 -90 -23 -50 -26 -104
-10 -200 14 -90 27 -102 108 -98 l66 3 22 55 c21 53 22 54 32 29 5 -15 7 -44
4 -66 -4 -29 -1 -44 11 -56 18 -18 46 -132 73 -304 26 -155 25 -581 -1 -743
-41 -259 -113 -455 -160 -437 -20 8 -60 90 -75 152 -6 28 -13 81 -14 120 l-2
70 61 -3 c70 -4 87 7 104 66 14 53 12 147 -4 187 -17 41 -36 47 -131 43 -68
-3 -70 -4 -101 -45 -25 -32 -35 -61 -48 -130 -39 -211 -4 -386 98 -497 l36
-38 -29 -33 c-34 -40 -84 -184 -105 -305 -8 -47 -18 -150 -21 -230 -6 -131 -4
-157 19 -274 19 -99 36 -151 71 -222 54 -111 89 -143 167 -153 l53 -6 3 -568
c1 -333 -2 -575 -7 -585 -5 -9 -27 -26 -48 -37 -21 -10 -40 -20 -41 -21 -2 -1
6 -16 19 -33 19 -26 21 -34 11 -55 -6 -14 -24 -32 -39 -40 -26 -13 -28 -19
-25 -55 2 -23 9 -41 16 -42 6 0 18 -2 26 -3 8 -2 68 -6 134 -10 108 -7 124 -5
182 15 l64 23 0 42 c0 37 -4 45 -27 56 -41 20 -52 61 -26 96 l21 29 -36 13
c-21 7 -43 17 -49 22 -10 8 -13 140 -13 599 l0 589 45 56 c156 192 254 567
255 977 0 239 -3 261 -180 1117 -27 134 -50 252 -50 262 0 15 9 18 49 18 43 0
53 4 75 31 68 81 82 311 22 351 -6 4 -38 8 -72 8 -69 0 -89 -14 -100 -68 -4
-18 -10 -35 -15 -37 -11 -7 -29 61 -29 110 0 23 -5 46 -11 52 -17 17 -67 306
-80 463 -29 359 40 834 141 960 l20 25 25 -30 c14 -16 34 -59 46 -95 23 -74
43 -205 34 -220 -3 -6 -35 -10 -70 -10 -61 0 -65 -1 -80 -30 -21 -41 -29 -137
-16 -187 16 -59 41 -73 127 -73 68 0 74 2 98 30 100 120 76 511 -40 640 l-34
37 27 24 c97 89 146 407 109 704 -20 164 -39 241 -83 333 -53 113 -117 172
-187 172 l-26 0 -2 433 c-2 335 -6 426 -15 407z m36 -921 c63 -63 111 -175
147 -341 15 -65 18 -127 18 -288 0 -179 -3 -215 -22 -284 -22 -80 -69 -177
-90 -184 -20 -6 -71 120 -82 208 -14 105 -2 240 22 240 11 0 6 -107 -7 -147
-7 -22 -5 -23 53 -23 l61 0 10 38 c22 78 7 216 -28 245 -12 10 -35 13 -89 9
-71 -4 -74 -5 -98 -41 -28 -44 -54 -152 -54 -233 0 -128 45 -277 101 -329 29
-27 30 -28 9 -39 -69 -37 -137 -246 -175 -533 -4 -27 -8 -47 -10 -45 -10 10
-98 445 -111 548 -58 463 47 980 237 1173 32 31 62 57 67 57 6 0 24 -14 41
-31z m151 -1659 c-13 -67 -28 -102 -41 -94 -16 9 -4 100 17 131 22 35 34 17
24 -37z m-391 -856 c11 -31 21 -58 21 -60 0 -2 -20 -4 -45 -4 -38 0 -45 3 -45
20 0 25 30 100 40 100 4 0 17 -25 29 -56z m348 -411 c-9 -44 -26 -83 -36 -83
-8 0 -41 81 -41 102 0 4 19 8 41 8 40 0 41 -1 36 -27z m-22 -975 c21 -101 44
-214 52 -253 20 -104 28 -439 14 -576 -32 -309 -131 -599 -248 -730 -69 -76
-78 -78 -122 -31 -177 186 -204 824 -45 1053 20 29 30 36 39 29 41 -34 82
-219 70 -313 -9 -73 -25 -128 -34 -123 -8 5 2 102 15 144 6 21 4 22 -55 22
-58 0 -62 -2 -73 -27 -18 -45 -15 -192 5 -230 16 -31 21 -33 68 -33 28 0 59
-5 70 -11 17 -8 25 -5 49 21 72 77 99 294 56 455 -17 65 -51 130 -77 148 -20
15 -20 15 14 61 61 79 111 250 138 469 7 59 16 107 19 107 4 0 24 -82 45 -182z
m-387 108 c-4 -54 -31 -111 -47 -102 -9 6 4 91 19 132 17 45 33 28 28 -30z"/>
</g>
</svg>
