<?xml version="1.0" standalone="no"?>
<!DOCTYPE svg PUBLIC "-//W3C//DTD SVG 20010904//EN"
 "http://www.w3.org/TR/2001/REC-SVG-20010904/DTD/svg10.dtd">
<svg version="1.0" xmlns="http://www.w3.org/2000/svg"
 width="3542.000000pt" height="3750.000000pt" viewBox="0 0 3542.000000 3750.000000"
 preserveAspectRatio="xMidYMid meet">

<g transform="translate(0.000000,3750.000000) scale(0.100000,-0.100000)"
fill="#65340A" stroke="none">
<path d="M2142 17678 l2 -793 -60 -6 c-32 -4 -114 -7 -181 -8 l-123 -1 0
-1492 c-1 -2092 -1 -2536 0 -4939 l0 -2126 42 -9 c32 -7 80 -4 181 11 75 12
140 19 142 16 3 -2 5 -298 5 -658 0 -573 -2 -657 -15 -677 -9 -14 -41 -33 -76
-46 l-60 -23 30 -31 c17 -18 31 -41 31 -52 0 -30 -29 -64 -66 -80 -33 -14 -34
-16 -34 -72 l0 -57 110 -31 109 -31 188 32 188 31 3 62 c3 57 1 62 -18 62 -30
0 -80 53 -80 85 0 16 11 36 30 54 l30 27 -57 24 c-101 40 -93 -28 -93 737 0
475 3 674 11 679 6 3 84 17 172 30 89 13 167 26 174 28 9 4 11 1004 10 4238
l-2 4233 -180 -4 -180 -3 0 788 0 789 -117 3 -117 3 1 -793z m366 -5025 l2
-4071 -27 -6 c-28 -6 -451 -66 -465 -66 -5 0 -8 1845 -8 4100 l0 4100 73 1
c39 1 140 5 222 9 83 4 161 6 175 6 l25 -1 3 -4072z"/>
</g>
</svg>
