<?xml version="1.0" standalone="no"?>
<!DOCTYPE svg PUBLIC "-//W3C//DTD SVG 20010904//EN"
 "http://www.w3.org/TR/2001/REC-SVG-20010904/DTD/svg10.dtd">
<svg version="1.0" xmlns="http://www.w3.org/2000/svg"
 width="2550.000000pt" height="2700.000000pt" viewBox="0 0 2550.000000 2700.000000"
 preserveAspectRatio="xMidYMid meet">

<g transform="translate(0.000000,2700.000000) scale(0.100000,-0.100000)"
fill="#C5C3C1" stroke="none">
<path d="M1427 13583 c-4 -3 -7 -485 -7 -1070 l0 -1063 -24 0 c-29 0 -56 -34
-56 -70 0 -36 27 -70 56 -70 22 0 24 -4 24 -44 0 -27 -11 -68 -30 -108 -58
-128 -58 -293 0 -417 17 -36 30 -80 30 -102 0 -36 -2 -39 -28 -39 -31 0 -52
-30 -52 -75 0 -30 32 -65 60 -65 20 0 20 -7 20 -820 l0 -820 -24 0 c-30 0 -56
-34 -56 -73 0 -45 17 -67 50 -67 29 0 30 -1 30 -48 0 -26 -6 -57 -14 -68 -8
-11 -24 -49 -36 -84 -40 -119 -26 -304 31 -396 11 -18 19 -50 19 -73 0 -38 -2
-41 -28 -41 -21 0 -32 -7 -40 -25 -27 -58 -4 -115 46 -115 l22 0 0 -1072 c0
-590 -4 -1078 -8 -1083 -4 -6 -26 -19 -50 -29 -41 -18 -41 -20 -21 -34 30 -21
22 -62 -18 -87 -26 -16 -32 -27 -33 -56 l0 -36 113 -10 c96 -8 123 -7 192 9
113 26 125 32 125 67 0 24 -7 33 -34 46 -42 20 -50 47 -24 80 l19 25 -26 10
c-14 5 -37 13 -51 16 l-24 6 2 1082 c3 952 5 1081 18 1082 8 1 21 2 27 2 7 1
20 16 29 33 28 55 -1 126 -48 117 -22 -5 -21 66 1 109 56 111 67 268 26 389
-14 41 -32 86 -40 98 -9 13 -15 40 -13 60 2 30 6 36 25 36 45 0 76 95 44 134
-7 9 -25 16 -40 16 l-26 0 -2 815 -1 815 22 0 c26 0 51 24 59 58 8 34 -11 82
-33 82 -57 0 -65 39 -25 118 32 64 55 162 55 238 0 72 -29 189 -59 238 -15 24
-21 47 -19 73 3 33 7 38 31 41 32 4 49 31 49 78 0 44 -17 64 -53 64 l-29 0 0
1065 0 1065 -73 0 c-41 0 -77 -3 -80 -7z m108 -2613 c0 -99 -15 -180 -35 -180
-26 0 -40 197 -19 275 18 72 19 72 37 40 12 -22 16 -58 17 -135z m-6 -2532
c16 -66 13 -132 -7 -213 -18 -68 -19 -69 -33 -45 -29 52 -10 348 21 313 4 -4
12 -29 19 -55z"/>
</g>
</svg>
