<?xml version="1.0" standalone="no"?>
<!DOCTYPE svg PUBLIC "-//W3C//DTD SVG 20010904//EN"
 "http://www.w3.org/TR/2001/REC-SVG-20010904/DTD/svg10.dtd">
<svg version="1.0" xmlns="http://www.w3.org/2000/svg"
 width="2550.000000pt" height="2700.000000pt" viewBox="0 0 2550.000000 2700.000000"
 preserveAspectRatio="xMidYMid meet">

<g transform="translate(0.000000,2700.000000) scale(0.100000,-0.100000)"
fill="#C5C3C1" stroke="none">
<path d="M8190 15591 l0 -750 -22 -3 c-47 -7 -45 -118 2 -118 16 0 20 -7 20
-37 0 -21 -10 -63 -22 -93 -19 -47 -22 -74 -22 -180 0 -107 3 -133 23 -182 24
-61 25 -123 3 -123 -18 0 -42 -34 -42 -60 0 -26 24 -60 42 -60 11 0 13 -127
16 -710 l2 -710 -22 -10 c-49 -21 -46 -115 3 -115 19 0 20 -4 16 -52 -2 -29
-13 -73 -23 -98 -28 -70 -26 -276 4 -348 30 -71 30 -120 0 -124 -47 -7 -45
-118 2 -118 20 0 20 -3 20 -880 l0 -881 -40 -18 c-35 -16 -38 -20 -25 -31 25
-21 18 -59 -14 -77 -22 -13 -28 -23 -26 -47 3 -33 3 -33 170 -35 123 -1 168 9
175 39 7 27 -5 50 -26 50 -7 0 -18 9 -24 21 -9 16 -8 26 5 46 14 21 15 27 4
34 -8 5 -19 9 -25 9 -6 0 -18 8 -27 18 -16 17 -17 93 -17 885 l0 866 28 13
c49 23 41 118 -10 118 -17 0 -19 5 -15 38 3 20 15 64 28 97 32 86 32 244 0
330 -13 33 -25 79 -28 103 -4 36 -2 42 14 42 29 0 43 20 43 60 0 42 -8 56 -35
61 -20 4 -20 13 -23 712 -2 609 0 707 12 707 24 0 46 30 46 61 0 41 -17 69
-41 69 -19 0 -20 5 -16 38 3 20 15 64 28 97 32 87 32 246 -1 330 -13 33 -24
78 -24 100 -1 34 2 40 21 43 45 7 45 99 1 120 l-28 13 0 745 0 744 -65 0 -65
0 0 -749z m85 -1126 c3 -30 3 -80 0 -110 -12 -96 -35 -60 -35 55 0 115 23 151
35 55z m0 -2280 c6 -51 0 -132 -12 -165 -16 -42 -30 121 -17 189 10 47 21 37
29 -24z"/>
</g>
</svg>
