<?xml version="1.0" standalone="no"?>
<!DOCTYPE svg PUBLIC "-//W3C//DTD SVG 20010904//EN"
 "http://www.w3.org/TR/2001/REC-SVG-20010904/DTD/svg10.dtd">
<svg version="1.0" xmlns="http://www.w3.org/2000/svg"
 width="2550.000000pt" height="2700.000000pt" viewBox="0 0 2550.000000 2700.000000"
 preserveAspectRatio="xMidYMid meet">

<g transform="translate(0.000000,2700.000000) scale(0.100000,-0.100000)"
fill="#C5C3C1" stroke="none">
<path d="M9787 16234 c-4 -4 -7 -325 -7 -713 l0 -706 -22 -10 c-40 -17 -35
-110 5 -110 21 0 19 -63 -4 -128 -31 -88 -31 -246 -1 -334 28 -80 29 -123 3
-123 -21 0 -31 -19 -31 -55 0 -36 10 -55 31 -55 18 0 19 -19 19 -680 0 -661
-1 -680 -19 -680 -21 0 -31 -19 -31 -55 0 -36 10 -55 31 -55 26 0 25 -52 -2
-133 -32 -91 -32 -238 -1 -329 24 -69 26 -125 5 -121 -20 4 -34 -25 -31 -64 2
-28 9 -41 26 -48 l22 -10 0 -260 c0 -143 0 -512 0 -820 1 -308 1 -566 0 -573
0 -7 -16 -20 -35 -29 -33 -16 -46 -33 -26 -33 15 0 22 -30 11 -50 -5 -10 -19
-22 -30 -25 -14 -4 -20 -15 -20 -35 0 -28 1 -28 76 -35 81 -8 207 1 236 16 26
14 22 35 -12 66 -32 28 -38 51 -17 72 7 8 8 15 2 17 -5 3 -21 10 -35 17 l-25
13 -3 831 c-2 821 -2 831 18 836 47 12 51 100 5 117 -31 12 -31 29 -4 105 15
41 23 93 27 165 4 94 2 113 -22 183 -33 97 -33 125 -4 129 48 7 46 118 -2 118
-20 0 -20 4 -20 670 l0 670 25 10 c45 17 45 93 -1 110 -30 12 -31 38 -2 110
19 47 22 74 22 180 0 106 -3 133 -22 180 -29 72 -29 108 0 112 46 7 48 101 3
118 l-25 10 0 705 0 705 -39 0 c-22 0 -46 2 -53 5 -8 3 -17 2 -21 -1z m68
-1785 c9 -49 -3 -152 -16 -144 -12 8 -12 185 0 185 5 0 12 -18 16 -41z m1
-2253 c-4 -31 -12 -54 -17 -51 -11 7 -12 168 -1 179 13 14 25 -71 18 -128z"/>
</g>
</svg>
