<?xml version="1.0" standalone="no"?>
<!DOCTYPE svg PUBLIC "-//W3C//DTD SVG 20010904//EN"
 "http://www.w3.org/TR/2001/REC-SVG-20010904/DTD/svg10.dtd">
<svg version="1.0" xmlns="http://www.w3.org/2000/svg"
 width="2550.000000pt" height="2700.000000pt" viewBox="0 0 2550.000000 2700.000000"
 preserveAspectRatio="xMidYMid meet">

<g transform="translate(0.000000,2700.000000) scale(0.100000,-0.100000)"
fill="#C5C3C1" stroke="none">
<path d="M19931 23144 l-51 -46 -2 -816 -3 -816 -35 -2 c-56 -3 -88 -62 -60
-114 6 -11 30 -28 55 -39 39 -17 45 -24 45 -51 0 -18 -12 -47 -30 -71 -107
-148 -104 -369 7 -517 18 -25 23 -42 21 -75 -3 -41 -4 -42 -36 -39 -41 4 -60
-10 -68 -54 -9 -46 14 -79 63 -91 l38 -9 0 -869 0 -870 -27 3 c-36 4 -78 -36
-78 -75 0 -43 24 -69 70 -77 38 -6 40 -8 40 -42 0 -23 -13 -57 -40 -102 -49
-80 -59 -114 -67 -213 -7 -94 19 -190 72 -269 25 -37 35 -63 35 -91 0 -39 0
-39 -39 -39 -46 0 -71 -26 -71 -72 0 -32 31 -68 59 -68 11 0 26 -3 35 -6 15
-6 16 -141 16 -1431 0 -869 -4 -1431 -9 -1442 -6 -10 -28 -25 -49 -35 -39 -18
-40 -18 -21 -37 32 -32 23 -71 -22 -95 -24 -12 -29 -21 -29 -49 l0 -35 195 0
195 0 0 35 c0 28 -5 37 -29 50 -40 20 -48 50 -23 85 l20 27 -44 21 -44 22 0
1445 0 1445 33 0 c43 0 67 26 67 72 0 41 -20 63 -67 73 -30 6 -33 10 -33 43 0
24 11 52 30 81 92 136 92 351 1 486 -24 36 -31 57 -31 96 0 49 0 49 33 49 43
0 67 26 67 72 0 41 -22 65 -68 74 l-32 7 0 868 0 869 28 0 c82 0 103 114 27
148 -14 7 -32 12 -40 12 -20 0 -20 73 -1 89 7 6 28 44 47 83 32 70 34 78 34
188 0 105 -2 120 -29 177 -15 34 -37 70 -47 79 -15 13 -19 31 -19 77 l0 60 30
-7 c45 -8 72 22 68 77 -3 39 -6 43 -50 65 l-48 22 0 845 c0 823 0 845 -19 855
-16 8 -28 2 -70 -36z m74 -2046 c36 -79 43 -163 21 -247 -38 -149 -89 -187
-133 -99 -53 106 -50 228 7 345 25 50 36 63 54 63 19 0 29 -12 51 -62z m-2
-2795 c29 -62 32 -77 32 -163 0 -86 -3 -101 -32 -163 -46 -97 -71 -100 -113
-10 -56 120 -39 298 38 386 26 30 42 19 75 -50z"/>
</g>
</svg>
