<?xml version="1.0" standalone="no"?>
<!DOCTYPE svg PUBLIC "-//W3C//DTD SVG 20010904//EN"
 "http://www.w3.org/TR/2001/REC-SVG-20010904/DTD/svg10.dtd">
<svg version="1.0" xmlns="http://www.w3.org/2000/svg"
 width="2550.000000pt" height="2700.000000pt" viewBox="0 0 2550.000000 2700.000000"
 preserveAspectRatio="xMidYMid meet">

<g transform="translate(0.000000,2700.000000) scale(0.100000,-0.100000)"
fill="#C5C3C1" stroke="none">
<path d="M23273 26341 l-53 -48 0 -836 0 -837 -30 0 c-43 0 -80 -39 -80 -84 0
-26 7 -40 31 -60 17 -14 41 -29 55 -32 37 -9 32 -60 -11 -124 -102 -152 -98
-383 10 -512 19 -23 25 -41 25 -79 l0 -50 -33 6 c-38 7 -63 -10 -73 -51 -12
-46 4 -72 56 -99 l50 -25 0 -886 c0 -837 -1 -885 -17 -883 -58 5 -93 -23 -93
-73 1 -43 20 -67 67 -83 33 -11 38 -17 41 -48 2 -28 -5 -48 -32 -86 -55 -80
-71 -140 -71 -261 0 -94 3 -111 28 -165 15 -32 39 -74 52 -91 18 -23 25 -45
25 -77 0 -53 -5 -59 -37 -44 -23 10 -28 8 -50 -17 -18 -21 -23 -38 -21 -65 3
-33 8 -38 55 -61 l53 -25 0 -970 c0 -533 -4 -975 -8 -981 -4 -6 -24 -20 -45
-31 -34 -17 -37 -21 -23 -32 27 -22 20 -68 -14 -93 -55 -40 -41 -48 83 -48 63
0 149 3 192 7 74 6 76 7 51 20 -15 8 -31 24 -35 36 -9 23 5 67 21 67 19 0 6
19 -23 30 -63 27 -59 -51 -59 1026 l0 984 30 0 c41 0 80 39 80 80 0 38 -37 78
-80 86 -43 9 -40 48 9 123 100 155 94 366 -14 507 -20 26 -25 45 -25 88 l0 56
39 -6 c33 -5 41 -3 55 17 38 54 14 107 -64 139 l-30 12 0 884 0 884 30 0 c41
0 80 39 80 81 0 35 -45 85 -86 95 -33 9 -31 45 6 99 103 149 107 361 9 500
-34 48 -39 63 -39 111 l0 54 39 -6 c33 -5 41 -3 55 17 27 39 21 83 -16 114
-18 15 -42 31 -55 36 l-23 9 0 869 c0 998 8 919 -87 832z m85 -2098 c24 -51
27 -70 27 -158 0 -95 -2 -104 -35 -170 -54 -107 -84 -112 -129 -19 -35 72 -40
188 -12 272 31 92 60 132 94 132 24 0 32 -7 55 -57z m-20 -2841 c38 -53 55
-126 50 -217 -4 -72 -10 -95 -39 -152 -31 -61 -37 -68 -64 -68 -27 0 -33 7
-59 58 -53 107 -45 252 20 365 30 51 62 56 92 14z"/>
</g>
</svg>
