<?xml version="1.0" standalone="no"?>
<!DOCTYPE svg PUBLIC "-//W3C//DTD SVG 20010904//EN"
 "http://www.w3.org/TR/2001/REC-SVG-20010904/DTD/svg10.dtd">
<svg version="1.0" xmlns="http://www.w3.org/2000/svg"
 width="2550.000000pt" height="2700.000000pt" viewBox="0 0 2550.000000 2700.000000"
 preserveAspectRatio="xMidYMid meet">

<g transform="translate(0.000000,2700.000000) scale(0.100000,-0.100000)"
fill="#C5C3C1" stroke="none">
<path d="M13040 12671 l0 -860 -22 -3 c-16 -2 -27 -14 -35 -41 -18 -54 -7 -97
28 -109 26 -9 29 -15 29 -52 0 -24 -9 -69 -20 -101 -48 -140 -48 -360 0 -487
11 -29 20 -72 20 -95 0 -39 -2 -43 -25 -43 -19 0 -26 -7 -33 -34 -17 -59 3
-116 39 -116 18 0 19 -26 19 -895 0 -883 0 -895 -20 -895 -26 0 -42 -32 -42
-87 0 -49 6 -59 37 -65 29 -5 32 -73 6 -147 -48 -140 -51 -333 -6 -468 14 -40
25 -94 25 -118 0 -38 -3 -45 -20 -45 -25 0 -41 -31 -42 -81 0 -44 15 -69 43
-69 19 0 19 -39 19 -1466 0 -894 -4 -1472 -9 -1483 -6 -10 -28 -26 -51 -36
l-40 -18 21 -23 c28 -30 19 -69 -21 -92 -25 -14 -30 -24 -30 -54 0 -20 3 -39
8 -41 4 -3 61 -8 127 -12 66 -4 122 -8 125 -10 3 -2 37 9 75 24 70 26 70 26
73 68 3 35 0 42 -18 48 -33 11 -52 48 -41 79 6 14 15 26 21 26 25 0 6 18 -30
29 -22 6 -44 20 -50 31 -7 12 -10 509 -10 1479 l0 1460 27 13 c53 25 54 142 1
150 -20 3 -23 8 -22 48 1 25 12 77 24 115 20 60 23 92 24 220 0 139 -2 156
-27 229 -35 100 -34 157 3 166 51 12 49 134 -2 142 l-23 3 -3 892 -2 892 22 3
c55 8 62 135 8 148 -22 5 -25 11 -24 51 1 24 11 76 23 114 44 139 39 358 -11
473 -10 24 -18 64 -18 88 0 37 3 44 19 44 27 0 51 37 51 78 0 43 -16 72 -39
72 -11 0 -22 7 -25 16 -3 9 -6 396 -6 860 l0 844 -75 0 -75 0 0 -859z m90
-1400 c0 -80 -14 -117 -22 -61 -6 43 3 140 13 140 5 0 9 -36 9 -79z m0 -2867
c0 -64 -3 -85 -12 -81 -12 4 -14 30 -9 140 0 15 6 27 11 27 6 0 10 -35 10 -86z"/>
</g>
</svg>
