<?xml version="1.0" standalone="no"?>
<!DOCTYPE svg PUBLIC "-//W3C//DTD SVG 20010904//EN"
 "http://www.w3.org/TR/2001/REC-SVG-20010904/DTD/svg10.dtd">
<svg version="1.0" xmlns="http://www.w3.org/2000/svg"
 width="2550.000000pt" height="2700.000000pt" viewBox="0 0 2550.000000 2700.000000"
 preserveAspectRatio="xMidYMid meet">

<g transform="translate(0.000000,2700.000000) scale(0.100000,-0.100000)"
fill="#C5C3C1" stroke="none">
<path d="M16755 20100 l-50 -51 0 -787 -1 -787 -35 -5 c-46 -8 -56 -15 -63
-46 -10 -39 11 -83 43 -90 14 -3 33 -9 41 -13 25 -13 18 -70 -14 -120 -93
-146 -94 -345 -3 -481 20 -30 30 -58 30 -85 1 -39 0 -40 -38 -45 -40 -5 -65
-32 -65 -71 0 -28 33 -60 70 -68 l34 -7 -1 -844 0 -845 -34 -7 c-91 -18 -90
-128 1 -147 34 -7 35 -8 34 -49 -1 -24 -9 -51 -17 -60 -26 -29 -65 -123 -77
-188 -20 -103 10 -236 73 -329 14 -21 24 -48 23 -68 -1 -29 -5 -32 -40 -38
-21 -3 -42 -12 -47 -20 -32 -49 -13 -112 36 -117 17 -2 34 -7 38 -12 14 -13
10 -1859 -4 -1876 -6 -7 -26 -19 -44 -25 l-33 -12 20 -28 c25 -34 17 -64 -23
-85 -26 -13 -30 -20 -27 -50 l3 -36 135 -4 c74 -2 159 0 189 4 53 7 53 7 57
45 2 25 -1 37 -10 37 -16 0 -56 42 -56 60 0 8 9 23 20 35 l20 22 -40 18 c-23
10 -45 26 -50 35 -10 18 -13 1830 -4 1855 4 8 17 15 31 15 56 0 85 47 62 102
-11 26 -22 32 -74 40 -33 5 -31 52 5 108 106 165 103 337 -11 520 -17 28 -21
44 -15 73 6 33 10 37 35 35 36 -3 58 15 66 53 9 41 -12 70 -61 84 l-39 11 0
844 0 845 34 5 c48 7 77 48 65 91 -10 33 -19 41 -69 56 -40 12 -42 52 -4 112
108 169 102 330 -18 522 -11 18 -14 36 -9 62 6 34 10 37 41 37 28 0 37 6 50
30 8 16 15 35 15 43 0 25 -40 67 -65 67 -12 0 -27 6 -33 13 -7 8 -11 271 -10
831 0 938 6 881 -87 786z m68 -1981 c52 -104 46 -242 -16 -352 -26 -47 -45
-45 -74 8 -54 100 -54 237 2 351 34 69 51 68 88 -7z m-2 -2723 c39 -84 48
-179 24 -262 -20 -71 -54 -134 -71 -134 -7 0 -27 28 -43 63 -38 75 -48 159
-31 242 14 69 57 155 77 155 8 0 28 -29 44 -64z"/>
</g>
</svg>
