<?xml version="1.0" standalone="no"?>
<!DOCTYPE svg PUBLIC "-//W3C//DTD SVG 20010904//EN"
 "http://www.w3.org/TR/2001/REC-SVG-20010904/DTD/svg10.dtd">
<svg version="1.0" xmlns="http://www.w3.org/2000/svg"
 width="3542.000000pt" height="3750.000000pt" viewBox="0 0 3542.000000 3750.000000"
 preserveAspectRatio="xMidYMid meet">

<g transform="translate(0.000000,3750.000000) scale(0.100000,-0.100000)"
fill="#3a4548" stroke="none">
<path d="M14437 18643 c-4 -3 -7 -839 -7 -1857 0 -1018 0 -2041 0 -2272 l0
-421 -37 -7 c-63 -10 -68 -19 -34 -54 17 -17 31 -40 31 -52 0 -26 -40 -67 -74
-76 -14 -3 -26 -12 -26 -20 0 -8 -8 -14 -19 -14 -24 0 -45 -25 -37 -45 3 -8
17 -20 31 -25 14 -5 25 -14 25 -19 0 -5 16 -15 35 -21 37 -12 65 -43 65 -72 0
-9 -14 -33 -30 -52 l-30 -34 48 -17 49 -18 6 -546 c4 -300 7 -1324 7 -2276 -1
-1344 -3 -1734 -13 -1746 -7 -9 -34 -26 -61 -38 l-49 -21 21 -21 c31 -28 29
-72 -4 -98 -15 -12 -33 -21 -40 -21 -10 0 -14 -14 -14 -49 0 -53 -5 -50 80
-66 153 -31 156 -30 375 10 11 2 26 4 33 4 8 1 12 18 12 51 0 39 -4 50 -16 50
-8 0 -29 13 -45 30 -34 33 -33 62 3 92 20 18 19 18 -28 38 -27 12 -55 28 -61
37 -10 13 -13 488 -13 2293 l0 2277 43 13 c61 19 65 26 34 58 -15 15 -27 39
-27 53 0 30 34 65 73 74 15 4 27 13 27 21 0 8 9 14 20 14 29 0 44 34 24 54 -8
9 -22 16 -30 16 -8 0 -14 7 -14 15 0 8 -9 15 -19 15 -29 0 -81 48 -81 75 0 13
12 38 26 55 15 17 23 34 20 38 -4 4 -26 12 -49 17 l-42 11 -3 2277 -2 2277
-88 0 c-49 0 -92 -3 -95 -7z"/>
</g>
</svg>
