<?xml version="1.0" standalone="no"?>
<!DOCTYPE svg PUBLIC "-//W3C//DTD SVG 20010904//EN"
 "http://www.w3.org/TR/2001/REC-SVG-20010904/DTD/svg10.dtd">
<svg version="1.0" xmlns="http://www.w3.org/2000/svg"
 width="3542.000000pt" height="3750.000000pt" viewBox="0 0 3542.000000 3750.000000"
 preserveAspectRatio="xMidYMid meet">

<g transform="translate(0.000000,3750.000000) scale(0.100000,-0.100000)"
fill="#3a4548" stroke="none">
<path d="M16458 18672 l-28 -3 0 -2203 0 -2203 -39 -7 c-52 -8 -58 -20 -27
-57 14 -17 26 -38 26 -48 0 -28 -28 -59 -60 -66 -16 -4 -33 -12 -37 -18 -5 -7
-17 -17 -28 -23 -29 -16 -31 -50 -3 -65 13 -6 27 -18 31 -25 4 -8 17 -14 28
-14 11 0 31 -11 45 -26 31 -30 27 -67 -12 -101 l-24 -22 29 -16 c17 -8 39 -15
51 -15 20 0 20 -4 21 -372 9 -3010 8 -4035 -2 -4055 -7 -12 -33 -31 -60 -43
-48 -20 -49 -20 -29 -40 29 -29 26 -74 -6 -99 -15 -12 -33 -21 -41 -21 -11 0
-13 -12 -11 -47 l3 -47 110 -19 c106 -19 114 -19 228 -3 65 9 125 20 133 23
19 7 20 93 0 93 -7 0 -25 9 -40 21 -32 25 -35 70 -6 99 l20 20 -46 21 c-26 11
-53 27 -60 37 -10 14 -12 338 -11 1622 3 2615 5 2810 22 2810 9 0 31 6 50 14
l35 15 -30 30 c-17 16 -30 39 -30 51 0 27 43 70 70 70 11 0 23 7 27 16 3 8 17
20 30 25 29 11 28 46 -2 63 -11 6 -24 17 -28 24 -4 6 -17 12 -28 12 -26 0 -69
43 -69 69 0 11 12 33 26 50 31 37 26 47 -26 56 l-40 7 0 2210 0 2209 -67 -3
c-38 -2 -80 -4 -95 -6z"/>
</g>
</svg>
