<?xml version="1.0" standalone="no"?>
<!DOCTYPE svg PUBLIC "-//W3C//DTD SVG 20010904//EN"
 "http://www.w3.org/TR/2001/REC-SVG-20010904/DTD/svg10.dtd">
<svg version="1.0" xmlns="http://www.w3.org/2000/svg"
 width="3542.000000pt" height="3750.000000pt" viewBox="0 0 3542.000000 3750.000000"
 preserveAspectRatio="xMidYMid meet">

<g transform="translate(0.000000,3750.000000) scale(0.100000,-0.100000)"
fill="#3a4548" stroke="none">
<path d="M20928 16693 l-3 -2047 -35 -9 c-52 -13 -56 -22 -26 -57 14 -17 26
-36 26 -42 0 -15 -57 -68 -73 -68 -8 0 -17 -7 -21 -15 -3 -8 -12 -15 -19 -15
-8 0 -21 -7 -28 -16 -11 -14 -10 -19 11 -35 14 -11 31 -24 37 -29 7 -6 24 -15
37 -20 14 -5 32 -20 41 -34 18 -26 12 -48 -21 -81 -20 -20 -11 -30 36 -42 l35
-9 3 -2040 c1 -1121 0 -2048 -2 -2060 -4 -12 -25 -29 -56 -44 -48 -22 -49 -24
-29 -38 31 -22 22 -72 -18 -97 -28 -17 -32 -26 -33 -62 0 -24 5 -43 10 -43 6
0 56 -7 113 -16 94 -14 110 -14 215 2 l112 18 0 43 c0 37 -3 43 -25 49 -28 7
-55 39 -55 66 0 9 10 26 22 37 l21 21 -39 16 c-21 8 -47 25 -56 37 -16 21 -17
156 -12 2057 3 1119 7 2040 9 2047 2 6 19 14 37 18 49 11 51 14 23 47 -42 50
-27 97 38 113 15 4 27 11 27 16 0 5 11 14 25 19 15 6 25 17 25 30 0 13 -10 24
-25 30 -14 5 -25 14 -25 19 0 5 -12 12 -27 16 -65 16 -80 63 -38 113 28 34 26
37 -28 47 l-37 7 0 2049 0 2049 -85 0 -85 0 -2 -2047z"/>
</g>
</svg>
