<?xml version="1.0" standalone="no"?>
<!DOCTYPE svg PUBLIC "-//W3C//DTD SVG 20010904//EN"
 "http://www.w3.org/TR/2001/REC-SVG-20010904/DTD/svg10.dtd">
<svg version="1.0" xmlns="http://www.w3.org/2000/svg"
 width="3542.000000pt" height="3750.000000pt" viewBox="0 0 3542.000000 3750.000000"
 preserveAspectRatio="xMidYMid meet">

<g transform="translate(0.000000,3750.000000) scale(0.100000,-0.100000)"
fill="#3a4548" stroke="none">
<path d="M23478 16733 c-3 -2009 -3 -2018 -23 -2022 -11 -2 -31 -8 -44 -13
l-24 -9 27 -28 c40 -42 33 -79 -19 -108 -91 -50 -96 -54 -93 -71 2 -9 16 -23
31 -30 15 -7 27 -17 27 -21 0 -5 11 -12 24 -15 59 -15 73 -66 30 -110 l-27
-26 36 -15 c20 -8 41 -15 47 -15 7 0 10 -391 11 -1227 0 -676 2 -1585 3 -2021
2 -880 8 -801 -67 -839 -38 -19 -38 -19 -18 -38 12 -10 21 -28 21 -41 0 -24
-42 -64 -67 -64 -10 0 -13 -11 -11 -42 l3 -43 115 -17 c108 -16 121 -16 223 0
l107 17 0 40 c0 35 -4 42 -31 54 -43 19 -57 53 -35 86 9 14 22 25 29 25 6 0
-13 13 -43 28 l-55 27 -3 2028 c-2 1826 -1 2027 13 2027 9 0 29 7 46 15 l30
16 -26 30 c-14 17 -25 39 -25 49 0 20 44 60 66 60 7 0 17 6 21 13 4 6 17 17
28 23 11 6 20 19 20 29 0 10 -9 23 -20 29 -11 6 -24 17 -28 24 -4 6 -16 12
-26 12 -23 0 -61 36 -61 60 0 10 12 32 26 49 l26 31 -24 9 c-13 5 -32 10 -43
12 -20 4 -20 13 -23 2022 l-2 2017 -85 0 -85 0 -2 -2017z"/>
</g>
</svg>
