<?xml version="1.0" standalone="no"?>
<!DOCTYPE svg PUBLIC "-//W3C//DTD SVG 20010904//EN"
 "http://www.w3.org/TR/2001/REC-SVG-20010904/DTD/svg10.dtd">
<svg version="1.0" xmlns="http://www.w3.org/2000/svg"
 width="3542.000000pt" height="3750.000000pt" viewBox="0 0 3542.000000 3750.000000"
 preserveAspectRatio="xMidYMid meet">

<g transform="translate(0.000000,3750.000000) scale(0.100000,-0.100000)"
fill="#3a4548" stroke="none">
<path d="M24440 16695 c0 -1167 -4 -2045 -9 -2045 -5 0 -25 -7 -46 -16 l-37
-15 27 -29 c38 -39 32 -79 -15 -102 -32 -16 -45 -24 -88 -54 -19 -14 -9 -44
18 -51 11 -3 20 -12 20 -19 0 -8 8 -14 19 -14 29 0 71 -39 71 -66 0 -14 -12
-37 -26 -51 -29 -29 -23 -38 34 -49 l32 -6 2 -1252 c0 -688 2 -1609 3 -2047 2
-571 -1 -800 -9 -810 -6 -9 -31 -24 -56 -34 l-46 -18 23 -23 c13 -13 23 -32
23 -42 0 -20 -34 -55 -62 -65 -13 -5 -18 -17 -18 -46 0 -43 -2 -42 115 -57 28
-3 69 -9 93 -14 23 -4 61 -4 85 1 23 4 68 13 100 19 l57 11 0 45 c0 32 -4 44
-15 44 -23 0 -55 37 -55 63 0 13 9 32 20 42 20 18 20 19 -32 44 l-53 26 0
2053 0 2054 38 13 c51 18 54 21 30 48 -35 38 -37 64 -9 92 14 14 34 25 46 25
11 0 20 7 20 15 0 8 9 15 20 15 29 0 44 34 24 54 -8 9 -22 16 -30 16 -8 0 -14
4 -14 9 0 5 -14 14 -31 21 -59 25 -71 81 -25 119 25 21 20 27 -29 41 l-45 13
0 2043 0 2044 -85 0 -85 0 0 -2045z"/>
</g>
</svg>
