<?xml version="1.0" standalone="no"?>
<!DOCTYPE svg PUBLIC "-//W3C//DTD SVG 20010904//EN"
 "http://www.w3.org/TR/2001/REC-SVG-20010904/DTD/svg10.dtd">
<svg version="1.0" xmlns="http://www.w3.org/2000/svg"
 width="3542.000000pt" height="3750.000000pt" viewBox="0 0 3542.000000 3750.000000"
 preserveAspectRatio="xMidYMid meet">

<g transform="translate(0.000000,3750.000000) scale(0.100000,-0.100000)"
fill="#3a4548" stroke="none">
<path d="M27491 16868 c0 -1008 -1 -1969 -1 -2134 l0 -302 -32 -6 c-60 -11
-66 -21 -35 -54 41 -43 35 -81 -18 -107 -22 -11 -44 -26 -48 -32 -4 -7 -14
-13 -22 -13 -8 0 -19 -9 -25 -19 -11 -22 9 -51 36 -51 8 0 14 -7 14 -15 0 -8
8 -15 19 -15 29 0 71 -39 71 -65 0 -13 -11 -37 -25 -54 l-26 -30 30 -16 c17
-8 37 -15 46 -15 13 0 15 -40 14 -347 0 -192 3 -1153 6 -2138 5 -1484 3 -1793
-8 -1807 -7 -9 -32 -24 -55 -33 -48 -19 -50 -25 -22 -50 11 -10 20 -26 20 -35
0 -21 -47 -70 -66 -70 -10 0 -14 -14 -14 -45 0 -50 -18 -43 170 -70 110 -15
107 -16 270 20 8 2 18 4 23 4 4 1 7 21 7 46 0 31 -4 45 -14 45 -7 0 -25 9 -40
21 -32 25 -35 68 -6 94 20 18 20 19 -32 44 l-53 26 -3 2148 c-2 2083 -1 2147
16 2147 11 0 34 7 52 17 l33 16 -21 18 c-53 42 -44 98 19 123 22 9 39 19 39
24 0 4 10 12 23 17 33 15 35 53 3 61 -14 3 -26 12 -26 19 0 8 -13 16 -30 20
-16 4 -39 18 -49 31 -16 21 -18 30 -9 55 6 17 19 35 29 42 25 16 6 36 -42 43
l-39 7 0 2133 0 2134 -90 0 -89 0 0 -1832z"/>
</g>
</svg>
