<?xml version="1.0" standalone="no"?>
<!DOCTYPE svg PUBLIC "-//W3C//DTD SVG 20010904//EN"
 "http://www.w3.org/TR/2001/REC-SVG-20010904/DTD/svg10.dtd">
<svg version="1.0" xmlns="http://www.w3.org/2000/svg"
 width="3542.000000pt" height="3750.000000pt" viewBox="0 0 3542.000000 3750.000000"
 preserveAspectRatio="xMidYMid meet">

<g transform="translate(0.000000,3750.000000) scale(0.100000,-0.100000)"
fill="#3a4548" stroke="none">
<path d="M28568 16523 l-3 -2167 -35 -9 c-52 -13 -56 -22 -26 -57 14 -17 26
-39 26 -49 0 -21 -36 -56 -67 -66 -13 -3 -23 -10 -23 -15 0 -5 -12 -15 -27
-22 -17 -8 -28 -21 -28 -33 0 -12 11 -25 28 -33 15 -7 27 -17 27 -21 0 -5 11
-12 25 -15 33 -8 65 -41 65 -65 0 -11 -12 -33 -26 -50 -31 -37 -26 -47 26 -56
l40 -7 1 -1391 c1 -2895 1 -2944 -10 -2964 -5 -11 -31 -28 -56 -38 l-46 -17
20 -19 c30 -28 27 -73 -5 -98 -15 -12 -33 -21 -40 -21 -19 0 -19 -86 -1 -93 7
-3 74 -13 148 -22 129 -16 138 -16 224 2 l90 18 3 46 c3 43 1 47 -28 59 -54
22 -65 66 -26 105 l24 24 -50 18 c-27 10 -54 25 -59 35 -5 10 -8 887 -7 2184
l3 2167 48 14 c26 7 47 17 47 21 0 4 -12 18 -25 31 -34 31 -33 73 1 100 15 12
35 21 45 21 11 0 19 7 19 15 0 8 6 15 14 15 27 0 47 29 36 51 -6 10 -17 19
-25 19 -8 0 -18 6 -22 13 -4 6 -26 21 -48 32 -52 26 -60 71 -20 111 31 31 28
35 -28 49 l-42 11 -3 2167 -2 2167 -90 0 -90 0 -2 -2167z"/>
</g>
</svg>
