<?xml version="1.0" standalone="no"?>
<!DOCTYPE svg PUBLIC "-//W3C//DTD SVG 20010904//EN"
 "http://www.w3.org/TR/2001/REC-SVG-20010904/DTD/svg10.dtd">
<svg version="1.0" xmlns="http://www.w3.org/2000/svg"
 width="3542.000000pt" height="3750.000000pt" viewBox="0 0 3542.000000 3750.000000"
 preserveAspectRatio="xMidYMid meet">

<g transform="translate(0.000000,3750.000000) scale(0.100000,-0.100000)"
fill="#3a4548" stroke="none">
<path d="M30830 16437 l0 -2234 -42 -13 c-61 -19 -65 -26 -35 -56 35 -35 36
-76 1 -103 -15 -12 -35 -21 -45 -21 -11 0 -19 -6 -19 -13 0 -7 -14 -18 -31
-24 -39 -15 -37 -52 4 -71 15 -7 27 -17 27 -21 0 -5 12 -12 28 -16 64 -16 83
-75 37 -121 -14 -14 -23 -29 -20 -34 2 -4 25 -14 50 -21 l45 -13 0 -2237 c0
-1963 -2 -2239 -15 -2252 -8 -9 -35 -23 -60 -32 l-45 -18 25 -23 c41 -38 26
-89 -35 -114 -27 -11 -30 -17 -30 -56 0 -49 -19 -42 183 -70 111 -15 124 -15
200 1 125 25 117 21 117 71 0 40 -3 45 -34 58 -46 19 -61 49 -46 86 7 16 19
31 28 35 12 4 5 11 -28 26 -25 11 -53 27 -62 36 -17 15 -18 128 -18 2252 l0
2237 45 13 c25 7 47 17 50 21 3 5 -6 21 -20 36 -33 36 -33 76 1 103 15 12 35
21 45 21 11 0 19 7 19 15 0 8 8 15 18 15 48 0 57 56 12 73 -16 6 -30 17 -30
24 0 7 -8 13 -19 13 -10 0 -30 9 -45 21 -34 27 -34 65 0 100 14 15 24 32 20
37 -3 5 -26 15 -51 21 l-45 11 0 2229 0 2228 -46 7 c-26 3 -66 6 -90 6 l-44 0
0 -2233z"/>
</g>
</svg>
