<?xml version="1.0" standalone="no"?>
<!DOCTYPE svg PUBLIC "-//W3C//DTD SVG 20010904//EN"
 "http://www.w3.org/TR/2001/REC-SVG-20010904/DTD/svg10.dtd">
<svg version="1.0" xmlns="http://www.w3.org/2000/svg"
 width="3542.000000pt" height="3750.000000pt" viewBox="0 0 3542.000000 3750.000000"
 preserveAspectRatio="xMidYMid meet">

<g transform="translate(0.000000,3750.000000) scale(0.100000,-0.100000)"
fill="#3a4548" stroke="none">
<path d="M4970 15912 l0 -2609 -47 -13 c-73 -20 -78 -27 -43 -67 38 -42 40
-84 5 -118 -13 -14 -36 -25 -50 -25 -18 0 -29 -6 -32 -20 -3 -11 -13 -20 -23
-20 -18 0 -50 -30 -50 -47 0 -15 34 -43 52 -43 9 0 18 -8 21 -18 2 -11 17 -22
35 -25 74 -15 94 -82 42 -141 -35 -40 -32 -44 48 -65 l42 -12 0 -2612 c-1
-2101 -3 -2615 -13 -2629 -7 -9 -39 -28 -71 -42 l-59 -26 27 -21 c38 -30 36
-79 -5 -113 -17 -14 -37 -26 -45 -26 -10 0 -14 -15 -14 -59 l0 -59 115 -27
114 -27 173 29 173 29 3 57 c3 51 1 57 -17 57 -11 0 -33 12 -50 26 -39 33 -41
74 -5 111 14 14 24 26 22 27 -2 2 -29 13 -60 25 -32 13 -58 30 -58 37 0 8 -5
14 -10 14 -7 0 -9 870 -8 2617 l3 2617 30 7 c17 3 43 12 58 18 l29 11 -31 35
c-52 60 -34 118 47 146 18 6 32 17 32 25 0 8 8 14 18 14 20 0 52 29 52 47 0
15 -34 43 -53 43 -9 0 -17 6 -17 14 0 8 -14 19 -32 25 -80 28 -101 90 -48 143
17 16 30 33 30 38 0 4 -25 16 -55 25 -36 12 -55 23 -56 34 0 9 -1 1182 -2
2606 l-2 2590 -107 3 -108 3 0 -2609z"/>
</g>
</svg>
