<?xml version="1.0" standalone="no"?>
<!DOCTYPE svg PUBLIC "-//W3C//DTD SVG 20010904//EN"
 "http://www.w3.org/TR/2001/REC-SVG-20010904/DTD/svg10.dtd">
<svg version="1.0" xmlns="http://www.w3.org/2000/svg"
 width="3542.000000pt" height="3750.000000pt" viewBox="0 0 3542.000000 3750.000000"
 preserveAspectRatio="xMidYMid meet">

<g transform="translate(0.000000,3750.000000) scale(0.100000,-0.100000)"
fill="#3a4548" stroke="none">
<path d="M6305 18531 c-3 -2 -5 -1156 -5 -2563 l0 -2558 -24 0 c-14 0 -28 -4
-31 -10 -3 -5 -14 -10 -24 -10 -36 0 -41 -22 -11 -50 58 -54 44 -119 -31 -142
-21 -6 -39 -16 -39 -22 0 -7 -13 -17 -30 -23 -16 -6 -33 -19 -37 -28 -8 -22 8
-49 33 -53 10 -2 25 -11 32 -20 6 -9 26 -21 44 -27 42 -13 72 -56 64 -88 -3
-14 -17 -35 -31 -48 -13 -13 -25 -27 -25 -31 0 -10 67 -38 91 -38 19 0 19 -62
19 -2574 0 -2240 -2 -2576 -15 -2589 -8 -8 -37 -23 -65 -33 -27 -10 -50 -20
-50 -23 0 -4 12 -17 25 -30 14 -13 25 -34 25 -48 0 -29 -38 -70 -74 -79 -24
-6 -26 -10 -26 -60 0 -47 3 -54 23 -59 12 -2 65 -15 117 -28 l96 -23 134 23
c226 37 200 26 200 88 0 49 -2 55 -24 61 -35 8 -68 48 -68 80 0 18 9 36 27 51
l27 23 -58 26 c-32 14 -64 33 -71 42 -10 14 -12 519 -13 2585 0 2505 0 2567
19 2567 22 0 91 28 91 36 0 3 -11 19 -25 36 -35 41 -34 90 3 116 15 10 39 22
55 26 15 3 27 13 27 21 0 8 8 15 18 15 25 0 42 19 42 48 0 17 -8 27 -30 35
-16 6 -30 17 -30 23 0 6 -12 14 -28 17 -81 16 -108 89 -52 142 17 16 30 32 30
36 0 8 -51 29 -90 38 l-25 6 -3 2535 c-1 1394 -2 2547 -2 2562 l0 28 -100 -2
c-55 -1 -103 -4 -105 -7z"/>
</g>
</svg>
