<?xml version="1.0" standalone="no"?>
<!DOCTYPE svg PUBLIC "-//W3C//DTD SVG 20010904//EN"
 "http://www.w3.org/TR/2001/REC-SVG-20010904/DTD/svg10.dtd">
<svg version="1.0" xmlns="http://www.w3.org/2000/svg"
 width="3542.000000pt" height="3750.000000pt" viewBox="0 0 3542.000000 3750.000000"
 preserveAspectRatio="xMidYMid meet">

<g transform="translate(0.000000,3750.000000) scale(0.100000,-0.100000)"
fill="#3a4548" stroke="none">
<path d="M11278 18602 l-98 -3 0 -2389 0 -2390 -20 0 c-11 0 -37 -7 -57 -15
l-36 -15 31 -33 c44 -46 44 -90 0 -117 -18 -11 -41 -20 -50 -20 -10 0 -18 -6
-18 -13 0 -7 -13 -18 -30 -24 -39 -15 -40 -46 -2 -70 15 -10 31 -23 35 -30 4
-7 16 -13 26 -13 10 0 30 -9 45 -21 37 -29 36 -76 -4 -114 l-31 -29 33 -18
c18 -9 43 -17 56 -18 19 0 22 -5 23 -42 6 -302 2 -4739 -5 -4755 -5 -14 -30
-31 -62 -44 -49 -21 -70 -39 -44 -39 5 0 17 -11 26 -25 23 -35 3 -82 -43 -101
-31 -13 -33 -17 -33 -63 l0 -50 58 -11 c31 -7 85 -18 118 -24 53 -11 75 -11
165 6 57 10 123 21 147 24 l42 7 0 48 c0 46 -2 50 -34 63 -58 24 -74 82 -33
118 l24 21 -61 31 -61 31 -3 2403 c-2 2331 -1 2402 16 2402 15 0 74 23 90 35
2 2 -11 16 -28 33 -18 18 -30 41 -30 57 0 30 43 75 71 75 10 0 23 9 29 20 6
11 19 20 30 20 11 0 24 9 30 20 8 15 6 24 -10 40 -11 11 -27 20 -35 20 -8 0
-15 7 -15 15 0 8 -9 15 -19 15 -30 0 -81 48 -81 76 0 13 14 39 31 58 l30 35
-37 16 c-20 8 -45 15 -55 15 -18 0 -19 60 -21 2393 l-3 2392 -97 -3z"/>
</g>
</svg>
