<?xml version="1.0" standalone="no"?>
<!DOCTYPE svg PUBLIC "-//W3C//DTD SVG 20010904//EN"
 "http://www.w3.org/TR/2001/REC-SVG-20010904/DTD/svg10.dtd">
<svg version="1.0" xmlns="http://www.w3.org/2000/svg"
 width="2644.000000pt" height="2800.000000pt" viewBox="0 0 2644.000000 2800.000000"
 preserveAspectRatio="xMidYMid meet">

<g transform="translate(0.000000,2800.000000) scale(0.100000,-0.100000)"
fill="#3a4548" stroke="none">
<path d="M3010 14021 c-6 -13 -10 -230 -10 -635 l0 -616 -32 0 c-18 0 -50 -3
-70 -6 l-38 -7 0 -2611 c0 -1436 3 -2716 7 -2845 l6 -233 64 5 63 5 0 -802 c0
-440 -4 -806 -8 -812 -4 -6 -27 -21 -51 -33 l-43 -22 23 -25 c22 -23 23 -27 8
-52 -8 -15 -27 -33 -42 -40 -22 -11 -27 -20 -27 -51 0 -38 1 -39 43 -45 110
-15 214 -18 257 -6 156 41 150 38 150 81 0 35 -4 40 -34 53 -19 8 -37 24 -41
36 -7 23 17 70 38 71 6 0 -12 9 -42 20 -43 15 -62 17 -90 9 -19 -5 -37 -7 -39
-5 -5 5 43 25 59 25 5 0 9 320 9 825 l0 824 52 16 c28 8 58 15 65 15 11 0 13
492 13 2816 l0 2817 -65 -7 -65 -7 0 631 0 630 -75 0 c-63 0 -76 -3 -85 -19z
m160 -1861 l0 -499 -77 -24 c-43 -13 -81 -22 -85 -20 -5 2 -8 235 -8 518 l0
514 33 4 c17 2 56 5 85 5 l52 2 0 -500z m0 -765 l0 -114 -77 -24 c-43 -14 -82
-21 -86 -17 -4 4 -6 58 -5 120 l3 114 65 17 c107 29 100 36 100 -96z m0 -1480
l0 -1214 -77 -24 c-43 -14 -81 -21 -86 -18 -4 4 -6 553 -5 1221 l3 1214 65 17
c36 10 73 18 83 18 16 1 17 -63 17 -1214z m0 -1465 l0 -99 -77 -24 c-43 -14
-82 -21 -86 -17 -4 4 -6 51 -5 106 l3 98 65 17 c106 29 100 34 100 -81z m0
-715 l0 -464 -77 -24 c-43 -14 -81 -21 -86 -18 -4 4 -6 216 -5 471 l3 464 65
17 c36 10 73 18 83 18 16 1 17 -28 17 -464z"/>
</g>
</svg>
