<?xml version="1.0" standalone="no"?>
<!DOCTYPE svg PUBLIC "-//W3C//DTD SVG 20010904//EN"
 "http://www.w3.org/TR/2001/REC-SVG-20010904/DTD/svg10.dtd">
<svg version="1.0" xmlns="http://www.w3.org/2000/svg"
 width="2644.000000pt" height="2800.000000pt" viewBox="0 0 2644.000000 2800.000000"
 preserveAspectRatio="xMidYMid meet">

<g transform="translate(0.000000,2800.000000) scale(0.100000,-0.100000)"
fill="#3a4548" stroke="none">
<path d="M6720 16895 l0 -615 -50 0 -50 0 0 -2571 0 -2571 50 4 50 3 -2 -615
-3 -614 -33 -22 c-18 -13 -38 -25 -45 -27 -8 -3 -6 -10 6 -25 25 -28 18 -53
-20 -77 -25 -15 -32 -27 -33 -51 0 -27 4 -32 31 -38 52 -10 227 -7 295 6 63
11 64 12 64 44 0 26 -6 36 -27 46 -34 16 -44 67 -18 88 15 12 11 16 -27 34
l-43 21 -3 626 -2 626 52 9 53 9 -2 2535 c-2 2417 -3 2535 -20 2542 -10 3 -33
7 -50 7 l-33 1 0 620 0 620 -70 0 -70 0 0 -615z m130 -1195 l0 -470 -60 0 -60
0 0 470 0 470 60 0 60 0 0 -470z m0 -685 l0 -115 -60 0 -60 0 0 115 0 115 60
0 60 0 0 -115z m0 -1335 l0 -1120 -60 0 -60 0 0 1120 0 1120 60 0 60 0 0
-1120z m0 -1330 l0 -110 -60 0 -60 0 0 110 0 110 60 0 60 0 0 -110z m0 -644
l0 -433 -37 -7 c-21 -3 -48 -6 -60 -6 l-23 0 0 440 0 440 60 0 60 0 0 -434z"/>
</g>
</svg>
