<?xml version="1.0" standalone="no"?>
<!DOCTYPE svg PUBLIC "-//W3C//DTD SVG 20010904//EN"
 "http://www.w3.org/TR/2001/REC-SVG-20010904/DTD/svg10.dtd">
<svg version="1.0" xmlns="http://www.w3.org/2000/svg"
 width="2644.000000pt" height="2800.000000pt" viewBox="0 0 2644.000000 2800.000000"
 preserveAspectRatio="xMidYMid meet">

<g transform="translate(0.000000,2800.000000) scale(0.100000,-0.100000)"
fill="#3a4548" stroke="none">
<path d="M7855 17397 c-3 -7 -4 -274 -3 -595 l3 -582 -42 0 -43 0 0 -2470 0
-2470 40 0 40 0 -2 -597 -3 -597 -36 -21 c-34 -19 -36 -21 -22 -42 19 -28 9
-61 -23 -75 -18 -9 -24 -19 -24 -44 l0 -32 77 -7 c76 -8 217 -1 261 11 33 9
31 67 -2 82 -13 6 -27 20 -31 31 -7 23 10 61 28 61 7 1 -8 11 -33 23 l-45 22
-3 601 -2 602 22 6 c13 3 33 6 46 6 l22 0 0 2450 0 2450 -45 0 -45 0 0 594 c0
668 8 606 -81 606 -31 0 -51 -5 -54 -13z m103 -1283 l22 -6 0 -454 0 -454 -55
0 -55 0 0 460 0 460 33 0 c17 0 42 -3 55 -6z m0 -1020 c21 -6 22 -11 22 -120
l0 -114 -55 0 -55 0 0 120 0 120 33 0 c17 0 42 -3 55 -6z m0 -340 l22 -6 0
-1054 0 -1054 -55 0 -55 0 0 1060 0 1060 33 0 c17 0 42 -3 55 -6z m-9 -2220
l31 -6 0 -99 0 -99 -55 0 -55 0 0 105 c0 117 -2 115 79 99z m9 -310 l22 -6 0
-408 0 -407 -31 -7 c-17 -3 -42 -6 -55 -6 l-24 0 0 413 c0 228 3 417 7 420 8
9 50 9 81 1z"/>
</g>
</svg>
