<?xml version="1.0" standalone="no"?>
<!DOCTYPE svg PUBLIC "-//W3C//DTD SVG 20010904//EN"
 "http://www.w3.org/TR/2001/REC-SVG-20010904/DTD/svg10.dtd">
<svg version="1.0" xmlns="http://www.w3.org/2000/svg"
 width="2644.000000pt" height="2800.000000pt" viewBox="0 0 2644.000000 2800.000000"
 preserveAspectRatio="xMidYMid meet">

<g transform="translate(0.000000,2800.000000) scale(0.100000,-0.100000)"
fill="#3a4548" stroke="none">
<path d="M23772 25638 l3 -2363 133 2 132 3 -2 -873 -3 -872 -35 -17 c-19 -10
-39 -20 -45 -22 -6 -1 -3 -12 7 -22 32 -37 27 -80 -12 -102 -16 -9 -30 -21
-30 -25 0 -8 187 -2 299 9 39 4 50 9 42 17 -17 17 -13 49 10 73 l21 22 -32 17
c-17 9 -40 25 -51 36 -19 19 -19 40 -19 899 l0 880 48 0 c26 0 84 3 130 7 l82
6 0 2343 0 2344 -340 0 -340 0 2 -2362z m548 2112 l0 -129 -32 -5 c-39 -6
-312 -26 -357 -26 l-31 0 0 134 0 134 73 6 c39 4 90 8 112 9 22 2 84 4 138 5
l97 2 0 -130z m0 -1545 l0 -1264 -32 -5 c-39 -6 -312 -26 -357 -26 l-31 0 0
1269 0 1269 73 6 c39 4 90 8 112 9 22 2 84 4 138 5 l97 2 0 -1265z m0 -1535
l0 -119 -32 -5 c-39 -6 -312 -26 -357 -26 l-31 0 0 124 0 124 73 6 c39 4 90 8
112 9 22 2 84 4 138 5 l97 2 0 -120z m0 -745 l0 -474 -32 -5 c-39 -6 -312 -26
-357 -26 l-31 0 0 479 0 479 73 6 c39 4 90 8 112 9 22 2 84 4 138 5 l97 2 0
-475z"/>
</g>
</svg>
