<?xml version="1.0" standalone="no"?>
<!DOCTYPE svg PUBLIC "-//W3C//DTD SVG 20010904//EN"
 "http://www.w3.org/TR/2001/REC-SVG-20010904/DTD/svg10.dtd">
<svg version="1.0" xmlns="http://www.w3.org/2000/svg"
 width="2644.000000pt" height="2800.000000pt" viewBox="0 0 2644.000000 2800.000000"
 preserveAspectRatio="xMidYMid meet">

<g transform="translate(0.000000,2800.000000) scale(0.100000,-0.100000)"
fill="#3a4548" stroke="none">
<path d="M25030 26236 c0 -1546 2 -1765 15 -1776 14 -12 153 -8 228 6 l27 6 0
-374 c0 -205 -4 -378 -8 -385 -4 -6 -26 -19 -50 -28 l-43 -18 20 -21 c26 -27
27 -63 4 -89 -18 -19 -17 -19 67 -13 220 17 220 17 220 37 0 10 10 29 21 40
12 12 17 24 13 28 -5 3 -28 18 -52 34 l-42 27 0 384 0 384 63 6 c34 3 95 9
135 12 l72 7 0 1748 0 1749 -65 0 -65 0 0 -925 c0 -509 -3 -925 -7 -925 -5 0
-80 -7 -168 -15 -88 -8 -181 -15 -207 -15 l-48 0 0 940 0 940 -65 0 -65 0 0
-1764z m560 -351 c0 -69 -3 -125 -7 -125 -5 0 -80 -7 -168 -15 -88 -8 -181
-15 -207 -15 l-48 0 0 124 0 124 88 8 c89 7 266 20 315 23 l27 1 0 -125z m0
-755 c0 -269 -3 -490 -7 -490 -5 0 -80 -7 -168 -15 -88 -8 -181 -15 -207 -15
l-48 0 0 489 0 489 88 8 c89 7 266 20 315 23 l27 1 0 -490z"/>
</g>
</svg>
