<?xml version="1.0" standalone="no"?>
<!DOCTYPE svg PUBLIC "-//W3C//DTD SVG 20010904//EN"
 "http://www.w3.org/TR/2001/REC-SVG-20010904/DTD/svg10.dtd">
<svg version="1.0" xmlns="http://www.w3.org/2000/svg"
 width="2644.000000pt" height="2800.000000pt" viewBox="0 0 2644.000000 2800.000000"
 preserveAspectRatio="xMidYMid meet">

<g transform="translate(0.000000,2800.000000) scale(0.100000,-0.100000)"
fill="#3a4548" stroke="none">
<path d="M14990 14544 l-75 -149 -3 -322 -3 -323 -39 0 -40 0 0 -2999 0 -2999
40 -7 39 -7 1 -342 c0 -189 -2 -351 -6 -360 -4 -9 -25 -26 -48 -38 -22 -11
-43 -22 -44 -23 -2 -2 6 -16 18 -32 18 -25 19 -33 9 -56 -6 -14 -25 -31 -40
-38 -26 -10 -29 -16 -29 -55 0 -35 4 -44 18 -45 9 0 24 -2 32 -3 8 -2 68 -6
134 -10 108 -7 124 -5 182 15 l64 23 0 48 c0 36 -4 48 -15 48 -22 0 -55 37
-55 60 0 11 9 29 20 40 11 11 20 22 20 24 0 3 -17 10 -37 17 -21 6 -44 16 -50
22 -10 7 -13 98 -13 392 l0 382 40 12 40 12 0 382 c0 976 0 5514 0 5530 0 13
-9 17 -40 17 l-40 0 -2 466 -3 467 -75 -149z m40 -1443 c0 -351 -3 -532 -10
-536 -6 -4 -24 -4 -40 0 l-30 6 5 368 c3 203 5 441 5 530 l0 161 35 0 35 0 0
-529z m0 -800 c0 -85 -4 -142 -10 -146 -6 -4 -23 -4 -39 0 l-28 6 -1 112 c-2
155 1 167 44 167 l34 0 0 -139z m-2 -1548 c-3 -1270 -3 -1278 -23 -1281 -11
-1 -26 1 -32 6 -10 6 -13 286 -16 1262 -2 690 -1 1263 1 1273 3 12 14 17 38
17 l34 0 -2 -1277z m2 -1532 c0 -78 -4 -132 -10 -136 -6 -4 -23 -4 -38 -1
l-27 6 3 130 3 130 35 0 34 0 0 -129z m0 -769 l0 -508 -32 -12 c-17 -6 -33
-10 -35 -8 -4 3 -5 344 -3 879 l0 157 35 0 35 0 0 -508z"/>
</g>
</svg>
