<?xml version="1.0" standalone="no"?>
<!DOCTYPE svg PUBLIC "-//W3C//DTD SVG 20010904//EN"
 "http://www.w3.org/TR/2001/REC-SVG-20010904/DTD/svg10.dtd">
<svg version="1.0" xmlns="http://www.w3.org/2000/svg"
 width="2644.000000pt" height="2800.000000pt" viewBox="0 0 2644.000000 2800.000000"
 preserveAspectRatio="xMidYMid meet">

<g transform="translate(0.000000,2800.000000) scale(0.100000,-0.100000)"
fill="#3a4548" stroke="none">
<path d="M15478 15536 l-78 -159 0 -323 0 -324 -35 0 -35 0 2 -2932 3 -2933
35 -3 35 -3 -5 -832 c-3 -458 -6 -833 -8 -834 -1 -2 -21 -12 -44 -24 -56 -28
-55 -27 -30 -45 12 -8 22 -25 22 -38 0 -26 -34 -66 -55 -66 -11 0 -15 -12 -15
-45 0 -55 -2 -55 185 -58 117 -2 148 1 188 17 46 18 47 20 47 60 -1 35 -5 44
-33 61 -40 25 -46 59 -17 90 l22 23 -36 12 c-71 23 -66 -48 -66 889 l0 847 38
10 37 9 3 2898 2 2897 -40 0 -40 0 -2 483 -3 482 -77 -159z m40 -1444 l2 -512
-26 -10 c-14 -6 -30 -10 -35 -10 -5 0 -9 206 -9 526 l0 525 33 -3 32 -3 3
-513z m2 -782 c0 -120 0 -121 -26 -130 -14 -6 -30 -10 -35 -10 -6 0 -9 48 -7
122 3 121 3 122 28 129 14 4 28 7 33 8 4 1 7 -53 7 -119z m0 -1530 l0 -1260
-26 -10 c-14 -6 -30 -10 -35 -10 -6 0 -8 480 -7 1262 l3 1262 25 7 c14 4 28 7
33 8 4 1 7 -566 7 -1259z m0 -1525 c0 -115 0 -116 -26 -125 -14 -6 -30 -10
-35 -10 -6 0 -9 46 -7 117 3 125 3 124 61 132 4 1 7 -51 7 -114z m0 -735 l0
-470 -26 -10 c-14 -6 -30 -10 -35 -10 -6 0 -8 181 -7 472 l3 472 25 7 c14 4
28 7 33 8 4 1 7 -211 7 -469z"/>
</g>
</svg>
