<?xml version="1.0" standalone="no"?>
<!DOCTYPE svg PUBLIC "-//W3C//DTD SVG 20010904//EN"
 "http://www.w3.org/TR/2001/REC-SVG-20010904/DTD/svg10.dtd">
<svg version="1.0" xmlns="http://www.w3.org/2000/svg"
 width="2644.000000pt" height="2800.000000pt" viewBox="0 0 2644.000000 2800.000000"
 preserveAspectRatio="xMidYMid meet">

<g transform="translate(0.000000,2800.000000) scale(0.100000,-0.100000)"
fill="#3a4548" stroke="none">
<path d="M19287 26022 l-57 -58 0 -576 0 -576 -22 -5 c-13 -3 -69 -9 -125 -13
l-103 -7 0 -2918 0 -2919 125 0 125 0 0 -834 c0 -459 -3 -842 -6 -851 -4 -9
-24 -23 -45 -32 -43 -17 -45 -20 -24 -47 28 -37 12 -84 -35 -98 -9 -3 -15 -18
-16 -38 l-1 -33 191 6 c105 4 197 7 204 7 6 0 12 11 12 25 0 14 -6 25 -13 25
-18 0 -57 42 -57 62 0 8 9 27 20 41 l20 25 -29 10 c-16 6 -39 20 -50 31 -21
21 -21 24 -21 865 l0 844 115 7 115 7 0 1381 c0 4408 0 4461 -13 4474 -9 9
-34 11 -97 5 -47 -4 -93 -6 -103 -4 -17 3 -18 35 -17 585 0 320 1 596 0 614 0
21 -7 36 -18 42 -15 8 -29 0 -75 -47z m193 -1559 c1 -509 0 -846 -3 -849 -1
-2 -85 -6 -185 -10 l-182 -7 0 527 c0 412 3 528 13 531 6 2 86 10 177 18 91 8
168 15 173 16 4 0 7 -101 7 -226z m2 -1116 l-3 -134 -112 -6 c-62 -4 -145 -7
-184 -7 l-73 0 0 140 0 140 188 0 187 0 -3 -133z m1 -1513 c-1 -685 -3 -1248
-5 -1249 -2 -2 -86 -7 -186 -11 l-182 -7 0 1256 0 1257 188 0 187 0 -2 -1246z
m-1 -1501 c-2 -65 -4 -118 -5 -120 -2 -1 -85 -5 -185 -9 l-182 -7 0 126 0 127
188 0 187 0 -3 -117z m1 -744 c-1 -271 -4 -493 -6 -495 -1 -2 -85 -6 -185 -10
l-182 -7 0 501 0 502 188 0 187 0 -2 -491z"/>
</g>
</svg>
