<?xml version="1.0" standalone="no"?>
<!DOCTYPE svg PUBLIC "-//W3C//DTD SVG 20010904//EN"
 "http://www.w3.org/TR/2001/REC-SVG-20010904/DTD/svg10.dtd">
<svg version="1.0" xmlns="http://www.w3.org/2000/svg"
 width="2644.000000pt" height="2800.000000pt" viewBox="0 0 2644.000000 2800.000000"
 preserveAspectRatio="xMidYMid meet">

<g transform="translate(0.000000,2800.000000) scale(0.100000,-0.100000)"
fill="#3a4548" stroke="none">
<path d="M8920 14605 l0 -2704 -22 -21 c-12 -11 -27 -20 -34 -20 -22 0 -25
-19 -8 -45 16 -24 15 -26 -15 -54 -22 -21 -31 -38 -31 -61 0 -24 4 -31 15 -27
8 4 16 3 19 -1 8 -13 236 -15 236 -3 0 6 18 11 40 11 39 0 40 1 40 35 0 23 -5
35 -13 35 -18 0 -47 32 -47 53 0 8 7 23 16 32 9 9 15 17 13 18 -2 2 -21 10
-41 20 l-38 17 0 2700 c0 2152 -3 2701 -12 2704 -7 3 -37 7 -65 10 l-53 5 0
-2704z"/>
</g>
</svg>
