<?xml version="1.0" standalone="no"?>
<!DOCTYPE svg PUBLIC "-//W3C//DTD SVG 20010904//EN"
 "http://www.w3.org/TR/2001/REC-SVG-20010904/DTD/svg10.dtd">
<svg version="1.0" xmlns="http://www.w3.org/2000/svg"
 width="2644.000000pt" height="2800.000000pt" viewBox="0 0 2644.000000 2800.000000"
 preserveAspectRatio="xMidYMid meet">

<g transform="translate(0.000000,2800.000000) scale(0.100000,-0.100000)"
fill="#3a4548" stroke="none">
<path d="M9420 15322 c0 -1071 0 -2266 0 -2655 0 -449 -3 -715 -10 -726 -5
-11 -23 -24 -40 -29 l-30 -11 17 -30 c17 -28 17 -30 -1 -50 -10 -11 -27 -23
-37 -26 -22 -7 -27 -60 -6 -68 21 -8 184 -9 268 -1 l79 7 0 33 c0 22 -5 34
-13 34 -8 0 -24 11 -37 25 -22 24 -22 25 -5 51 14 22 15 28 4 35 -8 5 -20 9
-26 9 -43 0 -42 -105 -39 2683 1 1450 0 2641 -3 2646 -4 4 -32 11 -63 14 l-58
6 0 -1947z"/>
</g>
</svg>
