<?xml version="1.0" standalone="no"?>
<!DOCTYPE svg PUBLIC "-//W3C//DTD SVG 20010904//EN"
 "http://www.w3.org/TR/2001/REC-SVG-20010904/DTD/svg10.dtd">
<svg version="1.0" xmlns="http://www.w3.org/2000/svg"
 width="2644.000000pt" height="2800.000000pt" viewBox="0 0 2644.000000 2800.000000"
 preserveAspectRatio="xMidYMid meet">

<g transform="translate(0.000000,2800.000000) scale(0.100000,-0.100000)"
fill="#3a4548" stroke="none">
<path d="M3730 9831 c0 -2321 -3 -4227 -6 -4236 -4 -9 -24 -25 -45 -36 -36
-18 -52 -39 -29 -39 5 0 13 -11 16 -26 5 -18 0 -32 -17 -50 -12 -13 -28 -24
-36 -24 -7 0 -13 -6 -14 -12 -1 -15 2 -72 5 -75 0 -1 56 -7 123 -13 114 -10
127 -10 195 10 40 12 81 24 91 26 12 4 17 16 17 45 0 34 -4 41 -27 50 -15 6
-31 16 -35 22 -13 20 -9 54 7 67 22 18 18 29 -12 36 -16 4 -38 13 -50 20 l-23
14 0 4220 0 4220 -80 0 -80 0 0 -4219z"/>
</g>
</svg>
