<?xml version="1.0" standalone="no"?>
<!DOCTYPE svg PUBLIC "-//W3C//DTD SVG 20010904//EN"
 "http://www.w3.org/TR/2001/REC-SVG-20010904/DTD/svg10.dtd">
<svg version="1.0" xmlns="http://www.w3.org/2000/svg"
 width="2644.000000pt" height="2800.000000pt" viewBox="0 0 2644.000000 2800.000000"
 preserveAspectRatio="xMidYMid meet">

<g transform="translate(0.000000,2800.000000) scale(0.100000,-0.100000)"
fill="#3a4548" stroke="none">
<path d="M5163 15547 l-73 -102 0 -3812 0 -3812 -27 -20 c-14 -12 -37 -24 -49
-27 l-23 -6 21 -29 c18 -24 20 -32 10 -54 -7 -14 -26 -31 -42 -37 -26 -9 -30
-15 -30 -48 l0 -38 138 -6 c114 -6 150 -4 212 11 l75 18 3 38 c3 29 -1 39 -15
44 -51 18 -67 61 -37 94 16 18 14 20 -30 38 l-46 20 -1 148 c-1 81 -2 1841 -4
3911 -2 2070 -5 3765 -7 3767 -1 2 -36 -42 -75 -98z"/>
</g>
</svg>
