<?xml version="1.0" standalone="no"?>
<!DOCTYPE svg PUBLIC "-//W3C//DTD SVG 20010904//EN"
 "http://www.w3.org/TR/2001/REC-SVG-20010904/DTD/svg10.dtd">
<svg version="1.0" xmlns="http://www.w3.org/2000/svg"
 width="2644.000000pt" height="2800.000000pt" viewBox="0 0 2644.000000 2800.000000"
 preserveAspectRatio="xMidYMid meet">

<g transform="translate(0.000000,2800.000000) scale(0.100000,-0.100000)"
fill="#3a4548" stroke="none">
<path d="M6729 17270 c0 -124 0 -1824 0 -3779 1 -3117 -1 -3557 -14 -3577 -8
-12 -31 -28 -50 -34 l-37 -12 23 -24 c19 -20 21 -27 11 -49 -7 -14 -23 -30
-37 -37 -19 -9 -25 -19 -25 -44 0 -17 6 -34 13 -36 29 -11 276 -7 327 5 52 12
55 14 58 45 3 29 0 34 -28 43 -45 16 -57 45 -32 78 l20 26 -42 20 -41 20 -5
3785 -5 3785 -68 5 -67 5 -1 -225z"/>
</g>
</svg>
