<?xml version="1.0" standalone="no"?>
<!DOCTYPE svg PUBLIC "-//W3C//DTD SVG 20010904//EN"
 "http://www.w3.org/TR/2001/REC-SVG-20010904/DTD/svg10.dtd">
<svg version="1.0" xmlns="http://www.w3.org/2000/svg"
 width="2644.000000pt" height="2800.000000pt" viewBox="0 0 2644.000000 2800.000000"
 preserveAspectRatio="xMidYMid meet">

<g transform="translate(0.000000,2800.000000) scale(0.100000,-0.100000)"
fill="#3a4548" stroke="none">
<path d="M21610 23686 l0 -4315 -27 -20 c-14 -12 -37 -24 -49 -27 l-23 -6 21
-28 c28 -38 18 -78 -22 -93 -21 -8 -30 -18 -30 -34 l0 -23 188 6 c103 3 193 8
201 10 10 3 5 11 -16 24 -43 26 -50 55 -23 92 l21 29 -39 16 c-23 8 -45 26
-51 40 -8 17 -11 1194 -11 4333 l0 4310 -70 0 -70 0 0 -4314z"/>
</g>
</svg>
