<?xml version="1.0" standalone="no"?>
<!DOCTYPE svg PUBLIC "-//W3C//DTD SVG 20010904//EN"
 "http://www.w3.org/TR/2001/REC-SVG-20010904/DTD/svg10.dtd">
<svg version="1.0" xmlns="http://www.w3.org/2000/svg"
 width="2644.000000pt" height="2800.000000pt" viewBox="0 0 2644.000000 2800.000000"
 preserveAspectRatio="xMidYMid meet">

<g transform="translate(0.000000,2800.000000) scale(0.100000,-0.100000)"
fill="#3a4548" stroke="none">
<path d="M22830 24751 c0 -1787 -3 -3256 -6 -3265 -3 -9 -27 -25 -52 -36 l-45
-20 23 -25 c29 -31 21 -70 -20 -93 -17 -9 -30 -21 -30 -25 0 -8 104 -4 277 9
l71 6 -10 29 c-9 26 -7 34 13 55 26 27 27 25 -28 53 -23 11 -44 29 -47 38 -2
10 -3 1472 -2 3248 2 1777 1 3240 -1 3253 -5 20 -11 22 -74 22 l-69 0 0 -3249z"/>
</g>
</svg>
