<?xml version="1.0" standalone="no"?>
<!DOCTYPE svg PUBLIC "-//W3C//DTD SVG 20010904//EN"
 "http://www.w3.org/TR/2001/REC-SVG-20010904/DTD/svg10.dtd">
<svg version="1.0" xmlns="http://www.w3.org/2000/svg"
 width="2644.000000pt" height="2800.000000pt" viewBox="0 0 2644.000000 2800.000000"
 preserveAspectRatio="xMidYMid meet">

<g transform="translate(0.000000,2800.000000) scale(0.100000,-0.100000)"
fill="#3a4548" stroke="none">
<path d="M24067 27994 c-4 -4 -7 -1456 -7 -3226 0 -1771 -2 -3224 -6 -3229 -3
-6 -23 -17 -45 -26 -43 -17 -47 -24 -24 -43 16 -13 20 -57 7 -76 -4 -6 -17
-16 -29 -23 -35 -18 -28 -30 15 -25 20 2 99 6 175 10 101 4 136 9 128 17 -16
16 -13 63 4 77 23 19 19 28 -24 49 -21 11 -41 27 -45 36 -3 9 -6 1468 -6 3241
l0 3224 -68 0 c-38 0 -72 -3 -75 -6z"/>
</g>
</svg>
