<?xml version="1.0" standalone="no"?>
<!DOCTYPE svg PUBLIC "-//W3C//DTD SVG 20010904//EN"
 "http://www.w3.org/TR/2001/REC-SVG-20010904/DTD/svg10.dtd">
<svg version="1.0" xmlns="http://www.w3.org/2000/svg"
 width="2644.000000pt" height="2800.000000pt" viewBox="0 0 2644.000000 2800.000000"
 preserveAspectRatio="xMidYMid meet">

<g transform="translate(0.000000,2800.000000) scale(0.100000,-0.100000)"
fill="#3a4548" stroke="none">
<path d="M14400 9377 c0 -3980 -2 -4615 -14 -4633 -8 -11 -33 -29 -55 -39
l-41 -18 21 -23 c31 -33 22 -74 -21 -102 -33 -21 -35 -25 -32 -65 l4 -44 151
-11 152 -11 67 31 c40 18 69 38 70 47 6 69 6 70 -29 82 -41 13 -56 39 -44 72
6 14 15 28 20 32 20 12 11 23 -24 35 -19 6 -42 18 -50 27 -13 13 -15 552 -15
4624 l0 4609 -80 0 -80 0 0 -4613z"/>
</g>
</svg>
