<?xml version="1.0" standalone="no"?>
<!DOCTYPE svg PUBLIC "-//W3C//DTD SVG 20010904//EN"
 "http://www.w3.org/TR/2001/REC-SVG-20010904/DTD/svg10.dtd">
<svg version="1.0" xmlns="http://www.w3.org/2000/svg"
 width="2644.000000pt" height="2800.000000pt" viewBox="0 0 2644.000000 2800.000000"
 preserveAspectRatio="xMidYMid meet">

<g transform="translate(0.000000,2800.000000) scale(0.100000,-0.100000)"
fill="#3a4548" stroke="none">
<path d="M14985 14259 l-75 -151 0 -3528 c0 -1941 -3 -3536 -6 -3545 -4 -9
-25 -25 -48 -37 -22 -11 -43 -22 -44 -23 -2 -2 6 -17 19 -34 19 -26 21 -34 11
-55 -6 -14 -24 -32 -40 -40 -23 -12 -28 -22 -30 -55 l-3 -40 43 -5 c24 -3 92
-8 152 -11 96 -6 115 -4 172 16 l64 23 0 43 c0 33 -4 45 -17 50 -50 17 -71 76
-38 103 23 19 18 27 -19 40 -19 6 -40 18 -46 25 -10 12 -12 847 -12 3695 0
2024 -2 3680 -4 3680 -3 0 -38 -68 -79 -151z"/>
</g>
</svg>
