<?xml version="1.0" standalone="no"?>
<!DOCTYPE svg PUBLIC "-//W3C//DTD SVG 20010904//EN"
 "http://www.w3.org/TR/2001/REC-SVG-20010904/DTD/svg10.dtd">
<svg version="1.0" xmlns="http://www.w3.org/2000/svg"
 width="2644.000000pt" height="2800.000000pt" viewBox="0 0 2644.000000 2800.000000"
 preserveAspectRatio="xMidYMid meet">

<g transform="translate(0.000000,2800.000000) scale(0.100000,-0.100000)"
fill="#3a4548" stroke="none">
<path d="M15472 15556 l-72 -151 0 -4093 c0 -2533 -4 -4100 -9 -4111 -6 -10
-28 -26 -51 -36 l-40 -18 20 -22 c34 -36 23 -77 -31 -105 -14 -8 -19 -21 -19
-49 0 -37 2 -39 38 -45 20 -3 60 -6 89 -6 29 0 75 -5 104 -11 36 -8 58 -8 73
-1 11 6 44 20 71 32 48 20 51 22 52 60 1 29 -2 40 -13 40 -8 0 -26 7 -39 16
-29 19 -34 64 -10 88 21 20 20 23 -19 36 -19 6 -40 18 -47 26 -10 12 -12 904
-11 4254 0 2332 -3 4241 -6 4244 -4 2 -40 -65 -80 -148z"/>
</g>
</svg>
