<?xml version="1.0" standalone="no"?>
<!DOCTYPE svg PUBLIC "-//W3C//DTD SVG 20010904//EN"
 "http://www.w3.org/TR/2001/REC-SVG-20010904/DTD/svg10.dtd">
<svg version="1.0" xmlns="http://www.w3.org/2000/svg"
 width="2550.000000pt" height="2700.000000pt" viewBox="0 0 2550.000000 2700.000000"
 preserveAspectRatio="xMidYMid meet">

<g transform="translate(0.000000,2700.000000) scale(0.100000,-0.100000)"
fill="#C5C3C1" stroke="none">
<path d="M1421 13614 l-41 -47 0 -573 0 -574 -70 0 -70 0 2 -2637 3 -2638 45
0 c25 0 56 3 70 7 l25 7 -5 -757 -5 -757 -43 -23 c-41 -23 -42 -25 -27 -42 24
-27 15 -62 -22 -85 -25 -15 -32 -27 -33 -51 0 -36 15 -43 90 -44 25 0 64 -5
88 -10 24 -6 49 -7 55 -3 7 5 50 17 97 28 l85 20 3 35 c2 31 -2 37 -30 50 -37
17 -49 58 -24 80 9 7 16 16 16 20 0 15 -85 29 -123 21 -20 -5 -39 -5 -42 -1
-7 11 2 16 42 25 l33 7 2 761 3 762 70 16 70 16 6 104 c3 57 5 1229 5 2604
l-1 2500 -77 0 -78 -1 0 613 0 613 -39 0 c-34 0 -45 -6 -80 -46z m147 -1782
l2 -493 -97 3 -98 3 0 485 0 485 65 6 c36 3 79 6 95 5 l30 -1 3 -493z m0 -724
l3 -128 -101 0 -101 0 3 123 3 122 65 6 c36 3 79 6 95 5 l30 -1 3 -127z m0
-1376 l2 -1143 -97 3 -98 3 0 1135 0 1135 65 6 c36 3 79 6 95 5 l30 -1 3
-1143z m0 -1355 l3 -108 -98 3 -98 3 0 100 0 100 65 6 c36 3 79 6 95 5 l30 -1
3 -108z m0 -634 l2 -422 -52 -15 c-29 -8 -74 -18 -101 -21 l-47 -7 2 438 3
439 65 6 c36 3 79 6 95 5 l30 -1 3 -422z"/>
</g>
</svg>
