<?xml version="1.0" standalone="no"?>
<!DOCTYPE svg PUBLIC "-//W3C//DTD SVG 20010904//EN"
 "http://www.w3.org/TR/2001/REC-SVG-20010904/DTD/svg10.dtd">
<svg version="1.0" xmlns="http://www.w3.org/2000/svg"
 width="2550.000000pt" height="2700.000000pt" viewBox="0 0 2550.000000 2700.000000"
 preserveAspectRatio="xMidYMid meet">

<g transform="translate(0.000000,2700.000000) scale(0.100000,-0.100000)"
fill="#C5C3C1" stroke="none">
<path d="M8228 16343 l-38 -4 0 -350 0 -349 -50 0 -50 0 0 -2470 0 -2470 50 0
50 0 0 -369 c0 -203 -3 -376 -6 -385 -3 -8 -21 -20 -40 -26 -31 -11 -47 -30
-25 -30 14 0 23 -34 15 -54 -4 -10 -18 -22 -31 -27 -20 -7 -24 -15 -21 -41 3
-32 4 -32 58 -35 30 -1 73 -4 95 -7 22 -2 74 1 115 8 74 11 75 12 78 44 3 26
-1 34 -22 41 -35 14 -43 47 -16 76 l21 23 -28 7 c-66 16 -63 -1 -63 416 l0
377 50 7 50 7 0 2443 0 2443 -50 7 -50 7 0 354 c0 299 -2 354 -14 354 -8 0
-20 1 -28 3 -7 2 -30 2 -50 0z m76 -809 c14 -5 16 -56 16 -465 l0 -459 -65 0
-65 0 0 458 c0 252 3 462 7 465 8 9 86 9 107 1z m0 -1020 c13 -5 16 -25 16
-115 l0 -109 -65 0 -65 0 0 93 c0 131 3 137 55 137 24 0 50 -3 59 -6z m0 -320
c14 -6 16 -110 16 -1080 l0 -1074 -65 0 -65 0 0 1058 c0 581 3 1067 6 1080 5
18 13 22 49 22 24 0 50 -3 59 -6z m0 -2250 c13 -5 16 -25 16 -110 l0 -104 -65
0 -65 0 0 88 c0 125 3 132 55 132 24 0 50 -3 59 -6z m4 -312 c10 -7 12 -94 10
-413 l-3 -404 -54 -8 c-40 -5 -57 -4 -63 5 -9 15 -11 771 -2 806 5 19 13 22
53 22 25 0 52 -4 59 -8z"/>
</g>
</svg>
