<?xml version="1.0" standalone="no"?>
<!DOCTYPE svg PUBLIC "-//W3C//DTD SVG 20010904//EN"
 "http://www.w3.org/TR/2001/REC-SVG-20010904/DTD/svg10.dtd">
<svg version="1.0" xmlns="http://www.w3.org/2000/svg"
 width="2550.000000pt" height="2700.000000pt" viewBox="0 0 2550.000000 2700.000000"
 preserveAspectRatio="xMidYMid meet">

<g transform="translate(0.000000,2700.000000) scale(0.100000,-0.100000)"
fill="#C5C3C1" stroke="none">
<path d="M9270 15931 l0 -340 -47 -3 -48 -3 0 -2380 0 -2380 48 -3 47 -3 0
-359 c0 -389 1 -382 -56 -396 -27 -7 -31 -19 -9 -28 25 -9 17 -44 -15 -68 -23
-16 -30 -29 -28 -48 3 -24 6 -25 101 -32 64 -5 122 -3 165 5 58 11 67 15 70
36 3 16 -6 31 -28 50 -26 21 -31 32 -26 49 4 12 12 22 17 22 5 0 9 5 9 10 0 6
-6 10 -14 10 -7 0 -25 9 -40 21 l-26 20 0 354 c0 387 0 385 59 385 l28 0 6
378 c4 207 7 1269 7 2359 l0 1983 -23 5 c-12 2 -33 6 -47 7 l-25 3 -3 343 -2
342 -60 0 -60 0 0 -339z m116 -883 l1 -438 -53 0 -54 0 0 441 0 440 53 -3 52
-3 1 -437z m1 -645 l2 -113 -55 0 -54 0 0 116 0 115 53 -3 52 -3 2 -112z m-2
-1233 l0 -1025 -52 -3 -53 -3 0 1031 0 1031 53 -3 52 -3 0 -1025z m0 -1230 l0
-105 -52 -3 -53 -3 0 111 0 111 53 -3 52 -3 0 -105z m1 -603 c0 -219 -2 -399
-5 -401 -3 -2 -27 -7 -53 -10 l-48 -7 0 411 0 411 53 -3 52 -3 1 -398z"/>
</g>
</svg>
