<?xml version="1.0" standalone="no"?>
<!DOCTYPE svg PUBLIC "-//W3C//DTD SVG 20010904//EN"
 "http://www.w3.org/TR/2001/REC-SVG-20010904/DTD/svg10.dtd">
<svg version="1.0" xmlns="http://www.w3.org/2000/svg"
 width="2550.000000pt" height="2700.000000pt" viewBox="0 0 2550.000000 2700.000000"
 preserveAspectRatio="xMidYMid meet">

<g transform="translate(0.000000,2700.000000) scale(0.100000,-0.100000)"
fill="#C5C3C1" stroke="none">
<path d="M10279 16196 c-2 -3 -4 -151 -3 -330 l1 -326 -43 0 -44 0 0 -2300 0
-2300 28 0 c54 0 52 9 52 -351 0 -184 0 -340 0 -347 0 -7 -16 -20 -35 -29 -33
-16 -46 -33 -26 -33 15 0 22 -30 11 -50 -5 -10 -19 -22 -30 -25 -14 -4 -20
-15 -20 -35 l0 -28 86 -7 c79 -7 186 -1 220 12 23 9 17 53 -11 75 -27 21 -32
47 -12 67 7 8 8 15 2 17 -5 3 -21 10 -35 17 l-25 13 -3 362 -2 362 34 0 c18 0
39 6 45 13 8 10 11 636 11 2285 l0 2272 -45 0 c-25 0 -44 3 -44 8 1 4 1 154 0
335 l-1 327 -53 0 c-30 0 -56 -2 -58 -4z m101 -1176 l0 -430 -50 0 -50 0 0
423 c0 233 3 427 7 430 3 4 26 7 50 7 l43 0 0 -430z m0 -620 l0 -110 -50 0
-50 0 0 88 c0 125 3 132 56 132 l44 0 0 -110z m0 -1200 l0 -1010 -50 0 -50 0
0 988 c0 543 3 997 6 1010 5 18 13 22 50 22 l44 0 0 -1010z m0 -1200 l0 -110
-50 0 -50 0 0 88 c0 125 3 132 56 132 l44 0 0 -110z m0 -569 c0 -209 -3 -382
-7 -384 -5 -3 -26 -7 -48 -8 l-40 -4 -2 379 c-1 209 0 383 3 388 3 4 25 8 50
8 l44 0 0 -379z"/>
</g>
</svg>
