<?xml version="1.0" standalone="no"?>
<!DOCTYPE svg PUBLIC "-//W3C//DTD SVG 20010904//EN"
 "http://www.w3.org/TR/2001/REC-SVG-20010904/DTD/svg10.dtd">
<svg version="1.0" xmlns="http://www.w3.org/2000/svg"
 width="2550.000000pt" height="2700.000000pt" viewBox="0 0 2550.000000 2700.000000"
 preserveAspectRatio="xMidYMid meet">

<g transform="translate(0.000000,2700.000000) scale(0.100000,-0.100000)"
fill="#C5C3C1" stroke="none">
<path d="M4152 14506 l-32 -44 0 -530 c0 -596 8 -542 -81 -542 l-49 0 0 -2569
0 -2568 29 -6 c16 -3 45 -3 65 0 l36 6 0 -311 c0 -339 2 -326 -59 -352 -30
-12 -42 -30 -21 -30 15 0 23 -46 11 -68 -6 -12 -20 -23 -30 -27 -21 -6 -39
-62 -25 -75 5 -4 59 -10 119 -13 82 -5 131 -2 195 11 l85 17 3 38 c2 26 -1 37
-11 37 -18 0 -57 37 -57 55 0 8 9 24 20 35 l20 20 -25 10 c-15 6 -30 10 -35
10 -5 0 -16 7 -24 16 -14 13 -16 58 -16 339 l0 323 65 13 65 13 0 2543 0 2543
-65 0 -65 0 0 575 0 575 -43 0 c-40 0 -46 -4 -75 -44z m128 -1676 l0 -470 -85
0 -85 0 0 463 c0 255 3 467 7 470 3 4 42 7 85 7 l78 0 0 -470z m0 -690 l0
-120 -85 0 -85 0 0 113 c0 63 3 117 7 120 3 4 42 7 85 7 l78 0 0 -120z m0
-1350 l0 -1130 -85 0 -85 0 0 1123 c0 618 3 1127 7 1130 3 4 42 7 85 7 l78 0
0 -1130z m0 -1350 l0 -120 -85 0 -85 0 0 113 c0 63 3 117 7 120 3 4 42 7 85 7
l78 0 0 -120z m0 -624 c0 -249 -4 -407 -10 -411 -16 -10 -150 -42 -155 -37 -8
8 -6 838 2 845 3 4 42 7 85 7 l78 0 0 -404z"/>
</g>
</svg>
