<?xml version="1.0" standalone="no"?>
<!DOCTYPE svg PUBLIC "-//W3C//DTD SVG 20010904//EN"
 "http://www.w3.org/TR/2001/REC-SVG-20010904/DTD/svg10.dtd">
<svg version="1.0" xmlns="http://www.w3.org/2000/svg"
 width="2550.000000pt" height="2700.000000pt" viewBox="0 0 2550.000000 2700.000000"
 preserveAspectRatio="xMidYMid meet">

<g transform="translate(0.000000,2700.000000) scale(0.100000,-0.100000)"
fill="#C5C3C1" stroke="none">
<path d="M24370 26590 l0 -410 -22 -4 c-13 -3 -50 -8 -83 -11 -33 -3 -79 -8
-103 -11 l-42 -6 2 -2877 3 -2876 123 4 122 3 0 -829 c0 -778 -1 -831 -18
-846 -9 -8 -30 -20 -45 -26 -27 -10 -27 -12 -13 -33 24 -35 20 -65 -14 -90
-16 -12 -30 -29 -30 -37 0 -14 20 -15 172 -10 95 4 182 7 193 8 17 1 15 4 -12
20 -17 11 -34 29 -38 40 -7 22 9 61 25 61 23 0 7 19 -25 30 -19 6 -40 20 -45
30 -6 12 -10 322 -10 857 l0 838 28 1 c15 0 66 1 115 2 l87 2 -2 2893 -3 2892
-50 0 c-27 0 -78 -3 -112 -7 l-63 -8 0 405 0 405 -70 0 -70 0 0 -410z m250
-1045 c0 -430 -2 -515 -14 -515 -16 0 -299 -29 -338 -34 l-28 -4 0 514 c0 403
3 515 13 518 16 5 282 33 330 35 l37 1 0 -515z m0 -779 l0 -123 -102 -11 c-57
-7 -134 -15 -173 -18 -38 -4 -78 -8 -87 -10 -16 -3 -18 9 -18 122 0 91 3 126
13 128 16 5 282 33 330 35 l37 1 0 -124z m0 -1491 c0 -923 -3 -1225 -12 -1225
-14 0 -303 -29 -340 -34 l-28 -4 0 1224 c0 971 3 1225 13 1228 16 5 282 33
330 35 l37 1 0 -1225z m0 -1469 l0 -104 -72 -6 c-70 -7 -223 -23 -280 -31
l-28 -3 0 104 c0 75 4 106 13 108 16 5 282 33 330 35 l37 1 0 -104z m0 -755
l0 -508 -122 -7 c-68 -4 -153 -9 -190 -13 l-68 -6 0 502 c0 393 3 502 13 505
16 5 282 33 330 35 l37 1 0 -509z"/>
</g>
</svg>
