<?xml version="1.0" standalone="no"?>
<!DOCTYPE svg PUBLIC "-//W3C//DTD SVG 20010904//EN"
 "http://www.w3.org/TR/2001/REC-SVG-20010904/DTD/svg10.dtd">
<svg version="1.0" xmlns="http://www.w3.org/2000/svg"
 width="2550.000000pt" height="2700.000000pt" viewBox="0 0 2550.000000 2700.000000"
 preserveAspectRatio="xMidYMid meet">

<g transform="translate(0.000000,2700.000000) scale(0.100000,-0.100000)"
fill="#C5C3C1" stroke="none">
<path d="M13252 13508 c-9 -9 -12 -168 -12 -655 l0 -643 -113 0 -113 0 4
-2932 c2 -1613 5 -2934 6 -2935 1 -1 51 -5 112 -9 l109 -7 -5 -866 c-3 -476
-6 -866 -8 -867 -59 -23 -111 -64 -82 -64 6 0 15 -12 21 -26 12 -33 -9 -70
-47 -84 -22 -9 -25 -15 -22 -52 2 -30 8 -43 18 -43 8 -1 72 -5 142 -9 124 -8
128 -8 197 19 l71 28 0 41 c0 36 -4 43 -33 56 -41 19 -49 61 -18 94 l21 23
-39 11 c-21 7 -44 19 -51 27 -9 11 -12 201 -12 832 0 450 1 829 1 842 1 24 1
24 90 17 59 -5 97 -4 110 4 l21 11 0 2939 0 2940 -42 0 c-24 0 -73 3 -110 7
l-68 6 0 653 0 654 -68 0 c-40 0 -73 -5 -80 -12z m226 -1423 c2 -1 4 -246 5
-544 l2 -541 -167 0 -168 0 0 543 c0 299 2 546 5 548 4 5 318 -1 323 -6z m2
-1212 c3 -3 5 -63 5 -134 l0 -129 -167 0 -168 0 0 138 0 139 163 -5 c89 -2
164 -6 167 -9z m-6 -387 c5 -1 9 -558 10 -1274 l2 -1272 -168 0 -168 0 0 1278
0 1279 158 -4 c86 -3 161 -5 166 -7z m6 -2673 c3 -3 6 -58 7 -124 l2 -119
-170 0 -169 0 0 128 0 129 163 -5 c89 -2 164 -6 167 -9z m-5 -368 c14 -4 13
-991 0 -1003 -10 -9 -297 12 -315 23 -6 4 -10 178 -10 499 l0 493 158 -4 c86
-3 162 -6 167 -8z"/>
</g>
</svg>
