<?xml version="1.0" standalone="no"?>
<!DOCTYPE svg PUBLIC "-//W3C//DTD SVG 20010904//EN"
 "http://www.w3.org/TR/2001/REC-SVG-20010904/DTD/svg10.dtd">
<svg version="1.0" xmlns="http://www.w3.org/2000/svg"
 width="2550.000000pt" height="2700.000000pt" viewBox="0 0 2550.000000 2700.000000"
 preserveAspectRatio="xMidYMid meet">

<g transform="translate(0.000000,2700.000000) scale(0.100000,-0.100000)"
fill="#C5C3C1" stroke="none">
<path d="M14198 15481 l-23 -36 -5 -600 -5 -600 -42 -3 -43 -3 0 -590 c0 -324
0 -980 0 -1459 0 -478 0 -1446 0 -2150 l0 -1280 45 0 45 0 0 -771 c0 -461 -4
-777 -9 -788 -6 -10 -28 -26 -51 -36 l-40 -18 21 -23 c28 -30 19 -68 -22 -89
-26 -14 -30 -21 -27 -53 l3 -37 120 -8 c66 -4 125 -8 130 -8 6 0 39 8 75 19
63 18 65 20 68 55 3 30 -1 37 -25 49 -37 18 -52 61 -30 86 23 26 22 28 -23 46
-25 10 -41 24 -45 38 -3 13 -4 374 -3 802 l3 780 35 9 c19 5 38 12 41 15 4 4
10 1221 14 2705 l7 2697 -51 0 -51 0 -2 643 -3 642 -42 1 c-39 2 -45 -1 -65
-35z m92 -1866 l0 -515 -22 -14 c-13 -8 -34 -16 -48 -18 l-25 -3 -3 533 -2
532 50 0 50 0 0 -515z m-13 -852 c-15 -16 -73 -34 -81 -25 -3 3 -6 49 -6 102
l0 97 48 15 47 15 3 -95 c2 -70 -1 -99 -11 -109z m13 -1293 l0 -1170 -22 -14
c-13 -8 -34 -16 -48 -18 l-25 -3 -3 1167 -2 1167 22 12 c12 6 33 15 47 20 14
4 27 8 29 8 1 1 2 -525 2 -1169z m-13 -1527 c-15 -16 -73 -34 -81 -25 -3 3 -6
53 -6 112 l0 107 48 15 47 15 3 -105 c2 -78 -1 -109 -11 -119z m13 -572 l0
-449 -27 -10 c-16 -6 -37 -12 -48 -14 -20 -3 -20 3 -23 443 l-2 446 47 16 c27
9 49 16 51 16 1 1 2 -201 2 -448z"/>
</g>
</svg>
