<?xml version="1.0" standalone="no"?>
<!DOCTYPE svg PUBLIC "-//W3C//DTD SVG 20010904//EN"
 "http://www.w3.org/TR/2001/REC-SVG-20010904/DTD/svg10.dtd">
<svg version="1.0" xmlns="http://www.w3.org/2000/svg"
 width="2644.000000pt" height="2800.000000pt" viewBox="0 0 2644.000000 2800.000000"
 preserveAspectRatio="xMidYMid meet">

<g transform="translate(0.000000,2800.000000) scale(0.100000,-0.100000)"
fill="#C5C3C1" stroke="none">
<path d="M1588 14033 c-2 -4 -4 -489 -3 -1078 l1 -1070 -25 -33 c-24 -33 -24
-34 -7 -63 16 -26 16 -31 2 -51 -22 -30 -20 -41 9 -72 14 -15 25 -39 25 -54 0
-32 -27 -107 -51 -142 -9 -14 -22 -45 -28 -68 -7 -24 -21 -52 -32 -63 -24 -24
-24 -31 0 -77 12 -24 16 -44 10 -57 -4 -11 -8 -37 -8 -57 -1 -20 -6 -48 -12
-62 -10 -20 -8 -30 9 -58 11 -18 32 -44 46 -57 15 -14 26 -36 26 -50 0 -14 9
-39 20 -56 20 -31 28 -105 10 -105 -5 0 -17 -12 -26 -26 -16 -24 -16 -27 0
-55 16 -26 16 -31 2 -51 -21 -30 -20 -42 7 -68 l22 -21 -1 -738 -1 -739 -23
-32 c-22 -31 -22 -33 -6 -61 16 -27 16 -31 0 -57 -15 -27 -15 -31 1 -55 9 -15
21 -27 26 -27 26 0 2 -106 -38 -170 -11 -19 -26 -55 -33 -80 -6 -25 -21 -55
-33 -68 -19 -21 -20 -25 -7 -55 16 -37 15 -142 -1 -174 -16 -31 -4 -66 41
-118 22 -25 40 -56 40 -68 0 -12 9 -37 20 -55 20 -33 28 -102 11 -102 -5 0
-17 -12 -26 -27 -16 -24 -16 -28 -1 -54 15 -25 15 -29 -1 -57 -16 -28 -16 -30
6 -61 l23 -33 4 -1071 c4 -893 2 -1075 -9 -1089 -8 -10 -33 -26 -55 -36 -42
-19 -42 -19 -22 -37 11 -10 20 -28 20 -40 0 -23 -38 -65 -58 -65 -7 0 -12 -16
-12 -39 0 -45 9 -51 78 -51 26 0 72 -4 102 -9 48 -8 70 -5 155 19 l100 27 3
40 c3 36 0 41 -22 47 -14 3 -33 18 -42 32 -16 24 -16 27 5 55 l22 29 -26 10
c-51 19 -75 22 -105 12 -17 -6 -32 -7 -35 -2 -3 5 9 13 27 18 l33 8 3 1077 2
1076 25 37 c23 34 23 37 8 61 -15 23 -15 27 1 54 16 27 16 30 -1 54 -10 13
-21 25 -25 25 -17 0 -7 73 13 101 12 18 19 41 17 59 -2 22 9 45 43 92 63 86
65 94 29 161 l-30 57 26 51 c32 64 28 82 -36 155 -34 39 -50 66 -50 85 0 15
-4 31 -10 34 -12 7 -14 95 -2 95 4 0 15 12 24 28 15 25 15 29 0 55 -15 25 -15
29 1 56 17 29 17 30 -8 59 l-25 30 0 736 c0 723 0 737 20 758 23 25 25 50 8
78 -10 16 -10 24 0 40 17 29 15 54 -8 75 -26 23 -26 75 0 117 11 18 20 46 20
61 0 17 15 48 39 80 66 87 70 118 25 185 l-22 34 24 53 c31 67 26 90 -36 161
-47 53 -56 75 -67 161 -4 33 -1 46 16 64 24 26 27 50 9 79 -10 16 -10 24 0 40
17 29 15 54 -8 75 -20 18 -20 33 -22 1094 l-3 1076 -77 3 c-42 2 -78 -1 -80
-5z m94 -2530 c24 -22 23 -50 -3 -63 -17 -9 -23 -8 -35 7 -17 22 -18 45 -2 61
15 15 18 15 40 -5z m101 -108 c16 -33 24 -105 12 -105 -7 0 -74 74 -75 83 0
11 31 57 39 57 4 0 15 -16 24 -35z m-189 0 c5 -19 -1 -34 -21 -60 -45 -57 -52
-48 -28 33 17 56 39 68 49 27z m119 -130 c52 -48 53 -59 6 -100 -15 -14 -23
-16 -26 -8 -3 10 -9 10 -24 0 -16 -10 -24 -6 -61 30 l-42 43 39 40 c21 22 44
40 50 40 5 -1 32 -21 58 -45z m97 -125 c0 -34 -28 -110 -40 -110 -10 0 -50 54
-50 66 0 14 73 83 82 78 4 -3 8 -18 8 -34z m-237 -15 c27 -33 28 -35 12 -64
-19 -38 -28 -39 -43 -6 -13 29 -16 105 -4 104 4 0 20 -16 35 -34z m114 -117
c29 -27 29 -39 -2 -68 l-26 -24 -25 26 c-26 26 -26 26 -8 57 22 37 30 38 61 9z
m-2 -2328 c18 -20 18 -21 -5 -45 -18 -19 -26 -22 -37 -14 -16 14 -17 51 -1 67
16 16 22 15 43 -8z m95 -102 c19 -32 28 -108 12 -108 -4 0 -25 18 -46 39 l-38
39 21 31 c12 17 24 31 27 31 2 0 13 -15 24 -32z m-193 -1 c9 -19 6 -29 -17
-57 -16 -19 -31 -32 -34 -29 -8 7 24 109 34 109 4 0 12 -10 17 -23z m114 -129
c27 -24 49 -48 49 -54 0 -20 -45 -55 -56 -44 -8 8 -15 6 -24 -5 -19 -23 -32
-19 -75 25 l-39 40 39 40 c21 22 43 40 48 40 4 0 30 -19 58 -42z m103 -140 c0
-26 -8 -57 -18 -73 l-18 -27 -29 28 c-16 15 -29 32 -29 38 0 16 73 87 85 83 5
-2 10 -24 9 -49z m-235 -10 c21 -25 23 -30 11 -58 -15 -37 -23 -38 -38 -5 -13
28 -17 115 -4 100 4 -6 18 -22 31 -37z m115 -117 l27 -28 -25 -29 -24 -29 -26
24 c-30 28 -32 38 -10 69 20 28 25 28 58 -7z"/>
</g>
</svg>
