<?xml version="1.0" standalone="no"?>
<!DOCTYPE svg PUBLIC "-//W3C//DTD SVG 20010904//EN"
 "http://www.w3.org/TR/2001/REC-SVG-20010904/DTD/svg10.dtd">
<svg version="1.0" xmlns="http://www.w3.org/2000/svg"
 width="2644.000000pt" height="2800.000000pt" viewBox="0 0 2644.000000 2800.000000"
 preserveAspectRatio="xMidYMid meet">

<g transform="translate(0.000000,2800.000000) scale(0.100000,-0.100000)"
fill="#C5C3C1" stroke="none">
<path d="M8400 16455 c0 -498 -4 -905 -8 -905 -5 0 -14 -11 -20 -24 -8 -18 -7
-28 4 -45 13 -18 13 -23 -1 -44 -14 -22 -14 -26 5 -50 25 -32 25 -74 0 -112
-11 -16 -20 -41 -20 -55 1 -24 1 -24 30 10 16 19 30 31 30 26 0 -5 -27 -37
-60 -72 -77 -83 -91 -124 -60 -183 27 -54 44 -43 46 33 1 29 7 63 14 76 l12
23 24 -29 c34 -42 30 -61 -22 -113 -96 -96 -98 -135 -10 -246 22 -27 31 -50
34 -91 3 -31 0 -54 -5 -54 -5 0 -15 -11 -21 -24 -8 -18 -7 -28 3 -42 11 -16
11 -23 -1 -45 -12 -24 -11 -30 6 -52 19 -24 20 -43 20 -657 0 -622 0 -632 -21
-661 -18 -26 -19 -31 -5 -50 13 -19 13 -25 1 -49 -13 -25 -13 -30 5 -53 26
-32 25 -72 0 -104 -18 -24 -28 -73 -14 -73 3 0 15 11 26 25 11 14 24 25 30 25
5 0 -20 -32 -55 -71 -85 -90 -96 -123 -67 -184 29 -60 50 -47 48 28 -1 49 14
97 30 97 16 -1 49 -63 44 -82 -3 -11 -25 -39 -49 -62 -88 -82 -94 -128 -28
-210 58 -71 71 -136 35 -185 -20 -29 -21 -34 -7 -54 13 -20 13 -27 1 -49 -12
-23 -11 -29 6 -51 20 -25 20 -44 20 -931 l0 -906 -32 -20 c-18 -11 -37 -21
-42 -23 -5 -2 -1 -15 8 -29 20 -31 10 -62 -25 -73 -16 -5 -20 -14 -17 -43 l3
-37 145 0 c183 0 200 4 200 49 0 25 -5 35 -20 39 -30 8 -41 47 -23 76 18 28 9
37 -47 47 -63 10 -66 11 -42 19 l22 7 0 900 0 899 22 29 c19 26 20 32 8 55
-11 20 -11 29 -1 49 11 19 10 27 0 45 -8 11 -17 21 -21 21 -23 0 -2 104 27
132 59 60 79 127 53 183 -10 21 -8 32 10 64 31 55 28 90 -13 150 -19 28 -35
61 -35 73 0 13 -11 41 -25 63 -30 50 -31 82 -4 111 19 21 20 27 10 53 -10 23
-10 34 -1 51 9 18 9 28 -1 46 -7 13 -16 24 -21 24 -4 0 -8 284 -8 631 0 627 0
631 21 661 19 26 20 33 9 54 -11 19 -11 28 -1 48 10 18 10 29 2 45 -7 11 -16
21 -21 21 -13 0 -13 61 0 94 5 14 28 49 50 77 32 41 40 59 40 92 0 23 -7 50
-15 61 -13 17 -11 24 12 63 32 56 27 94 -20 157 -24 30 -34 52 -30 66 3 12 -5
36 -21 60 -25 37 -36 100 -18 100 5 0 14 11 21 24 10 19 10 27 0 44 -11 17
-11 25 1 47 12 23 11 28 -8 55 l-22 29 0 896 0 895 -65 0 -65 0 0 -905z m90
-1252 c25 -21 25 -32 1 -60 -24 -29 -35 -29 -55 2 -16 24 -16 27 1 50 22 29
27 30 53 8z m86 -108 c15 -36 19 -95 7 -95 -4 0 -22 14 -39 31 l-33 32 22 33
c12 19 23 34 25 34 2 0 10 -16 18 -35z m44 -10 c0 -8 -4 -15 -9 -15 -13 0 -22
16 -14 24 11 11 23 6 23 -9z m-110 -100 l35 -36 -39 -36 -38 -36 -36 36 -36
37 34 35 c19 19 37 35 40 35 3 0 22 -16 40 -35z m-95 -179 c-2 -17 -4 -33 -5
-36 -3 -15 -50 79 -50 99 l0 25 30 -29 c23 -22 29 -35 25 -59z m170 70 c12
-12 11 -16 -5 -31 -11 -10 -22 -26 -25 -36 -8 -25 -17 -24 -33 2 -12 19 -10
24 14 50 32 34 31 33 49 15z m-95 -131 c0 -7 -6 -18 -14 -24 -21 -18 -41 11
-26 39 9 17 14 19 26 9 8 -6 14 -17 14 -24z m29 -1985 c1 -3 -10 -18 -24 -35
l-24 -30 -24 30 -24 29 20 28 20 27 28 -22 c15 -12 28 -24 28 -27z m60 -81 c6
-18 11 -48 11 -68 l0 -36 -36 37 -36 36 18 31 c23 39 29 39 43 0z m41 -4 c0
-8 -4 -15 -10 -15 -5 0 -10 7 -10 15 0 8 5 15 10 15 6 0 10 -7 10 -15z m-103
-107 l33 -32 -32 -33 c-18 -18 -36 -33 -42 -33 -6 0 -25 14 -43 32 l-33 32 32
33 c18 18 36 33 42 33 6 0 25 -14 43 -32z m-99 -174 c-6 -13 -15 -24 -20 -24
-12 0 -38 63 -38 92 0 21 2 20 34 -11 30 -29 33 -36 24 -57z m172 66 c13 -8
12 -12 -7 -29 -12 -11 -24 -29 -28 -41 -9 -28 -23 -25 -31 6 -5 18 0 32 17 50
25 27 28 28 49 14z m-102 -124 c6 -27 -14 -42 -32 -27 -12 10 -13 18 -5 33 12
22 32 19 37 -6z"/>
</g>
</svg>
