<?xml version="1.0" standalone="no"?>
<!DOCTYPE svg PUBLIC "-//W3C//DTD SVG 20010904//EN"
 "http://www.w3.org/TR/2001/REC-SVG-20010904/DTD/svg10.dtd">
<svg version="1.0" xmlns="http://www.w3.org/2000/svg"
 width="2644.000000pt" height="2800.000000pt" viewBox="0 0 2644.000000 2800.000000"
 preserveAspectRatio="xMidYMid meet">

<g transform="translate(0.000000,2800.000000) scale(0.100000,-0.100000)"
fill="#C5C3C1" stroke="none">
<path d="M9420 17263 c0 -5 0 -394 0 -866 0 -852 0 -858 -20 -885 -18 -24 -19
-32 -10 -54 9 -19 9 -31 0 -48 -10 -19 -9 -27 9 -51 25 -33 27 -66 6 -89 -17
-19 -38 -80 -27 -80 3 0 19 12 34 27 51 48 29 14 -32 -52 -85 -91 -95 -128
-53 -192 16 -24 17 -24 30 -7 8 11 11 30 8 45 -4 15 1 43 9 64 l16 37 25 -30
c14 -16 25 -36 25 -44 0 -8 -21 -34 -46 -58 -88 -86 -95 -132 -34 -209 65 -82
76 -131 39 -180 -18 -24 -19 -31 -8 -49 11 -17 11 -25 0 -46 -12 -21 -11 -28
8 -55 22 -30 22 -31 20 -633 -1 -577 -2 -604 -20 -629 -16 -23 -17 -31 -7 -54
9 -21 9 -31 -1 -47 -11 -18 -10 -25 8 -49 26 -35 26 -67 1 -99 -11 -14 -20
-38 -20 -55 l0 -29 30 34 c16 19 29 31 30 27 0 -4 -29 -41 -63 -81 -76 -87
-85 -111 -57 -166 11 -22 25 -40 30 -40 13 0 22 35 15 63 -4 13 1 41 10 63
l16 38 24 -29 c13 -17 24 -39 25 -50 0 -11 -25 -45 -55 -75 -80 -80 -83 -111
-21 -189 58 -75 70 -133 36 -178 -19 -26 -20 -33 -9 -51 10 -16 10 -26 1 -47
-11 -23 -9 -31 8 -55 15 -21 20 -44 20 -90 0 -74 -10 -94 -50 -109 -30 -10
-31 -11 -15 -35 19 -28 9 -58 -25 -76 -14 -7 -20 -21 -20 -44 l0 -34 111 -1
c61 -1 137 1 170 5 57 6 59 8 59 35 0 20 -10 38 -32 58 -31 28 -32 29 -15 54
9 15 17 28 17 31 0 9 -75 30 -100 28 l-25 -1 27 10 c25 10 26 14 27 81 0 48 6
79 17 96 13 20 14 28 3 48 -10 19 -10 29 0 48 11 19 10 27 0 45 -8 11 -17 21
-21 21 -11 0 -10 54 2 85 6 15 26 45 45 68 42 48 53 97 33 139 -13 28 -12 34
10 77 28 56 24 86 -21 150 -18 25 -32 54 -29 64 2 10 -8 37 -22 62 -31 53 -32
68 -5 104 17 23 18 31 9 53 -9 19 -9 31 0 47 9 18 8 27 -6 48 -15 24 -17 78
-16 635 0 558 1 610 17 634 14 22 15 30 4 50 -10 20 -10 29 1 49 12 22 11 28
-8 48 -36 38 -22 118 28 162 48 43 63 106 36 155 -13 22 -12 29 11 68 31 53
27 87 -19 144 -21 27 -31 50 -30 68 1 15 -9 43 -23 64 -30 45 -31 68 -4 105
18 24 19 31 8 49 -11 17 -11 25 0 46 12 22 12 29 -4 52 -16 25 -17 85 -18 888
-1 586 -4 863 -12 868 -13 10 -115 10 -115 1z m88 -2086 l21 -23 -24 -29 -25
-30 -26 29 -25 28 22 24 c28 29 30 30 57 1z m88 -133 c3 -25 4 -48 0 -51 -7
-7 -66 46 -66 59 0 5 8 20 18 33 23 31 39 17 48 -41z m34 31 c0 -8 -4 -15 -10
-15 -5 0 -10 7 -10 15 0 8 5 15 10 15 6 0 10 -7 10 -15z m-105 -105 l29 -30
-37 -38 -37 -37 -37 37 -37 38 29 30 c16 16 36 30 45 30 9 0 29 -14 45 -30z
m-92 -153 c-3 -5 0 -13 6 -17 9 -5 8 -10 -3 -19 -13 -11 -19 -7 -36 21 -11 18
-20 44 -20 57 l0 25 30 -29 c16 -15 27 -32 23 -38z m159 35 c-6 -2 -16 -19
-22 -38 -13 -40 -23 -43 -37 -11 -9 18 -6 27 15 49 20 22 28 25 40 16 8 -8 10
-14 4 -16z m-97 -112 c0 -13 -6 -25 -12 -27 -16 -6 -27 21 -19 43 9 23 31 11
31 -16z m18 -1890 c21 -25 21 -29 -4 -59 l-20 -24 -24 23 c-29 28 -31 37 -8
62 21 23 34 23 56 -2z m76 -101 c13 -38 14 -89 2 -89 -5 0 -20 15 -33 33 -23
30 -24 33 -9 59 20 36 27 35 40 -3z m41 -4 c0 -8 -4 -15 -10 -15 -5 0 -10 7
-10 15 0 8 5 15 10 15 6 0 10 -7 10 -15z m-85 -124 c3 -9 -8 -28 -27 -48 l-32
-33 -35 35 -35 35 33 34 34 35 28 -22 c15 -12 30 -28 34 -36z m-109 -143 c-1
-15 -5 -31 -9 -34 -10 -11 -47 60 -47 90 l0 30 30 -29 c22 -21 29 -36 26 -57z
m172 50 c-2 -5 -8 -9 -13 -8 -5 1 -17 -15 -26 -36 -15 -38 -16 -38 -28 -16
-10 19 -9 27 9 51 14 21 26 28 40 24 12 -3 19 -10 18 -15z m-105 -102 c3 -8 0
-22 -7 -31 -10 -15 -14 -15 -24 -2 -14 17 -6 47 13 47 7 0 15 -6 18 -14z"/>
</g>
</svg>
