<?xml version="1.0" standalone="no"?>
<!DOCTYPE svg PUBLIC "-//W3C//DTD SVG 20010904//EN"
 "http://www.w3.org/TR/2001/REC-SVG-20010904/DTD/svg10.dtd">
<svg version="1.0" xmlns="http://www.w3.org/2000/svg"
 width="2644.000000pt" height="2800.000000pt" viewBox="0 0 2644.000000 2800.000000"
 preserveAspectRatio="xMidYMid meet">

<g transform="translate(0.000000,2800.000000) scale(0.100000,-0.100000)"
fill="#C5C3C1" stroke="none">
<path d="M10367 17183 c-4 -3 -7 -384 -7 -846 0 -763 -1 -842 -16 -858 -14
-16 -15 -23 -5 -48 10 -23 10 -33 0 -49 -12 -18 -10 -24 9 -45 29 -30 28 -55
-3 -98 -16 -20 -25 -44 -23 -60 1 -16 -9 -41 -30 -70 -45 -61 -49 -82 -22
-139 20 -42 21 -51 10 -82 -17 -46 -8 -76 40 -134 50 -61 63 -121 31 -153 -24
-24 -26 -42 -9 -59 10 -10 10 -17 0 -32 -16 -26 -15 -40 3 -60 12 -14 15 -100
15 -608 1 -528 -1 -594 -15 -616 -13 -20 -14 -29 -5 -47 9 -16 9 -27 0 -44
-11 -20 -9 -28 9 -53 27 -38 26 -44 -5 -97 -15 -26 -23 -52 -20 -63 4 -12 -5
-34 -28 -63 -49 -61 -52 -82 -21 -141 24 -46 25 -51 11 -74 -29 -44 -20 -75
45 -151 39 -45 48 -114 20 -144 -24 -26 -26 -40 -9 -57 9 -9 9 -18 -1 -38 -10
-22 -9 -31 4 -50 17 -27 27 -140 14 -165 -4 -9 -22 -22 -39 -29 -35 -15 -35
-13 -14 -45 16 -24 15 -26 -15 -54 -18 -17 -31 -39 -31 -54 0 -24 1 -24 108
-29 59 -3 132 -2 162 1 53 6 55 7 58 39 3 26 -1 34 -21 41 -30 12 -39 43 -21
70 13 19 12 21 -15 36 -17 8 -43 15 -58 16 -27 0 -27 1 -5 9 20 8 22 16 22 77
0 47 5 76 16 92 14 19 14 27 4 46 -9 17 -9 28 -1 44 12 22 0 61 -19 61 -13 0
-13 52 0 86 6 15 26 44 44 65 42 46 52 86 33 132 -14 32 -13 37 4 63 28 42 24
92 -11 147 -16 26 -30 59 -30 73 0 14 -11 42 -25 62 -31 45 -31 69 -3 99 19
20 20 26 8 48 -11 21 -11 29 0 50 11 21 11 27 -4 44 -16 17 -17 64 -16 611 0
527 2 594 17 616 14 21 14 29 3 50 -11 19 -11 27 -2 36 17 17 15 35 -9 59 -30
30 -19 98 25 147 59 66 67 95 41 145 -13 25 -12 31 10 74 28 52 26 80 -13 132
-14 18 -29 54 -33 78 -5 24 -18 56 -29 70 -21 27 -27 73 -10 73 6 0 15 11 22
25 8 19 8 28 -2 40 -10 12 -10 21 0 45 11 26 10 33 -4 49 -14 16 -16 94 -16
848 0 457 -3 838 -6 847 -5 12 -20 16 -58 16 -29 0 -56 -3 -59 -7z m85 -2027
c17 -23 17 -25 -3 -51 l-21 -26 -24 22 c-28 27 -30 36 -7 61 21 24 34 22 55
-6z m-89 -91 c18 -24 17 -26 -10 -59 -15 -19 -31 -32 -35 -30 -18 11 -1 114
19 114 5 0 16 -12 26 -25z m168 -14 c6 -22 9 -47 5 -57 -6 -16 -10 -14 -37 13
-31 30 -31 31 -14 57 23 35 32 33 46 -13z m-66 -91 l29 -30 -29 -30 c-16 -16
-34 -30 -40 -30 -6 0 -24 14 -40 30 l-29 30 29 30 c16 17 34 30 40 30 6 0 24
-13 40 -30z m-90 -159 c-3 -11 -10 -21 -14 -21 -11 0 -31 47 -31 73 0 21 1 21
26 -5 19 -18 24 -31 19 -47z m135 8 c-15 -34 -26 -37 -35 -8 -5 14 0 28 17 46
19 21 24 22 26 8 2 -9 -2 -30 -8 -46z m-70 -68 c0 -25 -11 -33 -26 -20 -10 8
-11 16 -3 30 12 22 29 16 29 -10z m12 -1828 c23 -20 22 -32 -2 -63 l-20 -25
-25 30 -24 29 21 23 c26 27 26 28 50 6z m-83 -101 l20 -29 -33 -32 c-18 -17
-35 -28 -39 -25 -18 18 1 114 22 114 5 0 19 -13 30 -28z m161 2 c12 -31 13
-84 2 -84 -5 0 -21 13 -36 29 -28 29 -28 30 -10 55 24 32 32 32 44 0z m-55
-104 l29 -30 -29 -30 c-36 -37 -54 -38 -89 -1 l-27 28 26 32 c33 39 53 39 90
1z m-94 -159 c-20 -36 -31 -27 -51 41 -12 39 0 43 33 10 25 -25 27 -33 18 -51z
m129 8 c-15 -34 -26 -37 -35 -8 -5 14 0 28 17 46 19 21 24 22 26 8 2 -9 -2
-30 -8 -46z m-66 -54 c6 -16 -2 -45 -13 -45 -18 0 -30 24 -20 42 12 22 25 23
33 3z"/>
</g>
</svg>
