<?xml version="1.0" standalone="no"?>
<!DOCTYPE svg PUBLIC "-//W3C//DTD SVG 20010904//EN"
 "http://www.w3.org/TR/2001/REC-SVG-20010904/DTD/svg10.dtd">
<svg version="1.0" xmlns="http://www.w3.org/2000/svg"
 width="2644.000000pt" height="2800.000000pt" viewBox="0 0 2644.000000 2800.000000"
 preserveAspectRatio="xMidYMid meet">

<g transform="translate(0.000000,2800.000000) scale(0.100000,-0.100000)"
fill="#C5C3C1" stroke="none">
<path d="M5162 15518 l-72 -102 0 -564 c0 -561 0 -564 -21 -594 -21 -28 -21
-32 -6 -57 14 -24 14 -29 -1 -53 -15 -26 -15 -29 7 -59 31 -42 32 -65 4 -115
-13 -22 -23 -49 -23 -60 1 -15 7 -12 34 19 18 20 36 37 40 37 19 0 -2 -30 -73
-104 -94 -98 -105 -129 -72 -195 12 -22 26 -41 31 -41 17 0 31 40 26 73 -6 34
12 98 29 104 6 1 21 -13 34 -32 31 -46 23 -73 -38 -124 -27 -23 -59 -62 -71
-86 -27 -56 -20 -83 40 -154 26 -30 46 -68 55 -100 16 -62 15 -70 -13 -105
-24 -31 -28 -51 -12 -61 14 -8 13 -41 -2 -65 -10 -16 -9 -24 10 -49 l22 -30 0
-706 c0 -698 0 -706 -21 -728 -13 -15 -18 -28 -13 -42 9 -26 8 -64 0 -91 -6
-15 0 -27 18 -45 32 -30 32 -53 1 -104 -41 -66 -30 -103 13 -45 13 17 27 30
32 30 24 0 5 -29 -54 -85 -68 -63 -106 -117 -106 -149 0 -11 12 -40 26 -64 25
-43 28 -44 41 -26 9 11 12 32 9 51 -5 33 6 86 24 113 8 12 14 9 38 -19 41 -50
33 -80 -38 -142 -67 -58 -95 -113 -80 -154 6 -15 30 -51 54 -81 43 -53 48 -65
59 -164 1 -9 -8 -27 -21 -40 -24 -26 -28 -45 -12 -55 6 -3 10 -17 10 -30 0
-13 -4 -27 -10 -30 -16 -10 -11 -41 10 -60 20 -18 20 -31 20 -1266 0 -1380 6
-1265 -65 -1290 -40 -15 -42 -20 -15 -37 38 -23 19 -77 -33 -95 -14 -5 -18
-15 -15 -44 l3 -38 120 -9 c99 -7 134 -5 200 9 86 18 95 25 95 68 0 21 -7 30
-27 38 -46 17 -57 57 -27 90 16 18 14 20 -30 38 l-46 20 0 858 c-1 1735 -1
1645 13 1662 26 30 28 40 11 66 -15 23 -15 27 1 51 15 23 15 27 0 50 -8 13
-20 24 -25 24 -14 0 -12 58 3 103 8 20 25 50 39 65 65 69 83 134 53 192 -14
28 -14 33 5 70 11 22 20 59 20 84 0 36 -7 53 -38 93 -22 27 -41 64 -45 86 -3
20 -15 50 -26 66 -21 29 -29 91 -12 91 5 0 16 11 25 25 16 24 16 27 0 54 -15
26 -15 30 1 54 16 25 16 28 -5 57 -21 30 -21 30 -23 732 l-2 703 24 31 c22 30
22 33 7 56 -15 22 -15 28 -2 53 13 25 13 31 -1 51 -8 13 -19 24 -24 24 -13 0
-11 59 4 102 7 21 25 51 40 68 68 76 79 119 51 189 -14 36 -14 40 5 72 23 38
27 99 9 132 -6 12 -23 38 -38 57 -15 19 -30 52 -33 73 -3 20 -15 49 -26 64
-21 25 -29 93 -12 93 5 0 16 11 25 25 16 24 16 27 0 54 -15 26 -15 30 1 54 16
25 16 27 -4 54 -21 28 -21 37 -22 696 0 367 -4 667 -7 667 -4 0 -40 -46 -80
-102z m37 -1632 l23 -24 -23 -31 c-12 -17 -26 -31 -29 -31 -3 0 -17 14 -29 31
l-23 31 23 24 c12 13 25 24 29 24 4 0 17 -11 29 -24z m89 -103 c13 -36 22
-113 13 -113 -4 0 -22 16 -41 35 l-34 35 17 35 c20 42 31 44 45 8z m48 -30
c-5 -12 -10 -13 -18 -5 -8 8 -8 15 3 28 15 18 25 4 15 -23z m-119 -95 c18 -18
33 -36 33 -41 0 -9 -71 -77 -80 -76 -7 0 -80 68 -80 74 0 8 75 74 85 75 5 0
24 -14 42 -32z m-106 -192 c-7 -8 -11 -20 -10 -28 3 -25 -1 -38 -12 -38 -5 0
-7 4 -4 10 3 5 -2 21 -11 34 -18 29 -35 92 -26 101 3 3 22 -10 41 -29 28 -29
32 -37 22 -50z m195 65 c20 4 24 -2 14 -21 -6 -11 -17 -20 -25 -20 -8 0 -15
-6 -15 -13 0 -7 -6 -21 -13 -31 -12 -17 -14 -16 -31 9 -18 27 -18 27 15 61 19
20 36 30 39 23 4 -5 11 -9 16 -8z m-111 -130 c14 -44 -24 -67 -48 -29 -8 12
-7 21 2 32 18 21 38 20 46 -3z m7 -2198 c23 -21 22 -42 -3 -72 l-20 -24 -24
23 c-29 27 -31 46 -8 72 20 22 31 23 55 1z m86 -110 c13 -34 19 -110 9 -118
-4 -3 -5 -2 -2 2 3 4 -11 23 -30 43 l-36 37 18 31 c22 39 28 40 41 5z m52 -18
c0 -8 -4 -15 -10 -15 -5 0 -10 7 -10 15 0 8 5 15 10 15 6 0 10 -7 10 -15z
m-110 -110 l34 -35 -39 -40 c-21 -22 -42 -40 -45 -40 -3 1 -23 16 -44 36 l-40
34 39 40 c22 22 44 40 50 40 6 0 26 -16 45 -35z m-118 -197 c-9 -15 -20 -28
-24 -28 -11 0 -36 51 -38 80 -5 53 0 54 40 15 39 -38 39 -38 22 -67z m216 63
c-2 -9 -13 -20 -24 -25 -12 -5 -27 -26 -34 -45 l-13 -36 -15 32 c-14 30 -13
33 9 61 27 33 82 43 77 13z m-130 -133 c4 -37 -20 -53 -43 -28 -17 19 -17 21
0 40 23 25 39 21 43 -12z"/>
</g>
</svg>
