<?xml version="1.0" standalone="no"?>
<!DOCTYPE svg PUBLIC "-//W3C//DTD SVG 20010904//EN"
 "http://www.w3.org/TR/2001/REC-SVG-20010904/DTD/svg10.dtd">
<svg version="1.0" xmlns="http://www.w3.org/2000/svg"
 width="2644.000000pt" height="2800.000000pt" viewBox="0 0 2644.000000 2800.000000"
 preserveAspectRatio="xMidYMid meet">

<g transform="translate(0.000000,2800.000000) scale(0.100000,-0.100000)"
fill="#C5C3C1" stroke="none">
<path d="M20456 27141 l-56 -57 0 -827 0 -828 -22 -30 c-22 -29 -22 -30 -4
-60 17 -28 17 -32 1 -55 -14 -22 -15 -31 -5 -55 7 -15 18 -34 26 -40 25 -20
16 -63 -26 -118 -31 -41 -40 -62 -40 -92 0 -29 -10 -55 -37 -95 -50 -76 -56
-147 -19 -217 23 -42 25 -54 17 -85 -18 -67 12 -142 83 -211 29 -28 36 -42 36
-73 0 -21 -4 -38 -9 -38 -5 0 -16 -12 -26 -26 -16 -25 -16 -29 -1 -60 14 -31
14 -36 -1 -62 -16 -28 -16 -30 5 -59 l22 -31 0 -786 c0 -445 -4 -786 -9 -786
-5 0 -14 -13 -21 -29 -10 -24 -9 -33 5 -55 15 -23 15 -27 1 -48 -22 -30 -20
-41 9 -76 34 -41 32 -65 -15 -134 -30 -45 -40 -70 -40 -99 0 -28 -10 -55 -36
-94 -51 -76 -56 -135 -19 -206 24 -46 26 -56 16 -94 -17 -66 9 -133 78 -200
35 -34 41 -45 41 -82 0 -24 -4 -43 -9 -43 -5 0 -16 -12 -26 -26 -16 -25 -16
-30 -2 -59 14 -30 14 -35 0 -55 -15 -22 -15 -26 5 -64 l22 -41 -2 -865 -3
-865 -40 -20 c-22 -11 -42 -21 -44 -22 -2 -2 3 -11 12 -21 27 -29 21 -68 -13
-94 -16 -12 -30 -29 -30 -38 0 -18 58 -19 299 -4 l94 6 -31 25 c-37 28 -41 58
-11 89 l20 21 -40 16 c-22 9 -45 25 -50 36 -8 13 -11 297 -11 878 0 836 1 859
20 883 21 27 26 55 10 65 -13 8 -13 41 2 64 9 14 8 26 -2 50 -7 17 -16 31 -21
31 -5 0 -9 24 -9 54 0 50 3 57 60 127 33 40 60 83 60 95 0 12 -9 41 -19 64
l-19 43 33 51 c53 81 53 91 -3 175 -46 69 -49 76 -39 108 9 28 7 41 -8 69 -10
18 -29 41 -41 49 -19 12 -24 24 -24 60 0 25 4 45 8 45 5 0 15 11 22 25 11 21
11 29 0 50 -11 20 -11 32 0 64 11 36 11 42 -9 69 -21 30 -21 30 -21 806 0 763
0 776 20 796 21 21 26 55 10 65 -13 8 -13 41 2 64 9 14 8 26 -2 50 -7 17 -16
31 -21 31 -5 0 -9 26 -9 58 0 57 2 61 55 122 31 36 58 75 61 87 4 14 -3 44
-15 73 l-22 50 31 45 c59 86 59 96 1 179 -45 66 -50 78 -41 101 17 44 12 64
-30 109 -31 34 -40 51 -40 80 0 20 4 36 8 36 5 0 15 11 22 25 11 21 11 29 0
50 -11 20 -11 32 0 64 11 36 11 42 -9 69 l-21 30 0 879 c0 845 -1 879 -19 890
-16 10 -26 4 -75 -46z m29 -2188 c13 -16 25 -35 25 -44 0 -17 -50 -69 -67 -69
-14 0 -43 45 -43 67 0 14 46 73 57 73 2 0 15 -12 28 -27z m-116 -138 l21 -36
-28 -41 -27 -42 -3 44 c-3 42 5 110 12 110 2 0 13 -16 25 -35z m235 16 c28
-31 32 -92 8 -121 l-21 -25 -47 47 -47 47 34 34 c41 41 50 43 73 18z m-74
-198 c0 -8 -76 -83 -85 -83 -14 0 -75 62 -75 78 0 7 14 31 31 52 l32 39 48
-41 c27 -23 49 -43 49 -45z m70 -80 c-1 -23 -35 -99 -49 -107 -5 -4 -18 5 -27
18 -15 25 -15 27 16 66 33 42 60 52 60 23z m-200 -64 c6 -11 10 -28 8 -37 -3
-13 -8 -9 -21 15 -20 37 -21 43 -7 43 5 0 14 -9 20 -21z m80 -107 c0 -15 -2
-15 -10 -2 -13 20 -13 33 0 25 6 -3 10 -14 10 -23z m18 -2405 l32 -33 -41 -39
-40 -40 -19 25 c-34 43 -34 59 -4 91 15 16 31 29 34 29 3 0 20 -15 38 -33z
m128 -163 c5 -33 2 -51 -11 -70 l-17 -27 -46 47 -46 46 39 40 c36 37 40 39 56
24 10 -9 21 -36 25 -60z m-248 32 l20 -34 -26 -36 c-14 -20 -29 -36 -34 -36
-9 0 -11 84 -2 118 9 30 19 28 42 -12z m122 -140 l43 -38 -45 -44 -44 -44 -43
44 -43 44 37 41 c21 23 41 40 45 39 4 -2 27 -20 50 -42z m95 -138 c-8 -38 -35
-88 -47 -88 -5 0 -14 11 -20 25 -10 23 -8 29 22 60 42 44 54 44 45 3z m-203
-25 c22 -20 26 -72 4 -54 -16 13 -39 71 -29 71 4 0 15 -7 25 -17z m93 -113 c3
-5 3 -15 -1 -21 -6 -11 -23 6 -24 24 0 10 18 9 25 -3z"/>
</g>
</svg>
