<?xml version="1.0" standalone="no"?>
<!DOCTYPE svg PUBLIC "-//W3C//DTD SVG 20010904//EN"
 "http://www.w3.org/TR/2001/REC-SVG-20010904/DTD/svg10.dtd">
<svg version="1.0" xmlns="http://www.w3.org/2000/svg"
 width="2644.000000pt" height="2800.000000pt" viewBox="0 0 2644.000000 2800.000000"
 preserveAspectRatio="xMidYMid meet">

<g transform="translate(0.000000,2800.000000) scale(0.100000,-0.100000)"
fill="#C5C3C1" stroke="none">
<path d="M25300 27489 c0 -506 0 -511 -21 -541 -21 -29 -21 -31 -5 -65 16 -33
16 -37 1 -60 -14 -21 -15 -30 -5 -54 7 -15 18 -34 26 -40 23 -19 16 -64 -17
-105 -42 -52 -69 -111 -69 -153 0 -20 -13 -54 -32 -85 -45 -72 -51 -161 -14
-228 21 -39 24 -56 19 -97 -5 -42 -1 -60 21 -105 15 -30 44 -70 66 -90 32 -29
40 -43 40 -71 0 -19 -4 -35 -10 -35 -5 0 -16 -13 -25 -30 -14 -27 -14 -33 0
-60 14 -28 14 -33 -1 -59 -16 -28 -16 -31 4 -66 l22 -36 0 -892 c0 -491 -4
-897 -8 -904 -4 -7 -24 -19 -45 -28 -40 -17 -45 -26 -22 -45 20 -17 19 -59 -2
-82 -21 -24 -10 -34 22 -20 14 7 49 12 78 12 29 0 82 3 120 7 61 5 67 8 67 29
0 13 9 29 20 37 20 14 20 14 -3 34 -12 10 -34 27 -49 36 l-28 17 0 891 0 891
22 30 c19 27 20 34 9 64 -10 26 -10 41 0 67 10 28 9 37 -10 67 -14 24 -21 52
-21 86 0 49 3 55 60 118 65 72 74 105 45 156 -22 38 -18 55 25 119 22 32 40
67 40 78 0 11 -22 52 -50 91 -49 70 -49 71 -36 109 17 47 9 67 -43 118 -47 45
-54 90 -21 132 23 30 25 51 5 77 -12 16 -12 22 0 47 19 37 19 49 -5 79 -19 24
-20 44 -20 548 l0 522 -75 0 -75 0 0 -511z m144 -941 c18 -25 20 -38 8 -38 -4
0 -16 14 -25 30 -21 35 -6 41 17 8z m-60 -91 c15 -19 26 -37 26 -42 0 -12 -64
-75 -76 -75 -7 0 -21 19 -33 42 l-21 42 32 33 c18 18 35 33 39 33 5 0 19 -15
33 -33z m125 -118 c29 -31 35 -72 17 -108 -9 -16 -20 -33 -26 -36 -5 -3 -33
13 -60 36 l-51 43 43 43 c23 24 46 43 50 43 4 0 16 -10 27 -21z m-246 -32 c18
-33 18 -34 -5 -70 -13 -20 -26 -36 -30 -37 -9 0 -11 102 -2 124 9 24 17 20 37
-17z m118 -135 l43 -39 -38 -46 c-21 -26 -41 -47 -45 -47 -4 0 -24 18 -45 39
-25 26 -36 44 -30 53 18 30 57 78 64 78 4 0 27 -17 51 -38z m109 -154 c-6 -20
-19 -47 -30 -60 -19 -23 -19 -23 -34 -3 -21 28 -21 30 21 75 41 46 57 42 43
-12z m-180 -65 c0 -13 -3 -13 -15 -3 -8 7 -15 19 -15 27 0 13 3 13 15 3 8 -7
15 -19 15 -27z"/>
</g>
</svg>
