<?xml version="1.0" standalone="no"?>
<!DOCTYPE svg PUBLIC "-//W3C//DTD SVG 20010904//EN"
 "http://www.w3.org/TR/2001/REC-SVG-20010904/DTD/svg10.dtd">
<svg version="1.0" xmlns="http://www.w3.org/2000/svg"
 width="2644.000000pt" height="2800.000000pt" viewBox="0 0 2644.000000 2800.000000"
 preserveAspectRatio="xMidYMid meet">

<g transform="translate(0.000000,2800.000000) scale(0.100000,-0.100000)"
fill="#C5C3C1" stroke="none">
<path d="M14988 14554 l-78 -159 0 -593 c0 -592 0 -593 -22 -622 -20 -27 -20
-33 -8 -70 10 -31 11 -43 2 -52 -18 -18 -14 -52 8 -76 25 -26 27 -94 4 -113
-24 -20 -44 -65 -44 -99 0 -40 10 -38 46 10 25 35 44 50 44 35 0 -2 -32 -39
-71 -82 -75 -83 -109 -138 -109 -175 0 -13 14 -47 31 -76 28 -50 31 -52 44
-35 10 13 12 35 8 74 -5 55 10 129 27 129 17 0 70 -75 70 -98 0 -17 -18 -41
-56 -76 -84 -76 -112 -144 -83 -199 7 -12 30 -44 52 -70 68 -83 84 -159 42
-201 -26 -26 -33 -60 -15 -71 6 -3 10 -17 10 -30 0 -13 -4 -27 -10 -30 -16
-10 -12 -40 10 -68 20 -25 20 -40 20 -812 0 -772 0 -787 -20 -812 -22 -28 -26
-58 -10 -68 6 -3 10 -17 10 -30 0 -13 -4 -27 -10 -30 -19 -11 -10 -52 16 -79
33 -32 28 -73 -16 -123 -22 -25 -30 -44 -30 -73 0 -21 5 -40 10 -42 6 -2 -8
-25 -31 -53 -80 -96 -83 -123 -30 -214 l31 -51 -20 -33 c-37 -60 -27 -96 53
-190 25 -29 40 -60 46 -91 9 -48 5 -86 -9 -86 -4 0 -13 -14 -20 -31 -10 -24
-11 -36 -2 -50 15 -23 15 -56 2 -64 -16 -10 -12 -40 10 -68 20 -25 20 -40 20
-894 0 -956 4 -897 -62 -923 -45 -18 -44 -17 -18 -44 29 -32 21 -71 -20 -94
-26 -15 -30 -23 -30 -59 0 -27 5 -43 13 -44 6 0 19 -2 27 -3 8 -2 70 -6 137
-10 112 -7 128 -5 183 15 l60 22 0 43 c0 37 -4 45 -27 56 -41 20 -52 61 -26
96 l21 29 -36 13 c-21 7 -43 17 -49 22 -10 8 -13 197 -13 887 0 854 1 877 20
901 23 30 24 48 5 74 -13 17 -13 22 0 42 21 32 19 47 -11 79 -41 44 -30 96 34
174 67 80 82 127 60 188 -15 43 -15 47 3 77 50 81 45 149 -17 230 -19 25 -34
54 -33 64 4 41 -3 63 -36 111 -37 53 -46 107 -21 117 8 3 20 19 26 35 10 24
10 33 -5 55 -15 23 -15 27 -1 49 21 32 20 47 -4 73 -20 21 -20 35 -20 817 0
450 4 795 9 795 5 0 14 13 21 30 10 25 10 34 -3 53 -14 21 -14 27 0 56 13 27
14 36 3 56 -7 14 -19 25 -27 25 -16 0 -18 66 -2 107 5 15 28 46 49 68 65 67
84 133 54 190 -14 28 -13 32 17 91 39 77 35 107 -21 192 -29 42 -39 68 -38 93
1 37 -13 71 -44 105 -10 12 -21 37 -24 56 -5 28 -1 40 20 63 29 31 32 51 11
79 -12 16 -12 23 2 51 15 32 15 36 -3 62 -18 27 -19 61 -24 782 l-5 754 -77
-159z m47 -1814 l28 -29 -28 -38 c-16 -21 -30 -40 -32 -42 -5 -7 -73 61 -73
73 0 14 51 66 65 66 6 0 24 -13 40 -30z m93 -122 c16 -53 21 -104 11 -119 -7
-11 -17 -4 -47 31 l-39 45 25 37 c13 21 28 38 33 38 4 0 12 -15 17 -32z m52 3
c0 -6 -4 -13 -10 -16 -5 -3 -10 1 -10 9 0 9 5 16 10 16 6 0 10 -4 10 -9z
m-110 -176 c13 -24 12 -28 -28 -68 l-42 -42 -47 47 -47 48 43 44 44 45 32 -24
c17 -14 38 -36 45 -50z m-161 -122 c19 -23 29 -44 25 -53 -18 -44 -17 -45 4
-26 12 11 22 15 22 9 0 -5 -8 -17 -18 -26 -17 -15 -19 -14 -37 10 -34 44 -57
123 -36 123 5 0 23 -17 40 -37z m207 4 c-10 -41 -36 -97 -45 -97 -5 0 -12 11
-15 25 -5 19 1 34 21 60 32 40 48 45 39 12z m-106 -141 c0 -14 -5 -28 -11 -32
-17 -10 -32 12 -24 35 9 29 35 27 35 -3z m-95 -2411 c-15 -20 -29 -34 -32 -31
-3 3 7 22 22 41 15 20 29 34 32 31 3 -3 -7 -22 -22 -41z m123 -28 c28 -26 27
-44 -3 -82 -28 -33 -43 -30 -78 17 l-19 26 28 35 c29 37 34 37 72 4z m-121
-132 c29 -32 30 -37 19 -70 -13 -35 -52 -85 -68 -85 -5 0 -6 5 -3 10 3 6 -1
18 -10 27 -29 28 -9 153 24 153 4 0 21 -16 38 -35z m212 4 c12 -36 15 -119 4
-119 -5 0 -23 18 -41 40 l-33 39 23 36 c13 19 26 35 30 35 3 0 11 -14 17 -31z
m-77 -136 c21 -20 38 -42 38 -47 0 -14 -71 -86 -85 -86 -6 0 -29 18 -50 40
l-39 40 44 45 c24 25 46 45 49 45 3 0 22 -17 43 -37z m-119 -226 l-16 -31 -18
23 c-23 28 -43 97 -33 113 5 8 21 -3 45 -31 38 -43 38 -43 22 -74z m163 19
c-17 -40 -31 -46 -39 -16 -3 13 4 32 21 52 32 38 41 20 18 -36z m-86 -83 c0
-10 -4 -24 -9 -31 -6 -10 -10 -10 -21 3 -10 12 -10 18 0 30 17 20 30 19 30 -2z"/>
</g>
</svg>
