<?xml version="1.0" standalone="no"?>
<!DOCTYPE svg PUBLIC "-//W3C//DTD SVG 20010904//EN"
 "http://www.w3.org/TR/2001/REC-SVG-20010904/DTD/svg10.dtd">
<svg version="1.0" xmlns="http://www.w3.org/2000/svg"
 width="2644.000000pt" height="2800.000000pt" viewBox="0 0 2644.000000 2800.000000"
 preserveAspectRatio="xMidYMid meet">

<g transform="translate(0.000000,2800.000000) scale(0.100000,-0.100000)"
fill="#C5C3C1" stroke="none">
<path d="M17002 23837 l-52 -53 0 -801 c0 -792 0 -802 -21 -837 -19 -33 -20
-36 -3 -61 16 -25 16 -28 0 -56 -18 -30 -13 -53 18 -79 25 -20 19 -62 -19
-120 -23 -35 -35 -66 -35 -89 0 -20 -9 -46 -24 -65 -63 -83 -72 -152 -32 -228
17 -33 21 -49 14 -62 -15 -27 -11 -101 7 -136 9 -18 35 -52 57 -76 50 -54 62
-112 31 -147 -32 -36 -35 -45 -18 -77 14 -27 14 -32 -1 -55 -15 -23 -15 -27 5
-60 21 -36 21 -41 21 -792 l0 -755 -21 -30 c-21 -29 -21 -31 -5 -60 16 -27 17
-31 1 -54 -18 -28 -14 -53 15 -79 29 -26 24 -64 -15 -119 -27 -38 -35 -59 -35
-92 0 -30 -7 -51 -24 -71 -62 -74 -71 -141 -31 -217 19 -37 23 -51 15 -72 -19
-50 -12 -108 18 -150 16 -21 36 -45 46 -53 43 -36 61 -126 30 -151 -30 -26
-35 -48 -19 -80 14 -27 14 -32 -1 -55 -15 -23 -15 -27 5 -60 l21 -36 0 -1334
c0 -1136 -2 -1336 -14 -1348 -8 -8 -28 -20 -45 -27 -35 -14 -38 -22 -16 -40
29 -24 14 -75 -29 -98 -12 -6 -21 -23 -23 -45 l-3 -36 109 -3 c60 -2 153 -2
205 0 l96 3 0 39 c0 27 -4 40 -13 40 -19 0 -57 43 -57 63 0 9 9 26 20 37 25
25 25 27 -3 34 -13 3 -36 15 -50 27 l-27 20 0 1340 c0 736 4 1339 8 1339 5 0
15 11 22 24 10 21 11 31 0 56 -10 25 -10 35 0 55 10 19 10 30 0 54 -7 17 -16
31 -21 31 -5 0 -9 25 -9 55 0 52 3 57 55 116 65 73 76 109 47 166 l-21 39 30
46 c49 75 48 102 -5 179 -38 57 -44 72 -39 101 6 38 -12 81 -46 112 -27 25
-28 79 -1 108 22 24 26 58 8 76 -9 9 -8 21 2 51 11 36 11 42 -9 69 -21 30 -21
31 -21 782 0 737 0 752 20 777 23 29 25 54 8 71 -9 9 -9 20 1 48 11 30 11 41
0 60 -7 13 -16 24 -21 24 -4 0 -8 26 -8 59 0 57 2 60 55 120 67 75 74 97 47
159 l-21 47 21 35 c60 99 59 112 -3 196 -37 50 -40 58 -34 98 6 40 4 47 -29
84 -43 47 -49 99 -16 134 21 23 26 53 10 63 -5 3 -10 17 -10 30 0 13 5 27 10
30 16 10 11 38 -10 65 -19 24 -20 47 -20 881 0 772 -2 857 -16 863 -25 10 -27
9 -82 -47z m68 -2152 c0 -13 -68 -81 -74 -74 -2 2 -13 20 -25 39 l-21 35 32
32 32 33 28 -27 c15 -15 28 -32 28 -38z m85 -85 c24 -46 18 -130 -9 -130 -7 0
-29 18 -50 39 l-38 39 33 41 c19 22 37 41 41 41 4 0 14 -13 23 -30z m-221 -14
l18 -34 -28 -36 c-15 -19 -32 -32 -36 -30 -18 11 1 134 21 134 3 0 15 -15 25
-34z m120 -135 l39 -39 -43 -41 c-42 -40 -44 -41 -64 -24 -34 29 -56 55 -56
67 0 14 61 76 75 76 6 0 28 -18 49 -39z m90 -139 c-10 -39 -33 -82 -44 -82 -6
0 -16 11 -22 25 -10 23 -8 29 22 60 37 38 53 37 44 -3z m-181 -63 c-8 -29 -19
-23 -37 21 -22 55 -20 58 13 26 19 -18 27 -34 24 -47z m71 -65 c7 -18 0 -34
-15 -34 -5 0 -9 11 -9 25 0 28 15 34 24 9z m20 -2360 l28 -36 -33 -34 -33 -34
-23 22 c-37 34 -38 56 -7 89 15 16 30 29 33 29 3 0 19 -16 35 -36z m-117 -123
l22 -38 -30 -37 c-35 -41 -49 -39 -49 7 0 38 18 107 28 107 4 0 17 -17 29 -39z
m222 8 c14 -40 14 -116 1 -124 -6 -4 -28 13 -49 37 l-39 43 27 37 c32 46 46
47 60 7z m-101 -142 l42 -43 -43 -42 -43 -42 -41 42 -42 43 35 43 c20 23 39
42 43 42 4 0 26 -19 49 -43z m87 -139 c-9 -39 -32 -88 -43 -88 -4 0 -13 9 -20
21 -14 22 -12 26 32 77 27 31 39 27 31 -10z m-180 -67 c-10 -31 -21 -26 -39
19 -24 60 -20 68 15 34 23 -24 29 -37 24 -53z m75 -71 c0 -25 -18 -36 -26 -16
-8 21 3 49 16 41 5 -3 10 -15 10 -25z"/>
</g>
</svg>
