<?xml version="1.0" standalone="no"?>
<!DOCTYPE svg PUBLIC "-//W3C//DTD SVG 20010904//EN"
 "http://www.w3.org/TR/2001/REC-SVG-20010904/DTD/svg10.dtd">
<svg version="1.0" xmlns="http://www.w3.org/2000/svg"
 width="3542.000000pt" height="3750.000000pt" viewBox="0 0 3542.000000 3750.000000"
 preserveAspectRatio="xMidYMid meet">

<g transform="translate(0.000000,3750.000000) scale(0.100000,-0.100000)"
fill="#C5C3C1" stroke="none">
<path d="M650 17641 l0 -809 -22 -6 c-13 -3 -83 -6 -156 -6 l-132 0 2 -4362 3
-4362 39 -9 c27 -7 69 -5 144 8 58 9 112 19 119 22 11 4 13 -122 13 -672 l0
-678 -24 -22 c-13 -12 -49 -32 -81 -45 -56 -23 -57 -23 -33 -36 14 -7 31 -26
37 -42 17 -42 -2 -77 -56 -103 l-44 -21 3 -56 c3 -63 -13 -52 153 -101 l70
-21 195 33 195 33 3 61 c3 59 2 61 -25 68 -74 18 -97 93 -43 139 l30 25 -46
20 c-26 12 -50 21 -55 21 -5 0 -18 9 -29 20 -20 20 -20 33 -20 718 l0 698 144
23 c79 13 148 26 154 30 17 10 29 8621 12 8631 -7 4 -79 5 -161 2 l-149 -5 0
807 0 806 -120 0 -120 0 0 -809z m350 -1741 l0 -770 -22 -5 c-13 -3 -113 -4
-223 -3 l-200 3 -3 763 c-1 419 -1 763 0 763 4 3 274 15 366 17 l82 2 0 -770z
m0 -1145 c0 -214 0 -215 -22 -220 -13 -3 -113 -4 -223 -3 l-200 3 -3 208 c-1
114 -1 208 0 208 5 3 274 15 366 17 l82 2 0 -215z m1 -1367 c3 -2638 2 -2740
-12 -2749 -19 -12 -426 -11 -434 1 -7 12 -7 3711 1 3719 5 6 187 15 362 19
l82 2 1 -992z m0 -2960 c3 -322 1 -400 -12 -409 -19 -12 -426 -12 -434 1 -7
12 -7 431 1 439 5 6 185 15 362 19 l82 2 1 -52z m0 -655 c1 -95 0 -1353 0
-1390 -1 -18 -7 -23 -28 -24 -16 0 -116 -15 -223 -33 -107 -18 -196 -32 -198
-31 -6 5 -2 1538 4 1544 5 6 185 15 362 19 l82 2 1 -87z"/>
</g>
</svg>
