<?xml version="1.0" standalone="no"?>
<!DOCTYPE svg PUBLIC "-//W3C//DTD SVG 20010904//EN"
 "http://www.w3.org/TR/2001/REC-SVG-20010904/DTD/svg10.dtd">
<svg version="1.0" xmlns="http://www.w3.org/2000/svg"
 width="3542.000000pt" height="3750.000000pt" viewBox="0 0 3542.000000 3750.000000"
 preserveAspectRatio="xMidYMid meet">

<g transform="translate(0.000000,3750.000000) scale(0.100000,-0.100000)"
fill="#C5C3C1" stroke="none">
<path d="M2142 17680 c1 -434 -1 -793 -5 -796 -3 -4 -70 -9 -147 -12 l-140 -5
0 -1491 c-1 -2089 -1 -2533 0 -4938 l0 -2127 38 -7 c22 -5 77 -1 137 9 55 10
106 17 113 17 9 0 12 -138 12 -655 0 -575 -2 -659 -15 -679 -9 -14 -41 -33
-76 -46 l-60 -23 30 -31 c17 -18 31 -41 31 -52 0 -30 -29 -64 -66 -80 -33 -14
-34 -16 -34 -72 l0 -57 110 -31 109 -31 188 32 188 31 3 62 c3 57 1 62 -18 62
-30 0 -80 53 -80 85 0 16 11 36 30 54 l30 27 -57 24 c-101 40 -93 -29 -93 742
l0 678 23 5 c12 2 78 14 146 25 69 12 128 23 132 26 4 2 7 1909 6 4237 l-2
4232 -150 -4 -150 -3 0 788 0 789 -117 3 -117 3 1 -791z m338 -1744 l0 -794
-102 -7 c-103 -7 -315 -1 -325 8 -5 6 -7 1557 -1 1562 2 2 91 8 198 13 107 5
203 10 213 10 16 2 17 -42 17 -792z m0 -1150 l0 -204 -102 -7 c-106 -7 -315
-1 -325 9 -6 6 -7 376 -1 381 2 2 91 8 198 13 107 5 203 10 213 10 16 2 17
-14 17 -202z m0 -2230 l0 -1874 -102 -7 c-97 -7 -315 -2 -324 7 -4 5 -6 3719
-2 3724 2 1 91 7 198 12 107 5 203 10 213 10 16 2 17 -93 17 -1872z m0 -2215
l0 -189 -102 -7 c-57 -4 -152 -5 -213 -2 l-110 5 -3 181 -2 181 62 1 c60 1
314 14 351 17 16 2 17 -13 17 -187z m0 -1050 c0 -667 -1 -710 -17 -715 -19 -6
-388 -66 -404 -66 -5 0 -9 288 -9 735 l0 735 63 1 c59 1 313 14 350 17 16 2
17 -38 17 -707z"/>
</g>
</svg>
