<?xml version="1.0" standalone="no"?>
<!DOCTYPE svg PUBLIC "-//W3C//DTD SVG 20010904//EN"
 "http://www.w3.org/TR/2001/REC-SVG-20010904/DTD/svg10.dtd">
<svg version="1.0" xmlns="http://www.w3.org/2000/svg"
 width="3542.000000pt" height="3750.000000pt" viewBox="0 0 3542.000000 3750.000000"
 preserveAspectRatio="xMidYMid meet">

<g transform="translate(0.000000,3750.000000) scale(0.100000,-0.100000)"
fill="#C5C3C1" stroke="none">
<path d="M25430 18122 l0 -609 -105 5 -105 5 0 -3251 0 -3252 23 -4 c12 -3 45
-8 72 -11 28 -3 65 -9 83 -12 l32 -5 0 -520 c0 -498 -3 -558 -29 -558 -5 0
-26 -7 -47 -16 -33 -14 -36 -17 -20 -26 44 -25 35 -88 -16 -110 -24 -11 -28
-18 -28 -55 0 -49 -13 -43 155 -67 98 -13 117 -13 185 0 41 9 85 18 98 20 19
4 22 11 22 49 0 31 -4 45 -14 45 -23 0 -66 40 -66 63 0 11 10 31 22 44 l21 23
-39 16 c-80 33 -74 -14 -74 555 l0 508 103 -2 102 -2 3 3273 3 3272 -55 1
c-31 1 -60 3 -66 4 -5 1 -28 3 -51 4 l-40 1 1 93 c1 50 1 325 1 610 l-1 517
-85 0 -85 0 0 -608z m220 -747 c6 -4 5 -1183 -1 -1189 -2 -2 -66 -6 -141 -9
l-138 -6 0 611 0 610 138 -7 c75 -4 139 -9 142 -10z m-2 -1330 c2 -2 4 -77 5
-167 l1 -163 -142 -3 -142 -3 0 169 c0 93 3 172 7 176 7 7 263 -2 271 -9z m1
-471 c3 -2 4 -536 3 -1187 -1 -650 -2 -1282 -2 -1404 l0 -223 -140 0 -140 0 0
1408 c0 775 3 1412 7 1416 8 7 264 -3 272 -10z m-42 -2944 l43 0 0 -149 0
-150 -136 -3 c-75 -2 -138 -1 -140 1 -7 8 -4 297 4 305 4 5 47 6 96 2 49 -3
109 -6 133 -6z m0 -430 l43 0 0 -550 c0 -434 -3 -550 -12 -550 -7 1 -69 9
-138 18 l-125 18 -3 524 c-1 289 0 531 3 539 4 11 23 13 97 7 50 -3 111 -6
135 -6z"/>
</g>
</svg>
