<?xml version="1.0" standalone="no"?>
<!DOCTYPE svg PUBLIC "-//W3C//DTD SVG 20010904//EN"
 "http://www.w3.org/TR/2001/REC-SVG-20010904/DTD/svg10.dtd">
<svg version="1.0" xmlns="http://www.w3.org/2000/svg"
 width="3542.000000pt" height="3750.000000pt" viewBox="0 0 3542.000000 3750.000000"
 preserveAspectRatio="xMidYMid meet">

<g transform="translate(0.000000,3750.000000) scale(0.100000,-0.100000)"
fill="#C5C3C1" stroke="none">
<path d="M6296 18523 c-3 -4 -6 -243 -6 -532 0 -289 0 -626 0 -748 l0 -223
-58 0 c-33 0 -92 -3 -133 -6 l-74 -7 2 -3226 c1 -1774 2 -3594 3 -4043 l0
-817 43 -6 c37 -6 95 0 200 21 l27 6 0 -626 c0 -710 8 -648 -87 -687 l-54 -22
25 -26 c15 -16 26 -39 26 -55 0 -31 -42 -76 -71 -76 -16 0 -19 -8 -19 -58 l0
-59 115 -27 116 -28 169 28 170 29 0 57 c0 52 -2 58 -21 58 -27 0 -79 53 -79
80 0 12 14 35 30 50 l30 28 -46 18 c-25 9 -56 26 -70 36 l-24 19 0 650 c0 512
3 649 13 649 20 0 240 40 245 44 2 2 6 1807 9 4011 l5 4008 -136 -7 -136 -7 0
751 0 750 -103 0 c-57 0 -107 -3 -111 -7z m294 -2392 l0 -748 -181 -7 c-99 -4
-184 -5 -187 -1 -4 4 -8 339 -10 746 l-2 739 27 1 c36 2 289 15 326 17 l27 2
0 -749z m0 -1085 l0 -193 -180 -7 c-98 -4 -184 -5 -189 -1 -13 8 -12 363 1
371 5 3 78 9 161 13 84 5 164 9 180 9 l27 2 0 -194z m0 -2080 l0 -1743 -180
-7 c-98 -4 -184 -5 -190 -1 -11 7 -10 3459 2 3470 4 4 75 10 160 14 84 5 165
9 181 9 l27 2 0 -1744z m0 -2085 l0 -198 -180 -7 c-98 -4 -184 -5 -190 -1 -6
4 -10 76 -10 196 l0 189 28 1 c35 2 289 15 325 17 l27 2 0 -199z m0 -1025 c0
-643 -1 -685 -17 -690 -28 -8 -320 -56 -343 -56 -20 0 -20 6 -20 705 l0 705
28 1 c35 2 289 15 325 17 l27 2 0 -684z"/>
</g>
</svg>
