<?xml version="1.0" standalone="no"?>
<!DOCTYPE svg PUBLIC "-//W3C//DTD SVG 20010904//EN"
 "http://www.w3.org/TR/2001/REC-SVG-20010904/DTD/svg10.dtd">
<svg version="1.0" xmlns="http://www.w3.org/2000/svg"
 width="3542.000000pt" height="3750.000000pt" viewBox="0 0 3542.000000 3750.000000"
 preserveAspectRatio="xMidYMid meet">

<g transform="translate(0.000000,3750.000000) scale(0.100000,-0.100000)"
fill="#C5C3C1" stroke="none">
<path d="M11231 18590 l-54 -5 0 -693 c0 -381 -2 -694 -6 -696 -3 -2 -49 -5
-101 -7 -52 -1 -105 -4 -117 -7 l-23 -4 0 -3768 0 -3769 44 -6 c24 -4 75 -2
114 4 39 6 76 11 81 11 17 0 14 -1160 -2 -1181 -7 -8 -35 -26 -64 -39 l-52
-23 24 -23 c44 -41 23 -104 -40 -120 -23 -6 -25 -11 -25 -58 l0 -51 78 -17
c139 -31 156 -32 307 -7 l145 23 0 53 c0 48 -2 53 -25 59 -27 7 -65 48 -65 71
0 8 13 27 29 43 l28 29 -54 22 c-29 12 -58 30 -63 40 -6 11 -10 251 -10 616
l0 599 118 19 117 20 3 3738 2 3737 -22 1 c-13 1 -67 0 -120 -1 l-98 -2 0 701
0 701 -47 -2 c-27 -2 -72 -5 -102 -8z m209 -2224 l0 -683 -37 -7 c-21 -3 -95
-6 -165 -6 l-128 0 0 684 0 685 48 4 c26 2 100 4 165 5 l117 2 0 -684z m0
-1010 l0 -173 -37 -7 c-21 -3 -95 -6 -165 -6 l-128 0 0 174 0 175 48 4 c26 2
100 4 165 5 l117 2 0 -174z m0 -1950 l0 -1623 -37 -7 c-21 -3 -95 -6 -165 -6
l-128 0 2 1625 2 1624 46 4 c25 2 98 4 163 5 l117 2 0 -1624z m0 -1940 l0
-163 -37 -7 c-21 -3 -95 -6 -165 -6 l-128 0 0 164 0 165 48 4 c26 2 100 4 165
5 l117 2 0 -164z m0 -961 c0 -355 -3 -645 -7 -645 -5 0 -73 -11 -153 -25 -80
-14 -151 -25 -157 -25 -10 0 -13 140 -13 664 l0 665 48 4 c26 2 100 4 165 5
l117 2 0 -645z"/>
</g>
</svg>
