<?xml version="1.0" standalone="no"?>
<!DOCTYPE svg PUBLIC "-//W3C//DTD SVG 20010904//EN"
 "http://www.w3.org/TR/2001/REC-SVG-20010904/DTD/svg10.dtd">
<svg version="1.0" xmlns="http://www.w3.org/2000/svg"
 width="2550.000000pt" height="2700.000000pt" viewBox="0 0 2550.000000 2700.000000"
 preserveAspectRatio="xMidYMid meet">

<g transform="translate(0.000000,2700.000000) scale(0.100000,-0.100000)"
fill="#C5C3C1" stroke="none">
<path d="M10305 14120 c-4 -6 -6 -106 -5 -223 1 -116 2 -783 2 -1482 0 -1097
-2 -1289 -16 -1410 -17 -150 -42 -296 -75 -438 -33 -139 -26 -171 45 -209 35
-18 44 -28 44 -50 0 -23 -5 -28 -35 -34 -19 -3 -35 -8 -35 -10 0 -1 10 -19 22
-39 20 -36 20 -38 4 -66 -17 -28 -17 -29 4 -29 13 0 19 -4 14 -11 -4 -7 -22
-9 -45 -6 -39 5 -48 0 -29 -19 7 -7 1 -9 -20 -6 -21 3 -30 0 -30 -9 0 -15 40
-55 82 -81 38 -25 44 -54 19 -89 -12 -15 -21 -30 -21 -33 0 -2 16 -13 35 -25
51 -30 49 -66 -5 -87 -43 -17 -70 -55 -70 -98 0 -13 13 -82 29 -153 85 -370
82 -265 81 -2384 0 -1027 -3 -1874 -6 -1882 -3 -8 -23 -22 -44 -32 l-39 -17
21 -29 c20 -27 20 -29 3 -55 -9 -14 -26 -29 -36 -31 -15 -4 -19 -14 -19 -47 0
-36 6 -45 40 -74 l40 -33 145 17 145 17 0 39 c0 31 -6 44 -30 65 -33 27 -39
63 -15 83 20 17 19 27 -4 35 -10 3 -31 17 -45 32 l-26 26 0 1866 c0 1790 1
1873 20 2031 18 151 45 306 83 465 21 91 -2 146 -67 163 -24 6 -32 15 -34 35
-3 27 -2 28 66 52 10 4 7 13 -12 36 -14 17 -26 36 -26 43 0 17 35 53 60 61 11
3 20 10 20 14 0 4 11 13 25 19 34 16 32 26 -16 59 -58 39 -89 69 -89 87 0 8
12 28 26 45 l26 32 -41 17 c-37 15 -41 20 -39 47 2 22 9 31 25 33 13 2 36 17
53 33 37 37 39 72 9 196 -26 113 -45 211 -66 348 -15 99 -17 265 -20 1658 l-4
1547 -59 0 c-32 0 -62 -5 -65 -10z"/>
</g>
</svg>
