<?xml version="1.0" standalone="no"?>
<!DOCTYPE svg PUBLIC "-//W3C//DTD SVG 20010904//EN"
 "http://www.w3.org/TR/2001/REC-SVG-20010904/DTD/svg10.dtd">
<svg version="1.0" xmlns="http://www.w3.org/2000/svg"
 width="2550.000000pt" height="2700.000000pt" viewBox="0 0 2550.000000 2700.000000"
 preserveAspectRatio="xMidYMid meet">

<g transform="translate(0.000000,2700.000000) scale(0.100000,-0.100000)"
fill="#C5C3C1" stroke="none">
<path d="M15472 19777 l-42 -42 0 -1160 c0 -1343 -1 -1375 -85 -1732 -26 -109
-26 -113 -9 -149 12 -26 29 -42 56 -53 46 -19 48 -35 8 -56 -32 -16 -38 -32
-17 -41 7 -2 14 -19 15 -37 2 -28 -4 -39 -38 -67 -40 -34 -52 -71 -28 -86 7
-4 8 -3 4 4 -4 8 -2 10 8 6 8 -3 12 -12 10 -19 -3 -8 5 -18 18 -25 22 -11 22
-10 4 4 -11 9 -15 16 -9 16 31 0 42 -69 17 -107 -16 -25 -16 -27 2 -40 10 -7
24 -13 31 -13 22 0 15 -38 -9 -45 -32 -10 -75 -53 -82 -81 -4 -13 0 -50 8 -82
77 -298 95 -504 96 -1083 1 -254 -1 -463 -3 -465 -5 -6 2 -183 8 -214 4 -16 3
-20 -3 -12 -6 9 -9 -7 -8 -41 0 -31 3 -54 6 -52 3 2 6 -5 6 -15 0 -10 -3 -17
-6 -15 -3 2 -5 -41 -6 -96 -1 -54 3 -96 7 -93 5 3 7 -1 4 -8 -8 -25 -14 -119
-7 -114 4 2 7 -31 7 -74 0 -43 -3 -73 -7 -68 -3 6 -6 -5 -5 -25 0 -20 4 -34 7
-32 3 2 6 -5 6 -15 0 -10 -3 -17 -7 -14 -4 2 -3 -12 1 -31 4 -19 5 -33 1 -31
-3 2 -6 -18 -6 -44 0 -26 4 -46 9 -42 5 3 6 -1 1 -9 -14 -21 -15 -122 -2 -138
9 -12 9 -13 0 -7 -9 5 -13 0 -13 -14 0 -12 3 -19 8 -17 4 3 8 -6 9 -20 1 -18
-2 -22 -7 -13 -5 8 -7 -39 -5 -103 2 -64 7 -122 11 -128 4 -7 3 -9 -3 -6 -6 4
-14 0 -17 -9 -4 -10 -2 -13 6 -8 7 5 8 3 4 -5 -5 -7 -15 -10 -23 -7 -8 3 -12
2 -9 -3 3 -5 -2 -15 -11 -22 -15 -12 -16 -12 -10 4 4 11 3 16 -3 12 -12 -8
-13 -35 -1 -35 5 0 11 -16 13 -35 3 -25 -1 -40 -14 -52 -10 -9 -18 -13 -18 -8
0 4 8 14 18 22 15 13 15 13 -5 3 -19 -9 -23 -19 -23 -60 l0 -50 145 0 145 0 0
50 c0 38 -4 52 -19 59 -27 15 -34 41 -16 61 12 13 12 19 2 30 -9 10 -9 11 1 6
6 -4 12 -2 12 3 0 6 -6 11 -13 11 -7 0 -22 8 -33 18 -19 18 -19 40 -19 1308 1
1269 1 1291 22 1414 30 173 63 323 74 335 5 5 9 28 9 51 0 32 -7 48 -30 73
-17 17 -35 32 -40 32 -6 1 -16 2 -22 3 -7 0 -14 10 -16 21 -2 15 6 23 28 32
33 12 39 33 15 53 -17 14 -20 56 -5 65 6 4 7 11 4 17 -4 7 -2 8 5 4 14 -9 43
12 35 25 -3 5 0 8 6 7 7 -2 16 7 20 19 9 23 -17 60 -58 82 -26 14 -28 47 -6
79 18 26 5 52 -27 52 -34 0 -22 35 16 49 19 6 44 26 56 42 25 36 23 68 -15
215 -14 56 -36 161 -48 235 -22 132 -22 150 -25 1412 -3 987 -7 1277 -16 1277
-7 -1 -31 -20 -55 -43z m-35 -5749 c-3 -8 -6 -5 -6 6 -1 11 2 17 5 13 3 -3 4
-12 1 -19z m138 -1128 c3 -6 -1 -7 -9 -4 -18 7 -21 14 -7 14 6 0 13 -4 16 -10z"/>
<path d="M14622 18957 l-52 -53 0 -137 0 -137 65 0 65 0 0 190 c0 148 -3 190
-13 190 -7 0 -36 -24 -65 -53z"/>
</g>
</svg>
