<?xml version="1.0" standalone="no"?>
<!DOCTYPE svg PUBLIC "-//W3C//DTD SVG 20010904//EN"
 "http://www.w3.org/TR/2001/REC-SVG-20010904/DTD/svg10.dtd">
<svg version="1.0" xmlns="http://www.w3.org/2000/svg"
 width="2550.000000pt" height="2700.000000pt" viewBox="0 0 2550.000000 2700.000000"
 preserveAspectRatio="xMidYMid meet">

<g transform="translate(0.000000,2700.000000) scale(0.100000,-0.100000)"
fill="#C5C3C1" stroke="none">
<path d="M16423 20642 l-53 -47 -3 -1255 c-3 -1228 -3 -1258 -24 -1375 -31
-173 -61 -307 -73 -319 -22 -22 -11 -70 23 -101 18 -16 24 -23 13 -15 -21 15
-21 15 -1 -8 11 -14 26 -21 37 -19 10 3 16 1 12 -4 -3 -5 0 -9 5 -9 19 0 12
-22 -15 -42 -14 -12 -21 -24 -16 -27 16 -11 32 -49 26 -65 -3 -8 -26 -32 -51
-52 l-44 -36 25 -27 c26 -27 35 -48 16 -36 -6 3 -7 -1 -4 -9 3 -9 10 -16 16
-16 5 0 6 5 2 11 -4 7 -1 10 7 7 8 -3 13 -11 12 -17 -2 -6 2 -10 8 -8 6 1 14
-4 17 -12 3 -8 0 -11 -7 -7 -7 4 -9 2 -5 -8 3 -8 0 -25 -7 -38 -20 -37 -19
-48 7 -60 27 -13 33 -48 7 -48 -9 0 -34 -18 -55 -41 -31 -33 -39 -47 -36 -73
2 -17 8 -30 14 -29 7 1 9 -8 6 -24 -4 -20 -2 -24 8 -18 9 5 11 4 6 -3 -8 -13
13 -134 23 -128 3 2 6 -12 7 -32 1 -21 9 -84 20 -142 17 -99 19 -208 24 -1848
4 -1580 4 -1745 -11 -1758 -18 -17 -33 -19 -23 -3 4 8 0 8 -15 0 -11 -7 -21
-17 -20 -24 0 -9 2 -9 6 1 9 23 18 12 21 -26 2 -30 -3 -43 -23 -62 -15 -14
-25 -35 -25 -51 0 -59 0 -59 156 -59 l144 0 0 51 c0 42 -3 50 -16 45 -8 -3
-12 -2 -9 4 3 6 2 10 -4 10 -19 0 -22 39 -5 65 19 30 10 47 -27 50 -13 1 -24
10 -27 21 -6 31 -8 1889 -1 2719 5 721 6 767 27 889 27 157 61 308 73 321 31
32 -9 116 -68 140 -27 11 -34 19 -31 37 2 16 9 22 21 20 25 -4 32 23 14 60
-16 34 -8 68 16 68 17 0 57 54 57 77 0 17 -45 63 -62 63 -18 0 -26 45 -12 72
19 38 18 47 -11 60 -26 12 -34 38 -12 38 8 0 7 4 -3 11 -12 9 -12 10 3 5 26
-8 52 8 76 49 22 38 27 75 12 91 -9 10 -50 194 -78 354 -15 85 -17 237 -20
1393 -2 713 -7 1297 -11 1297 -4 0 -31 -22 -59 -48z m145 -3432 c-7 -11 -17
-20 -22 -20 -5 0 -1 9 9 20 10 11 20 20 22 20 2 0 -2 -9 -9 -20z m-208 -150
c8 -5 11 -10 5 -10 -5 0 -17 5 -25 10 -8 5 -10 10 -5 10 6 0 17 -5 25 -10z
m-37 -4277 c-16 -11 -23 -26 -25 -52 l-1 -36 -4 34 c-3 24 1 39 18 57 12 13
25 21 28 18 3 -3 -4 -13 -16 -21z"/>
</g>
</svg>
