<?xml version="1.0" standalone="no"?>
<!DOCTYPE svg PUBLIC "-//W3C//DTD SVG 20010904//EN"
 "http://www.w3.org/TR/2001/REC-SVG-20010904/DTD/svg10.dtd">
<svg version="1.0" xmlns="http://www.w3.org/2000/svg"
 width="2550.000000pt" height="2700.000000pt" viewBox="0 0 2550.000000 2700.000000"
 preserveAspectRatio="xMidYMid meet">

<g transform="translate(0.000000,2700.000000) scale(0.100000,-0.100000)"
fill="#C5C3C1" stroke="none">
<path d="M20726 25158 c-26 -27 -46 -60 -46 -72 0 -11 -1 -597 -3 -1301 -3
-1401 1 -1281 -64 -1647 -30 -168 -27 -189 33 -214 29 -12 35 -19 32 -41 -2
-19 -11 -29 -33 -36 -40 -13 -40 -11 -15 -45 28 -38 19 -69 -26 -88 -19 -8
-34 -19 -34 -24 0 -6 -7 -10 -15 -10 -9 0 -18 -7 -22 -16 -6 -17 23 -47 64
-64 12 -5 30 -21 39 -35 16 -25 16 -27 -5 -55 -11 -16 -21 -32 -21 -34 0 -3
16 -12 35 -20 45 -19 49 -58 8 -78 -16 -7 -37 -29 -47 -49 l-20 -36 27 -139
c14 -77 29 -161 32 -189 4 -27 8 -61 10 -75 21 -131 25 -367 25 -1527 l0
-1282 -26 -20 c-15 -12 -35 -21 -46 -21 -18 0 -17 -2 3 -29 21 -28 21 -31 6
-55 -9 -13 -26 -27 -37 -31 -13 -4 -20 -15 -20 -32 0 -23 3 -25 33 -20 17 3
101 9 185 13 84 4 155 10 157 15 3 4 -8 16 -25 25 -38 23 -46 48 -26 79 9 13
16 27 16 29 0 3 -23 8 -50 12 -28 4 -53 11 -56 16 -4 6 1 8 12 4 19 -6 19 29
19 1357 0 1497 -3 1400 62 1738 30 157 26 184 -33 212 -27 13 -34 22 -34 46 0
25 5 30 35 35 36 7 45 20 21 29 -7 3 -16 17 -20 32 -9 34 15 72 49 81 14 3 25
10 25 14 0 4 9 10 20 13 11 3 20 13 20 22 0 9 -9 19 -20 22 -11 3 -20 9 -20
14 0 4 -16 16 -35 25 -20 9 -38 26 -41 39 -6 25 10 65 26 65 23 0 7 20 -24 31
-22 8 -36 20 -39 35 -5 28 1 36 36 52 15 6 35 27 44 47 14 30 15 43 4 97 -86
438 -85 397 -85 1845 l-1 1272 -22 10 c-19 9 -28 4 -67 -41z"/>
</g>
</svg>
