<?xml version="1.0" standalone="no"?>
<!DOCTYPE svg PUBLIC "-//W3C//DTD SVG 20010904//EN"
 "http://www.w3.org/TR/2001/REC-SVG-20010904/DTD/svg10.dtd">
<svg version="1.0" xmlns="http://www.w3.org/2000/svg"
 width="2550.000000pt" height="2700.000000pt" viewBox="0 0 2550.000000 2700.000000"
 preserveAspectRatio="xMidYMid meet">

<g transform="translate(0.000000,2700.000000) scale(0.100000,-0.100000)"
fill="#C5C3C1" stroke="none">
<path d="M22249 26993 c0 -4 0 -503 1 -1108 1 -1253 -4 -1370 -71 -1724 -32
-165 -28 -192 29 -219 28 -13 37 -23 37 -41 0 -20 -7 -27 -35 -34 -19 -5 -37
-10 -38 -12 -2 -2 6 -17 18 -33 30 -40 21 -78 -23 -98 -40 -18 -70 -36 -79
-48 -9 -13 1 -33 20 -40 51 -19 102 -62 102 -86 0 -10 -9 -29 -20 -43 -26 -32
-25 -33 7 -42 62 -15 70 -53 19 -84 -65 -41 -68 -74 -22 -326 50 -282 49 -242
53 -1689 4 -1507 8 -1407 -57 -1421 -35 -8 -35 -8 -14 -40 20 -31 11 -61 -27
-80 -16 -9 -29 -23 -29 -32 0 -17 3 -17 269 10 115 12 115 12 88 30 -31 20
-35 52 -11 78 16 17 15 19 -10 29 -15 5 -37 10 -49 10 -12 0 -29 5 -37 11 -12
8 -11 9 5 5 20 -6 20 -2 17 1332 -3 1430 -1 1475 48 1762 11 63 25 145 31 182
15 88 8 113 -42 138 -34 18 -40 25 -37 47 2 21 10 29 38 36 45 11 45 12 21 36
-12 12 -21 32 -21 46 0 24 34 65 54 65 6 0 26 13 45 29 l35 29 -31 16 c-17 8
-33 19 -35 23 -1 5 -16 15 -33 23 -39 20 -46 63 -14 96 l22 23 -29 11 c-16 6
-35 13 -41 15 -27 9 -13 51 27 83 55 45 58 75 26 235 -61 305 -59 253 -63
1583 l-4 1220 -69 2 c-39 2 -70 -1 -71 -5z"/>
</g>
</svg>
