<?xml version="1.0" standalone="no"?>
<!DOCTYPE svg PUBLIC "-//W3C//DTD SVG 20010904//EN"
 "http://www.w3.org/TR/2001/REC-SVG-20010904/DTD/svg10.dtd">
<svg version="1.0" xmlns="http://www.w3.org/2000/svg"
 width="2550.000000pt" height="2700.000000pt" viewBox="0 0 2550.000000 2700.000000"
 preserveAspectRatio="xMidYMid meet">

<g transform="translate(0.000000,2700.000000) scale(0.100000,-0.100000)"
fill="#C5C3C1" stroke="none">
<path d="M23956 26988 c-3 -7 -7 -74 -10 -148 -7 -137 -45 -434 -71 -548 -22
-95 -20 -138 10 -167 13 -14 33 -25 45 -25 15 0 20 -6 20 -28 0 -25 -6 -31
-40 -42 -36 -12 -54 -30 -30 -30 5 0 16 -14 25 -30 20 -39 7 -66 -41 -86 -19
-8 -34 -18 -34 -22 0 -4 -10 -12 -22 -17 -13 -6 -23 -15 -23 -22 0 -6 29 -31
65 -55 36 -24 66 -50 68 -59 2 -9 -9 -30 -23 -47 l-26 -32 40 -16 c35 -14 41
-21 41 -45 0 -22 -7 -32 -25 -41 -34 -15 -65 -68 -65 -109 0 -19 11 -86 24
-149 14 -63 27 -137 31 -165 3 -27 11 -77 17 -110 11 -63 24 -2938 13 -2982
-3 -15 -18 -26 -45 -34 -45 -14 -46 -15 -25 -35 31 -31 5 -89 -47 -106 -6 -2
-9 -9 -5 -15 4 -7 29 -6 79 2 40 7 119 18 175 25 101 13 101 13 92 37 -9 25 3
63 21 63 6 0 10 4 10 8 0 5 -26 15 -57 22 -61 14 -91 30 -57 30 19 0 19 17 16
1337 -3 1569 -6 1513 84 2019 17 95 17 103 1 127 -9 14 -33 33 -52 43 -51 24
-49 59 5 75 22 7 40 14 40 16 0 2 -10 17 -21 33 -29 38 -19 76 24 96 70 33 87
46 87 65 0 10 -6 19 -14 19 -8 0 -22 8 -31 17 -10 9 -31 24 -49 34 -39 20 -45
53 -16 91 12 16 20 30 18 32 -1 1 -20 9 -40 19 -46 20 -54 62 -14 77 31 12 64
55 72 95 3 18 -3 72 -15 126 -32 148 -59 340 -72 509 l-12 155 -69 3 c-49 2
-70 -1 -72 -10z"/>
</g>
</svg>
