<?xml version="1.0" standalone="no"?>
<!DOCTYPE svg PUBLIC "-//W3C//DTD SVG 20010904//EN"
 "http://www.w3.org/TR/2001/REC-SVG-20010904/DTD/svg10.dtd">
<svg version="1.0" xmlns="http://www.w3.org/2000/svg"
 width="2550.000000pt" height="2700.000000pt" viewBox="0 0 2550.000000 2700.000000"
 preserveAspectRatio="xMidYMid meet">

<g transform="translate(0.000000,2700.000000) scale(0.100000,-0.100000)"
fill="#C5C3C1" stroke="none">
<path d="M11190 15454 l-65 -73 -5 -1193 c-6 -1288 -4 -1236 -61 -1537 -35
-179 -35 -202 -5 -233 14 -16 34 -28 46 -28 16 0 20 -6 20 -35 0 -24 -5 -35
-14 -35 -8 0 -27 -5 -41 -10 l-27 -10 26 -30 c30 -37 24 -67 -20 -90 -15 -8
-33 -19 -39 -23 -5 -4 -19 -14 -30 -22 l-20 -15 20 -15 c11 -8 25 -18 31 -23
6 -5 20 -13 31 -16 12 -4 28 -18 37 -31 15 -23 15 -28 1 -55 -9 -17 -21 -30
-28 -30 -22 -1 26 -30 50 -30 20 0 23 -5 23 -35 0 -25 -4 -35 -16 -35 -9 0
-29 -14 -45 -31 -36 -39 -37 -61 -4 -225 62 -314 60 -226 60 -2184 l0 -1785
-40 -20 c-40 -20 -40 -21 -26 -47 19 -33 3 -74 -32 -87 -19 -8 -23 -15 -19
-43 4 -33 5 -34 81 -51 70 -16 85 -16 176 -2 55 8 106 15 113 15 7 0 12 15 12
40 0 27 -4 40 -13 40 -19 0 -47 33 -47 55 0 10 7 27 17 37 9 10 14 19 12 21
-2 1 -22 11 -44 22 l-40 20 0 1785 c0 1432 3 1808 13 1900 16 134 48 333 62
381 22 76 0 138 -56 159 -33 13 -35 70 -3 70 11 0 29 5 39 10 18 10 18 11 -6
35 -13 13 -24 30 -24 38 0 14 40 57 54 57 12 0 76 52 76 61 0 5 -11 14 -25 19
-14 5 -25 14 -25 20 0 5 -7 10 -15 10 -17 0 -65 43 -65 59 0 5 12 23 26 40
l26 31 -27 10 c-14 5 -33 10 -41 10 -9 0 -14 11 -14 30 0 22 6 33 23 39 29 11
54 40 62 72 4 15 -5 82 -19 155 -61 303 -59 248 -65 1635 l-6 1277 -65 -74z"/>
</g>
</svg>
