<?xml version="1.0" standalone="no"?>
<!DOCTYPE svg PUBLIC "-//W3C//DTD SVG 20010904//EN"
 "http://www.w3.org/TR/2001/REC-SVG-20010904/DTD/svg10.dtd">
<svg version="1.0" xmlns="http://www.w3.org/2000/svg"
 width="3542.000000pt" height="3750.000000pt" viewBox="0 0 3542.000000 3750.000000"
 preserveAspectRatio="xMidYMid meet">

<g transform="translate(0.000000,3750.000000) scale(0.100000,-0.100000)"
fill="#C5C3C1" stroke="none">
<path d="M30830 16616 l0 -2055 -25 -27 c-29 -31 -31 -51 -9 -83 16 -22 16
-25 0 -51 -22 -38 -20 -52 9 -84 34 -37 33 -86 -2 -133 -20 -26 -27 -47 -28
-82 -1 -41 -8 -56 -48 -105 -68 -84 -71 -123 -14 -213 l25 -39 -24 -44 c-40
-77 -31 -115 50 -209 44 -52 53 -75 63 -163 4 -41 1 -51 -21 -75 -30 -33 -32
-45 -9 -83 15 -27 15 -30 0 -54 -23 -34 -21 -48 8 -80 l25 -27 0 -1904 c0
-1668 -2 -1905 -15 -1918 -8 -9 -35 -23 -60 -32 l-45 -18 25 -23 c41 -38 26
-89 -35 -114 -27 -11 -30 -17 -30 -55 0 -50 -15 -45 181 -71 119 -16 131 -16
205 0 121 27 114 22 114 72 0 40 -3 45 -34 58 -46 19 -61 49 -46 86 7 16 19
31 28 35 12 4 5 11 -28 26 -25 11 -53 27 -62 36 -17 15 -18 112 -18 1915 l0
1900 25 32 c30 39 30 49 8 87 -16 26 -16 29 0 47 24 26 21 55 -8 86 -47 50
-30 141 40 217 76 82 93 145 60 226 -14 36 -14 41 10 87 41 80 29 147 -39 230
-22 27 -35 57 -40 87 -4 25 -18 61 -31 80 -34 45 -33 99 0 135 29 31 31 51 9
83 -16 22 -16 25 0 51 22 38 20 52 -9 84 l-25 27 0 2048 0 2048 -52 7 c-29 3
-70 6 -90 6 l-38 0 0 -2054z m136 -2537 l29 -30 -21 -37 c-29 -49 -45 -50 -78
-7 l-27 35 27 35 c14 19 29 35 33 35 4 0 20 -14 37 -31z m-126 -131 c16 -18
30 -38 30 -43 0 -18 -87 -98 -99 -91 -26 17 0 166 29 166 5 0 24 -15 40 -32z
m226 -3 c7 -19 14 -58 14 -87 l0 -53 -40 45 c-21 25 -39 48 -40 52 0 7 43 77
48 78 2 0 10 -16 18 -35z m-77 -150 c22 -24 41 -51 41 -59 0 -7 -21 -30 -46
-51 l-45 -38 -37 34 c-20 19 -42 40 -50 47 -13 12 -8 20 34 63 26 27 51 49 55
49 3 0 25 -20 48 -45z m-119 -210 c0 -5 -11 -23 -24 -40 l-24 -29 -20 33 c-23
38 -37 104 -27 122 8 12 95 -67 95 -86z m195 28 c-8 -42 -32 -93 -43 -93 -5 0
-13 12 -18 28 -9 23 -6 32 20 64 40 47 50 47 41 1z m-114 -127 c8 -17 8 -29 0
-45 -14 -26 -23 -26 -45 -2 -17 18 -17 21 -1 45 21 32 32 33 46 2z"/>
</g>
</svg>
