<?xml version="1.0" standalone="no"?>
<!DOCTYPE svg PUBLIC "-//W3C//DTD SVG 20010904//EN"
 "http://www.w3.org/TR/2001/REC-SVG-20010904/DTD/svg10.dtd">
<svg version="1.0" xmlns="http://www.w3.org/2000/svg"
 width="3542.000000pt" height="3750.000000pt" viewBox="0 0 3542.000000 3750.000000"
 preserveAspectRatio="xMidYMid meet">

<g transform="translate(0.000000,3750.000000) scale(0.100000,-0.100000)"
fill="#C5C3C1" stroke="none">
<path d="M33230 16524 l0 -2115 -25 -33 c-29 -38 -31 -57 -9 -91 15 -23 15
-27 0 -50 -22 -34 -20 -58 9 -89 35 -38 33 -90 -5 -136 -25 -28 -30 -43 -30
-84 0 -41 -6 -56 -34 -90 -49 -60 -76 -108 -76 -135 0 -13 16 -52 35 -87 l35
-62 -26 -57 c-23 -50 -25 -62 -15 -94 6 -20 35 -64 64 -98 79 -92 101 -197 52
-249 -29 -31 -31 -55 -9 -89 15 -23 15 -27 0 -50 -22 -34 -20 -58 9 -89 l25
-27 0 -1961 0 -1961 -25 -22 c-13 -13 -40 -28 -60 -35 -40 -13 -43 -20 -15
-38 31 -19 27 -75 -6 -101 -15 -12 -33 -21 -40 -21 -10 0 -14 -14 -14 -49 0
-56 -19 -49 192 -77 l128 -18 95 24 95 24 0 47 c0 41 -3 48 -25 53 -33 8 -65
44 -65 73 0 13 11 33 25 45 l25 22 -51 22 c-29 11 -56 29 -62 39 -6 12 -9 694
-8 1978 l1 1960 27 35 c26 35 26 35 8 68 -17 33 -18 35 0 67 17 33 17 35 -1
65 -10 18 -24 32 -31 32 -17 0 -17 65 -1 111 6 19 31 56 55 83 82 92 100 154
67 235 -15 38 -15 41 10 88 44 82 32 161 -39 247 -21 25 -35 54 -35 70 0 33
-23 88 -50 123 -20 26 -29 103 -11 103 5 0 20 14 32 32 22 30 22 32 6 60 -21
37 -21 57 0 80 16 18 16 21 -2 54 -10 18 -22 34 -27 34 -4 0 -8 956 -8 2125
l0 2125 -95 0 -95 0 0 -2116z m140 -2629 l33 -34 -28 -41 c-15 -22 -31 -40
-36 -40 -10 0 -69 72 -69 84 0 11 50 66 60 66 3 0 21 -16 40 -35z m-132 -135
c17 -21 32 -42 32 -47 0 -11 -87 -93 -99 -93 -10 0 -21 35 -21 70 0 29 35 110
47 110 4 0 23 -18 41 -40z m252 -90 l0 -55 -44 49 -43 50 26 42 26 43 17 -37
c10 -21 18 -61 18 -92z m-97 -68 c30 -31 45 -54 41 -63 -3 -8 -26 -32 -51 -53
l-44 -40 -52 52 -52 52 50 50 c27 27 52 50 55 50 3 0 27 -22 53 -48z m-165
-165 c23 -23 42 -47 42 -52 -1 -6 -11 -23 -24 -38 l-23 -28 -15 23 c-30 47
-50 138 -30 138 4 0 27 -19 50 -43z m223 -72 c-22 -49 -35 -52 -45 -9 -6 22
-1 33 26 61 30 31 33 32 36 14 2 -11 -6 -41 -17 -66z m-91 -100 c0 -6 -6 -20
-14 -31 -15 -19 -15 -19 -36 2 l-21 20 22 28 c21 27 23 27 36 10 7 -10 13 -23
13 -29z"/>
</g>
</svg>
