<?xml version="1.0" standalone="no"?>
<!DOCTYPE svg PUBLIC "-//W3C//DTD SVG 20010904//EN"
 "http://www.w3.org/TR/2001/REC-SVG-20010904/DTD/svg10.dtd">
<svg version="1.0" xmlns="http://www.w3.org/2000/svg"
 width="3542.000000pt" height="3750.000000pt" viewBox="0 0 3542.000000 3750.000000"
 preserveAspectRatio="xMidYMid meet">

<g transform="translate(0.000000,3750.000000) scale(0.100000,-0.100000)"
fill="#C5C3C1" stroke="none">
<path d="M4970 16121 l0 -2400 -30 -33 c-35 -38 -37 -60 -10 -95 l20 -26 -21
-35 c-24 -42 -20 -68 17 -105 23 -23 25 -32 21 -79 -10 -102 -19 -122 -83
-202 -35 -43 -69 -96 -75 -117 -11 -34 -9 -44 20 -104 l31 -67 -31 -54 c-46
-82 -52 -110 -30 -158 10 -23 24 -48 33 -56 36 -37 88 -113 82 -122 -16 -25
-5 -81 23 -116 16 -21 32 -48 36 -61 8 -32 -3 -81 -18 -81 -7 0 -15 -8 -19
-17 -3 -10 -11 -26 -18 -36 -11 -15 -9 -24 9 -56 21 -37 22 -38 2 -67 -26 -39
-24 -54 11 -92 l30 -33 0 -2222 c-1 -1785 -3 -2225 -13 -2239 -7 -9 -39 -28
-71 -42 l-59 -26 27 -21 c38 -30 36 -79 -5 -113 -17 -14 -37 -26 -45 -26 -10
0 -14 -15 -14 -59 l0 -59 115 -27 114 -27 173 29 173 28 3 58 c3 51 1 57 -17
57 -11 0 -33 12 -50 26 -39 33 -41 74 -5 111 14 14 24 26 22 27 -2 2 -29 13
-60 25 -32 13 -58 30 -58 37 0 8 -4 14 -10 14 -7 0 -10 748 -10 2224 l0 2225
30 33 c33 35 38 69 15 88 -20 16 -19 41 3 79 14 25 15 34 4 48 -7 10 -15 26
-18 36 -4 9 -13 17 -20 17 -10 0 -14 14 -14 49 0 38 7 61 30 98 17 28 32 66
34 90 2 29 14 54 38 85 87 106 102 190 54 287 l-27 53 20 40 c41 84 15 174
-82 281 -26 30 -48 66 -55 93 -15 56 -16 134 -1 134 18 0 48 43 49 68 0 13 -9
35 -20 49 -20 25 -20 25 0 53 11 16 20 35 20 44 0 18 -28 66 -44 78 -6 4 -10
902 -10 2405 l-1 2398 -107 3 -108 3 0 -2400z m142 -2906 c8 -18 8 -32 -2 -55
-15 -37 -21 -37 -48 0 -21 28 -22 31 -6 55 21 32 41 32 56 0z m123 -169 c15
-51 19 -76 10 -76 -2 0 -22 19 -43 42 l-39 41 15 40 c15 36 17 38 29 21 8 -10
20 -41 28 -68z m-241 40 c14 -19 26 -38 26 -43 0 -5 -24 -33 -54 -62 -50 -49
-54 -52 -61 -32 -3 12 -3 36 0 54 8 38 46 117 56 117 3 0 18 -15 33 -34z m164
-162 c28 -25 52 -50 52 -56 0 -14 -90 -118 -102 -118 -6 0 -36 24 -68 53 l-58
52 56 58 c31 31 59 57 62 57 3 0 29 -21 58 -46z m-170 -296 c-22 -27 -46 -47
-52 -45 -6 1 -21 23 -34 47 -25 49 -26 116 -2 146 12 13 21 8 71 -42 l58 -57
-41 -49z m282 103 c0 -42 -26 -137 -39 -146 -5 -3 -21 16 -35 41 l-26 46 42
53 c23 30 45 52 50 49 4 -3 8 -22 8 -43z m-136 -169 c34 -50 33 -61 -9 -102
l-36 -35 -39 42 -39 41 40 46 c22 25 44 46 48 46 5 0 20 -17 35 -38z"/>
</g>
</svg>
