<?xml version="1.0" standalone="no"?>
<!DOCTYPE svg PUBLIC "-//W3C//DTD SVG 20010904//EN"
 "http://www.w3.org/TR/2001/REC-SVG-20010904/DTD/svg10.dtd">
<svg version="1.0" xmlns="http://www.w3.org/2000/svg"
 width="3542.000000pt" height="3750.000000pt" viewBox="0 0 3542.000000 3750.000000"
 preserveAspectRatio="xMidYMid meet">

<g transform="translate(0.000000,3750.000000) scale(0.100000,-0.100000)"
fill="#C5C3C1" stroke="none">
<path d="M7685 18550 l-99 -5 -1 -2310 0 -2310 -27 -30 c-31 -33 -36 -66 -13
-85 19 -16 19 -49 0 -74 -22 -29 -18 -48 16 -85 27 -30 30 -39 26 -80 -8 -78
-29 -134 -71 -189 -82 -107 -86 -114 -86 -153 0 -24 11 -58 27 -88 l27 -48
-39 -76 c-36 -71 -37 -79 -27 -114 7 -21 37 -69 68 -107 50 -63 55 -72 49
-105 -5 -30 -1 -44 24 -81 23 -34 31 -56 31 -92 0 -36 -4 -48 -15 -48 -8 0
-15 -6 -15 -14 0 -7 -7 -19 -15 -26 -21 -17 -19 -36 7 -70 l22 -30 -22 -30
c-29 -38 -28 -49 8 -88 l30 -33 0 -2142 c-1 -1744 -3 -2145 -14 -2159 -7 -10
-35 -27 -62 -38 -27 -12 -51 -23 -53 -26 -2 -2 6 -15 19 -29 41 -44 26 -95
-37 -122 -31 -13 -33 -16 -33 -66 l0 -52 118 -26 117 -27 160 27 160 27 3 57
c3 51 1 57 -16 57 -11 0 -31 9 -46 21 -33 26 -36 81 -6 106 11 10 20 21 20 24
0 4 -21 15 -46 25 -26 10 -55 27 -65 38 -18 19 -19 91 -19 2162 l0 2143 30 33
c33 35 38 59 16 77 -23 19 -25 49 -5 75 23 29 24 49 4 66 -8 7 -15 19 -15 26
0 8 -7 14 -15 14 -27 0 -19 81 15 145 17 31 30 70 30 87 0 21 13 45 44 80 51
59 81 140 71 190 -4 18 -18 53 -30 78 -22 44 -22 46 -4 85 38 82 18 169 -59
256 -46 51 -82 136 -82 191 0 27 8 46 30 70 33 36 37 55 15 84 -19 25 -19 58
0 74 22 18 18 47 -10 85 l-26 33 0 2311 c0 1271 -3 2312 -7 2313 -4 2 -52 1
-107 -2z m42 -5116 c15 -23 15 -29 2 -52 -20 -36 -31 -36 -56 0 l-23 32 22 23
c27 29 34 29 55 -3z m103 -123 c22 -44 37 -121 24 -120 -5 0 -24 18 -43 40
-33 39 -34 41 -21 79 7 22 15 40 16 40 2 0 13 -18 24 -39z m-217 -7 l29 -35
-48 -52 c-27 -29 -52 -53 -55 -55 -13 -6 -21 38 -14 71 9 38 42 107 53 107 4
0 20 -16 35 -36z m163 -268 c-26 -31 -53 -56 -59 -56 -6 0 -35 23 -64 52 l-53
52 57 58 58 58 54 -54 55 -55 -48 -55z m-184 -73 l57 -58 -44 -47 c-46 -51
-48 -51 -79 9 -22 45 -21 153 3 153 4 0 32 -26 63 -57z m263 -100 c-9 -24 -20
-43 -23 -43 -4 0 -18 20 -31 44 l-23 45 43 50 44 51 3 -52 c2 -31 -3 -69 -13
-95z m-111 -63 c14 -22 26 -45 25 -52 0 -7 -16 -26 -36 -42 l-35 -29 -29 31
c-16 17 -29 37 -29 44 0 9 67 88 76 88 1 0 13 -18 28 -40z"/>
</g>
</svg>
