<?xml version="1.0" standalone="no"?>
<!DOCTYPE svg PUBLIC "-//W3C//DTD SVG 20010904//EN"
 "http://www.w3.org/TR/2001/REC-SVG-20010904/DTD/svg10.dtd">
<svg version="1.0" xmlns="http://www.w3.org/2000/svg"
 width="2550.000000pt" height="2700.000000pt" viewBox="0 0 2550.000000 2700.000000"
 preserveAspectRatio="xMidYMid meet">

<g transform="translate(0.000000,2700.000000) scale(0.100000,-0.100000)"
fill="#C5C3C1" stroke="none">
<path d="M20738 25172 c-19 -20 -40 -44 -46 -53 -10 -13 -12 -341 -12 -1434
l0 -1419 -21 -22 c-20 -22 -20 -23 -4 -52 17 -27 17 -30 0 -56 -18 -26 -17
-27 9 -55 22 -23 25 -33 20 -62 -4 -19 -15 -46 -25 -61 -11 -14 -19 -38 -19
-53 0 -14 -13 -43 -30 -63 -59 -74 -67 -132 -28 -207 13 -23 13 -33 1 -67 -18
-54 -4 -101 52 -174 25 -31 46 -65 46 -73 5 -58 3 -73 -9 -83 -28 -24 -33 -47
-17 -72 15 -23 15 -27 0 -50 -16 -24 -16 -27 4 -55 l21 -29 0 -1475 0 -1476
-26 -20 c-15 -12 -33 -21 -40 -21 -18 0 -18 -5 2 -35 15 -23 15 -27 0 -49 -8
-14 -25 -27 -36 -31 -14 -5 -20 -14 -18 -28 3 -19 9 -21 48 -19 235 10 321 16
325 23 3 4 -8 16 -25 25 -38 23 -46 48 -26 79 9 13 16 26 16 29 0 3 -21 8 -46
12 -27 4 -41 10 -34 14 7 4 10 12 6 18 -3 5 -6 671 -6 1480 0 1375 1 1472 17
1500 15 26 16 34 4 56 -12 22 -12 28 2 50 16 24 15 26 -9 56 -24 28 -26 36
-19 86 5 45 15 65 51 110 61 75 65 88 40 146 l-20 48 28 56 c33 65 31 80 -23
151 -34 44 -39 57 -34 86 4 26 -1 40 -21 64 -31 37 -33 76 -6 103 22 22 26 50
9 67 -8 8 -8 21 2 46 11 30 10 39 -4 61 -16 24 -17 134 -17 1484 l0 1459 -24
11 c-21 9 -27 6 -58 -26z m30 -3292 l22 -28 -26 -31 c-30 -36 -49 -39 -64 -12
-15 29 -12 62 8 82 23 24 33 23 60 -11z m-99 -109 c11 -25 10 -33 -11 -65 -13
-20 -26 -36 -30 -36 -11 0 -10 84 2 115 12 31 23 27 39 -14z m207 -18 c10 -22
11 -40 5 -57 -16 -41 -31 -41 -74 3 l-41 41 34 35 c38 39 53 35 76 -22z m-108
-101 l43 -37 -45 -45 -46 -44 -35 34 c-19 19 -35 40 -35 47 0 13 58 83 69 83
3 0 25 -17 49 -38z m102 -124 c0 -30 -34 -98 -49 -98 -4 0 -17 13 -28 28 l-21
28 39 43 c43 46 59 46 59 -1z m-201 -22 c17 -18 22 -32 17 -50 -9 -37 -21 -32
-40 14 -26 66 -17 79 23 36z m95 -134 c-24 -38 -57 0 -39 46 5 14 9 13 28 -6
17 -18 19 -26 11 -40z"/>
</g>
</svg>
