<?xml version="1.0" standalone="no"?>
<!DOCTYPE svg PUBLIC "-//W3C//DTD SVG 20010904//EN"
 "http://www.w3.org/TR/2001/REC-SVG-20010904/DTD/svg10.dtd">
<svg version="1.0" xmlns="http://www.w3.org/2000/svg"
 width="2550.000000pt" height="2700.000000pt" viewBox="0 0 2550.000000 2700.000000"
 preserveAspectRatio="xMidYMid meet">

<g transform="translate(0.000000,2700.000000) scale(0.100000,-0.100000)"
fill="#C5C3C1" stroke="none">
<path d="M9307 14098 c-3 -7 -3 -736 1 -1620 l5 -1606 -26 -32 c-26 -31 -27
-33 -10 -60 15 -27 15 -30 -1 -54 -15 -24 -15 -28 0 -51 9 -14 20 -25 25 -25
14 0 10 -69 -6 -100 -8 -16 -12 -36 -9 -45 4 -10 -4 -28 -23 -48 -80 -86 -90
-122 -50 -192 l23 -40 -25 -40 c-37 -60 -33 -93 22 -163 30 -39 47 -70 47 -89
0 -15 7 -37 15 -47 16 -21 21 -96 6 -96 -5 0 -16 -12 -26 -26 -15 -23 -15 -27
-1 -43 20 -22 20 -35 1 -65 -15 -22 -14 -26 10 -54 l25 -30 0 -1991 c0 -1095
-3 -1997 -6 -2006 -4 -8 -26 -24 -51 -35 l-45 -20 21 -25 c26 -34 16 -64 -30
-87 -31 -16 -35 -22 -31 -50 l4 -33 106 -23 c99 -21 110 -22 149 -8 23 8 69
20 103 27 l60 12 0 38 c0 26 -5 39 -13 39 -18 0 -57 42 -57 61 0 8 7 25 16 37
15 22 14 23 -23 38 -21 9 -42 24 -47 33 -6 10 -11 774 -14 2004 l-3 1988 25
30 c31 36 31 38 10 67 -14 21 -14 25 0 48 18 26 12 48 -18 74 -20 16 -20 67
-1 100 8 14 14 33 15 43 0 11 15 37 34 59 68 79 81 138 45 197 -20 32 -20 34
-2 70 9 20 17 55 18 77 0 35 -8 52 -47 103 -27 34 -48 69 -48 79 -1 9 -7 28
-15 42 -18 31 -19 86 -2 97 33 22 39 41 22 71 -16 27 -16 30 -1 55 19 27 13
51 -19 77 -14 11 -15 168 -15 1604 1 875 1 1603 1 1619 -1 27 -2 27 -70 27
-46 0 -71 -4 -74 -12z m110 -3609 c14 -24 14 -28 -2 -53 l-18 -27 -23 22 c-28
27 -30 46 -7 71 20 23 30 20 50 -13z m-90 -103 l21 -33 -42 -42 c-23 -23 -45
-38 -49 -35 -22 22 10 144 37 144 6 0 21 -15 33 -34z m171 1 c13 -36 16 -87 5
-87 -3 0 -19 14 -33 32 -23 28 -25 36 -16 60 14 37 29 35 44 -5z m-54 -116
c37 -37 37 -40 22 -63 -9 -13 -28 -35 -42 -47 l-26 -23 -44 43 -44 43 42 43
c23 24 45 43 48 43 3 0 23 -18 44 -39z m-130 -140 l39 -40 -24 -30 c-13 -16
-30 -30 -37 -30 -17 -1 -42 60 -42 104 0 46 16 45 64 -4z m198 -7 c-5 -43 -22
-94 -33 -94 -5 0 -15 15 -22 33 -13 30 -12 34 12 64 31 38 47 37 43 -3z m-82
-139 c0 -12 -9 -30 -20 -40 -19 -17 -21 -17 -40 0 -26 23 -25 43 2 72 20 21
23 22 40 6 10 -9 18 -26 18 -38z"/>
</g>
</svg>
