<?xml version="1.0" standalone="no"?>
<!DOCTYPE svg PUBLIC "-//W3C//DTD SVG 20010904//EN"
 "http://www.w3.org/TR/2001/REC-SVG-20010904/DTD/svg10.dtd">
<svg version="1.0" xmlns="http://www.w3.org/2000/svg"
 width="2550.000000pt" height="2700.000000pt" viewBox="0 0 2550.000000 2700.000000"
 preserveAspectRatio="xMidYMid meet">

<g transform="translate(0.000000,2700.000000) scale(0.100000,-0.100000)"
fill="#C5C3C1" stroke="none">
<path d="M10347 14548 l-67 -76 0 -1336 c1 -1327 1 -1337 -20 -1363 -19 -24
-19 -27 -4 -53 15 -25 15 -29 0 -53 -16 -24 -16 -27 -1 -51 10 -14 22 -26 27
-26 7 0 8 -18 4 -47 -4 -27 -7 -55 -8 -63 0 -8 -13 -28 -28 -45 -42 -45 -80
-105 -80 -127 0 -10 9 -37 20 -58 l20 -40 -31 -55 c-36 -64 -34 -77 22 -152
28 -37 39 -62 39 -87 0 -21 10 -50 25 -72 29 -42 32 -76 9 -94 -30 -26 -36
-48 -18 -75 15 -23 15 -27 -1 -51 -16 -25 -16 -28 4 -54 20 -28 20 -31 24
-1529 4 -1552 4 -1541 -33 -1541 -5 0 -21 -5 -36 -10 -24 -9 -25 -12 -11 -23
32 -24 25 -73 -13 -95 -26 -14 -30 -22 -28 -51 3 -33 5 -35 68 -53 62 -17 70
-17 192 -2 l126 17 4 35 c3 24 0 36 -11 40 -25 8 -61 44 -61 60 0 9 8 24 18
35 12 14 13 21 5 24 -7 2 -27 14 -45 27 l-33 22 -3 1503 c-2 1490 -2 1503 18
1528 22 29 26 53 9 70 -8 8 -7 21 2 47 12 33 11 38 -9 59 -29 30 -28 72 3 122
14 22 25 52 25 66 0 14 15 46 33 70 19 24 40 59 47 76 11 30 10 38 -15 88 -26
55 -27 57 -10 97 22 55 13 86 -46 164 -39 51 -51 75 -56 113 -5 41 -2 53 16
72 24 26 26 38 9 74 -9 19 -9 28 0 37 18 18 14 53 -8 73 -20 18 -20 33 -22
1428 l-3 1411 -68 -76z m31 -3090 c16 -16 15 -29 -3 -52 -14 -18 -15 -18 -33
5 -16 18 -17 27 -8 41 13 21 27 23 44 6z m-77 -96 c16 -28 15 -29 -18 -65 -44
-49 -57 -48 -50 3 5 40 30 90 45 90 4 0 14 -13 23 -28z m159 -14 c23 -50 25
-68 8 -67 -25 1 -59 56 -52 83 9 37 22 32 44 -16z m-31 -116 l25 -22 -39 -40
c-22 -22 -44 -40 -50 -40 -5 0 -27 17 -49 36 l-38 36 43 44 c48 49 35 50 108
-14z m-137 -188 c-32 -40 -36 -41 -56 -12 -16 22 -22 109 -9 122 4 3 26 -12
49 -35 l43 -42 -27 -33z m198 64 c0 -35 -20 -98 -31 -98 -4 0 -16 14 -27 32
l-20 31 30 38 c35 43 48 42 48 -3z m-89 -119 l22 -31 -31 -28 -31 -28 -25 27
c-32 33 -32 38 -4 68 29 31 42 29 69 -8z"/>
</g>
</svg>
