<?xml version="1.0" standalone="no"?>
<!DOCTYPE svg PUBLIC "-//W3C//DTD SVG 20010904//EN"
 "http://www.w3.org/TR/2001/REC-SVG-20010904/DTD/svg10.dtd">
<svg version="1.0" xmlns="http://www.w3.org/2000/svg"
 width="2550.000000pt" height="2700.000000pt" viewBox="0 0 2550.000000 2700.000000"
 preserveAspectRatio="xMidYMid meet">

<g transform="translate(0.000000,2700.000000) scale(0.100000,-0.100000)"
fill="#C5C3C1" stroke="none">
<path d="M11188 15452 l-68 -76 0 -1320 0 -1320 -22 -23 c-22 -23 -22 -24 -4
-54 16 -28 17 -32 2 -48 -21 -24 -20 -34 8 -64 23 -25 23 -28 11 -92 -10 -53
-19 -74 -47 -103 -63 -65 -71 -101 -39 -162 l19 -34 -30 -53 c-36 -63 -34 -78
22 -152 28 -39 40 -64 40 -89 0 -19 9 -45 20 -59 11 -14 20 -41 20 -60 0 -20
-8 -43 -20 -55 -22 -24 -26 -43 -10 -53 13 -8 13 -41 -2 -64 -9 -15 -7 -24 10
-49 l22 -30 0 -1922 c0 -1252 -3 -1928 -10 -1940 -5 -10 -26 -24 -45 -30 -34
-11 -34 -12 -19 -36 23 -34 11 -73 -27 -87 -26 -10 -30 -16 -27 -46 3 -34 3
-34 83 -53 66 -16 91 -17 145 -9 36 6 89 13 118 17 51 6 52 6 52 40 0 24 -5
37 -17 41 -51 18 -67 61 -36 95 9 10 14 19 12 21 -2 1 -22 11 -44 22 l-40 20
-3 1933 -2 1934 21 30 c21 29 21 32 6 57 -15 25 -15 30 0 50 13 19 13 27 3 47
-8 13 -17 24 -22 24 -17 0 -8 82 12 107 11 14 20 41 20 59 0 18 4 35 9 38 18
12 81 115 81 134 0 11 -12 41 -26 67 -26 46 -26 48 -10 81 27 58 21 87 -35
160 -42 56 -52 77 -56 120 -5 43 -2 58 17 83 21 30 21 33 5 57 -15 24 -15 27
0 50 15 24 15 27 -2 52 -17 26 -18 94 -23 1423 l-5 1396 -67 -75z m32 -3076
c0 -35 -20 -49 -42 -29 -22 20 -23 31 -1 55 20 22 43 8 43 -26z m-86 -71 c16
-24 16 -27 -15 -65 -18 -22 -36 -40 -41 -40 -14 0 -9 69 7 100 19 37 28 37 49
5z m162 -10 c15 -38 19 -75 6 -75 -5 0 -21 13 -37 30 -26 27 -27 32 -15 55 18
34 28 32 46 -10z m-51 -105 l39 -40 -41 -42 -41 -41 -45 39 -46 39 42 43 c23
23 44 42 47 42 3 0 24 -18 45 -40z m-131 -129 l38 -39 -27 -36 c-15 -20 -29
-36 -31 -36 -2 0 -10 13 -19 30 -16 30 -21 120 -7 120 4 0 25 -18 46 -39z
m206 -11 c0 -40 -17 -90 -31 -90 -4 0 -16 15 -28 32 l-20 33 31 32 c18 18 36
33 40 33 4 0 8 -18 8 -40z m-86 -113 l20 -27 -30 -30 -30 -30 -28 29 -29 30
24 30 c28 36 45 36 73 -2z"/>
</g>
</svg>
