<?xml version="1.0" standalone="no"?>
<!DOCTYPE svg PUBLIC "-//W3C//DTD SVG 20010904//EN"
 "http://www.w3.org/TR/2001/REC-SVG-20010904/DTD/svg10.dtd">
<svg version="1.0" xmlns="http://www.w3.org/2000/svg"
 width="2550.000000pt" height="2700.000000pt" viewBox="0 0 2550.000000 2700.000000"
 preserveAspectRatio="xMidYMid meet">

<g transform="translate(0.000000,2700.000000) scale(0.100000,-0.100000)"
fill="#C5C3C1" stroke="none">
<path d="M12873 17228 l-63 -64 0 -1346 c0 -1184 -2 -1347 -15 -1358 -18 -15
-19 -34 -3 -60 10 -16 10 -24 0 -40 -17 -28 -15 -44 8 -65 38 -34 22 -112 -35
-165 -54 -50 -67 -101 -40 -153 14 -28 13 -32 -20 -89 -19 -32 -35 -62 -35
-65 0 -3 19 -33 42 -67 32 -46 42 -72 43 -104 2 -31 10 -53 33 -82 37 -45 41
-79 12 -105 -22 -20 -26 -55 -8 -73 9 -9 8 -18 -2 -37 -12 -23 -12 -30 3 -58
16 -30 17 -155 15 -1922 l-3 -1889 -36 -21 c-35 -19 -36 -21 -21 -43 13 -19
13 -27 2 -50 -8 -15 -13 -30 -12 -34 1 -5 -7 -8 -18 -8 -16 0 -20 -7 -20 -34
0 -32 3 -35 50 -51 39 -13 70 -15 138 -10 159 11 162 12 162 50 0 19 -6 35
-14 38 -8 3 -23 18 -32 32 -16 25 -16 27 4 55 l21 28 -22 6 c-12 3 -32 15 -45
26 l-22 21 0 1893 c0 1671 2 1895 15 1906 18 15 20 51 3 68 -10 10 -10 17 0
32 16 27 15 55 -3 70 -23 19 -18 77 10 114 17 23 25 46 25 74 0 28 7 49 24 69
13 15 32 46 43 67 l20 39 -29 59 c-26 51 -28 63 -19 90 20 57 13 84 -39 152
-45 58 -50 71 -50 116 0 27 4 50 10 50 15 0 23 46 11 68 -8 15 -8 28 1 47 10
22 9 32 -5 58 -16 30 -17 136 -20 1430 l-2 1398 -62 -63z m16 -3062 c13 -16 4
-46 -14 -46 -16 0 -26 25 -19 45 8 19 18 19 33 1z m-63 -80 c9 -19 6 -28 -18
-54 -36 -41 -49 -41 -41 1 6 33 30 77 42 77 3 0 11 -11 17 -24z m137 -3 c19
-38 29 -83 19 -83 -5 0 -21 13 -36 29 -21 22 -26 34 -20 55 8 33 20 33 37 -1z
m-39 -109 l38 -36 -38 -39 c-21 -21 -41 -39 -44 -39 -10 0 -80 65 -80 75 0 13
62 75 74 75 6 0 28 -17 50 -36z m-126 -123 l32 -40 -23 -35 c-12 -19 -25 -35
-29 -36 -24 -1 -47 95 -32 134 9 24 17 20 52 -23z m208 13 c8 -33 -2 -94 -19
-111 -11 -11 -18 -8 -40 23 l-26 37 32 38 c38 46 45 47 53 13z m-92 -130 l29
-35 -31 -31 -30 -31 -31 24 c-16 13 -30 29 -30 36 -1 13 47 73 57 72 4 0 20
-16 36 -35z"/>
</g>
</svg>
