<?xml version="1.0" standalone="no"?>
<!DOCTYPE svg PUBLIC "-//W3C//DTD SVG 20010904//EN"
 "http://www.w3.org/TR/2001/REC-SVG-20010904/DTD/svg10.dtd">
<svg version="1.0" xmlns="http://www.w3.org/2000/svg"
 width="2551.000000pt" height="2701.000000pt" viewBox="0 0 2551.000000 2701.000000"
 preserveAspectRatio="xMidYMid meet">

<g transform="translate(0.000000,2701.000000) scale(0.100000,-0.100000)"
fill="#3a4548"  stroke="none">
<path d="M20010 25099 c-14 -12 -39 -34 -56 -49 l-32 -29 0 -1452 c0 -1358 -2
-1455 -18 -1491 -15 -33 -15 -42 -4 -64 11 -20 12 -29 2 -44 -18 -29 -15 -54
8 -75 35 -31 26 -71 -30 -132 -58 -64 -79 -120 -62 -165 10 -27 7 -36 -20 -84
-40 -71 -37 -131 10 -195 23 -30 30 -49 26 -66 -11 -42 6 -89 51 -142 51 -60
54 -75 23 -127 -19 -32 -20 -40 -9 -71 10 -25 10 -38 2 -46 -16 -16 -13 -53 5
-71 14 -15 16 -171 21 -1605 5 -1543 4 -1590 -14 -1607 -10 -11 -29 -26 -41
-34 -22 -14 -22 -16 -7 -47 18 -36 9 -65 -25 -83 -13 -7 -20 -21 -20 -40 l0
-30 170 0 170 0 0 33 c0 25 -7 39 -30 55 -33 25 -38 48 -15 78 20 27 19 30
-15 44 -17 7 -35 21 -40 31 -6 11 -10 607 -10 1603 0 1563 0 1585 20 1619 17
28 18 38 8 64 -9 24 -9 38 -1 56 9 20 8 30 -8 56 -29 48 -24 78 21 127 46 50
57 84 43 136 -8 29 -7 40 3 49 25 21 74 102 74 123 0 12 -16 48 -36 81 -33 54
-35 63 -25 91 19 52 13 80 -27 131 -21 26 -46 54 -55 62 -23 19 -22 82 3 124
17 28 18 38 8 64 -9 25 -9 38 0 58 11 23 10 32 -8 62 -20 34 -20 45 -20 1529
0 822 -3 1494 -7 1494 -5 -1 -19 -10 -33 -21z m-90 -3424 c-22 -27 -31 -15
-13 18 13 25 18 28 21 14 2 -10 -2 -24 -8 -32z m153 10 c19 -39 21 -55 9 -55
-15 0 -54 61 -48 76 9 23 21 16 39 -21z m-58 -95 l39 -40 -25 -26 c-44 -48
-57 -49 -95 -13 -19 18 -34 38 -34 43 0 11 60 74 70 75 3 1 23 -17 45 -39z
m109 -112 c10 -40 6 -94 -8 -114 -14 -18 -16 -18 -52 18 l-37 37 34 40 c39 45
54 50 63 19z m-232 -24 l26 -35 -21 -34 c-26 -40 -38 -40 -51 3 -9 31 -1 102
12 102 4 -1 19 -17 34 -36z m148 -158 c-1 -6 -14 -27 -30 -46 l-30 -34 -35 34
c-19 19 -35 37 -35 42 0 4 14 23 31 43 l32 36 33 -32 c19 -18 34 -38 34 -43z
m2 -138 c-7 -7 -12 -8 -12 -2 0 14 12 26 19 19 2 -3 -1 -11 -7 -17z"/>
</g>
</svg>
