<?xml version="1.0" standalone="no"?>
<!DOCTYPE svg PUBLIC "-//W3C//DTD SVG 20010904//EN"
 "http://www.w3.org/TR/2001/REC-SVG-20010904/DTD/svg10.dtd">
<svg version="1.0" xmlns="http://www.w3.org/2000/svg"
 width="2551.000000pt" height="2701.000000pt" viewBox="0 0 2551.000000 2701.000000"
 preserveAspectRatio="xMidYMid meet">

<g transform="translate(0.000000,2701.000000) scale(0.100000,-0.100000)"
fill="#3a4548"  stroke="none">
<path d="M22260 26643 c0 -170 0 -825 0 -1456 l0 -1149 -21 -30 c-20 -27 -20
-33 -9 -69 10 -30 11 -42 2 -51 -18 -18 -14 -46 8 -68 35 -35 26 -75 -30 -138
-61 -68 -79 -118 -61 -167 11 -31 10 -38 -16 -76 -41 -62 -39 -127 5 -195 23
-37 32 -62 32 -93 0 -49 10 -72 56 -124 40 -44 42 -67 12 -124 -20 -37 -21
-44 -8 -68 11 -21 12 -30 2 -45 -17 -27 -15 -43 8 -73 20 -25 20 -37 19 -1609
0 -872 -4 -1590 -8 -1597 -5 -7 -25 -23 -45 -35 -33 -20 -36 -24 -22 -35 26
-22 20 -66 -14 -94 -16 -14 -30 -30 -30 -36 0 -11 75 -15 270 -14 79 0 85 1
88 22 2 14 -7 30 -27 47 -35 29 -38 49 -15 83 14 19 14 25 3 32 -8 5 -19 9
-26 9 -6 0 -19 7 -27 16 -14 14 -16 174 -16 1609 0 1544 1 1595 19 1626 15 25
17 36 8 59 -8 21 -8 35 1 54 12 27 -1 76 -20 76 -4 0 -8 17 -8 38 0 30 7 45
31 68 52 49 63 79 48 131 -12 43 -11 45 18 76 65 68 69 114 19 189 -33 48 -34
53 -20 79 29 58 17 95 -58 174 -31 33 -38 47 -38 82 0 24 9 56 21 77 18 32 19
37 6 63 -13 25 -13 32 -1 56 14 25 13 30 -6 56 -20 29 -20 34 -20 1480 l0
1451 -65 0 -65 0 0 -307z m165 -3075 c9 -37 -4 -34 -38 7 -24 29 -26 36 -15
54 12 20 13 20 29 -7 10 -15 21 -39 24 -54z m-176 26 c-18 -22 -22 -11 -7 22
10 21 14 24 16 10 2 -9 -2 -24 -9 -32z m130 -119 c1 -10 -69 -85 -80 -85 -4 0
-22 18 -40 41 l-32 40 38 39 38 39 38 -32 c20 -18 38 -36 38 -42z m81 -81 c14
-35 12 -59 -5 -101 l-16 -37 -42 42 -41 42 39 40 c21 22 43 40 47 40 5 0 13
-12 18 -26z m-233 -89 c-11 -16 -22 -32 -24 -35 -2 -2 -8 2 -13 10 -11 17 -13
113 -4 123 4 4 19 -10 35 -30 l27 -37 -21 -31z m113 -60 l33 -34 -27 -36 c-15
-19 -30 -35 -35 -35 -4 0 -21 15 -39 33 l-32 33 27 37 c14 20 29 37 33 37 3 0
21 -16 40 -35z"/>
</g>
</svg>
