<?xml version="1.0" standalone="no"?>
<!DOCTYPE svg PUBLIC "-//W3C//DTD SVG 20010904//EN"
 "http://www.w3.org/TR/2001/REC-SVG-20010904/DTD/svg10.dtd">
<svg version="1.0" xmlns="http://www.w3.org/2000/svg"
 width="2551.000000pt" height="2701.000000pt" viewBox="0 0 2551.000000 2701.000000"
 preserveAspectRatio="xMidYMid meet">

<g transform="translate(0.000000,2701.000000) scale(0.100000,-0.100000)"
fill="#3a4548"  stroke="none">
<path d="M23420 25975 c0 -940 -1 -977 -19 -1013 -16 -32 -17 -41 -6 -61 10
-20 10 -30 -1 -57 -13 -30 -12 -35 11 -62 37 -44 32 -75 -19 -130 -64 -69 -80
-105 -72 -168 5 -44 2 -59 -19 -96 -37 -65 -34 -122 11 -189 24 -36 34 -61 31
-77 -8 -39 10 -84 53 -136 22 -26 40 -55 40 -63 0 -8 -12 -34 -26 -58 -24 -42
-24 -45 -9 -69 15 -22 15 -28 2 -52 -11 -21 -12 -34 -4 -51 6 -13 14 -23 19
-23 10 0 11 -4151 0 -4166 -4 -6 -22 -19 -40 -28 -29 -15 -31 -18 -17 -32 24
-25 18 -63 -16 -95 -56 -52 -41 -57 155 -59 l176 -1 0 26 c0 17 -11 35 -30 52
-33 27 -38 57 -15 90 14 20 13 22 -19 33 -19 6 -37 18 -40 26 -3 9 -6 946 -6
2084 0 1946 1 2070 17 2099 15 25 16 35 6 62 -10 25 -9 37 2 59 12 24 12 30
-6 59 -29 48 -24 81 17 127 45 49 56 77 44 110 -15 39 -13 46 30 104 50 67 51
95 4 170 -35 56 -35 59 -20 88 27 52 20 76 -39 143 -64 74 -72 111 -38 177 20
39 21 47 9 71 -12 22 -12 30 1 55 14 26 13 31 -6 57 -21 28 -21 29 -21 999 l0
970 -70 0 -70 0 0 -975z m-1 -1417 c-7 -13 -14 -18 -16 -11 -3 7 1 22 8 35 7
13 14 18 16 11 3 -7 -1 -22 -8 -35z m154 18 c20 -30 32 -76 20 -76 -10 0 -44
35 -57 57 -7 13 2 43 14 43 4 0 15 -11 23 -24z m-65 -102 c18 -20 32 -39 32
-42 0 -3 -17 -23 -37 -44 l-37 -38 -33 32 c-18 18 -33 39 -33 47 0 15 58 81
70 81 4 0 21 -16 38 -36z m112 -109 c19 -23 17 -88 -4 -119 l-18 -28 -34 33
c-19 18 -34 37 -34 42 0 11 62 85 71 86 4 1 12 -6 19 -14z m-232 -39 l23 -33
-22 -37 c-16 -28 -24 -34 -30 -24 -11 16 -12 128 -1 128 4 0 17 -15 30 -34z
m119 -121 l37 -35 -35 -36 -36 -35 -31 26 c-18 15 -32 32 -32 37 0 11 48 78
55 78 3 0 22 -16 42 -35z m35 -167 c-7 -7 -12 -8 -12 -2 0 14 12 26 19 19 2
-3 -1 -11 -7 -17z"/>
</g>
</svg>
