<?xml version="1.0" standalone="no"?>
<!DOCTYPE svg PUBLIC "-//W3C//DTD SVG 20010904//EN"
 "http://www.w3.org/TR/2001/REC-SVG-20010904/DTD/svg10.dtd">
<svg version="1.0" xmlns="http://www.w3.org/2000/svg"
 width="3542.000000pt" height="3750.000000pt" viewBox="0 0 3542.000000 3750.000000"
 preserveAspectRatio="xMidYMid meet">

<g transform="translate(0.000000,3750.000000) scale(0.100000,-0.100000)"
fill="#C5C3C1" stroke="none">
<path d="M650 17641 l0 -808 -52 -7 c-29 -3 -115 -6 -191 -6 l-137 0 2 -4362
3 -4363 47 -9 c34 -7 82 -4 184 12 76 11 142 18 146 16 5 -3 8 -307 8 -676 l0
-671 -24 -22 c-13 -12 -49 -32 -81 -45 -56 -23 -57 -23 -33 -36 14 -7 31 -26
37 -42 17 -42 -2 -77 -56 -103 l-44 -21 3 -56 c3 -63 -13 -52 153 -101 l70
-21 195 33 195 33 3 61 c3 59 2 61 -25 68 -75 18 -97 93 -42 139 l30 26 -23 9
c-90 35 -118 52 -123 73 -3 13 -4 331 -3 708 l3 684 177 26 c97 14 179 28 181
30 3 3 7 1947 9 4320 l3 4315 -187 -3 -188 -4 0 806 0 806 -120 0 -120 0 0
-809z m381 -3108 c2 -4988 1 -6155 -6 -6161 -6 -6 -506 -81 -513 -77 -5 4 -2
8349 4 8354 5 6 211 15 417 19 l97 2 1 -2137z"/>
</g>
</svg>
