<?xml version="1.0" standalone="no"?>
<!DOCTYPE svg PUBLIC "-//W3C//DTD SVG 20010904//EN"
 "http://www.w3.org/TR/2001/REC-SVG-20010904/DTD/svg10.dtd">
<svg version="1.0" xmlns="http://www.w3.org/2000/svg"
 width="3542.000000pt" height="3750.000000pt" viewBox="0 0 3542.000000 3750.000000"
 preserveAspectRatio="xMidYMid meet">

<g transform="translate(0.000000,3750.000000) scale(0.100000,-0.100000)"
fill="#C5C3C1" stroke="none">
<path d="M12300 18523 c0 -49 0 -357 0 -686 0 -474 -2 -598 -12 -602 -7 -2
-69 -6 -138 -9 -69 -3 -126 -5 -127 -6 -2 0 -3 -1669 -3 -3709 l0 -3708 48 -7
c26 -3 86 0 134 8 49 7 90 10 93 8 3 -3 5 -263 5 -577 0 -646 8 -585 -84 -624
l-48 -21 26 -21 c47 -37 30 -93 -37 -118 -24 -9 -27 -15 -27 -60 l0 -49 120
-23 119 -23 138 23 c75 12 141 25 145 27 4 3 8 25 8 50 0 39 -3 46 -27 55 -63
24 -83 78 -43 114 28 25 26 31 -22 50 -84 33 -78 -19 -78 640 0 459 3 587 13
590 6 3 68 13 137 23 l125 17 3 3678 2 3677 -42 1 c-24 0 -86 1 -138 2 l-95 2
-2 660 c-1 363 -2 670 -3 683 0 21 -3 22 -95 22 l-95 0 0 -87z m268 -4966 c1
-1945 -1 -3537 -4 -3537 -6 0 -260 -37 -311 -46 l-33 -5 0 3554 c0 3378 1
3555 18 3559 9 3 80 6 157 7 77 1 142 4 144 7 3 2 10 3 15 1 8 -3 12 -1055 14
-3540z"/>
</g>
</svg>
