<?xml version="1.0" standalone="no"?>
<!DOCTYPE svg PUBLIC "-//W3C//DTD SVG 20010904//EN"
 "http://www.w3.org/TR/2001/REC-SVG-20010904/DTD/svg10.dtd">
<svg version="1.0" xmlns="http://www.w3.org/2000/svg"
 width="3542.000000pt" height="3750.000000pt" viewBox="0 0 3542.000000 3750.000000"
 preserveAspectRatio="xMidYMid meet">

<g transform="translate(0.000000,3750.000000) scale(0.100000,-0.100000)"
fill="#C5C3C1" stroke="none">
<path d="M16430 18020 l0 -649 -122 -3 -123 -3 1 -3473 c0 -1909 4 -3475 8
-3479 9 -10 120 -10 184 0 l52 8 0 -539 c0 -415 -3 -542 -12 -555 -7 -9 -34
-25 -60 -36 l-48 -20 25 -25 c14 -14 25 -31 25 -39 0 -23 -38 -64 -65 -71 -21
-5 -25 -12 -25 -45 0 -21 6 -43 13 -49 6 -5 59 -18 118 -28 102 -17 109 -17
230 2 l124 19 3 48 c3 38 0 48 -15 54 -28 10 -63 45 -63 63 0 10 10 30 22 45
13 17 18 30 11 32 -5 2 -30 14 -54 26 l-44 22 -3 561 -2 562 82 11 c46 7 100
15 121 18 l37 6 0 3448 0 3449 -120 0 -120 0 0 645 0 645 -90 0 -90 0 0 -650z
m240 -4089 c0 -3153 -1 -3320 -17 -3325 -10 -2 -43 -8 -73 -11 -30 -4 -62 -9
-70 -10 -8 -1 -43 -6 -77 -10 l-63 -7 0 3336 0 3335 113 4 c61 1 129 4 150 5
l37 2 0 -3319z"/>
</g>
</svg>
