<?xml version="1.0" standalone="no"?>
<!DOCTYPE svg PUBLIC "-//W3C//DTD SVG 20010904//EN"
 "http://www.w3.org/TR/2001/REC-SVG-20010904/DTD/svg10.dtd">
<svg version="1.0" xmlns="http://www.w3.org/2000/svg"
 width="3542.000000pt" height="3750.000000pt" viewBox="0 0 3542.000000 3750.000000"
 preserveAspectRatio="xMidYMid meet">

<g transform="translate(0.000000,3750.000000) scale(0.100000,-0.100000)"
fill="#C5C3C1" stroke="none">
<path d="M20077 18713 c-3 -5 -5 -253 -6 -553 0 -300 0 -570 -1 -602 l0 -56
-105 -7 -105 -7 2 -3272 3 -3271 108 2 107 1 0 -507 c0 -568 7 -518 -74 -554
l-39 -18 24 -25 c19 -20 21 -29 13 -52 -5 -15 -23 -33 -41 -42 -29 -13 -33
-19 -33 -57 0 -24 3 -43 8 -43 4 0 58 -9 120 -19 109 -18 115 -18 215 0 56 10
105 19 110 19 4 0 7 20 7 44 0 39 -3 45 -29 55 -50 21 -59 84 -14 109 15 9 11
14 -32 32 -27 12 -53 27 -57 33 -4 7 -8 247 -8 533 l0 522 83 11 c45 7 92 14
105 17 l22 4 0 898 c0 493 1 1034 1 1202 0 168 0 1227 -1 2353 l0 2049 -105
-4 -105 -3 0 608 0 607 -84 0 c-47 0 -87 -3 -89 -7z m213 -4457 c0 -2957 -1
-3125 -18 -3130 -9 -2 -39 -7 -67 -11 -27 -3 -61 -7 -75 -10 -14 -2 -41 -6
-60 -9 l-35 -6 0 3138 0 3137 60 5 c33 3 90 7 128 8 l67 3 0 -3125z"/>
</g>
</svg>
