<?xml version="1.0" standalone="no"?>
<!DOCTYPE svg PUBLIC "-//W3C//DTD SVG 20010904//EN"
 "http://www.w3.org/TR/2001/REC-SVG-20010904/DTD/svg10.dtd">
<svg version="1.0" xmlns="http://www.w3.org/2000/svg"
 width="3542.000000pt" height="3750.000000pt" viewBox="0 0 3542.000000 3750.000000"
 preserveAspectRatio="xMidYMid meet">

<g transform="translate(0.000000,3750.000000) scale(0.100000,-0.100000)"
fill="#C5C3C1" stroke="none">
<path d="M20920 18131 l0 -598 -52 -7 c-29 -3 -77 -6 -105 -6 l-53 0 0 -3224
0 -3223 41 -7 c22 -4 69 -3 105 0 l64 7 0 -497 c0 -296 -4 -505 -10 -515 -5
-10 -30 -26 -56 -36 -37 -14 -43 -20 -30 -27 46 -26 39 -86 -13 -108 -28 -11
-31 -17 -31 -54 l0 -42 116 -18 c114 -18 139 -18 272 5 l62 11 0 42 c-1 35 -5
44 -33 61 -40 25 -47 65 -18 94 l20 20 -46 21 c-26 11 -51 26 -55 33 -4 7 -8
242 -8 524 l0 511 28 6 c27 6 160 25 175 26 4 0 7 1443 7 3206 l0 3206 -102
-3 -103 -4 -3 598 -2 597 -85 0 -85 0 0 -599z m210 -3800 c0 -2916 -1 -3080
-18 -3085 -9 -3 -62 -10 -117 -17 -55 -7 -102 -13 -104 -13 -3 -1 -6 1390 -8
3091 l-3 3092 53 4 c28 2 85 4 125 5 l72 2 0 -3079z"/>
</g>
</svg>
