<?xml version="1.0" standalone="no"?>
<!DOCTYPE svg PUBLIC "-//W3C//DTD SVG 20010904//EN"
 "http://www.w3.org/TR/2001/REC-SVG-20010904/DTD/svg10.dtd">
<svg version="1.0" xmlns="http://www.w3.org/2000/svg"
 width="3542.000000pt" height="3750.000000pt" viewBox="0 0 3542.000000 3750.000000"
 preserveAspectRatio="xMidYMid meet">

<g transform="translate(0.000000,3750.000000) scale(0.100000,-0.100000)"
fill="#C5C3C1" stroke="none">
<path d="M21740 18151 l0 -589 -22 -6 c-13 -3 -58 -6 -100 -6 l-78 0 0 -3179
0 -3179 48 -6 c26 -4 71 -2 100 2 28 5 53 9 53 8 1 -1 3 -219 5 -486 2 -335
-1 -492 -8 -507 -6 -13 -31 -30 -54 -39 l-43 -17 19 -25 c11 -13 20 -32 20
-42 0 -18 -35 -53 -62 -63 -13 -5 -18 -17 -18 -46 l0 -39 116 -17 c99 -15 129
-16 203 -6 139 19 131 15 131 64 0 38 -4 44 -33 57 -40 19 -49 66 -18 94 20
18 19 19 -32 45 l-52 26 -3 512 -2 511 27 6 c16 3 48 8 73 11 25 3 57 8 73 11
l27 6 -2 3156 -3 3157 -95 0 -95 0 -3 588 -2 587 -85 0 -85 0 0 -589z m203
-3751 l0 -3035 -84 -12 c-46 -6 -99 -14 -116 -17 l-33 -5 0 3049 0 3049 48 4
c26 2 78 3 116 3 l69 -1 0 -3035z"/>
</g>
</svg>
