<?xml version="1.0" standalone="no"?>
<!DOCTYPE svg PUBLIC "-//W3C//DTD SVG 20010904//EN"
 "http://www.w3.org/TR/2001/REC-SVG-20010904/DTD/svg10.dtd">
<svg version="1.0" xmlns="http://www.w3.org/2000/svg"
 width="3542.000000pt" height="3750.000000pt" viewBox="0 0 3542.000000 3750.000000"
 preserveAspectRatio="xMidYMid meet">

<g transform="translate(0.000000,3750.000000) scale(0.100000,-0.100000)"
fill="#C5C3C1" stroke="none">
<path d="M28570 18056 l0 -634 -135 5 -135 6 0 -2739 c0 -3966 0 -4047 6
-4053 2 -3 62 -12 132 -21 l127 -15 3 -535 c1 -294 0 -545 -3 -557 -3 -15 -22
-30 -56 -44 l-50 -22 21 -22 c28 -30 26 -69 -6 -94 -15 -12 -33 -21 -41 -21
-11 0 -13 -12 -11 -47 l3 -48 142 -19 c140 -19 142 -19 235 0 l93 20 3 45 c3
43 1 47 -28 59 -54 22 -65 67 -25 104 l25 23 -45 18 c-81 30 -75 -16 -75 581
0 369 3 534 11 534 5 0 52 -5 103 -11 51 -7 109 -9 129 -5 l37 7 0 3419 0
3420 -72 0 c-40 0 -103 3 -140 7 l-68 6 0 633 0 634 -90 0 -90 0 0 -634z m241
-774 l37 -4 -2 -3279 c-1 -3272 -1 -3279 -21 -3279 -11 0 -90 9 -175 20 -85
11 -158 20 -162 20 -5 0 -8 1470 -8 3266 l0 3265 148 -2 c81 -1 163 -4 183 -7z"/>
</g>
</svg>
