<?xml version="1.0" standalone="no"?>
<!DOCTYPE svg PUBLIC "-//W3C//DTD SVG 20010904//EN"
 "http://www.w3.org/TR/2001/REC-SVG-20010904/DTD/svg10.dtd">
<svg version="1.0" xmlns="http://www.w3.org/2000/svg"
 width="3542.000000pt" height="3750.000000pt" viewBox="0 0 3542.000000 3750.000000"
 preserveAspectRatio="xMidYMid meet">

<g transform="translate(0.000000,3750.000000) scale(0.100000,-0.100000)"
fill="#C5C3C1" stroke="none">
<path d="M3580 17711 l0 -779 -42 -4 c-24 -3 -101 -6 -173 -7 -71 -1 -131 -3
-132 -4 -3 -3 -6 -4205 -4 -6339 l1 -2057 53 -6 c30 -4 94 0 154 9 57 9 112
16 123 16 20 0 20 -6 20 -644 0 -354 -3 -652 -6 -661 -4 -10 -37 -30 -73 -47
-55 -24 -63 -31 -48 -39 9 -6 24 -23 32 -40 21 -39 4 -77 -48 -104 -36 -19
-37 -22 -37 -75 l0 -56 113 -28 112 -29 165 27 c91 15 173 30 183 32 14 4 17
17 17 65 0 52 -2 59 -19 59 -11 0 -33 12 -50 26 -41 34 -42 73 -1 108 l30 25
-44 20 c-24 10 -54 22 -65 26 -12 3 -21 13 -21 21 0 8 -5 14 -10 14 -7 0 -9
224 -8 668 l3 667 35 7 c19 5 96 17 169 28 74 11 136 22 137 23 5 5 13 8275 8
8293 -5 19 -14 19 -175 16 l-169 -4 0 29 c-1 15 -1 364 -2 776 l0 747 -114 0
-114 0 0 -779z m350 -4930 l0 -3999 -42 -6 c-24 -3 -63 -9 -88 -12 -25 -3
-103 -14 -175 -25 -71 -10 -140 -19 -152 -19 l-23 0 1 4020 0 4020 27 1 c50 3
347 15 400 17 l52 2 0 -3999z"/>
</g>
</svg>
