<?xml version="1.0" standalone="no"?>
<!DOCTYPE svg PUBLIC "-//W3C//DTD SVG 20010904//EN"
 "http://www.w3.org/TR/2001/REC-SVG-20010904/DTD/svg10.dtd">
<svg version="1.0" xmlns="http://www.w3.org/2000/svg"
 width="3542.000000pt" height="3750.000000pt" viewBox="0 0 3542.000000 3750.000000"
 preserveAspectRatio="xMidYMid meet">

<g transform="translate(0.000000,3750.000000) scale(0.100000,-0.100000)"
fill="#C5C3C1" stroke="none">
<path d="M10020 17865 l0 -715 -92 -2 c-51 0 -106 -2 -123 -4 -16 -1 -43 -2
-58 -3 l-28 -1 3 -3835 3 -3835 45 -6 c25 -4 81 -2 126 4 44 7 90 12 102 12
l22 0 0 -595 c0 -582 0 -595 -20 -615 -11 -11 -24 -20 -29 -20 -5 0 -25 -7
-46 -16 l-37 -15 26 -24 c35 -32 35 -77 0 -104 -15 -12 -35 -21 -45 -21 -16 0
-19 -8 -19 -54 0 -63 -12 -55 136 -86 l100 -21 125 21 c199 33 179 23 179 85
0 48 -2 53 -25 59 -32 8 -65 44 -65 71 0 23 33 65 53 66 7 0 -13 11 -43 25
-99 45 -90 -19 -90 669 0 475 3 607 13 610 6 3 71 13 142 23 l130 18 5 50 c3
27 5 1739 5 3804 l0 3755 -139 -4 c-87 -2 -141 0 -145 7 -3 5 -6 326 -5 711
l1 701 -104 0 -103 0 0 -715z m290 -2732 c0 -5135 0 -5427 -10 -5433 -5 -3
-85 -16 -177 -29 -93 -12 -174 -24 -180 -27 -10 -3 -13 737 -13 3676 l0 3679
98 4 c53 1 139 4 190 5 l92 2 0 -1877z"/>
</g>
</svg>
