<?xml version="1.0" standalone="no"?>
<!DOCTYPE svg PUBLIC "-//W3C//DTD SVG 20010904//EN"
 "http://www.w3.org/TR/2001/REC-SVG-20010904/DTD/svg10.dtd">
<svg version="1.0" xmlns="http://www.w3.org/2000/svg"
 width="3542.000000pt" height="3750.000000pt" viewBox="0 0 3542.000000 3750.000000"
 preserveAspectRatio="xMidYMid meet">

<g transform="translate(0.000000,3750.000000) scale(0.100000,-0.100000)"
fill="#65340A" stroke="none">
<path d="M15450 16602 c0 -2037 0 -2059 -20 -2077 -29 -26 -33 -51 -13 -85 16
-28 16 -32 0 -59 -22 -38 -22 -43 10 -77 33 -35 37 -75 12 -126 -11 -21 -19
-50 -19 -65 0 -18 -14 -46 -41 -78 -78 -94 -84 -126 -43 -207 l26 -52 -32 -62
c-29 -57 -31 -66 -20 -98 6 -19 33 -63 61 -97 38 -48 49 -69 49 -98 0 -20 7
-46 15 -58 8 -12 17 -39 19 -60 3 -32 -1 -44 -25 -68 -32 -31 -37 -56 -14 -75
20 -16 19 -40 -2 -69 -15 -22 -15 -26 2 -57 10 -19 22 -34 27 -34 4 0 8 -861
8 -1914 0 -1625 -2 -1917 -14 -1929 -8 -7 -35 -21 -60 -31 l-47 -18 26 -24
c14 -12 25 -32 25 -44 0 -24 -42 -70 -65 -70 -16 0 -17 -4 -19 -62 -1 -32 2
-38 24 -42 203 -38 209 -38 336 -17 67 12 124 21 128 21 3 0 6 23 6 50 0 42
-3 50 -18 50 -26 0 -62 41 -62 70 0 13 10 34 21 46 l21 23 -37 15 c-21 9 -40
16 -44 16 -4 0 -15 9 -24 21 -17 20 -18 112 -16 1922 l2 1901 28 39 29 40 -20
32 c-17 28 -18 34 -5 51 8 10 15 27 15 36 0 27 -22 68 -37 68 -20 0 -16 75 7
120 11 22 20 47 20 58 0 10 23 48 51 85 64 83 74 134 39 215 l-22 51 21 44
c37 76 24 136 -49 222 -31 36 -50 69 -50 85 0 14 -7 34 -15 44 -18 24 -20 116
-4 116 16 0 38 31 39 53 0 10 -7 29 -16 42 -15 23 -15 27 0 50 22 33 20 52 -7
89 l-22 31 0 2053 0 2052 -92 0 -93 0 0 -2058z m122 -2499 c23 -21 23 -51 -1
-82 l-18 -24 -28 37 -28 37 23 24 c28 30 28 30 52 8z m-101 -132 l26 -37 -44
-47 c-24 -26 -48 -47 -54 -47 -16 0 -9 83 11 128 10 23 23 42 27 42 4 -1 20
-18 34 -39z m202 2 c22 -50 32 -113 19 -113 -6 0 -25 18 -42 40 -30 38 -31 42
-19 75 7 19 16 35 19 35 4 0 14 -17 23 -37z m-59 -150 l45 -47 -27 -31 c-15
-17 -38 -39 -50 -49 -24 -18 -24 -18 -73 30 l-49 48 47 48 c26 26 51 48 55 48
4 0 27 -21 52 -47z m-161 -160 l44 -47 -26 -37 c-14 -21 -29 -38 -34 -39 -4 0
-16 15 -27 33 -21 34 -29 137 -11 137 6 0 30 -21 54 -47z m244 -18 c-4 -25
-14 -60 -23 -77 l-17 -32 -19 38 c-21 40 -20 41 26 94 30 34 39 27 33 -23z
m-97 -164 c0 -10 -11 -28 -24 -40 l-25 -23 -25 28 c-14 16 -26 32 -26 36 0 3
12 21 27 38 l27 33 23 -27 c13 -15 23 -35 23 -45z"/>
</g>
</svg>
