<?xml version="1.0" standalone="no"?>
<!DOCTYPE svg PUBLIC "-//W3C//DTD SVG 20010904//EN"
 "http://www.w3.org/TR/2001/REC-SVG-20010904/DTD/svg10.dtd">
<svg version="1.0" xmlns="http://www.w3.org/2000/svg"
 width="3542.000000pt" height="3750.000000pt" viewBox="0 0 3542.000000 3750.000000"
 preserveAspectRatio="xMidYMid meet">

<g transform="translate(0.000000,3750.000000) scale(0.100000,-0.100000)"
fill="#65340A" stroke="none">
<path d="M3580 16055 l0 -2446 -20 -22 c-31 -33 -35 -65 -15 -104 18 -32 18
-36 2 -63 -9 -15 -17 -36 -17 -45 0 -25 32 -75 48 -75 11 0 13 -13 9 -57 -11
-114 -17 -129 -84 -210 -95 -113 -102 -144 -56 -238 l27 -55 -38 -71 c-32 -60
-38 -78 -33 -114 4 -44 8 -51 84 -144 39 -48 42 -54 36 -99 -5 -43 -2 -52 31
-95 30 -40 36 -55 36 -97 0 -29 -4 -50 -11 -50 -18 0 -48 -44 -49 -71 0 -15 7
-32 15 -39 8 -7 15 -23 15 -35 0 -12 -7 -28 -15 -35 -25 -20 -18 -64 14 -96
l30 -29 0 -2258 c1 -2008 -1 -2260 -14 -2281 -9 -13 -42 -34 -74 -47 l-59 -23
29 -27 c17 -16 29 -37 29 -52 0 -34 -34 -74 -70 -82 -29 -6 -30 -8 -30 -65 l0
-58 83 -21 c45 -12 95 -26 110 -31 20 -7 80 0 212 22 l185 32 0 57 c0 53 -2
57 -26 63 -37 10 -74 50 -74 82 0 16 11 37 30 54 l30 28 -58 21 c-32 12 -65
30 -74 40 -13 16 -15 273 -15 2289 0 1689 3 2272 11 2272 15 0 46 53 46 78 0
11 -7 25 -15 32 -19 16 -19 49 0 74 8 11 15 29 15 40 -1 23 -32 66 -49 66 -20
0 -13 105 9 133 28 35 50 90 50 123 0 16 16 48 40 79 86 112 100 198 48 301
-25 50 -25 51 -7 85 25 48 25 129 -2 181 -12 23 -43 64 -69 92 -27 29 -55 71
-64 96 -20 57 -21 140 -3 140 7 0 23 17 35 38 19 34 19 40 7 62 -8 14 -17 31
-21 38 -4 8 2 30 14 50 22 41 18 62 -17 99 l-21 22 0 2446 0 2445 -115 0 -115
0 0 -2445z m160 -2982 c0 -20 -19 -53 -30 -53 -5 0 -18 14 -30 31 l-22 30 23
25 24 25 17 -21 c10 -12 18 -29 18 -37z m-147 -198 c-26 -30 -54 -55 -60 -55
-20 0 -15 69 8 119 33 74 38 76 70 31 l30 -41 -48 -54z m247 96 c10 -22 22
-59 26 -83 l6 -43 -46 48 -46 47 17 35 c9 19 18 35 20 35 1 0 12 -18 23 -39z
m-51 -175 l53 -53 -58 -61 -59 -62 -64 59 -64 60 59 55 c33 30 64 55 69 55 6
0 34 -24 64 -53z m-151 -242 c3 -13 -66 -99 -81 -99 -5 0 -19 12 -30 27 -25
33 -35 134 -17 167 11 22 13 21 68 -31 31 -29 58 -58 60 -64z m250 34 c-3 -41
-12 -88 -22 -107 l-18 -34 -29 53 -28 52 46 54 c26 30 49 54 51 54 3 0 3 -33
0 -72z m-134 -151 c35 -45 33 -67 -9 -107 l-35 -34 -42 41 -41 41 39 46 c21
25 44 46 51 46 6 0 23 -15 37 -33z"/>
</g>
</svg>
