<?xml version="1.0" standalone="no"?>
<!DOCTYPE svg PUBLIC "-//W3C//DTD SVG 20010904//EN"
 "http://www.w3.org/TR/2001/REC-SVG-20010904/DTD/svg10.dtd">
<svg version="1.0" xmlns="http://www.w3.org/2000/svg"
 width="2550.000000pt" height="2700.000000pt" viewBox="0 0 2550.000000 2700.000000"
 preserveAspectRatio="xMidYMid meet">

<g transform="translate(0.000000,2700.000000) scale(0.100000,-0.100000)"
fill="#C5C3C1" stroke="none">
<path d="M10300 15003 c0 -1141 -1 -1179 -19 -1203 -14 -18 -17 -29 -10 -42 6
-10 7 -33 4 -51 -5 -24 -2 -37 9 -46 22 -18 20 -53 -5 -96 -12 -19 -18 -42
-15 -51 4 -9 -7 -32 -28 -57 -48 -60 -52 -80 -23 -132 22 -38 23 -46 11 -62
-27 -35 -17 -87 26 -139 50 -61 62 -120 32 -159 -18 -22 -19 -30 -10 -51 9
-19 9 -30 0 -44 -9 -15 -7 -23 8 -43 20 -25 20 -50 20 -1315 l0 -1291 -26 -20
c-15 -12 -34 -21 -42 -21 -13 0 -13 -3 1 -18 24 -26 21 -47 -8 -70 -15 -12
-25 -30 -25 -45 0 -24 2 -25 93 -32 61 -4 115 -2 155 5 58 12 62 14 62 41 0
19 -6 30 -20 34 -25 8 -37 50 -20 70 14 17 15 17 -23 33 -16 7 -39 9 -53 6
-13 -3 -24 -2 -24 4 0 5 9 12 20 15 20 5 20 14 20 1290 0 1206 1 1287 18 1316
13 23 14 35 6 48 -7 12 -8 25 0 45 8 22 7 31 -7 46 -33 36 -18 102 38 164 38
41 44 77 23 123 -10 21 -9 31 5 55 26 43 21 91 -13 138 -16 23 -30 52 -30 64
0 13 -9 38 -20 56 -24 39 -26 75 -5 92 18 15 19 42 3 58 -8 8 -8 15 2 26 13
17 6 66 -10 66 -7 0 -10 417 -10 1185 l0 1185 -55 0 -55 0 0 -1177z m100
-1522 c-1 -3 -10 -17 -21 -30 l-20 -25 -27 27 -26 26 24 26 24 25 23 -22 c13
-12 23 -24 23 -27z m-98 -69 c17 -28 17 -30 -10 -55 -16 -15 -31 -27 -35 -27
-9 0 -9 72 -1 94 9 24 28 19 46 -12z m148 9 c12 -23 14 -91 2 -91 -5 0 -19 14
-31 31 -20 27 -22 34 -10 55 15 29 25 30 39 5z m-58 -98 c36 -34 35 -45 -3
-77 l-31 -26 -33 27 c-19 16 -34 31 -34 36 -1 7 60 66 68 67 3 0 18 -12 33
-27z m-81 -162 c-7 -11 -15 -21 -20 -21 -12 0 -31 47 -31 78 l0 27 31 -31 c27
-27 29 -34 20 -53z m139 48 c0 -17 -14 -54 -26 -68 -3 -3 -10 4 -18 15 -12 16
-12 22 6 46 23 33 38 36 38 7z m-74 -94 c4 -8 0 -22 -7 -31 -10 -13 -14 -13
-26 -1 -16 16 -7 47 13 47 8 0 17 -7 20 -15z"/>
</g>
</svg>
