<?xml version="1.0" standalone="no"?>
<!DOCTYPE svg PUBLIC "-//W3C//DTD SVG 20010904//EN"
 "http://www.w3.org/TR/2001/REC-SVG-20010904/DTD/svg10.dtd">
<svg version="1.0" xmlns="http://www.w3.org/2000/svg"
 width="2550.000000pt" height="2700.000000pt" viewBox="0 0 2550.000000 2700.000000"
 preserveAspectRatio="xMidYMid meet">

<g transform="translate(0.000000,2700.000000) scale(0.100000,-0.100000)"
fill="#C5C3C1" stroke="none">
<path d="M2700 11899 l0 -1711 -25 -30 c-24 -28 -24 -31 -9 -57 15 -26 15 -30
0 -53 -16 -25 -16 -27 9 -56 14 -17 25 -42 25 -58 0 -54 -61 -181 -103 -215
-24 -20 -25 -77 -2 -129 16 -35 16 -39 -5 -83 -29 -62 -22 -100 35 -166 25
-29 45 -62 45 -74 1 -12 7 -33 15 -47 16 -28 20 -90 6 -90 -5 0 -16 -11 -25
-25 -16 -24 -16 -27 0 -54 15 -26 15 -30 0 -53 -16 -25 -16 -27 9 -56 l25 -30
0 -1672 c0 -1023 -4 -1678 -9 -1689 -6 -10 -28 -26 -51 -36 -36 -16 -39 -20
-26 -34 14 -16 19 -34 17 -59 0 -7 -17 -22 -36 -33 -29 -17 -35 -27 -35 -55 0
-21 5 -34 13 -34 6 0 59 -4 117 -10 95 -8 114 -7 200 14 l94 23 0 39 c0 32 -3
39 -24 44 -14 3 -31 18 -40 32 -13 25 -13 29 9 51 l23 25 -36 12 c-20 6 -43
18 -51 27 -13 13 -15 218 -15 1690 l0 1675 25 30 c24 28 24 31 9 57 -15 26
-15 30 0 53 16 25 16 27 -9 56 -31 36 -32 74 -4 119 12 18 19 42 16 52 -2 11
13 41 40 77 59 79 62 98 30 156 l-27 48 20 40 c33 65 27 100 -29 162 -47 51
-54 69 -68 160 -4 28 0 41 16 57 24 24 26 43 9 71 -10 16 -9 25 5 49 16 28 16
29 -8 55 l-25 27 0 1710 0 1709 -75 0 -75 0 0 -1711z m98 -2076 c15 -22 17
-34 10 -55 -5 -16 -14 -28 -19 -28 -6 0 -8 4 -5 9 3 5 -2 8 -11 7 -9 0 -24 11
-32 26 -14 24 -14 28 3 47 25 27 31 26 54 -6z m93 -109 c13 -28 18 -55 14 -71
l-6 -25 -39 34 c-21 18 -39 37 -39 41 -1 10 38 67 45 67 3 0 14 -21 25 -46z
m-189 11 c9 -21 7 -29 -16 -60 -30 -39 -46 -45 -46 -15 0 27 30 100 41 100 5
0 14 -11 21 -25z m157 -171 c1 -5 -15 -25 -34 -44 -19 -19 -35 -29 -35 -23 0
6 -9 9 -21 6 -14 -4 -31 4 -55 28 -19 18 -34 38 -34 45 0 7 19 28 42 48 l41
36 48 -43 c26 -23 47 -47 48 -53z m48 -90 c-2 -24 -12 -55 -21 -69 l-17 -26
-24 30 c-14 16 -25 33 -25 37 0 15 73 83 83 77 5 -3 7 -25 4 -49z m-224 1 c27
-33 28 -35 12 -64 -8 -17 -18 -31 -20 -31 -12 0 -35 63 -35 95 0 43 7 43 43 0z
m114 -114 l22 -27 -24 -30 -24 -29 -27 26 c-26 27 -26 27 -8 58 22 38 33 38
61 2z"/>
</g>
</svg>
