<?xml version="1.0" standalone="no"?>
<!DOCTYPE svg PUBLIC "-//W3C//DTD SVG 20010904//EN"
 "http://www.w3.org/TR/2001/REC-SVG-20010904/DTD/svg10.dtd">
<svg version="1.0" xmlns="http://www.w3.org/2000/svg"
 width="2550.000000pt" height="2700.000000pt" viewBox="0 0 2550.000000 2700.000000"
 preserveAspectRatio="xMidYMid meet">

<g transform="translate(0.000000,2700.000000) scale(0.100000,-0.100000)"
fill="#C5C3C1" stroke="none">
<path d="M24399 26978 c-1 -7 -2 -594 -3 -1303 -1 -1204 -3 -1292 -19 -1315
-20 -29 -22 -53 -5 -80 10 -16 10 -24 0 -40 -17 -28 -15 -51 8 -80 29 -37 25
-66 -20 -132 -30 -45 -40 -70 -40 -99 0 -27 -9 -51 -29 -79 -54 -75 -60 -167
-15 -236 11 -16 13 -36 8 -73 -9 -68 13 -124 71 -181 38 -37 45 -50 45 -82 0
-25 -7 -45 -20 -58 -22 -22 -26 -60 -9 -77 8 -8 7 -21 -2 -47 -12 -32 -11 -40
6 -69 19 -31 19 -78 20 -2165 0 -1958 -1 -2135 -16 -2151 -9 -10 -30 -23 -47
-30 l-31 -13 21 -29 c18 -24 20 -32 10 -54 -7 -14 -23 -30 -37 -35 -14 -5 -25
-16 -25 -25 0 -13 20 -15 138 -14 118 1 287 13 241 18 -20 1 -59 43 -59 63 0
8 9 26 19 39 l19 25 -43 17 c-27 12 -45 26 -49 40 -3 12 -6 978 -6 2145 0
2109 0 2124 20 2149 23 29 25 54 8 71 -9 9 -9 20 1 48 10 28 10 42 1 65 -7 16
-16 29 -21 29 -5 0 -9 24 -9 54 0 51 3 57 55 115 67 75 73 97 48 159 l-19 47
38 59 c21 32 38 67 38 76 0 9 -22 48 -49 87 -33 48 -46 75 -40 84 21 33 9 79
-31 123 -46 49 -53 91 -20 121 22 20 26 55 8 73 -9 9 -8 21 2 51 11 36 11 42
-9 69 l-21 30 0 1305 0 1305 -22 6 c-41 11 -108 7 -109 -6z m125 -2994 c5 -14
4 -15 -9 -4 -17 14 -19 20 -6 20 5 0 12 -7 15 -16z m-45 -80 l34 -35 -39 -40
c-21 -21 -41 -39 -45 -39 -9 0 -49 63 -49 77 0 10 52 73 60 73 3 0 21 -16 39
-36z m136 -165 c5 -29 2 -41 -17 -64 l-24 -27 -47 43 -48 43 43 43 42 43 22
-22 c13 -13 26 -39 29 -59z m-252 32 c17 -38 17 -39 -5 -74 -27 -43 -34 -45
-42 -13 -6 26 11 126 22 126 4 0 15 -18 25 -39z m114 -133 l42 -43 -40 -43
-40 -42 -34 26 c-40 30 -52 58 -34 82 25 33 53 62 59 62 3 0 25 -19 47 -42z
m103 -129 c0 -30 -34 -99 -48 -99 -4 0 -14 11 -24 23 -15 22 -15 25 19 65 41
50 53 52 53 11z m-194 -46 c7 -10 13 -27 13 -38 0 -19 -1 -19 -19 4 -19 22
-27 51 -14 51 4 0 13 -8 20 -17z m84 -109 c0 -8 -4 -12 -10 -9 -5 3 -10 13
-10 21 0 8 5 12 10 9 6 -3 10 -13 10 -21z"/>
</g>
</svg>
