<?xml version="1.0" standalone="no"?>
<!DOCTYPE svg PUBLIC "-//W3C//DTD SVG 20010904//EN"
 "http://www.w3.org/TR/2001/REC-SVG-20010904/DTD/svg10.dtd">
<svg version="1.0" xmlns="http://www.w3.org/2000/svg"
 width="2550.000000pt" height="2700.000000pt" viewBox="0 0 2550.000000 2700.000000"
 preserveAspectRatio="xMidYMid meet">

<g transform="translate(0.000000,2700.000000) scale(0.100000,-0.100000)"
fill="#C5C3C1" stroke="none">
<path d="M13260 13338 c0 -123 0 -967 0 -1876 l0 -1653 -26 -34 c-25 -34 -25
-34 -8 -65 18 -29 18 -31 1 -60 -19 -31 -14 -53 17 -80 24 -19 20 -74 -9 -108
-27 -33 -43 -86 -27 -95 5 -4 24 14 41 38 18 25 36 45 41 45 30 0 11 -31 -67
-113 -101 -105 -123 -143 -103 -185 49 -104 48 -103 67 -73 9 14 9 29 2 53
-11 38 4 110 27 129 12 9 21 4 49 -27 19 -21 34 -48 35 -60 0 -13 -30 -51 -79
-100 -91 -93 -103 -122 -72 -181 12 -21 39 -59 61 -84 36 -41 41 -53 47 -112
3 -39 2 -67 -3 -67 -6 0 -17 -13 -26 -28 -15 -25 -15 -31 -1 -60 14 -29 14
-34 -1 -57 -18 -27 -12 -49 18 -74 14 -12 16 -210 16 -1910 0 -2083 5 -1924
-60 -1951 -25 -11 -30 -17 -25 -34 18 -57 17 -67 -5 -92 -13 -13 -29 -24 -37
-24 -9 0 -13 -14 -13 -44 0 -51 -2 -51 172 -62 101 -6 112 -5 183 21 l75 28 0
43 c0 32 -4 44 -15 44 -22 0 -55 37 -55 62 0 12 9 32 21 44 l21 22 -31 7 c-16
3 -41 15 -55 26 l-26 20 0 1890 0 1890 26 39 c25 38 25 40 9 68 -16 27 -16 30
-1 55 19 27 13 51 -18 77 -19 15 -21 91 -4 123 6 12 31 44 54 70 58 65 72 116
50 179 -16 46 -16 47 10 95 35 66 29 117 -23 192 -25 35 -42 72 -46 99 -3 23
-17 58 -31 77 -26 34 -37 105 -16 105 5 0 17 14 25 31 15 28 15 33 0 56 -16
24 -16 27 1 58 17 32 17 33 -7 66 l-24 34 0 1870 0 1870 -77 3 -78 3 0 -223z
m123 -4049 c-14 -22 -29 -39 -33 -39 -5 0 -22 17 -39 38 l-30 38 32 32 31 32
32 -31 33 -32 -26 -38z m88 -46 c19 -50 28 -117 18 -135 -11 -21 -31 -24 -23
-4 3 8 -8 30 -25 49 -36 40 -37 45 -13 86 21 38 30 39 43 4z m49 -13 c0 -19
-11 -26 -23 -14 -8 8 3 34 14 34 5 0 9 -9 9 -20z m-119 -129 c22 -21 39 -43
39 -48 0 -5 -19 -27 -42 -50 l-43 -42 -50 44 -50 44 45 45 c24 26 48 46 53 46
5 0 27 -17 48 -39z m-142 -153 c35 -39 38 -44 25 -62 -18 -26 -18 -37 1 -29
11 4 9 -4 -7 -30 -24 -37 -40 -40 -31 -7 3 11 -1 30 -9 42 -32 49 -46 128 -24
128 3 0 23 -19 45 -42z m251 35 c-1 -28 -15 -53 -30 -53 -15 0 -36 -40 -32
-61 1 -4 -7 -14 -17 -23 -17 -16 -19 -15 -24 20 -5 28 -1 44 14 65 25 35 89
72 89 52z m-145 -163 c7 -23 -12 -63 -27 -58 -26 9 -33 36 -14 57 24 26 33 26
41 1z"/>
</g>
</svg>
