<?xml version="1.0" standalone="no"?>
<!DOCTYPE svg PUBLIC "-//W3C//DTD SVG 20010904//EN"
 "http://www.w3.org/TR/2001/REC-SVG-20010904/DTD/svg10.dtd">
<svg version="1.0" xmlns="http://www.w3.org/2000/svg"
 width="2550.000000pt" height="2700.000000pt" viewBox="0 0 2550.000000 2700.000000"
 preserveAspectRatio="xMidYMid meet">

<g transform="translate(0.000000,2700.000000) scale(0.100000,-0.100000)"
fill="#C5C3C1" stroke="none">
<path d="M12850 11703 c0 -1819 -1 -1848 -20 -1873 -24 -30 -25 -48 -4 -71 14
-16 14 -20 0 -48 -21 -40 -20 -45 9 -72 34 -33 32 -74 -5 -123 -18 -24 -30
-51 -30 -70 l0 -31 44 50 c34 39 47 47 56 38 10 -9 -8 -32 -79 -103 -114 -115
-125 -143 -87 -218 29 -57 35 -61 53 -33 9 14 9 28 1 54 -9 29 -8 45 6 82 10
25 23 45 29 45 16 0 77 -75 77 -93 0 -8 -36 -51 -79 -94 -113 -113 -116 -142
-27 -245 66 -77 84 -168 41 -214 -29 -31 -31 -42 -9 -72 14 -20 14 -25 -2 -52
-18 -29 -17 -30 4 -60 l22 -30 0 -1866 c0 -1131 -4 -1872 -9 -1883 -6 -10 -28
-26 -51 -36 l-40 -18 20 -22 c11 -12 20 -30 20 -41 0 -22 -38 -64 -58 -64 -7
0 -12 -17 -12 -44 l0 -44 78 -7 c42 -4 103 -10 134 -14 48 -6 66 -4 114 16 32
13 63 23 71 23 7 0 18 12 23 26 12 30 3 74 -14 74 -18 0 -56 43 -56 63 0 9 9
26 20 37 26 26 25 27 -7 35 -16 3 -38 13 -50 21 l-23 14 0 1871 c0 1856 0
1870 20 1891 21 23 26 53 10 63 -5 3 -10 17 -10 30 0 13 5 27 10 30 18 11 11
43 -16 74 -37 45 -28 104 27 167 47 54 79 114 79 146 -1 13 -7 41 -15 62 -13
38 -13 41 16 82 45 65 36 117 -34 207 -17 22 -31 53 -33 73 -1 19 -12 51 -25
72 -37 63 -41 98 -13 131 26 32 31 60 12 79 -9 9 -9 20 1 48 11 30 11 41 0 60
-7 13 -16 24 -21 24 -4 0 -8 833 -8 1850 l0 1850 -80 0 -80 0 0 -1847z m124
-2282 l28 -30 -22 -35 c-12 -20 -27 -36 -35 -36 -7 0 -25 16 -40 36 l-27 36
28 29 c15 16 31 29 34 29 3 0 19 -13 34 -29z m88 -108 c20 -51 26 -126 12
-148 -14 -19 -14 -19 -14 5 0 13 -14 38 -31 56 l-30 31 21 42 c12 22 24 41 26
41 3 0 10 -12 16 -27z m58 -24 c0 -10 -7 -19 -15 -19 -15 0 -21 31 -9 43 11
10 24 -3 24 -24z m-130 -115 c22 -20 40 -44 40 -53 0 -9 -18 -35 -40 -56 l-40
-39 -47 47 -47 47 44 45 c24 25 45 45 47 45 2 0 21 -16 43 -36z m-135 -154
l39 -40 -18 -32 c-17 -28 -17 -31 -3 -25 24 9 21 -3 -9 -38 l-26 -30 6 27 c4
18 -2 40 -19 70 -24 41 -34 108 -17 108 4 0 26 -18 47 -40z m245 11 c0 -20
-16 -36 -35 -36 -5 0 -14 -17 -20 -37 -6 -21 -19 -46 -29 -55 -17 -17 -18 -17
-12 4 4 12 2 32 -5 44 -10 20 -7 27 29 61 45 42 72 49 72 19z m-140 -155 c0
-41 -16 -55 -38 -33 -13 13 -13 21 -4 42 17 38 42 32 42 -9z"/>
</g>
</svg>
