<?xml version="1.0" standalone="no"?>
<!DOCTYPE svg PUBLIC "-//W3C//DTD SVG 20010904//EN"
 "http://www.w3.org/TR/2001/REC-SVG-20010904/DTD/svg10.dtd">
<svg version="1.0" xmlns="http://www.w3.org/2000/svg"
 width="2550.000000pt" height="2700.000000pt" viewBox="0 0 2550.000000 2700.000000"
 preserveAspectRatio="xMidYMid meet">

<g transform="translate(0.000000,2700.000000) scale(0.100000,-0.100000)"
fill="#C5C3C1" stroke="none">
<path d="M13686 14057 l-69 -112 2 -1198 1 -1198 -26 -34 c-25 -33 -25 -35 -9
-63 16 -26 16 -31 1 -60 -15 -30 -15 -32 9 -60 31 -37 32 -74 1 -115 -27 -37
-37 -70 -26 -87 5 -8 16 -1 35 24 15 20 31 36 37 36 14 0 -6 -31 -50 -75 -62
-63 -112 -134 -112 -161 0 -14 12 -48 26 -76 24 -47 27 -50 37 -32 6 10 12 49
12 86 0 50 4 72 17 85 17 16 19 16 47 -17 39 -46 33 -70 -34 -140 -65 -68 -89
-113 -81 -152 3 -17 29 -59 57 -94 43 -54 51 -72 56 -118 5 -46 2 -57 -16 -77
-24 -26 -27 -50 -9 -79 10 -16 10 -24 0 -40 -17 -29 -15 -54 8 -75 20 -18 20
-31 20 -1605 0 -1499 -1 -1588 -17 -1602 -10 -9 -33 -23 -51 -32 l-32 -17 21
-29 c21 -28 21 -30 4 -56 -9 -14 -26 -29 -36 -31 -15 -4 -19 -14 -19 -47 l0
-43 134 -9 c124 -8 139 -7 202 12 67 21 68 22 69 59 2 26 -3 38 -14 42 -48 17
-68 76 -36 103 23 19 19 26 -24 39 -21 6 -43 19 -47 29 -5 9 -9 726 -9 1592
l0 1575 24 33 c24 32 24 34 7 62 -16 28 -16 31 0 55 15 23 15 27 0 50 -9 14
-21 25 -26 25 -15 0 -12 76 4 113 7 18 26 43 41 57 59 54 80 133 50 190 -14
26 -13 31 10 72 40 70 34 122 -25 198 -16 20 -29 53 -33 78 -3 24 -17 60 -31
81 -25 36 -36 101 -17 101 5 0 16 11 25 25 15 23 15 28 1 55 -15 28 -14 33 2
60 17 29 16 30 -6 54 l-22 24 -2 1310 c-1 721 -4 1313 -7 1316 -3 2 -36 -46
-74 -107z m53 -2998 c-11 -16 -25 -31 -30 -35 -10 -6 -69 42 -69 57 0 4 12 22
26 39 l27 31 33 -32 33 -32 -20 -28z m79 -56 c14 -38 22 -112 12 -118 -4 -2
-22 14 -40 37 l-33 41 18 33 c22 41 29 42 43 7z m-66 -134 l40 -42 -43 -43
-42 -43 -43 37 c-24 20 -44 41 -44 46 0 13 71 86 84 86 5 0 27 -19 48 -41z
m-111 -198 c-7 -12 -9 -26 -6 -31 3 -6 -1 -20 -10 -32 -15 -21 -16 -22 -14 -3
2 11 -5 32 -15 48 -10 15 -21 49 -23 75 l-5 47 42 -41 c37 -37 41 -44 31 -63z
m179 68 c0 -5 5 -7 10 -4 6 3 10 1 10 -4 0 -6 -6 -11 -13 -11 -7 0 -19 -18
-27 -40 -17 -46 -31 -51 -44 -14 -7 21 -3 31 20 55 29 30 44 37 44 18z m-104
-134 c4 -15 1 -32 -6 -40 -11 -14 -15 -14 -31 1 -17 15 -17 18 -2 40 20 31 31
30 39 -1z"/>
</g>
</svg>
