<?xml version="1.0" standalone="no"?>
<!DOCTYPE svg PUBLIC "-//W3C//DTD SVG 20010904//EN"
 "http://www.w3.org/TR/2001/REC-SVG-20010904/DTD/svg10.dtd">
<svg version="1.0" xmlns="http://www.w3.org/2000/svg"
 width="2550.000000pt" height="2700.000000pt" viewBox="0 0 2550.000000 2700.000000"
 preserveAspectRatio="xMidYMid meet">

<g transform="translate(0.000000,2700.000000) scale(0.100000,-0.100000)"
fill="#C5C3C1" stroke="none">
<path d="M16773 20098 l-52 -53 1 -1413 c0 -1286 -1 -1415 -16 -1431 -19 -21
-21 -52 -4 -69 9 -9 9 -18 0 -37 -17 -38 -15 -63 8 -77 29 -19 25 -65 -11
-118 -20 -30 -29 -55 -27 -76 1 -22 -8 -44 -36 -82 -51 -70 -56 -113 -22 -179
25 -50 25 -53 10 -89 -22 -53 -12 -91 46 -162 65 -81 76 -135 36 -182 -24 -29
-25 -33 -11 -59 11 -23 12 -35 3 -59 -10 -25 -9 -35 6 -57 17 -26 18 -110 17
-1573 0 -1469 -1 -1548 -18 -1560 -10 -8 -30 -18 -45 -24 l-28 -10 20 -25 c28
-35 25 -47 -16 -81 -30 -25 -35 -35 -32 -63 l3 -34 150 -1 c83 -1 168 1 190 5
38 6 40 8 43 44 2 27 -1 37 -12 37 -17 0 -56 46 -56 66 0 8 9 23 19 33 19 19
19 19 -11 32 -17 7 -39 22 -49 33 -18 19 -19 66 -19 1552 0 1514 0 1532 20
1557 23 29 25 49 8 77 -10 15 -9 24 2 44 10 20 11 31 2 51 -6 14 -16 25 -22
25 -12 0 -13 70 -1 102 5 13 29 48 54 77 54 63 61 92 37 149 l-19 43 29 46
c40 63 38 93 -10 164 -28 41 -40 69 -40 94 0 39 -19 83 -44 104 -23 19 -20 74
4 96 22 20 26 55 9 72 -8 8 -7 21 2 47 12 33 11 38 -9 65 l-22 30 0 1455 c0
1316 -1 1454 -16 1460 -9 3 -17 6 -18 6 -1 0 -25 -24 -53 -52z m52 -3298 l29
-30 -30 -32 c-16 -18 -30 -35 -31 -37 -4 -6 -44 32 -55 52 -8 15 -4 25 18 48
15 16 31 29 34 29 3 0 19 -13 35 -30z m-108 -116 l23 -35 -33 -39 c-19 -23
-36 -35 -41 -30 -21 21 -2 141 22 140 4 -1 17 -17 29 -36z m201 9 c20 -50 19
-123 0 -122 -7 0 -28 18 -46 39 l-34 39 27 36 c33 42 39 43 53 8z m-48 -171
c0 -9 -73 -82 -82 -82 -12 0 -78 61 -78 73 0 6 16 28 36 49 l37 37 43 -36 c24
-19 44 -38 44 -41z m40 -94 c0 -18 -10 -49 -21 -68 l-22 -35 -15 33 c-15 32
-15 33 18 67 19 19 35 35 37 35 2 0 3 -15 3 -32z m-191 -18 c14 -20 20 -38 16
-50 -9 -30 -24 -24 -41 15 -27 66 -13 86 25 35z m89 -107 c11 -22 5 -43 -13
-43 -16 0 -26 25 -19 45 8 20 21 19 32 -2z"/>
</g>
</svg>
