<?xml version="1.0" standalone="no"?>
<!DOCTYPE svg PUBLIC "-//W3C//DTD SVG 20010904//EN"
 "http://www.w3.org/TR/2001/REC-SVG-20010904/DTD/svg10.dtd">
<svg version="1.0" xmlns="http://www.w3.org/2000/svg"
 width="2644.000000pt" height="2800.000000pt" viewBox="0 0 2644.000000 2800.000000"
 preserveAspectRatio="xMidYMid meet">

<g transform="translate(0.000000,2800.000000) scale(0.100000,-0.100000)"
fill="#65340A" stroke="none">
<path d="M1590 14020 c-7 -13 -9 -216 -8 -624 l3 -604 -72 -7 -73 -7 0 -2814
0 -2814 38 -1 c48 -2 43 -2 77 5 l30 6 0 -792 c0 -436 -4 -801 -8 -810 -5 -9
-29 -25 -53 -34 -50 -19 -52 -24 -24 -42 29 -18 25 -57 -7 -81 -16 -12 -33
-25 -39 -30 -6 -5 -11 -24 -10 -43 l1 -33 125 -11 c120 -10 128 -9 220 16 l95
26 3 39 c2 36 -1 41 -30 55 -42 19 -51 69 -18 93 21 14 20 15 -28 31 -30 10
-66 15 -93 12 l-44 -5 37 11 38 11 2 816 3 815 40 11 c22 5 55 19 73 30 l32
19 0 2768 0 2768 -75 0 -75 0 0 620 0 620 -75 0 c-64 0 -76 -3 -85 -20z m179
-1844 l1 -504 -62 -6 c-35 -3 -78 -5 -95 -3 l-33 2 0 502 0 502 28 4 c15 2 57
5 93 6 l67 1 1 -504z m-5 -642 c3 -9 6 -69 6 -134 l0 -117 -31 -7 c-17 -3 -60
-6 -95 -6 l-64 0 0 134 0 135 28 4 c15 2 55 5 88 6 48 1 63 -3 68 -15z m2
-1576 l1 -1196 -30 -6 c-16 -3 -58 -6 -93 -6 l-64 0 0 1199 c0 950 3 1200 13
1205 6 2 48 4 92 3 l80 -2 1 -1197z m-5 -1335 c1 -10 3 -70 4 -134 l3 -117
-30 -6 c-17 -3 -59 -6 -94 -6 l-64 0 0 134 c0 98 3 136 13 139 6 3 47 6 90 6
66 1 77 -1 78 -16z m2 -396 c7 -26 -1 -878 -7 -885 -5 -4 -154 -42 -168 -42
-5 0 -8 211 -8 469 0 366 3 470 13 474 6 3 46 6 88 6 72 1 77 -1 82 -22z"/>
</g>
</svg>
