<?xml version="1.0" standalone="no"?>
<!DOCTYPE svg PUBLIC "-//W3C//DTD SVG 20010904//EN"
 "http://www.w3.org/TR/2001/REC-SVG-20010904/DTD/svg10.dtd">
<svg version="1.0" xmlns="http://www.w3.org/2000/svg"
 width="2644.000000pt" height="2800.000000pt" viewBox="0 0 2644.000000 2800.000000"
 preserveAspectRatio="xMidYMid meet">

<g transform="translate(0.000000,2800.000000) scale(0.100000,-0.100000)"
fill="#65340A" stroke="none">
<path d="M3722 13421 c3 -613 3 -620 -17 -625 -11 -3 -41 -6 -67 -6 l-48 0 0
-2804 0 -2804 29 -7 c16 -3 45 -3 65 1 l36 6 0 -787 c0 -471 -4 -793 -9 -804
-6 -10 -28 -26 -51 -36 l-40 -18 21 -23 c28 -30 19 -68 -21 -89 -25 -13 -30
-21 -30 -54 0 -47 2 -48 160 -56 101 -4 124 -2 190 17 l75 23 3 43 c3 33 -1
44 -15 49 -52 18 -67 57 -33 88 11 10 20 21 20 24 0 4 -20 12 -45 19 -33 9
-46 18 -50 34 -3 13 -4 383 -3 822 l3 800 57 15 56 15 5 60 c2 34 5 1282 6
2774 l1 2712 -67 0 -68 0 3 615 2 615 -85 0 -85 0 2 -619z m158 -873 c1 -170
1 -699 0 -780 l0 -57 -66 -21 c-36 -11 -70 -20 -75 -20 -5 0 -9 214 -9 504 l0
505 33 4 c17 2 51 5 75 5 l42 2 0 -142z m0 -998 c1 -11 1 -60 1 -110 0 -49 0
-94 -1 -100 0 -8 -118 -50 -141 -50 -15 0 -11 226 4 238 7 6 35 13 62 17 28 3
52 10 53 15 6 18 22 10 22 -10z m0 -372 c1 -17 1 -1793 0 -2135 l0 -262 -66
-21 c-36 -11 -70 -20 -75 -20 -5 0 -9 500 -9 1199 0 959 3 1201 13 1209 7 6
35 13 62 17 28 3 52 10 53 15 5 14 22 12 22 -2z m0 -2638 l0 -99 -66 -21 c-36
-11 -70 -20 -75 -20 -15 0 -11 186 4 198 7 6 35 13 62 17 28 3 52 10 53 15 2
6 8 10 13 10 5 0 9 -45 9 -100z m2 -647 c2 -225 2 -434 0 -465 l-3 -58 -66
-20 c-36 -11 -69 -20 -74 -20 -5 0 -9 196 -9 460 l0 461 32 13 c18 8 38 12 45
9 7 -3 13 0 13 7 0 7 7 10 16 6 8 -3 12 -2 9 4 -3 6 3 10 14 10 20 0 21 -5 23
-407z"/>
</g>
</svg>
