<?xml version="1.0" standalone="no"?>
<!DOCTYPE svg PUBLIC "-//W3C//DTD SVG 20010904//EN"
 "http://www.w3.org/TR/2001/REC-SVG-20010904/DTD/svg10.dtd">
<svg version="1.0" xmlns="http://www.w3.org/2000/svg"
 width="2644.000000pt" height="2800.000000pt" viewBox="0 0 2644.000000 2800.000000"
 preserveAspectRatio="xMidYMid meet">

<g transform="translate(0.000000,2800.000000) scale(0.100000,-0.100000)"
fill="#65340A" stroke="none">
<path d="M15900 13961 c-7 -13 -10 -256 -10 -720 l0 -700 -42 -3 -43 -3 0
-3175 0 -3175 42 -3 43 -3 0 -876 c-1 -757 -3 -879 -16 -904 -8 -16 -18 -29
-22 -29 -4 0 -22 -9 -41 -21 l-33 -20 21 -23 c32 -34 27 -62 -19 -94 -38 -25
-40 -30 -37 -72 l2 -45 159 -14 160 -13 62 31 c59 29 62 33 66 72 4 40 -10 69
-32 69 -17 0 -40 32 -40 56 0 13 9 33 21 45 11 11 19 22 17 23 -1 2 -23 11
-48 20 -25 10 -48 23 -52 29 -4 7 -8 423 -8 925 l0 912 45 22 45 22 0 3138 0
3138 -45 -7 -45 -6 0 712 0 711 -70 0 c-58 0 -71 -3 -80 -19z m108 -2103 l-3
-563 -32 -3 -33 -3 0 560 c0 595 -2 568 48 570 l22 1 -2 -562z m0 -840 l-3
-143 -32 -3 -33 -3 0 140 c0 147 1 149 48 150 l23 1 -3 -142z m0 -1650 l-3
-1373 -32 -3 -33 -3 0 1370 c0 1086 3 1370 13 1374 6 3 22 6 35 6 l22 1 -2
-1372z m2 -1638 l0 -130 -35 0 -35 0 0 124 c0 130 1 134 48 135 22 1 22 -1 22
-129z m0 -793 l0 -523 -35 -17 -35 -17 0 534 c0 568 -2 543 48 545 l22 1 0
-523z"/>
</g>
</svg>
