<?xml version="1.0" standalone="no"?>
<!DOCTYPE svg PUBLIC "-//W3C//DTD SVG 20010904//EN"
 "http://www.w3.org/TR/2001/REC-SVG-20010904/DTD/svg10.dtd">
<svg version="1.0" xmlns="http://www.w3.org/2000/svg"
 width="2644.000000pt" height="2800.000000pt" viewBox="0 0 2644.000000 2800.000000"
 preserveAspectRatio="xMidYMid meet">

<g transform="translate(0.000000,2800.000000) scale(0.100000,-0.100000)"
fill="#65340A" stroke="none">
<path d="M21590 27521 l0 -478 -125 -13 -125 -13 2 -2971 3 -2971 125 1 125 2
-5 -857 c-3 -471 -8 -861 -13 -868 -4 -6 -23 -17 -42 -23 -38 -13 -43 -21 -20
-40 31 -26 9 -100 -31 -100 -8 0 -14 -10 -14 -26 l0 -27 83 6 c45 4 135 7 200
7 64 0 117 3 117 8 0 4 -13 15 -30 24 -41 23 -49 62 -20 93 l23 25 -35 15
c-74 30 -68 -49 -68 911 l0 864 48 0 c26 0 84 3 130 7 l82 6 0 2977 c0 2649
-2 2979 -15 2990 -15 12 -103 9 -207 -7 l-38 -6 0 472 0 471 -75 0 -75 0 0
-479z m280 -1150 l0 -549 -67 -6 c-38 -3 -128 -8 -200 -12 l-133 -6 0 541 c0
426 3 541 13 542 6 0 80 9 162 19 83 9 167 18 188 19 l37 1 0 -549z m0 -815
l0 -124 -67 -6 c-38 -3 -128 -8 -201 -12 l-133 -6 3 128 3 129 95 6 c52 3 141
6 198 7 l102 2 0 -124z m0 -1525 l0 -1259 -67 -6 c-38 -3 -128 -8 -201 -12
l-132 -6 2 1263 3 1264 95 6 c52 3 141 6 198 7 l102 2 0 -1259z m0 -1535 l0
-134 -67 -6 c-38 -3 -128 -8 -201 -12 l-133 -6 3 138 3 139 95 6 c52 3 141 6
198 7 l102 2 0 -134z m0 -770 l0 -493 -77 -6 c-43 -4 -133 -9 -201 -13 l-122
-7 2 499 3 499 95 6 c52 3 141 6 198 7 l102 2 0 -494z"/>
</g>
</svg>
