<?xml version="1.0" standalone="no"?>
<!DOCTYPE svg PUBLIC "-//W3C//DTD SVG 20010904//EN"
 "http://www.w3.org/TR/2001/REC-SVG-20010904/DTD/svg10.dtd">
<svg version="1.0" xmlns="http://www.w3.org/2000/svg"
 width="2644.000000pt" height="2800.000000pt" viewBox="0 0 2644.000000 2800.000000"
 preserveAspectRatio="xMidYMid meet">

<g transform="translate(0.000000,2800.000000) scale(0.100000,-0.100000)"
fill="#65340A" stroke="none">
<path d="M14787 13952 l-27 -28 0 -688 0 -688 -47 6 c-76 9 -125 9 -165 1
l-38 -7 0 -3143 0 -3143 38 -6 c20 -3 77 -8 125 -11 l88 -7 -2 -912 c0 -675
-4 -915 -12 -927 -7 -8 -31 -26 -54 -39 -41 -22 -55 -40 -33 -40 16 0 32 -41
26 -66 -4 -14 -22 -34 -41 -46 -31 -18 -35 -24 -35 -63 l0 -44 53 -5 c28 -4
101 -11 160 -16 l108 -10 70 35 69 35 0 46 c0 41 -3 46 -30 56 -53 18 -65 64
-27 102 l23 23 -47 18 c-32 11 -51 24 -55 38 -7 21 -13 1770 -7 1792 2 7 37 8
106 2 66 -5 110 -4 125 2 l22 11 0 3160 0 3160 -130 0 -130 0 3 713 2 712 -55
3 c-50 3 -58 0 -83 -26z m136 -1532 l107 0 0 -575 0 -575 -144 0 c-79 0 -164
3 -190 6 l-46 7 0 575 0 575 83 -6 c45 -4 130 -7 190 -7z m0 -1280 l107 0 0
-150 0 -150 -144 0 c-79 0 -164 3 -190 6 l-46 7 0 150 0 150 83 -6 c45 -4 130
-7 190 -7z m0 -430 l107 0 0 -1375 0 -1375 -144 0 c-79 0 -164 3 -190 6 l-46
7 0 1375 0 1375 83 -6 c45 -4 130 -7 190 -7z m0 -2880 l107 0 0 -145 0 -145
-144 0 c-79 0 -164 3 -190 6 l-46 7 0 145 0 145 83 -6 c45 -4 130 -7 190 -7z
m0 -420 l107 0 0 -521 0 -522 -67 7 c-38 3 -108 8 -158 11 -49 3 -105 8 -122
11 l-33 5 0 511 0 511 83 -6 c45 -4 130 -7 190 -7z"/>
</g>
</svg>
