<?xml version="1.0" standalone="no"?>
<!DOCTYPE svg PUBLIC "-//W3C//DTD SVG 20010904//EN"
 "http://www.w3.org/TR/2001/REC-SVG-20010904/DTD/svg10.dtd">
<svg version="1.0" xmlns="http://www.w3.org/2000/svg"
 width="2644.000000pt" height="2800.000000pt" viewBox="0 0 2644.000000 2800.000000"
 preserveAspectRatio="xMidYMid meet">

<g transform="translate(0.000000,2800.000000) scale(0.100000,-0.100000)"
fill="#65340A" stroke="none">
<path d="M14390 13298 c0 -532 -2 -673 -12 -680 -7 -4 -28 -8 -45 -8 l-33 0 0
-167 c0 -244 0 -5171 0 -5605 l0 -368 23 0 c12 0 32 -3 45 -6 l22 -6 0 -848
c0 -467 -3 -856 -6 -865 -4 -9 -28 -27 -55 -40 l-48 -25 24 -25 c14 -13 25
-29 25 -35 0 -23 -21 -50 -50 -65 -26 -14 -30 -21 -30 -59 l0 -43 63 -6 c221
-22 248 -21 314 10 l63 28 0 45 c-1 40 -5 47 -33 65 -39 25 -47 63 -17 90 28
25 26 30 -19 43 -21 7 -44 18 -50 25 -8 10 -11 267 -11 902 l0 888 40 18 40
18 -2 3028 -3 3028 -30 0 c-16 0 -36 4 -42 8 -10 6 -12 152 -10 668 l2 659
-82 0 -83 0 0 -672z m120 -1343 l0 -545 -40 0 -40 0 0 539 c0 593 -5 547 58
550 l22 1 0 -545z m0 -810 l0 -135 -40 0 -40 0 0 129 c0 140 -1 137 58 140 22
1 22 0 22 -134z m0 -1580 l0 -1315 -40 0 -40 0 0 1309 c0 1239 1 1310 18 1314
9 3 27 5 40 6 l22 1 0 -1315z m0 -1570 l0 -125 -40 0 -40 0 0 119 c0 129 -1
127 58 130 22 1 22 -1 22 -124z m0 -780 l0 -525 -36 -15 c-20 -8 -38 -15 -40
-15 -2 0 -4 240 -4 534 0 588 -5 542 58 545 l22 1 0 -525z"/>
</g>
</svg>
