<?xml version="1.0" standalone="no"?>
<!DOCTYPE svg PUBLIC "-//W3C//DTD SVG 20010904//EN"
 "http://www.w3.org/TR/2001/REC-SVG-20010904/DTD/svg10.dtd">
<svg version="1.0" xmlns="http://www.w3.org/2000/svg"
 width="2644.000000pt" height="2800.000000pt" viewBox="0 0 2644.000000 2800.000000"
 preserveAspectRatio="xMidYMid meet">

<g transform="translate(0.000000,2800.000000) scale(0.100000,-0.100000)"
fill="#65340A" stroke="none">
<path d="M18137 24923 l-57 -57 0 -547 0 -548 -57 -6 c-32 -3 -85 -9 -117 -13
l-60 -7 0 -2887 c-1 -2740 0 -2887 16 -2892 10 -2 63 -2 118 1 l100 6 -2 -369
-3 -369 -45 -25 c-44 -24 -45 -26 -28 -42 10 -10 18 -29 18 -41 0 -25 -28 -57
-48 -57 -7 0 -12 -6 -12 -12 0 -7 -3 -24 -7 -37 l-6 -24 204 6 c112 4 205 7
207 7 10 0 -1 50 -11 50 -21 0 -57 39 -57 60 0 11 9 29 20 40 20 20 20 20 -23
41 -23 12 -45 27 -49 33 -4 6 -8 176 -8 377 0 287 3 367 13 366 6 0 60 1 120
1 l107 2 0 2900 c0 2853 0 2899 -19 2910 -11 5 -26 8 -33 6 -7 -2 -53 -7 -101
-10 l-88 -6 1 587 c1 564 0 589 -17 600 -17 11 -26 6 -76 -44z m203 -1792 l0
-518 -38 -6 c-20 -4 -87 -9 -147 -13 -61 -3 -125 -10 -142 -14 -33 -8 -33 -8
-34 28 -4 162 0 1005 5 1009 6 6 232 28 319 32 l37 1 0 -519z m0 -785 l0 -123
-38 -6 c-20 -4 -87 -9 -147 -13 -61 -3 -125 -10 -143 -14 -24 -6 -34 -5 -38 5
-8 19 1 233 9 241 7 7 226 29 320 33 l37 1 0 -124z m0 -1505 l0 -1238 -38 -6
c-20 -4 -87 -9 -147 -13 -61 -3 -125 -10 -142 -14 -27 -7 -33 -6 -33 8 -5 153
-1 2464 4 2469 6 6 229 28 319 32 l37 1 0 -1239z m0 -1490 l0 -108 -38 -6
c-20 -4 -87 -9 -147 -13 -61 -3 -125 -10 -142 -14 l-33 -8 -1 56 c-2 118 -1
163 5 169 6 6 232 28 319 32 l37 1 0 -109z m0 -749 l0 -499 -122 -6 c-200 -11
-235 -10 -240 11 -7 31 -2 951 5 958 7 7 226 29 320 33 l37 1 0 -498z"/>
</g>
</svg>
