<?xml version="1.0" standalone="no"?>
<!DOCTYPE svg PUBLIC "-//W3C//DTD SVG 20010904//EN"
 "http://www.w3.org/TR/2001/REC-SVG-20010904/DTD/svg10.dtd">
<svg version="1.0" xmlns="http://www.w3.org/2000/svg"
 width="2550.000000pt" height="2700.000000pt" viewBox="0 0 2550.000000 2700.000000"
 preserveAspectRatio="xMidYMid meet">

<g transform="translate(0.000000,2700.000000) scale(0.100000,-0.100000)"
fill="#3a4548" stroke="none">
<path d="M24850 26376 l0 -624 -40 -16 c-22 -9 -40 -18 -40 -21 0 -3 9 -14 20
-25 28 -28 25 -64 -6 -89 -15 -12 -33 -21 -40 -21 -8 0 -14 -5 -14 -10 0 -6
-11 -15 -25 -20 -31 -12 -32 -35 -2 -51 12 -7 25 -16 28 -21 3 -5 21 -17 40
-26 42 -21 49 -54 20 -93 -12 -15 -21 -30 -21 -33 0 -2 18 -11 40 -20 l40 -16
0 -1568 c0 -1403 -2 -1570 -16 -1590 -8 -12 -19 -22 -24 -22 -5 0 -20 -4 -35
-10 l-25 -10 20 -20 c29 -29 22 -61 -22 -89 -40 -26 -43 -56 -4 -41 12 4 53
11 91 15 67 6 159 19 217 31 25 5 27 8 17 26 -9 16 -7 26 10 49 23 31 24 30
-39 49 -25 7 -49 17 -55 22 -6 6 -4 7 5 3 13 -5 15 67 12 617 -1 388 -6 626
-12 632 -14 14 -13 483 0 491 7 4 10 252 10 711 l0 706 40 15 c42 17 50 30 26
39 -19 7 -30 58 -18 81 6 9 36 31 68 49 32 18 60 37 62 43 2 5 -11 17 -27 26
-17 8 -31 20 -31 25 0 6 -6 10 -14 10 -22 0 -66 40 -66 60 0 10 11 32 25 48
l25 29 -45 18 -45 17 0 624 0 624 -75 0 -75 0 0 -624z"/>
</g>
</svg>
