<?xml version="1.0" standalone="no"?>
<!DOCTYPE svg PUBLIC "-//W3C//DTD SVG 20010904//EN"
 "http://www.w3.org/TR/2001/REC-SVG-20010904/DTD/svg10.dtd">
<svg version="1.0" xmlns="http://www.w3.org/2000/svg"
 width="2550.000000pt" height="2700.000000pt" viewBox="0 0 2550.000000 2700.000000"
 preserveAspectRatio="xMidYMid meet">

<g transform="translate(0.000000,2700.000000) scale(0.100000,-0.100000)"
fill="#3a4548" stroke="none">
<path d="M10379 14583 c-19 -21 -48 -54 -65 -73 l-29 -35 1 -875 c0 -481 -1
-880 -3 -887 -3 -6 -20 -14 -39 -17 -40 -8 -40 -10 -14 -43 11 -14 20 -31 20
-38 0 -19 -40 -65 -56 -65 -8 0 -20 -5 -27 -10 -7 -6 -21 -17 -32 -25 l-20
-15 20 -15 c11 -8 25 -18 30 -22 6 -5 22 -14 38 -20 15 -7 32 -24 39 -38 10
-22 8 -30 -11 -56 -13 -17 -21 -32 -19 -34 1 -1 20 -10 41 -19 l39 -16 -6 -82
c-3 -46 -5 -547 -6 -1114 l0 -1031 -40 -12 -41 -12 26 -30 c14 -17 25 -34 25
-39 0 -16 -52 -70 -61 -64 -5 3 -12 -2 -15 -10 -3 -9 -12 -16 -19 -16 -7 0
-19 -7 -26 -17 -12 -14 -12 -17 0 -21 7 -2 21 -12 31 -22 10 -10 28 -21 39
-25 12 -3 28 -17 37 -30 13 -19 13 -28 3 -47 -7 -13 -19 -28 -28 -35 -14 -10
-12 -13 12 -22 16 -6 35 -11 43 -11 8 0 14 -1 14 -2 1 -2 4 -470 7 -1041 6
-1140 10 -1076 -55 -1103 l-33 -14 17 -29 c16 -27 16 -31 1 -54 -9 -14 -26
-28 -37 -32 -17 -5 -21 -14 -18 -43 l3 -36 74 -17 c57 -13 89 -15 135 -8 34 5
87 11 119 15 56 5 57 6 57 37 0 25 -8 39 -35 60 -39 31 -43 51 -17 80 12 14
13 21 5 24 -7 2 -27 14 -45 27 l-33 22 -2 1052 -3 1051 40 12 c22 7 40 14 40
17 0 2 -9 15 -20 29 -11 14 -20 34 -20 44 0 17 44 59 62 59 5 0 14 5 21 10 7
6 21 17 32 25 l20 15 -20 15 c-11 8 -24 18 -30 22 -5 5 -22 14 -38 20 -15 7
-32 24 -39 38 -10 22 -8 30 11 56 19 25 21 33 10 40 -8 5 -19 9 -26 9 -6 0
-18 7 -27 15 -13 14 -15 144 -16 1125 l0 1109 35 7 c45 8 51 18 26 46 -12 12
-21 32 -21 44 0 23 42 64 66 64 8 0 14 4 14 8 0 5 12 14 26 21 33 15 28 28
-25 56 -85 46 -98 71 -60 119 25 31 25 31 -21 43 l-35 9 -5 958 -5 957 -36
-38z"/>
</g>
</svg>
