<?xml version="1.0" standalone="no"?>
<!DOCTYPE svg PUBLIC "-//W3C//DTD SVG 20010904//EN"
 "http://www.w3.org/TR/2001/REC-SVG-20010904/DTD/svg10.dtd">
<svg version="1.0" xmlns="http://www.w3.org/2000/svg"
 width="2550.000000pt" height="2700.000000pt" viewBox="0 0 2550.000000 2700.000000"
 preserveAspectRatio="xMidYMid meet">

<g transform="translate(0.000000,2700.000000) scale(0.100000,-0.100000)"
fill="#3a4548" stroke="none">
<path d="M14635 18950 l-50 -51 4 -948 3 -948 -35 -22 -36 -22 25 -36 c13 -20
24 -39 24 -43 0 -3 -13 -16 -30 -28 -16 -13 -30 -30 -30 -38 0 -10 -6 -14 -14
-11 -8 3 -22 0 -33 -8 -17 -13 -17 -14 0 -20 9 -4 24 -2 32 5 10 9 15 9 15 1
0 -6 -4 -11 -10 -11 -5 0 -10 -7 -10 -16 0 -11 6 -14 21 -9 21 7 59 -18 59
-39 0 -6 -7 -3 -14 7 -23 29 -26 19 -5 -17 22 -38 18 -61 -14 -71 -20 -6 -19
-7 10 -16 21 -6 35 -17 38 -32 3 -12 4 -492 3 -1067 l-3 -1045 -31 -16 -32
-15 19 -25 c12 -15 17 -33 14 -47 -4 -17 -2 -22 7 -17 7 4 1 -4 -15 -19 -37
-36 -62 -97 -45 -108 7 -4 21 -8 31 -8 9 0 18 -8 18 -17 7 -88 6 -93 -15 -93
-16 -1 -13 -5 15 -20 l37 -19 -4 -1423 c-5 -1399 -5 -1423 -24 -1443 -12 -11
-20 -14 -20 -7 0 6 -7 12 -15 12 -12 0 -12 -4 2 -28 14 -25 15 -32 2 -60 -8
-19 -21 -32 -31 -32 -14 0 -18 -8 -18 -34 0 -31 4 -35 33 -42 33 -8 265 -6
279 2 18 11 6 54 -22 82 -33 34 -37 53 -15 72 22 18 19 26 -15 40 -17 7 -35
21 -40 31 -6 11 -10 544 -10 1428 0 1274 2 1411 16 1411 8 0 24 5 35 10 19 11
19 11 -2 39 -25 35 -19 64 19 89 15 9 33 22 39 28 7 7 18 15 25 17 14 6 6 14
-66 70 -41 32 -45 53 -15 91 21 27 19 31 -26 38 -20 3 -20 12 -23 1070 l-2
1068 36 15 36 15 -21 26 c-32 41 -26 60 33 106 61 47 61 52 -6 94 -48 30 -56
58 -29 95 l22 29 -26 10 c-15 6 -30 10 -36 10 -5 0 -10 394 -11 1005 l-3 1006
-50 -51z"/>
<path d="M14490 14300 c0 -5 4 -10 9 -10 6 0 13 5 16 10 3 6 -1 10 -9 10 -9 0
-16 -4 -16 -10z"/>
<path d="M14456 14271 c-3 -5 0 -14 8 -20 10 -8 16 -8 25 2 6 8 8 17 4 20 -9
10 -31 9 -37 -2z"/>
</g>
</svg>
