<?xml version="1.0" standalone="no"?>
<!DOCTYPE svg PUBLIC "-//W3C//DTD SVG 20010904//EN"
 "http://www.w3.org/TR/2001/REC-SVG-20010904/DTD/svg10.dtd">
<svg version="1.0" xmlns="http://www.w3.org/2000/svg"
 width="3542.000000pt" height="3750.000000pt" viewBox="0 0 3542.000000 3750.000000"
 preserveAspectRatio="xMidYMid meet">

<g transform="translate(0.000000,3750.000000) scale(0.100000,-0.100000)"
fill="#C5C3C1" stroke="none">
<path d="M14437 18633 c-4 -3 -7 -418 -7 -922 0 -714 -3 -955 -15 -1091 -16
-191 -38 -371 -61 -495 -9 -44 -18 -111 -20 -150 -4 -59 -2 -75 16 -103 11
-18 34 -38 50 -44 25 -8 30 -15 30 -44 0 -28 -4 -34 -20 -34 -12 0 -34 -7 -51
-15 l-30 -16 26 -30 c33 -40 33 -81 -1 -108 -15 -12 -35 -21 -45 -21 -11 0
-19 -4 -19 -10 0 -5 -14 -17 -31 -25 -38 -20 -36 -54 4 -73 15 -7 27 -17 27
-21 0 -5 12 -12 28 -16 65 -16 81 -71 36 -125 -15 -17 -25 -32 -23 -33 16 -11
63 -27 79 -27 16 0 20 -7 20 -34 0 -28 -5 -38 -27 -48 -41 -19 -73 -74 -73
-122 0 -23 13 -120 29 -216 58 -345 66 -460 66 -975 0 -510 -5 -594 -57 -935
-44 -288 -45 -307 -16 -350 16 -23 33 -36 51 -38 24 -3 27 -7 27 -41 0 -37 -2
-39 -37 -45 -64 -10 -72 -21 -40 -54 36 -38 37 -83 1 -111 -15 -12 -35 -21
-45 -21 -11 0 -19 -6 -19 -13 0 -7 -13 -18 -30 -24 -41 -15 -41 -50 -1 -64 16
-6 32 -17 35 -25 3 -8 12 -14 19 -14 8 0 26 -9 41 -21 35 -27 35 -73 0 -110
l-26 -27 33 -16 c18 -9 40 -16 51 -16 14 0 18 -8 18 -34 0 -28 -6 -38 -33 -54
-38 -22 -67 -75 -67 -123 0 -18 11 -96 25 -173 68 -381 68 -384 72 -1485 2
-553 2 -1015 -2 -1028 -3 -15 -21 -29 -55 -44 -28 -12 -50 -23 -50 -26 0 -2
10 -17 21 -33 19 -26 20 -32 9 -59 -8 -20 -24 -35 -46 -43 -32 -11 -34 -15
-34 -59 0 -44 2 -48 28 -53 217 -41 200 -40 333 -17 68 12 127 21 132 21 4 0
7 23 7 50 0 35 -4 50 -14 50 -23 0 -66 48 -66 75 0 14 9 33 20 42 11 10 20 20
20 24 0 3 -20 14 -44 23 -24 9 -51 27 -58 39 -12 18 -14 174 -12 972 2 1088 4
1132 75 1572 l32 192 -20 38 c-11 22 -32 44 -50 52 -36 16 -52 69 -24 78 9 3
25 8 36 13 11 5 28 11 38 14 17 6 16 9 -12 41 -17 20 -31 45 -31 56 0 23 42
69 64 69 8 0 21 6 28 13 7 7 25 20 41 30 35 23 34 46 -3 60 -16 6 -30 17 -30
23 0 6 -13 14 -29 17 -16 4 -39 17 -51 29 -27 29 -21 74 16 106 l26 22 -36 15
c-19 8 -42 15 -49 15 -8 0 -17 14 -21 33 -5 25 -3 34 11 42 36 20 80 74 86
105 4 18 -6 109 -23 213 -63 386 -65 424 -65 1012 0 590 2 625 67 1020 l31
191 -21 47 c-17 38 -27 49 -52 53 -27 6 -30 10 -30 45 0 28 4 39 15 39 9 0 32
7 51 15 l36 15 -31 35 c-17 20 -31 44 -31 54 0 23 54 71 81 71 10 0 19 6 19
13 0 7 14 18 30 24 21 8 30 18 30 33 0 15 -9 25 -30 33 -16 6 -30 17 -30 24 0
7 -9 13 -19 13 -27 0 -81 48 -81 71 0 10 14 34 31 53 l30 35 -37 16 c-20 8
-43 15 -50 15 -9 0 -14 12 -14 34 0 28 6 38 34 54 23 14 39 34 51 65 17 45 17
49 -14 234 -67 408 -65 350 -68 1476 l-4 1027 -88 0 c-48 0 -91 -3 -94 -7z"/>
</g>
</svg>
