<?xml version="1.0" standalone="no"?>
<!DOCTYPE svg PUBLIC "-//W3C//DTD SVG 20010904//EN"
 "http://www.w3.org/TR/2001/REC-SVG-20010904/DTD/svg10.dtd">
<svg version="1.0" xmlns="http://www.w3.org/2000/svg"
 width="3542.000000pt" height="3750.000000pt" viewBox="0 0 3542.000000 3750.000000"
 preserveAspectRatio="xMidYMid meet">

<g transform="translate(0.000000,3750.000000) scale(0.100000,-0.100000)"
fill="#C5C3C1" stroke="none">
<path d="M19202 17808 c-1 -546 -5 -940 -12 -1013 -14 -159 -37 -350 -55 -455
-22 -128 -20 -173 11 -209 14 -17 32 -31 40 -31 9 0 14 -11 14 -34 0 -30 -3
-34 -32 -40 -59 -11 -66 -21 -35 -52 42 -41 35 -83 -18 -109 -22 -11 -42 -24
-44 -28 -2 -5 -14 -12 -27 -17 -32 -13 -31 -47 1 -62 14 -6 25 -15 25 -19 0
-4 16 -13 35 -19 60 -20 73 -73 29 -117 -29 -29 -23 -38 34 -49 28 -5 32 -10
32 -37 0 -22 -9 -38 -36 -61 -46 -40 -52 -86 -30 -222 23 -146 44 -313 56
-454 11 -125 15 -904 5 -996 -2 -27 -10 -101 -15 -164 -6 -63 -20 -176 -31
-250 -32 -213 -34 -269 -10 -307 12 -20 29 -33 41 -33 16 0 20 -7 20 -35 0
-25 -4 -35 -15 -35 -9 0 -29 -7 -46 -15 l-30 -16 26 -30 c42 -51 27 -98 -37
-114 -16 -4 -28 -13 -28 -20 0 -7 -12 -16 -26 -19 -31 -8 -30 -43 1 -60 11 -6
24 -17 28 -23 4 -7 16 -13 26 -13 24 0 61 -41 61 -67 0 -12 -12 -35 -26 -52
l-26 -31 24 -9 c13 -5 32 -10 43 -12 32 -6 33 -62 1 -83 -63 -41 -66 -81 -27
-326 51 -316 54 -389 58 -1354 3 -667 1 -915 -7 -931 -6 -12 -33 -29 -59 -40
l-47 -18 23 -23 c13 -13 23 -29 23 -37 0 -20 -37 -65 -60 -72 -16 -5 -20 -15
-20 -49 l0 -42 119 -18 c114 -17 123 -17 230 0 l111 17 0 43 c0 38 -4 45 -30
59 -16 8 -34 24 -40 34 -12 24 1 65 26 79 14 8 8 12 -30 27 -25 10 -50 23 -56
30 -14 17 -14 1757 0 1926 13 159 36 342 60 491 15 89 17 124 9 145 -13 35
-48 73 -66 73 -10 0 -13 10 -11 32 3 27 8 33 38 41 49 12 55 22 31 46 -11 11
-24 33 -27 47 -6 22 -2 32 20 51 15 13 36 23 47 23 10 0 19 6 19 14 0 8 11 17
24 20 13 3 27 13 30 22 7 19 -10 44 -30 44 -7 0 -17 6 -21 13 -4 6 -26 21 -48
32 -51 25 -57 59 -21 103 15 16 26 32 26 35 0 3 -20 11 -45 18 -41 12 -45 16
-45 44 0 22 6 33 22 40 32 14 61 71 61 119 0 22 -12 118 -26 211 -45 279 -54
430 -56 850 -2 491 6 607 79 1110 4 28 3 63 -1 79 -10 34 -46 76 -66 76 -8 0
-13 12 -13 34 0 30 3 34 33 40 58 11 64 20 34 56 -15 17 -27 39 -27 49 0 18
39 61 56 61 6 0 19 7 29 15 72 54 70 52 56 69 -7 9 -19 16 -27 16 -7 0 -17 6
-21 13 -4 7 -23 19 -41 26 -57 23 -66 62 -27 109 14 17 25 32 25 35 0 3 -20
11 -45 18 -41 12 -45 16 -45 46 0 23 5 33 20 38 11 4 28 17 36 31 29 44 32 87
13 200 -10 60 -29 188 -41 284 -21 167 -22 218 -25 1128 l-4 952 -89 0 -88 0
0 -892z"/>
</g>
</svg>
