<?xml version="1.0" standalone="no"?>
<!DOCTYPE svg PUBLIC "-//W3C//DTD SVG 20010904//EN"
 "http://www.w3.org/TR/2001/REC-SVG-20010904/DTD/svg10.dtd">
<svg version="1.0" xmlns="http://www.w3.org/2000/svg"
 width="3542.000000pt" height="3750.000000pt" viewBox="0 0 3542.000000 3750.000000"
 preserveAspectRatio="xMidYMid meet">

<g transform="translate(0.000000,3750.000000) scale(0.100000,-0.100000)"
fill="#C5C3C1" stroke="none">
<path d="M25430 17867 c0 -955 -4 -1041 -63 -1367 -17 -96 -31 -195 -32 -220
0 -53 32 -106 71 -116 19 -5 24 -13 24 -39 0 -29 -4 -33 -32 -39 -18 -3 -40
-11 -48 -16 -13 -8 -11 -12 8 -30 36 -34 40 -70 8 -97 -15 -13 -33 -23 -41
-23 -8 0 -18 -6 -22 -12 -4 -7 -17 -18 -28 -24 -31 -17 -32 -52 -1 -60 14 -3
26 -12 26 -20 0 -8 8 -14 19 -14 29 0 71 -39 71 -65 0 -13 -12 -37 -26 -54
l-26 -31 27 -10 c14 -5 35 -10 46 -10 15 0 19 -7 19 -32 0 -27 -6 -36 -33 -48
-19 -9 -39 -30 -51 -54 -19 -38 -19 -39 8 -185 68 -379 80 -546 73 -1058 -5
-436 -15 -552 -72 -851 -21 -108 -24 -139 -15 -172 11 -41 40 -75 72 -86 14
-4 18 -13 16 -37 -3 -26 -8 -32 -38 -40 -50 -12 -55 -21 -26 -52 14 -15 26
-38 26 -51 0 -25 -43 -64 -71 -64 -11 0 -19 -6 -19 -14 0 -8 -12 -17 -26 -20
-31 -8 -30 -43 1 -60 11 -6 24 -17 28 -23 4 -7 14 -13 21 -13 24 0 66 -41 66
-65 0 -12 -11 -33 -25 -46 -13 -13 -25 -27 -25 -30 0 -9 48 -29 70 -29 16 0
20 -7 20 -33 0 -28 -4 -34 -32 -42 -20 -7 -38 -22 -50 -45 -21 -39 -21 -51 11
-228 26 -145 48 -307 61 -452 13 -152 14 -1833 1 -1859 -6 -10 -30 -26 -55
-35 l-44 -17 24 -24 c13 -13 24 -31 24 -40 0 -20 -44 -65 -65 -65 -11 0 -15
-11 -15 -44 0 -50 -9 -47 159 -67 83 -10 119 -10 180 0 124 20 121 19 121 57
0 34 -3 38 -52 75 -33 24 -36 61 -8 89 20 20 19 20 -30 41 -34 14 -52 29 -56
44 -3 12 -3 427 -1 921 4 751 7 920 21 1029 18 144 40 284 62 388 27 131 11
199 -56 228 -25 12 -30 19 -28 42 2 24 10 31 41 42 52 18 54 21 29 48 -42 45
-17 117 40 117 10 0 18 4 18 10 0 5 14 17 31 25 35 19 35 44 0 61 -13 7 -26
16 -30 21 -3 4 -23 16 -43 25 -32 15 -38 22 -38 50 0 19 9 41 22 55 25 27 19
38 -32 50 -29 8 -35 14 -38 40 -3 27 0 31 27 36 37 8 71 57 71 105 0 18 -11
92 -24 165 -14 73 -32 195 -41 272 -8 77 -18 156 -21 175 -3 19 -8 189 -11
376 -7 436 12 716 69 1014 40 213 34 263 -38 297 -30 15 -35 21 -32 47 2 25 9
31 38 39 50 12 57 23 33 49 -11 13 -23 28 -27 35 -12 21 12 60 46 73 18 8 36
18 39 23 4 5 17 14 30 21 36 18 36 45 0 59 -17 6 -31 17 -31 24 0 7 -9 13 -19
13 -30 0 -63 33 -63 64 0 15 10 38 22 51 13 14 22 27 19 29 -14 12 -51 26 -68
26 -17 0 -21 6 -21 34 0 29 4 34 30 39 19 4 37 18 51 39 25 40 22 84 -15 294
-58 322 -59 356 -63 1332 l-4 902 -85 0 -84 0 0 -863z"/>
</g>
</svg>
