<?xml version="1.0" standalone="no"?>
<!DOCTYPE svg PUBLIC "-//W3C//DTD SVG 20010904//EN"
 "http://www.w3.org/TR/2001/REC-SVG-20010904/DTD/svg10.dtd">
<svg version="1.0" xmlns="http://www.w3.org/2000/svg"
 width="3542.000000pt" height="3750.000000pt" viewBox="0 0 3542.000000 3750.000000"
 preserveAspectRatio="xMidYMid meet">

<g transform="translate(0.000000,3750.000000) scale(0.100000,-0.100000)"
fill="#C5C3C1" stroke="none">
<path d="M29677 17693 c-4 -1097 -3 -1077 -78 -1451 -31 -158 -31 -194 -1
-241 9 -13 31 -30 49 -37 28 -12 33 -19 33 -48 0 -30 -3 -34 -32 -40 -59 -11
-65 -20 -35 -56 15 -17 27 -39 27 -49 0 -28 -28 -59 -65 -71 -19 -6 -35 -15
-35 -19 0 -4 -11 -13 -25 -19 -31 -14 -33 -47 -2 -63 12 -7 26 -18 30 -25 4
-8 17 -14 28 -14 26 0 69 -43 69 -69 0 -11 -12 -33 -26 -50 -31 -37 -25 -49
27 -57 39 -7 40 -8 37 -43 -2 -28 -8 -37 -25 -39 -26 -4 -70 -53 -79 -89 -4
-14 7 -97 25 -187 70 -365 76 -437 76 -1001 0 -565 -6 -639 -77 -996 l-31
-160 19 -47 c14 -34 30 -52 57 -67 31 -17 37 -25 37 -52 0 -23 -5 -33 -15 -33
-9 0 -31 -6 -50 -14 l-34 -15 29 -31 c37 -40 38 -72 4 -99 -15 -12 -30 -21
-34 -21 -5 0 -27 -12 -49 -27 -47 -30 -53 -58 -16 -75 14 -6 25 -15 25 -20 0
-4 18 -15 40 -24 65 -26 76 -63 34 -113 -31 -37 -25 -49 27 -57 36 -6 39 -9
39 -39 0 -28 -5 -34 -38 -47 -27 -11 -43 -26 -56 -52 -20 -43 -20 -42 22 -276
27 -149 48 -306 68 -505 4 -38 8 -481 9 -983 l1 -913 -24 -19 c-13 -11 -39
-25 -58 -32 -37 -13 -43 -23 -19 -32 46 -17 30 -93 -25 -116 -27 -11 -30 -17
-30 -56 0 -24 3 -44 8 -44 4 0 70 -9 146 -21 l140 -20 98 22 98 23 0 43 c0 39
-3 44 -34 57 -58 24 -67 65 -25 112 19 20 18 20 -30 38 -28 10 -53 27 -60 40
-10 17 -12 235 -8 957 2 514 7 948 10 964 3 17 11 82 18 145 10 109 36 266 75
466 l17 91 -24 44 c-13 24 -37 50 -54 59 -38 19 -43 26 -37 55 3 18 16 29 48
41 24 9 44 19 44 21 0 3 -11 18 -25 35 -14 16 -25 38 -25 49 0 26 43 69 70 69
11 0 20 4 20 9 0 6 12 16 28 23 40 19 42 56 4 69 -17 6 -33 17 -36 25 -3 8
-12 14 -19 14 -25 0 -67 41 -67 65 0 13 11 37 25 53 14 17 25 32 25 36 0 3
-19 11 -42 18 -50 14 -57 21 -51 52 3 15 16 27 38 35 71 25 83 79 51 236 -13
66 -30 156 -36 200 -7 44 -13 87 -15 95 -43 230 -55 995 -21 1305 20 179 49
363 76 487 13 56 18 103 14 125 -8 42 -58 103 -85 103 -20 0 -20 2 -22 47 -1
23 5 28 46 40 26 7 47 16 47 19 0 4 -11 19 -25 36 -14 16 -25 40 -25 53 0 26
42 65 71 65 11 0 19 6 19 13 0 7 14 18 30 24 21 8 30 18 30 33 0 15 -9 25 -30
33 -16 6 -30 17 -30 24 0 7 -8 13 -19 13 -29 0 -71 39 -71 65 0 13 12 38 27
55 30 36 24 45 -34 56 -50 9 -56 66 -10 80 33 10 65 43 77 80 9 27 7 59 -15
171 -42 222 -43 232 -60 368 -28 235 -32 390 -31 1253 l1 852 -92 0 -92 0 -4
-987z"/>
</g>
</svg>
