<?xml version="1.0" standalone="no"?>
<!DOCTYPE svg PUBLIC "-//W3C//DTD SVG 20010904//EN"
 "http://www.w3.org/TR/2001/REC-SVG-20010904/DTD/svg10.dtd">
<svg version="1.0" xmlns="http://www.w3.org/2000/svg"
 width="3542.000000pt" height="3750.000000pt" viewBox="0 0 3542.000000 3750.000000"
 preserveAspectRatio="xMidYMid meet">

<g transform="translate(0.000000,3750.000000) scale(0.100000,-0.100000)"
fill="#C5C3C1" stroke="none">
<path d="M33227 17648 c-3 -651 -8 -1024 -15 -1083 -24 -190 -44 -316 -77
-477 -36 -180 -35 -210 5 -261 12 -14 36 -32 55 -38 30 -11 35 -18 35 -45 0
-27 -5 -33 -27 -38 -16 -4 -40 -12 -55 -18 l-28 -10 30 -35 c17 -18 30 -44 30
-57 0 -27 -35 -61 -72 -70 -16 -3 -28 -13 -28 -20 0 -8 -10 -16 -21 -18 -12
-2 -27 -11 -33 -21 -9 -15 -6 -22 14 -38 14 -10 32 -26 41 -34 9 -8 23 -15 31
-15 8 0 27 -9 42 -21 36 -29 35 -69 -5 -108 l-31 -31 36 -15 c19 -8 45 -15 56
-15 18 0 21 -5 18 -37 -3 -31 -8 -38 -32 -44 -74 -20 -103 -87 -81 -188 90
-405 120 -745 112 -1260 -7 -423 -27 -623 -96 -947 -24 -112 -28 -148 -20
-176 13 -48 45 -88 86 -104 27 -12 33 -20 33 -43 0 -25 -6 -31 -37 -42 -73
-23 -75 -25 -42 -58 49 -50 29 -114 -41 -128 -17 -3 -30 -12 -30 -19 0 -8 -6
-14 -13 -14 -21 0 -50 -37 -44 -54 4 -9 18 -18 32 -22 14 -3 25 -12 25 -19 0
-7 12 -16 28 -20 38 -9 72 -44 72 -73 0 -13 -13 -37 -30 -54 -16 -16 -30 -31
-30 -33 0 -2 25 -11 56 -21 52 -16 55 -19 52 -47 -2 -24 -9 -32 -32 -38 -37
-10 -66 -36 -83 -77 -12 -30 -10 -49 21 -210 36 -182 58 -323 77 -497 17 -153
24 -2071 8 -2092 -7 -8 -33 -24 -58 -36 -60 -27 -58 -25 -33 -43 32 -22 30
-76 -4 -103 -15 -12 -33 -21 -40 -21 -10 0 -14 -14 -14 -49 0 -56 -19 -49 192
-77 l128 -18 94 24 93 23 2 47 c0 43 -2 49 -24 54 -33 8 -65 44 -65 72 0 13
11 34 25 47 l25 23 -50 18 c-28 10 -55 27 -61 38 -12 23 -17 1829 -5 1963 14
159 18 192 37 328 11 77 33 203 49 280 17 78 30 154 30 170 0 52 -48 117 -97
132 -18 5 -23 14 -23 39 0 29 4 33 50 50 51 18 60 29 37 43 -8 4 -22 21 -32
36 -24 37 -9 71 42 95 21 9 41 21 44 25 4 5 17 14 30 21 13 6 25 22 27 34 3
18 -3 26 -27 35 -17 6 -31 17 -31 24 0 7 -9 13 -19 13 -25 0 -67 38 -76 67 -4
15 3 31 26 58 37 42 32 50 -34 61 -36 6 -38 8 -35 42 3 30 8 36 38 46 41 13
80 66 80 110 0 18 -9 72 -20 121 -27 126 -47 245 -72 425 -18 133 -22 219 -25
605 -6 551 8 736 88 1122 22 106 29 162 24 189 -8 44 -62 104 -94 104 -18 0
-21 6 -21 40 0 34 3 40 20 40 12 0 35 7 52 16 l30 16 -24 26 c-33 36 -40 57
-27 86 11 24 47 46 74 46 8 0 15 6 15 14 0 8 14 19 30 25 22 7 30 16 30 35 0
18 -8 27 -30 35 -16 5 -30 14 -30 20 0 5 -16 15 -35 21 -51 17 -71 51 -55 90
7 17 22 37 32 45 27 18 17 30 -37 44 -42 11 -45 13 -45 45 0 30 4 35 29 41 46
10 91 69 91 120 0 14 -14 92 -30 173 -33 158 -64 364 -76 502 -4 47 -8 96 -10
110 -1 14 -2 458 -3 988 l-1 962 -94 0 -95 0 -4 -992z"/>
</g>
</svg>
