<?xml version="1.0" standalone="no"?>
<!DOCTYPE svg PUBLIC "-//W3C//DTD SVG 20010904//EN"
 "http://www.w3.org/TR/2001/REC-SVG-20010904/DTD/svg10.dtd">
<svg version="1.0" xmlns="http://www.w3.org/2000/svg"
 width="3542.000000pt" height="3750.000000pt" viewBox="0 0 3542.000000 3750.000000"
 preserveAspectRatio="xMidYMid meet">

<g transform="translate(0.000000,3750.000000) scale(0.100000,-0.100000)"
fill="#C5C3C1" stroke="none">
<path d="M6353 18523 l-53 -4 0 -987 c0 -543 -5 -1054 -10 -1137 -17 -251 -54
-537 -101 -764 -26 -128 -25 -178 6 -223 17 -25 35 -38 62 -45 36 -8 38 -11
38 -48 0 -37 -2 -39 -38 -47 -21 -4 -47 -13 -58 -19 -19 -10 -19 -11 11 -45
52 -59 32 -126 -42 -141 -18 -3 -33 -14 -35 -25 -3 -10 -13 -18 -23 -18 -43 0
-52 -56 -12 -76 13 -6 28 -18 35 -26 7 -9 24 -18 39 -22 70 -16 89 -89 37
-142 -30 -31 -31 -32 -11 -43 12 -6 38 -15 59 -19 35 -7 38 -11 41 -45 3 -34
1 -38 -35 -52 -52 -21 -93 -84 -93 -142 0 -23 13 -109 30 -190 38 -192 77
-494 90 -708 16 -250 7 -913 -14 -1105 -20 -179 -57 -425 -86 -565 -24 -118
-25 -157 -3 -202 15 -32 41 -50 96 -67 12 -4 17 -16 17 -39 0 -32 -3 -34 -55
-51 -63 -19 -74 -31 -45 -46 33 -18 51 -63 39 -98 -9 -28 -58 -62 -87 -62 -5
0 -12 -6 -15 -14 -3 -8 -18 -20 -34 -28 -16 -7 -29 -23 -31 -36 -3 -18 4 -26
32 -37 20 -9 36 -19 36 -24 0 -4 18 -15 39 -23 46 -18 76 -58 66 -88 -4 -12
-20 -37 -37 -56 -27 -31 -28 -34 -11 -40 10 -3 27 -10 38 -14 11 -5 29 -10 40
-12 15 -2 21 -12 23 -41 3 -33 0 -38 -25 -48 -61 -23 -103 -86 -103 -154 0
-19 13 -101 30 -182 28 -143 57 -326 81 -523 16 -129 25 -2320 10 -2320 -6 0
-11 -6 -11 -13 0 -7 -27 -23 -60 -36 l-60 -24 25 -23 c17 -16 25 -34 25 -57 0
-37 -19 -59 -63 -76 -25 -10 -27 -15 -27 -64 l0 -53 118 -27 117 -27 165 28
165 29 0 54 c0 46 -3 54 -20 57 -31 6 -75 53 -75 80 0 13 13 36 28 51 l28 28
-59 23 c-32 13 -62 32 -68 41 -13 25 -12 2092 1 2252 19 232 41 393 91 656 24
127 27 161 18 194 -12 46 -48 83 -90 92 -26 6 -29 11 -29 46 0 35 3 39 24 39
14 0 28 5 31 10 3 6 15 10 25 10 32 0 33 19 1 51 -39 39 -41 81 -5 114 14 13
39 27 55 30 16 4 29 12 29 18 0 7 15 19 33 27 43 20 43 50 0 69 -18 8 -33 20
-33 27 0 6 -14 14 -30 18 -40 7 -80 48 -80 80 0 14 14 41 30 59 17 19 30 37
30 40 0 3 -25 13 -55 22 -54 17 -55 18 -55 56 0 30 4 39 23 44 46 15 91 72
101 131 3 16 -8 97 -24 179 -41 204 -77 459 -91 642 -13 182 -6 1041 10 1178
6 50 13 113 16 140 10 89 44 296 71 432 18 88 24 145 19 169 -8 47 -63 104
-99 104 -24 0 -26 3 -26 45 0 41 2 45 25 45 14 0 42 7 62 15 l37 16 -26 22
c-29 24 -48 57 -48 82 0 25 55 75 83 75 16 0 26 7 30 20 3 11 14 20 25 20 25
0 45 23 40 47 -2 10 -18 24 -36 32 -17 8 -32 20 -32 26 0 6 -16 16 -37 21 -73
18 -92 88 -38 138 40 37 36 42 -72 72 -8 2 -13 20 -13 44 0 34 3 40 21 40 30
0 85 59 99 107 11 37 9 62 -24 230 -91 467 -96 560 -96 1791 l0 1042 -52 -2
c-29 -1 -77 -3 -105 -5z"/>
</g>
</svg>
