<?xml version="1.0" standalone="no"?>
<!DOCTYPE svg PUBLIC "-//W3C//DTD SVG 20010904//EN"
 "http://www.w3.org/TR/2001/REC-SVG-20010904/DTD/svg10.dtd">
<svg version="1.0" xmlns="http://www.w3.org/2000/svg"
 width="3542.000000pt" height="3750.000000pt" viewBox="0 0 3542.000000 3750.000000"
 preserveAspectRatio="xMidYMid meet">

<g transform="translate(0.000000,3750.000000) scale(0.100000,-0.100000)"
fill="#C5C3C1" stroke="none">
<path d="M8817 17473 c-3 -964 -5 -1103 -20 -1223 -30 -228 -46 -330 -73 -471
-18 -89 -24 -149 -20 -172 9 -47 48 -94 86 -102 27 -6 30 -10 30 -46 0 -33 -3
-39 -20 -39 -11 0 -37 -7 -56 -15 l-36 -15 31 -35 c54 -61 32 -122 -50 -140
-16 -4 -27 -11 -23 -16 3 -5 -8 -14 -25 -20 -17 -6 -33 -20 -36 -30 -7 -22 10
-49 31 -49 7 0 19 -8 26 -18 7 -10 25 -22 41 -26 37 -9 67 -41 67 -71 0 -13
-14 -40 -31 -60 -18 -20 -29 -38 -26 -41 3 -3 27 -11 54 -18 47 -12 48 -13 51
-54 3 -34 0 -42 -13 -42 -47 0 -105 -81 -105 -145 0 -14 11 -81 25 -148 28
-138 57 -334 77 -512 9 -84 13 -279 13 -655 0 -524 -5 -636 -39 -840 -3 -14
-10 -61 -16 -105 -6 -44 -23 -137 -36 -207 -33 -173 -22 -225 57 -256 36 -14
39 -18 39 -54 0 -32 -3 -38 -20 -38 -11 0 -36 -6 -55 -14 l-35 -15 30 -30 c54
-53 37 -116 -38 -142 -18 -6 -32 -15 -32 -20 0 -6 -13 -15 -29 -20 -16 -6 -32
-17 -35 -26 -7 -18 20 -53 41 -53 7 0 16 -6 19 -14 3 -8 17 -17 32 -21 75 -18
95 -90 41 -143 l-31 -31 37 -15 c21 -9 46 -16 56 -16 19 0 22 -5 22 -35 0 -37
-5 -45 -35 -60 -38 -17 -73 -66 -83 -112 -4 -20 5 -91 24 -190 88 -459 91
-506 91 -1716 0 -1009 -2 -1077 -30 -1077 -4 0 -29 -9 -55 -20 l-47 -20 26
-21 c49 -39 31 -102 -37 -128 -24 -10 -27 -15 -27 -60 0 -39 4 -51 18 -55 9
-2 61 -14 115 -26 l98 -22 132 21 c208 34 187 25 187 82 0 45 -3 50 -27 60
-16 6 -36 18 -45 26 -24 22 -23 75 2 98 11 10 20 21 20 26 0 4 -23 15 -51 25
-28 10 -55 27 -61 38 -11 21 -15 2009 -3 2148 15 186 48 443 81 622 43 240 38
270 -57 310 -28 12 -35 20 -33 38 1 13 3 29 3 36 1 6 9 12 19 12 10 0 35 8 55
18 l36 18 -29 28 c-54 50 -32 123 43 141 15 4 27 13 27 21 0 8 8 14 18 14 11
0 27 9 36 19 14 15 15 24 6 40 -6 12 -20 21 -31 21 -11 0 -22 7 -25 15 -3 8
-16 17 -27 21 -81 25 -102 90 -48 145 33 33 31 35 -41 58 -35 12 -38 15 -38
52 0 26 4 39 14 39 20 0 64 38 81 70 23 45 23 94 -1 209 -12 59 -25 130 -28
157 -4 27 -9 56 -11 64 -8 29 -36 257 -46 380 -9 121 -13 949 -4 1040 2 25 9
97 15 160 14 152 45 365 76 523 15 77 22 141 19 161 -11 54 -40 94 -77 104
-30 7 -33 12 -36 49 l-3 41 43 6 c72 11 78 20 40 59 -51 52 -41 103 26 130 22
9 42 23 45 31 4 9 15 16 25 16 51 0 56 55 7 76 -19 8 -35 18 -35 23 0 5 -14
14 -32 20 -75 26 -89 77 -37 135 l30 35 -37 16 c-20 8 -45 15 -55 15 -15 0
-19 7 -19 38 0 34 4 40 35 55 39 18 72 65 81 113 3 18 -5 87 -20 160 -37 188
-63 366 -81 560 -12 141 -15 352 -15 1193 l0 1021 -105 0 -104 0 -4 -1087z"/>
</g>
</svg>
