<?xml version="1.0" standalone="no"?>
<!DOCTYPE svg PUBLIC "-//W3C//DTD SVG 20010904//EN"
 "http://www.w3.org/TR/2001/REC-SVG-20010904/DTD/svg10.dtd">
<svg version="1.0" xmlns="http://www.w3.org/2000/svg"
 width="3542.000000pt" height="3750.000000pt" viewBox="0 0 3542.000000 3750.000000"
 preserveAspectRatio="xMidYMid meet">

<g transform="translate(0.000000,3750.000000) scale(0.100000,-0.100000)"
fill="#C5C3C1" stroke="none">
<path d="M20080 14333 c0 -2419 -4 -4402 -8 -4408 -4 -5 -28 -20 -55 -32 l-47
-23 21 -21 c31 -31 22 -69 -23 -98 -33 -21 -38 -29 -38 -62 0 -43 -9 -39 151
-64 90 -14 102 -14 204 5 60 11 110 20 112 20 2 0 3 19 3 43 0 37 -4 44 -33
58 -17 9 -36 28 -41 42 -8 22 -6 31 14 52 26 28 27 27 -19 45 -18 7 -42 22
-52 34 -18 19 -19 58 -18 1110 0 600 0 2577 0 4394 l-1 3302 -85 0 -85 0 0
-4397z"/>
</g>
</svg>
