<?xml version="1.0" standalone="no"?>
<!DOCTYPE svg PUBLIC "-//W3C//DTD SVG 20010904//EN"
 "http://www.w3.org/TR/2001/REC-SVG-20010904/DTD/svg10.dtd">
<svg version="1.0" xmlns="http://www.w3.org/2000/svg"
 width="3542.000000pt" height="3750.000000pt" viewBox="0 0 3542.000000 3750.000000"
 preserveAspectRatio="xMidYMid meet">

<g transform="translate(0.000000,3750.000000) scale(0.100000,-0.100000)"
fill="#C5C3C1" stroke="none">
<path d="M32017 18654 c-4 -4 -7 -2167 -7 -4806 0 -4557 -1 -4800 -17 -4818
-10 -10 -37 -26 -60 -35 -49 -20 -51 -24 -22 -48 34 -29 23 -77 -23 -102 -36
-19 -38 -23 -38 -66 0 -55 -12 -50 182 -75 132 -17 141 -17 215 0 107 25 113
29 113 76 0 33 -4 42 -29 55 -66 34 -79 75 -36 115 l25 24 -51 21 c-28 12 -55
28 -60 36 -5 8 -9 2037 -9 4817 0 3834 -3 4802 -12 4803 -7 0 -47 3 -89 5 -41
3 -78 1 -82 -2z"/>
</g>
</svg>
