<?xml version="1.0" standalone="no"?>
<!DOCTYPE svg PUBLIC "-//W3C//DTD SVG 20010904//EN"
 "http://www.w3.org/TR/2001/REC-SVG-20010904/DTD/svg10.dtd">
<svg version="1.0" xmlns="http://www.w3.org/2000/svg"
 width="3542.000000pt" height="3750.000000pt" viewBox="0 0 3542.000000 3750.000000"
 preserveAspectRatio="xMidYMid meet">

<g transform="translate(0.000000,3750.000000) scale(0.100000,-0.100000)"
fill="#C5C3C1" stroke="none">
<path d="M3580 12866 c0 -4924 -2 -5636 -15 -5649 -8 -8 -39 -25 -69 -38 l-55
-22 29 -34 c17 -19 30 -38 30 -43 0 -27 -28 -62 -62 -77 l-38 -18 2 -59 3 -59
110 -30 110 -29 160 27 c88 15 170 29 183 32 20 5 22 11 22 64 0 47 -3 59 -16
59 -21 0 -84 63 -84 84 0 8 13 31 30 49 l30 34 -62 27 c-35 15 -66 33 -70 39
-4 7 -8 2547 -8 5645 l0 5632 -115 0 -115 0 0 -5634z"/>
</g>
</svg>
