<?xml version="1.0" standalone="no"?>
<!DOCTYPE svg PUBLIC "-//W3C//DTD SVG 20010904//EN"
 "http://www.w3.org/TR/2001/REC-SVG-20010904/DTD/svg10.dtd">
<svg version="1.0" xmlns="http://www.w3.org/2000/svg"
 width="2550.000000pt" height="2700.000000pt" viewBox="0 0 2550.000000 2700.000000"
 preserveAspectRatio="xMidYMid meet">

<g transform="translate(0.000000,2700.000000) scale(0.100000,-0.100000)"
fill="#65340A" stroke="none">
<path d="M15482 19772 l-43 -37 1 -1373 c0 -1204 -2 -1376 -15 -1402 -12 -23
-13 -34 -3 -55 8 -19 8 -31 -1 -51 -9 -22 -9 -31 4 -50 27 -42 19 -85 -25
-128 -47 -46 -65 -92 -51 -129 9 -22 5 -35 -25 -84 -41 -68 -40 -90 6 -165 25
-40 28 -53 19 -69 -17 -32 0 -79 47 -129 49 -52 58 -90 31 -131 -15 -22 -16
-31 -6 -53 9 -20 9 -32 1 -51 -10 -21 -9 -32 3 -55 13 -25 15 -207 15 -1455
l0 -1426 -32 -29 c-25 -23 -30 -32 -20 -42 18 -18 15 -55 -6 -70 -19 -13 -35
-68 -27 -90 4 -10 38 -12 133 -11 l127 2 3 39 c3 33 -1 42 -22 56 -30 19 -33
42 -11 73 15 21 14 23 -15 38 -16 8 -31 17 -31 18 -1 1 -3 647 -5 1436 -3
1274 -1 1437 12 1463 13 24 13 36 4 58 -9 22 -9 32 2 49 11 18 10 26 -4 52
-27 47 -22 75 21 122 58 64 66 83 51 127 -12 36 -11 39 29 93 22 31 41 61 41
67 0 6 -18 38 -39 70 -36 54 -39 63 -29 90 15 44 3 75 -47 129 -49 53 -56 81
-29 133 13 24 13 35 4 58 -9 22 -9 32 2 49 11 18 10 26 -5 53 -16 31 -17 126
-14 1440 1 775 0 1408 -3 1408 -3 0 -24 -17 -48 -38z m-44 -3161 c-14 -22 -28
-28 -28 -11 0 19 24 50 33 41 5 -5 3 -18 -5 -30z m132 -26 c0 -18 -2 -17 -26
7 -19 18 -25 32 -20 45 7 16 9 16 26 -7 11 -14 20 -34 20 -45z m-50 -50 l34
-35 -37 -38 -37 -37 -37 37 -37 38 34 35 c19 19 37 35 40 35 3 0 21 -16 40
-35z m-90 -148 c0 -14 -45 -77 -56 -77 -22 0 -32 97 -13 132 11 21 12 21 40
-13 16 -19 29 -37 29 -42z m180 54 c19 -36 9 -131 -14 -131 -11 0 -66 63 -66
76 0 9 53 72 62 73 4 1 12 -8 18 -18z m-93 -133 c18 -18 33 -36 33 -42 0 -6
-14 -25 -31 -42 l-32 -33 -38 31 c-22 17 -39 35 -39 39 0 10 60 79 68 79 3 0
21 -14 39 -32z m53 -131 c0 -7 -7 -23 -16 -36 -23 -33 -41 -11 -19 23 18 28
35 34 35 13z m-126 -30 c15 -24 -2 -34 -19 -11 -8 10 -15 23 -15 27 0 13 22 3
34 -16z"/>
</g>
</svg>
