<?xml version="1.0" standalone="no"?>
<!DOCTYPE svg PUBLIC "-//W3C//DTD SVG 20010904//EN"
 "http://www.w3.org/TR/2001/REC-SVG-20010904/DTD/svg10.dtd">
<svg version="1.0" xmlns="http://www.w3.org/2000/svg"
 width="2550.000000pt" height="2700.000000pt" viewBox="0 0 2550.000000 2700.000000"
 preserveAspectRatio="xMidYMid meet">

<g transform="translate(0.000000,2700.000000) scale(0.100000,-0.100000)"
fill="#65340A" stroke="none">
<path d="M18211 22371 l-44 -39 -1 -1383 c-1 -1311 -2 -1385 -19 -1410 -15
-22 -16 -31 -6 -53 9 -20 9 -32 0 -52 -9 -22 -8 -30 9 -54 29 -40 25 -72 -14
-119 -40 -48 -63 -106 -48 -124 7 -8 -2 -31 -29 -76 -21 -36 -39 -73 -39 -83
0 -9 13 -41 29 -71 24 -45 28 -61 23 -105 -4 -45 -1 -58 22 -91 15 -21 38 -49
51 -61 30 -28 33 -72 6 -106 -16 -20 -17 -29 -8 -53 8 -22 8 -36 0 -54 -9 -20
-8 -30 8 -56 19 -31 19 -75 19 -1901 0 -2025 4 -1888 -51 -1905 -14 -5 -18
-12 -13 -23 18 -43 16 -61 -10 -87 -18 -18 -26 -37 -26 -60 l0 -35 133 0 c72
0 137 4 143 8 6 4 13 19 16 34 4 21 -1 31 -24 48 -30 22 -37 57 -16 78 9 9 5
18 -20 40 l-32 27 0 1874 c0 1657 1 1877 15 1897 12 19 13 28 3 49 -8 18 -8
32 -1 48 9 19 7 33 -8 67 -10 23 -19 51 -19 62 0 11 23 45 50 75 59 65 69 93
47 139 -16 33 -16 34 18 85 19 28 35 61 35 73 0 12 -16 46 -35 76 -30 49 -34
60 -29 101 6 44 4 48 -40 98 -50 57 -56 84 -26 116 18 19 19 26 9 55 -9 25 -9
37 0 52 9 14 8 26 -4 55 -14 33 -16 197 -16 1460 -1 783 -4 1423 -7 1423 -4
-1 -27 -18 -51 -39z m69 -3160 c17 -33 12 -46 -10 -26 -21 19 -27 45 -10 45 5
0 14 -9 20 -19z m-10 -116 c0 -6 -14 -24 -30 -40 -34 -33 -48 -30 -84 18 l-20
27 34 35 34 35 33 -32 c18 -18 33 -37 33 -43z m80 -96 c9 -31 7 -45 -6 -70
l-16 -31 -39 38 c-22 21 -38 41 -37 45 2 3 16 23 32 42 34 43 50 37 66 -24z
m-213 16 l22 -35 -26 -40 c-32 -49 -46 -40 -47 27 -1 50 8 83 21 83 4 -1 18
-16 30 -35z m108 -195 l-41 -40 -39 40 -39 40 39 40 39 40 41 -40 40 -40 -40
-40z m69 -47 c-8 -34 -31 -73 -44 -73 -5 0 -12 9 -15 21 -5 15 1 29 21 50 35
36 46 37 38 2z m-150 -24 c8 -12 12 -28 9 -37 -5 -12 -9 -11 -25 8 -19 24 -24
50 -9 50 6 0 17 -10 25 -21z m66 -100 c0 -5 -4 -9 -10 -9 -5 0 -10 7 -10 16 0
8 5 12 10 9 6 -3 10 -10 10 -16z"/>
</g>
</svg>
