<?xml version="1.0" standalone="no"?>
<!DOCTYPE svg PUBLIC "-//W3C//DTD SVG 20010904//EN"
 "http://www.w3.org/TR/2001/REC-SVG-20010904/DTD/svg10.dtd">
<svg version="1.0" xmlns="http://www.w3.org/2000/svg"
 width="2550.000000pt" height="2700.000000pt" viewBox="0 0 2550.000000 2700.000000"
 preserveAspectRatio="xMidYMid meet">

<g transform="translate(0.000000,2700.000000) scale(0.100000,-0.100000)"
fill="#65340A" stroke="none">
<path d="M19945 24212 l-50 -47 3 -1397 3 -1398 -21 -30 c-19 -27 -21 -34 -10
-61 10 -24 10 -35 0 -55 -12 -21 -11 -28 8 -54 27 -36 28 -70 3 -101 -32 -41
-53 -91 -47 -111 3 -13 -7 -38 -28 -68 -48 -70 -53 -108 -22 -176 20 -44 23
-60 15 -81 -17 -46 -1 -95 51 -159 57 -68 65 -112 29 -150 -20 -21 -20 -26 -9
-54 11 -25 10 -36 0 -56 -12 -21 -11 -28 8 -54 l22 -29 0 -1896 0 -1896 -26
-24 c-15 -14 -33 -25 -40 -25 -18 0 -18 -10 1 -38 19 -26 8 -53 -30 -78 -15
-10 -25 -26 -25 -40 l0 -24 173 2 c170 3 172 3 175 25 2 17 -4 26 -23 35 -32
15 -42 51 -22 82 15 23 15 24 -23 35 -21 6 -38 17 -37 24 0 6 -1 254 -1 549
l-2 537 -22 3 c-23 3 -23 5 -26 193 -2 191 4 237 34 249 12 5 14 175 14 1149
0 1005 2 1146 15 1157 18 15 19 34 3 60 -10 16 -10 24 0 40 17 28 15 48 -8 62
-15 10 -20 24 -20 58 0 49 11 70 72 137 42 47 47 74 21 127 -16 34 -16 35 15
84 18 27 32 59 32 71 0 21 -55 112 -72 119 -5 2 -6 25 -2 52 6 44 4 50 -30 87
-41 46 -46 81 -16 108 23 21 25 37 8 65 -10 15 -9 24 2 44 11 22 11 30 0 51
-7 13 -16 23 -19 21 -3 -2 -5 650 -4 1449 1 1107 -2 1456 -11 1464 -8 7 -26
-4 -61 -37z m55 -3297 c0 -6 -15 -26 -33 -43 l-33 -32 -21 22 c-33 36 -33 51
0 85 l31 33 28 -27 c15 -15 28 -32 28 -38z m74 -67 c26 -42 29 -82 7 -109
l-20 -24 -43 42 -42 43 34 35 c40 41 45 42 64 13z m-199 -22 l18 -33 -28 -38
c-29 -37 -29 -37 -38 -13 -5 12 -6 41 -2 62 10 67 23 73 50 22z m95 -108 c22
-18 40 -38 40 -43 0 -6 -17 -28 -38 -48 l-38 -37 -38 39 -39 40 32 40 c18 23
35 41 38 41 2 0 22 -15 43 -32z m96 -140 c-4 -18 -16 -44 -27 -58 l-21 -24
-18 24 c-20 27 -22 23 34 88 25 29 41 14 32 -30z m-177 -17 c19 -27 20 -61 1
-61 -10 0 -39 73 -33 83 7 11 10 9 32 -22z m76 -104 c0 -26 -20 -25 -23 2 -3
16 1 22 10 19 7 -3 13 -12 13 -21z"/>
</g>
</svg>
