<?xml version="1.0" standalone="no"?>
<!DOCTYPE svg PUBLIC "-//W3C//DTD SVG 20010904//EN"
 "http://www.w3.org/TR/2001/REC-SVG-20010904/DTD/svg10.dtd">
<svg version="1.0" xmlns="http://www.w3.org/2000/svg"
 width="2550.000000pt" height="2700.000000pt" viewBox="0 0 2550.000000 2700.000000"
 preserveAspectRatio="xMidYMid meet">

<g transform="translate(0.000000,2700.000000) scale(0.100000,-0.100000)"
fill="#65340A" stroke="none">
<path d="M22249 26993 c0 -5 0 -610 1 -1346 l1 -1337 -20 -26 c-23 -30 -27
-54 -10 -71 9 -9 9 -20 -1 -43 -13 -33 -2 -80 20 -80 17 0 11 -68 -10 -102
-11 -18 -20 -41 -20 -50 0 -9 -18 -43 -41 -76 -49 -71 -59 -123 -34 -187 13
-36 15 -52 6 -77 -23 -66 -10 -115 55 -195 59 -72 71 -139 32 -180 -20 -21
-21 -26 -9 -59 9 -26 10 -39 2 -47 -17 -17 -13 -41 9 -70 20 -25 20 -38 20
-1539 0 -1662 4 -1549 -60 -1563 -35 -8 -35 -8 -14 -40 20 -31 12 -56 -26 -78
-16 -10 -30 -25 -30 -34 0 -17 7 -17 270 10 l114 12 -27 18 c-30 20 -36 57
-12 77 24 20 18 28 -30 35 l-45 7 0 1535 0 1535 21 30 c21 29 21 32 6 58 -14
24 -15 29 -2 46 20 26 19 38 -9 71 -22 26 -23 32 -13 96 9 57 16 74 54 118 56
65 60 86 33 152 l-22 53 26 46 c14 26 26 57 26 68 0 12 -20 49 -45 82 -40 51
-45 64 -39 92 4 26 1 38 -15 53 -34 32 -35 82 -3 116 26 28 26 29 10 58 -16
28 -17 32 -1 55 13 21 14 29 3 49 -7 14 -17 25 -22 25 -4 0 -8 610 -8 1355 l0
1355 -70 0 c-38 0 -70 -3 -71 -7z m80 -3077 c25 -27 21 -45 -19 -81 -22 -19
-22 -19 -36 0 -19 25 -18 64 3 87 21 23 25 23 52 -6z m94 -94 c9 -10 22 -33
28 -50 9 -26 8 -37 -5 -57 -22 -34 -36 -32 -81 15 l-39 40 34 35 c39 40 41 41
63 17z m-190 -19 c13 -24 12 -30 -12 -64 -31 -45 -41 -48 -41 -13 0 35 21 104
31 104 5 0 15 -12 22 -27z m96 -124 l45 -40 -48 -47 -47 -47 -35 39 c-19 22
-34 44 -34 50 0 13 58 86 68 86 4 -1 27 -19 51 -41z m109 -136 c2 -32 -2 -47
-22 -69 l-24 -29 -31 29 -31 30 42 43 c23 24 47 42 53 40 5 -2 11 -22 13 -44z
m-205 -25 c14 -18 18 -34 13 -53 -10 -41 -33 -15 -52 62 -9 32 11 28 39 -9z
m96 -137 c-8 -11 -18 -20 -24 -18 -15 5 -29 52 -21 73 6 16 9 16 32 -8 23 -22
24 -28 13 -47z"/>
</g>
</svg>
