<?xml version="1.0" standalone="no"?>
<!DOCTYPE svg PUBLIC "-//W3C//DTD SVG 20010904//EN"
 "http://www.w3.org/TR/2001/REC-SVG-20010904/DTD/svg10.dtd">
<svg version="1.0" xmlns="http://www.w3.org/2000/svg"
 width="2550.000000pt" height="2700.000000pt" viewBox="0 0 2550.000000 2700.000000"
 preserveAspectRatio="xMidYMid meet">

<g transform="translate(0.000000,2700.000000) scale(0.100000,-0.100000)"
fill="#65340A" stroke="none">
<path d="M23087 26993 c-3 -5 -4 -363 -2 -798 l3 -789 -25 -33 c-24 -31 -25
-35 -9 -52 20 -22 20 -35 1 -65 -15 -22 -14 -26 10 -54 30 -36 32 -75 5 -120
-11 -18 -20 -41 -20 -50 0 -10 -12 -34 -26 -53 -64 -86 -81 -166 -48 -230 12
-24 13 -37 5 -61 -27 -76 -7 -141 64 -218 13 -14 29 -38 34 -53 13 -34 14 -97
2 -97 -5 0 -16 -11 -25 -25 -15 -23 -15 -27 0 -51 16 -24 16 -28 1 -53 -15
-26 -15 -29 7 -62 l23 -34 -2 -2005 c-1 -1103 -5 -2013 -9 -2022 -4 -9 -26
-24 -48 -33 -35 -14 -38 -18 -25 -28 33 -26 25 -70 -19 -96 -19 -12 -34 -27
-31 -34 4 -14 42 -13 235 9 73 8 137 12 142 9 6 -4 10 -2 10 4 0 6 -9 15 -19
21 -28 15 -35 47 -17 75 22 33 21 34 -23 41 -33 5 -40 11 -45 36 -3 17 -6 288
-6 603 0 564 0 573 -20 578 -19 5 -20 14 -20 237 0 223 1 232 20 237 20 5 20
14 20 1193 0 1174 0 1187 20 1205 22 20 26 45 8 63 -9 9 -8 21 2 52 12 38 12
42 -9 64 -20 21 -22 32 -17 73 3 26 6 57 6 69 0 11 19 42 42 70 75 90 73 86
43 151 l-26 58 32 61 33 61 -32 50 c-18 28 -41 58 -52 68 -15 14 -18 26 -14
59 5 33 2 45 -15 60 -28 25 -27 78 1 117 19 25 20 33 10 49 -15 24 -16 57 -2
65 16 10 11 41 -10 60 -20 18 -20 31 -20 822 l0 803 -69 0 c-39 0 -72 -3 -74
-7z m82 -1989 l20 -26 -25 -34 c-15 -19 -32 -34 -39 -34 -28 0 -34 73 -8 102
21 24 28 23 52 -8z m100 -98 c31 -33 37 -85 12 -114 l-20 -23 -46 37 c-25 21
-45 43 -45 48 0 11 60 76 70 76 4 0 16 -11 29 -24z m-200 -14 c10 -25 9 -34
-9 -65 -27 -45 -40 -47 -40 -5 0 34 20 98 31 98 4 0 12 -13 18 -28z m94 -127
c20 -20 37 -39 37 -43 -1 -4 -19 -27 -41 -51 l-40 -44 -30 29 c-50 47 -52 56
-18 103 17 22 36 41 42 41 7 0 29 -16 50 -35z m118 -109 c14 -31 6 -63 -25
-101 l-25 -30 -32 31 -31 32 42 46 c23 25 47 46 51 46 5 0 14 -11 20 -24z
m-213 -56 c16 -21 21 -37 16 -55 -7 -29 -21 -24 -35 11 -28 76 -19 96 19 44z
m101 -139 c-8 -11 -18 -20 -24 -18 -15 5 -29 52 -21 73 6 16 9 16 32 -8 23
-22 24 -28 13 -47z"/>
</g>
</svg>
