<?xml version="1.0" standalone="no"?>
<!DOCTYPE svg PUBLIC "-//W3C//DTD SVG 20010904//EN"
 "http://www.w3.org/TR/2001/REC-SVG-20010904/DTD/svg10.dtd">
<svg version="1.0" xmlns="http://www.w3.org/2000/svg"
 width="2550.000000pt" height="2700.000000pt" viewBox="0 0 2550.000000 2700.000000"
 preserveAspectRatio="xMidYMid meet">

<g transform="translate(0.000000,2700.000000) scale(0.100000,-0.100000)"
fill="#65340A" stroke="none">
<path d="M23957 26993 c-4 -3 -7 -121 -7 -260 0 -243 -1 -255 -21 -282 -21
-28 -21 -30 -3 -60 17 -28 17 -31 1 -49 -22 -24 -22 -29 8 -68 31 -41 31 -68
0 -119 -13 -22 -25 -50 -25 -62 0 -12 -11 -35 -25 -51 -34 -41 -65 -110 -65
-149 0 -18 7 -50 16 -72 13 -33 14 -49 5 -89 -15 -70 9 -141 64 -192 51 -46
72 -134 39 -160 -31 -26 -36 -49 -18 -80 17 -27 17 -30 1 -48 -22 -24 -21 -28
3 -62 20 -28 20 -42 20 -1601 0 -1063 -3 -1576 -10 -1584 -6 -7 -25 -19 -43
-26 -42 -17 -42 -16 -23 -34 32 -33 8 -88 -47 -108 -8 -3 -9 -8 -2 -14 6 -5
76 1 181 17 171 25 171 25 163 48 -9 25 4 62 21 62 6 0 10 4 10 8 0 5 -25 15
-57 22 -31 8 -52 15 -47 17 5 2 8 645 6 1586 -2 1575 -2 1584 18 1602 21 19
26 50 10 60 -5 3 -10 17 -10 30 0 13 5 27 10 30 17 10 11 40 -11 64 -19 20
-21 30 -15 89 7 66 22 97 76 157 42 46 44 67 14 126 -19 38 -24 57 -17 68 5 9
22 37 36 62 l27 46 -53 75 c-40 56 -52 79 -46 94 12 31 10 41 -16 72 -31 37
-33 85 -5 114 21 23 26 53 10 63 -5 3 -10 17 -10 30 0 13 5 27 10 30 16 10 11
40 -10 63 -19 20 -20 35 -20 282 l0 260 -68 0 c-38 0 -72 -3 -75 -7z m68 -982
c-27 -28 -37 -33 -47 -23 -18 18 -13 80 8 104 19 20 19 20 46 -13 l28 -33 -35
-35z m111 -33 c39 -45 45 -72 21 -107 -12 -17 -26 -31 -32 -31 -5 0 -29 19
-52 42 l-43 42 37 38 c20 21 40 38 43 38 4 0 15 -10 26 -22z m-201 -17 c14
-28 13 -32 -8 -65 -32 -50 -51 -47 -42 7 8 46 22 87 29 87 3 0 12 -13 21 -29z
m93 -131 l44 -39 -43 -50 -44 -51 -37 37 c-21 20 -38 43 -38 51 0 15 57 92 68
92 4 -1 27 -18 50 -40z m122 -109 c16 -30 12 -51 -16 -88 -30 -39 -43 -41 -74
-8 l-23 24 37 46 c41 49 60 56 76 26z m-196 -108 c-12 -43 -35 -20 -49 47 l-7
35 31 -30 c23 -22 29 -36 25 -52z m86 -73 c0 -10 -7 -23 -15 -30 -12 -10 -16
-8 -25 15 -12 31 -13 49 -3 58 10 10 43 -23 43 -43z"/>
</g>
</svg>
