<?xml version="1.0" standalone="no"?>
<!DOCTYPE svg PUBLIC "-//W3C//DTD SVG 20010904//EN"
 "http://www.w3.org/TR/2001/REC-SVG-20010904/DTD/svg10.dtd">
<svg version="1.0" xmlns="http://www.w3.org/2000/svg"
 width="2550.000000pt" height="2700.000000pt" viewBox="0 0 2550.000000 2700.000000"
 preserveAspectRatio="xMidYMid meet">

<g transform="translate(0.000000,2700.000000) scale(0.100000,-0.100000)"
fill="#65340A" stroke="none">
<path d="M14636 18951 l-49 -50 2 -1359 c2 -1401 3 -1388 -34 -1414 -7 -5 -6
-14 3 -28 14 -24 16 -70 2 -70 -17 0 -11 -26 10 -45 36 -33 27 -80 -29 -141
-56 -62 -69 -100 -48 -143 14 -28 13 -32 -14 -73 -39 -59 -39 -105 3 -165 26
-38 31 -55 29 -94 -2 -42 2 -52 39 -93 46 -54 50 -84 19 -128 -16 -22 -19 -32
-10 -41 14 -14 14 -42 0 -66 -10 -14 -8 -24 10 -48 l23 -30 -4 -1869 -3 -1869
-22 -25 c-13 -13 -23 -18 -23 -12 0 7 -7 12 -15 12 -12 0 -12 -4 2 -28 14 -25
15 -32 2 -60 -8 -19 -21 -32 -31 -32 -14 0 -18 -8 -18 -34 0 -28 4 -35 28 -42
28 -8 271 -6 284 2 18 11 6 53 -22 82 -33 35 -37 54 -15 72 22 18 19 26 -15
40 -17 7 -35 21 -40 31 -6 11 -10 707 -10 1879 0 1840 0 1862 20 1887 15 19
17 30 9 44 -6 11 -7 39 -4 62 5 33 3 46 -9 56 -27 23 -19 69 20 117 36 43 46
81 31 114 -5 10 9 36 38 75 25 33 45 64 45 68 0 5 -16 36 -36 70 -30 51 -34
64 -25 84 24 53 14 85 -56 167 -39 46 -43 89 -14 137 15 24 17 37 10 51 -5 10
-7 34 -3 53 4 24 1 43 -10 60 -14 22 -16 158 -18 1435 l-3 1411 -49 -50z m14
-3085 c0 -8 -4 -17 -9 -21 -12 -7 -24 12 -16 25 9 15 25 12 25 -4z m-58 -63
c4 -18 -29 -73 -44 -73 -12 0 -10 16 6 55 16 38 32 45 38 18z m137 -38 c18
-50 5 -57 -30 -17 -24 27 -28 36 -18 53 13 26 30 14 48 -36z m-51 -70 l37 -35
-42 -42 -43 -42 -35 34 c-19 19 -35 38 -35 44 0 12 61 76 73 76 4 0 25 -16 45
-35z m92 -148 c0 -32 -11 -69 -26 -86 -4 -5 -21 14 -50 56 -15 21 -14 25 18
62 30 36 34 39 46 24 6 -9 12 -34 12 -56z m-212 30 l33 -34 -27 -41 c-15 -23
-31 -39 -35 -36 -25 15 -34 144 -10 144 4 0 22 -15 39 -33z m109 -109 c36 -41
37 -48 7 -79 -15 -16 -33 -29 -39 -29 -20 0 -68 57 -60 72 15 25 49 58 60 58
6 0 21 -10 32 -22z"/>
</g>
</svg>
