<?xml version="1.0" standalone="no"?>
<!DOCTYPE svg PUBLIC "-//W3C//DTD SVG 20010904//EN"
 "http://www.w3.org/TR/2001/REC-SVG-20010904/DTD/svg10.dtd">
<svg version="1.0" xmlns="http://www.w3.org/2000/svg"
 width="3542.000000pt" height="3750.000000pt" viewBox="0 0 3542.000000 3750.000000"
 preserveAspectRatio="xMidYMid meet">

<g transform="translate(0.000000,3750.000000) scale(0.100000,-0.100000)"
fill="#C5C3C1" stroke="none">
<path d="M19243 18702 l-43 -3 0 -613 0 -613 -52 -7 c-29 -3 -79 -6 -110 -6
l-58 0 0 -3320 0 -3319 35 -7 c20 -3 68 -3 109 1 66 6 74 5 78 -12 8 -31 2
-1008 -6 -1021 -4 -7 -31 -24 -58 -36 -47 -22 -50 -24 -30 -35 45 -24 31 -90
-24 -111 -20 -8 -24 -16 -24 -53 l0 -43 116 -19 c114 -19 118 -19 233 1 l116
19 1 42 c2 39 -1 44 -35 60 -45 22 -55 69 -21 101 l21 19 -49 21 c-28 12 -52
29 -56 38 -3 8 -6 251 -6 539 0 490 1 524 18 529 9 2 59 10 110 17 l92 12 0
3299 0 3300 -107 -4 -108 -3 -3 617 -2 617 -48 -2 c-26 -1 -66 -3 -89 -5z
m179 -3909 c1 -1407 2 -2835 2 -3173 l1 -614 -70 -12 c-38 -6 -98 -15 -132
-19 l-63 -7 0 3186 0 3185 93 4 c50 1 109 4 130 5 l37 2 2 -2557z"/>
</g>
</svg>
