<?xml version="1.0" standalone="no"?>
<!DOCTYPE svg PUBLIC "-//W3C//DTD SVG 20010904//EN"
 "http://www.w3.org/TR/2001/REC-SVG-20010904/DTD/svg10.dtd">
<svg version="1.0" xmlns="http://www.w3.org/2000/svg"
 width="3542.000000pt" height="3750.000000pt" viewBox="0 0 3542.000000 3750.000000"
 preserveAspectRatio="xMidYMid meet">

<g transform="translate(0.000000,3750.000000) scale(0.100000,-0.100000)"
fill="#C5C3C1" stroke="none">
<path d="M26448 18104 l-3 -616 -127 1 -128 2 0 -3299 0 -3298 128 -15 127
-14 3 -520 c1 -286 0 -529 -3 -541 -3 -14 -22 -29 -56 -43 l-52 -21 21 -23
c12 -13 22 -33 22 -44 0 -23 -43 -63 -66 -63 -10 0 -14 -14 -14 -48 l0 -48
143 -17 c136 -17 146 -17 232 0 l90 18 3 48 c2 35 0 47 -11 47 -24 0 -67 40
-67 63 0 11 10 31 21 43 l22 23 -39 18 c-81 36 -74 -15 -74 565 l0 519 68 -8
c78 -9 179 -9 188 -1 6 7 7 664 5 4414 l-1 2221 -130 8 -130 7 0 619 0 619
-85 0 -85 0 -2 -616z m252 -761 c3 -3 5 -1435 5 -3184 l0 -3179 -30 1 c-16 0
-93 8 -170 17 l-140 17 1 220 c0 121 1 1549 2 3173 l2 2952 163 -6 c89 -4 164
-9 167 -11z"/>
</g>
</svg>
