<?xml version="1.0" standalone="no"?>
<!DOCTYPE svg PUBLIC "-//W3C//DTD SVG 20010904//EN"
 "http://www.w3.org/TR/2001/REC-SVG-20010904/DTD/svg10.dtd">
<svg version="1.0" xmlns="http://www.w3.org/2000/svg"
 width="3542.000000pt" height="3750.000000pt" viewBox="0 0 3542.000000 3750.000000"
 preserveAspectRatio="xMidYMid meet">

<g transform="translate(0.000000,3750.000000) scale(0.100000,-0.100000)"
fill="#C5C3C1" stroke="none">
<path d="M34480 17941 l0 -689 -157 2 -158 1 0 -3662 c0 -2014 2 -3664 5
-3667 3 -3 72 -13 153 -24 81 -10 149 -21 153 -24 8 -9 8 -1149 0 -1176 -5
-15 -26 -31 -62 -47 l-54 -24 25 -25 c41 -41 28 -87 -31 -112 -32 -13 -34 -17
-34 -63 l0 -48 88 -12 c48 -7 98 -14 112 -17 105 -16 140 -15 228 6 l92 22 0
50 c0 46 -2 50 -30 60 -58 20 -73 99 -23 127 15 8 10 13 -38 35 -31 13 -59 32
-63 41 -3 9 -6 275 -6 591 l0 574 28 -5 c98 -16 218 -26 252 -20 l40 7 2 516
c2 285 2 1949 0 3700 l-2 3182 -123 0 c-67 0 -139 3 -159 6 l-38 7 0 682 0
682 -46 7 c-26 3 -71 6 -100 6 l-54 0 0 -689z m316 -844 c4 -4 7 -7088 3
-7091 -2 -2 -101 8 -219 23 l-215 27 -3 3528 -2 3529 217 -7 c119 -3 218 -8
219 -9z"/>
</g>
</svg>
