<?xml version="1.0" standalone="no"?>
<!DOCTYPE svg PUBLIC "-//W3C//DTD SVG 20010904//EN"
 "http://www.w3.org/TR/2001/REC-SVG-20010904/DTD/svg10.dtd">
<svg version="1.0" xmlns="http://www.w3.org/2000/svg"
 width="3542.000000pt" height="3750.000000pt" viewBox="0 0 3542.000000 3750.000000"
 preserveAspectRatio="xMidYMid meet">

<g transform="translate(0.000000,3750.000000) scale(0.100000,-0.100000)"
fill="#C5C3C1" stroke="none">
<path d="M6296 18523 c-3 -4 -6 -243 -6 -532 0 -289 0 -626 0 -748 l0 -223
-82 0 c-46 0 -119 -3 -163 -6 l-80 -7 1 -2036 c0 -1120 2 -2939 2 -4043 l2
-2007 53 -6 c30 -4 94 0 154 9 57 9 107 16 113 16 7 0 10 -212 10 -625 0 -709
8 -647 -87 -686 l-54 -22 25 -26 c15 -16 26 -39 26 -55 0 -31 -42 -76 -71 -76
-16 0 -19 -8 -19 -58 l0 -59 115 -27 116 -28 169 28 170 29 0 57 c0 52 -2 58
-21 58 -27 0 -79 53 -79 80 0 12 13 35 30 50 l30 28 -54 22 c-94 38 -86 -28
-84 700 l3 644 154 23 c85 13 156 25 158 27 2 2 6 1807 9 4011 l6 4007 -166
-7 -166 -7 0 751 0 751 -103 0 c-57 0 -107 -3 -111 -7z m324 -5497 l0 -3854
-27 -6 c-44 -9 -373 -56 -394 -56 -19 0 -19 59 -16 3870 2 2128 6 3872 9 3875
3 4 86 10 184 14 99 4 194 9 212 9 l32 2 0 -3854z"/>
</g>
</svg>
