<?xml version="1.0" standalone="no"?>
<!DOCTYPE svg PUBLIC "-//W3C//DTD SVG 20010904//EN"
 "http://www.w3.org/TR/2001/REC-SVG-20010904/DTD/svg10.dtd">
<svg version="1.0" xmlns="http://www.w3.org/2000/svg"
 width="3542.000000pt" height="3750.000000pt" viewBox="0 0 3542.000000 3750.000000"
 preserveAspectRatio="xMidYMid meet">

<g transform="translate(0.000000,3750.000000) scale(0.100000,-0.100000)"
fill="#C5C3C1" stroke="none">
<path d="M11231 18590 l-54 -5 0 -693 c0 -381 -2 -694 -6 -696 -4 -3 -58 -5
-121 -7 -63 -1 -125 -4 -137 -6 l-23 -5 0 -3768 0 -3769 46 -7 c26 -4 83 -2
128 5 44 6 89 11 99 11 16 0 17 -34 17 -582 -1 -443 -4 -587 -13 -599 -7 -8
-35 -26 -64 -39 l-52 -23 24 -23 c44 -41 23 -104 -40 -120 -23 -6 -25 -11 -25
-58 l0 -51 78 -17 c139 -31 156 -32 307 -7 l145 23 0 53 c0 48 -2 53 -25 59
-27 7 -65 48 -65 71 0 8 13 27 29 43 l28 29 -54 22 c-29 12 -58 30 -63 40 -7
11 -9 242 -8 616 l3 597 135 21 135 20 3 3738 2 3737 -27 1 c-16 0 -79 0 -140
-1 l-113 -1 0 700 0 701 -47 -2 c-27 -2 -72 -5 -102 -8z m229 -5135 c0 -2869
-3 -3595 -12 -3595 -7 0 -85 -11 -173 -25 -88 -13 -166 -25 -172 -25 -10 0
-12 730 -10 3613 l2 3612 55 6 c30 3 112 6 183 7 l127 2 0 -3595z"/>
</g>
</svg>
