<?xml version="1.0" standalone="no"?>
<!DOCTYPE svg PUBLIC "-//W3C//DTD SVG 20010904//EN"
 "http://www.w3.org/TR/2001/REC-SVG-20010904/DTD/svg10.dtd">
<svg version="1.0" xmlns="http://www.w3.org/2000/svg"
 width="3542.000000pt" height="3750.000000pt" viewBox="0 0 3542.000000 3750.000000"
 preserveAspectRatio="xMidYMid meet">

<g transform="translate(0.000000,3750.000000) scale(0.100000,-0.100000)"
fill="#65340A" stroke="none">
<path d="M17390 17489 l0 -1201 -25 -30 c-29 -35 -31 -46 -8 -77 15 -22 15
-26 -2 -56 -16 -32 -16 -35 1 -64 10 -17 22 -31 26 -31 14 0 9 -86 -7 -106 -8
-10 -15 -36 -15 -56 0 -20 -4 -39 -9 -43 -5 -3 -30 -33 -55 -66 -55 -73 -59
-110 -20 -177 l27 -45 -27 -52 c-41 -83 -35 -116 43 -210 28 -33 41 -60 41
-80 1 -16 7 -41 15 -55 23 -41 19 -97 -10 -128 -30 -32 -30 -41 -8 -80 17 -29
17 -31 0 -50 -23 -26 -21 -44 8 -76 l25 -27 0 -829 0 -829 -25 -27 c-29 -31
-32 -60 -8 -86 16 -18 16 -21 0 -47 -23 -39 -21 -53 8 -85 29 -31 33 -89 10
-120 -8 -11 -15 -37 -15 -57 0 -21 -4 -40 -9 -44 -5 -3 -30 -33 -55 -66 -54
-72 -57 -96 -19 -174 l28 -56 -28 -48 c-40 -73 -33 -120 30 -186 36 -38 53
-70 53 -100 1 -16 7 -41 15 -55 23 -41 19 -97 -10 -128 -29 -31 -30 -41 -10
-68 19 -25 19 -48 0 -64 -22 -18 -18 -41 10 -72 l25 -27 0 -1060 c0 -893 -2
-1062 -14 -1074 -8 -7 -34 -21 -59 -31 l-45 -17 24 -24 c13 -13 24 -34 24 -45
0 -23 -45 -70 -67 -70 -11 0 -13 -12 -11 -47 l3 -47 115 -19 c111 -19 119 -19
220 -3 148 25 140 20 140 72 0 30 -4 44 -14 44 -7 0 -25 9 -40 21 -32 25 -35
70 -6 97 21 19 20 19 -29 40 -40 16 -52 27 -58 51 -4 17 -8 498 -7 1069 l0
1039 22 30 c26 37 27 46 6 78 -15 23 -15 27 0 50 22 34 20 52 -9 81 -15 15
-25 36 -25 52 1 50 46 158 85 206 53 65 70 131 49 194 -9 26 -19 51 -23 55 -4
4 3 29 15 55 39 79 29 126 -45 219 -22 29 -41 59 -41 68 0 9 -9 33 -20 55 -27
53 -26 93 5 126 25 27 33 68 15 79 -5 3 -10 17 -10 30 0 13 5 27 10 30 17 10
11 51 -10 78 -20 25 -20 40 -20 856 0 818 0 832 20 853 21 23 27 63 10 73 -5
3 -10 17 -10 30 0 13 5 27 10 30 25 15 1 95 -29 95 -18 0 -13 64 9 111 11 24
20 52 20 62 0 9 20 42 45 72 69 85 79 163 30 233 -15 21 -15 25 3 55 46 73 34
149 -36 228 -32 37 -71 129 -79 190 -4 29 0 41 21 64 29 31 33 61 11 89 -13
17 -13 22 0 42 20 31 19 56 -5 82 -20 21 -20 35 -20 1227 l0 1205 -90 0 -90 0
0 -1201z m117 -1641 c28 -26 28 -32 2 -69 -23 -32 -29 -31 -58 10 l-21 29 21
26 c25 32 27 32 56 4z m-102 -124 l27 -35 -46 -49 c-52 -56 -62 -51 -53 25 4
38 29 95 41 95 2 0 16 -16 31 -36z m199 8 c19 -36 32 -122 18 -122 -12 0 -72
67 -72 81 0 12 29 69 35 69 2 0 11 -12 19 -28z m-66 -145 c23 -23 42 -47 42
-53 0 -5 -20 -30 -45 -54 l-45 -44 -50 49 -50 49 47 48 c26 26 50 48 53 48 3
0 25 -19 48 -43z m-148 -162 l43 -44 -28 -40 c-31 -45 -40 -44 -61 5 -15 36
-19 124 -6 124 4 0 28 -20 52 -45z m231 -38 c-6 -30 -18 -62 -24 -72 -12 -15
-15 -13 -31 24 l-19 40 34 39 c43 49 56 39 40 -31z m-105 -112 c18 -34 18 -34
-6 -60 -13 -14 -26 -25 -29 -24 -3 0 -16 13 -29 29 l-22 28 26 31 c14 17 29
31 33 31 4 0 16 -16 27 -35z m-4 -2592 c23 -20 23 -41 0 -76 l-18 -27 -21 22
c-35 39 -36 48 -12 74 27 29 27 29 51 7z m-100 -132 l26 -39 -47 -46 c-26 -26
-50 -43 -54 -40 -22 22 14 165 41 164 4 -1 19 -18 34 -39z m203 -23 c16 -56
19 -88 8 -88 -5 1 -22 20 -39 43 -30 41 -31 43 -16 74 8 18 19 30 23 27 5 -3
15 -28 24 -56z m-67 -111 c23 -23 42 -47 42 -53 0 -12 -76 -94 -87 -94 -4 1
-30 21 -57 46 l-49 45 49 50 c26 27 51 49 54 49 3 0 25 -19 48 -43z m-138
-246 c-26 -33 -35 -39 -46 -30 -17 14 -45 104 -39 124 3 8 7 23 10 32 5 14 16
7 57 -34 l51 -51 -33 -41z m217 64 c-4 -25 -14 -60 -23 -77 l-17 -32 -19 37
-19 37 32 40 c42 52 53 51 46 -5z m-109 -120 c18 -38 15 -62 -10 -79 -20 -15
-24 -14 -45 6 -28 26 -28 32 -2 69 25 36 42 37 57 4z"/>
</g>
</svg>
