<?xml version="1.0" standalone="no"?>
<!DOCTYPE svg PUBLIC "-//W3C//DTD SVG 20010904//EN"
 "http://www.w3.org/TR/2001/REC-SVG-20010904/DTD/svg10.dtd">
<svg version="1.0" xmlns="http://www.w3.org/2000/svg"
 width="3542.000000pt" height="3750.000000pt" viewBox="0 0 3542.000000 3750.000000"
 preserveAspectRatio="xMidYMid meet">

<g transform="translate(0.000000,3750.000000) scale(0.100000,-0.100000)"
fill="#65340A" stroke="none">
<path d="M21750 17632 c0 -1106 0 -1119 -20 -1137 -21 -19 -27 -60 -10 -70 6
-3 10 -17 10 -30 0 -13 -4 -27 -10 -30 -17 -10 -11 -50 10 -73 24 -25 26 -88
5 -116 -8 -11 -15 -33 -15 -50 0 -18 -14 -48 -38 -80 -21 -28 -44 -61 -50 -73
-19 -34 -14 -85 13 -127 l24 -39 -25 -48 c-37 -75 -34 -91 41 -189 41 -53 50
-77 62 -167 4 -33 1 -46 -16 -64 -24 -26 -27 -50 -9 -79 10 -16 10 -24 0 -40
-17 -28 -15 -51 8 -80 19 -24 20 -46 20 -798 0 -759 0 -773 -20 -794 -23 -25
-25 -50 -8 -78 10 -16 10 -25 -4 -48 -15 -26 -15 -29 0 -55 9 -15 20 -27 24
-27 15 0 8 -81 -9 -106 -9 -14 -16 -39 -15 -56 0 -22 -13 -48 -49 -95 -58 -76
-63 -111 -23 -178 l25 -44 -25 -50 c-39 -77 -35 -93 51 -195 23 -27 33 -50 33
-72 0 -18 5 -36 10 -39 18 -11 11 -84 -12 -115 -20 -27 -20 -33 -8 -69 11 -34
10 -42 -3 -62 -15 -20 -15 -25 1 -51 9 -15 20 -28 24 -28 10 0 10 -1971 0
-1987 -4 -6 -26 -19 -50 -28 -38 -16 -41 -19 -29 -34 29 -32 30 -59 3 -86 -14
-14 -32 -25 -41 -25 -11 0 -15 -11 -15 -45 0 -25 4 -45 10 -45 5 0 60 -7 122
-16 102 -14 120 -14 207 1 53 9 97 18 100 21 2 2 6 17 8 34 3 30 0 34 -49 71
-33 24 -36 55 -7 85 l20 22 -44 17 c-25 9 -50 27 -56 38 -8 16 -10 289 -9 992
l3 970 23 32 c26 36 27 51 7 77 -13 17 -13 22 0 42 21 32 19 47 -11 79 -21 22
-25 35 -21 64 6 44 29 107 48 129 67 79 74 94 74 162 0 42 -5 73 -14 83 -12
15 -10 24 8 66 11 28 21 58 21 67 0 34 -25 90 -62 140 -21 28 -38 61 -38 72 0
12 -9 39 -20 59 -23 43 -27 103 -7 103 8 0 20 12 27 26 13 23 12 30 -3 56 -16
28 -16 33 -2 54 20 31 19 46 -5 72 -20 21 -20 35 -20 797 0 762 0 776 20 797
24 26 25 41 4 73 -14 22 -14 26 2 50 14 21 15 31 6 51 -7 13 -19 27 -27 30
-19 8 -19 70 0 104 8 14 14 33 15 43 0 10 18 39 39 65 64 76 77 138 44 206
-15 33 -15 38 0 73 36 87 30 124 -34 209 -22 28 -39 62 -39 75 0 13 -9 39 -20
57 -27 44 -25 85 5 118 28 31 31 50 10 78 -13 17 -13 22 0 42 20 30 19 44 -5
74 -19 24 -20 49 -20 1143 l0 1117 -85 0 -85 0 0 -1118z m122 -1585 c-24 -42
-36 -43 -61 -8 l-22 30 22 31 23 30 28 -27 c28 -26 28 -27 10 -56z m-92 -88
c7 -12 -1 -26 -35 -59 l-44 -43 -7 27 c-7 29 10 101 29 124 9 11 14 9 29 -10
10 -13 23 -30 28 -39z m186 -4 c3 -18 4 -45 2 -61 l-3 -28 -34 42 -34 43 19
35 c17 31 20 33 31 18 7 -10 15 -32 19 -49z m-87 -91 c56 -47 58 -61 15 -105
-21 -21 -43 -39 -48 -39 -6 0 -30 19 -53 42 l-43 42 42 43 c23 24 45 43 49 43
4 0 21 -12 38 -26z m-110 -233 c-12 -17 -26 -31 -31 -31 -16 0 -38 61 -38 107
l0 48 46 -46 46 -47 -23 -31z m201 74 c0 -29 -29 -105 -40 -105 -4 0 -13 13
-20 30 -11 27 -10 33 16 64 35 42 44 44 44 11z m-106 -136 c17 -29 17 -31 0
-50 -23 -25 -38 -24 -53 5 -12 21 -11 28 5 50 11 14 21 26 24 26 3 0 14 -14
24 -31z m6 -2414 c21 -23 22 -27 9 -51 -20 -38 -35 -40 -63 -8 l-24 29 20 27
c24 34 28 34 58 3z m-105 -112 c13 -16 25 -33 25 -38 0 -6 -18 -29 -40 -50
-34 -33 -42 -37 -51 -25 -13 20 -5 85 15 115 20 31 22 31 51 -2z m194 -4 c6
-18 11 -50 11 -72 l0 -40 -34 39 c-33 38 -33 39 -18 71 20 41 27 41 41 2z
m-59 -224 l-44 -45 -48 47 -48 47 48 42 47 43 45 -45 44 -44 -44 -45z m-148
-52 c21 -20 38 -42 38 -48 -1 -5 -11 -23 -25 -39 l-23 -29 -21 34 c-20 32 -30
119 -14 119 4 0 24 -17 45 -37z m214 -23 c-7 -42 -25 -90 -35 -90 -4 0 -12 14
-19 32 -11 30 -10 34 20 65 18 18 34 33 36 33 3 0 2 -18 -2 -40z m-97 -116
c10 -22 9 -31 -4 -50 -20 -31 -29 -30 -50 2 -16 25 -16 27 6 50 28 30 33 30
48 -2z"/>
</g>
</svg>
