<?xml version="1.0" standalone="no"?>
<!DOCTYPE svg PUBLIC "-//W3C//DTD SVG 20010904//EN"
 "http://www.w3.org/TR/2001/REC-SVG-20010904/DTD/svg10.dtd">
<svg version="1.0" xmlns="http://www.w3.org/2000/svg"
 width="3542.000000pt" height="3750.000000pt" viewBox="0 0 3542.000000 3750.000000"
 preserveAspectRatio="xMidYMid meet">

<g transform="translate(0.000000,3750.000000) scale(0.100000,-0.100000)"
fill="#65340A" stroke="none">
<path d="M24400 17605 c0 -1122 0 -1136 -20 -1157 -24 -26 -25 -41 -4 -73 15
-23 15 -27 0 -50 -22 -33 -20 -49 9 -76 30 -29 32 -73 5 -114 -11 -16 -20 -46
-20 -65 0 -27 -12 -50 -50 -99 -59 -75 -63 -108 -24 -181 l26 -47 -21 -41
c-34 -68 -28 -108 27 -177 45 -57 68 -111 79 -186 4 -29 0 -41 -21 -64 -29
-32 -32 -51 -11 -79 13 -17 13 -22 0 -42 -20 -30 -19 -44 5 -74 19 -24 20 -46
20 -810 0 -764 -1 -786 -20 -810 -24 -30 -25 -44 -5 -74 14 -21 14 -26 -2 -54
-15 -26 -16 -33 -3 -56 7 -14 19 -26 27 -26 21 0 16 -73 -7 -103 -12 -15 -20
-40 -20 -64 0 -30 -8 -49 -33 -79 -77 -91 -84 -126 -41 -200 l26 -45 -26 -58
c-31 -70 -28 -84 37 -170 41 -53 62 -104 74 -178 4 -25 -1 -40 -21 -64 -30
-36 -31 -40 -11 -78 12 -25 12 -31 0 -47 -20 -27 -18 -47 7 -74 l21 -23 5
-994 c5 -1112 12 -1012 -69 -1048 l-39 -18 22 -24 c29 -31 16 -72 -29 -93 -29
-13 -33 -20 -33 -56 l0 -41 130 -18 c126 -17 135 -17 225 0 l95 18 0 43 c0 34
-4 44 -20 49 -50 16 -66 69 -31 104 19 19 19 20 -29 40 -26 11 -51 28 -54 37
-4 10 -6 462 -5 1005 1 952 1 989 20 1010 28 32 32 55 13 84 -15 23 -15 27 0
50 22 33 20 42 -10 72 -22 22 -25 32 -21 67 9 76 20 101 59 144 67 73 84 144
53 217 -13 32 -12 39 5 78 35 76 21 142 -45 219 -20 24 -35 52 -35 67 0 14 -9
41 -20 59 -20 33 -28 112 -11 112 5 0 16 12 26 26 16 25 16 28 0 58 -17 31
-17 34 -1 59 18 27 13 51 -18 76 -14 12 -16 104 -16 798 l0 784 25 27 c29 32
30 40 9 71 -15 21 -15 25 1 55 17 31 17 34 0 59 -9 15 -21 27 -26 27 -14 0
-10 71 7 119 8 24 30 62 49 83 66 78 81 143 47 210 -18 35 -18 36 5 79 39 74
28 127 -43 216 -21 25 -34 52 -34 70 0 15 -9 42 -20 58 -26 39 -26 96 0 120
29 27 34 54 14 76 -17 19 -17 21 0 53 19 36 14 59 -18 86 -14 11 -16 133 -16
1146 l0 1134 -85 0 -85 0 0 -1135z m123 -1563 l26 -27 -20 -33 c-12 -17 -25
-32 -29 -32 -5 0 -20 14 -34 31 l-26 31 22 28 c13 16 26 29 29 29 3 1 17 -11
32 -27z m-86 -153 c-3 -10 -76 -89 -82 -89 -2 0 -7 15 -10 34 -5 24 -1 48 15
82 l21 49 29 -35 c16 -19 28 -38 27 -41z m179 36 c7 -19 14 -53 14 -77 l0 -42
-35 34 c-19 19 -35 40 -35 48 0 13 31 72 38 72 2 0 10 -16 18 -35z m-66 -140
l44 -45 -39 -40 c-21 -22 -44 -40 -50 -40 -5 0 -30 18 -55 39 l-45 39 45 46
c24 25 47 46 50 46 3 0 26 -20 50 -45z m-148 -142 c21 -20 38 -42 38 -48 -1
-5 -12 -23 -25 -40 l-24 -29 -20 44 c-20 44 -28 110 -14 110 4 0 24 -17 45
-37z m223 -20 c-6 -36 -31 -93 -40 -93 -2 0 -11 14 -19 32 -16 31 -16 32 16
65 41 43 52 42 43 -4z m-109 -110 c19 -25 17 -47 -4 -66 -17 -16 -20 -15 -40
6 l-22 24 21 26 c24 32 28 32 45 10z m13 -2457 c20 -21 21 -27 11 -48 -25 -46
-31 -50 -52 -31 -38 34 -42 53 -17 79 12 13 25 24 29 24 4 0 17 -11 29 -24z
m-105 -122 l29 -36 -46 -46 -46 -46 -11 30 c-16 39 12 134 39 134 3 0 19 -16
35 -36z m191 6 c8 -16 15 -48 15 -72 l-1 -43 -34 37 -35 38 17 35 c9 19 18 35
20 35 1 0 9 -13 18 -30z m-57 -143 l42 -43 -45 -44 -45 -44 -47 46 -47 47 45
40 c24 22 46 40 49 41 3 0 25 -19 48 -43z m-129 -216 c-12 -17 -27 -31 -31
-31 -13 0 -48 81 -48 111 0 43 12 42 58 -4 l44 -45 -23 -31z m196 57 c-4 -18
-14 -49 -22 -68 l-15 -35 -15 33 c-13 32 -12 36 12 68 33 43 49 44 40 2z
m-107 -110 c24 -24 8 -78 -23 -78 -5 0 -16 9 -23 21 -11 17 -11 25 3 45 17 27
26 29 43 12z"/>
</g>
</svg>
