<?xml version="1.0" standalone="no"?>
<!DOCTYPE svg PUBLIC "-//W3C//DTD SVG 20010904//EN"
 "http://www.w3.org/TR/2001/REC-SVG-20010904/DTD/svg10.dtd">
<svg version="1.0" xmlns="http://www.w3.org/2000/svg"
 width="3542.000000pt" height="3750.000000pt" viewBox="0 0 3542.000000 3750.000000"
 preserveAspectRatio="xMidYMid meet">

<g transform="translate(0.000000,3750.000000) scale(0.100000,-0.100000)"
fill="#65340A" stroke="none">
<path d="M31970 17394 l0 -1255 -27 -36 -27 -35 19 -34 c18 -34 18 -36 0 -66
-17 -30 -17 -32 0 -65 10 -18 25 -33 33 -33 22 0 10 -85 -16 -113 -28 -30 -43
-73 -36 -103 5 -18 -2 -34 -29 -67 -87 -106 -93 -139 -45 -227 l33 -58 -23
-46 c-38 -79 -27 -119 58 -214 34 -38 50 -65 55 -95 18 -112 19 -105 -14 -139
-34 -35 -39 -59 -16 -78 20 -16 19 -40 -2 -69 -15 -22 -15 -26 2 -57 10 -19
22 -34 27 -34 4 0 8 -394 8 -875 l0 -876 -25 -27 c-28 -30 -31 -49 -10 -76 19
-25 19 -50 0 -66 -23 -19 -18 -44 15 -76 44 -43 41 -66 -18 -155 -17 -26 -21
-42 -17 -70 6 -32 1 -43 -38 -91 -81 -99 -84 -122 -32 -209 l36 -58 -26 -50
c-41 -83 -36 -103 59 -215 36 -43 48 -74 63 -164 4 -27 0 -38 -26 -64 -35 -36
-38 -49 -15 -84 16 -23 16 -27 -1 -64 -17 -38 -17 -38 9 -73 l26 -34 0 -1100
c0 -606 -3 -1108 -6 -1117 -3 -9 -28 -26 -55 -37 -27 -12 -49 -25 -49 -29 0
-4 9 -15 20 -25 11 -10 20 -28 20 -41 0 -24 -52 -74 -77 -74 -12 0 -14 -9 -10
-45 2 -25 6 -47 8 -49 2 -2 24 -7 49 -10 25 -3 95 -13 155 -21 107 -15 112
-15 200 7 l90 23 3 42 c3 35 -1 44 -20 54 -69 35 -85 79 -44 121 l25 24 -51
20 c-27 10 -54 27 -59 36 -6 10 -9 467 -9 1123 l0 1106 25 27 c28 31 32 54 10
72 -19 16 -19 41 0 66 21 28 18 47 -13 80 -29 30 -32 49 -18 119 5 26 22 55
51 86 81 86 102 157 70 236 -14 36 -14 41 10 87 42 83 27 166 -42 247 -20 22
-32 49 -36 77 -3 24 -17 62 -32 84 -15 22 -29 55 -32 74 -5 28 -1 39 26 66 34
35 39 59 16 78 -19 16 -19 41 0 66 21 27 18 46 -10 76 l-25 27 0 876 c0 481 4
875 8 875 5 0 17 15 27 34 17 32 18 36 2 60 -21 31 -21 50 -2 66 23 19 18 44
-15 76 -33 32 -36 52 -18 122 8 33 27 64 61 102 79 87 94 146 58 225 -18 40
-18 40 7 79 49 79 40 147 -33 241 -27 35 -41 63 -38 74 4 18 -17 70 -52 131
-19 32 -20 90 -2 90 8 0 22 15 32 33 17 33 17 35 0 65 -18 30 -18 32 0 66 l19
34 -27 35 -27 36 0 1255 0 1256 -95 0 -95 0 0 -1256z m145 -1824 c-15 -22 -30
-40 -33 -40 -10 0 -72 64 -72 74 0 6 14 25 32 43 l31 32 35 -34 35 -34 -28
-41z m-105 -105 c0 -19 -87 -98 -100 -90 -18 11 -8 117 14 150 l18 27 33 -39
c19 -21 34 -43 35 -48z m220 -44 c0 -60 -6 -60 -59 8 l-29 36 26 44 26 45 18
-40 c10 -21 18 -63 18 -93z m-95 -71 l49 -50 -33 -34 c-18 -18 -43 -39 -57
-46 -23 -13 -27 -11 -69 30 -25 24 -45 48 -45 53 0 9 90 96 100 97 3 0 28 -22
55 -50z m-134 -193 c8 -13 4 -27 -12 -53 l-22 -36 -20 32 c-12 19 -22 56 -25
89 l-4 56 37 -35 c20 -19 41 -43 46 -53z m209 16 c-3 -21 -15 -53 -24 -72
l-18 -35 -14 25 c-7 13 -13 31 -14 39 0 14 58 80 71 80 3 0 3 -17 -1 -37z
m-110 -159 c0 -12 -7 -27 -15 -34 -13 -10 -19 -10 -35 5 -25 23 -25 26 2 60
20 26 22 27 35 9 7 -10 13 -28 13 -40z m15 -2684 l29 -31 -19 -35 c-11 -20
-25 -39 -33 -41 -7 -3 -28 12 -47 33 l-33 39 31 33 c17 17 34 32 37 32 3 0 19
-14 35 -30z m-125 -141 l32 -41 -48 -49 c-38 -39 -50 -46 -62 -37 -28 24 3
168 37 168 4 0 22 -18 41 -41z m225 4 c9 -22 15 -58 13 -87 l-3 -49 -38 46
-38 46 23 41 c13 22 24 40 25 40 2 0 10 -17 18 -37z m-68 -162 l42 -48 -50
-49 -49 -49 -53 53 -52 53 50 45 c27 24 54 44 60 44 5 0 29 -22 52 -49z m-148
-235 c-19 -28 -26 -32 -38 -23 -22 19 -41 73 -41 119 l0 43 52 -52 51 -52 -24
-35z m195 9 c-9 -25 -20 -45 -24 -45 -4 0 -12 12 -18 26 -11 22 -9 29 20 64
28 34 33 36 36 19 2 -11 -4 -40 -14 -64z m-99 -76 c17 -51 -22 -93 -45 -49 -8
15 -7 26 6 45 20 30 31 32 39 4z"/>
</g>
</svg>
