<?xml version="1.0" standalone="no"?>
<!DOCTYPE svg PUBLIC "-//W3C//DTD SVG 20010904//EN"
 "http://www.w3.org/TR/2001/REC-SVG-20010904/DTD/svg10.dtd">
<svg version="1.0" xmlns="http://www.w3.org/2000/svg"
 width="3542.000000pt" height="3750.000000pt" viewBox="0 0 3542.000000 3750.000000"
 preserveAspectRatio="xMidYMid meet">

<g transform="translate(0.000000,3750.000000) scale(0.100000,-0.100000)"
fill="#65340A" stroke="none">
<path d="M7685 18552 c-49 -1 -92 -7 -95 -12 -3 -5 -4 -631 -3 -1391 l3 -1382
-25 -25 c-36 -36 -41 -66 -16 -98 l21 -27 -20 -32 c-27 -43 -25 -55 11 -94 27
-30 30 -39 26 -80 -9 -79 -33 -144 -69 -186 -97 -111 -109 -159 -61 -247 24
-43 25 -52 14 -71 -82 -130 -81 -156 15 -275 42 -52 48 -66 48 -108 1 -37 8
-58 29 -85 20 -27 27 -47 27 -82 0 -33 -4 -47 -13 -47 -8 0 -22 -15 -32 -34
-18 -34 -18 -36 0 -70 18 -34 18 -35 0 -70 -19 -35 -19 -36 0 -68 10 -18 23
-36 29 -40 7 -4 11 -323 14 -971 l3 -965 -31 -33 c-36 -40 -37 -51 -9 -89 l22
-28 -22 -35 c-27 -44 -27 -46 10 -86 28 -31 30 -38 25 -85 -13 -122 -16 -132
-78 -207 -90 -111 -95 -132 -48 -221 l30 -57 -21 -38 c-12 -21 -25 -43 -30
-50 -6 -6 -14 -26 -19 -43 -12 -42 4 -80 70 -164 45 -58 50 -69 45 -99 -7 -36
10 -82 39 -106 21 -17 23 -121 3 -121 -8 0 -22 -15 -32 -34 -18 -33 -18 -34 3
-67 l21 -35 -21 -33 c-21 -32 -21 -34 -3 -67 9 -18 24 -35 31 -38 20 -8 20
-2452 0 -2478 -7 -10 -35 -27 -62 -38 -27 -12 -51 -23 -53 -26 -2 -2 6 -15 19
-29 41 -44 26 -95 -37 -122 -31 -13 -33 -16 -33 -66 l0 -52 118 -26 117 -27
160 27 160 27 3 57 c3 51 1 57 -16 57 -11 0 -31 9 -46 21 -33 26 -36 81 -6
106 11 10 20 21 20 24 0 4 -21 15 -46 25 -26 10 -55 27 -65 38 -18 18 -19 69
-19 1248 0 1033 2 1229 14 1234 7 3 22 20 31 38 18 33 18 34 -3 67 l-21 35 21
33 c21 32 21 34 3 67 -9 18 -24 35 -31 38 -25 10 -17 88 16 147 16 30 30 66
30 82 0 17 16 47 44 81 51 63 81 141 71 188 -3 18 -15 54 -27 80 -20 44 -20
48 -4 94 32 96 13 169 -69 260 -24 27 -51 70 -59 96 -20 58 -21 138 -3 138 13
0 47 50 47 69 0 7 -10 25 -22 41 l-22 30 22 30 c12 16 22 34 22 39 0 19 -35
71 -48 71 -12 0 -13 163 -7 971 6 952 6 971 26 992 29 32 33 62 13 96 -18 30
-18 32 1 67 18 34 18 36 0 70 -10 19 -24 34 -32 34 -25 0 -16 89 12 131 14 20
29 59 34 86 6 38 18 63 49 99 43 51 72 117 72 164 0 15 -13 54 -30 87 l-30 59
20 39 c24 48 26 124 4 168 -9 18 -37 56 -62 86 -49 58 -81 133 -82 193 0 27 8
45 30 70 33 35 38 69 15 88 -8 7 -15 23 -15 35 0 12 7 28 15 35 22 18 18 52
-10 82 l-25 27 -2 1397 c-2 922 -6 1398 -13 1399 -5 0 -50 -1 -100 -3z m40
-3276 c15 -22 15 -27 0 -55 -19 -39 -28 -39 -55 -1 -19 26 -20 33 -8 48 30 39
42 40 63 8z m114 -152 c12 -30 21 -67 21 -82 0 -26 -1 -26 -46 19 l-46 47 17
40 c10 23 22 39 26 36 4 -2 17 -29 28 -60z m-231 21 c12 -19 22 -38 22 -43 0
-4 -22 -30 -50 -57 -40 -40 -50 -46 -56 -32 -12 33 31 167 54 167 4 0 17 -16
30 -35z m202 -205 c7 -13 -2 -28 -45 -70 l-54 -53 -61 53 -61 53 57 58 57 58
49 -41 c27 -22 53 -48 58 -58z m-180 -193 c0 -12 -62 -87 -72 -87 -16 0 -48
84 -48 127 0 78 7 80 66 22 30 -29 54 -57 54 -62z m240 46 c0 -27 -10 -68 -21
-93 l-20 -44 -24 43 c-14 24 -25 45 -25 48 0 8 74 93 82 93 4 0 8 -21 8 -47z
m-126 -165 l26 -43 -35 -35 -35 -35 -36 37 -37 36 33 41 c19 23 39 41 46 41 7
0 24 -19 38 -42z m-15 -3030 c12 -21 12 -30 2 -57 -8 -17 -17 -31 -21 -31 -4
0 -19 15 -34 34 l-25 34 20 26 c24 31 38 30 58 -6z m106 -130 c24 -52 33 -108
17 -108 -5 0 -23 18 -41 40 -30 38 -31 42 -20 80 7 22 14 40 16 40 2 0 15 -24
28 -52z m-185 -38 c1 -14 -109 -112 -119 -106 -26 17 -3 125 36 169 16 17 18
17 50 -20 18 -21 32 -40 33 -43z m131 -119 c58 -57 58 -59 -15 -131 l-46 -44
-57 57 -58 57 55 55 c30 30 58 55 62 55 5 0 31 -22 59 -49z m-181 -186 l53
-54 -39 -45 c-21 -24 -43 -43 -48 -42 -53 12 -78 196 -27 196 4 0 31 -25 61
-55z m250 -102 l-21 -48 -21 45 c-12 25 -20 49 -19 53 1 5 18 29 39 54 l37 44
3 -50 c2 -35 -3 -65 -18 -98z m-102 -58 c29 -46 28 -55 -12 -94 l-34 -33 -31
33 c-17 19 -31 38 -31 44 0 10 70 85 80 85 3 0 15 -16 28 -35z"/>
</g>
</svg>
