<?xml version="1.0" standalone="no"?>
<!DOCTYPE svg PUBLIC "-//W3C//DTD SVG 20010904//EN"
 "http://www.w3.org/TR/2001/REC-SVG-20010904/DTD/svg10.dtd">
<svg version="1.0" xmlns="http://www.w3.org/2000/svg"
 width="3542.000000pt" height="3750.000000pt" viewBox="0 0 3542.000000 3750.000000"
 preserveAspectRatio="xMidYMid meet">

<g transform="translate(0.000000,3750.000000) scale(0.100000,-0.100000)"
fill="#65340A" stroke="none">
<path d="M12298 16269 l-3 -2352 -47 -14 c-27 -7 -48 -17 -48 -20 0 -4 12 -19
26 -34 35 -36 35 -76 0 -106 -15 -13 -36 -23 -46 -23 -10 0 -23 -7 -28 -16 -5
-8 -20 -21 -33 -28 -29 -14 -31 -47 -3 -61 11 -5 28 -18 38 -28 10 -9 23 -17
30 -17 7 0 25 -9 40 -21 35 -28 36 -77 1 -109 -14 -13 -25 -27 -25 -31 0 -5
19 -14 43 -20 23 -7 46 -16 50 -19 10 -9 12 -4705 2 -4721 -4 -6 -32 -22 -61
-35 l-54 -24 25 -24 c41 -41 26 -91 -35 -116 -28 -11 -30 -16 -30 -61 0 -54
-5 -50 105 -69 39 -7 83 -16 100 -19 17 -4 87 3 165 16 74 12 138 23 143 23 4
0 7 22 7 49 0 45 -2 50 -30 61 -61 25 -76 75 -35 116 l25 24 -54 24 c-29 13
-56 32 -60 41 -5 14 -8 1918 -6 4561 l0 161 38 7 c63 10 71 21 41 53 -15 15
-29 38 -32 50 -7 30 24 69 68 83 19 6 35 15 35 20 0 5 12 15 28 22 34 17 35
48 3 64 -13 7 -28 20 -33 28 -5 9 -17 16 -27 16 -10 0 -30 9 -45 21 -35 28
-36 77 -1 109 14 13 25 27 25 31 0 4 -22 15 -50 24 l-50 17 0 2349 0 2349
-100 0 -100 0 -2 -2351z"/>
</g>
</svg>
