<?xml version="1.0" standalone="no"?>
<!DOCTYPE svg PUBLIC "-//W3C//DTD SVG 20010904//EN"
 "http://www.w3.org/TR/2001/REC-SVG-20010904/DTD/svg10.dtd">
<svg version="1.0" xmlns="http://www.w3.org/2000/svg"
 width="3542.000000pt" height="3750.000000pt" viewBox="0 0 3542.000000 3750.000000"
 preserveAspectRatio="xMidYMid meet">

<g transform="translate(0.000000,3750.000000) scale(0.100000,-0.100000)"
fill="#65340A" stroke="none">
<path d="M20085 18721 c-3 -2 -5 -937 -5 -2076 l0 -2072 -39 -7 c-49 -8 -58
-19 -32 -45 11 -11 24 -33 27 -47 6 -22 2 -32 -20 -51 -15 -13 -36 -23 -47
-23 -10 0 -19 -6 -19 -14 0 -8 -11 -17 -25 -20 -18 -5 -25 -13 -25 -31 0 -18
7 -26 25 -31 14 -3 25 -12 25 -20 0 -8 9 -14 20 -14 26 0 70 -43 70 -68 0 -11
-11 -31 -25 -46 -31 -33 -26 -44 26 -52 l39 -7 0 -2077 c0 -1143 -3 -2086 -6
-2094 -4 -9 -28 -26 -54 -37 l-48 -20 25 -25 c17 -18 22 -31 18 -47 -8 -26
-41 -57 -61 -57 -10 0 -14 -13 -14 -44 0 -51 -9 -46 146 -67 72 -10 110 -10
178 0 127 17 136 22 136 71 0 27 -4 40 -14 40 -7 0 -25 9 -40 21 -31 25 -34
61 -6 89 l21 21 -51 21 c-33 14 -52 28 -55 42 -3 12 -4 952 -3 2090 l3 2069
49 14 48 14 -27 29 c-16 17 -27 40 -27 56 0 31 33 64 63 64 10 0 19 4 19 9 0
6 12 16 28 23 16 8 27 21 27 33 0 12 -11 25 -27 33 -16 7 -28 17 -28 23 0 5
-8 9 -18 9 -28 0 -62 37 -62 67 0 15 11 39 26 54 l26 28 -48 14 -49 14 -3
2077 -2 2077 -80 -2 c-45 -2 -83 -5 -85 -8z"/>
</g>
</svg>
