<?xml version="1.0" standalone="no"?>
<!DOCTYPE svg PUBLIC "-//W3C//DTD SVG 20010904//EN"
 "http://www.w3.org/TR/2001/REC-SVG-20010904/DTD/svg10.dtd">
<svg version="1.0" xmlns="http://www.w3.org/2000/svg"
 width="3542.000000pt" height="3750.000000pt" viewBox="0 0 3542.000000 3750.000000"
 preserveAspectRatio="xMidYMid meet">

<g transform="translate(0.000000,3750.000000) scale(0.100000,-0.100000)"
fill="#65340A" stroke="none">
<path d="M2150 15770 l0 -2710 -24 0 c-14 0 -27 -4 -30 -9 -3 -4 -19 -11 -36
-14 -38 -8 -38 -17 0 -57 55 -59 30 -131 -51 -147 -15 -3 -29 -14 -32 -24 -3
-10 -14 -19 -25 -19 -10 0 -27 -9 -37 -20 -17 -18 -17 -21 -1 -45 9 -14 26
-25 37 -25 12 0 23 -8 26 -19 3 -10 17 -21 32 -24 81 -16 106 -88 51 -147 -16
-18 -28 -36 -25 -41 3 -4 30 -16 60 -25 l55 -18 0 -2711 c0 -2659 0 -2712 -19
-2732 -11 -11 -44 -31 -74 -43 l-55 -23 29 -24 c40 -34 39 -75 -2 -114 -17
-16 -40 -29 -50 -29 -17 0 -19 -8 -19 -59 0 -68 -13 -58 143 -101 l79 -22 183
31 c101 17 186 31 189 31 3 0 6 27 6 59 0 55 -2 59 -26 65 -34 9 -74 53 -74
83 0 14 13 37 28 53 l29 28 -64 27 c-34 15 -63 33 -63 41 0 8 -5 14 -10 14 -7
0 -10 909 -10 2715 l0 2714 41 11 c23 6 52 16 66 21 l24 9 -36 35 c-24 25 -35
45 -35 66 0 37 38 77 81 86 19 3 34 14 36 25 3 10 13 18 23 18 25 0 53 35 45
58 -3 11 -19 25 -35 31 -17 5 -30 17 -30 25 0 10 -9 16 -23 16 -24 0 -64 23
-85 48 -21 27 -13 61 24 102 l36 40 -47 20 c-26 11 -53 20 -61 20 -8 0 -14 10
-15 23 0 12 -1 1231 -1 2710 l0 2687 -114 0 -114 0 0 -2710z"/>
</g>
</svg>
