<?xml version="1.0" standalone="no"?>
<!DOCTYPE svg PUBLIC "-//W3C//DTD SVG 20010904//EN"
 "http://www.w3.org/TR/2001/REC-SVG-20010904/DTD/svg10.dtd">
<svg version="1.0" xmlns="http://www.w3.org/2000/svg"
 width="3542.000000pt" height="3750.000000pt" viewBox="0 0 3542.000000 3750.000000"
 preserveAspectRatio="xMidYMid meet">

<g transform="translate(0.000000,3750.000000) scale(0.100000,-0.100000)"
fill="#65340A" stroke="none">
<path d="M25430 16655 c0 -1733 -2 -2075 -13 -2075 -8 0 -28 -7 -46 -16 l-31
-16 25 -30 c14 -16 25 -38 25 -49 0 -24 -32 -57 -65 -65 -14 -3 -25 -9 -25
-13 0 -4 -11 -13 -25 -19 -15 -7 -25 -20 -25 -32 0 -12 10 -25 25 -32 14 -6
25 -15 25 -19 0 -4 16 -13 35 -19 59 -19 70 -61 30 -108 -14 -17 -25 -32 -25
-35 0 -3 20 -11 45 -18 l45 -13 1 -2051 c1 -1127 0 -2061 -1 -2075 -3 -41 -17
-56 -64 -74 l-44 -17 24 -24 c13 -13 24 -31 24 -40 0 -20 -44 -65 -65 -65 -11
0 -15 -11 -15 -44 l0 -45 43 -6 c214 -31 214 -31 283 -18 38 7 84 15 102 18
29 5 32 9 32 44 0 33 -5 41 -37 62 -47 30 -57 78 -23 102 21 15 21 16 -26 36
-27 12 -52 27 -56 34 -4 7 -8 947 -8 2090 0 2013 1 2077 18 2077 11 0 33 7 51
16 31 16 32 17 13 30 -11 7 -25 27 -30 43 -9 25 -7 34 9 56 11 14 26 25 33 25
7 0 23 9 36 20 13 11 29 20 35 20 18 0 27 30 14 46 -6 8 -18 14 -26 14 -7 0
-16 7 -19 15 -3 8 -16 17 -27 21 -61 18 -76 77 -31 119 l26 24 -37 15 c-21 9
-44 16 -51 16 -12 0 -14 319 -14 2075 l0 2075 -85 0 -85 0 0 -2075z"/>
</g>
</svg>
