<?xml version="1.0" standalone="no"?>
<!DOCTYPE svg PUBLIC "-//W3C//DTD SVG 20010904//EN"
 "http://www.w3.org/TR/2001/REC-SVG-20010904/DTD/svg10.dtd">
<svg version="1.0" xmlns="http://www.w3.org/2000/svg"
 width="3542.000000pt" height="3750.000000pt" viewBox="0 0 3542.000000 3750.000000"
 preserveAspectRatio="xMidYMid meet">

<g transform="translate(0.000000,3750.000000) scale(0.100000,-0.100000)"
fill="#65340A" stroke="none">
<path d="M29680 18034 l0 -646 -117 4 -118 3 0 -1800 0 -1800 118 4 117 3 0
-116 0 -116 -120 0 -120 0 0 -1535 c0 -1221 3 -1535 13 -1535 22 -1 220 -30
224 -34 9 -8 2 -1099 -7 -1116 -5 -10 -30 -26 -55 -35 -25 -10 -45 -19 -45
-21 0 -2 9 -13 20 -24 11 -11 20 -31 20 -45 0 -28 -35 -65 -62 -65 -15 0 -18
-8 -18 -50 0 -58 -16 -51 172 -75 124 -17 128 -17 222 5 l96 22 0 44 c0 41 -3
46 -30 56 -51 17 -69 86 -30 110 28 18 26 23 -24 42 -25 9 -50 24 -58 33 -10
13 -13 122 -14 550 -1 293 3 536 7 539 5 3 43 0 86 -6 42 -5 91 -7 110 -4 l33
6 0 1564 0 1564 -115 0 -115 0 0 115 0 116 113 -3 112 -3 3 1797 2 1797 -112
3 -113 3 -3 648 -2 647 -95 0 -95 0 0 -646z m248 -789 c9 -4 12 -346 12 -1670
l0 -1666 -157 6 c-87 4 -164 8 -170 11 -10 3 -13 344 -13 1662 0 912 3 1662 7
1666 7 7 295 -2 321 -9z m2 -3822 c3 -3 5 -641 5 -1419 l0 -1414 -25 0 c-23 0
-241 27 -285 35 -20 4 -20 12 -19 1402 1 769 2 1402 3 1406 1 8 312 -2 321
-10z"/>
</g>
</svg>
