<?xml version="1.0" standalone="no"?>
<!DOCTYPE svg PUBLIC "-//W3C//DTD SVG 20010904//EN"
 "http://www.w3.org/TR/2001/REC-SVG-20010904/DTD/svg10.dtd">
<svg version="1.0" xmlns="http://www.w3.org/2000/svg"
 width="3542.000000pt" height="3750.000000pt" viewBox="0 0 3542.000000 3750.000000"
 preserveAspectRatio="xMidYMid meet">

<g transform="translate(0.000000,3750.000000) scale(0.100000,-0.100000)"
fill="#65340A" stroke="none">
<path d="M30830 18015 l0 -655 -125 0 -125 0 0 -372 c0 -205 0 -859 0 -1453 0
-594 0 -1239 0 -1432 l0 -353 64 0 c34 0 91 -3 125 -6 l61 -7 0 -103 0 -104
-117 -1 c-65 -1 -121 -1 -125 0 -5 0 -8 -153 -9 -342 -1 -448 -1 -2026 0
-2473 l1 -351 48 -7 c26 -3 82 -11 125 -17 l77 -11 0 -563 0 -564 -26 -20
c-14 -11 -41 -25 -60 -31 l-34 -12 25 -30 c14 -16 25 -34 25 -39 0 -21 -33
-58 -61 -68 -26 -9 -29 -14 -29 -55 0 -51 -15 -45 170 -72 117 -17 183 -14
294 17 34 10 36 12 36 54 0 42 -2 46 -35 59 -21 9 -39 26 -45 41 -11 28 -8 38
22 71 19 21 19 21 -24 39 -85 33 -78 -20 -78 597 0 515 1 548 18 548 9 0 53
-5 97 -11 53 -7 88 -8 105 -1 l26 10 -1 1608 0 1609 -120 5 -120 5 0 105 c0
77 3 105 13 106 6 1 62 2 122 3 l110 1 -2 1803 -3 1802 -110 3 c-60 1 -115 4
-122 7 -10 3 -12 149 -13 637 0 348 0 643 0 656 0 21 -3 22 -90 22 l-90 0 0
-655z m214 -801 l46 -7 0 -1673 0 -1674 -144 0 c-79 0 -158 3 -175 6 l-31 7 0
1673 0 1674 129 0 c70 0 149 -3 175 -6z m0 -3830 l46 -7 0 -1463 c0 -1429 0
-1464 -19 -1464 -33 0 -311 39 -321 45 -6 4 -10 549 -10 1450 l0 1445 129 0
c70 0 149 -3 175 -6z"/>
</g>
</svg>
