<?xml version="1.0" standalone="no"?>
<!DOCTYPE svg PUBLIC "-//W3C//DTD SVG 20010904//EN"
 "http://www.w3.org/TR/2001/REC-SVG-20010904/DTD/svg10.dtd">
<svg version="1.0" xmlns="http://www.w3.org/2000/svg"
 width="3542.000000pt" height="3750.000000pt" viewBox="0 0 3542.000000 3750.000000"
 preserveAspectRatio="xMidYMid meet">

<g transform="translate(0.000000,3750.000000) scale(0.100000,-0.100000)"
fill="#65340A" stroke="none">
<path d="M7618 18542 l-38 -3 0 -733 0 -734 -22 -6 c-13 -3 -74 -6 -135 -6
l-113 0 0 -2029 c0 -1116 3 -2043 6 -2060 l7 -31 128 0 129 0 0 -120 0 -120
-52 -1 c-29 -1 -89 0 -133 1 l-80 2 2 -1764 c0 -970 2 -1777 2 -1795 1 -29 4
-32 41 -38 35 -6 148 6 203 21 16 5 17 -29 17 -615 0 -608 0 -621 -20 -641
-11 -11 -24 -20 -30 -20 -5 0 -27 -7 -48 -16 l-38 -17 28 -28 c15 -15 28 -36
28 -47 0 -28 -35 -69 -65 -76 -25 -6 -26 -10 -23 -63 l3 -57 110 -24 110 -25
110 18 c61 9 136 21 168 27 l57 10 0 53 c0 48 -2 53 -26 59 -34 9 -74 50 -74
76 0 12 13 34 29 50 l28 29 -51 21 c-94 38 -86 -24 -84 692 l3 632 125 19 c69
11 126 21 128 22 1 1 3 790 5 1753 2 1551 0 1752 -13 1753 -35 3 -80 5 -162 7
l-88 2 1 115 0 115 27 0 c71 1 228 13 232 17 3 3 6 929 8 2059 l2 2054 -135 0
-135 0 0 543 c0 298 0 629 0 735 l0 193 -67 -3 c-38 -1 -85 -4 -105 -6z m252
-3531 l0 -1908 -46 -7 c-26 -3 -109 -6 -185 -6 l-139 0 0 1910 0 1909 78 4
c42 1 125 4 185 5 l107 2 0 -1909z m4 -2473 c10 -37 7 -3176 -3 -3182 -15 -10
-364 -66 -370 -60 -7 7 -8 3233 -1 3244 6 9 84 15 261 18 103 2 107 1 113 -20z"/>
</g>
</svg>
