<?xml version="1.0" standalone="no"?>
<!DOCTYPE svg PUBLIC "-//W3C//DTD SVG 20010904//EN"
 "http://www.w3.org/TR/2001/REC-SVG-20010904/DTD/svg10.dtd">
<svg version="1.0" xmlns="http://www.w3.org/2000/svg"
 width="3542.000000pt" height="3750.000000pt" viewBox="0 0 3542.000000 3750.000000"
 preserveAspectRatio="xMidYMid meet">

<g transform="translate(0.000000,3750.000000) scale(0.100000,-0.100000)"
fill="#65340A" stroke="none">
<path d="M8820 17836 l0 -723 -82 -6 c-46 -4 -104 -7 -130 -7 l-48 0 0 -1984
c0 -1800 1 -1984 16 -1990 9 -3 67 -6 130 -6 l114 0 0 -119 0 -118 -37 -7
c-21 -3 -77 -6 -125 -6 l-88 0 0 -1789 0 -1788 38 -6 c20 -4 76 0 125 7 l87
13 0 -606 c0 -333 -4 -611 -8 -618 -4 -7 -34 -24 -66 -38 l-58 -26 26 -20 c34
-27 35 -71 1 -104 -13 -14 -34 -25 -45 -25 -19 0 -21 -5 -18 -57 l3 -57 80
-18 c131 -30 162 -31 290 -9 195 35 175 25 175 86 0 48 -2 53 -25 59 -64 16
-84 78 -39 123 14 14 24 26 22 27 -2 2 -29 13 -61 26 -39 15 -59 29 -62 44 -3
11 -4 298 -3 636 l3 615 123 19 122 20 0 1753 0 1753 -125 0 -125 0 0 115 0
115 125 0 125 0 0 33 c1 17 1 709 0 1537 0 828 0 1713 0 1968 l0 462 -125 0
-125 0 0 720 0 720 -105 0 -105 0 0 -724z m280 -2719 l0 -1854 -171 -7 c-94
-4 -173 -5 -176 -3 -8 9 -5 3689 4 3698 4 4 58 10 118 11 61 2 136 4 168 6
l57 3 0 -1854z m1 -2389 c5 -7 9 -729 9 -1605 0 -1507 -1 -1592 -17 -1597 -10
-2 -65 -12 -123 -21 -58 -9 -127 -21 -153 -26 -26 -5 -55 -9 -62 -9 -13 0 -15
211 -15 1619 0 1323 2 1621 13 1629 7 6 62 13 123 14 60 2 133 4 163 6 37 2
57 -1 62 -10z"/>
</g>
</svg>
