<?xml version="1.0" standalone="no"?>
<!DOCTYPE svg PUBLIC "-//W3C//DTD SVG 20010904//EN"
 "http://www.w3.org/TR/2001/REC-SVG-20010904/DTD/svg10.dtd">
<svg version="1.0" xmlns="http://www.w3.org/2000/svg"
 width="3542.000000pt" height="3750.000000pt" viewBox="0 0 3542.000000 3750.000000"
 preserveAspectRatio="xMidYMid meet">

<g transform="translate(0.000000,3750.000000) scale(0.100000,-0.100000)"
fill="#65340A" stroke="none">
<path d="M11231 18590 l-54 -5 0 -693 c0 -381 -2 -694 -6 -696 -3 -2 -49 -5
-101 -7 -52 -1 -105 -4 -117 -7 l-23 -4 0 -1924 0 -1924 124 0 124 0 0 -115
c0 -76 -4 -117 -11 -122 -7 -4 -63 -6 -124 -4 l-113 3 0 -1725 0 -1726 44 -6
c24 -4 75 -2 114 4 39 6 76 11 81 11 17 0 14 -1160 -2 -1181 -7 -8 -35 -26
-64 -39 l-52 -23 24 -23 c44 -41 23 -104 -40 -120 -23 -6 -25 -11 -25 -58 l0
-51 78 -17 c139 -31 156 -32 307 -7 l145 23 0 53 c0 48 -2 53 -25 59 -27 7
-65 48 -65 71 0 8 13 27 29 43 l28 29 -54 22 c-29 12 -58 30 -63 40 -6 11 -10
251 -10 616 l0 599 118 19 117 20 3 1688 2 1687 -120 0 -120 0 0 114 0 113 46
7 c26 3 80 6 120 6 l74 0 0 1930 0 1930 -22 1 c-13 1 -67 0 -120 -1 l-98 -2 0
701 0 701 -47 -2 c-27 -2 -72 -5 -102 -8z m209 -3328 l0 -1789 -157 -6 c-87
-3 -160 -4 -163 -2 -3 2 -7 807 -8 1789 l-4 1785 49 4 c26 2 101 4 166 5 l117
2 0 -1788z m0 -3857 c0 -850 -3 -1545 -7 -1545 -5 0 -73 -11 -153 -25 -80 -14
-151 -25 -157 -25 -10 0 -13 320 -13 1564 l0 1565 48 4 c26 2 100 4 165 5
l117 2 0 -1545z"/>
</g>
</svg>
