<?xml version="1.0" standalone="no"?>
<!DOCTYPE svg PUBLIC "-//W3C//DTD SVG 20010904//EN"
 "http://www.w3.org/TR/2001/REC-SVG-20010904/DTD/svg10.dtd">
<svg version="1.0" xmlns="http://www.w3.org/2000/svg"
 width="3542.000000pt" height="3750.000000pt" viewBox="0 0 3542.000000 3750.000000"
 preserveAspectRatio="xMidYMid meet">

<g transform="translate(0.000000,3750.000000) scale(0.100000,-0.100000)"
fill="#3a4548" stroke="none">
<path d="M17390 17691 l0 -989 -24 -6 c-44 -11 -173 -105 -232 -169 -143 -154
-248 -380 -290 -622 -24 -144 -23 -370 4 -500 27 -132 29 -138 251 -741 105
-287 191 -526 191 -532 0 -8 -8 -9 -22 -3 -32 12 -138 26 -168 22 -41 -4 -105
-47 -131 -88 -74 -112 -78 -237 -11 -297 30 -26 159 -30 200 -6 33 20 60 72
64 121 3 34 3 34 -47 40 -60 7 -65 5 -65 -29 0 -34 -36 -95 -53 -89 -19 6 -37
69 -32 110 10 73 62 154 118 183 25 14 30 13 57 -6 65 -46 179 -240 185 -313
2 -21 12 -49 23 -60 23 -25 101 -235 131 -352 34 -135 44 -247 38 -420 -9
-230 -52 -422 -137 -600 -70 -147 -151 -215 -263 -220 l-62 -4 -55 57 c-75 78
-111 171 -113 292 -1 47 4 104 11 127 17 59 71 132 114 157 36 20 37 20 57 2
12 -11 26 -36 33 -57 15 -53 -9 -116 -57 -147 -19 -12 -35 -26 -35 -31 0 -17
112 -21 142 -5 83 43 89 227 9 268 -36 19 -171 41 -203 33 -52 -13 -112 -70
-147 -140 -30 -58 -35 -80 -39 -155 -9 -197 75 -365 216 -429 l55 -26 -39 -20
c-95 -49 -183 -175 -226 -322 -20 -70 -23 -101 -22 -255 0 -148 4 -187 22
-254 33 -121 87 -221 160 -298 83 -88 155 -124 291 -146 l101 -16 0 -632 c0
-706 6 -648 -75 -679 l-44 -18 24 -19 c42 -33 29 -86 -25 -108 -29 -12 -31
-16 -28 -59 l3 -46 113 -19 c112 -19 116 -19 235 0 l122 19 3 48 c3 38 0 48
-15 54 -29 10 -63 45 -63 65 0 11 11 29 25 42 l25 23 -49 22 c-27 11 -54 21
-60 21 -8 0 -11 201 -11 664 l0 664 73 43 c39 23 106 77 147 118 225 225 351
561 352 931 0 161 -20 289 -69 438 -30 93 -269 751 -354 974 -33 87 -34 92
-17 82 6 -4 50 -9 96 -10 97 -4 139 12 189 70 36 41 73 132 73 182 0 43 -21
93 -49 118 -21 19 -93 37 -154 38 -52 1 -104 -67 -109 -142 l-3 -43 56 -4 56
-3 6 39 c2 21 13 50 22 65 17 25 19 26 34 11 26 -26 21 -120 -10 -180 -30 -59
-96 -111 -127 -101 -28 9 -111 124 -160 222 -34 68 -40 88 -35 120 6 33 3 41
-24 63 -53 45 -140 312 -163 501 -47 390 81 887 264 1018 38 27 53 32 104 32
50 0 65 -5 101 -30 79 -58 139 -183 148 -310 9 -123 -31 -227 -107 -278 -43
-29 -71 -25 -88 11 -33 68 -7 169 49 190 16 6 29 14 29 18 0 3 -26 11 -57 17
-70 13 -95 0 -131 -69 -40 -76 -15 -185 51 -221 32 -17 192 -11 230 8 63 33
118 119 135 213 11 61 0 177 -24 249 -36 106 -115 199 -198 231 l-48 18 48 24
c113 54 211 206 239 373 52 308 -31 614 -214 789 -82 78 -165 116 -273 125
l-83 7 -3 968 -2 967 -90 0 -90 0 0 -989z m261 -1007 c79 -24 130 -57 198
-129 69 -75 130 -190 163 -310 29 -108 32 -356 4 -454 -36 -132 -107 -237
-191 -287 -180 -105 -362 222 -251 450 25 50 75 106 96 106 5 0 18 -15 30 -34
29 -48 30 -133 1 -181 -12 -20 -21 -40 -21 -46 0 -5 26 -9 59 -9 l59 0 21 49
c27 64 27 125 -1 181 -32 61 -60 77 -148 85 -68 6 -78 4 -110 -17 -85 -57
-130 -158 -130 -288 0 -156 89 -313 200 -352 l32 -11 -54 -28 c-29 -16 -71
-49 -94 -73 -115 -125 -217 -438 -231 -714 -3 -62 -9 -109 -14 -105 -4 4 -35
85 -69 178 -268 736 -255 688 -255 965 0 153 4 213 19 280 71 325 241 585 459
701 61 32 128 57 158 58 8 1 40 -6 70 -15z m167 -3987 c185 -507 184 -503 202
-682 23 -231 -26 -502 -127 -712 -135 -280 -340 -457 -566 -488 -68 -9 -139
28 -220 115 -73 77 -127 178 -159 300 -29 110 -31 336 -4 445 34 139 106 257
191 313 40 26 55 30 100 28 57 -3 91 -23 132 -78 64 -87 84 -233 47 -339 -19
-53 -97 -149 -122 -149 -41 0 -56 139 -22 205 26 51 26 55 -11 55 -17 0 -39 4
-49 10 -26 14 -56 -26 -70 -95 -18 -85 4 -163 56 -204 22 -17 41 -21 101 -21
83 0 112 11 159 62 91 96 117 259 64 400 -38 103 -100 164 -193 194 -23 7 -33
13 -22 13 35 2 121 58 165 108 109 124 213 442 227 696 3 59 9 107 12 107 3 0
52 -127 109 -283z"/>
</g>
</svg>
