<?xml version="1.0" standalone="no"?>
<!DOCTYPE svg PUBLIC "-//W3C//DTD SVG 20010904//EN"
 "http://www.w3.org/TR/2001/REC-SVG-20010904/DTD/svg10.dtd">
<svg version="1.0" xmlns="http://www.w3.org/2000/svg"
 width="3542.000000pt" height="3750.000000pt" viewBox="0 0 3542.000000 3750.000000"
 preserveAspectRatio="xMidYMid meet">

<g transform="translate(0.000000,3750.000000) scale(0.100000,-0.100000)"
fill="#3a4548" stroke="none">
<path d="M30830 17672 l0 -998 -113 -11 c-130 -13 -218 -42 -304 -102 -152
-103 -257 -268 -298 -467 -20 -100 -21 -267 -1 -364 34 -166 143 -319 269
-379 l59 -29 -75 -36 c-225 -108 -317 -417 -184 -613 42 -60 114 -110 173
-119 51 -7 183 19 222 44 71 46 72 183 2 247 -26 23 -151 40 -162 22 -9 -15 0
-23 43 -45 95 -48 84 -199 -16 -218 -68 -12 -163 67 -199 166 -28 79 -19 204
21 292 35 75 109 160 163 188 57 29 192 21 258 -15 160 -87 288 -334 343 -664
14 -86 11 -316 -6 -413 -28 -162 -127 -423 -182 -481 -19 -19 -27 -38 -27 -65
-2 -82 -205 -350 -279 -368 -72 -17 -186 85 -211 189 -9 39 2 91 25 116 19 20
22 20 49 6 33 -17 60 -61 60 -99 0 -33 9 -37 61 -28 43 8 44 8 42 46 -3 47
-32 95 -71 119 -45 26 -174 24 -213 -4 -41 -29 -59 -69 -59 -132 0 -132 131
-267 259 -267 42 0 163 34 195 55 14 10 26 15 26 13 0 -7 -137 -318 -225 -513
-126 -277 -266 -595 -292 -665 -69 -180 -89 -407 -54 -609 37 -219 103 -377
224 -541 120 -162 261 -282 412 -351 l65 -29 0 -671 c0 -754 7 -691 -78 -724
-43 -18 -43 -18 -24 -39 11 -11 22 -28 24 -36 9 -25 -20 -67 -52 -78 -27 -10
-30 -15 -30 -56 0 -53 -14 -47 168 -72 127 -18 185 -15 295 16 36 11 37 12 37
59 0 43 -3 50 -24 55 -58 14 -76 79 -32 113 l23 19 -46 19 c-88 35 -81 -29
-81 705 l0 650 63 0 c86 1 226 33 303 71 130 64 265 222 319 372 35 97 48 202
42 335 -9 182 -53 307 -146 416 -44 51 -138 121 -191 143 l-25 11 30 12 c169
67 252 161 291 327 39 165 -28 332 -158 397 -45 23 -65 26 -147 26 -111 0
-152 -15 -188 -69 -17 -24 -23 -49 -23 -85 0 -63 23 -110 72 -149 37 -30 39
-30 93 -18 63 14 70 31 23 52 -51 22 -81 74 -75 132 5 59 29 87 75 87 73 0
165 -71 204 -158 29 -65 29 -175 -1 -262 -51 -151 -183 -260 -291 -240 -24 4
-50 6 -57 3 -8 -3 -42 9 -78 26 -139 69 -248 243 -324 519 -68 248 -66 521 5
747 31 97 129 318 144 323 38 15 53 40 47 79 -6 34 -1 48 44 118 65 100 123
170 171 205 34 25 43 27 78 19 51 -12 112 -49 138 -86 27 -38 52 -100 52 -130
0 -36 -26 -90 -50 -103 -18 -10 -25 -7 -54 22 -23 23 -36 47 -41 76 l-7 42
-49 0 -49 0 0 -37 c0 -75 77 -163 142 -163 57 0 148 33 173 62 64 76 46 193
-44 286 -60 62 -101 77 -216 77 -86 0 -105 -3 -137 -22 -21 -12 -38 -19 -38
-14 0 5 47 114 104 242 421 948 443 1001 468 1137 17 87 16 348 0 436 -32 172
-116 372 -210 499 -109 148 -231 250 -386 322 l-95 45 -1 992 c0 546 0 1003 0
1016 0 21 -3 22 -90 22 l-90 0 0 -998z m53 -1072 c149 -38 283 -118 403 -242
156 -161 246 -333 300 -579 23 -101 23 -326 1 -440 -24 -123 -49 -187 -202
-534 -75 -170 -155 -352 -178 -402 -22 -51 -41 -92 -42 -90 -1 1 -5 55 -9 120
-13 229 -61 410 -157 598 -80 156 -182 252 -299 282 l-50 13 48 13 c202 53
324 309 238 497 -31 67 -84 127 -136 153 -19 10 -69 21 -110 25 -66 5 -80 3
-114 -17 -58 -33 -89 -95 -84 -172 2 -36 12 -77 25 -100 20 -38 22 -40 64 -37
69 4 72 7 44 47 -37 56 -42 115 -14 172 34 67 50 74 107 42 166 -92 187 -335
42 -493 -60 -65 -108 -85 -200 -82 -69 1 -80 5 -134 40 -154 103 -236 302
-223 542 11 196 76 357 197 487 148 158 294 206 483 157z m-221 -3760 c-10
-215 44 -450 156 -679 45 -93 68 -127 121 -181 36 -36 92 -79 123 -95 l57 -30
-49 -18 c-102 -38 -194 -155 -219 -278 -38 -186 103 -408 261 -409 37 0 46 3
123 34 99 41 125 186 53 289 -19 26 -23 27 -67 21 -25 -3 -50 -10 -54 -14 -5
-4 3 -24 17 -45 48 -69 44 -155 -8 -204 -23 -21 -28 -22 -55 -11 -103 42 -181
200 -161 326 15 93 85 205 149 238 42 22 187 13 241 -14 100 -51 191 -165 237
-296 25 -73 27 -91 28 -239 0 -140 -3 -169 -23 -234 -38 -121 -80 -198 -146
-268 -140 -151 -298 -204 -470 -157 -125 35 -247 102 -363 201 -55 48 -170
183 -181 212 -3 9 -13 28 -23 42 -31 45 -90 169 -115 243 -50 144 -67 242 -67
391 -2 242 16 305 196 710 66 149 144 329 174 400 53 126 62 145 66 145 1 0 1
-36 -1 -80z"/>
</g>
</svg>
