<?xml version="1.0" standalone="no"?>
<!DOCTYPE svg PUBLIC "-//W3C//DTD SVG 20010904//EN"
 "http://www.w3.org/TR/2001/REC-SVG-20010904/DTD/svg10.dtd">
<svg version="1.0" xmlns="http://www.w3.org/2000/svg"
 width="3542.000000pt" height="3750.000000pt" viewBox="0 0 3542.000000 3750.000000"
 preserveAspectRatio="xMidYMid meet">

<g transform="translate(0.000000,3750.000000) scale(0.100000,-0.100000)"
fill="#3a4548" stroke="none">
<path d="M3590 17280 c0 -865 -3 -1210 -11 -1210 -6 0 -47 -16 -90 -35 -483
-212 -795 -787 -747 -1375 16 -199 78 -385 254 -765 17 -38 98 -216 179 -395
81 -179 178 -393 216 -477 38 -84 69 -155 69 -157 0 -3 -15 5 -34 17 -50 35
-197 71 -261 64 -189 -19 -354 -249 -286 -397 41 -90 70 -109 182 -115 99 -5
147 13 191 71 26 34 54 127 43 144 -3 4 -22 11 -42 14 -80 13 -77 15 -84 -35
-9 -58 -20 -80 -60 -113 -46 -39 -73 -35 -98 17 -26 54 -26 82 -1 151 37 97
150 196 225 196 61 0 141 -67 246 -205 80 -105 107 -156 102 -192 -4 -28 0
-38 32 -70 42 -42 159 -291 199 -426 74 -245 84 -510 30 -777 -34 -169 -137
-424 -215 -535 -93 -132 -218 -215 -325 -215 -30 0 -74 -5 -98 -12 -39 -10
-50 -9 -87 8 -24 10 -69 44 -100 74 -140 138 -189 360 -113 520 59 125 190
216 271 189 45 -14 73 -60 73 -119 0 -64 -27 -109 -86 -141 -67 -36 -64 -52
11 -61 72 -8 112 8 155 60 60 74 61 193 1 253 -35 35 -156 73 -236 73 -161 2
-316 -153 -346 -346 -22 -143 42 -329 151 -438 61 -61 153 -113 225 -126 l40
-7 -44 -19 c-167 -71 -316 -250 -370 -446 -127 -459 72 -935 449 -1075 85 -31
225 -59 307 -60 l83 -2 0 -770 c-1 -614 -3 -773 -14 -787 -7 -9 -41 -29 -75
-44 -53 -23 -60 -29 -44 -37 66 -35 54 -126 -20 -145 -31 -8 -32 -9 -32 -67
l0 -59 114 -29 113 -30 167 27 c91 15 174 29 184 32 14 4 17 17 17 65 0 52 -2
59 -19 59 -30 0 -81 48 -81 77 0 14 13 37 30 54 l30 30 -35 15 c-19 8 -50 20
-69 28 -19 8 -37 12 -40 9 -3 -3 -5 362 -5 810 l-1 816 83 42 c136 68 216 127
338 248 165 166 283 354 354 566 64 191 80 290 80 510 0 248 -27 366 -141 616
-31 68 -116 257 -189 419 -73 162 -185 411 -249 553 -64 141 -116 259 -116
262 0 2 23 -8 52 -23 44 -23 67 -27 154 -30 93 -4 108 -2 157 21 74 34 127 84
168 159 28 53 34 73 33 128 0 72 -19 120 -58 145 -13 9 -58 25 -99 36 -61 17
-81 19 -114 10 -75 -20 -151 -132 -141 -204 3 -19 10 -22 59 -25 l57 -3 7 38
c9 48 27 82 58 112 39 35 73 23 99 -36 18 -41 19 -52 9 -98 -23 -102 -115
-199 -215 -226 -54 -15 -80 -5 -137 48 -100 94 -253 323 -230 346 12 12 15 46
5 72 -4 9 -23 24 -44 35 -28 14 -41 30 -55 67 -9 26 -34 86 -55 133 -58 130
-91 241 -118 395 -4 22 -7 132 -7 245 0 255 22 375 111 602 83 213 179 346
299 413 58 33 71 36 162 39 112 4 139 -4 219 -64 109 -82 178 -230 179 -385 0
-77 -4 -98 -26 -146 -49 -103 -129 -169 -224 -184 -36 -6 -43 -3 -70 25 -27
28 -30 38 -30 95 0 77 20 110 88 143 56 27 55 52 -2 52 -20 0 -41 4 -47 10
-15 15 -73 -5 -107 -37 -46 -44 -67 -95 -67 -160 0 -76 30 -129 90 -163 40
-22 56 -25 155 -25 132 0 186 20 258 93 135 138 153 331 52 539 -61 125 -192
232 -314 258 l-33 7 56 23 c134 54 239 154 306 290 49 99 68 170 81 308 37
390 -153 763 -466 912 -89 42 -170 61 -302 70 l-103 7 -1 37 c-1 20 -2 549 -4
1176 -1 627 -3 1143 -4 1148 0 4 -50 7 -111 7 l-110 0 0 -1210z m415 -1237
c191 -47 371 -206 470 -414 109 -231 113 -557 9 -768 -50 -101 -157 -210 -245
-250 -57 -26 -74 -29 -154 -27 -84 2 -94 4 -138 34 -54 38 -116 115 -149 187
-32 70 -33 237 -1 307 41 89 151 186 198 174 37 -9 83 -70 90 -120 9 -58 0
-95 -36 -150 -17 -25 -28 -50 -24 -56 3 -5 33 -10 65 -10 59 0 59 0 84 43 60
103 54 212 -18 283 -44 45 -86 61 -181 70 -96 10 -186 -38 -256 -135 -110
-154 -102 -363 19 -524 53 -70 137 -133 200 -150 42 -11 57 -27 25 -27 -22 0
-135 -63 -185 -103 -58 -47 -118 -131 -182 -256 -124 -241 -187 -521 -180
-789 1 -52 0 -92 -2 -89 -5 4 -144 311 -229 502 -29 66 -74 165 -100 220 -166
352 -196 445 -217 666 -56 603 300 1196 823 1368 130 43 188 45 314 14z m243
-4903 c115 -256 221 -502 235 -546 42 -132 60 -288 54 -444 -16 -362 -151
-685 -392 -939 -243 -255 -535 -384 -790 -349 -97 13 -190 64 -281 153 -157
156 -233 356 -234 613 0 302 109 525 319 653 56 33 67 36 163 42 96 5 106 4
144 -18 89 -52 164 -162 186 -272 30 -151 -71 -347 -206 -398 -56 -21 -70 -16
-98 35 -34 64 -20 168 34 243 11 14 10 19 -2 27 -8 5 -25 10 -37 10 -12 0 -25
5 -28 10 -13 21 -37 8 -65 -36 -41 -65 -56 -139 -41 -201 28 -112 87 -153 228
-156 79 -2 92 1 134 25 136 80 219 239 206 397 -13 174 -127 320 -291 372 -61
19 -67 23 -46 29 57 16 152 73 210 127 207 191 358 621 360 1023 1 102 2 112
14 90 8 -14 108 -234 224 -490z"/>
<path d="M4793 7165 c0 -33 2 -45 4 -27 2 18 2 45 0 60 -2 15 -4 0 -4 -33z"/>
</g>
</svg>
