<?xml version="1.0" standalone="no"?>
<!DOCTYPE svg PUBLIC "-//W3C//DTD SVG 20010904//EN"
 "http://www.w3.org/TR/2001/REC-SVG-20010904/DTD/svg10.dtd">
<svg version="1.0" xmlns="http://www.w3.org/2000/svg"
 width="3542.000000pt" height="3750.000000pt" viewBox="0 0 3542.000000 3750.000000"
 preserveAspectRatio="xMidYMid meet">

<g transform="translate(0.000000,3750.000000) scale(0.100000,-0.100000)"
fill="#3a4548" stroke="none">
<path d="M8830 17437 l0 -1122 -58 -23 c-145 -56 -339 -223 -444 -382 -162
-246 -232 -485 -232 -790 0 -185 17 -301 63 -434 40 -114 321 -793 548 -1323
3 -8 -12 -5 -44 7 -166 64 -285 46 -375 -59 -82 -96 -106 -211 -62 -295 33
-64 62 -79 154 -84 68 -3 86 0 119 19 40 22 72 69 89 130 12 45 6 54 -38 62
-81 15 -75 20 -95 -76 -7 -36 -47 -77 -75 -77 -33 0 -60 69 -49 125 17 92 80
179 154 214 69 32 110 8 211 -126 33 -43 62 -80 65 -83 3 -3 19 -30 36 -60 22
-39 30 -64 27 -88 -3 -26 2 -39 27 -63 29 -28 67 -107 130 -269 124 -317 131
-695 18 -1047 -66 -204 -157 -360 -253 -433 -68 -52 -110 -68 -173 -68 -29 -1
-62 -6 -73 -12 -47 -25 -178 91 -230 203 -73 156 -63 323 28 442 49 64 134
111 175 96 43 -17 69 -67 64 -124 -5 -57 -30 -95 -78 -119 -19 -10 -34 -26
-34 -35 0 -15 11 -18 67 -21 62 -3 69 -1 102 28 87 77 86 239 -3 284 -47 25
-162 48 -210 44 -100 -10 -187 -79 -241 -193 -82 -173 -29 -420 120 -558 34
-31 77 -60 106 -71 96 -34 94 -29 25 -66 -115 -62 -224 -202 -276 -355 -65
-195 -54 -471 29 -674 57 -141 186 -288 301 -345 74 -36 224 -74 311 -78 l69
-3 3 -710 c1 -391 0 -719 -3 -731 -3 -14 -25 -30 -71 -49 -57 -24 -64 -30 -45
-36 28 -11 45 -51 37 -84 -5 -19 -19 -32 -47 -43 l-40 -17 3 -54 3 -54 113
-27 114 -26 156 28 c87 15 158 28 160 28 1 0 2 24 2 54 0 49 -2 54 -25 60 -64
16 -84 78 -39 123 14 14 24 26 22 27 -2 2 -29 13 -60 26 -51 21 -63 22 -120
13 -35 -6 -65 -9 -68 -6 -9 8 23 21 71 27 l49 7 0 747 0 747 67 35 c315 162
555 507 645 924 33 151 32 439 0 586 -13 58 -35 134 -49 170 -24 61 -396 952
-484 1159 -22 52 -38 95 -36 97 2 2 19 -4 38 -13 49 -26 230 -25 277 0 168 91
224 344 92 409 -50 24 -143 42 -176 34 -63 -16 -132 -122 -122 -189 3 -19 9
-22 57 -22 l54 0 12 49 c8 29 25 60 44 80 l32 31 24 -27 c35 -40 40 -94 15
-159 -36 -97 -128 -179 -202 -179 -46 0 -185 167 -257 308 -16 31 -19 51 -15
85 5 38 3 47 -17 66 -12 11 -28 21 -35 21 -17 0 -139 330 -165 450 -21 92 -24
131 -24 320 0 184 4 229 22 315 52 236 146 454 239 554 85 92 126 113 231 116
l86 2 60 -41 c196 -134 250 -446 106 -609 -41 -48 -109 -81 -150 -75 -54 7
-80 125 -42 190 10 18 34 41 52 50 64 32 63 42 -4 51 -16 2 -38 7 -47 11 -27
12 -87 -23 -116 -67 -23 -35 -27 -51 -27 -118 0 -87 15 -118 75 -153 46 -27
182 -33 257 -11 69 20 143 90 181 173 24 51 27 68 27 167 -1 93 -5 121 -27
182 -50 139 -148 243 -271 289 l-49 17 45 17 c166 63 291 245 327 475 17 106
13 277 -9 380 -52 250 -203 463 -393 553 -99 48 -161 62 -268 62 l-80 0 0
1105 0 1105 -105 0 -105 0 0 -1123z m360 -1154 c238 -65 426 -311 471 -615 14
-99 7 -289 -16 -373 -39 -148 -131 -275 -248 -340 -50 -28 -59 -30 -133 -25
-93 6 -129 28 -188 113 -109 159 -100 362 23 484 51 51 75 60 105 40 59 -39
73 -147 30 -227 -14 -27 -24 -54 -22 -60 2 -8 24 -13 58 -13 64 0 82 17 106
100 19 65 13 121 -19 178 -29 53 -87 81 -181 90 -63 6 -78 4 -115 -14 -97 -50
-162 -151 -182 -283 -11 -65 -10 -86 4 -145 35 -140 120 -252 230 -302 l57
-27 -37 -13 c-117 -42 -211 -144 -294 -316 -96 -201 -147 -406 -157 -638 l-7
-148 -79 188 c-100 238 -223 529 -240 568 -84 189 -124 340 -134 501 -24 406
96 765 345 1025 112 118 244 203 383 247 104 33 135 34 240 5z m209 -4559
c190 -454 223 -548 242 -691 18 -137 6 -385 -25 -508 -98 -394 -315 -693 -614
-846 -115 -58 -172 -73 -292 -73 -101 -1 -107 0 -169 34 -158 85 -278 262
-328 482 -23 103 -23 309 1 413 37 165 134 316 253 392 46 29 62 34 135 37 74
4 88 1 125 -20 50 -29 95 -83 130 -161 23 -49 27 -71 27 -143 -1 -103 -26
-177 -84 -243 -48 -54 -117 -92 -138 -75 -27 23 -42 68 -42 125 0 55 7 77 41
131 12 20 12 24 -1 32 -8 5 -27 10 -42 10 -15 0 -30 5 -33 11 -10 16 -45 -20
-67 -69 -28 -62 -26 -152 4 -210 33 -64 71 -84 169 -89 97 -5 145 14 207 82
211 228 103 603 -193 670 -30 7 -30 7 15 19 59 15 149 76 202 135 156 175 288
594 288 915 0 44 2 77 4 75 2 -2 85 -198 185 -435z"/>
</g>
</svg>
