<?xml version="1.0" standalone="no"?>
<!DOCTYPE svg PUBLIC "-//W3C//DTD SVG 20010904//EN"
 "http://www.w3.org/TR/2001/REC-SVG-20010904/DTD/svg10.dtd">
<svg version="1.0" xmlns="http://www.w3.org/2000/svg"
 width="3542.000000pt" height="3750.000000pt" viewBox="0 0 3542.000000 3750.000000"
 preserveAspectRatio="xMidYMid meet">

<g transform="translate(0.000000,3750.000000) scale(0.100000,-0.100000)"
fill="#3a4548" stroke="none">
<path d="M13423 18622 l-43 -3 0 -673 0 -673 -46 -7 c-26 -3 -78 -6 -115 -6
l-69 0 0 -3645 c0 -3463 1 -3646 18 -3652 23 -10 84 -9 155 1 l57 9 0 -565 c0
-436 -3 -568 -12 -581 -7 -9 -35 -26 -63 -37 -42 -18 -48 -23 -34 -33 30 -22
41 -55 28 -79 -16 -29 -39 -47 -61 -48 -15 0 -18 -9 -18 -54 l0 -54 43 -7 c23
-3 75 -13 116 -21 70 -14 83 -13 213 7 l138 23 0 53 c0 38 -4 53 -14 53 -7 0
-25 9 -40 21 -32 25 -35 68 -6 94 28 25 26 30 -22 46 -84 27 -78 -21 -78 635
l0 582 33 5 c17 3 67 11 110 18 l77 12 0 3619 0 3620 -110 -4 -110 -3 0 678 0
678 -52 -3 c-29 -2 -72 -4 -95 -6z m197 -2141 l0 -659 -27 -6 c-16 -3 -83 -8
-150 -11 l-123 -5 0 660 c0 363 1 661 3 661 1 1 63 5 137 8 74 4 141 8 148 9
9 2 12 -136 12 -657z m-2 -978 l2 -171 -27 -6 c-16 -3 -84 -8 -151 -11 l-124
-5 4 169 c1 93 7 173 11 178 7 7 241 22 272 18 6 -1 11 -68 13 -172z m2 -1449
c3 -621 4 -1328 2 -1571 l-2 -441 -28 -6 c-15 -3 -82 -8 -149 -11 -94 -4 -123
-2 -123 8 0 6 0 702 0 1545 0 1297 3 1581 14 1593 2 3 260 15 271 14 7 -1 12
-390 15 -1131z m0 -2313 l0 -159 -27 -6 c-16 -3 -84 -8 -151 -11 l-124 -5 4
154 c1 85 7 158 11 163 5 4 66 11 135 14 70 3 133 6 140 7 9 2 12 -36 12 -157z
m0 -934 l0 -633 -145 -23 c-80 -13 -148 -22 -150 -19 -7 6 -9 1285 -2 1289 1
1 63 5 137 8 74 4 141 8 148 9 9 2 12 -130 12 -631z"/>
</g>
</svg>
