<?xml version="1.0" standalone="no"?>
<!DOCTYPE svg PUBLIC "-//W3C//DTD SVG 20010904//EN"
 "http://www.w3.org/TR/2001/REC-SVG-20010904/DTD/svg10.dtd">
<svg version="1.0" xmlns="http://www.w3.org/2000/svg"
 width="3542.000000pt" height="3750.000000pt" viewBox="0 0 3542.000000 3750.000000"
 preserveAspectRatio="xMidYMid meet">

<g transform="translate(0.000000,3750.000000) scale(0.100000,-0.100000)"
fill="#3a4548" stroke="none">
<path d="M19243 18702 l-43 -3 0 -613 0 -613 -31 -7 c-17 -3 -53 -6 -80 -6
l-49 0 0 -3319 0 -3319 31 -7 c17 -4 55 -4 83 -1 l52 7 -1 -513 c0 -282 -5
-519 -9 -526 -4 -7 -31 -24 -58 -36 -47 -22 -50 -24 -30 -35 45 -24 31 -90
-24 -111 -20 -8 -24 -16 -24 -53 l0 -43 116 -19 c114 -19 118 -19 233 1 l116
19 1 42 c2 39 -1 44 -35 60 -45 22 -55 69 -21 101 l21 19 -49 21 c-28 12 -52
29 -56 38 -3 8 -6 253 -6 544 l0 528 80 12 80 12 0 3301 0 3300 -80 -5 -80 -5
0 618 0 618 -47 -2 c-27 -1 -67 -3 -90 -5z m157 -1963 c0 -485 -3 -610 -12
-606 -7 2 -57 2 -111 -2 l-97 -6 2 605 3 605 75 6 c41 3 90 6 108 7 l32 2 0
-611z m-6 -760 c3 -17 6 -90 6 -161 0 -100 -3 -129 -12 -125 -7 2 -57 2 -110
-2 l-98 -6 0 120 c0 66 3 137 6 157 l6 37 72 4 c39 1 83 4 97 5 22 2 28 -3 33
-29z m4 -1851 l2 -1437 -110 -3 -109 -3 0 1400 c0 770 2 1417 6 1437 l5 37 72
4 c39 2 85 3 101 3 l30 -1 3 -1437z m0 -1705 l4 -142 -111 -3 -111 -3 0 105
c0 58 3 122 6 142 l6 37 72 4 c39 2 85 3 101 3 l30 -1 3 -142z m0 -844 l2
-576 -93 -16 c-51 -10 -100 -17 -109 -17 -15 0 -17 49 -17 548 -1 301 2 566 5
589 l6 42 72 4 c39 2 85 3 101 3 l30 -1 3 -576z"/>
</g>
</svg>
