<?xml version="1.0" standalone="no"?>
<!DOCTYPE svg PUBLIC "-//W3C//DTD SVG 20010904//EN"
 "http://www.w3.org/TR/2001/REC-SVG-20010904/DTD/svg10.dtd">
<svg version="1.0" xmlns="http://www.w3.org/2000/svg"
 width="3542.000000pt" height="3750.000000pt" viewBox="0 0 3542.000000 3750.000000"
 preserveAspectRatio="xMidYMid meet">

<g transform="translate(0.000000,3750.000000) scale(0.100000,-0.100000)"
fill="#3a4548" stroke="none">
<path d="M32016 18652 c-3 -3 -6 -303 -6 -667 l0 -661 -130 4 -130 4 0 -2418
c-1 -3746 0 -4687 3 -4691 2 -1 59 -10 128 -20 l124 -18 3 -568 c1 -333 -2
-575 -7 -585 -5 -10 -32 -26 -60 -36 -28 -10 -51 -20 -51 -22 0 -1 12 -15 26
-29 19 -19 23 -31 18 -48 -9 -31 -32 -54 -60 -61 -21 -6 -24 -12 -24 -55 0
-56 -20 -48 187 -77 121 -16 124 -16 218 5 l95 22 0 49 c0 44 -2 49 -30 60
-52 21 -67 76 -30 107 11 10 20 21 20 24 0 4 -20 15 -45 25 -25 9 -51 26 -56
36 -10 18 -16 1114 -7 1124 2 2 45 -3 96 -11 67 -10 101 -11 122 -3 l30 10 0
3579 0 3579 -87 1 c-49 1 -104 3 -123 3 l-35 2 -3 667 -2 667 -73 1 c-39 0
-80 2 -89 4 -9 2 -19 0 -22 -3z m176 -1472 l88 0 0 -674 c0 -530 -3 -675 -12
-679 -16 -5 -224 0 -295 8 l-53 6 0 676 0 676 92 -7 c50 -3 131 -6 180 -6z m0
-1490 l88 0 0 -169 c0 -126 -3 -170 -12 -174 -16 -5 -224 0 -295 8 l-53 6 0
171 0 171 92 -7 c50 -3 131 -6 180 -6z m0 -480 l88 0 0 -1554 c0 -1234 -3
-1555 -12 -1559 -16 -5 -224 0 -295 8 l-53 6 0 1556 0 1556 92 -7 c50 -3 131
-6 180 -6z m0 -3250 l88 0 0 -164 c0 -122 -3 -165 -12 -169 -16 -5 -224 0
-295 8 l-53 6 0 166 0 166 92 -7 c50 -3 131 -6 180 -6z m-1 -470 l89 0 0 -596
0 -596 -27 6 c-16 3 -82 12 -148 21 -66 9 -135 18 -152 21 l-33 5 0 576 0 576
92 -7 c50 -3 131 -6 179 -6z"/>
</g>
</svg>
