<?xml version="1.0" standalone="no"?>
<!DOCTYPE svg PUBLIC "-//W3C//DTD SVG 20010904//EN"
 "http://www.w3.org/TR/2001/REC-SVG-20010904/DTD/svg10.dtd">
<svg version="1.0" xmlns="http://www.w3.org/2000/svg"
 width="3542.000000pt" height="3750.000000pt" viewBox="0 0 3542.000000 3750.000000"
 preserveAspectRatio="xMidYMid meet">

<g transform="translate(0.000000,3750.000000) scale(0.100000,-0.100000)"
fill="#3a4548" stroke="none">
<path d="M3580 17711 l0 -778 -52 -7 c-29 -3 -92 -6 -140 -6 l-88 0 -1 -32
c-1 -31 0 -5569 1 -7485 l0 -882 43 -6 c25 -4 77 0 126 9 46 9 89 16 97 16 12
0 14 -101 14 -644 0 -354 -3 -652 -6 -661 -4 -10 -37 -30 -73 -47 -55 -24 -63
-31 -48 -39 9 -6 24 -23 32 -40 21 -39 4 -77 -48 -104 -36 -19 -37 -22 -37
-75 l0 -56 113 -28 112 -29 165 27 c91 15 173 30 183 32 14 4 17 17 17 65 0
52 -2 59 -19 59 -11 0 -33 12 -50 26 -41 34 -42 73 -1 108 l30 25 -44 20 c-24
10 -54 22 -65 26 -12 3 -21 13 -21 21 0 8 -4 14 -10 14 -7 0 -10 230 -10 670
l0 670 23 5 c12 2 73 13 136 24 62 11 115 21 117 23 2 2 6 1870 9 4150 5 3769
4 4148 -10 4156 -9 4 -72 6 -141 4 l-124 -4 0 28 c-1 16 -1 365 -2 777 l0 747
-114 0 -114 0 0 -779z m320 -1683 c0 -415 -4 -759 -9 -767 -7 -11 -49 -14
-207 -14 l-199 0 -3 756 -2 757 27 1 c16 1 89 5 163 8 74 4 156 8 183 9 l47 2
0 -752z m-6 -965 c9 -57 7 -346 -3 -362 -7 -11 -50 -14 -205 -15 -189 -1 -197
0 -201 19 -7 31 -1 362 7 370 3 4 75 10 160 14 264 13 234 17 242 -26z m0
-560 c12 -73 7 -3601 -5 -3609 -6 -3 -99 -7 -206 -8 -186 -1 -194 0 -199 19
-7 31 0 3602 8 3610 3 4 75 10 160 14 264 13 234 17 242 -26z m0 -3800 c11
-67 7 -321 -5 -329 -6 -3 -99 -7 -206 -8 -190 -1 -194 -1 -199 20 -8 30 -1
321 8 329 3 4 75 10 160 14 264 13 234 17 242 -26z m0 -520 c9 -54 7 -1403 -1
-1403 -5 0 -89 -14 -188 -30 -99 -16 -190 -30 -203 -30 l-22 0 2 734 c2 404 6
737 10 741 3 4 75 10 160 14 264 13 234 17 242 -26z"/>
</g>
</svg>
