<?xml version="1.0" standalone="no"?>
<!DOCTYPE svg PUBLIC "-//W3C//DTD SVG 20010904//EN"
 "http://www.w3.org/TR/2001/REC-SVG-20010904/DTD/svg10.dtd">
<svg version="1.0" xmlns="http://www.w3.org/2000/svg"
 width="3542.000000pt" height="3750.000000pt" viewBox="0 0 3542.000000 3750.000000"
 preserveAspectRatio="xMidYMid meet">

<g transform="translate(0.000000,3750.000000) scale(0.100000,-0.100000)"
fill="#3a4548" stroke="none">
<path d="M33226 17983 c1 -362 -1 -666 -3 -675 -4 -16 -19 -18 -134 -18 l-129
0 0 -902 c0 -497 -1 -2119 -1 -3606 -1 -1486 0 -2704 2 -2706 2 -3 64 -12 137
-22 l132 -18 0 -578 c0 -650 7 -596 -77 -633 -24 -10 -43 -20 -43 -22 0 -1 9
-12 20 -23 37 -37 17 -101 -35 -114 -23 -6 -25 -11 -25 -56 0 -28 1 -50 3 -50
1 0 72 -11 158 -23 151 -22 159 -22 225 -6 38 9 81 20 97 23 25 6 27 10 27 56
0 39 -4 50 -16 50 -21 0 -74 54 -74 76 0 10 11 30 25 44 l26 27 -48 18 c-26 9
-54 25 -60 33 -10 12 -13 144 -13 584 0 312 3 568 8 568 4 0 49 -7 100 -15 67
-10 101 -11 122 -3 l30 10 0 3639 0 3639 -130 0 -130 0 0 680 0 680 -98 0 -97
0 1 -657z m277 -850 c4 -2 7 -301 7 -664 l0 -659 -122 0 c-68 0 -153 3 -190 7
l-68 6 0 665 0 665 183 -8 c100 -4 185 -9 190 -12z m-1 -1469 c3 -2 7 -78 8
-169 l1 -165 -123 0 c-68 0 -153 3 -190 7 l-68 6 0 170 0 170 183 -8 c100 -4
185 -9 189 -11z m1 -481 c5 -3 7 -702 6 -1554 l-3 -1549 -120 0 c-67 0 -151 3
-188 7 l-68 6 0 1555 0 1555 183 -8 c100 -4 186 -9 190 -12z m-104 -3242 l104
-6 -1 -85 c0 -47 0 -124 -1 -172 l-1 -88 -117 0 c-65 0 -148 3 -185 7 l-68 6
0 173 0 174 83 -1 c45 -1 129 -4 186 -8z m-2 -490 l101 -6 6 -644 6 -644 -57
7 c-32 3 -118 14 -190 23 l-133 18 0 627 0 628 83 -1 c45 -1 128 -4 184 -8z"/>
</g>
</svg>
