<?xml version="1.0" standalone="no"?>
<!DOCTYPE svg PUBLIC "-//W3C//DTD SVG 20010904//EN"
 "http://www.w3.org/TR/2001/REC-SVG-20010904/DTD/svg10.dtd">
<svg version="1.0" xmlns="http://www.w3.org/2000/svg"
 width="2550.000000pt" height="2700.000000pt" viewBox="0 0 2550.000000 2700.000000"
 preserveAspectRatio="xMidYMid meet">

<g transform="translate(0.000000,2700.000000) scale(0.100000,-0.100000)"
fill="#65340A" stroke="none">
<path d="M8740 13151 l0 -3151 -40 -20 c-37 -19 -39 -22 -25 -36 22 -23 18
-51 -10 -70 -27 -18 -38 -43 -30 -66 5 -12 27 -16 93 -18 111 -3 106 -4 180 5
l62 8 0 36 c0 28 -5 39 -22 46 -28 12 -35 47 -13 69 15 14 13 17 -24 32 l-41
16 -2 3147 -3 3146 -62 3 -63 3 0 -3150z"/>
</g>
</svg>
