<?xml version="1.0" standalone="no"?>
<!DOCTYPE svg PUBLIC "-//W3C//DTD SVG 20010904//EN"
 "http://www.w3.org/TR/2001/REC-SVG-20010904/DTD/svg10.dtd">
<svg version="1.0" xmlns="http://www.w3.org/2000/svg"
 width="2550.000000pt" height="2700.000000pt" viewBox="0 0 2550.000000 2700.000000"
 preserveAspectRatio="xMidYMid meet">

<g transform="translate(0.000000,2700.000000) scale(0.100000,-0.100000)"
fill="#65340A" stroke="none">
<path d="M9270 13177 c0 -2744 -2 -3097 -15 -3111 -8 -8 -24 -18 -35 -21 -23
-7 -25 -16 -9 -32 17 -17 6 -57 -18 -68 -17 -7 -23 -18 -23 -42 l0 -33 123 1
c163 0 201 7 205 38 3 16 -6 31 -30 51 -33 29 -33 29 -16 59 15 27 15 31 2 31
-8 0 -26 11 -39 25 l-25 24 0 3081 0 3080 -29 0 c-16 0 -43 3 -60 6 l-31 7 0
-3096z"/>
</g>
</svg>
