<?xml version="1.0" standalone="no"?>
<!DOCTYPE svg PUBLIC "-//W3C//DTD SVG 20010904//EN"
 "http://www.w3.org/TR/2001/REC-SVG-20010904/DTD/svg10.dtd">
<svg version="1.0" xmlns="http://www.w3.org/2000/svg"
 width="2550.000000pt" height="2700.000000pt" viewBox="0 0 2550.000000 2700.000000"
 preserveAspectRatio="xMidYMid meet">

<g transform="translate(0.000000,2700.000000) scale(0.100000,-0.100000)"
fill="#65340A" stroke="none">
<path d="M9784 16231 c-2 -3 -4 -1368 -4 -3035 0 -1667 0 -3037 0 -3044 0 -7
-15 -20 -34 -29 -33 -15 -34 -17 -20 -39 13 -19 13 -26 2 -44 -7 -11 -23 -23
-35 -26 -17 -5 -23 -14 -23 -33 0 -27 1 -27 102 -37 56 -6 116 -7 133 -3 16 4
46 12 65 16 47 12 51 41 10 71 -33 25 -39 52 -14 72 13 12 11 15 -18 27 -17 8
-35 16 -38 19 -3 3 -7 1372 -10 3042 l-5 3037 -53 5 c-29 3 -55 4 -58 1z"/>
</g>
</svg>
