<?xml version="1.0" standalone="no"?>
<!DOCTYPE svg PUBLIC "-//W3C//DTD SVG 20010904//EN"
 "http://www.w3.org/TR/2001/REC-SVG-20010904/DTD/svg10.dtd">
<svg version="1.0" xmlns="http://www.w3.org/2000/svg"
 width="2550.000000pt" height="2700.000000pt" viewBox="0 0 2550.000000 2700.000000"
 preserveAspectRatio="xMidYMid meet">

<g transform="translate(0.000000,2700.000000) scale(0.100000,-0.100000)"
fill="#65340A" stroke="none">
<path d="M10280 13210 l0 -2989 -26 -20 c-14 -11 -30 -22 -37 -24 -9 -3 -9 -8
1 -18 19 -20 14 -46 -13 -67 -15 -12 -25 -30 -25 -46 0 -23 4 -26 33 -26 17 0
64 -3 102 -6 41 -2 93 1 125 9 49 11 55 15 52 37 -2 13 -15 32 -28 43 -25 19
-32 51 -14 62 17 11 11 22 -18 34 l-29 12 -6 542 c-3 298 -6 1642 -6 2986 -1
1345 -2 2445 -4 2446 -1 1 -26 5 -54 8 l-53 6 0 -2989z"/>
</g>
</svg>
