<?xml version="1.0" standalone="no"?>
<!DOCTYPE svg PUBLIC "-//W3C//DTD SVG 20010904//EN"
 "http://www.w3.org/TR/2001/REC-SVG-20010904/DTD/svg10.dtd">
<svg version="1.0" xmlns="http://www.w3.org/2000/svg"
 width="2550.000000pt" height="2700.000000pt" viewBox="0 0 2550.000000 2700.000000"
 preserveAspectRatio="xMidYMid meet">

<g transform="translate(0.000000,2700.000000) scale(0.100000,-0.100000)"
fill="#65340A" stroke="none">
<path d="M2680 9584 c0 -2551 -4 -4022 -10 -4033 -5 -10 -23 -24 -40 -31 -34
-14 -33 -12 -19 -42 14 -33 -3 -73 -41 -93 -30 -16 -42 -56 -20 -70 5 -3 60
-10 122 -15 111 -9 205 1 276 30 28 12 32 67 5 77 -48 17 -66 60 -43 103 8 16
5 19 -20 25 -17 4 -37 16 -45 28 -11 19 -13 606 -14 3832 0 2096 -1 3899 -1
4008 l0 197 -75 0 -75 0 0 -4016z"/>
</g>
</svg>
