<?xml version="1.0" standalone="no"?>
<!DOCTYPE svg PUBLIC "-//W3C//DTD SVG 20010904//EN"
 "http://www.w3.org/TR/2001/REC-SVG-20010904/DTD/svg10.dtd">
<svg version="1.0" xmlns="http://www.w3.org/2000/svg"
 width="2550.000000pt" height="2700.000000pt" viewBox="0 0 2550.000000 2700.000000"
 preserveAspectRatio="xMidYMid meet">

<g transform="translate(0.000000,2700.000000) scale(0.100000,-0.100000)"
fill="#65340A" stroke="none">
<path d="M4898 14968 l-68 -87 0 -3558 c0 -3104 -2 -3561 -15 -3579 -8 -12
-27 -27 -43 -33 -29 -12 -29 -13 -15 -41 17 -34 7 -61 -33 -86 -18 -12 -24
-24 -22 -43 3 -26 4 -26 118 -35 121 -9 258 5 272 28 14 20 9 66 -6 66 -18 0
-56 47 -56 68 0 9 7 23 16 33 14 16 13 18 -14 24 -17 3 -37 14 -46 24 -15 16
-16 335 -18 3661 l-3 3644 -67 -86z"/>
</g>
</svg>
