<?xml version="1.0" standalone="no"?>
<!DOCTYPE svg PUBLIC "-//W3C//DTD SVG 20010904//EN"
 "http://www.w3.org/TR/2001/REC-SVG-20010904/DTD/svg10.dtd">
<svg version="1.0" xmlns="http://www.w3.org/2000/svg"
 width="2550.000000pt" height="2700.000000pt" viewBox="0 0 2550.000000 2700.000000"
 preserveAspectRatio="xMidYMid meet">

<g transform="translate(0.000000,2700.000000) scale(0.100000,-0.100000)"
fill="#65340A" stroke="none">
<path d="M18847 22087 l-47 -43 0 -3661 c0 -3473 -1 -3661 -17 -3675 -10 -9
-28 -19 -40 -22 -20 -6 -20 -9 -7 -35 18 -37 5 -77 -31 -93 -21 -9 -25 -18
-23 -42 l3 -31 190 0 c189 0 190 0 193 23 2 15 -8 33 -34 57 -36 35 -39 50
-20 96 5 12 -1 20 -22 28 -16 7 -34 23 -40 36 -8 17 -11 1075 -11 3712 l-1
3688 -23 3 c-16 2 -38 -10 -70 -41z"/>
</g>
</svg>
