<?xml version="1.0" standalone="no"?>
<!DOCTYPE svg PUBLIC "-//W3C//DTD SVG 20010904//EN"
 "http://www.w3.org/TR/2001/REC-SVG-20010904/DTD/svg10.dtd">
<svg version="1.0" xmlns="http://www.w3.org/2000/svg"
 width="2550.000000pt" height="2700.000000pt" viewBox="0 0 2550.000000 2700.000000"
 preserveAspectRatio="xMidYMid meet">

<g transform="translate(0.000000,2700.000000) scale(0.100000,-0.100000)"
fill="#65340A" stroke="none">
<path d="M19927 23122 l-47 -48 -2 -4174 -3 -4175 -37 -24 c-30 -19 -35 -27
-28 -42 17 -31 11 -60 -20 -89 -18 -17 -30 -38 -30 -54 l0 -26 190 0 190 0 0
28 c0 20 -9 35 -30 50 -31 24 -39 57 -20 91 7 15 2 23 -28 42 l-37 24 -3 4215
c-2 3356 -5 4215 -15 4222 -22 14 -32 9 -80 -40z"/>
</g>
</svg>
