<?xml version="1.0" standalone="no"?>
<!DOCTYPE svg PUBLIC "-//W3C//DTD SVG 20010904//EN"
 "http://www.w3.org/TR/2001/REC-SVG-20010904/DTD/svg10.dtd">
<svg version="1.0" xmlns="http://www.w3.org/2000/svg"
 width="2550.000000pt" height="2700.000000pt" viewBox="0 0 2550.000000 2700.000000"
 preserveAspectRatio="xMidYMid meet">

<g transform="translate(0.000000,2700.000000) scale(0.100000,-0.100000)"
fill="#65340A" stroke="none">
<path d="M24380 22867 c0 -3598 -2 -4125 -15 -4143 -8 -12 -28 -27 -44 -34
-27 -11 -29 -14 -16 -27 27 -27 18 -69 -21 -101 -20 -16 -32 -32 -27 -35 4 -3
88 -2 186 1 l178 5 -19 21 c-28 30 -34 57 -19 86 12 23 10 27 -25 53 l-38 27
0 4135 0 4135 -70 0 -70 0 0 -4123z"/>
</g>
</svg>
