<?xml version="1.0" standalone="no"?>
<!DOCTYPE svg PUBLIC "-//W3C//DTD SVG 20010904//EN"
 "http://www.w3.org/TR/2001/REC-SVG-20010904/DTD/svg10.dtd">
<svg version="1.0" xmlns="http://www.w3.org/2000/svg"
 width="2550.000000pt" height="2700.000000pt" viewBox="0 0 2550.000000 2700.000000"
 preserveAspectRatio="xMidYMid meet">

<g transform="translate(0.000000,2700.000000) scale(0.100000,-0.100000)"
fill="#65340A" stroke="none">
<path d="M13293 13852 l-53 -3 0 -4622 c0 -4037 -2 -4625 -15 -4643 -8 -12
-28 -27 -45 -34 -32 -13 -36 -20 -19 -37 6 -6 9 -26 7 -44 -2 -25 -11 -39 -35
-54 -26 -16 -32 -27 -33 -56 0 -36 1 -36 48 -43 26 -4 94 -9 152 -13 94 -5
112 -3 168 17 34 12 63 27 63 31 2 12 2 46 0 62 -1 6 -14 20 -31 29 -37 21
-48 60 -26 93 17 25 17 26 -21 41 -21 9 -40 18 -43 21 -3 3 -7 2086 -10 4630
l-5 4626 -25 1 c-14 1 -49 0 -77 -2z"/>
</g>
</svg>
