<?xml version="1.0" standalone="no"?>
<!DOCTYPE svg PUBLIC "-//W3C//DTD SVG 20010904//EN"
 "http://www.w3.org/TR/2001/REC-SVG-20010904/DTD/svg10.dtd">
<svg version="1.0" xmlns="http://www.w3.org/2000/svg"
 width="2550.000000pt" height="2700.000000pt" viewBox="0 0 2550.000000 2700.000000"
 preserveAspectRatio="xMidYMid meet">

<g transform="translate(0.000000,2700.000000) scale(0.100000,-0.100000)"
fill="#65340A" stroke="none">
<path d="M12864 13853 l-31 -4 4 -4543 c5 -4093 3 -4546 -11 -4573 -8 -17 -29
-36 -46 -43 -32 -13 -36 -20 -19 -37 6 -6 9 -26 7 -44 -2 -25 -11 -39 -35 -54
-27 -17 -32 -26 -33 -57 0 -23 5 -38 12 -38 7 0 74 -5 149 -11 115 -9 142 -9
170 3 19 8 48 19 64 24 26 8 30 15 33 50 3 38 0 42 -28 54 -36 15 -48 50 -32
92 10 27 8 30 -16 39 -15 6 -35 18 -44 26 -17 15 -18 244 -18 4565 0 3631 -3
4548 -12 4549 -51 4 -87 5 -114 2z"/>
</g>
</svg>
