<?xml version="1.0" standalone="no"?>
<!DOCTYPE svg PUBLIC "-//W3C//DTD SVG 20010904//EN"
 "http://www.w3.org/TR/2001/REC-SVG-20010904/DTD/svg10.dtd">
<svg version="1.0" xmlns="http://www.w3.org/2000/svg"
 width="2550.000000pt" height="2700.000000pt" viewBox="0 0 2550.000000 2700.000000"
 preserveAspectRatio="xMidYMid meet">

<g transform="translate(0.000000,2700.000000) scale(0.100000,-0.100000)"
fill="#65340A" stroke="none">
<path d="M16763 20094 l-53 -46 0 -3588 c0 -2646 -3 -3596 -11 -3614 -7 -13
-25 -30 -41 -37 -21 -8 -27 -16 -22 -28 19 -46 16 -61 -20 -94 -35 -33 -42
-50 -30 -81 5 -14 30 -16 173 -16 208 0 211 1 211 51 0 26 -4 39 -13 39 -37 0
-63 80 -36 107 8 8 0 16 -28 29 l-38 19 -3 3653 c-2 3469 -3 3652 -20 3652 -9
0 -41 -21 -69 -46z"/>
</g>
</svg>
