<?xml version="1.0" standalone="no"?>
<!DOCTYPE svg PUBLIC "-//W3C//DTD SVG 20010904//EN"
 "http://www.w3.org/TR/2001/REC-SVG-20010904/DTD/svg10.dtd">
<svg version="1.0" xmlns="http://www.w3.org/2000/svg"
 width="2551.000000pt" height="2701.000000pt" viewBox="0 0 2551.000000 2701.000000"
 preserveAspectRatio="xMidYMid meet">

<g transform="translate(0.000000,2701.000000) scale(0.100000,-0.100000)"
fill="#65340A" stroke="none">
<path d="M19993 25089 c-35 -28 -63 -56 -64 -63 0 -6 0 -235 1 -509 1 -511 0
-527 -37 -527 -30 0 -166 -64 -241 -113 -196 -127 -338 -330 -398 -566 -40
-157 -30 -368 24 -521 11 -30 142 -301 291 -602 149 -301 271 -551 271 -554 0
-4 -22 14 -48 39 -64 59 -103 78 -171 84 -108 10 -197 -36 -251 -129 -50 -88
-33 -172 43 -213 44 -23 122 -17 165 14 39 27 70 104 52 126 -17 21 -36 4 -44
-41 -11 -57 -85 -91 -139 -63 -36 19 -57 52 -57 92 0 91 96 177 197 177 89 0
204 -93 300 -240 33 -50 40 -69 36 -94 -5 -34 15 -66 43 -66 16 0 109 -181
147 -287 80 -222 76 -498 -12 -716 -41 -103 -103 -207 -155 -258 -56 -58 -216
-129 -216 -98 0 9 -23 10 -82 5 -75 -6 -88 -4 -135 18 -121 57 -212 183 -221
307 -5 79 9 128 51 175 42 49 101 77 162 77 95 0 150 -45 148 -121 -1 -39 -38
-82 -72 -82 -18 0 -41 -18 -41 -32 0 -13 48 -9 85 6 51 22 77 69 72 134 -5 66
-40 106 -111 127 -64 19 -92 19 -155 -2 -62 -20 -122 -69 -159 -131 -24 -41
-27 -57 -27 -132 0 -75 4 -93 32 -152 52 -111 139 -189 252 -229 l46 -16 -52
-17 c-153 -51 -266 -180 -302 -344 -18 -85 -14 -227 9 -307 35 -126 86 -211
180 -305 130 -131 286 -200 452 -200 l68 0 0 -574 0 -575 -37 -28 c-21 -15
-39 -28 -41 -29 -2 -1 4 -14 13 -28 20 -30 13 -61 -21 -82 -18 -12 -24 -25
-24 -50 l0 -34 175 0 175 0 0 40 c0 22 -4 40 -10 40 -17 0 -50 39 -50 60 0 11
9 29 20 40 20 20 20 20 -19 39 -21 11 -41 27 -45 36 -3 9 -6 275 -6 590 l0
573 72 22 c378 115 647 476 648 872 0 98 -17 213 -46 303 -9 27 -144 307 -300
622 -156 314 -284 574 -284 578 0 3 26 -20 58 -51 74 -74 118 -94 207 -94 144
0 254 93 257 216 1 71 -53 131 -129 141 -75 10 -163 -63 -163 -136 0 -47 30
-37 47 16 20 58 69 89 117 73 89 -29 105 -130 33 -209 -56 -61 -172 -79 -250
-40 -92 47 -257 259 -257 330 0 28 -6 41 -26 54 -33 21 -133 227 -170 350 -25
82 -28 105 -28 255 -1 141 3 178 22 255 33 127 120 301 189 375 67 72 166 127
210 115 28 -7 70 -8 141 -3 117 8 283 -155 311 -307 22 -115 -25 -207 -129
-254 -106 -48 -230 -2 -230 86 0 51 22 80 71 94 50 15 51 45 2 43 -93 -5 -154
-128 -103 -211 25 -42 70 -64 140 -70 118 -11 231 50 281 153 26 56 28 151 3
227 -36 111 -144 226 -251 267 l-46 17 66 32 c189 90 288 273 274 506 -10 172
-75 317 -197 441 -129 132 -302 204 -487 204 l-53 0 -2 555 -3 555 -62 -51z
m270 -1125 c122 -31 234 -100 320 -195 205 -226 225 -595 43 -768 -82 -77
-189 -124 -232 -101 -15 8 -41 11 -73 7 -62 -7 -102 5 -163 51 -116 87 -163
230 -110 337 21 43 61 84 104 106 127 65 252 -68 173 -185 -28 -42 -31 -56
-11 -56 21 0 73 64 81 99 4 18 4 50 0 73 -10 56 -76 123 -133 133 -75 12 -168
-33 -229 -113 -39 -52 -53 -98 -53 -178 0 -110 79 -225 200 -289 52 -27 61
-35 45 -40 -173 -54 -310 -218 -388 -460 -46 -144 -60 -273 -47 -416 5 -51 7
-95 5 -98 -3 -2 -106 200 -229 450 -272 550 -280 571 -279 784 0 134 3 160 27
239 95 313 320 538 616 615 95 25 248 27 333 5z m181 -3519 c273 -544 287
-580 287 -787 0 -356 -195 -660 -516 -806 -154 -69 -327 -89 -469 -52 -211 54
-385 217 -455 426 -44 131 -36 312 17 423 30 62 119 159 172 186 47 24 133 46
140 36 10 -17 50 -22 87 -12 106 30 283 -145 283 -278 0 -104 -49 -181 -138
-219 -60 -26 -112 -17 -156 28 -26 25 -31 38 -31 78 0 33 7 57 23 79 25 35 28
53 9 53 -34 0 -77 -73 -79 -133 -2 -109 96 -182 208 -157 172 39 260 226 183
388 -32 66 -133 164 -191 187 -47 17 -63 35 -33 35 8 0 39 11 70 25 154 68
291 286 346 550 18 84 20 123 16 240 -3 77 -9 151 -13 165 -4 14 -5 23 -2 20
3 -3 112 -216 242 -475z"/>
</g>
</svg>
