<?xml version="1.0" standalone="no"?>
<!DOCTYPE svg PUBLIC "-//W3C//DTD SVG 20010904//EN"
 "http://www.w3.org/TR/2001/REC-SVG-20010904/DTD/svg10.dtd">
<svg version="1.0" xmlns="http://www.w3.org/2000/svg"
 width="2551.000000pt" height="2701.000000pt" viewBox="0 0 2551.000000 2701.000000"
 preserveAspectRatio="xMidYMid meet">

<g transform="translate(0.000000,2701.000000) scale(0.100000,-0.100000)"
fill="#65340A" stroke="none">
<path d="M22265 26958 c-3 -7 -6 -242 -8 -522 l-2 -509 -50 -17 c-134 -46
-261 -128 -372 -242 -86 -87 -131 -151 -184 -262 -103 -218 -116 -495 -32
-705 14 -36 142 -302 285 -590 142 -288 258 -528 258 -533 0 -6 -22 10 -49 35
-49 46 -122 77 -181 77 -59 0 -129 -30 -173 -75 -106 -106 -112 -216 -14 -275
86 -53 227 17 227 111 0 33 -3 40 -17 37 -11 -2 -23 -20 -31 -43 -17 -53 -45
-75 -96 -75 -34 0 -48 6 -71 30 -80 83 25 240 160 240 79 0 144 -38 222 -129
96 -112 117 -148 118 -201 0 -41 3 -46 32 -60 27 -12 42 -35 89 -135 88 -186
115 -280 129 -450 23 -281 -130 -654 -305 -745 -58 -30 -119 -43 -136 -29 -9
8 -30 9 -62 4 -75 -11 -102 -7 -161 22 -106 52 -193 168 -210 281 -25 170 110
305 263 262 56 -16 86 -47 93 -98 5 -34 1 -45 -20 -66 -14 -14 -35 -26 -45
-26 -10 0 -27 -9 -37 -20 -16 -18 -16 -20 -2 -26 20 -7 86 13 111 35 76 66 56
185 -39 231 -147 71 -334 -28 -375 -199 -23 -97 23 -233 110 -325 49 -52 151
-116 184 -116 30 0 16 -17 -24 -30 -93 -31 -205 -131 -255 -229 -36 -73 -59
-200 -52 -296 14 -178 86 -326 223 -455 111 -105 253 -165 417 -177 45 -3 77
-10 78 -17 4 -67 -1 -1128 -6 -1136 -3 -6 -24 -19 -46 -30 -39 -20 -39 -20
-19 -40 30 -30 26 -68 -10 -88 -19 -11 -30 -25 -30 -39 l0 -23 180 0 180 0 0
30 c0 23 -6 33 -25 40 -33 12 -42 53 -20 86 19 29 13 38 -33 50 -12 4 -25 16
-27 28 -3 11 -4 277 -3 590 l3 568 94 34 c423 151 681 582 607 1014 -18 102
-66 256 -96 305 -23 38 -510 1013 -510 1022 0 3 23 -15 50 -41 74 -69 127 -90
214 -84 44 3 86 13 112 26 45 23 110 90 124 128 17 42 11 104 -11 141 -27 44
-66 63 -128 63 -42 0 -56 -5 -86 -31 -64 -57 -87 -129 -41 -129 19 0 25 7 30
34 7 39 56 86 87 86 37 0 80 -31 96 -67 20 -50 9 -96 -34 -144 -61 -67 -164
-83 -253 -39 -85 43 -250 256 -250 324 0 33 -20 66 -41 66 -12 0 -100 177
-132 267 -45 124 -60 231 -54 383 6 160 33 265 102 405 75 151 149 232 250
271 40 15 54 16 91 6 34 -9 54 -9 87 0 41 10 49 9 108 -19 122 -58 203 -158
229 -285 23 -116 -17 -203 -115 -249 -68 -32 -149 -24 -213 19 -22 15 -31 75
-17 109 11 27 28 38 88 57 21 7 22 32 2 40 -38 14 -116 -43 -142 -103 -54
-127 100 -229 263 -174 81 27 131 69 165 139 28 57 31 70 28 137 -8 145 -109
290 -249 354 l-59 27 70 34 c124 62 204 159 245 297 24 81 24 248 1 335 -79
298 -340 506 -641 512 -62 1 -76 4 -77 17 0 9 0 238 -1 509 l0 492 -64 0 c-43
0 -66 -4 -69 -12z m342 -1078 c120 -33 195 -77 288 -169 139 -138 205 -330
182 -528 -11 -98 -38 -171 -86 -231 -65 -81 -215 -153 -261 -124 -24 15 -65
16 -90 2 -24 -13 -71 4 -135 48 -128 88 -174 228 -115 347 36 70 86 107 155
113 53 4 56 3 95 -36 36 -35 40 -45 40 -88 0 -36 -7 -58 -26 -86 -15 -21 -24
-41 -21 -44 14 -14 64 25 85 66 41 79 12 174 -66 218 -139 78 -342 -78 -342
-263 0 -108 93 -245 205 -300 30 -14 55 -28 55 -30 0 -2 -20 -10 -44 -18 -48
-16 -135 -77 -177 -123 -58 -64 -128 -187 -171 -301 -43 -113 -57 -208 -55
-370 1 -83 0 -150 -2 -148 -11 12 -427 861 -447 913 -13 34 -31 101 -39 148
-78 450 197 891 625 1003 103 27 252 28 347 1z m180 -3530 c267 -529 278 -562
277 -775 -1 -240 -84 -444 -249 -610 -175 -178 -385 -263 -615 -252 -145 7
-262 52 -373 143 -43 35 -150 185 -179 250 -46 103 -59 245 -33 367 19 93 50
152 111 213 75 76 196 132 228 105 8 -7 43 -10 82 -9 64 3 73 0 129 -34 77
-47 130 -116 150 -196 18 -70 11 -117 -31 -189 -42 -73 -165 -111 -228 -70
-59 39 -72 133 -26 182 14 15 20 30 16 40 -8 23 -25 15 -60 -29 -27 -33 -31
-46 -31 -96 0 -63 16 -95 69 -134 39 -29 145 -29 201 1 56 30 110 89 135 148
29 66 22 155 -16 224 -35 66 -124 153 -184 181 l-49 23 81 40 c49 24 100 58
127 86 98 98 195 310 227 494 16 93 16 308 -1 352 -29 75 42 -58 242 -455z"/>
</g>
</svg>
