<?xml version="1.0" standalone="no"?>
<!DOCTYPE svg PUBLIC "-//W3C//DTD SVG 20010904//EN"
 "http://www.w3.org/TR/2001/REC-SVG-20010904/DTD/svg10.dtd">
<svg version="1.0" xmlns="http://www.w3.org/2000/svg"
 width="2644.000000pt" height="2800.000000pt" viewBox="0 0 2644.000000 2800.000000"
 preserveAspectRatio="xMidYMid meet">

<g transform="translate(0.000000,2800.000000) scale(0.100000,-0.100000)"
fill="#C5C3C1" stroke="none">
<path d="M8390 16775 l0 -585 -50 0 -50 0 -2 -932 c-2 -513 -2 -1605 0 -2425
l2 -1493 50 0 50 0 0 -580 0 -580 -32 -20 c-18 -11 -37 -22 -43 -23 -5 -2 -1
-14 9 -26 16 -18 17 -25 7 -47 -6 -14 -20 -28 -31 -31 -15 -4 -20 -14 -20 -39
0 -30 3 -34 36 -40 42 -8 270 1 297 11 25 10 24 75 -2 75 -28 0 -45 70 -21 85
17 11 11 23 -14 29 -59 15 -56 -15 -56 622 0 459 3 585 13 589 6 2 29 6 50 10
l37 6 0 2399 0 2400 -50 0 -50 0 -2 588 -3 587 -62 3 -63 3 0 -586z m120
-1134 c0 -445 0 -449 -21 -454 -11 -3 -36 -3 -55 0 l-34 6 0 448 0 449 55 0
55 0 0 -449z m0 -655 c0 -116 -3 -121 -76 -109 l-34 6 0 103 0 104 55 0 55 0
0 -104z m0 -1265 l0 -1059 -21 -5 c-11 -3 -36 -3 -55 0 l-34 6 0 1058 0 1059
55 0 55 0 0 -1059z m0 -1260 c0 -110 -4 -116 -76 -104 l-34 6 0 98 0 99 55 0
55 0 0 -99z m0 -600 l0 -398 -31 -7 c-17 -3 -42 -6 -55 -6 l-24 0 0 405 0 405
55 0 55 0 0 -399z"/>
</g>
</svg>
