<?xml version="1.0" standalone="no"?>
<!DOCTYPE svg PUBLIC "-//W3C//DTD SVG 20010904//EN"
 "http://www.w3.org/TR/2001/REC-SVG-20010904/DTD/svg10.dtd">
<svg version="1.0" xmlns="http://www.w3.org/2000/svg"
 width="2644.000000pt" height="2800.000000pt" viewBox="0 0 2644.000000 2800.000000"
 preserveAspectRatio="xMidYMid meet">

<g transform="translate(0.000000,2800.000000) scale(0.100000,-0.100000)"
fill="#C5C3C1" stroke="none">
<path d="M8910 17150 l0 -160 -50 0 -50 0 0 -2380 0 -2380 50 0 50 0 -2 -172
-3 -172 -36 -21 c-34 -19 -35 -21 -22 -41 17 -26 1 -70 -29 -79 -13 -5 -18
-16 -18 -41 l0 -34 123 0 c67 0 146 3 175 6 51 7 52 7 52 40 0 22 -5 34 -13
34 -18 0 -47 32 -47 53 0 8 7 22 15 31 14 14 12 17 -25 36 l-40 20 0 174 c0
190 -1 186 61 186 l29 0 0 2360 0 2360 -45 0 -45 0 -2 168 -3 167 -62 3 -63 3
0 -161z m113 -279 c4 -4 6 -201 5 -437 l-3 -429 -52 -3 -53 -3 0 447 0 446 48
-7 c26 -4 50 -10 55 -14z m-1 -967 c4 -3 6 -51 5 -107 l-2 -102 -52 -3 -53 -3
0 117 0 116 48 -7 c26 -4 50 -9 54 -11z m0 -310 c4 -2 6 -469 5 -1037 l-2
-1032 -52 -3 -53 -3 0 1047 0 1046 48 -7 c26 -4 50 -9 54 -11z m-1 -2176 c6
-9 6 -150 0 -195 0 -9 -18 -13 -51 -13 l-50 0 0 116 0 116 48 -7 c26 -4 50
-12 53 -17z m1 -311 c4 -6 7 -180 7 -386 0 -282 -3 -377 -12 -383 -7 -4 -31
-8 -54 -8 l-43 0 0 401 0 401 48 -7 c26 -4 50 -12 54 -18z"/>
</g>
</svg>
