<?xml version="1.0" standalone="no"?>
<!DOCTYPE svg PUBLIC "-//W3C//DTD SVG 20010904//EN"
 "http://www.w3.org/TR/2001/REC-SVG-20010904/DTD/svg10.dtd">
<svg version="1.0" xmlns="http://www.w3.org/2000/svg"
 width="2644.000000pt" height="2800.000000pt" viewBox="0 0 2644.000000 2800.000000"
 preserveAspectRatio="xMidYMid meet">

<g transform="translate(0.000000,2800.000000) scale(0.100000,-0.100000)"
fill="#C5C3C1" stroke="none">
<path d="M9410 17105 l0 -155 -45 0 -45 0 0 -2340 0 -2340 45 0 45 0 0 -156
c0 -85 -4 -163 -10 -173 -5 -10 -22 -24 -39 -30 -29 -13 -29 -13 -13 -43 17
-29 17 -30 -15 -57 -22 -18 -33 -36 -33 -53 0 -25 2 -26 85 -33 47 -4 123 -4
170 0 l85 7 0 34 c0 24 -5 34 -21 39 -11 4 -25 18 -31 31 -9 20 -8 28 8 45 16
17 16 22 4 29 -8 6 -20 10 -27 10 -6 0 -19 7 -27 16 -13 13 -16 44 -16 184 l0
169 38 3 37 3 6 55 c4 44 5 4526 0 4567 0 6 -18 13 -38 15 l-38 3 -3 163 -2
162 -60 0 -60 0 0 -155z m102 -271 c4 -3 8 -194 8 -425 l0 -419 -50 0 -50 0 0
431 0 432 42 -7 c22 -4 45 -9 50 -12z m0 -950 c4 -3 8 -48 8 -100 l0 -94 -50
0 -50 0 0 106 0 107 42 -7 c22 -4 45 -9 50 -12z m0 -300 c4 -3 8 -459 8 -1015
l0 -1009 -50 0 -50 0 0 1021 0 1022 42 -7 c22 -4 45 -9 50 -12z m0 -2130 c4
-3 8 -50 8 -105 l0 -99 -50 0 -50 0 0 111 0 112 42 -7 c22 -4 45 -9 50 -12z
m0 -310 c4 -3 8 -176 8 -384 l0 -378 -40 -7 c-21 -4 -44 -4 -50 0 -7 4 -10
138 -10 397 l0 391 42 -7 c22 -4 45 -9 50 -12z"/>
</g>
</svg>
