<?xml version="1.0" standalone="no"?>
<!DOCTYPE svg PUBLIC "-//W3C//DTD SVG 20010904//EN"
 "http://www.w3.org/TR/2001/REC-SVG-20010904/DTD/svg10.dtd">
<svg version="1.0" xmlns="http://www.w3.org/2000/svg"
 width="2644.000000pt" height="2800.000000pt" viewBox="0 0 2644.000000 2800.000000"
 preserveAspectRatio="xMidYMid meet">

<g transform="translate(0.000000,2800.000000) scale(0.100000,-0.100000)"
fill="#C5C3C1" stroke="none">
<path d="M10363 17174 c-10 -4 -13 -45 -13 -155 l0 -149 -35 0 -35 0 0 -2255
0 -2255 35 0 35 0 0 -165 0 -164 -32 -17 c-44 -22 -44 -21 -24 -43 20 -22 10
-53 -24 -71 -13 -7 -20 -21 -20 -40 l0 -30 83 -2 c98 -3 194 0 225 7 30 7 32
61 2 70 -33 10 -44 42 -25 71 16 24 15 25 -15 35 -17 6 -35 19 -40 29 -12 22
-13 299 -2 317 4 6 24 14 45 18 l37 7 0 2232 0 2232 -42 10 -42 9 -1 147 c-1
81 -4 150 -8 154 -8 9 -89 15 -104 8z m97 -814 l0 -410 -22 0 c-13 0 -33 3
-45 6 l-23 6 0 404 0 404 45 0 45 0 0 -410z m0 -600 c0 -107 -1 -110 -22 -110
-66 1 -68 4 -68 109 0 54 3 101 7 104 3 4 24 7 45 7 l38 0 0 -110z m0 -1175
l0 -985 -22 0 c-13 0 -33 3 -45 6 l-23 6 0 972 c0 535 3 976 7 979 3 4 24 7
45 7 l38 0 0 -985z m0 -1165 c0 -108 2 -106 -59 -94 l-31 7 0 87 c0 47 3 90 7
93 3 4 24 7 45 7 l38 0 0 -100z m0 -569 l0 -388 -37 -6 c-20 -4 -40 -4 -45 -1
-4 3 -8 180 -8 395 l0 389 45 0 45 0 0 -389z"/>
</g>
</svg>
