<?xml version="1.0" standalone="no"?>
<!DOCTYPE svg PUBLIC "-//W3C//DTD SVG 20010904//EN"
 "http://www.w3.org/TR/2001/REC-SVG-20010904/DTD/svg10.dtd">
<svg version="1.0" xmlns="http://www.w3.org/2000/svg"
 width="2644.000000pt" height="2800.000000pt" viewBox="0 0 2644.000000 2800.000000"
 preserveAspectRatio="xMidYMid meet">

<g transform="translate(0.000000,2800.000000) scale(0.100000,-0.100000)"
fill="#C5C3C1" stroke="none">
<path d="M4498 14616 l-78 -110 0 -338 0 -338 -60 0 -60 0 0 -322 c0 -397 0
-5136 0 -5161 0 -17 7 -18 60 -15 l60 3 -2 -335 -3 -335 -47 -25 -48 -26 22
-21 c28 -28 18 -67 -22 -85 -26 -11 -30 -18 -30 -54 l0 -41 124 -7 c101 -6
141 -4 210 10 l86 18 0 43 c0 29 -4 43 -13 43 -17 0 -57 42 -57 59 0 6 11 22
23 35 l24 24 -40 13 c-70 23 -67 4 -67 384 l0 343 65 13 65 13 0 2719 0 2720
-65 -7 -65 -7 -2 448 -3 448 -77 -109z m80 -1383 l-3 -487 -67 -17 c-37 -9
-70 -14 -73 -11 -3 3 -5 230 -5 504 l0 498 75 0 75 0 -2 -487z m0 -725 l-3
-102 -67 -17 c-37 -9 -70 -14 -73 -11 -3 3 -5 49 -5 103 l0 98 38 10 c122 31
113 37 110 -81z m-5 -2609 c-12 -10 -131 -37 -138 -31 -3 3 -5 538 -5 1188 l0
1183 43 11 c23 6 56 14 72 18 l30 8 3 -1185 c1 -652 -1 -1188 -5 -1192z m0
-349 c-12 -11 -131 -38 -138 -32 -3 3 -5 52 -5 108 l0 103 43 11 c23 6 56 14
72 18 l30 8 3 -105 c1 -57 -1 -107 -5 -111z m5 -592 l-3 -452 -67 -17 c-37 -9
-70 -14 -73 -11 -3 3 -5 207 -5 453 l0 448 38 10 c58 15 76 19 95 20 16 1 17
-25 15 -451z"/>
</g>
</svg>
