<?xml version="1.0" standalone="no"?>
<!DOCTYPE svg PUBLIC "-//W3C//DTD SVG 20010904//EN"
 "http://www.w3.org/TR/2001/REC-SVG-20010904/DTD/svg10.dtd">
<svg version="1.0" xmlns="http://www.w3.org/2000/svg"
 width="2644.000000pt" height="2800.000000pt" viewBox="0 0 2644.000000 2800.000000"
 preserveAspectRatio="xMidYMid meet">

<g transform="translate(0.000000,2800.000000) scale(0.100000,-0.100000)"
fill="#C5C3C1" stroke="none">
<path d="M20457 27142 l-57 -57 -2 -560 -3 -560 -113 -11 c-62 -6 -115 -14
-119 -18 -9 -8 -10 -5864 -1 -5878 4 -7 45 -9 122 -5 l116 5 -2 -371 -3 -372
-48 -24 c-46 -23 -47 -24 -27 -38 31 -22 26 -68 -10 -95 -16 -12 -30 -31 -30
-41 0 -19 5 -20 98 -14 53 4 143 7 200 7 56 0 102 3 102 8 -1 4 -15 16 -33 27
-39 25 -46 59 -18 89 l21 22 -45 22 c-28 13 -47 30 -50 44 -3 13 -4 185 -3
383 l3 360 100 3 c55 1 110 5 123 7 l22 5 0 2949 c0 2604 -2 2950 -15 2961
-14 12 -113 9 -203 -7 l-33 -5 1 597 c1 586 -1 625 -29 625 -4 0 -32 -26 -64
-58z m213 -1851 l0 -549 -147 -6 c-82 -4 -167 -9 -190 -12 -42 -5 -43 -4 -43
23 -2 126 1 1057 3 1059 5 5 264 31 320 33 l57 1 0 -549z m0 -805 l0 -134
-147 -6 c-82 -4 -167 -9 -190 -12 l-43 -5 -1 38 c-2 63 3 228 6 231 2 2 174
13 343 21 l32 1 0 -134z m0 -1520 l0 -1264 -147 -6 c-82 -4 -167 -9 -190 -12
l-43 -5 0 178 c-2 1207 0 2346 3 2350 4 3 150 13 345 22 l32 1 0 -1264z m0
-1510 l0 -124 -147 -6 c-82 -4 -167 -9 -190 -12 l-43 -5 0 125 0 126 28 1 c15
1 86 5 157 8 72 4 145 8 163 9 l32 2 0 -124z m0 -750 l0 -504 -147 -6 c-82 -4
-167 -9 -190 -12 l-43 -5 -1 153 c-2 536 -1 849 3 854 5 4 143 13 346 23 l32
1 0 -504z"/>
</g>
</svg>
