<?xml version="1.0" standalone="no"?>
<!DOCTYPE svg PUBLIC "-//W3C//DTD SVG 20010904//EN"
 "http://www.w3.org/TR/2001/REC-SVG-20010904/DTD/svg10.dtd">
<svg version="1.0" xmlns="http://www.w3.org/2000/svg"
 width="2644.000000pt" height="2800.000000pt" viewBox="0 0 2644.000000 2800.000000"
 preserveAspectRatio="xMidYMid meet">

<g transform="translate(0.000000,2800.000000) scale(0.100000,-0.100000)"
fill="#C5C3C1" stroke="none">
<path d="M22552 25108 l3 -2893 75 0 c41 0 98 2 125 5 l50 5 3 -355 c1 -195 0
-365 -3 -378 -4 -16 -21 -30 -50 -43 l-45 -20 21 -28 c27 -37 22 -61 -18 -86
-18 -11 -32 -24 -33 -28 0 -9 299 0 332 9 14 4 15 10 7 31 -8 22 -6 32 11 55
l20 27 -39 20 c-21 11 -41 27 -45 36 -6 15 -9 764 -3 766 1 0 55 4 119 9 64 4
121 11 126 14 7 4 10 5535 3 5709 l-1 38 -61 -3 -62 -3 0 -513 c1 -293 -3
-515 -8 -518 -12 -7 -381 -32 -391 -27 -5 2 -8 242 -8 534 l0 529 -65 0 -65 0
2 -2892z m535 1591 c-1 -66 -5 -123 -9 -125 -11 -7 -381 -32 -390 -27 -5 2 -8
60 -8 129 l0 124 48 0 c79 1 257 12 261 16 2 2 26 4 52 4 l48 0 -2 -121z m0
-1538 c0 -699 -3 -1275 -7 -1281 -7 -11 -376 -41 -392 -33 -5 2 -8 580 -8
1284 l0 1279 48 0 c79 1 257 12 261 16 2 2 25 4 51 4 l47 0 0 -1269z m0 -1551
c1 -105 -1 -120 -15 -121 -10 0 -98 -6 -197 -13 -99 -7 -183 -11 -187 -9 -5 2
-8 58 -8 124 l0 119 48 0 c79 1 257 12 261 16 2 2 25 4 51 4 l47 0 0 -120z m0
-741 c0 -370 -3 -482 -12 -485 -18 -7 -378 -32 -387 -27 -5 2 -8 222 -8 489
l0 484 48 0 c79 1 257 12 261 16 2 2 26 4 52 4 l47 0 -1 -481z"/>
</g>
</svg>
