<?xml version="1.0" standalone="no"?>
<!DOCTYPE svg PUBLIC "-//W3C//DTD SVG 20010904//EN"
 "http://www.w3.org/TR/2001/REC-SVG-20010904/DTD/svg10.dtd">
<svg version="1.0" xmlns="http://www.w3.org/2000/svg"
 width="2644.000000pt" height="2800.000000pt" viewBox="0 0 2644.000000 2800.000000"
 preserveAspectRatio="xMidYMid meet">

<g transform="translate(0.000000,2800.000000) scale(0.100000,-0.100000)"
fill="#C5C3C1" stroke="none">
<path d="M17008 23844 l-58 -53 0 -569 0 -569 -31 -7 c-17 -3 -55 -6 -84 -6
-29 0 -67 -3 -84 -6 l-31 -6 0 -2864 0 -2864 115 0 115 0 0 -829 c0 -907 4
-844 -59 -871 -35 -14 -38 -22 -16 -40 29 -24 16 -74 -25 -95 -24 -12 -28 -20
-27 -52 l2 -38 180 0 c231 -1 225 -2 225 45 0 30 -5 40 -20 45 -34 11 -55 51
-42 80 7 14 16 25 22 25 20 0 10 18 -13 24 -13 3 -36 15 -50 27 l-27 20 0 835
0 834 115 0 115 0 0 48 c5 473 5 5663 0 5682 l-7 25 -112 -2 -112 -2 1 597 c1
328 1 602 1 609 -1 7 -9 17 -18 22 -14 7 -30 -2 -75 -45z m196 -1331 c4 -15 2
-978 -2 -1009 -1 -7 -50 -14 -134 -18 -73 -4 -151 -10 -175 -13 l-43 -6 0 520
0 521 128 9 c205 16 220 15 226 -4z m2 -1286 c0 -70 -2 -129 -5 -131 -3 -3
-84 -7 -179 -11 l-172 -8 0 130 0 131 128 9 c70 6 150 10 177 9 l50 -1 1 -128z
m-1 -289 c2 -13 4 -566 2 -1230 -2 -1205 -2 -1208 -22 -1208 -11 0 -91 -3
-177 -7 l-158 -6 0 1225 0 1226 128 9 c216 17 221 16 227 -9z m2 -2673 c0 -64
-3 -118 -7 -120 -4 -2 -84 -7 -178 -11 l-172 -7 0 120 c0 66 3 123 7 126 3 4
84 7 179 7 l172 0 -1 -115z m-1 -739 l0 -493 -120 -7 c-65 -3 -145 -6 -178 -6
l-58 0 0 493 c0 272 3 497 7 500 3 4 84 7 178 7 l172 0 -1 -494z"/>
</g>
</svg>
