<?xml version="1.0" standalone="no"?>
<!DOCTYPE svg PUBLIC "-//W3C//DTD SVG 20010904//EN"
 "http://www.w3.org/TR/2001/REC-SVG-20010904/DTD/svg10.dtd">
<svg version="1.0" xmlns="http://www.w3.org/2000/svg"
 width="3542.000000pt" height="3750.000000pt" viewBox="0 0 3542.000000 3750.000000"
 preserveAspectRatio="xMidYMid meet">

<g transform="translate(0.000000,3750.000000) scale(0.100000,-0.100000)"
fill="#65340A" stroke="none">
<path d="M13390 17678 c0 -524 0 -1480 0 -2123 0 -1154 0 -1171 -20 -1187 -28
-25 -36 -65 -17 -97 13 -23 13 -30 1 -51 -20 -37 -17 -65 11 -91 29 -28 33
-88 10 -129 -8 -14 -14 -38 -15 -54 0 -20 -13 -46 -39 -76 -89 -105 -98 -142
-54 -222 l27 -49 -33 -65 c-42 -83 -38 -108 34 -198 46 -57 55 -75 55 -108 0
-25 8 -50 20 -65 29 -37 27 -95 -5 -129 -29 -31 -31 -55 -9 -89 15 -23 15 -27
0 -50 -22 -34 -20 -58 9 -89 l25 -27 0 -1968 c0 -1906 -1 -1968 -19 -1987 -10
-11 -39 -28 -65 -38 l-46 -18 25 -20 c43 -34 30 -95 -25 -118 -27 -11 -30 -16
-30 -60 l0 -48 116 -22 116 -22 131 22 c73 12 135 24 140 27 4 2 7 24 7 47 0
39 -3 45 -30 56 -60 25 -76 75 -36 115 l24 24 -54 22 c-29 12 -56 29 -59 37
-3 9 -6 902 -6 1985 l1 1969 25 30 c29 35 30 38 10 64 -8 10 -14 28 -14 39 0
11 6 29 14 39 21 28 19 37 -15 74 -37 41 -38 79 -5 147 14 28 25 58 25 68 0
10 19 41 41 70 75 94 87 160 45 239 -23 44 -23 45 -5 79 11 21 18 56 19 89 0
61 -15 91 -81 170 -21 25 -39 53 -39 62 0 9 -7 32 -15 51 -24 57 -19 98 15
131 34 33 36 44 15 72 -19 25 -19 58 0 74 22 18 18 41 -10 72 l-25 27 0 2126
0 2125 -95 0 -95 0 0 -952z m122 -3745 c22 -20 23 -51 2 -81 -16 -23 -17 -23
-36 -5 -36 32 -39 49 -17 77 24 31 27 31 51 9z m124 -210 l7 -48 -42 40 c-22
21 -41 42 -41 46 0 4 7 24 16 45 l16 39 19 -38 c11 -20 22 -58 25 -84z m-231
80 c13 -16 25 -34 25 -41 0 -14 -78 -102 -90 -102 -26 0 -16 99 14 145 20 31
22 31 51 -2z m195 -207 c0 -6 -21 -32 -46 -57 l-47 -48 -53 47 c-30 25 -54 49
-54 53 0 4 24 30 53 58 l52 50 48 -47 c26 -25 47 -51 47 -56z m-206 -116 l47
-50 -33 -40 c-18 -22 -37 -40 -41 -40 -15 0 -47 85 -47 126 0 70 12 70 74 4z
m231 -87 c-9 -24 -20 -43 -23 -43 -4 0 -15 18 -24 41 l-17 40 37 41 37 41 3
-38 c2 -21 -4 -58 -13 -82z m-102 -62 c23 -39 22 -53 -8 -81 l-25 -23 -25 23
c-14 13 -25 29 -25 36 0 14 48 74 59 74 4 0 14 -13 24 -29z"/>
</g>
</svg>
