<?xml version="1.0" standalone="no"?>
<!DOCTYPE svg PUBLIC "-//W3C//DTD SVG 20010904//EN"
 "http://www.w3.org/TR/2001/REC-SVG-20010904/DTD/svg10.dtd">
<svg version="1.0" xmlns="http://www.w3.org/2000/svg"
 width="3542.000000pt" height="3750.000000pt" viewBox="0 0 3542.000000 3750.000000"
 preserveAspectRatio="xMidYMid meet">

<g transform="translate(0.000000,3750.000000) scale(0.100000,-0.100000)"
fill="#65340A" stroke="none">
<path d="M19210 16770 c0 -1067 -4 -1940 -8 -1940 -4 0 -15 -13 -25 -29 -16
-28 -16 -31 0 -59 16 -28 16 -31 0 -56 -17 -25 -17 -28 0 -56 9 -17 21 -30 25
-30 14 0 8 -84 -7 -110 -8 -14 -15 -38 -15 -55 0 -20 -16 -51 -49 -93 -65 -82
-70 -109 -37 -174 30 -58 32 -75 10 -106 -45 -64 -36 -111 35 -197 24 -29 41
-60 41 -75 0 -14 7 -38 15 -54 23 -45 19 -100 -10 -132 -29 -31 -31 -46 -10
-64 19 -16 19 -35 -1 -65 -14 -22 -14 -26 2 -55 10 -16 22 -30 26 -30 12 0 10
-3587 -2 -3609 -5 -10 -30 -26 -55 -36 l-46 -17 21 -23 c32 -34 24 -75 -21
-100 -32 -18 -36 -24 -35 -60 l1 -40 70 -12 c143 -23 175 -24 285 -7 l110 18
0 43 c0 33 -4 45 -17 50 -31 11 -63 46 -63 69 0 12 11 31 25 42 l24 19 -44 18
c-25 9 -52 24 -61 32 -13 14 -15 207 -13 1807 l2 1791 24 31 c27 36 28 47 7
79 -14 22 -14 26 0 47 22 31 20 51 -9 78 -29 27 -33 79 -10 120 8 14 14 35 15
47 0 12 18 43 40 68 71 83 86 149 50 220 -20 39 -20 39 0 80 36 75 24 135 -45
220 -18 22 -36 56 -40 75 -4 19 -14 44 -21 55 -23 32 -17 90 11 121 29 32 31
46 9 80 -15 23 -15 26 1 44 21 23 14 60 -14 87 -19 18 -20 59 -20 1938 0 1056
-1 1926 -1 1933 0 8 -24 12 -85 12 l-85 0 0 -1940z m126 -2415 c-11 -19 -23
-35 -27 -35 -9 0 -49 54 -49 66 0 4 10 18 22 31 l22 24 25 -26 26 -25 -19 -35z
m-86 -100 c0 -18 -77 -88 -89 -81 -17 11 -12 67 10 116 l21 45 29 -35 c16 -19
29 -39 29 -45z m188 -43 l-3 -36 -34 42 -33 42 18 38 18 37 18 -43 c11 -24 18
-59 16 -80z m-38 -107 c0 -6 -19 -30 -43 -53 l-43 -42 -48 49 -48 48 49 46 48
46 43 -42 c23 -22 42 -46 42 -52z m-150 -150 c-1 -5 -12 -23 -26 -40 -24 -29
-25 -30 -40 -10 -21 28 -36 90 -28 120 l7 27 43 -43 c24 -24 44 -48 44 -54z
m177 -19 c-17 -50 -29 -54 -46 -16 -14 33 -13 35 34 88 l20 24 3 -29 c1 -15
-3 -46 -11 -67z m-91 -77 c15 -31 15 -32 -10 -57 l-25 -26 -20 25 c-25 30 -25
31 0 63 26 34 35 33 55 -5z"/>
</g>
</svg>
