<?xml version="1.0" standalone="no"?>
<!DOCTYPE svg PUBLIC "-//W3C//DTD SVG 20010904//EN"
 "http://www.w3.org/TR/2001/REC-SVG-20010904/DTD/svg10.dtd">
<svg version="1.0" xmlns="http://www.w3.org/2000/svg"
 width="3542.000000pt" height="3750.000000pt" viewBox="0 0 3542.000000 3750.000000"
 preserveAspectRatio="xMidYMid meet">

<g transform="translate(0.000000,3750.000000) scale(0.100000,-0.100000)"
fill="#65340A" stroke="none">
<path d="M20084 18721 c-2 -2 -4 -861 -4 -1908 0 -1890 0 -1904 -20 -1925 -21
-23 -27 -63 -10 -73 6 -3 10 -17 10 -30 0 -13 -4 -27 -10 -30 -18 -11 -10 -53
15 -76 30 -29 32 -63 5 -107 -11 -18 -20 -47 -20 -65 0 -23 -12 -46 -41 -82
-22 -27 -45 -58 -51 -69 -17 -32 -11 -78 17 -128 l25 -45 -25 -44 c-41 -73
-36 -98 43 -202 24 -31 41 -61 37 -66 -3 -6 3 -31 15 -55 26 -59 25 -86 -5
-115 -25 -23 -33 -65 -15 -76 14 -9 12 -47 -5 -69 -13 -17 -12 -22 2 -47 10
-16 21 -29 25 -29 9 0 11 -3531 2 -3554 -4 -9 -28 -26 -54 -37 l-48 -20 25
-25 c17 -18 22 -31 18 -47 -8 -26 -41 -57 -61 -57 -10 0 -14 -13 -14 -44 0
-51 -9 -46 146 -67 72 -10 110 -10 178 0 127 17 136 22 136 71 0 27 -4 40 -14
40 -7 0 -25 9 -40 21 -31 25 -34 61 -6 89 l20 20 -47 21 c-26 11 -51 26 -55
32 -11 17 -10 3557 1 3557 5 0 17 12 26 27 17 25 17 28 0 59 -16 30 -16 34 -1
55 22 31 20 41 -9 73 -29 31 -33 86 -10 126 8 14 14 34 15 46 0 11 9 29 20 39
11 10 34 40 51 66 37 58 42 116 14 172 -17 36 -17 41 -2 66 42 71 27 155 -40
232 -17 18 -34 50 -38 69 -4 19 -14 44 -21 55 -15 21 -19 105 -5 105 5 0 17
12 26 27 17 25 17 28 0 59 -16 31 -16 34 1 62 17 30 17 31 -9 66 l-27 35 0
1906 0 1906 -81 -3 c-44 -2 -83 -5 -85 -7z m113 -4233 c28 -26 29 -38 2 -72
l-20 -26 -25 29 c-28 34 -29 35 -8 66 20 30 22 31 51 3z m-102 -115 c13 -16
25 -33 25 -38 0 -6 -20 -30 -44 -54 -45 -44 -56 -42 -56 12 0 24 35 107 45
107 3 0 17 -12 30 -27z m200 -9 c16 -38 21 -105 8 -103 -5 0 -21 16 -37 35
-29 35 -29 36 -13 70 9 19 19 34 22 34 2 0 12 -16 20 -36z m-61 -134 c20 -22
36 -43 36 -47 0 -4 -19 -27 -42 -50 l-42 -43 -48 47 -48 47 42 43 c23 24 47
43 54 43 6 0 28 -18 48 -40z m-152 -147 c21 -20 38 -41 38 -45 0 -13 -43 -68
-52 -68 -15 0 -38 67 -38 110 0 22 3 40 7 40 4 0 24 -17 45 -37z m225 -17 c-7
-46 -26 -96 -37 -96 -7 0 -30 45 -30 60 0 10 59 80 67 80 3 0 3 -20 0 -44z
m-107 -115 c15 -29 12 -56 -8 -74 -17 -16 -20 -15 -41 7 -23 25 -22 34 7 69
19 22 29 22 42 -2z"/>
</g>
</svg>
