<?xml version="1.0" standalone="no"?>
<!DOCTYPE svg PUBLIC "-//W3C//DTD SVG 20010904//EN"
 "http://www.w3.org/TR/2001/REC-SVG-20010904/DTD/svg10.dtd">
<svg version="1.0" xmlns="http://www.w3.org/2000/svg"
 width="3542.000000pt" height="3750.000000pt" viewBox="0 0 3542.000000 3750.000000"
 preserveAspectRatio="xMidYMid meet">

<g transform="translate(0.000000,3750.000000) scale(0.100000,-0.100000)"
fill="#65340A" stroke="none">
<path d="M20930 16855 c0 -1037 -4 -1885 -8 -1885 -4 0 -16 -13 -25 -30 -17
-28 -17 -31 -1 -59 16 -28 16 -31 1 -55 -22 -33 -22 -36 8 -68 31 -34 33 -84
4 -132 -12 -20 -18 -43 -15 -54 5 -13 -9 -38 -43 -81 -65 -81 -70 -106 -35
-176 l28 -55 -22 -45 c-35 -72 -30 -103 28 -176 28 -36 50 -75 50 -89 0 -14 7
-36 15 -50 21 -37 19 -93 -5 -115 -29 -27 -34 -54 -14 -76 17 -19 17 -21 0
-54 l-19 -34 27 -35 26 -35 0 -1740 c0 -1449 -2 -1742 -14 -1753 -7 -8 -32
-22 -55 -32 -40 -18 -40 -20 -20 -33 31 -23 22 -72 -18 -98 -28 -17 -32 -26
-33 -62 0 -24 5 -43 10 -43 6 0 56 -7 113 -16 94 -14 110 -14 215 2 l112 17 0
43 c0 38 -3 44 -25 50 -28 7 -55 39 -55 66 0 9 10 26 22 37 l21 21 -39 16
c-21 8 -47 25 -56 37 -16 21 -17 133 -12 1760 5 1710 5 1739 24 1760 24 25 25
54 4 78 -15 17 -15 20 0 43 22 35 20 49 -10 79 -22 22 -25 33 -21 64 7 59 36
125 67 158 44 45 73 119 65 164 -3 20 -13 46 -21 59 -14 21 -14 28 5 68 36 75
27 124 -40 210 -21 28 -39 59 -39 70 0 11 -9 36 -20 57 -27 51 -26 90 5 121
28 28 31 52 10 80 -13 17 -13 22 0 42 20 30 19 44 -5 74 -19 25 -20 55 -20
1908 l0 1882 -85 0 -85 0 0 -1885z m119 -2301 c21 -27 20 -36 -12 -78 -13 -18
-15 -17 -42 18 l-28 37 23 24 c29 31 34 31 59 -1z m-117 -189 c-20 -22 -41
-40 -47 -40 -20 0 -17 73 5 115 l21 42 29 -38 28 -39 -36 -40z m203 83 c17
-59 21 -85 15 -102 -5 -16 -11 -13 -39 22 -31 40 -32 42 -16 72 18 36 30 38
40 8z m-39 -168 l23 -25 -45 -45 -44 -45 -47 47 -47 48 44 45 44 45 25 -23
c13 -12 35 -33 47 -47z m-147 -199 c-13 -17 -28 -30 -34 -28 -19 7 -48 93 -41
123 l7 27 46 -45 45 -46 -23 -31z m187 5 c-18 -44 -27 -45 -45 -5 -13 29 -12
32 20 65 l34 35 3 -29 c2 -17 -4 -46 -12 -66z m-91 -65 c17 -33 12 -57 -16
-71 -14 -8 -21 -5 -33 12 -9 12 -16 27 -16 32 0 9 39 56 46 56 2 0 10 -13 19
-29z"/>
</g>
</svg>
