<?xml version="1.0" standalone="no"?>
<!DOCTYPE svg PUBLIC "-//W3C//DTD SVG 20010904//EN"
 "http://www.w3.org/TR/2001/REC-SVG-20010904/DTD/svg10.dtd">
<svg version="1.0" xmlns="http://www.w3.org/2000/svg"
 width="3542.000000pt" height="3750.000000pt" viewBox="0 0 3542.000000 3750.000000"
 preserveAspectRatio="xMidYMid meet">

<g transform="translate(0.000000,3750.000000) scale(0.100000,-0.100000)"
fill="#65340A" stroke="none">
<path d="M24440 16860 c0 -1867 0 -1881 -20 -1902 -24 -26 -25 -40 -5 -77 12
-25 12 -31 0 -47 -21 -28 -18 -48 10 -78 31 -34 32 -63 0 -122 -15 -28 -23
-55 -19 -68 4 -16 -8 -39 -45 -85 -60 -75 -65 -108 -25 -181 l26 -48 -25 -54
c-33 -67 -29 -88 34 -168 27 -35 49 -71 49 -81 0 -9 7 -33 15 -52 21 -52 19
-82 -10 -113 -28 -31 -31 -50 -10 -78 13 -17 13 -22 0 -42 -19 -30 -19 -40 4
-73 18 -25 19 -77 24 -1766 4 -1327 3 -1744 -6 -1756 -7 -8 -32 -24 -57 -34
l-46 -18 23 -23 c13 -13 23 -32 23 -42 0 -20 -34 -55 -62 -65 -13 -5 -18 -17
-18 -46 0 -43 1 -43 120 -57 30 -3 72 -9 92 -14 21 -4 57 -4 80 1 24 4 69 13
101 19 l57 11 0 45 c0 32 -4 44 -15 44 -23 0 -55 37 -55 63 0 13 9 32 20 42
20 18 20 19 -32 44 l-53 26 -3 1748 -2 1748 25 27 c29 32 30 40 9 71 -16 22
-16 25 0 52 16 27 16 31 -1 59 -9 17 -21 30 -25 30 -13 0 -9 72 7 119 9 24 33
64 55 90 63 75 73 121 44 198 -16 40 -15 44 5 86 35 73 24 129 -44 211 -19 24
-35 54 -35 67 0 13 -9 41 -20 62 -20 36 -28 107 -12 107 4 0 16 14 26 30 17
29 17 32 0 57 -16 25 -16 28 1 59 18 33 18 34 -9 68 l-26 35 0 1875 0 1876
-85 0 -85 0 0 -1880z m140 -2349 c-5 -9 -16 -25 -24 -36 -16 -20 -16 -19 -47
14 l-31 33 28 29 28 29 27 -26 c21 -20 26 -31 19 -43z m-132 -63 c7 -13 17
-31 24 -40 11 -15 7 -23 -27 -58 -21 -22 -42 -40 -47 -40 -19 0 -19 70 1 114
22 52 32 56 49 24z m218 -43 c3 -18 4 -45 2 -61 l-3 -28 -33 41 -32 41 17 37
c16 33 19 35 30 19 7 -10 15 -32 19 -49z m-76 -200 l-44 -45 -49 47 -48 48 48
42 48 42 45 -44 44 -45 -44 -45z m-143 -57 l42 -43 -29 -35 -29 -35 -20 45
c-20 45 -28 110 -13 110 4 0 27 -19 49 -42z m208 -46 c-19 -61 -32 -72 -45
-37 -14 37 -13 40 16 75 36 42 48 26 29 -38z m-99 -79 c18 -24 17 -43 -3 -65
-16 -18 -17 -18 -39 3 l-23 22 20 28 c24 34 27 35 45 12z"/>
</g>
</svg>
