<?xml version="1.0" standalone="no"?>
<!DOCTYPE svg PUBLIC "-//W3C//DTD SVG 20010904//EN"
 "http://www.w3.org/TR/2001/REC-SVG-20010904/DTD/svg10.dtd">
<svg version="1.0" xmlns="http://www.w3.org/2000/svg"
 width="3542.000000pt" height="3750.000000pt" viewBox="0 0 3542.000000 3750.000000"
 preserveAspectRatio="xMidYMid meet">

<g transform="translate(0.000000,3750.000000) scale(0.100000,-0.100000)"
fill="#65340A" stroke="none">
<path d="M26450 16785 l0 -1936 -25 -27 c-28 -31 -32 -54 -10 -72 8 -7 15 -20
15 -30 0 -10 -7 -23 -15 -30 -21 -18 -19 -34 10 -68 32 -38 32 -81 0 -137 -17
-29 -24 -51 -20 -67 5 -18 -4 -36 -34 -75 -75 -93 -79 -125 -30 -212 l24 -41
-22 -39 c-40 -69 -31 -108 40 -194 39 -47 53 -86 64 -173 4 -34 1 -46 -21 -69
-30 -33 -32 -42 -10 -74 15 -21 15 -25 -2 -56 -18 -33 -18 -33 9 -68 l27 -36
0 -1788 c0 -983 -4 -1793 -8 -1800 -4 -6 -29 -21 -56 -33 l-49 -21 21 -20 c12
-11 22 -30 22 -43 0 -23 -32 -58 -63 -69 -14 -5 -18 -16 -15 -49 l3 -42 125
-18 c127 -19 187 -16 303 13 35 9 37 12 37 50 0 34 -4 41 -27 50 -53 20 -68
67 -32 105 l21 22 -48 22 c-27 11 -52 26 -56 33 -11 17 -10 3607 1 3607 5 0
17 12 26 27 17 25 17 28 0 59 -16 30 -16 34 -1 55 22 31 20 41 -9 73 -44 48
-29 136 37 217 20 25 44 58 52 74 21 39 20 106 -1 149 -15 33 -15 36 2 62 46
70 38 143 -24 222 -24 30 -41 64 -46 90 -4 23 -15 52 -26 66 -19 24 -27 106
-11 106 5 0 17 16 27 34 18 33 18 36 2 54 -21 23 -21 41 -2 66 20 27 19 37
-10 68 l-25 27 -2 1933 -3 1933 -82 3 -83 3 0 -1936z m121 -2381 c26 -25 27
-29 14 -54 -26 -51 -40 -54 -69 -15 l-27 35 22 30 c13 16 25 30 28 30 3 0 17
-12 32 -26z m-108 -126 l29 -41 -44 -44 c-40 -40 -44 -42 -56 -26 -8 11 -11
31 -8 50 5 36 35 103 45 103 3 -1 19 -19 34 -42z m213 -24 c10 -35 13 -63 8
-75 -8 -16 -13 -14 -43 23 l-34 40 18 34 c10 19 22 34 26 34 5 0 16 -25 25
-56z m-78 -116 c23 -23 42 -45 42 -48 0 -3 -20 -26 -45 -50 l-45 -44 -47 47
-47 47 44 45 c24 25 47 45 51 45 3 0 25 -19 47 -42z m-144 -155 l38 -42 -22
-31 c-12 -16 -24 -30 -28 -30 -21 0 -57 106 -46 134 8 22 13 19 58 -31z m219
-16 c-3 -18 -14 -48 -23 -67 l-18 -35 -14 35 c-14 34 -14 36 16 72 35 42 48
41 39 -5z m-110 -114 c25 -52 -8 -92 -46 -54 -19 19 -19 19 4 50 12 17 24 31
26 31 1 0 9 -12 16 -27z"/>
</g>
</svg>
