<?xml version="1.0" standalone="no"?>
<!DOCTYPE svg PUBLIC "-//W3C//DTD SVG 20010904//EN"
 "http://www.w3.org/TR/2001/REC-SVG-20010904/DTD/svg10.dtd">
<svg version="1.0" xmlns="http://www.w3.org/2000/svg"
 width="3542.000000pt" height="3750.000000pt" viewBox="0 0 3542.000000 3750.000000"
 preserveAspectRatio="xMidYMid meet">

<g transform="translate(0.000000,3750.000000) scale(0.100000,-0.100000)"
fill="#65340A" stroke="none">
<path d="M28570 16695 c0 -1134 -4 -1995 -9 -1995 -5 0 -16 -15 -24 -32 -15
-30 -14 -35 3 -64 17 -27 18 -33 5 -50 -21 -28 -18 -59 10 -85 32 -31 32 -73
-2 -121 -17 -26 -27 -53 -28 -82 -1 -37 -9 -54 -47 -100 -64 -78 -68 -102 -27
-182 l33 -64 -22 -45 c-35 -73 -30 -100 36 -183 32 -40 59 -84 60 -98 1 -14 6
-34 12 -44 18 -34 11 -83 -15 -109 -25 -23 -33 -65 -15 -76 6 -3 10 -17 10
-30 0 -13 -4 -27 -10 -30 -16 -10 -12 -45 10 -75 19 -27 19 -53 21 -1867 1
-1312 -1 -1845 -9 -1860 -6 -11 -32 -28 -57 -38 l-46 -17 20 -19 c30 -28 27
-73 -5 -98 -15 -12 -33 -21 -40 -21 -19 0 -19 -86 -1 -93 7 -3 74 -13 148 -22
129 -16 138 -16 224 2 l90 18 3 46 c3 43 1 47 -28 59 -54 22 -65 66 -26 105
l23 23 -46 17 c-25 10 -52 25 -58 33 -10 13 -13 400 -13 1862 0 1826 0 1847
20 1865 29 26 33 51 14 84 -16 27 -16 30 0 52 22 31 20 42 -9 77 -42 51 -24
165 35 217 69 61 93 147 62 217 l-19 44 23 45 c42 77 26 153 -47 237 -19 21
-29 44 -29 65 0 18 -11 50 -25 72 -25 40 -35 125 -15 125 5 0 17 12 27 26 16
24 16 28 -2 60 -17 31 -17 35 -1 58 22 34 20 48 -9 80 l-25 27 0 1990 0 1989
-90 0 -90 0 0 -1995z m134 -2454 l28 -29 -24 -36 c-13 -20 -26 -36 -29 -36 -4
0 -21 16 -39 36 l-31 36 27 29 c15 16 31 29 34 29 3 0 19 -13 34 -29z m-132
-213 c-49 -51 -59 -51 -62 -3 -4 53 0 69 20 103 l21 34 33 -44 34 -43 -46 -47z
m232 82 c17 -42 21 -105 9 -113 -5 -3 -23 14 -41 38 l-33 43 18 36 c9 20 20
36 24 36 4 0 14 -18 23 -40z m-70 -142 c20 -23 36 -44 36 -48 0 -3 -20 -26
-45 -50 l-45 -44 -50 49 -51 50 45 43 c25 23 51 42 60 42 8 0 31 -19 50 -42z
m-155 -152 l43 -44 -27 -37 -28 -36 -20 31 c-21 33 -36 130 -20 130 5 0 28
-20 52 -44z m225 -13 c-7 -37 -35 -103 -43 -103 -4 0 -12 14 -19 32 -11 30
-10 34 20 65 39 40 50 42 42 6z m-104 -159 c0 -12 -7 -27 -15 -34 -13 -10 -19
-10 -35 5 -26 23 -25 33 2 62 21 23 23 23 35 7 7 -10 13 -28 13 -40z"/>
</g>
</svg>
