<?xml version="1.0" standalone="no"?>
<!DOCTYPE svg PUBLIC "-//W3C//DTD SVG 20010904//EN"
 "http://www.w3.org/TR/2001/REC-SVG-20010904/DTD/svg10.dtd">
<svg version="1.0" xmlns="http://www.w3.org/2000/svg"
 width="3542.000000pt" height="3750.000000pt" viewBox="0 0 3542.000000 3750.000000"
 preserveAspectRatio="xMidYMid meet">

<g transform="translate(0.000000,3750.000000) scale(0.100000,-0.100000)"
fill="#65340A" stroke="none">
<path d="M29680 16655 c0 -2012 0 -2026 -20 -2047 -24 -26 -25 -51 -5 -82 13
-20 13 -25 0 -42 -26 -34 -10 -104 24 -104 23 0 11 -74 -20 -120 -24 -35 -29
-52 -26 -77 5 -27 -2 -42 -44 -96 -67 -87 -71 -114 -28 -194 l34 -63 -22 -40
c-36 -62 -31 -108 20 -171 70 -87 74 -93 81 -129 18 -88 18 -114 4 -124 -8 -6
-21 -22 -30 -35 -15 -22 -15 -26 0 -57 15 -32 15 -37 -1 -62 -14 -26 -15 -31
-1 -57 8 -16 19 -32 24 -35 5 -3 10 -818 12 -1884 l4 -1878 -24 -18 c-13 -11
-39 -24 -58 -30 -39 -13 -42 -20 -14 -38 39 -24 21 -91 -30 -112 -27 -11 -30
-17 -30 -56 0 -24 2 -44 5 -44 2 0 68 -9 147 -21 132 -19 148 -19 208 -5 36 8
80 18 98 21 30 6 32 9 32 51 0 41 -2 45 -35 58 -55 23 -64 67 -24 112 19 20
18 20 -30 38 -28 10 -53 27 -60 40 -10 17 -11 441 -7 1890 6 1847 6 1867 26
1888 24 26 25 49 5 87 -12 25 -12 31 0 47 8 11 14 28 14 39 0 24 -21 55 -38
55 -15 0 -14 62 1 114 7 22 31 62 54 88 74 84 90 147 59 226 -15 38 -15 41 10
87 14 26 25 62 25 79 0 38 -30 104 -68 153 -16 21 -32 56 -35 77 -4 21 -18 56
-32 77 -33 51 -33 100 0 133 24 24 35 76 16 76 -17 0 -21 33 -6 56 21 32 19
56 -6 83 l-21 23 0 2024 0 2024 -94 0 -94 0 0 -2025z m132 -2492 c34 -33 34
-40 4 -78 l-25 -30 -38 37 -37 38 29 30 c16 16 31 30 34 30 3 0 18 -12 33 -27z
m-113 -134 l33 -40 -46 -45 c-26 -24 -50 -44 -55 -44 -14 0 -22 62 -12 96 11
39 30 74 39 74 4 0 22 -19 41 -41z m227 -24 c3 -17 4 -47 2 -67 l-3 -36 -37
43 -38 43 23 41 c19 36 23 39 34 24 7 -9 15 -31 19 -48z m-46 -186 c-5 -9 -28
-32 -51 -49 l-40 -33 -50 49 -50 49 51 49 51 49 49 -48 c39 -38 47 -52 40 -66z
m-191 -93 l43 -44 -24 -36 c-12 -20 -26 -36 -30 -36 -3 0 -16 19 -27 43 -21
42 -29 117 -13 117 4 0 27 -20 51 -44z m212 -71 c-22 -49 -35 -52 -45 -10 -5
20 1 35 26 65 32 38 33 38 36 15 2 -13 -6 -45 -17 -70z m-91 -101 c0 -12 -7
-27 -16 -34 -13 -11 -19 -10 -36 7 l-21 21 23 32 c22 31 24 32 37 14 7 -10 13
-28 13 -40z"/>
</g>
</svg>
