<?xml version="1.0" standalone="no"?>
<!DOCTYPE svg PUBLIC "-//W3C//DTD SVG 20010904//EN"
 "http://www.w3.org/TR/2001/REC-SVG-20010904/DTD/svg10.dtd">
<svg version="1.0" xmlns="http://www.w3.org/2000/svg"
 width="3542.000000pt" height="3750.000000pt" viewBox="0 0 3542.000000 3750.000000"
 preserveAspectRatio="xMidYMid meet">

<g transform="translate(0.000000,3750.000000) scale(0.100000,-0.100000)"
fill="#65340A" stroke="none">
<path d="M8830 16458 c-1 -1162 0 -2186 0 -2276 1 -131 -2 -163 -13 -168 -8
-3 -23 -20 -32 -38 -18 -33 -18 -35 3 -67 l21 -33 -21 -35 c-21 -33 -21 -34
-3 -67 10 -19 24 -34 32 -34 19 0 17 -93 -3 -131 -8 -17 -13 -37 -10 -45 3 -7
-24 -50 -59 -94 -82 -104 -88 -131 -47 -215 l30 -61 -34 -60 c-52 -92 -47
-122 40 -227 33 -40 41 -58 47 -108 5 -40 14 -68 28 -83 25 -26 31 -126 8
-126 -17 0 -48 -65 -41 -85 4 -8 10 -15 14 -15 17 0 16 -36 -2 -67 -20 -33
-19 -33 2 -68 12 -19 26 -35 31 -35 15 0 11 -4221 -4 -4240 -7 -8 -35 -26 -64
-39 l-52 -24 24 -29 c39 -46 29 -85 -28 -114 -18 -9 -35 -22 -39 -27 -6 -10
-3 -86 4 -92 2 -1 54 -14 117 -27 80 -18 124 -23 150 -18 20 5 89 16 154 25
l117 18 0 52 c0 49 -2 53 -30 65 -64 26 -78 83 -31 123 l30 25 -56 21 c-31 12
-62 29 -69 39 -11 14 -13 404 -14 2124 l0 2107 25 27 c24 26 35 84 16 84 -16
0 -20 45 -6 67 22 33 18 58 -14 91 -25 24 -29 35 -25 70 2 22 15 62 29 88 14
26 25 59 25 74 0 17 17 49 48 87 77 96 88 172 40 265 -20 38 -20 41 -4 75 42
89 26 165 -55 257 -24 27 -51 72 -61 100 -22 61 -24 146 -5 146 8 0 22 15 32
34 18 33 18 34 -3 67 l-21 35 20 31 c24 37 20 60 -17 96 -24 24 -25 31 -24
119 1 51 1 1073 1 2271 l-1 2177 -100 0 -100 0 0 -2112z m141 -2930 c7 -13 5
-27 -6 -49 -16 -30 -17 -30 -37 -13 -36 33 -39 50 -17 78 22 29 39 24 60 -16z
m-137 -209 c-26 -27 -51 -49 -55 -49 -28 0 -8 123 27 161 16 18 18 18 47 -22
l30 -40 -49 -50z m236 89 c11 -24 20 -59 20 -78 l0 -35 -41 41 -40 41 17 36
c10 20 19 37 21 37 2 0 13 -19 23 -42z m-55 -158 l49 -49 -40 -47 c-64 -76
-66 -77 -129 -14 l-55 54 52 53 c29 29 57 53 63 53 5 -1 32 -23 60 -50z m-166
-273 c-19 -26 -38 -45 -43 -43 -39 11 -70 131 -46 176 12 22 13 22 67 -32 l55
-56 -33 -45z m261 95 c-1 -42 -31 -134 -44 -134 -5 0 -18 18 -30 39 l-22 38
40 51 c23 28 44 49 49 47 4 -2 7 -21 7 -41z m-131 -156 c28 -45 26 -67 -9
-101 l-30 -29 -30 35 c-16 18 -29 39 -30 45 0 13 59 84 70 84 5 0 18 -15 29
-34z"/>
</g>
</svg>
