<?xml version="1.0" standalone="no"?>
<!DOCTYPE svg PUBLIC "-//W3C//DTD SVG 20010904//EN"
 "http://www.w3.org/TR/2001/REC-SVG-20010904/DTD/svg10.dtd">
<svg version="1.0" xmlns="http://www.w3.org/2000/svg"
 width="2550.000000pt" height="2700.000000pt" viewBox="0 0 2550.000000 2700.000000"
 preserveAspectRatio="xMidYMid meet">

<g transform="translate(0.000000,2700.000000) scale(0.100000,-0.100000)"
fill="#65340A" stroke="none">
<path d="M9274 16271 c-2 -2 -4 -250 -4 -550 0 -538 -9 -741 -41 -941 -12 -77
-6 -121 21 -145 31 -28 26 -62 -10 -70 -33 -7 -37 -16 -15 -35 30 -25 12 -80
-26 -80 -9 0 -19 -7 -23 -15 -3 -8 -12 -15 -21 -15 -31 0 -14 -29 35 -59 53
-33 66 -66 35 -91 -22 -19 -18 -28 15 -35 37 -8 40 -38 8 -73 -29 -30 -29 -65
-3 -277 17 -137 20 -222 20 -590 0 -388 -2 -449 -23 -622 -24 -198 -23 -224
14 -246 8 -4 14 -19 14 -32 0 -18 -7 -25 -31 -30 -16 -4 -29 -10 -27 -13 38
-74 36 -82 -28 -118 -44 -25 -55 -49 -25 -59 12 -3 21 -10 21 -15 0 -4 11 -11
25 -14 33 -8 44 -50 19 -77 -16 -17 -16 -22 -4 -29 8 -6 23 -10 33 -10 12 0
17 -8 17 -30 0 -16 -5 -30 -11 -30 -5 0 -17 -17 -26 -37 -14 -34 -14 -49 1
-163 32 -252 36 -367 36 -1017 l0 -662 -32 -17 c-43 -22 -43 -21 -29 -38 18
-22 9 -60 -16 -71 -17 -7 -23 -18 -23 -41 l0 -32 123 -6 c67 -3 140 -2 162 2
34 6 40 11 43 36 3 22 -4 34 -29 55 -25 21 -30 32 -25 49 4 12 12 22 17 22 19
0 8 18 -15 24 -59 15 -56 -15 -56 624 0 595 7 806 36 1032 23 179 21 210 -10
237 -35 30 -33 50 10 68 l36 15 -21 26 c-24 31 -15 58 25 76 13 6 24 15 24 20
0 4 6 8 13 8 7 0 18 5 25 12 9 9 3 17 -23 35 -19 13 -39 23 -44 23 -6 0 -18
11 -26 24 -14 20 -14 28 -3 45 7 12 16 21 20 21 21 0 4 18 -24 26 -42 12 -47
39 -13 70 27 25 28 27 22 112 -3 48 -13 152 -23 232 -24 208 -25 810 0 1035 9
88 20 196 23 240 5 76 4 82 -21 112 -29 35 -34 63 -10 63 8 0 24 5 35 10 19
11 19 11 -3 40 -25 35 -19 46 48 85 24 14 44 29 44 34 0 9 -48 45 -72 54 -9 3
-21 14 -26 24 -11 20 1 63 18 63 23 0 8 18 -22 26 -42 12 -47 38 -14 69 31 29
33 73 11 245 -26 209 -35 430 -35 911 l0 477 -56 4 c-31 1 -58 1 -60 -1z"/>
</g>
</svg>
