<?xml version="1.0" standalone="no"?>
<!DOCTYPE svg PUBLIC "-//W3C//DTD SVG 20010904//EN"
 "http://www.w3.org/TR/2001/REC-SVG-20010904/DTD/svg10.dtd">
<svg version="1.0" xmlns="http://www.w3.org/2000/svg"
 width="2550.000000pt" height="2700.000000pt" viewBox="0 0 2550.000000 2700.000000"
 preserveAspectRatio="xMidYMid meet">

<g transform="translate(0.000000,2700.000000) scale(0.100000,-0.100000)"
fill="#65340A" stroke="none">
<path d="M3441 13728 l-39 -42 -5 -655 c-4 -673 -7 -734 -52 -1028 -22 -146
-20 -179 10 -208 13 -14 29 -25 35 -25 5 0 10 -13 10 -29 0 -25 -5 -30 -35
-35 -44 -9 -51 -20 -25 -46 11 -11 20 -31 20 -44 0 -24 -32 -56 -57 -56 -18 0
-63 -45 -63 -64 0 -9 4 -16 9 -16 5 0 16 -6 23 -13 7 -6 26 -17 43 -22 44 -15
55 -56 27 -95 l-23 -30 26 -10 c15 -6 33 -10 41 -10 22 0 18 -57 -4 -64 -27
-9 -52 -59 -52 -105 0 -23 7 -83 15 -134 39 -246 47 -363 51 -747 3 -406 -6
-564 -45 -836 -28 -185 -27 -225 2 -252 13 -12 29 -22 35 -22 7 0 12 -13 12
-29 0 -25 -5 -30 -35 -35 -45 -9 -52 -22 -26 -50 31 -33 27 -63 -11 -86 -18
-10 -37 -23 -43 -27 -5 -5 -18 -12 -27 -16 -25 -9 -23 -48 2 -54 11 -3 20 -9
20 -14 0 -5 6 -9 14 -9 22 0 66 -40 66 -59 0 -10 -10 -30 -21 -45 -24 -31 -25
-30 21 -42 49 -13 52 -44 8 -83 -32 -29 -33 -31 -33 -108 1 -43 8 -125 18
-183 41 -260 42 -295 42 -1480 l0 -1145 -48 -26 c-35 -19 -44 -28 -33 -32 28
-11 31 -55 5 -83 -12 -13 -28 -24 -36 -24 -9 0 -13 -13 -13 -40 l0 -40 58 -1
c31 0 65 -2 75 -4 56 -11 102 -7 185 14 l92 23 0 39 c0 26 -5 39 -13 39 -7 0
-23 9 -36 21 -24 22 -21 54 6 76 16 13 13 16 -40 32 -24 9 -39 20 -43 35 -3
12 -3 528 -1 1147 4 1200 3 1185 57 1548 24 161 20 190 -31 217 -33 16 -39 51
-11 60 9 3 29 10 44 16 l28 10 -25 30 c-14 16 -25 35 -25 42 0 18 43 56 63 56
9 0 17 5 17 10 0 6 11 16 25 22 39 17 31 42 -22 68 -57 27 -83 48 -83 66 0 7
12 26 26 43 l26 31 -24 9 c-13 5 -32 10 -43 12 -32 6 -30 42 4 67 45 33 55 82
37 189 -51 303 -65 507 -61 908 3 344 11 463 48 705 12 80 21 167 21 194 -1
45 -5 53 -39 81 -40 34 -45 67 -10 74 11 2 30 7 43 12 l24 9 -26 31 c-14 17
-26 34 -26 38 0 14 31 51 43 51 21 0 87 50 87 66 0 8 -10 19 -22 24 -37 17
-92 51 -100 64 -13 19 -9 33 18 65 l25 31 -40 6 c-33 5 -43 12 -48 31 -4 20 0
30 25 49 52 41 57 75 33 222 -49 295 -54 382 -58 1086 l-4 669 -34 3 c-29 3
-41 -3 -74 -38z"/>
</g>
</svg>
