<?xml version="1.0" standalone="no"?>
<!DOCTYPE svg PUBLIC "-//W3C//DTD SVG 20010904//EN"
 "http://www.w3.org/TR/2001/REC-SVG-20010904/DTD/svg10.dtd">
<svg version="1.0" xmlns="http://www.w3.org/2000/svg"
 width="2550.000000pt" height="2700.000000pt" viewBox="0 0 2550.000000 2700.000000"
 preserveAspectRatio="xMidYMid meet">

<g transform="translate(0.000000,2700.000000) scale(0.100000,-0.100000)"
fill="#65340A" stroke="none">
<path d="M14543 16083 c-31 -21 -29 -35 7 -61 l30 -23 0 51 c0 54 -3 57 -37
33z"/>
<path d="M4898 14967 l-68 -85 0 -269 c0 -290 -17 -539 -52 -780 -21 -143 -21
-154 -6 -187 9 -19 26 -37 38 -41 16 -5 20 -13 18 -33 -2 -20 -11 -28 -38 -35
-46 -12 -47 -13 -21 -41 30 -32 24 -67 -14 -86 -82 -42 -108 -76 -65 -87 11
-3 20 -9 20 -13 0 -5 10 -12 23 -16 31 -9 57 -34 57 -54 0 -10 -9 -29 -21 -44
l-20 -26 26 -10 c14 -5 33 -10 41 -10 23 0 18 -57 -6 -63 -10 -3 -27 -21 -37
-41 -16 -35 -16 -43 5 -189 41 -291 46 -372 47 -772 0 -398 -5 -470 -47 -776
-24 -173 -20 -206 28 -227 35 -17 33 -58 -3 -65 -16 -4 -35 -11 -43 -16 -13
-9 -11 -13 8 -31 12 -11 22 -29 22 -39 0 -19 -39 -61 -58 -61 -6 0 -23 -11
-38 -25 -27 -25 -27 -55 1 -55 8 0 15 -4 15 -9 0 -5 11 -12 24 -15 55 -14 71
-56 35 -95 -24 -26 -22 -31 23 -40 46 -9 51 -48 9 -79 -43 -31 -46 -69 -22
-234 43 -289 43 -314 48 -1447 5 -1229 10 -1126 -63 -1153 l-34 -12 21 -22
c27 -29 21 -54 -18 -79 -25 -16 -32 -27 -33 -52 l0 -33 54 0 c29 0 76 -4 104
-10 41 -7 67 -5 144 14 87 21 93 24 96 49 3 21 -3 31 -27 45 -39 21 -47 46
-27 77 21 32 21 32 -13 40 -16 3 -36 14 -46 25 -15 17 -16 101 -12 1122 5
1161 4 1156 53 1494 20 136 14 172 -32 193 -36 16 -29 51 13 65 44 15 48 21
24 45 -40 40 -24 70 62 116 40 21 48 50 17 60 -11 3 -20 11 -20 16 0 5 -8 9
-18 9 -24 0 -62 36 -62 59 0 10 9 26 20 36 28 25 25 32 -17 42 -51 12 -56 43
-14 79 41 34 47 76 27 198 -32 197 -47 384 -53 666 -7 373 5 580 58 966 14
104 4 149 -38 165 -15 6 -23 16 -23 33 0 21 7 27 40 36 22 6 40 14 40 17 0 4
-10 17 -21 29 -33 35 -19 64 46 99 30 16 55 36 55 45 0 8 -17 24 -37 35 -83
42 -100 73 -62 114 24 26 22 31 -23 40 -46 9 -51 48 -9 79 41 30 47 72 28 196
-42 267 -49 376 -56 820 l-6 418 -67 -85z"/>
</g>
</svg>
