<?xml version="1.0" standalone="no"?>
<!DOCTYPE svg PUBLIC "-//W3C//DTD SVG 20010904//EN"
 "http://www.w3.org/TR/2001/REC-SVG-20010904/DTD/svg10.dtd">
<svg version="1.0" xmlns="http://www.w3.org/2000/svg"
 width="2550.000000pt" height="2700.000000pt" viewBox="0 0 2550.000000 2700.000000"
 preserveAspectRatio="xMidYMid meet">

<g transform="translate(0.000000,2700.000000) scale(0.100000,-0.100000)"
fill="#65340A" stroke="none">
<path d="M6430 16465 c-1 0 -2 -272 -4 -605 -4 -608 -8 -698 -47 -969 -22
-158 -18 -197 25 -225 28 -18 25 -66 -4 -66 -10 0 -25 -3 -34 -6 -14 -5 -13
-9 4 -31 11 -14 20 -33 20 -43 0 -19 -30 -50 -49 -50 -6 0 -17 -5 -24 -10 -7
-6 -21 -17 -32 -25 -20 -15 -20 -15 5 -35 14 -11 39 -27 57 -34 42 -19 51 -50
24 -87 l-22 -29 28 -10 c15 -6 33 -12 40 -15 17 -6 3 -47 -23 -68 -33 -25 -37
-60 -20 -172 39 -262 48 -397 48 -766 0 -376 -8 -503 -43 -742 -11 -77 -17
-152 -14 -168 4 -16 20 -39 37 -52 40 -32 32 -62 -17 -71 -40 -8 -43 -16 -15
-41 32 -29 21 -56 -42 -98 -32 -20 -58 -42 -58 -48 0 -5 10 -14 23 -20 95 -43
118 -77 77 -114 -28 -25 -25 -33 14 -40 44 -9 55 -47 20 -69 -42 -29 -47 -71
-25 -223 40 -271 43 -367 44 -1105 0 -540 -3 -721 -12 -732 -6 -7 -25 -19 -41
-26 -28 -12 -41 -30 -21 -30 13 0 23 -34 15 -54 -4 -9 -19 -23 -35 -32 -20
-10 -29 -22 -29 -38 0 -55 2 -56 144 -55 72 0 154 4 181 7 l50 7 3 43 c2 31
-1 42 -11 42 -38 0 -61 66 -32 90 12 10 8 15 -28 34 l-42 21 -3 665 c-3 672 3
880 34 1105 9 61 18 140 21 177 6 66 5 68 -26 97 -40 38 -41 67 -1 76 32 7 48
23 33 34 -6 3 -15 16 -21 27 -10 18 -8 27 9 48 11 14 25 26 31 26 16 0 68 40
68 53 0 7 -17 21 -37 32 -21 10 -46 26 -55 34 -22 17 -23 54 -3 71 23 19 18
29 -17 38 -45 11 -50 47 -11 77 26 22 28 27 27 97 0 40 -8 125 -17 188 -47
332 -49 946 -6 1285 13 99 24 209 24 243 0 58 -3 66 -27 86 -38 30 -37 62 2
71 32 7 48 23 33 34 -6 3 -15 15 -21 27 -15 29 6 56 63 85 25 12 45 28 45 34
0 14 -47 49 -78 59 -12 4 -27 17 -33 28 -9 16 -7 26 10 49 12 15 21 30 21 33
0 3 -15 9 -32 14 -45 11 -48 41 -7 81 31 31 31 34 26 99 -3 37 -12 119 -21
182 -29 211 -36 391 -36 947 l0 551 -65 4 c-36 1 -65 3 -65 3z"/>
</g>
</svg>
