<?xml version="1.0" standalone="no"?>
<!DOCTYPE svg PUBLIC "-//W3C//DTD SVG 20010904//EN"
 "http://www.w3.org/TR/2001/REC-SVG-20010904/DTD/svg10.dtd">
<svg version="1.0" xmlns="http://www.w3.org/2000/svg"
 width="2550.000000pt" height="2700.000000pt" viewBox="0 0 2550.000000 2700.000000"
 preserveAspectRatio="xMidYMid meet">

<g transform="translate(0.000000,2700.000000) scale(0.100000,-0.100000)"
fill="#65340A" stroke="none">
<path d="M7630 15885 c0 -541 -9 -742 -41 -989 -23 -176 -20 -218 17 -243 35
-22 28 -55 -13 -67 -37 -10 -40 -18 -18 -36 8 -7 15 -26 15 -42 0 -23 -6 -32
-32 -43 -50 -22 -85 -52 -73 -64 6 -6 30 -21 55 -34 36 -19 46 -29 48 -54 2
-18 -3 -35 -12 -43 -24 -19 -19 -28 19 -36 28 -5 35 -11 35 -29 0 -13 -10 -30
-25 -39 -36 -24 -39 -64 -16 -247 53 -418 55 -911 5 -1304 -27 -215 -27 -223
-14 -254 7 -17 21 -33 31 -36 12 -4 19 -16 19 -31 0 -19 -6 -26 -30 -31 -39
-7 -46 -20 -25 -43 24 -26 15 -62 -20 -80 -16 -8 -35 -21 -43 -27 -7 -7 -18
-13 -23 -13 -18 0 -9 -29 11 -35 11 -3 20 -11 20 -16 0 -5 8 -9 18 -9 42 0 68
-64 37 -90 -23 -19 -18 -29 17 -38 42 -11 48 -38 14 -69 -38 -35 -41 -63 -22
-207 9 -72 21 -169 27 -216 12 -92 25 -1494 15 -1536 -4 -15 -20 -31 -41 -41
-36 -17 -42 -27 -25 -38 27 -17 -4 -85 -38 -85 -7 0 -12 -15 -12 -34 l0 -33
118 -7 c67 -4 143 -2 177 4 33 5 61 10 63 10 1 0 2 15 2 33 0 25 -6 36 -30 49
-34 19 -39 51 -14 79 14 16 13 18 -15 24 -16 3 -35 12 -41 20 -8 10 -10 217
-7 787 3 651 7 792 21 893 9 66 19 152 23 192 5 67 4 73 -21 98 -25 25 -36 75
-17 75 5 0 22 5 37 10 l27 11 -21 20 c-12 11 -22 28 -22 38 0 20 30 51 49 51
6 0 14 7 17 15 4 8 12 15 19 15 28 0 28 24 -1 47 -16 12 -34 23 -40 23 -16 0
-44 34 -44 53 0 9 9 26 20 37 l20 20 -25 10 c-15 6 -31 10 -36 10 -19 0 -8 50
16 74 32 32 32 56 3 268 -21 150 -23 200 -23 638 0 435 2 489 23 642 28 213
28 229 -3 266 -25 29 -34 72 -16 72 5 0 22 5 37 10 l27 11 -21 20 c-12 11 -22
28 -22 38 0 18 29 51 46 51 5 1 23 12 39 26 l30 25 -30 22 c-16 12 -38 27 -49
32 -10 6 -24 18 -29 27 -10 16 -9 22 21 80 2 3 -11 9 -27 13 -39 8 -42 43 -6
79 31 31 31 52 4 256 -20 140 -22 219 -28 805 l-6 650 -63 5 -62 5 0 -500z"/>
</g>
</svg>
