<?xml version="1.0" standalone="no"?>
<!DOCTYPE svg PUBLIC "-//W3C//DTD SVG 20010904//EN"
 "http://www.w3.org/TR/2001/REC-SVG-20010904/DTD/svg10.dtd">
<svg version="1.0" xmlns="http://www.w3.org/2000/svg"
 width="2550.000000pt" height="2700.000000pt" viewBox="0 0 2550.000000 2700.000000"
 preserveAspectRatio="xMidYMid meet">

<g transform="translate(0.000000,2700.000000) scale(0.100000,-0.100000)"
fill="#65340A" stroke="none">
<path d="M14350 13703 c-8 -2 -25 -21 -37 -43 l-23 -39 0 -903 c0 -1004 -6
-1170 -56 -1620 -9 -75 2 -125 32 -153 31 -29 30 -78 -1 -84 -11 -2 -30 -7
-43 -12 l-24 -9 26 -31 c34 -40 33 -62 -6 -93 -18 -14 -40 -31 -49 -38 -9 -7
-24 -18 -35 -24 -27 -16 -24 -37 9 -52 15 -7 27 -17 27 -23 0 -5 8 -9 18 -9
10 0 29 -11 41 -24 27 -28 23 -64 -9 -96 -22 -22 -15 -29 34 -39 42 -9 47 -50
13 -91 -33 -39 -41 -90 -28 -186 38 -286 46 -471 46 -994 -1 -481 -3 -546 -25
-770 -32 -323 -32 -356 4 -387 41 -35 33 -72 -18 -90 -22 -7 -41 -15 -43 -17
-2 -2 7 -15 21 -29 14 -15 26 -35 26 -47 0 -22 -41 -70 -60 -70 -5 0 -19 -8
-29 -17 -11 -10 -27 -24 -35 -31 -28 -23 -17 -36 64 -72 65 -29 76 -69 34
-119 l-26 -31 46 -12 c41 -11 46 -15 46 -40 0 -15 -9 -37 -19 -47 -36 -36 -45
-95 -31 -206 41 -345 43 -394 47 -1469 2 -577 2 -1060 -1 -1073 -4 -14 -23
-31 -49 -44 -23 -12 -44 -23 -45 -24 -2 -2 6 -17 19 -34 21 -29 21 -31 5 -56
-9 -14 -28 -31 -42 -37 -22 -10 -25 -17 -22 -52 l3 -41 139 -12 138 -12 72 28
c70 28 71 29 73 67 3 34 -1 41 -30 59 -37 24 -45 56 -22 91 16 24 15 25 -28
43 -32 14 -46 27 -51 45 -9 35 -4 1923 6 2111 4 83 15 227 24 320 24 246 23
273 -10 301 -15 14 -26 33 -26 48 0 21 9 30 46 47 l46 21 -26 27 c-14 15 -26
36 -26 47 0 21 34 64 50 64 6 0 18 8 28 18 10 9 27 22 38 28 26 15 24 37 -3
49 -13 5 -23 13 -23 17 0 5 -6 8 -14 8 -22 0 -76 50 -76 70 0 10 12 32 26 49
l26 31 -24 9 c-13 5 -32 10 -43 12 -28 6 -32 52 -6 80 33 35 44 105 31 195
-33 241 -43 430 -46 919 -1 275 1 532 6 570 5 39 14 131 20 205 5 74 15 192
20 262 9 107 9 132 -4 162 -8 20 -22 36 -30 36 -11 0 -16 10 -16 33 0 30 4 34
45 46 25 7 45 16 45 20 0 4 -11 18 -25 31 -14 13 -25 34 -25 47 0 28 33 63 60
63 11 0 20 7 20 15 0 9 11 20 25 25 14 5 25 16 25 25 0 9 -11 20 -25 25 -14 5
-25 14 -25 20 0 5 -8 10 -18 10 -26 0 -62 42 -62 72 0 14 9 37 20 51 l20 25
-38 9 c-32 8 -37 13 -40 41 -2 23 4 41 21 61 23 27 45 120 33 139 -2 4 -12 84
-21 177 -9 94 -19 188 -22 210 -3 22 -8 529 -10 1128 -3 829 -7 1087 -16 1088
-52 5 -64 5 -77 2z"/>
</g>
</svg>
