<?xml version="1.0" standalone="no"?>
<!DOCTYPE svg PUBLIC "-//W3C//DTD SVG 20010904//EN"
 "http://www.w3.org/TR/2001/REC-SVG-20010904/DTD/svg10.dtd">
<svg version="1.0" xmlns="http://www.w3.org/2000/svg"
 width="2550.000000pt" height="2700.000000pt" viewBox="0 0 2550.000000 2700.000000"
 preserveAspectRatio="xMidYMid meet">

<g transform="translate(0.000000,2700.000000) scale(0.100000,-0.100000)"
fill="#65340A" stroke="none">
<path d="M18853 22128 l-52 -53 -4 -600 c-3 -478 -7 -622 -20 -710 -21 -141
-43 -266 -67 -373 -24 -111 -15 -148 47 -177 34 -16 42 -25 43 -47 0 -18 -5
-28 -14 -28 -8 0 -26 -4 -40 -10 l-26 -9 25 -36 c29 -43 22 -73 -21 -94 -16
-8 -30 -18 -32 -23 -2 -4 -9 -8 -17 -8 -7 0 -18 -7 -25 -16 -11 -13 -9 -19 17
-42 17 -15 43 -34 59 -42 38 -20 45 -72 14 -104 l-20 -23 40 -18 c33 -15 40
-23 40 -47 0 -20 -5 -28 -17 -28 -29 -1 -63 -33 -77 -73 -11 -33 -9 -55 20
-194 62 -306 69 -396 69 -838 0 -438 -7 -523 -66 -818 -38 -190 -38 -220 0
-258 16 -16 39 -29 50 -29 17 0 21 -6 21 -30 0 -25 -5 -31 -40 -41 -46 -14
-48 -19 -20 -44 37 -33 15 -105 -32 -105 -9 0 -18 -7 -22 -15 -3 -8 -12 -15
-20 -15 -31 0 -28 -34 6 -62 18 -15 38 -28 44 -28 18 0 44 -35 44 -60 0 -13
-10 -34 -22 -47 l-21 -23 41 -17 c35 -15 42 -23 42 -45 0 -18 -5 -28 -14 -28
-25 0 -76 -50 -84 -83 -6 -22 0 -70 19 -162 73 -355 80 -475 77 -1245 l-3
-655 -40 -20 c-22 -11 -42 -21 -44 -22 -2 -2 3 -11 12 -21 10 -10 17 -28 17
-40 0 -22 -32 -62 -50 -62 -5 0 -10 -18 -10 -41 l0 -40 189 2 189 3 4 33 c3
28 -1 38 -29 59 -36 27 -43 63 -18 84 21 18 19 27 -10 34 -14 4 -34 15 -45 26
-20 20 -20 36 -20 663 0 500 3 679 15 803 17 177 46 359 76 476 10 42 19 87
19 100 0 39 -36 86 -72 96 -28 7 -34 13 -36 40 -2 23 1 32 12 32 8 0 27 5 41
10 l26 10 -20 26 c-24 30 -27 68 -8 84 6 6 33 24 60 40 49 31 61 58 28 67 -11
3 -22 11 -25 19 -3 8 -11 14 -19 14 -20 0 -57 43 -57 67 0 11 9 32 21 47 15
20 17 27 7 31 -64 22 -68 25 -68 49 0 18 9 29 38 43 22 10 45 33 56 54 l19 36
-31 149 c-64 302 -79 458 -81 832 -2 379 19 601 86 910 25 117 25 125 10 157
-10 22 -30 41 -54 52 -25 12 -39 26 -41 41 -3 22 0 24 66 47 10 4 8 11 -7 31
-12 15 -21 37 -21 49 0 21 27 55 46 55 5 0 25 14 44 30 l35 29 -33 31 c-18 16
-37 30 -41 30 -4 0 -17 9 -29 20 -27 26 -28 64 -2 90 11 11 20 22 20 23 0 2
-18 12 -40 22 -54 24 -55 56 -2 82 22 11 45 33 56 54 l20 36 -27 124 c-76 352
-87 498 -87 1189 0 500 -2 558 -16 564 -9 3 -17 6 -18 6 -1 0 -25 -24 -53 -52z"/>
</g>
</svg>
