<?xml version="1.0" standalone="no"?>
<!DOCTYPE svg PUBLIC "-//W3C//DTD SVG 20010904//EN"
 "http://www.w3.org/TR/2001/REC-SVG-20010904/DTD/svg10.dtd">
<svg version="1.0" xmlns="http://www.w3.org/2000/svg"
 width="2550.000000pt" height="2700.000000pt" viewBox="0 0 2550.000000 2700.000000"
 preserveAspectRatio="xMidYMid meet">

<g transform="translate(0.000000,2700.000000) scale(0.100000,-0.100000)"
fill="#65340A" stroke="none">
<path d="M19928 23164 l-48 -45 0 -502 c0 -643 -16 -852 -85 -1162 -14 -60
-25 -124 -25 -140 0 -41 23 -71 71 -96 52 -26 51 -58 -1 -72 -46 -12 -46 -12
-21 -43 36 -46 22 -91 -36 -108 -13 -4 -23 -11 -23 -16 0 -4 -9 -10 -20 -13
-19 -5 -30 -47 -11 -47 4 0 20 -10 34 -22 14 -13 37 -31 51 -41 32 -22 33 -55
6 -90 l-21 -26 41 -21 c53 -27 53 -53 0 -80 -42 -21 -70 -63 -70 -103 0 -13
14 -88 30 -166 54 -252 71 -417 77 -742 8 -397 -10 -618 -74 -924 -44 -208
-36 -263 41 -283 26 -7 31 -13 31 -37 0 -24 -5 -30 -35 -38 -46 -12 -46 -12
-21 -43 36 -46 22 -91 -36 -108 -13 -4 -23 -11 -23 -16 0 -5 -9 -12 -20 -15
-26 -8 -26 -45 -1 -52 11 -3 22 -11 25 -19 3 -8 11 -14 19 -14 20 0 57 -43 57
-66 0 -11 -9 -30 -21 -42 -24 -27 -19 -37 26 -52 48 -16 49 -54 2 -74 -19 -7
-44 -26 -56 -42 -28 -35 -26 -66 18 -274 65 -313 65 -294 68 -1599 4 -1309 9
-1203 -61 -1231 l-34 -13 21 -28 c17 -24 19 -33 9 -54 -7 -14 -23 -30 -37 -37
-19 -9 -25 -19 -25 -45 l0 -33 195 0 195 0 0 31 c0 22 -10 40 -35 63 -36 35
-38 52 -8 87 12 14 8 18 -27 34 -23 11 -43 27 -46 39 -2 12 -3 566 -1 1231 3
1182 4 1213 25 1345 27 171 39 236 63 334 26 110 9 164 -57 186 -28 9 -34 17
-34 39 0 24 6 30 41 40 l41 12 -19 22 c-11 12 -23 31 -27 41 -8 23 16 62 44
71 11 4 34 19 51 34 27 25 29 30 15 42 -23 21 -38 32 -68 52 -42 26 -51 51
-34 86 9 16 21 31 28 34 7 3 -6 13 -29 23 -35 15 -43 24 -43 45 0 20 7 30 29
39 66 27 86 78 65 171 -80 362 -97 546 -91 1007 5 411 11 477 72 777 34 165
34 170 17 205 -10 22 -31 42 -55 54 -31 15 -38 23 -35 44 2 20 11 28 36 34 18
5 32 12 30 16 -2 4 -12 24 -23 44 l-19 38 24 25 c13 14 28 25 34 25 6 0 26 13
45 29 31 25 32 29 17 42 -9 8 -25 21 -34 30 -9 8 -29 23 -44 32 -38 24 -44 53
-19 88 12 15 21 31 21 34 0 3 -16 13 -35 21 -28 11 -35 20 -35 42 0 23 6 30
36 41 28 10 41 23 55 57 l20 43 -25 108 c-76 335 -86 468 -86 1169 0 683 4
660 -92 568z"/>
</g>
</svg>
