<?xml version="1.0" standalone="no"?>
<!DOCTYPE svg PUBLIC "-//W3C//DTD SVG 20010904//EN"
 "http://www.w3.org/TR/2001/REC-SVG-20010904/DTD/svg10.dtd">
<svg version="1.0" xmlns="http://www.w3.org/2000/svg"
 width="2550.000000pt" height="2700.000000pt" viewBox="0 0 2550.000000 2700.000000"
 preserveAspectRatio="xMidYMid meet">

<g transform="translate(0.000000,2700.000000) scale(0.100000,-0.100000)"
fill="#65340A" stroke="none">
<path d="M22141 25282 l-52 -47 -3 -595 c-4 -689 -14 -802 -97 -1161 -25 -109
-15 -143 52 -180 57 -32 59 -60 7 -72 -42 -10 -48 -25 -18 -52 38 -34 19 -87
-36 -101 -13 -3 -24 -10 -24 -14 0 -5 -9 -12 -20 -15 -42 -13 -22 -46 73 -116
32 -24 35 -58 7 -84 -27 -25 -26 -28 20 -59 22 -14 40 -33 40 -40 0 -8 -19
-25 -42 -38 -25 -14 -49 -38 -61 -60 l-19 -38 32 -142 c66 -298 90 -539 88
-907 -2 -368 -24 -585 -89 -880 -16 -74 -27 -143 -23 -155 9 -30 34 -56 75
-77 48 -24 49 -59 2 -71 -43 -11 -48 -23 -24 -54 12 -15 21 -35 21 -45 0 -19
-44 -59 -66 -59 -8 0 -14 -4 -14 -9 0 -5 -9 -13 -20 -16 -11 -3 -20 -14 -20
-23 0 -18 51 -72 67 -72 17 0 53 -46 53 -67 0 -11 -9 -28 -20 -38 -28 -25 -26
-32 20 -55 48 -25 54 -55 13 -71 -73 -27 -101 -90 -79 -179 47 -183 79 -394
96 -615 15 -211 11 -2357 -5 -2378 -7 -9 -29 -24 -50 -33 l-37 -15 23 -25 c19
-20 21 -29 13 -52 -5 -15 -22 -33 -37 -40 -19 -9 -27 -21 -27 -39 l0 -26 168
6 c92 4 179 7 195 7 20 0 27 5 27 19 0 11 -9 23 -20 26 -34 11 -55 51 -42 80
7 14 16 25 22 25 20 0 9 18 -15 24 -14 4 -34 15 -45 26 -20 20 -20 38 -20
1204 0 731 4 1224 10 1287 15 147 38 296 67 429 14 63 28 128 31 144 7 42 -23
91 -69 111 -32 15 -39 23 -39 45 0 24 5 29 35 34 40 8 43 18 15 53 -11 14 -20
34 -20 44 0 17 44 59 62 59 5 0 16 6 23 13 8 6 22 18 31 26 15 13 13 17 -17
45 -18 17 -42 36 -53 41 -11 6 -27 22 -35 37 -14 25 -14 29 7 58 26 35 24 43
-18 60 -23 9 -30 19 -30 39 0 21 8 29 38 42 27 11 44 27 57 55 16 34 17 45 6
94 -88 406 -93 448 -98 895 -6 476 10 665 83 994 32 141 28 164 -38 206 -57
37 -65 70 -18 80 40 9 45 20 21 51 -12 15 -21 34 -21 44 0 19 40 60 59 60 7 0
19 6 26 13 8 6 22 18 30 26 15 12 13 17 -17 47 -18 19 -45 41 -60 49 -38 21
-45 51 -19 86 25 33 22 43 -20 64 -43 23 -40 58 9 82 24 12 44 32 56 57 l19
39 -32 146 c-74 341 -74 344 -78 1093 -4 639 -5 679 -22 688 -15 7 -28 0 -70
-38z"/>
</g>
</svg>
