<?xml version="1.0" standalone="no"?>
<!DOCTYPE svg PUBLIC "-//W3C//DTD SVG 20010904//EN"
 "http://www.w3.org/TR/2001/REC-SVG-20010904/DTD/svg10.dtd">
<svg version="1.0" xmlns="http://www.w3.org/2000/svg"
 width="2550.000000pt" height="2700.000000pt" viewBox="0 0 2550.000000 2700.000000"
 preserveAspectRatio="xMidYMid meet">

<g transform="translate(0.000000,2700.000000) scale(0.100000,-0.100000)"
fill="#65340A" stroke="none">
<path d="M14243 15033 l-73 -127 0 -316 c0 -274 -9 -505 -24 -645 -32 -288
-31 -363 5 -389 25 -17 23 -68 -2 -72 -31 -4 -59 -15 -59 -23 0 -4 9 -16 20
-26 37 -34 15 -105 -33 -105 -9 0 -17 -5 -17 -10 0 -6 -11 -15 -25 -20 -36
-14 -31 -42 12 -65 87 -47 102 -78 62 -129 l-20 -26 26 -10 c14 -5 33 -10 41
-10 24 0 18 -59 -8 -80 -21 -17 -23 -26 -22 -112 0 -51 8 -169 18 -263 38
-359 32 -1141 -11 -1534 -18 -167 -14 -228 16 -252 12 -10 21 -29 21 -43 0
-26 -3 -28 -68 -51 -10 -4 -7 -13 12 -36 14 -17 26 -35 26 -41 0 -15 -67 -75
-108 -97 -29 -16 -28 -39 3 -51 14 -5 25 -14 25 -20 0 -5 9 -10 19 -10 25 0
62 -46 54 -68 -3 -9 -15 -27 -26 -39 l-20 -22 24 -10 c13 -5 32 -12 42 -15 19
-6 25 -66 6 -66 -5 0 -17 -17 -26 -37 -17 -42 -16 -84 13 -348 15 -129 18
-322 21 -1395 2 -684 2 -1254 -1 -1265 -3 -13 -22 -29 -46 -40 -44 -20 -47
-26 -25 -45 25 -21 18 -57 -18 -84 -31 -24 -34 -32 -28 -88 1 -5 36 -8 79 -9
42 0 99 -4 127 -8 27 -5 56 -5 65 -1 8 5 38 15 65 23 49 14 50 15 53 56 2 30
-1 41 -11 41 -39 0 -63 75 -32 100 13 11 10 15 -23 30 -22 10 -42 23 -46 28
-3 6 -6 538 -7 1184 0 1177 3 1328 37 1637 17 151 11 212 -21 225 -9 3 -15 18
-15 35 0 25 6 31 43 46 23 10 36 20 29 22 -19 7 -44 62 -37 83 3 10 21 25 40
35 19 9 35 19 35 23 0 4 10 12 22 17 37 17 32 33 -19 64 -92 56 -99 71 -58
120 l26 30 -41 12 c-32 10 -40 17 -40 37 0 13 9 35 19 48 30 38 34 90 17 240
-31 280 -39 511 -33 971 4 246 10 489 16 538 39 371 39 380 1 413 -11 9 -20
28 -20 43 0 21 6 28 28 32 37 9 61 27 44 34 -7 2 -19 17 -26 31 -18 35 -5 68
31 84 15 7 30 15 33 19 3 3 15 11 28 18 40 21 25 44 -63 92 -39 21 -46 68 -14
100 24 24 16 35 -33 46 -35 7 -38 46 -7 79 28 30 34 92 20 206 -28 233 -34
357 -40 855 l-6 532 -72 -126z"/>
</g>
</svg>
