<?xml version="1.0" standalone="no"?>
<!DOCTYPE svg PUBLIC "-//W3C//DTD SVG 20010904//EN"
 "http://www.w3.org/TR/2001/REC-SVG-20010904/DTD/svg10.dtd">
<svg version="1.0" xmlns="http://www.w3.org/2000/svg"
 width="2550.000000pt" height="2700.000000pt" viewBox="0 0 2550.000000 2700.000000"
 preserveAspectRatio="xMidYMid meet">

<g transform="translate(0.000000,2700.000000) scale(0.100000,-0.100000)"
fill="#65340A" stroke="none">
<path d="M16752 20117 l-52 -53 0 -549 c0 -633 -12 -783 -81 -1085 -12 -48
-18 -99 -14 -117 6 -33 55 -83 81 -83 9 0 14 -11 14 -29 0 -25 -5 -31 -30 -36
-41 -9 -45 -20 -19 -55 19 -25 21 -33 11 -55 -7 -14 -24 -31 -39 -37 -16 -7
-30 -15 -33 -19 -3 -3 -13 -8 -22 -12 -27 -10 -21 -41 12 -65 16 -12 33 -22
38 -22 14 0 52 -45 52 -62 0 -8 -10 -28 -21 -43 -24 -29 -19 -39 29 -51 16 -5
22 -14 22 -33 0 -21 -8 -31 -35 -44 -21 -10 -42 -31 -51 -51 -16 -32 -15 -41
15 -190 62 -313 66 -359 66 -841 0 -481 -3 -516 -67 -833 -30 -148 -30 -155
-14 -188 10 -23 29 -40 51 -50 29 -12 35 -19 35 -44 0 -22 -5 -30 -18 -30 -10
0 -26 -6 -37 -13 -17 -13 -17 -15 6 -46 22 -30 22 -34 8 -59 -8 -15 -24 -28
-34 -30 -11 -2 -24 -9 -30 -16 -5 -7 -18 -15 -27 -19 -24 -9 -23 -48 1 -54 11
-3 22 -11 25 -19 3 -8 11 -14 19 -14 18 0 57 -42 57 -62 0 -8 -9 -27 -20 -41
-26 -33 -26 -35 15 -43 32 -6 35 -9 35 -40 0 -23 -5 -34 -14 -34 -24 0 -74
-49 -81 -79 -3 -17 4 -79 19 -148 71 -339 78 -442 74 -1223 l-3 -655 -42 -23
-43 -23 20 -22 c11 -11 20 -27 20 -34 0 -17 -45 -63 -60 -63 -7 0 -10 -14 -8
-36 l3 -36 140 -4 c77 -2 162 -1 190 4 48 7 50 8 52 43 3 29 -1 38 -16 42 -10
2 -27 17 -36 31 -17 26 -17 28 3 55 l20 28 -44 21 c-24 12 -44 27 -45 34 -6
154 2 1369 11 1448 15 142 45 327 70 436 12 50 19 103 15 120 -6 37 -49 84
-76 84 -20 0 -27 15 -21 46 3 16 14 24 38 29 19 3 34 8 34 11 0 3 -9 19 -21
35 -28 40 -19 72 26 93 19 9 35 21 35 25 0 5 9 11 20 14 12 3 20 14 20 25 0
12 -9 23 -20 27 -11 3 -20 10 -20 15 0 4 -13 13 -30 18 -16 6 -35 23 -42 37
-10 22 -8 30 12 57 22 30 22 32 5 45 -11 7 -27 13 -37 13 -11 0 -18 7 -18 20
0 11 -1 23 -1 28 -1 4 15 15 35 25 22 11 43 31 53 52 16 33 15 40 -10 162 -65
312 -78 452 -77 869 0 414 9 521 72 832 30 147 31 154 14 188 -10 23 -29 40
-51 50 -28 12 -35 20 -35 43 0 25 5 30 35 35 19 4 35 9 35 11 0 2 -9 20 -21
39 -26 45 -18 73 27 92 19 8 34 19 34 24 0 6 7 10 15 10 48 0 11 67 -50 90
-14 5 -30 21 -37 35 -10 22 -8 30 12 57 22 30 22 32 5 45 -11 7 -27 13 -37 13
-14 0 -18 8 -18 35 0 24 5 35 14 35 24 0 74 49 81 78 3 16 -9 103 -29 202 -62
308 -66 378 -66 1047 0 537 -2 602 -16 607 -25 10 -27 9 -82 -47z"/>
</g>
</svg>
