<?xml version="1.0" standalone="no"?>
<!DOCTYPE svg PUBLIC "-//W3C//DTD SVG 20010904//EN"
 "http://www.w3.org/TR/2001/REC-SVG-20010904/DTD/svg10.dtd">
<svg version="1.0" xmlns="http://www.w3.org/2000/svg"
 width="3542.000000pt" height="3750.000000pt" viewBox="0 0 3542.000000 3750.000000"
 preserveAspectRatio="xMidYMid meet">

<g transform="translate(0.000000,3750.000000) scale(0.100000,-0.100000)"
fill="#65340A" stroke="none">
<path d="M659 15408 c0 -1679 0 -4311 1 -5848 1 -2719 1 -2796 -18 -2815 -10
-11 -43 -31 -73 -45 -30 -13 -56 -25 -58 -27 -2 -1 8 -12 22 -25 55 -48 37
-112 -39 -140 l-35 -12 3 -61 3 -60 109 -33 109 -32 181 30 c99 17 189 33 199
36 14 4 17 17 17 63 0 57 0 57 -38 74 -66 29 -80 90 -31 132 17 14 30 27 28
29 -2 1 -29 13 -59 25 -30 13 -63 32 -73 42 -16 17 -17 166 -17 2886 0 1577 0
4210 0 5851 l0 2982 -115 0 -115 0 -1 -3052z"/>
</g>
</svg>
