<?xml version="1.0" standalone="no"?>
<!DOCTYPE svg PUBLIC "-//W3C//DTD SVG 20010904//EN"
 "http://www.w3.org/TR/2001/REC-SVG-20010904/DTD/svg10.dtd">
<svg version="1.0" xmlns="http://www.w3.org/2000/svg"
 width="3542.000000pt" height="3750.000000pt" viewBox="0 0 3542.000000 3750.000000"
 preserveAspectRatio="xMidYMid meet">

<g transform="translate(0.000000,3750.000000) scale(0.100000,-0.100000)"
fill="#65340A" stroke="none">
<path d="M20930 15348 c-1 -1866 -1 -3813 0 -4326 0 -657 -3 -938 -10 -953 -6
-11 -32 -29 -57 -40 l-46 -20 23 -24 c20 -21 22 -30 14 -53 -5 -16 -22 -33
-42 -41 -29 -13 -32 -19 -32 -56 l0 -42 110 -18 c112 -18 156 -17 283 5 l67
12 0 42 c0 36 -4 45 -24 54 -14 6 -33 23 -42 37 -16 25 -16 27 5 55 11 16 21
31 21 34 0 2 -16 10 -35 16 -19 6 -42 18 -50 27 -13 13 -15 521 -15 4349 l0
4334 -85 0 -85 0 0 -3392z"/>
</g>
</svg>
