<?xml version="1.0" standalone="no"?>
<!DOCTYPE svg PUBLIC "-//W3C//DTD SVG 20010904//EN"
 "http://www.w3.org/TR/2001/REC-SVG-20010904/DTD/svg10.dtd">
<svg version="1.0" xmlns="http://www.w3.org/2000/svg"
 width="3542.000000pt" height="3750.000000pt" viewBox="0 0 3542.000000 3750.000000"
 preserveAspectRatio="xMidYMid meet">

<g transform="translate(0.000000,3750.000000) scale(0.100000,-0.100000)"
fill="#65340A" stroke="none">
<path d="M24438 14403 l-3 -4338 -52 -25 -52 -25 24 -28 c30 -34 22 -66 -23
-87 -30 -14 -32 -18 -30 -60 l3 -45 120 -17 c108 -14 129 -15 210 -2 130 21
125 19 125 70 0 30 -4 44 -14 44 -22 0 -66 40 -66 61 0 11 11 31 24 44 l23 23
-46 18 c-25 10 -52 25 -58 33 -10 12 -13 180 -12 746 0 402 0 2349 -1 4328 l0
3597 -85 0 -85 0 -2 -4337z"/>
</g>
</svg>
