<?xml version="1.0" standalone="no"?>
<!DOCTYPE svg PUBLIC "-//W3C//DTD SVG 20010904//EN"
 "http://www.w3.org/TR/2001/REC-SVG-20010904/DTD/svg10.dtd">
<svg version="1.0" xmlns="http://www.w3.org/2000/svg"
 width="3542.000000pt" height="3750.000000pt" viewBox="0 0 3542.000000 3750.000000"
 preserveAspectRatio="xMidYMid meet">

<g transform="translate(0.000000,3750.000000) scale(0.100000,-0.100000)"
fill="#65340A" stroke="none">
<path d="M33228 14628 c-2 -5253 -3 -5729 -11 -5754 -5 -13 -29 -31 -62 -45
l-55 -23 25 -26 c42 -43 29 -91 -30 -110 -34 -11 -35 -13 -35 -61 0 -27 1 -49
3 -50 1 0 75 -11 165 -23 169 -25 179 -24 300 10 l52 15 0 48 c0 45 -2 50 -30
61 -31 13 -60 45 -60 66 0 7 11 26 25 42 l25 30 -53 22 c-28 12 -55 28 -59 34
-4 6 -8 2208 -8 4894 l0 4882 -95 0 -95 0 -2 -4012z"/>
</g>
</svg>
