<?xml version="1.0" standalone="no"?>
<!DOCTYPE svg PUBLIC "-//W3C//DTD SVG 20010904//EN"
 "http://www.w3.org/TR/2001/REC-SVG-20010904/DTD/svg10.dtd">
<svg version="1.0" xmlns="http://www.w3.org/2000/svg"
 width="3542.000000pt" height="3750.000000pt" viewBox="0 0 3542.000000 3750.000000"
 preserveAspectRatio="xMidYMid meet">

<g transform="translate(0.000000,3750.000000) scale(0.100000,-0.100000)"
fill="#65340A" stroke="none">
<path d="M7586 18544 c-3 -8 -6 -2405 -6 -5325 0 -2920 -2 -5320 -5 -5332 -4
-15 -24 -30 -65 -47 l-59 -25 24 -25 c14 -15 25 -38 25 -54 0 -31 -42 -76 -71
-76 -16 0 -19 -8 -19 -58 l0 -58 114 -28 115 -28 165 29 166 28 0 56 c0 51 -2
57 -23 63 -34 8 -67 44 -67 72 0 14 11 36 25 50 14 14 25 26 25 28 0 2 -25 14
-55 26 -31 12 -60 31 -65 41 -7 11 -10 1941 -10 5348 l0 5331 -104 0 c-85 0
-105 -3 -110 -16z"/>
</g>
</svg>
