<?xml version="1.0" standalone="no"?>
<!DOCTYPE svg PUBLIC "-//W3C//DTD SVG 20010904//EN"
 "http://www.w3.org/TR/2001/REC-SVG-20010904/DTD/svg10.dtd">
<svg version="1.0" xmlns="http://www.w3.org/2000/svg"
 width="3542.000000pt" height="3750.000000pt" viewBox="0 0 3542.000000 3750.000000"
 preserveAspectRatio="xMidYMid meet">

<g transform="translate(0.000000,3750.000000) scale(0.100000,-0.100000)"
fill="#65340A" stroke="none">
<path d="M10020 16133 c0 -1352 0 -3671 0 -5154 0 -2565 -1 -2696 -17 -2711
-10 -8 -39 -23 -65 -33 l-48 -18 25 -23 c45 -42 23 -109 -42 -129 -20 -5 -23
-13 -23 -59 l0 -53 121 -25 c96 -19 132 -23 173 -16 28 5 96 16 151 26 l100
17 3 53 c3 49 1 53 -25 63 -67 25 -82 73 -38 119 l26 27 -60 26 c-39 17 -62
33 -66 48 -4 12 -6 1416 -5 3118 2 1703 2 4015 2 5139 l-2 2042 -105 0 -105 0
0 -2457z"/>
</g>
</svg>
