<?xml version="1.0" standalone="no"?>
<!DOCTYPE svg PUBLIC "-//W3C//DTD SVG 20010904//EN"
 "http://www.w3.org/TR/2001/REC-SVG-20010904/DTD/svg10.dtd">
<svg version="1.0" xmlns="http://www.w3.org/2000/svg"
 width="2644.000000pt" height="2800.000000pt" viewBox="0 0 2644.000000 2800.000000"
 preserveAspectRatio="xMidYMid meet">

<g transform="translate(0.000000,2800.000000) scale(0.100000,-0.100000)"
fill="#3a4548" stroke="none">
<path d="M8920 16428 l0 -882 -22 -23 c-19 -20 -20 -26 -8 -48 11 -20 11 -29
1 -49 -11 -19 -10 -27 0 -45 8 -11 17 -21 21 -21 14 0 8 -63 -7 -80 -19 -21
-37 -80 -25 -80 5 0 20 14 34 32 14 18 28 29 32 25 4 -4 -22 -38 -58 -75 -85
-88 -100 -130 -68 -192 20 -40 23 -42 33 -24 6 10 12 43 12 72 1 32 7 58 16
68 14 13 17 12 29 -11 7 -14 17 -25 22 -25 23 0 4 -47 -34 -82 -89 -82 -99
-127 -43 -204 69 -95 80 -144 44 -193 -17 -23 -18 -31 -9 -53 9 -19 9 -31 0
-48 -10 -19 -9 -27 9 -51 21 -28 21 -34 21 -644 l0 -616 -22 -29 c-19 -26 -20
-32 -8 -55 11 -21 11 -29 0 -50 -12 -22 -11 -28 8 -48 27 -29 28 -67 2 -100
-11 -14 -20 -38 -20 -53 l0 -27 35 39 c19 21 34 33 35 25 0 -7 -31 -46 -69
-86 -81 -86 -92 -115 -61 -175 18 -35 23 -40 37 -29 11 10 13 23 9 51 -4 24
-1 51 9 75 l16 37 29 -35 c16 -19 29 -40 30 -48 0 -8 -21 -34 -47 -59 -97 -90
-106 -131 -43 -209 22 -28 44 -62 50 -77 12 -33 13 -96 2 -96 -5 0 -14 -11
-21 -24 -10 -19 -10 -27 0 -44 11 -17 11 -25 0 -45 -11 -20 -11 -28 0 -46 8
-11 17 -21 21 -21 5 0 8 -34 8 -75 0 -63 -3 -77 -22 -95 -12 -11 -27 -20 -34
-20 -22 0 -25 -19 -8 -45 16 -24 15 -26 -16 -55 -25 -23 -31 -36 -28 -62 l3
-33 129 -3 c82 -2 132 0 139 7 6 6 26 11 44 11 31 0 33 2 33 33 0 25 -6 36
-30 49 -34 19 -39 48 -13 73 20 20 7 32 -47 41 -63 10 -66 11 -42 19 20 7 22
14 22 77 0 48 5 79 17 98 14 24 15 33 4 56 -8 19 -9 30 -1 38 16 16 12 44 -11
65 -31 29 -18 86 36 155 52 68 61 101 41 150 -14 34 -14 39 4 69 30 49 26 96
-15 156 -20 28 -35 63 -35 79 0 15 -11 43 -25 62 -30 41 -32 71 -5 95 23 20
26 45 8 63 -9 9 -8 18 2 38 13 23 12 29 -3 56 -16 27 -17 82 -17 651 0 570 1
622 17 639 14 16 15 24 5 51 -8 20 -8 35 -2 41 16 16 12 41 -10 61 -35 31 -18
103 40 169 47 55 56 92 35 141 -14 36 -14 40 5 72 33 57 26 103 -26 166 -14
17 -24 42 -24 61 0 19 -10 46 -25 66 -31 42 -32 67 -3 97 19 21 21 27 11 54
-9 24 -9 35 0 50 10 16 9 25 -5 50 -17 29 -18 91 -18 910 l0 879 -65 0 -65 0
0 -882z m90 -1243 l24 -26 -26 -26 c-22 -22 -29 -24 -42 -14 -25 21 -29 51
-10 72 22 24 26 24 54 -6z m78 -92 c16 -42 22 -92 13 -97 -4 -3 -22 10 -40 28
l-32 33 18 31 c22 39 28 40 41 5z m45 1 c9 -9 -4 -35 -14 -28 -5 3 -9 12 -9
20 0 14 12 19 23 8z m-116 -110 c18 -14 33 -30 33 -36 0 -15 -50 -68 -64 -68
-5 0 -25 14 -43 32 l-33 32 32 33 c18 18 34 33 37 33 2 0 19 -11 38 -26z m91
-114 c13 0 10 -6 -11 -25 -15 -14 -27 -32 -27 -40 0 -26 -20 -26 -32 0 -10 23
-8 29 18 56 16 16 30 25 32 19 2 -5 11 -10 20 -10z m-191 -16 c12 -15 20 -31
17 -36 -4 -6 -2 -13 4 -17 6 -4 3 -15 -10 -31 -11 -13 -19 -18 -17 -10 2 8 -5
29 -14 47 -17 33 -23 73 -10 73 4 0 18 -12 30 -26z m83 -109 c0 -30 -14 -39
-30 -21 -8 11 -9 20 0 36 14 25 30 17 30 -15z m30 -1950 c0 -17 -30 -55 -43
-55 -7 0 -20 12 -31 26 -18 25 -18 26 4 49 22 23 24 23 46 7 13 -9 24 -22 24
-27z m71 -125 c4 -25 5 -49 2 -53 -2 -4 -19 12 -37 35 l-33 43 20 28 c19 25
22 26 31 10 5 -10 13 -38 17 -63z m29 38 c0 -16 -3 -19 -11 -11 -6 6 -8 16 -5
22 11 17 16 13 16 -11z m-101 -102 l33 -34 -31 -31 c-39 -38 -50 -39 -86 -1
l-29 30 34 35 c19 19 37 35 40 35 3 0 21 -15 39 -34z m-97 -170 c-9 -21 -9
-24 3 -19 21 7 18 -1 -7 -23 -12 -10 -18 -14 -15 -7 4 6 -2 27 -13 45 -11 18
-20 46 -20 63 l0 30 32 -32 c28 -28 30 -35 20 -57z m188 70 c0 -16 -14 -36
-26 -36 -8 0 -17 -13 -20 -30 -7 -35 -19 -38 -34 -10 -9 17 -7 26 12 50 13 16
33 29 46 29 12 1 22 -1 22 -3z m-116 -121 c6 -17 -2 -45 -14 -45 -4 0 -13 7
-20 15 -10 12 -10 18 0 30 7 8 16 15 20 15 4 0 10 -7 14 -15z"/>
</g>
</svg>
