<?xml version="1.0" standalone="no"?>
<!DOCTYPE svg PUBLIC "-//W3C//DTD SVG 20010904//EN"
 "http://www.w3.org/TR/2001/REC-SVG-20010904/DTD/svg10.dtd">
<svg version="1.0" xmlns="http://www.w3.org/2000/svg"
 width="2644.000000pt" height="2800.000000pt" viewBox="0 0 2644.000000 2800.000000"
 preserveAspectRatio="xMidYMid meet">

<g transform="translate(0.000000,2800.000000) scale(0.100000,-0.100000)"
fill="#3a4548" stroke="none">
<path d="M9900 16365 c0 -470 -4 -855 -8 -855 -17 0 -29 -44 -19 -68 7 -15 7
-30 -1 -46 -9 -20 -7 -29 9 -49 24 -32 24 -65 -1 -97 -11 -14 -20 -41 -20 -61
0 -24 -7 -42 -21 -55 -51 -46 -63 -114 -29 -169 20 -32 20 -35 4 -68 -22 -45
-14 -72 37 -138 52 -65 63 -123 31 -164 -18 -22 -19 -30 -10 -51 9 -20 9 -30
-1 -46 -11 -18 -10 -25 8 -49 21 -28 21 -35 21 -625 0 -575 -1 -597 -19 -621
-16 -20 -18 -29 -9 -49 8 -17 8 -31 0 -48 -9 -20 -7 -29 9 -49 24 -32 24 -65
-1 -97 -11 -14 -20 -40 -20 -59 0 -22 -12 -49 -35 -81 -41 -55 -44 -87 -14
-140 21 -37 21 -40 5 -79 -14 -37 -14 -45 -1 -74 8 -17 29 -49 46 -69 42 -49
51 -115 20 -154 -19 -24 -20 -30 -8 -48 11 -16 11 -27 4 -44 -8 -18 -7 -31 7
-56 12 -24 16 -50 14 -101 -3 -68 -4 -70 -39 -90 -35 -20 -35 -20 -20 -48 16
-28 15 -29 -16 -56 -22 -18 -33 -36 -33 -54 0 -24 4 -27 38 -27 20 0 44 -4 52
-10 9 -6 17 -5 23 3 7 9 10 9 14 0 6 -16 109 -18 118 -3 3 6 26 10 51 10 44 0
44 0 44 35 0 28 -5 37 -24 45 -33 12 -43 46 -20 71 9 10 15 20 13 22 -16 12
-65 27 -87 28 -17 1 -20 3 -9 6 14 4 17 17 17 84 0 43 4 79 8 79 14 0 33 48
22 55 -6 4 -10 17 -10 30 0 13 4 26 10 30 11 7 -8 55 -23 55 -5 0 -7 21 -5 50
4 36 13 59 31 78 35 38 67 93 67 117 0 11 -7 33 -15 48 -13 25 -12 31 5 60 30
49 26 96 -15 156 -20 29 -35 63 -35 79 0 16 -9 41 -20 55 -26 32 -25 61 1 96
18 24 19 31 8 49 -9 15 -10 27 -2 44 10 24 -1 68 -19 68 -4 0 -8 270 -8 600 0
594 0 601 21 629 18 24 19 31 8 49 -10 16 -10 26 -1 47 9 20 9 30 0 45 -7 11
-17 20 -22 20 -5 0 -6 23 -3 52 5 38 14 60 35 82 65 69 75 102 47 156 -14 27
-13 32 6 64 30 52 27 90 -11 144 -18 26 -34 62 -36 79 -1 18 -12 46 -23 62
-27 37 -27 64 0 100 18 24 19 31 8 49 -11 17 -11 25 0 45 11 20 11 28 0 46 -8
11 -17 21 -22 21 -4 0 -7 384 -7 853 l1 852 -61 3 -60 3 0 -856z m82 -1192
c23 -21 22 -32 -3 -63 l-21 -24 -19 24 c-23 31 -23 39 -2 62 20 22 22 22 45 1z
m-85 -101 l21 -28 -29 -32 c-16 -18 -31 -32 -34 -32 -7 0 -6 70 1 98 8 29 16
28 41 -6z m173 -12 c6 -23 8 -50 5 -61 -7 -20 -9 -19 -40 11 l-34 33 22 28
c11 16 24 29 28 29 5 0 13 -18 19 -40z m-72 -93 l32 -33 -35 -34 -35 -34 -35
34 -35 34 32 33 c18 18 35 33 38 33 3 0 20 -15 38 -33z m52 -152 c-13 -41 -20
-43 -38 -14 -12 19 -10 25 15 51 33 35 42 20 23 -37z m-151 31 c19 -20 21 -28
12 -45 -15 -27 -18 -27 -36 9 -29 57 -15 78 24 36z m79 -100 c5 -23 -9 -37
-27 -27 -8 5 -11 16 -6 30 8 25 28 23 33 -3z m16 -1865 c18 -20 16 -31 -12
-64 -15 -16 -17 -16 -39 5 -27 26 -28 35 -6 60 21 23 36 23 57 -1z m-93 -93
c10 -13 18 -28 19 -34 0 -11 -52 -64 -63 -64 -9 0 -9 82 -1 104 8 22 22 20 45
-6z m168 -9 c15 -42 14 -79 -1 -78 -7 0 -23 13 -36 29 -22 28 -22 30 -6 55 21
33 30 32 43 -6z m-67 -96 c35 -34 35 -43 -2 -78 l-29 -28 -36 27 c-42 32 -43
41 -8 78 33 35 40 35 75 1z m-99 -125 c19 -25 17 -68 -3 -68 -13 0 -40 55 -40
80 0 27 18 22 43 -12z m157 2 c0 -24 -20 -70 -31 -70 -17 0 -19 40 -3 65 20
30 34 32 34 5z m-80 -109 c0 -23 -9 -31 -26 -24 -17 6 -18 25 -2 41 14 14 28
6 28 -17z"/>
</g>
</svg>
