<?xml version="1.0" standalone="no"?>
<!DOCTYPE svg PUBLIC "-//W3C//DTD SVG 20010904//EN"
 "http://www.w3.org/TR/2001/REC-SVG-20010904/DTD/svg10.dtd">
<svg version="1.0" xmlns="http://www.w3.org/2000/svg"
 width="2644.000000pt" height="2800.000000pt" viewBox="0 0 2644.000000 2800.000000"
 preserveAspectRatio="xMidYMid meet">

<g transform="translate(0.000000,2800.000000) scale(0.100000,-0.100000)"
fill="#3a4548" stroke="none">
<path d="M2133 12937 l1 -1093 -24 -32 c-24 -32 -24 -33 -6 -62 16 -27 16 -32
2 -52 -22 -30 -20 -41 9 -72 14 -15 25 -39 25 -54 0 -35 -26 -108 -50 -142
-10 -14 -24 -47 -30 -73 -7 -25 -21 -53 -31 -63 -23 -21 -24 -36 -4 -74 12
-24 14 -43 6 -97 -5 -38 -13 -80 -16 -94 -6 -21 2 -37 39 -82 30 -37 46 -66
46 -84 0 -16 9 -41 20 -58 27 -41 25 -78 -5 -111 -29 -31 -31 -50 -9 -75 15
-17 15 -20 0 -43 -21 -33 -20 -45 5 -72 20 -22 20 -27 20 -773 1 -746 0 -751
-20 -777 -25 -32 -26 -38 -5 -69 14 -22 14 -26 -2 -50 -14 -21 -15 -31 -6 -51
7 -13 19 -27 27 -30 28 -11 11 -105 -32 -174 -11 -19 -26 -55 -33 -80 -6 -25
-21 -55 -33 -68 -21 -22 -21 -25 -6 -70 17 -48 15 -138 -2 -157 -24 -25 -6
-77 47 -138 21 -23 34 -48 34 -65 0 -15 9 -38 20 -52 28 -35 25 -83 -5 -116
-29 -31 -31 -50 -9 -75 15 -17 15 -20 0 -43 -21 -33 -20 -45 6 -73 l23 -24 2
-1087 c2 -852 0 -1090 -10 -1103 -6 -9 -32 -26 -56 -38 -42 -22 -43 -23 -22
-37 38 -27 25 -72 -31 -107 -20 -13 -28 -26 -28 -47 0 -16 4 -32 10 -35 23
-14 251 -28 288 -17 20 6 63 18 94 27 l58 16 0 40 c0 35 -4 41 -29 50 -50 18
-58 71 -14 104 24 18 -84 49 -120 36 -35 -13 -50 -14 -42 -2 3 5 19 12 35 16
l30 7 0 1099 c0 604 4 1099 8 1099 4 0 16 14 26 31 16 28 17 32 2 48 -20 22
-20 35 0 66 14 22 14 26 -1 49 -10 14 -21 26 -26 26 -17 0 -9 72 11 97 12 15
20 41 20 62 0 26 10 50 39 88 71 94 75 119 27 190 l-25 36 25 48 c35 70 32 89
-30 160 -35 40 -56 74 -61 98 -14 79 -17 121 -8 121 5 0 17 13 26 30 17 28 17
31 1 56 -16 24 -16 27 0 55 17 29 17 31 -8 64 l-26 34 0 744 c0 661 2 746 16
757 31 26 36 49 18 79 -15 26 -15 30 1 54 16 25 16 29 1 52 -9 14 -21 25 -26
25 -19 0 -11 81 10 107 11 15 20 41 20 60 0 26 11 49 45 92 60 76 65 106 29
170 l-28 50 22 46 c35 73 29 99 -40 171 -22 23 -44 59 -50 80 -16 59 -21 134
-10 134 5 0 17 11 26 25 16 24 16 27 0 54 -16 28 -16 31 0 55 18 28 12 50 -18
76 -14 11 -16 129 -16 1106 l0 1094 -84 0 -84 0 1 -1093z m117 -1513 c0 -13
-9 -28 -19 -34 -16 -8 -23 -6 -35 12 -20 28 -20 37 1 60 15 17 17 17 35 2 10
-10 18 -27 18 -40z m80 -66 c20 -32 28 -108 12 -108 -4 0 -23 16 -42 35 l-33
34 19 36 c10 19 20 35 21 35 2 0 12 -15 23 -32z m-180 -27 c0 -16 -48 -71 -63
-71 -11 0 1 56 20 94 15 28 16 29 29 11 8 -10 14 -26 14 -34z m143 -139 c21
-23 15 -43 -23 -77 -18 -16 -23 -17 -31 -5 -8 13 -10 13 -18 0 -8 -12 -16 -9
-47 16 -62 49 -62 56 -13 101 l44 41 35 -28 c19 -15 43 -37 53 -48z m67 -102
c0 -37 -26 -110 -40 -110 -8 0 -50 56 -50 67 0 10 72 83 82 83 4 0 8 -18 8
-40z m-237 -16 c29 -32 29 -32 11 -60 -10 -16 -20 -31 -22 -34 -5 -7 -21 22
-32 59 -9 35 -3 90 9 74 3 -4 19 -22 34 -39z m137 -149 c0 -6 -11 -22 -25 -35
l-25 -23 -25 23 c-30 29 -31 33 -3 70 l22 30 28 -27 c15 -15 28 -32 28 -38z
m-28 -2322 c24 -21 23 -31 -4 -53 -17 -13 -27 -15 -35 -8 -16 13 -17 50 -1 66
15 15 18 15 40 -5z m98 -105 c19 -32 28 -108 12 -108 -4 0 -25 18 -46 39 l-38
39 21 31 c12 17 24 31 27 31 2 0 13 -15 24 -32z m-191 -5 c9 -18 7 -26 -15
-52 -32 -38 -46 -40 -38 -3 8 30 34 86 38 80 2 -1 8 -13 15 -25z m116 -132
c43 -39 46 -46 36 -67 -13 -28 -43 -44 -49 -25 -3 9 -11 6 -26 -8 l-22 -21
-43 44 -43 44 43 41 c24 23 46 40 50 39 4 -2 28 -23 54 -47z m105 -134 c0 -37
-26 -97 -42 -96 -7 0 -24 14 -37 30 l-24 30 44 45 c46 47 59 45 59 -9z m-246
-10 c23 -30 24 -37 14 -65 -7 -18 -15 -32 -19 -32 -15 0 -45 103 -34 119 9 16
11 14 39 -22z m120 -116 l28 -29 -23 -31 c-12 -17 -25 -31 -28 -31 -11 0 -51
45 -51 57 0 16 29 63 39 63 4 0 20 -13 35 -29z"/>
</g>
</svg>
