<?xml version="1.0" standalone="no"?>
<!DOCTYPE svg PUBLIC "-//W3C//DTD SVG 20010904//EN"
 "http://www.w3.org/TR/2001/REC-SVG-20010904/DTD/svg10.dtd">
<svg version="1.0" xmlns="http://www.w3.org/2000/svg"
 width="2644.000000pt" height="2800.000000pt" viewBox="0 0 2644.000000 2800.000000"
 preserveAspectRatio="xMidYMid meet">

<g transform="translate(0.000000,2800.000000) scale(0.100000,-0.100000)"
fill="#3a4548" stroke="none">
<path d="M3006 14032 c-3 -4 -4 -494 -4 -1088 1 -593 -2 -1090 -6 -1103 -6
-16 -4 -27 5 -33 10 -7 8 -8 -8 -5 -13 3 -26 1 -29 -5 -9 -14 28 -78 46 -78 8
0 0 -8 -17 -16 -40 -20 -41 -32 -8 -68 49 -53 21 -146 -77 -264 -34 -40 -37
-91 -9 -143 19 -35 19 -35 -5 -83 -38 -76 -32 -113 35 -190 26 -30 41 -57 41
-74 0 -15 9 -42 20 -60 21 -34 27 -102 10 -102 -5 0 -17 -11 -26 -25 -16 -24
-15 -28 9 -75 l26 -50 -24 0 c-31 0 -32 -16 -4 -46 21 -22 21 -24 21 -773 -1
-413 -4 -755 -7 -761 -3 -5 1 -10 9 -10 10 0 13 -6 10 -15 -4 -8 -10 -15 -16
-15 -5 0 -6 5 -3 10 10 16 -11 12 -25 -5 -11 -13 -10 -22 6 -50 17 -32 17 -35
1 -53 -23 -25 -21 -36 8 -63 49 -47 17 -157 -77 -267 -33 -38 -37 -92 -12
-146 16 -33 16 -36 -5 -75 -36 -71 -23 -135 43 -209 20 -22 36 -50 36 -63 0
-13 9 -39 20 -57 21 -34 27 -102 10 -102 -5 0 -17 -12 -26 -26 -16 -24 -16
-27 -1 -54 10 -15 14 -35 11 -43 -3 -9 2 -17 13 -20 11 -4 9 -5 -7 -4 -33 3
-37 -22 -8 -52 l22 -24 4 -1075 c2 -591 1 -1085 -2 -1098 -4 -16 -24 -33 -57
-50 -50 -25 -51 -26 -30 -40 11 -8 21 -26 21 -39 0 -26 -35 -65 -57 -65 -9 0
-13 -14 -13 -44 0 -51 -2 -50 160 -61 82 -6 107 -4 170 15 41 12 83 24 93 26
12 4 17 16 17 45 0 32 -4 41 -24 49 -50 19 -62 62 -29 101 13 15 9 19 -35 33
-37 13 -56 14 -76 6 -15 -5 -33 -10 -39 -10 -19 1 25 30 45 30 17 0 18 45 18
1094 0 977 2 1095 16 1106 31 26 36 49 18 79 -15 26 -15 30 1 54 16 25 16 27
-2 51 -10 14 -21 26 -25 26 -16 0 -7 76 12 100 11 14 20 41 20 62 0 29 11 53
45 99 61 83 63 97 26 162 l-31 55 26 56 c15 34 23 64 19 76 -3 11 -28 46 -56
77 -32 38 -49 67 -49 85 0 15 -4 30 -10 33 -12 7 -14 95 -2 95 4 0 15 12 24
28 15 25 15 29 0 55 -15 25 -15 29 1 57 17 29 17 31 0 55 -10 13 -21 25 -25
25 -11 0 -10 1510 0 1510 4 0 15 12 24 28 15 25 15 29 0 55 -15 25 -15 29 1
56 17 29 17 30 -8 59 -31 37 -33 84 -5 119 11 15 20 41 20 62 0 27 12 51 45
94 60 80 64 105 27 169 l-29 52 23 51 c29 65 24 89 -36 160 -26 31 -51 71 -55
88 -13 64 -17 127 -7 127 5 0 17 11 26 25 16 24 16 27 0 54 -16 28 -16 31 0
55 18 28 12 50 -18 76 -14 11 -16 129 -16 1106 l0 1094 -79 0 c-44 0 -82 -4
-85 -8z m19 -2202 c3 -5 -1 -10 -9 -10 -9 0 -16 5 -16 10 0 6 4 10 9 10 6 0
13 -4 16 -10z m77 -357 c24 -21 23 -45 -3 -61 -18 -11 -23 -11 -35 5 -16 22
-17 29 -4 54 13 23 18 24 42 2z m98 -105 c17 -29 28 -108 15 -108 -7 0 -74 74
-75 83 0 9 30 57 36 57 2 0 13 -15 24 -32z m-189 -2 c10 -21 7 -29 -17 -60
-27 -34 -29 -35 -32 -14 -5 26 18 98 30 98 5 0 13 -11 19 -24z m123 -135 l48
-49 -32 -33 c-20 -22 -33 -30 -36 -22 -4 10 -10 10 -25 0 -16 -10 -24 -6 -61
31 l-43 43 44 40 c24 21 47 39 50 39 4 0 28 -22 55 -49z m96 -134 c0 -25 -9
-56 -21 -76 l-20 -33 -25 33 c-13 18 -24 37 -24 43 0 15 72 86 82 80 4 -3 8
-24 8 -47z m-226 -70 c-10 -20 -21 -37 -25 -37 -12 0 -29 61 -29 104 l0 41 36
-36 35 -36 -17 -36z m106 -57 c21 -29 21 -30 3 -55 -23 -31 -34 -31 -62 -1
-23 25 -22 34 7 69 21 23 27 22 52 -13z m-5 -2350 c18 -20 18 -21 -6 -46 -22
-23 -24 -24 -36 -8 -16 22 -17 46 -1 62 16 16 22 15 43 -8z m99 -104 c16 -34
22 -106 9 -106 -10 0 -83 72 -83 83 0 14 34 56 46 57 7 0 19 -15 28 -34z
m-194 -2 c6 -14 -1 -29 -21 -54 -28 -33 -29 -33 -29 -10 0 33 22 91 34 87 5
-2 12 -12 16 -23z m111 -126 c27 -24 49 -48 49 -54 0 -20 -45 -55 -56 -44 -8
8 -15 6 -24 -5 -19 -23 -32 -19 -75 25 l-39 40 39 40 c21 22 43 40 48 40 4 0
30 -19 58 -42z m107 -128 c3 -30 -23 -110 -36 -110 -10 0 -62 54 -62 64 0 15
73 87 85 83 5 -2 11 -19 13 -37z m-239 -21 c24 -30 24 -31 6 -67 l-18 -37 -13
30 c-14 32 -19 105 -6 104 4 0 18 -14 31 -30z m115 -118 l27 -28 -24 -28 c-23
-27 -24 -28 -50 -10 -31 20 -34 41 -11 73 20 28 25 28 58 -7z"/>
</g>
</svg>
