<?xml version="1.0" standalone="no"?>
<!DOCTYPE svg PUBLIC "-//W3C//DTD SVG 20010904//EN"
 "http://www.w3.org/TR/2001/REC-SVG-20010904/DTD/svg10.dtd">
<svg version="1.0" xmlns="http://www.w3.org/2000/svg"
 width="2644.000000pt" height="2800.000000pt" viewBox="0 0 2644.000000 2800.000000"
 preserveAspectRatio="xMidYMid meet">

<g transform="translate(0.000000,2800.000000) scale(0.100000,-0.100000)"
fill="#3a4548" stroke="none">
<path d="M3720 13182 c0 -836 0 -849 -20 -867 -24 -22 -25 -38 -4 -70 14 -22
14 -26 0 -47 -22 -31 -20 -42 9 -69 32 -31 32 -68 0 -115 -27 -40 -33 -74 -12
-74 7 0 21 14 32 32 11 19 20 27 23 19 2 -7 -28 -45 -67 -85 -99 -103 -110
-137 -65 -214 l26 -44 16 23 c10 15 15 39 13 72 -3 48 14 107 29 107 4 0 19
-15 32 -32 25 -33 25 -33 7 -74 -9 -23 -35 -56 -56 -73 -44 -35 -83 -97 -83
-131 0 -28 15 -55 62 -112 37 -44 53 -81 65 -154 4 -24 -1 -37 -21 -59 -30
-33 -31 -38 -10 -70 14 -22 14 -26 -2 -50 -14 -22 -15 -29 -4 -50 7 -14 17
-25 22 -25 4 0 8 -337 8 -750 0 -424 -4 -750 -9 -750 -5 0 -14 -13 -21 -29
-10 -24 -9 -33 4 -53 14 -21 14 -27 1 -44 -21 -28 -18 -50 10 -72 31 -25 33
-69 4 -105 -22 -29 -30 -78 -14 -83 6 -2 18 11 29 29 12 20 20 27 24 18 2 -7
-22 -41 -55 -75 -115 -117 -120 -133 -77 -218 24 -47 27 -49 42 -34 13 12 16
31 14 79 -3 50 1 68 16 87 l19 24 31 -35 c27 -30 29 -36 16 -50 -8 -8 -14 -23
-14 -33 0 -9 -29 -45 -64 -80 -47 -46 -66 -73 -71 -99 -8 -41 -1 -57 59 -127
25 -30 47 -66 50 -86 3 -19 9 -49 12 -67 5 -28 1 -39 -20 -62 -30 -33 -31 -38
-10 -70 14 -22 14 -26 0 -47 -21 -29 -20 -40 4 -66 20 -21 20 -38 25 -1319 4
-1022 2 -1301 -8 -1313 -6 -9 -29 -24 -49 -33 -43 -20 -44 -22 -22 -44 24 -24
13 -65 -23 -88 -27 -16 -32 -26 -33 -56 0 -45 2 -45 155 -54 97 -6 119 -4 190
17 l80 24 2 39 c3 35 -1 42 -30 60 -39 25 -46 56 -17 85 l20 20 -25 10 c-15 6
-31 10 -36 10 -5 0 -17 8 -28 19 -18 18 -18 57 -14 1312 4 1259 5 1293 24
1320 21 30 24 54 9 64 -13 8 -13 52 0 60 18 11 10 43 -15 63 -15 12 -25 30
-25 45 0 43 29 108 66 149 62 69 77 127 49 193 -13 32 -12 39 5 78 34 74 24
126 -41 208 -16 20 -29 47 -29 60 0 13 -12 42 -25 64 -31 51 -31 84 0 114 28
26 31 47 10 75 -13 17 -13 22 0 42 20 31 19 47 -5 69 -20 18 -20 31 -20 757 0
725 0 739 20 760 24 26 25 46 5 72 -13 17 -13 22 0 42 21 32 19 48 -10 75 -13
13 -25 35 -25 49 0 44 30 113 67 153 37 42 63 93 63 127 0 11 -9 38 -19 58
l-19 38 24 39 c40 66 29 124 -37 205 -16 19 -29 46 -29 60 0 14 -11 43 -25 65
-32 53 -32 91 0 117 28 22 31 44 10 72 -13 17 -13 22 0 42 20 31 19 46 -5 72
-20 21 -20 35 -20 867 l0 845 -85 0 -85 0 0 -848z m117 -1244 c29 -27 29 -36
0 -71 l-22 -28 -29 29 -28 30 23 31 c12 17 25 31 28 31 2 0 15 -10 28 -22z
m99 -129 c17 -45 17 -89 2 -88 -7 0 -25 15 -41 34 -27 33 -27 33 -10 64 22 38
33 35 49 -10z m-71 -119 l39 -40 -39 -40 c-21 -22 -44 -40 -50 -40 -6 0 -29
18 -50 40 l-40 41 45 39 c25 21 47 39 50 40 3 0 24 -18 45 -40z m-122 -208
c-10 -18 -21 -32 -24 -32 -14 0 -39 70 -39 106 l0 39 41 -41 40 -40 -18 -32z
m197 72 c0 -8 5 -12 10 -9 18 11 11 -13 -8 -27 -9 -7 -23 -26 -31 -43 l-13
-30 -16 32 c-15 31 -14 33 14 66 29 34 44 38 44 11z m-106 -137 c8 -21 6 -31
-7 -44 -13 -13 -19 -14 -31 -3 -19 15 -20 34 -4 60 16 25 30 21 42 -13z m8
-2284 c23 -21 23 -45 -1 -74 l-19 -24 -26 24 c-31 29 -31 35 -8 66 20 29 29
30 54 8z m104 -172 c8 -49 -2 -52 -41 -11 l-29 30 18 37 18 38 14 -26 c7 -15
16 -45 20 -68z m-71 -82 l40 -41 -44 -39 -43 -39 -44 36 c-24 20 -44 39 -44
42 0 11 74 82 85 82 6 0 29 -18 50 -41z m-143 -136 l36 -38 -23 -34 -24 -34
-20 34 c-20 33 -29 109 -13 109 4 0 24 -17 44 -37z m208 6 c0 -5 5 -7 10 -4 6
3 10 -1 10 -9 0 -8 -9 -20 -20 -26 -11 -6 -23 -22 -26 -35 -8 -32 -18 -32 -33
1 -11 24 -9 30 15 55 29 30 44 36 44 18z m-105 -129 c14 -45 -18 -78 -45 -45
-10 12 -9 20 4 40 20 30 33 32 41 5z"/>
</g>
</svg>
