<?xml version="1.0" standalone="no"?>
<!DOCTYPE svg PUBLIC "-//W3C//DTD SVG 20010904//EN"
 "http://www.w3.org/TR/2001/REC-SVG-20010904/DTD/svg10.dtd">
<svg version="1.0" xmlns="http://www.w3.org/2000/svg"
 width="2644.000000pt" height="2800.000000pt" viewBox="0 0 2644.000000 2800.000000"
 preserveAspectRatio="xMidYMid meet">

<g transform="translate(0.000000,2800.000000) scale(0.100000,-0.100000)"
fill="#3a4548" stroke="none">
<path d="M6730 17513 c0 -5 -1 -434 0 -954 0 -930 -1 -947 -20 -964 -23 -20
-26 -55 -8 -73 10 -10 10 -17 0 -32 -17 -29 -15 -54 8 -75 26 -24 25 -65 -2
-100 -12 -15 -22 -42 -22 -60 -1 -21 -14 -49 -39 -80 -50 -66 -56 -102 -23
-161 24 -43 25 -48 11 -74 -28 -53 -20 -98 28 -159 69 -89 84 -156 45 -198
-19 -21 -21 -28 -11 -53 8 -22 8 -38 0 -59 -9 -24 -7 -33 11 -59 l22 -30 0
-665 c-1 -646 -2 -665 -21 -682 -22 -20 -25 -55 -7 -73 10 -10 10 -17 0 -32
-18 -29 -15 -58 8 -72 27 -17 26 -68 -2 -103 -12 -15 -22 -42 -22 -61 -1 -22
-14 -50 -39 -82 -52 -68 -56 -100 -22 -158 26 -45 27 -48 11 -75 -9 -15 -16
-45 -16 -67 0 -32 8 -48 40 -85 22 -25 47 -64 55 -87 16 -46 20 -100 7 -100
-5 0 -15 -11 -22 -25 -11 -21 -11 -29 0 -51 11 -20 12 -29 2 -44 -17 -27 -15
-44 7 -64 18 -16 18 -54 20 -968 1 -1052 6 -985 -63 -1008 l-36 -11 22 -29
c20 -27 20 -30 5 -54 -9 -13 -26 -27 -37 -31 -17 -5 -21 -14 -18 -43 l3 -37
155 0 c85 0 172 4 193 8 34 7 37 11 37 43 0 27 -5 36 -24 44 -44 16 -51 54
-19 91 12 15 9 18 -26 33 -24 9 -53 13 -71 10 -19 -4 -30 -2 -30 5 0 6 11 11
25 11 l25 0 0 965 c0 531 4 965 8 965 5 0 14 11 21 24 11 20 10 28 -3 48 -14
21 -14 27 -1 44 19 25 19 36 -4 61 -37 39 -27 124 21 169 35 34 68 94 68 124
0 12 -7 35 -16 52 -15 29 -15 33 5 73 32 64 28 102 -19 168 -25 34 -40 67 -40
85 0 16 -9 41 -20 55 -26 33 -25 80 1 116 20 27 20 31 6 52 -14 20 -14 25 -1
51 14 26 13 31 -6 57 -20 29 -20 40 -20 695 0 657 0 667 21 695 17 24 18 31 8
54 -9 21 -10 33 0 53 9 22 8 30 -9 54 -34 47 -21 137 26 181 30 28 64 90 64
116 -1 10 -9 34 -19 53 -18 34 -18 34 5 72 39 61 32 103 -27 179 -17 21 -29
49 -29 65 0 16 -9 44 -20 62 -20 32 -28 102 -12 102 5 0 14 11 21 24 11 20 10
28 -3 48 -14 22 -14 26 0 47 14 19 14 27 4 47 -8 13 -17 24 -22 24 -4 0 -8
429 -8 954 l0 954 -22 6 c-33 8 -118 7 -118 -1z m99 -2335 c-25 -34 -44 -33
-67 4 -15 26 -15 28 8 53 l24 25 27 -26 28 -27 -20 -29z m92 -80 c5 -17 6 -42
3 -55 l-7 -24 -33 32 c-19 18 -34 37 -34 41 0 5 10 22 22 39 24 32 31 28 49
-33z m-194 24 l21 -28 -33 -36 c-19 -20 -36 -34 -39 -30 -17 16 2 122 22 122
4 0 18 -13 29 -28z m113 -117 l34 -35 -39 -40 -39 -40 -40 40 -40 40 34 35
c19 19 39 35 45 35 6 0 26 -16 45 -35z m-104 -189 l-14 -28 -17 25 c-9 14 -18
42 -22 63 l-5 39 36 -36 c35 -34 36 -36 22 -63z m159 4 c-16 -30 -17 -31 -30
-13 -21 27 -18 44 13 76 l27 29 3 -31 c2 -16 -4 -44 -13 -61z m-82 -92 c-15
-16 -18 -17 -32 -4 -12 13 -12 20 -2 43 l13 28 19 -24 c18 -23 19 -25 2 -43z
m13 -2052 c28 -25 24 -47 -12 -76 -14 -13 -19 -11 -40 14 l-24 27 22 29 c13
16 24 29 26 29 2 1 14 -10 28 -23z m-76 -142 c0 -5 -16 -25 -35 -44 -30 -29
-35 -31 -41 -16 -9 23 1 93 17 112 11 13 15 12 35 -13 13 -15 23 -33 24 -39z
m169 11 c17 -68 3 -83 -37 -43 l-31 33 20 33 c12 17 24 30 29 27 4 -2 13 -25
19 -50z m-69 -170 c-19 -19 -39 -35 -45 -35 -6 0 -26 16 -45 35 l-34 35 39 40
39 40 40 -40 40 -40 -34 -35z m-125 -55 c28 -29 28 -31 13 -62 l-15 -33 -22
42 c-21 43 -28 83 -13 83 5 0 21 -13 37 -30z m175 -45 c-13 -40 -20 -43 -38
-15 -11 18 -9 25 15 55 25 31 28 33 31 15 2 -11 -2 -36 -8 -55z m-81 -67 c6
-16 5 -27 -5 -38 -12 -12 -16 -12 -30 2 -13 13 -14 19 -2 37 17 27 26 27 37
-1z"/>
</g>
</svg>
