<?xml version="1.0" standalone="no"?>
<!DOCTYPE svg PUBLIC "-//W3C//DTD SVG 20010904//EN"
 "http://www.w3.org/TR/2001/REC-SVG-20010904/DTD/svg10.dtd">
<svg version="1.0" xmlns="http://www.w3.org/2000/svg"
 width="2644.000000pt" height="2800.000000pt" viewBox="0 0 2644.000000 2800.000000"
 preserveAspectRatio="xMidYMid meet">

<g transform="translate(0.000000,2800.000000) scale(0.100000,-0.100000)"
fill="#3a4548" stroke="none">
<path d="M7302 16525 c1 -851 -1 -937 -16 -954 -19 -21 -20 -35 -4 -61 10 -16
10 -24 0 -40 -17 -28 -15 -44 8 -65 27 -24 25 -61 -5 -110 -29 -47 -32 -70 -8
-61 19 8 19 7 -49 -70 -51 -59 -56 -94 -24 -156 24 -46 25 -51 11 -78 -26 -51
-19 -90 28 -150 24 -30 49 -70 55 -89 15 -42 16 -91 2 -91 -6 0 -16 -11 -22
-25 -9 -20 -8 -31 2 -50 10 -20 11 -28 2 -37 -17 -17 -15 -48 4 -69 14 -16 16
-87 17 -678 0 -603 -1 -662 -16 -679 -20 -22 -21 -36 -5 -62 10 -16 10 -24 0
-40 -17 -28 -15 -44 8 -65 27 -24 25 -58 -6 -111 -15 -26 -23 -51 -20 -61 6
-14 12 -11 36 18 16 19 29 30 30 26 0 -4 -28 -38 -63 -75 -86 -92 -95 -115
-67 -181 13 -28 26 -51 30 -51 14 0 22 33 24 91 0 31 7 63 14 72 13 15 16 13
39 -13 22 -27 24 -33 13 -65 -6 -19 -27 -47 -46 -61 -45 -34 -74 -84 -74 -125
0 -24 12 -48 43 -88 68 -87 84 -154 47 -193 -22 -24 -26 -48 -9 -65 8 -8 8
-21 -2 -47 -11 -31 -11 -38 5 -55 17 -19 18 -68 18 -853 0 -458 -1 -884 -1
-946 l-1 -112 -45 -22 c-44 -22 -44 -22 -25 -40 11 -10 20 -25 20 -33 0 -17
-35 -55 -50 -55 -6 0 -10 -18 -10 -39 l0 -39 113 -7 c76 -4 134 -2 182 7 l70
13 3 38 c2 27 -1 37 -11 37 -19 0 -47 33 -47 55 0 10 7 27 16 37 16 17 15 19
-21 34 -22 9 -51 13 -67 10 -15 -3 -28 -1 -28 4 0 5 10 10 23 12 l22 3 2 935
c3 866 4 937 20 968 15 27 16 35 5 53 -11 17 -11 27 -2 49 13 30 0 70 -22 70
-18 0 -1 101 22 130 78 95 95 147 66 202 -14 26 -13 32 11 73 31 57 26 95 -21
156 -18 24 -35 61 -39 82 -3 20 -15 50 -26 66 -27 37 -27 69 1 98 20 21 21 26
9 59 -9 26 -10 39 -2 47 15 15 14 33 -4 61 -14 20 -16 107 -15 679 0 599 2
658 17 686 15 26 16 32 3 55 -10 20 -11 29 -2 38 18 18 14 46 -8 68 -38 38
-22 103 44 184 51 62 59 103 31 156 -14 27 -13 32 10 76 14 26 25 55 25 65 0
10 -19 46 -43 81 -23 35 -41 71 -39 81 2 10 -8 37 -22 62 -31 52 -33 86 -6
110 22 20 26 45 9 62 -8 8 -8 21 2 47 11 31 11 38 -4 54 -16 17 -17 90 -17
955 l0 937 -74 0 -74 0 0 -935z m101 -1305 c20 -20 21 -22 5 -48 -21 -34 -48
-35 -67 0 -14 24 -14 28 3 47 24 26 31 26 59 1z m-96 -108 c18 -25 19 -32 8
-59 -7 -16 -28 -41 -46 -54 -18 -12 -29 -17 -24 -9 5 8 8 32 6 55 -2 44 13 95
27 95 4 0 18 -13 29 -28z m181 3 c12 -25 17 -105 7 -105 -3 0 -20 17 -39 37
l-34 38 20 27 c24 35 32 35 46 3z m42 -17 c0 -16 -3 -19 -11 -11 -6 6 -8 16
-5 22 11 17 16 13 16 -11z m-80 -138 c0 -4 -18 -21 -40 -39 l-40 -32 -37 35
-38 35 40 41 39 40 38 -37 c21 -20 38 -40 38 -43z m-149 -91 c24 -26 27 -33
17 -55 -14 -31 -23 -30 -36 4 -17 41 -25 82 -17 82 4 0 20 -14 36 -31z m197
11 c10 -17 10 -21 -2 -26 -8 -3 -20 -19 -26 -35 -15 -36 -22 -36 -37 -2 -12
24 -10 30 14 55 32 33 35 34 51 8z m-103 -120 c4 -12 1 -28 -6 -36 -11 -13
-14 -13 -27 -1 -17 17 -8 57 13 57 8 0 17 -9 20 -20z m25 -2090 c-5 -9 -16
-23 -25 -30 -14 -11 -20 -10 -42 12 l-25 26 23 31 23 31 27 -26 c21 -20 26
-31 19 -44z m71 -67 c5 -15 9 -44 7 -66 l-3 -39 -33 41 c-32 39 -32 41 -16 66
21 32 32 32 45 -2z m35 -20 c-10 -10 -19 5 -10 18 6 11 8 11 12 0 2 -7 1 -15
-2 -18z m-106 -167 l-40 -40 -35 34 c-19 19 -35 38 -35 43 0 6 17 25 38 43
l37 32 38 -36 37 -36 -40 -40z m-103 -111 l-14 -28 -17 25 c-9 14 -19 43 -23
64 l-5 39 37 -36 c36 -35 37 -37 22 -64z m173 74 c0 -6 7 -9 15 -5 13 4 14 2
5 -14 -6 -11 -14 -20 -19 -20 -4 0 -14 -15 -23 -32 l-16 -33 -12 26 c-11 23
-9 31 11 58 23 32 39 40 39 20z m-95 -140 c0 -15 -7 -25 -18 -27 -22 -4 -33
24 -17 43 18 21 35 13 35 -16z"/>
</g>
</svg>
