<?xml version="1.0" standalone="no"?>
<!DOCTYPE svg PUBLIC "-//W3C//DTD SVG 20010904//EN"
 "http://www.w3.org/TR/2001/REC-SVG-20010904/DTD/svg10.dtd">
<svg version="1.0" xmlns="http://www.w3.org/2000/svg"
 width="2644.000000pt" height="2800.000000pt" viewBox="0 0 2644.000000 2800.000000"
 preserveAspectRatio="xMidYMid meet">

<g transform="translate(0.000000,2800.000000) scale(0.100000,-0.100000)"
fill="#3a4548" stroke="none">
<path d="M7870 17412 c-7 -2 -10 -328 -10 -917 0 -845 -1 -916 -17 -943 -15
-27 -16 -33 -3 -56 10 -20 11 -29 2 -38 -18 -18 -14 -46 9 -69 23 -23 21 -69
-5 -98 -17 -19 -32 -71 -20 -71 4 0 17 8 28 18 11 9 -6 -12 -37 -48 -32 -36
-62 -81 -68 -101 -10 -32 -8 -43 12 -84 21 -42 24 -45 36 -29 7 10 13 41 13
68 1 28 7 62 14 75 l13 23 21 -30 c30 -41 28 -63 -9 -98 -98 -91 -113 -153
-54 -226 41 -50 65 -98 72 -146 5 -26 1 -36 -16 -48 -22 -16 -28 -53 -11 -70
6 -6 6 -20 -2 -41 -10 -26 -9 -35 5 -57 15 -23 17 -83 17 -667 0 -583 -2 -643
-17 -669 -14 -24 -15 -33 -4 -56 8 -19 9 -30 1 -38 -16 -16 -12 -51 10 -71 27
-24 25 -54 -5 -95 -25 -34 -34 -80 -15 -80 5 0 17 11 26 25 9 14 19 23 22 21
3 -3 -22 -34 -55 -69 -32 -35 -65 -78 -73 -96 -12 -29 -11 -37 10 -82 13 -27
27 -49 31 -49 14 0 22 35 20 82 -3 44 11 88 27 88 5 0 18 -13 30 -30 21 -28
21 -32 8 -64 -8 -19 -24 -39 -35 -46 -12 -6 -35 -29 -51 -52 -42 -58 -40 -94
11 -158 40 -50 69 -114 69 -151 0 -11 -9 -28 -20 -39 -22 -22 -25 -42 -10 -70
8 -14 7 -25 -2 -40 -11 -17 -10 -25 5 -51 16 -29 17 -93 17 -955 l0 -924 -44
-21 c-42 -21 -43 -22 -25 -40 11 -11 19 -26 19 -34 0 -15 -38 -55 -52 -55 -4
0 -8 -15 -8 -34 0 -33 1 -33 53 -40 122 -16 179 -18 205 -7 15 5 43 12 62 14
32 3 35 6 38 40 2 21 -1 37 -7 37 -16 0 -51 38 -51 55 0 8 9 24 19 34 20 20
19 20 -24 37 -27 10 -55 14 -70 10 -17 -4 -24 -3 -20 4 3 5 15 10 26 10 19 0
19 16 19 921 0 912 0 921 20 950 19 26 19 30 6 51 -12 19 -13 27 -1 47 13 26
2 71 -18 71 -5 0 -8 23 -5 55 4 47 11 62 47 105 48 57 62 110 41 160 -11 27
-10 35 10 73 29 55 22 99 -25 162 -20 26 -35 57 -35 73 0 15 -9 41 -20 57 -26
39 -25 79 1 114 20 27 20 31 6 52 -14 19 -14 25 -2 49 13 25 13 30 -5 53 -19
24 -20 43 -20 667 0 630 0 642 20 671 18 24 19 31 8 48 -9 16 -10 28 -2 49 11
29 4 59 -19 73 -20 14 -1 107 29 145 69 86 81 135 48 183 -15 21 -15 25 3 50
44 59 41 106 -13 173 -21 27 -34 54 -34 73 0 17 -9 44 -20 60 -25 38 -25 80 0
112 17 22 18 28 5 52 -9 18 -10 32 -4 42 13 22 11 55 -6 69 -13 11 -15 127
-15 930 l0 918 -60 4 c-33 1 -65 2 -70 0z m90 -2207 l24 -26 -27 -27 -27 -27
-27 27 -27 27 24 26 c13 14 26 25 30 25 4 0 17 -11 30 -25z m91 -150 c5 -49
-9 -51 -45 -8 l-27 32 23 31 22 31 12 -23 c7 -13 14 -41 15 -63z m-84 -57 c18
-18 33 -37 33 -44 0 -6 -16 -24 -35 -38 l-35 -27 -35 27 c-19 14 -35 31 -35
37 0 11 59 77 69 77 3 0 20 -14 38 -32z m-90 -179 c-1 -16 -8 -29 -15 -29 -15
0 -42 59 -42 92 0 21 1 21 29 -7 21 -20 29 -36 28 -56z m147 0 c-16 -31 -17
-32 -30 -14 -20 26 -18 35 14 68 l27 29 3 -26 c2 -13 -4 -39 -14 -57z m-73
-60 c9 -17 8 -25 -6 -38 -15 -15 -17 -15 -30 3 -11 14 -11 22 -2 37 15 24 24
24 38 -2z m7 -2008 c27 -24 27 -31 1 -65 -17 -22 -24 -24 -36 -15 -29 25 -34
48 -17 74 19 30 22 30 52 6z m90 -148 l4 -58 -33 32 -33 32 18 37 c23 49 38
34 44 -43z m-73 -65 c19 -17 35 -36 35 -41 0 -6 -17 -25 -37 -43 l-38 -34 -37
37 -38 37 37 38 c20 21 39 38 40 38 2 0 19 -14 38 -32z m-112 -133 c24 -30 26
-36 15 -54 -7 -12 -16 -21 -21 -21 -11 0 -37 64 -37 90 0 28 10 24 43 -15z
m168 -36 c-18 -44 -26 -48 -42 -18 -9 18 -7 26 17 50 35 37 48 21 25 -32z
m-78 -71 c8 -29 -11 -52 -29 -37 -17 14 -18 31 -2 47 17 17 25 15 31 -10z"/>
</g>
</svg>
