<?xml version="1.0" standalone="no"?>
<!DOCTYPE svg PUBLIC "-//W3C//DTD SVG 20010904//EN"
 "http://www.w3.org/TR/2001/REC-SVG-20010904/DTD/svg10.dtd">
<svg version="1.0" xmlns="http://www.w3.org/2000/svg"
 width="2644.000000pt" height="2800.000000pt" viewBox="0 0 2644.000000 2800.000000"
 preserveAspectRatio="xMidYMid meet">

<g transform="translate(0.000000,2800.000000) scale(0.100000,-0.100000)"
fill="#3a4548" stroke="none">
<path d="M15908 13982 l-28 -3 0 -1230 0 -1230 -21 -22 c-15 -17 -19 -29 -14
-52 8 -38 8 -72 0 -110 -5 -25 -2 -36 19 -56 34 -34 28 -73 -20 -135 -33 -45
-36 -52 -30 -98 5 -46 3 -52 -33 -95 -72 -87 -77 -116 -30 -197 17 -30 33 -54
36 -54 2 0 13 10 22 21 16 20 16 26 3 63 -12 33 -12 49 -3 81 20 73 27 75 71
25 50 -58 46 -77 -34 -156 -65 -64 -96 -115 -96 -156 0 -24 10 -40 86 -139 34
-43 43 -64 46 -107 4 -44 2 -56 -18 -80 -27 -30 -29 -49 -12 -87 9 -21 9 -31
0 -46 -17 -27 -15 -53 8 -82 20 -25 20 -40 20 -859 0 -811 -1 -834 -20 -858
-23 -29 -25 -49 -8 -85 9 -21 9 -31 0 -46 -18 -28 -15 -54 11 -86 32 -38 28
-83 -12 -128 -38 -43 -48 -79 -33 -118 10 -28 8 -33 -32 -81 -56 -67 -69 -92
-62 -126 6 -32 63 -130 76 -130 4 0 13 13 19 28 9 22 9 34 -5 60 -19 39 -13
89 16 124 l19 23 41 -41 c35 -34 40 -44 32 -60 -6 -10 -13 -30 -16 -44 -3 -15
-28 -42 -60 -67 -53 -41 -96 -103 -96 -140 0 -20 14 -43 83 -133 42 -56 47
-67 47 -116 0 -40 -6 -62 -25 -90 -23 -34 -24 -39 -10 -60 17 -27 20 -60 5
-69 -17 -10 -11 -51 10 -78 20 -25 20 -38 18 -1244 l-3 -1218 -53 -35 c-42
-27 -49 -36 -36 -43 42 -24 30 -92 -20 -115 -23 -10 -26 -18 -26 -60 l0 -48
160 -13 160 -12 62 33 c62 32 63 34 66 78 3 42 1 46 -27 57 -17 6 -36 23 -42
37 -11 23 -9 31 9 56 12 16 22 31 22 34 0 3 -18 11 -41 17 -22 7 -44 21 -50
30 -6 11 -9 482 -9 1229 0 1199 0 1212 20 1240 24 34 25 43 4 75 -15 23 -15
27 0 50 22 33 20 48 -9 79 -19 20 -25 38 -25 70 0 38 6 51 43 91 79 88 105
166 77 239 -7 20 -4 34 15 68 40 69 35 138 -15 221 -24 39 -40 78 -40 97 0 35
-21 81 -56 123 -24 29 -35 107 -14 107 5 0 17 14 26 32 15 30 15 34 -1 64 -16
30 -16 34 -1 55 22 32 20 51 -6 79 l-23 25 -1 825 -2 825 24 37 c28 44 29 51
8 83 -15 23 -15 27 0 50 22 33 20 48 -9 79 -19 21 -25 38 -25 75 0 42 5 53 49
102 80 90 95 136 70 219 -10 33 -9 42 15 82 19 34 26 58 26 100 0 48 -5 62
-42 114 -30 42 -41 68 -39 90 2 41 -13 78 -49 124 -33 42 -42 106 -16 116 8 3
20 18 26 34 10 24 9 34 -6 59 -16 28 -16 31 -1 55 22 34 21 43 -8 81 l-24 33
3 1215 c2 669 0 1219 -3 1224 -6 9 -83 12 -133 5z m-38 -2931 c-20 -30 -40
-44 -23 -18 27 42 38 56 41 52 2 -2 -6 -18 -18 -34z m140 -26 c32 -33 32 -35
17 -57 -48 -68 -43 -67 -88 -22 l-41 41 32 37 c18 20 35 36 39 36 4 0 22 -16
41 -35z m98 -127 c15 -50 21 -114 11 -129 -4 -7 -10 -11 -12 -9 -2 3 -18 24
-36 47 l-32 42 23 41 c13 22 26 40 30 40 3 0 11 -15 16 -32z m-74 -160 c20
-23 36 -45 36 -49 0 -4 -22 -25 -48 -48 l-49 -40 -46 47 -47 47 42 43 c24 23
50 42 60 42 9 0 33 -19 52 -42z m-150 -158 c35 -39 35 -40 18 -69 -9 -16 -20
-27 -25 -24 -14 9 -47 86 -47 111 0 32 13 28 54 -18z m190 -51 c-20 -45 -31
-49 -40 -13 -5 20 0 32 22 55 24 25 30 27 32 14 2 -10 -4 -35 -14 -56z m-93
-81 c2 -17 -2 -42 -7 -47 -2 -2 -10 2 -19 9 -11 9 -12 17 -4 31 11 22 28 25
30 7z m-79 -2545 c-6 -10 -20 -27 -33 -38 l-22 -20 13 25 c16 31 42 62 47 56
3 -2 0 -13 -5 -23z m134 -64 c9 -14 -3 -50 -25 -79 l-20 -25 -40 39 -40 39 31
38 31 38 28 -20 c16 -11 31 -24 35 -30z m73 -111 c13 -35 21 -127 12 -132 -5
-3 -23 13 -41 35 l-32 41 17 39 c20 44 32 49 44 17z m-65 -164 l39 -46 -47
-46 -46 -47 -47 47 -47 48 44 45 c24 25 49 45 55 45 5 -1 28 -21 49 -46z
m-158 -155 l43 -42 -21 -28 c-12 -16 -25 -26 -31 -22 -25 15 -61 133 -40 133
4 0 26 -19 49 -41z m204 -9 c0 -18 -32 -90 -40 -90 -19 0 -17 44 2 71 22 29
38 37 38 19z m-114 -168 c-4 -3 -11 -1 -17 5 -8 8 -7 18 3 34 l13 24 3 -28 c2
-16 1 -31 -2 -35z"/>
</g>
</svg>
