<?xml version="1.0" standalone="no"?>
<!DOCTYPE svg PUBLIC "-//W3C//DTD SVG 20010904//EN"
 "http://www.w3.org/TR/2001/REC-SVG-20010904/DTD/svg10.dtd">
<svg version="1.0" xmlns="http://www.w3.org/2000/svg"
 width="2644.000000pt" height="2800.000000pt" viewBox="0 0 2644.000000 2800.000000"
 preserveAspectRatio="xMidYMid meet">

<g transform="translate(0.000000,2800.000000) scale(0.100000,-0.100000)"
fill="#3a4548" stroke="none">
<path d="M14397 13964 c-4 -4 -7 -421 -7 -926 1 -910 1 -919 -20 -947 -24 -35
-25 -44 -4 -76 14 -22 14 -26 0 -47 -22 -31 -20 -52 9 -79 37 -35 33 -77 -11
-130 -33 -39 -36 -48 -32 -90 4 -42 1 -52 -30 -91 -37 -47 -62 -96 -62 -126 0
-10 16 -44 35 -76 l35 -58 -20 -38 c-35 -69 -27 -99 47 -187 68 -79 81 -153
38 -205 -29 -35 -31 -46 -9 -76 14 -21 14 -25 0 -47 -21 -32 -20 -47 6 -80
l22 -28 -2 -804 c-1 -792 -1 -804 -22 -832 -24 -35 -25 -44 -4 -76 15 -23 15
-27 0 -50 -22 -33 -20 -48 9 -79 35 -38 32 -75 -10 -126 -36 -43 -47 -94 -25
-116 7 -7 -6 -30 -39 -72 -68 -85 -71 -107 -26 -188 l36 -66 -21 -42 c-31 -66
-27 -86 40 -169 52 -65 60 -81 66 -130 6 -51 4 -59 -20 -87 -29 -35 -32 -56
-11 -84 13 -17 13 -22 0 -42 -20 -31 -19 -46 5 -77 20 -25 20 -37 20 -1442 0
-844 -4 -1423 -9 -1433 -5 -9 -27 -26 -48 -37 -21 -10 -40 -21 -42 -22 -3 -2
6 -14 19 -27 29 -32 21 -71 -20 -94 -26 -15 -30 -22 -30 -64 l0 -46 78 -7 c42
-3 109 -9 148 -13 65 -7 75 -6 137 23 l67 30 -1 45 c0 40 -4 47 -32 65 -39 25
-47 63 -17 90 28 26 26 31 -24 45 -25 7 -47 19 -51 27 -3 9 -5 651 -5 1429 l0
1413 22 36 c20 36 21 38 4 66 -16 28 -16 32 -2 54 22 33 20 48 -9 75 -19 18
-25 34 -25 65 0 35 8 52 52 106 77 96 92 146 67 217 -9 27 -7 39 15 84 14 28
26 66 26 82 0 37 -33 112 -62 143 -13 14 -24 44 -29 78 -5 38 -17 68 -38 97
-30 41 -43 108 -21 108 5 0 17 14 26 32 15 29 15 34 0 59 -15 26 -15 30 0 62
16 34 16 36 -6 66 l-22 32 1 804 0 805 23 30 c21 29 21 31 5 60 -16 27 -16 31
-1 63 15 32 15 36 -1 61 -10 14 -21 26 -26 26 -12 0 -12 72 0 102 5 13 30 48
55 78 63 73 75 117 53 181 l-18 48 28 42 c21 32 27 54 27 93 0 45 -6 60 -42
112 -31 45 -42 69 -42 98 0 41 -11 66 -46 109 -24 29 -35 107 -14 107 5 0 17
14 25 31 15 28 15 33 -1 56 -16 25 -16 28 1 59 18 33 18 34 -9 69 l-27 35 2
918 2 917 -75 3 c-40 1 -77 0 -81 -4z m123 -2319 c36 -37 36 -36 -14 -93 l-20
-22 -33 32 c-18 17 -33 36 -33 41 0 10 52 75 61 76 3 1 20 -15 39 -34z m-122
-135 c28 -34 31 -42 21 -67 -12 -31 -54 -79 -84 -95 -18 -10 -19 -10 -6 6 11
13 12 22 2 42 -6 14 -11 38 -11 55 0 33 25 99 37 99 4 0 23 -18 41 -40z m220
1 c13 -43 16 -121 5 -121 -5 0 -24 19 -44 42 l-37 42 26 38 c13 21 28 38 32
38 4 0 12 -17 18 -39z m-80 -143 l43 -42 -43 -43 c-23 -24 -47 -43 -52 -43
-13 0 -86 71 -86 84 0 14 71 86 85 86 6 0 30 -19 53 -42z m-139 -158 c31 -38
31 -41 15 -65 -9 -14 -20 -22 -25 -19 -14 8 -35 55 -42 92 -9 45 12 42 52 -8z
m191 -32 c-27 -71 -33 -75 -45 -27 -5 19 0 34 20 57 37 44 48 31 25 -30z m-93
-99 c2 -8 -1 -20 -6 -28 -8 -12 -12 -12 -25 -2 -12 10 -13 18 -5 33 11 21 33
20 36 -3z m28 -2499 l29 -31 -19 -35 c-11 -20 -25 -39 -33 -41 -13 -6 -71 52
-72 71 0 11 50 66 60 66 3 0 19 -14 35 -30z m-119 -138 c28 -34 30 -40 18 -57
-8 -10 -14 -26 -14 -34 0 -8 -10 -25 -22 -38 l-21 -23 -24 26 c-27 30 -31 89
-8 134 20 39 33 38 71 -8z m212 -1 c13 -43 16 -111 5 -111 -10 0 -63 66 -63
79 0 13 33 71 41 71 3 0 11 -17 17 -39z m-74 -131 c20 -22 36 -46 36 -53 0 -7
-18 -30 -40 -52 l-39 -38 -45 39 c-24 21 -45 43 -45 49 -1 10 79 95 90 95 4 0
23 -18 43 -40z m-141 -161 c35 -40 35 -41 19 -70 -10 -16 -21 -27 -26 -26 -14
5 -44 67 -52 105 -9 46 16 42 59 -9z m182 -52 c-17 -42 -30 -47 -38 -15 -5 16
2 31 21 51 32 34 40 19 17 -36z m-85 -84 c0 -10 -5 -25 -10 -33 -13 -21 -34 2
-25 29 8 25 35 28 35 4z"/>
</g>
</svg>
