<?xml version="1.0" standalone="no"?>
<!DOCTYPE svg PUBLIC "-//W3C//DTD SVG 20010904//EN"
 "http://www.w3.org/TR/2001/REC-SVG-20010904/DTD/svg10.dtd">
<svg version="1.0" xmlns="http://www.w3.org/2000/svg"
 width="2644.000000pt" height="2800.000000pt" viewBox="0 0 2644.000000 2800.000000"
 preserveAspectRatio="xMidYMid meet">

<g transform="translate(0.000000,2800.000000) scale(0.100000,-0.100000)"
fill="#3a4548" stroke="none">
<path d="M18132 24917 l-52 -53 0 -812 c0 -809 0 -813 -21 -841 -20 -27 -20
-30 -5 -60 15 -28 15 -33 1 -55 -15 -22 -15 -27 -1 -55 9 -16 20 -33 26 -36
20 -12 9 -60 -26 -110 -22 -32 -38 -69 -41 -96 -3 -24 -18 -62 -34 -84 -52
-77 -56 -144 -15 -223 15 -29 16 -41 6 -82 -10 -42 -9 -54 8 -92 10 -24 38
-64 62 -91 55 -62 64 -111 26 -152 -30 -32 -32 -42 -10 -73 14 -20 14 -25 -2
-51 -16 -28 -16 -30 4 -66 l22 -36 0 -761 0 -760 -21 -30 c-21 -29 -21 -31 -5
-59 15 -26 15 -31 1 -59 -16 -32 -11 -54 19 -80 26 -21 18 -61 -21 -119 -28
-40 -38 -65 -38 -95 -1 -29 -10 -53 -33 -85 -46 -64 -57 -112 -38 -169 9 -25
23 -53 31 -61 12 -15 12 -22 -1 -60 -23 -68 -6 -112 83 -214 37 -42 46 -104
17 -127 -30 -26 -35 -48 -19 -80 14 -27 14 -32 -1 -55 -15 -23 -14 -27 5 -62
21 -38 21 -39 19 -888 l-3 -850 -43 -23 c-40 -22 -41 -25 -27 -45 8 -12 15
-31 15 -43 0 -21 -28 -54 -47 -54 -12 0 -25 -52 -15 -62 4 -3 96 -4 205 -1
l197 6 0 23 c0 13 -6 24 -13 24 -21 0 -57 39 -57 60 0 11 9 29 20 40 20 20 20
20 -23 41 -23 12 -45 27 -49 33 -4 6 -8 391 -8 856 0 823 1 846 20 870 21 27
26 55 10 65 -5 3 -10 17 -10 30 0 13 5 27 10 30 16 10 11 38 -10 65 -13 17
-20 41 -20 76 0 47 4 55 55 114 62 72 75 112 51 158 -22 43 -20 61 14 111 41
60 38 87 -15 166 -35 53 -43 72 -38 95 8 42 -2 71 -37 110 -22 25 -30 43 -30
72 0 21 4 38 8 38 5 0 14 11 21 24 11 19 11 30 0 60 -10 28 -10 39 -1 48 18
18 14 52 -8 76 -20 21 -20 35 -20 784 0 742 1 764 20 788 21 27 26 55 10 65
-5 3 -10 17 -10 30 0 13 5 27 10 30 16 10 11 38 -10 65 -14 17 -20 41 -20 77
0 48 4 57 45 105 25 29 53 68 62 86 16 31 16 34 -4 83 l-22 50 35 57 c18 31
34 67 34 79 0 12 -20 52 -45 88 -39 59 -44 72 -39 105 7 41 -10 82 -45 114
-27 25 -28 79 -1 108 21 23 26 53 10 63 -13 8 -13 41 2 64 9 14 8 26 -2 50 -7
17 -16 31 -21 31 -5 0 -9 368 -9 867 0 889 1 882 -35 883 -6 0 -34 -24 -63
-53z m42 -2143 l29 -35 -37 -37 -37 -37 -25 28 c-13 15 -24 35 -24 45 0 15 48
73 59 71 3 0 19 -16 35 -35z m-115 -129 l21 -36 -30 -41 c-24 -33 -31 -37 -36
-24 -11 28 6 136 21 136 1 0 12 -16 24 -35z m227 10 c21 -32 22 -102 1 -122
-13 -14 -19 -11 -56 25 -23 22 -41 43 -41 48 0 10 61 74 72 74 4 0 15 -11 24
-25z m-108 -148 l42 -43 -43 -42 -43 -42 -42 38 c-23 21 -42 41 -42 45 0 9 71
87 79 87 4 0 26 -19 49 -43z m95 -140 c-7 -40 -34 -88 -47 -84 -5 2 -16 13
-23 24 -13 20 -11 25 22 62 42 46 57 45 48 -2z m-201 -24 c19 -17 25 -63 8
-63 -5 0 -10 2 -10 4 0 2 -7 20 -15 40 -17 39 -12 45 17 19z m92 -109 c7 -19
-2 -37 -15 -29 -12 8 -12 45 0 45 5 0 12 -7 15 -16z m18 -2378 l26 -33 -31
-37 c-18 -20 -35 -36 -38 -36 -4 0 -19 18 -34 40 l-28 41 28 29 c16 17 34 30
39 30 6 0 23 -15 38 -34z m-107 -148 c7 -20 -42 -91 -56 -82 -13 7 -11 75 2
114 l12 33 18 -24 c10 -13 21 -32 24 -41z m219 21 c17 -42 14 -103 -6 -115
-10 -7 -88 64 -88 79 0 14 54 75 66 76 7 1 19 -17 28 -40z m-106 -132 l42 -43
-45 -44 -45 -44 -40 39 c-22 21 -40 44 -40 49 0 11 70 86 80 86 3 0 25 -19 48
-43z m87 -139 c-9 -42 -33 -88 -45 -88 -8 0 -30 31 -30 44 0 10 62 76 72 76 6
0 7 -13 3 -32z m-199 -25 c19 -27 22 -63 4 -63 -7 0 -40 71 -40 85 0 14 18 2
36 -22z m92 -122 c3 -16 -1 -22 -10 -19 -7 3 -15 15 -16 27 -3 16 1 22 10 19
7 -3 15 -15 16 -27z"/>
</g>
</svg>
