<?xml version="1.0" standalone="no"?>
<!DOCTYPE svg PUBLIC "-//W3C//DTD SVG 20010904//EN"
 "http://www.w3.org/TR/2001/REC-SVG-20010904/DTD/svg10.dtd">
<svg version="1.0" xmlns="http://www.w3.org/2000/svg"
 width="2644.000000pt" height="2800.000000pt" viewBox="0 0 2644.000000 2800.000000"
 preserveAspectRatio="xMidYMid meet">

<g transform="translate(0.000000,2800.000000) scale(0.100000,-0.100000)"
fill="#3a4548" stroke="none">
<path d="M19288 26026 l-58 -51 0 -824 0 -823 -21 -30 c-21 -28 -21 -32 -6
-63 14 -28 14 -35 2 -51 -20 -27 -18 -39 11 -84 28 -42 27 -87 -2 -111 -24
-20 -54 -85 -54 -119 0 -18 -14 -52 -36 -85 -50 -74 -55 -125 -20 -200 23 -50
25 -63 16 -96 -18 -67 2 -115 87 -212 36 -40 46 -103 19 -113 -8 -3 -19 -18
-26 -34 -10 -23 -9 -33 5 -54 16 -24 16 -28 0 -52 -14 -22 -15 -31 -5 -55 7
-16 16 -29 21 -29 5 0 9 -337 9 -776 l0 -776 -21 -30 c-20 -28 -21 -32 -7 -62
14 -28 14 -35 2 -59 -13 -23 -13 -31 1 -56 8 -16 19 -33 25 -36 18 -11 11 -51
-15 -86 -37 -51 -55 -94 -55 -135 0 -25 -8 -46 -27 -68 -59 -70 -67 -130 -27
-208 23 -46 25 -55 15 -95 -17 -64 -1 -111 60 -178 42 -45 52 -64 57 -100 3
-34 1 -46 -11 -51 -8 -3 -20 -18 -27 -34 -10 -23 -9 -33 5 -54 16 -24 16 -28
0 -52 -14 -22 -15 -31 -5 -55 7 -16 16 -29 21 -29 5 0 9 -587 9 -1365 0 -1346
0 -1365 -20 -1385 -11 -11 -31 -22 -45 -26 -29 -7 -31 -16 -10 -34 31 -26 6
-100 -33 -100 -7 0 -12 -15 -12 -36 0 -36 1 -36 31 -30 17 3 107 6 200 6 162
0 169 1 169 20 0 12 -12 26 -30 35 -38 20 -48 56 -25 92 12 18 14 28 7 31 -6
2 -26 13 -44 26 l-33 22 -3 1362 -2 1363 21 22 c14 16 18 29 14 47 -4 14 -7
36 -7 50 0 14 3 36 7 50 4 18 0 31 -14 47 -16 17 -21 35 -21 77 0 51 3 58 48
108 27 29 54 63 60 75 14 25 16 65 4 78 -5 6 -13 22 -19 36 -9 22 -6 33 23 79
45 72 44 99 -12 180 -41 61 -44 69 -33 93 15 33 0 72 -42 113 -35 34 -39 83
-9 121 22 28 26 58 10 68 -5 3 -10 17 -10 30 0 13 5 27 10 30 16 10 11 38 -10
65 -19 24 -20 46 -20 795 0 749 1 771 20 795 21 27 26 55 10 65 -13 8 -13 41
2 64 9 14 8 26 -2 50 -7 17 -16 31 -21 31 -5 0 -9 26 -9 58 0 55 2 59 55 120
54 62 72 99 62 124 -3 7 -12 29 -21 49 -15 36 -15 37 19 90 46 72 45 97 -11
175 -43 61 -45 66 -34 98 13 40 -1 76 -44 113 -20 18 -26 32 -26 63 0 22 4 40
8 40 5 0 15 11 22 24 10 21 11 31 0 56 -11 26 -10 35 1 56 12 23 11 30 -9 67
l-22 42 0 830 c0 457 0 847 0 867 0 63 -25 65 -92 4z m35 -2180 l26 -33 -38
-37 -38 -37 -22 27 c-28 36 -27 68 5 93 35 27 37 27 67 -13z m111 -111 c26
-40 31 -81 12 -110 -9 -14 -20 -25 -24 -25 -4 1 -27 19 -51 41 l-44 40 38 39
c22 22 42 40 46 40 4 0 14 -11 23 -25z m-229 -18 c17 -33 17 -34 -6 -70 -13
-20 -27 -37 -31 -37 -9 0 -10 85 -2 118 9 30 18 28 39 -11z m120 -137 l39 -40
-44 -45 -44 -45 -38 37 c-21 20 -38 41 -38 46 0 15 61 87 74 87 6 0 30 -18 51
-40z m93 -157 c-5 -23 -18 -49 -28 -58 -17 -16 -20 -15 -36 10 -17 26 -17 26
22 66 21 21 41 36 46 31 4 -4 2 -26 -4 -49z m-178 -57 c-1 -21 -1 -21 -20 3
-11 13 -20 33 -20 45 1 21 1 21 20 -3 11 -13 20 -33 20 -45z m74 -62 c4 -9 4
-19 2 -21 -8 -8 -26 8 -26 23 0 19 16 18 24 -2z m8 -2467 l-37 -38 -27 32
c-16 19 -28 38 -28 43 0 6 14 25 32 43 l31 32 33 -37 32 -37 -36 -38z m-108
-60 l18 -35 -28 -36 c-16 -20 -33 -36 -38 -36 -10 0 -2 121 8 139 10 15 18 9
40 -32z m231 1 c17 -43 14 -101 -6 -114 -6 -3 -31 13 -55 37 l-43 42 32 38
c18 20 37 38 43 38 7 1 19 -18 29 -41z m-112 -219 l-41 -42 -41 33 c-23 19
-41 40 -41 49 0 8 17 32 37 53 l37 38 46 -45 45 -45 -42 -41z m97 -27 c0 -18
-21 -77 -35 -99 -16 -24 -17 -24 -30 -6 -20 26 -19 34 16 76 28 35 49 47 49
29z m-206 -54 c17 -24 21 -58 8 -58 -7 0 -42 63 -42 75 0 13 21 2 34 -17z m94
-122 c3 -12 -1 -17 -10 -14 -7 3 -15 13 -16 22 -3 12 1 17 10 14 7 -3 15 -13
16 -22z"/>
</g>
</svg>
