<?xml version="1.0" standalone="no"?>
<!DOCTYPE svg PUBLIC "-//W3C//DTD SVG 20010904//EN"
 "http://www.w3.org/TR/2001/REC-SVG-20010904/DTD/svg10.dtd">
<svg version="1.0" xmlns="http://www.w3.org/2000/svg"
 width="3542.000000pt" height="3750.000000pt" viewBox="0 0 3542.000000 3750.000000"
 preserveAspectRatio="xMidYMid meet">

<g transform="translate(0.000000,3750.000000) scale(0.100000,-0.100000)"
fill="#C5C3C1" stroke="none">
<path d="M13390 17678 c0 -524 0 -1099 0 -1278 l0 -325 -25 -24 c-28 -26 -32
-66 -10 -95 12 -16 12 -22 0 -47 -21 -40 -19 -64 10 -90 29 -28 33 -88 10
-129 -8 -14 -14 -37 -15 -52 0 -17 -17 -48 -44 -81 -84 -104 -91 -135 -49
-221 l26 -54 -25 -43 c-52 -90 -47 -120 38 -228 33 -42 44 -65 44 -91 0 -19 9
-48 20 -65 29 -43 26 -104 -5 -134 -29 -27 -31 -47 -10 -87 13 -25 13 -31 0
-51 -21 -31 -19 -51 10 -89 l25 -33 0 -883 0 -883 -25 -24 c-29 -27 -31 -52
-9 -86 15 -23 15 -27 0 -50 -22 -34 -20 -58 9 -89 29 -31 34 -95 10 -136 -8
-14 -14 -39 -15 -56 0 -21 -13 -46 -45 -83 -84 -99 -90 -125 -45 -211 l28 -55
-28 -50 c-48 -85 -45 -114 25 -201 46 -58 55 -75 55 -110 0 -26 7 -51 20 -67
29 -37 27 -99 -5 -133 -29 -31 -31 -55 -9 -89 15 -23 15 -27 0 -50 -22 -34
-20 -59 9 -86 l25 -24 0 -1126 c0 -1084 -1 -1126 -19 -1145 -10 -11 -39 -28
-65 -38 l-46 -18 25 -20 c43 -34 30 -95 -25 -118 -27 -11 -30 -16 -30 -60 l0
-48 116 -22 116 -22 131 22 c73 12 135 24 140 27 4 2 7 24 7 47 0 39 -3 45
-30 56 -60 25 -76 75 -36 115 l24 24 -54 22 c-29 12 -56 29 -59 37 -3 8 -6
523 -6 1143 l0 1129 26 27 c29 32 31 42 10 69 -19 25 -19 53 0 74 14 16 14 21
-1 54 -10 20 -24 36 -31 36 -20 0 -16 74 6 118 10 20 21 50 25 67 4 16 27 56
52 88 68 91 78 160 34 247 -17 34 -17 36 1 70 41 76 12 187 -70 264 -17 17
-31 39 -31 50 -1 12 -7 32 -15 46 -18 32 -20 120 -2 120 7 0 21 14 31 30 17
29 17 31 -3 63 -20 33 -20 33 0 65 20 34 17 53 -16 86 -14 13 -15 120 -15 906
0 778 2 894 15 907 33 33 38 54 19 88 -17 32 -17 35 1 68 18 34 18 34 -5 65
-13 18 -27 32 -32 32 -17 0 -7 70 17 122 14 29 25 62 25 72 0 10 15 37 34 60
81 99 93 158 51 243 l-26 51 21 39 c23 44 26 110 6 156 -7 18 -34 56 -60 85
-25 30 -46 62 -46 72 0 9 -7 34 -15 53 -24 57 -19 98 15 131 34 33 36 44 15
72 -19 25 -19 58 0 74 22 18 18 41 -10 72 l-25 27 0 1281 0 1280 -95 0 -95 0
0 -952z m120 -2055 c25 -22 25 -51 0 -83 l-20 -25 -24 30 c-31 37 -31 43 -4
72 26 28 23 27 48 6z m-106 -134 l27 -41 -43 -48 c-24 -26 -46 -48 -49 -49
-12 -2 -18 44 -10 79 7 33 38 100 45 100 2 0 15 -18 30 -41z m232 -67 c3 -24
3 -46 0 -50 -4 -3 -24 14 -45 38 l-38 45 20 38 20 39 18 -33 c10 -19 21 -53
25 -77z m-88 -189 l-52 -53 -53 52 -53 52 52 53 52 53 53 -52 53 -52 -52 -53z
m-144 -152 c-16 -22 -33 -41 -37 -41 -26 0 -61 152 -40 174 4 4 29 -15 56 -43
l50 -49 -29 -41z m221 2 c-9 -24 -20 -43 -23 -43 -4 0 -15 18 -26 39 l-18 39
38 47 39 46 3 -42 c2 -24 -4 -62 -13 -86z m-106 -62 c27 -38 26 -52 -4 -81
l-26 -24 -29 30 -30 29 27 38 c14 20 30 37 34 37 4 0 17 -13 28 -29z m11
-2811 c0 -15 -8 -37 -17 -49 l-18 -22 -29 37 -28 36 28 29 c26 27 29 28 46 12
10 -9 18 -28 18 -43z m-123 -90 c37 -46 36 -53 -17 -105 -54 -53 -70 -52 -70
5 0 28 45 130 57 129 4 0 18 -13 30 -29z m213 -12 c19 -43 27 -108 13 -108 -5
0 -23 18 -40 39 -32 39 -32 40 -18 75 9 20 18 36 21 36 3 0 14 -19 24 -42z
m-55 -148 l49 -50 -49 -50 c-27 -27 -54 -50 -60 -50 -6 0 -33 22 -59 49 l-49
50 54 50 c30 28 56 50 59 51 3 0 28 -22 55 -50z m-125 -213 c0 -17 -63 -85
-74 -81 -36 14 -61 145 -34 172 10 10 23 2 60 -35 26 -26 48 -51 48 -56z m205
29 c-6 -44 -34 -116 -44 -116 -3 0 -13 18 -23 40 l-16 39 36 45 c20 25 40 42
45 39 5 -3 6 -24 2 -47z m-111 -140 c17 -33 7 -64 -27 -85 -19 -12 -23 -11
-44 15 -30 37 -29 42 9 81 34 35 38 34 62 -11z"/>
</g>
</svg>
