<?xml version="1.0" standalone="no"?>
<!DOCTYPE svg PUBLIC "-//W3C//DTD SVG 20010904//EN"
 "http://www.w3.org/TR/2001/REC-SVG-20010904/DTD/svg10.dtd">
<svg version="1.0" xmlns="http://www.w3.org/2000/svg"
 width="3542.000000pt" height="3750.000000pt" viewBox="0 0 3542.000000 3750.000000"
 preserveAspectRatio="xMidYMid meet">

<g transform="translate(0.000000,3750.000000) scale(0.100000,-0.100000)"
fill="#C5C3C1" stroke="none">
<path d="M14437 18643 c-3 -5 -5 -572 -6 -1261 0 -1244 0 -1253 -21 -1281 -24
-34 -25 -54 -5 -84 13 -20 13 -26 0 -51 -21 -40 -19 -60 10 -87 29 -28 34 -93
10 -125 -8 -10 -15 -33 -15 -50 0 -23 -15 -50 -51 -95 -79 -99 -84 -122 -42
-206 l28 -54 -29 -50 c-46 -82 -39 -120 41 -217 33 -42 43 -62 43 -90 0 -21 9
-50 20 -67 23 -35 28 -115 7 -115 -7 0 -20 -13 -29 -28 -16 -27 -16 -31 1 -63
18 -33 18 -35 0 -65 -18 -30 -18 -31 6 -66 l24 -36 2 -875 1 -876 -21 -22
c-25 -27 -27 -51 -5 -84 15 -23 15 -27 0 -50 -22 -34 -20 -59 9 -86 29 -28 33
-88 10 -129 -8 -14 -14 -39 -15 -55 0 -21 -15 -49 -48 -90 -84 -104 -87 -116
-43 -204 l30 -58 -30 -51 c-42 -74 -39 -107 17 -181 25 -33 50 -63 55 -66 5
-4 9 -25 9 -48 0 -25 8 -54 20 -72 28 -43 26 -97 -5 -131 -28 -30 -31 -60 -10
-88 13 -17 13 -22 0 -42 -21 -32 -19 -52 10 -90 l25 -33 0 -1103 c-1 -851 -3
-1107 -13 -1119 -7 -9 -34 -26 -61 -38 l-49 -21 21 -21 c31 -28 29 -72 -4 -98
-15 -12 -33 -21 -40 -21 -10 0 -14 -14 -14 -49 0 -53 -5 -50 80 -66 134 -27
161 -28 263 -11 175 29 157 21 157 77 0 38 -4 49 -16 49 -8 0 -29 13 -45 30
-34 33 -33 62 3 92 20 18 19 18 -28 38 -27 12 -55 28 -61 37 -10 13 -13 254
-13 1124 l0 1108 25 27 c30 32 31 43 8 82 -16 28 -16 31 0 55 23 35 21 49 -8
81 -31 34 -33 91 -5 146 11 22 20 48 20 59 0 10 16 39 36 63 75 88 91 163 52
242 -21 44 -21 45 -3 83 37 77 20 159 -53 243 -70 82 -92 199 -47 252 29 35
31 54 8 80 -15 17 -15 21 1 57 19 41 14 63 -18 91 -14 11 -16 108 -16 886 l0
873 25 27 c29 32 32 60 8 86 -17 19 -17 21 0 50 23 39 22 50 -8 82 -31 34 -33
91 -5 146 11 22 20 49 20 61 0 12 18 43 40 69 75 89 87 155 45 233 -24 47 -24
47 -5 79 45 79 31 151 -49 246 -23 27 -41 57 -41 68 0 10 -7 32 -15 48 -20 38
-20 122 0 130 8 3 20 17 27 31 9 20 8 31 -7 59 -18 33 -18 36 -2 54 24 26 21
55 -8 86 l-25 27 0 1260 0 1259 -89 0 c-50 0 -92 -3 -94 -7z m123 -2968 c24
-26 24 -26 6 -60 -11 -19 -23 -35 -27 -35 -4 0 -19 14 -32 32 l-25 31 21 29
c25 34 28 34 57 3z m-105 -129 l26 -39 -48 -49 -48 -49 -9 27 c-5 17 -4 41 4
68 12 41 39 91 45 84 2 -2 16 -21 30 -42z m200 21 c18 -28 35 -111 26 -126 -4
-7 -23 5 -46 29 l-38 39 18 41 c10 22 20 40 21 40 2 0 10 -10 19 -23z m-61
-166 c48 -49 48 -49 30 -73 -10 -12 -33 -36 -52 -52 l-33 -29 -52 51 -52 52
50 50 c27 27 52 50 55 50 3 0 27 -22 54 -49z m-140 -250 c-16 -22 -33 -41 -37
-41 -26 0 -61 152 -40 174 4 4 29 -15 56 -43 l50 -49 -29 -41z m236 92 c0 -37
-16 -94 -33 -117 -13 -17 -15 -16 -35 18 l-22 37 36 45 c42 51 54 55 54 17z
m-116 -165 l21 -37 -24 -25 c-31 -33 -40 -32 -69 4 l-23 30 27 35 c15 20 31
34 37 32 5 -1 19 -19 31 -39z m-12 -2715 c25 -22 21 -69 -8 -102 -6 -7 -64 51
-64 63 0 10 40 56 48 56 3 0 14 -7 24 -17z m-72 -173 c0 -3 -23 -28 -50 -55
-42 -41 -52 -47 -60 -35 -18 29 -6 99 26 148 l16 25 34 -39 c18 -21 33 -41 34
-44z m169 54 c17 -37 32 -114 25 -125 -3 -5 -23 9 -43 33 l-38 42 16 38 c19
45 24 46 40 12z m-9 -216 c0 -13 -81 -98 -94 -98 -7 0 -34 23 -61 50 l-50 51
55 49 55 48 48 -46 c26 -25 47 -50 47 -54z m-203 -110 c23 -24 43 -47 43 -52
0 -5 -15 -26 -34 -46 -32 -35 -36 -37 -50 -22 -22 25 -36 68 -36 111 0 65 17
67 77 9z m228 -78 c-9 -28 -20 -52 -24 -54 -4 -3 -15 13 -25 35 l-18 40 39 47
38 47 3 -33 c2 -18 -4 -55 -13 -82z m-102 -71 c23 -41 22 -51 -9 -84 l-25 -28
-29 34 -28 34 30 37 c16 21 33 38 36 38 4 0 15 -14 25 -31z"/>
</g>
</svg>
