<?xml version="1.0" standalone="no"?>
<!DOCTYPE svg PUBLIC "-//W3C//DTD SVG 20010904//EN"
 "http://www.w3.org/TR/2001/REC-SVG-20010904/DTD/svg10.dtd">
<svg version="1.0" xmlns="http://www.w3.org/2000/svg"
 width="3542.000000pt" height="3750.000000pt" viewBox="0 0 3542.000000 3750.000000"
 preserveAspectRatio="xMidYMid meet">

<g transform="translate(0.000000,3750.000000) scale(0.100000,-0.100000)"
fill="#C5C3C1" stroke="none">
<path d="M18310 17515 c0 -1172 0 -1186 -20 -1207 -21 -23 -27 -63 -10 -73 15
-9 12 -47 -5 -69 -13 -17 -13 -23 2 -45 9 -14 22 -30 30 -34 19 -12 16 -62 -7
-107 -11 -22 -20 -51 -20 -65 0 -16 -17 -47 -44 -81 -25 -29 -50 -70 -56 -89
-10 -30 -8 -42 16 -95 27 -61 27 -61 9 -98 -43 -91 -40 -113 31 -204 24 -31
44 -67 44 -80 0 -13 9 -40 20 -61 27 -51 26 -90 -5 -121 -27 -27 -32 -56 -13
-85 9 -15 9 -25 0 -46 -17 -37 -15 -58 8 -83 20 -21 20 -35 20 -847 0 -454 -4
-825 -8 -825 -4 0 -15 -13 -25 -29 -14 -25 -15 -30 -2 -47 19 -24 19 -49 0
-77 -13 -20 -12 -25 6 -55 12 -17 25 -32 30 -32 16 0 9 -65 -11 -98 -11 -18
-20 -47 -20 -65 0 -23 -12 -47 -45 -87 -25 -30 -50 -70 -56 -89 -10 -29 -8
-40 20 -93 l31 -60 -25 -46 c-42 -80 -34 -114 52 -217 23 -27 32 -46 29 -61
-3 -11 3 -37 14 -57 28 -51 26 -96 -5 -126 -28 -26 -31 -57 -10 -85 13 -17 13
-22 0 -42 -20 -30 -19 -40 5 -74 20 -29 21 -40 21 -1068 -1 -572 -3 -1046 -6
-1055 -4 -8 -29 -25 -56 -36 l-49 -21 21 -21 c33 -33 23 -79 -22 -104 -31 -16
-37 -25 -37 -51 0 -17 3 -36 7 -41 6 -11 174 -43 225 -43 17 0 79 7 139 16
l107 17 0 44 c0 40 -3 45 -30 55 -51 17 -66 72 -30 108 19 19 19 19 -27 40
-26 11 -51 26 -55 33 -4 7 -8 481 -8 1055 0 1029 0 1043 20 1064 21 23 27 63
10 73 -15 9 -12 47 5 69 13 17 13 23 -2 45 -9 14 -22 30 -30 34 -33 20 11 168
71 238 62 73 78 165 39 227 -13 21 -13 29 6 72 12 27 21 61 21 77 -1 39 -30
100 -74 151 -20 24 -36 53 -36 63 0 11 -6 32 -14 47 -23 45 -30 108 -12 115 8
3 22 17 31 31 16 23 15 27 -1 56 -18 29 -18 31 0 64 18 33 18 35 0 60 -11 14
-22 26 -26 26 -11 0 -10 1660 0 1660 4 0 16 14 25 30 17 29 17 31 0 60 -17 29
-17 31 0 60 17 29 17 31 0 60 -9 17 -23 30 -30 30 -19 0 -15 59 7 105 11 22
19 48 20 58 0 9 20 42 45 72 68 84 79 163 31 231 -13 19 -13 26 10 69 13 27
24 59 24 72 0 37 -28 94 -71 145 -21 26 -39 55 -39 66 0 11 -9 39 -20 63 -23
51 -26 95 -7 106 8 4 22 20 32 36 16 25 16 29 1 46 -20 22 -20 45 0 76 16 24
15 27 -10 59 l-26 35 0 1180 0 1181 -90 0 -90 0 0 -1185z m140 -1644 c0 -9 -9
-27 -20 -41 l-20 -25 -25 28 c-30 34 -31 37 -4 71 l21 27 24 -22 c13 -12 24
-30 24 -38z m-100 -126 c0 -6 -20 -30 -44 -54 -36 -35 -44 -40 -50 -26 -10 28
-7 54 15 106 l22 50 28 -33 c16 -18 28 -38 29 -43z m184 18 c17 -50 21 -93 8
-93 -4 0 -23 16 -42 35 l-34 35 17 35 c9 19 21 35 26 35 5 0 16 -21 25 -47z
m-74 -119 c22 -20 40 -43 40 -52 0 -18 -68 -92 -85 -92 -6 0 -31 20 -55 45
l-44 45 44 45 c24 25 48 45 52 45 4 0 26 -16 48 -36z m-110 -209 c-1 -5 -12
-23 -26 -40 -24 -29 -25 -30 -40 -10 -21 28 -37 93 -29 123 l6 25 45 -44 c24
-24 44 -48 44 -54z m198 38 c-3 -21 -13 -56 -23 -78 l-17 -40 -19 38 c-22 41
-21 42 25 95 28 32 39 27 34 -15z m-114 -128 c20 -31 20 -44 -1 -67 -22 -24
-34 -22 -56 7 -18 25 -18 26 3 55 26 36 33 37 54 5z m-2 -2562 c22 -19 23 -51
3 -78 -15 -19 -16 -19 -47 13 l-32 31 24 26 c28 30 28 30 52 8z m-97 -129 l28
-36 -46 -46 c-26 -25 -50 -43 -54 -38 -22 22 9 156 36 156 5 0 21 -16 36 -36z
m199 -11 c16 -45 21 -93 11 -93 -10 0 -64 65 -65 77 0 17 22 63 31 63 4 0 14
-21 23 -47z m-65 -127 c48 -49 48 -57 -11 -113 l-34 -33 -49 50 -49 50 44 45
c24 25 47 45 50 45 3 0 25 -20 49 -44z m-151 -149 c23 -23 42 -47 42 -52 -1
-6 -14 -25 -30 -44 l-29 -34 -20 34 c-25 40 -35 89 -26 118 9 29 15 27 63 -22z
m232 -14 c0 -16 -10 -48 -21 -73 l-21 -45 -20 39 -20 38 33 34 c40 41 49 42
49 7z m-114 -120 c18 -25 17 -63 -3 -85 -22 -24 -28 -23 -54 13 l-21 30 28 30
c33 34 33 34 50 12z"/>
</g>
</svg>
