<?xml version="1.0" standalone="no"?>
<!DOCTYPE svg PUBLIC "-//W3C//DTD SVG 20010904//EN"
 "http://www.w3.org/TR/2001/REC-SVG-20010904/DTD/svg10.dtd">
<svg version="1.0" xmlns="http://www.w3.org/2000/svg"
 width="3542.000000pt" height="3750.000000pt" viewBox="0 0 3542.000000 3750.000000"
 preserveAspectRatio="xMidYMid meet">

<g transform="translate(0.000000,3750.000000) scale(0.100000,-0.100000)"
fill="#C5C3C1" stroke="none">
<path d="M19210 17540 c0 -643 -4 -1170 -8 -1170 -4 0 -16 -14 -26 -31 -16
-28 -17 -32 -2 -48 20 -22 20 -50 1 -75 -13 -17 -12 -22 2 -47 10 -16 21 -29
25 -29 14 0 8 -94 -7 -114 -8 -11 -15 -34 -15 -50 0 -22 -15 -50 -49 -94 -65
-82 -70 -109 -37 -174 14 -27 26 -55 26 -60 0 -6 -11 -34 -25 -63 -24 -49 -25
-55 -12 -92 8 -23 33 -63 55 -90 24 -28 42 -60 42 -74 0 -13 7 -37 15 -53 15
-29 21 -116 7 -116 -4 0 -15 -12 -24 -27 -15 -26 -15 -29 0 -56 16 -26 16 -30
-1 -58 -16 -29 -16 -32 0 -60 10 -16 21 -29 25 -29 4 0 8 -367 8 -815 0 -448
-4 -815 -8 -815 -4 0 -16 -13 -25 -30 -17 -29 -17 -31 0 -60 17 -29 17 -31 0
-60 -17 -29 -17 -31 0 -60 9 -16 21 -30 25 -30 14 0 8 -84 -7 -104 -8 -11 -15
-36 -15 -57 0 -28 -9 -46 -39 -80 -42 -49 -71 -99 -71 -125 0 -10 13 -41 30
-70 l30 -53 -30 -56 c-21 -40 -28 -65 -24 -83 6 -24 85 -138 107 -153 5 -4 6
-16 3 -27 -4 -12 1 -35 14 -59 22 -42 27 -103 7 -103 -21 0 -42 -60 -28 -81
14 -23 14 -56 1 -64 -17 -10 -11 -50 10 -73 20 -21 20 -35 20 -1047 0 -631 -4
-1033 -10 -1044 -5 -10 -30 -26 -55 -36 l-46 -17 21 -23 c32 -34 24 -75 -21
-100 -32 -18 -36 -24 -35 -60 l1 -40 70 -12 c143 -23 175 -24 285 -7 l110 18
0 43 c0 33 -4 45 -17 50 -31 11 -63 46 -63 69 0 12 11 31 25 42 l24 19 -44 18
c-82 31 -75 -73 -75 1072 l0 1025 25 30 c29 34 31 50 10 68 -19 16 -19 35 1
65 14 22 14 26 -2 55 -10 16 -22 30 -27 30 -13 0 -2 88 17 139 10 25 31 60 48
80 38 43 68 107 68 146 0 17 -9 49 -20 72 -18 41 -18 43 1 82 34 72 24 131
-38 212 -37 50 -72 131 -80 190 -4 29 0 41 21 64 30 33 32 47 10 80 -15 23
-15 27 0 50 21 32 20 39 -8 83 l-24 37 -1 793 -2 792 26 34 c29 39 30 48 9 81
-14 22 -14 26 0 47 22 31 20 45 -10 75 -22 21 -25 33 -21 67 4 38 16 81 39
131 4 11 26 42 48 70 52 65 60 114 30 182 l-22 51 21 41 c36 70 26 121 -40
207 -21 28 -39 59 -39 70 0 11 -9 36 -20 57 -21 38 -28 117 -10 117 5 0 17 12
27 26 16 24 16 28 -2 60 -17 32 -17 35 -2 52 23 26 21 45 -8 80 l-25 30 1
1143 c0 629 0 1152 -1 1162 0 15 -11 17 -85 17 l-85 0 0 -1170z m140 -1616 c0
-7 -10 -25 -23 -40 l-23 -27 -28 33 -27 33 27 28 28 29 23 -22 c13 -12 23 -27
23 -34z m-120 -97 l24 -27 -44 -45 c-24 -24 -47 -42 -52 -39 -14 9 -8 68 13
113 11 25 23 40 27 35 4 -5 18 -21 32 -37z m210 -67 l0 -44 -39 38 -40 39 21
40 20 41 19 -35 c10 -18 18 -54 19 -79z m-85 -61 c25 -23 45 -47 45 -54 0 -16
-75 -85 -92 -85 -15 0 -88 70 -88 84 0 9 79 96 87 96 2 0 24 -19 48 -41z
m-115 -218 c-5 -9 -17 -25 -25 -36 -16 -20 -16 -20 -31 0 -23 31 -37 90 -29
122 l7 28 43 -49 c33 -37 42 -53 35 -65z m187 -5 c-18 -51 -29 -54 -49 -14
-16 33 -16 33 21 71 l36 38 3 -28 c1 -15 -3 -46 -11 -67z m-93 -77 c18 -31 18
-31 -7 -57 -21 -21 -28 -23 -41 -13 -28 23 -29 51 -5 77 29 31 31 30 53 -7z
m-2 -2516 c23 -21 23 -45 -1 -74 -16 -20 -21 -22 -35 -9 -33 26 -38 48 -19 75
21 29 30 30 55 8z m-98 -129 l29 -35 -47 -47 c-51 -50 -66 -48 -66 11 0 29 35
108 48 106 4 0 20 -16 36 -35z m202 -29 c3 -18 4 -43 2 -56 -3 -22 -5 -21 -35
18 -32 40 -33 41 -16 73 15 31 17 32 29 15 8 -10 16 -33 20 -50z m-66 -110
l44 -45 -47 -48 -47 -47 -47 47 -47 48 44 45 c24 25 47 45 50 45 3 0 26 -20
50 -45z m-151 -149 l44 -45 -31 -35 -31 -35 -19 24 c-31 39 -40 135 -13 135 4
0 26 -20 50 -44z m203 -78 l-19 -43 -17 33 c-18 36 -18 37 29 90 l20 24 3 -31
c2 -16 -5 -49 -16 -73z m-86 -63 c14 -22 14 -26 -2 -55 -21 -35 -26 -36 -46
-12 -27 31 -28 39 -7 66 25 32 34 33 55 1z"/>
</g>
</svg>
