<?xml version="1.0" standalone="no"?>
<!DOCTYPE svg PUBLIC "-//W3C//DTD SVG 20010904//EN"
 "http://www.w3.org/TR/2001/REC-SVG-20010904/DTD/svg10.dtd">
<svg version="1.0" xmlns="http://www.w3.org/2000/svg"
 width="3542.000000pt" height="3750.000000pt" viewBox="0 0 3542.000000 3750.000000"
 preserveAspectRatio="xMidYMid meet">

<g transform="translate(0.000000,3750.000000) scale(0.100000,-0.100000)"
fill="#C5C3C1" stroke="none">
<path d="M26410 17545 c0 -675 -4 -1175 -9 -1175 -5 0 -16 -12 -26 -26 -16
-25 -16 -28 1 -59 17 -31 17 -35 0 -59 -16 -25 -16 -28 1 -56 9 -17 21 -30 25
-30 17 0 7 -85 -12 -110 -12 -15 -20 -41 -20 -66 0 -31 -8 -49 -33 -80 -78
-92 -86 -133 -40 -211 l26 -45 -21 -44 c-38 -77 -30 -112 43 -199 41 -49 50
-73 62 -163 4 -34 1 -48 -14 -65 -33 -36 -35 -46 -16 -77 17 -29 17 -31 0 -60
-17 -29 -17 -31 0 -60 9 -16 21 -30 25 -30 4 0 8 -367 8 -815 0 -448 -4 -815
-8 -815 -4 0 -16 -13 -25 -30 -17 -29 -17 -31 0 -60 17 -29 17 -31 0 -60 -17
-28 -17 -31 -1 -55 9 -14 20 -25 25 -25 18 0 9 -87 -11 -113 -13 -16 -20 -40
-20 -67 0 -35 -8 -51 -50 -103 -59 -73 -63 -101 -23 -182 l27 -55 -22 -45
c-37 -76 -31 -99 44 -192 30 -36 44 -63 44 -83 0 -16 5 -32 10 -35 6 -3 10
-26 10 -51 0 -34 -6 -51 -25 -72 -29 -32 -30 -40 -8 -71 15 -22 15 -26 -2 -57
-17 -31 -16 -33 1 -58 11 -14 22 -26 27 -26 4 0 7 -465 7 -1033 0 -973 -1
-1035 -17 -1048 -10 -8 -36 -23 -57 -32 -38 -18 -39 -18 -17 -33 30 -22 28
-67 -5 -93 -15 -12 -33 -21 -40 -21 -10 0 -14 -14 -14 -44 l0 -44 68 -10 c222
-34 202 -34 380 4 19 4 22 11 22 49 0 31 -4 45 -14 45 -7 0 -25 9 -40 21 -32
25 -34 61 -5 90 11 11 19 22 17 23 -1 1 -19 9 -38 16 -19 7 -43 20 -53 28 -16
14 -17 74 -17 1040 l1 1025 24 29 c29 34 31 50 9 83 -14 22 -14 26 1 49 15 22
15 31 5 56 -7 17 -19 30 -27 30 -12 0 -14 10 -10 48 9 80 18 105 58 148 71 78
87 139 59 215 -16 44 -16 48 1 80 42 80 29 152 -41 237 -16 20 -30 46 -30 58
0 11 -11 42 -25 68 -28 52 -33 113 -11 122 8 3 19 18 26 34 10 23 9 33 -5 54
-16 24 -16 28 -1 51 21 33 20 42 -9 81 l-25 33 0 801 0 801 25 27 c29 31 31
44 9 77 -15 23 -15 27 0 50 22 33 20 48 -9 75 -44 42 -25 150 40 221 68 75 85
150 51 217 -15 29 -14 33 9 84 14 29 25 62 25 73 -1 30 -36 103 -70 142 -17
18 -30 44 -30 57 0 12 -11 45 -25 72 -24 47 -34 124 -16 124 5 0 17 12 26 27
17 25 17 28 0 59 -17 31 -17 35 -1 58 21 33 20 39 -9 74 l-25 30 0 1157 c0
636 -2 1160 -5 1164 -2 5 -41 9 -85 10 l-80 2 0 -1176z m129 -1669 c-13 -20
-28 -36 -32 -36 -10 0 -56 52 -57 64 0 6 12 23 27 38 l27 28 30 -29 29 -30
-24 -35z m-116 -63 l27 -37 -42 -43 c-23 -24 -46 -43 -50 -43 -14 0 -8 100 7
130 9 17 19 30 23 30 4 -1 19 -17 35 -37z m211 -10 c16 -47 21 -95 10 -105 -7
-8 -74 65 -74 80 0 14 33 72 42 72 3 0 13 -21 22 -47z m-60 -147 l30 -36 -45
-40 c-24 -22 -48 -40 -54 -40 -5 0 -29 19 -52 42 l-43 42 47 48 c53 54 61 53
117 -16z m-158 -142 l33 -40 -22 -32 c-12 -17 -25 -32 -28 -32 -13 0 -39 74
-39 111 0 49 11 48 56 -7z m219 -11 c-7 -36 -31 -93 -40 -93 -2 0 -12 14 -21
31 -15 31 -15 32 17 65 42 44 53 43 44 -3z m-95 -148 c0 -18 -37 -48 -49 -40
-27 16 -31 43 -9 70 l22 28 18 -23 c10 -12 18 -28 18 -35z m-3 -2487 c28 -27
28 -32 1 -76 l-22 -35 -33 38 -32 38 22 28 c27 34 34 35 64 7z m-124 -210
c-26 -26 -51 -44 -56 -41 -16 10 -3 120 18 143 18 20 18 20 51 -18 l32 -37
-45 -47z m215 88 c16 -36 26 -116 14 -116 -6 0 -24 17 -40 38 -29 36 -29 38
-14 70 19 38 25 40 40 8z m-58 -151 l44 -45 -47 -47 -47 -47 -50 49 -51 50 48
42 c26 24 50 43 53 43 3 0 26 -20 50 -45z m-153 -147 l42 -43 -28 -35 -29 -34
-21 34 c-20 34 -30 120 -13 120 4 0 27 -19 49 -42z m218 -20 c-4 -18 -14 -46
-22 -62 -15 -28 -16 -29 -29 -11 -20 28 -17 45 13 77 35 37 46 35 38 -4z
m-104 -122 c22 -47 -27 -90 -51 -45 -9 16 -8 26 5 45 20 30 32 30 46 0z"/>
</g>
</svg>
