<?xml version="1.0" standalone="no"?>
<!DOCTYPE svg PUBLIC "-//W3C//DTD SVG 20010904//EN"
 "http://www.w3.org/TR/2001/REC-SVG-20010904/DTD/svg10.dtd">
<svg version="1.0" xmlns="http://www.w3.org/2000/svg"
 width="3542.000000pt" height="3750.000000pt" viewBox="0 0 3542.000000 3750.000000"
 preserveAspectRatio="xMidYMid meet">

<g transform="translate(0.000000,3750.000000) scale(0.100000,-0.100000)"
fill="#C5C3C1" stroke="none">
<path d="M29645 17463 l1 -1218 -23 -31 c-27 -36 -28 -45 -8 -83 12 -25 12
-31 0 -47 -21 -28 -18 -59 10 -85 33 -32 33 -81 -1 -131 -17 -24 -27 -52 -28
-80 -1 -35 -10 -53 -48 -100 -64 -79 -69 -111 -28 -190 l32 -62 -21 -43 c-37
-77 -29 -111 47 -200 44 -52 60 -91 69 -169 4 -34 0 -46 -21 -69 -29 -31 -33
-61 -11 -89 13 -17 13 -22 0 -42 -21 -32 -19 -57 8 -86 l23 -24 -2 -841 c-2
-840 -2 -842 -23 -871 -24 -35 -26 -59 -6 -86 13 -17 13 -22 0 -42 -22 -33
-19 -61 10 -90 34 -34 32 -78 -5 -133 -24 -36 -29 -51 -24 -78 5 -28 1 -39
-34 -80 -44 -54 -72 -103 -72 -129 0 -9 15 -45 34 -79 l35 -61 -25 -43 c-41
-73 -33 -108 44 -199 43 -51 56 -83 69 -175 4 -31 1 -42 -21 -64 -29 -29 -33
-54 -11 -86 13 -20 13 -26 0 -51 -20 -39 -19 -58 7 -86 l22 -23 4 -1069 c5
-1204 13 -1091 -74 -1124 l-44 -17 25 -29 c14 -16 25 -34 25 -39 0 -24 -24
-52 -56 -65 -31 -13 -34 -18 -34 -58 l0 -43 149 -21 c135 -18 155 -19 212 -6
35 8 79 17 97 20 31 6 32 8 32 55 0 41 -3 49 -18 49 -28 0 -62 37 -62 67 0 15
9 37 21 49 l20 22 -46 17 c-29 12 -51 28 -59 44 -16 34 -14 2150 2 2160 6 4
18 20 26 36 14 26 14 32 1 52 -16 25 -20 63 -6 63 30 0 10 71 -26 93 -34 21
-1 142 57 202 71 74 89 149 57 227 -14 33 -14 38 5 69 11 18 22 56 25 84 6 58
-14 108 -67 169 -18 20 -30 45 -30 62 0 15 -13 51 -30 81 -31 55 -41 123 -17
123 7 0 20 13 29 28 15 25 15 31 2 56 -18 36 -18 51 1 79 13 21 13 26 -10 59
l-25 37 0 841 0 841 25 37 c23 33 23 38 10 59 -19 28 -19 48 0 76 13 20 12 25
-6 55 -12 17 -25 32 -30 32 -5 0 -9 15 -9 33 0 57 28 125 67 168 21 22 46 55
55 72 22 40 23 109 2 152 -15 31 -14 35 10 84 42 82 33 137 -39 226 -21 26
-34 56 -38 84 -3 24 -15 57 -27 74 -29 38 -38 103 -18 120 9 7 23 23 31 37 15
24 15 28 -3 55 -19 29 -19 29 1 62 20 32 20 34 3 63 -10 16 -22 30 -26 30 -4
0 -8 551 -8 1225 l0 1225 -93 0 -94 0 2 -1217z m127 -1690 c34 -33 35 -50 2
-87 l-26 -29 -35 36 -36 36 29 35 c16 19 31 35 33 35 3 1 18 -11 33 -26z
m-130 -225 c-25 -26 -49 -45 -54 -42 -17 10 -8 108 12 142 l20 33 34 -43 33
-43 -45 -47z m244 66 c9 -30 13 -67 9 -81 -6 -25 -6 -25 -27 -7 -11 11 -29 31
-39 46 -20 27 -20 27 3 62 13 20 26 36 30 36 4 0 15 -25 24 -56z m-83 -132
l48 -49 -52 -48 -51 -48 -52 52 -51 52 50 44 c28 25 52 45 55 45 3 0 27 -22
53 -48z m-155 -154 l41 -43 -20 -32 c-12 -18 -25 -33 -30 -33 -15 0 -49 81
-49 118 0 17 4 32 8 32 4 0 27 -19 50 -42z m212 -75 l-21 -48 -19 35 -19 35
37 38 c37 38 37 38 40 13 2 -14 -6 -47 -18 -73z m-90 -93 c0 -43 -22 -55 -49
-26 l-21 23 21 27 c17 21 24 24 35 15 8 -6 14 -24 14 -39z m14 -2611 l27 -31
-20 -32 c-27 -43 -45 -43 -76 -2 l-27 35 24 30 c29 38 40 38 72 0z m-124 -121
c16 -18 30 -38 30 -43 0 -18 -87 -98 -99 -91 -27 17 1 166 30 166 5 0 23 -15
39 -32z m214 4 c19 -36 31 -118 18 -126 -5 -3 -24 13 -41 35 l-32 40 18 39
c10 22 19 40 20 40 1 0 9 -12 17 -28z m-65 -157 c22 -24 41 -48 41 -53 0 -4
-20 -28 -45 -52 l-45 -44 -50 49 -50 49 47 48 c26 26 50 48 54 48 3 0 25 -20
48 -45z m-161 -156 c20 -23 39 -45 40 -50 2 -5 -8 -22 -21 -39 -20 -23 -27
-27 -36 -16 -32 39 -55 146 -31 146 6 0 27 -19 48 -41z m212 -76 l-21 -48 -15
34 c-14 34 -14 35 18 68 30 31 33 32 36 14 2 -11 -6 -42 -18 -68z m-92 -70
c10 -19 1 -57 -16 -67 -5 -3 -17 3 -27 14 -16 18 -17 21 -1 45 19 29 32 32 44
8z"/>
</g>
</svg>
