<?xml version="1.0" standalone="no"?>
<!DOCTYPE svg PUBLIC "-//W3C//DTD SVG 20010904//EN"
 "http://www.w3.org/TR/2001/REC-SVG-20010904/DTD/svg10.dtd">
<svg version="1.0" xmlns="http://www.w3.org/2000/svg"
 width="3542.000000pt" height="3750.000000pt" viewBox="0 0 3542.000000 3750.000000"
 preserveAspectRatio="xMidYMid meet">

<g transform="translate(0.000000,3750.000000) scale(0.100000,-0.100000)"
fill="#C5C3C1" stroke="none">
<path d="M34450 17323 l0 -1298 -25 -24 c-29 -27 -32 -61 -9 -96 14 -22 14
-26 0 -47 -23 -32 -20 -62 9 -89 37 -35 34 -90 -7 -142 -26 -33 -32 -49 -33
-92 0 -45 -5 -57 -41 -101 -77 -92 -82 -127 -30 -218 l33 -59 -24 -54 c-35
-75 -27 -105 51 -199 65 -77 76 -104 76 -186 0 -26 -8 -45 -25 -64 -29 -31
-31 -55 -9 -89 15 -23 15 -27 0 -50 -22 -34 -20 -58 9 -89 l25 -27 0 -897 0
-897 -25 -24 c-29 -27 -32 -61 -9 -96 15 -23 15 -27 0 -50 -22 -34 -20 -58 9
-89 36 -39 34 -87 -7 -137 -27 -33 -32 -49 -33 -93 0 -48 -5 -59 -41 -103 -78
-92 -82 -125 -28 -215 l37 -60 -28 -55 c-36 -72 -30 -101 40 -185 85 -102 109
-211 60 -264 -29 -31 -31 -55 -9 -89 15 -23 15 -27 0 -50 -22 -34 -20 -53 9
-91 l25 -33 0 -1140 c0 -993 -2 -1141 -15 -1154 -8 -9 -35 -23 -60 -32 -25
-10 -45 -21 -45 -24 0 -4 9 -14 20 -24 39 -33 16 -100 -42 -120 -14 -5 -18
-18 -18 -55 l0 -48 163 -23 162 -23 93 23 92 22 0 54 c0 45 -3 53 -18 53 -27
0 -62 42 -62 73 0 15 9 36 20 47 11 11 20 22 20 24 0 2 -20 11 -45 21 -25 9
-52 23 -60 32 -13 13 -15 161 -15 1158 l0 1144 25 27 c29 31 31 55 9 89 -15
23 -15 27 0 50 22 34 20 58 -9 89 -19 20 -25 38 -25 71 0 60 12 87 61 137 46
49 89 129 89 170 0 15 -7 46 -16 68 -16 40 -16 42 11 92 24 43 27 58 22 108
-5 57 -16 83 -68 150 -15 20 -29 55 -33 82 -4 25 -20 66 -36 90 -38 56 -40
106 -5 144 29 32 31 52 8 92 -17 29 -17 31 0 50 9 10 17 26 17 36 0 22 -19 59
-36 69 -12 7 -14 162 -14 907 l0 899 25 27 c29 31 31 55 9 89 -15 23 -15 27 0
50 23 34 20 58 -10 90 -24 26 -26 34 -21 92 4 60 8 67 61 127 88 100 103 153
66 234 l-20 43 26 39 c31 46 41 113 25 161 -6 19 -31 59 -56 89 -32 39 -43 60
-39 76 6 24 -16 83 -46 121 -30 38 -27 103 5 133 29 28 31 48 8 88 -16 28 -16
31 0 55 23 36 21 61 -8 88 l-25 24 0 1298 0 1297 -95 0 -95 0 0 -1297z m144
-1812 c32 -33 30 -50 -10 -95 l-26 -30 -40 43 -40 43 33 34 c18 19 38 34 44
34 6 0 24 -13 39 -29z m-136 -143 l33 -42 -51 -50 c-41 -42 -52 -48 -60 -36
-23 35 4 171 34 169 6 0 26 -19 44 -41z m241 15 c17 -37 26 -139 13 -147 -5
-3 -27 15 -47 40 l-37 45 23 45 c13 24 27 44 30 44 3 0 11 -12 18 -27z m-87
-170 c26 -26 48 -53 48 -59 0 -7 -22 -31 -50 -54 l-50 -42 -55 48 -55 48 52
53 c29 29 55 53 57 53 3 0 27 -21 53 -47z m-164 -173 l43 -48 -22 -36 c-11
-20 -23 -36 -25 -36 -3 0 -16 24 -29 53 -24 49 -34 118 -17 116 4 -1 26 -23
50 -49z m252 7 c0 -24 -31 -106 -45 -117 -10 -8 -15 -4 -24 21 -9 28 -7 35 21
70 32 40 48 49 48 26z m-129 -161 c8 -17 8 -29 0 -45 -14 -26 -23 -26 -45 -2
-17 18 -17 21 -1 45 21 32 32 33 46 2z m27 -2799 l32 -33 -27 -42 c-15 -23
-30 -42 -34 -42 -4 0 -23 18 -44 41 l-37 41 33 34 c18 19 36 34 39 34 3 0 20
-15 38 -33z m-133 -142 l37 -45 -48 -44 c-27 -25 -52 -45 -56 -46 -16 -1 -30
46 -25 86 5 44 30 94 47 94 5 0 25 -20 45 -45z m241 -6 c14 -38 18 -129 7
-128 -5 0 -24 22 -44 48 -36 47 -37 48 -18 72 10 13 19 30 19 37 0 25 23 6 36
-29z m-77 -155 c23 -26 41 -50 41 -53 0 -4 -22 -28 -48 -54 l-48 -47 -54 56
-55 56 50 44 c27 24 55 44 61 44 7 0 31 -21 53 -46z m-175 -163 l48 -49 -23
-31 c-13 -17 -28 -30 -34 -28 -30 9 -74 157 -47 157 4 0 29 -22 56 -49z m226
-65 c-12 -31 -25 -56 -29 -56 -4 0 -12 12 -17 28 -10 24 -7 31 25 65 20 21 37
34 39 29 1 -5 -7 -35 -18 -66z m-104 -90 c3 -13 0 -34 -6 -46 l-12 -22 -21 20
c-19 20 -19 22 -3 46 21 32 34 33 42 2z"/>
</g>
</svg>
