<?xml version="1.0" standalone="no"?>
<!DOCTYPE svg PUBLIC "-//W3C//DTD SVG 20010904//EN"
 "http://www.w3.org/TR/2001/REC-SVG-20010904/DTD/svg10.dtd">
<svg version="1.0" xmlns="http://www.w3.org/2000/svg"
 width="3542.000000pt" height="3750.000000pt" viewBox="0 0 3542.000000 3750.000000"
 preserveAspectRatio="xMidYMid meet">

<g transform="translate(0.000000,3750.000000) scale(0.100000,-0.100000)"
fill="#C5C3C1" stroke="none">
<path d="M6305 18532 c-3 -3 -5 -644 -5 -1424 0 -1194 -2 -1419 -14 -1424 -7
-3 -22 -20 -31 -38 -18 -33 -18 -34 4 -70 l23 -36 -22 -35 -22 -35 21 -34 c12
-19 28 -37 36 -40 19 -7 19 -58 0 -111 -8 -22 -15 -49 -15 -60 0 -11 -25 -49
-56 -85 -90 -105 -101 -147 -59 -230 14 -27 25 -55 25 -61 0 -7 -13 -33 -29
-58 -58 -93 -54 -131 29 -235 53 -67 58 -77 54 -112 -4 -32 1 -48 30 -94 39
-58 50 -130 22 -130 -8 0 -25 -16 -37 -37 l-23 -36 23 -40 23 -39 -22 -31
c-23 -30 -23 -30 -4 -65 10 -19 24 -37 31 -39 10 -4 13 -200 13 -994 l0 -988
-25 -27 c-29 -31 -31 -55 -9 -94 17 -28 16 -32 -11 -79 -12 -22 -12 -29 3 -54
9 -16 25 -33 35 -38 21 -12 23 -83 2 -119 -8 -14 -14 -38 -15 -53 0 -19 -20
-53 -65 -108 -82 -103 -88 -127 -45 -211 l32 -63 -32 -55 c-65 -111 -64 -128
21 -232 56 -68 60 -76 55 -113 -6 -40 -3 -48 41 -116 33 -49 30 -94 -7 -131
-33 -32 -38 -64 -15 -94 19 -25 19 -48 0 -64 -23 -19 -18 -62 10 -92 l25 -27
0 -1255 c0 -1084 -2 -1257 -15 -1269 -8 -8 -37 -23 -65 -33 -27 -10 -50 -21
-50 -24 0 -3 9 -13 20 -22 48 -41 30 -106 -35 -129 -34 -13 -35 -15 -35 -65 0
-59 -9 -53 110 -79 41 -9 86 -20 99 -24 21 -6 143 10 329 44 31 6 32 7 32 60
0 49 -2 55 -24 61 -35 8 -68 48 -68 80 0 18 9 36 27 51 l27 23 -58 26 c-32 14
-64 33 -71 42 -10 14 -12 269 -13 1264 l0 1247 30 33 c33 35 38 59 16 77 -23
19 -25 49 -5 75 10 13 19 30 19 36 0 20 -34 70 -47 70 -26 0 -16 96 17 153 17
30 30 67 30 84 0 21 13 46 40 79 59 71 75 110 75 179 0 43 -7 73 -24 106 -23
46 -23 47 -6 93 35 90 7 180 -84 279 -39 43 -61 100 -61 164 0 33 7 49 30 75
36 39 37 50 9 88 l-22 28 23 37 c23 37 23 38 5 71 -9 18 -24 35 -31 38 -21 8
-19 1986 2 1986 8 0 14 6 14 14 0 7 7 19 15 26 8 7 15 23 15 35 0 12 -7 28
-15 35 -8 7 -15 23 -15 35 0 12 7 28 15 35 23 19 18 53 -15 88 -40 44 -41 100
-4 154 15 22 29 57 32 85 4 36 15 59 50 102 82 101 93 169 43 263 l-30 56 20
38 c23 47 25 123 3 169 -8 18 -39 61 -69 95 -55 63 -63 85 -72 183 -4 46 -2
57 10 57 8 0 17 8 21 18 3 9 11 25 18 35 11 15 9 24 -9 56 -21 37 -22 38 -2
67 26 39 24 54 -11 92 l-30 33 0 1392 c0 766 0 1405 0 1420 l0 28 -100 -2
c-54 -1 -102 -4 -105 -7z m145 -3357 c0 -13 -8 -33 -18 -45 l-19 -23 -21 31
c-27 37 -27 40 0 69 20 21 23 22 40 6 10 -9 18 -26 18 -38z m-125 -106 l27
-42 -56 -56 -56 -56 0 48 c0 46 19 106 41 134 6 7 13 13 14 13 1 0 15 -19 30
-41z m240 -43 c27 -91 16 -99 -40 -31 l-37 46 17 36 c17 35 18 36 32 17 7 -10
20 -41 28 -68z m-35 -175 c0 -9 -22 -38 -49 -65 -56 -55 -60 -55 -131 19 l-45
47 59 53 59 54 54 -46 c29 -25 53 -53 53 -62z m-216 -231 c-21 -27 -42 -46
-47 -43 -18 11 -47 88 -47 126 0 21 5 47 11 58 9 19 14 16 65 -36 l55 -56 -37
-49z m276 90 c0 -50 -25 -130 -40 -130 -5 0 -19 19 -32 43 l-24 42 41 47 c22
27 43 48 48 48 4 0 7 -22 7 -50z m-130 -162 l30 -42 -37 -38 -37 -38 -33 32
c-18 18 -33 36 -33 41 0 13 60 87 71 87 5 0 23 -19 39 -42z m-16 -3090 c14
-32 12 -51 -7 -76 -8 -10 -14 -9 -29 5 -38 34 -42 53 -17 79 30 31 37 30 53
-8z m-111 -129 l28 -40 -20 -27 c-11 -15 -35 -42 -55 -61 l-35 -34 -10 26
c-16 41 28 178 57 177 4 -1 20 -19 35 -41z m237 -49 c7 -28 10 -54 6 -57 -7
-7 -41 22 -66 57 -15 23 -16 28 -3 60 l15 35 18 -22 c10 -13 23 -45 30 -73z
m-70 -115 l54 -55 -21 -22 c-11 -13 -33 -38 -48 -55 -16 -18 -34 -33 -41 -33
-7 0 -39 24 -70 53 l-57 53 59 57 c33 31 61 57 64 57 3 0 30 -25 60 -55z
m-178 -192 l46 -48 -43 -49 c-39 -44 -46 -48 -61 -35 -39 32 -58 137 -32 178
15 25 28 18 90 -46z m270 -10 c-1 -46 -15 -95 -35 -120 -6 -9 -16 1 -33 34
l-23 46 41 49 c22 27 43 47 46 44 2 -3 4 -27 4 -53z m-124 -152 c12 -21 22
-43 22 -49 0 -12 -58 -72 -70 -72 -5 0 -22 17 -38 38 l-30 37 37 43 c20 23 41
42 47 42 6 0 20 -17 32 -39z"/>
</g>
</svg>
