<?xml version="1.0" standalone="no"?>
<!DOCTYPE svg PUBLIC "-//W3C//DTD SVG 20010904//EN"
 "http://www.w3.org/TR/2001/REC-SVG-20010904/DTD/svg10.dtd">
<svg version="1.0" xmlns="http://www.w3.org/2000/svg"
 width="3542.000000pt" height="3750.000000pt" viewBox="0 0 3542.000000 3750.000000"
 preserveAspectRatio="xMidYMid meet">

<g transform="translate(0.000000,3750.000000) scale(0.100000,-0.100000)"
fill="#C5C3C1" stroke="none">
<path d="M8830 17200 c0 -1209 -2 -1371 -15 -1376 -8 -4 -15 -11 -15 -17 0 -6
-8 -19 -17 -30 -17 -18 -16 -20 4 -56 l22 -38 -20 -32 c-23 -37 -19 -57 17
-96 22 -24 25 -35 21 -74 -9 -85 -32 -142 -83 -203 -81 -97 -90 -135 -49 -212
31 -59 31 -67 -1 -118 -54 -85 -44 -140 46 -247 33 -39 39 -53 37 -88 -1 -30
6 -51 26 -80 30 -43 39 -133 14 -133 -13 0 -47 -50 -47 -70 0 -6 9 -23 20 -37
l20 -26 -22 -35 c-21 -34 -21 -35 -3 -68 9 -18 23 -35 30 -38 11 -4 14 -190
14 -960 1 -582 -2 -956 -8 -956 -5 0 -19 -16 -31 -35 l-22 -35 22 -35 22 -35
-22 -35 c-21 -34 -21 -36 -4 -63 9 -15 23 -31 31 -35 15 -9 18 -113 3 -122 -5
-3 -10 -22 -10 -42 0 -29 -12 -50 -64 -114 -83 -101 -87 -122 -46 -204 l32
-64 -36 -65 c-54 -96 -51 -110 45 -233 40 -51 45 -63 41 -96 -3 -29 2 -47 22
-77 18 -28 26 -53 26 -85 0 -25 -4 -45 -9 -45 -5 0 -19 -16 -31 -35 l-22 -35
22 -35 22 -35 -22 -35 c-21 -34 -21 -36 -4 -63 9 -15 23 -31 31 -35 18 -11 19
-2414 0 -2437 -7 -8 -35 -26 -64 -39 l-52 -24 24 -29 c39 -46 29 -85 -28 -114
-18 -9 -35 -22 -39 -27 -6 -10 -3 -86 4 -92 2 -1 54 -14 117 -27 80 -18 124
-23 150 -18 20 5 89 16 154 25 l117 18 0 52 c0 49 -2 53 -30 65 -64 26 -78 83
-31 123 l30 25 -47 17 c-26 10 -57 27 -69 38 l-23 20 0 1214 c0 714 4 1213 9
1213 5 0 18 15 29 32 l21 32 -20 33 -21 33 21 36 21 36 -20 33 c-11 18 -27 36
-36 39 -23 9 -12 81 20 136 14 25 26 58 26 74 0 17 12 42 29 62 16 18 42 55
58 81 37 64 39 148 4 210 l-24 42 21 48 c37 85 15 162 -72 260 -25 28 -46 58
-46 68 0 9 -4 24 -9 34 -6 10 -13 40 -17 68 -6 45 -4 52 14 57 11 4 27 21 35
39 15 29 14 34 -5 64 -20 33 -20 33 0 67 18 31 19 36 4 66 -8 17 -21 34 -29
37 -20 8 -19 1911 1 1919 7 3 22 20 31 38 18 33 18 34 -3 68 -21 34 -21 34 -2
63 26 40 25 47 -10 85 -39 41 -40 97 -5 155 14 22 25 55 25 73 0 25 12 49 44
90 82 105 94 165 49 257 -26 53 -26 56 -11 89 44 91 30 157 -53 254 -31 36
-54 76 -64 109 -19 65 -20 132 -1 139 7 3 21 20 31 38 18 32 17 34 -5 64 l-23
30 23 36 22 36 -22 35 c-12 19 -26 35 -31 35 -5 0 -9 546 -9 1375 l0 1375
-100 0 -100 0 0 -1370z m135 -1854 c15 -22 15 -27 0 -55 -19 -38 -28 -39 -54
-2 -25 35 -26 39 -4 63 22 24 39 23 58 -6z m-117 -122 c12 -20 22 -39 22 -42
0 -4 -22 -32 -49 -61 l-48 -54 -7 26 c-3 15 -3 39 0 55 9 36 45 112 53 112 3
-1 16 -17 29 -36z m222 -6 c11 -24 20 -61 20 -83 l0 -39 -40 39 c-22 21 -40
42 -40 46 0 12 30 79 36 79 3 0 14 -19 24 -42z m-57 -167 c20 -19 37 -40 37
-45 0 -13 -91 -106 -104 -106 -14 0 -106 91 -106 105 0 5 24 31 52 56 58 52
54 52 121 -10z m-191 -168 c26 -26 48 -51 48 -56 0 -11 -61 -87 -70 -87 -11 0
-50 96 -50 122 0 30 11 68 18 68 4 0 28 -21 54 -47z m284 -26 c-4 -27 -15 -66
-25 -85 l-18 -34 -25 43 -26 44 40 47 c22 27 44 45 50 42 6 -4 8 -26 4 -57z
m-128 -140 c12 -18 22 -37 22 -42 0 -5 -15 -24 -32 -42 l-33 -34 -31 38 -32
38 30 37 c16 21 35 38 41 38 7 0 22 -15 35 -33z m-4 -2989 c7 -20 6 -35 -4
-53 -17 -32 -29 -31 -59 6 l-23 30 23 25 c28 30 51 27 63 -8z m-84 -158 c0 -3
-25 -30 -55 -60 -46 -45 -57 -52 -65 -40 -21 33 -2 120 37 162 15 17 18 16 49
-20 18 -20 33 -39 34 -42z m184 36 c18 -43 30 -116 19 -115 -4 0 -25 20 -46
44 l-37 42 15 37 c18 41 29 40 49 -8z m-56 -159 l53 -53 -54 -59 -54 -59 -56
53 c-32 30 -57 57 -57 62 0 8 101 108 110 109 3 0 29 -24 58 -53z m-179 -180
l52 -48 -39 -49 -39 -49 -21 22 c-39 42 -54 116 -31 158 13 25 16 24 78 -34z
m271 4 c0 -35 -27 -128 -40 -136 -5 -3 -19 13 -30 35 l-21 42 28 35 c15 19 32
41 38 48 13 19 25 8 25 -24z m-131 -155 c28 -45 26 -67 -9 -101 l-30 -29 -30
35 c-16 18 -29 37 -30 40 0 6 69 89 75 89 2 0 13 -15 24 -34z"/>
</g>
</svg>
