<?xml version="1.0" standalone="no"?>
<!DOCTYPE svg PUBLIC "-//W3C//DTD SVG 20010904//EN"
 "http://www.w3.org/TR/2001/REC-SVG-20010904/DTD/svg10.dtd">
<svg version="1.0" xmlns="http://www.w3.org/2000/svg"
 width="3542.000000pt" height="3750.000000pt" viewBox="0 0 3542.000000 3750.000000"
 preserveAspectRatio="xMidYMid meet">

<g transform="translate(0.000000,3750.000000) scale(0.100000,-0.100000)"
fill="#C5C3C1" stroke="none">
<path d="M11278 18602 l-98 -3 0 -1321 0 -1321 -25 -33 c-29 -37 -30 -51 -10
-78 19 -25 19 -50 0 -66 -8 -7 -15 -22 -15 -34 1 -23 32 -66 49 -66 16 0 13
-80 -4 -110 -8 -14 -14 -38 -15 -54 0 -19 -19 -51 -60 -102 -75 -94 -81 -122
-44 -204 l27 -61 -31 -62 c-18 -34 -32 -71 -32 -82 0 -30 30 -85 78 -142 34
-39 42 -57 42 -89 0 -24 10 -54 25 -79 34 -56 32 -102 -5 -139 -35 -34 -36
-47 -13 -87 16 -27 16 -31 0 -58 -23 -39 -22 -51 7 -83 l25 -26 3 -919 c2
-861 1 -921 -15 -937 -36 -36 -39 -55 -18 -89 l20 -33 -21 -32 c-20 -32 -20
-34 -2 -68 10 -18 24 -34 31 -34 18 0 17 -81 -2 -116 -8 -16 -15 -41 -15 -56
0 -17 -19 -50 -55 -95 -80 -99 -84 -117 -45 -201 l31 -69 -31 -53 c-50 -85
-43 -125 43 -229 39 -46 44 -58 40 -90 -4 -28 1 -45 21 -74 29 -42 36 -114 12
-123 -7 -3 -22 -20 -31 -38 -18 -33 -18 -34 3 -61 l22 -28 -21 -33 c-20 -33
-19 -74 2 -74 5 0 9 -6 9 -14 0 -8 5 -16 11 -18 14 -5 19 -2311 5 -2345 -5
-14 -30 -31 -62 -44 -49 -21 -70 -39 -44 -39 5 0 17 -11 26 -25 23 -35 3 -82
-43 -101 -31 -13 -33 -17 -33 -63 l0 -50 58 -11 c31 -7 85 -18 118 -24 53 -11
75 -11 165 6 57 10 123 21 147 24 l42 7 0 48 c0 46 -2 50 -34 63 -58 24 -74
82 -33 118 l24 21 -61 31 -61 31 -3 1173 -2 1173 25 27 c29 31 32 58 8 84 -15
17 -15 21 0 54 23 47 22 58 -13 92 -25 25 -29 37 -26 69 2 22 13 58 25 81 11
23 21 52 21 65 0 13 15 41 34 63 83 97 104 187 63 267 l-25 49 19 41 c36 80
15 174 -57 248 -35 36 -84 150 -84 196 0 14 13 38 30 55 34 34 37 54 13 96
-16 28 -16 31 0 55 22 35 22 44 -8 83 l-25 33 0 915 0 915 25 27 c29 31 31 55
9 89 -15 23 -15 27 0 50 23 34 20 62 -9 91 -33 33 -33 92 0 158 14 27 25 59
25 72 0 12 16 42 36 66 77 91 92 165 49 250 l-26 51 21 41 c39 81 24 146 -53
240 -75 89 -99 211 -52 262 29 32 31 52 8 92 -17 29 -17 31 0 50 24 27 21 65
-8 92 l-25 23 -2 1326 -3 1326 -97 -3z m34 -3109 c22 -20 23 -35 2 -74 -15
-30 -16 -30 -36 -13 -38 35 -42 54 -17 80 27 29 27 29 51 7z m-128 -224 c-26
-26 -51 -46 -56 -43 -16 10 -8 70 17 123 l25 54 31 -43 31 -42 -48 -49z m236
89 c19 -42 27 -119 13 -117 -5 0 -23 18 -42 40 l-34 40 18 39 c10 22 20 40 22
40 2 0 13 -19 23 -42z m-65 -158 l49 -50 -49 -50 c-27 -27 -54 -50 -60 -50 -6
0 -33 23 -60 51 l-50 50 55 49 c30 27 57 50 60 50 3 0 28 -22 55 -50z m-171
-169 l48 -48 -34 -47 -33 -47 -17 21 c-10 12 -23 40 -29 63 -11 40 -5 107 9
107 4 0 29 -22 56 -49z m266 -8 c0 -27 -10 -68 -21 -93 l-20 -44 -25 43 -24
44 27 34 c16 20 32 42 38 49 18 25 25 15 25 -33z m-123 -154 l26 -40 -31 -32
-32 -31 -30 29 c-16 16 -30 31 -30 35 0 7 60 80 66 80 2 0 16 -18 31 -41z m-9
-2861 c16 -16 15 -57 -2 -87 l-13 -23 -26 28 c-31 33 -33 50 -10 76 19 21 34
23 51 6z m-81 -180 c-7 -20 -100 -107 -109 -102 -18 11 -3 108 22 149 l24 38
33 -39 c18 -21 32 -42 30 -46z m182 40 c22 -51 33 -105 23 -112 -4 -2 -24 15
-44 39 l-37 42 17 37 c9 20 18 36 20 36 2 0 11 -19 21 -42z m-22 -184 c14 -21
13 -26 -5 -51 -11 -15 -34 -41 -51 -58 l-32 -29 -56 56 -56 57 54 54 54 54 38
-30 c21 -16 45 -40 54 -53z m-205 -141 c26 -26 48 -52 48 -58 -1 -18 -70 -86
-81 -79 -17 10 -49 86 -49 117 0 29 15 67 28 67 3 0 28 -21 54 -47z m243 -94
c-9 -27 -20 -49 -23 -49 -4 0 -15 20 -25 45 l-19 44 39 46 38 46 3 -41 c2 -23
-4 -63 -13 -91z m-89 -96 c5 -18 -1 -32 -22 -54 l-28 -29 -28 27 c-36 34 -35
50 4 91 l33 33 18 -22 c9 -12 20 -33 23 -46z"/>
</g>
</svg>
