<svg id="post_dots" data-name="post dots" xmlns="http://www.w3.org/2000/svg" width="2550" height="2700" viewBox="0 0 2550 2700">
  <defs>
    <style>
      .cls-11 {
        fill: #f1363a;
      }

      .cls-22 {
        fill: #59d968;
      }
    </style>
  </defs>
  <rect class="cls-11" x="1251" y="2258" width="6" height="6"/>
  <rect id="Rectangle_4_copy_4" data-name="Rectangle 4 copy 4" class="cls-11" x="275" y="2175" width="6" height="6"/>
  <rect id="Rectangle_4_copy_5" data-name="Rectangle 4 copy 5" class="cls-11" x="557" y="1761" width="6" height="6"/>
  <rect id="Rectangle_4_copy_6" data-name="Rectangle 4 copy 6" class="cls-11" x="1054" y="1690" width="6" height="6"/>
  <rect id="Rectangle_4_copy" data-name="Rectangle 4 copy" class="cls-11" x="1433" y="2003" width="6" height="6"/>
  <rect id="Rectangle_4_copy_2" data-name="Rectangle 4 copy 2" class="cls-11" x="1476" y="1617" width="6" height="6"/>
  <rect id="Rectangle_4_copy_3" data-name="Rectangle 4 copy 3" class="cls-11" x="2343" y="846" width="6" height="6"/>
  <rect id="Rectangle_1_copy_20" data-name="Rectangle 1 copy 20" class="cls-22" x="418" y="1949" width="10" height="12"/>
  <rect id="Rectangle_1_copy_21" data-name="Rectangle 1 copy 21" class="cls-22" x="485" y="1937" width="10" height="12"/>
  <rect id="Rectangle_1_copy_22" data-name="Rectangle 1 copy 22" class="cls-22" x="646" y="1739" width="10" height="12"/>
  <rect id="Rectangle_1_copy_23" data-name="Rectangle 1 copy 23" class="cls-22" x="708" y="1731" width="10" height="12"/>
  <rect id="Rectangle_1_copy_24" data-name="Rectangle 1 copy 24" class="cls-22" x="767" y="1721" width="10" height="12"/>
  <rect id="Rectangle_1_copy_25" data-name="Rectangle 1 copy 25" class="cls-22" x="823" y="1715" width="10" height="12"/>
  <rect id="Rectangle_1_copy_26" data-name="Rectangle 1 copy 26" class="cls-22" x="876" y="1706" width="10" height="12"/>
  <rect id="Rectangle_1_copy_27" data-name="Rectangle 1 copy 27" class="cls-22" x="930" y="1698" width="10" height="12"/>
  <rect id="Rectangle_1_copy_28" data-name="Rectangle 1 copy 28" class="cls-22" x="981" y="1691" width="10" height="12"/>
  <rect id="Rectangle_1_copy_29" data-name="Rectangle 1 copy 29" class="cls-22" x="1030" y="1684" width="10" height="12"/>
  <rect id="Rectangle_1_copy_4" data-name="Rectangle 1 copy 4" class="cls-22" x="1370" y="2010" width="10" height="12"/>
  <rect id="Rectangle_1_copy_5" data-name="Rectangle 1 copy 5" class="cls-22" x="1424" y="1997" width="10" height="12"/>
  <rect id="Rectangle_1_copy_6" data-name="Rectangle 1 copy 6" class="cls-22" x="1572" y="1611" width="10" height="12"/>
  <rect id="Rectangle_1_copy_7" data-name="Rectangle 1 copy 7" class="cls-22" x="1673" y="1427" width="10" height="12"/>
  <rect id="Rectangle_1_copy_8" data-name="Rectangle 1 copy 8" class="cls-22" x="1779" y="1429" width="10" height="12"/>
  <rect id="Rectangle_1_copy_9" data-name="Rectangle 1 copy 9" class="cls-22" x="1880" y="1237" width="10" height="12"/>
  <rect id="Rectangle_1_copy_10" data-name="Rectangle 1 copy 10" class="cls-22" x="1991" y="1237" width="10" height="12"/>
  <rect id="Rectangle_1_copy_11" data-name="Rectangle 1 copy 11" class="cls-22" x="2101" y="1040" width="10" height="12"/>
  <rect id="Rectangle_1_copy_12" data-name="Rectangle 1 copy 12" class="cls-22" x="2208" y="1040" width="10" height="12"/>
  <rect id="Rectangle_1_copy_13" data-name="Rectangle 1 copy 13" class="cls-22" x="2325" y="838" width="10" height="12"/>
  <rect id="Rectangle_1_copy_14" data-name="Rectangle 1 copy 14" class="cls-22" x="2440" y="835" width="10" height="12"/>
  <rect id="Rectangle_1_copy_15" data-name="Rectangle 1 copy 15" class="cls-22" x="2540" y="629" width="10" height="12"/>
</svg>
