<?xml version="1.0" standalone="no"?>
<!DOCTYPE svg PUBLIC "-//W3C//DTD SVG 20010904//EN"
 "http://www.w3.org/TR/2001/REC-SVG-20010904/DTD/svg10.dtd">
<svg version="1.0" xmlns="http://www.w3.org/2000/svg"
 width="2550.000000pt" height="2700.000000pt" viewBox="0 0 2550.000000 2700.000000"
 preserveAspectRatio="xMidYMid meet">

<g transform="translate(0.000000,2700.000000) scale(0.100000,-0.100000)"
fill="#3a4548" stroke="none">
<path d="M17275 21468 l-47 -43 1 -740 c2 -648 0 -742 -13 -760 -18 -23 -20
-57 -6 -71 6 -6 6 -21 -2 -42 -10 -27 -10 -36 5 -61 30 -51 22 -87 -33 -153
-53 -63 -61 -93 -36 -137 12 -22 10 -28 -18 -70 -41 -61 -40 -102 2 -160 29
-40 32 -49 26 -92 -6 -45 -4 -49 35 -92 44 -48 54 -94 26 -117 -18 -15 -19
-43 -4 -72 8 -14 8 -23 0 -31 -15 -15 -14 -50 4 -73 12 -16 14 -114 14 -679 0
-565 -2 -663 -14 -679 -17 -23 -20 -57 -5 -72 6 -6 6 -20 -2 -41 -10 -26 -9
-35 5 -57 31 -46 22 -89 -28 -146 -52 -59 -63 -90 -46 -137 12 -32 11 -38 -15
-76 -40 -60 -39 -110 4 -164 28 -36 32 -47 26 -81 -7 -44 9 -83 50 -121 30
-28 35 -81 11 -101 -17 -14 -19 -47 -6 -69 6 -10 5 -24 -4 -42 -13 -24 -12
-30 5 -52 20 -25 20 -44 20 -817 0 -524 -3 -798 -10 -811 -6 -10 -24 -26 -41
-35 -29 -15 -30 -16 -14 -34 21 -24 13 -65 -15 -80 -14 -8 -20 -21 -20 -45 l0
-35 150 0 150 0 0 31 c0 21 -9 40 -26 56 -26 24 -28 41 -9 86 5 12 3 17 -8 17
-9 0 -25 12 -36 26 -21 26 -21 33 -21 815 0 761 1 790 19 820 18 29 18 34 4
56 -12 18 -13 27 -4 36 15 15 14 49 -4 73 -25 32 -18 71 20 112 43 48 57 85
46 115 -7 18 -1 35 27 80 42 68 43 101 8 161 -21 37 -24 51 -19 94 6 56 -10
92 -66 146 -35 33 -41 77 -16 110 18 24 19 58 3 74 -9 9 -9 15 0 24 16 16 15
50 -3 74 -12 16 -14 114 -15 679 0 639 1 661 20 690 18 27 18 31 4 53 -14 21
-14 26 0 46 13 21 13 26 -5 55 -27 44 -24 83 7 112 35 32 66 102 59 132 -5 16
3 39 26 76 40 63 41 104 6 163 -20 36 -24 52 -20 95 6 58 -10 94 -66 147 -34
33 -42 84 -16 106 17 14 20 47 6 69 -5 7 -4 25 2 42 9 23 8 35 -6 59 -17 27
-18 82 -17 811 1 429 0 783 -3 785 -2 3 -26 -15 -52 -38z m15 -1838 c0 -5 -4
-10 -10 -10 -5 0 -10 5 -10 10 0 6 5 10 10 10 6 0 10 -4 10 -10z m-40 -72 c0
-5 -12 -25 -27 -44 -37 -49 -52 -29 -23 31 18 37 25 43 36 34 8 -6 14 -16 14
-21z m110 -3 c7 -14 10 -28 6 -32 -10 -10 -48 36 -40 48 9 15 20 10 34 -16z
m-21 -89 l33 -34 -20 -30 c-42 -58 -49 -59 -92 -17 l-39 38 32 38 c18 20 37
38 43 38 5 1 25 -14 43 -33z m-122 -118 c18 -18 33 -37 33 -43 0 -6 -15 -26
-34 -44 l-34 -33 -16 23 c-26 38 -17 129 13 129 3 0 20 -14 38 -32z m197 -3
c7 -29 -10 -105 -23 -105 -5 0 -18 16 -30 36 l-21 35 27 34 c30 37 38 37 47 0z
m-78 -120 l27 -36 -34 -35 -33 -34 -35 35 -35 35 34 35 c19 19 37 35 41 35 5
0 20 -16 35 -35z m-92 -138 c15 -24 -3 -35 -20 -13 -8 11 -14 24 -14 29 0 13
22 3 34 -16z m46 -1983 c0 -8 -4 -12 -10 -9 -5 3 -10 10 -10 16 0 5 5 9 10 9
6 0 10 -7 10 -16z m-46 -60 c8 -20 -40 -87 -55 -78 -11 7 -3 39 19 72 17 26
28 28 36 6z m121 -24 c8 -16 11 -31 6 -34 -14 -9 -52 39 -45 57 8 21 20 14 39
-23z m-5 -115 c-1 -11 -56 -75 -65 -75 -14 0 -75 56 -75 70 0 8 14 29 31 46
l32 33 38 -32 c21 -18 39 -36 39 -42z m-152 -80 c18 -19 32 -38 32 -42 0 -5
-14 -24 -30 -43 -29 -34 -31 -34 -45 -16 -21 28 -18 136 5 136 4 0 21 -16 38
-35z m206 -6 c6 -34 -9 -109 -23 -109 -4 0 -19 16 -34 36 l-26 37 32 38 c17
20 35 36 38 33 4 -2 9 -18 13 -35z m-90 -113 c14 -19 26 -39 26 -43 0 -5 -14
-22 -30 -38 l-30 -29 -37 37 -37 37 34 35 c19 19 37 35 41 35 4 0 18 -15 33
-34z m-78 -163 c-7 -7 -26 7 -26 19 0 6 6 6 15 -2 9 -7 13 -15 11 -17z"/>
</g>
</svg>
