<?xml version="1.0" standalone="no"?>
<!DOCTYPE svg PUBLIC "-//W3C//DTD SVG 20010904//EN"
 "http://www.w3.org/TR/2001/REC-SVG-20010904/DTD/svg10.dtd">
<svg version="1.0" xmlns="http://www.w3.org/2000/svg"
 width="2550.000000pt" height="2700.000000pt" viewBox="0 0 2550.000000 2700.000000"
 preserveAspectRatio="xMidYMid meet">

<g transform="translate(0.000000,2700.000000) scale(0.100000,-0.100000)"
fill="#3a4548" stroke="none">
<path d="M19940 24206 l-44 -43 3 -751 3 -751 -22 -31 c-19 -27 -21 -34 -10
-61 10 -24 10 -35 0 -55 -12 -21 -11 -28 8 -54 15 -19 22 -43 22 -72 0 -37 -8
-52 -51 -103 -61 -73 -66 -92 -41 -142 l20 -39 -34 -54 c-18 -30 -34 -62 -34
-71 0 -8 21 -43 46 -77 38 -51 43 -64 35 -81 -17 -31 -13 -46 24 -91 40 -48
44 -84 14 -116 -20 -21 -20 -26 -9 -54 11 -25 10 -36 0 -56 -12 -21 -11 -28 8
-54 l22 -29 0 -671 0 -671 -22 -29 c-19 -26 -20 -33 -8 -54 10 -21 11 -31 0
-56 -12 -28 -11 -34 9 -60 37 -51 29 -97 -29 -169 -62 -78 -66 -93 -44 -143
15 -33 16 -43 5 -60 -35 -57 -52 -99 -46 -117 3 -12 24 -44 45 -72 33 -44 37
-55 28 -75 -13 -28 2 -71 38 -105 30 -28 32 -75 3 -105 -20 -21 -20 -26 -9
-54 11 -25 10 -36 0 -56 -12 -21 -11 -28 8 -54 l22 -29 0 -1245 c0 -684 -3
-1252 -6 -1261 -4 -9 -24 -25 -46 -36 -37 -19 -39 -22 -24 -38 25 -27 19 -58
-14 -83 -18 -13 -30 -31 -30 -45 l0 -23 175 0 c171 0 175 0 175 21 0 12 -13
34 -30 49 -34 32 -37 51 -13 75 14 14 14 18 2 26 -8 5 -17 9 -20 9 -3 0 -15 9
-27 20 l-22 21 0 534 0 534 -22 3 c-23 3 -23 4 -26 204 l-2 200 25 24 25 23 0
498 c0 429 2 498 15 509 18 15 20 51 3 68 -10 10 -10 17 0 32 17 28 15 54 -8
75 -26 24 -20 61 18 114 22 31 32 55 32 81 0 27 10 54 35 90 43 64 46 116 11
175 -18 30 -22 45 -15 63 22 58 5 113 -58 183 -43 47 -52 98 -22 125 22 19 25
54 7 72 -10 10 -10 17 0 32 16 27 15 55 -3 70 -13 11 -15 100 -15 690 0 623 1
681 17 708 15 27 16 33 3 56 -10 20 -11 29 -2 38 18 18 14 50 -8 78 -26 33
-25 62 4 97 34 41 46 68 46 102 0 18 13 49 31 75 42 59 50 129 21 185 -16 31
-20 51 -15 88 7 60 -10 102 -66 165 -46 52 -52 87 -21 118 22 22 26 50 9 67
-9 9 -9 20 1 44 12 27 11 36 -3 63 -16 28 -17 105 -20 831 -2 702 -4 800 -17
803 -8 1 -35 -17 -60 -42z m33 -1890 c3 -8 3 -17 0 -20 -9 -9 -34 15 -27 25 8
13 21 11 27 -5z m-53 -71 c13 -24 11 -28 -20 -60 -19 -19 -38 -35 -42 -35 -15
0 -8 55 12 88 24 39 32 40 50 7z m136 -30 l6 -30 -27 27 c-19 18 -26 32 -21
44 6 15 9 16 21 3 7 -8 17 -27 21 -44z m-32 -74 l38 -38 -33 -39 c-18 -22 -35
-41 -36 -44 -2 -2 -22 14 -45 37 l-41 41 34 41 c19 22 36 41 39 41 3 0 23 -17
44 -39z m-121 -129 l37 -38 -38 -37 c-37 -36 -39 -37 -55 -19 -24 27 -32 79
-17 108 18 33 30 30 73 -14z m187 -14 c0 -50 -9 -88 -20 -88 -4 0 -17 15 -27
33 l-20 33 25 32 c13 18 28 32 33 32 5 0 9 -19 9 -42z m-81 -94 c28 -36 26
-55 -7 -87 l-28 -27 -21 22 c-35 40 -36 47 -6 83 15 18 31 34 35 34 4 1 16
-11 27 -25z m-36 -2164 c3 -11 2 -22 -3 -25 -11 -7 -33 22 -25 35 10 16 22 12
28 -10z m-58 -66 c17 -26 16 -27 -16 -60 -38 -39 -49 -42 -49 -14 0 19 36 100
44 100 2 0 11 -12 21 -26z m129 -6 c18 -25 21 -58 7 -58 -14 0 -41 41 -41 62
0 25 16 23 34 -4z m-27 -100 c18 -18 33 -36 33 -42 0 -13 -61 -76 -74 -76 -13
0 -76 61 -76 74 0 13 61 76 74 76 6 0 25 -14 43 -32z m-122 -128 l39 -40 -34
-35 c-19 -19 -37 -35 -42 -35 -12 0 -38 57 -38 85 0 28 16 65 28 65 5 0 26
-18 47 -40z m193 -30 c-6 -79 -19 -92 -47 -45 l-21 36 26 35 c38 49 47 43 42
-26z m-58 -126 c0 -5 -13 -23 -30 -39 l-30 -29 -30 29 c-16 16 -30 33 -30 39
0 5 15 25 32 43 l33 34 27 -33 c15 -18 28 -38 28 -44z"/>
</g>
</svg>
