<?xml version="1.0" standalone="no"?>
<!DOCTYPE svg PUBLIC "-//W3C//DTD SVG 20010904//EN"
 "http://www.w3.org/TR/2001/REC-SVG-20010904/DTD/svg10.dtd">
<svg version="1.0" xmlns="http://www.w3.org/2000/svg"
 width="2550.000000pt" height="2700.000000pt" viewBox="0 0 2550.000000 2700.000000"
 preserveAspectRatio="xMidYMid meet">

<g transform="translate(0.000000,2700.000000) scale(0.100000,-0.100000)"
fill="#3a4548" stroke="none">
<path d="M22246 26991 c-3 -4 -3 -308 -1 -676 l5 -667 -25 -29 c-23 -28 -23
-30 -7 -58 15 -26 15 -30 -1 -54 -16 -25 -16 -27 9 -57 22 -25 25 -37 20 -68
-4 -20 -9 -53 -12 -72 -4 -21 -26 -59 -55 -95 -27 -33 -49 -66 -49 -73 0 -7
11 -35 25 -62 l25 -50 -30 -53 c-16 -30 -30 -60 -30 -68 0 -8 23 -45 50 -81
44 -57 49 -68 41 -90 -8 -21 -5 -32 15 -59 31 -42 30 -72 -1 -113 -22 -29 -23
-34 -10 -52 19 -25 19 -43 -1 -65 -16 -17 -15 -21 10 -53 l26 -35 -1 -697 0
-697 -25 -29 c-28 -34 -29 -41 -9 -58 20 -16 19 -39 -1 -61 -16 -17 -15 -21
11 -54 28 -37 28 -39 9 -135 -4 -19 -29 -63 -55 -98 -27 -35 -49 -70 -49 -78
0 -8 11 -36 24 -62 l24 -47 -29 -50 c-16 -27 -29 -59 -29 -69 0 -11 21 -46 46
-78 37 -48 45 -65 41 -87 -4 -20 1 -38 19 -64 31 -47 31 -84 -2 -118 -26 -27
-26 -28 -9 -57 16 -27 16 -31 1 -54 -16 -25 -16 -27 8 -55 l25 -30 0 -844 c0
-644 -3 -848 -13 -860 -6 -10 -29 -24 -49 -33 l-38 -15 21 -21 c11 -11 20 -26
20 -34 0 -14 -49 -61 -71 -68 -7 -2 -10 -11 -7 -19 5 -13 17 -14 70 -8 34 5
119 13 188 19 68 6 126 12 127 14 2 2 -8 11 -22 20 -28 19 -33 57 -10 76 21
18 19 27 -10 34 -14 4 -34 15 -45 26 -20 20 -20 37 -20 866 l0 846 21 30 c21
28 21 32 6 57 -14 24 -14 29 1 53 15 25 14 28 -11 62 -33 43 -33 53 -2 112 14
26 25 54 25 62 0 8 18 41 40 74 52 78 59 117 32 181 -16 38 -19 54 -11 69 16
30 13 102 -6 139 -10 19 -32 50 -50 69 -33 36 -55 89 -52 125 1 11 12 31 25
45 26 28 27 32 7 69 -13 26 -13 30 0 41 21 17 19 44 -5 65 -20 18 -20 31 -20
732 0 392 3 713 8 713 4 0 13 9 20 21 10 16 10 27 0 55 -9 26 -9 37 0 46 19
19 14 42 -13 68 -29 27 -28 56 3 117 12 23 22 49 22 58 0 8 15 34 33 58 19 24
40 66 47 92 12 42 11 54 -4 99 -13 40 -15 61 -8 100 14 72 -3 121 -69 193 -22
24 -40 51 -40 60 -1 10 -3 29 -4 43 -1 15 7 37 21 53 28 33 29 45 9 71 -13 17
-12 22 2 46 15 26 15 29 -6 58 -21 30 -21 31 -21 706 l0 676 -69 0 c-39 0 -72
-4 -75 -9z m106 -1716 c10 -39 -6 -54 -32 -30 -23 21 -25 36 -8 53 18 18 31
10 40 -23z m73 -75 c16 -31 20 -70 7 -70 -5 0 -17 12 -29 28 -15 20 -18 33
-12 50 11 29 15 28 34 -8z m-142 -8 l27 -28 -45 -44 c-39 -38 -46 -42 -61 -30
-21 19 -12 75 17 106 28 30 30 30 62 -4z m116 -107 c17 -20 31 -41 31 -48 0
-7 -16 -30 -34 -52 l-35 -40 -45 45 -46 44 42 43 c23 24 45 43 49 43 4 0 21
-16 38 -35z m-124 -145 l39 -40 -38 -37 -38 -37 -29 32 c-33 36 -37 76 -12
104 23 26 34 23 78 -22z m178 -12 c-18 -90 -32 -108 -49 -61 -8 23 -6 34 10
60 28 43 48 43 39 1z m-83 -103 c16 -29 5 -71 -22 -88 -13 -9 -21 -6 -37 14
-27 31 -26 38 6 71 33 34 36 34 53 3z m-18 -2267 c-6 -24 -23 -22 -44 6 -16
22 -16 24 5 46 l21 24 12 -29 c6 -15 9 -36 6 -47z m-95 -126 c-36 -36 -43 -40
-55 -28 -19 19 -9 75 20 111 l21 28 28 -34 28 -34 -42 -43z m168 78 c8 -16 15
-42 15 -57 l0 -28 -31 31 c-24 25 -29 36 -24 57 9 35 21 34 40 -3z m-31 -119
l38 -39 -37 -41 c-21 -23 -43 -41 -49 -41 -7 0 -29 17 -49 38 l-38 39 38 40
c21 22 43 41 48 42 6 0 28 -17 49 -38z m-136 -134 l42 -43 -33 -32 c-18 -18
-36 -32 -40 -32 -13 0 -47 64 -47 88 0 22 19 62 30 62 3 0 25 -19 48 -43z
m194 -13 c-4 -42 -22 -94 -32 -94 -5 0 -14 16 -20 35 -10 31 -9 38 12 64 28
36 44 34 40 -5z m-82 -114 c10 -25 10 -34 -4 -55 -21 -32 -36 -32 -66 0 l-24
25 34 35 c18 19 36 32 40 30 4 -3 13 -18 20 -35z"/>
</g>
</svg>
