<?xml version="1.0" standalone="no"?>
<!DOCTYPE svg PUBLIC "-//W3C//DTD SVG 20010904//EN"
 "http://www.w3.org/TR/2001/REC-SVG-20010904/DTD/svg10.dtd">
<svg version="1.0" xmlns="http://www.w3.org/2000/svg"
 width="2550.000000pt" height="2700.000000pt" viewBox="0 0 2550.000000 2700.000000"
 preserveAspectRatio="xMidYMid meet">

<g transform="translate(0.000000,2700.000000) scale(0.100000,-0.100000)"
fill="#3a4548" stroke="none">
<path d="M23087 26993 c-4 -3 -7 -56 -7 -116 0 -95 -3 -113 -21 -139 -21 -29
-21 -31 -5 -59 16 -26 16 -30 1 -53 -18 -26 -11 -50 19 -76 18 -14 22 -75 6
-85 -5 -3 -10 -20 -10 -37 0 -21 -15 -49 -50 -93 -27 -35 -50 -72 -50 -83 0
-11 11 -40 25 -64 l25 -46 -35 -62 c-39 -69 -39 -69 25 -146 36 -43 41 -53 36
-86 -5 -29 -1 -42 19 -66 32 -38 32 -76 0 -114 -24 -28 -24 -31 -9 -59 14 -28
14 -33 -1 -55 -16 -24 -15 -27 9 -59 l26 -34 0 -715 c0 -561 -3 -717 -12 -723
-34 -22 -40 -41 -22 -72 16 -28 16 -31 0 -55 -15 -24 -15 -28 0 -51 9 -14 21
-25 26 -25 10 0 7 -49 -8 -120 -4 -19 -29 -62 -55 -95 -56 -68 -60 -92 -25
-148 l23 -38 -34 -64 c-39 -74 -39 -76 32 -160 37 -44 40 -53 32 -77 -9 -22
-6 -32 16 -62 34 -43 34 -80 2 -118 -24 -29 -25 -31 -8 -58 15 -27 15 -30 -1
-55 -17 -26 -17 -27 8 -60 l26 -33 0 -1325 0 -1324 -23 -21 c-12 -11 -34 -24
-49 -27 -34 -9 -34 -12 -6 -42 19 -20 20 -26 8 -47 -7 -14 -26 -30 -41 -37
-28 -11 -38 -32 -21 -43 5 -3 69 1 143 9 74 8 158 18 187 21 l53 6 -25 23
c-31 29 -33 48 -6 75 l20 20 -40 16 c-22 9 -45 25 -50 35 -6 11 -10 242 -10
597 0 571 0 580 -20 585 -19 5 -20 14 -20 237 0 223 1 232 20 237 20 5 20 14
20 514 0 340 3 509 10 509 6 0 16 11 22 25 9 20 8 31 -2 50 -11 21 -11 29 0
50 10 19 11 30 2 50 -6 14 -16 25 -22 25 -18 0 -11 78 10 112 11 18 20 43 20
55 0 12 10 34 23 50 64 79 81 149 53 218 -14 33 -15 47 -5 90 15 68 2 107 -62
187 -43 54 -49 67 -49 108 0 34 5 52 20 65 23 20 26 45 8 63 -9 9 -9 20 1 48
12 33 11 39 -8 65 -21 28 -21 32 -21 740 0 696 0 711 20 736 23 30 25 46 8 73
-10 15 -9 24 2 44 10 20 11 31 2 51 -6 14 -16 25 -22 25 -18 0 -11 73 11 120
34 70 42 86 72 135 37 59 46 135 23 189 -13 32 -14 46 -5 74 19 57 -2 137 -48
187 -51 55 -63 79 -63 121 0 24 5 44 10 44 21 0 34 47 21 79 -11 24 -10 33 4
54 15 23 14 26 -10 55 -24 28 -25 36 -25 146 l0 116 -68 0 c-38 0 -72 -3 -75
-7z m104 -600 c14 -38 -5 -54 -33 -26 -18 18 -19 24 -8 37 18 23 29 20 41 -11z
m77 -86 c22 -60 11 -76 -21 -31 -11 14 -16 32 -12 44 9 29 19 25 33 -13z
m-140 -2 l26 -25 -44 -45 c-44 -44 -45 -45 -63 -26 -23 22 -18 54 14 94 25 33
33 33 67 2z m116 -106 c34 -40 33 -58 -6 -103 l-33 -37 -45 45 -44 46 39 40
c21 22 44 40 51 40 7 0 24 -14 38 -31z m-134 -141 c22 -18 40 -38 40 -44 0 -5
-16 -26 -36 -45 l-35 -34 -30 33 c-33 36 -38 76 -12 104 22 24 28 23 73 -14z
m185 -30 c-13 -78 -36 -97 -49 -43 -5 18 0 35 14 56 31 42 43 37 35 -13z m-75
-128 c0 -15 -10 -36 -23 -48 l-23 -22 -23 31 -23 31 33 34 c31 32 35 33 46 17
7 -9 13 -29 13 -43z m-31 -2226 c12 -26 7 -64 -8 -64 -4 0 -16 9 -26 20 -16
18 -17 23 -5 45 17 32 24 31 39 -1z m-89 -169 c-33 -34 -47 -42 -57 -33 -25
20 -13 77 25 121 15 17 17 16 46 -12 l30 -31 -44 -45z m172 60 c19 -51 8 -69
-22 -33 -22 26 -27 78 -7 78 7 0 20 -20 29 -45z m-32 -100 c31 -32 33 -37 20
-59 -7 -14 -25 -36 -39 -50 l-26 -25 -42 40 c-24 22 -43 43 -43 46 0 12 73 83
85 83 6 0 26 -16 45 -35z m-101 -181 c1 -5 -14 -25 -33 -43 l-34 -33 -22 20
c-30 28 -38 96 -15 122 18 20 19 19 61 -18 23 -20 43 -42 43 -48z m157 21 c-6
-48 -21 -85 -34 -85 -4 0 -13 14 -19 31 -11 28 -9 35 14 65 35 47 47 44 39
-11z m-86 -105 c10 -24 10 -37 1 -56 -17 -38 -40 -41 -66 -8 l-24 29 32 33
c17 17 34 32 38 32 4 0 12 -14 19 -30z"/>
</g>
</svg>
