<?xml version="1.0" standalone="no"?>
<!DOCTYPE svg PUBLIC "-//W3C//DTD SVG 20010904//EN"
 "http://www.w3.org/TR/2001/REC-SVG-20010904/DTD/svg10.dtd">
<svg version="1.0" xmlns="http://www.w3.org/2000/svg"
 width="2550.000000pt" height="2700.000000pt" viewBox="0 0 2550.000000 2700.000000"
 preserveAspectRatio="xMidYMid meet">

<g transform="translate(0.000000,2700.000000) scale(0.100000,-0.100000)"
fill="#3a4548" stroke="none">
<path d="M10395 14590 c-10 -11 -24 -20 -30 -20 -7 0 -28 -17 -47 -38 l-35
-39 2 -682 c1 -564 -1 -684 -12 -693 -29 -24 -34 -47 -17 -73 15 -23 15 -27 0
-50 -15 -23 -15 -27 0 -50 9 -14 20 -25 25 -25 18 0 8 -62 -16 -98 -14 -20
-25 -51 -25 -68 0 -20 -12 -47 -36 -77 -48 -61 -56 -119 -25 -178 22 -41 22
-44 6 -80 -24 -52 -13 -97 38 -161 23 -29 48 -66 55 -81 14 -32 16 -97 3 -97
-5 0 -16 -11 -25 -25 -15 -22 -15 -28 -2 -54 13 -25 13 -31 -1 -50 -13 -19
-13 -27 -3 -47 8 -13 17 -24 22 -24 4 0 8 -315 8 -701 l0 -701 -21 -30 c-21
-29 -21 -32 -6 -58 14 -24 15 -29 2 -46 -20 -27 -18 -39 10 -65 31 -30 31 -59
0 -113 -14 -24 -27 -56 -28 -72 -2 -17 -18 -49 -35 -73 -54 -75 -59 -133 -17
-197 14 -22 14 -27 0 -54 -29 -56 -13 -118 47 -186 64 -74 74 -131 31 -176
-27 -28 -27 -29 -10 -58 17 -27 17 -31 1 -54 -15 -24 -15 -27 5 -55 21 -29 21
-33 21 -868 0 -788 -1 -841 -18 -856 -9 -8 -30 -21 -46 -27 -27 -10 -28 -12
-12 -29 24 -27 19 -57 -15 -84 -25 -19 -30 -30 -27 -58 3 -33 4 -34 75 -50 65
-15 83 -16 175 -3 57 7 111 14 121 14 27 0 24 76 -3 85 -11 4 -28 18 -37 31
-15 24 -15 27 5 54 l22 29 -36 11 c-68 23 -64 -31 -63 886 l1 829 24 28 c23
28 24 30 7 58 -16 27 -16 31 0 58 16 28 16 29 -9 56 -21 23 -25 35 -21 64 11
72 21 97 63 149 57 70 61 85 34 143 l-23 48 27 45 c37 63 33 91 -19 160 -36
47 -43 64 -38 87 4 22 -1 38 -21 63 -33 43 -33 80 -1 118 24 29 25 30 8 59
-13 22 -15 31 -5 41 17 17 15 52 -5 71 -17 15 -18 61 -17 716 1 696 2 700 23
726 20 26 20 29 4 55 -15 27 -15 30 1 55 17 26 17 28 -8 54 -44 46 -28 129 41
213 54 66 58 87 32 148 l-21 49 22 30 c44 62 38 107 -24 184 -21 26 -30 50
-31 76 -1 23 -10 49 -23 66 -21 27 -31 95 -14 95 5 0 15 11 22 25 11 21 11 29
0 51 -11 20 -12 29 -2 44 17 27 15 43 -8 73 -20 25 -20 37 -18 761 2 405 0
736 -3 736 -3 0 -14 -9 -24 -20z m-8 -1859 l22 -28 -33 -32 -33 -32 -26 34
-26 35 22 25 c28 33 47 33 74 -2z m-109 -101 c12 -16 22 -33 22 -37 0 -10 -62
-73 -72 -73 -12 0 -10 72 3 109 14 38 20 39 47 1z m197 0 c16 -32 20 -87 6
-108 -6 -11 -18 -4 -49 29 l-40 43 27 33 c14 18 29 33 33 33 4 0 14 -13 23
-30z m-46 -165 c1 -6 -18 -27 -42 -47 l-43 -36 -43 40 -43 40 43 44 43 43 42
-37 c23 -20 43 -42 43 -47z m45 -98 c-8 -38 -32 -87 -42 -87 -4 0 -15 12 -24
28 -17 27 -16 27 19 64 41 42 57 40 47 -5z m-200 -3 c24 -31 27 -39 17 -60
-15 -33 -24 -30 -44 11 -17 37 -23 85 -9 85 4 0 20 -16 36 -36z m96 -109 c11
-20 11 -27 0 -40 -28 -34 -63 3 -40 45 14 26 24 25 40 -5z m5 -2235 c-16 -16
-32 -30 -36 -30 -4 0 -17 14 -30 31 l-21 30 28 30 28 29 30 -30 30 -30 -29
-30z m95 -42 c26 -43 26 -118 0 -118 -8 0 -80 69 -80 77 0 5 54 73 58 73 1 0
11 -15 22 -32z m-198 -9 c18 -30 17 -31 -8 -65 -33 -43 -44 -43 -44 0 0 36 18
96 28 96 4 0 15 -14 24 -31z m143 -151 c10 -8 -62 -88 -79 -88 -13 0 -76 61
-76 74 0 6 17 27 37 48 l37 38 36 -32 c19 -18 39 -36 45 -40z m58 -71 c10 -26
-8 -81 -40 -126 -4 -5 -42 42 -43 53 0 10 62 84 71 85 4 1 9 -5 12 -12z m-206
-39 c23 -22 28 -43 17 -72 -10 -26 -21 -19 -38 24 -28 69 -20 87 21 48z m95
-105 c24 -21 23 -35 -3 -52 -18 -11 -23 -11 -30 1 -10 16 -11 31 -3 52 8 20
13 20 36 -1z"/>
</g>
</svg>
