<?xml version="1.0" standalone="no"?>
<!DOCTYPE svg PUBLIC "-//W3C//DTD SVG 20010904//EN"
 "http://www.w3.org/TR/2001/REC-SVG-20010904/DTD/svg10.dtd">
<svg version="1.0" xmlns="http://www.w3.org/2000/svg"
 width="2550.000000pt" height="2700.000000pt" viewBox="0 0 2550.000000 2700.000000"
 preserveAspectRatio="xMidYMid meet">

<g transform="translate(0.000000,2700.000000) scale(0.100000,-0.100000)"
fill="#3a4548" stroke="none">
<path d="M11188 15453 l-68 -76 -1 -366 c-3 -858 -6 -971 -26 -993 -16 -18
-16 -22 -2 -47 15 -26 15 -30 1 -54 -15 -25 -15 -28 6 -56 27 -37 28 -85 2
-118 -11 -14 -20 -41 -20 -60 0 -24 -11 -48 -40 -84 -47 -60 -52 -106 -20
-170 20 -38 20 -41 4 -75 -21 -45 -13 -95 23 -141 15 -20 36 -46 46 -59 10
-13 21 -49 24 -79 5 -49 3 -59 -18 -81 -22 -23 -22 -26 -7 -52 15 -25 15 -30
1 -53 -15 -25 -15 -28 5 -57 l22 -30 0 -681 c0 -682 0 -682 -21 -711 -20 -26
-21 -32 -9 -60 11 -25 10 -35 0 -56 -12 -21 -11 -28 8 -54 27 -36 28 -76 2
-115 -11 -16 -20 -43 -20 -58 0 -17 -15 -48 -39 -80 -52 -68 -60 -111 -31
-167 19 -38 21 -48 11 -80 -23 -76 -6 -124 66 -202 38 -40 43 -115 12 -157
-20 -27 -21 -34 -9 -55 10 -20 10 -31 0 -55 -11 -26 -9 -34 9 -60 l21 -29 0
-1270 c0 -1390 5 -1285 -59 -1312 -29 -12 -42 -30 -22 -30 14 0 23 -36 16 -59
-3 -10 -19 -24 -35 -31 -25 -10 -30 -18 -30 -46 0 -30 4 -34 38 -43 106 -28
127 -30 227 -16 55 8 106 15 113 15 7 0 12 15 12 40 0 27 -4 40 -13 40 -19 0
-47 33 -47 55 0 10 7 27 17 37 9 10 14 19 12 21 -2 1 -22 11 -44 22 l-40 20
-3 1283 c-2 1272 -2 1283 18 1304 24 26 24 36 5 62 -13 17 -13 22 0 42 20 30
19 36 -6 63 -31 33 -21 129 19 179 81 102 85 117 52 182 l-20 40 25 40 c37 59
33 98 -17 161 -30 39 -41 61 -40 82 1 16 -7 44 -18 62 -26 42 -25 79 2 116 21
28 21 31 6 57 -15 25 -15 30 -1 53 15 25 15 28 -5 57 l-22 30 0 682 c0 671 0
682 20 711 19 26 20 31 6 57 -13 26 -13 32 -1 48 19 25 19 28 -9 61 -37 44
-22 125 34 193 66 80 73 109 41 169 -18 34 -18 35 5 75 39 67 32 103 -32 182
-22 27 -31 48 -28 61 3 11 -6 42 -20 69 -28 55 -28 82 3 113 25 25 26 30 5 59
-14 21 -14 25 1 48 15 24 15 27 -2 52 -17 25 -18 73 -23 769 l-5 742 -67 -76z
m29 -1785 c30 -28 29 -38 -6 -72 l-28 -27 -26 33 -26 33 26 27 c32 34 31 33
60 6z m-99 -108 c12 -16 22 -33 22 -37 0 -10 -62 -73 -72 -73 -12 0 -10 86 4
115 14 32 19 32 46 -5z m186 8 c16 -22 22 -108 10 -121 -4 -4 -23 12 -44 35
l-37 42 21 32 c25 40 30 41 50 12z m-72 -135 l38 -37 -37 -38 c-20 -21 -42
-38 -47 -38 -6 0 -27 17 -48 37 l-38 37 37 38 c20 21 42 38 47 38 6 0 27 -17
48 -37z m78 -118 c0 -30 -29 -105 -41 -105 -5 0 -16 14 -25 31 -15 31 -15 32
17 65 39 40 49 42 49 9z m-195 -15 c26 -27 27 -31 15 -60 -7 -16 -16 -30 -19
-30 -12 0 -41 69 -41 95 0 33 10 31 45 -5z m97 -115 c9 -21 9 -29 -5 -42 -15
-15 -18 -15 -36 1 -16 15 -18 22 -9 42 14 31 35 31 50 -1z m-1 -2137 c24 -30
24 -40 -6 -68 -21 -19 -27 -21 -40 -10 -34 28 -38 50 -14 76 28 30 36 30 60 2z
m-99 -109 c18 -30 17 -31 -10 -65 -15 -19 -30 -34 -34 -34 -12 0 -9 76 4 105
14 32 19 32 40 -6z m193 1 c17 -34 20 -96 4 -106 -11 -6 -79 52 -79 68 0 13
42 68 52 68 4 0 14 -13 23 -30z m-45 -166 c0 -1 -20 -18 -44 -38 l-45 -36 -35
31 c-20 17 -36 36 -36 42 0 6 17 28 37 49 l37 38 43 -42 c24 -23 43 -43 43
-44z m50 -74 c0 -23 -29 -100 -38 -100 -12 0 -42 34 -42 49 0 19 60 82 72 75
4 -3 8 -14 8 -24z m-185 -73 c-4 -15 -11 -27 -17 -27 -12 0 -38 63 -38 92 0
22 1 21 31 -8 24 -25 29 -36 24 -57z m79 -59 c14 -20 14 -24 -1 -40 -20 -22
-43 -8 -43 27 0 40 21 46 44 13z"/>
</g>
</svg>
