<?xml version="1.0" standalone="no"?>
<!DOCTYPE svg PUBLIC "-//W3C//DTD SVG 20010904//EN"
 "http://www.w3.org/TR/2001/REC-SVG-20010904/DTD/svg10.dtd">
<svg version="1.0" xmlns="http://www.w3.org/2000/svg"
 width="2550.000000pt" height="2700.000000pt" viewBox="0 0 2550.000000 2700.000000"
 preserveAspectRatio="xMidYMid meet">

<g transform="translate(0.000000,2700.000000) scale(0.100000,-0.100000)"
fill="#3a4548" stroke="none">
<path d="M12873 17228 l-63 -64 0 -696 c0 -640 -1 -699 -17 -726 -15 -26 -16
-34 -4 -56 12 -21 12 -28 -2 -49 -16 -25 -8 -54 20 -70 21 -13 15 -63 -11 -94
-36 -43 -47 -70 -40 -98 5 -19 -3 -37 -32 -77 -47 -64 -50 -104 -11 -166 26
-39 27 -44 12 -65 -29 -41 -19 -89 29 -149 72 -87 82 -131 41 -180 -25 -29
-25 -32 -9 -55 14 -22 14 -29 3 -50 -11 -21 -11 -29 4 -55 16 -27 17 -85 17
-700 0 -659 0 -670 -20 -699 -20 -26 -20 -30 -5 -53 15 -23 15 -27 0 -50 -17
-25 -16 -27 9 -60 14 -19 26 -40 26 -46 0 -7 -16 -38 -36 -71 -25 -40 -35 -65
-31 -81 4 -15 -6 -39 -33 -81 -47 -70 -49 -95 -14 -161 21 -40 24 -53 15 -68
-14 -23 -14 -83 0 -111 7 -12 29 -41 50 -64 22 -24 39 -48 40 -55 0 -7 3 -26
5 -41 4 -20 -2 -37 -21 -58 -24 -29 -24 -32 -9 -58 15 -26 15 -30 0 -53 -15
-23 -15 -26 4 -51 20 -25 20 -37 20 -1267 0 -775 -4 -1248 -10 -1259 -5 -10
-23 -24 -40 -31 -34 -14 -37 -22 -15 -40 23 -19 18 -39 -15 -70 -21 -19 -30
-38 -30 -59 0 -28 4 -31 48 -44 37 -11 75 -13 170 -7 68 5 125 10 126 12 2 1
6 17 9 35 5 26 3 33 -14 38 -11 4 -27 18 -36 31 -15 24 -15 27 5 54 l21 28
-22 6 c-12 3 -32 15 -45 26 l-22 21 0 1245 0 1246 21 29 c20 28 20 31 5 54
-12 19 -14 30 -6 44 14 28 12 57 -5 71 -9 8 -15 30 -15 60 0 41 6 54 50 109
54 67 64 110 36 160 -12 22 -11 29 10 62 44 70 41 107 -15 178 -22 27 -28 46
-28 77 1 30 -5 50 -26 77 -30 39 -35 88 -12 107 18 15 20 61 3 78 -9 9 -9 15
0 24 16 16 15 50 -3 74 -22 29 -22 1365 0 1384 18 15 20 51 3 68 -10 10 -10
17 0 32 16 27 15 55 -3 70 -10 8 -15 30 -15 62 0 45 5 55 45 101 51 58 64 103
45 155 -11 31 -10 39 15 88 33 64 29 95 -22 161 -26 33 -33 51 -29 69 6 24
-23 96 -44 109 -12 7 -14 85 -2 85 5 0 14 11 20 24 8 18 7 28 -4 45 -11 15
-12 26 -4 40 14 28 13 56 -5 71 -13 11 -15 113 -17 776 l-3 765 -62 -63z m46
-1919 c-30 -42 -38 -44 -70 -13 -36 34 -36 41 -2 76 l27 28 33 -31 32 -32 -20
-28z m-114 -46 c13 -16 25 -33 25 -39 0 -17 -67 -77 -79 -70 -22 14 -4 136 20
136 6 0 21 -12 34 -27z m194 -4 c14 -39 14 -79 1 -99 -8 -12 -16 -8 -44 25
l-34 40 25 32 c14 18 29 33 33 33 5 0 13 -14 19 -31z m-76 -121 l40 -42 -44
-39 -43 -38 -40 40 -40 41 39 40 c21 22 41 40 44 40 3 0 23 -19 44 -42z m-93
-167 c0 -9 -4 -22 -9 -30 -8 -12 -12 -12 -25 -2 -18 15 -38 79 -30 93 8 13 64
-42 64 -61z m149 18 c-21 -60 -42 -76 -54 -39 -5 14 2 32 20 56 33 43 51 33
34 -17z m-86 -115 c-6 -17 -30 -18 -36 -1 -2 6 0 21 6 31 9 19 10 19 23 2 7
-10 10 -24 7 -32z m27 -2114 c-5 -8 -18 -24 -30 -35 l-22 -20 -29 35 -29 34
32 33 32 33 27 -33 c18 -21 24 -37 19 -47z m-120 -65 l22 -35 -29 -34 c-34
-42 -41 -43 -49 -11 -7 28 13 115 26 115 5 0 18 -16 30 -35z m188 23 c17 -21
24 -82 12 -112 l-11 -29 -34 39 c-19 22 -34 43 -35 47 0 11 42 66 51 66 4 1
11 -5 17 -11z m-75 -146 l37 -38 -41 -39 -41 -38 -41 41 -41 42 34 35 c19 19
39 35 45 35 6 0 28 -17 48 -38z m71 -119 c-9 -37 -33 -83 -43 -83 -4 0 -13 10
-18 23 -9 19 -6 27 20 55 38 39 49 41 41 5z m-160 -60 c-9 -34 -23 -28 -44 19
-24 54 -15 68 21 32 21 -21 27 -35 23 -51z m64 -71 c2 -14 -2 -22 -11 -22 -17
0 -30 27 -21 41 9 16 29 4 32 -19z"/>
</g>
</svg>
