<?xml version="1.0" standalone="no"?>
<!DOCTYPE svg PUBLIC "-//W3C//DTD SVG 20010904//EN"
 "http://www.w3.org/TR/2001/REC-SVG-20010904/DTD/svg10.dtd">
<svg version="1.0" xmlns="http://www.w3.org/2000/svg"
 width="2551.000000pt" height="2701.000000pt" viewBox="0 0 2551.000000 2701.000000"
 preserveAspectRatio="xMidYMid meet">
<metadata>
Created by potrace 1.16, written by Peter Selinger 2001-2019
</metadata>
<g transform="translate(0.000000,2701.000000) scale(0.100000,-0.100000)"
fill="#C5C3C1" stroke="none">
<path d="M4780 12597 c-14 -12 -40 -34 -58 -49 l-32 -27 0 -4225 0 -4226 -30
-15 c-16 -8 -37 -27 -46 -41 -16 -24 -16 -26 5 -40 22 -16 29 -44 11 -44 -20
0 -50 -65 -50 -107 l0 -43 155 0 154 0 16 30 c8 16 15 49 15 73 0 37 -4 46
-25 55 -28 13 -32 37 -10 66 22 29 18 44 -14 51 -16 3 -36 14 -45 24 -14 15
-15 407 -13 4279 1 2344 0 4262 -3 4262 -3 0 -16 -11 -30 -23z"/>
</g>
</svg>
