<?xml version="1.0" standalone="no"?>
<!DOCTYPE svg PUBLIC "-//W3C//DTD SVG 20010904//EN"
 "http://www.w3.org/TR/2001/REC-SVG-20010904/DTD/svg10.dtd">
<svg version="1.0" xmlns="http://www.w3.org/2000/svg"
 width="2551.000000pt" height="2701.000000pt" viewBox="0 0 2551.000000 2701.000000"
 preserveAspectRatio="xMidYMid meet">

<g transform="translate(0.000000,2701.000000) scale(0.100000,-0.100000)"
fill="#C5C3C1" stroke="none">
<path d="M16477 22223 l-57 -48 0 -2780 c0 -6368 2 -5643 -20 -5665 -11 -11
-25 -20 -31 -20 -5 0 -7 -4 -4 -10 3 -6 -1 -7 -9 -4 -9 3 -16 2 -16 -4 0 -5 7
-12 15 -16 27 -10 18 -63 -15 -88 -27 -19 -30 -27 -26 -62 3 -21 10 -42 16
-46 6 -4 78 -7 160 -8 l150 -1 0 43 c0 33 -6 47 -25 64 -29 25 -32 63 -8 88
15 15 16 18 3 22 -8 3 -26 17 -40 31 l-26 26 0 4262 c1 2345 -1 4263 -4 4263
-3 0 -31 -21 -63 -47z"/>
</g>
</svg>
