<?xml version="1.0" standalone="no"?>
<!DOCTYPE svg PUBLIC "-//W3C//DTD SVG 20010904//EN"
 "http://www.w3.org/TR/2001/REC-SVG-20010904/DTD/svg10.dtd">
<svg version="1.0" xmlns="http://www.w3.org/2000/svg"
 width="2551.000000pt" height="2701.000000pt" viewBox="0 0 2551.000000 2701.000000"
 preserveAspectRatio="xMidYMid meet">

<g transform="translate(0.000000,2701.000000) scale(0.100000,-0.100000)"
fill="#C5C3C1" stroke="none">
<path d="M18821 24148 l-62 -53 0 -4210 c0 -2316 -3 -4215 -7 -4221 -4 -6 -21
-19 -39 -28 -32 -16 -32 -16 -15 -45 13 -24 14 -33 4 -56 -7 -15 -21 -29 -32
-32 -16 -4 -20 -14 -20 -49 l0 -44 170 0 170 0 0 45 c0 33 -4 45 -15 45 -23 0
-48 46 -41 75 4 14 11 25 16 25 21 0 8 20 -22 36 -18 9 -36 21 -39 27 -4 5 -6
1928 -4 4273 1 2345 1 4264 1 4264 -1 0 -30 -24 -65 -52z"/>
</g>
</svg>
