<?xml version="1.0" standalone="no"?>
<!DOCTYPE svg PUBLIC "-//W3C//DTD SVG 20010904//EN"
 "http://www.w3.org/TR/2001/REC-SVG-20010904/DTD/svg10.dtd">
<svg version="1.0" xmlns="http://www.w3.org/2000/svg"
 width="2551.000000pt" height="2701.000000pt" viewBox="0 0 2551.000000 2701.000000"
 preserveAspectRatio="xMidYMid meet">

<g transform="translate(0.000000,2701.000000) scale(0.100000,-0.100000)"
fill="#C5C3C1" stroke="none">
<path d="M20015 25134 c-16 -15 -44 -39 -61 -54 l-31 -28 -1 -3623 c0 -1993
-1 -3675 -1 -3736 l-1 -112 -32 -17 c-18 -9 -34 -18 -36 -19 -1 -1 4 -15 12
-30 17 -33 12 -51 -24 -86 -21 -20 -27 -32 -23 -53 l5 -26 172 2 171 3 0 28
c1 19 -10 40 -32 62 -34 35 -35 52 -6 87 13 15 11 19 -25 37 -22 11 -42 26
-44 33 -2 7 -4 1711 -4 3786 1 2074 -1 3772 -4 3772 -3 0 -18 -12 -35 -26z"/>
</g>
</svg>
