<?xml version="1.0" standalone="no"?>
<!DOCTYPE svg PUBLIC "-//W3C//DTD SVG 20010904//EN"
 "http://www.w3.org/TR/2001/REC-SVG-20010904/DTD/svg10.dtd">
<svg version="1.0" xmlns="http://www.w3.org/2000/svg"
 width="2551.000000pt" height="2701.000000pt" viewBox="0 0 2551.000000 2701.000000"
 preserveAspectRatio="xMidYMid meet">

<g transform="translate(0.000000,2701.000000) scale(0.100000,-0.100000)"
fill="#C5C3C1" stroke="none">
<path d="M21198 26108 c-7 -7 -35 -30 -61 -52 l-48 -38 1 -4202 c1 -2310 1
-4207 1 -4213 -1 -7 -19 -24 -41 -38 -37 -23 -39 -27 -25 -41 31 -31 7 -104
-34 -104 -8 0 -11 -6 -7 -16 3 -9 6 -24 6 -35 0 -19 7 -19 172 -17 l172 3 0
30 c0 20 -11 40 -32 62 -33 33 -34 50 -5 84 13 15 9 19 -29 41 l-43 23 0 4263
c0 2344 -3 4262 -7 4262 -4 0 -13 -6 -20 -12z"/>
</g>
</svg>
