<?xml version="1.0" standalone="no"?>
<!DOCTYPE svg PUBLIC "-//W3C//DTD SVG 20010904//EN"
 "http://www.w3.org/TR/2001/REC-SVG-20010904/DTD/svg10.dtd">
<svg version="1.0" xmlns="http://www.w3.org/2000/svg"
 width="2551.000000pt" height="2701.000000pt" viewBox="0 0 2551.000000 2701.000000"
 preserveAspectRatio="xMidYMid meet">
<metadata>
Created by potrace 1.16, written by Peter Selinger 2001-2019
</metadata>
<g transform="translate(0.000000,2701.000000) scale(0.100000,-0.100000)"
fill="#C5C3C1" stroke="none">
<path d="M8277 15472 l-58 -47 -1 -3730 c-1 -2051 -3 -3737 -5 -3746 -3 -9
-20 -23 -39 -32 -37 -18 -45 -46 -19 -67 21 -18 19 -51 -4 -57 -25 -6 -42 -48
-38 -93 l2 -35 149 -3 c93 -2 153 1 160 8 5 5 10 35 11 65 0 44 -3 56 -17 61
-10 3 -22 3 -27 0 -15 -10 -6 48 12 74 23 33 22 35 -14 50 -17 7 -36 19 -43
26 -10 10 -12 773 -9 3793 2 2080 3 3781 1 3781 -2 -1 -29 -22 -61 -48z"/>
</g>
</svg>
