<?xml version="1.0" standalone="no"?>
<!DOCTYPE svg PUBLIC "-//W3C//DTD SVG 20010904//EN"
 "http://www.w3.org/TR/2001/REC-SVG-20010904/DTD/svg10.dtd">
<svg version="1.0" xmlns="http://www.w3.org/2000/svg"
 width="2551.000000pt" height="2701.000000pt" viewBox="0 0 2551.000000 2701.000000"
 preserveAspectRatio="xMidYMid meet">
<metadata>
Created by potrace 1.16, written by Peter Selinger 2001-2019
</metadata>
<g transform="translate(0.000000,2701.000000) scale(0.100000,-0.100000)"
fill="#C5C3C1" stroke="none">
<path d="M11791 18368 l-51 -43 0 -4214 c-1 -2581 -4 -4220 -10 -4231 -5 -9
-23 -23 -40 -30 -33 -14 -38 -33 -15 -56 22 -23 18 -53 -8 -63 -21 -8 -24 -16
-26 -70 l-2 -61 156 0 155 0 0 59 c0 33 -4 63 -10 66 -5 3 -10 -2 -10 -12 -1
-17 -2 -17 -15 1 -20 26 -19 55 2 78 16 17 15 19 -3 32 -10 8 -28 21 -38 29
-20 14 -20 69 -20 4286 -1 2349 -4 4271 -8 4271 -3 0 -29 -19 -57 -42z"/>
</g>
</svg>
