<?xml version="1.0" standalone="no"?>
<!DOCTYPE svg PUBLIC "-//W3C//DTD SVG 20010904//EN"
 "http://www.w3.org/TR/2001/REC-SVG-20010904/DTD/svg10.dtd">
<svg version="1.0" xmlns="http://www.w3.org/2000/svg"
 width="2551.000000pt" height="2701.000000pt" viewBox="0 0 2551.000000 2701.000000"
 preserveAspectRatio="xMidYMid meet">
<metadata>
Created by potrace 1.16, written by Peter Selinger 2001-2019
</metadata>
<g transform="translate(0.000000,2701.000000) scale(0.100000,-0.100000)"
fill="#C5C3C1" stroke="none">
<path d="M12962 19332 l-52 -47 0 -3738 0 -3737 -32 -20 c-18 -11 -37 -21 -42
-23 -5 -2 1 -17 13 -34 19 -25 21 -34 12 -51 -6 -11 -20 -24 -32 -27 -17 -6
-20 -14 -18 -53 1 -26 4 -51 6 -57 2 -6 55 -9 136 -9 195 2 177 -2 177 43 0
49 -8 71 -26 71 -34 0 -38 61 -6 86 12 9 10 14 -14 32 -16 12 -35 27 -41 32
-10 9 -13 780 -13 3795 0 2082 -3 3785 -7 3785 -5 0 -32 -22 -61 -48z"/>
</g>
</svg>
