<?xml version="1.0" standalone="no"?>
<!DOCTYPE svg PUBLIC "-//W3C//DTD SVG 20010904//EN"
 "http://www.w3.org/TR/2001/REC-SVG-20010904/DTD/svg10.dtd">
<svg version="1.0" xmlns="http://www.w3.org/2000/svg"
 width="3542.000000pt" height="3750.000000pt" viewBox="0 0 3542.000000 3750.000000"
 preserveAspectRatio="xMidYMid meet">

<g transform="translate(0.000000,3750.000000) scale(0.100000,-0.100000)"
fill="#3a4548" stroke="none">
<path d="M14420 17370 l0 -1260 -35 0 c-29 0 -39 -6 -56 -32 -39 -62 -9 -144
55 -150 29 -3 31 -5 34 -50 2 -37 -3 -58 -27 -100 -46 -82 -71 -187 -72 -300
0 -115 19 -199 67 -286 24 -45 34 -75 34 -107 0 -44 -1 -45 -33 -45 -44 0 -68
-27 -74 -82 -6 -55 22 -95 70 -100 l32 -3 3 -1032 2 -1033 -26 0 c-14 0 -34
-4 -44 -10 -40 -22 -48 -121 -12 -154 10 -8 31 -16 47 -18 28 -3 30 -6 33 -49
2 -33 -4 -59 -23 -97 -67 -134 -92 -299 -65 -434 11 -61 63 -182 81 -194 5 -3
9 -31 9 -63 l0 -57 -34 4 c-28 3 -37 -1 -52 -23 -9 -14 -18 -47 -18 -71 -1
-53 27 -84 75 -84 l29 0 0 -1269 c0 -1108 -2 -1271 -15 -1284 -8 -9 -35 -23
-60 -32 l-45 -18 25 -29 c14 -16 25 -36 25 -45 0 -19 -54 -73 -74 -73 -12 0
-16 -11 -16 -50 0 -27 4 -50 8 -50 4 0 59 -9 121 -21 l113 -20 134 22 134 22
0 48 c0 44 -3 49 -25 55 -27 7 -65 48 -65 70 0 7 11 26 25 42 l25 29 -45 18
c-25 9 -52 23 -60 32 -13 13 -15 176 -15 1289 l0 1274 29 0 c20 0 36 9 50 26
39 50 19 154 -29 154 -59 0 -67 53 -21 146 91 185 93 402 5 571 -26 51 -34 78
-34 119 l0 54 35 0 c49 0 70 37 66 118 -1 32 -36 62 -71 62 l-30 0 0 1030 0
1030 23 0 c57 0 98 71 77 135 -13 39 -35 55 -74 55 -24 0 -26 3 -26 43 0 29
10 62 30 99 90 166 92 400 5 573 -27 54 -35 82 -35 124 0 53 0 53 28 48 36 -7
48 1 67 47 28 66 3 117 -62 131 l-33 7 0 1254 0 1254 -95 0 -95 0 0 -1260z
m125 -1708 c22 -62 31 -226 16 -289 -22 -90 -43 -134 -56 -123 -27 22 -48 147
-43 253 5 101 39 224 58 212 4 -3 16 -26 25 -53z m-7 -3289 c24 -61 32 -112
32 -201 0 -73 -5 -109 -26 -172 -15 -44 -30 -80 -34 -80 -15 0 -39 79 -49 157
-6 51 -7 103 -1 145 10 71 46 178 60 178 4 0 12 -12 18 -27z"/>
</g>
</svg>
