<?xml version="1.0" standalone="no"?>
<!DOCTYPE svg PUBLIC "-//W3C//DTD SVG 20010904//EN"
 "http://www.w3.org/TR/2001/REC-SVG-20010904/DTD/svg10.dtd">
<svg version="1.0" xmlns="http://www.w3.org/2000/svg"
 width="3542.000000pt" height="3750.000000pt" viewBox="0 0 3542.000000 3750.000000"
 preserveAspectRatio="xMidYMid meet">

<g transform="translate(0.000000,3750.000000) scale(0.100000,-0.100000)"
fill="#3a4548" stroke="none">
<path d="M24450 17601 l0 -1130 -32 -3 c-45 -4 -73 -45 -64 -93 9 -48 36 -74
70 -68 25 5 26 4 26 -46 0 -38 -7 -65 -30 -104 -40 -72 -60 -156 -60 -257 0
-99 17 -171 60 -254 18 -36 30 -74 30 -97 0 -36 -2 -39 -28 -39 -88 0 -94
-149 -7 -166 l35 -6 0 -923 0 -924 -32 -3 c-45 -4 -73 -45 -64 -93 9 -48 39
-77 71 -69 24 6 25 5 25 -45 0 -39 -8 -65 -31 -106 -42 -75 -59 -145 -60 -246
0 -103 21 -193 62 -267 21 -38 29 -64 27 -90 -3 -32 -7 -37 -37 -43 -35 -7
-47 -19 -57 -56 -14 -51 27 -113 73 -113 l23 0 2 -317 c7 -1237 6 -1950 -4
-1970 -6 -11 -30 -29 -54 -38 l-44 -17 20 -25 c11 -14 20 -33 20 -43 0 -18
-35 -53 -62 -63 -13 -5 -18 -17 -18 -46 0 -45 -13 -40 160 -65 52 -7 106 -12
120 -10 14 3 50 9 80 15 30 6 65 13 78 15 18 4 22 11 22 45 0 29 -5 41 -17 46
-30 10 -63 45 -63 67 0 11 9 29 20 41 l21 22 -44 17 c-25 9 -50 27 -57 41 -10
19 -12 237 -7 1147 4 618 7 1123 7 1124 0 0 17 6 39 12 61 19 75 75 35 140
-10 15 -24 22 -44 22 -29 0 -30 2 -30 45 0 30 8 58 23 83 90 147 93 359 6 523
-23 43 -30 67 -27 100 3 42 5 44 36 47 64 6 80 108 24 152 -14 12 -34 19 -44
17 -17 -5 -18 37 -18 924 l0 929 28 0 c51 0 81 56 62 115 -13 39 -41 59 -70
50 -33 -11 -27 72 10 138 40 72 60 156 60 257 0 96 -17 164 -61 252 -19 38
-29 73 -29 103 0 43 1 45 28 45 52 0 85 65 62 121 -14 32 -37 49 -69 49 l-21
0 0 1130 0 1130 -90 0 -90 0 0 -1129z m126 -1566 c23 -78 28 -147 15 -219 -12
-66 -38 -136 -51 -136 -9 0 -36 72 -49 130 -20 87 -10 191 26 273 16 36 18 38
30 21 8 -10 20 -41 29 -69z m8 -3026 c20 -83 14 -189 -15 -264 l-22 -60 -23
50 c-37 80 -50 181 -36 265 7 39 19 88 28 108 l16 37 19 -37 c10 -20 26 -65
33 -99z"/>
</g>
</svg>
