<?xml version="1.0" standalone="no"?>
<!DOCTYPE svg PUBLIC "-//W3C//DTD SVG 20010904//EN"
 "http://www.w3.org/TR/2001/REC-SVG-20010904/DTD/svg10.dtd">
<svg version="1.0" xmlns="http://www.w3.org/2000/svg"
 width="3542.000000pt" height="3750.000000pt" viewBox="0 0 3542.000000 3750.000000"
 preserveAspectRatio="xMidYMid meet">

<g transform="translate(0.000000,3750.000000) scale(0.100000,-0.100000)"
fill="#3a4548" stroke="none">
<path d="M29680 17455 l0 -1215 -33 0 c-47 0 -77 -34 -77 -87 0 -56 30 -93 76
-93 l34 0 0 -49 c0 -38 -8 -61 -35 -106 -57 -96 -70 -146 -70 -275 0 -130 16
-195 72 -287 22 -37 33 -68 33 -94 0 -38 -1 -39 -34 -39 -46 0 -76 -37 -76
-95 0 -51 34 -88 80 -88 l30 0 0 -994 0 -993 -40 -6 c-50 -8 -70 -34 -70 -92
0 -58 36 -97 80 -87 l30 7 0 -60 c0 -42 -5 -63 -16 -73 -8 -7 -26 -34 -39 -59
-81 -160 -70 -387 26 -543 16 -28 29 -62 29 -81 0 -31 -3 -34 -42 -42 -35 -7
-46 -15 -60 -45 -31 -63 6 -139 69 -139 l33 0 0 -372 c1 -1722 -1 -2081 -10
-2098 -5 -10 -30 -26 -55 -35 -25 -10 -45 -19 -45 -21 0 -2 9 -13 20 -24 28
-28 25 -64 -6 -89 -15 -12 -33 -21 -40 -21 -10 0 -14 -14 -14 -49 0 -57 -14
-51 174 -76 65 -9 133 -13 150 -10 17 4 61 14 99 22 l67 15 0 49 c0 35 -4 49
-14 49 -7 0 -25 9 -40 21 -32 25 -36 73 -6 91 29 18 25 24 -25 44 -25 9 -50
26 -56 36 -11 20 -15 2430 -4 2448 3 6 17 10 30 10 13 0 36 11 51 23 32 28 35
77 9 127 -13 26 -21 30 -55 30 l-40 0 0 44 c0 34 8 57 31 91 57 84 73 146 74
280 0 136 -15 198 -72 292 -24 40 -33 67 -33 98 0 42 1 43 39 49 50 8 71 36
71 94 0 53 -33 92 -80 92 l-30 0 0 995 0 995 29 0 c46 0 83 38 83 84 0 54 -29
90 -75 94 -36 3 -37 4 -37 47 0 33 8 56 31 90 58 86 74 146 73 285 -1 138 -16
197 -74 291 -21 35 -30 62 -30 93 0 43 1 44 39 50 49 8 71 36 71 91 0 55 -22
83 -71 91 l-39 7 0 1213 0 1214 -95 0 -95 0 0 -1215z m126 -1642 c56 -125 55
-269 -1 -391 l-27 -57 -24 47 c-30 59 -54 157 -54 223 0 78 48 235 72 235 5 0
20 -26 34 -57z m-2 -3212 c38 -85 53 -194 37 -277 -12 -66 -47 -154 -61 -154
-16 0 -60 120 -72 193 -9 60 -9 91 1 144 13 73 44 153 59 153 5 0 21 -26 36
-59z"/>
</g>
</svg>
