<?xml version="1.0" standalone="no"?>
<!DOCTYPE svg PUBLIC "-//W3C//DTD SVG 20010904//EN"
 "http://www.w3.org/TR/2001/REC-SVG-20010904/DTD/svg10.dtd">
<svg version="1.0" xmlns="http://www.w3.org/2000/svg"
 width="3542.000000pt" height="3750.000000pt" viewBox="0 0 3542.000000 3750.000000"
 preserveAspectRatio="xMidYMid meet">

<g transform="translate(0.000000,3750.000000) scale(0.100000,-0.100000)"
fill="#3a4548" stroke="none">
<path d="M10010 17225 l0 -1345 -34 0 c-68 0 -108 -88 -71 -159 16 -32 33 -41
76 -41 29 0 29 -1 29 -55 0 -43 -6 -64 -30 -102 -113 -178 -113 -467 0 -642
24 -38 30 -59 30 -101 l0 -52 -30 5 c-46 10 -81 -26 -87 -89 -6 -62 16 -94 73
-103 l39 -6 3 -1103 2 -1102 -33 0 c-50 0 -82 -38 -82 -100 0 -59 21 -86 76
-95 l39 -7 0 -55 c0 -37 -6 -64 -18 -81 -55 -81 -93 -219 -93 -342 0 -131 27
-231 86 -317 20 -30 25 -50 25 -96 0 -58 0 -59 -25 -53 -35 9 -64 -9 -82 -51
-17 -42 -11 -93 15 -116 9 -8 34 -18 55 -22 l37 -7 0 -1350 c0 -911 -3 -1356
-10 -1369 -6 -10 -14 -19 -19 -19 -5 0 -29 -9 -55 -21 l-47 -20 26 -20 c35
-28 35 -80 -1 -108 -15 -12 -35 -21 -45 -21 -16 0 -19 -8 -19 -54 0 -50 2 -54
28 -59 15 -3 68 -15 119 -26 l92 -20 148 25 c81 14 148 26 149 27 4 4 6 34 5
70 -1 25 -6 37 -15 37 -20 0 -63 40 -71 66 -4 15 2 31 20 52 14 16 25 32 25
34 0 2 -23 12 -51 23 -32 13 -56 29 -64 45 -10 20 -12 293 -11 1375 l1 1350
28 -3 c19 -3 35 5 57 27 58 57 32 171 -38 171 -15 0 -32 4 -38 8 -23 15 -12
73 30 156 108 212 97 488 -25 645 -19 24 -24 75 -13 119 5 17 14 22 39 22 40
0 61 19 73 64 19 69 -8 114 -76 125 l-37 6 1 445 c4 1820 3 1760 19 1754 43
-17 105 47 105 108 0 38 -36 88 -64 88 -73 0 -76 52 -12 180 54 108 70 195 63
334 -5 111 -28 190 -77 269 -25 39 -30 59 -30 108 l0 59 39 0 c31 0 42 5 56
26 25 39 28 84 8 124 -15 28 -26 36 -60 43 l-43 8 0 1340 0 1339 -105 0 -105
0 0 -1345z m133 -1797 c41 -112 52 -254 27 -349 -16 -58 -50 -139 -60 -139
-24 0 -70 170 -70 259 1 91 52 271 78 271 5 0 16 -19 25 -42z m16 -3574 c20
-57 25 -88 25 -174 0 -58 -6 -125 -13 -150 -21 -73 -53 -141 -65 -137 -6 2
-21 29 -34 61 -29 72 -39 198 -23 289 13 78 59 189 75 184 6 -2 22 -35 35 -73z"/>
</g>
</svg>
