<?xml version="1.0" standalone="no"?>
<!DOCTYPE svg PUBLIC "-//W3C//DTD SVG 20010904//EN"
 "http://www.w3.org/TR/2001/REC-SVG-20010904/DTD/svg10.dtd">
<svg version="1.0" xmlns="http://www.w3.org/2000/svg"
 width="2551.000000pt" height="2701.000000pt" viewBox="0 0 2551.000000 2701.000000"
 preserveAspectRatio="xMidYMid meet">

<g transform="translate(0.000000,2701.000000) scale(0.100000,-0.100000)"
fill="#65340A" stroke="none">
<path d="M4743 12534 l-53 -46 0 -1458 c0 -1448 0 -1459 -20 -1493 -18 -30
-19 -39 -8 -62 9 -20 9 -34 0 -56 -11 -31 1 -79 20 -79 4 0 8 -16 8 -35 0 -28
-9 -46 -44 -83 -52 -57 -61 -81 -45 -126 12 -32 10 -37 -29 -96 -23 -34 -42
-72 -42 -83 0 -12 16 -48 36 -81 34 -54 36 -62 25 -91 -21 -58 -14 -80 44
-147 62 -71 71 -111 35 -171 -17 -28 -18 -38 -8 -64 9 -25 9 -38 -1 -59 -11
-24 -10 -31 8 -55 l21 -28 0 -2075 0 -2076 -27 -17 c-16 -9 -35 -26 -44 -37
-16 -18 -15 -22 5 -49 18 -25 19 -30 6 -40 -31 -24 -50 -67 -50 -112 l0 -45
150 0 150 0 20 32 c27 44 28 128 2 128 -9 0 -23 9 -30 20 -11 18 -10 25 9 51
24 34 21 39 -24 55 -21 7 -34 20 -39 40 -5 16 -7 955 -4 2086 4 1852 6 2060
20 2080 19 26 21 59 5 75 -8 8 -7 21 2 47 12 33 11 38 -9 65 -32 43 -28 63 24
123 61 70 77 110 69 165 -5 35 -2 50 20 88 38 64 37 120 -3 185 -24 39 -31 60
-30 98 1 54 -19 97 -71 146 -37 35 -38 57 -9 113 20 37 21 44 9 67 -12 21 -12
30 -1 56 11 28 11 36 -4 60 -15 27 -17 140 -17 1529 0 1166 -3 1501 -12 1501
-7 0 -36 -21 -64 -46z m-43 -3370 c-18 -21 -24 -10 -9 18 8 14 14 18 17 10 2
-7 -2 -19 -8 -28z m102 -71 c15 -15 28 -34 28 -42 -1 -18 -44 -71 -58 -71 -4
0 -23 16 -42 35 l-34 35 34 35 c19 19 36 35 39 35 3 0 18 -12 33 -27z m-92
-175 c0 -8 -16 -30 -36 -49 -34 -33 -36 -33 -50 -15 -19 26 -18 96 2 124 l15
23 35 -35 c19 -19 34 -40 34 -48z m183 30 c4 -18 3 -48 -1 -67 l-7 -34 -29 37
-28 37 23 34 c27 39 35 38 42 -7z m-79 -119 c14 -17 26 -36 26 -43 0 -7 -16
-27 -35 -46 l-35 -34 -35 34 c-19 19 -35 38 -35 44 0 14 62 75 77 76 6 0 23
-14 37 -31z m-125 -145 c23 -29 27 -49 11 -59 -8 -5 -50 62 -50 80 0 13 21 2
39 -21z m133 -46 c-7 -7 -12 -8 -12 -2 0 14 12 26 19 19 2 -3 -1 -11 -7 -17z"/>
</g>
</svg>
