<?xml version="1.0" standalone="no"?>
<!DOCTYPE svg PUBLIC "-//W3C//DTD SVG 20010904//EN"
 "http://www.w3.org/TR/2001/REC-SVG-20010904/DTD/svg10.dtd">
<svg version="1.0" xmlns="http://www.w3.org/2000/svg"
 width="2551.000000pt" height="2701.000000pt" viewBox="0 0 2551.000000 2701.000000"
 preserveAspectRatio="xMidYMid meet">

<g transform="translate(0.000000,2701.000000) scale(0.100000,-0.100000)"
fill="#65340A" stroke="none">
<path d="M17642 23152 l-52 -47 0 -1453 c0 -1433 0 -1453 -20 -1492 -17 -33
-18 -43 -8 -65 9 -21 9 -34 0 -58 -11 -28 -10 -35 8 -59 33 -45 26 -88 -21
-133 -59 -58 -72 -88 -66 -153 5 -47 2 -59 -21 -95 -39 -59 -38 -127 5 -187
27 -40 30 -52 26 -92 -6 -52 12 -90 66 -142 37 -35 40 -70 11 -119 -17 -28
-18 -38 -8 -64 9 -25 9 -38 -1 -59 -11 -24 -10 -31 8 -55 21 -28 21 -29 21
-1614 0 -996 -4 -1593 -10 -1604 -5 -10 -23 -24 -40 -31 -34 -14 -37 -22 -15
-40 8 -7 15 -22 15 -34 0 -23 -33 -66 -50 -66 -6 0 -10 -18 -10 -39 l0 -39 48
-6 c26 -3 101 -4 167 -3 l120 2 3 33 c3 26 -3 39 -27 61 -34 32 -39 57 -16 87
20 27 19 30 -15 44 -17 7 -35 21 -40 31 -6 11 -10 607 -10 1603 0 1563 0 1585
20 1619 17 28 18 38 8 64 -9 24 -9 38 -1 56 9 20 8 30 -8 56 -31 52 -25 87 26
142 51 54 62 87 45 129 -11 27 -9 33 26 82 51 68 52 111 5 185 -27 42 -31 55
-22 71 25 47 14 88 -44 156 -62 73 -71 115 -35 166 16 23 18 32 8 58 -9 23 -9
37 0 57 11 23 10 32 -8 62 -20 34 -20 44 -20 1534 0 824 -3 1499 -7 1499 -5 0
-32 -22 -61 -48z m-42 -3370 c-1 -13 -30 -46 -35 -40 -9 8 17 58 26 52 5 -3 9
-8 9 -12z m139 -33 c11 -33 6 -36 -21 -12 -22 20 -26 72 -4 54 8 -7 19 -25 25
-42z m-62 -71 c18 -18 33 -37 33 -43 0 -6 -16 -26 -35 -45 l-35 -34 -35 34
c-19 19 -35 38 -35 44 0 10 60 76 69 76 3 0 20 -14 38 -32z m-97 -176 c0 -10
-45 -72 -52 -72 -18 0 -28 116 -13 141 6 8 65 -55 65 -69z m204 62 c11 -28 6
-110 -6 -127 -12 -15 -16 -12 -46 23 l-33 40 31 40 c35 44 45 48 54 24z m-105
-149 c17 -20 31 -39 31 -43 0 -5 -16 -23 -35 -42 l-35 -34 -36 36 -37 36 33
41 c19 23 37 41 41 41 4 0 21 -16 38 -35z m35 -170 c-4 -8 -10 -15 -15 -15 -4
0 -6 7 -3 15 4 8 10 15 15 15 4 0 6 -7 3 -15z"/>
</g>
</svg>
