<?xml version="1.0" standalone="no"?>
<!DOCTYPE svg PUBLIC "-//W3C//DTD SVG 20010904//EN"
 "http://www.w3.org/TR/2001/REC-SVG-20010904/DTD/svg10.dtd">
<svg version="1.0" xmlns="http://www.w3.org/2000/svg"
 width="2551.000000pt" height="2701.000000pt" viewBox="0 0 2551.000000 2701.000000"
 preserveAspectRatio="xMidYMid meet">

<g transform="translate(0.000000,2701.000000) scale(0.100000,-0.100000)"
fill="#65340A" stroke="none">
<path d="M21153 26039 l-63 -51 0 -1459 c0 -1426 0 -1459 -19 -1490 -17 -28
-18 -35 -6 -58 11 -22 11 -30 -1 -51 -18 -34 -18 -41 11 -74 36 -42 32 -67
-21 -122 -66 -70 -78 -97 -71 -163 5 -46 2 -61 -20 -98 -36 -61 -33 -121 7
-186 22 -35 30 -61 30 -93 0 -53 10 -76 55 -124 45 -49 49 -75 19 -125 -21
-37 -23 -46 -13 -69 10 -20 10 -32 0 -52 -10 -22 -8 -32 9 -61 20 -35 20 -36
21 -2096 0 -1134 -3 -2069 -6 -2079 -4 -9 -20 -22 -36 -29 -22 -9 -28 -16 -23
-28 4 -9 9 -30 11 -47 4 -27 0 -36 -26 -55 -22 -16 -31 -31 -31 -51 l0 -28
175 0 175 0 0 33 c0 25 -7 39 -30 55 -34 26 -38 56 -12 85 9 11 13 22 7 24 -5
1 -25 12 -42 23 l-33 20 0 2074 c0 2052 0 2075 20 2109 17 28 18 38 8 64 -9
25 -9 38 1 59 11 24 10 31 -8 55 -34 46 -28 85 24 140 46 50 54 75 36 123 -8
21 -4 33 32 82 51 72 53 103 7 173 -30 48 -32 56 -22 85 24 66 16 89 -59 169
-32 35 -39 49 -39 84 0 24 8 56 19 74 15 25 17 36 8 59 -8 21 -8 36 1 55 10
21 9 31 -5 58 -17 30 -18 128 -23 1535 l-5 1502 -62 -51z m90 -3394 c27 -58
22 -74 -13 -40 -29 27 -38 54 -23 68 12 13 19 7 36 -28z m-143 17 c0 -15 -28
-47 -35 -40 -8 8 13 48 25 48 6 0 10 -4 10 -8z m77 -104 c18 -18 33 -36 33
-42 0 -6 -17 -27 -37 -48 l-37 -38 -33 32 c-18 18 -33 39 -33 47 0 14 57 81
69 81 3 0 20 -14 38 -32z m114 -119 c14 -27 6 -106 -13 -125 -12 -13 -19 -9
-47 26 l-33 41 34 39 c39 45 44 47 59 19z m-212 -64 c0 -15 -47 -70 -54 -63
-11 11 -18 86 -10 115 l7 28 29 -35 c15 -19 28 -39 28 -45z m101 -90 l34 -35
-36 -36 -36 -36 -31 28 c-17 15 -31 34 -31 43 0 14 47 71 60 71 3 0 21 -16 40
-35z"/>
</g>
</svg>
