<?xml version="1.0" standalone="no"?>
<!DOCTYPE svg PUBLIC "-//W3C//DTD SVG 20010904//EN"
 "http://www.w3.org/TR/2001/REC-SVG-20010904/DTD/svg10.dtd">
<svg version="1.0" xmlns="http://www.w3.org/2000/svg"
 width="2551.000000pt" height="2701.000000pt" viewBox="0 0 2551.000000 2701.000000"
 preserveAspectRatio="xMidYMid meet">

<g transform="translate(0.000000,2701.000000) scale(0.100000,-0.100000)"
fill="#65340A" stroke="none">
<path d="M24590 26454 c0 -490 0 -496 -21 -526 -20 -27 -20 -33 -9 -69 10 -30
11 -42 2 -51 -18 -18 -14 -46 8 -68 34 -34 26 -75 -24 -131 -59 -66 -83 -127
-68 -176 10 -32 8 -41 -15 -81 -38 -65 -37 -125 5 -192 20 -32 32 -64 32 -86
0 -41 28 -100 64 -133 32 -30 33 -63 4 -118 -20 -37 -21 -44 -8 -68 11 -21 12
-30 2 -45 -17 -27 -15 -43 8 -73 20 -25 20 -40 20 -1610 0 -1751 6 -1598 -62
-1633 -28 -14 -29 -17 -14 -33 26 -29 20 -67 -16 -95 l-33 -26 188 0 c180 0
187 1 187 20 0 11 -4 20 -10 20 -18 0 -50 40 -50 62 0 12 7 30 17 40 9 10 14
19 12 21 -2 1 -21 10 -41 20 l-38 17 0 1600 c0 1483 1 1603 17 1626 14 22 15
31 5 56 -7 20 -8 37 -2 49 15 27 12 54 -10 82 -29 37 -25 62 19 110 46 50 57
84 42 128 -10 29 -8 36 16 67 75 93 77 104 27 185 -36 59 -36 60 -20 93 26 55
20 78 -32 136 -27 29 -54 63 -60 75 -18 33 -14 82 8 110 22 29 26 63 8 81 -9
9 -9 18 0 37 16 35 15 60 -3 75 -13 11 -15 80 -15 506 l0 494 -70 0 -70 0 0
-496z m164 -947 c11 -26 17 -50 13 -54 -4 -3 -22 11 -41 33 -27 31 -32 43 -24
57 14 27 31 16 52 -36z m-170 12 c-21 -24 -29 -18 -14 10 6 12 16 19 21 15 6
-4 4 -13 -7 -25z m89 -171 l-43 -42 -35 34 c-19 19 -35 38 -35 44 0 6 17 27
37 48 l37 38 41 -40 40 -40 -42 -42z m117 -27 c16 -31 12 -96 -8 -121 l-18
-22 -37 37 c-20 20 -37 40 -37 43 0 9 73 82 82 82 4 0 12 -9 18 -19z m-220
-68 c0 -7 -9 -27 -20 -45 l-19 -32 -11 28 c-11 31 -14 99 -3 110 8 8 52 -43
53 -61z m130 -128 c0 -6 -13 -24 -29 -39 l-30 -28 -30 21 c-38 27 -39 44 -5
88 l26 35 34 -33 c19 -18 34 -38 34 -44z"/>
</g>
</svg>
