<?xml version="1.0" standalone="no"?>
<!DOCTYPE svg PUBLIC "-//W3C//DTD SVG 20010904//EN"
 "http://www.w3.org/TR/2001/REC-SVG-20010904/DTD/svg10.dtd">
<svg version="1.0" xmlns="http://www.w3.org/2000/svg"
 width="2551.000000pt" height="2701.000000pt" viewBox="0 0 2551.000000 2701.000000"
 preserveAspectRatio="xMidYMid meet">

<g transform="translate(0.000000,2701.000000) scale(0.100000,-0.100000)"
fill="#65340A" stroke="none">
<path d="M7098 14473 l-58 -46 0 -1458 c0 -1353 -1 -1461 -17 -1494 -14 -30
-15 -41 -5 -67 7 -20 8 -37 2 -49 -14 -26 -12 -55 5 -73 29 -29 18 -74 -30
-128 -52 -58 -62 -86 -47 -135 10 -32 8 -39 -29 -95 -21 -34 -39 -71 -39 -83
0 -11 16 -48 36 -81 33 -54 35 -62 25 -95 -18 -60 -13 -75 44 -137 62 -67 69
-101 38 -167 -14 -29 -15 -41 -6 -66 9 -23 9 -37 1 -55 -10 -20 -8 -32 5 -57
16 -30 17 -169 15 -2112 l-3 -2080 -27 -13 c-38 -18 -56 -52 -34 -64 24 -13
20 -47 -9 -74 -20 -19 -25 -33 -25 -74 l0 -50 154 0 c173 0 166 -3 166 80 0
40 -4 50 -25 64 -28 19 -31 42 -10 70 21 27 19 32 -15 46 -17 7 -35 21 -40 31
-6 11 -10 779 -10 2081 0 2044 0 2065 20 2106 16 33 18 46 9 66 -8 17 -8 33
-1 54 8 24 7 36 -9 61 -30 50 -25 81 22 126 59 58 72 89 66 151 -5 44 -2 57
21 90 17 25 27 56 30 91 4 46 0 59 -26 100 -25 39 -31 58 -30 99 1 57 -18 98
-71 148 -37 35 -40 70 -11 119 17 28 18 38 8 64 -9 24 -9 38 0 58 10 21 9 31
-5 58 -17 30 -18 128 -23 1534 l-5 1503 -57 -47z m-54 -3384 c-24 -27 -30 -15
-9 18 12 17 20 23 23 15 2 -7 -4 -22 -14 -33z m104 -69 c17 -16 32 -34 32 -39
0 -14 -50 -71 -63 -71 -13 0 -67 50 -67 63 0 10 52 75 60 76 3 0 20 -13 38
-29z m-118 -135 l34 -35 -35 -37 c-18 -21 -35 -40 -37 -43 -2 -3 -10 4 -18 14
-24 33 -13 136 14 136 5 0 23 -16 42 -35z m213 -40 c0 -30 -3 -59 -7 -62 -7
-7 -55 45 -56 61 0 5 10 24 21 43 28 45 42 31 42 -42z m-83 -91 l32 -37 -38
-38 -38 -39 -38 37 -38 37 37 38 c20 21 40 38 44 38 4 0 21 -16 39 -36z m-100
-182 c0 -25 -20 -20 -35 7 -25 48 -19 67 10 33 14 -17 25 -35 25 -40z m111 1
c-8 -15 -10 -15 -11 -2 0 17 10 32 18 25 2 -3 -1 -13 -7 -23z"/>
</g>
</svg>
