<?xml version="1.0" standalone="no"?>
<!DOCTYPE svg PUBLIC "-//W3C//DTD SVG 20010904//EN"
 "http://www.w3.org/TR/2001/REC-SVG-20010904/DTD/svg10.dtd">
<svg version="1.0" xmlns="http://www.w3.org/2000/svg"
 width="2551.000000pt" height="2701.000000pt" viewBox="0 0 2551.000000 2701.000000"
 preserveAspectRatio="xMidYMid meet">

<g transform="translate(0.000000,2701.000000) scale(0.100000,-0.100000)"
fill="#65340A" stroke="none">
<path d="M8267 15437 l-47 -42 -1 -1457 c0 -1422 -1 -1457 -20 -1497 -15 -32
-17 -45 -8 -65 9 -18 9 -33 0 -57 -10 -29 -9 -37 9 -61 32 -43 26 -78 -21
-123 -61 -60 -73 -88 -59 -140 12 -41 11 -45 -24 -96 -47 -70 -47 -107 -1
-176 33 -49 34 -53 22 -90 -19 -56 -11 -77 49 -142 61 -66 68 -97 34 -154 -17
-29 -18 -39 -9 -66 9 -24 9 -39 0 -58 -10 -21 -8 -31 8 -59 20 -34 20 -53 21
-1624 l0 -1590 -40 -25 c-42 -27 -49 -45 -25 -65 22 -18 18 -43 -10 -68 -21
-18 -25 -31 -25 -74 l0 -53 142 2 c78 1 148 5 155 7 8 4 13 25 13 60 0 46 -3
56 -25 70 -25 17 -33 50 -15 61 5 3 15 15 20 26 9 16 7 21 -17 30 -15 6 -36
18 -47 27 -18 16 -18 68 -15 1592 3 1502 4 1577 22 1627 14 41 16 57 7 73 -8
16 -8 30 0 55 10 30 9 39 -9 64 -32 44 -26 68 29 128 56 61 76 115 60 159 -9
23 -7 33 14 63 56 80 57 139 6 210 -26 35 -29 46 -24 84 7 52 -16 104 -70 156
-41 40 -45 65 -15 116 18 31 20 39 9 65 -10 24 -10 36 0 60 11 26 10 34 -6 57
-18 27 -19 87 -20 1527 0 883 -5 1501 -10 1503 -5 1 -30 -16 -57 -40z m-47
-3383 c-18 -21 -24 -10 -9 18 8 14 14 18 17 10 2 -7 -2 -19 -8 -28z m109 -78
l33 -34 -35 -39 -36 -38 -35 34 c-20 19 -36 39 -36 45 0 14 51 66 65 66 6 0
26 -15 44 -34z m-131 -127 l34 -40 -34 -38 c-18 -22 -36 -40 -40 -40 -9 -1
-28 57 -28 85 0 25 19 74 29 74 3 0 21 -18 39 -41z m218 -4 c7 -37 -2 -105
-14 -105 -7 0 -52 65 -52 75 0 10 44 65 51 65 5 0 11 -16 15 -35z m-82 -131
l29 -35 -39 -40 -38 -39 -33 32 c-18 18 -33 36 -33 42 0 14 62 76 74 75 6 0
24 -16 40 -35z m-104 -180 c0 -25 -16 -15 -33 21 -9 20 -17 39 -17 43 1 13 50
-49 50 -64z m111 -1 c-8 -15 -10 -15 -11 -2 0 17 10 32 18 25 2 -3 -1 -13 -7
-23z"/>
</g>
</svg>
