<?xml version="1.0" standalone="no"?>
<!DOCTYPE svg PUBLIC "-//W3C//DTD SVG 20010904//EN"
 "http://www.w3.org/TR/2001/REC-SVG-20010904/DTD/svg10.dtd">
<svg version="1.0" xmlns="http://www.w3.org/2000/svg"
 width="2551.000000pt" height="2701.000000pt" viewBox="0 0 2551.000000 2701.000000"
 preserveAspectRatio="xMidYMid meet">

<g transform="translate(0.000000,2701.000000) scale(0.100000,-0.100000)"
fill="#65340A" stroke="none">
<path d="M10613 17365 l-52 -46 -1 -1460 c0 -1257 -2 -1464 -15 -1488 -11 -23
-12 -35 -3 -59 9 -23 9 -37 0 -57 -11 -23 -10 -32 8 -62 32 -54 26 -78 -30
-136 -58 -59 -67 -85 -53 -139 9 -34 7 -42 -24 -88 -51 -76 -52 -99 -8 -172
35 -58 37 -66 27 -102 -13 -52 -3 -78 59 -143 55 -58 60 -81 29 -141 -17 -33
-19 -44 -9 -65 9 -19 9 -34 0 -58 -9 -26 -8 -37 4 -55 12 -19 15 -235 20
-1608 4 -1117 3 -1592 -5 -1606 -6 -11 -24 -27 -40 -35 -33 -17 -38 -36 -15
-55 22 -19 18 -48 -10 -66 -22 -14 -25 -24 -25 -70 l0 -54 38 -1 c20 -1 88 -2
149 -3 l113 -1 0 58 c0 51 -3 61 -27 82 l-28 23 23 31 c12 16 22 33 22 35 0 3
-15 13 -32 22 -18 9 -36 22 -40 28 -4 6 -8 725 -8 1598 0 1463 1 1590 17 1622
13 28 14 41 5 60 -8 18 -8 32 1 56 10 26 9 36 -6 61 -28 50 -22 84 24 131 59
61 72 92 65 149 -6 42 -3 53 24 95 41 64 40 114 -1 179 -26 42 -30 55 -24 91
8 55 -10 97 -64 149 -47 44 -53 82 -24 134 15 25 16 35 6 60 -8 24 -8 38 0 62
10 25 9 35 -6 60 -16 29 -17 124 -17 1530 0 824 -3 1499 -8 1499 -4 0 -31 -20
-59 -45z m-33 -3354 c0 -5 -9 -19 -20 -32 -21 -26 -27 -10 -8 21 13 21 28 27
28 11z m120 -23 c0 -6 -7 -5 -15 2 -8 7 -15 17 -15 22 0 6 7 5 15 -2 8 -7 15
-17 15 -22z m-31 -82 l33 -34 -20 -30 c-41 -57 -49 -59 -87 -22 -19 19 -35 38
-35 44 0 11 60 76 70 76 3 0 21 -15 39 -34z m-100 -171 c0 -5 -15 -27 -34 -49
l-34 -39 -11 27 c-5 15 -10 42 -10 61 0 19 5 46 10 61 l11 27 34 -39 c19 -22
34 -43 34 -49z m195 8 c1 -27 -3 -57 -7 -67 -7 -18 -10 -16 -37 15 -16 19 -29
38 -30 42 0 5 12 24 27 43 32 43 46 33 47 -33z m-97 -95 c18 -18 33 -37 33
-43 0 -6 -16 -26 -35 -45 l-35 -34 -35 34 c-19 19 -35 38 -35 44 0 10 60 76
69 76 3 0 20 -14 38 -32z m-87 -186 c0 -24 -24 -7 -38 29 l-14 34 26 -24 c14
-14 26 -31 26 -39z m110 3 c-7 -9 -15 -13 -18 -10 -3 2 1 11 8 20 7 9 15 13
18 10 3 -2 -1 -11 -8 -20z"/>
</g>
</svg>
