<?xml version="1.0" standalone="no"?>
<!DOCTYPE svg PUBLIC "-//W3C//DTD SVG 20010904//EN"
 "http://www.w3.org/TR/2001/REC-SVG-20010904/DTD/svg10.dtd">
<svg version="1.0" xmlns="http://www.w3.org/2000/svg"
 width="2551.000000pt" height="2701.000000pt" viewBox="0 0 2551.000000 2701.000000"
 preserveAspectRatio="xMidYMid meet">

<g transform="translate(0.000000,2701.000000) scale(0.100000,-0.100000)"
fill="#65340A" stroke="none">
<path d="M11793 18336 l-53 -41 0 -1458 c0 -1116 -3 -1463 -12 -1480 -18 -33
-19 -177 -2 -204 22 -35 17 -76 -12 -104 -73 -67 -99 -132 -73 -181 9 -16 4
-29 -25 -74 -48 -71 -48 -110 -1 -186 29 -47 34 -61 25 -77 -25 -48 1 -114 74
-180 29 -28 34 -69 12 -104 -18 -27 -16 -191 2 -209 9 -9 12 -512 12 -2079 0
-1137 -3 -2074 -6 -2083 -3 -8 -21 -20 -40 -26 -36 -12 -43 -32 -19 -56 22
-23 18 -51 -10 -70 -22 -14 -25 -24 -25 -70 l0 -54 155 0 156 0 -3 58 c-2 42
-7 57 -18 57 -8 0 -19 12 -24 27 -8 22 -6 32 10 49 19 21 19 21 -6 40 -14 11
-33 27 -42 34 -17 14 -18 126 -18 2093 0 1622 3 2081 12 2090 18 18 20 171 2
199 -26 41 -17 72 36 130 57 62 67 91 53 145 -6 21 -6 41 -2 44 5 3 21 26 35
51 35 59 34 111 -5 172 -25 40 -28 53 -24 98 6 59 -10 93 -71 152 -38 37 -48
85 -24 109 18 18 19 171 2 199 -12 19 -14 270 -16 1526 l-3 1505 -52 -42z
m-43 -3363 c0 -5 -9 -19 -20 -33 -21 -26 -27 -12 -10 21 10 19 30 26 30 12z
m117 -8 c9 -25 -4 -29 -17 -6 -7 15 -7 21 0 21 6 0 13 -7 17 -15z m-28 -99
l34 -35 -32 -40 c-18 -23 -35 -41 -37 -41 -9 0 -56 46 -66 64 -8 15 -3 25 23
52 18 19 36 34 39 34 3 0 21 -15 39 -34z m-99 -172 c0 -5 -16 -25 -35 -44
l-34 -33 -11 27 c-13 35 -13 65 1 106 l12 33 33 -39 c18 -22 33 -44 34 -50z
m196 26 c3 -25 1 -58 -5 -73 l-11 -28 -31 35 c-17 20 -29 39 -27 43 13 30 54
81 60 75 4 -4 10 -28 14 -52z m-99 -112 c18 -18 33 -36 33 -41 0 -5 -17 -24
-37 -42 l-36 -32 -34 30 c-18 17 -33 35 -33 41 0 10 60 76 69 76 3 0 20 -14
38 -32z m-101 -155 c22 -30 16 -52 -6 -24 -20 23 -26 41 -14 41 4 0 13 -8 20
-17z m131 -18 c-4 -8 -11 -15 -17 -15 -7 0 -7 6 0 21 13 23 26 19 17 -6z"/>
</g>
</svg>
