<?xml version="1.0" standalone="no"?>
<!DOCTYPE svg PUBLIC "-//W3C//DTD SVG 20010904//EN"
 "http://www.w3.org/TR/2001/REC-SVG-20010904/DTD/svg10.dtd">
<svg version="1.0" xmlns="http://www.w3.org/2000/svg"
 width="2551.000000pt" height="2701.000000pt" viewBox="0 0 2551.000000 2701.000000"
 preserveAspectRatio="xMidYMid meet">

<g transform="translate(0.000000,2701.000000) scale(0.100000,-0.100000)"
fill="#65340A" stroke="none">
<path d="M12961 19299 l-51 -41 0 -1462 c0 -1142 -3 -1465 -12 -1474 -18 -18
-19 -171 -2 -199 27 -43 18 -85 -27 -128 -65 -64 -84 -118 -59 -166 9 -16 4
-30 -25 -77 -45 -74 -45 -108 0 -182 31 -52 34 -61 24 -89 -16 -46 -4 -77 51
-136 56 -58 63 -91 33 -143 -14 -24 -15 -37 -7 -59 6 -18 6 -41 0 -65 -8 -29
-6 -41 7 -62 16 -23 17 -143 17 -1615 l0 -1590 -22 -20 c-12 -12 -30 -23 -40
-27 -19 -6 -25 -24 -8 -24 5 0 14 -9 20 -19 13 -26 -3 -67 -29 -76 -17 -5 -21
-15 -21 -48 0 -23 4 -47 8 -53 4 -7 61 -11 155 -12 l147 -1 0 48 c0 38 -5 52
-25 69 -29 25 -32 48 -9 81 15 21 15 25 2 32 -8 4 -25 16 -37 26 l-22 18 1
1599 c0 1425 2 1602 16 1623 13 20 13 29 3 58 -10 28 -10 39 0 59 12 22 11 29
-8 61 -11 20 -21 45 -21 55 0 10 22 44 50 76 53 61 70 109 53 155 -9 22 -6 32
14 57 35 45 55 100 48 132 -3 15 -20 50 -37 76 -27 43 -29 52 -19 79 16 46 -1
89 -59 151 -56 60 -61 83 -29 139 18 31 20 39 9 65 -10 24 -10 36 0 59 10 25
9 34 -4 53 -14 20 -16 165 -16 1530 0 848 -4 1508 -9 1508 -4 0 -31 -18 -60
-41z m-41 -3361 c-1 -18 -29 -53 -36 -45 -4 3 1 18 10 32 18 28 26 32 26 13z
m130 -42 c0 -5 -7 -3 -15 4 -8 7 -15 22 -15 34 1 20 2 20 15 -4 8 -14 14 -29
15 -34z m-40 -71 l34 -35 -37 -37 -37 -37 -35 34 c-19 19 -35 38 -35 44 0 14
51 66 65 66 6 0 26 -16 45 -35z m-131 -125 l32 -41 -25 -30 c-14 -17 -26 -35
-26 -40 0 -25 -21 -4 -30 31 -9 35 -8 64 6 108 5 18 7 16 43 -28z m228 -22 c3
-23 0 -56 -6 -72 l-11 -28 -31 38 c-32 40 -31 50 4 94 27 34 38 26 44 -32z
m-97 -113 l34 -35 -37 -37 -37 -37 -35 34 c-19 19 -35 36 -35 39 0 9 60 71 69
71 4 0 22 -16 41 -35z m-90 -178 c0 -5 -7 -4 -15 3 -8 7 -15 20 -15 29 1 13 3
13 15 -3 8 -11 15 -24 15 -29z m114 9 c-3 -9 -10 -16 -15 -16 -6 0 -5 9 1 21
13 24 24 20 14 -5z"/>
</g>
</svg>
