<?xml version="1.0" standalone="no"?>
<!DOCTYPE svg PUBLIC "-//W3C//DTD SVG 20010904//EN"
 "http://www.w3.org/TR/2001/REC-SVG-20010904/DTD/svg10.dtd">
<svg version="1.0" xmlns="http://www.w3.org/2000/svg"
 width="2550.000000pt" height="2700.000000pt" viewBox="0 0 2550.000000 2700.000000"
 preserveAspectRatio="xMidYMid meet">

<g transform="translate(0.000000,2700.000000) scale(0.100000,-0.100000)"
fill="#65340A" stroke="none">
<path d="M1850 13000 l0 -590 -85 0 -85 0 2 -2652 3 -2653 60 -3 c33 -1 70 -4
83 -7 l22 -5 -2 -778 -3 -777 -48 -26 c-35 -19 -44 -28 -33 -32 28 -11 31 -55
5 -83 -12 -13 -28 -24 -36 -24 -9 0 -13 -13 -13 -40 0 -37 2 -40 28 -41 15 0
63 -4 107 -8 78 -8 125 -2 248 30 34 9 37 13 37 45 0 24 -5 37 -17 41 -53 18
-67 59 -33 93 19 19 19 21 3 27 -10 3 -33 12 -50 19 l-33 13 0 767 0 766 46
-7 c25 -3 63 -3 85 0 l39 7 0 2659 0 2659 -85 0 -85 0 0 583 c0 440 -3 586
-12 595 -7 7 -40 12 -80 12 l-68 0 0 -590z m198 -1187 l2 -483 -120 0 -120 0
0 485 0 486 118 -3 117 -3 3 -482z m0 -710 l3 -123 -121 0 -120 0 0 125 0 126
118 -3 117 -3 3 -122z m0 -1375 l2 -1148 -120 0 -120 0 0 1150 0 1151 118 -3
117 -3 3 -1147z m0 -1380 l3 -128 -121 0 -120 0 0 130 0 131 118 -3 117 -3 3
-127z m0 -692 l2 -458 -112 7 c-62 4 -116 9 -120 12 -5 2 -8 207 -8 454 l0
450 118 -3 117 -3 3 -459z"/>
</g>
</svg>
