<?xml version="1.0" standalone="no"?>
<!DOCTYPE svg PUBLIC "-//W3C//DTD SVG 20010904//EN"
 "http://www.w3.org/TR/2001/REC-SVG-20010904/DTD/svg10.dtd">
<svg version="1.0" xmlns="http://www.w3.org/2000/svg"
 width="2550.000000pt" height="2700.000000pt" viewBox="0 0 2550.000000 2700.000000"
 preserveAspectRatio="xMidYMid meet">

<g transform="translate(0.000000,2700.000000) scale(0.100000,-0.100000)"
fill="#65340A" stroke="none">
<path d="M2712 13610 l-33 -40 0 -585 c0 -322 -3 -584 -7 -584 -4 1 -35 1 -70
0 l-62 -1 2 -2662 3 -2663 32 -3 c18 -2 48 1 67 7 l35 9 1 -750 c0 -443 -4
-757 -9 -767 -6 -10 -28 -26 -50 -36 -44 -19 -50 -29 -26 -39 9 -3 15 -18 15
-36 0 -24 -7 -35 -35 -51 -29 -17 -35 -27 -35 -54 0 -30 3 -33 38 -39 20 -3
55 -6 78 -6 23 0 56 -5 73 -11 24 -8 38 -9 54 -1 12 7 56 20 97 30 l75 18 3
37 c2 29 -1 39 -15 44 -27 9 -53 34 -53 51 0 9 9 26 21 38 l20 22 -45 15 c-33
11 -55 13 -78 6 -41 -11 -48 -11 -48 1 0 5 15 13 33 18 l32 8 5 769 5 769 35
8 c19 5 52 14 73 19 l37 10 0 2630 0 2631 -75 -4 -75 -3 0 618 0 617 -42 0
c-38 0 -47 -5 -76 -40z m143 -1805 l0 -500 -92 -3 -93 -3 0 500 0 500 58 4
c31 2 73 3 92 3 l35 -1 0 -500z m0 -730 l0 -120 -92 -3 -93 -3 0 120 0 120 58
4 c31 2 73 3 92 3 l35 -1 0 -120z m0 -1380 l0 -1150 -92 -3 -93 -3 0 1150 0
1150 58 4 c31 2 73 3 92 3 l35 -1 0 -1150z m0 -1375 l-1 -115 -92 -3 -92 -3 0
115 0 115 58 4 c31 2 73 3 92 3 l35 -1 0 -115z m0 -645 l0 -420 -51 -16 c-28
-9 -70 -20 -93 -24 l-41 -7 0 441 0 440 58 4 c31 2 73 3 92 3 l35 -1 0 -420z"/>
</g>
</svg>
