<?xml version="1.0" standalone="no"?>
<!DOCTYPE svg PUBLIC "-//W3C//DTD SVG 20010904//EN"
 "http://www.w3.org/TR/2001/REC-SVG-20010904/DTD/svg10.dtd">
<svg version="1.0" xmlns="http://www.w3.org/2000/svg"
 width="2550.000000pt" height="2700.000000pt" viewBox="0 0 2550.000000 2700.000000"
 preserveAspectRatio="xMidYMid meet">

<g transform="translate(0.000000,2700.000000) scale(0.100000,-0.100000)"
fill="#65340A" stroke="none">
<path d="M3429 13616 l-36 -45 1 -570 1 -569 -67 -7 -68 -7 0 -2625 0 -2626
70 6 70 6 0 -742 c-1 -599 -3 -745 -14 -759 -7 -10 -30 -25 -50 -33 l-37 -16
20 -25 c19 -24 19 -28 6 -55 -9 -16 -27 -32 -41 -35 -22 -6 -25 -11 -22 -42
l3 -35 70 -5 c39 -2 88 -7 110 -11 28 -5 68 0 138 17 l97 24 0 37 c0 31 -5 38
-33 51 -36 17 -48 58 -23 80 20 16 20 30 1 30 -9 0 -29 7 -45 15 l-30 16 0
764 0 764 38 10 c20 5 49 13 65 17 27 6 27 7 27 93 0 47 0 725 0 1506 0 781 0
1909 0 2508 l0 1087 -65 0 -65 0 0 610 0 610 -42 0 c-39 0 -47 -5 -79 -44z
m131 -1772 l0 -484 -90 0 -90 0 0 480 0 480 23 5 c27 6 139 11 150 7 4 -2 7
-221 7 -488z m0 -710 l0 -114 -90 0 -90 0 0 110 c0 106 1 110 23 115 27 6 139
11 150 7 4 -2 7 -55 7 -118z m0 -1370 l0 -1144 -90 0 -90 0 0 1140 0 1140 23
5 c27 6 139 11 150 7 4 -2 7 -518 7 -1148z m0 -1360 l0 -104 -90 0 -90 0 0
100 c0 95 1 100 23 105 27 6 139 11 150 7 4 -2 7 -50 7 -108z m0 -639 c0 -300
-3 -426 -11 -431 -19 -12 -152 -43 -161 -38 -4 3 -8 203 -8 444 l0 440 23 5
c27 6 139 11 150 7 4 -2 7 -194 7 -427z"/>
</g>
</svg>
