<?xml version="1.0" standalone="no"?>
<!DOCTYPE svg PUBLIC "-//W3C//DTD SVG 20010904//EN"
 "http://www.w3.org/TR/2001/REC-SVG-20010904/DTD/svg10.dtd">
<svg version="1.0" xmlns="http://www.w3.org/2000/svg"
 width="2550.000000pt" height="2700.000000pt" viewBox="0 0 2550.000000 2700.000000"
 preserveAspectRatio="xMidYMid meet">

<g transform="translate(0.000000,2700.000000) scale(0.100000,-0.100000)"
fill="#65340A" stroke="none">
<path d="M22127 25293 l-47 -49 0 -616 0 -616 -42 -5 c-24 -4 -78 -9 -120 -13
l-78 -6 0 -2824 0 -2824 120 0 120 0 0 -815 c0 -798 0 -815 -20 -835 -11 -11
-31 -22 -45 -26 -29 -7 -31 -16 -10 -34 8 -7 15 -26 15 -42 0 -22 -7 -33 -30
-46 -22 -13 -30 -24 -30 -46 l0 -29 128 6 c70 4 155 7 190 7 55 0 62 2 62 20
0 11 -4 20 -8 20 -5 0 -18 9 -30 20 -26 24 -30 78 -7 86 23 9 18 21 -13 32
-67 23 -62 -43 -62 868 l0 824 73 2 c39 1 89 2 110 3 l37 0 0 2837 c0 2822 0
2837 -20 2843 -11 3 -39 4 -62 1 -24 -3 -64 -8 -90 -11 l-48 -6 -2 658 c-3
650 -3 658 -23 661 -13 2 -37 -14 -68 -45z m193 -1908 c0 -283 -3 -515 -7
-515 -5 0 -80 -7 -168 -15 -88 -8 -166 -15 -172 -15 -10 0 -13 109 -13 510 0
399 3 512 13 515 9 4 196 23 330 34 16 1 17 -30 17 -514z m0 -765 c0 -66 -3
-120 -7 -120 -5 0 -80 -7 -168 -15 -88 -8 -166 -15 -172 -15 -10 0 -13 30 -13
115 0 83 3 117 13 120 9 4 196 23 330 34 15 1 17 -11 17 -119z m0 -1460 c0
-665 -3 -1210 -7 -1210 -5 0 -80 -7 -168 -15 -88 -8 -166 -15 -172 -15 -10 0
-13 248 -13 1205 0 955 3 1207 13 1210 9 4 196 23 330 34 16 1 17 -63 17
-1209z m0 -1460 c0 -66 -3 -120 -7 -120 -5 0 -80 -7 -168 -15 -88 -8 -166 -15
-172 -15 -10 0 -13 30 -13 115 0 83 3 117 13 120 9 4 196 23 330 34 15 1 17
-11 17 -119z m0 -738 l0 -489 -122 -6 c-66 -4 -147 -7 -180 -7 l-58 0 0 475
c0 371 3 477 13 480 9 4 196 23 330 34 16 1 17 -28 17 -487z"/>
</g>
</svg>
