<?xml version="1.0" standalone="no"?>
<!DOCTYPE svg PUBLIC "-//W3C//DTD SVG 20010904//EN"
 "http://www.w3.org/TR/2001/REC-SVG-20010904/DTD/svg10.dtd">
<svg version="1.0" xmlns="http://www.w3.org/2000/svg"
 width="2550.000000pt" height="2700.000000pt" viewBox="0 0 2550.000000 2700.000000"
 preserveAspectRatio="xMidYMid meet">

<g transform="translate(0.000000,2700.000000) scale(0.100000,-0.100000)"
fill="#65340A" stroke="none">
<path d="M13654 14563 c-8 -13 -21 -34 -29 -48 -13 -21 -15 -107 -15 -610 l0
-585 -45 0 -45 0 0 -2800 0 -2800 45 0 45 0 -2 -342 -3 -343 -43 -23 c-40 -22
-42 -25 -28 -41 32 -35 14 -86 -36 -104 -13 -4 -18 -17 -18 -41 0 -19 4 -37 8
-40 5 -3 69 -8 143 -11 115 -6 143 -4 194 12 60 19 60 19 63 61 2 31 -1 42
-11 42 -18 0 -57 42 -57 61 0 8 9 25 20 37 l21 22 -26 10 c-15 6 -30 10 -34
10 -4 0 -15 8 -25 18 -15 17 -16 54 -14 373 l3 353 40 12 40 11 3 2766 2 2767
-45 0 -45 0 0 624 0 624 -46 4 c-40 3 -49 0 -60 -19z m84 -1866 l2 -517 -27
-11 c-16 -6 -39 -11 -53 -12 l-25 -2 0 525 0 525 35 6 c71 13 65 58 68 -514z
m2 -787 l0 -130 -27 -11 c-16 -6 -39 -11 -53 -12 l-25 -2 0 129 0 129 40 13
c68 21 65 26 65 -116z m0 -1460 l0 -1190 -27 -11 c-16 -6 -39 -11 -53 -12
l-25 -2 -1 1182 c-1 859 2 1185 10 1192 13 10 65 29 84 30 9 1 12 -243 12
-1189z m0 -1430 c0 -100 0 -101 -27 -111 -16 -6 -39 -11 -53 -12 l-25 -2 0 99
0 99 40 13 c67 20 65 24 65 -86z m0 -680 l0 -440 -27 -11 c-16 -6 -40 -13 -56
-16 l-27 -6 2 443 3 443 40 13 c22 6 46 12 53 13 9 1 12 -93 12 -439z"/>
</g>
</svg>
