<?xml version="1.0" standalone="no"?>
<!DOCTYPE svg PUBLIC "-//W3C//DTD SVG 20010904//EN"
 "http://www.w3.org/TR/2001/REC-SVG-20010904/DTD/svg10.dtd">
<svg version="1.0" xmlns="http://www.w3.org/2000/svg"
 width="3542.000000pt" height="3750.000000pt" viewBox="0 0 3542.000000 3750.000000"
 preserveAspectRatio="xMidYMid meet">

<g transform="translate(0.000000,3750.000000) scale(0.100000,-0.100000)"
fill="#3a4548" stroke="none">
<path d="M13433 18612 l-63 -3 0 -1274 c0 -1258 0 -1275 -20 -1275 -32 0 -67
-21 -79 -47 -31 -67 4 -143 65 -143 l34 0 0 -48 c0 -35 -9 -67 -34 -116 -93
-185 -93 -413 0 -584 24 -45 34 -75 34 -107 0 -45 0 -45 -35 -45 -48 0 -78
-45 -72 -107 6 -55 20 -72 68 -79 l39 -7 0 -1048 0 -1049 -30 0 c-61 0 -97
-77 -65 -143 13 -28 23 -36 56 -41 39 -6 39 -6 39 -52 0 -32 -11 -69 -34 -118
-49 -103 -66 -178 -66 -292 0 -115 16 -182 65 -279 25 -51 35 -83 35 -117 l0
-48 -35 0 c-41 0 -64 -28 -72 -89 -5 -33 -1 -44 20 -65 17 -17 37 -26 57 -26
l30 0 0 -1284 c0 -706 -3 -1292 -6 -1301 -4 -9 -31 -27 -60 -40 l-54 -24 25
-25 c28 -28 30 -38 13 -69 -15 -28 -38 -46 -61 -47 -15 0 -18 -8 -15 -52 l3
-53 115 -22 115 -23 130 22 c72 12 135 27 140 34 10 11 11 34 6 82 0 6 -7 12
-15 12 -7 0 -25 9 -40 21 -32 25 -35 68 -6 94 28 25 25 32 -15 45 -20 7 -47
22 -60 35 l-25 22 0 1292 0 1291 30 0 c47 0 80 39 80 92 0 58 -21 86 -71 94
-37 6 -39 9 -39 41 0 21 17 69 40 116 94 190 90 434 -10 591 -26 40 -30 56
-28 100 l3 51 38 3 c44 4 67 38 67 100 0 51 -18 73 -66 81 l-39 6 2 1035 c2
569 3 1041 3 1048 0 7 12 12 28 12 44 0 75 40 75 95 0 53 -21 82 -69 91 -54
10 -54 48 -1 157 87 175 88 389 3 562 -28 57 -36 85 -36 128 l0 56 38 3 c31 3
40 9 54 38 13 27 15 44 8 75 -10 45 -32 65 -72 65 -22 0 -28 5 -28 23 -1 12
-1 583 -1 1269 -1 930 -4 1250 -12 1257 -7 5 -23 9 -37 8 -14 -1 -53 -3 -87
-5z m61 -2993 c25 -63 40 -176 32 -249 -8 -72 -45 -191 -61 -194 -21 -3 -48
100 -53 206 -4 96 -2 116 22 193 15 47 31 85 35 85 5 0 16 -18 25 -41z m9
-3385 c23 -61 33 -213 19 -280 -16 -72 -52 -165 -62 -159 -5 3 -19 36 -31 73
-33 98 -31 228 6 340 16 46 33 81 39 79 6 -2 19 -26 29 -53z"/>
</g>
</svg>
