<?xml version="1.0" standalone="no"?>
<!DOCTYPE svg PUBLIC "-//W3C//DTD SVG 20010904//EN"
 "http://www.w3.org/TR/2001/REC-SVG-20010904/DTD/svg10.dtd">
<svg version="1.0" xmlns="http://www.w3.org/2000/svg"
 width="3542.000000pt" height="3750.000000pt" viewBox="0 0 3542.000000 3750.000000"
 preserveAspectRatio="xMidYMid meet">

<g transform="translate(0.000000,3750.000000) scale(0.100000,-0.100000)"
fill="#3a4548" stroke="none">
<path d="M17370 17470 l0 -1200 -21 0 c-32 0 -55 -17 -69 -50 -25 -60 9 -130
62 -130 27 0 28 -2 28 -45 0 -29 -9 -64 -26 -96 -83 -165 -85 -398 -4 -559 20
-40 30 -74 30 -105 0 -42 -2 -46 -22 -45 -43 4 -49 0 -64 -37 -28 -67 3 -133
63 -133 l23 0 0 -985 0 -985 -28 0 c-43 0 -67 -33 -67 -92 0 -40 5 -53 24 -69
13 -10 34 -19 47 -19 22 0 24 -4 24 -43 0 -28 -10 -65 -30 -103 -81 -164 -79
-416 5 -560 18 -30 25 -57 25 -93 0 -50 -1 -51 -25 -45 -33 8 -52 -9 -65 -56
-14 -51 3 -98 38 -106 15 -3 33 -7 40 -10 9 -3 12 -254 12 -1211 0 -664 -4
-1213 -8 -1219 -4 -6 -29 -21 -56 -33 l-49 -21 21 -23 c37 -39 25 -85 -28
-107 -27 -11 -30 -17 -30 -56 0 -50 -7 -46 138 -69 93 -14 111 -14 195 0 160
27 147 21 147 71 0 37 -4 46 -22 53 -58 22 -74 85 -28 113 18 11 14 15 -38 43
l-57 30 0 1220 c0 1077 2 1220 15 1221 8 1 23 2 33 2 25 3 50 67 42 108 -8 43
-29 64 -66 64 -27 0 -29 3 -29 38 0 23 12 64 29 98 87 178 88 404 2 559 -21
37 -28 63 -27 100 1 48 2 50 27 47 38 -4 69 38 69 92 0 53 -16 76 -60 85 l-35
7 -3 982 -3 982 28 0 c15 0 33 4 39 8 34 23 45 102 19 139 -9 13 -28 23 -48
25 -29 3 -32 6 -35 40 -2 26 5 51 22 80 45 79 69 182 70 298 0 116 -15 183
-65 282 -19 38 -29 73 -29 103 0 44 0 45 34 45 42 0 57 18 64 75 6 58 -15 92
-60 97 l-33 3 -2 1030 c-2 567 -3 1105 -3 1198 l0 167 -90 0 -90 0 0 -1200z
m126 -1677 c12 -55 15 -99 11 -157 -6 -81 -33 -186 -48 -186 -13 0 -37 92 -44
167 -9 96 29 274 55 258 5 -3 16 -40 26 -82z m5 -3187 c6 -38 9 -101 6 -140
-5 -75 -35 -181 -52 -181 -20 0 -38 91 -37 195 0 78 6 123 22 175 21 67 23 68
35 45 8 -14 19 -56 26 -94z"/>
</g>
</svg>
