<?xml version="1.0" standalone="no"?>
<!DOCTYPE svg PUBLIC "-//W3C//DTD SVG 20010904//EN"
 "http://www.w3.org/TR/2001/REC-SVG-20010904/DTD/svg10.dtd">
<svg version="1.0" xmlns="http://www.w3.org/2000/svg"
 width="3542.000000pt" height="3750.000000pt" viewBox="0 0 3542.000000 3750.000000"
 preserveAspectRatio="xMidYMid meet">

<g transform="translate(0.000000,3750.000000) scale(0.100000,-0.100000)"
fill="#3a4548" stroke="none">
<path d="M23490 17625 l0 -1115 -29 0 c-37 0 -61 -31 -61 -80 0 -49 24 -80 61
-80 28 0 29 -2 29 -48 0 -35 -8 -64 -30 -103 -54 -101 -74 -242 -49 -361 6
-29 26 -85 45 -125 19 -39 34 -87 34 -106 0 -32 -3 -35 -35 -41 -41 -8 -55
-30 -55 -84 0 -44 32 -82 68 -82 l22 0 -2 -912 -3 -911 -24 -4 c-41 -6 -61
-32 -61 -77 0 -54 22 -86 61 -86 29 0 29 -1 29 -54 0 -30 -4 -57 -9 -60 -19
-12 -61 -118 -72 -182 -21 -121 4 -275 61 -371 11 -19 20 -52 20 -74 0 -37 -2
-39 -29 -39 -38 0 -61 -32 -61 -85 0 -46 31 -85 67 -85 19 0 20 -7 26 -512 11
-854 8 -1731 -6 -1748 -7 -9 -31 -24 -55 -34 l-42 -19 21 -23 c28 -30 21 -64
-18 -89 -28 -17 -32 -26 -33 -62 0 -29 4 -43 13 -43 8 0 60 -7 118 -16 97 -15
111 -15 207 1 l102 18 0 41 c-1 35 -5 44 -33 61 -39 25 -47 65 -18 94 19 19
19 19 -30 40 -36 16 -50 28 -55 48 -4 14 -4 521 -1 1126 6 1159 4 1116 48
1117 27 0 49 34 49 76 0 52 -22 82 -62 86 -32 3 -33 4 -29 47 1 24 13 61 26
81 36 57 56 128 62 220 6 102 -11 186 -60 288 -40 85 -41 142 -1 142 13 0 33
9 44 20 43 43 11 150 -45 150 -17 0 -24 6 -26 28 -3 22 -3 1661 0 1770 1 29 4
32 30 32 37 0 61 31 61 80 0 48 -23 78 -63 82 -31 3 -32 5 -30 43 1 21 16 65
33 96 80 150 77 351 -7 509 -41 76 -35 140 13 140 35 0 53 26 53 75 0 50 -18
75 -60 84 l-33 7 0 1109 -1 1110 -87 3 -88 3 0 -1116z m120 -1533 c35 -119 32
-230 -9 -325 l-19 -42 -21 46 c-29 65 -42 170 -31 251 11 76 38 151 51 142 5
-3 18 -35 29 -72z m-10 -2919 c42 -109 43 -245 4 -343 -19 -46 -24 -44 -48 19
-39 100 -38 254 1 344 9 20 17 37 19 37 1 0 12 -26 24 -57z"/>
</g>
</svg>
