<?xml version="1.0" standalone="no"?>
<!DOCTYPE svg PUBLIC "-//W3C//DTD SVG 20010904//EN"
 "http://www.w3.org/TR/2001/REC-SVG-20010904/DTD/svg10.dtd">
<svg version="1.0" xmlns="http://www.w3.org/2000/svg"
 width="3542.000000pt" height="3750.000000pt" viewBox="0 0 3542.000000 3750.000000"
 preserveAspectRatio="xMidYMid meet">

<g transform="translate(0.000000,3750.000000) scale(0.100000,-0.100000)"
fill="#3a4548" stroke="none">
<path d="M32004 18641 c-2 -2 -4 -566 -4 -1251 l0 -1247 -39 -7 c-71 -11 -98
-71 -65 -142 17 -35 48 -51 84 -41 18 5 20 0 20 -51 0 -46 -6 -65 -30 -100
-112 -166 -114 -406 -5 -587 28 -46 35 -68 33 -100 -3 -38 -5 -40 -38 -43 -44
-4 -68 -26 -76 -69 -12 -65 27 -117 88 -115 l28 1 -2 -1027 -3 -1027 -39 -6
c-72 -12 -97 -79 -56 -146 17 -28 25 -33 60 -33 l40 0 0 -55 c0 -46 -6 -63
-38 -114 -105 -162 -103 -399 4 -578 42 -69 48 -133 12 -133 -63 -1 -98 -36
-98 -99 0 -45 44 -91 86 -91 l34 0 1 -422 c3 -1536 1 -2106 -9 -2125 -6 -11
-32 -28 -57 -37 -25 -10 -45 -20 -45 -22 0 -2 9 -13 20 -24 37 -37 15 -98 -42
-116 -14 -4 -18 -16 -18 -55 0 -27 4 -49 10 -49 5 0 73 -9 151 -20 l141 -21
99 22 99 22 0 47 c0 43 -3 49 -30 60 -16 7 -35 18 -41 26 -18 22 -13 63 10 88
l22 23 -55 23 c-33 13 -58 30 -61 41 -11 33 -2 2503 8 2517 5 6 20 12 32 12
32 0 72 35 80 70 7 30 -16 93 -39 107 -6 4 -26 7 -45 8 -33 0 -35 2 -37 40 -1
31 7 54 35 100 65 105 84 173 83 301 -1 113 -42 241 -104 325 -14 18 -19 38
-16 65 4 37 6 40 48 50 36 8 48 17 63 45 32 63 -5 136 -73 142 l-35 3 0 1024
0 1025 38 6 c61 10 85 44 78 114 -1 11 -10 31 -20 44 -15 19 -27 24 -60 23
l-41 -2 0 44 c0 34 8 56 34 95 66 97 80 150 81 296 0 146 -14 199 -80 306 -25
41 -34 67 -33 95 1 45 10 54 55 54 40 0 65 34 67 90 1 51 -33 90 -80 90 -23 0
-34 5 -38 18 -2 9 -5 572 -5 1251 0 678 -2 1235 -4 1237 -5 6 -178 10 -183 5z
m121 -2921 c52 -102 67 -220 44 -332 -12 -56 -54 -148 -68 -148 -13 0 -60 104
-72 161 -6 29 -9 94 -7 145 4 75 11 104 36 158 17 36 33 66 36 66 3 0 17 -22
31 -50z m9 -3336 c44 -96 56 -198 36 -303 -11 -58 -50 -143 -65 -144 -16 0
-52 74 -70 142 -30 118 -12 285 41 360 19 27 22 24 58 -55z"/>
</g>
</svg>
