<?xml version="1.0" standalone="no"?>
<!DOCTYPE svg PUBLIC "-//W3C//DTD SVG 20010904//EN"
 "http://www.w3.org/TR/2001/REC-SVG-20010904/DTD/svg10.dtd">
<svg version="1.0" xmlns="http://www.w3.org/2000/svg"
 width="3542.000000pt" height="3750.000000pt" viewBox="0 0 3542.000000 3750.000000"
 preserveAspectRatio="xMidYMid meet">

<g transform="translate(0.000000,3750.000000) scale(0.100000,-0.100000)"
fill="#3a4548" stroke="none">
<path d="M33218 17358 l-3 -1273 -25 -3 c-55 -6 -70 -14 -86 -44 -18 -34 -13
-77 11 -115 12 -18 25 -23 60 -23 l45 0 0 -51 c0 -43 -6 -62 -36 -106 -123
-185 -115 -453 18 -633 13 -19 18 -39 16 -66 -3 -38 -4 -39 -47 -45 -112 -15
-107 -171 7 -186 l42 -6 0 -1038 0 -1039 -41 -6 c-61 -10 -84 -34 -84 -86 0
-25 8 -55 19 -70 15 -24 25 -28 62 -28 l44 0 0 -53 c0 -43 -6 -60 -35 -101
-119 -168 -120 -411 -2 -607 38 -63 48 -129 20 -130 -68 -3 -99 -25 -109 -77
-12 -64 36 -122 101 -122 l25 0 -3 -1292 -2 -1293 -58 -31 c-51 -27 -56 -32
-42 -44 46 -38 37 -90 -20 -117 -33 -16 -35 -20 -35 -65 0 -26 5 -48 10 -48 6
0 54 -6 108 -14 194 -29 207 -29 302 -6 l90 22 0 47 c0 44 -2 48 -35 64 -60
28 -66 84 -15 120 19 13 18 15 -27 32 -27 10 -56 25 -66 33 -16 14 -17 84 -15
1296 l3 1280 42 9 c57 11 87 48 80 100 -7 54 -41 87 -89 87 l-38 0 0 45 c0 35
8 55 40 101 115 165 113 414 -5 606 -25 40 -35 68 -35 96 0 41 0 41 46 48 37
5 50 13 65 38 23 38 24 69 2 106 -18 31 -51 50 -88 50 l-25 0 0 1040 0 1040
28 5 c83 17 110 47 98 110 -11 55 -36 79 -84 77 l-42 -2 0 47 c0 33 7 55 24
77 68 90 100 197 99 331 -1 105 -29 201 -88 296 -29 48 -36 67 -33 101 3 37 6
43 28 46 56 6 68 13 85 48 33 71 -8 144 -81 144 l-34 0 0 1275 0 1275 -95 0
-95 0 -2 -1272z m127 -1698 c42 -82 58 -164 52 -260 -5 -84 -31 -173 -63 -215
-15 -20 -15 -20 -33 4 -54 72 -84 240 -61 353 12 64 57 168 71 168 5 0 20 -23
34 -50z m9 -3389 c57 -128 60 -284 7 -398 -17 -34 -34 -63 -40 -63 -13 0 -59
97 -76 161 -28 102 -15 232 31 327 31 63 39 60 78 -27z"/>
</g>
</svg>
