<?xml version="1.0" standalone="no"?>
<!DOCTYPE svg PUBLIC "-//W3C//DTD SVG 20010904//EN"
 "http://www.w3.org/TR/2001/REC-SVG-20010904/DTD/svg10.dtd">
<svg version="1.0" xmlns="http://www.w3.org/2000/svg"
 width="2551.000000pt" height="2701.000000pt" viewBox="0 0 2551.000000 2701.000000"
 preserveAspectRatio="xMidYMid meet">

<g transform="translate(0.000000,2701.000000) scale(0.100000,-0.100000)"
fill="#65340A" stroke="none">
<path d="M19993 25091 l-63 -52 -2 -567 -3 -567 -130 3 c-71 1 -136 -1 -142
-6 -10 -6 -13 -588 -13 -2796 -1 -1534 2 -2791 5 -2795 6 -6 92 -10 218 -11
l67 0 0 -346 c0 -218 -4 -352 -10 -365 -6 -10 -24 -26 -40 -34 -28 -14 -28
-16 -14 -45 19 -37 10 -68 -22 -82 -18 -9 -24 -19 -24 -45 l0 -33 175 0 175 0
0 35 c0 24 -6 37 -20 45 -34 18 -43 47 -26 82 9 17 16 32 16 32 0 1 -16 10
-35 20 -20 11 -38 29 -41 40 -2 12 -3 172 -2 356 l3 335 140 3 c76 1 142 7
145 11 8 13 6 5578 -2 5586 -4 4 -69 8 -145 8 l-138 2 -5 619 -5 619 -62 -52z
m227 -3991 l0 -2680 -225 0 -225 0 0 2680 0 2680 225 0 225 0 0 -2680z"/>
</g>
</svg>
