<?xml version="1.0" standalone="no"?>
<!DOCTYPE svg PUBLIC "-//W3C//DTD SVG 20010904//EN"
 "http://www.w3.org/TR/2001/REC-SVG-20010904/DTD/svg10.dtd">
<svg version="1.0" xmlns="http://www.w3.org/2000/svg"
 width="2551.000000pt" height="2701.000000pt" viewBox="0 0 2551.000000 2701.000000"
 preserveAspectRatio="xMidYMid meet">

<g transform="translate(0.000000,2701.000000) scale(0.100000,-0.100000)"
fill="#65340A" stroke="none">
<path d="M21158 26052 l-56 -47 -4 -590 -3 -590 -134 -3 c-74 -1 -139 -7 -145
-11 -10 -8 -14 -2946 -7 -5133 l1 -458 145 0 145 0 0 -804 c0 -442 -3 -811 -6
-820 -3 -9 -21 -25 -40 -37 -30 -18 -32 -22 -19 -35 8 -9 15 -26 15 -40 0 -24
-31 -64 -50 -64 -5 0 -10 -16 -10 -35 l0 -35 175 0 175 0 0 34 c0 25 -6 38
-24 50 -33 21 -40 49 -22 84 15 28 14 29 -19 45 -20 9 -37 26 -40 39 -3 13 -4
381 -3 818 l3 795 143 3 142 3 1 772 c1 424 2 1683 3 2797 l1 2025 -148 3
-147 3 0 639 c0 352 -3 640 -7 639 -5 0 -34 -21 -65 -47z m230 -4039 l-3
-2678 -222 -3 -223 -2 0 2680 0 2680 225 0 225 0 -2 -2677z"/>
</g>
</svg>
