<?xml version="1.0" standalone="no"?>
<!DOCTYPE svg PUBLIC "-//W3C//DTD SVG 20010904//EN"
 "http://www.w3.org/TR/2001/REC-SVG-20010904/DTD/svg10.dtd">
<svg version="1.0" xmlns="http://www.w3.org/2000/svg"
 width="2551.000000pt" height="2701.000000pt" viewBox="0 0 2551.000000 2701.000000"
 preserveAspectRatio="xMidYMid meet">

<g transform="translate(0.000000,2701.000000) scale(0.100000,-0.100000)"
fill="#65340A" stroke="none">
<path d="M22273 26968 c-4 -7 -8 -265 -8 -573 l0 -560 -134 -3 c-79 -1 -140
-7 -148 -14 -11 -9 -13 -506 -13 -2798 l0 -2787 55 -6 c31 -3 96 -3 145 0 51
3 90 2 91 -3 5 -46 3 -684 -2 -700 -4 -12 -24 -31 -44 -43 -35 -20 -36 -23
-21 -40 27 -29 20 -69 -14 -89 -16 -9 -30 -25 -30 -34 0 -16 12 -18 115 -19
261 -2 245 -4 245 30 0 20 -6 30 -20 34 -11 3 -25 17 -31 31 -11 23 -9 31 9
55 l21 29 -30 13 c-61 25 -59 10 -59 385 l0 344 139 0 c80 0 142 4 146 10 5 7
11 5404 6 5563 l-1 37 -145 0 -145 0 0 575 0 575 -59 0 c-37 0 -63 -5 -68 -12z
m282 -3948 l0 -2675 -220 0 -220 0 -3 2678 -2 2677 222 -2 223 -3 0 -2675z"/>
</g>
</svg>
