<?xml version="1.0" standalone="no"?>
<!DOCTYPE svg PUBLIC "-//W3C//DTD SVG 20010904//EN"
 "http://www.w3.org/TR/2001/REC-SVG-20010904/DTD/svg10.dtd">
<svg version="1.0" xmlns="http://www.w3.org/2000/svg"
 width="2551.000000pt" height="2701.000000pt" viewBox="0 0 2551.000000 2701.000000"
 preserveAspectRatio="xMidYMid meet">

<g transform="translate(0.000000,2701.000000) scale(0.100000,-0.100000)"
fill="#65340A" stroke="none">
<path d="M23428 26863 l-3 -117 -125 1 c-69 0 -133 -3 -142 -8 -17 -9 -18
-153 -18 -2799 l0 -2790 145 0 145 0 -2 -822 -3 -822 -38 -22 c-33 -18 -36
-23 -22 -34 22 -18 19 -66 -7 -90 -12 -11 -26 -20 -31 -20 -4 0 -7 -10 -5 -22
3 -23 4 -23 180 -23 l178 0 0 31 c0 23 -5 33 -20 37 -11 3 -25 17 -32 32 -10
23 -9 32 5 57 l17 29 -34 14 c-18 8 -36 22 -40 30 -3 9 -6 379 -6 821 l0 805
140 -2 c77 -1 143 0 145 3 6 6 8 5579 2 5585 -3 2 -67 5 -143 6 l-139 2 -3
118 -3 117 -69 0 -69 0 -3 -117z m292 -2155 c1 -1982 0 -3387 0 -3425 l0 -23
-220 0 -220 0 0 2675 0 2675 220 0 220 0 0 -1902z"/>
</g>
</svg>
