<?xml version="1.0" standalone="no"?>
<!DOCTYPE svg PUBLIC "-//W3C//DTD SVG 20010904//EN"
 "http://www.w3.org/TR/2001/REC-SVG-20010904/DTD/svg10.dtd">
<svg version="1.0" xmlns="http://www.w3.org/2000/svg"
 width="2551.000000pt" height="2701.000000pt" viewBox="0 0 2551.000000 2701.000000"
 preserveAspectRatio="xMidYMid meet">

<g transform="translate(0.000000,2701.000000) scale(0.100000,-0.100000)"
fill="#65340A" stroke="none">
<path d="M8268 15441 l-58 -46 0 -572 0 -573 -145 0 -145 0 0 -2812 0 -2811
145 7 145 7 0 -355 0 -356 -27 -17 c-50 -30 -54 -42 -30 -75 l22 -30 -30 -24
c-26 -21 -29 -29 -30 -80 l0 -57 146 0 c81 0 152 3 158 7 6 4 11 33 11 65 0
52 -3 59 -25 69 -25 12 -34 45 -15 57 5 3 15 15 20 25 9 17 5 22 -30 40 -23
12 -42 30 -45 43 -3 12 -4 171 -3 352 l3 330 145 5 145 5 3 2802 2 2802 -147
3 -148 3 -2 614 c-1 337 -3 615 -5 616 -2 1 -29 -18 -60 -44z m239 -3998 l2
-2683 -234 0 -235 0 0 2685 0 2685 233 -2 232 -3 2 -2682z"/>
</g>
</svg>
