<?xml version="1.0" standalone="no"?>
<!DOCTYPE svg PUBLIC "-//W3C//DTD SVG 20010904//EN"
 "http://www.w3.org/TR/2001/REC-SVG-20010904/DTD/svg10.dtd">
<svg version="1.0" xmlns="http://www.w3.org/2000/svg"
 width="3542.000000pt" height="3750.000000pt" viewBox="0 0 3542.000000 3750.000000"
 preserveAspectRatio="xMidYMid meet">

<g transform="translate(0.000000,3750.000000) scale(0.100000,-0.100000)"
fill="#65340A" stroke="none">
<path d="M15449 18608 c0 -24 0 -316 0 -650 0 -458 -3 -609 -12 -615 -6 -4
-65 -9 -129 -11 l-118 -4 0 -3529 0 -3529 23 -5 c42 -9 72 -9 144 -1 40 4 76
6 79 5 8 -5 8 -1071 0 -1096 -4 -11 -29 -29 -61 -42 l-55 -23 25 -20 c34 -27
33 -70 -1 -97 -15 -12 -33 -21 -40 -21 -10 0 -14 -14 -14 -49 l0 -49 118 -22
117 -21 125 21 c68 12 126 23 130 25 3 2 7 22 8 44 3 38 0 42 -36 60 -57 29
-66 91 -16 119 12 7 3 15 -43 38 l-58 29 0 570 0 570 75 11 c41 6 96 14 123
18 l47 7 0 3505 0 3505 -122 -2 -123 -1 -3 651 -2 651 -90 0 -90 0 -1 -42z
m241 -4768 l0 -3369 -32 -6 c-112 -19 -227 -35 -250 -35 l-28 0 0 3385 0 3384
78 4 c42 1 112 4 155 5 l77 2 0 -3370z"/>
</g>
</svg>
