<?xml version="1.0" standalone="no"?>
<!DOCTYPE svg PUBLIC "-//W3C//DTD SVG 20010904//EN"
 "http://www.w3.org/TR/2001/REC-SVG-20010904/DTD/svg10.dtd">
<svg version="1.0" xmlns="http://www.w3.org/2000/svg"
 width="3542.000000pt" height="3750.000000pt" viewBox="0 0 3542.000000 3750.000000"
 preserveAspectRatio="xMidYMid meet">

<g transform="translate(0.000000,3750.000000) scale(0.100000,-0.100000)"
fill="#65340A" stroke="none">
<path d="M18306 18066 l2 -624 -37 -6 c-20 -3 -71 -6 -113 -6 l-78 0 -1 -1802
c-2 -3044 1 -4931 8 -4941 4 -6 47 -8 114 -4 l109 7 0 -520 c0 -477 -1 -521
-17 -540 -10 -11 -20 -20 -24 -20 -4 0 -23 -7 -42 -15 l-36 -15 24 -25 c14
-13 25 -30 25 -37 0 -22 -30 -59 -56 -68 -20 -8 -24 -16 -24 -55 0 -36 4 -45
18 -46 20 -1 47 -5 117 -19 73 -15 119 -14 225 4 52 9 98 16 103 16 4 0 7 23
7 50 0 38 -4 50 -15 50 -21 0 -65 45 -65 65 0 9 11 27 24 40 l25 25 -45 19
c-80 36 -74 -12 -74 584 l0 535 23 5 c12 3 64 11 115 18 l92 12 0 3350 0 3350
-110 -5 -110 -6 0 37 c-1 20 -1 300 -1 624 l1 587 -93 0 -92 0 1 -624z m224
-3428 c0 -2378 0 -3662 0 -3738 0 -25 -2 -26 -131 -43 -73 -10 -134 -15 -137
-13 -2 3 -4 346 -4 763 1 417 1 1871 2 3231 l0 2472 135 0 135 0 0 -2672z"/>
</g>
</svg>
