<?xml version="1.0" standalone="no"?>
<!DOCTYPE svg PUBLIC "-//W3C//DTD SVG 20010904//EN"
 "http://www.w3.org/TR/2001/REC-SVG-20010904/DTD/svg10.dtd">
<svg version="1.0" xmlns="http://www.w3.org/2000/svg"
 width="3542.000000pt" height="3750.000000pt" viewBox="0 0 3542.000000 3750.000000"
 preserveAspectRatio="xMidYMid meet">

<g transform="translate(0.000000,3750.000000) scale(0.100000,-0.100000)"
fill="#65340A" stroke="none">
<path d="M23480 18160 l0 -590 -115 0 c-63 0 -115 -3 -116 -7 -5 -52 -8 -5320
-3 -5739 l6 -572 114 -13 114 -12 -2 -516 -3 -516 -51 -25 -51 -25 26 -21 c22
-19 24 -25 16 -50 -6 -17 -23 -35 -42 -44 -29 -13 -33 -20 -33 -56 l0 -41 125
-17 c117 -15 131 -15 225 1 l100 17 0 42 c0 37 -3 43 -31 54 -52 22 -59 82
-13 108 13 7 7 13 -30 27 -26 10 -51 26 -56 36 -6 10 -10 216 -10 508 l0 490
118 -2 117 -2 3 3183 2 3182 -104 0 c-57 0 -111 3 -120 6 -14 6 -16 67 -16
595 l0 589 -85 0 -85 0 0 -590z m183 -720 l57 0 0 -3055 0 -3054 -27 4 c-16 2
-68 9 -118 15 -49 6 -106 13 -125 16 l-35 5 0 3032 c1 1668 2 3036 3 3041 1 4
44 6 95 3 50 -4 118 -6 150 -7z"/>
</g>
</svg>
