<?xml version="1.0" standalone="no"?>
<!DOCTYPE svg PUBLIC "-//W3C//DTD SVG 20010904//EN"
 "http://www.w3.org/TR/2001/REC-SVG-20010904/DTD/svg10.dtd">
<svg version="1.0" xmlns="http://www.w3.org/2000/svg"
 width="3542.000000pt" height="3750.000000pt" viewBox="0 0 3542.000000 3750.000000"
 preserveAspectRatio="xMidYMid meet">

<g transform="translate(0.000000,3750.000000) scale(0.100000,-0.100000)"
fill="#65340A" stroke="none">
<path d="M24440 18140 l0 -600 -120 6 -120 7 0 -3206 0 -3207 23 -4 c20 -5
193 -26 210 -26 9 0 9 -1031 -1 -1046 -4 -6 -28 -19 -53 -28 l-46 -18 23 -23
c13 -13 24 -31 24 -40 0 -20 -44 -65 -65 -65 -11 0 -15 -11 -15 -45 0 -50 -17
-42 157 -70 85 -13 100 -12 189 5 52 10 97 20 100 22 14 14 7 88 -9 88 -21 0
-57 39 -57 62 0 12 9 32 21 44 l20 22 -46 17 c-25 10 -50 26 -55 36 -10 17
-15 1001 -6 1010 3 3 43 0 89 -5 46 -5 100 -6 120 -2 l37 7 0 3224 0 3225 -72
0 c-40 0 -97 3 -125 6 l-53 7 0 598 0 599 -85 0 -85 0 0 -600z m129 -727 l122
-6 -3 -3094 -3 -3095 -45 5 c-25 2 -96 10 -157 17 l-113 13 0 3084 0 3083 38
0 c22 0 94 -3 161 -7z"/>
</g>
</svg>
