<?xml version="1.0" standalone="no"?>
<!DOCTYPE svg PUBLIC "-//W3C//DTD SVG 20010904//EN"
 "http://www.w3.org/TR/2001/REC-SVG-20010904/DTD/svg10.dtd">
<svg version="1.0" xmlns="http://www.w3.org/2000/svg"
 width="3542.000000pt" height="3750.000000pt" viewBox="0 0 3542.000000 3750.000000"
 preserveAspectRatio="xMidYMid meet">

<g transform="translate(0.000000,3750.000000) scale(0.100000,-0.100000)"
fill="#65340A" stroke="none">
<path d="M4960 17746 l0 -764 -22 -6 c-13 -3 -89 -6 -170 -6 l-148 0 0 -4119
c0 -3915 1 -4120 18 -4125 53 -15 88 -14 197 3 66 10 121 18 123 16 6 -6 4
-1264 -3 -1284 -3 -11 -30 -30 -68 -46 l-63 -28 28 -28 c15 -15 28 -38 28 -52
0 -29 -42 -75 -73 -79 -19 -3 -22 -10 -25 -60 l-3 -57 38 -10 c21 -6 73 -19
116 -30 l79 -20 166 30 c92 16 170 29 175 29 4 0 7 27 7 60 0 52 -3 60 -19 60
-10 0 -30 9 -45 21 -42 33 -34 99 17 126 14 7 7 13 -40 32 -101 41 -93 -25
-93 719 0 358 3 652 6 652 6 0 252 37 302 45 l32 6 0 4080 0 4080 -167 -2
-168 -1 -2 444 c-2 243 -3 586 -3 761 l0 317 -110 0 -110 0 0 -764z m340
-4841 c0 -2159 -1 -3925 -2 -3925 -78 -16 -450 -64 -453 -60 -3 4 -4 1781 -3
3949 l1 3941 26 1 c134 7 318 15 369 17 l62 2 0 -3925z"/>
</g>
</svg>
