<?xml version="1.0" standalone="no"?>
<!DOCTYPE svg PUBLIC "-//W3C//DTD SVG 20010904//EN"
 "http://www.w3.org/TR/2001/REC-SVG-20010904/DTD/svg10.dtd">
<svg version="1.0" xmlns="http://www.w3.org/2000/svg"
 width="2550.000000pt" height="2700.000000pt" viewBox="0 0 2550.000000 2700.000000"
 preserveAspectRatio="xMidYMid meet">

<g transform="translate(0.000000,2700.000000) scale(0.100000,-0.100000)"
fill="#65340A" stroke="none">
<path d="M1421 13614 l-41 -47 0 -573 0 -574 -70 0 -70 0 0 -1335 0 -1335 70
0 70 0 0 -105 0 -105 -70 0 -70 0 2 -1197 3 -1198 45 0 c25 0 56 3 70 7 l25 7
-5 -757 -5 -757 -43 -23 c-41 -23 -42 -25 -27 -42 24 -27 15 -62 -22 -85 -25
-15 -32 -27 -33 -51 0 -36 15 -43 90 -44 25 0 64 -5 88 -10 24 -6 49 -7 55 -3
7 5 50 17 97 28 l85 20 3 35 c2 31 -2 37 -30 50 -37 17 -49 58 -24 80 9 7 16
16 16 20 0 15 -85 29 -123 21 -20 -5 -39 -5 -42 -1 -7 11 2 16 42 25 l33 7 2
761 3 762 70 16 70 16 6 104 c3 57 5 581 5 1164 l-1 1060 -77 0 -78 -1 0 98 0
97 78 3 77 3 0 1340 0 1340 -77 0 -78 -1 0 613 0 613 -39 0 c-34 0 -45 -6 -80
-46z m147 -2521 l2 -1233 -100 0 -100 0 2 1228 3 1227 65 6 c36 3 79 6 95 5
l30 -1 3 -1232z m0 -2710 l2 -1062 -52 -15 c-29 -8 -74 -18 -101 -21 l-47 -7
2 1078 3 1079 65 6 c36 3 79 6 95 5 l30 -1 3 -1062z"/>
</g>
</svg>
