<?xml version="1.0" standalone="no"?>
<!DOCTYPE svg PUBLIC "-//W3C//DTD SVG 20010904//EN"
 "http://www.w3.org/TR/2001/REC-SVG-20010904/DTD/svg10.dtd">
<svg version="1.0" xmlns="http://www.w3.org/2000/svg"
 width="2550.000000pt" height="2700.000000pt" viewBox="0 0 2550.000000 2700.000000"
 preserveAspectRatio="xMidYMid meet">

<g transform="translate(0.000000,2700.000000) scale(0.100000,-0.100000)"
fill="#65340A" stroke="none">
<path d="M8228 16343 l-38 -4 0 -350 0 -349 -50 0 -50 0 0 -1249 c0 -1385 -6
-1261 66 -1261 l34 0 0 -95 0 -95 -50 0 -50 0 0 -1120 0 -1120 50 0 50 0 0
-369 c0 -203 -3 -376 -6 -385 -3 -8 -21 -20 -40 -26 -31 -11 -47 -30 -25 -30
14 0 23 -34 15 -54 -4 -10 -18 -22 -31 -27 -20 -7 -24 -15 -21 -41 3 -32 4
-32 58 -35 30 -1 73 -4 95 -7 22 -2 74 1 115 8 74 11 75 12 78 44 3 26 -1 34
-22 41 -35 14 -43 47 -16 76 l21 23 -28 7 c-66 16 -63 -1 -63 416 l0 377 50 7
50 7 0 1093 0 1093 -50 7 -50 7 0 99 0 99 50 0 50 0 0 1244 0 1244 -50 7 -50
7 0 354 c0 299 -2 354 -14 354 -8 0 -20 1 -28 3 -7 2 -30 2 -50 0z m76 -809
c14 -6 16 -119 16 -1161 l0 -1154 -63 3 -62 3 -3 1145 c-1 630 0 1151 3 1158
5 12 80 17 109 6z m4 -2702 c10 -7 12 -212 10 -1013 l-3 -1004 -54 -8 c-40 -5
-57 -4 -63 5 -9 15 -11 1971 -2 2006 5 19 13 22 53 22 25 0 52 -4 59 -8z"/>
</g>
</svg>
