<?xml version="1.0" standalone="no"?>
<!DOCTYPE svg PUBLIC "-//W3C//DTD SVG 20010904//EN"
 "http://www.w3.org/TR/2001/REC-SVG-20010904/DTD/svg10.dtd">
<svg version="1.0" xmlns="http://www.w3.org/2000/svg"
 width="2550.000000pt" height="2700.000000pt" viewBox="0 0 2550.000000 2700.000000"
 preserveAspectRatio="xMidYMid meet">

<g transform="translate(0.000000,2700.000000) scale(0.100000,-0.100000)"
fill="#65340A" stroke="none">
<path d="M9270 15931 l0 -340 -47 -3 -48 -3 0 -1210 0 -1210 48 -3 47 -3 0
-95 0 -94 -44 0 c-37 0 -45 -3 -49 -22 -2 -13 -4 -495 -3 -1073 l1 -1050 48
-3 47 -3 0 -359 c0 -389 1 -382 -56 -396 -27 -7 -31 -19 -9 -28 25 -9 17 -44
-15 -68 -23 -16 -30 -29 -28 -48 3 -24 6 -25 101 -32 64 -5 122 -3 165 5 58
11 67 15 70 36 3 16 -6 31 -28 50 -26 21 -31 32 -26 49 4 12 12 22 17 22 5 0
9 5 9 10 0 6 -6 10 -14 10 -7 0 -25 9 -40 21 l-26 20 0 354 c0 387 0 385 59
385 l28 0 6 368 c4 202 7 674 7 1049 l0 683 -22 5 c-13 2 -34 6 -48 7 -25 3
-25 4 -25 98 l0 95 45 0 45 0 3 1207 2 1208 -22 4 c-13 3 -34 7 -48 8 l-25 3
-3 343 -2 342 -60 0 -60 0 0 -339z m117 -1563 c1 -671 -2 -1120 -8 -1124 -5
-3 -29 -2 -54 2 l-45 6 0 1120 0 1119 53 -3 52 -3 2 -1117z m-2 -2466 c1 -530
-1 -965 -5 -966 -3 -2 -26 -7 -52 -10 l-48 -7 0 978 0 979 53 -6 52 -5 0 -963z"/>
</g>
</svg>
