<?xml version="1.0" standalone="no"?>
<!DOCTYPE svg PUBLIC "-//W3C//DTD SVG 20010904//EN"
 "http://www.w3.org/TR/2001/REC-SVG-20010904/DTD/svg10.dtd">
<svg version="1.0" xmlns="http://www.w3.org/2000/svg"
 width="2550.000000pt" height="2700.000000pt" viewBox="0 0 2550.000000 2700.000000"
 preserveAspectRatio="xMidYMid meet">

<g transform="translate(0.000000,2700.000000) scale(0.100000,-0.100000)"
fill="#65340A" stroke="none">
<path d="M9787 16233 c-4 -3 -7 -156 -7 -340 l0 -333 -45 0 -45 0 0 -1190 0
-1190 45 0 45 0 0 -95 0 -95 -45 0 -45 0 0 -1055 0 -1055 45 0 45 0 0 -354 0
-355 -26 -20 c-15 -12 -34 -21 -42 -21 -13 0 -13 -3 1 -18 24 -26 21 -49 -8
-68 -17 -11 -25 -25 -25 -45 0 -24 5 -29 33 -34 53 -10 179 -9 232 1 46 8 50
11 53 41 2 24 -1 33 -17 38 -26 8 -38 50 -21 70 15 18 15 17 -27 39 l-33 17 0
364 0 364 43 8 42 9 3 1031 2 1032 -42 3 -43 3 -3 93 -3 92 46 0 45 0 0 1189
0 1190 -42 3 -43 3 -3 334 c-2 253 -5 337 -15 343 -15 9 -91 11 -100 1z m103
-1868 l0 -1105 -50 0 -50 0 0 1105 0 1105 50 0 50 0 0 -1105z m0 -2419 l0
-953 -37 -7 c-21 -3 -44 -6 -50 -6 -10 0 -13 199 -13 960 l0 960 50 0 50 0 0
-954z"/>
</g>
</svg>
