<?xml version="1.0" standalone="no"?>
<!DOCTYPE svg PUBLIC "-//W3C//DTD SVG 20010904//EN"
 "http://www.w3.org/TR/2001/REC-SVG-20010904/DTD/svg10.dtd">
<svg version="1.0" xmlns="http://www.w3.org/2000/svg"
 width="2550.000000pt" height="2700.000000pt" viewBox="0 0 2550.000000 2700.000000"
 preserveAspectRatio="xMidYMid meet">

<g transform="translate(0.000000,2700.000000) scale(0.100000,-0.100000)"
fill="#65340A" stroke="none">
<path d="M3429 13616 l-36 -45 1 -570 1 -569 -67 -7 -68 -7 -2 -1334 -3 -1334
67 0 67 0 3 -99 3 -100 -67 -6 -68 -7 0 -1185 0 -1186 70 6 70 6 0 -742 c-1
-599 -3 -745 -14 -759 -7 -10 -30 -25 -50 -33 l-37 -16 20 -25 c19 -24 19 -28
6 -55 -9 -16 -27 -32 -41 -35 -22 -6 -25 -11 -22 -42 l3 -35 70 -5 c39 -2 88
-7 110 -11 28 -5 68 0 138 17 l97 24 0 37 c0 31 -5 38 -33 51 -36 17 -48 58
-23 80 20 16 20 30 1 30 -9 0 -29 7 -45 15 l-30 16 0 764 0 764 38 10 c20 5
49 13 65 17 27 6 27 7 27 88 2 180 2 278 1 1234 l-1 992 -65 0 -65 0 0 100 0
99 65 3 66 3 0 253 c-1 138 -1 740 -1 1337 l0 1085 -65 0 -65 0 0 610 0 610
-42 0 c-39 0 -47 -5 -79 -44z m131 -2522 l0 -1234 -90 0 -90 0 0 1230 0 1230
23 5 c27 6 139 11 150 7 4 -2 7 -559 7 -1238z m0 -2699 c0 -763 -3 -1056 -11
-1061 -19 -12 -152 -43 -161 -38 -4 3 -8 486 -8 1074 l0 1070 23 5 c27 6 139
11 150 7 4 -2 7 -477 7 -1057z"/>
</g>
</svg>
