<?xml version="1.0" standalone="no"?>
<!DOCTYPE svg PUBLIC "-//W3C//DTD SVG 20010904//EN"
 "http://www.w3.org/TR/2001/REC-SVG-20010904/DTD/svg10.dtd">
<svg version="1.0" xmlns="http://www.w3.org/2000/svg"
 width="2550.000000pt" height="2700.000000pt" viewBox="0 0 2550.000000 2700.000000"
 preserveAspectRatio="xMidYMid meet">

<g transform="translate(0.000000,2700.000000) scale(0.100000,-0.100000)"
fill="#65340A" stroke="none">
<path d="M14301 13511 c-8 -13 -11 -230 -11 -665 l0 -646 -50 0 -50 0 2 -1512
3 -1513 48 1 47 0 0 -112 0 -113 -47 -3 -48 -3 -3 -1337 -2 -1338 50 0 50 0 0
-827 c-1 -635 -3 -832 -13 -844 -7 -9 -28 -24 -47 -34 -46 -23 -46 -22 -26
-44 27 -29 17 -72 -21 -96 -29 -18 -33 -24 -30 -60 l2 -40 141 -12 141 -12 69
29 c67 28 69 30 71 67 3 33 -1 40 -30 58 -37 23 -49 73 -23 95 24 19 20 26
-24 39 -22 6 -44 20 -50 31 -7 13 -10 303 -10 868 l1 848 49 21 50 21 0 1294
0 1294 -42 3 c-23 1 -43 3 -45 4 -2 3 -6 172 -4 195 1 8 17 12 46 12 l45 0 0
1520 0 1520 -45 0 -45 0 -1 68 c0 37 -1 330 -2 652 l-2 585 -67 3 c-58 3 -68
0 -77 -17z m119 -2826 l0 -1405 -55 0 -55 0 0 1393 c0 1070 3 1396 12 1405 7
7 31 12 55 12 l43 0 0 -1405z m-2 -3027 l-3 -1183 -39 -18 c-21 -10 -45 -16
-52 -13 -12 5 -14 190 -14 1189 0 907 3 1186 12 1195 7 7 31 12 55 12 l43 0
-2 -1182z"/>
</g>
</svg>
