<?xml version="1.0" standalone="no"?>
<!DOCTYPE svg PUBLIC "-//W3C//DTD SVG 20010904//EN"
 "http://www.w3.org/TR/2001/REC-SVG-20010904/DTD/svg10.dtd">
<svg version="1.0" xmlns="http://www.w3.org/2000/svg"
 width="2550.000000pt" height="2700.000000pt" viewBox="0 0 2550.000000 2700.000000"
 preserveAspectRatio="xMidYMid meet">

<g transform="translate(0.000000,2700.000000) scale(0.100000,-0.100000)"
fill="#65340A" stroke="none">
<path d="M19922 23177 l-52 -52 -2 -605 -3 -605 -50 -2 c-27 -2 -78 -6 -112
-9 l-63 -6 0 -1400 0 -1401 115 5 116 4 -3 -110 -3 -111 -75 -3 c-41 -2 -91
-7 -113 -10 l-38 -7 1 -1249 c0 -687 3 -1253 7 -1259 3 -6 48 -7 114 -4 l109
5 -2 -811 -3 -812 -43 -23 c-40 -22 -42 -25 -28 -41 30 -33 8 -101 -32 -101
-7 0 -12 -16 -12 -40 l0 -40 190 0 190 0 0 40 c0 27 -4 40 -13 40 -39 0 -62
75 -31 101 14 11 12 14 -13 27 -69 35 -63 -42 -63 854 l0 808 108 0 107 0 -2
668 c-2 367 -3 938 -3 1270 l0 602 -105 0 -105 0 0 99 c0 55 4 102 9 105 5 4
50 9 100 13 51 3 94 10 97 15 8 12 6 2787 -2 2800 -4 6 -43 7 -105 2 l-99 -7
0 640 c0 628 -2 663 -30 663 -3 0 -29 -24 -58 -53z m181 -1384 c8 -30 3 -2537
-5 -2549 -4 -6 -38 -12 -75 -12 -37 -1 -112 -5 -165 -8 l-98 -7 0 1282 c0
1016 3 1283 13 1286 12 4 214 21 289 24 27 1 38 -3 41 -16z m-1 -3025 c3 -7 4
-526 4 -1153 l-1 -1140 -165 -5 c-91 -3 -168 -4 -172 -2 -5 2 -8 516 -8 1143
0 903 3 1141 13 1144 12 4 213 21 288 24 22 0 39 -4 41 -11z"/>
</g>
</svg>
