<?xml version="1.0" standalone="no"?>
<!DOCTYPE svg PUBLIC "-//W3C//DTD SVG 20010904//EN"
 "http://www.w3.org/TR/2001/REC-SVG-20010904/DTD/svg10.dtd">
<svg version="1.0" xmlns="http://www.w3.org/2000/svg"
 width="2550.000000pt" height="2700.000000pt" viewBox="0 0 2550.000000 2700.000000"
 preserveAspectRatio="xMidYMid meet">

<g transform="translate(0.000000,2700.000000) scale(0.100000,-0.100000)"
fill="#65340A" stroke="none">
<path d="M21021 24232 l-52 -47 -2 -590 -2 -590 -95 -8 c-52 -5 -105 -10 -117
-13 l-23 -4 0 -1407 0 -1406 120 7 120 6 0 -115 c0 -83 -3 -117 -12 -120 -7
-3 -60 -8 -118 -12 l-105 -8 -3 -1264 c-1 -964 1 -1267 10 -1272 6 -4 56 -5
111 -2 78 4 101 3 108 -8 5 -8 8 -165 8 -349 0 -371 2 -357 -67 -386 l-33 -13
20 -23 c12 -12 21 -29 21 -38 0 -19 -40 -60 -58 -60 -7 0 -12 -14 -12 -32 l0
-31 137 6 c75 4 162 7 195 7 50 0 58 3 58 18 0 11 -11 24 -25 30 -39 18 -52
55 -30 88 14 22 15 28 4 35 -8 5 -19 9 -25 9 -6 0 -19 9 -30 21 -18 20 -19 42
-20 379 l0 358 25 -1 c14 -1 63 0 109 1 l82 2 0 1280 0 1280 -104 0 -105 0 -3
93 c-5 136 -7 133 102 139 50 3 96 10 101 15 15 15 12 2805 -4 2815 -6 4 -53
4 -104 1 l-93 -6 -1 89 c0 49 -1 329 -1 622 -1 616 4 587 -87 504z m179 -1507
c0 -91 0 -415 0 -720 0 -305 0 -811 0 -1123 l0 -568 -106 -3 c-58 -1 -137 -6
-175 -10 l-69 -7 0 1283 c0 1018 3 1285 13 1288 16 6 205 22 280 24 l57 1 0
-165z m0 -4055 l0 -1160 -53 0 c-30 0 -109 -3 -175 -7 l-122 -6 0 1152 c0 912
3 1153 13 1156 16 6 205 22 280 24 l57 1 0 -1160z"/>
</g>
</svg>
