<?xml version="1.0" standalone="no"?>
<!DOCTYPE svg PUBLIC "-//W3C//DTD SVG 20010904//EN"
 "http://www.w3.org/TR/2001/REC-SVG-20010904/DTD/svg10.dtd">
<svg version="1.0" xmlns="http://www.w3.org/2000/svg"
 width="2550.000000pt" height="2700.000000pt" viewBox="0 0 2550.000000 2700.000000"
 preserveAspectRatio="xMidYMid meet">

<g transform="translate(0.000000,2700.000000) scale(0.100000,-0.100000)"
fill="#65340A" stroke="none">
<path d="M23261 26377 l-52 -54 1 -139 c1 -76 1 -344 1 -595 l-1 -456 -117
-12 c-64 -6 -118 -13 -120 -15 -2 -2 -5 -2227 -3 -2815 l0 -63 103 7 c56 3
110 9 120 11 15 5 17 -5 17 -109 l0 -114 -117 -12 c-64 -6 -119 -13 -120 -15
-6 -6 -3 -2579 3 -2585 3 -3 57 -4 120 -3 l114 4 0 -355 c0 -387 2 -371 -59
-396 l-30 -13 21 -29 c18 -24 20 -32 10 -54 -7 -14 -23 -30 -38 -35 -16 -6
-24 -16 -22 -27 3 -15 17 -17 113 -15 61 1 145 5 187 8 l77 6 -30 25 c-32 27
-38 63 -14 83 22 19 19 25 -24 45 -23 10 -42 26 -45 39 -3 11 -6 179 -6 373
l0 351 115 7 115 7 0 1303 c0 1030 -3 1305 -12 1312 -8 6 -42 7 -88 2 -41 -4
-88 -8 -103 -8 l-28 -1 3 108 3 107 107 10 c59 6 109 13 113 16 3 3 5 649 5
1434 0 1047 -3 1432 -12 1442 -6 7 -18 11 -27 9 -9 -2 -55 -7 -103 -11 l-88
-7 0 635 c0 570 -2 635 -16 641 -9 3 -17 6 -18 6 -1 0 -25 -24 -55 -53z m199
-2673 c0 -788 -4 -1313 -9 -1310 -5 4 -89 -1 -187 -9 -98 -8 -178 -15 -179
-15 0 0 2 588 5 1307 l5 1308 155 16 c85 9 167 17 183 18 l27 1 0 -1316z m0
-2974 c0 -936 -3 -1181 -12 -1184 -7 -3 -91 -7 -186 -10 l-172 -6 2 1172 3
1173 155 16 c85 9 167 17 183 18 l27 1 0 -1180z"/>
</g>
</svg>
