<?xml version="1.0" standalone="no"?>
<!DOCTYPE svg PUBLIC "-//W3C//DTD SVG 20010904//EN"
 "http://www.w3.org/TR/2001/REC-SVG-20010904/DTD/svg10.dtd">
<svg version="1.0" xmlns="http://www.w3.org/2000/svg"
 width="3542.000000pt" height="3750.000000pt" viewBox="0 0 3542.000000 3750.000000"
 preserveAspectRatio="xMidYMid meet">

<g transform="translate(0.000000,3750.000000) scale(0.100000,-0.100000)"
fill="#65340A" stroke="none">
<path d="M19253 18712 l-43 -3 0 -1935 0 -1934 -30 0 c-36 0 -60 -32 -62 -83
-2 -50 25 -87 62 -87 29 0 30 -2 30 -44 0 -28 -10 -65 -29 -103 -79 -158 -79
-378 -2 -531 19 -38 31 -77 31 -102 0 -38 -2 -40 -30 -40 -37 0 -59 -31 -62
-88 -2 -51 23 -82 64 -82 l28 0 0 -1941 c0 -1318 -3 -1947 -10 -1960 -6 -10
-14 -19 -19 -19 -5 0 -25 -7 -46 -16 l-37 -15 21 -23 c36 -38 23 -84 -29 -106
-27 -11 -30 -17 -30 -55 l0 -42 120 -18 c117 -18 125 -18 235 -1 l115 18 0 44
c0 38 -4 46 -24 54 -26 9 -56 46 -56 68 0 7 11 24 24 37 l24 24 -42 16 c-84
34 -76 -59 -76 915 0 1639 12 3029 26 3023 39 -15 81 53 70 112 -8 42 -30 65
-61 65 -36 0 -37 47 -3 127 42 97 58 175 58 278 0 97 -26 214 -61 273 -12 22
-19 52 -19 88 0 54 0 54 31 54 25 0 32 6 45 35 7 19 14 45 14 58 0 34 -37 77
-66 77 l-24 0 0 843 c0 463 0 1334 0 1935 l0 1092 -47 -2 c-27 -2 -67 -4 -90
-6z m68 -4299 c20 -69 18 -234 -4 -306 -10 -32 -22 -55 -26 -52 -17 10 -35
111 -34 195 0 81 27 210 43 210 4 0 14 -21 21 -47z"/>
</g>
</svg>
