<?xml version="1.0" standalone="no"?>
<!DOCTYPE svg PUBLIC "-//W3C//DTD SVG 20010904//EN"
 "http://www.w3.org/TR/2001/REC-SVG-20010904/DTD/svg10.dtd">
<svg version="1.0" xmlns="http://www.w3.org/2000/svg"
 width="3542.000000pt" height="3750.000000pt" viewBox="0 0 3542.000000 3750.000000"
 preserveAspectRatio="xMidYMid meet">

<g transform="translate(0.000000,3750.000000) scale(0.100000,-0.100000)"
fill="#65340A" stroke="none">
<path d="M30830 17313 c0 -747 0 -1669 0 -2050 l0 -691 -41 -7 c-72 -12 -100
-75 -64 -145 15 -30 25 -34 77 -30 25 1 26 -1 26 -52 1 -43 -5 -61 -33 -103
-69 -105 -100 -262 -75 -387 15 -77 53 -175 86 -219 15 -21 24 -46 24 -70 0
-36 -1 -37 -45 -43 -53 -8 -75 -34 -75 -89 0 -48 44 -97 87 -97 l28 0 2 -2064
c3 -1946 2 -2064 -15 -2079 -9 -8 -36 -23 -59 -32 l-43 -17 25 -30 c14 -16 25
-34 25 -39 0 -21 -33 -58 -61 -68 -26 -9 -29 -14 -29 -55 0 -51 -15 -45 169
-72 118 -17 189 -13 294 16 36 11 37 13 37 55 0 42 -2 46 -35 59 -21 9 -39 26
-45 41 -11 29 -8 38 22 71 l19 22 -45 17 c-25 10 -52 25 -60 34 -14 15 -15
238 -13 2072 1 1355 5 2056 12 2061 6 4 22 8 38 8 59 0 86 74 52 140 -15 30
-42 42 -80 37 -17 -2 -20 4 -21 40 -1 32 8 57 41 112 102 170 98 395 -11 573
-24 39 -34 68 -34 96 0 42 11 52 55 52 37 0 65 37 65 86 0 54 -25 85 -76 93
l-39 6 -2 2025 c-2 1114 -3 2037 -3 2053 l0 27 -90 0 -90 0 0 -1357z m122
-3175 c46 -97 59 -206 37 -309 -12 -57 -44 -135 -59 -144 -17 -10 -71 119 -83
195 -7 50 -7 90 0 139 12 75 57 186 72 177 4 -3 20 -29 33 -58z"/>
</g>
</svg>
