<?xml version="1.0" standalone="no"?>
<!DOCTYPE svg PUBLIC "-//W3C//DTD SVG 20010904//EN"
 "http://www.w3.org/TR/2001/REC-SVG-20010904/DTD/svg10.dtd">
<svg version="1.0" xmlns="http://www.w3.org/2000/svg"
 width="3542.000000pt" height="3750.000000pt" viewBox="0 0 3542.000000 3750.000000"
 preserveAspectRatio="xMidYMid meet">

<g transform="translate(0.000000,3750.000000) scale(0.100000,-0.100000)"
fill="#65340A" stroke="none">
<path d="M3580 16055 l0 -2445 -36 0 c-46 0 -70 -14 -89 -50 -42 -81 2 -170
84 -170 l41 0 0 -59 c0 -44 -5 -65 -21 -84 -35 -46 -87 -169 -103 -249 -37
-178 -6 -338 94 -483 25 -37 30 -53 30 -105 l0 -62 -35 6 c-31 6 -40 3 -65
-22 -35 -35 -47 -90 -30 -133 15 -35 30 -44 88 -54 l42 -7 0 -71 c5 -1318 -2
-4831 -9 -4844 -5 -10 -37 -29 -70 -42 l-61 -24 31 -35 c24 -27 29 -40 24 -61
-9 -36 -21 -48 -61 -63 -33 -12 -34 -13 -34 -70 l0 -57 38 -11 c20 -5 70 -19
111 -30 l75 -20 178 30 c98 17 181 30 183 30 3 0 5 26 5 58 l0 57 -40 17 c-65
27 -75 84 -24 132 l25 23 -61 24 c-34 13 -66 32 -71 41 -7 13 -14 3914 -9
4914 0 17 5 20 24 17 60 -12 124 64 112 131 -9 50 -33 75 -75 82 -54 9 -61 15
-63 61 -1 30 8 55 35 99 19 32 43 79 52 104 9 25 21 54 25 65 5 11 14 44 19
73 32 156 -12 356 -103 475 -22 29 -26 44 -26 102 l0 67 35 -6 c42 -8 70 5 90
44 42 81 -2 170 -84 170 l-41 0 0 2440 0 2440 -115 0 -115 0 0 -2445z m155
-2925 c57 -112 69 -250 34 -391 -20 -81 -64 -179 -80 -179 -16 0 -48 68 -68
144 -23 88 -27 187 -10 268 12 58 77 208 90 208 5 0 20 -22 34 -50z"/>
</g>
</svg>
