<?xml version="1.0" standalone="no"?>
<!DOCTYPE svg PUBLIC "-//W3C//DTD SVG 20010904//EN"
 "http://www.w3.org/TR/2001/REC-SVG-20010904/DTD/svg10.dtd">
<svg version="1.0" xmlns="http://www.w3.org/2000/svg"
 width="2550.000000pt" height="2700.000000pt" viewBox="0 0 2550.000000 2700.000000"
 preserveAspectRatio="xMidYMid meet">

<g transform="translate(0.000000,2700.000000) scale(0.100000,-0.100000)"
fill="#3a4548" stroke="none">
<path d="M1406 13602 c-3 -5 -5 -770 -5 -1701 -1 -1682 -1 -1692 -21 -1721
-24 -34 -24 -38 -4 -61 15 -16 14 -20 -3 -49 l-18 -32 28 -23 c41 -36 37 -60
-28 -200 -13 -27 -29 -67 -35 -87 -6 -21 -16 -38 -21 -38 -14 0 -11 -53 5 -76
16 -23 8 -136 -12 -156 -14 -14 -2 -39 49 -95 22 -24 39 -53 39 -66 0 -13 7
-32 15 -43 24 -32 19 -82 -12 -109 -28 -23 -28 -24 -10 -54 17 -28 17 -32 1
-55 -15 -24 -15 -27 4 -53 19 -28 20 -56 25 -1679 3 -1016 1 -1657 -5 -1667
-5 -10 -27 -26 -49 -38 -38 -19 -40 -22 -25 -38 30 -33 14 -81 -32 -95 -17 -6
-22 -15 -22 -42 0 -19 3 -34 8 -34 4 0 54 -4 112 -10 94 -8 115 -7 200 13 l95
23 3 35 c3 30 -1 36 -27 46 -37 14 -51 55 -27 82 22 24 20 28 -14 36 -65 14
-60 -127 -60 1696 0 912 4 1659 8 1659 5 0 15 11 22 25 11 21 11 29 0 51 -11
20 -12 29 -2 44 17 27 15 43 -7 66 -30 33 -33 56 -11 97 11 20 20 48 20 62 0
15 19 49 45 83 52 66 58 104 24 159 l-22 35 23 54 c28 68 22 92 -35 153 -32
35 -45 56 -45 78 0 16 -4 33 -9 38 -4 6 -11 24 -14 42 -5 24 -1 37 18 58 26
27 32 50 15 60 -13 8 -13 52 0 60 17 10 11 44 -10 57 -20 13 -20 24 -20 1715
l0 1703 -74 0 c-41 0 -77 -4 -80 -8z m96 -3749 c10 -9 18 -26 18 -38 0 -22
-29 -69 -30 -47 0 6 -5 11 -12 10 -6 -2 -18 9 -27 24 -14 25 -14 28 3 47 23
25 25 25 48 4z m-116 -171 l-36 -37 0 33 c0 18 10 52 21 74 l22 42 15 -38 15
-38 -37 -36z m208 73 c16 -24 23 -105 9 -105 -4 0 -24 16 -44 36 l-38 37 22
28 c25 35 30 36 51 4z m-70 -129 c47 -42 48 -44 33 -66 -21 -30 -57 -55 -57
-39 0 9 -4 8 -15 -1 -11 -10 -22 -6 -54 22 -23 18 -41 40 -41 48 0 13 67 79
80 79 3 0 27 -19 54 -43z m96 -121 c0 -11 -10 -40 -21 -65 l-20 -45 -29 35
-29 35 42 42 c42 44 57 43 57 -2z m-214 -74 c-9 -17 -20 -31 -25 -31 -13 0
-31 57 -31 99 l0 36 36 -36 c36 -36 36 -36 20 -68z m91 -43 c29 -27 29 -36 1
-65 l-22 -23 -23 22 c-27 26 -28 31 -7 63 20 30 22 31 51 3z"/>
</g>
</svg>
