<?xml version="1.0" standalone="no"?>
<!DOCTYPE svg PUBLIC "-//W3C//DTD SVG 20010904//EN"
 "http://www.w3.org/TR/2001/REC-SVG-20010904/DTD/svg10.dtd">
<svg version="1.0" xmlns="http://www.w3.org/2000/svg"
 width="2550.000000pt" height="2700.000000pt" viewBox="0 0 2550.000000 2700.000000"
 preserveAspectRatio="xMidYMid meet">

<g transform="translate(0.000000,2700.000000) scale(0.100000,-0.100000)"
fill="#3a4548" stroke="none">
<path d="M9290 15030 c0 -1116 -1 -1223 -16 -1246 -15 -21 -15 -28 -4 -50 11
-19 11 -27 2 -36 -18 -18 -15 -43 8 -63 25 -23 25 -42 0 -80 -29 -43 -25 -67
5 -32 22 25 45 36 45 21 0 -4 -31 -40 -70 -80 -75 -79 -85 -109 -58 -169 20
-44 38 -24 38 41 0 29 11 66 26 83 6 6 53 -54 54 -68 0 -8 -27 -42 -60 -77
-75 -78 -79 -107 -22 -180 21 -27 45 -71 52 -97 12 -45 11 -49 -9 -71 -23 -24
-27 -46 -11 -62 8 -8 7 -19 -1 -37 -10 -23 -9 -30 4 -45 16 -17 17 -125 17
-1360 0 -1449 3 -1360 -50 -1377 -23 -7 -25 -16 -9 -32 17 -17 6 -57 -18 -68
-17 -7 -23 -18 -23 -41 l0 -31 123 -1 c67 -1 140 2 162 6 34 6 40 11 43 35 3
21 -2 29 -22 37 -29 10 -45 55 -27 73 6 6 11 14 11 18 0 13 -60 31 -85 25 -14
-4 -25 -2 -25 3 0 5 9 11 20 14 20 5 20 14 20 1336 0 1122 2 1335 14 1354 18
29 16 145 -3 157 -10 6 -12 22 -8 60 5 40 14 60 45 96 47 52 54 78 35 132 -12
37 -11 43 8 76 25 43 20 78 -21 132 -16 22 -30 50 -30 64 0 14 -9 39 -20 55
-24 37 -25 72 -3 97 13 15 15 25 7 46 -6 18 -7 36 0 54 8 21 6 31 -7 46 -16
17 -17 109 -17 1240 l0 1222 -60 0 -60 0 0 -1220z m94 -1549 c17 -19 17 -21
-1 -45 -21 -30 -30 -32 -55 -9 -22 20 -23 31 -1 55 21 23 36 23 57 -1z m86
-93 c0 17 17 15 24 -4 4 -10 0 -18 -13 -21 -13 -3 -17 -11 -14 -24 3 -10 2
-26 -1 -36 -6 -14 -11 -11 -36 18 -34 40 -35 47 -14 78 l17 24 18 -24 c10 -13
19 -18 19 -11z m-78 -95 c36 -35 35 -46 -7 -79 l-36 -27 -34 33 -35 34 32 33
c18 18 36 33 42 33 5 0 23 -12 38 -27z m-85 -167 c-4 -55 -18 -63 -34 -20 -8
22 -17 55 -20 74 l-5 35 30 -29 c23 -21 30 -36 29 -60z m173 54 c0 -10 -9 -24
-19 -30 -11 -5 -23 -19 -26 -30 -8 -26 -20 -25 -32 3 -8 17 -6 28 11 49 25 32
66 38 66 8z m-105 -100 c4 -12 1 -28 -6 -36 -10 -13 -14 -13 -30 2 -15 13 -16
20 -6 35 15 25 34 24 42 -1z"/>
</g>
</svg>
