<?xml version="1.0" standalone="no"?>
<!DOCTYPE svg PUBLIC "-//W3C//DTD SVG 20010904//EN"
 "http://www.w3.org/TR/2001/REC-SVG-20010904/DTD/svg10.dtd">
<svg version="1.0" xmlns="http://www.w3.org/2000/svg"
 width="2550.000000pt" height="2700.000000pt" viewBox="0 0 2550.000000 2700.000000"
 preserveAspectRatio="xMidYMid meet">

<g transform="translate(0.000000,2700.000000) scale(0.100000,-0.100000)"
fill="#3a4548" stroke="none">
<path d="M1870 11883 c0 -1700 -1 -1728 -20 -1753 -23 -29 -24 -43 -8 -70 10
-16 10 -24 0 -40 -18 -29 -15 -44 12 -69 19 -18 24 -31 20 -55 -6 -43 -25 -94
-51 -136 -11 -19 -26 -54 -32 -76 -6 -23 -18 -47 -26 -54 -20 -17 -19 -39 3
-75 13 -20 16 -37 11 -50 -4 -11 -8 -38 -8 -60 -1 -23 -6 -46 -12 -52 -14 -14
2 -45 52 -100 24 -26 36 -48 33 -58 -4 -8 1 -26 10 -40 17 -25 22 -105 8 -105
-5 0 -15 -11 -22 -25 -11 -21 -11 -29 0 -51 11 -20 12 -29 2 -44 -16 -26 -15
-45 2 -60 13 -10 15 -4 19 37 2 26 3 -735 3 -1692 l-1 -1740 -48 -26 c-35 -19
-44 -28 -33 -32 21 -8 31 -54 16 -72 -6 -8 -9 -19 -5 -25 4 -6 -6 -10 -24 -10
-29 0 -31 -2 -31 -39 l0 -39 120 -7 c106 -6 131 -5 210 15 l90 22 0 39 c0 31
-4 39 -18 39 -42 0 -68 64 -37 90 23 19 19 26 -25 39 -21 6 -43 17 -47 24 -4
6 -6 765 -4 1686 3 1631 3 1674 22 1694 23 25 24 40 4 71 -14 21 -14 24 0 36
22 18 18 43 -10 70 -30 28 -31 53 -5 103 11 20 20 47 20 60 0 13 20 50 45 81
54 69 59 111 21 167 l-25 36 24 39 c40 64 30 107 -39 173 -22 22 -36 45 -36
60 -1 15 -7 37 -15 51 -21 37 -18 72 10 99 29 27 31 38 9 69 -15 21 -15 25 0
41 21 24 20 44 -4 66 -20 18 -20 33 -22 1744 l-3 1726 -77 3 -78 3 0 -1728z
m106 -2098 c14 -21 14 -30 4 -56 -7 -17 -16 -26 -19 -21 -3 4 -14 11 -23 15
-29 10 -39 41 -22 65 20 29 40 28 60 -3z m-100 -93 c10 -25 7 -32 -21 -65 -18
-20 -35 -34 -38 -31 -14 14 23 124 41 124 4 0 12 -13 18 -28z m189 -2 c15 -30
21 -100 8 -100 -5 0 -25 16 -46 36 l-38 35 21 29 c27 37 36 37 55 0z m-71
-126 l49 -45 -34 -35 c-18 -19 -35 -30 -37 -25 -2 7 -10 6 -23 -2 -16 -10 -24
-6 -61 30 l-42 43 39 40 c21 22 44 40 50 40 5 -1 32 -21 59 -46z m94 -112 c4
-24 -32 -112 -45 -111 -4 0 -19 14 -32 30 l-24 30 39 40 c41 42 57 45 62 11z
m-221 -91 l-21 -35 -18 40 c-17 39 -23 85 -12 96 3 4 20 -10 38 -30 l33 -36
-20 -35z m108 -95 c-20 -30 -32 -32 -57 -9 -22 20 -23 36 -1 69 l16 25 30 -29
c28 -29 29 -30 12 -56z m-108 -258 c-3 -8 -6 -5 -6 6 -1 11 2 17 5 13 3 -3 4
-12 1 -19z"/>
</g>
</svg>
