<?xml version="1.0" standalone="no"?>
<!DOCTYPE svg PUBLIC "-//W3C//DTD SVG 20010904//EN"
 "http://www.w3.org/TR/2001/REC-SVG-20010904/DTD/svg10.dtd">
<svg version="1.0" xmlns="http://www.w3.org/2000/svg"
 width="2550.000000pt" height="2700.000000pt" viewBox="0 0 2550.000000 2700.000000"
 preserveAspectRatio="xMidYMid meet">

<g transform="translate(0.000000,2700.000000) scale(0.100000,-0.100000)"
fill="#3a4548" stroke="none">
<path d="M4198 14118 l-68 -87 0 -1138 0 -1137 -22 -23 c-20 -21 -21 -26 -9
-59 9 -26 10 -39 2 -47 -17 -17 -13 -45 9 -67 23 -23 26 -67 6 -95 -7 -11 -17
-31 -21 -45 -7 -24 -6 -24 27 8 19 18 37 29 41 26 4 -4 -26 -41 -66 -83 -95
-100 -105 -124 -78 -186 18 -40 23 -46 36 -35 10 8 15 30 15 61 0 52 16 99 35
99 18 0 57 -59 48 -73 -4 -6 -8 -18 -9 -25 -2 -8 -30 -40 -63 -72 -90 -88 -91
-122 -11 -220 37 -44 47 -68 57 -143 4 -31 1 -41 -16 -53 -23 -17 -28 -53 -9
-72 10 -10 10 -17 0 -32 -17 -29 -15 -54 8 -75 20 -18 20 -31 20 -1467 0 -993
-3 -1455 -11 -1469 -5 -11 -28 -27 -49 -35 l-39 -16 21 -28 c20 -28 20 -30 3
-56 -9 -14 -26 -29 -36 -31 -14 -4 -19 -14 -19 -38 0 -33 1 -34 53 -39 132
-14 168 -14 255 2 l92 16 0 38 c0 25 -5 38 -13 38 -8 0 -23 11 -36 23 -18 20
-20 29 -12 49 5 14 16 28 23 31 7 2 -6 12 -30 22 -23 10 -47 26 -52 36 -12 22
-14 2919 -2 2919 4 0 15 13 25 29 15 25 15 30 2 41 -17 14 -20 46 -5 55 17 10
11 43 -11 64 -16 15 -20 27 -16 53 12 72 21 94 53 130 66 73 77 118 46 179
-18 35 -17 36 4 76 29 55 19 107 -30 170 -20 25 -36 56 -36 67 0 12 -9 36 -20
54 -27 43 -25 78 5 114 24 28 24 30 8 55 -13 20 -14 29 -5 44 17 27 15 46 -8
69 -20 20 -20 36 -22 1243 l-3 1223 -67 -88z m34 -2725 c23 -21 23 -34 -3 -67
-20 -26 -22 -26 -40 -10 -28 25 -32 50 -12 73 21 25 31 26 55 4z m83 -103 c16
-30 21 -100 7 -100 -4 0 -20 14 -36 32 -27 31 -27 33 -12 65 9 18 18 33 21 33
2 0 11 -13 20 -30z m-55 -125 l34 -35 -41 -42 -41 -41 -41 34 c-22 19 -41 39
-41 45 0 15 67 74 83 74 7 0 28 -16 47 -35z m-131 -129 c32 -33 32 -34 16 -59
-9 -15 -14 -30 -11 -35 3 -5 -1 -18 -10 -28 -14 -19 -15 -19 -13 1 1 11 -8 40
-19 65 -24 51 -28 90 -9 90 7 0 28 -15 46 -34z m221 2 c12 -4 9 -10 -11 -29
-14 -13 -32 -35 -39 -49 l-13 -24 -15 31 c-14 29 -13 33 14 68 23 30 30 34 38
23 6 -8 18 -17 26 -20z m-120 -114 c16 -30 4 -59 -25 -59 -30 0 -41 29 -22 59
22 33 30 33 47 0z"/>
</g>
</svg>
