<?xml version="1.0" standalone="no"?>
<!DOCTYPE svg PUBLIC "-//W3C//DTD SVG 20010904//EN"
 "http://www.w3.org/TR/2001/REC-SVG-20010904/DTD/svg10.dtd">
<svg version="1.0" xmlns="http://www.w3.org/2000/svg"
 width="2550.000000pt" height="2700.000000pt" viewBox="0 0 2550.000000 2700.000000"
 preserveAspectRatio="xMidYMid meet">

<g transform="translate(0.000000,2700.000000) scale(0.100000,-0.100000)"
fill="#3a4548" stroke="none">
<path d="M6440 15106 c0 -1243 -1 -1336 -17 -1364 -15 -27 -16 -33 -3 -56 10
-20 11 -29 2 -38 -18 -18 -15 -43 8 -63 25 -23 25 -52 0 -90 -11 -16 -20 -43
-20 -58 0 -17 -15 -47 -40 -78 -46 -59 -51 -92 -19 -149 20 -35 20 -39 5 -68
-28 -53 -21 -91 27 -149 39 -48 67 -110 67 -150 0 -9 -10 -27 -22 -40 -19 -21
-21 -28 -11 -53 8 -22 8 -38 0 -59 -9 -25 -8 -33 6 -49 16 -17 17 -116 15
-1493 l-3 -1474 -37 -18 -37 -18 17 -30 c17 -30 17 -30 -15 -59 -23 -20 -33
-39 -33 -58 l0 -29 104 -6 c91 -5 215 4 254 18 20 7 15 62 -7 68 -31 8 -55 52
-41 76 6 12 16 21 23 21 7 0 -6 9 -28 19 -25 11 -54 16 -77 13 -23 -2 -38 0
-38 6 0 6 12 12 28 14 l27 3 5 1465 c5 1413 6 1466 24 1493 18 26 18 28 1 47
-15 17 -16 21 -1 41 16 24 8 53 -23 75 -26 19 3 108 56 172 35 44 43 61 43 96
0 23 -7 51 -15 63 -14 20 -14 25 5 55 35 58 26 107 -32 178 -15 19 -28 45 -28
57 0 13 -9 40 -20 60 -23 43 -25 69 -7 80 32 21 39 41 22 67 -15 22 -15 27 -1
49 15 22 15 26 -4 50 -20 25 -20 37 -20 1361 l0 1336 -70 0 -70 0 0 -1334z
m100 -1691 l24 -26 -28 -27 -27 -27 -24 30 -24 29 21 23 c27 29 29 29 58 -2z
m-91 -96 l23 -31 -33 -34 c-18 -19 -37 -34 -41 -34 -12 0 -10 76 4 105 14 32
19 32 47 -6z m169 4 c20 -52 23 -73 15 -88 -7 -13 -15 -9 -42 19 l-33 34 18
31 c22 38 29 39 42 4z m-28 -153 c0 -4 -17 -21 -39 -38 l-39 -31 -38 34 -39
33 40 41 39 41 38 -37 c21 -20 38 -40 38 -43z m-120 -119 c0 -4 -9 -17 -19
-30 l-19 -24 -16 31 c-9 17 -16 46 -16 63 l0 33 35 -34 c19 -19 35 -36 35 -39z
m155 26 c-4 -18 -14 -43 -22 -56 l-16 -24 -13 24 c-18 32 -18 33 12 68 31 37
48 31 39 -12z m-85 -119 c0 -25 -28 -34 -47 -15 -15 14 -14 18 2 43 17 26 18
27 31 9 8 -10 14 -27 14 -37z"/>
</g>
</svg>
