<?xml version="1.0" standalone="no"?>
<!DOCTYPE svg PUBLIC "-//W3C//DTD SVG 20010904//EN"
 "http://www.w3.org/TR/2001/REC-SVG-20010904/DTD/svg10.dtd">
<svg version="1.0" xmlns="http://www.w3.org/2000/svg"
 width="2550.000000pt" height="2700.000000pt" viewBox="0 0 2550.000000 2700.000000"
 preserveAspectRatio="xMidYMid meet">

<g transform="translate(0.000000,2700.000000) scale(0.100000,-0.100000)"
fill="#3a4548" stroke="none">
<path d="M7650 15073 l0 -1287 -21 -22 c-19 -21 -20 -26 -9 -54 10 -24 10 -33
0 -45 -10 -12 -10 -21 -2 -40 7 -14 16 -25 22 -25 18 0 11 -61 -10 -87 -35
-44 -24 -61 15 -23 19 18 38 31 41 27 4 -4 -27 -42 -68 -85 -46 -48 -77 -90
-81 -108 -5 -27 20 -104 34 -104 12 0 22 34 20 63 -3 31 17 97 28 97 4 0 20
-16 34 -37 31 -43 26 -57 -33 -104 -22 -18 -49 -51 -60 -74 -24 -50 -18 -73
33 -138 18 -23 38 -58 45 -78 15 -43 16 -89 2 -89 -6 0 -15 -11 -22 -25 -8
-19 -8 -28 2 -40 10 -12 10 -21 0 -45 -11 -28 -10 -33 9 -54 l21 -22 0 -1401
c0 -771 -3 -1409 -7 -1418 -3 -10 -23 -25 -45 -35 -33 -15 -36 -19 -23 -30 30
-25 6 -90 -33 -90 -7 0 -12 -13 -12 -29 0 -28 3 -30 46 -37 51 -7 255 1 292
12 34 10 30 55 -8 76 -30 17 -42 59 -20 73 6 3 10 10 10 14 0 15 -59 33 -90
29 -38 -6 -50 9 -15 18 l25 6 0 1404 0 1405 22 30 c19 26 21 33 9 50 -10 17
-10 27 0 50 10 26 9 32 -10 53 -38 40 -25 94 41 179 42 54 49 97 24 146 -13
25 -13 30 5 57 30 46 25 98 -16 154 -19 26 -35 59 -35 72 0 14 -9 37 -20 51
-19 24 -28 87 -12 87 4 0 13 10 21 21 10 18 11 26 0 45 -10 20 -10 29 1 49 12
22 11 28 -8 48 l-22 23 0 1287 0 1287 -60 0 -60 0 0 -1287z m89 -1627 l22 -24
-24 -28 c-25 -28 -25 -29 -46 -10 -25 23 -26 34 -5 64 19 28 25 28 53 -2z m81
-110 c0 -6 7 -3 14 7 10 12 16 15 21 7 9 -15 -2 -43 -15 -35 -6 4 -10 -8 -10
-29 0 -20 -2 -36 -5 -36 -8 0 -64 64 -65 73 0 4 8 19 17 33 16 25 17 25 30 8
7 -10 13 -23 13 -28z m-73 -88 c18 -18 33 -37 33 -43 0 -11 -57 -65 -69 -65
-4 0 -22 16 -41 35 l-34 35 34 35 c19 19 36 35 39 35 3 0 20 -14 38 -32z m-85
-171 c-7 -8 -10 -21 -7 -29 3 -8 -2 -21 -11 -29 -15 -12 -17 -12 -12 1 3 8 -3
32 -13 52 -11 21 -19 50 -19 65 l0 28 37 -37 c29 -30 34 -40 25 -51z m188 56
c0 -6 -9 -22 -20 -35 -11 -12 -26 -32 -34 -42 -13 -19 -14 -19 -29 10 -15 28
-14 30 10 55 25 27 73 35 73 12z m-110 -129 c0 -6 -7 -17 -15 -24 -12 -10 -18
-10 -30 0 -19 16 -19 29 2 52 16 18 18 18 30 2 7 -10 13 -23 13 -30z"/>
</g>
</svg>
