<?xml version="1.0" standalone="no"?>
<!DOCTYPE svg PUBLIC "-//W3C//DTD SVG 20010904//EN"
 "http://www.w3.org/TR/2001/REC-SVG-20010904/DTD/svg10.dtd">
<svg version="1.0" xmlns="http://www.w3.org/2000/svg"
 width="2550.000000pt" height="2700.000000pt" viewBox="0 0 2550.000000 2700.000000"
 preserveAspectRatio="xMidYMid meet">

<g transform="translate(0.000000,2700.000000) scale(0.100000,-0.100000)"
fill="#3a4548" stroke="none">
<path d="M18871 22106 l-51 -52 0 -1437 0 -1438 -21 -28 c-19 -26 -20 -31 -6
-57 14 -26 14 -32 -1 -56 -15 -26 -15 -29 10 -63 21 -30 24 -42 18 -72 -5 -19
-18 -45 -30 -58 -26 -27 -42 -114 -19 -100 8 5 -1 -9 -20 -30 -73 -84 -85
-153 -39 -231 17 -29 19 -39 9 -60 -27 -61 -10 -119 59 -199 51 -58 58 -116
20 -157 -23 -25 -24 -34 -6 -68 12 -21 12 -28 -2 -52 -15 -26 -15 -29 6 -57
l22 -30 0 -1570 c0 -1340 -2 -1572 -14 -1584 -8 -8 -28 -20 -45 -27 -29 -11
-42 -30 -23 -30 5 0 14 -11 20 -24 9 -20 7 -29 -9 -50 -11 -14 -27 -26 -35
-26 -10 0 -14 -12 -14 -40 l0 -40 190 0 190 0 0 33 c0 25 -7 39 -30 55 -33 25
-40 61 -15 82 23 19 18 27 -20 40 -19 6 -40 20 -45 30 -7 12 -10 566 -10 1580
l0 1562 21 29 c18 26 19 33 8 64 -10 27 -10 38 -1 47 18 18 15 41 -8 66 -15
16 -20 35 -20 74 0 50 3 57 55 116 61 70 69 103 39 165 -16 32 -15 34 15 82
17 27 31 61 31 75 0 15 -19 56 -42 91 -35 53 -42 71 -39 105 2 34 -3 48 -28
77 -38 42 -40 85 -9 128 19 25 20 33 10 49 -15 24 -16 57 -2 65 16 10 11 38
-10 65 -19 25 -20 52 -20 1511 0 1453 0 1487 -19 1492 -13 3 -34 -11 -70 -47z
m41 -3363 c15 -15 28 -30 28 -34 0 -4 -13 -22 -30 -40 -29 -33 -29 -33 -51
-13 -41 37 -43 53 -13 85 15 16 30 29 33 29 3 0 18 -12 33 -27z m-106 -121
l20 -38 -31 -37 c-18 -20 -35 -34 -38 -30 -17 17 2 143 21 143 4 0 16 -17 28
-38z m201 26 c23 -29 33 -84 22 -116 -6 -18 -13 -32 -17 -32 -6 0 -82 81 -82
88 0 7 54 70 61 71 4 1 11 -5 16 -11z m-82 -158 l39 -40 -42 -42 -42 -42 -40
39 c-22 21 -40 44 -40 49 0 14 61 76 75 76 6 0 29 -18 50 -40z m82 -136 c-6
-38 -31 -84 -46 -84 -4 0 -13 12 -20 27 -11 24 -9 29 20 60 42 42 53 42 46 -3z
m-194 -12 c19 -19 25 -34 20 -50 -7 -28 -19 -28 -34 -1 -16 32 -29 79 -20 79
4 0 19 -12 34 -28z m91 -108 c9 -22 -14 -50 -25 -32 -13 20 -10 48 5 48 8 0
17 -7 20 -16z"/>
</g>
</svg>
