<?xml version="1.0" standalone="no"?>
<!DOCTYPE svg PUBLIC "-//W3C//DTD SVG 20010904//EN"
 "http://www.w3.org/TR/2001/REC-SVG-20010904/DTD/svg10.dtd">
<svg version="1.0" xmlns="http://www.w3.org/2000/svg"
 width="2550.000000pt" height="2700.000000pt" viewBox="0 0 2550.000000 2700.000000"
 preserveAspectRatio="xMidYMid meet">

<g transform="translate(0.000000,2700.000000) scale(0.100000,-0.100000)"
fill="#3a4548" stroke="none">
<path d="M19947 23142 l-47 -48 0 -1455 c0 -1443 0 -1456 -20 -1474 -23 -21
-25 -46 -8 -75 10 -16 10 -24 0 -40 -17 -28 -15 -53 8 -78 25 -27 26 -72 1
-103 -32 -41 -51 -88 -49 -116 1 -18 -10 -44 -30 -72 -55 -76 -60 -136 -15
-209 19 -31 20 -36 6 -71 -21 -53 -5 -103 57 -176 41 -49 50 -66 50 -98 0 -24
-8 -49 -20 -64 -23 -30 -25 -46 -8 -73 10 -16 10 -24 0 -40 -17 -29 -15 -54 8
-75 20 -18 20 -31 20 -2077 0 -1265 -4 -2066 -9 -2077 -6 -10 -28 -25 -49 -35
-39 -18 -40 -18 -21 -37 32 -32 20 -72 -28 -98 -17 -9 -23 -21 -23 -46 l0 -35
195 0 195 0 0 39 c0 30 -4 40 -19 44 -10 2 -27 17 -36 31 -17 26 -17 28 3 56
l21 28 -30 13 c-17 6 -37 18 -45 26 -12 12 -14 312 -14 2080 0 2040 0 2065 20
2090 18 23 18 27 4 54 -13 25 -13 33 0 57 12 24 12 31 0 55 -8 15 -19 27 -24
27 -11 0 -13 42 -4 87 3 16 25 52 49 79 65 72 72 94 50 157 l-18 52 32 50 c17
27 31 59 31 71 0 12 -20 52 -44 88 -39 58 -43 70 -39 109 5 40 2 48 -31 84
-38 43 -49 94 -23 110 29 17 36 46 20 75 -15 24 -15 28 1 53 16 25 16 27 -3
59 -21 33 -21 38 -21 1529 0 1469 0 1496 -19 1507 -26 13 -21 16 -74 -38z m45
-3406 l27 -33 -38 -37 -38 -37 -27 40 -28 40 29 29 c15 17 33 30 38 30 6 0 22
-14 37 -32z m115 -149 c7 -44 -3 -87 -20 -87 -7 0 -30 18 -52 40 l-38 39 34
39 c32 37 35 38 52 22 10 -9 20 -33 24 -53z m-228 27 l21 -35 -32 -40 c-31
-39 -32 -40 -41 -17 -11 32 5 128 23 128 4 0 17 -16 29 -36z m129 -141 c12
-12 22 -26 22 -31 0 -4 -18 -26 -40 -47 l-40 -39 -40 39 c-22 21 -40 44 -40
49 0 6 17 27 37 48 41 42 40 42 101 -19z m56 -178 c-19 -42 -26 -43 -48 -10
-16 24 -15 26 21 66 l38 42 3 -31 c2 -17 -4 -47 -14 -67z m-176 34 c23 -29 27
-59 7 -61 -5 0 -18 14 -27 33 -31 62 -19 79 20 28z m87 -117 c0 -31 -19 -28
-23 4 -3 18 0 25 10 22 7 -3 13 -14 13 -26z"/>
</g>
</svg>
