<?xml version="1.0" standalone="no"?>
<!DOCTYPE svg PUBLIC "-//W3C//DTD SVG 20010904//EN"
 "http://www.w3.org/TR/2001/REC-SVG-20010904/DTD/svg10.dtd">
<svg version="1.0" xmlns="http://www.w3.org/2000/svg"
 width="2550.000000pt" height="2700.000000pt" viewBox="0 0 2550.000000 2700.000000"
 preserveAspectRatio="xMidYMid meet">

<g transform="translate(0.000000,2700.000000) scale(0.100000,-0.100000)"
fill="#3a4548" stroke="none">
<path d="M23292 26342 l-52 -47 0 -1502 c0 -827 -4 -1503 -8 -1503 -5 0 -14
-11 -21 -24 -11 -19 -10 -28 2 -52 13 -25 13 -32 -1 -60 -14 -30 -13 -34 9
-65 30 -43 27 -76 -16 -139 -26 -39 -35 -62 -35 -95 0 -27 -6 -47 -17 -56 -24
-20 -63 -109 -63 -144 0 -16 11 -54 25 -84 16 -34 23 -62 19 -75 -21 -64 3
-135 69 -204 36 -37 41 -47 40 -84 -1 -23 -6 -44 -10 -47 -29 -21 -35 -40 -22
-75 10 -29 10 -40 0 -60 -12 -22 -11 -29 8 -61 l21 -36 0 -1622 c0 -892 -4
-1627 -8 -1634 -4 -7 -25 -19 -46 -28 -36 -15 -37 -17 -22 -34 26 -28 20 -67
-14 -93 -51 -38 -40 -48 53 -48 46 0 132 3 190 7 101 6 106 7 85 21 -13 9 -26
21 -30 26 -13 18 -9 59 7 76 14 16 12 19 -30 34 l-45 18 0 1644 c0 904 4 1644
8 1644 5 0 14 11 21 24 11 20 10 28 -4 50 -16 25 -16 27 0 52 15 23 15 30 4
53 -8 14 -20 30 -26 34 -7 4 -13 18 -13 31 0 54 15 87 61 139 66 74 71 90 47
154 l-19 52 35 53 c20 29 36 64 36 78 0 15 -20 53 -46 90 -44 60 -46 65 -35
95 14 40 7 60 -35 105 -45 47 -50 85 -19 122 29 35 30 41 10 72 -14 21 -14 26
2 53 16 29 16 31 -5 60 l-22 31 0 1545 c0 1399 -1 1545 -16 1551 -20 7 -10 13
-72 -42z m32 -3506 c14 -19 26 -39 26 -43 0 -13 -54 -63 -67 -63 -15 0 -53 49
-53 68 0 16 48 72 61 72 4 0 18 -15 33 -34z m116 -118 c24 -40 26 -85 4 -116
l-15 -22 -49 41 -49 41 37 44 c20 24 40 43 45 44 4 0 16 -15 27 -32z m-228
-14 c18 -34 18 -35 -9 -75 -29 -44 -43 -38 -43 17 0 34 18 94 28 94 4 0 15
-16 24 -36z m116 -135 l43 -41 -39 -39 c-22 -21 -44 -39 -49 -39 -5 0 -26 17
-46 38 l-38 39 33 41 c18 22 38 41 43 41 6 0 29 -18 53 -40z m102 -116 c-1
-25 -37 -103 -48 -103 -5 0 -17 9 -27 20 -17 19 -17 21 16 59 37 42 59 51 59
24z m-182 -94 c-4 -23 -5 -23 -26 11 -31 49 -29 71 4 39 17 -17 25 -34 22 -50z
m67 -77 c-8 -9 -25 20 -18 31 3 5 10 2 15 -7 6 -10 7 -20 3 -24z"/>
</g>
</svg>
