<?xml version="1.0" standalone="no"?>
<!DOCTYPE svg PUBLIC "-//W3C//DTD SVG 20010904//EN"
 "http://www.w3.org/TR/2001/REC-SVG-20010904/DTD/svg10.dtd">
<svg version="1.0" xmlns="http://www.w3.org/2000/svg"
 width="2550.000000pt" height="2700.000000pt" viewBox="0 0 2550.000000 2700.000000"
 preserveAspectRatio="xMidYMid meet">

<g transform="translate(0.000000,2700.000000) scale(0.100000,-0.100000)"
fill="#3a4548" stroke="none">
<path d="M15751 19124 l-51 -46 0 -1405 c0 -1382 0 -1405 -20 -1430 -18 -23
-18 -27 -4 -54 13 -26 13 -32 -1 -58 -14 -28 -13 -31 10 -59 33 -39 32 -69 -6
-121 -25 -34 -30 -49 -26 -75 4 -27 1 -39 -19 -57 -30 -28 -64 -97 -64 -130 0
-13 11 -45 24 -70 24 -44 24 -47 9 -90 -21 -58 -14 -84 47 -159 61 -77 75
-137 41 -174 -23 -24 -28 -65 -10 -83 8 -8 6 -19 -5 -41 -14 -28 -14 -32 4
-55 20 -25 20 -47 18 -2028 l-3 -2004 -42 -23 c-42 -23 -42 -23 -23 -42 11
-11 20 -27 20 -35 0 -18 -43 -65 -60 -65 -5 0 -10 -18 -10 -40 l0 -39 133 -3
c72 -2 159 2 192 7 59 11 60 11 63 48 2 27 -2 37 -12 37 -21 0 -56 40 -56 64
0 11 7 28 16 37 16 17 15 19 -9 28 -15 6 -35 19 -47 31 -20 20 -20 22 -20
2008 0 1976 0 1989 20 2007 22 20 26 55 9 72 -8 8 -7 21 2 47 12 33 11 37 -10
60 -21 22 -23 32 -18 77 4 35 15 62 34 86 79 97 89 132 58 193 -15 28 -14 32
12 71 39 60 35 106 -16 174 -34 44 -39 58 -35 86 5 27 -1 43 -25 76 -36 50
-39 88 -9 120 20 21 20 26 8 63 -10 31 -11 43 -2 52 17 17 15 36 -8 68 -20 28
-20 43 -20 1466 0 1450 0 1453 -31 1454 -4 0 -30 -21 -58 -46z m53 -3273 l28
-29 -31 -33 -30 -34 -33 32 -32 33 29 30 c16 16 32 30 35 30 3 0 19 -13 34
-29z m-95 -131 c6 -11 -1 -27 -24 -55 -19 -22 -37 -36 -41 -33 -12 13 -9 82 5
117 l14 33 19 -23 c10 -13 22 -31 27 -39z m186 30 c16 -31 20 -97 7 -118 -6
-9 -19 -1 -45 29 -20 22 -37 43 -37 45 0 5 53 74 57 74 1 0 9 -13 18 -30z
m-80 -140 l40 -41 -40 -34 c-22 -19 -44 -34 -50 -35 -12 0 -75 61 -75 74 0 14
61 76 75 76 6 0 29 -18 50 -40z m72 -136 c-3 -20 -14 -48 -23 -62 l-17 -25
-14 26 c-13 25 -12 30 13 62 34 45 48 45 41 -1z m-189 -4 c16 -21 21 -36 16
-54 -8 -33 -18 -33 -34 2 -37 80 -27 109 18 52z m92 -110 c12 -23 6 -40 -15
-40 -19 0 -27 17 -20 40 8 26 21 25 35 0z"/>
</g>
</svg>
