<?xml version="1.0" standalone="no"?>
<!DOCTYPE svg PUBLIC "-//W3C//DTD SVG 20010904//EN"
 "http://www.w3.org/TR/2001/REC-SVG-20010904/DTD/svg10.dtd">
<svg version="1.0" xmlns="http://www.w3.org/2000/svg"
 width="2550.000000pt" height="2700.000000pt" viewBox="0 0 2550.000000 2700.000000"
 preserveAspectRatio="xMidYMid meet">

<g transform="translate(0.000000,2700.000000) scale(0.100000,-0.100000)"
fill="#3a4548" stroke="none">
<path d="M17808 21093 l-47 -48 0 -1422 c0 -1346 -1 -1425 -18 -1453 -15 -25
-15 -35 -6 -61 8 -21 9 -38 3 -50 -15 -28 -12 -54 10 -74 29 -26 25 -65 -11
-114 -23 -31 -32 -54 -33 -86 -1 -29 -8 -51 -22 -67 -59 -63 -69 -137 -29
-206 23 -41 24 -44 8 -76 -21 -45 -11 -92 30 -146 17 -23 42 -55 55 -72 28
-40 30 -98 2 -123 -22 -20 -25 -46 -10 -76 8 -14 7 -27 -4 -48 -14 -27 -14
-31 5 -54 19 -26 20 -40 19 -2058 0 -1462 -3 -2036 -11 -2045 -6 -7 -26 -19
-45 -26 -32 -11 -46 -28 -24 -28 6 0 15 -11 22 -25 13 -29 -8 -69 -42 -80 -16
-5 -20 -15 -20 -46 l0 -40 182 1 c110 1 188 6 195 12 7 6 13 23 13 39 0 21 -7
31 -27 41 -39 19 -52 61 -27 89 13 15 15 23 7 26 -7 2 -27 14 -45 27 l-33 22
-3 2027 -2 2028 21 22 c14 16 18 29 14 47 -4 14 -7 34 -7 45 0 11 3 31 7 45 4
18 0 31 -14 47 -23 24 -27 75 -11 119 6 14 30 48 54 75 56 62 62 87 37 145
l-20 45 29 46 c41 64 39 97 -10 166 -32 45 -40 64 -40 100 0 34 -7 53 -30 82
-35 45 -39 86 -9 116 16 16 19 28 14 47 -8 34 -8 60 0 92 4 18 0 31 -14 47
-21 22 -21 23 -23 1495 -3 1465 -3 1473 -23 1476 -13 2 -37 -14 -67 -45z m57
-3333 l29 -30 -34 -35 -34 -35 -28 27 c-34 32 -35 49 -6 80 28 30 38 29 73 -7z
m-115 -114 l21 -35 -28 -40 c-15 -22 -31 -40 -35 -41 -3 0 -9 13 -13 29 -6 30
12 121 25 121 5 0 18 -15 30 -34z m208 7 c20 -49 19 -123 0 -123 -16 0 -78 61
-78 76 0 15 48 74 60 74 4 0 12 -12 18 -27z m-90 -136 l42 -43 -38 -37 c-21
-20 -42 -37 -48 -37 -5 0 -27 18 -48 39 l-38 39 37 41 c21 23 40 41 44 41 4 0
26 -19 49 -43z m72 -171 c-17 -53 -36 -63 -54 -29 -14 27 -13 29 22 66 33 35
37 36 40 17 2 -11 -2 -36 -8 -54z m-167 -32 l-10 -29 -21 35 c-12 19 -22 46
-22 60 l0 25 31 -32 c28 -27 30 -34 22 -59z m75 -58 c2 -10 -1 -23 -7 -29 -16
-16 -34 6 -26 33 8 24 28 22 33 -4z"/>
</g>
</svg>
