<?xml version="1.0" standalone="no"?>
<!DOCTYPE svg PUBLIC "-//W3C//DTD SVG 20010904//EN"
 "http://www.w3.org/TR/2001/REC-SVG-20010904/DTD/svg10.dtd">
<svg version="1.0" xmlns="http://www.w3.org/2000/svg"
 width="3542.000000pt" height="3750.000000pt" viewBox="0 0 3542.000000 3750.000000"
 preserveAspectRatio="xMidYMid meet">

<g transform="translate(0.000000,3750.000000) scale(0.100000,-0.100000)"
fill="#3a4548" stroke="none">
<path d="M660 15921 l0 -2539 -30 -32 c-35 -37 -38 -72 -10 -107 20 -26 20
-26 0 -58 -11 -18 -20 -39 -20 -48 0 -23 33 -77 48 -77 8 0 12 -17 12 -52 -1
-94 -20 -141 -93 -228 -37 -45 -72 -98 -78 -121 -12 -37 -10 -45 20 -107 l33
-67 -41 -70 c-64 -110 -60 -137 45 -267 47 -58 50 -65 41 -97 -12 -46 -3 -75
38 -120 29 -32 36 -48 38 -91 3 -42 0 -54 -13 -57 -20 -5 -50 -54 -50 -81 0
-11 7 -25 15 -32 8 -7 15 -25 15 -40 0 -15 -7 -33 -15 -40 -8 -7 -15 -21 -15
-32 0 -21 28 -69 47 -81 11 -6 13 -466 13 -2363 0 -2229 -1 -2356 -17 -2374
-10 -10 -44 -30 -75 -43 l-58 -26 30 -30 c49 -49 32 -106 -40 -135 -38 -15
-38 -15 -37 -70 l2 -55 70 -21 c38 -11 80 -25 93 -30 29 -13 84 -13 153 0 30
5 109 19 176 31 l123 22 0 57 c0 56 -1 58 -32 69 -48 17 -68 40 -68 78 0 23 8
42 25 59 14 14 25 26 25 28 0 2 -27 14 -60 26 -34 13 -65 31 -71 41 -6 12 -9
848 -9 2374 0 2126 2 2358 16 2372 35 35 45 60 35 86 -5 14 -15 28 -20 32 -17
10 -13 40 11 70 21 27 21 28 3 62 -11 19 -27 39 -37 44 -13 7 -18 22 -18 56 0
36 8 57 40 105 31 47 40 70 40 103 0 35 7 51 36 86 80 96 108 193 78 269 -9
25 -26 57 -36 71 -17 26 -17 28 2 70 43 95 20 179 -76 279 -30 32 -60 75 -69
99 -20 57 -20 141 -1 141 8 0 25 16 37 37 l23 36 -22 38 c-22 39 -21 60 6 91
18 22 10 56 -23 92 l-25 27 0 2540 0 2539 -115 0 -115 0 0 -2539z m144 -3057
c9 -23 7 -57 -4 -74 -7 -12 -13 -11 -34 10 -30 28 -32 37 -9 62 20 22 39 23
47 2z m-116 -143 l31 -38 -56 -61 c-30 -34 -59 -59 -64 -56 -14 8 -10 68 7
109 14 35 43 85 48 85 2 0 17 -17 34 -39z m241 -12 c11 -29 21 -63 21 -77 0
-26 -1 -26 -40 13 -22 21 -40 45 -40 52 0 17 22 63 30 63 4 0 17 -23 29 -51z
m-35 -187 l28 -31 -53 -60 c-29 -34 -57 -61 -62 -61 -12 0 -127 103 -127 114
0 5 26 34 58 65 l57 56 35 -27 c19 -14 48 -40 64 -56z m-200 -201 l29 -30 -35
-39 c-20 -22 -41 -48 -47 -58 -10 -18 -12 -18 -36 9 -43 49 -56 154 -23 194
11 14 56 -16 112 -76z m284 7 c-3 -42 -12 -88 -23 -108 -16 -32 -19 -33 -29
-16 -6 10 -21 33 -33 52 l-22 33 47 56 c25 30 50 55 55 55 6 0 8 -32 5 -72z
m-139 -160 c17 -23 31 -47 31 -52 0 -6 -19 -29 -42 -53 l-41 -42 -38 42 c-21
23 -38 46 -39 52 0 11 80 95 91 95 4 0 21 -19 38 -42z"/>
</g>
</svg>
