<?xml version="1.0" standalone="no"?>
<!DOCTYPE svg PUBLIC "-//W3C//DTD SVG 20010904//EN"
 "http://www.w3.org/TR/2001/REC-SVG-20010904/DTD/svg10.dtd">
<svg version="1.0" xmlns="http://www.w3.org/2000/svg"
 width="3542.000000pt" height="3750.000000pt" viewBox="0 0 3542.000000 3750.000000"
 preserveAspectRatio="xMidYMid meet">

<g transform="translate(0.000000,3750.000000) scale(0.100000,-0.100000)"
fill="#3a4548" stroke="none">
<path d="M12300 16455 c0 -1191 -3 -2165 -8 -2165 -4 0 -16 -16 -26 -35 -18
-32 -18 -36 -2 -59 20 -31 21 -60 1 -76 -23 -19 -18 -44 15 -76 23 -23 30 -38
30 -70 0 -22 -7 -49 -15 -60 -8 -10 -15 -33 -15 -51 0 -23 -14 -49 -51 -95
-59 -73 -82 -120 -74 -151 4 -12 18 -43 31 -70 l25 -47 -32 -56 c-45 -80 -39
-122 32 -209 45 -55 53 -72 54 -108 0 -28 8 -53 23 -71 27 -35 32 -116 7 -116
-8 0 -15 -5 -15 -12 0 -6 -8 -20 -17 -30 -17 -19 -17 -21 0 -50 21 -37 22 -56
1 -79 -18 -20 -13 -46 17 -78 l21 -22 0 -2004 c0 -1103 -4 -2010 -8 -2016 -3
-6 -31 -22 -60 -35 l-54 -24 25 -24 c41 -41 26 -91 -35 -116 -28 -11 -30 -16
-30 -61 0 -54 -5 -50 105 -69 39 -7 83 -16 100 -19 17 -4 87 3 165 16 74 12
138 23 143 23 4 0 7 22 7 49 0 45 -2 50 -30 61 -61 25 -76 75 -35 116 l25 24
-54 24 c-29 13 -56 32 -60 41 -4 10 -7 918 -6 2017 0 1775 1 2001 15 2014 32
32 37 54 21 79 -20 31 -20 46 1 83 16 28 16 30 -6 60 -12 18 -27 32 -32 32
-19 0 -9 80 16 126 14 26 25 58 25 71 0 14 17 45 39 71 21 26 46 61 55 79 22
44 20 118 -4 169 l-21 42 21 62 c30 90 16 140 -66 235 -24 27 -44 57 -44 66 0
9 -7 33 -15 52 -24 57 -19 94 15 129 33 33 38 59 15 78 -20 16 -19 45 1 76 16
23 16 27 -2 59 -10 19 -22 35 -26 35 -5 0 -8 974 -8 2165 l0 2165 -100 0 -100
0 0 -2165z m132 -2612 c22 -20 23 -51 2 -81 -16 -23 -17 -23 -36 -5 -38 34
-42 53 -17 79 27 29 27 29 51 7z m124 -201 c3 -24 4 -45 1 -48 -5 -6 -76 66
-77 77 0 4 7 24 16 45 l16 39 19 -35 c10 -19 21 -54 25 -78z m-232 64 c14 -19
26 -39 26 -43 0 -5 -22 -30 -49 -57 -51 -50 -61 -48 -61 10 0 29 39 124 50
124 4 0 19 -15 34 -34z m151 -156 l50 -50 -53 -53 -52 -52 -52 52 -53 53 50
50 c27 27 52 50 55 50 3 0 28 -23 55 -50z m-169 -164 c24 -25 44 -47 44 -51 0
-5 -21 -36 -58 -85 -7 -10 -42 43 -52 80 -11 40 -4 100 12 100 5 0 29 -20 54
-44z m259 -23 c-6 -43 -31 -113 -40 -113 -2 0 -14 18 -25 40 l-21 41 38 43
c21 24 42 42 46 39 5 -3 6 -25 2 -50z m-120 -133 c22 -42 19 -66 -11 -89 l-25
-20 -31 35 -31 35 33 35 c19 18 37 34 42 34 4 0 14 -13 23 -30z"/>
</g>
</svg>
