<?xml version="1.0" standalone="no"?>
<!DOCTYPE svg PUBLIC "-//W3C//DTD SVG 20010904//EN"
 "http://www.w3.org/TR/2001/REC-SVG-20010904/DTD/svg10.dtd">
<svg version="1.0" xmlns="http://www.w3.org/2000/svg"
 width="3542.000000pt" height="3750.000000pt" viewBox="0 0 3542.000000 3750.000000"
 preserveAspectRatio="xMidYMid meet">

<g transform="translate(0.000000,3750.000000) scale(0.100000,-0.100000)"
fill="#3a4548" stroke="none">
<path d="M16458 18672 l-28 -3 0 -2025 c0 -2011 0 -2025 -20 -2046 -23 -25
-25 -55 -5 -82 12 -16 12 -22 0 -47 -8 -15 -15 -36 -15 -46 1 -22 23 -53 39
-53 18 0 13 -77 -9 -117 -11 -20 -17 -46 -14 -57 3 -15 -8 -37 -41 -75 -84
-98 -90 -127 -46 -208 l28 -52 -28 -50 c-45 -78 -41 -102 38 -202 32 -41 43
-64 43 -90 0 -19 9 -47 20 -64 22 -34 27 -105 8 -105 -7 0 -20 -13 -30 -29
-14 -26 -14 -33 -2 -56 18 -35 18 -50 -1 -78 -13 -21 -12 -26 12 -62 l27 -40
3 -1865 c3 -1391 0 -1871 -8 -1887 -7 -12 -33 -31 -60 -43 -48 -20 -49 -20
-29 -40 29 -29 26 -74 -6 -99 -15 -12 -33 -21 -41 -21 -11 0 -13 -12 -11 -47
l3 -47 110 -19 c106 -19 114 -19 228 -3 65 9 125 20 133 23 19 7 20 93 0 93
-7 0 -25 9 -40 21 -32 25 -35 70 -6 99 l20 20 -46 21 c-26 11 -53 27 -61 37
-11 14 -12 345 -10 1887 l2 1870 23 32 c23 33 29 68 12 78 -5 3 -10 17 -10 30
0 13 5 27 10 30 25 15 1 95 -29 95 -18 0 -12 71 9 115 11 22 19 48 20 59 0 10
18 40 40 66 72 87 86 150 49 227 l-21 43 23 54 c20 49 21 59 10 103 -7 28 -30
71 -55 103 -47 61 -76 131 -83 203 -4 33 -1 47 7 47 17 0 39 30 40 53 0 10 -7
29 -16 42 -15 23 -15 27 0 50 21 32 20 57 -4 83 -20 21 -20 35 -20 2052 l0
2031 -67 -3 c-38 -2 -80 -4 -95 -6z m113 -4504 c7 -13 5 -27 -6 -48 -19 -38
-27 -38 -60 1 l-26 32 27 28 c29 30 43 27 65 -13z m-117 -114 l28 -36 -48 -49
c-45 -46 -49 -48 -56 -29 -12 33 19 150 40 150 4 0 20 -16 36 -36z m199 9 c17
-34 30 -100 22 -113 -3 -5 -22 9 -42 31 l-36 40 16 34 c9 19 19 35 22 35 2 0
11 -12 18 -27z m-25 -212 c-27 -36 -73 -81 -82 -81 -12 0 -96 80 -96 92 0 4
21 27 48 52 l47 45 47 -46 c39 -39 45 -49 36 -62z m-191 -102 l42 -45 -26 -37
c-14 -20 -29 -37 -33 -37 -21 0 -55 108 -46 146 8 31 12 30 63 -27z m239 -10
c-4 -23 -14 -57 -22 -77 l-16 -37 -19 38 -20 37 33 40 c18 22 37 40 42 40 5 0
6 -18 2 -41z m-96 -166 c0 -20 -29 -53 -46 -53 -7 0 -22 12 -33 26 l-20 26 27
34 27 35 23 -26 c12 -14 22 -33 22 -42z"/>
</g>
</svg>
