<?xml version="1.0" standalone="no"?>
<!DOCTYPE svg PUBLIC "-//W3C//DTD SVG 20010904//EN"
 "http://www.w3.org/TR/2001/REC-SVG-20010904/DTD/svg10.dtd">
<svg version="1.0" xmlns="http://www.w3.org/2000/svg"
 width="3542.000000pt" height="3750.000000pt" viewBox="0 0 3542.000000 3750.000000"
 preserveAspectRatio="xMidYMid meet">

<g transform="translate(0.000000,3750.000000) scale(0.100000,-0.100000)"
fill="#3a4548" stroke="none">
<path d="M21750 16895 c0 -1842 0 -1856 -20 -1877 -23 -25 -25 -50 -8 -78 10
-16 10 -24 0 -40 -17 -28 -15 -53 8 -78 25 -26 26 -83 3 -118 -9 -14 -16 -39
-15 -57 1 -23 -10 -44 -37 -77 -70 -84 -78 -123 -35 -195 l25 -44 -25 -48
c-14 -26 -26 -57 -26 -68 0 -23 29 -73 76 -131 22 -27 34 -52 34 -72 0 -17 5
-34 10 -37 20 -12 11 -85 -15 -119 -22 -29 -23 -34 -10 -52 17 -22 20 -60 5
-69 -17 -10 -11 -51 10 -70 20 -18 20 -31 20 -1739 0 -947 -4 -1726 -8 -1733
-4 -6 -26 -19 -50 -28 -38 -16 -41 -19 -29 -34 29 -32 30 -59 3 -86 -14 -14
-32 -25 -41 -25 -11 0 -15 -11 -15 -45 0 -25 4 -45 10 -45 5 0 59 -7 119 -15
100 -14 120 -14 208 0 53 9 99 18 102 20 2 3 6 18 8 35 3 30 0 34 -49 71 -33
24 -36 55 -7 85 l20 21 -42 17 c-24 10 -49 25 -56 34 -10 14 -12 337 -7 1732
6 1665 6 1715 25 1741 23 32 23 47 4 73 -13 17 -13 22 0 42 21 32 19 47 -11
79 -21 22 -25 35 -21 64 7 57 36 123 67 156 47 51 63 92 57 151 -3 28 -11 61
-18 72 -10 16 -9 27 9 62 15 30 19 55 16 87 -5 53 -11 66 -59 122 -19 24 -35
53 -35 65 0 12 -9 38 -20 59 -21 38 -27 107 -10 107 5 0 17 12 26 26 16 24 16
27 0 55 -16 28 -16 32 -2 54 21 32 20 47 -4 73 -20 21 -20 35 -20 1877 l0
1855 -85 0 -85 0 0 -1855z m119 -2269 l23 -25 -22 -35 c-12 -20 -23 -36 -25
-36 -2 0 -16 16 -31 35 l-27 36 23 24 c29 31 31 31 59 1z m-89 -137 c13 -23
-66 -111 -80 -89 -15 24 -11 61 11 110 l20 45 20 -25 c11 -14 24 -32 29 -41z
m179 13 c7 -20 11 -52 9 -71 l-3 -33 -32 40 c-31 39 -32 41 -17 71 20 40 28
39 43 -7z m-65 -124 c20 -23 36 -46 36 -52 0 -6 -19 -28 -41 -50 l-41 -38 -46
46 -46 46 44 45 c24 25 47 45 51 45 4 0 24 -19 43 -42z m-142 -145 c21 -20 38
-40 38 -43 0 -3 -11 -21 -24 -39 l-25 -33 -20 33 c-20 32 -30 119 -14 119 4 0
24 -17 45 -37z m215 -17 c-6 -45 -26 -96 -36 -96 -4 0 -12 14 -18 31 -11 29
-9 35 19 70 17 22 33 39 36 39 3 0 2 -20 -1 -44z m-97 -129 c13 -23 13 -28 -4
-46 -24 -27 -32 -26 -51 3 -15 23 -15 27 1 51 20 30 33 28 54 -8z"/>
</g>
</svg>
