<?xml version="1.0" standalone="no"?>
<!DOCTYPE svg PUBLIC "-//W3C//DTD SVG 20010904//EN"
 "http://www.w3.org/TR/2001/REC-SVG-20010904/DTD/svg10.dtd">
<svg version="1.0" xmlns="http://www.w3.org/2000/svg"
 width="3542.000000pt" height="3750.000000pt" viewBox="0 0 3542.000000 3750.000000"
 preserveAspectRatio="xMidYMid meet">

<g transform="translate(0.000000,3750.000000) scale(0.100000,-0.100000)"
fill="#3a4548" stroke="none">
<path d="M23480 16895 c0 -1842 0 -1856 -20 -1877 -23 -25 -25 -46 -5 -72 13
-17 12 -22 -2 -47 -14 -23 -14 -32 -3 -58 7 -17 19 -31 26 -31 21 0 17 -60 -6
-98 -11 -18 -20 -47 -20 -64 0 -23 -13 -49 -46 -90 -59 -76 -65 -110 -29 -181
l28 -55 -21 -37 c-36 -60 -30 -105 24 -170 43 -53 68 -111 81 -191 4 -24 -1
-37 -21 -59 -29 -32 -32 -51 -11 -79 13 -17 13 -22 0 -42 -20 -30 -19 -40 4
-73 19 -26 20 -69 23 -1743 4 -1707 3 -1748 -27 -1748 -4 0 -22 -7 -41 -16
l-35 -17 21 -22 c31 -33 22 -65 -23 -94 -34 -22 -38 -29 -35 -60 l3 -36 115
-17 c108 -16 121 -16 223 0 l107 17 0 40 c0 35 -4 42 -31 54 -43 19 -57 53
-35 86 9 14 22 25 29 25 6 0 -13 13 -43 28 l-55 27 -3 1723 -2 1724 21 30 c20
27 20 33 9 69 -10 30 -11 42 -2 51 19 19 14 55 -11 75 -40 33 -17 139 50 220
65 80 73 129 36 209 -13 29 -12 35 6 65 38 62 20 161 -38 213 -12 11 -26 38
-32 60 -6 23 -19 59 -30 82 -25 52 -24 65 6 100 27 31 32 63 13 82 -9 9 -8 21
2 51 11 36 11 42 -9 69 l-21 30 0 1851 0 1851 -85 0 -85 0 0 -1855z m120
-2270 c24 -26 24 -26 6 -60 -11 -19 -23 -35 -27 -35 -4 0 -19 14 -32 32 l-25
32 21 27 c12 15 25 28 28 28 3 1 16 -10 29 -24z m-101 -121 l24 -35 -38 -39
c-22 -22 -42 -40 -46 -40 -23 0 -13 105 13 138 15 18 21 15 47 -24z m195 -4
c17 -42 22 -100 9 -100 -5 0 -22 16 -39 36 -29 36 -30 38 -15 70 9 18 19 33
22 34 4 0 14 -18 23 -40z m-60 -132 l37 -42 -46 -45 -45 -46 -46 46 -46 46 43
41 c24 23 49 42 56 42 6 0 28 -19 47 -42z m-152 -135 c21 -20 38 -42 38 -48 0
-5 -11 -23 -24 -40 l-23 -29 -22 42 c-20 39 -29 112 -14 112 4 0 24 -17 45
-37z m214 -47 c-4 -18 -12 -41 -20 -51 -13 -18 -15 -17 -31 14 l-17 33 34 35
c36 38 45 30 34 -31z m-96 -96 c11 -26 10 -33 -5 -50 -23 -26 -29 -25 -48 4
-15 22 -15 26 4 50 26 33 34 33 49 -4z"/>
</g>
</svg>
