<?xml version="1.0" standalone="no"?>
<!DOCTYPE svg PUBLIC "-//W3C//DTD SVG 20010904//EN"
 "http://www.w3.org/TR/2001/REC-SVG-20010904/DTD/svg10.dtd">
<svg version="1.0" xmlns="http://www.w3.org/2000/svg"
 width="3542.000000pt" height="3750.000000pt" viewBox="0 0 3542.000000 3750.000000"
 preserveAspectRatio="xMidYMid meet">

<g transform="translate(0.000000,3750.000000) scale(0.100000,-0.100000)"
fill="#3a4548" stroke="none">
<path d="M32010 16566 l0 -2085 -25 -27 c-30 -32 -31 -43 -8 -82 16 -28 16
-31 0 -55 -23 -35 -21 -49 8 -81 30 -32 35 -105 9 -127 -28 -23 -46 -70 -40
-103 5 -26 0 -39 -35 -81 -80 -97 -86 -141 -31 -229 l29 -48 -23 -42 c-26 -45
-31 -95 -12 -129 6 -12 31 -45 55 -73 72 -86 95 -200 48 -250 -29 -32 -32 -60
-8 -86 17 -19 17 -21 0 -50 -23 -39 -22 -50 8 -82 l25 -27 0 -1933 c0 -1531
-3 -1935 -12 -1947 -7 -9 -33 -24 -58 -34 -25 -10 -46 -20 -48 -21 -2 -1 8
-13 22 -27 14 -15 26 -33 26 -42 0 -21 -54 -75 -74 -75 -12 0 -16 -11 -16 -48
l0 -48 155 -23 155 -23 95 23 95 23 0 48 c0 28 -5 48 -11 48 -6 0 -24 9 -40
21 -35 25 -39 69 -9 99 11 11 20 22 20 24 0 2 -22 12 -50 22 -27 10 -50 24
-50 31 0 7 -4 13 -9 13 -5 0 -7 786 -4 1937 4 1651 7 1938 19 1950 31 31 36
53 20 78 -20 31 -20 49 0 80 14 22 14 26 -2 55 -10 16 -24 30 -31 30 -18 0
-17 67 2 120 8 23 36 66 63 95 45 49 72 107 72 151 0 11 -9 38 -20 62 l-19 42
24 36 c52 76 42 148 -35 251 -28 37 -40 62 -40 86 0 20 -11 50 -26 73 -32 47
-44 112 -22 128 8 6 22 23 32 38 17 27 17 29 -2 60 -21 33 -21 34 -2 63 18 28
18 32 3 63 -8 17 -19 32 -24 32 -5 0 -9 902 -9 2090 l0 2090 -95 0 -95 0 0
-2084z m137 -2577 c30 -30 31 -34 18 -59 -7 -14 -21 -33 -30 -40 -14 -12 -21
-9 -52 23 l-36 36 27 35 c15 20 30 36 34 36 3 0 21 -14 39 -31z m-97 -178 c0
-4 -22 -29 -49 -55 l-49 -49 -11 40 c-9 32 -8 49 4 83 25 72 32 75 71 29 19
-23 34 -44 34 -48z m220 -44 c0 -27 -4 -47 -8 -45 -5 2 -25 22 -46 45 l-37 42
28 42 28 42 17 -39 c10 -21 18 -61 18 -87z m-50 -119 c0 -9 -91 -98 -100 -98
-3 0 -28 23 -55 51 l-50 50 55 49 55 49 48 -47 c26 -25 47 -50 47 -54z m-188
-196 c-24 -31 -27 -33 -39 -16 -24 33 -45 103 -39 129 7 26 7 25 55 -27 l48
-53 -25 -33z m199 13 c-22 -49 -35 -52 -45 -9 -6 22 -1 33 26 61 30 31 33 32
36 14 2 -11 -6 -41 -17 -66z m-100 -79 c8 -17 8 -29 0 -45 -14 -26 -23 -26
-45 -2 -17 19 -17 21 1 45 23 32 31 32 44 2z"/>
</g>
</svg>
