<?xml version="1.0" standalone="no"?>
<!DOCTYPE svg PUBLIC "-//W3C//DTD SVG 20010904//EN"
 "http://www.w3.org/TR/2001/REC-SVG-20010904/DTD/svg10.dtd">
<svg version="1.0" xmlns="http://www.w3.org/2000/svg"
 width="3542.000000pt" height="3750.000000pt" viewBox="0 0 3542.000000 3750.000000"
 preserveAspectRatio="xMidYMid meet">

<g transform="translate(0.000000,3750.000000) scale(0.100000,-0.100000)"
fill="#3a4548" stroke="none">
<path d="M11278 18602 l-98 -3 0 -2195 0 -2195 -20 -22 c-29 -31 -36 -64 -16
-86 20 -22 21 -55 1 -71 -8 -7 -15 -19 -15 -27 0 -23 33 -73 47 -73 18 0 16
-78 -2 -110 -8 -14 -14 -38 -15 -55 0 -21 -15 -47 -50 -89 -90 -104 -96 -131
-51 -216 l29 -55 -34 -64 c-49 -92 -48 -98 39 -213 44 -57 51 -73 49 -105 -2
-28 4 -47 22 -72 37 -49 35 -100 -4 -143 -33 -36 -38 -59 -15 -78 20 -16 19
-41 -2 -78 -16 -28 -16 -30 12 -66 l28 -37 0 -2027 c0 -1115 -3 -2037 -7
-2049 -4 -14 -26 -29 -61 -44 -50 -20 -71 -39 -45 -39 5 0 17 -11 26 -25 23
-35 3 -82 -43 -101 -31 -13 -33 -17 -33 -63 l0 -50 58 -11 c31 -7 85 -18 118
-24 53 -11 75 -11 165 6 57 10 123 21 147 24 l42 7 0 48 c0 46 -2 50 -34 63
-58 24 -74 82 -33 118 l24 21 -61 31 -61 31 -3 2044 -2 2043 25 30 c29 35 31
50 8 84 -16 24 -15 28 2 60 15 28 16 38 5 63 -7 17 -21 33 -31 36 -27 9 -24
58 6 123 14 30 25 65 25 78 0 13 20 48 46 80 80 98 92 159 50 251 l-24 52 19
37 c22 45 25 111 5 157 -7 18 -33 57 -58 87 -45 56 -72 116 -81 182 -5 31 -1
42 24 70 32 36 37 71 14 94 -8 9 -15 22 -15 29 0 7 7 20 15 29 22 22 18 58
-10 88 l-25 27 -2 2198 -3 2198 -97 -3z m37 -4862 c18 -19 16 -49 -5 -80 -9
-13 -15 -10 -41 19 l-31 33 23 24 c27 29 31 29 54 4z m-85 -165 c0 -16 -95
-107 -103 -99 -18 18 0 103 31 152 l15 23 28 -33 c16 -18 28 -38 29 -43z m195
21 c9 -23 15 -57 13 -73 l-3 -31 -38 43 -37 44 17 35 c9 19 20 33 24 30 4 -2
15 -24 24 -48z m-62 -144 l47 -48 -46 -52 c-25 -29 -51 -52 -58 -52 -6 0 -34
23 -61 50 l-49 50 49 50 c27 28 54 50 60 50 6 0 32 -22 58 -48z m-176 -167
c24 -25 43 -47 43 -50 0 -2 -14 -25 -31 -50 -37 -55 -51 -49 -75 31 -16 56
-12 114 9 114 6 0 30 -20 54 -45z m248 -92 c-9 -24 -20 -43 -24 -43 -5 0 -16
18 -26 40 l-18 40 39 47 39 48 3 -44 c2 -25 -4 -64 -13 -88z m-105 -65 c26
-42 22 -66 -12 -91 -27 -20 -28 -20 -49 -1 -39 35 -40 48 -8 87 17 21 35 37
40 37 5 0 18 -15 29 -32z"/>
</g>
</svg>
