<?xml version="1.0" standalone="no"?>
<!DOCTYPE svg PUBLIC "-//W3C//DTD SVG 20010904//EN"
 "http://www.w3.org/TR/2001/REC-SVG-20010904/DTD/svg10.dtd">
<svg version="1.0" xmlns="http://www.w3.org/2000/svg"
 width="2550.000000pt" height="2700.000000pt" viewBox="0 0 2550.000000 2700.000000"
 preserveAspectRatio="xMidYMid meet">

<g transform="translate(0.000000,2700.000000) scale(0.100000,-0.100000)"
fill="#C5C3C1" stroke="none">
<path d="M15486 19776 l-49 -43 -2 -3336 c-2 -1835 -6 -3368 -10 -3408 -7 -66
-9 -71 -36 -81 -29 -10 -38 -31 -19 -43 6 -3 10 -20 10 -37 0 -21 -6 -31 -20
-35 -17 -5 -20 -14 -20 -59 l0 -54 150 0 150 0 0 45 c0 39 -4 47 -25 57 -35
16 -41 45 -16 72 23 25 18 37 -27 60 l-32 17 2 3444 c2 1895 1 3445 -2 3445
-3 0 -27 -20 -54 -44z"/>
</g>
</svg>
