<?xml version="1.0" standalone="no"?>
<!DOCTYPE svg PUBLIC "-//W3C//DTD SVG 20010904//EN"
 "http://www.w3.org/TR/2001/REC-SVG-20010904/DTD/svg10.dtd">
<svg version="1.0" xmlns="http://www.w3.org/2000/svg"
 width="2550.000000pt" height="2700.000000pt" viewBox="0 0 2550.000000 2700.000000"
 preserveAspectRatio="xMidYMid meet">

<g transform="translate(0.000000,2700.000000) scale(0.100000,-0.100000)"
fill="#C5C3C1" stroke="none">
<path d="M17273 21461 l-43 -39 0 -3401 0 -3402 -25 -24 c-13 -14 -31 -25 -40
-25 -19 0 -19 -14 0 -30 23 -19 18 -47 -15 -77 -20 -17 -30 -36 -30 -55 l0
-28 161 0 160 0 -3 33 c-2 22 -10 35 -25 42 -20 9 -26 23 -26 60 0 6 3 20 7
33 4 12 4 21 -1 20 -4 -2 -18 5 -31 14 l-23 16 -2 3448 c-1 2288 -5 3448 -12
3450 -5 2 -29 -14 -52 -35z"/>
</g>
</svg>
