<?xml version="1.0" standalone="no"?>
<!DOCTYPE svg PUBLIC "-//W3C//DTD SVG 20010904//EN"
 "http://www.w3.org/TR/2001/REC-SVG-20010904/DTD/svg10.dtd">
<svg version="1.0" xmlns="http://www.w3.org/2000/svg"
 width="2550.000000pt" height="2700.000000pt" viewBox="0 0 2550.000000 2700.000000"
 preserveAspectRatio="xMidYMid meet">

<g transform="translate(0.000000,2700.000000) scale(0.100000,-0.100000)"
fill="#C5C3C1" stroke="none">
<path d="M19960 24237 c-20 -17 -43 -43 -53 -57 -16 -23 -17 -248 -17 -3942
l0 -3918 -37 -17 c-21 -10 -40 -19 -42 -20 -2 -2 3 -11 12 -21 26 -29 21 -61
-13 -80 -22 -12 -30 -24 -30 -45 l0 -27 177 2 c172 3 176 3 179 25 3 15 -3 24
-16 28 -11 4 -28 18 -37 32 -15 23 -15 27 0 53 16 27 16 29 -1 34 -45 15 -61
43 -61 109 0 34 0 275 0 535 -1 465 -1 472 -21 472 -23 0 -23 1 -22 254 1 145
3 161 21 180 l21 22 0 3194 c1 2608 -2 3196 -12 3207 -11 10 -20 7 -48 -20z"/>
</g>
</svg>
