<?xml version="1.0" standalone="no"?>
<!DOCTYPE svg PUBLIC "-//W3C//DTD SVG 20010904//EN"
 "http://www.w3.org/TR/2001/REC-SVG-20010904/DTD/svg10.dtd">
<svg version="1.0" xmlns="http://www.w3.org/2000/svg"
 width="2550.000000pt" height="2700.000000pt" viewBox="0 0 2550.000000 2700.000000"
 preserveAspectRatio="xMidYMid meet">

<g transform="translate(0.000000,2700.000000) scale(0.100000,-0.100000)"
fill="#C5C3C1" stroke="none">
<path d="M11972 16321 l-62 -70 0 -3408 c0 -2638 -3 -3412 -12 -3421 -7 -7
-19 -12 -28 -12 -8 0 -22 -4 -30 -10 -12 -7 -12 -12 4 -29 26 -29 17 -63 -22
-81 -28 -13 -32 -19 -30 -49 3 -33 6 -36 58 -51 43 -12 75 -14 145 -9 50 4
107 8 128 8 36 1 37 2 37 41 0 27 -4 40 -13 40 -20 0 -47 33 -47 57 0 11 7 26
15 33 22 18 19 25 -20 40 -19 7 -37 20 -40 28 -3 8 -5 1577 -5 3488 0 1911 -4
3474 -8 3474 -4 0 -36 -31 -70 -69z"/>
</g>
</svg>
