<?xml version="1.0" standalone="no"?>
<!DOCTYPE svg PUBLIC "-//W3C//DTD SVG 20010904//EN"
 "http://www.w3.org/TR/2001/REC-SVG-20010904/DTD/svg10.dtd">
<svg version="1.0" xmlns="http://www.w3.org/2000/svg"
 width="2550.000000pt" height="2700.000000pt" viewBox="0 0 2550.000000 2700.000000"
 preserveAspectRatio="xMidYMid meet">

<g transform="translate(0.000000,2700.000000) scale(0.100000,-0.100000)"
fill="#C5C3C1" stroke="none">
<path d="M12874 17228 l-61 -63 -2 -3834 c-1 -2695 -5 -3839 -12 -3848 -6 -7
-26 -18 -45 -25 l-34 -12 22 -23 c18 -20 20 -26 9 -49 -6 -14 -21 -28 -32 -31
-17 -5 -20 -12 -17 -47 3 -37 6 -41 33 -44 17 -2 35 -8 40 -12 11 -9 257 4
274 15 6 3 11 18 11 33 0 19 -8 32 -30 44 -22 13 -30 24 -30 46 0 15 5 33 12
40 6 6 10 13 7 15 -2 1 -21 15 -41 30 l-38 28 -2 3900 -3 3900 -61 -63z"/>
</g>
</svg>
