<?xml version="1.0" standalone="no"?>
<!DOCTYPE svg PUBLIC "-//W3C//DTD SVG 20010904//EN"
 "http://www.w3.org/TR/2001/REC-SVG-20010904/DTD/svg10.dtd">
<svg version="1.0" xmlns="http://www.w3.org/2000/svg"
 width="2550.000000pt" height="2700.000000pt" viewBox="0 0 2550.000000 2700.000000"
 preserveAspectRatio="xMidYMid meet">

<g transform="translate(0.000000,2700.000000) scale(0.100000,-0.100000)"
fill="#C5C3C1" stroke="none">
<path d="M13702 18067 l-52 -53 0 -3392 c0 -3279 -1 -3393 -18 -3409 -10 -10
-27 -23 -36 -28 -15 -9 -16 -14 -5 -38 15 -33 -3 -77 -33 -77 -14 0 -18 -8
-18 -35 0 -54 37 -66 196 -63 l129 3 3 34 c3 28 -2 38 -27 58 -34 27 -38 48
-16 80 14 20 14 22 -3 27 -11 4 -29 17 -40 29 l-22 23 2 3447 c2 1896 1 3447
-2 3447 -3 0 -29 -24 -58 -53z"/>
</g>
</svg>
