<?xml version="1.0" standalone="no"?>
<!DOCTYPE svg PUBLIC "-//W3C//DTD SVG 20010904//EN"
 "http://www.w3.org/TR/2001/REC-SVG-20010904/DTD/svg10.dtd">
<svg version="1.0" xmlns="http://www.w3.org/2000/svg"
 width="2644.000000pt" height="2800.000000pt" viewBox="0 0 2644.000000 2800.000000"
 preserveAspectRatio="xMidYMid meet">

<g transform="translate(0.000000,2800.000000) scale(0.100000,-0.100000)"
fill="#3a4548" stroke="none">
<path d="M1578 12378 c-4 -1771 -4 -1776 -54 -2129 -15 -108 -12 -132 19 -171
8 -10 22 -18 31 -18 19 0 23 -58 4 -65 -7 -2 -25 -9 -40 -14 l-28 -10 21 -36
c29 -48 19 -82 -29 -102 -20 -8 -39 -18 -42 -22 -3 -3 -14 -11 -24 -17 -30
-16 -30 -33 -2 -44 14 -5 26 -14 26 -19 0 -5 14 -12 30 -16 53 -12 66 -66 25
-105 -14 -13 -25 -27 -25 -31 0 -5 23 -11 50 -15 49 -6 50 -7 50 -40 0 -24 -7
-38 -24 -49 -35 -23 -59 -89 -52 -144 34 -279 47 -398 56 -523 6 -92 10 -728
10 -1696 0 -1463 -1 -1550 -17 -1564 -10 -8 -33 -20 -50 -28 -31 -12 -45 -30
-23 -30 6 0 15 -11 22 -25 14 -31 -10 -72 -47 -81 -22 -5 -25 -12 -25 -48 l0
-42 128 -11 c123 -11 130 -10 217 14 50 15 93 31 98 37 17 26 1 66 -33 84 -43
21 -52 60 -21 91 l20 20 -49 16 c-37 12 -57 14 -84 6 -21 -5 -36 -6 -36 0 0 4
15 12 33 17 l32 8 2 1590 c3 1691 4 1743 53 2074 11 74 20 148 20 163 0 41
-26 85 -52 89 -19 2 -24 10 -26 41 -3 31 0 37 17 37 11 0 31 4 46 10 l25 10
-20 20 c-11 11 -20 31 -20 45 0 31 27 75 46 75 8 0 17 6 20 14 3 8 16 17 30
20 30 8 34 46 4 46 -11 0 -20 7 -20 15 0 8 -7 15 -15 15 -9 0 -29 10 -45 22
-35 26 -39 59 -10 90 19 21 19 21 -6 35 -15 7 -33 13 -40 13 -9 0 -14 11 -14
32 0 23 8 39 32 59 32 26 33 29 33 105 0 44 -8 126 -18 184 -46 287 -47 329
-47 2036 0 1461 -1 1612 -16 1618 -9 3 -44 6 -79 6 l-64 0 -3 -1662z"/>
</g>
</svg>
