<?xml version="1.0" standalone="no"?>
<!DOCTYPE svg PUBLIC "-//W3C//DTD SVG 20010904//EN"
 "http://www.w3.org/TR/2001/REC-SVG-20010904/DTD/svg10.dtd">
<svg version="1.0" xmlns="http://www.w3.org/2000/svg"
 width="2644.000000pt" height="2800.000000pt" viewBox="0 0 2644.000000 2800.000000"
 preserveAspectRatio="xMidYMid meet">

<g transform="translate(0.000000,2800.000000) scale(0.100000,-0.100000)"
fill="#3a4548" stroke="none">
<path d="M9420 17224 c0 -16 0 -546 0 -1179 -1 -1135 -7 -1432 -35 -1693 -21
-185 -20 -205 10 -240 34 -40 32 -61 -5 -69 -41 -8 -45 -18 -20 -50 18 -23 19
-29 7 -47 -8 -11 -32 -30 -53 -42 -21 -12 -40 -29 -42 -37 -2 -9 17 -27 47
-46 55 -34 64 -58 35 -99 -14 -21 -14 -23 11 -32 14 -6 31 -10 36 -10 17 0 9
-33 -13 -58 -20 -21 -23 -34 -22 -105 0 -45 9 -154 18 -242 14 -126 19 -281
23 -727 3 -312 3 -578 -1 -592 -4 -17 -18 -31 -41 -40 l-35 -15 17 -30 c17
-28 17 -30 -1 -50 -11 -12 -25 -21 -33 -21 -10 0 -13 -10 -11 -37 l3 -38 95
-3 c52 -2 128 0 168 3 72 7 72 7 72 36 0 20 -10 38 -32 58 -32 28 -32 28 -14
56 15 23 16 29 5 36 -8 5 -19 9 -26 9 -6 0 -18 9 -26 20 -21 31 -15 1086 8
1315 31 315 31 326 3 360 -29 35 -23 75 11 75 28 0 36 18 17 39 -30 33 -20 59
34 92 28 17 50 37 50 44 0 12 -32 38 -75 60 -25 13 -31 57 -11 78 22 22 21 25
-19 41 -38 16 -38 29 -3 75 21 27 23 77 8 196 -26 218 -30 404 -31 1628 -1
708 -4 1289 -8 1291 -3 2 -32 7 -63 11 l-58 7 0 -28z"/>
</g>
</svg>
