<?xml version="1.0" standalone="no"?>
<!DOCTYPE svg PUBLIC "-//W3C//DTD SVG 20010904//EN"
 "http://www.w3.org/TR/2001/REC-SVG-20010904/DTD/svg10.dtd">
<svg version="1.0" xmlns="http://www.w3.org/2000/svg"
 width="2644.000000pt" height="2800.000000pt" viewBox="0 0 2644.000000 2800.000000"
 preserveAspectRatio="xMidYMid meet">

<g transform="translate(0.000000,2800.000000) scale(0.100000,-0.100000)"
fill="#3a4548" stroke="none">
<path d="M9900 16005 c0 -1191 -5 -1402 -36 -1668 -18 -149 -14 -201 16 -220
24 -14 27 -57 4 -57 -8 0 -24 -5 -35 -10 -19 -11 -19 -11 2 -39 17 -23 19 -33
10 -49 -6 -11 -21 -24 -33 -28 -12 -3 -33 -17 -47 -31 l-26 -24 30 -24 c17
-14 36 -25 42 -25 7 0 20 -11 29 -26 16 -24 16 -26 -5 -55 l-22 -29 26 -10
c15 -6 31 -10 36 -10 17 0 9 -45 -11 -57 -29 -19 -34 -71 -16 -211 29 -240 37
-452 34 -952 l-3 -494 -38 -22 c-33 -18 -36 -23 -22 -34 24 -20 18 -47 -15
-72 -21 -15 -30 -30 -30 -50 0 -28 0 -28 65 -28 37 0 65 -4 65 -10 0 -5 7 -10
15 -10 8 0 15 6 15 13 0 9 3 8 9 -2 6 -10 19 -12 42 -7 19 4 54 10 79 14 42 6
45 9 48 40 3 26 -1 34 -22 41 -32 13 -43 47 -22 70 21 23 20 28 -8 35 -58 14
-56 -7 -56 539 0 488 13 793 40 961 16 102 13 141 -15 174 -33 40 -32 59 5 67
40 9 45 20 21 51 -24 30 -15 59 22 74 41 17 70 47 64 64 -4 9 -13 16 -22 16
-8 0 -15 3 -15 8 0 4 -13 13 -29 20 -37 17 -44 45 -19 77 23 30 23 29 -17 42
-37 12 -44 38 -16 64 33 31 35 63 18 218 -10 80 -20 200 -23 266 -4 66 -8 131
-9 145 -2 14 -3 570 -4 1237 l-1 1211 -60 4 -60 3 0 -1200z"/>
</g>
</svg>
