<?xml version="1.0" standalone="no"?>
<!DOCTYPE svg PUBLIC "-//W3C//DTD SVG 20010904//EN"
 "http://www.w3.org/TR/2001/REC-SVG-20010904/DTD/svg10.dtd">
<svg version="1.0" xmlns="http://www.w3.org/2000/svg"
 width="2644.000000pt" height="2800.000000pt" viewBox="0 0 2644.000000 2800.000000"
 preserveAspectRatio="xMidYMid meet">

<g transform="translate(0.000000,2800.000000) scale(0.100000,-0.100000)"
fill="#3a4548" stroke="none">
<path d="M2178 14032 l-37 -3 -4 -1652 c-3 -1445 -6 -1667 -20 -1772 -25 -185
-37 -267 -41 -274 -6 -10 -36 -189 -36 -217 0 -39 26 -80 60 -94 25 -10 30
-18 30 -45 0 -28 -4 -33 -40 -45 -46 -15 -48 -20 -20 -45 11 -10 20 -30 20
-44 -1 -33 -32 -71 -58 -71 -12 0 -22 -9 -25 -21 -3 -12 -10 -18 -15 -15 -13
8 -35 -20 -27 -34 3 -5 15 -10 26 -10 10 0 19 -6 19 -14 0 -7 14 -16 30 -20
51 -10 65 -79 25 -120 -21 -21 -20 -23 24 -31 34 -6 40 -10 43 -37 4 -27 1
-32 -28 -44 -37 -16 -64 -58 -64 -101 0 -15 9 -77 20 -138 11 -60 30 -180 42
-265 22 -154 22 -167 26 -1809 3 -1836 9 -1681 -67 -1716 -39 -17 -40 -19 -21
-32 39 -28 23 -79 -33 -108 -25 -12 -29 -74 -6 -86 22 -12 241 -26 269 -18 14
5 58 17 98 29 l72 21 0 39 c0 31 -4 40 -22 46 -57 17 -74 61 -38 99 l20 22
-39 11 c-21 7 -44 19 -51 27 -17 21 -27 3067 -10 3263 13 156 41 357 70 514
19 97 19 111 6 143 -9 21 -30 44 -51 56 -31 18 -36 26 -33 53 2 22 9 32 23 35
11 2 31 8 44 13 24 9 24 9 4 23 -45 32 -34 104 19 121 13 3 30 13 38 21 8 8
24 20 35 27 16 12 17 16 6 30 -7 9 -20 16 -27 16 -8 0 -14 4 -14 8 0 4 -16 14
-35 21 -59 21 -68 68 -23 117 19 21 19 21 -4 28 -13 3 -33 6 -45 6 -20 0 -23
5 -23 40 0 31 4 40 17 40 9 0 30 12 45 27 34 33 36 64 9 213 -11 58 -24 155
-31 215 -6 61 -17 119 -23 130 -9 15 -13 454 -15 1721 l-3 1702 -37 3 c-20 2
-54 3 -74 1z"/>
</g>
</svg>
