<?xml version="1.0" standalone="no"?>
<!DOCTYPE svg PUBLIC "-//W3C//DTD SVG 20010904//EN"
 "http://www.w3.org/TR/2001/REC-SVG-20010904/DTD/svg10.dtd">
<svg version="1.0" xmlns="http://www.w3.org/2000/svg"
 width="2644.000000pt" height="2800.000000pt" viewBox="0 0 2644.000000 2800.000000"
 preserveAspectRatio="xMidYMid meet">

<g transform="translate(0.000000,2800.000000) scale(0.100000,-0.100000)"
fill="#3a4548" stroke="none">
<path d="M5161 15530 l-71 -99 0 -1172 c0 -1221 -2 -1293 -45 -1624 -23 -173
-17 -227 27 -241 14 -4 18 -13 16 -37 -3 -26 -9 -32 -38 -40 -46 -12 -47 -13
-21 -41 34 -36 26 -76 -21 -99 -21 -10 -38 -23 -38 -28 0 -5 -6 -9 -14 -9 -7
0 -19 -6 -25 -14 -12 -14 -10 -17 33 -53 8 -7 20 -13 26 -13 6 0 22 -7 35 -16
31 -20 33 -64 5 -89 -11 -10 -20 -21 -20 -25 0 -7 41 -22 65 -24 6 -1 11 -13
13 -28 2 -20 -4 -34 -23 -51 -38 -32 -41 -82 -16 -277 11 -91 25 -228 31 -305
11 -162 14 -3414 2 -3431 -4 -6 -23 -19 -42 -29 -47 -23 -46 -22 -25 -45 24
-27 11 -70 -28 -88 -22 -11 -27 -20 -27 -52 l0 -38 88 -8 c48 -4 141 -8 207
-8 l120 -1 3 57 c3 53 2 57 -24 70 -50 24 -53 41 -17 109 2 3 -15 12 -37 19
-23 7 -43 17 -45 21 -10 16 -5 3360 5 3480 6 68 20 198 31 287 11 90 17 177
14 193 -4 17 -20 43 -35 59 -37 37 -33 62 11 73 49 12 54 21 25 50 -14 14 -26
33 -26 41 0 21 39 56 62 56 10 0 21 7 24 15 4 8 12 15 19 15 7 0 19 7 26 16
11 14 8 20 -21 45 -19 16 -43 29 -52 29 -22 0 -58 34 -58 54 0 8 11 28 25 45
l26 30 -40 12 c-53 16 -60 44 -21 80 32 30 46 80 37 137 -54 340 -57 440 -57
1815 0 732 -4 1277 -9 1277 -5 0 -41 -45 -80 -100z"/>
</g>
</svg>
