<?xml version="1.0" standalone="no"?>
<!DOCTYPE svg PUBLIC "-//W3C//DTD SVG 20010904//EN"
 "http://www.w3.org/TR/2001/REC-SVG-20010904/DTD/svg10.dtd">
<svg version="1.0" xmlns="http://www.w3.org/2000/svg"
 width="2644.000000pt" height="2800.000000pt" viewBox="0 0 2644.000000 2800.000000"
 preserveAspectRatio="xMidYMid meet">

<g transform="translate(0.000000,2800.000000) scale(0.100000,-0.100000)"
fill="#3a4548" stroke="none">
<path d="M7857 15958 c-3 -1266 -6 -1448 -20 -1563 -10 -71 -20 -167 -23 -212
-7 -78 -6 -82 20 -107 14 -15 26 -37 26 -50 0 -19 -7 -25 -35 -30 -19 -4 -35
-9 -35 -12 0 -3 10 -18 22 -34 18 -25 20 -34 10 -54 -6 -14 -23 -28 -37 -32
-14 -3 -25 -9 -25 -13 0 -4 -11 -13 -25 -19 -14 -6 -25 -16 -25 -22 0 -6 25
-26 56 -46 30 -19 58 -42 61 -50 3 -9 -4 -28 -16 -44 -11 -16 -21 -31 -21 -34
0 -3 16 -8 35 -12 30 -5 35 -10 35 -35 0 -16 -4 -29 -10 -29 -17 0 -40 -58
-40 -102 0 -24 5 -70 10 -103 36 -223 40 -414 40 -1845 0 -1201 -2 -1411 -14
-1423 -8 -8 -28 -19 -44 -26 -30 -13 -30 -13 -11 -32 26 -26 24 -43 -11 -72
-21 -18 -30 -35 -30 -55 0 -29 1 -29 68 -37 97 -11 169 -9 235 5 56 13 57 14
57 47 0 26 -5 35 -24 42 -21 9 -36 29 -36 52 0 5 9 18 20 29 l20 20 -27 10
c-16 6 -35 14 -43 19 -13 7 -15 182 -15 1477 0 1456 0 1471 23 1671 29 262 28
278 -3 309 -14 14 -25 35 -25 48 0 19 7 25 35 30 39 8 42 12 20 36 -33 36 -23
61 38 102 31 21 57 43 57 48 0 6 -24 26 -54 45 -65 41 -74 60 -46 97 11 15 20
29 20 32 0 3 -16 8 -35 12 -28 5 -35 11 -35 30 0 13 11 34 25 48 30 30 32 70
11 249 -32 267 -36 451 -36 1747 l0 1307 -37 7 c-21 3 -52 6 -70 6 l-32 0 -4
-1432z"/>
</g>
</svg>
