<?xml version="1.0" standalone="no"?>
<!DOCTYPE svg PUBLIC "-//W3C//DTD SVG 20010904//EN"
 "http://www.w3.org/TR/2001/REC-SVG-20010904/DTD/svg10.dtd">
<svg version="1.0" xmlns="http://www.w3.org/2000/svg"
 width="2644.000000pt" height="2800.000000pt" viewBox="0 0 2644.000000 2800.000000"
 preserveAspectRatio="xMidYMid meet">

<g transform="translate(0.000000,2800.000000) scale(0.100000,-0.100000)"
fill="#3a4548" stroke="none">
<path d="M16028 13984 c-3 -3 -37 -7 -74 -9 l-69 -3 -6 -1828 c-5 -1655 -7
-1847 -23 -2019 -10 -104 -19 -236 -20 -293 -1 -96 1 -105 22 -122 14 -11 22
-29 22 -48 0 -26 -6 -31 -45 -46 -46 -18 -56 -32 -31 -42 8 -3 20 -19 26 -35
17 -41 0 -76 -45 -95 -19 -8 -35 -18 -35 -23 0 -4 -11 -13 -25 -19 -15 -7 -25
-20 -25 -32 0 -13 10 -24 25 -30 14 -5 25 -14 25 -19 0 -5 11 -12 25 -15 34
-9 65 -41 65 -68 0 -11 -11 -36 -26 -55 l-25 -33 26 -10 c15 -6 35 -10 46 -10
15 0 19 -7 19 -34 0 -18 -6 -39 -14 -45 -7 -6 -19 -32 -26 -58 -11 -39 -11
-78 4 -247 9 -111 21 -280 26 -376 11 -205 13 -3960 2 -3976 -4 -5 -25 -21
-47 -34 -22 -13 -42 -25 -44 -27 -2 -1 3 -11 11 -20 33 -37 26 -79 -17 -105
-34 -19 -36 -23 -33 -67 l3 -46 156 -14 155 -13 61 31 c60 30 61 31 65 77 2
35 0 48 -12 52 -28 10 -60 45 -60 67 0 12 9 30 20 40 28 25 26 30 -20 44 -75
22 -69 -157 -66 2011 2 1075 7 2000 11 2055 4 55 15 191 24 303 19 222 16 282
-18 313 -34 32 -24 60 31 86 l48 23 -25 24 c-32 32 -33 78 -3 106 12 11 28 20
35 20 8 0 16 7 20 16 3 8 16 20 29 25 32 12 32 47 -1 59 -14 5 -25 14 -25 20
0 5 -6 10 -14 10 -7 0 -25 9 -40 21 -35 28 -35 73 0 110 l26 28 -48 14 c-42
12 -49 18 -52 42 -2 17 4 35 17 49 31 33 40 96 30 204 -40 411 -41 458 -44
2286 -3 978 -6 1780 -8 1782 -2 2 -6 1 -9 -2z"/>
</g>
</svg>
