<?xml version="1.0" standalone="no"?>
<!DOCTYPE svg PUBLIC "-//W3C//DTD SVG 20010904//EN"
 "http://www.w3.org/TR/2001/REC-SVG-20010904/DTD/svg10.dtd">
<svg version="1.0" xmlns="http://www.w3.org/2000/svg"
 width="2644.000000pt" height="2800.000000pt" viewBox="0 0 2644.000000 2800.000000"
 preserveAspectRatio="xMidYMid meet">

<g transform="translate(0.000000,2800.000000) scale(0.100000,-0.100000)"
fill="#3a4548" stroke="none">
<path d="M21587 26663 c-3 -1308 -4 -1341 -24 -1473 -21 -129 -50 -279 -78
-403 -21 -89 -3 -132 67 -168 51 -26 50 -51 -4 -72 l-42 -17 21 -22 c34 -38
38 -66 12 -94 -12 -13 -31 -24 -41 -24 -10 0 -18 -5 -18 -10 0 -6 -11 -15 -25
-20 -14 -5 -25 -15 -25 -22 0 -13 40 -56 100 -107 l35 -29 -18 -36 c-9 -20
-21 -36 -27 -36 -22 0 -8 -17 30 -39 50 -28 56 -66 13 -82 -65 -25 -97 -85
-83 -155 5 -22 22 -104 39 -184 70 -329 66 -182 66 -2355 l0 -1960 -35 -17
c-19 -10 -39 -19 -44 -21 -5 -2 1 -17 13 -33 19 -26 20 -34 10 -56 -6 -14 -22
-31 -35 -37 -13 -6 -24 -19 -24 -30 0 -19 7 -19 188 -14 103 2 193 7 201 9 10
3 5 11 -17 24 -43 26 -51 64 -22 95 l22 24 -45 21 c-27 13 -47 30 -51 43 -3
12 -6 850 -6 1862 0 1541 2 1867 15 2005 16 183 41 347 80 519 38 174 34 196
-46 251 -58 39 -60 60 -6 73 43 10 45 17 16 57 -30 39 -19 77 26 96 19 8 35
18 35 23 0 5 9 11 20 14 11 3 20 14 20 24 0 19 -81 103 -100 103 -22 0 -23 51
-1 80 11 16 21 32 21 34 0 3 -18 18 -40 32 -53 35 -52 58 4 83 85 37 91 81 42
295 -34 149 -62 342 -76 510 -6 79 -10 602 -10 1352 l0 1224 -75 0 -74 0 -4
-1337z"/>
</g>
</svg>
