<?xml version="1.0" standalone="no"?>
<!DOCTYPE svg PUBLIC "-//W3C//DTD SVG 20010904//EN"
 "http://www.w3.org/TR/2001/REC-SVG-20010904/DTD/svg10.dtd">
<svg version="1.0" xmlns="http://www.w3.org/2000/svg"
 width="2644.000000pt" height="2800.000000pt" viewBox="0 0 2644.000000 2800.000000"
 preserveAspectRatio="xMidYMid meet">

<g transform="translate(0.000000,2800.000000) scale(0.100000,-0.100000)"
fill="#3a4548" stroke="none">
<path d="M24037 27813 c-3 -105 -15 -248 -26 -323 -21 -139 -63 -359 -81 -420
-22 -77 -1 -135 66 -177 42 -27 59 -63 30 -63 -8 0 -27 -5 -42 -10 l-27 -11
20 -22 c12 -12 24 -32 28 -45 9 -29 -18 -72 -46 -72 -11 0 -22 -6 -25 -14 -3
-8 -14 -16 -25 -19 -42 -11 -34 -37 36 -107 l67 -67 -16 -31 c-9 -17 -21 -32
-28 -34 -7 -3 6 -20 30 -42 52 -47 53 -68 7 -85 -19 -6 -43 -24 -54 -38 -34
-42 -35 -83 -8 -200 37 -155 64 -309 82 -458 13 -112 15 -396 15 -2079 0
-1323 -3 -1953 -10 -1961 -6 -7 -25 -19 -43 -26 -43 -17 -42 -16 -25 -36 32
-35 26 -79 -12 -101 -45 -25 -37 -34 28 -28 31 3 110 8 175 12 86 4 116 9 108
17 -17 17 -13 55 10 75 l20 19 -45 27 c-26 15 -48 36 -51 49 -3 12 -4 902 -2
1977 l3 1955 22 155 c23 158 53 321 77 420 23 92 25 111 11 144 -12 30 -61 78
-101 102 -24 13 -13 31 25 39 40 9 45 20 21 51 -12 15 -21 37 -21 50 0 24 31
64 50 64 19 0 70 43 70 60 0 8 -27 42 -60 75 -33 33 -60 66 -60 74 0 8 10 25
22 38 l22 23 -42 43 c-23 24 -42 46 -42 50 0 3 17 15 38 26 90 46 100 85 62
244 -57 242 -100 568 -100 768 l0 99 -74 0 -73 0 -6 -187z"/>
</g>
</svg>
