<?xml version="1.0" standalone="no"?>
<!DOCTYPE svg PUBLIC "-//W3C//DTD SVG 20010904//EN"
 "http://www.w3.org/TR/2001/REC-SVG-20010904/DTD/svg10.dtd">
<svg version="1.0" xmlns="http://www.w3.org/2000/svg"
 width="2644.000000pt" height="2800.000000pt" viewBox="0 0 2644.000000 2800.000000"
 preserveAspectRatio="xMidYMid meet">

<g transform="translate(0.000000,2800.000000) scale(0.100000,-0.100000)"
fill="#3a4548" stroke="none">
<path d="M14750 12302 c0 -1836 1 -1814 -59 -2158 -16 -93 -37 -205 -47 -249
-17 -79 -17 -82 2 -120 13 -28 31 -46 61 -60 36 -17 42 -25 43 -51 0 -27 -5
-32 -41 -44 -22 -8 -42 -17 -45 -21 -2 -4 7 -20 21 -35 14 -15 25 -38 25 -51
0 -28 -44 -73 -71 -73 -11 0 -19 -6 -19 -13 0 -7 -10 -17 -22 -22 -15 -7 -23
-19 -23 -35 0 -18 6 -26 23 -28 12 -2 22 -10 22 -18 0 -8 9 -14 20 -14 27 0
70 -43 70 -69 0 -11 -12 -34 -27 -51 -30 -36 -24 -45 35 -56 28 -6 32 -10 32
-39 0 -29 -4 -34 -29 -40 -15 -3 -41 -20 -57 -36 -38 -40 -38 -80 3 -274 18
-82 42 -224 55 -315 l23 -165 3 -1924 c3 -2134 9 -1951 -67 -1985 l-40 -19 24
-29 c14 -16 25 -33 25 -37 0 -16 -41 -60 -60 -66 -16 -5 -20 -15 -20 -54 l0
-48 47 -7 c26 -3 92 -9 147 -13 56 -3 104 -11 109 -17 5 -8 9 -8 15 0 4 6 35
26 70 43 61 31 62 32 62 74 0 37 -3 44 -31 56 -51 23 -59 93 -13 119 14 8 7
13 -35 27 -36 12 -53 23 -56 38 -3 12 -4 893 -2 1957 3 2163 -3 1964 78 2363
33 165 38 204 29 231 -12 38 -44 70 -82 85 -22 8 -28 17 -28 41 0 25 6 32 46
51 l46 21 -26 27 c-43 45 -32 92 32 125 17 9 32 21 32 26 0 6 6 10 13 10 8 0
22 9 31 19 16 18 15 20 -29 50 -25 17 -50 31 -56 31 -18 0 -49 40 -49 64 0 14
12 38 26 55 l26 31 -27 10 c-14 5 -35 10 -46 10 -15 0 -19 7 -19 35 0 32 4 37
39 51 74 29 89 79 62 204 -25 111 -57 288 -79 428 -14 95 -17 303 -22 1867
l-5 1760 -82 3 -83 3 0 -1679z"/>
</g>
</svg>
