<?xml version="1.0" standalone="no"?>
<!DOCTYPE svg PUBLIC "-//W3C//DTD SVG 20010904//EN"
 "http://www.w3.org/TR/2001/REC-SVG-20010904/DTD/svg10.dtd">
<svg version="1.0" xmlns="http://www.w3.org/2000/svg"
 width="2644.000000pt" height="2800.000000pt" viewBox="0 0 2644.000000 2800.000000"
 preserveAspectRatio="xMidYMid meet">

<g transform="translate(0.000000,2800.000000) scale(0.100000,-0.100000)"
fill="#3a4548" stroke="none">
<path d="M14387 12218 c-3 -1537 -6 -1783 -20 -1918 -30 -283 -31 -321 -14
-362 9 -21 21 -38 26 -38 6 0 11 -15 11 -33 0 -30 -4 -35 -40 -47 -45 -15 -50
-28 -20 -55 11 -10 20 -31 20 -46 0 -29 -33 -69 -56 -69 -7 0 -17 -6 -21 -14
-4 -7 -18 -18 -30 -25 -31 -16 -30 -49 2 -61 14 -5 25 -14 25 -19 0 -5 11 -12
24 -15 56 -14 74 -71 35 -112 -26 -28 -19 -41 26 -50 31 -6 35 -10 35 -39 0
-18 -6 -38 -14 -44 -24 -20 -39 -107 -32 -185 4 -39 14 -143 23 -231 14 -140
17 -406 20 -2120 2 -1078 1 -1970 -2 -1982 -3 -15 -24 -32 -56 -48 -49 -25
-50 -26 -30 -43 37 -32 31 -77 -14 -103 -31 -19 -35 -25 -35 -65 0 -50 -12
-47 193 -64 122 -11 147 -9 192 10 11 4 28 11 38 14 14 4 17 17 17 64 0 53 -2
59 -29 75 -41 24 -48 53 -22 88 12 15 21 30 21 32 0 2 -17 9 -39 15 -21 7 -45
19 -52 28 -12 14 -14 325 -13 1883 1 1886 3 2011 39 2391 15 163 9 226 -24
249 -12 7 -21 24 -21 37 0 19 10 29 45 46 41 20 58 38 37 38 -5 0 -17 15 -27
34 -17 32 -17 36 -2 59 9 14 26 29 39 32 26 9 88 67 88 84 0 6 -11 16 -25 21
-14 5 -25 13 -25 18 0 4 -16 14 -35 21 -59 21 -68 68 -22 118 l20 22 -27 11
c-15 5 -33 10 -41 10 -29 0 -33 59 -6 84 35 32 41 97 25 261 -41 426 -45 616
-43 1925 0 696 0 1403 0 1573 l-1 307 -80 0 -79 0 -4 -1762z"/>
</g>
</svg>
