<?xml version="1.0" standalone="no"?>
<!DOCTYPE svg PUBLIC "-//W3C//DTD SVG 20010904//EN"
 "http://www.w3.org/TR/2001/REC-SVG-20010904/DTD/svg10.dtd">
<svg version="1.0" xmlns="http://www.w3.org/2000/svg"
 width="2644.000000pt" height="2800.000000pt" viewBox="0 0 2644.000000 2800.000000"
 preserveAspectRatio="xMidYMid meet">

<g transform="translate(0.000000,2800.000000) scale(0.100000,-0.100000)"
fill="#3a4548" stroke="none">
<path d="M18125 24949 l-44 -41 -4 -1431 -3 -1432 -26 -165 c-14 -91 -38 -219
-53 -285 -16 -71 -25 -133 -21 -154 6 -42 39 -78 77 -86 24 -5 29 -12 29 -35
0 -24 -5 -29 -35 -34 -42 -8 -51 -21 -31 -42 30 -29 37 -51 25 -78 -7 -14 -21
-28 -31 -32 -36 -11 -87 -49 -88 -64 0 -18 51 -66 81 -75 27 -9 51 -48 43 -71
-4 -10 -16 -29 -27 -41 l-19 -22 41 -20 c54 -28 57 -64 9 -84 -84 -36 -90 -82
-41 -312 71 -331 68 -246 68 -1805 l0 -1405 -45 -25 c-44 -24 -45 -26 -28 -42
10 -10 18 -29 18 -41 0 -24 -27 -57 -47 -57 -12 0 -25 -52 -15 -61 4 -4 96 -4
205 -1 l197 5 0 23 c0 13 -6 24 -13 24 -21 0 -57 39 -57 60 0 11 9 29 20 40
l20 20 -45 22 c-26 13 -48 31 -51 43 -3 11 -3 641 -1 1400 3 1358 4 1382 25
1534 12 84 38 224 57 310 18 87 31 169 28 182 -8 33 -31 58 -75 80 -28 14 -38
26 -38 43 0 19 7 25 35 30 45 9 51 20 26 52 -12 15 -21 37 -21 50 0 23 42 64
66 64 8 0 14 4 14 9 0 5 9 11 20 14 11 3 20 13 20 24 0 19 -51 73 -69 73 -20
0 -51 40 -51 65 0 14 9 34 20 45 25 25 21 32 -25 55 -30 14 -36 21 -33 43 2
19 10 28 25 30 32 5 70 45 82 88 8 30 7 53 -9 113 -34 135 -68 342 -85 516
-14 149 -16 339 -13 1537 l3 1367 -23 11 c-34 15 -39 14 -87 -31z"/>
</g>
</svg>
