<?xml version="1.0" standalone="no"?>
<!DOCTYPE svg PUBLIC "-//W3C//DTD SVG 20010904//EN"
 "http://www.w3.org/TR/2001/REC-SVG-20010904/DTD/svg10.dtd">
<svg version="1.0" xmlns="http://www.w3.org/2000/svg"
 width="2550.000000pt" height="2700.000000pt" viewBox="0 0 2550.000000 2700.000000"
 preserveAspectRatio="xMidYMid meet">

<g transform="translate(0.000000,2700.000000) scale(0.100000,-0.100000)"
fill="#65340A" stroke="none">
<path d="M16423 20650 l-53 -51 0 -3834 0 -3834 -32 -17 c-43 -22 -42 -20 -24
-46 23 -32 20 -53 -10 -72 -22 -15 -25 -23 -22 -64 l3 -47 153 -3 153 -3 -3
48 c-2 39 -7 50 -26 58 -30 13 -39 50 -18 74 23 25 20 34 -17 51 l-32 15 -2
545 c-2 300 -3 2049 -3 3888 0 1838 -3 3342 -7 3342 -5 0 -32 -23 -60 -50z"/>
</g>
</svg>
