<?xml version="1.0" standalone="no"?>
<!DOCTYPE svg PUBLIC "-//W3C//DTD SVG 20010904//EN"
 "http://www.w3.org/TR/2001/REC-SVG-20010904/DTD/svg10.dtd">
<svg version="1.0" xmlns="http://www.w3.org/2000/svg"
 width="2550.000000pt" height="2700.000000pt" viewBox="0 0 2550.000000 2700.000000"
 preserveAspectRatio="xMidYMid meet">

<g transform="translate(0.000000,2700.000000) scale(0.100000,-0.100000)"
fill="#65340A" stroke="none">
<path d="M18213 22378 l-42 -43 -3 -3790 c-1 -2084 -5 -3826 -8 -3870 -5 -82
-8 -87 -65 -108 -5 -2 -2 -13 8 -24 24 -28 21 -48 -13 -76 -21 -18 -30 -35
-30 -57 l0 -31 153 3 152 3 3 31 c2 24 -3 35 -23 48 -27 18 -30 43 -11 88 5
11 1 18 -13 23 -12 3 -28 13 -36 21 -13 14 -15 449 -15 3887 0 2130 0 3887 0
3905 0 17 -4 32 -8 32 -4 0 -27 -19 -49 -42z"/>
</g>
</svg>
