<?xml version="1.0" standalone="no"?>
<!DOCTYPE svg PUBLIC "-//W3C//DTD SVG 20010904//EN"
 "http://www.w3.org/TR/2001/REC-SVG-20010904/DTD/svg10.dtd">
<svg version="1.0" xmlns="http://www.w3.org/2000/svg"
 width="2550.000000pt" height="2700.000000pt" viewBox="0 0 2550.000000 2700.000000"
 preserveAspectRatio="xMidYMid meet">

<g transform="translate(0.000000,2700.000000) scale(0.100000,-0.100000)"
fill="#65340A" stroke="none">
<path d="M9105 14121 c-3 -2 -5 -1986 -5 -4407 l0 -4403 -29 -20 c-16 -12 -36
-21 -45 -21 -21 0 -20 -5 5 -39 25 -34 15 -62 -31 -86 -24 -13 -30 -22 -30
-50 0 -32 3 -35 60 -56 33 -12 63 -26 66 -30 7 -12 61 -12 68 0 3 4 47 14 98
21 51 7 99 16 107 20 8 4 16 21 17 39 3 26 -1 33 -27 46 -39 20 -55 55 -40 84
7 11 16 21 21 21 22 0 8 17 -24 28 -19 7 -40 20 -47 29 -12 13 -14 745 -16
4411 -2 2417 -5 4397 -8 4400 -6 7 -135 19 -140 13z"/>
</g>
</svg>
