<?xml version="1.0" standalone="no"?>
<!DOCTYPE svg PUBLIC "-//W3C//DTD SVG 20010904//EN"
 "http://www.w3.org/TR/2001/REC-SVG-20010904/DTD/svg10.dtd">
<svg version="1.0" xmlns="http://www.w3.org/2000/svg"
 width="2550.000000pt" height="2700.000000pt" viewBox="0 0 2550.000000 2700.000000"
 preserveAspectRatio="xMidYMid meet">

<g transform="translate(0.000000,2700.000000) scale(0.100000,-0.100000)"
fill="#65340A" stroke="none">
<path d="M9327 14113 c-4 -3 -7 -1927 -7 -4274 0 -2347 -3 -4274 -6 -4282 -3
-8 -23 -22 -45 -32 -44 -21 -45 -22 -22 -47 23 -25 8 -66 -32 -88 -24 -14 -29
-22 -27 -46 2 -16 7 -32 10 -35 4 -3 49 -14 100 -25 90 -17 96 -17 165 0 161
40 147 33 147 71 0 25 -5 35 -20 40 -19 6 -60 50 -60 64 0 4 9 17 21 29 l20
23 -44 19 c-25 11 -48 27 -51 36 -3 9 -6 1937 -6 4285 l0 4269 -68 0 c-38 0
-72 -3 -75 -7z"/>
</g>
</svg>
