<?xml version="1.0" standalone="no"?>
<!DOCTYPE svg PUBLIC "-//W3C//DTD SVG 20010904//EN"
 "http://www.w3.org/TR/2001/REC-SVG-20010904/DTD/svg10.dtd">
<svg version="1.0" xmlns="http://www.w3.org/2000/svg"
 width="2550.000000pt" height="2700.000000pt" viewBox="0 0 2550.000000 2700.000000"
 preserveAspectRatio="xMidYMid meet">

<g transform="translate(0.000000,2700.000000) scale(0.100000,-0.100000)"
fill="#65340A" stroke="none">
<path d="M10348 14549 l-63 -70 -5 -3477 -5 -3477 -43 -23 -43 -24 22 -24 c21
-22 21 -24 5 -49 -9 -14 -27 -30 -39 -34 -17 -7 -22 -16 -21 -40 1 -41 6 -44
85 -65 56 -15 78 -16 150 -7 172 23 159 18 159 61 0 30 -5 40 -20 45 -11 4
-28 18 -37 31 -15 24 -15 27 5 53 l20 28 -39 17 c-21 10 -44 26 -50 37 -7 14
-9 1064 -7 3555 2 1944 0 3534 -4 3534 -4 0 -35 -32 -70 -71z"/>
</g>
</svg>
