<?xml version="1.0" standalone="no"?>
<!DOCTYPE svg PUBLIC "-//W3C//DTD SVG 20010904//EN"
 "http://www.w3.org/TR/2001/REC-SVG-20010904/DTD/svg10.dtd">
<svg version="1.0" xmlns="http://www.w3.org/2000/svg"
 width="3542.000000pt" height="3750.000000pt" viewBox="0 0 3542.000000 3750.000000"
 preserveAspectRatio="xMidYMid meet">

<g transform="translate(0.000000,3750.000000) scale(0.100000,-0.100000)"
fill="#3a4548" stroke="none">
<path d="M15457 16873 c-4 -1943 -2 -1874 -64 -2258 -36 -225 -39 -275 -18
-314 9 -19 31 -39 51 -47 28 -12 34 -20 34 -44 0 -27 -4 -31 -45 -41 -55 -14
-62 -22 -36 -48 46 -46 31 -114 -27 -127 -15 -4 -32 -11 -37 -18 -6 -6 -19
-16 -30 -22 -29 -16 -31 -50 -3 -65 12 -7 29 -18 36 -26 7 -7 19 -13 26 -13
25 0 66 -41 66 -65 0 -13 -12 -37 -26 -54 -14 -17 -23 -35 -20 -40 3 -5 26
-14 51 -20 41 -10 45 -14 45 -41 0 -23 -7 -33 -30 -45 -43 -22 -70 -71 -70
-125 0 -25 11 -110 25 -189 28 -166 50 -355 65 -556 15 -216 13 -3525 -3
-3546 -7 -9 -34 -25 -60 -37 l-48 -21 21 -21 c29 -29 26 -74 -6 -99 -15 -12
-33 -21 -40 -21 -10 0 -14 -14 -14 -48 l0 -47 118 -21 117 -22 129 22 129 21
1 47 c1 41 -1 48 -22 53 -31 8 -62 41 -62 67 0 12 10 33 23 46 13 15 18 26 11
29 -6 2 -31 14 -55 26 l-44 22 0 1805 c0 1960 -2 1891 56 2251 46 296 45 272
23 315 -15 27 -30 42 -53 49 -29 8 -32 13 -29 44 3 31 7 35 51 48 48 14 59 26
33 36 -8 3 -22 20 -31 37 -13 24 -13 35 -4 53 16 28 39 46 62 47 10 0 20 6 23
14 3 8 19 19 35 25 40 14 40 49 -1 64 -16 6 -30 17 -30 24 0 7 -8 13 -19 13
-10 0 -30 9 -45 21 -34 27 -34 68 0 108 l25 30 -37 16 c-20 8 -43 15 -50 15
-23 0 -18 67 6 75 29 9 68 61 76 100 3 20 -3 83 -15 152 -79 440 -75 320 -78
2336 l-4 1807 -89 0 -89 0 -4 -1777z"/>
</g>
</svg>
