<?xml version="1.0" standalone="no"?>
<!DOCTYPE svg PUBLIC "-//W3C//DTD SVG 20010904//EN"
 "http://www.w3.org/TR/2001/REC-SVG-20010904/DTD/svg10.dtd">
<svg version="1.0" xmlns="http://www.w3.org/2000/svg"
 width="3542.000000pt" height="3750.000000pt" viewBox="0 0 3542.000000 3750.000000"
 preserveAspectRatio="xMidYMid meet">

<g transform="translate(0.000000,3750.000000) scale(0.100000,-0.100000)"
fill="#3a4548" stroke="none">
<path d="M3597 16393 c-3 -1876 -5 -2113 -20 -2238 -28 -242 -47 -364 -84
-545 -22 -111 -33 -192 -31 -221 7 -65 39 -107 94 -121 42 -12 44 -14 44 -50
0 -29 -4 -38 -17 -38 -24 0 -103 -31 -103 -41 0 -4 14 -21 30 -37 54 -54 35
-114 -44 -143 -20 -7 -36 -18 -36 -24 0 -5 -15 -17 -33 -25 -17 -8 -33 -23
-35 -33 -5 -24 15 -47 40 -47 11 0 22 -8 25 -19 3 -11 17 -21 36 -25 77 -16
101 -88 47 -146 -31 -33 -31 -50 -1 -50 9 0 21 -4 27 -9 5 -5 20 -11 34 -13
21 -2 26 -9 28 -40 3 -34 0 -39 -36 -57 -76 -39 -111 -106 -99 -189 3 -20 17
-91 31 -157 38 -173 69 -387 95 -660 13 -130 14 -4225 1 -4225 -5 0 -10 -6
-10 -14 0 -7 -27 -23 -60 -36 -33 -12 -60 -25 -60 -27 0 -3 11 -14 25 -25 49
-39 25 -110 -47 -137 -26 -10 -28 -15 -28 -66 0 -51 2 -55 28 -61 15 -3 66
-17 113 -30 l86 -24 144 25 c79 14 161 28 182 31 l37 7 0 58 c0 52 -2 59 -19
59 -27 0 -69 39 -76 71 -5 21 0 34 23 61 l30 34 -59 23 c-33 12 -64 31 -69 41
-14 26 -14 4106 0 4272 20 234 53 463 101 697 29 140 29 156 7 213 -12 31 -64
68 -97 68 -18 0 -21 6 -21 45 0 41 2 45 24 45 14 0 27 4 30 9 3 4 20 11 38 15
l32 6 -32 33 c-45 46 -51 88 -18 122 14 14 40 28 57 32 18 3 34 14 36 23 3 10
18 20 33 24 39 7 50 44 20 68 -12 10 -28 18 -36 18 -8 0 -14 6 -14 13 0 7 -19
19 -42 27 -82 29 -98 90 -38 146 31 30 26 54 -11 54 -10 0 -21 5 -24 10 -3 6
-17 10 -31 10 -21 0 -24 4 -24 40 0 37 3 40 43 58 82 37 110 117 83 237 -40
168 -72 356 -103 590 -15 118 -17 330 -20 2258 l-4 2127 -109 0 -109 0 -4
-2097z"/>
</g>
</svg>
