<?xml version="1.0" standalone="no"?>
<!DOCTYPE svg PUBLIC "-//W3C//DTD SVG 20010904//EN"
 "http://www.w3.org/TR/2001/REC-SVG-20010904/DTD/svg10.dtd">
<svg version="1.0" xmlns="http://www.w3.org/2000/svg"
 width="3542.000000pt" height="3750.000000pt" viewBox="0 0 3542.000000 3750.000000"
 preserveAspectRatio="xMidYMid meet">

<g transform="translate(0.000000,3750.000000) scale(0.100000,-0.100000)"
fill="#3a4548" stroke="none">
<path d="M34481 16797 c0 -1238 -4 -1862 -11 -1943 -15 -161 -44 -353 -75
-504 -33 -157 -39 -202 -31 -234 9 -35 61 -93 90 -100 24 -6 35 -28 29 -57 -2
-8 -26 -23 -53 -33 -54 -19 -61 -30 -31 -45 10 -6 24 -24 31 -41 11 -28 11
-34 -7 -58 -11 -15 -34 -31 -51 -37 -18 -5 -32 -14 -32 -20 0 -6 -13 -16 -30
-22 -22 -8 -30 -18 -30 -36 0 -19 8 -28 30 -36 17 -5 30 -14 30 -19 0 -6 12
-13 26 -16 34 -9 74 -50 74 -75 0 -11 -14 -36 -31 -55 l-30 -35 30 -15 c16 -9
39 -16 49 -16 14 0 21 -8 24 -30 5 -33 -7 -50 -34 -50 -10 0 -32 -13 -50 -29
-31 -27 -33 -34 -33 -93 0 -35 12 -119 27 -188 31 -147 63 -368 77 -530 12
-137 24 -3421 13 -3649 l-7 -153 -50 -20 c-27 -11 -52 -21 -54 -23 -2 -2 6
-16 18 -31 11 -15 21 -37 21 -50 0 -23 -36 -58 -71 -69 -15 -5 -19 -16 -19
-54 l0 -48 93 -12 c50 -7 124 -17 163 -23 62 -9 83 -8 168 12 l96 22 0 48 c0
44 -3 49 -30 60 -61 25 -76 75 -35 116 l25 24 -54 24 c-29 13 -56 32 -60 42
-12 30 -8 3630 5 3764 15 171 46 374 84 557 28 135 32 168 23 200 -12 43 -69
103 -99 103 -16 0 -19 7 -19 40 0 34 3 40 20 40 12 0 34 7 51 15 l30 16 -26
30 c-46 55 -24 119 46 134 16 4 27 11 24 16 -3 4 10 15 30 24 45 18 44 43 -3
66 -18 10 -33 21 -33 25 1 5 -13 14 -29 19 -67 23 -83 81 -35 126 13 13 25 27
25 31 0 3 -22 14 -50 23 -47 16 -50 19 -50 51 0 24 5 34 15 34 30 0 75 30 90
61 23 43 21 84 -14 254 -39 191 -57 315 -76 511 -13 133 -15 434 -15 1971 l0
1813 -99 0 -100 0 0 -1823z"/>
</g>
</svg>
