<?xml version="1.0" standalone="no"?>
<!DOCTYPE svg PUBLIC "-//W3C//DTD SVG 20010904//EN"
 "http://www.w3.org/TR/2001/REC-SVG-20010904/DTD/svg10.dtd">
<svg version="1.0" xmlns="http://www.w3.org/2000/svg"
 width="3542.000000pt" height="3750.000000pt" viewBox="0 0 3542.000000 3750.000000"
 preserveAspectRatio="xMidYMid meet">

<g transform="translate(0.000000,3750.000000) scale(0.100000,-0.100000)"
fill="#3a4548" stroke="none">
<path d="M10035 18572 c-3 -3 -5 -859 -5 -1902 0 -1609 -2 -1921 -15 -2056
-18 -194 -38 -337 -72 -514 -32 -173 -29 -232 16 -272 17 -15 40 -28 51 -28
17 0 20 -7 20 -40 0 -32 -4 -40 -19 -40 -10 0 -35 -7 -56 -16 l-38 -15 32 -33
c42 -43 42 -87 2 -115 -16 -12 -34 -21 -40 -21 -5 0 -18 -9 -28 -19 -10 -10
-27 -20 -38 -23 -41 -7 -26 -78 16 -78 11 0 19 -6 19 -14 0 -8 12 -17 28 -21
70 -17 92 -80 46 -134 -30 -36 -26 -46 19 -55 19 -3 42 -12 51 -19 28 -20 13
-69 -24 -85 -16 -8 -40 -28 -52 -45 -31 -44 -30 -122 5 -306 29 -158 50 -309
68 -501 16 -166 20 -3906 4 -3933 -5 -11 -34 -30 -63 -43 l-54 -24 26 -31 c38
-45 22 -89 -41 -115 -29 -13 -31 -17 -29 -59 1 -24 4 -46 7 -49 8 -7 185 -46
220 -48 19 -1 96 9 172 22 l137 23 0 54 c0 39 -4 53 -14 53 -25 0 -76 50 -76
74 0 13 11 35 25 50 l25 27 -47 20 c-26 11 -56 29 -66 40 -17 18 -18 101 -14
1951 3 1748 5 1947 20 2078 24 200 22 188 64 440 l37 226 -20 39 c-13 29 -31
46 -61 60 -38 17 -43 24 -43 52 0 30 3 32 55 48 30 8 55 19 55 22 0 4 -12 19
-27 35 -49 51 -25 120 49 135 15 3 28 12 28 19 0 8 7 14 15 14 8 0 24 9 36 21
20 20 20 22 3 40 -9 10 -23 19 -30 19 -7 0 -17 7 -22 17 -5 9 -24 21 -42 27
-18 6 -42 23 -53 38 -20 27 -20 29 -4 63 9 20 24 38 32 41 8 4 15 12 15 18 0
13 -54 36 -83 36 -9 0 -17 5 -18 10 -5 52 -2 61 31 79 86 46 95 111 46 351
-23 112 -54 337 -68 495 -9 105 -12 612 -12 2033 l-1 1893 -97 -2 c-53 -1
-100 -4 -103 -7z"/>
</g>
</svg>
