<?xml version="1.0" standalone="no"?>
<!DOCTYPE svg PUBLIC "-//W3C//DTD SVG 20010904//EN"
 "http://www.w3.org/TR/2001/REC-SVG-20010904/DTD/svg10.dtd">
<svg version="1.0" xmlns="http://www.w3.org/2000/svg"
 width="2550.000000pt" height="2700.000000pt" viewBox="0 0 2550.000000 2700.000000"
 preserveAspectRatio="xMidYMid meet">

<g transform="translate(0.000000,2700.000000) scale(0.100000,-0.100000)"
fill="#3a4548" stroke="none">
<path d="M9800 14837 l0 -1395 -30 -7 c-33 -7 -37 -16 -15 -35 8 -7 15 -20 15
-30 0 -17 -29 -50 -46 -50 -18 -1 -56 -40 -51 -53 2 -7 17 -19 33 -27 65 -32
78 -58 47 -92 -15 -17 -15 -20 -3 -28 8 -6 23 -10 33 -10 16 0 17 -76 15
-1487 l-3 -1487 -30 -16 c-16 -8 -32 -16 -34 -17 -2 -2 2 -9 8 -17 18 -22 9
-60 -16 -71 -17 -7 -23 -18 -23 -42 l0 -32 98 -3 c53 -2 125 1 160 6 61 9 62
10 62 40 0 23 -6 34 -22 41 -26 11 -35 49 -18 70 9 11 5 17 -24 29 l-36 15 0
1485 c0 1409 1 1486 18 1486 9 0 24 4 32 10 12 7 12 12 -4 29 -25 27 -14 69
19 77 14 3 25 10 25 14 0 5 9 12 21 15 28 9 20 34 -18 55 -67 36 -78 57 -46
92 15 17 15 20 3 28 -8 6 -23 10 -32 10 -17 0 -18 73 -18 1390 l0 1390 -29 0
c-16 0 -43 3 -60 6 l-31 7 0 -1396z"/>
</g>
</svg>
