<?xml version="1.0" standalone="no"?>
<!DOCTYPE svg PUBLIC "-//W3C//DTD SVG 20010904//EN"
 "http://www.w3.org/TR/2001/REC-SVG-20010904/DTD/svg10.dtd">
<svg version="1.0" xmlns="http://www.w3.org/2000/svg"
 width="2550.000000pt" height="2700.000000pt" viewBox="0 0 2550.000000 2700.000000"
 preserveAspectRatio="xMidYMid meet">

<g transform="translate(0.000000,2700.000000) scale(0.100000,-0.100000)"
fill="#3a4548" stroke="none">
<path d="M1878 11952 l-3 -1666 -35 -9 c-46 -12 -46 -11 -21 -44 14 -17 20
-35 17 -49 -5 -20 -2 -23 31 -27 37 -4 36 -4 -4 -3 -24 0 -48 -5 -55 -12 -7
-7 -20 -12 -29 -12 -18 0 -38 -19 -22 -21 4 0 17 -2 28 -4 11 -2 55 -5 98 -6
42 -1 77 -6 77 -11 0 -5 -8 -7 -17 -4 -10 2 -65 6 -123 8 -95 3 -105 1 -108
-15 -3 -12 4 -20 17 -24 12 -3 21 -9 21 -13 0 -5 14 -11 30 -15 42 -9 67 -48
51 -81 -6 -14 -11 -26 -11 -27 0 -1 23 0 51 2 34 2 49 0 45 -7 -3 -6 -31 -10
-62 -9 -68 3 -80 -9 -22 -20 l43 -9 3 -2157 c1 -1535 -1 -2164 -9 -2178 -6
-12 -29 -29 -52 -40 -23 -10 -37 -19 -30 -19 18 0 33 -53 20 -75 -8 -15 -7
-17 6 -12 11 4 14 2 11 -8 -3 -8 -22 -15 -42 -17 -35 -3 -37 -5 -37 -38 l0
-35 110 -10 c100 -9 119 -8 204 12 51 12 96 25 99 27 3 3 6 19 7 35 2 23 -3
31 -29 42 -25 11 -32 21 -34 49 -3 23 2 38 13 46 14 10 11 14 -22 24 -21 7
-44 19 -50 28 -10 13 -13 462 -13 2172 l0 2156 46 13 45 14 -27 28 c-39 41
-28 69 43 109 88 49 89 58 15 91 -86 39 -99 64 -61 113 25 31 25 31 -21 43
l-35 9 -3 1663 -2 1662 -75 -2 -75 -2 -2 -1665z m65 -1689 c-13 -2 -33 -2 -45
0 -13 2 -3 4 22 4 25 0 35 -2 23 -4z"/>
</g>
</svg>
