<?xml version="1.0" standalone="no"?>
<!DOCTYPE svg PUBLIC "-//W3C//DTD SVG 20010904//EN"
 "http://www.w3.org/TR/2001/REC-SVG-20010904/DTD/svg10.dtd">
<svg version="1.0" xmlns="http://www.w3.org/2000/svg"
 width="2550.000000pt" height="2700.000000pt" viewBox="0 0 2550.000000 2700.000000"
 preserveAspectRatio="xMidYMid meet">

<g transform="translate(0.000000,2700.000000) scale(0.100000,-0.100000)"
fill="#3a4548" stroke="none">
<path d="M14314 13536 c-3 -8 -4 -833 -1 -1834 3 -1000 2 -1824 -1 -1829 -4
-6 -22 -14 -39 -18 -45 -9 -49 -20 -19 -56 14 -17 26 -34 26 -39 0 -18 -53
-70 -71 -70 -10 0 -19 -7 -19 -15 0 -8 -6 -15 -13 -15 -8 0 -21 -8 -30 -18
-13 -14 -14 -21 -5 -30 7 -7 18 -12 25 -12 8 0 16 -7 19 -15 4 -8 14 -15 24
-15 20 0 70 -47 70 -66 0 -7 -12 -27 -26 -44 -30 -35 -27 -41 24 -55 l37 -11
0 -2363 c1 -1300 -1 -2379 -3 -2398 -4 -29 -12 -40 -53 -64 -47 -30 -48 -30
-28 -50 10 -10 19 -28 19 -39 0 -22 -41 -70 -60 -70 -5 0 -10 -19 -10 -43 l0
-44 139 -11 140 -11 75 31 c75 30 76 31 76 67 0 31 -5 39 -35 55 -45 25 -53
50 -26 87 l22 29 -41 16 c-22 9 -45 25 -50 35 -6 11 -10 878 -10 2398 l0 2381
46 20 46 21 -26 26 c-14 14 -26 36 -26 48 0 21 37 65 56 65 18 1 83 65 76 76
-4 6 -29 23 -57 39 -82 47 -93 72 -50 123 28 34 26 37 -28 47 l-37 7 0 1839 0
1839 -75 0 c-57 0 -77 -4 -81 -14z"/>
</g>
</svg>
