<?xml version="1.0" standalone="no"?>
<!DOCTYPE svg PUBLIC "-//W3C//DTD SVG 20010904//EN"
 "http://www.w3.org/TR/2001/REC-SVG-20010904/DTD/svg10.dtd">
<svg version="1.0" xmlns="http://www.w3.org/2000/svg"
 width="2550.000000pt" height="2700.000000pt" viewBox="0 0 2550.000000 2700.000000"
 preserveAspectRatio="xMidYMid meet">

<g transform="translate(0.000000,2700.000000) scale(0.100000,-0.100000)"
fill="#3a4548" stroke="none">
<path d="M23296 26351 l-49 -50 1 -1703 c0 -937 -2 -1710 -4 -1719 -3 -10 -20
-20 -39 -23 -41 -8 -41 -10 -15 -43 11 -14 20 -36 20 -49 0 -23 -42 -64 -66
-64 -8 0 -14 -4 -14 -9 0 -5 -9 -11 -20 -14 -44 -11 -21 -49 73 -118 33 -25
34 -47 5 -84 -22 -28 -22 -28 -2 -41 10 -7 28 -20 39 -28 20 -14 20 -26 21
-1853 0 -1026 -3 -1846 -8 -1856 -5 -10 -27 -25 -48 -33 l-39 -16 21 -29 c18
-24 20 -32 10 -54 -7 -14 -23 -30 -37 -37 -14 -6 -25 -17 -25 -25 0 -10 26
-13 118 -13 66 0 154 3 196 6 l76 7 -29 18 c-40 24 -48 55 -23 88 l19 27 -43
18 c-33 13 -44 24 -44 39 0 19 0 2612 0 3445 0 246 1 262 18 262 10 0 27 6 37
14 18 13 18 14 -3 41 -12 15 -22 35 -22 45 0 16 39 60 54 60 13 0 66 44 66 55
0 10 -48 56 -99 94 -19 14 -23 23 -17 44 3 14 13 32 21 41 22 22 19 31 -20 49
l-35 17 0 1177 c0 648 0 1438 0 1757 0 674 3 656 -94 557z"/>
</g>
</svg>
