<?xml version="1.0" standalone="no"?>
<!DOCTYPE svg PUBLIC "-//W3C//DTD SVG 20010904//EN"
 "http://www.w3.org/TR/2001/REC-SVG-20010904/DTD/svg10.dtd">
<svg version="1.0" xmlns="http://www.w3.org/2000/svg"
 width="2550.000000pt" height="2700.000000pt" viewBox="0 0 2550.000000 2700.000000"
 preserveAspectRatio="xMidYMid meet">

<g transform="translate(0.000000,2700.000000) scale(0.100000,-0.100000)"
fill="#3a4548" stroke="none">
<path d="M13258 11708 l-3 -1842 -32 -8 c-42 -11 -48 -23 -23 -48 23 -23 26
-72 5 -90 -12 -10 -16 -9 -21 4 -9 22 -24 20 -24 -4 0 -11 6 -20 13 -20 8 0 7
-3 -3 -9 -8 -6 -18 -7 -23 -4 -4 3 -11 -4 -14 -16 -3 -12 -9 -21 -13 -21 -5 0
-10 -8 -12 -17 -4 -20 35 -63 58 -63 24 0 54 -38 54 -68 0 -16 -9 -37 -20 -47
-28 -25 -25 -32 18 -42 l37 -9 3 -2384 c1 -1312 0 -2395 -3 -2407 -3 -14 -23
-32 -51 -46 -45 -23 -45 -23 -25 -42 31 -27 26 -60 -14 -92 -29 -23 -35 -35
-35 -65 0 -21 1 -38 3 -39 1 0 62 -6 136 -13 l133 -13 77 31 c75 31 76 32 78
69 2 32 -2 39 -22 47 -37 14 -58 52 -46 84 6 14 15 26 21 26 21 0 9 18 -17 25
-16 3 -38 13 -50 21 l-23 14 0 2394 0 2394 38 13 c55 17 55 18 27 46 -40 41
-30 90 25 113 16 7 30 16 30 21 0 5 11 14 25 19 42 16 31 42 -35 78 -39 22
-62 41 -66 57 -6 25 18 80 38 88 15 6 -35 27 -63 27 -19 0 -19 27 -19 1840 l0
1840 -80 0 -80 0 -2 -1842z"/>
</g>
</svg>
