<?xml version="1.0" standalone="no"?>
<!DOCTYPE svg PUBLIC "-//W3C//DTD SVG 20010904//EN"
 "http://www.w3.org/TR/2001/REC-SVG-20010904/DTD/svg10.dtd">
<svg version="1.0" xmlns="http://www.w3.org/2000/svg"
 width="2550.000000pt" height="2700.000000pt" viewBox="0 0 2550.000000 2700.000000"
 preserveAspectRatio="xMidYMid meet">

<g transform="translate(0.000000,2700.000000) scale(0.100000,-0.100000)"
fill="#3a4548" stroke="none">
<path d="M13040 11765 c0 -1404 -3 -1767 -12 -1770 -72 -25 -71 -25 -56 -43
24 -26 30 -57 17 -86 -7 -14 -15 -26 -19 -26 -15 0 -100 -63 -100 -74 0 -7 25
-25 55 -40 73 -35 87 -64 58 -116 l-21 -39 37 -8 36 -9 3 -2309 c1 -1617 -1
-2318 -8 -2336 -6 -14 -26 -33 -45 -42 -32 -15 -33 -18 -23 -45 16 -41 3 -79
-33 -97 -25 -14 -30 -21 -27 -48 3 -29 7 -32 43 -39 22 -3 88 -10 146 -14 88
-5 116 -4 163 11 l56 18 0 44 c0 36 -5 49 -25 65 -18 14 -25 29 -25 53 0 19 5
37 10 40 19 12 10 23 -25 35 -19 6 -40 20 -45 30 -7 12 -10 818 -10 2324 l0
2305 38 17 c20 10 39 19 40 20 2 1 -6 16 -19 33 -29 40 -18 79 28 101 31 14
33 18 33 67 0 45 -3 52 -21 55 -12 2 -31 16 -43 31 l-21 28 22 40 22 40 -25 9
c-14 6 -29 10 -34 10 -4 0 -11 7 -14 16 -3 9 -6 803 -6 1765 l0 1749 -75 0
-75 0 0 -1765z"/>
</g>
</svg>
