<?xml version="1.0" standalone="no"?>
<!DOCTYPE svg PUBLIC "-//W3C//DTD SVG 20010904//EN"
 "http://www.w3.org/TR/2001/REC-SVG-20010904/DTD/svg10.dtd">
<svg version="1.0" xmlns="http://www.w3.org/2000/svg"
 width="2550.000000pt" height="2700.000000pt" viewBox="0 0 2550.000000 2700.000000"
 preserveAspectRatio="xMidYMid meet">

<g transform="translate(0.000000,2700.000000) scale(0.100000,-0.100000)"
fill="#3a4548" stroke="none">
<path d="M15757 19132 l-47 -48 0 -1637 c0 -1415 -2 -1637 -14 -1637 -8 0 -27
-5 -41 -10 l-26 -10 20 -26 c12 -15 21 -37 21 -49 0 -25 -29 -55 -53 -55 -9 0
-17 -5 -17 -10 0 -6 -11 -15 -25 -20 -39 -15 -30 -36 33 -77 65 -44 78 -77 42
-113 -26 -26 -19 -37 25 -46 l35 -6 0 -2178 c0 -1198 -3 -2186 -6 -2195 -4 -9
-24 -25 -46 -36 -37 -19 -39 -22 -24 -38 26 -28 19 -58 -19 -87 -28 -21 -34
-32 -31 -55 1 -16 5 -31 7 -34 8 -7 302 -8 342 0 35 7 37 9 37 44 0 30 -5 39
-30 53 -23 13 -30 24 -30 46 0 16 7 35 16 43 14 11 11 15 -23 32 -21 11 -41
25 -45 31 -4 6 -8 993 -8 2194 0 1889 2 2182 14 2182 8 0 27 5 42 10 l27 11
-22 22 c-11 13 -21 35 -21 49 0 25 27 58 48 58 6 0 26 14 44 31 32 29 33 30
13 44 -11 8 -25 19 -32 25 -7 5 -23 15 -37 21 -13 6 -29 22 -34 34 -9 19 -7
30 13 59 l24 35 -39 12 -40 12 0 1679 c0 1012 -4 1678 -9 1678 -5 0 -15 2 -23
5 -7 3 -34 -16 -61 -43z"/>
</g>
</svg>
