<?xml version="1.0" standalone="no"?>
<!DOCTYPE svg PUBLIC "-//W3C//DTD SVG 20010904//EN"
 "http://www.w3.org/TR/2001/REC-SVG-20010904/DTD/svg10.dtd">
<svg version="1.0" xmlns="http://www.w3.org/2000/svg"
 width="3542.000000pt" height="3750.000000pt" viewBox="0 0 3542.000000 3750.000000"
 preserveAspectRatio="xMidYMid meet">

<g transform="translate(0.000000,3750.000000) scale(0.100000,-0.100000)"
fill="#65340A" stroke="none">
<path d="M13433 18622 l-43 -3 0 -1044 0 -1045 -62 -31 c-235 -118 -413 -341
-513 -642 -52 -157 -69 -268 -69 -452 1 -241 19 -320 154 -665 177 -450 380
-972 380 -975 0 -1 -19 3 -42 11 -61 18 -135 34 -161 34 -37 0 -120 -45 -153
-82 -94 -107 -109 -261 -33 -334 25 -24 37 -28 105 -30 48 -2 88 2 109 10 40
17 76 74 83 131 5 48 1 51 -78 57 -32 3 -35 1 -40 -32 -13 -72 -61 -130 -82
-98 -17 27 -29 91 -22 121 18 83 92 178 149 193 16 4 34 0 49 -10 73 -47 216
-265 216 -328 0 -25 8 -46 26 -68 48 -57 160 -372 184 -520 15 -92 20 -321 9
-410 -35 -283 -136 -555 -249 -671 -70 -71 -121 -98 -188 -97 -28 0 -55 -3
-61 -6 -18 -11 -66 21 -118 78 -74 81 -108 178 -108 311 0 89 3 106 28 156 31
63 101 135 143 145 23 6 32 2 56 -25 15 -17 29 -40 29 -51 5 -69 0 -87 -28
-120 -14 -17 -37 -36 -50 -41 -43 -16 -27 -36 34 -42 45 -5 65 -2 88 12 93 54
102 234 13 282 -27 15 -91 29 -164 36 -96 9 -179 -52 -236 -173 -103 -219 23
-546 234 -608 l40 -12 -60 -37 c-140 -86 -233 -245 -263 -446 -18 -130 -7
-326 26 -436 56 -188 171 -341 307 -408 73 -36 203 -67 279 -67 l39 0 0 -675
c0 -662 0 -675 -20 -695 -11 -11 -24 -20 -29 -20 -5 0 -25 -7 -46 -15 l-37
-16 26 -20 c17 -13 26 -30 26 -48 0 -30 -36 -71 -63 -71 -14 0 -17 -10 -17
-54 l0 -54 118 -22 117 -22 138 23 137 23 0 53 c0 38 -4 53 -14 53 -7 0 -25 9
-40 21 -35 28 -35 70 0 98 l26 21 -43 18 c-24 11 -54 22 -67 26 l-22 7 2 706
3 705 55 30 c274 151 477 452 562 833 25 116 35 370 19 487 -21 146 -50 233
-231 698 -98 250 -194 498 -214 550 -20 52 -41 105 -46 118 -15 34 -12 45 8
37 32 -12 174 -15 214 -4 92 24 181 156 179 265 0 60 -20 106 -54 129 -25 16
-127 39 -165 37 -57 -4 -109 -70 -119 -151 l-6 -51 62 0 c60 0 61 1 61 28 0
30 38 103 57 109 6 3 19 -9 27 -26 48 -92 -19 -241 -128 -286 -36 -15 -39 -15
-59 2 -85 73 -231 309 -208 337 19 22 -1 79 -32 93 -28 13 -102 195 -142 348
-72 277 -56 617 41 897 96 275 197 393 344 400 75 3 113 -15 174 -82 158 -175
153 -481 -10 -576 -56 -33 -84 -29 -107 16 -35 69 -7 170 54 193 38 15 38 37
-1 37 -16 0 -40 5 -54 11 -35 16 -83 -14 -114 -71 -19 -37 -23 -56 -20 -107 7
-113 59 -153 198 -153 98 0 146 18 197 71 135 143 119 437 -33 600 -51 53
-110 92 -158 103 -28 7 -27 8 33 36 187 89 294 337 278 644 -12 233 -90 427
-227 565 -103 104 -198 146 -354 159 l-81 7 -2 1030 -3 1030 -52 0 c-29 0 -72
-1 -95 -3z m296 -2136 c232 -83 394 -371 393 -701 0 -71 -6 -150 -16 -195 -32
-150 -121 -287 -223 -342 -42 -23 -56 -26 -111 -21 -58 5 -67 10 -108 50 -26
25 -59 73 -77 111 -29 61 -32 75 -32 167 0 89 3 106 28 157 30 61 86 118 117
118 11 0 28 -16 42 -37 31 -51 31 -134 0 -186 -33 -58 -30 -63 35 -63 58 1 58
1 82 45 49 89 27 219 -46 267 -44 29 -166 41 -214 21 -55 -23 -124 -108 -149
-183 -18 -54 -22 -83 -18 -159 3 -83 8 -101 41 -168 41 -83 113 -157 173 -179
19 -6 34 -14 34 -18 -1 -3 -22 -15 -48 -27 -74 -35 -154 -121 -205 -221 -94
-183 -154 -416 -164 -635 -3 -70 -9 -124 -13 -120 -4 4 -32 73 -63 153 -31 80
-102 262 -157 405 -56 143 -113 302 -126 352 -84 330 -29 726 141 1011 100
168 224 289 370 362 139 69 200 76 314 36z m174 -4301 c106 -274 162 -431 177
-500 85 -397 -22 -846 -274 -1146 -85 -101 -173 -170 -294 -231 -98 -50 -107
-52 -197 -56 -87 -4 -96 -3 -146 24 -242 132 -369 476 -307 834 23 136 68 229
151 318 74 77 105 93 188 97 l70 2 53 -48 c35 -32 63 -69 82 -111 25 -55 29
-75 29 -154 0 -84 -3 -96 -35 -160 -34 -67 -102 -134 -136 -134 -24 0 -48 61
-48 121 1 40 7 68 22 94 30 50 28 65 -9 65 -17 0 -38 4 -48 10 -58 30 -108
-166 -65 -255 28 -60 55 -77 141 -85 64 -7 85 -5 118 9 151 66 223 291 154
477 -40 106 -136 197 -223 211 -36 6 -51 23 -18 20 31 -2 112 46 164 97 144
145 259 479 275 799 3 65 9 114 13 110 4 -4 77 -188 163 -408z"/>
</g>
</svg>
