<?xml version="1.0" standalone="no"?>
<!DOCTYPE svg PUBLIC "-//W3C//DTD SVG 20010904//EN"
 "http://www.w3.org/TR/2001/REC-SVG-20010904/DTD/svg10.dtd">
<svg version="1.0" xmlns="http://www.w3.org/2000/svg"
 width="3542.000000pt" height="3750.000000pt" viewBox="0 0 3542.000000 3750.000000"
 preserveAspectRatio="xMidYMid meet">

<g transform="translate(0.000000,3750.000000) scale(0.100000,-0.100000)"
fill="#65340A" stroke="none">
<path d="M28570 17721 l0 -968 -97 -5 c-118 -7 -205 -36 -299 -103 -120 -86
-221 -242 -265 -410 -26 -97 -31 -285 -10 -390 31 -160 135 -311 257 -371 l57
-28 -29 -9 c-46 -16 -126 -70 -162 -111 -100 -114 -140 -309 -92 -440 39 -102
139 -186 223 -186 72 0 170 28 199 58 56 56 56 151 -1 214 -24 28 -37 33 -90
38 -39 4 -65 2 -71 -5 -13 -15 1 -31 33 -39 68 -16 90 -144 33 -193 -36 -31
-74 -29 -125 5 -71 48 -121 146 -121 235 0 56 25 158 51 209 27 54 104 135
149 158 53 26 178 15 241 -22 94 -55 175 -173 240 -349 103 -281 111 -615 20
-879 -46 -134 -100 -253 -127 -278 -18 -17 -24 -32 -22 -57 4 -60 -141 -280
-225 -342 -39 -29 -75 -29 -118 0 -75 50 -127 151 -113 221 8 45 39 74 62 60
29 -18 62 -75 62 -107 0 -26 3 -29 23 -23 12 3 34 6 50 6 24 0 27 3 27 35 0
47 -22 88 -63 119 -29 22 -44 26 -103 26 -114 0 -164 -48 -164 -157 1 -124
123 -253 239 -253 46 0 138 24 185 47 23 12 28 12 23 2 -34 -83 -179 -419
-234 -544 -39 -88 -109 -250 -155 -360 -147 -346 -152 -369 -153 -610 0 -197
12 -280 64 -430 33 -94 91 -215 103 -215 4 0 8 -6 8 -13 0 -22 127 -182 196
-247 71 -65 165 -131 247 -169 l47 -23 0 -652 c0 -507 -3 -656 -12 -668 -7 -8
-34 -24 -59 -34 l-46 -18 23 -19 c44 -34 26 -93 -33 -111 -20 -6 -23 -14 -23
-55 l0 -47 143 -18 c139 -18 147 -18 240 -1 l97 19 0 48 c0 26 -4 48 -9 48 -5
0 -24 12 -41 26 -25 22 -30 32 -25 53 3 14 15 33 27 42 20 16 19 16 -23 33
-86 35 -79 -30 -79 683 l0 633 48 0 c62 0 185 24 253 49 161 61 317 256 366
456 24 100 23 317 -1 409 -26 96 -56 161 -107 228 -47 61 -131 131 -188 155
l-35 15 52 17 c97 33 171 100 222 200 32 64 53 175 45 243 -13 111 -91 227
-177 263 -54 22 -202 21 -247 -3 -79 -40 -101 -125 -56 -217 34 -71 67 -89
137 -78 62 10 71 27 26 46 -43 18 -54 33 -69 88 -11 40 -10 50 7 85 31 63 94
59 172 -11 84 -76 114 -172 88 -293 -28 -133 -95 -231 -189 -276 -44 -22 -58
-24 -92 -16 -22 5 -48 7 -57 4 -30 -9 -112 39 -171 100 -45 46 -71 87 -112
172 -149 310 -182 672 -90 972 37 119 125 322 139 322 28 0 49 38 43 77 -5 31
0 48 41 116 26 44 77 111 113 150 66 69 67 70 109 64 121 -16 217 -176 165
-276 -8 -16 -21 -31 -28 -34 -23 -9 -66 41 -79 89 l-12 44 -48 0 c-47 0 -48 0
-48 -32 0 -73 72 -158 133 -158 43 0 139 28 160 47 27 25 47 75 47 120 -1 79
-78 190 -156 225 -59 25 -206 28 -252 4 -19 -10 -35 -16 -37 -14 -2 2 10 32
26 68 188 427 466 1094 484 1163 38 140 51 295 36 424 -21 185 -77 366 -152
495 -115 196 -266 336 -444 414 l-65 28 0 983 0 983 -90 0 -90 0 0 -969z m94
-1046 c160 -53 301 -158 411 -303 72 -95 142 -230 174 -335 77 -251 69 -553
-19 -774 -47 -118 -333 -783 -335 -781 -1 2 -5 53 -9 113 -13 230 -64 418
-164 610 -62 117 -174 214 -277 240 l-30 7 40 12 c91 28 164 92 209 182 41 83
51 143 37 220 -21 115 -75 195 -158 234 -39 18 -60 21 -126 18 -76 -3 -80 -4
-112 -40 -45 -49 -61 -107 -47 -176 14 -68 46 -114 75 -108 12 3 34 7 50 11
l28 6 -26 43 c-52 89 -12 236 59 218 38 -10 121 -104 139 -156 46 -136 -9
-301 -127 -383 -44 -30 -54 -33 -125 -33 -71 0 -80 3 -129 35 -102 69 -178
196 -203 340 -15 85 -7 280 15 360 59 217 196 383 376 454 71 28 165 23 274
-14z m-245 -3692 c1 -65 3 -127 5 -138 2 -11 7 -42 11 -70 19 -131 59 -254
132 -404 64 -131 131 -206 225 -256 l57 -30 -49 -18 c-63 -23 -139 -99 -175
-173 -40 -83 -46 -204 -15 -287 40 -107 128 -193 208 -204 37 -5 153 27 180
50 8 6 23 29 34 51 27 54 21 151 -13 201 -23 32 -27 34 -74 31 -59 -3 -68 -20
-34 -65 42 -57 35 -159 -15 -200 -38 -31 -140 59 -176 156 -49 131 0 302 109
377 32 22 48 26 112 26 64 0 81 -4 127 -31 175 -100 264 -304 248 -569 -13
-234 -107 -419 -263 -523 -130 -86 -217 -99 -363 -54 -151 47 -324 173 -437
319 -97 127 -197 362 -227 534 -29 163 -15 395 30 539 9 28 74 185 144 350 70
165 146 346 170 403 24 56 44 102 46 102 1 0 3 -53 3 -117z"/>
</g>
</svg>
