<?xml version="1.0" standalone="no"?>
<!DOCTYPE svg PUBLIC "-//W3C//DTD SVG 20010904//EN"
 "http://www.w3.org/TR/2001/REC-SVG-20010904/DTD/svg10.dtd">
<svg version="1.0" xmlns="http://www.w3.org/2000/svg"
 width="3542.000000pt" height="3750.000000pt" viewBox="0 0 3542.000000 3750.000000"
 preserveAspectRatio="xMidYMid meet">

<g transform="translate(0.000000,3750.000000) scale(0.100000,-0.100000)"
fill="#C5C3C1" stroke="none">
<path d="M650 16909 l0 -1531 -29 7 c-35 7 -82 -14 -105 -47 -9 -13 -16 -43
-16 -69 0 -58 36 -109 78 -109 64 0 72 -8 72 -67 0 -43 -6 -63 -29 -96 -77
-113 -110 -214 -118 -357 -8 -157 33 -300 117 -405 26 -33 30 -46 30 -98 l0
-60 -41 6 c-34 4 -45 1 -70 -21 -50 -45 -55 -135 -10 -176 10 -10 41 -21 68
-24 l48 -7 3 -1251 2 -1251 -41 0 c-84 0 -137 -105 -90 -180 16 -26 30 -33 75
-43 l56 -11 0 -53 c0 -44 -7 -65 -45 -132 -138 -241 -137 -498 1 -700 41 -59
44 -69 44 -128 l0 -63 -49 5 c-45 4 -50 2 -71 -27 -42 -60 -36 -151 12 -171
13 -5 42 -14 66 -20 l42 -11 0 -1532 c0 -1212 -3 -1536 -13 -1549 -6 -8 -38
-26 -69 -38 -32 -13 -58 -26 -58 -29 0 -3 12 -17 25 -30 50 -46 22 -119 -52
-137 -22 -6 -24 -10 -21 -66 l3 -61 106 -32 107 -33 198 34 c110 19 200 34
202 34 1 0 2 27 2 60 0 59 -1 61 -30 67 -35 6 -80 55 -80 85 0 11 14 33 30 50
17 17 30 31 28 33 -2 1 -29 12 -61 25 -31 13 -64 34 -72 47 -13 20 -15 209
-13 1560 l3 1538 37 2 c54 3 77 19 99 68 35 80 5 139 -82 158 -54 12 -54 12
-57 54 -3 34 4 52 41 109 66 103 98 206 104 339 8 164 -29 290 -116 399 -28
35 -31 46 -31 107 l0 69 50 0 c38 0 54 5 69 22 32 34 44 82 31 122 -14 45 -30
57 -93 71 l-52 12 3 1099 c1 604 3 1165 2 1247 l0 147 39 0 c49 0 87 29 102
80 23 76 -15 136 -92 146 l-49 7 0 48 c0 38 8 60 40 111 96 154 126 325 89
508 -14 69 -61 174 -99 221 -29 36 -35 67 -31 152 1 26 3 27 50 27 43 0 52 4
70 29 64 89 19 191 -84 191 l-35 0 0 83 c-1 45 -1 731 -1 1525 l-1 1442 -119
0 -119 0 0 -1531z m168 -2034 c55 -112 70 -245 43 -373 -15 -67 -78 -203 -98
-210 -7 -2 -26 24 -43 57 -80 159 -79 356 1 515 53 104 52 104 97 11z m-16
-3977 c8 -13 28 -54 43 -93 26 -63 29 -82 30 -185 0 -102 -3 -124 -28 -195
-30 -83 -74 -160 -92 -157 -17 2 -64 95 -81 162 -26 101 -16 252 24 352 30 77
66 138 82 138 4 0 14 -10 22 -22z"/>
</g>
</svg>
