<?xml version="1.0" standalone="no"?>
<!DOCTYPE svg PUBLIC "-//W3C//DTD SVG 20010904//EN"
 "http://www.w3.org/TR/2001/REC-SVG-20010904/DTD/svg10.dtd">
<svg version="1.0" xmlns="http://www.w3.org/2000/svg"
 width="3542.000000pt" height="3750.000000pt" viewBox="0 0 3542.000000 3750.000000"
 preserveAspectRatio="xMidYMid meet">

<g transform="translate(0.000000,3750.000000) scale(0.100000,-0.100000)"
fill="#C5C3C1" stroke="none">
<path d="M15430 17400 l0 -1240 -29 0 c-52 0 -79 -48 -67 -114 8 -40 19 -51
64 -61 31 -6 32 -8 32 -56 0 -35 -9 -67 -29 -108 -85 -167 -85 -403 0 -560 21
-39 29 -69 29 -103 0 -46 -1 -48 -28 -48 -39 0 -63 -30 -69 -84 -5 -38 -2 -48
20 -70 15 -14 38 -26 52 -26 l25 0 0 -1015 c0 -994 0 -1015 -19 -1015 -33 0
-51 -11 -66 -41 -19 -36 -19 -72 0 -109 12 -23 23 -29 52 -32 37 -3 38 -5 41
-43 1 -28 -8 -62 -33 -115 -49 -107 -65 -179 -65 -295 0 -114 14 -173 66 -280
23 -47 33 -81 31 -105 -2 -32 -5 -35 -39 -38 -30 -3 -39 -9 -53 -39 -28 -58
-7 -133 37 -133 11 0 27 -4 37 -10 18 -9 18 -64 19 -1242 1 -876 -2 -1239 -10
-1255 -6 -13 -31 -29 -59 -39 -27 -10 -49 -21 -49 -24 0 -4 9 -15 20 -25 39
-35 19 -92 -37 -109 -20 -6 -23 -14 -23 -55 l0 -47 116 -22 115 -22 135 22
134 22 0 48 c0 37 -4 48 -16 48 -20 0 -74 54 -74 75 0 9 11 27 24 40 l25 25
-57 27 -57 28 -3 1262 c-2 1198 -1 1263 15 1261 55 -4 83 29 83 100 0 45 -21
69 -68 78 -29 6 -32 10 -32 45 0 21 9 53 19 71 37 63 72 188 78 277 6 108 -14
210 -62 307 -26 53 -35 85 -35 122 l0 51 38 3 c32 3 40 8 56 42 17 36 18 43 5
80 -12 36 -19 42 -56 50 l-43 10 0 1013 0 1013 35 0 c43 0 70 36 69 92 -2 56
-27 88 -69 88 -34 0 -35 1 -35 37 0 23 14 66 35 109 87 176 85 411 -5 571 -22
39 -30 66 -30 103 l0 50 34 0 c38 0 53 13 66 61 19 65 -15 119 -74 119 l-26 0
0 1235 0 1235 -95 0 -95 0 0 -1240z m127 -1682 c28 -81 24 -273 -6 -351 -12
-31 -26 -55 -30 -52 -12 7 -39 112 -46 180 -10 86 29 275 56 275 4 0 16 -24
26 -52z m6 -3274 c26 -83 20 -264 -12 -347 -13 -31 -27 -55 -32 -52 -21 14
-43 123 -44 220 0 77 5 117 23 173 14 45 28 72 35 69 6 -2 20 -30 30 -63z"/>
</g>
</svg>
