<?xml version="1.0" standalone="no"?>
<!DOCTYPE svg PUBLIC "-//W3C//DTD SVG 20010904//EN"
 "http://www.w3.org/TR/2001/REC-SVG-20010904/DTD/svg10.dtd">
<svg version="1.0" xmlns="http://www.w3.org/2000/svg"
 width="3542.000000pt" height="3750.000000pt" viewBox="0 0 3542.000000 3750.000000"
 preserveAspectRatio="xMidYMid meet">

<g transform="translate(0.000000,3750.000000) scale(0.100000,-0.100000)"
fill="#C5C3C1" stroke="none">
<path d="M16431 18650 c-8 -4 -11 -354 -11 -1218 l0 -1212 -29 0 c-41 0 -71
-40 -71 -94 0 -54 21 -84 63 -88 29 -3 32 -6 35 -42 3 -29 -6 -60 -32 -116
-86 -183 -87 -388 -1 -553 23 -44 35 -82 35 -107 0 -39 -1 -40 -35 -40 -43 0
-66 -31 -67 -88 -1 -57 16 -81 62 -88 l40 -7 -1 -985 c-1 -542 -3 -992 -6
-999 -3 -7 -18 -13 -34 -13 -36 0 -64 -39 -64 -90 0 -52 28 -90 65 -90 17 0
31 -3 32 -7 8 -42 1 -79 -28 -143 -83 -188 -80 -411 7 -567 20 -37 29 -67 29
-98 0 -44 0 -45 -34 -45 -43 0 -58 -19 -63 -78 -6 -57 10 -81 57 -91 l35 -7 3
-1214 c1 -668 0 -1225 -3 -1238 -4 -15 -22 -30 -60 -47 l-55 -24 25 -25 c14
-14 25 -31 25 -39 0 -20 -39 -67 -55 -67 -19 0 -32 -27 -33 -67 -1 -35 -10
-31 139 -59 92 -16 102 -16 205 0 153 24 144 20 144 74 0 43 -3 48 -33 62 -45
21 -58 62 -29 93 12 13 22 26 22 29 0 4 -20 14 -45 24 -25 9 -50 25 -55 35 -6
11 -10 488 -10 1250 l0 1231 21 -5 c34 -9 79 42 79 90 0 45 -23 83 -50 83 -55
0 -67 48 -29 122 93 183 99 419 14 581 -25 48 -35 81 -35 112 0 44 0 45 34 45
43 0 66 32 66 93 0 54 -16 77 -60 86 l-35 7 -3 997 -2 997 29 0 c57 0 89 79
59 145 -8 19 -22 27 -50 31 -36 6 -38 8 -38 45 0 21 9 53 20 71 33 54 70 183
76 271 7 103 -13 203 -61 305 -25 53 -35 88 -35 123 l0 49 34 0 c44 0 66 29
66 87 0 52 -26 83 -70 83 l-30 0 0 1033 c0 567 0 1117 0 1220 l0 188 -79 -2
c-44 -1 -84 -5 -90 -9z m116 -2910 c24 -104 7 -293 -31 -346 -13 -16 -16 -12
-35 50 -34 109 -23 287 21 370 10 19 11 19 21 0 6 -10 17 -44 24 -74z m-2
-3196 c14 -45 16 -78 12 -162 -5 -106 -31 -210 -52 -212 -5 -1 -18 22 -27 52
-31 97 -20 290 21 366 16 31 25 22 46 -44z"/>
</g>
</svg>
