<?xml version="1.0" standalone="no"?>
<!DOCTYPE svg PUBLIC "-//W3C//DTD SVG 20010904//EN"
 "http://www.w3.org/TR/2001/REC-SVG-20010904/DTD/svg10.dtd">
<svg version="1.0" xmlns="http://www.w3.org/2000/svg"
 width="3542.000000pt" height="3750.000000pt" viewBox="0 0 3542.000000 3750.000000"
 preserveAspectRatio="xMidYMid meet">

<g transform="translate(0.000000,3750.000000) scale(0.100000,-0.100000)"
fill="#C5C3C1" stroke="none">
<path d="M19263 18692 l-73 -3 0 -1159 0 -1160 -20 0 c-34 0 -70 -44 -70 -85
0 -60 25 -95 68 -95 20 0 22 -5 22 -45 0 -29 -9 -64 -25 -95 -80 -158 -80
-382 1 -543 14 -29 24 -66 24 -93 0 -42 -1 -44 -29 -44 -39 0 -61 -32 -61 -86
0 -45 18 -68 63 -79 l27 -7 0 -954 0 -954 -30 0 c-23 0 -33 -7 -45 -30 -34
-65 -9 -140 46 -140 l31 0 -5 -52 c-2 -29 -16 -81 -31 -116 -39 -92 -59 -202
-52 -294 7 -85 35 -185 66 -236 12 -20 20 -50 20 -77 0 -43 -1 -45 -29 -45
-36 0 -48 -15 -57 -67 -9 -60 17 -103 64 -103 26 0 23 168 23 -1328 0 -551 -3
-1011 -6 -1022 -4 -11 -28 -29 -55 -41 -49 -21 -49 -21 -28 -38 28 -23 27 -70
-2 -93 -12 -10 -28 -18 -36 -18 -10 0 -14 -14 -14 -48 l0 -48 119 -18 c112
-17 125 -17 227 -1 60 10 112 22 116 28 5 9 1 80 -5 82 -1 0 -15 7 -32 15 -40
21 -48 75 -14 101 l22 17 -48 21 c-27 12 -53 27 -57 34 -4 7 -8 542 -8 1190
l0 1177 24 0 c81 0 89 163 8 172 -40 4 -40 42 2 145 43 108 61 213 52 311 -8
82 -36 181 -66 230 -13 21 -20 50 -20 82 0 49 1 50 29 50 39 0 61 32 61 87 0
50 -26 83 -65 83 l-25 0 0 955 0 955 29 0 c38 0 61 32 61 85 0 53 -23 85 -61
85 -27 0 -29 2 -29 40 0 23 10 61 24 88 46 91 60 159 60 282 -1 120 -20 203
-65 276 -12 20 -19 50 -19 83 0 50 1 51 29 51 39 0 61 32 61 87 0 50 -26 83
-65 83 l-25 0 0 1163 c0 1101 -1 1163 -17 1162 -10 0 -51 -1 -90 -3z m52
-2897 c0 -114 -17 -215 -35 -215 -16 0 -31 67 -37 155 -6 88 3 159 28 220 l11
30 17 -35 c11 -26 16 -66 16 -155z m3 -3038 c5 -99 -7 -187 -33 -236 -11 -22
-12 -22 -26 25 -20 71 -18 235 5 309 l18 60 16 -30 c9 -19 17 -67 20 -128z"/>
</g>
</svg>
