<?xml version="1.0" standalone="no"?>
<!DOCTYPE svg PUBLIC "-//W3C//DTD SVG 20010904//EN"
 "http://www.w3.org/TR/2001/REC-SVG-20010904/DTD/svg10.dtd">
<svg version="1.0" xmlns="http://www.w3.org/2000/svg"
 width="3542.000000pt" height="3750.000000pt" viewBox="0 0 3542.000000 3750.000000"
 preserveAspectRatio="xMidYMid meet">

<g transform="translate(0.000000,3750.000000) scale(0.100000,-0.100000)"
fill="#C5C3C1" stroke="none">
<path d="M4960 18478 c-1 -13 -2 -662 -3 -1443 l-2 -1420 -44 -6 c-58 -8 -91
-44 -91 -100 0 -76 26 -104 105 -111 29 -3 30 -5 32 -56 1 -45 -3 -62 -31
-105 -140 -220 -140 -507 0 -704 28 -40 34 -57 34 -100 l0 -53 -50 0 c-46 0
-52 -3 -70 -32 -12 -19 -20 -51 -20 -75 0 -56 30 -89 90 -100 l45 -9 3 -1181
3 -1181 -34 0 c-70 0 -114 -52 -104 -125 7 -52 35 -79 89 -86 l43 -6 3 -51 c2
-43 -2 -59 -33 -109 -69 -115 -97 -217 -98 -355 0 -139 35 -253 107 -349 21
-28 26 -46 26 -93 l0 -58 -44 0 c-36 0 -48 -5 -65 -26 -24 -30 -36 -83 -26
-113 11 -35 44 -59 91 -66 l44 -6 0 -1447 c0 -1645 10 -1471 -94 -1512 l-58
-23 26 -14 c29 -15 41 -50 32 -89 -5 -18 -19 -31 -46 -42 -40 -17 -40 -17 -40
-74 l0 -57 38 -10 c20 -6 71 -18 111 -28 l75 -19 178 30 178 30 0 57 c0 56 -1
58 -30 64 -35 8 -70 48 -70 80 0 13 13 34 30 49 l30 25 -44 20 c-24 10 -53 22
-64 25 -11 4 -23 18 -26 31 -5 21 -7 646 -6 2628 l0 297 31 0 c61 0 99 45 99
118 0 47 -36 92 -74 92 -47 0 -56 9 -56 56 0 34 10 62 40 115 66 117 85 193
85 339 -1 108 -4 135 -26 196 -14 39 -43 96 -63 127 -32 48 -37 64 -39 121
l-2 66 48 0 c43 0 49 3 67 33 12 19 20 50 20 75 0 54 -30 87 -88 97 -23 4 -42
10 -42 13 -1 25 -1 1038 -1 1635 l1 717 33 0 c130 0 140 196 12 216 l-45 6 0
48 c0 33 6 55 20 73 12 15 35 57 51 93 94 206 74 469 -47 631 -20 26 -24 44
-24 97 l0 66 44 0 c36 0 49 5 64 25 62 79 17 185 -78 185 l-30 0 0 1440 0
1440 -110 0 c-107 0 -110 -1 -110 -22z m171 -3411 c26 -77 32 -200 13 -286
-14 -68 -67 -191 -82 -191 -12 0 -58 103 -71 160 -14 60 -14 186 0 252 12 54
51 151 71 175 14 18 39 -22 69 -110z m-2 -3781 c31 -83 38 -218 17 -308 -18
-78 -70 -198 -85 -198 -19 0 -59 93 -76 176 -26 127 0 287 66 398 l22 38 17
-22 c9 -12 27 -50 39 -84z"/>
</g>
</svg>
