<?xml version="1.0" standalone="no"?>
<!DOCTYPE svg PUBLIC "-//W3C//DTD SVG 20010904//EN"
 "http://www.w3.org/TR/2001/REC-SVG-20010904/DTD/svg10.dtd">
<svg version="1.0" xmlns="http://www.w3.org/2000/svg"
 width="3542.000000pt" height="3750.000000pt" viewBox="0 0 3542.000000 3750.000000"
 preserveAspectRatio="xMidYMid meet">

<g transform="translate(0.000000,3750.000000) scale(0.100000,-0.100000)"
fill="#C5C3C1" stroke="none">
<path d="M8810 17185 l0 -1365 -31 0 c-47 0 -89 -47 -89 -100 0 -74 31 -109
98 -110 20 0 22 -5 22 -55 0 -43 -6 -64 -30 -102 -17 -26 -43 -84 -57 -128
-22 -68 -27 -99 -27 -200 -1 -137 19 -216 80 -316 27 -45 34 -67 34 -108 l0
-51 -38 0 c-50 0 -73 -25 -80 -85 -8 -72 27 -115 93 -115 l25 0 2 -667 c1
-368 2 -873 2 -1123 l1 -455 -22 3 c-59 8 -111 -56 -100 -124 8 -50 30 -71 83
-79 l45 -6 -2 -47 c-2 -32 -15 -70 -40 -117 -97 -181 -109 -405 -31 -575 14
-30 36 -69 49 -86 17 -23 23 -44 23 -82 l0 -52 -44 0 c-36 0 -47 -4 -61 -27
-10 -15 -20 -45 -22 -67 -6 -54 19 -86 78 -100 l44 -11 2 -1365 c2 -985 -1
-1371 -9 -1387 -6 -12 -34 -31 -64 -44 -55 -22 -64 -32 -40 -46 7 -4 18 -18
25 -30 18 -34 -2 -72 -49 -91 -39 -17 -40 -18 -40 -68 0 -45 3 -53 23 -57 211
-53 205 -53 440 -11 l87 16 0 53 c0 47 -3 55 -22 60 -35 11 -68 46 -68 72 0
13 11 35 25 49 14 14 25 26 25 28 0 2 -21 11 -46 21 -25 9 -54 26 -65 38 -19
20 -19 49 -19 1405 l0 1384 21 -5 c53 -14 100 34 101 102 1 60 -22 88 -77 96
-45 7 -45 8 -45 47 0 27 11 60 34 101 61 109 81 194 81 337 0 109 -4 134 -26
197 -15 39 -40 92 -58 118 -26 39 -31 55 -31 106 l0 59 38 0 c62 0 97 57 81
130 -9 41 -30 58 -81 67 l-38 6 2 1116 3 1116 37 6 c48 7 65 23 79 69 9 28 8
46 -1 74 -14 42 -22 49 -75 56 -38 5 -40 7 -43 42 -2 28 7 55 37 111 113 206
109 480 -10 654 -23 33 -29 52 -29 97 l0 55 42 3 c115 8 114 190 -1 200 l-36
3 -2 890 c-1 490 -2 1103 -3 1363 l0 472 -105 0 -105 0 0 -1365z m170 -1927
c26 -116 -2 -314 -56 -392 -12 -18 -15 -15 -39 38 -15 34 -30 95 -37 151 -10
80 -10 104 5 170 9 43 28 102 43 134 l26 56 23 -50 c12 -28 28 -76 35 -107z
m-29 -3499 c66 -130 57 -345 -20 -488 l-18 -34 -16 24 c-48 75 -70 238 -47
351 13 68 59 188 72 188 4 0 17 -18 29 -41z"/>
</g>
</svg>
