<?xml version="1.0" standalone="no"?>
<!DOCTYPE svg PUBLIC "-//W3C//DTD SVG 20010904//EN"
 "http://www.w3.org/TR/2001/REC-SVG-20010904/DTD/svg10.dtd">
<svg version="1.0" xmlns="http://www.w3.org/2000/svg"
 width="2550.000000pt" height="2700.000000pt" viewBox="0 0 2550.000000 2700.000000"
 preserveAspectRatio="xMidYMid meet">

<g transform="translate(0.000000,2700.000000) scale(0.100000,-0.100000)"
fill="#65340A" stroke="none">
<path d="M1415 13608 c-3 -7 -6 -746 -8 -1643 l-2 -1629 -35 -10 c-47 -13 -47
-13 -22 -36 12 -12 22 -31 22 -44 0 -26 -38 -66 -63 -66 -9 0 -17 -4 -17 -9 0
-5 28 -12 63 -15 34 -3 80 -8 102 -10 22 -2 -16 -3 -85 -2 -105 1 -125 -1
-125 -14 0 -8 10 -19 23 -25 12 -5 22 -13 22 -17 0 -5 9 -8 20 -8 27 0 60 -35
60 -63 0 -13 -9 -33 -20 -45 -11 -12 -20 -23 -20 -26 0 -2 18 -7 40 -11 l40
-7 0 -2136 c0 -1176 -4 -2142 -8 -2147 -4 -6 -24 -19 -44 -30 -35 -18 -36 -20
-21 -37 10 -12 14 -27 10 -47 -5 -26 -4 -28 16 -24 20 4 21 3 4 -7 -20 -12
-39 -18 -69 -19 -14 -1 -18 -10 -18 -36 0 -27 4 -35 18 -35 9 0 58 -5 109 -9
92 -9 123 -6 255 30 33 8 38 14 38 40 0 22 -6 32 -24 39 -48 18 -67 82 -30 97
18 7 8 23 -15 23 -10 0 -30 9 -45 21 l-26 20 0 2119 c0 1165 3 2125 6 2134 3
9 12 16 19 16 8 0 26 5 41 10 l26 10 -26 27 c-14 14 -26 32 -26 40 0 18 45 63
64 63 8 0 19 6 23 13 4 6 16 17 26 22 10 6 19 15 19 20 0 6 -9 15 -19 20 -10
6 -20 13 -23 16 -3 3 -20 11 -38 18 -56 23 -65 67 -21 107 21 19 21 19 -23 29
l-43 11 -3 1637 -2 1637 -70 0 c-47 0 -72 -4 -75 -12z m15 -3398 c23 -7 21 -8
-12 -9 -20 -1 -44 -4 -54 -8 -16 -6 -17 -5 -4 10 16 18 32 19 70 7z m5 -240
c26 -6 22 -8 -23 -9 -33 -1 -51 3 -47 9 7 11 26 11 70 0z"/>
</g>
</svg>
