<?xml version="1.0" standalone="no"?>
<!DOCTYPE svg PUBLIC "-//W3C//DTD SVG 20010904//EN"
 "http://www.w3.org/TR/2001/REC-SVG-20010904/DTD/svg10.dtd">
<svg version="1.0" xmlns="http://www.w3.org/2000/svg"
 width="2550.000000pt" height="2700.000000pt" viewBox="0 0 2550.000000 2700.000000"
 preserveAspectRatio="xMidYMid meet">

<g transform="translate(0.000000,2700.000000) scale(0.100000,-0.100000)"
fill="#65340A" stroke="none">
<path d="M8210 14872 l0 -1470 -35 -6 c-31 -6 -50 -26 -25 -26 6 0 15 -11 21
-24 14 -30 -2 -63 -36 -72 -14 -3 -25 -10 -25 -14 0 -4 -9 -10 -20 -13 -20 -5
-29 -37 -11 -37 5 0 16 -6 23 -12 8 -7 27 -20 43 -28 37 -19 43 -52 16 -79
-20 -20 -20 -21 -1 -31 10 -5 26 -10 34 -10 14 0 16 -151 16 -1557 0 -857 -4
-1563 -8 -1569 -4 -6 -22 -19 -40 -28 -29 -15 -31 -18 -17 -32 24 -24 18 -53
-15 -72 -25 -14 -30 -23 -28 -46 3 -29 4 -29 78 -35 95 -6 147 -6 185 2 17 4
41 8 55 10 19 3 26 10 28 33 2 23 -3 32 -28 46 -33 19 -39 48 -15 71 13 14 11
17 -23 34 l-37 18 -3 1563 c-1 967 2 1562 7 1562 5 0 22 5 37 10 l27 11 -22
22 c-11 13 -21 30 -21 39 0 16 30 48 46 48 5 0 22 11 38 23 29 24 29 47 0 47
-8 0 -14 4 -14 9 0 5 -11 12 -25 15 -14 4 -31 18 -37 32 -10 20 -8 29 10 54
l22 29 -35 7 -35 6 0 1464 0 1464 -49 0 c-27 0 -56 3 -65 6 -15 6 -16 -128
-16 -1464z"/>
</g>
</svg>
