<?xml version="1.0" standalone="no"?>
<!DOCTYPE svg PUBLIC "-//W3C//DTD SVG 20010904//EN"
 "http://www.w3.org/TR/2001/REC-SVG-20010904/DTD/svg10.dtd">
<svg version="1.0" xmlns="http://www.w3.org/2000/svg"
 width="2550.000000pt" height="2700.000000pt" viewBox="0 0 2550.000000 2700.000000"
 preserveAspectRatio="xMidYMid meet">

<g transform="translate(0.000000,2700.000000) scale(0.100000,-0.100000)"
fill="#65340A" stroke="none">
<path d="M2707 13613 c-3 -5 -6 -710 -6 -1568 0 -858 0 -1602 -1 -1652 0 -75
-3 -93 -15 -93 -8 0 -25 -5 -39 -11 l-25 -12 24 -29 c14 -16 25 -33 25 -37 0
-16 -41 -60 -62 -67 -12 -3 -26 -11 -32 -16 -6 -5 -20 -15 -31 -23 l-20 -15
20 -15 c11 -8 25 -19 32 -24 6 -6 23 -13 38 -17 14 -3 33 -17 41 -30 14 -21
14 -26 -2 -54 -10 -16 -22 -30 -26 -30 -4 0 -8 -4 -8 -9 0 -5 18 -12 40 -16
22 -4 40 -12 40 -18 0 -7 1 -976 3 -2155 3 -1760 1 -2146 -10 -2162 -7 -10
-29 -24 -49 -30 -33 -11 -34 -13 -20 -29 32 -35 14 -86 -36 -104 -13 -4 -18
-17 -18 -41 0 -34 0 -35 53 -40 160 -16 182 -16 272 7 l90 23 3 37 c2 26 -1
37 -11 37 -21 0 -57 39 -57 62 0 12 7 29 16 39 14 16 13 18 -20 29 -19 6 -40
18 -47 26 -9 12 -12 473 -10 2161 1 1181 4 2150 7 2154 3 5 20 11 39 15 40 7
43 14 15 39 -11 10 -20 28 -20 41 0 27 36 64 62 64 10 0 18 5 18 10 0 6 12 15
26 20 30 12 29 43 -1 49 -11 2 -22 6 -25 10 -3 3 -18 13 -34 21 -16 8 -35 24
-43 36 -12 18 -10 25 11 57 26 39 21 47 -30 47 l-24 0 -2 1658 -3 1657 -72 3
c-39 2 -74 -1 -76 -5z"/>
</g>
</svg>
