<?xml version="1.0" standalone="no"?>
<!DOCTYPE svg PUBLIC "-//W3C//DTD SVG 20010904//EN"
 "http://www.w3.org/TR/2001/REC-SVG-20010904/DTD/svg10.dtd">
<svg version="1.0" xmlns="http://www.w3.org/2000/svg"
 width="2550.000000pt" height="2700.000000pt" viewBox="0 0 2550.000000 2700.000000"
 preserveAspectRatio="xMidYMid meet">

<g transform="translate(0.000000,2700.000000) scale(0.100000,-0.100000)"
fill="#65340A" stroke="none">
<path d="M3398 11983 l-3 -1637 -32 -8 c-36 -9 -41 -19 -18 -38 34 -29 -1
-110 -48 -110 -9 0 -17 -5 -17 -10 0 -6 -12 -15 -26 -20 -29 -11 -28 -33 2
-39 10 -2 23 -9 27 -17 4 -8 16 -14 26 -14 23 0 51 -31 51 -57 0 -11 -9 -32
-21 -46 l-20 -27 40 -6 41 -7 -2 -2141 -3 -2141 -37 -24 c-32 -20 -35 -26 -27
-45 14 -30 -4 -73 -36 -88 -19 -9 -25 -19 -25 -43 l0 -32 83 -6 c127 -10 176
-8 252 11 67 17 70 20 73 50 3 27 -1 34 -22 42 -35 13 -53 52 -38 84 10 23 8
26 -26 43 l-37 18 -3 2138 c-2 1817 0 2137 12 2137 7 0 25 6 40 14 26 13 26
13 6 31 -29 26 -26 69 6 94 15 12 33 21 40 21 8 0 14 5 14 10 0 6 6 10 14 10
7 0 19 7 26 15 10 12 7 17 -14 26 -14 7 -26 16 -26 21 0 4 -8 8 -18 8 -48 0
-82 81 -47 110 22 18 19 26 -17 36 l-33 10 -3 1632 -2 1632 -75 0 -75 0 -2
-1637z"/>
</g>
</svg>
