<?xml version="1.0" standalone="no"?>
<!DOCTYPE svg PUBLIC "-//W3C//DTD SVG 20010904//EN"
 "http://www.w3.org/TR/2001/REC-SVG-20010904/DTD/svg10.dtd">
<svg version="1.0" xmlns="http://www.w3.org/2000/svg"
 width="2550.000000pt" height="2700.000000pt" viewBox="0 0 2550.000000 2700.000000"
 preserveAspectRatio="xMidYMid meet">

<g transform="translate(0.000000,2700.000000) scale(0.100000,-0.100000)"
fill="#65340A" stroke="none">
<path d="M4198 14090 l-68 -83 0 -1324 0 -1325 -39 -15 c-38 -15 -38 -16 -20
-34 10 -10 19 -29 19 -42 0 -23 -36 -67 -56 -67 -5 -1 -22 -11 -38 -24 -28
-23 -28 -46 0 -46 8 0 14 -4 14 -10 0 -5 6 -10 14 -10 24 0 66 -41 66 -64 0
-13 -9 -35 -20 -49 l-20 -25 40 -7 40 -7 0 -1663 c0 -1643 0 -1663 -20 -1688
-11 -13 -32 -28 -46 -31 -25 -7 -26 -8 -9 -26 23 -26 13 -64 -25 -92 -21 -15
-30 -30 -30 -49 l0 -27 115 -7 c110 -7 133 -5 238 17 43 9 47 12 47 39 0 22
-6 32 -25 39 -35 13 -50 56 -30 86 15 23 14 24 -19 38 -19 8 -39 23 -45 35 -8
14 -10 502 -9 1678 l3 1657 37 9 37 9 -21 29 c-28 37 -16 77 27 98 17 8 32 18
33 23 2 4 9 8 17 8 7 0 18 6 24 14 13 15 3 23 -76 60 -43 20 -53 58 -24 96
l21 29 -35 7 c-19 3 -36 7 -37 8 -2 0 -5 635 -8 1410 l-5 1409 -67 -83z"/>
</g>
</svg>
