<?xml version="1.0" standalone="no"?>
<!DOCTYPE svg PUBLIC "-//W3C//DTD SVG 20010904//EN"
 "http://www.w3.org/TR/2001/REC-SVG-20010904/DTD/svg10.dtd">
<svg version="1.0" xmlns="http://www.w3.org/2000/svg"
 width="2550.000000pt" height="2700.000000pt" viewBox="0 0 2550.000000 2700.000000"
 preserveAspectRatio="xMidYMid meet">

<g transform="translate(0.000000,2700.000000) scale(0.100000,-0.100000)"
fill="#65340A" stroke="none">
<path d="M6444 16451 c-2 -2 -4 -697 -4 -1544 0 -846 -3 -1543 -6 -1548 -3 -5
-15 -9 -28 -9 -34 0 -37 -9 -14 -40 28 -38 17 -66 -37 -91 -67 -32 -75 -46
-39 -74 16 -14 36 -24 45 -25 19 0 49 -31 49 -50 0 -8 -10 -24 -22 -37 -19
-20 -20 -25 -8 -33 8 -5 25 -10 37 -10 l23 0 2 -962 c2 -530 1 -1276 -2 -1658
l-5 -695 -45 -22 c-25 -12 -39 -22 -32 -22 7 -1 18 -13 24 -27 11 -25 10 -29
-22 -55 -31 -26 -47 -73 -29 -84 10 -7 230 -7 289 0 76 8 80 10 80 45 0 23 -6
33 -24 40 -34 12 -46 38 -33 67 5 13 15 23 21 23 6 1 -9 11 -34 23 l-45 22 -3
1651 -2 1652 35 6 c19 4 35 9 35 12 0 3 -10 18 -21 34 -21 28 -21 30 -5 54 9
15 23 26 31 26 7 0 20 6 27 13 7 7 21 16 31 20 23 9 22 38 -3 44 -11 3 -20 9
-20 14 0 5 -8 9 -18 9 -10 0 -29 11 -41 24 -24 26 -23 54 4 76 23 19 18 27
-20 34 l-35 7 0 1544 0 1543 -66 4 c-36 1 -68 1 -70 -1z"/>
</g>
</svg>
