<?xml version="1.0" standalone="no"?>
<!DOCTYPE svg PUBLIC "-//W3C//DTD SVG 20010904//EN"
 "http://www.w3.org/TR/2001/REC-SVG-20010904/DTD/svg10.dtd">
<svg version="1.0" xmlns="http://www.w3.org/2000/svg"
 width="2550.000000pt" height="2700.000000pt" viewBox="0 0 2550.000000 2700.000000"
 preserveAspectRatio="xMidYMid meet">

<g transform="translate(0.000000,2700.000000) scale(0.100000,-0.100000)"
fill="#65340A" stroke="none">
<path d="M7638 14878 l-3 -1492 -34 -8 -33 -9 22 -24 c34 -36 21 -69 -38 -98
-26 -13 -48 -30 -50 -38 -1 -8 14 -23 35 -34 77 -39 91 -67 53 -105 l-20 -20
25 -10 c15 -6 31 -10 36 -10 5 0 9 -612 9 -1595 l0 -1595 -37 -17 c-50 -23
-50 -23 -30 -34 33 -19 8 -89 -32 -89 -8 0 -11 -12 -9 -32 l3 -33 150 0 c185
1 205 5 205 45 0 19 -5 30 -14 30 -8 0 -24 12 -35 27 -20 24 -20 28 -5 51 13
20 14 26 3 33 -8 5 -19 9 -25 9 -6 0 -18 8 -27 18 -16 17 -17 143 -17 1600 0
1429 2 1582 16 1582 8 0 24 5 35 11 18 9 19 13 6 27 -25 30 -27 52 -7 72 11
11 26 20 33 20 6 1 26 12 42 25 l30 25 -30 25 c-16 13 -37 24 -45 25 -38 1
-55 65 -25 90 22 18 19 26 -17 36 l-33 10 -3 1487 -2 1487 -65 0 -65 0 -2
-1492z"/>
</g>
</svg>
