<?xml version="1.0" standalone="no"?>
<!DOCTYPE svg PUBLIC "-//W3C//DTD SVG 20010904//EN"
 "http://www.w3.org/TR/2001/REC-SVG-20010904/DTD/svg10.dtd">
<svg version="1.0" xmlns="http://www.w3.org/2000/svg"
 width="2550.000000pt" height="2700.000000pt" viewBox="0 0 2550.000000 2700.000000"
 preserveAspectRatio="xMidYMid meet">

<g transform="translate(0.000000,2700.000000) scale(0.100000,-0.100000)"
fill="#65340A" stroke="none">
<path d="M18880 22124 l-50 -47 0 -1658 0 -1658 -40 -11 c-22 -6 -40 -13 -40
-16 0 -3 10 -18 21 -34 27 -36 19 -76 -19 -93 -43 -19 -82 -48 -82 -61 0 -15
39 -50 79 -71 41 -21 50 -58 22 -95 -11 -16 -21 -31 -21 -34 0 -2 18 -11 40
-20 l40 -16 0 -1778 c0 -1966 5 -1809 -65 -1832 l-35 -11 22 -29 c18 -25 20
-33 10 -55 -7 -14 -23 -30 -37 -37 -19 -9 -25 -19 -25 -45 l0 -33 195 0 195 0
0 35 c0 28 -5 37 -29 50 -16 8 -31 23 -33 32 -5 21 11 63 24 63 19 0 6 18 -17
24 -14 4 -34 15 -45 26 -20 20 -20 41 -20 1809 l0 1789 35 6 c32 6 59 26 36
26 -16 0 -43 59 -36 79 3 10 21 27 40 37 19 10 35 21 35 25 0 4 9 9 20 12 12
3 20 14 20 25 0 12 -9 23 -20 27 -11 3 -20 11 -20 16 0 6 -13 15 -29 20 -40
14 -55 52 -36 89 8 15 20 30 27 33 7 3 -6 13 -29 23 l-43 19 0 1697 c0 1688 0
1697 -20 1708 -17 9 -27 4 -70 -36z"/>
</g>
</svg>
