<?xml version="1.0" standalone="no"?>
<!DOCTYPE svg PUBLIC "-//W3C//DTD SVG 20010904//EN"
 "http://www.w3.org/TR/2001/REC-SVG-20010904/DTD/svg10.dtd">
<svg version="1.0" xmlns="http://www.w3.org/2000/svg"
 width="2550.000000pt" height="2700.000000pt" viewBox="0 0 2550.000000 2700.000000"
 preserveAspectRatio="xMidYMid meet">

<g transform="translate(0.000000,2700.000000) scale(0.100000,-0.100000)"
fill="#65340A" stroke="none">
<path d="M19952 23147 l-52 -53 0 -1690 0 -1691 -40 -12 -39 -12 24 -36 c14
-20 25 -40 25 -45 0 -14 -48 -58 -63 -58 -8 0 -17 -7 -21 -15 -3 -8 -12 -15
-20 -15 -21 0 -28 -28 -10 -42 8 -7 20 -18 27 -23 7 -6 24 -18 39 -28 42 -26
51 -51 33 -87 -9 -16 -21 -30 -28 -30 -20 -1 33 -40 54 -40 19 0 19 -49 17
-2267 l-3 -2268 -43 -23 c-38 -22 -42 -26 -29 -41 8 -9 17 -24 20 -33 7 -20
-28 -68 -49 -68 -10 0 -14 -12 -14 -40 l0 -40 195 0 195 0 0 35 c0 28 -5 37
-30 50 -37 19 -49 59 -25 85 18 20 13 40 -11 40 -8 0 -26 11 -39 25 l-25 24 0
2256 c0 1496 3 2255 10 2256 6 1 15 3 20 4 6 1 13 3 18 4 4 1 13 5 21 10 11 7
10 13 -8 32 -11 12 -21 33 -21 46 0 23 32 63 50 63 16 0 70 42 70 54 0 12 -64
66 -78 66 -16 0 -42 36 -42 57 0 11 10 32 21 47 12 15 20 28 18 29 -2 2 -21
10 -41 20 l-38 17 0 1739 c0 1576 -1 1739 -16 1745 -9 3 -17 6 -18 6 -1 0 -25
-24 -54 -53z"/>
</g>
</svg>
