<?xml version="1.0" standalone="no"?>
<!DOCTYPE svg PUBLIC "-//W3C//DTD SVG 20010904//EN"
 "http://www.w3.org/TR/2001/REC-SVG-20010904/DTD/svg10.dtd">
<svg version="1.0" xmlns="http://www.w3.org/2000/svg"
 width="2550.000000pt" height="2700.000000pt" viewBox="0 0 2550.000000 2700.000000"
 preserveAspectRatio="xMidYMid meet">

<g transform="translate(0.000000,2700.000000) scale(0.100000,-0.100000)"
fill="#65340A" stroke="none">
<path d="M14243 15017 l-73 -124 0 -1412 0 -1411 -41 -16 -40 -17 21 -22 c36
-39 24 -73 -42 -118 -61 -42 -71 -61 -38 -72 11 -3 20 -11 20 -16 0 -5 6 -9
14 -9 24 0 66 -41 66 -64 0 -13 -9 -35 -21 -50 l-20 -26 26 -10 c14 -5 33 -10
41 -10 12 0 14 -299 14 -2224 l0 -2225 -24 -18 c-13 -10 -32 -23 -42 -29 -15
-10 -17 -14 -6 -25 24 -25 14 -66 -23 -95 -25 -19 -35 -34 -35 -55 0 -15 3
-30 8 -32 4 -3 68 -8 143 -12 112 -6 145 -5 192 9 l57 17 0 40 c0 33 -4 41
-25 49 -30 11 -42 53 -28 91 10 26 9 29 -22 39 -18 6 -36 18 -39 26 -7 19 -8
4432 -1 4444 3 5 19 11 35 15 34 7 36 12 16 34 -26 30 -27 57 -5 84 11 15 27
27 34 27 8 0 18 6 22 13 4 6 17 17 27 23 30 16 30 33 2 44 -14 5 -26 14 -26
20 0 5 -8 10 -18 10 -22 0 -47 25 -56 56 -4 14 1 30 15 48 24 31 24 30 -16 43
l-30 10 -5 1537 -5 1537 -72 -124z"/>
<path d="M13310 4688 c0 -25 3 -29 10 -18 13 20 13 50 0 50 -5 0 -10 -15 -10
-32z"/>
</g>
</svg>
