<?xml version="1.0" standalone="no"?>
<!DOCTYPE svg PUBLIC "-//W3C//DTD SVG 20010904//EN"
 "http://www.w3.org/TR/2001/REC-SVG-20010904/DTD/svg10.dtd">
<svg version="1.0" xmlns="http://www.w3.org/2000/svg"
 width="2550.000000pt" height="2700.000000pt" viewBox="0 0 2550.000000 2700.000000"
 preserveAspectRatio="xMidYMid meet">

<g transform="translate(0.000000,2700.000000) scale(0.100000,-0.100000)"
fill="#65340A" stroke="none">
<path d="M16779 20113 l-49 -46 -2 -1631 c-2 -1296 -6 -1631 -15 -1632 -7 -1
-19 -2 -25 -3 -7 -1 -19 -5 -27 -10 -11 -7 -9 -13 8 -30 11 -11 21 -32 21 -46
0 -26 -31 -65 -52 -65 -26 0 -70 -44 -63 -63 4 -9 13 -17 21 -17 7 0 17 -6 21
-12 4 -7 21 -20 37 -28 43 -22 50 -53 21 -89 -14 -16 -25 -31 -25 -33 0 -3 18
-11 40 -18 l40 -13 0 -1758 c0 -1502 -2 -1760 -14 -1772 -8 -8 -28 -20 -45
-27 -35 -14 -38 -22 -16 -40 30 -25 5 -90 -33 -90 -7 0 -12 -17 -12 -44 l0
-43 130 -2 c71 -1 157 1 190 5 l60 7 0 37 c0 29 -5 39 -25 48 -32 15 -42 55
-21 87 16 24 16 25 -21 40 -21 9 -41 21 -45 28 -4 7 -8 803 -8 1770 0 1520 2
1757 14 1757 8 0 26 4 41 10 l26 10 -21 29 c-33 44 -23 70 43 114 31 20 57 41
57 46 0 10 -65 61 -78 61 -16 0 -42 36 -42 57 0 11 9 32 21 47 l20 26 -28 10
c-15 6 -34 13 -40 15 -10 3 -13 347 -13 1674 l0 1669 -21 5 c-16 4 -34 -6 -70
-40z"/>
</g>
</svg>
