<?xml version="1.0" standalone="no"?>
<!DOCTYPE svg PUBLIC "-//W3C//DTD SVG 20010904//EN"
 "http://www.w3.org/TR/2001/REC-SVG-20010904/DTD/svg10.dtd">
<svg version="1.0" xmlns="http://www.w3.org/2000/svg"
 width="2550.000000pt" height="2700.000000pt" viewBox="0 0 2550.000000 2700.000000"
 preserveAspectRatio="xMidYMid meet">

<g transform="translate(0.000000,2700.000000) scale(0.100000,-0.100000)"
fill="#65340A" stroke="none">
<path d="M17818 21103 l-48 -49 -2 -1664 -3 -1664 -33 -7 c-45 -9 -49 -15 -24
-42 12 -13 22 -35 22 -49 0 -28 -28 -58 -53 -58 -9 0 -17 -4 -17 -8 0 -5 -11
-14 -25 -20 -31 -14 -32 -37 -3 -53 12 -6 27 -16 32 -20 6 -5 23 -18 39 -30
33 -25 35 -56 6 -93 -15 -20 -17 -27 -7 -31 7 -2 25 -9 41 -14 l27 -11 0
-2215 c0 -1327 -4 -2223 -9 -2233 -5 -10 -25 -24 -45 -32 -40 -15 -43 -22 -21
-40 25 -21 18 -57 -15 -82 -24 -18 -30 -29 -30 -60 l0 -38 188 2 187 3 3 43
c2 31 -1 42 -11 42 -20 0 -47 33 -47 58 0 11 7 28 16 37 19 18 20 17 -26 40
-19 10 -38 23 -42 29 -4 6 -8 1009 -8 2229 0 1765 3 2218 13 2221 6 3 24 7 40
10 l27 6 -21 29 c-29 39 -22 81 16 101 16 8 34 19 40 23 5 4 18 13 28 20 20
14 14 47 -9 47 -7 0 -17 6 -21 13 -4 6 -21 19 -38 27 -39 20 -46 69 -14 101
24 24 16 35 -33 46 l-28 5 -2 1712 c-3 1703 -3 1711 -23 1714 -13 2 -37 -14
-67 -45z"/>
</g>
</svg>
