<?xml version="1.0" standalone="no"?>
<!DOCTYPE svg PUBLIC "-//W3C//DTD SVG 20010904//EN"
 "http://www.w3.org/TR/2001/REC-SVG-20010904/DTD/svg10.dtd">
<svg version="1.0" xmlns="http://www.w3.org/2000/svg"
 width="3542.000000pt" height="3750.000000pt" viewBox="0 0 3542.000000 3750.000000"
 preserveAspectRatio="xMidYMid meet">

<g transform="translate(0.000000,3750.000000) scale(0.100000,-0.100000)"
fill="#3a4548" stroke="none">
<path d="M14430 17970 l0 -670 -110 0 -110 0 0 -3590 0 -3590 26 -6 c27 -7
151 2 178 12 14 6 16 -47 16 -552 0 -308 -4 -564 -8 -570 -4 -6 -31 -23 -60
-38 -52 -26 -53 -27 -33 -44 35 -30 36 -59 2 -92 -16 -17 -37 -30 -45 -30 -12
0 -16 -11 -16 -49 l0 -50 53 -10 c181 -36 182 -36 395 0 l62 11 0 49 c0 36 -4
49 -14 49 -25 0 -76 50 -76 74 0 12 11 33 25 46 l26 24 -48 19 c-26 10 -54 25
-60 34 -10 13 -13 147 -13 589 l0 572 63 11 c34 6 81 13 105 17 l42 7 0 3558
0 3559 -105 0 -105 0 0 665 0 665 -95 0 -95 0 0 -670z m238 -1458 l2 -662 -38
0 c-22 0 -87 -3 -145 -7 l-107 -6 0 661 c0 364 1 663 3 663 4 3 261 15 272 14
7 -1 11 -232 13 -663z m0 -970 l2 -172 -38 0 c-21 0 -87 -3 -145 -7 l-107 -6
0 171 c0 95 1 173 3 173 4 3 261 15 272 14 6 -1 11 -69 13 -173z m0 -1875 l2
-1567 -38 0 c-22 0 -87 -3 -145 -7 l-107 -6 0 1566 c0 862 1 1568 3 1568 4 3
261 15 272 14 7 -1 11 -533 13 -1568z m0 -1865 l2 -162 -38 0 c-21 0 -87 -3
-145 -7 l-107 -6 0 161 c0 89 1 163 3 163 4 3 261 15 272 14 6 -1 11 -65 13
-163z m0 -889 l2 -590 -132 -22 c-73 -12 -139 -21 -145 -21 -10 0 -13 128 -13
605 0 333 1 606 3 606 4 3 261 15 272 14 7 -1 11 -208 13 -592z"/>
</g>
</svg>
