<?xml version="1.0" standalone="no"?>
<!DOCTYPE svg PUBLIC "-//W3C//DTD SVG 20010904//EN"
 "http://www.w3.org/TR/2001/REC-SVG-20010904/DTD/svg10.dtd">
<svg version="1.0" xmlns="http://www.w3.org/2000/svg"
 width="3542.000000pt" height="3750.000000pt" viewBox="0 0 3542.000000 3750.000000"
 preserveAspectRatio="xMidYMid meet">

<g transform="translate(0.000000,3750.000000) scale(0.100000,-0.100000)"
fill="#3a4548" stroke="none">
<path d="M7618 18542 l-38 -3 0 -733 0 -734 -22 -6 c-13 -3 -74 -6 -136 -6
l-113 0 5 -3972 c2 -2185 5 -3974 5 -3975 1 -1 19 -4 41 -8 35 -6 148 6 203
21 16 5 17 -29 17 -615 0 -608 0 -621 -20 -641 -11 -11 -24 -20 -30 -20 -5 0
-27 -7 -48 -16 l-38 -17 28 -28 c15 -15 28 -36 28 -47 0 -28 -35 -69 -65 -76
-25 -6 -26 -10 -23 -63 l3 -57 110 -24 110 -25 110 18 c61 9 136 21 168 27
l57 10 0 53 c0 48 -2 53 -26 59 -34 9 -74 50 -74 76 0 12 13 34 29 50 l28 29
-51 21 c-94 38 -86 -24 -84 692 l3 632 125 19 c69 11 126 21 128 22 1 1 5
1773 8 3938 l6 3937 -136 0 -136 0 0 543 c0 298 0 629 0 735 l0 193 -67 -3
c-38 -1 -85 -4 -105 -6z m250 -2359 l-3 -738 -170 -7 c-116 -5 -173 -4 -182 4
-10 8 -13 154 -13 739 l0 728 78 4 c42 1 125 4 185 5 l107 2 -2 -737z m0
-1090 l-3 -198 -170 -7 c-116 -5 -173 -4 -182 4 -10 8 -13 57 -13 199 l0 188
78 4 c42 1 125 4 185 5 l107 2 -2 -197z m7 -2044 c6 -1427 5 -1693 -6 -1704
-10 -9 -66 -14 -181 -18 -144 -5 -168 -4 -179 10 -11 13 -13 171 -12 837 0
451 1 1211 2 1688 l1 867 78 4 c42 1 125 4 183 5 l106 2 8 -1691z m-1 -1906
c12 -73 7 -330 -6 -340 -7 -6 -88 -13 -180 -16 -144 -5 -168 -4 -179 10 -10
11 -14 58 -15 167 -1 219 -7 205 85 209 42 1 124 4 182 5 l106 2 7 -37z m0
-540 c9 -60 7 -1241 -3 -1247 -15 -9 -364 -66 -370 -60 -6 5 -8 1236 -2 1296
l3 37 77 4 c42 1 124 4 182 5 l106 2 7 -37z"/>
</g>
</svg>
