<?xml version="1.0" standalone="no"?>
<!DOCTYPE svg PUBLIC "-//W3C//DTD SVG 20010904//EN"
 "http://www.w3.org/TR/2001/REC-SVG-20010904/DTD/svg10.dtd">
<svg version="1.0" xmlns="http://www.w3.org/2000/svg"
 width="3542.000000pt" height="3750.000000pt" viewBox="0 0 3542.000000 3750.000000"
 preserveAspectRatio="xMidYMid meet">

<g transform="translate(0.000000,3750.000000) scale(0.100000,-0.100000)"
fill="#3a4548" stroke="none">
<path d="M8820 17836 l0 -723 -82 -6 c-46 -4 -105 -7 -132 -7 l-48 0 6 -3287
c3 -1809 6 -3565 6 -3904 l0 -616 38 -6 c20 -4 76 0 125 7 l87 13 0 -606 c0
-333 -4 -611 -8 -618 -4 -7 -34 -24 -66 -38 l-58 -26 26 -20 c34 -27 35 -71 1
-104 -13 -14 -34 -25 -45 -25 -19 0 -21 -5 -18 -57 l3 -57 80 -18 c131 -30
162 -31 290 -9 195 35 175 25 175 86 0 48 -2 53 -25 59 -64 16 -84 78 -39 123
14 14 24 26 22 27 -2 2 -29 13 -61 26 -39 15 -59 29 -62 44 -3 11 -4 298 -3
636 l3 615 123 19 122 20 0 1900 c1 1046 1 2578 0 3406 0 828 0 1713 0 1968
l0 462 -125 0 -125 0 0 720 0 720 -105 0 -105 0 0 -724z m280 -1580 l0 -714
-29 -7 c-37 -8 -308 -11 -316 -3 -10 10 -9 1408 1 1418 5 5 59 11 119 12 61 2
136 4 168 6 l57 3 0 -715z m0 -1050 l0 -184 -29 -7 c-36 -8 -308 -11 -315 -4
-10 9 -9 350 0 359 5 5 59 11 119 12 61 2 136 4 168 6 l57 3 0 -185z m0 -774
c0 -241 3 -999 7 -1684 l6 -1246 -40 -6 c-22 -4 -102 -8 -177 -9 -111 -1 -139
2 -147 13 -11 18 -3 3340 9 3352 4 4 57 9 117 10 61 2 136 4 168 6 l57 3 0
-439z m4 -3128 c3 -26 6 -107 6 -180 l0 -132 -39 -7 c-21 -3 -100 -7 -175 -8
-111 -1 -139 2 -146 13 -11 17 -12 282 -1 320 7 24 10 25 121 30 63 3 140 6
171 8 l56 3 7 -47z m0 -510 c3 -26 6 -320 6 -655 0 -570 -1 -608 -17 -613 -10
-2 -65 -12 -123 -21 -58 -9 -127 -21 -153 -26 -26 -5 -55 -9 -62 -9 -13 0 -15
89 -14 653 1 358 4 663 8 677 7 24 10 25 121 30 63 3 140 6 171 8 l56 3 7 -47z"/>
</g>
</svg>
