<?xml version="1.0" standalone="no"?>
<!DOCTYPE svg PUBLIC "-//W3C//DTD SVG 20010904//EN"
 "http://www.w3.org/TR/2001/REC-SVG-20010904/DTD/svg10.dtd">
<svg version="1.0" xmlns="http://www.w3.org/2000/svg"
 width="2551.000000pt" height="2701.000000pt" viewBox="0 0 2551.000000 2701.000000"
 preserveAspectRatio="xMidYMid meet">

<g transform="translate(0.000000,2701.000000) scale(0.100000,-0.100000)"
fill="#65340A" stroke="none">
<path d="M16472 22222 l-52 -47 0 -1272 c0 -1399 0 -1401 -62 -1698 -52 -252
-53 -259 -38 -295 10 -23 26 -38 57 -52 33 -15 43 -24 43 -43 0 -14 -7 -26
-19 -30 -35 -11 -45 -32 -27 -57 25 -35 20 -75 -11 -95 -33 -21 -72 -64 -73
-78 0 -6 23 -28 50 -48 54 -40 65 -74 35 -113 -20 -27 -19 -31 15 -43 24 -8
30 -16 30 -40 0 -24 -4 -31 -19 -31 -11 0 -36 -15 -55 -34 -44 -41 -46 -65
-12 -209 32 -137 63 -320 76 -444 13 -134 13 -3829 0 -3854 -6 -9 -23 -20 -40
-24 -35 -8 -35 -8 -14 -40 21 -32 12 -68 -21 -83 -21 -10 -25 -19 -25 -51 0
-22 4 -42 10 -46 7 -4 255 -9 308 -6 7 1 12 15 12 37 0 26 -7 41 -24 55 -34
27 -41 55 -21 86 15 22 15 27 3 34 -8 5 -25 16 -37 26 l-22 18 1 1850 c0 1193
4 1890 10 1965 14 148 42 325 79 492 26 115 28 136 17 162 -16 37 -35 55 -73
65 -22 6 -29 14 -31 39 -2 22 1 32 10 32 8 0 24 7 36 16 l22 15 -20 26 c-32
41 -26 65 30 112 28 23 50 50 50 59 -1 9 -23 34 -50 55 -56 43 -63 68 -29 111
l21 26 -36 15 c-52 22 -50 55 4 79 77 34 86 79 50 231 -36 151 -50 233 -70
410 -19 161 -20 240 -20 1467 0 714 -3 1298 -7 1298 -5 0 -32 -22 -61 -48z"/>
</g>
</svg>
