<?xml version="1.0" standalone="no"?>
<!DOCTYPE svg PUBLIC "-//W3C//DTD SVG 20010904//EN"
 "http://www.w3.org/TR/2001/REC-SVG-20010904/DTD/svg10.dtd">
<svg version="1.0" xmlns="http://www.w3.org/2000/svg"
 width="2551.000000pt" height="2701.000000pt" viewBox="0 0 2551.000000 2701.000000"
 preserveAspectRatio="xMidYMid meet">

<g transform="translate(0.000000,2701.000000) scale(0.100000,-0.100000)"
fill="#65340A" stroke="none">
<path d="M19982 25109 l-52 -44 -3 -1315 c-3 -1286 -4 -1318 -25 -1456 -21
-137 -50 -285 -78 -392 -7 -29 -11 -66 -8 -82 7 -35 41 -68 80 -79 42 -11 43
-43 2 -72 -18 -12 -35 -24 -37 -25 -2 -2 6 -15 18 -30 28 -35 27 -70 -1 -85
-33 -17 -88 -75 -88 -93 0 -8 9 -18 20 -21 11 -3 20 -11 20 -16 0 -5 6 -9 13
-9 8 0 24 -11 36 -24 26 -27 23 -66 -6 -98 -14 -15 -12 -18 18 -26 26 -6 35
-14 37 -34 2 -20 -3 -28 -28 -38 -32 -13 -75 -58 -85 -89 -3 -10 8 -79 24
-152 40 -182 69 -361 80 -499 14 -158 14 -2806 0 -2831 -5 -10 -23 -26 -39
-34 -29 -15 -29 -15 -14 -50 17 -40 7 -69 -26 -80 -15 -5 -20 -15 -20 -41 l0
-34 170 0 170 0 0 39 c0 30 -5 41 -18 45 -11 4 -25 17 -32 30 -10 20 -10 29 4
57 19 39 19 39 2 39 -7 0 -25 11 -40 25 l-27 25 2 1298 c2 713 6 1362 10 1442
9 185 31 344 74 541 19 86 35 168 35 183 0 33 -58 96 -88 96 -13 0 -21 8 -25
25 -3 21 1 29 24 40 38 20 43 31 25 57 -24 34 -20 73 8 92 40 26 76 66 76 84
0 10 -22 32 -50 50 -55 36 -65 67 -34 111 17 24 11 37 -21 43 -13 2 -21 12
-23 29 -2 20 4 28 33 42 37 18 75 69 75 102 0 11 -11 70 -25 130 -59 261 -86
477 -87 704 0 86 -4 161 -9 167 -5 6 -10 520 -11 1154 l-3 1143 -53 -44z"/>
</g>
</svg>
