<?xml version="1.0" standalone="no"?>
<!DOCTYPE svg PUBLIC "-//W3C//DTD SVG 20010904//EN"
 "http://www.w3.org/TR/2001/REC-SVG-20010904/DTD/svg10.dtd">
<svg version="1.0" xmlns="http://www.w3.org/2000/svg"
 width="2551.000000pt" height="2701.000000pt" viewBox="0 0 2551.000000 2701.000000"
 preserveAspectRatio="xMidYMid meet">

<g transform="translate(0.000000,2701.000000) scale(0.100000,-0.100000)"
fill="#65340A" stroke="none">
<path d="M21150 26072 l-55 -46 3 -1216 c4 -1432 1 -1480 -86 -1850 -43 -183
-34 -227 51 -256 31 -11 48 -40 30 -53 -5 -3 -22 -16 -36 -28 l-27 -21 18 -34
c25 -44 23 -59 -13 -82 -16 -11 -43 -35 -58 -52 -25 -29 -26 -34 -12 -46 9 -7
22 -19 30 -25 7 -7 18 -13 24 -13 5 0 19 -12 30 -27 23 -28 21 -54 -6 -85 -19
-21 -11 -34 27 -41 46 -10 41 -47 -10 -70 -42 -19 -80 -70 -80 -106 0 -12 11
-66 24 -119 28 -112 39 -166 68 -352 21 -134 21 -155 25 -2030 2 -1042 1
-1905 -2 -1918 -3 -13 -20 -29 -40 -39 -32 -15 -33 -18 -19 -37 22 -33 17 -63
-16 -88 -21 -15 -30 -30 -30 -50 l0 -28 170 0 170 0 0 39 c0 30 -5 41 -18 46
-32 9 -45 51 -27 85 15 29 14 30 -15 45 -16 8 -34 24 -40 35 -12 22 -11 3315
1 3665 7 213 32 410 75 592 37 157 39 192 15 230 -13 20 -32 35 -53 41 -25 6
-34 14 -36 34 -2 20 4 30 33 47 l36 21 -20 26 c-32 41 -26 62 35 118 41 38 54
55 49 69 -4 9 -13 17 -20 17 -7 0 -15 7 -19 15 -3 8 -12 15 -19 15 -39 0 -62
75 -32 100 24 20 17 40 -15 47 -45 9 -41 45 8 73 42 24 72 65 72 101 0 12 -16
92 -35 178 -19 86 -44 228 -55 315 -20 154 -20 210 -20 1483 0 1038 -3 1323
-13 1323 -6 -1 -37 -22 -67 -48z"/>
</g>
</svg>
