<?xml version="1.0" standalone="no"?>
<!DOCTYPE svg PUBLIC "-//W3C//DTD SVG 20010904//EN"
 "http://www.w3.org/TR/2001/REC-SVG-20010904/DTD/svg10.dtd">
<svg version="1.0" xmlns="http://www.w3.org/2000/svg"
 width="2551.000000pt" height="2701.000000pt" viewBox="0 0 2551.000000 2701.000000"
 preserveAspectRatio="xMidYMid meet">

<g transform="translate(0.000000,2701.000000) scale(0.100000,-0.100000)"
fill="#65340A" stroke="none">
<path d="M7090 14502 l-55 -46 -1 -1286 c-1 -1488 4 -1404 -105 -1890 -7 -31
-9 -68 -5 -84 8 -33 52 -76 77 -76 10 0 23 -9 29 -20 11 -20 10 -21 -39 -58
-22 -17 -23 -20 -8 -43 24 -38 26 -89 3 -89 -20 0 -89 -87 -80 -102 9 -15 39
-38 69 -53 26 -13 32 -67 11 -97 -22 -31 -20 -36 16 -46 49 -12 46 -46 -6 -72
-69 -33 -91 -95 -66 -180 25 -83 70 -329 85 -462 14 -124 16 -347 16 -1703 0
-858 0 -1702 0 -1876 l-1 -317 -28 -11 c-15 -6 -33 -21 -40 -32 -11 -18 -11
-24 2 -38 20 -22 21 -61 2 -61 -20 0 -38 -51 -34 -96 l3 -39 148 1 c81 1 150
4 154 8 3 3 8 31 11 61 4 50 2 57 -22 76 -30 24 -32 40 -10 75 19 28 18 30
-28 52 l-33 17 -3 1800 c-2 1157 1 1852 8 1947 13 189 33 324 77 525 20 94 33
172 29 187 -8 33 -46 75 -71 79 -11 1 -26 6 -32 10 -18 11 -16 47 2 47 8 0 24
9 36 21 l20 20 -21 34 c-25 40 -20 67 15 83 26 12 65 66 65 90 0 16 -39 51
-57 52 -7 0 -20 12 -29 26 -16 24 -16 28 4 70 l22 44 -28 6 c-49 12 -57 49
-14 65 41 16 81 59 88 95 4 20 -4 74 -20 141 -30 131 -51 242 -73 394 -14 100
-17 284 -22 1455 l-6 1342 -55 -46z"/>
</g>
</svg>
