<?xml version="1.0" standalone="no"?>
<!DOCTYPE svg PUBLIC "-//W3C//DTD SVG 20010904//EN"
 "http://www.w3.org/TR/2001/REC-SVG-20010904/DTD/svg10.dtd">
<svg version="1.0" xmlns="http://www.w3.org/2000/svg"
 width="2551.000000pt" height="2701.000000pt" viewBox="0 0 2551.000000 2701.000000"
 preserveAspectRatio="xMidYMid meet">

<g transform="translate(0.000000,2701.000000) scale(0.100000,-0.100000)"
fill="#65340A" stroke="none">
<path d="M9442 16436 l-53 -43 0 -1223 c0 -673 -4 -1279 -9 -1347 -13 -166
-44 -370 -80 -523 -17 -70 -30 -135 -30 -144 0 -37 32 -77 76 -96 47 -21 61
-55 27 -67 -10 -3 -26 -12 -35 -20 -15 -14 -15 -17 4 -48 23 -41 21 -66 -8
-80 -26 -13 -74 -68 -74 -85 0 -13 34 -47 66 -66 11 -6 23 -23 28 -37 8 -22 5
-33 -12 -56 -23 -31 -22 -33 23 -56 11 -6 21 -20 23 -32 2 -16 -3 -23 -27 -28
-34 -7 -78 -53 -87 -92 -6 -24 0 -63 33 -193 18 -72 49 -260 64 -385 9 -74 13
-570 15 -1895 1 -987 0 -1836 -3 -1887 -5 -92 -5 -92 -39 -112 -36 -22 -44
-50 -19 -71 21 -17 19 -41 -4 -47 -23 -6 -28 -17 -37 -83 l-7 -50 156 0 155 0
5 33 c8 46 3 80 -13 85 -8 3 -10 0 -5 -8 5 -8 4 -11 -3 -6 -6 4 -9 13 -5 21 3
8 0 15 -5 15 -17 0 -20 34 -4 52 12 15 10 21 -22 53 l-37 36 4 1912 c3 1724 5
1923 20 2027 23 159 44 268 73 382 13 53 24 105 24 116 0 33 -43 85 -80 97
-45 15 -54 50 -15 65 33 13 41 34 21 62 -26 37 -19 61 29 101 29 24 45 46 45
60 -1 25 -27 60 -53 70 -9 3 -23 18 -29 33 -10 22 -9 31 5 56 23 39 22 45 -10
60 -16 7 -29 23 -31 35 -2 16 4 24 32 33 38 12 70 49 81 92 4 15 -4 69 -19
129 -28 119 -49 227 -73 385 -15 96 -17 269 -22 1460 l-6 1352 -53 -42z"/>
</g>
</svg>
