<?xml version="1.0" standalone="no"?>
<!DOCTYPE svg PUBLIC "-//W3C//DTD SVG 20010904//EN"
 "http://www.w3.org/TR/2001/REC-SVG-20010904/DTD/svg10.dtd">
<svg version="1.0" xmlns="http://www.w3.org/2000/svg"
 width="2551.000000pt" height="2701.000000pt" viewBox="0 0 2551.000000 2701.000000"
 preserveAspectRatio="xMidYMid meet">

<g transform="translate(0.000000,2701.000000) scale(0.100000,-0.100000)"
fill="#65340A" stroke="none">
<path d="M10612 17399 l-52 -40 0 -1267 c0 -1051 -3 -1290 -15 -1399 -21 -191
-33 -263 -66 -402 -44 -186 -38 -225 37 -261 35 -16 44 -25 44 -45 0 -14 -6
-25 -12 -25 -7 0 -22 -7 -32 -15 -19 -14 -19 -16 -1 -48 21 -39 14 -84 -13
-94 -23 -8 -61 -54 -62 -74 0 -8 20 -32 45 -53 49 -42 58 -75 30 -112 -20 -27
-19 -31 15 -43 24 -8 30 -16 30 -40 0 -25 -4 -31 -21 -31 -12 0 -36 -15 -55
-34 -42 -42 -44 -73 -9 -219 30 -129 51 -252 70 -422 12 -108 15 -359 15
-1507 0 -757 -3 -1383 -6 -1392 -3 -9 -11 -16 -18 -16 -6 0 -22 -9 -36 -19
-23 -19 -24 -20 -7 -39 21 -23 23 -72 2 -72 -19 0 -31 -26 -34 -77 l-3 -43
151 0 151 0 6 25 c9 37 -3 86 -26 102 -23 17 -27 61 -5 69 25 10 17 32 -17 50
-18 9 -36 22 -40 28 -12 17 -9 2662 2 2801 14 162 45 366 76 500 37 159 39
184 15 222 -12 19 -32 35 -48 39 -61 15 -74 58 -23 75 34 12 36 23 14 68 -13
26 -14 38 -5 57 6 13 14 24 19 24 14 0 58 43 65 63 5 12 -8 31 -43 66 -54 53
-57 63 -35 101 20 35 18 48 -7 56 -46 14 -52 58 -10 69 39 9 81 53 88 91 4 21
-4 74 -20 142 -39 165 -73 381 -85 542 -7 90 -11 613 -11 1389 0 684 -1 1245
-3 1247 -1 2 -26 -15 -55 -37z"/>
</g>
</svg>
