<svg id="spindle_dots" data-name="spindle dots" xmlns="http://www.w3.org/2000/svg" width="2550" height="2700" viewBox="0 0 2550 2700">
  <defs>
    <style>
      .cls-11 {
        fill: #d60d33;
      }

      .cls-22 {
        fill: #46e635;
      }
    </style>
  </defs>
  <rect id="post_dot" data-name="post dot" class="cls-11" x="948" y="2161" width="6" height="6"/>
  <rect class="cls-22" x="1036" y="2198" width="6" height="6"/>
  <rect id="Rectangle_7_copy" data-name="Rectangle 7 copy" class="cls-22" x="913" y="2189" width="6" height="6"/>
  <rect id="Rectangle_7_copy_2" data-name="Rectangle 7 copy 2" class="cls-22" x="935" y="2161" width="6" height="6"/>
  <rect id="Rectangle_7_copy_3" data-name="Rectangle 7 copy 3" class="cls-22" x="1030" y="1965" width="6" height="6"/>
  <rect id="Rectangle_7_copy_4" data-name="Rectangle 7 copy 4" class="cls-22" x="1116" y="1955" width="6" height="6"/>
  <rect id="Rectangle_7_copy_5" data-name="Rectangle 7 copy 5" class="cls-22" x="1195" y="1774" width="6" height="6"/>
  <rect id="Rectangle_7_copy_6" data-name="Rectangle 7 copy 6" class="cls-22" x="1285" y="1768" width="6" height="6"/>
  <rect id="Rectangle_7_copy_7" data-name="Rectangle 7 copy 7" class="cls-22" x="1368" y="1593" width="6" height="6"/>
  <rect id="Rectangle_7_copy_8" data-name="Rectangle 7 copy 8" class="cls-22" x="1461" y="1592" width="6" height="6"/>
  <rect id="Rectangle_7_copy_9" data-name="Rectangle 7 copy 9" class="cls-22" x="1547" y="1423" width="6" height="6"/>
  <rect id="Rectangle_7_copy_10" data-name="Rectangle 7 copy 10" class="cls-22" x="1641" y="1423" width="6" height="6"/>
  <rect id="Rectangle_7_copy_11" data-name="Rectangle 7 copy 11" class="cls-22" x="1725" y="1254" width="6" height="6"/>
  <rect id="Rectangle_7_copy_12" data-name="Rectangle 7 copy 12" class="cls-22" x="1817" y="1254" width="6" height="6"/>
  <rect id="Rectangle_7_copy_13" data-name="Rectangle 7 copy 13" class="cls-22" x="1902" y="1082" width="6" height="6"/>
  <rect id="Rectangle_7_copy_14" data-name="Rectangle 7 copy 14" class="cls-22" x="1993" y="1079" width="6" height="6"/>
  <rect id="Rectangle_7_copy_15" data-name="Rectangle 7 copy 15" class="cls-22" x="2070" y="903" width="6" height="6"/>
  <rect id="Rectangle_7_copy_16" data-name="Rectangle 7 copy 16" class="cls-22" x="2156" y="896" width="6" height="6"/>
  <rect id="Rectangle_7_copy_17" data-name="Rectangle 7 copy 17" class="cls-22" x="2225" y="711" width="6" height="6"/>
  <rect id="Rectangle_7_copy_18" data-name="Rectangle 7 copy 18" class="cls-22" x="2310" y="704" width="6" height="6"/>
  <rect id="Rectangle_7_copy_19" data-name="Rectangle 7 copy 19" class="cls-22" x="2398" y="507" width="6" height="6"/>
  <rect id="Rectangle_7_copy_20" data-name="Rectangle 7 copy 20" class="cls-22" x="2486" y="493" width="6" height="6"/>
</svg>
