<svg id="spindle_rectangle" data-name="spindle rectangle" xmlns="http://www.w3.org/2000/svg" width="2550" height="2700" viewBox="0 0 2550 2700">
  <defs>
    <style>
      .cls-1 {
        fill: transparent;
      }

      .cls-2 {
        fill: transparent;
      }

      .cls-3 {
        fill: transparent;
      }
    </style>
  </defs>
  <rect data-name="handrailfront" data-value="STRAIGHT HANDRAIL" data-part="HANDRAIL" class="ssitems cls-1" x="492" y="5" width="2053" height="2650"/> 
  <rect  data-name="handrailfrontV" data-value="VOLUTE HANDRAIL" data-part="HANDRAIL" class="ssitems cls-1" x="492" y="5" width="2053" height="2650"/> 
  
  <rect  data-name="newelpost1" data-part="NEWEL" data-value="BOTTOM POST" class="ssitems cls-2" x="882" y="1128" width="138" height="1056"/>
  <rect  data-name="newelpost2" data-part="NEWEL" data-value="BOTTOM POST" class="ssitems cls-2" x="1000" y="1128" width="138" height="1056"/>
  <!-- bottom spindles only for headless-->
  
  
  
  <rect data-part="SPINDLE" data-value="4"  data-name="spindle4" class="ssitems cls-3 " x="1014" y="1052" width="33" height="924"/>
  <rect data-part="SPINDLE" data-value="5"  data-name="spindle5" class="ssitems cls-3" x="1099" y="1046" width="33" height="924"/>
  <rect data-part="SPINDLE" data-value="6"  data-name="spindle6" class="ssitems cls-3" x="1184" y="863" width="33" height="924"/>
  <rect data-part="SPINDLE" data-value="7"  data-name="spindle7" class="ssitems cls-3" x="1269" y="851" width="33" height="924"/>
  <rect data-part="SPINDLE" data-value="8"  data-name="spindle8" class="ssitems cls-3" x="1354" y="677" width="33" height="924"/>
  <rect data-part="SPINDLE" data-value="9"  data-name="spindle9" class="ssitems cls-3" x="1448" y="675" width="33" height="924"/>
  <rect data-part="SPINDLE" data-value="10"  data-name="spindle10" class="ssitems cls-3" x="1533" y="505" width="33" height="924"/>
  <rect data-part="SPINDLE" data-value="11"  data-name="spindle11" class="ssitems cls-3" x="1627" y="506" width="33" height="924"/>
  <rect data-part="SPINDLE" data-value="12"  data-name="spindle12" class="ssitems cls-3" x="1712" y="338" width="33" height="924"/>
  <rect data-part="SPINDLE" data-value="13"  data-name="spindle13" class="ssitems cls-3" x="1804" y="337" width="33" height="924"/>
  <rect data-part="SPINDLE" data-value="14"  data-name="spindle14" class="ssitems cls-3" x="1889" y="166" width="33" height="924"/>
  <rect data-part="SPINDLE" data-value="15"  data-name="spindle15" class="ssitems cls-3" x="1981" y="165" width="33" height="924"/>
  <rect data-part="SPINDLE" data-value="16"  data-name="spindle16" class="ssitems cls-3" x="2056" y="179" width="33" height="729"/>
  <rect data-part="SPINDLE" data-value="17"  data-name="spindle17" class="ssitems cls-3" x="2144" y="64" width="25" height="847"/>
  <rect data-part="SPINDLE" data-value="18"  data-name="spindle18" class="ssitems cls-3" x="2216" width="33" height="729"/>
  <rect data-part="SPINDLE" data-value="19"  data-name="spindle19" class="ssitems cls-3" x="2294" width="33" height="729"/>
  <rect data-part="SPINDLE" data-value="20"  data-name="spindle20" class="ssitems cls-3" x="2385" y="-1" width="27" height="515"/>
  <rect data-part="SPINDLE" data-value="21"  data-name="spindle21" class="ssitems cls-3" x="2472" y="2" width="33" height="501"/>
</svg>
