<?xml version="1.0" standalone="no"?>
<!DOCTYPE svg PUBLIC "-//W3C//DTD SVG 20010904//EN"
 "http://www.w3.org/TR/2001/REC-SVG-20010904/DTD/svg10.dtd">
<svg version="1.0" xmlns="http://www.w3.org/2000/svg"
 width="2550.000000pt" height="2700.000000pt" viewBox="0 0 2550.000000 2700.000000"
 preserveAspectRatio="xMidYMid meet">

<g transform="translate(0.000000,2700.000000) scale(0.100000,-0.100000)"
fill="#65340A" stroke="none">
<path d="M17292 21495 l-52 -50 0 -507 0 -506 -52 -18 c-239 -78 -444 -287
-529 -539 -53 -156 -60 -311 -22 -480 19 -87 74 -206 320 -699 166 -331 190
-385 162 -362 -115 97 -254 96 -350 -3 -99 -102 -85 -216 33 -266 65 -27 117
-15 166 38 30 32 40 98 19 116 -25 20 -49 9 -61 -26 -13 -38 -42 -68 -73 -78
-30 -9 -73 34 -73 72 0 60 76 139 144 150 69 11 106 -4 170 -70 74 -75 136
-167 136 -200 0 -13 10 -32 21 -43 24 -21 109 -186 139 -267 69 -189 72 -397
9 -592 -33 -103 -103 -233 -155 -286 -91 -93 -247 -126 -357 -76 -130 59 -219
219 -187 336 20 77 110 150 183 151 35 0 82 -24 91 -45 19 -51 -10 -115 -53
-115 -10 0 -24 -7 -31 -15 -19 -23 5 -45 50 -45 104 0 159 143 84 221 -58 60
-186 74 -274 29 -51 -26 -105 -91 -120 -145 -18 -66 -9 -159 24 -232 34 -74
113 -154 183 -185 l46 -20 -52 -25 c-66 -32 -151 -114 -183 -178 -36 -73 -49
-137 -49 -245 0 -192 59 -330 196 -459 104 -97 261 -160 398 -161 l47 0 0
-525 0 -525 -32 -20 c-18 -11 -37 -22 -43 -23 -5 -2 -2 -13 8 -24 24 -28 21
-60 -8 -79 -20 -13 -25 -24 -25 -60 l0 -44 159 0 c173 0 171 -1 171 60 0 19
-8 33 -25 44 -17 11 -25 26 -25 46 0 17 5 30 10 30 22 0 8 26 -25 48 l-35 22
2 536 3 536 55 17 c165 51 334 180 437 331 141 209 180 493 101 740 -12 36
-109 243 -218 460 -108 217 -215 434 -237 482 l-41 87 43 -34 c114 -86 243
-85 338 4 58 53 86 147 59 197 -71 130 -264 110 -279 -30 -5 -42 -4 -45 20
-51 32 -8 47 0 47 26 0 29 53 79 84 79 44 0 76 -53 61 -100 -10 -31 -63 -88
-98 -107 -45 -23 -119 -20 -161 7 -69 42 -209 232 -199 270 3 13 -5 29 -24 47
-38 37 -128 228 -153 327 -56 223 -27 452 86 667 50 95 112 162 182 196 50 24
69 28 147 28 78 0 97 -4 141 -27 104 -55 168 -157 169 -270 0 -58 -4 -72 -30
-110 -58 -82 -172 -117 -233 -71 -50 37 -34 109 28 129 44 14 53 49 17 65 -20
9 -33 7 -70 -9 -53 -23 -80 -65 -79 -124 2 -121 167 -188 300 -122 135 67 180
223 109 378 -31 68 -123 162 -185 190 -23 10 -42 22 -42 25 1 3 22 16 49 28
26 13 69 44 95 69 95 94 129 187 130 354 0 159 -44 277 -151 408 -100 122
-288 211 -445 212 l-58 0 0 534 c0 415 -3 536 -12 543 -9 6 -29 -6 -66 -42z
m333 -1144 c136 -55 203 -115 269 -240 161 -307 12 -670 -275 -671 -119 0
-188 39 -247 139 -55 95 -21 225 73 278 114 65 205 -25 132 -132 -25 -36 -25
-40 -10 -57 25 -28 50 -21 79 22 54 82 38 165 -44 227 -36 27 -53 33 -93 33
-128 0 -239 -120 -239 -256 0 -100 79 -224 174 -275 25 -13 46 -26 46 -29 0
-3 -20 -13 -45 -24 -132 -54 -257 -248 -311 -481 -13 -56 -18 -120 -18 -212 0
-72 -1 -131 -2 -130 -9 9 -350 702 -369 749 -62 151 -72 373 -25 523 69 220
213 391 415 491 186 92 337 106 490 45z m74 -3153 c103 -211 192 -396 199
-413 42 -108 55 -313 27 -435 -40 -168 -117 -303 -237 -415 -133 -123 -289
-192 -455 -202 -81 -5 -102 -2 -176 21 -226 70 -369 257 -384 501 -15 243 120
422 326 432 82 3 145 -23 204 -86 130 -139 86 -325 -86 -367 -23 -5 -33 0 -62
31 -42 44 -45 78 -10 129 31 46 31 54 0 68 -21 9 -28 8 -46 -8 -75 -68 -63
-200 24 -252 48 -29 96 -34 156 -17 104 32 170 122 172 240 1 55 -3 76 -30
130 -34 68 -89 123 -153 153 -20 9 -38 19 -38 22 0 3 25 16 55 29 118 51 243
232 296 431 19 70 23 111 24 237 0 84 1 153 3 153 2 0 88 -172 191 -382z"/>
</g>
</svg>
