<?xml version="1.0" standalone="no"?>
<!DOCTYPE svg PUBLIC "-//W3C//DTD SVG 20010904//EN"
 "http://www.w3.org/TR/2001/REC-SVG-20010904/DTD/svg10.dtd">
<svg version="1.0" xmlns="http://www.w3.org/2000/svg"
 width="2550.000000pt" height="2700.000000pt" viewBox="0 0 2550.000000 2700.000000"
 preserveAspectRatio="xMidYMid meet">

<g transform="translate(0.000000,2700.000000) scale(0.100000,-0.100000)"
fill="#65340A" stroke="none">
<path d="M20725 25178 c-22 -29 -44 -58 -48 -65 -4 -7 -8 -247 -7 -533 l0
-519 -42 -22 c-219 -111 -403 -357 -480 -642 -31 -113 -33 -387 -4 -487 23
-77 100 -257 212 -498 24 -52 44 -95 44 -97 0 -2 18 -43 40 -90 22 -47 40 -88
40 -90 0 -2 25 -57 56 -122 31 -65 56 -122 57 -128 1 -5 6 -13 12 -17 5 -4 6
-10 3 -13 -4 -4 -19 5 -35 21 -15 15 -19 21 -9 13 17 -12 19 -12 14 1 -6 20
-114 60 -162 60 -132 0 -249 -163 -205 -288 15 -42 44 -59 120 -67 61 -7 67
-5 97 20 31 26 62 82 62 112 0 12 -55 43 -78 43 -5 0 -12 -17 -16 -38 -6 -43
-43 -83 -78 -87 -21 -2 -23 2 -26 46 -2 31 3 62 14 84 22 48 97 112 136 117
28 5 40 -2 86 -46 73 -68 134 -160 138 -205 2 -23 11 -43 26 -56 26 -22 108
-200 132 -285 58 -209 50 -455 -21 -653 -39 -111 -87 -198 -138 -254 -50 -56
-142 -109 -175 -100 -11 3 -38 0 -60 -5 -29 -8 -44 -7 -55 2 -8 6 -19 9 -25 5
-6 -4 -9 -2 -8 3 2 5 -13 22 -32 37 l-35 29 30 -34 c17 -18 23 -29 15 -25 -15
9 -45 45 -45 55 0 3 -13 34 -29 69 -56 125 -43 242 36 320 52 53 103 68 138
42 50 -36 34 -122 -27 -148 -22 -9 -33 -20 -33 -33 0 -16 7 -20 38 -21 59 -2
65 0 99 36 64 68 52 163 -26 202 -130 66 -259 20 -323 -115 -26 -54 -30 -168
-10 -239 27 -90 125 -201 195 -218 15 -4 27 -10 27 -14 -1 -3 -26 -22 -57 -41
-30 -19 -73 -57 -93 -85 -40 -53 -90 -161 -90 -194 0 -11 -4 -23 -10 -26 -12
-8 -14 -257 -1 -270 4 -6 14 -32 20 -59 30 -123 124 -257 226 -321 72 -45 128
-64 227 -77 l88 -12 0 -532 c0 -584 3 -555 -60 -569 -27 -6 -44 -35 -20 -35
18 0 32 -40 20 -55 -7 -8 -8 -20 -4 -26 4 -8 3 -9 -5 -5 -6 4 -20 4 -32 1 -15
-5 -19 -14 -17 -37 l3 -31 135 2 c192 4 254 12 258 33 2 12 -6 21 -22 27 -13
6 -30 20 -37 32 -10 19 -9 25 10 40 30 24 26 35 -18 52 -21 9 -41 23 -45 32
-3 9 -6 261 -6 559 l0 542 70 33 c81 39 189 115 243 175 59 63 136 181 179
272 60 129 80 217 85 380 8 217 -7 274 -162 614 -31 69 -77 170 -102 225 -25
55 -61 134 -80 175 -50 107 -133 293 -133 299 0 2 9 -4 20 -14 11 -10 49 -22
94 -28 95 -14 142 0 201 60 103 103 97 233 -14 279 -46 19 -111 17 -138 -4
-32 -26 -63 -83 -63 -118 0 -28 4 -32 37 -37 43 -7 53 -3 53 25 0 26 27 71 53
88 18 11 23 10 40 -11 57 -70 -36 -218 -147 -236 -35 -5 -41 -2 -99 53 -33 32
-54 50 -46 39 8 -11 30 -34 49 -52 19 -18 30 -33 23 -33 -16 0 -94 90 -87 101
3 5 -9 31 -27 57 -25 36 -33 58 -34 96 -1 37 -7 53 -20 60 -10 6 -25 18 -34
26 -27 25 -102 227 -123 329 -72 348 83 834 292 917 23 9 37 20 32 23 -6 3 25
6 67 6 67 0 83 -4 118 -27 135 -89 176 -292 83 -411 -39 -50 -95 -78 -149 -76
l-47 2 1 47 c1 57 25 98 66 112 38 13 37 31 -4 46 -51 18 -66 15 -102 -21 -41
-41 -58 -99 -45 -148 15 -55 46 -76 126 -90 98 -16 156 3 218 72 99 110 102
260 7 407 -16 26 -40 53 -53 61 -17 10 -13 3 12 -25 19 -21 26 -32 15 -24 -40
28 -64 53 -59 61 2 5 -18 20 -47 34 l-51 26 41 21 c56 27 143 125 180 200 37
76 61 188 61 281 0 122 -45 273 -106 352 -27 36 -52 39 -34 4 6 -11 15 -17 20
-14 5 3 11 2 14 -3 3 -5 -2 -9 -10 -9 -8 0 -28 19 -44 41 -33 48 -70 84 -124
120 -21 14 -34 26 -28 26 5 0 34 -16 63 -36 32 -21 46 -27 35 -15 -49 54 -215
111 -323 111 l-63 0 0 543 c0 514 -1 545 -18 560 -29 27 -45 20 -87 -35z m345
-1157 c70 -33 167 -131 202 -201 72 -150 80 -374 17 -515 -29 -65 -93 -141
-153 -180 -50 -34 -79 -41 -186 -46 -56 -3 -140 45 -140 79 0 11 13 2 40 -28
l41 -45 -35 47 c-85 117 -78 255 19 350 21 21 46 40 57 44 11 3 15 10 11 17
-4 7 4 5 17 -4 54 -35 63 -113 20 -172 -27 -35 -17 -49 37 -51 35 -1 40 2 61
44 28 53 25 117 -5 159 -26 34 -110 80 -148 80 -62 1 -144 -67 -186 -154 -40
-83 -41 -189 -3 -261 34 -64 77 -109 131 -134 23 -11 43 -22 43 -25 0 -2 -16
-12 -35 -21 -61 -29 -141 -127 -195 -237 -83 -172 -119 -328 -120 -506 0 -57
-4 -91 -9 -85 -5 5 -21 37 -35 71 -29 70 -61 141 -113 253 -41 88 -135 302
-152 345 -60 156 -54 436 14 625 92 254 300 476 518 552 36 12 64 25 62 28 -2
3 36 3 83 1 69 -2 99 -9 142 -30z m-14 -492 c4 -8 1 -8 -14 0 -12 6 -24 16
-28 22 -4 8 -1 8 14 0 12 -6 24 -16 28 -22z m179 -557 c-3 -3 -11 0 -18 7 -9
10 -8 11 6 5 10 -3 15 -9 12 -12z m-52 -549 c-7 -2 -21 -2 -30 0 -10 3 -4 5
12 5 17 0 24 -2 18 -5z m-362 -750 c13 -16 12 -17 -3 -4 -17 13 -22 21 -14 21
2 0 10 -8 17 -17z m450 -50 c13 -17 13 -17 -6 -3 -11 8 -22 16 -24 17 -2 2 0
3 6 3 6 0 17 -8 24 -17z m-241 -698 c29 -66 91 -203 137 -304 104 -227 131
-308 143 -431 44 -415 -191 -820 -547 -946 -83 -29 -220 -33 -267 -9 -16 9
-35 14 -42 11 -12 -5 -107 55 -120 76 -5 7 8 1 27 -13 63 -47 62 -42 -6 25
-136 137 -191 336 -150 551 32 171 156 301 290 306 72 3 109 -14 158 -71 80
-94 83 -218 8 -318 -40 -55 -122 -86 -148 -57 -5 4 -2 4 6 0 11 -7 13 -4 6 11
-5 10 -10 41 -13 68 -3 38 0 54 17 77 29 39 27 46 -21 53 -37 6 -45 4 -60 -16
-36 -47 -37 -154 -2 -201 29 -40 61 -52 135 -52 59 0 72 4 111 31 64 46 110
141 111 227 1 54 -5 76 -32 131 -36 73 -95 130 -153 148 l-37 11 50 23 c154
72 285 326 324 629 2 17 4 64 4 105 1 40 5 70 9 65 5 -6 32 -64 62 -130z
m-540 -121 c0 -2 -9 0 -20 6 -11 6 -20 13 -20 16 0 2 9 0 20 -6 11 -6 20 -13
20 -16z m169 -610 c15 -9 33 -26 41 -38 l13 -21 -24 21 c-13 11 -35 28 -49 37
-32 22 -17 22 19 1z m184 -2140 c-2 -5 -7 -9 -13 -8 -5 1 -17 2 -25 3 -8 0
-15 5 -15 10 0 5 12 8 28 7 15 -2 26 -7 25 -12z"/>
<path d="M21260 23955 c13 -14 26 -25 28 -25 3 0 -5 11 -18 25 -13 14 -26 25
-28 25 -3 0 5 -11 18 -25z"/>
</g>
</svg>
