<?xml version="1.0" standalone="no"?>
<!DOCTYPE svg PUBLIC "-//W3C//DTD SVG 20010904//EN"
 "http://www.w3.org/TR/2001/REC-SVG-20010904/DTD/svg10.dtd">
<svg version="1.0" xmlns="http://www.w3.org/2000/svg"
 width="2550.000000pt" height="2700.000000pt" viewBox="0 0 2550.000000 2700.000000"
 preserveAspectRatio="xMidYMid meet">

<g transform="translate(0.000000,2700.000000) scale(0.100000,-0.100000)"
fill="#65340A" stroke="none">
<path d="M22248 26994 c-3 -3 -4 -193 -1 -422 2 -229 1 -421 -4 -427 -4 -5
-41 -32 -81 -59 -139 -93 -287 -281 -365 -463 -65 -154 -104 -374 -92 -523 12
-140 46 -249 160 -505 254 -571 298 -672 305 -708 l7 -37 -23 25 c-52 56 -172
82 -233 51 -38 -20 -97 -88 -117 -133 -31 -73 -13 -169 34 -188 9 -4 45 -9 78
-11 58 -5 63 -3 92 25 26 26 45 70 47 104 0 5 -16 15 -36 21 l-37 13 -6 -37
c-6 -40 -66 -105 -89 -97 -7 2 -16 20 -21 40 -11 43 3 97 37 147 31 47 103
100 135 100 52 0 202 -189 202 -256 0 -22 7 -38 24 -51 28 -22 108 -204 136
-310 29 -112 43 -246 36 -343 -21 -261 -119 -524 -236 -634 -57 -54 -103 -76
-155 -76 -20 0 -44 -4 -54 -9 -13 -7 -32 -3 -67 13 -45 21 -54 31 -87 97 -62
124 -69 215 -21 310 37 74 130 148 168 133 24 -9 46 -51 46 -88 0 -38 -49
-106 -76 -106 -31 0 -11 -19 27 -25 53 -9 85 8 110 57 42 82 18 135 -80 173
-80 32 -115 29 -177 -11 -198 -130 -147 -495 81 -571 l58 -19 -55 -31 c-145
-82 -228 -257 -228 -478 0 -177 54 -328 156 -435 86 -90 200 -140 320 -140 93
0 84 57 84 -561 0 -605 1 -591 -61 -604 -34 -8 -34 -8 -13 -40 20 -31 11 -61
-27 -80 -35 -19 -39 -45 -6 -45 12 0 58 4 102 9 44 6 120 13 169 17 l90 7 -27
19 c-31 22 -35 53 -11 79 16 17 15 19 -10 29 -15 5 -37 10 -49 10 -12 0 -29 5
-37 10 -12 8 -12 10 5 10 20 0 20 6 17 580 l-2 580 30 18 c16 9 58 33 92 52
74 42 199 161 255 245 87 130 148 279 178 432 22 115 17 353 -10 448 -16 57
-89 236 -154 376 -16 35 -47 105 -69 154 -22 50 -77 173 -122 275 -118 268
-116 262 -62 235 20 -11 60 -16 113 -17 74 0 85 2 122 29 58 40 99 111 105
177 2 29 -1 62 -6 73 -15 27 -107 73 -148 73 -44 0 -97 -52 -111 -109 -12 -45
-12 -46 33 -55 29 -6 31 -5 42 32 12 41 55 92 77 92 24 0 39 -32 38 -81 -1
-94 -96 -200 -179 -201 -43 0 -118 38 -107 55 3 5 2 7 -4 4 -10 -6 -36 18 -62
58 -7 11 0 5 16 -12 16 -18 33 -33 38 -33 5 0 -1 10 -12 23 -39 42 -82 131
-81 166 1 26 -5 40 -25 55 -34 27 -101 180 -134 304 -22 83 -26 119 -27 252
-1 214 37 384 126 566 67 137 182 244 261 244 18 0 38 5 45 12 19 19 85 -7
130 -53 107 -106 129 -272 52 -393 -50 -79 -161 -131 -198 -94 -34 34 3 149
56 173 28 12 28 21 0 28 -13 2 -30 8 -39 11 -11 5 -29 -3 -52 -24 -61 -53 -69
-162 -16 -207 25 -21 145 -35 190 -23 96 26 179 152 179 271 0 36 -7 88 -15
116 -16 54 -68 133 -88 133 -6 0 -23 12 -37 27 -14 14 -44 35 -67 45 -24 10
-43 22 -43 26 0 4 16 16 35 26 58 32 143 129 180 208 105 221 77 527 -62 684
l-35 39 23 -40 c19 -34 12 -30 -45 32 -94 102 -164 134 -303 141 l-103 5 0
396 0 396 -68 3 c-38 1 -71 0 -74 -4z m404 -862 c67 -35 153 -129 189 -205
100 -214 65 -508 -81 -670 -64 -72 -123 -107 -180 -107 -25 0 -51 -5 -58 -12
-9 -9 -18 -9 -39 1 -47 21 -104 63 -114 85 -8 16 -6 15 10 -4 26 -32 26 -24 0
36 -53 118 -2 279 111 357 36 25 56 21 74 -17 22 -47 20 -74 -9 -131 -13 -27
-23 -50 -22 -51 1 -2 20 -4 42 -6 37 -3 41 0 57 32 20 38 23 105 9 143 -12 30
-107 87 -146 87 -65 0 -132 -56 -182 -153 -22 -44 -27 -65 -27 -137 -1 -76 2
-91 29 -139 36 -65 82 -105 141 -121 24 -7 44 -16 44 -20 0 -5 -19 -19 -43
-33 -60 -35 -140 -123 -175 -193 -91 -182 -142 -386 -143 -575 0 -91 -4 -119
-14 -119 -7 0 -16 12 -20 27 -3 15 -19 54 -35 87 -99 214 -235 534 -258 606
-23 77 -26 101 -26 250 0 147 2 176 26 267 82 313 259 551 511 687 130 70 234
79 329 28z m-55 -3195 c34 -78 94 -214 132 -301 129 -291 151 -373 151 -551 0
-376 -206 -739 -505 -888 -91 -45 -142 -58 -227 -58 -109 0 -187 43 -262 144
-79 107 -119 238 -119 387 0 116 16 196 54 276 56 119 166 213 247 212 24 0
46 2 49 5 9 9 55 -18 92 -55 51 -50 81 -121 81 -195 0 -86 -46 -175 -114 -220
-53 -36 -78 -33 -92 9 -13 40 -7 115 12 147 21 36 20 38 -26 43 -31 3 -37 -1
-52 -32 -24 -48 -23 -126 2 -168 25 -40 54 -52 131 -52 82 0 135 36 177 120
39 78 49 150 29 218 -19 64 -68 136 -104 155 -16 8 -41 22 -58 31 -16 9 -36
16 -42 16 -26 0 -12 18 29 36 24 10 68 44 99 74 130 128 239 452 239 714 0 42
3 76 8 76 4 0 35 -64 69 -143z"/>
</g>
</svg>
