<?xml version="1.0" standalone="no"?>
<!DOCTYPE svg PUBLIC "-//W3C//DTD SVG 20010904//EN"
 "http://www.w3.org/TR/2001/REC-SVG-20010904/DTD/svg10.dtd">
<svg version="1.0" xmlns="http://www.w3.org/2000/svg"
 width="2550.000000pt" height="2700.000000pt" viewBox="0 0 2550.000000 2700.000000"
 preserveAspectRatio="xMidYMid meet">

<g transform="translate(0.000000,2700.000000) scale(0.100000,-0.100000)"
fill="#65340A" stroke="none">
<path d="M23446 26993 c-3 -4 55 -132 201 -443 19 -41 59 -127 88 -190 29 -63
76 -164 104 -223 28 -60 48 -113 45 -118 -3 -5 -20 3 -37 17 -124 105 -265 75
-353 -74 -23 -37 -28 -60 -29 -109 0 -82 20 -104 111 -122 61 -13 68 -12 92 6
35 26 60 62 71 100 9 30 7 33 -25 53 -43 25 -44 25 -44 0 0 -36 -39 -99 -70
-115 -35 -18 -47 -13 -61 22 -24 64 55 199 142 243 62 32 79 27 146 -43 78
-81 123 -152 123 -194 0 -23 6 -36 21 -43 26 -14 110 -191 144 -304 78 -255
42 -592 -91 -858 -75 -150 -182 -253 -261 -250 -20 1 -50 -5 -66 -13 -21 -11
-40 -12 -67 -6 -40 9 -117 57 -140 88 -12 15 -12 16 0 6 25 -23 30 -14 9 21
-31 54 -48 152 -37 222 15 97 82 186 166 221 30 12 37 12 58 -2 62 -41 31
-160 -50 -189 -27 -9 -9 -23 40 -31 39 -6 45 -4 77 28 25 25 36 48 41 79 10
65 -4 91 -69 128 -50 29 -63 32 -115 28 -98 -7 -177 -79 -215 -197 -35 -106
-3 -256 74 -343 35 -40 121 -88 158 -88 37 0 27 -16 -31 -48 -91 -52 -174
-167 -210 -292 -43 -153 -40 -280 10 -440 68 -217 255 -349 492 -350 l62 0 0
-272 c1 -636 -1 -879 -6 -893 -3 -8 -24 -20 -45 -26 -44 -14 -45 -15 -24 -35
31 -31 5 -89 -47 -106 -6 -2 -9 -9 -5 -15 4 -7 29 -6 79 2 40 7 119 18 175 25
l101 13 -9 25 c-7 18 -5 31 7 49 8 14 14 26 12 28 -2 2 -30 11 -62 19 -66 18
-81 26 -45 26 l24 0 -3 595 -2 596 31 17 c153 83 296 208 378 330 91 134 164
311 191 462 6 36 12 129 12 207 -1 212 -12 244 -280 813 -128 271 -239 516
-236 519 2 3 21 -5 42 -16 47 -26 148 -37 203 -23 81 22 179 148 179 230 0 34
-25 90 -40 90 -5 0 -26 11 -46 25 -67 45 -144 23 -184 -54 -29 -59 -27 -84 11
-98 38 -15 49 -10 49 20 0 30 33 82 66 103 26 18 27 17 45 -5 39 -48 12 -148
-60 -218 -44 -43 -88 -63 -140 -63 -35 0 -48 8 -101 56 -57 53 -118 127 -92
110 16 -10 15 -1 -3 34 -9 17 -12 40 -9 58 5 25 1 33 -29 56 -26 20 -45 52
-81 136 -70 163 -90 263 -90 445 1 170 24 296 86 462 19 51 33 95 30 98 -3 3
-22 5 -42 5 -35 0 -36 -1 -63 -71 -60 -153 -106 -434 -91 -548 10 -74 -9 -69
-46 12 -40 87 -100 217 -204 437 -73 156 -79 165 -107 166 -16 1 -30 -1 -33
-3z m884 -1913 c310 -667 295 -625 294 -865 0 -152 -3 -180 -27 -267 -94 -346
-317 -609 -606 -716 -50 -18 -87 -25 -152 -25 -78 -1 -92 2 -153 32 -37 18
-91 56 -120 84 -29 29 -41 43 -27 32 l25 -20 -21 30 c-74 108 -105 216 -105
365 0 182 40 302 135 407 68 74 130 113 180 113 21 0 47 5 57 10 15 8 28 5 58
-14 150 -95 174 -290 52 -430 -36 -40 -93 -70 -120 -61 -44 14 -49 120 -8 178
11 15 19 29 17 31 -12 7 -61 26 -70 26 -17 0 -51 -89 -51 -135 0 -50 23 -100
53 -116 12 -6 47 -15 78 -19 44 -6 64 -4 96 9 47 21 100 72 125 121 69 136 41
280 -71 366 -32 25 -72 50 -89 55 -16 6 -30 15 -30 20 0 5 19 18 42 30 132 67
256 280 319 549 18 72 27 193 29 380 0 16 28 -35 90 -170z"/>
<path d="M24150 25682 c6 -13 14 -21 18 -18 3 4 -2 14 -12 24 -18 16 -18 16
-6 -6z"/>
</g>
</svg>
