<?xml version="1.0" standalone="no"?>
<!DOCTYPE svg PUBLIC "-//W3C//DTD SVG 20010904//EN"
 "http://www.w3.org/TR/2001/REC-SVG-20010904/DTD/svg10.dtd">
<svg version="1.0" xmlns="http://www.w3.org/2000/svg"
 width="2550.000000pt" height="2700.000000pt" viewBox="0 0 2550.000000 2700.000000"
 preserveAspectRatio="xMidYMid meet">

<g transform="translate(0.000000,2700.000000) scale(0.100000,-0.100000)"
fill="#65340A" stroke="none">
<path d="M10352 14558 l-62 -64 -3 -444 -2 -444 -50 -18 c-175 -66 -297 -172
-396 -346 -85 -148 -123 -303 -122 -497 1 -210 -5 -192 372 -1063 56 -128 101
-237 101 -243 0 -5 -11 -2 -25 7 -64 42 -205 34 -274 -16 -76 -56 -106 -179
-57 -237 23 -27 90 -53 137 -53 52 0 109 61 109 117 0 26 -3 29 -34 30 -30 1
-35 -3 -40 -29 -7 -38 -43 -88 -62 -88 -27 0 -64 50 -64 87 0 41 24 100 53
131 29 31 90 62 122 62 37 0 107 -69 176 -173 49 -75 57 -94 52 -120 -5 -25
-1 -34 25 -56 35 -29 95 -165 138 -307 36 -120 45 -344 19 -479 -45 -244 -170
-473 -289 -529 -18 -8 -64 -16 -104 -17 -67 -2 -76 1 -125 34 -115 76 -175
238 -135 368 22 76 118 158 185 159 32 0 63 -45 63 -93 0 -47 -33 -103 -68
-114 -21 -8 -20 -9 12 -19 49 -15 89 4 115 55 25 49 26 82 5 127 -21 45 -60
64 -128 64 -93 0 -150 -17 -191 -57 -72 -70 -96 -166 -71 -276 19 -82 36 -116
83 -168 36 -39 137 -99 168 -99 30 0 14 -21 -32 -41 -75 -32 -145 -99 -186
-177 -48 -91 -67 -175 -67 -301 0 -239 106 -433 287 -525 82 -41 131 -54 228
-64 l70 -7 3 -544 c2 -475 0 -547 -13 -568 -9 -12 -20 -23 -25 -23 -5 0 -20
-4 -35 -10 l-25 -10 20 -20 c11 -11 20 -27 20 -35 0 -18 -44 -65 -60 -65 -7 0
-10 -15 -8 -37 l3 -38 72 -16 c66 -16 84 -16 185 -3 62 8 116 14 121 14 4 0 7
18 7 40 0 27 -4 40 -13 40 -18 0 -57 43 -57 62 0 9 8 24 17 34 12 12 14 19 6
21 -7 3 -27 14 -45 27 l-33 22 0 569 0 568 71 36 c216 110 367 293 452 548 41
120 56 241 49 378 -10 182 -10 182 -305 860 -55 127 -114 261 -131 298 -42 93
-41 99 17 71 82 -40 134 -50 184 -33 58 19 106 64 134 124 28 59 30 95 8 141
-24 50 -60 66 -131 58 -77 -9 -91 -18 -115 -71 -22 -50 -18 -58 30 -68 28 -6
32 -4 32 15 0 44 44 100 79 100 17 0 41 -56 41 -95 0 -45 -28 -101 -72 -141
-64 -61 -109 -53 -189 33 -82 88 -149 200 -149 251 0 17 -9 37 -24 51 -27 25
-96 192 -128 308 -29 106 -32 390 -5 500 41 171 110 318 185 396 57 60 105 81
192 83 88 3 109 -6 169 -71 112 -122 135 -317 48 -415 -65 -74 -115 -87 -165
-45 -58 49 -44 143 25 172 45 18 34 32 -20 26 -56 -7 -74 -18 -97 -56 -26 -42
-25 -86 3 -128 19 -28 33 -36 97 -52 63 -17 82 -18 118 -8 55 15 107 62 139
124 57 114 15 305 -89 403 -34 33 -104 74 -125 74 -33 0 -17 21 31 43 115 53
190 166 221 332 38 201 -30 438 -165 576 -96 98 -198 146 -335 157 l-80 7 -2
475 c-2 261 -4 481 -5 488 -2 7 -31 -16 -66 -50z m207 -954 c85 -25 132 -54
201 -123 75 -76 139 -189 164 -292 21 -85 21 -252 0 -332 -22 -84 -48 -132
-107 -195 -66 -69 -92 -82 -167 -82 -76 0 -125 24 -177 85 -106 127 -99 294
16 383 50 38 73 40 101 10 45 -48 46 -140 2 -190 -14 -17 -13 -18 16 -18 18 0
35 -1 40 -2 12 -3 52 85 52 116 0 44 -35 109 -71 130 -24 14 -42 17 -81 12
-143 -19 -220 -106 -221 -246 0 -73 29 -150 78 -208 32 -39 120 -92 152 -92
12 0 25 -4 28 -10 3 -6 -5 -10 -19 -10 -41 0 -134 -50 -180 -96 -114 -114
-216 -414 -216 -636 0 -103 -10 -110 -44 -28 -13 30 -78 180 -144 333 -67 153
-133 313 -147 355 -101 320 -24 679 198 918 109 117 229 189 365 218 88 19 99
19 161 0z m29 -3051 c11 -27 81 -188 155 -359 149 -345 161 -378 178 -513 14
-108 1 -265 -31 -376 -92 -323 -365 -602 -618 -634 -43 -6 -88 -5 -113 0 -171
39 -319 199 -365 397 -23 97 -15 296 15 373 33 87 89 159 158 205 55 37 69 42
135 46 84 6 117 -8 163 -67 52 -69 68 -121 63 -204 -5 -85 -28 -133 -92 -189
-45 -39 -78 -41 -105 -6 -32 41 -36 85 -12 138 27 61 27 61 -14 64 -31 2 -36
-1 -55 -37 -25 -51 -26 -107 0 -148 22 -36 56 -57 122 -73 40 -10 50 -9 84 8
133 68 188 244 120 384 -32 67 -101 133 -157 150 -22 6 -39 14 -39 17 0 3 24
17 52 30 76 35 146 113 201 223 81 161 115 305 119 493 2 69 6 125 9 125 4 0
15 -21 27 -47z"/>
</g>
</svg>
