<?xml version="1.0" standalone="no"?>
<!DOCTYPE svg PUBLIC "-//W3C//DTD SVG 20010904//EN"
 "http://www.w3.org/TR/2001/REC-SVG-20010904/DTD/svg10.dtd">
<svg version="1.0" xmlns="http://www.w3.org/2000/svg"
 width="2550.000000pt" height="2700.000000pt" viewBox="0 0 2550.000000 2700.000000"
 preserveAspectRatio="xMidYMid meet">

<g transform="translate(0.000000,2700.000000) scale(0.100000,-0.100000)"
fill="#65340A" stroke="none">
<path d="M13717 18092 l-57 -58 0 -481 0 -482 -42 -12 c-109 -29 -244 -114
-349 -219 -120 -121 -194 -264 -224 -436 -19 -108 -19 -185 -1 -294 23 -138
23 -139 283 -670 77 -157 164 -332 192 -389 l53 -104 -34 28 c-53 45 -106 65
-173 64 -105 0 -184 -43 -223 -122 -66 -132 34 -256 176 -218 71 19 129 126
88 160 -23 19 -66 -1 -66 -29 0 -31 -28 -67 -56 -74 -32 -8 -60 7 -79 45 -22
41 -6 87 45 133 90 81 181 62 284 -59 72 -84 116 -154 116 -185 0 -18 8 -35
21 -44 24 -16 109 -187 144 -288 36 -104 48 -203 42 -340 -7 -148 -27 -224
-98 -367 -85 -172 -173 -241 -318 -249 -72 -4 -79 -2 -151 34 -55 29 -84 52
-112 89 -117 155 -80 342 77 384 75 20 145 -17 145 -77 0 -37 -17 -58 -60 -76
-42 -17 -50 -35 -25 -56 38 -32 145 30 161 93 16 67 -27 146 -92 167 -19 7
-66 12 -104 12 -57 0 -78 -5 -120 -28 -93 -51 -136 -137 -127 -252 10 -124
103 -257 219 -312 l58 -27 -45 -18 c-103 -39 -188 -135 -227 -258 -27 -80 -29
-244 -5 -334 47 -176 172 -325 341 -404 70 -33 178 -59 245 -59 l44 0 -6 -526
c-3 -289 -7 -527 -9 -529 -2 -1 -18 -10 -36 -19 -18 -10 -32 -20 -30 -24 35
-69 35 -63 0 -92 -67 -55 -29 -126 67 -123 25 0 90 1 144 2 l97 1 0 44 c0 36
-5 47 -25 60 -29 19 -32 51 -9 77 15 16 13 19 -25 43 l-41 26 0 538 0 538 68
23 c441 149 681 632 536 1080 -13 42 -127 285 -253 541 -125 256 -227 467
-225 469 2 3 14 -5 27 -17 37 -35 91 -52 164 -52 84 1 144 28 190 89 64 82 62
163 -4 221 -29 26 -41 30 -94 30 -93 0 -145 -42 -151 -121 -3 -32 -1 -34 31
-34 29 0 35 4 45 34 6 19 23 43 37 54 24 17 28 18 56 3 41 -20 59 -66 44 -105
-16 -36 -68 -87 -104 -100 -37 -14 -97 -13 -123 2 -83 47 -234 242 -234 301 0
12 -8 30 -18 39 -31 28 -131 247 -153 337 -29 114 -32 310 -5 425 38 166 137
345 223 402 67 45 94 53 176 53 171 0 314 -135 325 -306 8 -117 -67 -204 -176
-204 -112 0 -153 131 -49 158 36 9 51 47 23 58 -56 21 -149 -42 -161 -109 -11
-55 24 -120 79 -146 49 -24 136 -28 200 -9 55 16 138 99 154 154 47 159 -46
347 -212 431 l-40 20 47 21 c61 27 157 118 186 176 33 67 61 178 61 243 0 82
-33 204 -81 301 -95 195 -307 330 -523 336 l-61 1 -3 520 c-1 285 -6 523 -10
527 -4 4 -34 -18 -65 -50z m183 -1066 c61 -8 170 -54 237 -102 207 -148 292
-421 203 -657 -42 -112 -160 -199 -274 -203 -137 -5 -253 80 -292 213 -14 48
-14 58 0 106 21 71 90 137 146 137 37 0 79 -29 95 -66 13 -31 13 -39 0 -67 -8
-18 -21 -41 -30 -53 -13 -17 -13 -23 -2 -38 12 -17 17 -17 42 -5 42 21 67 61
73 118 6 65 -29 130 -85 156 -104 50 -251 -17 -303 -137 -28 -66 -24 -160 9
-227 32 -61 105 -136 158 -162 l46 -22 -54 -20 c-107 -40 -228 -196 -289 -372
-32 -92 -53 -248 -48 -346 3 -49 4 -89 1 -89 -3 0 -207 412 -329 667 -65 137
-92 229 -100 348 -25 358 189 681 527 795 35 12 84 24 109 27 25 3 47 7 50 9
2 3 20 2 40 -1 19 -3 51 -7 70 -9z m336 -3455 c36 -74 74 -160 84 -192 102
-300 -9 -666 -261 -865 -89 -71 -139 -98 -249 -135 -82 -28 -109 -32 -195 -32
-116 0 -190 22 -289 88 -264 175 -326 599 -115 789 121 108 280 115 393 16
109 -96 125 -237 37 -328 -70 -72 -152 -77 -186 -11 -21 40 -18 71 10 113 31
46 31 54 0 68 -56 25 -118 -86 -96 -170 36 -131 205 -163 319 -59 60 56 86
114 85 197 0 113 -68 219 -177 276 l-55 28 45 17 c126 48 236 193 304 402 30
90 42 178 42 306 l0 114 120 -244 c66 -134 149 -304 184 -378z m-576 -2375 c0
-2 -7 -7 -16 -10 -8 -3 -12 -2 -9 4 6 10 25 14 25 6z"/>
</g>
</svg>
