<svg id="spindle_dots" data-name="spindle dots" xmlns="http://www.w3.org/2000/svg" width="2644" height="2800" viewBox="0 0 2644 2800">
  <defs>
    <style>
      .cls-11 {
        fill: #46e635;
      }

      .cls-22 {
        fill: #d60d33;
      }
    </style>
  </defs>
  <rect id="Rectangle_35_copy_18" data-name="Rectangle 35 copy 18" class="cls-11" x="449" y="2049" width="6" height="6"/>
  <rect id="Rectangle_35_copy_19" data-name="Rectangle 35 copy 19" class="cls-11" x="511" y="2033" width="6" height="6"/>
  <rect id="Rectangle_35_copy_20" data-name="Rectangle 35 copy 20" class="cls-11" x="676" y="1819" width="6" height="6"/>
  <rect id="Rectangle_35_copy_21" data-name="Rectangle 35 copy 21" class="cls-11" x="735" y="1812" width="6" height="6"/>
  <rect id="Rectangle_35_copy_22" data-name="Rectangle 35 copy 22" class="cls-11" x="792" y="1806" width="6" height="6"/>
  <rect id="Rectangle_35_copy_23" data-name="Rectangle 35 copy 23" class="cls-11" x="842" y="1794" width="6" height="6"/>
  <rect id="Rectangle_35_copy_24" data-name="Rectangle 35 copy 24" class="cls-11" x="895" y="1625" width="6" height="6"/>
  <rect id="Rectangle_35_copy_25" data-name="Rectangle 35 copy 25" class="cls-11" x="943" y="1619" width="6" height="6"/>
  <rect id="Rectangle_35_copy_26" data-name="Rectangle 35 copy 26" class="cls-11" x="992" y="1613" width="6" height="6"/>
  <rect id="Rectangle_35_copy_27" data-name="Rectangle 35 copy 27" class="cls-11" x="1038" y="1607" width="6" height="6"/>
  <rect id="Rectangle_35_copy_4" data-name="Rectangle 35 copy 4" class="cls-11" x="1493" y="2114" width="6" height="6"/>
  <rect id="Rectangle_35_copy_5" data-name="Rectangle 35 copy 5" class="cls-11" x="1545" y="2099" width="6" height="6"/>
  <rect id="Rectangle_35_copy_6" data-name="Rectangle 35 copy 6" class="cls-11" x="1698" y="1294" width="6" height="6"/>
  <rect id="Rectangle_35_copy_7" data-name="Rectangle 35 copy 7" class="cls-11" x="1811" y="1089" width="6" height="6"/>
  <rect id="Rectangle_35_copy_8" data-name="Rectangle 35 copy 8" class="cls-11" x="1927" y="1089" width="6" height="6"/>
  <rect id="Rectangle_35_copy_9" data-name="Rectangle 35 copy 9" class="cls-11" x="2044" y="880" width="6" height="6"/>
  <rect id="Rectangle_35_copy_10" data-name="Rectangle 35 copy 10" class="cls-11" x="2164" y="876" width="6" height="6"/>
  <rect id="Rectangle_35_copy_11" data-name="Rectangle 35 copy 11" class="cls-11" x="2282" y="662" width="6" height="6"/>
  <rect id="Rectangle_35_copy_12" data-name="Rectangle 35 copy 12" class="cls-11" x="2408" y="653" width="6" height="6"/>
  <rect id="Rectangle_35_copy_13" data-name="Rectangle 35 copy 13" class="cls-11" x="2535" y="434" width="6" height="6"/>
  <rect class="cls-22" x="2532" y="437" width="6" height="6"/>
  <rect id="Rectangle_36_copy" data-name="Rectangle 36 copy" class="cls-22" x="1588" y="1288" width="6" height="6"/>
  <rect id="Rectangle_36_copy_2" data-name="Rectangle 36 copy 2" class="cls-22" x="1385" y="2372" width="6" height="6"/>
  <rect id="Rectangle_36_copy_3" data-name="Rectangle 36 copy 3" class="cls-22" x="324" y="2285" width="6" height="6"/>
  <rect id="Rectangle_36_copy_4" data-name="Rectangle 36 copy 4" class="cls-22" x="589" y="1837" width="6" height="6"/>
  <rect id="Rectangle_36_copy_5" data-name="Rectangle 36 copy 5" class="cls-22" x="1086" y="1596" width="6" height="6"/>
</svg>
