<?xml version="1.0" standalone="no"?>
<!DOCTYPE svg PUBLIC "-//W3C//DTD SVG 20010904//EN"
 "http://www.w3.org/TR/2001/REC-SVG-20010904/DTD/svg10.dtd">
<svg version="1.0" xmlns="http://www.w3.org/2000/svg"
 width="2644.000000pt" height="2800.000000pt" viewBox="0 0 2644.000000 2800.000000"
 preserveAspectRatio="xMidYMid meet">

<g transform="translate(0.000000,2800.000000) scale(0.100000,-0.100000)"
fill="#65340A" stroke="none">
<path d="M9410 17105 l0 -154 -62 -3 -63 -3 0 -2335 0 -2335 63 -3 62 -3 0
-155 c0 -85 -4 -163 -10 -173 -5 -10 -22 -24 -39 -30 -29 -13 -29 -13 -13 -43
17 -29 17 -30 -15 -57 -22 -18 -33 -36 -33 -53 0 -25 2 -26 85 -33 47 -4 123
-4 170 0 l85 7 0 34 c0 24 -5 34 -21 39 -32 10 -46 51 -26 73 23 26 22 29 -18
42 -22 7 -37 20 -40 33 -3 12 -4 92 -3 177 l3 155 52 5 c28 3 54 8 57 11 6 6
7 422 6 2846 l0 1782 -57 3 -58 3 -3 163 -2 162 -60 0 -60 0 0 -155z m74 -261
l46 -7 0 -2227 0 -2227 -31 -7 c-17 -3 -44 -6 -60 -6 l-29 0 0 2240 c0 1882 2
2240 14 2240 7 0 34 -3 60 -6z"/>
</g>
</svg>
