<?xml version="1.0" standalone="no"?>
<!DOCTYPE svg PUBLIC "-//W3C//DTD SVG 20010904//EN"
 "http://www.w3.org/TR/2001/REC-SVG-20010904/DTD/svg10.dtd">
<svg version="1.0" xmlns="http://www.w3.org/2000/svg"
 width="2644.000000pt" height="2800.000000pt" viewBox="0 0 2644.000000 2800.000000"
 preserveAspectRatio="xMidYMid meet">

<g transform="translate(0.000000,2800.000000) scale(0.100000,-0.100000)"
fill="#65340A" stroke="none">
<path d="M10363 17174 c-10 -4 -13 -45 -13 -155 l0 -149 -55 0 -55 0 0 -2255
0 -2255 55 0 55 0 0 -165 0 -164 -32 -17 c-44 -22 -44 -21 -24 -43 20 -22 10
-53 -24 -71 -13 -7 -20 -21 -20 -40 l0 -30 83 -2 c98 -3 194 0 225 7 30 7 32
61 2 70 -33 10 -44 42 -26 70 16 24 15 25 -19 39 -21 9 -37 24 -40 38 -3 13
-4 88 -3 168 l3 145 58 9 57 9 0 2232 0 2232 -57 9 -57 9 -1 147 c-1 81 -4
150 -8 154 -8 9 -89 15 -104 8z m105 -2561 l2 -2153 -24 0 c-13 0 -38 -3 -55
-6 l-31 -6 0 2161 0 2162 53 -3 52 -3 3 -2152z"/>
</g>
</svg>
