<?xml version="1.0" standalone="no"?>
<!DOCTYPE svg PUBLIC "-//W3C//DTD SVG 20010904//EN"
 "http://www.w3.org/TR/2001/REC-SVG-20010904/DTD/svg10.dtd">
<svg version="1.0" xmlns="http://www.w3.org/2000/svg"
 width="2644.000000pt" height="2800.000000pt" viewBox="0 0 2644.000000 2800.000000"
 preserveAspectRatio="xMidYMid meet">

<g transform="translate(0.000000,2800.000000) scale(0.100000,-0.100000)"
fill="#65340A" stroke="none">
<path d="M2137 14033 c-4 -3 -7 -290 -7 -636 l0 -630 -115 5 -115 4 2 -2835 3
-2836 40 -2 c22 -2 73 -5 113 -9 l72 -6 0 -823 c0 -679 -2 -826 -14 -837 -7
-8 -31 -22 -54 -32 l-40 -18 26 -23 c24 -20 25 -25 14 -49 -7 -15 -25 -35 -42
-44 -25 -14 -30 -23 -30 -53 0 -44 2 -45 155 -54 96 -6 120 -4 190 15 44 12
86 27 92 32 7 6 13 26 13 44 0 29 -5 36 -35 48 -28 12 -35 21 -35 42 0 15 9
37 20 49 l20 22 -42 12 c-24 7 -49 18 -55 23 -10 8 -13 185 -13 824 l0 814 79
-6 c43 -4 99 -4 125 0 l46 7 0 2738 c0 1506 -3 2786 -7 2844 l-6 107 -119 0
-118 0 0 618 c0 711 9 652 -97 652 -33 0 -63 -3 -66 -7z m250 -1755 c-4 -211
-7 -1438 -7 -2727 l0 -2344 -83 6 c-45 4 -119 7 -164 7 l-83 0 0 2720 0 2720
172 0 171 0 -6 -382z"/>
</g>
</svg>
