<?xml version="1.0" standalone="no"?>
<!DOCTYPE svg PUBLIC "-//W3C//DTD SVG 20010904//EN"
 "http://www.w3.org/TR/2001/REC-SVG-20010904/DTD/svg10.dtd">
<svg version="1.0" xmlns="http://www.w3.org/2000/svg"
 width="2644.000000pt" height="2800.000000pt" viewBox="0 0 2644.000000 2800.000000"
 preserveAspectRatio="xMidYMid meet">

<g transform="translate(0.000000,2800.000000) scale(0.100000,-0.100000)"
fill="#65340A" stroke="none">
<path d="M3010 14021 c-6 -13 -10 -230 -10 -634 l0 -614 -86 -6 c-47 -2 -87
-7 -90 -9 -3 -3 -7 -4382 -4 -5537 l0 -154 90 6 90 6 0 -802 c0 -441 -4 -807
-8 -813 -4 -6 -27 -21 -51 -33 l-43 -22 23 -25 c22 -23 23 -27 8 -52 -8 -15
-27 -33 -42 -40 -22 -11 -27 -20 -27 -51 0 -38 1 -39 43 -45 110 -15 214 -18
257 -6 156 41 150 38 150 81 0 35 -4 40 -34 53 -19 8 -37 24 -41 36 -7 23 17
70 38 71 6 0 -12 9 -42 20 -43 15 -62 17 -90 9 -19 -5 -37 -7 -39 -5 -5 5 43
25 59 25 5 0 9 319 9 824 l0 823 90 19 90 18 0 2814 0 2815 -90 -7 -90 -8 0
631 0 631 -75 0 c-63 0 -76 -3 -85 -19z m175 -4059 l0 -2693 -35 -9 c-67 -18
-140 -32 -150 -28 -7 2 -11 887 -13 2710 l-2 2707 35 4 c19 2 64 4 100 3 l65
-1 0 -2693z"/>
</g>
</svg>
