<?xml version="1.0" standalone="no"?>
<!DOCTYPE svg PUBLIC "-//W3C//DTD SVG 20010904//EN"
 "http://www.w3.org/TR/2001/REC-SVG-20010904/DTD/svg10.dtd">
<svg version="1.0" xmlns="http://www.w3.org/2000/svg"
 width="2644.000000pt" height="2800.000000pt" viewBox="0 0 2644.000000 2800.000000"
 preserveAspectRatio="xMidYMid meet">

<g transform="translate(0.000000,2800.000000) scale(0.100000,-0.100000)"
fill="#65340A" stroke="none">
<path d="M6718 16898 l-3 -613 -72 -3 -73 -3 0 -2570 0 -2571 73 3 72 4 0
-615 0 -614 -33 -22 c-18 -13 -38 -25 -45 -27 -8 -3 -6 -10 6 -25 25 -28 18
-53 -20 -77 -25 -15 -32 -27 -33 -51 0 -27 4 -32 31 -38 52 -10 227 -7 295 6
63 11 64 12 64 44 0 26 -6 36 -27 46 -34 16 -44 67 -18 88 15 12 11 16 -27 34
l-43 21 -3 626 -2 626 70 7 70 7 0 2538 0 2539 -22 6 c-13 3 -44 6 -70 6 l-48
0 0 620 0 620 -70 0 -70 0 -2 -612z m142 -3177 l0 -2448 -46 -7 c-26 -3 -60
-6 -75 -6 l-29 0 0 2455 0 2455 75 0 75 0 0 -2449z"/>
</g>
</svg>
