<?xml version="1.0" standalone="no"?>
<!DOCTYPE svg PUBLIC "-//W3C//DTD SVG 20010904//EN"
 "http://www.w3.org/TR/2001/REC-SVG-20010904/DTD/svg10.dtd">
<svg version="1.0" xmlns="http://www.w3.org/2000/svg"
 width="2644.000000pt" height="2800.000000pt" viewBox="0 0 2644.000000 2800.000000"
 preserveAspectRatio="xMidYMid meet">

<g transform="translate(0.000000,2800.000000) scale(0.100000,-0.100000)"
fill="#65340A" stroke="none">
<path d="M7298 16858 l-3 -603 -72 -3 -73 -3 0 -2520 0 -2520 73 2 72 2 3
-592 c1 -412 -1 -598 -9 -612 -6 -12 -26 -27 -46 -35 -33 -14 -34 -16 -19 -33
9 -10 16 -27 16 -38 0 -21 -29 -53 -48 -53 -7 0 -12 -16 -12 -39 l0 -40 118
-3 c104 -3 150 1 230 18 17 3 22 11 22 37 0 25 -7 36 -30 49 -34 19 -39 51
-14 79 15 17 14 19 -22 34 -21 9 -42 21 -46 28 -4 7 -8 283 -8 614 l0 603 23
4 c12 2 44 8 71 13 l48 8 0 2483 c0 1366 -3 2486 -7 2490 -3 4 -34 9 -68 12
l-62 5 -3 608 -2 607 -65 0 -65 0 -2 -602z m135 -725 c4 -2 7 -1082 7 -2398
l0 -2395 -22 -5 c-13 -2 -45 -6 -73 -7 l-50 -3 -3 2400 c-1 1320 0 2406 3
2413 4 10 20 11 67 6 35 -4 66 -9 71 -11z"/>
</g>
</svg>
