<?xml version="1.0" standalone="no"?>
<!DOCTYPE svg PUBLIC "-//W3C//DTD SVG 20010904//EN"
 "http://www.w3.org/TR/2001/REC-SVG-20010904/DTD/svg10.dtd">
<svg version="1.0" xmlns="http://www.w3.org/2000/svg"
 width="2644.000000pt" height="2800.000000pt" viewBox="0 0 2644.000000 2800.000000"
 preserveAspectRatio="xMidYMid meet">

<g transform="translate(0.000000,2800.000000) scale(0.100000,-0.100000)"
fill="#65340A" stroke="none">
<path d="M7857 17403 c-4 -3 -7 -271 -7 -595 l0 -588 -65 0 -65 0 0 -2470 0
-2470 65 0 65 0 -2 -597 -3 -597 -36 -21 c-34 -19 -36 -21 -22 -42 19 -28 9
-61 -23 -75 -18 -9 -24 -19 -24 -44 l0 -32 77 -7 c76 -8 217 -1 261 11 33 9
31 67 -2 82 -13 6 -27 20 -31 31 -7 23 10 61 28 61 7 1 -8 11 -33 23 l-45 22
-3 601 -2 601 37 7 c21 3 50 6 66 6 l27 0 0 2450 0 2450 -65 0 -65 0 0 594 c0
532 -2 594 -16 600 -21 8 -109 8 -117 -1z m102 -1289 l31 -6 0 -2353 0 -2352
-37 -7 c-21 -3 -53 -6 -70 -6 l-33 0 0 2358 c0 1297 3 2362 7 2365 8 9 61 9
102 1z"/>
</g>
</svg>
