<?xml version="1.0" standalone="no"?>
<!DOCTYPE svg PUBLIC "-//W3C//DTD SVG 20010904//EN"
 "http://www.w3.org/TR/2001/REC-SVG-20010904/DTD/svg10.dtd">
<svg version="1.0" xmlns="http://www.w3.org/2000/svg"
 width="2644.000000pt" height="2800.000000pt" viewBox="0 0 2644.000000 2800.000000"
 preserveAspectRatio="xMidYMid meet">

<g transform="translate(0.000000,2800.000000) scale(0.100000,-0.100000)"
fill="#65340A" stroke="none">
<path d="M21590 27522 l0 -478 -150 -13 -150 -13 0 -2969 0 -2969 27 -6 c14
-4 82 -4 150 -1 l123 7 0 -851 c0 -543 -4 -857 -10 -869 -5 -10 -26 -24 -45
-30 -38 -13 -43 -21 -20 -40 31 -26 9 -100 -31 -100 -8 0 -14 -10 -14 -26 l0
-27 83 6 c45 4 135 7 200 7 64 0 117 3 117 8 0 4 -13 15 -30 24 -40 23 -49 62
-20 93 l22 24 -46 22 c-28 13 -48 30 -51 43 -3 11 -4 404 -3 871 l3 850 100 6
c55 4 123 7 150 8 l50 1 0 2980 c0 2638 -2 2982 -15 2991 -14 10 -117 7 -237
-8 l-53 -6 0 472 0 471 -75 0 -75 0 0 -478z m301 -629 c4 -101 3 -5647 -1
-5653 -5 -8 -312 -30 -412 -30 l-38 0 0 2835 c0 2261 3 2835 13 2836 6 0 91 8
187 18 255 26 250 27 251 -6z"/>
</g>
</svg>
