<?xml version="1.0" standalone="no"?>
<!DOCTYPE svg PUBLIC "-//W3C//DTD SVG 20010904//EN"
 "http://www.w3.org/TR/2001/REC-SVG-20010904/DTD/svg10.dtd">
<svg version="1.0" xmlns="http://www.w3.org/2000/svg"
 width="2644.000000pt" height="2800.000000pt" viewBox="0 0 2644.000000 2800.000000"
 preserveAspectRatio="xMidYMid meet">

<g transform="translate(0.000000,2800.000000) scale(0.100000,-0.100000)"
fill="#65340A" stroke="none">
<path d="M24989 27996 c-8 -8 -2 -3523 6 -3536 6 -10 33 -11 114 -6 58 4 125
9 149 12 l42 6 0 -373 c0 -206 -4 -379 -8 -386 -4 -6 -26 -19 -50 -28 l-43
-18 20 -21 c26 -27 27 -63 4 -89 -18 -19 -17 -19 67 -13 220 17 220 17 220 37
0 10 10 29 21 40 12 12 17 24 13 28 -5 3 -28 18 -52 34 l-42 27 0 384 0 383
73 6 c39 4 111 9 160 13 l87 7 0 1748 0 1749 -75 0 -75 0 0 -1679 0 -1678 -52
-6 c-29 -3 -135 -12 -236 -19 -159 -10 -185 -10 -193 2 -5 9 -8 689 -8 1685 0
919 0 1676 0 1683 -1 8 -22 12 -69 12 -38 0 -71 -2 -73 -4z"/>
</g>
</svg>
