<?xml version="1.0" standalone="no"?>
<!DOCTYPE svg PUBLIC "-//W3C//DTD SVG 20010904//EN"
 "http://www.w3.org/TR/2001/REC-SVG-20010904/DTD/svg10.dtd">
<svg version="1.0" xmlns="http://www.w3.org/2000/svg"
 width="2644.000000pt" height="2800.000000pt" viewBox="0 0 2644.000000 2800.000000"
 preserveAspectRatio="xMidYMid meet">

<g transform="translate(0.000000,2800.000000) scale(0.100000,-0.100000)"
fill="#65340A" stroke="none">
<path d="M14390 13299 c0 -370 -1 -673 -3 -675 -6 -6 -51 -12 -89 -13 l-38 -1
0 -3070 0 -3070 43 -2 c23 -1 52 -1 65 0 l22 1 0 -854 c0 -469 -3 -861 -6
-870 -4 -9 -28 -27 -55 -40 l-48 -25 24 -25 c14 -13 25 -29 25 -35 0 -23 -21
-50 -50 -65 -26 -14 -30 -21 -30 -59 l0 -43 63 -6 c221 -22 248 -21 314 10
l63 28 0 45 c-1 40 -5 47 -33 65 -39 25 -47 63 -17 90 28 25 26 30 -19 43 -21
7 -44 18 -50 26 -8 9 -10 254 -9 897 l3 884 60 21 60 21 2 2259 c1 1243 -1
2607 -4 3032 l-6 773 -61 -3 -61 -3 0 668 0 667 -82 0 -83 0 0 -671z m130
-3704 l0 -2905 -25 -10 c-14 -5 -36 -12 -49 -16 l-23 -5 -2 2915 -1 2915 22 4
c13 2 35 5 51 6 l27 1 0 -2905z"/>
</g>
</svg>
