<?xml version="1.0" standalone="no"?>
<!DOCTYPE svg PUBLIC "-//W3C//DTD SVG 20010904//EN"
 "http://www.w3.org/TR/2001/REC-SVG-20010904/DTD/svg10.dtd">
<svg version="1.0" xmlns="http://www.w3.org/2000/svg"
 width="2644.000000pt" height="2800.000000pt" viewBox="0 0 2644.000000 2800.000000"
 preserveAspectRatio="xMidYMid meet">

<g transform="translate(0.000000,2800.000000) scale(0.100000,-0.100000)"
fill="#65340A" stroke="none">
<path d="M14990 14544 l-75 -149 -3 -322 -3 -323 -64 0 -65 0 0 -2999 0 -2998
38 -7 c20 -3 49 -6 65 -6 l27 0 0 -344 c0 -189 -3 -352 -6 -361 -4 -9 -25 -25
-48 -37 -22 -11 -43 -22 -44 -23 -2 -2 6 -16 18 -32 18 -25 19 -33 9 -56 -6
-14 -25 -31 -40 -38 -26 -10 -29 -16 -29 -55 0 -35 4 -44 18 -45 9 0 24 -2 32
-3 8 -2 68 -6 134 -10 108 -7 124 -5 182 15 l64 23 0 48 c0 36 -4 48 -15 48
-22 0 -55 37 -55 60 0 11 9 29 20 40 11 11 20 22 20 24 0 3 -17 10 -37 17 -21
6 -44 16 -50 22 -10 7 -13 97 -13 388 l0 379 60 17 60 18 0 2963 0 2964 -60
-4 -60 -3 -2 469 -3 469 -75 -149z m42 -2576 c2 -915 2 -2194 0 -2844 l-2
-1181 -39 -11 c-21 -7 -41 -12 -45 -12 -8 0 -8 5695 1 5703 3 4 24 7 45 7 l38
0 2 -1662z"/>
</g>
</svg>
