<?xml version="1.0" standalone="no"?>
<!DOCTYPE svg PUBLIC "-//W3C//DTD SVG 20010904//EN"
 "http://www.w3.org/TR/2001/REC-SVG-20010904/DTD/svg10.dtd">
<svg version="1.0" xmlns="http://www.w3.org/2000/svg"
 width="2644.000000pt" height="2800.000000pt" viewBox="0 0 2644.000000 2800.000000"
 preserveAspectRatio="xMidYMid meet">

<g transform="translate(0.000000,2800.000000) scale(0.100000,-0.100000)"
fill="#65340A" stroke="none">
<path d="M17008 23844 l-58 -53 0 -569 0 -569 -46 -7 c-26 -3 -72 -6 -103 -6
-31 0 -73 -3 -93 -6 l-38 -7 0 -2863 0 -2864 140 0 140 0 0 -829 c0 -907 4
-844 -59 -871 -35 -14 -38 -22 -16 -40 29 -24 16 -74 -25 -95 -24 -12 -28 -20
-27 -52 l2 -38 180 0 c231 -1 225 -2 225 45 0 30 -5 40 -20 45 -34 11 -55 51
-42 80 7 14 16 25 22 25 22 0 8 17 -24 28 -71 26 -66 -44 -64 878 l3 829 123
3 122 3 0 35 c0 22 6 37 15 40 13 5 15 330 15 2840 l0 2834 -26 6 c-14 4 -77
3 -141 0 l-114 -8 1 599 c1 329 1 603 1 610 -1 7 -9 17 -18 22 -14 7 -30 -2
-75 -45z m222 -4064 l0 -2750 -22 0 c-13 0 -105 -3 -206 -7 l-182 -6 2 2744 3
2744 145 11 c80 6 171 12 203 13 l57 1 0 -2750z"/>
</g>
</svg>
