<?xml version="1.0" standalone="no"?>
<!DOCTYPE svg PUBLIC "-//W3C//DTD SVG 20010904//EN"
 "http://www.w3.org/TR/2001/REC-SVG-20010904/DTD/svg10.dtd">
<svg version="1.0" xmlns="http://www.w3.org/2000/svg"
 width="2550.000000pt" height="2700.000000pt" viewBox="0 0 2550.000000 2700.000000"
 preserveAspectRatio="xMidYMid meet">

<g transform="translate(0.000000,2700.000000) scale(0.100000,-0.100000)"
fill="#65340A" stroke="none">
<path d="M9275 16258 c-3 -7 -6 -533 -8 -1168 -3 -1037 -5 -1168 -21 -1280
-26 -186 -26 -243 2 -272 32 -35 29 -65 -8 -73 -33 -7 -37 -16 -15 -35 31 -25
18 -58 -35 -91 -45 -28 -66 -59 -40 -59 6 0 28 -11 50 -25 44 -28 51 -56 23
-87 -15 -17 -15 -20 -3 -28 8 -6 23 -10 33 -10 25 0 22 -39 -5 -68 -28 -29
-28 -86 -2 -272 16 -113 18 -247 21 -1412 l4 -1287 -33 -17 c-43 -22 -43 -21
-29 -38 18 -22 9 -60 -16 -71 -17 -7 -23 -18 -23 -41 l0 -32 113 -6 c61 -3
135 -7 162 -8 l50 -2 3 38 c3 33 -1 42 -29 65 -25 21 -30 32 -25 49 4 12 12
22 17 22 22 0 6 17 -26 29 -22 8 -37 21 -41 35 -3 12 -3 576 -1 1252 4 1062 7
1247 21 1364 9 74 19 176 22 225 6 88 6 91 -20 114 -35 33 -33 48 10 66 l35
14 -23 32 -23 31 30 24 c17 14 35 29 42 34 7 6 17 10 22 10 5 0 13 5 17 11 7
12 -43 58 -63 59 -7 0 -20 11 -28 24 -14 20 -14 28 -3 45 7 12 16 21 20 21 21
0 4 18 -24 26 -42 12 -47 38 -14 69 31 29 33 67 11 248 -30 247 -35 466 -35
1470 l0 1017 -55 0 c-36 0 -57 -5 -60 -12z"/>
</g>
</svg>
