<?xml version="1.0" standalone="no"?>
<!DOCTYPE svg PUBLIC "-//W3C//DTD SVG 20010904//EN"
 "http://www.w3.org/TR/2001/REC-SVG-20010904/DTD/svg10.dtd">
<svg version="1.0" xmlns="http://www.w3.org/2000/svg"
 width="2550.000000pt" height="2700.000000pt" viewBox="0 0 2550.000000 2700.000000"
 preserveAspectRatio="xMidYMid meet">

<g transform="translate(0.000000,2700.000000) scale(0.100000,-0.100000)"
fill="#65340A" stroke="none">
<path d="M9787 16224 c-4 -4 -7 -495 -7 -1093 0 -1074 -3 -1184 -35 -1419 -13
-90 -13 -108 0 -138 8 -19 19 -34 24 -34 6 0 11 -13 11 -29 0 -24 -5 -29 -31
-35 -29 -6 -30 -7 -15 -28 25 -35 20 -67 -11 -81 -16 -6 -34 -17 -41 -24 -7
-7 -18 -13 -23 -13 -18 0 -9 -29 11 -35 11 -3 20 -11 20 -16 0 -5 8 -9 18 -9
41 0 57 -54 25 -85 -14 -14 -14 -18 -2 -26 8 -5 22 -9 32 -9 19 0 24 -44 6
-56 -6 -3 -17 -21 -25 -39 -11 -28 -10 -53 8 -186 21 -150 22 -191 25 -1431
l4 -1277 -33 -17 c-43 -22 -43 -21 -28 -39 17 -20 5 -62 -20 -70 -27 -9 -29
-75 -2 -75 9 -1 62 -5 117 -9 61 -5 111 -4 128 1 19 7 32 7 41 -1 10 -9 15 -8
20 5 11 30 7 84 -7 84 -17 0 -47 32 -47 50 0 7 7 21 15 30 13 15 11 17 -20 29
-22 8 -37 21 -41 35 -3 12 -3 573 -1 1246 4 1179 5 1231 25 1390 28 217 28
235 -3 266 -29 29 -33 64 -7 64 37 0 44 15 25 48 -17 29 -17 31 1 51 11 12 24
21 30 21 6 1 23 11 39 23 l27 23 -24 21 c-13 12 -34 24 -46 28 -11 4 -26 18
-32 31 -10 20 -8 28 12 49 l22 24 -33 9 c-44 11 -48 34 -13 74 25 31 26 36 20
108 -3 41 -13 129 -23 195 -14 104 -17 266 -20 1248 l-4 1127 -53 0 c-29 0
-56 -3 -59 -6z"/>
</g>
</svg>
