<?xml version="1.0" standalone="no"?>
<!DOCTYPE svg PUBLIC "-//W3C//DTD SVG 20010904//EN"
 "http://www.w3.org/TR/2001/REC-SVG-20010904/DTD/svg10.dtd">
<svg version="1.0" xmlns="http://www.w3.org/2000/svg"
 width="2550.000000pt" height="2700.000000pt" viewBox="0 0 2550.000000 2700.000000"
 preserveAspectRatio="xMidYMid meet">

<g transform="translate(0.000000,2700.000000) scale(0.100000,-0.100000)"
fill="#65340A" stroke="none">
<path d="M1849 13608 c-1 -2 -2 -565 -4 -1253 -3 -1354 -3 -1358 -60 -1683
-14 -78 -25 -158 -25 -177 0 -36 41 -95 66 -95 8 0 17 -6 20 -14 10 -25 -14
-53 -51 -60 -38 -8 -43 -17 -19 -36 44 -38 36 -81 -19 -105 -18 -8 -45 -25
-62 -38 -25 -21 -28 -27 -16 -41 7 -9 20 -16 27 -16 8 0 14 -4 14 -9 0 -5 14
-12 30 -16 59 -13 72 -66 26 -105 -25 -20 -19 -28 23 -35 31 -5 40 -11 44 -31
3 -20 -2 -28 -24 -39 -64 -34 -70 -69 -38 -240 11 -60 29 -186 40 -280 19
-162 20 -252 25 -1972 4 -1210 2 -1808 -5 -1820 -5 -11 -28 -28 -50 -37 l-40
-18 21 -28 c24 -33 14 -61 -32 -85 -25 -13 -30 -22 -30 -50 0 -31 3 -35 28
-36 15 0 65 -4 112 -9 75 -7 97 -5 188 17 l102 25 0 35 c0 23 -5 36 -17 40
-51 18 -67 61 -37 94 16 17 15 19 -10 29 -15 5 -31 10 -35 10 -4 0 -16 8 -25
19 -16 17 -17 132 -12 1812 3 1113 9 1832 16 1894 13 130 38 302 56 388 27
129 12 193 -51 217 -37 14 -26 52 21 69 51 19 51 18 26 44 -29 30 -28 71 0 91
12 9 28 16 35 16 6 0 27 14 45 31 32 29 33 30 13 44 -11 8 -25 19 -32 25 -7 5
-19 10 -28 10 -9 0 -27 11 -40 24 -27 27 -25 54 6 82 27 25 24 31 -20 39 -31
5 -40 11 -44 31 -3 20 2 28 24 40 68 35 70 61 26 324 -47 279 -49 328 -53
1610 -2 668 -4 1227 -4 1243 l0 27 -75 0 c-41 0 -75 -1 -76 -2z"/>
</g>
</svg>
