<?xml version="1.0" standalone="no"?>
<!DOCTYPE svg PUBLIC "-//W3C//DTD SVG 20010904//EN"
 "http://www.w3.org/TR/2001/REC-SVG-20010904/DTD/svg10.dtd">
<svg version="1.0" xmlns="http://www.w3.org/2000/svg"
 width="2550.000000pt" height="2700.000000pt" viewBox="0 0 2550.000000 2700.000000"
 preserveAspectRatio="xMidYMid meet">

<g transform="translate(0.000000,2700.000000) scale(0.100000,-0.100000)"
fill="#65340A" stroke="none">
<path d="M7051 16421 c-6 -4 -11 -424 -14 -1216 -4 -1173 -5 -1215 -26 -1375
-12 -91 -24 -200 -28 -242 l-6 -77 33 -29 c39 -36 37 -63 -8 -74 -35 -9 -40
-19 -17 -38 8 -7 15 -22 15 -35 0 -21 -28 -55 -46 -55 -5 0 -22 -11 -39 -25
l-30 -24 30 -25 c17 -14 35 -25 41 -26 17 0 44 -35 44 -57 0 -11 -9 -28 -21
-39 l-21 -19 38 -11 c48 -13 55 -38 20 -71 -14 -13 -29 -36 -33 -51 -3 -14 4
-106 16 -204 39 -318 42 -454 39 -1723 l-3 -1220 -42 -23 c-38 -21 -41 -25
-28 -38 23 -24 18 -51 -15 -76 -22 -16 -30 -30 -30 -54 l0 -32 96 -7 c102 -7
255 2 265 16 10 17 -3 79 -17 79 -7 0 -21 11 -30 25 -15 23 -15 27 0 50 21 32
21 32 -13 40 -16 3 -35 12 -41 20 -15 18 -7 2705 8 2815 46 321 45 313 29 353
-9 20 -23 37 -31 37 -11 0 -16 9 -16 29 0 25 5 30 35 35 19 4 35 9 35 12 0 3
-9 18 -21 33 -17 24 -19 32 -9 50 6 12 21 26 33 31 30 13 61 33 69 45 8 10
-39 55 -58 55 -6 0 -21 11 -34 25 -20 21 -22 28 -12 50 6 14 16 25 22 25 24 0
7 20 -22 28 -43 11 -49 44 -14 77 35 32 40 64 27 150 -44 272 -44 266 -48
1553 l-4 1232 -24 2 c-69 5 -84 4 -94 -1z"/>
</g>
</svg>
