<?xml version="1.0" standalone="no"?>
<!DOCTYPE svg PUBLIC "-//W3C//DTD SVG 20010904//EN"
 "http://www.w3.org/TR/2001/REC-SVG-20010904/DTD/svg10.dtd">
<svg version="1.0" xmlns="http://www.w3.org/2000/svg"
 width="2550.000000pt" height="2700.000000pt" viewBox="0 0 2550.000000 2700.000000"
 preserveAspectRatio="xMidYMid meet">

<g transform="translate(0.000000,2700.000000) scale(0.100000,-0.100000)"
fill="#65340A" stroke="none">
<path d="M23273 26352 l-52 -48 -4 -1319 c-3 -1296 -4 -1323 -25 -1473 -12
-84 -38 -229 -58 -321 -35 -163 -36 -170 -19 -204 10 -23 32 -43 61 -58 55
-30 57 -52 4 -68 -22 -6 -40 -14 -40 -17 0 -3 9 -17 20 -31 41 -53 20 -88 -77
-132 -44 -20 -27 -50 70 -122 32 -24 35 -58 7 -84 -28 -25 -26 -31 20 -57 53
-31 53 -57 -2 -83 -29 -14 -48 -33 -62 -59 -19 -39 -19 -39 2 -130 35 -148 60
-282 79 -436 17 -134 18 -254 18 -1580 l0 -1435 -48 -26 c-47 -25 -47 -26 -27
-44 36 -32 20 -80 -33 -98 -10 -4 -17 -14 -15 -24 3 -15 17 -16 118 -15 63 1
150 5 193 9 l78 6 -30 18 c-16 10 -32 27 -36 38 -7 22 9 61 25 61 23 0 7 18
-30 35 -24 11 -43 27 -46 39 -2 12 -3 680 -1 1486 3 1619 0 1525 69 1850 44
207 45 230 14 267 -14 17 -39 36 -56 43 -21 9 -30 19 -30 36 0 14 6 24 14 24
8 0 27 5 41 10 l27 10 -26 31 c-14 17 -26 37 -26 45 0 20 45 64 65 64 8 0 15
4 15 9 0 5 9 12 19 16 33 10 31 33 -6 70 -19 19 -38 35 -42 35 -13 0 -51 41
-51 55 0 7 11 27 25 43 l25 30 -40 26 c-51 33 -53 60 -5 80 39 17 75 68 75
108 0 14 -11 73 -24 130 -33 141 -52 258 -71 418 -13 115 -15 336 -15 1466 0
1315 -1 1356 -29 1354 -4 -1 -29 -22 -58 -48z"/>
</g>
</svg>
