<?xml version="1.0" standalone="no"?>
<!DOCTYPE svg PUBLIC "-//W3C//DTD SVG 20010904//EN"
 "http://www.w3.org/TR/2001/REC-SVG-20010904/DTD/svg10.dtd">
<svg version="1.0" xmlns="http://www.w3.org/2000/svg"
 width="2550.000000pt" height="2700.000000pt" viewBox="0 0 2550.000000 2700.000000"
 preserveAspectRatio="xMidYMid meet">

<g transform="translate(0.000000,2700.000000) scale(0.100000,-0.100000)"
fill="#65340A" stroke="none">
<path d="M13685 14092 l-70 -117 -2 -770 c-3 -1233 -8 -1482 -32 -1700 -27
-250 -27 -276 3 -312 13 -16 26 -39 27 -52 3 -21 -2 -26 -38 -38 -45 -15 -53
-26 -29 -40 7 -4 19 -18 25 -31 10 -19 10 -28 -3 -47 -9 -13 -24 -26 -35 -30
-28 -8 -81 -57 -81 -72 0 -8 11 -19 25 -25 14 -6 25 -15 25 -20 0 -4 6 -8 14
-8 7 0 25 -10 40 -21 31 -25 29 -58 -5 -95 l-20 -22 43 -14 c50 -17 56 -38 21
-81 -35 -44 -37 -87 -15 -322 12 -121 24 -256 28 -300 12 -139 12 -2908 0
-2928 -6 -10 -28 -28 -49 -39 -36 -18 -38 -21 -23 -37 28 -31 20 -69 -20 -93
-31 -18 -35 -25 -32 -57 l3 -36 135 -9 c122 -8 141 -6 200 12 l65 20 3 41 c2
30 -1 41 -11 41 -7 0 -24 11 -37 25 -20 22 -22 27 -10 55 7 16 17 30 22 30 20
0 -4 19 -31 25 -16 3 -36 14 -46 25 -15 17 -16 127 -12 1496 4 1547 4 1527 48
1882 13 106 3 164 -32 182 -32 17 -20 62 19 72 42 11 47 23 23 54 -12 15 -21
35 -21 45 0 17 43 59 61 59 4 0 23 14 41 31 l33 30 -30 25 c-16 14 -44 31 -62
39 -43 19 -52 54 -23 95 12 17 21 33 19 35 -2 2 -20 7 -39 12 -45 12 -51 42
-16 84 38 44 41 70 27 204 -41 392 -41 408 -42 1610 -1 644 -4 1178 -7 1187
-5 12 -26 -15 -77 -100z"/>
</g>
</svg>
