<?xml version="1.0" standalone="no"?>
<!DOCTYPE svg PUBLIC "-//W3C//DTD SVG 20010904//EN"
 "http://www.w3.org/TR/2001/REC-SVG-20010904/DTD/svg10.dtd">
<svg version="1.0" xmlns="http://www.w3.org/2000/svg"
 width="2550.000000pt" height="2700.000000pt" viewBox="0 0 2550.000000 2700.000000"
 preserveAspectRatio="xMidYMid meet">

<g transform="translate(0.000000,2700.000000) scale(0.100000,-0.100000)"
fill="#65340A" stroke="none">
<path d="M15728 19126 l-47 -43 -4 -1249 c-4 -1345 -2 -1294 -57 -1589 -47
-249 -45 -231 -28 -269 12 -23 28 -38 52 -47 29 -11 36 -18 36 -40 0 -21 -6
-28 -27 -32 -50 -11 -58 -22 -34 -46 29 -29 27 -65 -6 -90 -16 -12 -33 -25
-40 -31 -7 -5 -16 -10 -21 -10 -5 0 -15 -7 -22 -16 -11 -13 -9 -19 17 -42 17
-15 43 -34 59 -42 38 -20 44 -63 13 -96 l-22 -23 24 -10 c13 -5 32 -12 42 -15
10 -3 17 -15 17 -31 0 -19 -8 -28 -34 -39 -36 -15 -66 -59 -66 -95 0 -12 13
-87 30 -168 68 -342 64 -207 68 -2228 1 -1006 0 -1840 -3 -1852 -3 -13 -22
-31 -46 -44 -38 -19 -40 -22 -25 -38 25 -27 19 -58 -14 -83 -24 -17 -30 -29
-30 -59 l0 -37 131 -4 c75 -2 156 1 188 7 55 11 56 12 59 47 3 29 -1 38 -18
43 -11 4 -27 17 -36 30 -12 18 -12 27 -3 49 7 14 17 26 23 26 6 1 -7 10 -29
22 -22 11 -43 26 -47 32 -13 18 -10 3550 3 3689 9 104 40 305 82 528 9 50 8
60 -9 90 -12 21 -32 38 -52 44 -26 7 -32 14 -32 37 0 19 6 31 18 34 9 3 27 10
40 15 l22 9 -20 20 c-31 31 -24 80 15 100 29 15 38 21 71 49 14 12 13 16 -14
40 -16 14 -42 33 -57 41 -43 23 -49 54 -19 90 l26 30 -24 9 c-13 5 -31 12 -40
15 -26 8 -25 66 1 66 25 0 69 42 77 75 7 29 6 33 -31 215 -61 298 -59 250 -65
1660 -5 1286 -5 1295 -25 1297 -12 2 -39 -15 -67 -41z"/>
</g>
</svg>
