<?xml version="1.0" standalone="no"?>
<!DOCTYPE svg PUBLIC "-//W3C//DTD SVG 20010904//EN"
 "http://www.w3.org/TR/2001/REC-SVG-20010904/DTD/svg10.dtd">
<svg version="1.0" xmlns="http://www.w3.org/2000/svg"
 width="2550.000000pt" height="2700.000000pt" viewBox="0 0 2550.000000 2700.000000"
 preserveAspectRatio="xMidYMid meet">

<g transform="translate(0.000000,2700.000000) scale(0.100000,-0.100000)"
fill="#65340A" stroke="none">
<path d="M17790 21104 l-49 -46 -4 -1282 -3 -1281 -27 -173 c-15 -95 -36 -211
-47 -258 -27 -116 -26 -155 5 -193 14 -16 36 -31 48 -33 29 -4 37 -55 10 -64
-10 -3 -29 -10 -42 -15 l-24 -10 22 -23 c32 -33 25 -76 -14 -96 -16 -8 -34
-21 -38 -27 -4 -7 -14 -13 -21 -13 -8 0 -17 -7 -20 -16 -7 -19 10 -44 29 -44
7 0 15 -7 19 -15 3 -8 12 -15 20 -15 21 0 56 -48 49 -68 -3 -9 -15 -27 -26
-39 l-20 -23 41 -17 c33 -15 42 -23 42 -43 0 -21 -7 -29 -35 -39 -39 -14 -65
-53 -65 -97 0 -15 13 -93 30 -173 69 -341 64 -189 68 -2256 1 -1028 0 -1879
-2 -1891 -3 -12 -22 -28 -46 -39 -44 -20 -47 -26 -25 -45 16 -13 20 -48 7 -66
-4 -6 -17 -16 -29 -23 -18 -9 -23 -20 -23 -51 l0 -40 58 -1 c31 -1 82 -3 112
-4 30 -2 90 1 133 7 l77 12 0 38 c0 25 -5 38 -13 38 -20 0 -47 33 -47 58 0 11
7 27 15 36 21 20 20 21 -25 41 -24 11 -43 27 -46 39 -2 12 -3 860 -1 1886 l3
1865 22 149 c13 83 36 210 51 284 16 74 26 144 23 156 -10 38 -33 65 -68 76
-28 10 -34 16 -34 41 0 18 5 29 14 29 8 0 27 5 41 10 l26 10 -20 26 c-12 15
-21 37 -21 49 0 21 27 55 46 55 5 0 25 14 44 30 l35 29 -31 28 c-17 15 -44 35
-60 43 -39 21 -44 63 -13 97 26 27 19 38 -33 50 -22 4 -28 11 -28 32 0 20 9
30 39 44 40 18 64 56 63 100 0 12 -14 90 -31 172 -67 329 -64 257 -68 1705 -4
1323 -4 1329 -36 1330 -4 0 -30 -21 -57 -46z"/>
</g>
</svg>
