<?xml version="1.0" standalone="no"?>
<!DOCTYPE svg PUBLIC "-//W3C//DTD SVG 20010904//EN"
 "http://www.w3.org/TR/2001/REC-SVG-20010904/DTD/svg10.dtd">
<svg version="1.0" xmlns="http://www.w3.org/2000/svg"
 width="2550.000000pt" height="2700.000000pt" viewBox="0 0 2550.000000 2700.000000"
 preserveAspectRatio="xMidYMid meet">

<g transform="translate(0.000000,2700.000000) scale(0.100000,-0.100000)"
fill="#C5C3C1" stroke="none">
<path d="M10279 16196 c-2 -3 -4 -151 -3 -330 l1 -326 -43 0 -44 0 2 -1172 3
-1173 41 -3 40 -3 1 -89 2 -90 -45 0 -44 0 0 -1035 0 -1035 28 0 c54 0 52 9
52 -351 0 -184 0 -340 0 -347 0 -7 -16 -20 -35 -29 -33 -16 -46 -33 -26 -33
15 0 22 -30 11 -50 -5 -10 -19 -22 -30 -25 -14 -4 -20 -15 -20 -35 l0 -28 86
-7 c79 -7 186 -1 220 12 23 9 17 53 -11 75 -27 21 -32 47 -12 67 7 8 8 15 2
17 -5 3 -21 10 -35 17 l-25 13 -3 362 -2 362 34 0 c18 0 38 6 44 13 8 10 12
306 12 1020 l0 1007 -39 0 c-47 0 -51 8 -51 95 0 87 4 95 51 95 l39 0 0 1170
0 1170 -45 0 c-25 0 -44 3 -44 8 1 4 1 154 0 335 l-1 327 -53 0 c-30 0 -56 -2
-58 -4z m101 -1832 l0 -1085 -47 3 -48 3 -3 1070 c-1 589 0 1076 3 1083 2 7
23 12 50 12 l45 0 0 -1086z m0 -2378 c0 -514 -3 -937 -7 -939 -5 -3 -26 -7
-48 -8 l-40 -4 -3 910 c-1 501 0 925 3 943 6 30 8 32 50 32 l45 0 0 -934z"/>
</g>
</svg>
