<?xml version="1.0" standalone="no"?>
<!DOCTYPE svg PUBLIC "-//W3C//DTD SVG 20010904//EN"
 "http://www.w3.org/TR/2001/REC-SVG-20010904/DTD/svg10.dtd">
<svg version="1.0" xmlns="http://www.w3.org/2000/svg"
 width="2550.000000pt" height="2700.000000pt" viewBox="0 0 2550.000000 2700.000000"
 preserveAspectRatio="xMidYMid meet">

<g transform="translate(0.000000,2700.000000) scale(0.100000,-0.100000)"
fill="#C5C3C1" stroke="none">
<path d="M4152 14506 l-32 -44 0 -530 c0 -596 8 -542 -81 -542 l-49 0 0 -1295
0 -1295 65 0 65 0 0 -99 c0 -112 1 -111 -81 -111 l-49 0 0 -1169 0 -1168 29
-6 c16 -3 45 -3 65 0 l36 6 0 -311 c0 -339 2 -326 -59 -352 -30 -12 -42 -30
-21 -30 15 0 23 -46 11 -68 -6 -12 -20 -23 -30 -27 -21 -6 -39 -62 -25 -75 5
-4 59 -10 119 -13 82 -5 131 -2 195 11 l85 17 3 38 c2 26 -1 37 -11 37 -18 0
-57 37 -57 55 0 8 9 24 20 35 l20 20 -25 10 c-15 6 -30 10 -35 10 -5 0 -16 7
-24 16 -14 13 -16 58 -16 339 l0 323 65 13 65 13 0 1143 0 1143 -65 0 -65 0 0
100 0 100 53 2 c28 0 58 1 65 1 9 -1 12 265 12 1298 l0 1299 -65 0 -65 0 0
575 0 575 -43 0 c-40 0 -46 -4 -75 -44z m128 -2406 l0 -1200 -85 0 -85 0 0
1193 c0 657 3 1197 7 1200 3 4 42 7 85 7 l78 0 0 -1200z m0 -2644 c0 -658 -4
-1047 -10 -1051 -16 -10 -150 -42 -155 -37 -8 8 -6 2118 2 2125 3 4 42 7 85 7
l78 0 0 -1044z"/>
</g>
</svg>
