<?xml version="1.0" standalone="no"?>
<!DOCTYPE svg PUBLIC "-//W3C//DTD SVG 20010904//EN"
 "http://www.w3.org/TR/2001/REC-SVG-20010904/DTD/svg10.dtd">
<svg version="1.0" xmlns="http://www.w3.org/2000/svg"
 width="2550.000000pt" height="2700.000000pt" viewBox="0 0 2550.000000 2700.000000"
 preserveAspectRatio="xMidYMid meet">

<g transform="translate(0.000000,2700.000000) scale(0.100000,-0.100000)"
fill="#C5C3C1" stroke="none">
<path d="M4851 15368 l-31 -42 0 -543 0 -543 -60 0 -60 0 0 -1275 0 -1275 60
0 60 0 0 -95 0 -95 -60 0 -60 0 0 -1156 0 -1157 60 6 60 5 0 -41 c3 -324 -2
-1390 -6 -1401 -3 -7 -23 -22 -45 -31 -36 -17 -38 -20 -24 -35 24 -26 18 -57
-15 -82 -22 -16 -30 -30 -30 -53 l0 -32 93 -8 c123 -10 130 -10 220 10 l77 18
0 34 c0 26 -5 35 -24 43 -14 5 -29 17 -34 27 -11 20 1 63 18 63 24 0 7 17 -32
30 l-43 15 -5 737 -5 737 35 6 c19 3 47 8 63 11 l27 6 0 1123 0 1124 -62 3
-62 3 1 33 c1 17 2 61 2 97 l1 65 60 0 60 0 0 1270 0 1269 -61 3 -62 3 -1 582
-1 583 -42 0 c-37 0 -44 -4 -72 -42z m119 -2402 l0 -1174 -76 -4 c-42 -2 -78
-1 -80 1 -7 7 -4 2337 3 2344 3 4 39 7 80 7 l73 0 0 -1174z m-2 -2598 l-3
-1033 -63 -13 c-34 -8 -69 -11 -77 -8 -13 5 -15 140 -15 1039 0 569 3 1037 7
1040 3 4 39 7 80 7 l73 0 -2 -1032z"/>
</g>
</svg>
