<?xml version="1.0" standalone="no"?>
<!DOCTYPE svg PUBLIC "-//W3C//DTD SVG 20010904//EN"
 "http://www.w3.org/TR/2001/REC-SVG-20010904/DTD/svg10.dtd">
<svg version="1.0" xmlns="http://www.w3.org/2000/svg"
 width="2550.000000pt" height="2700.000000pt" viewBox="0 0 2550.000000 2700.000000"
 preserveAspectRatio="xMidYMid meet">

<g transform="translate(0.000000,2700.000000) scale(0.100000,-0.100000)"
fill="#C5C3C1" stroke="none">
<path d="M6425 16461 c-3 -2 -5 -170 -5 -373 l0 -368 -60 0 -60 0 2 -1322 3
-1323 55 -5 55 -5 3 -97 3 -98 -61 0 -60 0 2 -1187 3 -1188 58 0 57 0 0 -398
0 -397 -44 -22 -45 -21 19 -25 c23 -29 13 -56 -26 -74 -18 -9 -24 -19 -24 -45
0 -27 4 -33 23 -34 12 0 31 -2 42 -4 64 -13 173 -17 179 -6 4 6 25 11 46 11
62 0 90 15 90 47 0 21 -8 33 -30 45 -34 19 -40 57 -14 79 14 12 11 16 -28 34
l-43 20 -3 406 -2 407 57 8 58 9 3 1156 2 1156 -31 7 c-17 3 -44 6 -60 6 l-29
0 0 100 0 100 60 0 60 0 0 1320 0 1319 -60 7 -60 7 0 373 0 373 -42 6 c-44 6
-86 4 -93 -4z m135 -2083 l0 -1231 -37 7 c-21 3 -53 6 -70 6 l-33 0 0 1223 c0
673 2 1226 4 1228 2 2 34 2 70 1 l66 -4 0 -1230z m0 -2688 l0 -1068 -62 -9
c-35 -5 -66 -8 -70 -6 -8 4 -11 2146 -4 2154 2 2 34 2 70 1 l66 -4 0 -1068z"/>
</g>
</svg>
