<?xml version="1.0" standalone="no"?>
<!DOCTYPE svg PUBLIC "-//W3C//DTD SVG 20010904//EN"
 "http://www.w3.org/TR/2001/REC-SVG-20010904/DTD/svg10.dtd">
<svg version="1.0" xmlns="http://www.w3.org/2000/svg"
 width="2550.000000pt" height="2700.000000pt" viewBox="0 0 2550.000000 2700.000000"
 preserveAspectRatio="xMidYMid meet">

<g transform="translate(0.000000,2700.000000) scale(0.100000,-0.100000)"
fill="#C5C3C1" stroke="none">
<path d="M7030 16055 l0 -365 -55 0 -55 0 0 -1300 0 -1300 55 0 55 0 0 -105 0
-105 -55 0 -55 0 0 -1161 0 -1161 55 4 55 3 0 -387 c0 -420 1 -410 -56 -424
-28 -7 -30 -16 -9 -34 24 -20 18 -49 -15 -68 -23 -13 -30 -24 -30 -49 0 -30 2
-32 48 -39 57 -9 177 -10 212 -1 14 3 42 9 63 12 34 6 37 8 37 40 0 24 -5 35
-15 35 -8 0 -22 11 -30 24 -13 19 -14 29 -5 45 6 12 15 21 20 21 23 0 7 19
-20 25 -62 14 -60 -1 -60 430 l0 393 55 7 55 6 -2 1132 -3 1132 -52 3 -53 3 0
105 0 104 55 0 55 0 -2 1298 -3 1297 -52 3 -53 3 0 370 0 369 -70 0 -70 0 0
-365z m109 -471 l31 -6 0 -1200 0 -1199 -67 3 -68 3 -3 1190 c-1 655 0 1196 3
1203 5 13 53 16 104 6z m0 -2810 l31 -6 0 -1039 0 -1038 -32 -5 c-18 -3 -49
-7 -68 -8 l-35 -3 -3 1040 c-1 572 0 1046 3 1053 5 13 53 16 104 6z"/>
</g>
</svg>
