<?xml version="1.0" standalone="no"?>
<!DOCTYPE svg PUBLIC "-//W3C//DTD SVG 20010904//EN"
 "http://www.w3.org/TR/2001/REC-SVG-20010904/DTD/svg10.dtd">
<svg version="1.0" xmlns="http://www.w3.org/2000/svg"
 width="2550.000000pt" height="2700.000000pt" viewBox="0 0 2550.000000 2700.000000"
 preserveAspectRatio="xMidYMid meet">

<g transform="translate(0.000000,2700.000000) scale(0.100000,-0.100000)"
fill="#C5C3C1" stroke="none">
<path d="M18847 22152 l-48 -49 -1 -572 0 -572 -25 -10 c-13 -5 -50 -9 -82 -9
-32 0 -73 -3 -90 -6 l-31 -6 0 -1395 0 -1395 43 6 c23 3 74 6 112 7 l70 3 3
-97 c2 -97 2 -97 -23 -107 -15 -6 -67 -10 -116 -10 l-89 0 0 -1257 0 -1256
114 6 114 7 0 -343 c0 -378 1 -376 -62 -397 l-36 -11 22 -29 c18 -25 20 -33
10 -55 -7 -14 -23 -30 -37 -35 -23 -9 -26 -15 -23 -47 l3 -38 65 2 c36 1 122
2 193 2 l127 1 0 33 c0 26 -6 36 -25 45 -39 18 -52 55 -30 88 14 22 15 28 4
35 -8 5 -19 9 -26 9 -6 0 -21 12 -32 26 -20 25 -20 39 -20 370 l-1 344 105 0
105 0 0 1259 c0 1014 -2 1260 -13 1264 -7 2 -54 2 -105 -2 l-92 -6 0 92 c0 50
3 98 6 107 5 12 21 16 68 16 33 0 78 3 99 6 l37 7 0 1387 c0 1119 -2 1389 -13
1393 -7 2 -54 2 -105 -2 l-92 -6 1 614 c1 707 6 675 -84 583z m178 -2581 c0
-838 -3 -1268 -10 -1277 -7 -8 -58 -15 -167 -19 l-158 -7 0 1275 0 1275 63 6
c124 12 143 13 207 12 l65 -1 0 -1264z m-2 -1763 c3 -18 4 -532 4 -1143 l-2
-1110 -40 -7 c-22 -4 -97 -7 -167 -7 l-128 -1 0 1139 0 1139 63 6 c105 10 140
13 203 14 l62 2 5 -32z"/>
</g>
</svg>
