<?xml version="1.0" standalone="no"?>
<!DOCTYPE svg PUBLIC "-//W3C//DTD SVG 20010904//EN"
 "http://www.w3.org/TR/2001/REC-SVG-20010904/DTD/svg10.dtd">
<svg version="1.0" xmlns="http://www.w3.org/2000/svg"
 width="2550.000000pt" height="2700.000000pt" viewBox="0 0 2550.000000 2700.000000"
 preserveAspectRatio="xMidYMid meet">

<g transform="translate(0.000000,2700.000000) scale(0.100000,-0.100000)"
fill="#C5C3C1" stroke="none">
<path d="M22127 25293 l-47 -49 0 -616 0 -616 -42 -5 c-24 -4 -78 -9 -121 -13
l-77 -6 2 -1432 3 -1431 40 2 c22 1 75 5 118 8 l77 7 0 -110 0 -111 -52 -5
c-29 -3 -84 -9 -122 -13 l-70 -8 1 -32 c1 -18 2 -593 2 -1278 l1 -1245 120 0
120 0 0 -815 c0 -798 0 -815 -20 -835 -11 -11 -31 -22 -45 -26 -29 -7 -31 -16
-10 -34 8 -7 15 -26 15 -42 0 -22 -7 -33 -30 -46 -22 -13 -30 -24 -30 -46 l0
-29 128 6 c70 4 155 7 190 7 55 0 62 2 62 20 0 11 -4 20 -8 20 -5 0 -18 9 -30
20 -26 24 -30 78 -7 86 23 9 18 21 -13 32 -67 23 -62 -43 -62 868 l0 824 73 2
c39 1 89 2 110 3 l37 0 0 1294 0 1294 -110 -5 -110 -4 0 107 0 107 48 6 c26 3
69 7 95 8 27 1 55 7 63 12 12 10 14 201 14 1430 0 1118 -3 1422 -13 1428 -11
8 -83 4 -169 -8 l-38 -6 -2 659 c-3 650 -3 658 -23 661 -13 2 -37 -14 -68 -45z
m193 -2700 l0 -1308 -73 -3 c-39 -1 -110 -7 -157 -12 -47 -6 -95 -10 -107 -10
l-23 0 0 1300 c0 1031 3 1302 13 1305 9 4 196 23 330 34 16 1 17 -67 17 -1306z
m0 -2405 c0 -1206 0 -1712 -3 -1714 -1 -1 -82 -6 -180 -10 l-177 -7 0 1157 c0
916 3 1158 13 1161 9 4 196 23 330 34 16 1 17 -35 17 -621z"/>
</g>
</svg>
