<?xml version="1.0" standalone="no"?>
<!DOCTYPE svg PUBLIC "-//W3C//DTD SVG 20010904//EN"
 "http://www.w3.org/TR/2001/REC-SVG-20010904/DTD/svg10.dtd">
<svg version="1.0" xmlns="http://www.w3.org/2000/svg"
 width="3542.000000pt" height="3750.000000pt" viewBox="0 0 3542.000000 3750.000000"
 preserveAspectRatio="xMidYMid meet">

<g transform="translate(0.000000,3750.000000) scale(0.100000,-0.100000)"
fill="#65340A" stroke="none">
<path d="M658 16704 l-3 -1757 -54 -13 c-29 -8 -57 -17 -62 -20 -6 -3 6 -23
26 -45 21 -23 35 -49 35 -65 0 -34 -59 -94 -94 -94 -14 0 -26 -6 -26 -12 0 -7
-15 -20 -33 -28 -45 -21 -45 -59 0 -80 18 -8 33 -20 33 -27 0 -7 18 -17 39
-23 45 -12 81 -51 81 -86 0 -13 -16 -42 -36 -64 l-36 -40 29 -11 c15 -6 36
-15 45 -20 10 -5 27 -9 37 -9 19 0 20 -21 20 -1695 0 -1323 -2 -1697 -12
-1699 -71 -20 -103 -31 -110 -36 -4 -4 8 -23 27 -42 38 -38 47 -79 23 -108
-20 -26 -60 -50 -83 -50 -13 0 -24 -8 -27 -20 -3 -11 -14 -20 -25 -20 -52 0
-54 -76 -3 -86 16 -4 31 -14 34 -24 3 -10 18 -20 40 -24 39 -7 77 -46 77 -78
0 -28 -27 -76 -51 -88 -16 -9 -18 -14 -8 -26 6 -8 20 -14 30 -14 10 0 20 -4
23 -9 3 -4 19 -11 36 -14 l30 -6 0 -1751 c0 -1979 10 -1782 -88 -1821 -31 -12
-58 -23 -60 -24 -2 -2 11 -16 28 -33 16 -17 30 -40 30 -52 0 -28 -61 -90 -89
-90 -19 0 -21 -6 -21 -64 l0 -63 113 -32 112 -33 190 32 c105 18 193 34 198
37 4 2 7 31 7 63 0 58 0 59 -35 70 -69 23 -87 91 -35 139 l30 27 -50 18 c-27
10 -61 27 -75 38 l-25 19 0 1765 0 1764 30 0 c17 0 30 5 30 10 0 6 8 10 18 10
9 0 24 5 32 10 12 8 11 13 -11 37 -36 39 -51 70 -44 93 9 28 63 70 91 70 15 0
24 6 24 16 0 8 14 20 30 26 60 20 62 69 4 90 -19 6 -34 18 -34 25 0 7 -8 13
-17 13 -29 0 -83 38 -93 65 -12 31 1 68 36 100 14 13 23 29 19 34 -3 6 -31 18
-61 27 l-54 15 0 1692 0 1693 60 17 c33 10 60 23 60 29 0 5 -11 18 -24 29 -64
51 -51 122 29 155 25 11 45 24 45 30 0 6 13 14 29 17 61 12 61 82 0 94 -16 3
-29 11 -29 17 0 6 -20 19 -45 30 -61 25 -81 62 -61 110 8 19 24 41 35 48 41
25 18 44 -74 60 -20 3 -20 12 -23 1761 l-2 1757 -115 0 -115 0 -2 -1756z"/>
</g>
</svg>
