<?xml version="1.0" standalone="no"?>
<!DOCTYPE svg PUBLIC "-//W3C//DTD SVG 20010904//EN"
 "http://www.w3.org/TR/2001/REC-SVG-20010904/DTD/svg10.dtd">
<svg version="1.0" xmlns="http://www.w3.org/2000/svg"
 width="3542.000000pt" height="3750.000000pt" viewBox="0 0 3542.000000 3750.000000"
 preserveAspectRatio="xMidYMid meet">

<g transform="translate(0.000000,3750.000000) scale(0.100000,-0.100000)"
fill="#65340A" stroke="none">
<path d="M13389 18638 c-1 -2 -2 -658 -4 -1458 -2 -800 -3 -1462 -4 -1471 -1
-11 -14 -19 -38 -23 -21 -3 -45 -10 -53 -16 -13 -8 -12 -12 6 -24 12 -9 27
-29 34 -46 11 -28 11 -34 -7 -58 -11 -15 -34 -31 -51 -37 -18 -5 -32 -14 -32
-20 0 -6 -13 -16 -30 -22 -45 -17 -36 -73 12 -73 10 0 18 -6 18 -14 0 -7 14
-17 31 -22 18 -5 41 -21 52 -36 18 -24 18 -30 7 -58 -7 -17 -22 -37 -33 -45
-25 -18 -17 -27 41 -45 40 -13 42 -15 42 -54 0 -23 1 -659 3 -1415 2 -1223 1
-1374 -13 -1378 -8 -3 -24 -8 -35 -13 -11 -5 -28 -11 -38 -14 -17 -6 -16 -9
12 -41 17 -20 31 -44 31 -54 0 -29 -37 -69 -70 -76 -17 -4 -30 -13 -30 -21 0
-8 -8 -14 -19 -14 -46 0 -51 -63 -6 -74 14 -4 25 -13 25 -21 0 -9 10 -15 25
-15 31 0 75 -41 75 -69 0 -11 -14 -36 -31 -55 l-30 -35 30 -15 c16 -9 39 -16
50 -16 20 0 21 -6 24 -452 4 -639 -2 -2493 -8 -2509 -3 -8 -30 -25 -60 -38
l-55 -24 25 -23 c14 -13 25 -34 25 -48 0 -25 -34 -60 -71 -71 -15 -5 -19 -16
-19 -55 0 -27 3 -51 8 -53 4 -3 59 -14 122 -26 l115 -20 135 22 135 23 3 51
c3 51 2 53 -33 67 -60 25 -67 83 -15 119 20 14 18 16 -35 37 -31 12 -60 31
-65 41 -6 11 -10 562 -10 1488 0 1453 0 1471 20 1471 16 0 63 16 79 27 2 1 -8
16 -23 33 -34 41 -34 82 0 109 15 12 35 21 45 21 11 0 19 6 19 14 0 8 14 19
30 25 22 7 30 16 30 35 0 18 -8 27 -30 35 -16 5 -30 14 -30 19 0 5 -18 16 -40
25 -51 20 -67 55 -44 98 8 17 22 33 30 36 7 3 14 9 14 13 0 11 -59 40 -82 40
-17 0 -18 46 -18 1420 l0 1419 43 12 c61 18 65 25 33 58 -48 50 -36 99 30 123
19 6 34 16 34 21 0 4 13 13 29 18 16 6 31 19 34 29 5 19 -20 50 -40 50 -6 0
-13 7 -17 15 -3 8 -13 15 -22 15 -9 0 -29 9 -45 21 -38 27 -39 72 -3 110 33
34 26 46 -31 55 l-45 6 0 1474 0 1474 -95 0 c-52 0 -95 -1 -96 -2z"/>
</g>
</svg>
