<?xml version="1.0" standalone="no"?>
<!DOCTYPE svg PUBLIC "-//W3C//DTD SVG 20010904//EN"
 "http://www.w3.org/TR/2001/REC-SVG-20010904/DTD/svg10.dtd">
<svg version="1.0" xmlns="http://www.w3.org/2000/svg"
 width="3542.000000pt" height="3750.000000pt" viewBox="0 0 3542.000000 3750.000000"
 preserveAspectRatio="xMidYMid meet">

<g transform="translate(0.000000,3750.000000) scale(0.100000,-0.100000)"
fill="#65340A" stroke="none">
<path d="M16433 17285 c2 -766 1 -1398 -2 -1402 -3 -5 -25 -15 -48 -21 -24 -7
-43 -15 -43 -18 0 -4 11 -19 25 -36 14 -16 25 -37 25 -47 0 -28 -28 -59 -65
-71 -19 -6 -35 -15 -35 -19 0 -4 -11 -13 -25 -19 -36 -16 -33 -50 5 -63 16 -6
28 -15 25 -20 -3 -4 7 -11 22 -15 38 -9 73 -43 73 -70 0 -12 -11 -36 -25 -52
-14 -17 -25 -32 -25 -36 0 -3 21 -12 48 -19 l47 -14 -2 -1329 c-1 -731 -3
-1341 -3 -1356 0 -23 -5 -27 -40 -33 -52 -9 -57 -19 -26 -56 14 -17 26 -41 26
-54 0 -26 -42 -65 -71 -65 -10 0 -22 -6 -26 -14 -4 -7 -18 -18 -30 -25 -31
-16 -30 -49 2 -61 14 -5 25 -14 25 -19 0 -5 14 -14 32 -20 71 -25 86 -68 43
-119 -14 -17 -25 -32 -25 -35 0 -3 20 -11 45 -18 l45 -13 0 -1407 c0 -1191 -2
-1410 -14 -1422 -8 -7 -35 -21 -60 -31 l-46 -18 25 -20 c41 -32 29 -85 -25
-108 -27 -11 -30 -16 -30 -60 0 -31 5 -50 14 -53 7 -3 61 -13 120 -22 99 -16
114 -16 209 0 160 25 147 19 147 73 0 44 -2 48 -38 67 -46 25 -55 65 -21 101
l22 24 -49 21 c-27 12 -52 27 -56 33 -4 6 -8 643 -8 1416 l0 1406 45 13 c25 7
45 15 45 18 0 3 -11 18 -25 35 -14 16 -25 40 -25 52 0 27 35 62 73 71 15 4 27
11 27 16 0 5 12 14 26 19 30 12 30 47 -1 64 -11 6 -24 17 -28 24 -4 6 -17 12
-28 12 -27 0 -69 44 -69 73 0 13 11 34 25 47 33 31 28 42 -26 55 l-44 11 0
1353 0 1353 45 15 c25 8 47 17 49 19 2 2 -8 17 -23 34 -14 17 -26 42 -26 54 0
25 33 60 68 71 12 3 22 10 22 15 0 4 14 13 30 19 39 13 41 47 3 64 -16 6 -32
17 -36 24 -4 7 -14 13 -21 13 -7 0 -25 9 -40 21 -34 27 -34 68 -1 99 14 13 25
27 25 31 0 5 -21 15 -47 22 l-48 14 4 1402 4 1401 -98 0 -97 0 5 -1395z"/>
</g>
</svg>
