<?xml version="1.0" standalone="no"?>
<!DOCTYPE svg PUBLIC "-//W3C//DTD SVG 20010904//EN"
 "http://www.w3.org/TR/2001/REC-SVG-20010904/DTD/svg10.dtd">
<svg version="1.0" xmlns="http://www.w3.org/2000/svg"
 width="3542.000000pt" height="3750.000000pt" viewBox="0 0 3542.000000 3750.000000"
 preserveAspectRatio="xMidYMid meet">

<g transform="translate(0.000000,3750.000000) scale(0.100000,-0.100000)"
fill="#65340A" stroke="none">
<path d="M20080 17410 c0 -751 -4 -1320 -9 -1320 -5 0 -25 -7 -45 -15 l-37
-16 25 -30 c14 -17 26 -38 26 -48 0 -23 -35 -59 -65 -67 -14 -3 -25 -10 -25
-15 0 -5 -11 -14 -25 -19 -15 -6 -25 -17 -25 -30 0 -13 10 -24 25 -30 14 -5
25 -14 25 -19 0 -5 16 -15 35 -21 59 -19 70 -61 30 -108 -14 -17 -25 -32 -25
-35 0 -3 20 -11 45 -18 l45 -13 0 -1271 0 -1271 -45 -13 c-25 -7 -45 -15 -45
-18 0 -3 11 -18 25 -35 14 -16 25 -37 25 -47 0 -22 -33 -57 -61 -66 -23 -8
-35 -16 -71 -49 l-21 -19 24 -19 c13 -10 33 -25 44 -33 10 -8 25 -15 32 -15
20 0 53 -37 53 -59 0 -11 -12 -34 -27 -51 -30 -36 -24 -45 35 -56 l32 -6 0
-1322 c0 -726 -4 -1325 -8 -1331 -4 -5 -28 -20 -55 -32 l-47 -23 21 -21 c31
-31 22 -69 -24 -98 -35 -23 -38 -28 -35 -65 l3 -41 115 -19 c101 -17 127 -18
210 -7 144 18 140 16 140 70 0 42 -3 47 -33 62 -17 9 -36 28 -41 42 -8 22 -6
31 13 51 l23 25 -43 22 c-24 12 -49 29 -56 38 -10 12 -12 311 -13 1329 0 1242
1 1313 18 1318 9 3 32 12 51 20 l33 15 -26 26 c-39 39 -33 82 14 105 19 9 40
21 46 26 5 5 20 15 32 21 30 16 28 49 -3 63 -14 6 -25 15 -25 19 0 4 -12 10
-27 14 -65 16 -82 69 -37 116 l26 28 -37 15 c-21 9 -41 16 -45 16 -4 0 -10 6
-13 13 -2 6 -5 580 -6 1275 l-2 1262 21 0 c12 0 35 7 51 16 l30 15 -25 26
c-46 45 -28 102 36 118 15 4 29 13 32 21 3 8 12 14 20 14 16 0 28 24 20 44 -3
8 -17 17 -30 20 -14 4 -22 10 -19 15 2 5 -7 12 -23 16 -64 16 -82 72 -36 118
l26 26 -37 16 c-21 8 -44 15 -51 15 -12 0 -14 205 -14 1320 l0 1320 -85 0 -85
0 0 -1320z"/>
</g>
</svg>
