<?xml version="1.0" standalone="no"?>
<!DOCTYPE svg PUBLIC "-//W3C//DTD SVG 20010904//EN"
 "http://www.w3.org/TR/2001/REC-SVG-20010904/DTD/svg10.dtd">
<svg version="1.0" xmlns="http://www.w3.org/2000/svg"
 width="3542.000000pt" height="3750.000000pt" viewBox="0 0 3542.000000 3750.000000"
 preserveAspectRatio="xMidYMid meet">

<g transform="translate(0.000000,3750.000000) scale(0.100000,-0.100000)"
fill="#65340A" stroke="none">
<path d="M27490 17352 l0 -1360 -32 -6 c-59 -11 -65 -20 -35 -56 15 -17 27
-40 27 -51 0 -26 -43 -69 -70 -69 -11 0 -20 -7 -20 -15 0 -8 -6 -15 -14 -15
-8 0 -22 -7 -30 -16 -20 -20 -5 -54 24 -54 11 0 20 -6 20 -12 1 -7 20 -22 43
-33 54 -25 60 -58 21 -104 -31 -37 -25 -46 34 -57 l32 -6 -2 -1311 -3 -1311
-35 -9 c-52 -13 -56 -22 -26 -57 14 -17 26 -39 26 -49 0 -21 -36 -56 -67 -66
-13 -3 -23 -11 -23 -16 0 -5 -6 -9 -13 -9 -8 0 -22 -9 -33 -21 -22 -24 -10
-52 25 -57 11 -2 21 -10 21 -18 0 -8 8 -14 19 -14 28 0 71 -39 71 -64 0 -13
-12 -36 -27 -51 -27 -26 -27 -27 -8 -42 11 -8 32 -17 48 -20 l27 -5 0 -1355
c0 -862 -4 -1361 -10 -1373 -5 -10 -32 -26 -59 -36 l-49 -17 24 -19 c44 -35
26 -94 -33 -112 -19 -6 -23 -14 -23 -51 0 -24 4 -46 9 -49 15 -10 215 -37 266
-36 60 0 114 6 135 13 8 3 27 8 43 11 25 6 27 10 27 56 0 40 -4 50 -20 55 -28
9 -60 45 -60 67 0 11 11 29 24 42 l25 22 -34 12 c-18 7 -45 22 -59 33 l-26 20
1 1355 c0 1265 1 1355 17 1361 9 3 32 12 50 20 l33 14 -26 30 c-40 49 -28 100
28 114 15 4 31 12 35 19 4 6 16 16 27 22 29 16 31 50 3 65 -13 7 -25 15 -28
18 -3 3 -23 15 -45 26 -52 26 -60 71 -21 110 14 14 26 28 26 30 0 2 -21 11
-47 18 l-48 14 -3 1312 -2 1311 20 0 c12 0 35 7 51 16 l31 15 -26 24 c-35 32
-35 77 0 104 15 12 35 21 45 21 11 0 19 6 19 13 0 7 10 17 23 22 33 15 35 53
3 61 -14 3 -26 12 -26 20 0 8 -8 14 -19 14 -10 0 -30 9 -45 21 -34 27 -34 68
0 102 l25 26 -30 15 c-16 9 -39 16 -50 16 l-21 0 -2 1358 -3 1357 -87 3 -88 3
0 -1359z"/>
</g>
</svg>
