<?xml version="1.0" standalone="no"?>
<!DOCTYPE svg PUBLIC "-//W3C//DTD SVG 20010904//EN"
 "http://www.w3.org/TR/2001/REC-SVG-20010904/DTD/svg10.dtd">
<svg version="1.0" xmlns="http://www.w3.org/2000/svg"
 width="3542.000000pt" height="3750.000000pt" viewBox="0 0 3542.000000 3750.000000"
 preserveAspectRatio="xMidYMid meet">

<g transform="translate(0.000000,3750.000000) scale(0.100000,-0.100000)"
fill="#65340A" stroke="none">
<path d="M3580 16810 l0 -1690 -24 0 c-14 0 -28 -4 -31 -10 -3 -5 -14 -10 -23
-10 -43 -1 -46 -17 -8 -54 44 -45 46 -77 7 -116 -16 -16 -26 -32 -23 -35 3 -3
-11 -5 -31 -5 -25 0 -37 -5 -37 -14 0 -8 -11 -17 -25 -20 -35 -9 -48 -37 -29
-64 8 -12 24 -22 34 -22 10 0 20 -7 22 -17 2 -9 20 -21 42 -27 80 -23 95 -88
35 -148 -16 -16 -29 -31 -29 -33 0 -6 81 -35 100 -35 20 0 20 -12 20 -1635 0
-1446 -2 -1635 -15 -1636 -28 -3 -33 -4 -41 -12 -4 -4 -15 -7 -24 -7 -10 0
-23 -6 -29 -14 -9 -11 -8 -17 7 -28 26 -19 52 -59 52 -81 0 -29 -63 -87 -94
-87 -16 0 -26 -6 -26 -15 0 -8 -11 -17 -25 -21 -36 -9 -48 -35 -29 -62 8 -12
21 -22 29 -22 8 0 19 -8 24 -19 6 -10 24 -21 41 -24 40 -8 80 -49 80 -82 0
-15 -15 -41 -36 -65 l-36 -40 23 -8 c13 -5 41 -15 62 -23 l37 -13 0 -1692 c0
-1470 -2 -1694 -15 -1707 -8 -8 -39 -25 -69 -38 l-55 -22 29 -34 c17 -19 30
-38 30 -43 0 -27 -28 -62 -61 -77 -38 -18 -38 -18 -39 -79 l0 -62 83 -23 c118
-32 172 -32 347 -1 l155 27 3 60 2 60 -38 18 c-34 15 -62 50 -62 77 0 5 14 25
30 43 l30 35 -56 22 c-30 13 -62 29 -70 37 -12 12 -14 256 -14 1708 l0 1693
55 18 c31 9 58 20 60 24 3 5 -11 24 -30 43 -36 36 -43 64 -25 98 12 22 61 49
90 49 11 0 20 7 20 15 0 9 11 20 24 25 14 5 30 18 36 29 8 17 7 24 -10 41 -11
11 -27 20 -35 20 -8 0 -15 6 -15 13 0 7 -19 19 -42 27 -82 29 -98 90 -38 146
31 30 26 54 -11 54 -10 0 -21 5 -24 10 -3 6 -17 10 -31 10 l-24 0 0 1633 0
1632 52 13 c66 15 79 27 50 48 -31 22 -55 71 -48 100 7 26 59 64 89 64 11 0
21 9 24 20 3 11 13 20 23 20 9 0 25 9 34 19 22 24 7 58 -29 67 -14 3 -25 11
-25 18 0 6 -19 18 -42 26 -82 29 -98 94 -38 150 30 28 25 50 -11 50 -10 0 -21
5 -24 10 -3 6 -17 10 -31 10 l-24 0 0 1690 0 1690 -115 0 -115 0 0 -1690z"/>
</g>
</svg>
