<?xml version="1.0" standalone="no"?>
<!DOCTYPE svg PUBLIC "-//W3C//DTD SVG 20010904//EN"
 "http://www.w3.org/TR/2001/REC-SVG-20010904/DTD/svg10.dtd">
<svg version="1.0" xmlns="http://www.w3.org/2000/svg"
 width="3542.000000pt" height="3750.000000pt" viewBox="0 0 3542.000000 3750.000000"
 preserveAspectRatio="xMidYMid meet">

<g transform="translate(0.000000,3750.000000) scale(0.100000,-0.100000)"
fill="#65340A" stroke="none">
<path d="M8828 16998 c-2 -1040 -6 -1573 -13 -1574 -24 -1 -81 -17 -91 -25 -9
-7 -3 -18 17 -39 40 -40 40 -91 0 -119 -16 -12 -38 -21 -49 -21 -11 0 -22 -8
-25 -20 -3 -12 -14 -20 -26 -20 -11 0 -25 -9 -31 -21 -9 -16 -8 -25 6 -40 9
-10 25 -19 36 -19 10 0 18 -6 18 -14 0 -8 12 -17 28 -21 74 -18 94 -86 40
-142 l-31 -32 29 -12 c16 -6 41 -14 57 -18 l28 -6 2 -1520 2 -1519 -38 -8
c-21 -4 -47 -12 -57 -18 -17 -9 -17 -12 11 -39 39 -39 40 -91 3 -120 -15 -12
-36 -21 -46 -21 -11 0 -22 -8 -25 -19 -3 -11 -17 -21 -33 -24 -15 -3 -30 -12
-33 -20 -8 -21 20 -57 44 -57 10 0 19 -6 19 -13 0 -8 18 -21 39 -29 76 -30 86
-85 25 -141 l-27 -25 38 -16 c20 -9 43 -16 49 -16 36 0 36 13 36 -1584 0
-1768 9 -1585 -87 -1626 l-53 -22 25 -20 c37 -29 34 -78 -6 -112 -17 -14 -37
-26 -45 -26 -12 0 -14 -12 -12 -57 l3 -58 110 -23 c119 -26 149 -25 360 14
l86 16 -3 57 c-3 49 -6 56 -25 59 -12 2 -34 17 -48 34 -29 35 -27 61 10 95
l24 21 -54 22 c-94 38 -85 -132 -85 1635 0 1244 3 1566 13 1569 73 21 97 31
97 43 0 7 -6 16 -14 19 -7 3 -22 20 -32 39 -17 32 -17 34 0 60 10 15 35 35 57
44 21 9 39 22 39 29 0 6 9 12 19 12 11 0 27 10 35 22 19 27 7 53 -29 62 -14 4
-25 13 -25 21 0 9 -9 15 -21 15 -27 0 -76 35 -84 60 -7 22 7 54 38 88 25 27
19 33 -50 54 l-42 12 2 1518 2 1518 21 0 c12 0 38 7 59 16 l38 15 -30 32 c-38
41 -45 61 -31 92 10 22 62 55 87 55 6 0 11 6 11 14 0 8 10 16 21 18 12 2 28
12 35 24 17 25 0 54 -34 57 -14 1 -22 8 -22 19 0 10 -7 18 -15 18 -25 0 -73
28 -85 49 -12 24 1 66 33 99 25 27 18 35 -45 52 l-48 13 0 1568 0 1569 -100 0
-100 0 -2 -1572z"/>
</g>
</svg>
