<?xml version="1.0" standalone="no"?>
<!DOCTYPE svg PUBLIC "-//W3C//DTD SVG 20010904//EN"
 "http://www.w3.org/TR/2001/REC-SVG-20010904/DTD/svg10.dtd">
<svg version="1.0" xmlns="http://www.w3.org/2000/svg"
 width="2551.000000pt" height="2701.000000pt" viewBox="0 0 2551.000000 2701.000000"
 preserveAspectRatio="xMidYMid meet">
<metadata>
Created by potrace 1.16, written by Peter Selinger 2001-2019
</metadata>
<g transform="translate(0.000000,2701.000000) scale(0.100000,-0.100000)"
fill="#65340A" stroke="none">
<path d="M15307 21262 l-57 -48 0 -3736 c0 -3381 -2 -3738 -16 -3752 -8 -9
-22 -16 -29 -16 -19 0 -29 -18 -17 -33 21 -26 23 -56 5 -76 -9 -12 -23 -21
-31 -21 -10 0 -12 -14 -10 -52 l3 -53 160 0 160 0 3 42 c2 35 -1 44 -20 54
-13 7 -26 17 -30 23 -13 18 -9 53 7 66 22 18 19 23 -20 44 -20 11 -38 29 -40
40 -2 12 -3 1719 -2 3793 1 2075 0 3773 -3 3773 -3 0 -31 -22 -63 -48z"/>
</g>
</svg>
