<?xml version="1.0" standalone="no"?>
<!DOCTYPE svg PUBLIC "-//W3C//DTD SVG 20010904//EN"
 "http://www.w3.org/TR/2001/REC-SVG-20010904/DTD/svg10.dtd">
<svg version="1.0" xmlns="http://www.w3.org/2000/svg"
 width="2551.000000pt" height="2701.000000pt" viewBox="0 0 2551.000000 2701.000000"
 preserveAspectRatio="xMidYMid meet">

<g transform="translate(0.000000,2701.000000) scale(0.100000,-0.100000)"
fill="#65340A" stroke="none">
<path d="M17652 23189 l-62 -51 0 -2277 c0 -1252 0 -2925 0 -3719 0 -794 -3
-1454 -6 -1467 -3 -14 -18 -28 -37 -36 -18 -7 -33 -13 -35 -14 -1 -1 5 -16 14
-33 10 -20 13 -40 8 -54 -5 -13 -7 -27 -6 -31 1 -4 -3 -7 -10 -6 -29 4 -34 -3
-34 -43 l1 -43 168 -3 167 -2 0 44 c0 35 -4 45 -20 49 -11 3 -25 18 -30 33 -9
23 -7 33 9 54 l19 27 -35 18 c-19 10 -38 26 -42 34 -4 9 -7 1716 -7 3794 1
2077 1 3777 1 3777 0 0 -28 -23 -63 -51z"/>
</g>
</svg>
