<?xml version="1.0" standalone="no"?>
<!DOCTYPE svg PUBLIC "-//W3C//DTD SVG 20010904//EN"
 "http://www.w3.org/TR/2001/REC-SVG-20010904/DTD/svg10.dtd">
<svg version="1.0" xmlns="http://www.w3.org/2000/svg"
 width="2551.000000pt" height="2701.000000pt" viewBox="0 0 2551.000000 2701.000000"
 preserveAspectRatio="xMidYMid meet">

<g transform="translate(0.000000,2701.000000) scale(0.100000,-0.100000)"
fill="#65340A" stroke="none">
<path d="M22266 26981 c-3 -5 -6 -1682 -6 -3726 -1 -2416 -4 -3724 -11 -3736
-5 -11 -24 -26 -42 -35 -43 -22 -43 -22 -23 -37 21 -16 29 -87 9 -80 -7 3 -13
1 -13 -5 0 -5 -9 -12 -20 -15 -12 -3 -20 -14 -20 -26 0 -19 7 -20 133 -23 72
-2 156 -2 185 0 50 3 52 4 52 33 0 18 -5 29 -13 29 -21 0 -47 34 -47 60 0 13
7 31 16 41 15 16 13 19 -24 38 -22 11 -42 26 -45 34 -4 10 -6 2075 -7 7110 l0
347 -59 0 c-33 0 -62 -4 -65 -9z"/>
</g>
</svg>
