<?xml version="1.0" standalone="no"?>
<!DOCTYPE svg PUBLIC "-//W3C//DTD SVG 20010904//EN"
 "http://www.w3.org/TR/2001/REC-SVG-20010904/DTD/svg10.dtd">
<svg version="1.0" xmlns="http://www.w3.org/2000/svg"
 width="2551.000000pt" height="2701.000000pt" viewBox="0 0 2551.000000 2701.000000"
 preserveAspectRatio="xMidYMid meet">

<g transform="translate(0.000000,2701.000000) scale(0.100000,-0.100000)"
fill="#65340A" stroke="none">
<path d="M24590 25178 c0 -997 -1 -2240 -1 -2763 0 -522 -2 -960 -5 -971 -3
-13 -22 -29 -45 -39 -36 -17 -52 -35 -29 -35 15 0 29 -35 23 -59 -3 -12 -18
-28 -34 -37 -16 -8 -29 -19 -29 -24 0 -6 72 -10 185 -10 163 0 186 2 192 16 6
16 -1 25 -42 49 -22 13 -23 60 -1 84 16 17 15 19 -15 31 -63 27 -59 -51 -59
1018 0 537 0 1781 0 2765 l0 1787 -70 0 -70 0 0 -1812z"/>
</g>
</svg>
