<?xml version="1.0" standalone="no"?>
<!DOCTYPE svg PUBLIC "-//W3C//DTD SVG 20010904//EN"
 "http://www.w3.org/TR/2001/REC-SVG-20010904/DTD/svg10.dtd">
<svg version="1.0" xmlns="http://www.w3.org/2000/svg"
 width="2551.000000pt" height="2701.000000pt" viewBox="0 0 2551.000000 2701.000000"
 preserveAspectRatio="xMidYMid meet">
<metadata>
Created by potrace 1.16, written by Peter Selinger 2001-2019
</metadata>
<g transform="translate(0.000000,2701.000000) scale(0.100000,-0.100000)"
fill="#65340A" stroke="none">
<path d="M5925 13539 l-59 -51 -3 -3732 c-1 -2052 -3 -3737 -3 -3743 0 -7 -13
-19 -30 -28 -39 -20 -57 -52 -37 -68 23 -19 29 -47 11 -54 -23 -9 -44 -58 -44
-103 l0 -40 155 0 154 0 14 28 c20 42 14 104 -11 115 -29 13 -37 42 -18 69 24
33 20 45 -18 58 -19 6 -37 19 -41 28 -6 17 -7 482 -2 4960 1 1436 0 2612 -3
2612 -3 0 -32 -23 -65 -51z"/>
</g>
</svg>
