<?xml version="1.0" standalone="no"?>
<!DOCTYPE svg PUBLIC "-//W3C//DTD SVG 20010904//EN"
 "http://www.w3.org/TR/2001/REC-SVG-20010904/DTD/svg10.dtd">
<svg version="1.0" xmlns="http://www.w3.org/2000/svg"
 width="2551.000000pt" height="2701.000000pt" viewBox="0 0 2551.000000 2701.000000"
 preserveAspectRatio="xMidYMid meet">
<metadata>
Created by potrace 1.16, written by Peter Selinger 2001-2019
</metadata>
<g transform="translate(0.000000,2701.000000) scale(0.100000,-0.100000)"
fill="#65340A" stroke="none">
<path d="M7095 14502 l-60 -47 3 -4222 2 -4223 -40 -25 c-42 -27 -49 -47 -25
-71 16 -17 21 -59 5 -49 -16 10 -38 -38 -42 -90 l-3 -50 157 -3 156 -2 11 33
c22 65 -5 145 -28 85 -7 -16 -10 -18 -10 -6 -1 9 3 20 9 23 6 4 3 16 -7 31
-12 18 -13 28 -5 33 6 3 15 18 20 31 9 23 6 27 -32 45 l-41 20 -2 4200 c-2
2310 -4 4230 -5 4267 l-3 67 -60 -47z"/>
</g>
</svg>
