<?xml version="1.0" standalone="no"?>
<!DOCTYPE svg PUBLIC "-//W3C//DTD SVG 20010904//EN"
 "http://www.w3.org/TR/2001/REC-SVG-20010904/DTD/svg10.dtd">
<svg version="1.0" xmlns="http://www.w3.org/2000/svg"
 width="2551.000000pt" height="2701.000000pt" viewBox="0 0 2551.000000 2701.000000"
 preserveAspectRatio="xMidYMid meet">
<metadata>
Created by potrace 1.16, written by Peter Selinger 2001-2019
</metadata>
<g transform="translate(0.000000,2701.000000) scale(0.100000,-0.100000)"
fill="#65340A" stroke="none">
<path d="M9445 16438 l-60 -52 2 -4221 3 -4220 -37 -20 c-42 -22 -52 -47 -29
-71 17 -17 22 -54 7 -54 -25 0 -41 -34 -41 -86 l0 -55 157 3 156 3 2 63 c1 63
-7 87 -19 56 -3 -8 -11 -12 -17 -9 -6 4 -8 13 -5 21 3 8 1 14 -3 14 -12 0 -1
43 13 52 7 5 -2 18 -24 37 l-35 29 0 4281 c0 2355 -2 4281 -5 4281 -3 0 -32
-24 -65 -52z"/>
</g>
</svg>
