<?xml version="1.0" standalone="no"?>
<!DOCTYPE svg PUBLIC "-//W3C//DTD SVG 20010904//EN"
 "http://www.w3.org/TR/2001/REC-SVG-20010904/DTD/svg10.dtd">
<svg version="1.0" xmlns="http://www.w3.org/2000/svg"
 width="2551.000000pt" height="2701.000000pt" viewBox="0 0 2551.000000 2701.000000"
 preserveAspectRatio="xMidYMid meet">
<metadata>
Created by potrace 1.16, written by Peter Selinger 2001-2019
</metadata>
<g transform="translate(0.000000,2701.000000) scale(0.100000,-0.100000)"
fill="#65340A" stroke="none">
<path d="M10620 17402 l-55 -46 0 -3729 c0 -2050 -3 -3736 -7 -3746 -3 -10
-20 -23 -36 -30 -39 -16 -46 -35 -21 -57 26 -24 24 -52 -6 -66 -23 -10 -25
-17 -25 -70 l0 -58 155 0 155 0 0 58 c0 53 -2 60 -25 70 -28 13 -35 59 -10 68
27 11 16 38 -23 59 l-37 20 -5 3786 -5 3787 -55 -46z"/>
</g>
</svg>
