<?xml version="1.0" standalone="no"?>
<!DOCTYPE svg PUBLIC "-//W3C//DTD SVG 20010904//EN"
 "http://www.w3.org/TR/2001/REC-SVG-20010904/DTD/svg10.dtd">
<svg version="1.0" xmlns="http://www.w3.org/2000/svg"
 width="2551.000000pt" height="2701.000000pt" viewBox="0 0 2551.000000 2701.000000"
 preserveAspectRatio="xMidYMid meet">
<metadata>
Created by potrace 1.16, written by Peter Selinger 2001-2019
</metadata>
<g transform="translate(0.000000,2701.000000) scale(0.100000,-0.100000)"
fill="#65340A" stroke="none">
<path d="M14137 20300 l-57 -49 0 -4215 0 -4215 -22 -21 c-12 -11 -27 -20 -34
-20 -24 0 -25 -20 -2 -51 l23 -31 -32 -27 c-28 -23 -33 -34 -33 -72 0 -24 4
-49 8 -55 7 -10 311 -15 313 -4 6 46 1 84 -14 103 -10 12 -16 15 -12 7 4 -8
-1 -6 -9 4 -20 25 -20 55 0 77 14 15 12 19 -20 39 -20 12 -38 31 -41 43 -2 12
-4 1938 -2 4279 1 2342 0 4258 -3 4257 -3 0 -31 -22 -63 -49z"/>
</g>
</svg>
