<?xml version="1.0" standalone="no"?>
<!DOCTYPE svg PUBLIC "-//W3C//DTD SVG 20010904//EN"
 "http://www.w3.org/TR/2001/REC-SVG-20010904/DTD/svg10.dtd">
<svg version="1.0" xmlns="http://www.w3.org/2000/svg"
 width="3542.000000pt" height="3750.000000pt" viewBox="0 0 3542.000000 3750.000000"
 preserveAspectRatio="xMidYMid meet">

<g transform="translate(0.000000,3750.000000) scale(0.100000,-0.100000)"
fill="#C5C3C1" stroke="none">
<path d="M20930 17441 l0 -1298 -45 -13 c-44 -12 -55 -23 -35 -35 6 -3 17 -20
26 -36 14 -27 14 -33 0 -53 -8 -13 -28 -29 -45 -36 -17 -7 -31 -16 -31 -21 0
-5 -5 -9 -12 -9 -6 0 -20 -7 -29 -16 -14 -13 -16 -21 -8 -35 5 -11 16 -19 25
-19 8 0 17 -7 20 -15 4 -8 14 -15 23 -15 9 0 27 -9 40 -19 30 -23 31 -64 0
-97 -26 -28 -20 -38 31 -51 l35 -9 2 -1253 c1 -1161 0 -1253 -15 -1257 -9 -3
-32 -12 -50 -20 l-34 -15 26 -20 c17 -14 26 -30 26 -49 0 -32 -33 -70 -62 -70
-10 0 -18 -7 -18 -15 0 -8 -8 -15 -19 -15 -10 0 -24 -6 -30 -14 -17 -20 3 -56
29 -56 11 0 20 -7 20 -15 0 -8 8 -15 18 -15 60 0 83 -72 36 -115 l-26 -24 33
-15 c19 -8 41 -17 49 -19 14 -4 16 -147 19 -1304 2 -1247 2 -1299 -16 -1315
-10 -9 -36 -23 -57 -32 l-39 -16 21 -23 c38 -40 22 -84 -35 -101 -19 -6 -23
-14 -23 -51 0 -51 -6 -48 140 -70 96 -14 114 -14 212 1 l108 16 0 48 c0 40 -4
48 -24 58 -14 6 -33 23 -42 37 -16 25 -16 27 5 55 11 16 21 31 21 33 0 2 -18
10 -41 17 -22 8 -44 21 -50 31 -5 11 -9 526 -9 1316 l0 1299 45 13 c25 7 45
15 45 18 0 3 -11 18 -25 35 -14 16 -25 37 -25 47 0 22 40 61 63 61 9 0 20 6
24 13 4 6 17 17 28 23 31 17 32 52 1 60 -14 3 -26 12 -26 20 0 8 -8 14 -19 14
-28 0 -71 39 -71 64 0 13 12 35 27 50 31 31 24 41 -34 52 l-33 6 0 1258 0
1258 33 6 c56 11 62 20 33 49 -34 34 -33 70 0 96 15 12 33 21 40 21 7 0 17 6
21 13 4 8 16 16 26 20 26 10 34 39 13 51 -10 6 -27 19 -38 29 -12 9 -27 17
-35 17 -21 0 -53 38 -53 62 0 12 12 34 26 49 l26 27 -23 13 c-13 6 -32 12 -44
13 l-20 1 -3 1303 -2 1302 -85 0 -85 0 0 -1299z"/>
</g>
</svg>
