<?xml version="1.0" standalone="no"?>
<!DOCTYPE svg PUBLIC "-//W3C//DTD SVG 20010904//EN"
 "http://www.w3.org/TR/2001/REC-SVG-20010904/DTD/svg10.dtd">
<svg version="1.0" xmlns="http://www.w3.org/2000/svg"
 width="3542.000000pt" height="3750.000000pt" viewBox="0 0 3542.000000 3750.000000"
 preserveAspectRatio="xMidYMid meet">

<g transform="translate(0.000000,3750.000000) scale(0.100000,-0.100000)"
fill="#C5C3C1" stroke="none">
<path d="M2148 16759 l-3 -1722 -48 -12 c-64 -16 -78 -31 -51 -54 28 -22 44
-54 44 -84 0 -28 -47 -73 -86 -83 -13 -3 -24 -12 -24 -19 0 -7 -13 -15 -29
-18 -40 -8 -55 -37 -35 -65 8 -12 24 -22 34 -22 10 0 21 -8 25 -19 3 -10 19
-21 36 -25 42 -8 79 -48 79 -87 0 -23 -9 -40 -35 -65 -33 -31 -34 -34 -16 -44
11 -5 27 -10 35 -10 9 0 16 -4 16 -10 0 -5 13 -10 29 -10 l30 0 -2 -1662 c-2
-1654 -2 -1663 -22 -1666 -11 -2 -39 -12 -63 -23 l-43 -20 36 -33 c26 -25 35
-42 35 -65 0 -39 -37 -79 -79 -87 -17 -4 -33 -15 -36 -25 -4 -11 -14 -19 -24
-19 -10 0 -26 -9 -35 -19 -22 -24 -7 -58 30 -67 13 -3 29 -15 35 -25 5 -11 18
-19 29 -19 10 0 32 -12 49 -26 41 -34 41 -72 0 -119 -19 -21 -28 -40 -23 -45
5 -5 32 -17 59 -28 l50 -20 3 -1721 c1 -1146 -1 -1721 -8 -1721 -5 0 -10 -6
-10 -14 0 -12 -22 -24 -108 -57 l-24 -9 31 -29 c20 -18 31 -39 31 -55 0 -32
-37 -72 -74 -82 -25 -6 -26 -10 -26 -69 l0 -64 53 -15 c167 -48 150 -48 353
-16 102 17 190 32 195 35 5 4 9 31 9 61 0 52 -1 54 -37 71 -20 10 -45 30 -56
45 -18 24 -18 30 -7 58 7 17 24 37 37 44 24 12 23 13 -42 40 -36 16 -70 37
-75 47 -12 21 -14 3449 -3 3459 5 4 29 13 56 20 26 7 50 16 52 20 3 5 -11 24
-30 43 -21 21 -35 45 -35 60 0 36 36 75 81 87 21 6 39 16 39 23 0 7 15 19 33
27 45 21 45 59 0 79 -18 8 -33 20 -33 27 0 6 -13 14 -29 17 -41 8 -91 54 -91
83 0 14 16 42 37 65 30 33 34 42 22 50 -8 5 -22 9 -31 9 -9 0 -20 5 -23 10 -3
6 -17 10 -31 10 l-24 0 -2 1618 c-2 889 -2 1638 0 1665 3 42 6 47 27 47 13 0
26 4 30 9 3 5 19 12 35 16 17 4 30 9 30 12 0 3 -16 23 -35 44 -19 22 -35 50
-35 63 0 32 45 74 86 82 20 4 34 12 34 21 0 8 13 19 30 24 16 6 32 20 35 31 8
23 -20 58 -45 58 -10 0 -20 8 -23 18 -2 11 -17 22 -36 25 -17 4 -43 18 -57 32
-33 33 -27 78 16 117 16 15 30 30 30 33 0 10 -68 35 -95 35 l-25 0 0 323 c-1
177 -1 953 -1 1725 l0 1402 -114 0 -115 0 -2 -1721z"/>
</g>
</svg>
