<?xml version="1.0" standalone="no"?>
<!DOCTYPE svg PUBLIC "-//W3C//DTD SVG 20010904//EN"
 "http://www.w3.org/TR/2001/REC-SVG-20010904/DTD/svg10.dtd">
<svg version="1.0" xmlns="http://www.w3.org/2000/svg"
 width="2551.000000pt" height="2701.000000pt" viewBox="0 0 2551.000000 2701.000000"
 preserveAspectRatio="xMidYMid meet">

<g transform="translate(0.000000,2701.000000) scale(0.100000,-0.100000)"
fill="#3a4548" stroke="none">
<path d="M23426 23273 c2 -2045 1 -3730 -2 -3745 -4 -18 -17 -32 -45 -46 -24
-12 -36 -23 -29 -27 36 -22 22 -97 -20 -110 -11 -3 -20 -15 -20 -26 0 -21 -14
-20 220 -21 l145 -1 0 27 c1 20 -7 31 -26 42 -38 19 -46 50 -20 84 l20 28 -30
13 c-17 6 -37 18 -45 26 -12 12 -14 543 -14 3741 l0 3727 -68 3 -69 3 3 -3718z"/>
</g>
</svg>
