<?xml version="1.0" standalone="no"?>
<!DOCTYPE svg PUBLIC "-//W3C//DTD SVG 20010904//EN"
 "http://www.w3.org/TR/2001/REC-SVG-20010904/DTD/svg10.dtd">
<svg version="1.0" xmlns="http://www.w3.org/2000/svg"
 width="3542.000000pt" height="3750.000000pt" viewBox="0 0 3542.000000 3750.000000"
 preserveAspectRatio="xMidYMid meet">

<g transform="translate(0.000000,3750.000000) scale(0.100000,-0.100000)"
fill="#3a4548" stroke="none">
<path d="M14431 16598 c0 -1129 -1 -2072 -1 -2095 0 -40 -2 -43 -27 -43 -34 0
-46 -8 -62 -37 -21 -41 -9 -114 23 -135 6 -4 23 -8 39 -8 26 0 27 -2 27 -51 0
-37 -9 -70 -34 -122 -88 -183 -84 -413 10 -574 17 -29 24 -57 24 -92 l0 -51
-35 0 c-28 0 -37 -5 -50 -30 -17 -33 -20 -93 -5 -121 7 -11 26 -21 50 -25 l40
-7 0 -331 c2 -3081 0 -3869 -10 -3881 -6 -7 -33 -23 -61 -34 l-50 -22 25 -20
c16 -12 26 -31 26 -45 0 -28 -41 -74 -65 -74 -13 0 -15 -10 -13 -52 l3 -53
117 -20 c115 -19 120 -19 230 -1 159 25 148 19 148 77 0 35 -4 49 -14 49 -7 0
-25 9 -40 21 -33 26 -35 70 -4 99 12 11 20 21 17 23 -2 2 -24 12 -49 22 -25
11 -50 26 -57 35 -10 12 -12 478 -13 2118 l0 2102 24 0 c38 0 56 10 71 41 18
34 19 69 3 104 -11 24 -22 30 -73 37 -33 5 -32 66 4 136 46 92 71 194 72 294
1 117 -16 195 -62 285 -30 57 -39 87 -39 124 l0 49 35 0 c29 0 39 6 55 33 41
67 9 147 -60 147 l-30 0 0 2090 0 2090 -94 0 -95 0 0 -2052z m145 -2637 c12
-53 15 -96 11 -152 -7 -81 -46 -215 -62 -213 -20 2 -47 101 -52 186 -6 96 7
183 38 256 l21 47 13 -25 c8 -14 22 -58 31 -99z"/>
</g>
</svg>
