<?xml version="1.0" standalone="no"?>
<!DOCTYPE svg PUBLIC "-//W3C//DTD SVG 20010904//EN"
 "http://www.w3.org/TR/2001/REC-SVG-20010904/DTD/svg10.dtd">
<svg version="1.0" xmlns="http://www.w3.org/2000/svg"
 width="3542.000000pt" height="3750.000000pt" viewBox="0 0 3542.000000 3750.000000"
 preserveAspectRatio="xMidYMid meet">

<g transform="translate(0.000000,3750.000000) scale(0.100000,-0.100000)"
fill="#3a4548" stroke="none">
<path d="M15513 18662 l-63 -3 -2 -2057 -3 -2057 -32 -3 c-41 -4 -63 -34 -63
-87 0 -52 21 -81 65 -89 34 -7 35 -9 35 -50 0 -29 -11 -65 -30 -104 -89 -179
-91 -395 -5 -568 23 -47 35 -86 35 -113 0 -38 -2 -41 -27 -41 -49 0 -73 -33
-73 -98 0 -43 17 -64 65 -79 l30 -10 3 -2063 c1 -1550 -1 -2066 -10 -2077 -6
-8 -33 -23 -60 -35 l-48 -21 25 -23 c14 -13 25 -32 25 -44 0 -25 -46 -70 -71
-70 -16 0 -19 -8 -19 -49 l0 -49 48 -10 c153 -32 197 -35 304 -17 160 26 148
20 148 76 0 35 -4 49 -14 49 -7 0 -25 9 -40 21 -34 27 -35 70 -1 97 l25 20
-54 21 c-32 14 -57 31 -63 44 -8 18 -10 2173 -4 3820 l1 327 28 0 c35 0 59 25
68 68 13 64 -16 112 -67 112 -27 0 -29 2 -29 41 0 25 12 66 30 104 46 97 64
177 63 291 -1 113 -18 189 -64 273 -22 42 -29 68 -29 111 0 56 0 57 28 52 38
-5 64 26 69 85 6 58 -20 93 -67 93 l-30 0 0 2054 0 2054 -32 3 c-18 2 -61 3
-95 1z m52 -4538 c8 -20 20 -73 27 -119 10 -69 9 -95 -4 -161 -8 -44 -23 -97
-33 -119 l-17 -40 -15 34 c-41 96 -42 281 -3 384 12 31 23 57 26 57 2 0 10
-16 19 -36z"/>
</g>
</svg>
