<?xml version="1.0" standalone="no"?>
<!DOCTYPE svg PUBLIC "-//W3C//DTD SVG 20010904//EN"
 "http://www.w3.org/TR/2001/REC-SVG-20010904/DTD/svg10.dtd">
<svg version="1.0" xmlns="http://www.w3.org/2000/svg"
 width="3542.000000pt" height="3750.000000pt" viewBox="0 0 3542.000000 3750.000000"
 preserveAspectRatio="xMidYMid meet">

<g transform="translate(0.000000,3750.000000) scale(0.100000,-0.100000)"
fill="#3a4548" stroke="none">
<path d="M21750 16895 l0 -1855 -24 0 c-32 0 -54 -23 -62 -64 -9 -51 13 -90
54 -94 30 -3 32 -5 32 -44 0 -23 -11 -64 -24 -92 -38 -81 -56 -166 -56 -268 0
-104 17 -183 55 -258 14 -28 25 -66 25 -90 0 -37 -2 -40 -29 -40 -35 0 -47
-14 -56 -61 -10 -56 17 -99 62 -99 l23 0 -3 -1867 -2 -1868 -52 -25 c-52 -26
-52 -26 -32 -43 32 -28 23 -78 -18 -97 -29 -13 -33 -20 -33 -56 0 -48 -8 -44
150 -64 81 -11 109 -10 189 4 52 9 98 16 103 16 4 0 8 20 8 45 0 31 -4 45 -14
45 -22 0 -66 40 -66 61 0 11 10 30 23 43 l23 23 -47 17 c-26 10 -50 24 -53 32
-6 15 -7 638 -6 2733 0 876 2 1012 14 1008 8 -3 26 3 40 14 21 17 26 29 26 65
0 62 -14 84 -51 84 -31 0 -31 0 -26 48 2 26 16 74 30 107 58 136 59 323 1 458
-15 34 -29 88 -31 121 -5 56 -4 59 17 53 33 -9 60 25 60 76 0 52 -22 87 -56
87 l-24 0 0 1850 0 1850 -85 0 -85 0 0 -1855z m110 -2310 c17 -83 -4 -285 -30
-285 -31 0 -38 263 -10 339 15 41 23 31 40 -54z"/>
</g>
</svg>
