<?xml version="1.0" standalone="no"?>
<!DOCTYPE svg PUBLIC "-//W3C//DTD SVG 20010904//EN"
 "http://www.w3.org/TR/2001/REC-SVG-20010904/DTD/svg10.dtd">
<svg version="1.0" xmlns="http://www.w3.org/2000/svg"
 width="3542.000000pt" height="3750.000000pt" viewBox="0 0 3542.000000 3750.000000"
 preserveAspectRatio="xMidYMid meet">

<g transform="translate(0.000000,3750.000000) scale(0.100000,-0.100000)"
fill="#3a4548" stroke="none">
<path d="M33229 18638 c-1 -2 -2 -952 -3 -2113 l-2 -2110 -37 -6 c-52 -8 -87
-44 -87 -87 0 -66 47 -113 100 -99 17 4 20 0 21 -26 3 -73 -1 -90 -35 -141
-19 -28 -45 -81 -57 -117 -53 -150 -16 -389 78 -500 7 -8 15 -34 17 -57 4 -47
-10 -62 -58 -62 -33 0 -66 -43 -66 -86 0 -46 45 -96 88 -98 25 -1 32 -5 31
-21 0 -11 3 -968 6 -2127 6 -2027 6 -2108 -12 -2126 -10 -10 -37 -26 -60 -37
-24 -10 -43 -20 -43 -22 0 -1 9 -12 20 -23 37 -37 17 -101 -35 -114 -22 -6
-25 -11 -25 -55 0 -54 -3 -52 95 -65 74 -10 130 -18 175 -25 30 -5 68 -1 115
10 39 9 82 20 98 23 25 6 27 10 27 56 0 39 -4 50 -16 50 -21 0 -74 54 -74 76
0 10 12 30 26 45 l25 27 -51 18 c-29 10 -56 26 -61 36 -5 10 -8 870 -7 2140
l3 2123 38 6 c43 7 74 33 77 64 8 78 -24 122 -84 117 l-36 -4 0 50 c0 40 7 60
34 101 66 98 80 150 80 296 0 145 -14 198 -80 303 -27 41 -34 63 -34 101 l0
48 42 6 c55 7 78 35 78 94 0 57 -33 93 -85 93 l-35 0 0 2120 0 2120 -95 0
c-52 0 -95 -1 -96 -2z m125 -4662 c52 -110 68 -224 46 -326 -11 -50 -60 -160
-71 -160 -13 0 -47 63 -69 130 -30 89 -31 221 -1 304 23 66 46 106 61 106 4 0
20 -24 34 -54z"/>
</g>
</svg>
