<?xml version="1.0" standalone="no"?>
<!DOCTYPE svg PUBLIC "-//W3C//DTD SVG 20010904//EN"
 "http://www.w3.org/TR/2001/REC-SVG-20010904/DTD/svg10.dtd">
<svg version="1.0" xmlns="http://www.w3.org/2000/svg"
 width="3542.000000pt" height="3750.000000pt" viewBox="0 0 3542.000000 3750.000000"
 preserveAspectRatio="xMidYMid meet">

<g transform="translate(0.000000,3750.000000) scale(0.100000,-0.100000)"
fill="#3a4548" stroke="none">
<path d="M34486 18623 c-3 -4 -6 -971 -6 -2149 l0 -2144 -25 -5 c-14 -3 -36
-7 -50 -10 -33 -7 -59 -57 -51 -99 9 -49 40 -76 86 -76 l40 0 0 -62 c0 -47 -5
-67 -19 -82 -28 -29 -76 -132 -90 -191 -16 -64 -16 -197 0 -261 15 -62 50
-142 83 -191 18 -26 26 -51 26 -80 l0 -42 -46 -7 c-55 -8 -79 -38 -78 -98 2
-49 47 -96 94 -96 l30 0 0 -1317 c1 -725 1 -1694 2 -2154 0 -460 -3 -846 -7
-858 -4 -14 -26 -31 -61 -46 l-54 -24 25 -25 c41 -41 28 -87 -31 -112 -32 -13
-34 -17 -34 -63 l0 -48 88 -12 c48 -7 98 -14 112 -17 107 -17 142 -16 230 6
l90 22 0 50 c0 46 -2 50 -30 60 -40 13 -63 58 -50 93 5 14 17 28 25 31 26 10
17 19 -35 38 -28 10 -55 26 -60 36 -7 12 -10 790 -10 2174 l0 2156 42 6 c81
13 111 81 68 152 -18 28 -25 32 -65 32 l-45 0 0 51 c0 38 6 58 24 82 42 55 85
158 97 235 21 127 -11 271 -86 393 -26 43 -35 68 -35 102 0 47 11 57 68 57 26
0 62 51 62 88 0 57 -46 102 -106 102 l-24 0 0 2150 0 2150 -57 1 c-32 1 -74 3
-94 5 -20 2 -39 0 -43 -3z m150 -4783 c32 -78 44 -221 25 -296 -16 -64 -62
-155 -75 -151 -19 6 -65 101 -82 168 -29 112 -8 265 49 358 l20 33 18 -23 c10
-13 30 -53 45 -89z"/>
</g>
</svg>
