<?xml version="1.0" standalone="no"?>
<!DOCTYPE svg PUBLIC "-//W3C//DTD SVG 20010904//EN"
 "http://www.w3.org/TR/2001/REC-SVG-20010904/DTD/svg10.dtd">
<svg version="1.0" xmlns="http://www.w3.org/2000/svg"
 width="3542.000000pt" height="3750.000000pt" viewBox="0 0 3542.000000 3750.000000"
 preserveAspectRatio="xMidYMid meet">

<g transform="translate(0.000000,3750.000000) scale(0.100000,-0.100000)"
fill="#3a4548" stroke="none">
<path d="M8820 16300 l0 -2270 -20 0 c-78 0 -125 -93 -85 -169 16 -32 33 -41
76 -41 28 0 29 -1 29 -52 0 -42 -9 -71 -45 -143 -84 -170 -96 -344 -35 -505
17 -43 44 -96 60 -119 25 -34 30 -51 30 -96 l0 -55 -41 2 c-34 3 -44 -1 -61
-23 -11 -14 -22 -44 -25 -66 -7 -52 26 -93 83 -102 l39 -6 3 -2278 c2 -2125 1
-2278 -15 -2296 -9 -11 -41 -30 -70 -42 l-53 -21 24 -19 c14 -11 28 -28 31
-39 10 -31 -21 -77 -60 -90 -34 -11 -35 -13 -35 -64 l0 -53 38 -7 c20 -4 74
-15 120 -25 84 -18 84 -18 235 6 84 14 153 26 155 28 2 2 6 25 8 52 5 49 5 49
-34 66 -67 30 -77 91 -22 130 20 14 18 15 -33 36 -29 12 -61 31 -70 42 -16 18
-17 174 -17 2304 l0 2285 31 0 c72 0 113 63 88 137 -13 40 -31 55 -77 62 -35
6 -37 8 -40 49 -2 30 3 50 16 70 50 70 91 186 102 285 14 144 -12 277 -76 382
-30 49 -37 70 -38 115 l-1 55 43 6 c47 6 68 27 78 76 14 70 -20 123 -78 123
-15 0 -30 5 -34 12 -4 6 -8 1024 -10 2262 -1 1238 -3 2254 -3 2259 -1 4 -48 7
-106 7 l-105 0 0 -2270z m138 -2727 c46 -90 57 -243 28 -366 -16 -70 -50 -147
-65 -147 -10 0 -35 60 -52 125 -19 74 -16 229 6 295 19 58 52 130 60 130 3 0
13 -17 23 -37z"/>
</g>
</svg>
