<?xml version="1.0" standalone="no"?>
<!DOCTYPE svg PUBLIC "-//W3C//DTD SVG 20010904//EN"
 "http://www.w3.org/TR/2001/REC-SVG-20010904/DTD/svg10.dtd">
<svg version="1.0" xmlns="http://www.w3.org/2000/svg"
 width="3542.000000pt" height="3750.000000pt" viewBox="0 0 3542.000000 3750.000000"
 preserveAspectRatio="xMidYMid meet">

<g transform="translate(0.000000,3750.000000) scale(0.100000,-0.100000)"
fill="#3a4548" stroke="none">
<path d="M11218 18602 l-38 -3 0 -2195 0 -2194 -28 0 c-36 0 -66 -22 -82 -59
-27 -66 17 -141 81 -141 28 0 29 -2 29 -48 0 -35 -9 -65 -34 -112 -108 -203
-102 -478 14 -640 14 -19 20 -44 20 -78 l0 -51 -37 -3 c-47 -4 -74 -39 -75
-97 -1 -52 22 -79 74 -87 l38 -7 0 -2202 c0 -1212 -3 -2210 -6 -2218 -3 -8
-32 -25 -64 -38 l-60 -24 26 -20 c36 -28 35 -71 0 -102 -15 -13 -34 -23 -42
-23 -10 0 -14 -14 -14 -54 0 -62 -11 -55 145 -86 l90 -18 148 25 147 26 0 49
c0 45 -2 49 -34 62 -60 25 -74 81 -31 120 l26 24 -47 18 c-26 10 -55 27 -65
38 -18 19 -19 87 -19 2228 l0 2208 29 0 c17 0 42 10 58 24 24 21 28 32 28 74
0 61 -20 87 -75 96 -38 6 -40 8 -40 42 0 21 12 58 28 88 114 207 115 471 2
646 -27 41 -31 56 -28 102 3 52 3 53 33 50 59 -5 103 80 75 148 -9 23 -22 32
-59 43 l-46 13 -3 2191 -2 2190 -63 -1 c-34 0 -79 -2 -99 -4z m103 -4867 c26
-73 33 -213 14 -300 -15 -69 -45 -138 -60 -137 -18 0 -53 115 -57 187 -3 39 1
102 7 140 16 86 54 190 66 178 5 -5 18 -35 30 -68z"/>
</g>
</svg>
