<?xml version="1.0" standalone="no"?>
<!DOCTYPE svg PUBLIC "-//W3C//DTD SVG 20010904//EN"
 "http://www.w3.org/TR/2001/REC-SVG-20010904/DTD/svg10.dtd">
<svg version="1.0" xmlns="http://www.w3.org/2000/svg"
 width="3542.000000pt" height="3750.000000pt" viewBox="0 0 3542.000000 3750.000000"
 preserveAspectRatio="xMidYMid meet">

<g transform="translate(0.000000,3750.000000) scale(0.100000,-0.100000)"
fill="#C5C3C1" stroke="none">
<path d="M15452 17635 l1 -1014 -71 -38 c-245 -130 -428 -406 -504 -756 -18
-83 -22 -136 -22 -282 -1 -247 14 -319 139 -645 219 -576 355 -938 355 -947 0
-8 -11 -7 -37 2 -150 52 -245 30 -312 -71 -65 -98 -76 -196 -31 -269 25 -41
57 -53 141 -54 54 -1 72 3 94 21 31 24 64 90 65 129 0 23 -5 27 -37 32 -21 2
-44 6 -52 8 -8 3 -17 -13 -26 -44 -7 -27 -24 -60 -38 -74 l-25 -25 -17 26
c-49 75 12 243 106 292 26 13 32 13 58 0 63 -33 211 -261 211 -326 0 -20 10
-49 24 -69 32 -46 111 -259 141 -376 49 -194 53 -470 10 -680 -22 -105 -74
-261 -121 -360 -41 -87 -122 -178 -184 -207 -29 -14 -103 -23 -158 -19 -25 2
-105 87 -133 143 -84 167 -75 347 24 464 37 44 90 68 115 53 31 -20 44 -49 44
-101 -1 -58 -20 -91 -67 -119 -19 -11 -32 -26 -29 -32 6 -15 101 -20 134 -7
89 36 107 222 27 275 -31 20 -116 38 -184 38 -162 1 -277 -231 -224 -453 16
-67 62 -166 95 -202 39 -43 113 -96 146 -103 16 -4 30 -10 30 -13 0 -4 -18
-16 -41 -26 -57 -28 -148 -129 -187 -208 -89 -182 -105 -452 -40 -668 48 -156
152 -303 261 -368 60 -36 118 -54 240 -73 l77 -12 0 -651 c0 -358 -4 -656 -8
-662 -4 -6 -30 -21 -58 -33 l-52 -22 24 -24 c13 -13 24 -33 24 -45 0 -24 -42
-70 -65 -70 -11 0 -15 -11 -15 -49 l0 -49 48 -10 c167 -35 182 -35 312 -13 69
11 128 21 133 21 4 0 7 23 7 50 0 37 -4 50 -14 50 -23 0 -76 50 -76 71 0 11
11 31 25 45 l25 25 -46 19 c-25 11 -52 20 -60 20 -12 0 -14 101 -14 688 l1
687 77 45 c150 88 311 276 396 463 136 298 171 645 96 950 -11 42 -69 209
-129 370 -60 160 -134 360 -164 442 -31 83 -76 203 -101 268 -25 65 -46 119
-46 120 0 1 51 2 113 2 110 0 115 1 156 30 50 34 96 108 112 180 20 89 -20
177 -88 190 -15 3 -47 10 -70 15 -25 6 -52 6 -65 1 -57 -22 -98 -86 -98 -153
l0 -43 57 0 57 0 8 42 c7 44 34 93 50 93 12 0 38 -63 38 -93 0 -49 -34 -121
-76 -163 -52 -53 -84 -63 -117 -37 -37 27 -116 138 -159 221 -32 61 -37 79
-32 112 6 35 3 43 -25 69 -52 48 -147 325 -170 494 -16 113 -13 356 4 464 32
195 126 449 202 541 59 72 115 102 189 102 57 0 66 -3 112 -39 91 -72 142
-182 150 -322 3 -66 0 -99 -13 -140 -29 -85 -124 -173 -170 -155 -21 8 -45 67
-45 109 0 41 36 97 73 115 33 16 35 32 5 33 -23 1 -35 3 -73 14 -27 8 -80 -27
-100 -66 -29 -54 -30 -127 -3 -179 31 -60 72 -80 166 -80 110 0 171 33 228
123 28 43 54 134 54 190 0 65 -30 188 -62 250 -39 78 -122 161 -176 178 -23 7
-42 15 -42 18 0 3 18 14 38 23 184 85 296 373 262 674 -25 225 -92 379 -225
515 -92 94 -198 139 -327 139 l-68 0 0 1000 0 1000 -94 0 -95 0 1 -1015z m341
-1064 c159 -76 287 -259 331 -473 20 -98 21 -299 1 -393 -29 -139 -121 -277
-217 -326 -22 -11 -58 -19 -88 -19 -45 0 -55 4 -95 41 -26 24 -59 70 -78 108
-30 62 -32 72 -32 171 0 89 4 112 23 151 27 55 90 121 111 117 8 -2 24 -19 35
-38 29 -49 28 -133 -2 -183 -12 -21 -22 -42 -22 -48 0 -5 27 -9 60 -9 59 0 60
0 80 39 30 59 34 110 16 174 -20 70 -61 107 -116 107 -21 0 -51 5 -66 11 -43
16 -104 -12 -159 -73 -92 -103 -113 -282 -48 -420 39 -82 104 -155 162 -181
l44 -19 -57 -31 c-106 -57 -180 -166 -254 -378 -50 -143 -91 -372 -92 -516 -1
-37 -3 -44 -11 -31 -25 44 -294 774 -315 858 -14 52 -30 152 -36 221 -24 272
45 571 184 800 66 108 218 261 306 307 151 80 222 87 335 33z m23 -3851 c10
-30 21 -59 25 -65 16 -23 238 -625 252 -686 74 -302 28 -663 -121 -952 -142
-277 -399 -477 -612 -477 -149 0 -318 186 -382 420 -20 73 -23 108 -23 245 1
180 12 242 69 360 40 83 88 141 153 184 62 41 142 44 192 7 74 -55 131 -174
131 -275 0 -110 -55 -228 -127 -272 -35 -22 -36 -22 -50 -3 -37 51 -38 138 -2
202 26 45 25 49 -20 56 -22 3 -46 9 -54 12 -24 9 -59 -69 -65 -141 -6 -76 21
-145 67 -173 41 -25 160 -28 207 -6 105 50 178 229 154 377 -11 74 -59 173
-103 215 -39 37 -104 72 -134 72 -12 0 -25 5 -28 10 -4 6 5 10 20 10 39 0 108
45 165 107 127 139 249 523 250 788 0 68 9 64 36 -15z"/>
</g>
</svg>
