<?xml version="1.0" standalone="no"?>
<!DOCTYPE svg PUBLIC "-//W3C//DTD SVG 20010904//EN"
 "http://www.w3.org/TR/2001/REC-SVG-20010904/DTD/svg10.dtd">
<svg version="1.0" xmlns="http://www.w3.org/2000/svg"
 width="3542.000000pt" height="3750.000000pt" viewBox="0 0 3542.000000 3750.000000"
 preserveAspectRatio="xMidYMid meet">

<g transform="translate(0.000000,3750.000000) scale(0.100000,-0.100000)"
fill="#C5C3C1" stroke="none">
<path d="M24440 17825 l0 -915 -42 0 c-210 0 -387 -120 -489 -330 -99 -204
-105 -503 -15 -685 40 -81 119 -165 185 -197 l44 -21 -51 -23 c-171 -75 -272
-350 -194 -526 44 -101 139 -168 219 -155 96 16 138 29 159 48 51 48 48 162
-6 214 -23 22 -39 28 -89 31 -55 3 -61 1 -61 -16 0 -12 7 -20 16 -20 9 0 29
-14 45 -31 33 -36 39 -91 14 -139 -58 -113 -225 43 -225 209 0 46 28 157 52
204 24 48 80 111 121 136 41 24 146 23 196 -3 124 -65 237 -288 286 -566 30
-166 15 -435 -31 -585 -35 -113 -98 -261 -121 -283 -16 -16 -23 -33 -21 -55 4
-63 -140 -289 -210 -330 -28 -17 -37 -17 -63 -7 -66 28 -135 149 -123 216 7
38 22 64 39 64 21 0 55 -49 61 -91 7 -42 1 -40 79 -24 31 7 33 40 6 94 -29 56
-58 71 -139 71 -79 0 -114 -19 -138 -76 -48 -114 51 -282 181 -308 27 -5 140
18 188 39 21 9 29 33 -100 -285 -275 -673 -326 -805 -344 -893 -105 -497 109
-1023 504 -1241 l67 -38 -2 -621 -3 -622 -55 -27 c-44 -21 -51 -28 -37 -34 10
-4 23 -18 28 -32 12 -31 -10 -69 -46 -78 -22 -5 -25 -12 -25 -50 0 -50 -10
-46 150 -68 94 -13 114 -12 195 2 50 10 95 20 101 24 10 6 11 30 6 76 -1 6 -8
12 -15 12 -19 0 -57 43 -57 65 0 10 9 29 21 41 l20 22 -46 17 c-25 10 -50 26
-55 36 -6 11 -10 253 -10 607 l0 590 88 12 c105 14 139 24 215 62 115 57 245
231 282 376 36 139 34 345 -5 472 -38 127 -127 244 -226 297 l-53 29 42 12
c106 32 192 137 228 281 19 75 20 92 10 155 -13 79 -55 161 -102 200 -44 37
-94 49 -193 45 -87 -4 -88 -4 -122 -41 -31 -35 -34 -43 -34 -100 0 -69 20
-115 64 -143 19 -13 37 -15 80 -10 62 8 71 23 27 43 -19 8 -38 30 -52 58 -19
40 -20 51 -10 83 6 21 19 45 28 54 41 36 143 -34 184 -127 63 -140 -8 -366
-137 -442 -39 -23 -53 -26 -113 -22 -62 3 -73 7 -123 45 -72 54 -127 137 -177
267 -69 178 -101 344 -101 518 0 179 28 317 106 518 36 92 53 125 71 133 26
12 38 45 28 76 -13 41 154 290 205 306 30 9 103 -29 135 -72 55 -72 65 -176
19 -214 -23 -19 -64 26 -71 80 l-6 42 -51 -3 -51 -3 3 -34 c4 -50 31 -101 66
-123 59 -37 189 -6 226 54 53 88 -14 249 -125 299 -50 23 -177 26 -217 5 -16
-8 -28 -10 -28 -5 0 5 51 137 114 292 375 927 366 901 366 1152 0 211 -37 372
-126 552 -89 177 -220 313 -381 396 l-83 42 0 928 0 927 -85 0 -85 0 0 -915z
m86 -988 c356 -120 607 -586 563 -1045 -13 -140 -42 -243 -126 -452 -41 -102
-106 -264 -145 -360 -38 -96 -73 -179 -77 -183 -5 -4 -11 47 -14 115 -9 184
-48 335 -132 513 -55 118 -115 185 -208 230 -40 19 -64 35 -53 35 41 0 120 55
163 114 56 76 77 147 71 245 -6 90 -37 160 -93 210 -50 43 -73 51 -159 51 -64
0 -76 -3 -100 -25 -59 -55 -73 -156 -33 -235 22 -44 23 -45 67 -41 25 1 48 5
51 7 4 2 -4 25 -17 51 -27 52 -30 99 -11 146 22 50 40 61 74 44 64 -34 113
-120 121 -213 8 -110 -48 -230 -138 -294 -21 -15 -47 -22 -91 -23 -52 -2 -69
2 -103 24 -100 63 -165 174 -192 329 -57 330 91 660 344 767 69 29 131 26 238
-10z m-221 -3522 c24 -366 169 -705 335 -780 22 -10 40 -21 40 -25 0 -3 -16
-12 -35 -18 -49 -19 -117 -89 -151 -158 -26 -54 -29 -68 -29 -164 0 -101 1
-108 34 -168 58 -106 141 -157 219 -134 20 6 49 13 63 16 88 18 127 167 69
262 -19 30 -25 33 -71 32 -27 -1 -52 -5 -55 -10 -3 -4 6 -27 20 -51 30 -51 33
-104 10 -153 -21 -44 -28 -48 -61 -30 -41 21 -69 54 -97 116 -48 106 -38 218
29 316 56 81 78 93 160 85 39 -4 84 -14 100 -23 50 -27 130 -119 162 -188 46
-98 57 -160 56 -305 -1 -217 -54 -365 -172 -484 -80 -82 -159 -123 -246 -129
-115 -8 -277 71 -408 197 -83 80 -123 132 -177 234 -140 264 -184 579 -120
846 17 69 309 825 317 818 1 -1 5 -47 8 -102z"/>
</g>
</svg>
