<?xml version="1.0" standalone="no"?>
<!DOCTYPE svg PUBLIC "-//W3C//DTD SVG 20010904//EN"
 "http://www.w3.org/TR/2001/REC-SVG-20010904/DTD/svg10.dtd">
<svg version="1.0" xmlns="http://www.w3.org/2000/svg"
 width="2550.000000pt" height="2700.000000pt" viewBox="0 0 2550.000000 2700.000000"
 preserveAspectRatio="xMidYMid meet">

<g transform="translate(0.000000,2700.000000) scale(0.100000,-0.100000)"
fill="#65340A" stroke="none">
<path d="M10297 14103 c-4 -3 -7 -360 -7 -792 0 -633 -3 -811 -15 -916 -17
-144 -46 -310 -76 -427 -10 -42 -19 -88 -19 -103 0 -41 30 -84 72 -103 30 -14
38 -23 38 -44 0 -20 -5 -28 -18 -28 -10 0 -27 -7 -38 -15 -17 -14 -18 -16 -2
-25 9 -6 19 -24 23 -41 5 -24 2 -36 -16 -55 -12 -13 -28 -24 -36 -24 -7 0 -13
-3 -13 -7 0 -5 -15 -16 -33 -26 l-32 -19 39 -31 c22 -18 49 -37 60 -42 11 -6
25 -23 30 -38 8 -22 6 -33 -13 -58 -13 -17 -21 -32 -19 -34 1 -1 18 -10 36
-19 45 -23 45 -60 -1 -80 -42 -17 -77 -61 -77 -95 0 -14 11 -76 25 -136 73
-325 88 -506 82 -960 -5 -389 -13 -470 -69 -740 -43 -207 -44 -224 -18 -258
12 -15 39 -36 60 -47 30 -15 37 -24 33 -40 -3 -11 -9 -20 -14 -20 -4 0 -20 -5
-34 -10 l-26 -10 20 -26 c12 -15 21 -37 21 -50 0 -24 -31 -64 -50 -64 -6 0
-16 -5 -23 -10 -7 -6 -21 -17 -32 -25 -19 -14 -19 -16 25 -55 25 -22 53 -47
63 -55 23 -20 22 -58 -3 -80 -27 -24 -26 -27 15 -49 50 -27 49 -65 -3 -87 -24
-10 -44 -28 -57 -52 -17 -33 -18 -42 -7 -94 103 -475 96 -343 99 -1746 l4
-1228 -47 -20 -46 -21 21 -19 c34 -32 22 -82 -25 -99 -19 -8 -24 -17 -24 -44
0 -28 8 -40 44 -70 46 -37 95 -47 134 -27 9 5 58 13 107 18 l90 8 3 41 c3 37
-1 45 -27 64 -34 23 -41 59 -16 80 22 18 20 23 -30 58 l-46 32 4 1213 c3 1067
5 1225 20 1322 21 137 53 306 77 408 25 105 8 151 -67 182 -37 15 -46 52 -15
61 9 3 28 10 41 15 l24 10 -22 23 c-12 13 -21 35 -21 54 0 27 6 35 35 49 19 9
35 20 35 25 0 4 6 8 14 8 7 0 19 7 26 16 11 13 8 20 -19 45 -18 16 -46 36 -62
44 -23 12 -29 22 -29 49 0 20 8 40 20 51 24 21 21 28 -25 49 -26 13 -35 23
-35 41 0 18 5 25 19 25 11 0 36 16 56 35 36 33 37 36 32 92 -2 32 -18 123 -35
203 -53 243 -64 364 -69 713 -7 415 14 650 83 955 15 65 26 132 26 149 -2 46
-26 79 -73 97 -30 12 -39 21 -39 40 0 18 7 25 28 29 49 11 57 22 33 46 -11 11
-21 34 -21 49 0 28 26 62 47 62 16 0 73 53 73 67 0 7 -4 13 -10 13 -5 0 -18 8
-28 18 -10 9 -32 24 -48 32 -38 20 -44 62 -15 101 l22 29 -41 16 c-57 23 -56
55 4 83 45 22 69 58 68 104 0 12 -13 85 -30 162 -78 358 -82 424 -82 1323 l0
762 -63 0 c-35 0 -67 -3 -70 -7z"/>
</g>
</svg>
