<?xml version="1.0" standalone="no"?>
<!DOCTYPE svg PUBLIC "-//W3C//DTD SVG 20010904//EN"
 "http://www.w3.org/TR/2001/REC-SVG-20010904/DTD/svg10.dtd">
<svg version="1.0" xmlns="http://www.w3.org/2000/svg"
 width="2550.000000pt" height="2700.000000pt" viewBox="0 0 2550.000000 2700.000000"
 preserveAspectRatio="xMidYMid meet">

<g transform="translate(0.000000,2700.000000) scale(0.100000,-0.100000)"
fill="#65340A" stroke="none">
<path d="M19035 23256 l-50 -43 0 -604 c-2 -661 -5 -710 -66 -1005 -16 -78
-29 -155 -29 -170 1 -36 22 -65 63 -84 43 -20 43 -51 0 -62 -39 -10 -39 -11
-13 -53 l20 -32 -21 -27 c-11 -14 -26 -26 -32 -26 -7 -1 -25 -12 -42 -25 l-30
-25 33 -30 c18 -16 42 -35 52 -40 35 -19 42 -45 20 -73 -27 -34 -25 -42 15
-61 47 -22 47 -52 1 -71 -43 -18 -66 -50 -66 -91 0 -17 11 -82 25 -145 59
-266 68 -362 68 -779 0 -416 -9 -517 -69 -785 -36 -166 -32 -192 37 -224 20
-10 35 -25 37 -37 3 -18 -4 -23 -32 -28 -37 -7 -46 -25 -22 -45 26 -22 26 -52
0 -78 -13 -13 -28 -22 -33 -19 -5 3 -11 -1 -15 -9 -3 -8 -12 -15 -20 -15 -16
0 -31 -30 -19 -40 4 -3 27 -21 51 -39 58 -45 66 -63 42 -94 -26 -33 -26 -36
15 -53 47 -19 47 -49 1 -68 -37 -15 -66 -59 -66 -100 0 -13 11 -75 24 -138 35
-160 56 -300 65 -430 9 -126 13 -1270 5 -1292 -3 -7 -23 -21 -44 -31 l-39 -17
21 -28 c16 -22 18 -32 9 -48 -6 -11 -20 -24 -31 -27 -16 -5 -20 -15 -20 -46 0
-46 -15 -44 193 -27 144 11 147 12 147 35 0 15 -9 27 -25 35 -33 15 -40 43
-19 75 9 15 13 28 8 30 -5 2 -24 12 -42 23 l-34 21 5 677 c4 739 4 741 71
1057 14 66 26 131 26 144 0 26 -62 91 -86 91 -11 0 -14 8 -12 27 2 21 10 29
36 35 38 10 38 12 12 45 -11 14 -20 31 -20 38 0 15 29 42 72 64 39 21 49 56
19 66 -12 3 -21 10 -21 15 0 5 -12 15 -27 22 -44 22 -51 43 -25 77 12 17 22
33 22 36 0 3 -16 13 -36 21 -47 20 -44 52 7 76 65 30 69 61 31 238 -56 262
-72 430 -72 775 0 343 17 517 81 816 27 126 20 159 -40 187 -49 23 -51 62 -3
74 38 10 38 11 12 46 -28 37 -19 56 48 98 l55 36 -30 26 c-16 15 -41 35 -55
44 -38 25 -45 55 -19 82 12 12 21 25 21 28 0 3 -16 15 -35 27 -43 25 -44 46
-6 66 39 20 71 62 71 94 0 14 -12 77 -26 140 -67 298 -68 314 -70 1035 -2 528
-5 662 -16 672 -11 11 -22 5 -63 -30z"/>
</g>
</svg>
