<?xml version="1.0" standalone="no"?>
<!DOCTYPE svg PUBLIC "-//W3C//DTD SVG 20010904//EN"
 "http://www.w3.org/TR/2001/REC-SVG-20010904/DTD/svg10.dtd">
<svg version="1.0" xmlns="http://www.w3.org/2000/svg"
 width="2550.000000pt" height="2700.000000pt" viewBox="0 0 2550.000000 2700.000000"
 preserveAspectRatio="xMidYMid meet">

<g transform="translate(0.000000,2700.000000) scale(0.100000,-0.100000)"
fill="#65340A" stroke="none">
<path d="M20722 25161 l-51 -58 6 -509 c6 -539 0 -698 -38 -959 -29 -203 -33
-222 -43 -247 -4 -9 -5 -21 -2 -27 4 -5 2 -12 -4 -16 -34 -21 14 -116 65 -129
40 -10 32 -43 -15 -62 l-40 -16 20 -25 c11 -14 20 -33 20 -43 0 -17 -39 -60
-56 -60 -17 -1 -67 -48 -60 -58 3 -5 30 -26 60 -46 29 -19 56 -42 59 -50 4 -9
-5 -29 -18 -45 -27 -32 -23 -41 28 -60 37 -14 35 -44 -6 -69 -18 -10 -41 -36
-51 -57 -18 -37 -18 -40 7 -164 57 -279 77 -491 77 -806 0 -240 -11 -405 -41
-615 -11 -80 -22 -154 -23 -165 -2 -11 -8 -39 -15 -63 -7 -23 -9 -47 -6 -52 3
-5 1 -11 -5 -15 -32 -20 5 -102 58 -127 18 -9 27 -21 27 -38 0 -20 -7 -26 -37
-33 l-38 -9 20 -28 c37 -52 25 -78 -57 -120 -49 -25 -54 -45 -18 -62 14 -6 25
-15 25 -20 0 -4 7 -8 15 -8 22 0 55 -37 55 -62 0 -12 -10 -32 -21 -45 l-22
-22 29 -11 c16 -6 35 -13 42 -15 6 -2 12 -16 12 -30 0 -19 -8 -28 -33 -39 -22
-9 -40 -27 -51 -51 -16 -33 -17 -45 -6 -99 6 -33 14 -68 17 -76 3 -8 7 -26 9
-40 2 -14 10 -68 19 -120 35 -214 37 -276 42 -928 5 -724 8 -683 -54 -709 -31
-12 -45 -33 -24 -33 14 0 23 -37 16 -59 -3 -11 -19 -24 -36 -30 -24 -8 -30
-16 -27 -33 3 -22 7 -23 78 -21 223 7 310 15 310 29 0 8 -5 14 -10 14 -14 0
-60 46 -60 60 0 5 9 19 21 31 11 11 19 21 17 22 -2 1 -21 11 -43 22 l-40 20 0
705 c0 765 -1 744 60 1062 36 183 33 207 -31 234 -29 12 -35 19 -32 41 2 19
11 29 33 36 40 13 40 12 15 46 -12 18 -19 39 -16 48 3 10 33 35 66 55 43 26
58 41 54 52 -3 9 -13 16 -20 16 -8 0 -17 6 -20 14 -3 8 -16 17 -30 20 -13 4
-31 18 -40 32 -16 24 -16 27 5 54 11 16 21 32 21 35 0 3 -16 13 -35 21 -43 17
-50 59 -12 73 67 26 76 78 43 241 -57 282 -61 333 -61 785 0 451 5 520 61 807
13 69 24 135 24 147 0 37 -23 71 -57 83 -28 10 -33 17 -31 37 2 19 11 27 36
33 17 5 32 11 32 14 0 3 -9 18 -21 33 -26 35 -18 68 19 84 49 22 82 49 82 68
0 11 -6 19 -13 19 -7 0 -20 9 -30 20 -9 11 -23 20 -32 20 -8 0 -22 11 -30 24
-13 19 -14 28 -4 50 7 14 16 26 21 26 23 0 4 28 -27 39 -46 16 -49 53 -5 76
53 27 71 88 50 165 -5 19 -20 103 -34 185 -14 83 -28 168 -32 190 -4 22 -9
351 -11 732 l-4 692 -24 15 c-22 15 -25 13 -73 -43z"/>
</g>
</svg>
