<?xml version="1.0" standalone="no"?>
<!DOCTYPE svg PUBLIC "-//W3C//DTD SVG 20010904//EN"
 "http://www.w3.org/TR/2001/REC-SVG-20010904/DTD/svg10.dtd">
<svg version="1.0" xmlns="http://www.w3.org/2000/svg"
 width="2550.000000pt" height="2700.000000pt" viewBox="0 0 2550.000000 2700.000000"
 preserveAspectRatio="xMidYMid meet">

<g transform="translate(0.000000,2700.000000) scale(0.100000,-0.100000)"
fill="#65340A" stroke="none">
<path d="M21570 26215 l-44 -45 2 -553 c4 -656 -8 -836 -74 -1163 -18 -88 -22
-129 -15 -146 11 -28 56 -68 77 -68 8 0 14 -10 14 -25 0 -20 -7 -26 -40 -36
l-40 -12 21 -23 c14 -15 19 -32 17 -54 -3 -27 -11 -36 -63 -63 -33 -18 -62
-33 -65 -35 -3 -2 4 -10 15 -18 11 -8 29 -22 40 -32 11 -9 32 -22 48 -29 34
-15 37 -63 7 -93 -20 -20 -20 -20 20 -40 51 -26 53 -56 7 -85 -18 -11 -40 -36
-50 -56 -17 -35 -17 -40 2 -125 56 -252 81 -518 81 -848 0 -344 -19 -554 -75
-848 -17 -86 -22 -135 -16 -150 11 -28 38 -53 69 -63 35 -10 27 -55 -13 -68
-40 -13 -41 -14 -21 -36 28 -30 18 -82 -19 -101 -16 -8 -32 -17 -35 -20 -3 -3
-17 -11 -32 -19 -36 -18 -35 -26 2 -43 17 -7 30 -16 30 -20 0 -4 16 -14 35
-22 28 -12 35 -20 35 -43 0 -16 -7 -39 -16 -51 -19 -27 -13 -39 26 -47 24 -5
30 -12 30 -34 0 -20 -8 -31 -34 -45 -19 -10 -42 -34 -51 -52 -15 -32 -14 -41
9 -157 58 -286 76 -483 76 -854 0 -149 3 -274 8 -276 8 -5 122 9 129 17 3 2 6
157 8 343 3 380 21 561 81 816 24 102 11 145 -53 172 -47 20 -43 55 7 68 46
12 46 12 21 43 -38 48 -25 73 61 119 48 26 54 44 19 61 -13 7 -26 16 -30 21
-3 4 -19 16 -36 25 -37 21 -44 57 -15 83 28 25 26 31 -21 49 -32 13 -40 21
-37 38 2 12 17 29 33 38 17 9 39 32 49 52 l20 35 -33 164 c-51 261 -63 384
-67 714 -5 412 7 568 68 888 36 192 34 207 -35 240 -47 22 -47 43 1 64 20 10
39 19 41 20 3 2 -5 13 -17 26 -12 13 -22 32 -22 44 0 23 29 53 53 53 9 0 17 4
17 9 0 6 12 16 27 23 14 7 28 18 30 23 2 9 -55 53 -82 64 -45 17 -58 66 -25
96 27 24 25 30 -12 46 -59 23 -63 48 -14 78 19 12 42 38 51 58 17 36 17 40
-14 197 -65 337 -65 336 -66 1069 0 580 -2 669 -15 677 -27 18 -45 10 -90 -35z"/>
<path d="M21535 18693 l0 -557 -33 -22 c-18 -13 -38 -24 -43 -26 -6 -2 -3 -17
8 -36 l18 -33 -37 -33 c-35 -30 -46 -54 -33 -68 3 -2 31 -1 62 3 32 5 114 11
183 15 122 6 163 16 124 30 -50 18 -71 68 -39 94 22 18 19 25 -20 39 -19 7
-39 20 -44 29 -5 10 -9 256 -9 560 1 298 -1 544 -3 546 -2 2 -33 7 -69 10
l-65 7 0 -558z"/>
</g>
</svg>
