<?xml version="1.0" standalone="no"?>
<!DOCTYPE svg PUBLIC "-//W3C//DTD SVG 20010904//EN"
 "http://www.w3.org/TR/2001/REC-SVG-20010904/DTD/svg10.dtd">
<svg version="1.0" xmlns="http://www.w3.org/2000/svg"
 width="2550.000000pt" height="2700.000000pt" viewBox="0 0 2550.000000 2700.000000"
 preserveAspectRatio="xMidYMid meet">

<g transform="translate(0.000000,2700.000000) scale(0.100000,-0.100000)"
fill="#65340A" stroke="none">
<path d="M10348 14545 l-66 -71 -5 -534 c-4 -561 -9 -641 -58 -897 -11 -59
-23 -126 -26 -149 -7 -55 17 -103 57 -111 25 -4 30 -10 30 -33 0 -48 -9 -60
-46 -60 l-34 0 21 -21 c15 -15 20 -30 17 -55 -3 -23 0 -34 9 -34 7 0 13 -4 13
-10 0 -9 -20 -16 -70 -23 -18 -2 -9 -7 30 -15 l55 -11 -70 3 c-38 2 -76 2 -82
-1 -24 -9 -13 -33 17 -39 17 -4 30 -13 30 -20 0 -13 23 -19 63 -15 9 1 17 -3
17 -8 0 -6 -4 -11 -8 -11 -5 0 -7 -14 -4 -31 3 -21 -2 -37 -17 -53 l-21 -23
25 -11 c14 -7 32 -12 40 -12 10 0 15 -11 15 -31 0 -37 -14 -65 -40 -79 -16 -9
-19 -8 -14 7 5 15 3 15 -11 -2 -29 -36 -28 -65 3 -229 49 -260 57 -371 57
-801 0 -399 -8 -512 -50 -745 -42 -234 -40 -214 -19 -251 11 -18 31 -36 44
-39 19 -4 26 -13 28 -39 4 -37 -19 -61 -50 -53 -10 2 -18 -1 -18 -7 0 -6 6
-11 14 -11 20 0 27 -51 11 -83 -13 -26 -13 -28 6 -22 10 4 19 2 19 -4 0 -14
-34 -23 -64 -15 -20 5 -26 2 -26 -10 0 -9 -8 -16 -17 -16 -10 0 -24 -4 -31 -9
-17 -10 70 -68 116 -77 18 -4 32 -10 32 -15 0 -5 -7 -6 -16 -2 -13 5 -15 2 -9
-16 5 -16 -1 -32 -20 -56 l-26 -35 25 0 c14 0 28 -5 31 -10 4 -6 11 -8 16 -5
5 4 9 -12 9 -34 0 -30 -4 -41 -15 -41 -8 0 -15 -5 -15 -12 0 -6 -3 -8 -7 -5
-12 12 -42 -25 -49 -59 -3 -18 1 -64 10 -103 21 -93 52 -306 66 -461 7 -83 10
-341 8 -765 l-3 -640 -33 -17 c-19 -9 -37 -19 -40 -23 -10 -10 51 6 64 17 8 5
14 3 18 -7 3 -9 10 -13 16 -10 5 3 10 -1 10 -10 0 -12 -8 -14 -39 -9 -45 7
-51 1 -53 -61 -2 -45 -3 -46 -30 -41 -26 5 -28 3 -28 -29 0 -33 28 -64 43 -48
3 3 14 2 24 -2 10 -5 23 -7 30 -6 6 1 14 -3 18 -9 7 -11 108 -14 119 -3 4 4
23 8 44 10 32 3 79 8 105 12 4 0 7 16 7 34 0 25 -8 38 -35 60 -37 30 -44 57
-20 77 19 16 19 30 1 30 -8 0 -28 12 -45 26 l-31 26 0 626 c0 715 5 803 67
1147 14 77 26 152 26 168 1 41 -22 75 -60 89 -26 10 -33 18 -33 39 0 23 5 28
35 33 44 9 51 20 25 46 -32 32 -23 71 19 92 19 9 37 21 40 25 3 4 15 13 26 19
11 6 20 17 20 25 0 8 -9 15 -20 17 -11 3 -24 10 -28 18 -4 8 -17 14 -27 14
-21 0 -50 35 -50 61 0 9 10 28 21 43 24 31 25 30 -21 42 -28 8 -36 15 -38 37
-3 21 2 29 20 36 29 11 54 38 67 74 9 23 5 58 -18 175 -48 238 -63 390 -68
712 -7 396 10 615 72 935 28 146 22 179 -37 208 -31 15 -38 24 -38 48 0 19 5
29 14 29 8 0 27 5 41 10 l26 10 -20 26 c-37 47 -18 104 33 104 15 0 26 6 26
14 0 8 11 17 25 20 14 4 25 13 25 21 0 8 -11 17 -25 21 -14 3 -25 10 -25 14 0
5 -10 12 -22 16 -58 17 -74 62 -38 106 l19 25 -25 12 c-14 6 -31 11 -39 11
-10 0 -15 10 -15 30 0 25 6 32 35 45 46 19 66 63 55 125 -4 25 -19 110 -33
190 -47 265 -50 313 -56 925 l-6 590 -67 -70z m-98 -4395 c0 -5 -5 -10 -11
-10 -5 0 -7 5 -4 10 3 6 8 10 11 10 2 0 4 -4 4 -10z m-40 -330 c0 -5 -5 -10
-11 -10 -5 0 -7 5 -4 10 3 6 8 10 11 10 2 0 4 -4 4 -10z m55 -10 c3 -5 -1 -10
-10 -10 -9 0 -13 5 -10 10 3 6 8 10 10 10 2 0 7 -4 10 -10z"/>
</g>
</svg>
