<?xml version="1.0" standalone="no"?>
<!DOCTYPE svg PUBLIC "-//W3C//DTD SVG 20010904//EN"
 "http://www.w3.org/TR/2001/REC-SVG-20010904/DTD/svg10.dtd">
<svg version="1.0" xmlns="http://www.w3.org/2000/svg"
 width="2550.000000pt" height="2700.000000pt" viewBox="0 0 2550.000000 2700.000000"
 preserveAspectRatio="xMidYMid meet">

<g transform="translate(0.000000,2700.000000) scale(0.100000,-0.100000)"
fill="#65340A" stroke="none">
<path d="M11978 16326 l-58 -63 0 -484 c0 -341 -5 -527 -15 -629 -17 -174 -33
-280 -45 -295 -13 -16 -44 -164 -45 -210 0 -48 35 -102 71 -111 17 -4 24 -13
24 -29 0 -18 -7 -24 -35 -29 -41 -8 -41 -10 -15 -43 11 -14 20 -33 20 -43 0
-18 -30 -50 -48 -50 -17 0 -77 -58 -69 -67 4 -4 31 -23 60 -43 59 -41 69 -68
36 -101 -21 -21 -21 -23 -4 -36 11 -7 27 -13 37 -13 13 0 18 -8 18 -28 0 -23
-6 -30 -36 -41 -26 -9 -40 -23 -51 -49 -14 -33 -13 -46 16 -186 60 -298 66
-365 66 -786 0 -449 -6 -508 -92 -907 -11 -51 35 -123 78 -123 14 0 19 -7 19
-30 0 -21 -5 -30 -16 -30 -8 0 -24 -5 -35 -11 -18 -9 -19 -12 -6 -27 28 -33
31 -62 6 -88 -12 -13 -27 -24 -33 -24 -6 0 -24 -11 -41 -24 -25 -20 -28 -26
-16 -40 7 -9 19 -16 26 -16 7 0 15 -7 19 -15 3 -8 12 -15 19 -15 38 0 52 -66
22 -100 -21 -23 -21 -22 23 -39 45 -19 45 -55 -2 -75 -19 -8 -42 -26 -52 -40
-19 -31 -17 -55 20 -231 56 -263 59 -309 63 -1019 2 -362 2 -669 -1 -681 -3
-11 -21 -28 -40 -38 -35 -16 -35 -16 -20 -46 18 -37 6 -67 -33 -82 -24 -9 -25
-12 -18 -57 4 -26 8 -57 9 -70 0 -12 4 -22 9 -22 4 0 18 0 30 0 15 0 28 8 34
22 6 15 12 18 17 10 4 -7 2 -12 -4 -12 -6 0 -8 -4 -5 -10 3 -5 19 -10 36 -10
16 0 29 5 29 10 0 6 20 10 44 10 23 0 71 3 105 6 l61 7 0 47 c0 40 -4 49 -30
68 -33 25 -39 56 -14 83 15 16 13 19 -25 39 l-41 20 0 649 c0 721 4 792 65
1096 34 165 34 170 17 205 -12 24 -27 38 -49 45 -27 7 -33 14 -33 37 0 15 4
28 9 28 5 0 21 4 36 10 l26 10 -22 29 c-28 38 -20 74 21 91 16 7 30 16 30 20
0 4 9 10 20 13 42 11 13 61 -56 97 -36 20 -43 59 -14 85 27 25 26 29 -15 45
-49 19 -48 52 3 77 57 28 68 71 42 181 -69 301 -83 471 -77 922 5 389 14 485
71 738 13 59 22 119 19 134 -6 34 -49 78 -74 78 -14 0 -19 7 -19 30 0 17 4 30
9 30 5 0 21 4 36 10 l26 10 -22 29 c-28 38 -20 74 21 91 16 7 30 16 30 21 0 4
9 11 20 14 11 3 20 13 20 22 0 18 -45 63 -64 63 -7 0 -21 9 -30 19 -19 21 -15
51 9 71 24 20 17 36 -17 46 -48 14 -49 46 -3 63 24 8 41 24 52 46 17 36 18 28
-22 215 -55 255 -58 296 -62 963 -3 345 -8 626 -11 626 -4 -1 -33 -29 -64 -63z"/>
</g>
</svg>
