<?xml version="1.0" standalone="no"?>
<!DOCTYPE svg PUBLIC "-//W3C//DTD SVG 20010904//EN"
 "http://www.w3.org/TR/2001/REC-SVG-20010904/DTD/svg10.dtd">
<svg version="1.0" xmlns="http://www.w3.org/2000/svg"
 width="2550.000000pt" height="2700.000000pt" viewBox="0 0 2550.000000 2700.000000"
 preserveAspectRatio="xMidYMid meet">

<g transform="translate(0.000000,2700.000000) scale(0.100000,-0.100000)"
fill="#65340A" stroke="none">
<path d="M14633 18958 l-52 -53 -4 -585 c-4 -631 -7 -684 -64 -945 -46 -212
-41 -251 33 -275 48 -16 47 -51 -1 -74 l-36 -17 21 -26 c35 -45 28 -62 -44
-113 -20 -14 -36 -29 -36 -34 0 -10 48 -56 59 -56 13 0 41 -35 41 -52 0 -8 -9
-27 -20 -41 -20 -26 -20 -26 -1 -36 11 -6 27 -11 35 -11 10 0 16 -9 16 -25 0
-19 -8 -28 -34 -39 -48 -20 -69 -56 -63 -108 2 -24 18 -111 35 -194 51 -246
65 -431 59 -779 -6 -335 -28 -534 -82 -735 -30 -112 -14 -168 57 -192 24 -8
29 -15 26 -37 -2 -17 -10 -27 -23 -29 -33 -6 -38 -18 -20 -46 25 -37 13 -68
-40 -101 -48 -31 -60 -63 -25 -72 11 -3 20 -9 20 -13 0 -4 11 -12 25 -18 35
-16 43 -57 16 -92 l-21 -29 35 -12 c50 -19 49 -54 -4 -75 -35 -14 -51 -32 -64
-75 -3 -9 8 -74 24 -145 34 -154 56 -297 69 -459 13 -159 13 -2100 0 -2124 -5
-10 -23 -24 -39 -31 -29 -11 -30 -14 -16 -33 22 -32 18 -54 -14 -78 -22 -16
-28 -28 -26 -52 4 -57 36 -62 318 -47 4 0 7 15 7 34 0 24 -6 38 -24 49 -32 21
-38 52 -16 79 18 22 18 23 -19 43 l-36 21 0 1104 c0 1221 -3 1155 67 1483 30
143 30 150 14 183 -10 23 -29 40 -51 50 -27 11 -35 20 -35 39 0 14 6 25 13 25
7 0 22 6 32 14 19 14 19 15 2 33 -26 30 -22 69 11 90 15 10 33 23 40 30 7 7
21 17 30 23 16 9 16 11 0 20 -9 6 -24 17 -32 25 -8 8 -19 15 -24 15 -16 0 -42
36 -42 60 0 13 8 32 17 42 15 17 15 20 3 28 -8 6 -23 10 -32 10 -13 0 -18 8
-18 29 0 24 7 33 38 48 54 26 68 63 53 133 -80 359 -92 473 -92 865 0 384 14
530 77 798 14 59 23 118 20 131 -7 30 -54 76 -77 76 -14 0 -19 7 -19 29 0 22
6 31 30 41 34 14 37 22 15 40 -8 7 -15 25 -15 41 0 23 11 37 56 71 51 38 54
43 37 55 -10 7 -22 16 -28 20 -5 5 -22 16 -37 26 -32 20 -37 59 -12 95 15 22
14 23 -15 33 -45 16 -43 54 4 73 22 10 41 27 52 50 16 34 15 40 -5 123 -27
110 -59 290 -72 408 -6 52 -10 349 -10 708 0 339 -3 617 -8 617 -4 0 -31 -24
-59 -52z"/>
</g>
</svg>
