<?xml version="1.0" standalone="no"?>
<!DOCTYPE svg PUBLIC "-//W3C//DTD SVG 20010904//EN"
 "http://www.w3.org/TR/2001/REC-SVG-20010904/DTD/svg10.dtd">
<svg version="1.0" xmlns="http://www.w3.org/2000/svg"
 width="3542.000000pt" height="3750.000000pt" viewBox="0 0 3542.000000 3750.000000"
 preserveAspectRatio="xMidYMid meet">

<g transform="translate(0.000000,3750.000000) scale(0.100000,-0.100000)"
fill="#C5C3C1" stroke="none">
<path d="M20930 17609 l0 -1130 -27 -36 c-22 -28 -25 -38 -15 -51 24 -33 24
-44 6 -78 l-19 -35 28 -24 c34 -30 36 -77 6 -135 -12 -22 -18 -47 -15 -56 4
-11 -9 -36 -38 -71 -25 -29 -50 -70 -57 -90 -10 -32 -9 -41 17 -95 l28 -60
-22 -38 c-39 -68 -27 -117 54 -213 13 -16 24 -38 24 -50 0 -12 7 -35 15 -51
23 -44 19 -93 -10 -124 -30 -32 -30 -35 -8 -68 15 -24 15 -27 -1 -55 -16 -28
-16 -31 1 -59 9 -16 21 -30 25 -30 4 0 8 -353 8 -785 l0 -786 -25 -27 c-29
-32 -30 -34 -10 -73 14 -27 14 -32 -1 -58 -15 -26 -15 -30 1 -54 9 -15 21 -27
26 -27 16 0 10 -83 -8 -102 -9 -10 -17 -36 -17 -56 -1 -29 -12 -51 -48 -97
-63 -80 -67 -101 -30 -174 l31 -57 -25 -43 c-41 -72 -34 -105 43 -195 18 -22
33 -51 33 -65 0 -14 7 -39 15 -55 23 -43 19 -91 -10 -122 -29 -31 -31 -46 -10
-64 8 -7 15 -20 15 -30 0 -10 -7 -23 -15 -30 -21 -18 -19 -34 10 -68 l25 -30
0 -995 c0 -824 -2 -998 -14 -1009 -7 -8 -32 -22 -55 -32 -40 -18 -40 -20 -20
-33 31 -23 22 -72 -18 -98 -28 -17 -32 -26 -33 -62 0 -24 4 -43 10 -43 5 0 57
-7 116 -16 98 -14 113 -14 203 1 53 10 102 18 109 18 19 1 16 87 -3 87 -23 0
-65 45 -65 69 0 11 10 29 22 40 l21 20 -44 20 c-24 10 -49 27 -55 37 -8 14
-11 305 -11 1007 l0 987 23 27 c27 32 30 51 10 78 -12 17 -12 23 0 47 20 38
18 52 -11 79 -13 13 -25 35 -25 49 0 37 34 127 59 158 61 73 75 103 75 158 -1
32 -8 64 -18 79 -15 23 -15 27 4 65 36 71 25 130 -41 216 -21 28 -39 59 -39
70 0 11 -9 36 -20 57 -27 50 -25 87 5 116 28 26 31 57 10 85 -13 17 -13 22 0
42 20 30 19 44 -5 74 -19 24 -20 46 -20 810 0 764 1 786 20 810 23 30 24 48 5
74 -13 17 -13 22 0 42 21 33 19 51 -10 80 -29 28 -33 75 -10 114 8 14 14 34
15 45 0 11 20 45 45 75 67 81 78 141 37 211 -14 24 -13 30 7 71 36 76 26 127
-45 214 -19 23 -34 51 -34 63 0 12 -9 39 -20 61 -27 53 -25 90 5 119 29 27 31
43 9 76 -15 23 -15 27 0 50 21 32 20 47 -4 73 -20 21 -20 35 -20 1157 l0 1135
-85 0 -85 0 0 -1131z m130 -1598 c-5 -9 -16 -25 -24 -36 -16 -20 -16 -20 -41
10 -30 37 -31 43 -3 72 l22 23 27 -26 c21 -20 26 -31 19 -43z m-120 -76 c24
-39 24 -39 -29 -97 -29 -33 -41 -28 -41 17 0 38 27 115 40 115 5 0 18 -16 30
-35z m193 8 c18 -35 27 -96 18 -112 -5 -7 -19 3 -40 30 l-33 41 18 34 c10 19
20 34 21 34 1 0 9 -12 16 -27z m-65 -143 c23 -21 42 -43 42 -47 0 -4 -19 -27
-42 -50 l-42 -43 -48 47 -48 47 42 43 c23 24 45 43 48 43 4 0 25 -18 48 -40z
m-122 -226 c-11 -18 -25 -33 -29 -34 -12 0 -47 81 -47 111 0 42 11 42 56 -2
l42 -41 -22 -34z m189 10 c-9 -24 -20 -44 -23 -44 -8 0 -32 49 -32 64 0 6 15
25 33 44 l32 33 3 -27 c2 -15 -4 -46 -13 -70z m-85 -77 c14 -25 13 -28 -8 -49
l-22 -22 -25 25 -26 25 22 28 c25 31 38 30 59 -7z m-1 -2443 c17 -21 18 -30 9
-48 -25 -48 -30 -50 -59 -15 l-27 33 21 28 c26 34 30 35 56 2z m-106 -114 c15
-16 27 -33 27 -38 0 -4 -20 -27 -44 -51 -46 -45 -56 -42 -56 15 0 28 29 104
39 104 4 0 20 -13 34 -30z m195 -12 c24 -92 19 -109 -22 -62 -33 38 -33 39
-18 71 9 18 19 33 23 33 3 0 11 -19 17 -42z m-67 -115 c53 -59 53 -59 22 -90
-60 -61 -59 -61 -108 -13 l-45 44 42 43 c23 24 47 43 53 43 6 0 22 -12 36 -27z
m-138 -159 l39 -43 -22 -31 c-12 -17 -27 -29 -34 -27 -19 6 -49 92 -42 121 3
14 10 26 14 25 4 0 24 -21 45 -45z m200 -76 l-19 -43 -17 34 c-16 33 -16 33
16 72 l32 38 3 -29 c2 -16 -5 -48 -15 -72z m-82 -65 c7 -19 6 -32 -6 -49 -20
-30 -29 -30 -49 1 -16 24 -16 27 4 55 24 33 36 31 51 -7z"/>
</g>
</svg>
