<?xml version="1.0" standalone="no"?>
<!DOCTYPE svg PUBLIC "-//W3C//DTD SVG 20010904//EN"
 "http://www.w3.org/TR/2001/REC-SVG-20010904/DTD/svg10.dtd">
<svg version="1.0" xmlns="http://www.w3.org/2000/svg"
 width="3542.000000pt" height="3750.000000pt" viewBox="0 0 3542.000000 3750.000000"
 preserveAspectRatio="xMidYMid meet">

<g transform="translate(0.000000,3750.000000) scale(0.100000,-0.100000)"
fill="#C5C3C1" stroke="none">
<path d="M2150 16981 l0 -1500 -30 -33 c-35 -38 -37 -59 -10 -102 19 -32 19
-32 0 -61 -27 -42 -25 -65 11 -104 28 -31 30 -38 26 -90 -7 -87 -22 -128 -64
-176 -110 -130 -123 -172 -78 -257 14 -26 25 -52 25 -59 0 -6 -15 -37 -34 -68
-63 -104 -57 -143 38 -260 48 -59 53 -70 48 -103 -6 -51 3 -79 34 -113 15 -16
30 -43 33 -60 9 -41 2 -85 -12 -85 -15 0 -47 -55 -47 -80 0 -9 7 -23 15 -30
19 -16 19 -64 0 -80 -23 -19 -18 -53 15 -88 l30 -33 0 -1039 0 -1039 -30 -33
c-35 -38 -37 -53 -10 -93 20 -31 18 -58 -6 -83 -18 -18 -18 -46 1 -62 8 -7 15
-18 15 -25 0 -7 9 -15 20 -18 16 -4 20 -14 20 -45 0 -23 -5 -53 -11 -69 -7
-15 -11 -38 -11 -50 1 -14 -27 -57 -73 -115 -94 -117 -99 -137 -55 -227 l32
-67 -39 -65 c-67 -110 -65 -132 26 -242 l60 -73 -6 -55 c-5 -54 -4 -58 32 -98
31 -34 39 -52 43 -92 4 -45 2 -51 -17 -56 -11 -3 -21 -11 -21 -18 0 -7 -7 -18
-15 -25 -20 -16 -19 -39 1 -61 21 -24 21 -65 -1 -89 -22 -24 -14 -59 20 -91
l25 -24 0 -1321 c0 -1288 0 -1321 -19 -1341 -11 -11 -44 -31 -74 -43 l-55 -23
29 -24 c40 -34 39 -75 -2 -114 -17 -16 -40 -29 -50 -29 -16 0 -19 -8 -19 -59
l0 -58 52 -16 c171 -53 155 -52 352 -18 98 17 182 31 187 31 5 0 9 27 9 59 0
55 -2 59 -26 65 -34 9 -74 53 -74 83 0 14 13 37 28 53 l29 28 -64 27 c-34 15
-63 33 -63 41 0 8 -4 14 -10 14 -7 0 -10 447 -10 1323 l1 1322 29 29 c33 32
40 76 15 96 -19 16 -19 54 0 70 25 20 18 64 -15 96 -43 42 -42 106 1 168 22
31 33 60 37 94 3 41 13 60 48 104 87 105 102 197 48 303 -24 48 -24 52 -9 87
20 50 19 134 -4 183 -10 23 -44 68 -75 102 -31 34 -61 77 -67 95 -14 50 -12
138 4 138 15 0 47 51 47 75 0 9 -9 28 -20 42 l-20 26 20 34 c27 46 25 63 -11
102 l-30 34 5 1039 c4 928 7 1040 21 1054 8 9 22 28 30 43 12 25 12 31 -6 60
-24 39 -24 52 0 82 10 13 17 32 16 41 -4 24 -38 67 -52 68 -9 0 -13 16 -13 48
0 37 7 59 34 100 34 53 53 113 41 132 -3 6 15 35 40 67 61 74 76 105 82 167 4
45 1 59 -30 118 l-35 67 20 41 c27 53 26 124 -1 177 -11 23 -45 68 -74 100
-32 35 -58 74 -65 99 -16 55 -16 134 1 134 16 0 47 55 47 85 0 12 -7 28 -15
35 -8 7 -15 23 -15 35 0 12 7 28 15 35 23 19 18 59 -11 97 l-26 34 0 1500 0
1499 -114 0 -114 0 0 -1499z m142 -2016 c13 -29 1 -80 -20 -80 -7 0 -21 13
-32 30 -19 29 -19 29 2 52 27 29 36 29 50 -2z m-117 -139 l26 -38 -53 -57
c-29 -32 -57 -56 -62 -53 -14 8 2 89 29 143 15 28 28 49 30 47 2 -2 15 -21 30
-42z m244 -22 c12 -30 21 -66 21 -81 0 -22 -2 -24 -15 -13 -9 7 -29 30 -45 50
-29 37 -30 39 -15 74 9 20 20 34 25 31 5 -3 18 -30 29 -61z m-74 -148 l60 -54
-60 -61 c-33 -34 -62 -60 -66 -59 -3 2 -32 27 -64 56 l-58 53 59 60 c32 32 61
59 64 59 3 0 32 -24 65 -54z m-172 -290 c-17 -19 -36 -42 -41 -52 -34 -61 -94
125 -61 188 11 20 14 17 72 -40 l60 -61 -30 -35z m285 72 c-5 -70 -23 -128
-39 -128 -4 0 -19 21 -34 46 l-27 45 26 32 c14 18 34 42 43 54 30 37 36 26 31
-49z m-139 -157 c17 -21 31 -43 31 -48 0 -5 -18 -27 -40 -48 l-41 -40 -34 40
c-19 22 -34 44 -35 50 0 11 70 85 81 85 4 0 21 -18 38 -39z m-24 -3276 c15
-35 7 -85 -14 -85 -10 0 -51 53 -51 66 0 8 40 54 47 54 2 0 11 -16 18 -35z
m115 -124 c10 -22 22 -59 26 -83 l6 -43 -46 45 -47 46 16 37 c8 20 17 37 20
37 2 0 14 -18 25 -39z m-227 -5 c15 -19 27 -40 27 -46 0 -19 -107 -123 -119
-116 -16 10 -14 67 5 111 18 44 44 85 53 85 3 0 18 -16 34 -34z m171 -167 c31
-28 56 -56 56 -63 0 -6 -24 -38 -53 -71 l-54 -59 -66 59 c-37 32 -67 59 -67
60 0 5 116 122 122 124 3 0 32 -22 62 -50z m-191 -205 l58 -54 -47 -55 c-46
-54 -47 -55 -67 -38 -42 37 -62 137 -37 184 16 29 30 23 93 -37z m297 -47 c-8
-53 -28 -107 -39 -107 -4 0 -17 22 -29 49 l-24 49 44 56 c42 54 43 55 50 30 4
-14 3 -49 -2 -77z m-132 -127 c31 -46 28 -71 -14 -111 l-36 -34 -38 44 -38 44
41 49 c22 27 45 47 51 45 6 -2 21 -18 34 -37z"/>
</g>
</svg>
