<?xml version="1.0" standalone="no"?>
<!DOCTYPE svg PUBLIC "-//W3C//DTD SVG 20010904//EN"
 "http://www.w3.org/TR/2001/REC-SVG-20010904/DTD/svg10.dtd">
<svg version="1.0" xmlns="http://www.w3.org/2000/svg"
 width="3542.000000pt" height="3750.000000pt" viewBox="0 0 3542.000000 3750.000000"
 preserveAspectRatio="xMidYMid meet">

<g transform="translate(0.000000,3750.000000) scale(0.100000,-0.100000)"
fill="#C5C3C1" stroke="none">
<path d="M23440 17633 c0 -1094 -1 -1119 -20 -1143 -23 -30 -24 -48 -5 -74 13
-17 13 -22 0 -42 -21 -32 -19 -47 10 -78 30 -33 33 -81 5 -116 -11 -14 -20
-40 -20 -59 0 -26 -12 -50 -46 -93 -59 -76 -65 -110 -29 -181 l28 -55 -21 -35
c-13 -20 -22 -51 -22 -75 0 -34 8 -51 50 -103 28 -34 50 -72 50 -83 1 -12 7
-32 15 -46 22 -39 18 -85 -10 -116 -29 -31 -31 -46 -10 -78 13 -20 13 -25 0
-42 -20 -26 -19 -46 5 -72 20 -21 20 -35 20 -797 l0 -776 -22 -30 c-22 -29
-22 -31 -5 -61 16 -28 16 -33 2 -54 -21 -32 -19 -48 10 -75 30 -29 32 -73 5
-114 -11 -16 -20 -45 -20 -63 0 -24 -13 -50 -50 -98 -59 -77 -62 -102 -23
-173 l28 -49 -23 -40 c-39 -70 -31 -107 45 -196 18 -22 33 -51 33 -65 1 -14 7
-37 15 -51 22 -39 18 -82 -10 -109 -29 -27 -31 -48 -9 -79 14 -20 14 -24 0
-44 -22 -30 -20 -50 5 -77 l22 -23 4 -971 c3 -785 2 -976 -9 -995 -7 -14 -32
-33 -56 -43 l-42 -19 20 -20 c34 -34 22 -79 -27 -99 -25 -10 -29 -17 -29 -52
0 -45 -11 -41 146 -62 63 -8 121 -10 145 -6 22 5 66 13 98 19 l57 11 0 38 c0
30 -5 40 -24 49 -14 6 -33 23 -42 37 -16 25 -16 27 5 55 11 16 21 31 21 33 0
2 -18 10 -41 17 -22 8 -44 21 -50 31 -11 22 -13 1989 -1 1989 4 0 15 12 24 28
15 25 15 29 0 55 -14 22 -14 31 -4 47 17 28 15 53 -8 78 -41 43 -21 135 47
221 56 71 70 116 53 176 -7 25 -17 48 -21 51 -5 3 1 23 12 46 37 73 24 153
-36 218 -26 28 -64 125 -72 182 -4 28 0 45 17 68 21 29 22 35 10 71 -10 30
-11 42 -2 51 18 18 14 52 -8 76 -20 21 -20 35 -20 792 l0 771 22 29 c20 27 20
33 8 70 -10 31 -11 43 -2 52 18 18 14 52 -9 77 -17 18 -20 31 -16 64 9 77 19
102 59 149 70 85 83 151 41 215 -15 22 -15 27 5 62 23 40 28 103 13 143 -5 13
-25 43 -45 67 -20 23 -36 53 -36 65 0 12 -9 39 -20 61 -11 22 -20 54 -20 73 0
19 8 42 20 54 21 23 27 63 10 73 -5 3 -10 17 -10 30 0 13 5 27 10 30 16 10 12
40 -10 68 -20 25 -20 40 -20 1141 l0 1116 -85 0 -85 0 0 -1117z m119 -1537
c25 -27 23 -52 -8 -80 -17 -16 -20 -15 -45 14 l-26 32 21 29 c25 35 29 36 58
5z m-101 -122 l24 -36 -38 -39 c-21 -22 -41 -39 -45 -39 -23 0 -13 105 13 138
15 18 21 15 46 -24z m198 -5 c15 -40 18 -99 5 -99 -5 0 -23 16 -40 35 l-31 35
18 35 c20 41 32 40 48 -6z m-68 -132 l42 -43 -45 -44 -45 -44 -47 47 -47 47
39 40 c21 22 44 40 50 40 6 0 30 -19 53 -43z m-144 -139 c20 -23 36 -44 36
-47 -1 -3 -11 -19 -24 -35 l-24 -29 -21 41 c-21 42 -29 112 -12 112 5 0 26
-19 45 -42z m212 -42 c-4 -18 -12 -41 -20 -51 -13 -18 -15 -17 -31 14 l-17 33
34 35 c36 38 45 30 34 -31z m-90 -108 c3 -12 -1 -27 -12 -39 -22 -25 -28 -24
-49 7 -16 25 -16 27 6 50 24 26 43 20 55 -18z m14 -2429 c0 -9 -9 -27 -20 -40
l-20 -24 -25 28 c-30 34 -31 37 -4 71 l21 27 24 -22 c13 -12 24 -30 24 -40z
m-118 -88 l27 -38 -44 -43 c-25 -24 -48 -41 -51 -37 -21 21 9 158 34 157 4 0
19 -18 34 -39z m194 -6 c7 -19 14 -51 14 -71 0 -32 -2 -35 -15 -24 -9 7 -25
26 -36 41 -19 26 -19 30 -4 59 8 16 18 30 21 30 3 0 12 -16 20 -35z m-62 -127
c20 -24 36 -45 36 -48 0 -3 -19 -25 -43 -48 l-43 -42 -44 45 -44 45 44 45 c24
25 47 45 51 45 4 0 23 -19 43 -42z m-125 -217 c-12 -17 -26 -31 -31 -31 -25 0
-58 101 -44 137 6 14 14 10 53 -29 l45 -46 -23 -31z m175 1 c-17 -45 -17 -45
-30 -21 -19 34 -17 43 14 80 26 32 27 32 30 10 2 -13 -4 -44 -14 -69z m-80
-75 c13 -36 -14 -68 -42 -51 -24 16 -27 42 -6 65 22 24 36 20 48 -14z"/>
</g>
</svg>
