<?xml version="1.0" standalone="no"?>
<!DOCTYPE svg PUBLIC "-//W3C//DTD SVG 20010904//EN"
 "http://www.w3.org/TR/2001/REC-SVG-20010904/DTD/svg10.dtd">
<svg version="1.0" xmlns="http://www.w3.org/2000/svg"
 width="3542.000000pt" height="3750.000000pt" viewBox="0 0 3542.000000 3750.000000"
 preserveAspectRatio="xMidYMid meet">

<g transform="translate(0.000000,3750.000000) scale(0.100000,-0.100000)"
fill="#C5C3C1" stroke="none">
<path d="M33190 17361 l0 -1280 -25 -27 c-29 -32 -31 -46 -8 -84 15 -27 15
-30 0 -54 -24 -36 -21 -50 14 -91 38 -43 35 -74 -12 -140 -26 -36 -30 -51 -27
-82 4 -34 0 -45 -44 -100 -75 -95 -80 -139 -23 -224 30 -46 30 -49 5 -99 -38
-74 -24 -121 70 -228 26 -29 40 -56 44 -86 4 -23 9 -55 12 -70 4 -21 -2 -35
-26 -59 -33 -34 -39 -67 -15 -87 19 -16 19 -39 -1 -61 -20 -22 -13 -55 16 -86
20 -22 20 -30 20 -903 l0 -881 -25 -33 c-29 -39 -30 -48 -8 -82 15 -24 15 -27
0 -54 -23 -38 -21 -52 9 -85 35 -38 35 -94 0 -136 -31 -36 -41 -69 -32 -105 6
-21 -2 -36 -40 -82 -84 -103 -87 -128 -26 -228 l31 -49 -25 -42 c-42 -73 -30
-137 41 -203 40 -38 63 -80 71 -135 12 -77 10 -88 -19 -119 -31 -33 -34 -61
-10 -88 17 -19 17 -21 0 -50 -22 -39 -22 -45 8 -84 l25 -33 0 -1125 c0 -949
-2 -1127 -14 -1139 -8 -7 -35 -21 -60 -31 l-46 -18 25 -30 c14 -16 25 -36 25
-45 0 -19 -54 -73 -74 -73 -12 0 -16 -11 -16 -49 0 -57 -17 -50 189 -77 l133
-17 94 23 94 23 0 48 c0 44 -3 49 -25 55 -27 7 -65 48 -65 71 0 8 13 27 28 43
l28 28 -48 17 c-27 9 -55 24 -63 32 -13 12 -15 168 -15 1139 l0 1125 25 33
c29 39 30 48 8 82 -15 24 -15 27 0 54 23 38 21 51 -11 88 -46 52 -32 130 39
208 26 29 56 68 65 86 21 40 21 116 0 156 -15 28 -14 33 8 74 50 90 43 149
-29 247 -32 43 -45 71 -45 94 0 19 -12 52 -29 79 -40 63 -43 114 -8 152 32 34
33 44 10 84 -16 28 -16 31 0 55 23 35 21 50 -8 85 l-25 30 0 881 0 882 25 27
c28 30 32 64 10 82 -8 7 -15 20 -15 30 0 10 7 23 15 30 23 19 18 52 -11 84
-24 26 -26 33 -21 92 4 59 8 67 55 120 28 31 58 72 67 90 20 42 19 107 -2 151
-14 30 -14 38 -3 57 66 103 59 175 -26 274 -26 31 -34 49 -34 80 0 27 -9 53
-30 83 -38 57 -40 109 -5 151 29 35 31 50 8 84 -15 24 -15 27 0 54 23 38 21
52 -8 84 l-25 27 0 1280 0 1279 -95 0 -95 0 0 -1279z m139 -1785 c36 -37 35
-51 -12 -94 l-24 -23 -32 36 c-17 20 -31 41 -31 47 0 12 49 68 60 68 3 0 21
-15 39 -34z m-131 -136 c17 -21 32 -41 32 -43 0 -8 -92 -97 -100 -97 -12 0
-21 66 -14 97 9 36 32 83 42 83 4 0 22 -18 40 -40z m235 13 c20 -39 29 -97 21
-129 l-7 -27 -42 48 -42 49 26 43 c14 23 27 43 28 43 1 0 9 -12 16 -27z m-78
-173 l50 -50 -53 -52 -52 -53 -50 50 c-27 27 -50 53 -50 58 0 9 90 96 100 97
3 0 28 -23 55 -50z m-167 -163 c23 -23 42 -47 42 -52 -1 -6 -11 -23 -24 -39
l-24 -29 -21 41 c-23 45 -38 122 -24 122 5 0 28 -19 51 -43z m247 -9 c-10 -47
-36 -108 -45 -108 -4 0 -13 13 -20 30 -12 28 -10 33 21 69 42 48 53 51 44 9z
m-121 -151 c8 -21 6 -31 -7 -44 -15 -16 -18 -15 -36 2 -20 17 -20 19 -4 46 20
34 34 33 47 -4z m46 -2785 c0 -19 -39 -72 -52 -72 -6 0 -25 17 -43 37 l-32 38
31 37 31 37 33 -31 c17 -18 32 -38 32 -46z m-156 -98 l38 -46 -48 -49 c-26
-27 -51 -49 -55 -49 -17 0 -30 69 -20 107 9 32 36 83 44 83 2 0 20 -21 41 -46z
m230 9 c19 -38 29 -109 19 -127 -7 -13 -16 -8 -46 29 l-38 45 20 29 c12 16 21
34 21 40 0 19 9 12 24 -16z m-69 -173 l49 -50 -44 -45 c-24 -25 -48 -45 -53
-45 -11 0 -100 79 -106 93 -3 8 87 95 99 97 3 0 28 -22 55 -50z m-166 -163
c20 -21 37 -42 38 -46 1 -3 -9 -19 -23 -36 l-24 -30 -19 24 c-25 32 -44 97
-36 122 8 23 16 19 64 -34z m236 -9 c-4 -13 -9 -32 -12 -43 -3 -11 -12 -31
-20 -44 l-16 -24 -12 29 c-11 26 -9 32 19 66 35 43 50 48 41 16z m-119 -142
c3 -13 0 -34 -6 -46 l-12 -22 -21 20 c-19 20 -19 22 -3 46 21 32 34 33 42 2z"/>
</g>
</svg>
