<?xml version="1.0" standalone="no"?>
<!DOCTYPE svg PUBLIC "-//W3C//DTD SVG 20010904//EN"
 "http://www.w3.org/TR/2001/REC-SVG-20010904/DTD/svg10.dtd">
<svg version="1.0" xmlns="http://www.w3.org/2000/svg"
 width="3542.000000pt" height="3750.000000pt" viewBox="0 0 3542.000000 3750.000000"
 preserveAspectRatio="xMidYMid meet">

<g transform="translate(0.000000,3750.000000) scale(0.100000,-0.100000)"
fill="#C5C3C1" stroke="none">
<path d="M10027 18584 c-3 -3 -6 -611 -6 -1351 -1 -1327 -1 -1344 -21 -1365
-29 -31 -34 -56 -16 -83 20 -31 20 -59 1 -75 -23 -19 -18 -42 15 -78 24 -26
30 -42 30 -75 -1 -23 -7 -53 -15 -67 -8 -14 -14 -36 -15 -49 0 -13 -26 -55
-60 -97 -76 -95 -83 -125 -44 -206 l28 -59 -32 -63 c-18 -35 -32 -77 -32 -93
0 -31 28 -79 86 -147 27 -32 34 -48 34 -83 0 -30 8 -55 25 -81 28 -41 36 -122
12 -122 -14 0 -47 -50 -47 -73 0 -8 7 -20 15 -27 19 -16 19 -44 -1 -75 -18
-27 -13 -52 16 -82 18 -20 19 -50 25 -952 l7 -932 -26 -25 c-33 -34 -41 -61
-23 -82 24 -28 25 -46 5 -80 -19 -31 -19 -34 -2 -60 9 -15 23 -31 31 -35 18
-11 17 -91 -3 -129 -9 -17 -13 -39 -11 -49 4 -13 -9 -37 -36 -70 -103 -126
-110 -151 -63 -240 l28 -54 -31 -54 c-57 -95 -54 -113 37 -230 45 -57 49 -68
45 -102 -5 -31 -1 -45 21 -73 37 -49 36 -104 -4 -148 -35 -38 -36 -44 -10 -83
19 -29 19 -30 -1 -63 l-19 -34 21 -34 c11 -19 25 -34 30 -34 5 0 9 -473 9
-1188 0 -1162 0 -1189 -19 -1209 -11 -12 -40 -29 -65 -38 -25 -10 -46 -19 -46
-21 0 -2 11 -14 25 -28 41 -41 26 -91 -35 -116 -29 -12 -31 -15 -28 -63 l3
-51 110 -24 c119 -27 95 -28 350 13 76 13 75 11 72 63 -2 43 -5 48 -36 63 -44
20 -64 59 -51 94 5 14 17 28 25 31 26 10 17 21 -40 45 -34 14 -57 30 -62 43
-12 38 -7 2380 6 2384 6 2 11 9 11 15 0 6 8 19 17 30 17 18 16 20 -4 56 l-21
37 20 33 c21 33 21 34 3 67 -10 19 -24 34 -32 34 -24 0 -16 90 12 135 14 22
25 52 25 68 0 17 16 47 44 81 79 98 95 190 46 273 -20 33 -20 33 1 86 34 85
16 158 -61 241 -44 48 -80 134 -80 191 0 31 7 47 30 69 35 35 37 49 10 83
l-20 26 20 35 c23 38 20 57 -12 92 l-22 24 2 934 2 933 25 27 c28 30 32 64 10
82 -8 7 -15 23 -15 35 0 12 7 28 15 35 8 7 15 19 15 27 0 23 -33 73 -47 73
-23 0 -15 77 11 123 14 23 27 60 30 81 7 40 10 47 58 104 63 74 73 148 32 230
l-26 53 21 49 c38 88 21 154 -63 246 -25 29 -46 59 -46 67 0 8 -7 31 -15 50
-19 45 -20 117 -2 117 7 0 21 16 31 35 19 34 19 36 0 70 -18 33 -18 36 -1 64
23 39 22 51 -8 83 l-25 27 0 1351 0 1350 -98 0 c-54 0 -101 -3 -105 -6z m133
-3168 c10 -20 10 -31 0 -55 -15 -37 -25 -39 -51 -8 -23 28 -24 45 -2 69 22 24
37 23 53 -6z m-115 -127 l27 -41 -48 -49 c-26 -26 -52 -45 -57 -42 -14 8 0 87
23 133 11 22 22 40 24 40 2 0 16 -19 31 -41z m218 5 c19 -40 34 -124 22 -124
-4 0 -24 19 -45 42 l-37 42 16 38 c9 21 19 38 22 38 3 0 13 -16 22 -36z m-63
-164 l55 -50 -55 -55 -56 -55 -58 51 -57 52 52 53 c30 30 56 54 59 54 3 0 30
-23 60 -50z m-177 -170 c26 -27 47 -52 47 -55 0 -10 -63 -85 -70 -85 -11 0
-50 96 -50 122 0 30 11 68 19 68 3 0 28 -22 54 -50z m277 -3 c0 -41 -16 -97
-34 -122 -13 -18 -15 -16 -35 24 l-22 43 28 35 c15 19 32 41 38 48 14 20 25 8
25 -28z m-126 -164 c27 -39 25 -53 -13 -87 -25 -22 -42 -17 -69 22 l-21 29 30
36 c17 21 34 37 39 37 5 0 20 -16 34 -37z m1 -2941 c6 -24 -17 -72 -35 -72 -9
0 -50 53 -50 66 0 4 10 18 21 30 17 19 25 21 40 11 10 -6 21 -22 24 -35z m-95
-147 c0 -6 -23 -35 -50 -65 -42 -45 -52 -52 -61 -40 -20 30 11 150 45 172 11
7 65 -48 66 -67z m192 20 c10 -26 18 -62 16 -78 l-3 -30 -38 46 c-37 45 -38
48 -26 82 7 19 17 34 22 32 6 -2 18 -25 29 -52z m-12 -195 c0 -3 -23 -29 -51
-58 l-50 -52 -60 52 -60 52 58 58 57 58 53 -52 c29 -29 53 -55 53 -58z m-223
-122 l52 -53 -38 -45 c-35 -40 -40 -43 -56 -30 -24 20 -45 72 -45 110 0 33 15
70 28 70 4 0 31 -24 59 -52z m248 -89 c-9 -27 -20 -49 -23 -49 -4 0 -17 18
-29 40 l-21 40 41 51 42 51 3 -42 c2 -22 -4 -63 -13 -91z m-105 -71 c27 -44
25 -56 -11 -90 l-31 -30 -29 34 c-15 18 -28 37 -29 43 0 11 61 75 72 75 5 0
17 -15 28 -32z"/>
</g>
</svg>
