<?xml version="1.0" standalone="no"?>
<!DOCTYPE svg PUBLIC "-//W3C//DTD SVG 20010904//EN"
 "http://www.w3.org/TR/2001/REC-SVG-20010904/DTD/svg10.dtd">
<svg version="1.0" xmlns="http://www.w3.org/2000/svg"
 width="2550.000000pt" height="2700.000000pt" viewBox="0 0 2550.000000 2700.000000"
 preserveAspectRatio="xMidYMid meet">

<g transform="translate(0.000000,2700.000000) scale(0.100000,-0.100000)"
fill="#3a4548" stroke="none">
<path d="M8740 15960 l0 -350 -50 0 -50 0 0 -1224 0 -1223 41 -7 c22 -4 44 -4
50 -1 5 4 9 -32 9 -89 l0 -96 -50 0 -50 0 0 -1105 0 -1105 50 0 50 0 0 -370 0
-370 -41 -20 c-40 -21 -40 -22 -23 -41 14 -15 15 -24 6 -43 -6 -13 -20 -27
-32 -31 -17 -5 -20 -13 -18 -38 l3 -32 125 -3 c69 -1 144 1 165 6 34 6 41 12
43 35 3 20 -4 33 -22 48 -30 23 -33 45 -10 70 14 15 12 18 -23 35 l-38 19 -3
376 -2 377 22 6 c13 3 33 6 46 6 l22 0 0 1085 0 1085 -45 0 -45 0 0 95 0 95
45 0 45 0 0 1225 0 1225 -45 0 -45 0 -2 353 -3 352 -62 3 -63 3 0 -351z m96
-450 l24 0 0 -1135 0 -1135 -55 3 -55 2 0 1139 0 1139 31 -7 c17 -3 42 -6 55
-6z m0 -2640 l24 0 0 -995 c0 -788 -3 -996 -12 -999 -7 -3 -32 -7 -55 -9 l-43
-5 0 1010 0 1011 31 -7 c17 -3 42 -6 55 -6z"/>
</g>
</svg>
