<?xml version="1.0" standalone="no"?>
<!DOCTYPE svg PUBLIC "-//W3C//DTD SVG 20010904//EN"
 "http://www.w3.org/TR/2001/REC-SVG-20010904/DTD/svg10.dtd">
<svg version="1.0" xmlns="http://www.w3.org/2000/svg"
 width="2550.000000pt" height="2700.000000pt" viewBox="0 0 2550.000000 2700.000000"
 preserveAspectRatio="xMidYMid meet">

<g transform="translate(0.000000,2700.000000) scale(0.100000,-0.100000)"
fill="#3a4548" stroke="none">
<path d="M1850 13000 l0 -590 -85 0 -85 0 0 -1355 0 -1355 85 0 85 0 0 -95 0
-95 -85 0 -85 0 2 -1202 3 -1203 60 -3 c33 -1 70 -4 83 -7 l22 -5 -2 -778 -3
-777 -48 -26 c-35 -19 -44 -28 -33 -32 28 -11 31 -55 5 -83 -12 -13 -28 -24
-36 -24 -9 0 -13 -13 -13 -40 0 -37 2 -40 28 -41 15 0 63 -4 107 -8 78 -8 125
-2 248 30 34 9 37 13 37 45 0 24 -5 37 -17 41 -53 18 -67 59 -33 93 19 19 19
21 3 27 -10 3 -33 12 -50 19 l-33 13 0 764 0 764 79 -1 c44 -1 82 1 85 4 3 4
6 548 6 1210 l1 1205 -85 3 -86 3 0 104 0 104 85 3 c47 2 85 6 85 11 0 4 0
608 0 1342 l0 1335 -85 0 -85 0 0 583 c0 440 -3 586 -12 595 -7 7 -40 12 -80
12 l-68 0 0 -590z m195 -1945 l0 -1240 -117 -3 -118 -3 0 1246 0 1246 118 -3
117 -3 0 -1240z m3 -2759 l2 -1098 -112 7 c-62 4 -116 9 -120 12 -5 2 -8 495
-8 1094 l0 1090 118 -3 117 -3 3 -1099z"/>
</g>
</svg>
