<?xml version="1.0" standalone="no"?>
<!DOCTYPE svg PUBLIC "-//W3C//DTD SVG 20010904//EN"
 "http://www.w3.org/TR/2001/REC-SVG-20010904/DTD/svg10.dtd">
<svg version="1.0" xmlns="http://www.w3.org/2000/svg"
 width="2550.000000pt" height="2700.000000pt" viewBox="0 0 2550.000000 2700.000000"
 preserveAspectRatio="xMidYMid meet">

<g transform="translate(0.000000,2700.000000) scale(0.100000,-0.100000)"
fill="#3a4548" stroke="none">
<path d="M7620 16021 l0 -360 -52 -3 -52 -3 -1 -1275 0 -1275 53 -3 52 -3 0
-94 0 -94 -52 -3 -53 -3 0 -1135 1 -1135 52 -3 52 -3 0 -377 c0 -207 -4 -382
-8 -388 -4 -5 -22 -16 -39 -23 -38 -15 -38 -17 -18 -37 24 -24 18 -53 -15 -72
-23 -13 -30 -24 -30 -49 l0 -32 108 -3 c59 -2 139 2 177 7 69 10 70 11 73 42
3 26 -2 34 -25 45 -33 16 -41 49 -17 72 19 20 20 19 -29 39 l-37 16 2 393 3
393 30 3 c17 1 40 5 53 7 l22 5 0 1115 0 1115 -55 0 -55 0 0 100 0 100 55 0
55 0 0 1275 0 1275 -55 0 -55 0 0 365 0 365 -70 0 -70 0 0 -359z m140 -1641
l0 -1180 -65 0 -65 0 0 1180 0 1180 65 0 65 0 0 -1180z m0 -2594 c0 -564 -3
-1027 -7 -1029 -5 -3 -34 -8 -65 -12 l-58 -7 0 1036 0 1036 65 0 65 0 0 -1024z"/>
</g>
</svg>
