<?xml version="1.0" standalone="no"?>
<!DOCTYPE svg PUBLIC "-//W3C//DTD SVG 20010904//EN"
 "http://www.w3.org/TR/2001/REC-SVG-20010904/DTD/svg10.dtd">
<svg version="1.0" xmlns="http://www.w3.org/2000/svg"
 width="2550.000000pt" height="2700.000000pt" viewBox="0 0 2550.000000 2700.000000"
 preserveAspectRatio="xMidYMid meet">

<g transform="translate(0.000000,2700.000000) scale(0.100000,-0.100000)"
fill="#3a4548" stroke="none">
<path d="M24370 26590 l0 -410 -22 -4 c-13 -3 -50 -8 -83 -11 -33 -3 -79 -8
-102 -11 l-43 -6 0 -1448 0 -1448 21 -5 c11 -3 60 -1 107 4 48 5 95 9 105 9
15 0 17 -12 17 -109 0 -125 8 -116 -105 -126 -38 -3 -87 -8 -108 -11 l-37 -6
2 -1306 3 -1307 123 4 122 3 0 -829 c0 -778 -1 -831 -18 -846 -9 -8 -30 -20
-45 -26 -27 -10 -27 -12 -13 -33 24 -35 20 -65 -14 -90 -16 -12 -30 -29 -30
-37 0 -14 20 -15 172 -10 95 4 182 7 193 8 17 1 15 4 -12 20 -17 11 -34 29
-38 40 -7 22 9 61 25 61 23 0 7 19 -25 30 -19 6 -40 20 -45 30 -6 12 -10 322
-10 857 l0 838 28 1 c15 0 66 1 115 2 l87 2 -2 1323 -3 1322 -50 0 c-27 0 -78
-3 -113 -7 l-63 -8 3 112 3 113 100 12 c55 6 106 12 113 12 10 1 12 295 10
1454 l-3 1452 -50 0 c-27 0 -78 -3 -112 -7 l-63 -8 0 405 0 405 -70 0 -70 0 0
-410z m250 -1856 c0 -1266 -1 -1325 -18 -1320 -10 3 -65 1 -122 -4 -58 -6
-135 -13 -172 -17 l-68 -6 0 1317 c0 1045 3 1317 13 1320 16 5 282 33 330 35
l37 1 0 -1326z m0 -3003 l0 -1188 -122 -7 c-68 -4 -153 -9 -190 -13 l-68 -6 0
1182 c0 937 3 1182 13 1185 16 5 282 33 330 35 l37 1 0 -1189z"/>
</g>
</svg>
