<?xml version="1.0" standalone="no"?>
<!DOCTYPE svg PUBLIC "-//W3C//DTD SVG 20010904//EN"
 "http://www.w3.org/TR/2001/REC-SVG-20010904/DTD/svg10.dtd">
<svg version="1.0" xmlns="http://www.w3.org/2000/svg"
 width="2550.000000pt" height="2700.000000pt" viewBox="0 0 2550.000000 2700.000000"
 preserveAspectRatio="xMidYMid meet">

<g transform="translate(0.000000,2700.000000) scale(0.100000,-0.100000)"
fill="#3a4548" stroke="none">
<path d="M25289 26968 c0 -18 0 -618 0 -1332 -1 -1069 2 -1300 13 -1307 7 -5
54 -7 103 -6 l90 2 3 67 3 67 -66 -5 -65 -4 0 1275 0 1275 -40 0 c-38 0 -40
-1 -41 -32z"/>
<path d="M25295 24089 c-5 -7 -10 -2474 -6 -2577 1 -9 27 -11 104 -10 l102 3
3 67 3 67 -66 -5 -65 -4 0 1170 0 1170 65 -4 66 -5 -3 67 -3 67 -97 2 c-59 2
-99 -1 -103 -8z"/>
<path d="M25473 20748 l-22 -10 21 -28 c25 -34 17 -65 -23 -89 -35 -22 -31
-28 16 -23 l35 4 0 79 c0 43 -1 79 -2 78 -2 0 -13 -5 -25 -11z"/>
</g>
</svg>
