<?xml version="1.0" standalone="no"?>
<!DOCTYPE svg PUBLIC "-//W3C//DTD SVG 20010904//EN"
 "http://www.w3.org/TR/2001/REC-SVG-20010904/DTD/svg10.dtd">
<svg version="1.0" xmlns="http://www.w3.org/2000/svg"
 width="2550.000000pt" height="2700.000000pt" viewBox="0 0 2550.000000 2700.000000"
 preserveAspectRatio="xMidYMid meet">

<g transform="translate(0.000000,2700.000000) scale(0.100000,-0.100000)"
fill="#3a4548" stroke="none">
<path d="M13252 13508 c-9 -9 -12 -168 -12 -655 l0 -643 -114 0 -114 0 4
-1202 c2 -662 4 -1332 4 -1490 l0 -288 110 0 110 0 0 -125 0 -125 -112 0 -113
0 2 -1317 c2 -724 4 -1317 6 -1319 2 -2 52 -6 113 -10 l109 -7 -5 -866 c-3
-476 -6 -866 -8 -867 -59 -23 -111 -64 -82 -64 6 0 15 -12 21 -26 12 -33 -9
-70 -47 -84 -22 -9 -25 -15 -22 -52 2 -30 8 -43 18 -43 8 -1 72 -5 142 -9 124
-8 128 -8 197 19 l71 28 0 41 c0 36 -4 43 -33 56 -41 19 -49 61 -18 94 l21 23
-39 11 c-21 7 -44 19 -51 27 -9 11 -12 201 -12 832 0 450 1 829 1 842 1 24 1
24 90 17 59 -5 97 -4 110 4 l21 11 0 1324 0 1325 -42 0 c-24 0 -73 3 -110 7
l-68 6 0 122 0 122 68 6 c37 4 86 7 110 7 l42 0 0 1480 0 1480 -42 0 c-24 0
-73 3 -110 7 l-68 6 0 653 0 654 -68 0 c-40 0 -73 -5 -80 -12z m226 -1423 c6
-5 7 -2727 2 -2730 -3 -2 -77 -5 -165 -6 l-160 -4 -3 1365 c-1 751 0 1370 2
1375 2 7 57 10 162 7 88 -2 160 -6 162 -7z m2 -3232 c10 -10 5 -2402 -5 -2411
-10 -9 -296 11 -315 23 -10 6 -15 2386 -5 2396 6 6 318 -2 325 -8z"/>
</g>
</svg>
