<?xml version="1.0" standalone="no"?>
<!DOCTYPE svg PUBLIC "-//W3C//DTD SVG 20010904//EN"
 "http://www.w3.org/TR/2001/REC-SVG-20010904/DTD/svg10.dtd">
<svg version="1.0" xmlns="http://www.w3.org/2000/svg"
 width="2550.000000pt" height="2700.000000pt" viewBox="0 0 2550.000000 2700.000000"
 preserveAspectRatio="xMidYMid meet">

<g transform="translate(0.000000,2700.000000) scale(0.100000,-0.100000)"
fill="#3a4548" stroke="none">
<path d="M12693 13533 l-33 -4 -2 -682 -3 -682 -47 -3 -48 -3 0 -1484 0 -1484
48 -3 47 -3 0 -110 0 -110 -48 -3 -47 -3 2 -1317 3 -1317 47 -3 47 -3 3 -87
c5 -131 -1 -1524 -7 -1547 -2 -12 -23 -30 -50 -43 l-45 -22 20 -20 c11 -11 20
-29 20 -40 0 -22 -41 -70 -60 -70 -5 0 -10 -20 -10 -44 l0 -44 106 -7 c59 -4
119 -11 134 -15 16 -5 31 -5 35 -2 4 4 39 19 78 33 l72 26 3 42 c2 32 0 41
-13 41 -9 0 -27 11 -41 25 -27 27 -26 54 3 86 12 15 9 18 -29 34 -24 9 -46 22
-50 28 -4 7 -8 391 -8 853 l0 842 50 18 50 18 0 1255 c0 691 3 1266 6 1279 6
21 3 22 -44 22 -60 0 -62 3 -62 116 l0 84 38 2 c20 0 43 1 50 1 9 -1 12 111
12 526 -1 289 1 965 2 1501 l3 975 -45 -1 c-25 -1 -48 4 -52 10 -4 6 -8 311
-8 679 l0 667 -47 -2 c-27 0 -63 -3 -80 -5z m105 -2851 l2 -1372 -22 -1 c-13
-1 -39 -2 -58 -2 l-35 0 0 1369 1 1369 44 6 c25 3 50 5 55 4 7 -1 11 -469 13
-1373z m-3 -2993 l0 -1163 -48 -18 c-27 -10 -53 -16 -58 -13 -10 7 -13 2256
-3 2317 6 35 9 37 48 41 22 2 46 3 51 2 7 -1 10 -397 10 -1166z"/>
</g>
</svg>
