<?xml version="1.0" standalone="no"?>
<!DOCTYPE svg PUBLIC "-//W3C//DTD SVG 20010904//EN"
 "http://www.w3.org/TR/2001/REC-SVG-20010904/DTD/svg10.dtd">
<svg version="1.0" xmlns="http://www.w3.org/2000/svg"
 width="2550.000000pt" height="2700.000000pt" viewBox="0 0 2550.000000 2700.000000"
 preserveAspectRatio="xMidYMid meet">

<g transform="translate(0.000000,2700.000000) scale(0.100000,-0.100000)"
fill="#3a4548" stroke="none">
<path d="M13654 14563 c-8 -13 -21 -34 -29 -48 -13 -21 -15 -107 -15 -610 l0
-585 -45 0 -45 0 0 -1420 0 -1420 45 0 45 0 0 -100 0 -100 -45 0 -45 0 0
-1280 0 -1280 45 0 45 0 -2 -342 -3 -343 -43 -23 c-40 -22 -42 -25 -28 -41 32
-35 14 -86 -36 -104 -13 -4 -18 -17 -18 -41 0 -19 4 -37 8 -40 5 -3 69 -8 143
-11 115 -6 143 -4 194 12 60 19 60 19 63 61 2 31 -1 42 -11 42 -18 0 -57 42
-57 61 0 8 9 25 20 37 l21 22 -26 10 c-15 6 -30 10 -34 10 -4 0 -15 8 -25 18
-15 17 -16 54 -14 373 l3 353 40 12 40 11 3 1246 2 1247 -45 0 -45 0 0 95 0
95 45 0 45 0 0 1425 0 1425 -45 0 -45 0 0 624 0 624 -46 4 c-40 3 -49 0 -60
-19z m84 -2658 c1 -720 -1 -1312 -5 -1316 -5 -4 -29 -5 -54 -2 l-47 5 2 1307
1 1306 35 6 c19 4 42 6 50 5 13 -1 15 -155 18 -1311z m0 -2868 l2 -1137 -27
-11 c-16 -6 -40 -13 -56 -16 l-27 -6 2 1149 3 1149 35 6 c19 4 42 6 50 5 13
-1 15 -136 18 -1139z"/>
</g>
</svg>
