<?xml version="1.0" standalone="no"?>
<!DOCTYPE svg PUBLIC "-//W3C//DTD SVG 20010904//EN"
 "http://www.w3.org/TR/2001/REC-SVG-20010904/DTD/svg10.dtd">
<svg version="1.0" xmlns="http://www.w3.org/2000/svg"
 width="2550.000000pt" height="2700.000000pt" viewBox="0 0 2550.000000 2700.000000"
 preserveAspectRatio="xMidYMid meet">

<g transform="translate(0.000000,2700.000000) scale(0.100000,-0.100000)"
fill="#3a4548" stroke="none">
<path d="M14198 15481 l-23 -36 -5 -600 -5 -600 -42 -3 -43 -3 0 -587 c0 -323
0 -933 0 -1357 0 -423 0 -775 0 -782 0 -7 18 -13 43 -15 l42 -3 0 -95 0 -95
-42 -3 -43 -3 0 -1270 0 -1269 45 0 45 0 0 -771 c0 -461 -4 -777 -9 -788 -6
-10 -28 -26 -51 -36 l-40 -18 21 -23 c28 -30 19 -68 -22 -89 -26 -14 -30 -21
-27 -53 l3 -37 120 -8 c66 -4 125 -8 130 -8 6 0 39 8 75 19 63 18 65 20 68 55
3 30 -1 37 -25 49 -37 18 -52 61 -30 86 23 26 22 28 -23 46 -25 10 -41 24 -45
38 -3 13 -4 374 -3 802 l3 779 40 11 40 12 0 1229 0 1230 -42 3 -43 3 0 105 0
104 50 0 50 0 0 1365 0 1365 -50 0 -50 0 -2 643 -3 642 -42 1 c-39 2 -45 -1
-65 -35z m90 -2617 l-3 -1267 -48 -1 -47 -1 0 1268 0 1267 50 0 50 0 -2 -1266z
m0 -2810 l2 -1132 -27 -10 c-16 -6 -37 -12 -48 -14 -20 -3 -20 3 -23 1145 l-2
1148 47 -3 48 -3 3 -1131z"/>
</g>
</svg>
