<?xml version="1.0" standalone="no"?>
<!DOCTYPE svg PUBLIC "-//W3C//DTD SVG 20010904//EN"
 "http://www.w3.org/TR/2001/REC-SVG-20010904/DTD/svg10.dtd">
<svg version="1.0" xmlns="http://www.w3.org/2000/svg"
 width="2550.000000pt" height="2700.000000pt" viewBox="0 0 2550.000000 2700.000000"
 preserveAspectRatio="xMidYMid meet">

<g transform="translate(0.000000,2700.000000) scale(0.100000,-0.100000)"
fill="#3a4548" stroke="none">
<path d="M15728 19169 l-48 -41 0 -583 c0 -433 -3 -586 -12 -591 -6 -4 -56 -9
-110 -12 l-98 -5 0 -1348 0 -1348 108 -3 107 -3 3 -99 c2 -56 -2 -104 -7 -109
-6 -6 -55 -12 -110 -15 l-101 -5 0 -1213 0 -1213 108 -3 107 -3 3 -765 c1
-421 0 -775 -3 -787 -3 -14 -22 -31 -46 -44 -38 -19 -40 -22 -25 -38 24 -27
19 -56 -14 -84 -23 -20 -30 -34 -30 -61 l0 -36 138 0 c75 0 161 3 190 6 l52 7
0 37 c0 29 -5 39 -19 43 -10 2 -27 17 -36 31 -17 26 -17 28 3 56 l21 28 -30
13 c-63 26 -59 -31 -59 818 l0 778 53 -5 c36 -3 65 1 95 14 l42 19 0 1207 c0
1206 0 1207 -20 1213 -12 4 -54 3 -95 0 l-75 -7 0 111 0 111 73 0 c39 0 82 3
95 6 l22 6 0 1348 0 1349 -20 6 c-12 4 -54 3 -95 0 l-75 -7 -2 628 c-3 621 -3
629 -23 631 -11 2 -40 -15 -67 -38z m167 -2557 c0 -669 -1 -1227 -3 -1239 -4
-23 -6 -23 -158 -23 l-154 0 0 1240 0 1240 23 5 c37 9 271 11 282 2 6 -5 10
-453 10 -1225z m-1 -2819 l0 -1108 -125 -1 c-68 -1 -139 0 -156 3 l-33 5 0
1104 0 1104 23 5 c36 8 271 11 281 3 6 -5 10 -444 10 -1115z"/>
</g>
</svg>
