<?xml version="1.0" standalone="no"?>
<!DOCTYPE svg PUBLIC "-//W3C//DTD SVG 20010904//EN"
 "http://www.w3.org/TR/2001/REC-SVG-20010904/DTD/svg10.dtd">
<svg version="1.0" xmlns="http://www.w3.org/2000/svg"
 width="2550.000000pt" height="2700.000000pt" viewBox="0 0 2550.000000 2700.000000"
 preserveAspectRatio="xMidYMid meet">

<g transform="translate(0.000000,2700.000000) scale(0.100000,-0.100000)"
fill="#3a4548" stroke="none">
<path d="M16747 20142 l-47 -48 -2 -564 c-3 -557 -3 -565 -23 -567 -11 -1 -59
-5 -107 -8 l-88 -7 0 -1358 c0 -1229 2 -1358 16 -1364 9 -3 58 -6 110 -6 l95
0 -3 -107 -3 -108 -95 -7 c-52 -4 -100 -10 -107 -12 -10 -4 -13 -243 -13
-1220 l0 -1215 108 -3 107 -3 3 -330 c1 -181 0 -339 -2 -351 -3 -12 -22 -28
-46 -39 -44 -20 -47 -26 -25 -45 30 -25 5 -90 -34 -90 -8 0 -11 -14 -9 -42 l3
-42 115 -4 c63 -1 148 0 188 3 l72 7 0 36 c0 30 -5 40 -29 53 -37 21 -44 52
-20 83 l19 24 -31 12 c-61 26 -59 10 -59 386 l0 344 98 -2 97 -3 3 1233 2
1232 -27 1 c-16 0 -61 0 -100 -1 l-73 -1 0 110 0 111 58 1 c66 1 109 6 129 13
11 5 13 235 13 1366 l0 1360 -27 1 c-16 0 -61 0 -100 -1 l-73 -1 0 604 c0 542
-2 605 -16 611 -25 10 -27 8 -77 -42z m171 -2544 l2 -1258 -53 0 c-30 0 -102
-3 -160 -7 l-107 -6 0 1256 0 1257 23 5 c21 5 187 12 257 11 l35 -1 3 -1257z
m0 -2825 l2 -1123 -160 0 -160 0 0 1115 0 1115 23 5 c21 5 187 12 257 11 l35
-1 3 -1122z"/>
</g>
</svg>
