<?xml version="1.0" standalone="no"?>
<!DOCTYPE svg PUBLIC "-//W3C//DTD SVG 20010904//EN"
 "http://www.w3.org/TR/2001/REC-SVG-20010904/DTD/svg10.dtd">
<svg version="1.0" xmlns="http://www.w3.org/2000/svg"
 width="2550.000000pt" height="2700.000000pt" viewBox="0 0 2550.000000 2700.000000"
 preserveAspectRatio="xMidYMid meet">

<g transform="translate(0.000000,2700.000000) scale(0.100000,-0.100000)"
fill="#3a4548" stroke="none">
<path d="M17791 21144 l-51 -46 0 -598 0 -597 -52 -7 c-29 -3 -79 -6 -110 -6
l-58 0 0 -1042 c0 -574 -1 -1196 -2 -1383 l-3 -340 110 0 110 0 3 -112 3 -111
-73 -6 c-40 -3 -90 -7 -111 -9 l-37 -2 0 -1075 c0 -591 0 -1141 0 -1222 l0
-148 110 0 110 0 0 -794 c0 -869 4 -809 -59 -836 -35 -14 -38 -22 -16 -40 24
-20 18 -56 -15 -83 -23 -20 -30 -34 -30 -60 0 -43 3 -43 190 -41 193 3 184 1
188 52 3 35 0 42 -15 42 -10 0 -27 14 -37 31 -18 30 -18 32 2 59 l21 28 -38
15 c-21 9 -41 23 -45 32 -3 9 -6 372 -6 806 l0 789 90 0 c78 0 91 2 100 19 7
13 10 416 10 1235 l0 1216 -100 0 -100 0 0 110 0 110 43 1 c50 0 127 8 145 14
9 3 12 289 12 1385 0 1307 -1 1380 -17 1381 -10 1 -55 0 -100 -1 l-83 -2 0
631 c0 610 -1 631 -19 641 -16 8 -28 2 -70 -36z m169 -2623 l0 -1269 -102 -7
c-57 -4 -130 -5 -163 -3 l-60 3 -3 1245 c-1 685 0 1255 3 1267 6 24 24 27 233
31 l92 2 0 -1269z m0 -2856 l0 -1125 -162 2 -163 3 -3 1095 c-1 602 0 1105 3
1117 6 24 24 27 233 31 l92 2 0 -1125z"/>
</g>
</svg>
