<?xml version="1.0" standalone="no"?>
<!DOCTYPE svg PUBLIC "-//W3C//DTD SVG 20010904//EN"
 "http://www.w3.org/TR/2001/REC-SVG-20010904/DTD/svg10.dtd">
<svg version="1.0" xmlns="http://www.w3.org/2000/svg"
 width="2550.000000pt" height="2700.000000pt" viewBox="0 0 2550.000000 2700.000000"
 preserveAspectRatio="xMidYMid meet">

<g transform="translate(0.000000,2700.000000) scale(0.100000,-0.100000)"
fill="#65340A" stroke="none">
<path d="M9780 15676 l0 -562 -57 -40 c-103 -71 -183 -218 -226 -414 -16 -74
-20 -130 -20 -250 0 -179 2 -190 103 -550 123 -441 133 -480 128 -486 -3 -3
-31 -8 -62 -11 -46 -5 -61 -11 -81 -35 -48 -57 -58 -170 -18 -209 16 -15 75
-25 120 -20 18 2 43 55 43 92 0 24 -3 30 -16 25 -9 -3 -26 -6 -39 -6 -17 0
-25 -7 -30 -27 -6 -25 -8 -26 -16 -10 -19 33 26 157 56 157 31 0 117 -187 108
-234 -4 -18 1 -34 14 -49 23 -25 67 -186 82 -300 41 -300 -38 -688 -154 -763
-29 -19 -63 1 -102 59 -58 87 -71 233 -28 325 13 29 31 52 39 52 42 0 46 -110
5 -143 -27 -21 -25 -23 28 -30 61 -7 78 15 78 105 0 62 -3 72 -24 89 -20 17
-33 19 -85 13 -78 -9 -91 -16 -118 -67 -31 -58 -33 -215 -3 -297 19 -52 74
-121 105 -132 11 -4 5 -14 -23 -38 -44 -38 -81 -106 -104 -193 -22 -86 -22
-281 1 -367 20 -78 65 -177 101 -224 32 -42 116 -86 162 -86 l33 0 0 -439 0
-440 -26 -20 c-15 -12 -34 -21 -42 -21 -13 0 -13 -3 1 -18 24 -26 21 -47 -8
-70 -15 -12 -25 -30 -25 -45 0 -22 6 -27 33 -32 54 -10 189 -10 237 1 41 9 45
12 48 42 2 22 -1 32 -11 32 -23 0 -49 36 -42 59 3 12 11 21 16 21 19 0 8 18
-15 24 -55 14 -53 0 -52 474 l1 439 67 66 c169 166 255 464 227 779 -10 110
-22 158 -158 646 -39 138 -71 257 -71 263 0 6 21 9 53 8 28 -2 62 2 73 9 47
25 79 152 54 211 -15 37 -25 41 -91 33 -43 -6 -56 -12 -66 -32 -7 -14 -12 -36
-11 -50 3 -21 8 -25 41 -27 33 -1 37 2 37 23 0 27 19 33 21 7 3 -52 -28 -143
-50 -143 -26 0 -110 164 -119 234 -2 23 -11 53 -18 67 -22 45 -62 220 -75 329
-21 183 6 413 66 571 27 71 80 139 107 139 75 0 156 -212 128 -335 -12 -55
-39 -105 -56 -105 -13 0 -34 43 -34 71 0 25 18 61 36 72 27 15 14 27 -29 27
-58 0 -79 -24 -85 -93 -6 -78 17 -102 104 -111 60 -6 69 -5 90 15 40 37 59
104 58 199 -2 111 -30 188 -91 250 -30 29 -40 46 -31 49 28 9 77 73 97 126 58
155 52 363 -15 543 -48 128 -143 222 -226 222 l-38 0 0 550 c0 433 -3 550 -12
550 -7 1 -32 5 -55 9 l-43 8 0 -561z m139 -590 c39 -21 106 -96 135 -155 49
-95 69 -194 70 -331 1 -146 -23 -240 -74 -302 -52 -63 -95 -45 -142 57 -31 69
-33 194 -2 245 25 43 36 42 48 -5 7 -32 1 -73 -18 -124 0 -2 18 -4 41 -5 39
-2 43 0 53 27 22 66 3 164 -37 185 -10 5 -42 6 -72 2 -65 -8 -94 -37 -112
-113 -26 -111 7 -248 77 -313 19 -19 31 -34 25 -34 -20 0 -73 -55 -96 -101
-34 -66 -70 -196 -86 -306 -7 -51 -16 -93 -20 -93 -6 0 -66 205 -116 400 -99
390 14 842 239 954 61 31 52 29 87 12z m116 -2834 c83 -293 99 -427 74 -609
-32 -235 -116 -423 -231 -514 -66 -52 -92 -57 -142 -30 -141 77 -219 347 -171
596 22 117 84 215 136 215 23 0 64 -54 84 -109 23 -66 20 -168 -7 -221 -13
-24 -27 -43 -33 -41 -25 4 -25 83 0 144 6 15 1 17 -38 17 -45 0 -46 -1 -56
-37 -15 -54 -13 -93 7 -133 16 -32 21 -35 72 -41 68 -7 91 6 122 69 19 39 23
63 23 137 0 106 -27 178 -82 224 l-34 28 25 16 c79 52 129 189 172 476 3 18 9
30 13 25 5 -5 34 -101 66 -212z"/>
</g>
</svg>
