<?xml version="1.0" standalone="no"?>
<!DOCTYPE svg PUBLIC "-//W3C//DTD SVG 20010904//EN"
 "http://www.w3.org/TR/2001/REC-SVG-20010904/DTD/svg10.dtd">
<svg version="1.0" xmlns="http://www.w3.org/2000/svg"
 width="2550.000000pt" height="2700.000000pt" viewBox="0 0 2550.000000 2700.000000"
 preserveAspectRatio="xMidYMid meet">

<g transform="translate(0.000000,2700.000000) scale(0.100000,-0.100000)"
fill="#65340A" stroke="none">
<path d="M4161 14813 c-19 -23 -31 -50 -32 -68 0 -16 0 -315 0 -663 l0 -632
-34 -14 c-55 -23 -139 -92 -188 -154 -168 -215 -241 -515 -202 -832 17 -134
14 -126 232 -763 58 -170 104 -310 102 -312 -2 -2 -38 -5 -80 -8 -42 -3 -86
-10 -97 -16 -58 -31 -111 -146 -98 -214 12 -63 37 -83 112 -90 40 -4 74 -2 86
4 22 12 57 82 58 115 0 19 -6 22 -48 22 l-48 2 -12 -46 c-14 -53 -33 -54 -46
-1 -16 64 50 187 102 187 43 0 164 -216 155 -276 -4 -24 0 -35 16 -46 26 -19
83 -183 112 -323 66 -322 -23 -783 -177 -925 -37 -34 -50 -40 -89 -40 -39 0
-50 5 -83 38 -120 120 -135 349 -30 454 45 45 63 42 80 -14 15 -50 -5 -118
-39 -133 -35 -15 -28 -22 30 -29 49 -6 54 -4 79 23 48 54 49 151 2 198 -23 23
-30 24 -109 20 -92 -4 -118 -16 -158 -69 -33 -44 -47 -89 -54 -174 -12 -148
75 -313 180 -339 15 -4 27 -10 27 -14 0 -3 -21 -19 -46 -35 -52 -33 -97 -89
-125 -156 -11 -25 -26 -58 -34 -75 -7 -16 -18 -86 -24 -155 -13 -139 -6 -207
29 -310 75 -216 174 -311 338 -326 39 -4 73 -10 73 -13 7 -28 4 -970 -3 -984
-5 -10 -27 -25 -49 -33 -41 -17 -49 -28 -24 -38 34 -13 5 -96 -33 -96 -7 0
-12 -16 -12 -40 l0 -40 58 0 c31 -1 82 -3 112 -6 33 -2 89 3 140 13 l85 18 3
38 c2 26 -1 37 -11 37 -7 0 -24 11 -37 25 l-24 25 22 30 c28 37 28 36 -5 43
-68 14 -63 -21 -67 536 -2 351 1 506 8 512 6 5 39 29 73 54 155 111 284 346
330 599 22 122 22 343 0 456 -9 47 -84 284 -167 525 -82 242 -150 446 -150
453 0 9 7 11 19 7 11 -3 46 -7 78 -8 75 -2 111 22 149 98 33 69 36 137 8 186
-19 32 -23 34 -84 37 -37 2 -74 -2 -87 -9 -26 -14 -53 -66 -53 -102 0 -22 5
-25 45 -29 42 -3 46 -1 51 22 16 75 38 86 50 24 8 -44 -17 -113 -58 -160 -38
-43 -54 -36 -113 55 -56 87 -95 175 -95 216 0 18 -6 38 -14 45 -18 14 -80 199
-101 299 -72 348 38 850 206 936 71 37 136 -1 188 -108 68 -140 60 -291 -19
-374 -41 -45 -80 -15 -80 62 0 41 4 52 34 80 19 18 33 35 30 38 -5 5 -68 0
-112 -9 -43 -9 -68 -118 -41 -177 16 -35 39 -45 125 -52 72 -6 82 -5 113 17
19 12 46 45 60 73 23 45 26 61 26 160 -1 141 -24 205 -101 282 -29 29 -60 53
-68 53 -22 0 -20 17 3 25 35 11 104 89 133 152 83 176 72 467 -25 660 -71 140
-175 222 -297 232 l-65 6 -2 160 c-1 88 -2 397 -2 688 l-1 527 -39 0 c-33 0
-44 -6 -70 -37z m215 -1403 c67 -38 127 -108 169 -195 49 -102 66 -175 72
-310 8 -192 -26 -311 -115 -407 -38 -40 -51 -48 -81 -48 -30 0 -45 8 -79 41
-97 97 -114 281 -35 387 13 17 30 32 37 32 34 0 49 -122 21 -170 -21 -38 -19
-40 36 -40 48 0 51 2 65 35 30 72 11 177 -38 209 -37 24 -151 11 -190 -22 -48
-41 -71 -97 -76 -189 -8 -138 48 -257 139 -300 l44 -21 -43 -17 c-24 -10 -61
-38 -86 -67 -77 -85 -154 -318 -172 -521 -4 -43 -10 -75 -14 -70 -18 20 -201
588 -216 668 -24 133 -15 365 20 500 37 145 111 289 193 376 79 84 108 105
182 135 74 31 106 30 167 -6z m94 -3270 c107 -310 130 -400 137 -536 21 -397
-158 -793 -418 -923 -73 -36 -78 -37 -143 -14 -103 37 -195 162 -237 322 -26
97 -29 276 -5 374 36 151 136 277 220 277 33 0 96 -73 120 -139 36 -101 10
-248 -54 -306 -21 -19 -22 -19 -36 -1 -23 32 -27 79 -9 126 8 25 17 49 18 53
1 5 -20 9 -46 11 -44 2 -50 -1 -63 -25 -24 -48 -28 -105 -9 -154 20 -54 31
-61 118 -70 63 -6 70 -5 102 19 78 60 118 230 81 344 -25 75 -71 138 -116 159
-22 10 -40 20 -40 23 0 3 18 15 40 28 81 46 150 176 201 378 15 60 31 154 35
208 4 53 10 94 15 89 4 -4 44 -114 89 -243z"/>
</g>
</svg>
