<?xml version="1.0" standalone="no"?>
<!DOCTYPE svg PUBLIC "-//W3C//DTD SVG 20010904//EN"
 "http://www.w3.org/TR/2001/REC-SVG-20010904/DTD/svg10.dtd">
<svg version="1.0" xmlns="http://www.w3.org/2000/svg"
 width="2550.000000pt" height="2700.000000pt" viewBox="0 0 2550.000000 2700.000000"
 preserveAspectRatio="xMidYMid meet">

<g transform="translate(0.000000,2700.000000) scale(0.100000,-0.100000)"
fill="#65340A" stroke="none">
<path d="M7620 15778 l0 -608 -42 -21 c-114 -58 -223 -228 -274 -424 -34 -134
-44 -357 -21 -491 12 -68 232 -827 263 -909 4 -10 -10 -15 -53 -20 -32 -3 -72
-12 -89 -20 -62 -27 -97 -161 -61 -232 15 -27 22 -31 79 -36 70 -6 84 0 105
50 25 60 19 73 -32 73 -40 0 -45 -3 -45 -22 0 -27 -16 -55 -25 -46 -12 12 -6
106 8 135 8 15 25 37 37 48 l22 20 24 -30 c45 -56 98 -177 97 -220 -1 -27 5
-47 18 -61 21 -22 62 -149 85 -259 21 -107 29 -316 15 -428 -32 -256 -128
-467 -211 -467 -100 0 -191 224 -150 371 23 84 90 139 104 87 13 -52 6 -105
-18 -131 l-23 -25 41 -5 c33 -3 46 0 64 18 47 45 37 162 -16 189 -31 15 -132
7 -171 -14 -13 -6 -34 -37 -48 -67 -62 -135 -7 -370 101 -428 20 -11 36 -22
35 -25 0 -3 -19 -19 -42 -35 -53 -38 -101 -132 -123 -235 -20 -92 -13 -294 11
-384 34 -122 116 -245 189 -283 17 -9 56 -19 86 -22 l55 -6 3 -473 2 -472 -32
-20 c-18 -11 -37 -22 -43 -23 -5 -2 -2 -14 9 -25 18 -20 18 -23 2 -47 -10 -14
-24 -29 -32 -32 -8 -3 -14 -19 -14 -38 l0 -34 103 -3 c56 -2 135 1 175 6 l72
10 0 33 c0 21 -5 33 -13 33 -33 0 -63 69 -37 85 15 9 12 25 -4 25 -7 0 -25 9
-40 21 l-26 20 0 478 0 478 50 32 c135 87 253 309 291 546 17 108 15 322 -4
415 -8 41 -70 256 -136 478 -67 221 -121 405 -121 409 0 3 29 3 63 -1 56 -5
67 -4 91 15 77 61 95 223 28 258 -9 5 -41 6 -70 4 -60 -6 -79 -25 -89 -87 l-6
-36 46 0 c44 0 46 1 49 33 4 45 22 40 26 -7 4 -46 -20 -116 -48 -141 -19 -17
-21 -17 -41 1 -31 28 -110 194 -116 244 -3 25 -11 52 -18 60 -17 20 -59 171
-80 285 -24 125 -16 414 13 530 36 141 72 225 117 272 52 54 83 57 126 11 97
-105 127 -296 64 -404 -29 -50 -51 -54 -73 -14 -20 38 -8 101 23 126 14 11 24
22 21 25 -2 2 -27 2 -55 1 -45 -4 -53 -8 -66 -32 -30 -57 -10 -161 32 -174 10
-3 46 -6 81 -7 54 -1 67 2 89 22 104 96 82 351 -40 473 l-50 50 24 15 c98 64
143 188 142 391 -1 196 -53 358 -150 461 -57 61 -91 80 -158 88 l-50 6 -2 365
c-2 201 -3 469 -3 597 l0 231 -60 4 -60 3 0 -607z m214 -663 c116 -95 186
-281 186 -494 0 -117 -13 -187 -47 -256 -69 -140 -145 -139 -211 3 -37 78 -38
185 -4 255 13 26 30 47 37 47 8 0 20 -18 26 -41 12 -40 8 -76 -16 -132 -7 -16
-3 -18 40 -15 47 3 49 4 63 47 18 55 3 137 -32 170 -20 19 -30 21 -82 15 -80
-9 -92 -17 -122 -82 -58 -126 -12 -330 89 -391 l30 -18 -31 -13 c-33 -14 -81
-64 -104 -108 -39 -77 -88 -263 -100 -381 -5 -51 -11 -70 -20 -60 -9 11 -141
465 -157 544 -26 127 -26 324 2 458 48 239 156 410 300 477 58 27 98 20 153
-25z m77 -2990 c94 -312 103 -363 96 -555 -6 -188 -34 -307 -104 -450 -39 -78
-62 -110 -130 -177 -101 -101 -140 -116 -209 -83 -130 64 -214 254 -214 489 0
170 32 274 108 354 52 53 89 52 132 -5 66 -91 78 -229 28 -325 -14 -26 -30
-49 -37 -51 -29 -10 -42 109 -16 158 l16 30 -45 0 c-50 0 -59 -10 -71 -71 -6
-35 6 -100 24 -128 5 -8 38 -18 72 -23 76 -10 99 2 139 73 19 34 25 62 28 129
5 111 -20 185 -86 249 -46 45 -46 45 0 71 69 40 156 278 174 478 4 40 11 71
17 69 5 -1 40 -106 78 -232z"/>
</g>
</svg>
