<?xml version="1.0" standalone="no"?>
<!DOCTYPE svg PUBLIC "-//W3C//DTD SVG 20010904//EN"
 "http://www.w3.org/TR/2001/REC-SVG-20010904/DTD/svg10.dtd">
<svg version="1.0" xmlns="http://www.w3.org/2000/svg"
 width="2550.000000pt" height="2700.000000pt" viewBox="0 0 2550.000000 2700.000000"
 preserveAspectRatio="xMidYMid meet">

<g transform="translate(0.000000,2700.000000) scale(0.100000,-0.100000)"
fill="#65340A" stroke="none">
<path d="M23271 26366 l-52 -52 1 -560 0 -559 -77 -35 c-224 -100 -396 -269
-504 -495 -125 -261 -139 -541 -39 -789 23 -57 316 -660 518 -1064 23 -46 42
-88 42 -94 0 -6 -29 17 -64 51 -79 75 -131 100 -209 101 -130 0 -247 -110
-247 -233 0 -85 58 -135 158 -136 58 -1 98 21 122 69 26 50 25 68 -2 90 -26
21 -38 17 -38 -11 0 -81 -123 -146 -164 -87 -62 89 57 253 193 266 61 5 99
-15 167 -91 85 -95 134 -171 134 -210 0 -27 7 -41 29 -59 30 -23 97 -149 145
-270 120 -303 73 -702 -115 -979 -43 -64 -88 -106 -155 -145 -64 -38 -212 -51
-292 -27 -115 35 -210 165 -220 302 -4 58 -1 77 20 122 44 95 129 158 215 159
74 0 126 -66 101 -129 -14 -38 -47 -69 -79 -76 -40 -9 -36 -31 6 -39 80 -15
150 63 137 153 -5 39 -57 95 -109 116 -157 66 -353 -81 -353 -263 0 -104 53
-224 128 -293 38 -36 70 -54 172 -96 24 -10 24 -11 5 -18 -159 -57 -272 -185
-311 -351 -19 -86 -20 -227 0 -320 40 -192 176 -364 351 -444 79 -37 131 -50
240 -64 l90 -12 3 -543 c2 -412 -1 -547 -10 -558 -6 -8 -29 -22 -50 -30 l-39
-16 20 -21 c36 -38 21 -80 -32 -99 -10 -4 -17 -14 -15 -24 3 -15 16 -17 113
-15 61 1 148 5 194 8 80 6 83 7 58 21 -36 19 -49 46 -37 77 5 14 14 26 20 26
23 0 7 19 -25 30 -19 6 -40 20 -45 30 -6 12 -10 229 -10 583 l0 564 43 12 c71
21 198 89 274 148 274 209 424 559 384 898 -6 58 -21 136 -32 173 -19 62 -156
350 -465 972 -67 135 -120 247 -118 249 2 2 23 -14 48 -37 56 -52 87 -67 162
-82 53 -10 70 -10 120 5 106 30 201 157 180 241 -4 14 -26 46 -49 71 -36 37
-51 46 -88 50 -82 9 -149 -39 -164 -120 -7 -34 -5 -38 20 -47 15 -6 28 -9 29
-8 1 2 8 23 16 48 16 48 65 90 105 90 30 0 65 -40 71 -82 11 -62 -47 -148
-126 -188 -52 -26 -135 -28 -181 -5 -43 23 -121 107 -180 194 -39 57 -47 76
-38 87 17 21 3 57 -32 79 -24 15 -45 48 -84 130 -96 199 -121 319 -112 533 6
157 29 258 87 395 99 230 236 357 387 357 34 0 64 4 67 9 7 11 87 -4 127 -24
81 -42 156 -149 178 -254 15 -72 6 -129 -33 -193 -44 -74 -107 -111 -195 -116
-86 -5 -114 14 -114 76 0 53 25 90 74 111 21 9 39 18 39 21 -1 3 -12 13 -25
23 -22 16 -28 16 -58 3 -114 -47 -121 -209 -12 -257 132 -58 271 -19 346 99
83 131 48 303 -90 442 -41 40 -85 74 -114 86 -26 10 -47 21 -47 24 1 3 24 16
51 29 70 32 169 128 207 198 53 100 67 164 66 303 -1 108 -5 136 -28 208 -68
206 -263 389 -468 437 -35 8 -100 15 -145 15 l-83 0 0 583 c0 557 -1 583 -19
594 -16 10 -25 4 -70 -41z m342 -1202 c95 -24 156 -61 232 -138 118 -120 175
-262 175 -436 0 -168 -54 -305 -158 -400 -75 -70 -144 -100 -225 -99 -36 1
-70 -2 -75 -5 -18 -11 -111 26 -151 61 -114 97 -122 278 -18 386 50 50 102 77
150 77 87 0 112 -133 40 -212 -18 -20 -18 -19 19 -36 24 -10 29 -8 48 15 31
40 44 100 31 145 -14 44 -62 103 -102 124 -69 35 -175 1 -247 -81 -139 -158
-72 -399 138 -493 l65 -30 -39 -16 c-21 -9 -41 -16 -43 -16 -3 0 -31 -18 -63
-41 -125 -87 -243 -307 -290 -538 -23 -115 -28 -314 -10 -396 6 -26 8 -50 5
-53 -6 -6 -418 829 -445 903 -88 236 -68 521 54 762 55 110 115 190 209 280
91 86 143 123 249 173 158 76 319 98 451 64z m101 -3566 c225 -458 248 -510
272 -627 20 -104 15 -312 -11 -411 -90 -339 -342 -600 -667 -690 -82 -23 -214
-28 -290 -11 -204 46 -363 210 -423 436 -23 86 -21 252 3 337 38 133 120 233
237 289 49 24 68 28 105 23 25 -3 57 -1 71 4 57 22 184 -70 231 -167 56 -117
20 -257 -85 -327 -49 -32 -128 -44 -153 -23 -49 41 -53 135 -8 188 l24 29 -25
16 c-13 9 -27 16 -30 16 -2 0 -17 -18 -31 -40 -20 -30 -27 -53 -27 -93 -1 -94
50 -153 142 -164 189 -22 332 182 260 372 -27 72 -118 169 -192 204 -54 26
-52 30 13 54 160 59 305 287 366 577 19 89 26 329 11 383 -22 80 29 -12 207
-375z"/>
</g>
</svg>
