<?xml version="1.0" standalone="no"?>
<!DOCTYPE svg PUBLIC "-//W3C//DTD SVG 20010904//EN"
 "http://www.w3.org/TR/2001/REC-SVG-20010904/DTD/svg10.dtd">
<svg version="1.0" xmlns="http://www.w3.org/2000/svg"
 width="2550.000000pt" height="2700.000000pt" viewBox="0 0 2550.000000 2700.000000"
 preserveAspectRatio="xMidYMid meet">

<g transform="translate(0.000000,2700.000000) scale(0.100000,-0.100000)"
fill="#65340A" stroke="none">
<path d="M25012 26973 c-38 -54 -100 -190 -126 -273 -39 -132 -49 -211 -43
-344 9 -196 21 -226 349 -881 160 -319 295 -584 300 -590 15 -16 3 197 -17
300 -20 106 -16 286 10 402 10 45 15 106 13 160 l-3 88 -27 -80 c-48 -140 -61
-219 -62 -370 0 -79 6 -165 13 -198 7 -32 11 -61 8 -63 -8 -8 -457 882 -482
956 -55 163 -60 386 -10 555 28 98 87 230 133 298 47 70 47 67 3 67 -32 0 -43
-5 -59 -27z"/>
<path d="M25170 25030 c-152 -28 -264 -196 -206 -308 17 -33 103 -82 143 -82
91 0 179 111 132 168 -25 31 -32 28 -49 -25 -24 -77 -103 -116 -157 -78 -33
23 -38 66 -13 122 36 83 102 136 184 152 89 16 143 -15 253 -144 l43 -50 0 31
c0 26 -13 45 -70 103 -92 95 -170 128 -260 111z"/>
<path d="M25031 23788 c-61 -23 -127 -84 -155 -142 -80 -168 15 -400 199 -485
33 -16 69 -31 80 -35 16 -6 5 -14 -52 -41 -345 -168 -382 -723 -66 -1005 105
-93 293 -170 415 -170 44 0 48 2 48 24 0 22 -4 23 -62 24 -206 3 -395 122
-488 306 -91 181 -94 417 -8 578 68 129 218 236 314 225 26 -2 61 -1 78 4 37
11 87 -3 134 -38 l34 -25 -4 28 c-2 22 -13 33 -52 53 l-48 25 51 22 c49 22 51
25 51 62 l0 38 -67 -33 c-59 -29 -81 -34 -166 -38 -83 -4 -106 -1 -154 17
-121 45 -204 169 -206 308 -3 146 111 269 248 270 62 0 91 -19 104 -67 17 -60
-15 -116 -76 -132 -42 -11 -42 -38 0 -46 94 -18 170 102 123 193 -49 94 -157
126 -275 80z"/>
<path d="M25256 22763 c-35 -54 -42 -104 -22 -157 21 -53 49 -81 105 -101 51
-18 87 -19 130 -4 27 9 31 16 31 45 l0 34 -40 -20 c-38 -20 -102 -26 -135 -14
-22 9 -45 57 -45 94 0 38 21 90 44 109 15 13 15 15 0 32 -25 28 -41 23 -68
-18z"/>
<path d="M25472 20747 l-23 -13 21 -19 c36 -33 20 -79 -34 -99 -30 -10 -6 -25
32 -19 l32 5 0 79 c0 44 -1 79 -2 79 -2 -1 -13 -6 -26 -13z"/>
</g>
</svg>
