<?xml version="1.0" standalone="no"?>
<!DOCTYPE svg PUBLIC "-//W3C//DTD SVG 20010904//EN"
 "http://www.w3.org/TR/2001/REC-SVG-20010904/DTD/svg10.dtd">
<svg version="1.0" xmlns="http://www.w3.org/2000/svg"
 width="2550.000000pt" height="2700.000000pt" viewBox="0 0 2550.000000 2700.000000"
 preserveAspectRatio="xMidYMid meet">

<g transform="translate(0.000000,2700.000000) scale(0.100000,-0.100000)"
fill="#C5C3C1" stroke="none">
<path d="M19052 23267 l-50 -54 2 -499 c2 -278 -1 -507 -6 -516 -5 -10 -13
-18 -19 -18 -18 0 -121 -50 -168 -82 -62 -43 -164 -141 -216 -208 -125 -163
-186 -346 -186 -560 -1 -181 19 -250 141 -505 40 -82 121 -253 182 -380 60
-126 127 -265 148 -307 38 -77 40 -97 5 -58 -24 26 -105 50 -169 50 -103 -1
-194 -74 -217 -175 -11 -47 -10 -58 8 -92 42 -83 170 -109 234 -47 38 37 58
99 38 119 -8 8 -24 16 -37 17 -19 2 -26 -4 -37 -37 -28 -79 -91 -100 -119 -40
-23 47 -13 78 43 136 56 57 113 79 161 59 61 -25 210 -211 210 -263 0 -13 9
-32 21 -43 12 -10 41 -62 66 -114 97 -206 117 -287 116 -470 -1 -164 -29 -284
-99 -427 -81 -164 -171 -238 -308 -254 -65 -7 -76 -6 -123 17 -74 36 -138 110
-163 191 -24 78 -25 107 -5 164 40 111 182 180 234 113 40 -50 19 -113 -45
-140 -39 -16 -43 -29 -15 -44 38 -20 80 -12 118 23 31 29 37 41 40 88 5 70
-10 98 -70 128 -36 18 -66 24 -116 25 -58 0 -74 -4 -115 -29 -125 -79 -160
-238 -86 -389 38 -77 100 -138 174 -171 l48 -21 -56 -29 c-70 -35 -150 -118
-180 -187 -39 -88 -58 -222 -46 -309 23 -157 96 -307 190 -392 97 -87 248
-146 375 -147 l50 0 0 -529 c0 -571 2 -547 -56 -571 -27 -12 -28 -14 -14 -30
22 -25 18 -56 -10 -78 -19 -15 -25 -29 -25 -57 l0 -38 163 6 c89 4 168 7 175
7 21 0 15 58 -8 70 -35 18 -44 48 -24 78 9 14 13 27 8 29 -5 2 -24 12 -41 23
l-33 20 0 544 0 544 38 12 c71 23 208 100 273 153 284 235 391 668 249 1006
-27 63 -153 328 -364 765 -53 109 -96 201 -96 204 0 3 10 -4 23 -15 31 -29 73
-48 134 -63 79 -18 153 6 215 70 69 71 84 151 41 218 -20 32 -88 62 -142 62
-37 0 -49 -5 -81 -38 -25 -24 -41 -51 -45 -76 -9 -43 0 -56 39 -59 24 -2 29 3
41 38 27 77 91 100 120 44 20 -38 13 -75 -24 -127 -35 -48 -118 -87 -166 -78
-62 12 -235 218 -235 280 0 14 -10 36 -22 48 -23 23 -88 151 -118 233 -57 153
-72 314 -46 474 22 129 46 203 103 314 80 154 177 227 314 235 65 4 85 1 123
-17 81 -40 146 -130 164 -230 18 -98 -24 -189 -106 -234 -67 -36 -123 -37
-151 -1 -12 15 -21 34 -21 43 0 27 37 79 62 86 42 13 51 26 32 46 -34 37 -120
13 -150 -43 -17 -29 -18 -109 -2 -143 7 -15 32 -35 67 -51 186 -89 391 81 352
292 -23 121 -100 222 -210 275 -28 13 -51 26 -51 29 0 4 18 14 40 24 111 49
202 181 234 338 42 207 -51 450 -221 578 -111 84 -254 135 -363 128 l-45 -2
-3 539 c-3 623 2 598 -90 502z m371 -1145 c121 -56 219 -179 263 -327 21 -73
24 -218 5 -293 -31 -123 -130 -242 -234 -280 -73 -27 -174 -23 -219 9 -160
113 -156 330 7 409 53 25 79 20 100 -20 22 -42 18 -79 -11 -122 -22 -31 -24
-40 -14 -53 7 -8 25 -15 41 -15 62 0 101 126 61 200 -21 41 -108 90 -156 90
-69 -1 -165 -70 -200 -145 -43 -89 -37 -185 17 -273 35 -58 70 -89 139 -123
l46 -22 -59 -29 c-184 -92 -319 -391 -320 -708 l-1 -125 -34 70 c-335 685
-355 733 -362 903 -11 270 71 484 259 671 91 90 189 150 321 196 64 22 86 25
178 23 94 -3 112 -7 173 -36z m55 -3232 c89 -185 171 -371 184 -415 32 -112
32 -313 -1 -430 -28 -103 -87 -222 -153 -309 -137 -182 -379 -305 -582 -294
-98 5 -203 56 -291 142 -127 124 -190 330 -156 511 33 179 175 315 329 315
122 0 236 -124 236 -255 -1 -71 -17 -108 -72 -157 -46 -41 -73 -52 -108 -44
-50 13 -71 111 -34 159 11 14 20 32 20 41 0 17 -41 31 -65 22 -29 -11 -55 -69
-55 -122 0 -95 68 -158 170 -159 150 -1 262 169 216 327 -28 99 -113 194 -189
213 -15 4 -27 10 -27 14 0 3 25 17 55 30 110 47 212 190 279 391 34 102 46
184 46 320 l0 115 19 -40 c10 -22 90 -191 179 -375z m-868 -1305 c13 -14 21
-25 18 -25 -2 0 -15 11 -28 25 -13 14 -21 25 -18 25 2 0 15 -11 28 -25z m565
-1313 c-6 -7 -45 19 -45 29 0 5 11 2 24 -8 13 -10 23 -19 21 -21z"/>
</g>
</svg>
