<?xml version="1.0" standalone="no"?>
<!DOCTYPE svg PUBLIC "-//W3C//DTD SVG 20010904//EN"
 "http://www.w3.org/TR/2001/REC-SVG-20010904/DTD/svg10.dtd">
<svg version="1.0" xmlns="http://www.w3.org/2000/svg"
 width="2550.000000pt" height="2700.000000pt" viewBox="0 0 2550.000000 2700.000000"
 preserveAspectRatio="xMidYMid meet">

<g transform="translate(0.000000,2700.000000) scale(0.100000,-0.100000)"
fill="#C5C3C1" stroke="none">
<path d="M9108 13396 l-3 -731 -50 -5 c-64 -7 -105 -30 -143 -77 -104 -133
-159 -353 -148 -603 8 -216 46 -341 127 -422 41 -41 45 -48 28 -53 -33 -11
-88 -86 -109 -149 -30 -90 -42 -206 -30 -285 12 -74 52 -166 79 -181 10 -5 52
-9 94 -8 99 1 110 12 115 111 3 75 -19 143 -45 141 -7 -1 -36 -2 -65 -2 l-52
-2 29 -30 c26 -28 30 -38 30 -95 0 -75 -9 -89 -36 -55 -85 110 -47 447 59 516
23 15 25 15 57 -16 46 -44 79 -125 114 -271 63 -262 70 -575 21 -839 -22 -115
-53 -216 -72 -237 -16 -17 -19 -30 -15 -59 10 -62 -71 -278 -102 -272 -16 3
-45 54 -56 100 -7 28 11 38 73 38 30 0 32 2 32 34 0 43 -25 103 -47 114 -10 5
-27 6 -38 1 -11 -4 -37 -8 -58 -8 -31 -1 -41 -7 -58 -33 -40 -64 -4 -239 59
-288 20 -16 34 -19 78 -14 51 6 54 5 54 -15 0 -12 -22 -110 -50 -219 -117
-467 -190 -783 -200 -867 -49 -430 67 -909 275 -1133 l55 -60 0 -1046 c0 -713
-3 -1054 -11 -1067 -5 -11 -28 -27 -50 -35 -32 -13 -37 -18 -25 -28 25 -20 28
-51 5 -79 -11 -15 -27 -27 -35 -27 -10 0 -14 -12 -14 -41 0 -37 3 -41 38 -55
20 -9 52 -23 70 -31 26 -13 40 -13 75 -4 23 6 80 17 127 24 l85 13 2 39 c3 35
-1 42 -29 60 -41 25 -46 50 -18 80 l23 24 -29 13 c-16 6 -39 21 -51 32 l-23
19 0 1038 c0 671 3 1040 10 1044 5 3 35 10 65 15 74 12 116 39 158 103 99 150
142 436 102 682 -24 147 -60 237 -123 307 -28 32 -33 42 -22 46 33 11 88 80
109 137 33 89 47 212 33 302 -22 137 -88 232 -141 203 -11 -5 -42 -10 -69 -10
-72 0 -87 -21 -87 -119 0 -58 5 -83 19 -104 17 -25 23 -27 77 -26 59 2 78 17
45 36 -23 14 -36 50 -36 100 0 71 13 84 39 42 71 -115 67 -333 -9 -467 -38
-64 -63 -69 -109 -17 -66 75 -110 203 -147 430 -23 138 -26 499 -5 615 22 123
72 322 87 344 7 12 12 35 12 51 -1 31 58 187 87 231 8 13 20 24 26 24 12 0 48
-77 51 -111 3 -22 -1 -24 -52 -29 l-55 -5 3 -45 c2 -24 11 -58 21 -75 16 -28
21 -30 82 -30 82 0 96 7 109 53 19 72 7 161 -34 240 -26 51 -50 62 -124 55
-57 -5 -65 -4 -59 10 10 26 244 975 258 1047 21 104 18 483 -5 595 -55 280
-140 464 -263 574 l-55 49 3 731 c1 402 1 732 -2 735 -2 2 -34 6 -71 9 l-68 5
-2 -732z m-38 -772 c0 -2 -9 -4 -21 -4 -11 0 -18 4 -14 10 5 8 35 3 35 -6z
m105 -24 c232 -159 363 -701 286 -1178 -8 -47 -112 -493 -127 -541 -10 -30
-21 8 -33 108 -14 113 -56 291 -91 385 -15 38 -39 75 -68 104 l-45 45 26 19
c67 49 102 152 101 303 0 89 -5 121 -22 166 -34 87 -52 98 -141 92 l-73 -6
-19 -41 c-21 -46 -24 -121 -8 -178 l10 -38 56 0 c49 0 54 2 48 18 -28 67 -31
150 -7 174 21 21 61 -105 61 -192 1 -94 -42 -223 -88 -264 -21 -19 -22 -19
-52 10 -36 34 -81 126 -100 204 -10 37 -14 117 -14 245 0 216 16 300 80 432
38 76 121 163 157 163 11 0 39 -13 63 -30z m-131 -3472 c17 -168 74 -397 121
-480 25 -46 77 -98 96 -98 5 0 9 -4 9 -10 0 -5 -8 -10 -18 -10 -19 0 -67 -48
-90 -88 -20 -35 -42 -142 -42 -204 0 -71 17 -151 42 -203 35 -70 43 -75 124
-75 66 0 74 2 92 25 27 34 36 126 20 190 l-13 50 -54 -2 c-30 -2 -55 -4 -57
-6 -2 -1 3 -21 11 -42 19 -54 20 -135 1 -135 -7 0 -18 12 -24 28 -29 75 -34
110 -30 202 3 84 8 106 33 155 43 84 58 89 102 40 82 -92 114 -205 120 -424 6
-179 -4 -270 -42 -380 -31 -91 -50 -126 -97 -177 -49 -53 -70 -55 -134 -11
-123 85 -233 285 -290 526 -44 190 -57 486 -30 666 11 71 103 466 121 523 11
31 23 6 29 -60z m205 -1694 c12 -11 -13 -16 -46 -9 -32 6 -35 9 -18 15 18 8
53 4 64 -6z"/>
</g>
</svg>
