<?xml version="1.0" standalone="no"?>
<!DOCTYPE svg PUBLIC "-//W3C//DTD SVG 20010904//EN"
 "http://www.w3.org/TR/2001/REC-SVG-20010904/DTD/svg10.dtd">
<svg version="1.0" xmlns="http://www.w3.org/2000/svg"
 width="2550.000000pt" height="2700.000000pt" viewBox="0 0 2550.000000 2700.000000"
 preserveAspectRatio="xMidYMid meet">

<g transform="translate(0.000000,2700.000000) scale(0.100000,-0.100000)"
fill="#C5C3C1" stroke="none">
<path d="M25178 26973 c-20 -47 -14 -171 11 -234 40 -104 126 -180 220 -195
49 -8 52 -18 9 -40 -49 -25 -137 -112 -180 -178 -21 -33 -50 -96 -65 -140 -24
-73 -26 -96 -26 -226 0 -130 2 -153 25 -217 34 -97 71 -157 133 -219 67 -67
195 -134 195 -102 0 7 -24 26 -54 41 -60 31 -148 115 -152 143 -1 11 -14 47
-28 81 -15 34 -31 88 -37 120 -15 76 -5 273 16 343 34 112 125 236 218 298 35
23 37 28 37 77 l0 52 -30 -5 c-16 -2 -45 -1 -63 2 -32 6 -124 74 -141 105 -8
14 -7 14 7 2 14 -11 13 -5 -4 35 -30 66 -36 160 -15 223 9 27 16 52 16 55 0 3
-18 6 -40 6 -35 0 -42 -4 -52 -27z"/>
<path d="M25491 26084 c0 -11 3 -14 6 -6 3 7 2 16 -1 19 -3 4 -6 -2 -5 -13z"/>
</g>
</svg>
