<?xml version="1.0" standalone="no"?>
<!DOCTYPE svg PUBLIC "-//W3C//DTD SVG 20010904//EN"
 "http://www.w3.org/TR/2001/REC-SVG-20010904/DTD/svg10.dtd">
<svg version="1.0" xmlns="http://www.w3.org/2000/svg"
 width="2550.000000pt" height="2700.000000pt" viewBox="0 0 2550.000000 2700.000000"
 preserveAspectRatio="xMidYMid meet">

<g transform="translate(0.000000,2700.000000) scale(0.100000,-0.100000)"
fill="#C5C3C1" stroke="none">
<path d="M11993 16343 l-63 -71 0 -449 0 -450 -42 -12 c-122 -36 -289 -152
-371 -256 -145 -186 -216 -427 -189 -649 20 -162 26 -176 416 -1005 53 -113
96 -209 96 -213 0 -5 -15 2 -33 16 -106 81 -260 68 -344 -28 -76 -86 -65 -205
22 -242 81 -34 173 -5 201 62 22 54 16 79 -21 79 -26 0 -32 -5 -43 -40 -14
-44 -44 -75 -72 -75 -25 0 -70 56 -70 86 0 64 68 144 142 166 37 11 45 10 86
-13 79 -41 222 -229 222 -290 0 -15 7 -30 16 -33 24 -9 123 -227 152 -334 22
-84 26 -117 26 -252 1 -188 -19 -281 -94 -436 -87 -180 -188 -262 -325 -265
-87 -2 -128 15 -196 78 -123 115 -150 286 -61 385 70 78 158 97 210 45 50 -51
28 -122 -47 -154 -39 -17 -32 -31 20 -39 72 -12 139 72 124 155 -23 123 -262
149 -361 39 -77 -84 -92 -213 -38 -328 49 -103 116 -168 207 -201 20 -7 37
-16 37 -19 0 -3 -25 -18 -55 -33 -159 -78 -237 -224 -238 -447 0 -88 4 -118
27 -185 15 -44 38 -99 52 -122 34 -58 125 -155 181 -192 73 -49 198 -93 283
-100 l75 -6 3 -525 c1 -289 0 -535 -3 -546 -2 -12 -15 -24 -27 -28 -46 -12
-52 -21 -33 -49 19 -29 10 -55 -26 -80 -11 -8 -22 -29 -24 -46 -4 -28 -1 -31
38 -43 23 -6 47 -15 53 -20 7 -5 31 -4 55 1 24 6 81 11 127 11 l82 0 0 39 c0
25 -5 41 -14 44 -8 3 -22 17 -32 31 -15 24 -15 28 1 53 10 15 14 28 9 30 -5 2
-24 12 -41 23 l-33 20 0 554 0 554 38 13 c110 35 245 123 333 215 179 189 260
413 246 682 -8 150 -29 224 -127 432 -42 91 -143 305 -223 477 -81 171 -147
316 -147 322 0 6 17 0 38 -13 46 -31 132 -50 186 -42 138 23 228 171 166 274
-64 104 -260 64 -260 -53 0 -27 5 -34 25 -39 34 -9 45 -1 45 30 0 28 49 84 73
84 22 0 67 -58 67 -86 0 -35 -34 -97 -70 -127 -47 -40 -102 -52 -145 -31 -71
33 -235 247 -235 305 0 15 -7 32 -16 40 -19 16 -74 123 -114 223 -47 120 -63
228 -57 396 6 172 24 245 98 397 82 168 196 254 328 246 146 -8 276 -147 289
-309 8 -111 -44 -197 -136 -225 -75 -22 -151 35 -138 106 7 37 46 75 77 75 20
0 26 25 9 35 -21 13 -92 -8 -122 -34 -63 -56 -42 -174 36 -206 45 -19 150 -26
190 -13 78 27 138 98 156 185 14 63 -4 162 -41 234 -30 59 -105 131 -169 161
l-55 26 30 13 c172 74 260 222 259 439 0 178 -55 323 -166 445 -103 112 -227
172 -380 182 l-88 6 -2 505 -3 505 -62 -70z m212 -997 c151 -40 284 -152 353
-297 48 -101 62 -162 62 -277 0 -153 -45 -271 -131 -343 -63 -52 -106 -69
-179 -69 -76 0 -117 17 -179 75 -135 126 -120 333 29 395 90 37 163 -87 101
-171 -27 -36 -21 -59 13 -59 33 0 76 57 83 108 7 54 -25 125 -69 152 -40 24
-107 26 -171 4 -96 -32 -168 -156 -153 -263 14 -103 94 -211 187 -254 27 -12
49 -25 49 -29 0 -3 -17 -12 -37 -18 -51 -16 -132 -72 -165 -114 -35 -43 -90
-145 -119 -216 -44 -111 -60 -192 -66 -337 -3 -79 -9 -143 -12 -143 -3 0 -45
84 -93 188 -48 103 -128 274 -178 380 -107 228 -130 301 -137 442 -13 240 62
454 217 623 165 180 412 272 595 223z m134 -3176 c25 -52 73 -156 109 -230
120 -253 136 -300 151 -450 37 -361 -153 -708 -471 -860 -172 -83 -309 -87
-454 -15 -122 60 -229 188 -273 326 -21 66 -30 190 -20 269 39 299 344 457
515 268 73 -81 94 -187 55 -273 -21 -47 -89 -112 -127 -121 -36 -9 -74 14 -91
55 -17 41 -11 81 18 123 24 33 18 45 -25 50 -26 3 -33 -3 -53 -37 -42 -74 -24
-168 42 -211 14 -9 46 -21 72 -25 68 -13 118 6 180 67 58 58 77 106 77 195 0
112 -94 244 -199 279 -19 6 -35 15 -35 18 0 4 25 18 55 31 75 32 136 89 188
174 96 159 156 390 145 563 -3 40 -2 76 1 80 6 5 48 -77 140 -276z"/>
</g>
</svg>
