<?xml version="1.0" standalone="no"?>
<!DOCTYPE svg PUBLIC "-//W3C//DTD SVG 20010904//EN"
 "http://www.w3.org/TR/2001/REC-SVG-20010904/DTD/svg10.dtd">
<svg version="1.0" xmlns="http://www.w3.org/2000/svg"
 width="3542.000000pt" height="3750.000000pt" viewBox="0 0 3542.000000 3750.000000"
 preserveAspectRatio="xMidYMid meet">

<g transform="translate(0.000000,3750.000000) scale(0.100000,-0.100000)"
fill="#C5C3C1" stroke="none">
<path d="M12300 18523 c-3 -1248 -4 -1288 -25 -1290 -11 -1 -64 -5 -117 -8
l-98 -7 0 -3708 0 -3707 39 -7 c33 -5 99 2 179 19 l22 5 0 -578 c0 -654 8
-592 -84 -631 l-48 -21 26 -21 c47 -37 30 -93 -37 -118 -24 -9 -27 -15 -27
-60 l0 -49 120 -23 119 -23 138 23 c75 12 141 25 145 27 4 3 8 25 8 50 0 39
-3 46 -27 55 -63 24 -83 78 -43 114 28 25 26 31 -22 50 -84 33 -78 -19 -78
644 l0 589 73 12 c39 7 90 15 112 19 l40 7 3 3676 2 3677 -112 3 -113 3 -2
660 c-1 363 -2 670 -3 683 0 21 -3 22 -95 22 l-95 0 0 -87z m246 -2108 c1
-444 -2 -684 -8 -692 -8 -9 -51 -13 -153 -13 l-143 0 -5 33 c-6 32 -10 1336
-5 1338 4 3 280 16 298 15 13 -1 15 -85 16 -681z m-4 -862 c7 -136 4 -309 -6
-315 -6 -4 -75 -8 -153 -8 l-142 0 -7 46 c-8 55 -1 271 10 281 4 5 67 11 139
14 73 3 138 6 145 7 7 1 13 -10 14 -25z m-1 -455 c1 -2 3 -727 5 -1612 3
-1281 1 -1611 -8 -1618 -7 -4 -77 -8 -155 -8 l-142 0 -6 33 c-9 50 -1 3174 8
3184 5 4 68 11 140 14 73 3 138 6 145 7 6 1 12 1 13 0z m2 -3405 c2 -21 5 -93
6 -159 2 -104 0 -122 -14 -128 -9 -3 -79 -6 -155 -6 l-139 0 -7 35 c-8 46 -1
261 9 272 5 4 68 11 140 14 73 3 137 6 143 7 7 1 14 -15 17 -35z m0 -485 c7
-113 8 -1188 0 -1188 -5 0 -73 -11 -152 -25 -79 -14 -148 -25 -153 -25 -11 0
-6 1265 5 1277 5 4 68 11 140 14 73 3 137 6 144 7 7 1 13 -21 16 -60z"/>
</g>
</svg>
