<?xml version="1.0" standalone="no"?>
<!DOCTYPE svg PUBLIC "-//W3C//DTD SVG 20010904//EN"
 "http://www.w3.org/TR/2001/REC-SVG-20010904/DTD/svg10.dtd">
<svg version="1.0" xmlns="http://www.w3.org/2000/svg"
 width="3542.000000pt" height="3750.000000pt" viewBox="0 0 3542.000000 3750.000000"
 preserveAspectRatio="xMidYMid meet">

<g transform="translate(0.000000,3750.000000) scale(0.100000,-0.100000)"
fill="#C5C3C1" stroke="none">
<path d="M20077 18713 c-3 -5 -5 -277 -5 -607 -1 -329 -3 -600 -5 -602 -2 -2
-36 -7 -75 -10 l-72 -7 2 -3271 3 -3271 78 0 77 1 0 -506 c0 -567 7 -517 -74
-553 l-39 -18 24 -25 c19 -20 21 -29 13 -52 -5 -15 -23 -33 -41 -42 -29 -13
-33 -19 -33 -57 0 -24 3 -43 8 -43 4 0 58 -9 120 -19 109 -18 115 -18 215 0
56 10 105 19 110 19 4 0 7 20 7 44 0 39 -3 45 -29 55 -50 21 -59 84 -14 109
15 9 11 14 -32 32 -27 12 -53 27 -57 33 -4 7 -8 249 -8 539 l0 526 58 7 c32 3
64 10 70 14 12 7 13 247 12 5409 l0 1092 -70 0 -70 0 0 605 0 605 -84 0 c-47
0 -87 -3 -89 -7z m183 -1937 l0 -606 -100 0 c-55 0 -100 3 -101 8 -1 9 -1
1037 0 1124 l1 67 48 3 c26 2 71 4 100 6 l52 3 0 -605z m0 -885 l0 -161 -100
0 c-73 0 -100 3 -101 13 0 6 -1 75 -1 152 l-1 140 49 5 c27 3 73 7 102 8 l52
3 0 -160z m0 -1710 l0 -1431 -100 0 c-88 0 -100 2 -101 18 0 29 -1 2775 0
2804 1 29 -8 27 149 36 l52 3 0 -1430z m-1 -1695 l-1 -146 -99 0 -99 0 -1 45
c0 25 -1 61 -1 80 0 19 1 62 1 94 l1 60 48 3 c26 2 71 4 100 6 l52 3 -1 -145z
m-2 -813 l-2 -548 -65 -12 c-36 -6 -82 -14 -102 -17 l-38 -6 0 537 c0 296 3
548 6 560 6 23 4 23 151 31 l53 3 -3 -548z"/>
</g>
</svg>
