<?xml version="1.0" standalone="no"?>
<!DOCTYPE svg PUBLIC "-//W3C//DTD SVG 20010904//EN"
 "http://www.w3.org/TR/2001/REC-SVG-20010904/DTD/svg10.dtd">
<svg version="1.0" xmlns="http://www.w3.org/2000/svg"
 width="3542.000000pt" height="3750.000000pt" viewBox="0 0 3542.000000 3750.000000"
 preserveAspectRatio="xMidYMid meet">

<g transform="translate(0.000000,3750.000000) scale(0.100000,-0.100000)"
fill="#C5C3C1" stroke="none">
<path d="M20920 18126 c0 -477 -3 -604 -12 -603 -7 0 -39 -1 -70 -1 l-58 -2 0
-3224 0 -3224 35 -6 c19 -4 51 -4 70 0 l35 6 0 -497 c0 -295 -4 -504 -10 -514
-5 -10 -30 -26 -56 -36 -37 -14 -43 -20 -30 -27 46 -26 39 -86 -13 -108 -28
-11 -31 -17 -31 -54 l0 -42 116 -18 c114 -18 139 -18 272 5 l62 11 0 42 c-1
35 -5 44 -33 61 -40 25 -47 65 -18 94 l21 21 -50 21 c-33 14 -52 29 -55 43 -3
11 -4 248 -3 526 l3 504 35 7 c19 4 52 10 73 13 l37 7 0 3205 0 3205 -62 -1
c-35 -1 -69 -1 -75 -1 -10 1 -13 127 -13 596 l0 595 -85 0 -85 0 0 -604z m190
-1295 c0 -519 -2 -579 -16 -585 -9 -3 -53 -6 -98 -6 l-82 0 2 573 c1 314 2
575 3 579 1 8 51 14 134 16 l57 2 0 -579z m0 -865 c0 -131 -2 -155 -16 -160
-9 -3 -52 -6 -97 -6 l-82 0 1 133 c2 192 -2 175 42 180 20 2 63 4 95 5 l57 2
0 -154z m0 -1665 c0 -1244 -2 -1380 -16 -1385 -9 -3 -51 -6 -95 -6 -68 0 -79
2 -80 18 -3 61 -3 2692 0 2714 3 30 16 33 134 36 l57 2 0 -1379z m0 -1655 c0
-122 -2 -145 -16 -150 -9 -3 -51 -6 -95 -6 l-79 0 -1 70 c0 39 0 90 0 115 0
109 -3 103 39 108 20 2 63 4 95 5 l57 2 0 -144z m-3 -838 l-2 -562 -93 -16
c-53 -9 -95 -13 -99 -7 -5 9 -1 1034 5 1099 4 41 9 43 134 46 l57 2 -2 -562z"/>
</g>
</svg>
