<?xml version="1.0" standalone="no"?>
<!DOCTYPE svg PUBLIC "-//W3C//DTD SVG 20010904//EN"
 "http://www.w3.org/TR/2001/REC-SVG-20010904/DTD/svg10.dtd">
<svg version="1.0" xmlns="http://www.w3.org/2000/svg"
 width="3542.000000pt" height="3750.000000pt" viewBox="0 0 3542.000000 3750.000000"
 preserveAspectRatio="xMidYMid meet">

<g transform="translate(0.000000,3750.000000) scale(0.100000,-0.100000)"
fill="#C5C3C1" stroke="none">
<path d="M21740 18151 c0 -664 9 -601 -86 -601 l-54 0 0 -3179 0 -3178 30 -7
c17 -3 49 -3 73 0 l42 6 0 -488 c0 -269 -4 -497 -9 -506 -4 -9 -27 -25 -52
-34 l-43 -17 19 -25 c11 -13 20 -32 20 -42 0 -18 -35 -53 -62 -63 -13 -5 -18
-17 -18 -46 l0 -39 116 -17 c99 -15 129 -16 203 -6 139 19 131 15 131 64 0 38
-4 44 -33 57 -40 19 -49 66 -18 94 20 18 19 19 -32 45 l-52 26 -3 513 c-2 405
0 513 10 517 7 2 39 9 71 15 l57 11 -2 3157 -3 3157 -67 -3 -68 -4 0 591 0
591 -85 0 -85 0 0 -589z m180 -1301 l0 -590 -34 0 c-18 0 -61 -3 -95 -6 l-61
-7 0 591 0 591 38 4 c20 2 63 4 95 5 l57 2 0 -590z m0 -860 l0 -150 -34 0
c-18 0 -61 -3 -95 -6 l-61 -7 0 114 c0 63 3 131 6 151 7 41 13 43 127 46 l57
2 0 -150z m0 -1645 l0 -1375 -34 0 c-18 0 -61 -3 -95 -6 l-61 -7 0 1339 c0
736 3 1356 6 1376 7 41 13 43 127 46 l57 2 0 -1375z m0 -1645 l0 -150 -34 0
c-18 0 -61 -3 -95 -6 l-61 -7 0 105 c0 58 3 126 6 151 7 51 9 52 127 55 l57 2
0 -150z m2 -352 c2 -46 2 -286 0 -534 l-2 -451 -78 -12 c-42 -7 -85 -15 -94
-17 -17 -5 -18 23 -18 494 0 275 3 520 6 545 7 51 9 52 126 55 l57 2 3 -82z"/>
</g>
</svg>
