<?xml version="1.0" standalone="no"?>
<!DOCTYPE svg PUBLIC "-//W3C//DTD SVG 20010904//EN"
 "http://www.w3.org/TR/2001/REC-SVG-20010904/DTD/svg10.dtd">
<svg version="1.0" xmlns="http://www.w3.org/2000/svg"
 width="3542.000000pt" height="3750.000000pt" viewBox="0 0 3542.000000 3750.000000"
 preserveAspectRatio="xMidYMid meet">

<g transform="translate(0.000000,3750.000000) scale(0.100000,-0.100000)"
fill="#C5C3C1" stroke="none">
<path d="M14435 15972 c0 -1472 -2 -3644 -5 -4827 l-5 -2150 -57 -29 -58 -28
25 -20 c44 -35 24 -94 -41 -118 -23 -9 -25 -15 -22 -57 l3 -47 123 -21 c121
-22 124 -22 230 -4 164 28 152 22 152 79 0 36 -4 50 -14 50 -7 0 -25 9 -40 21
-32 25 -35 68 -6 94 11 10 20 21 20 24 0 3 -21 15 -48 25 -26 11 -52 27 -59
35 -10 13 -12 1062 -13 4834 l0 4817 -92 0 -93 0 0 -2678z"/>
</g>
</svg>
