<?xml version="1.0" standalone="no"?>
<!DOCTYPE svg PUBLIC "-//W3C//DTD SVG 20010904//EN"
 "http://www.w3.org/TR/2001/REC-SVG-20010904/DTD/svg10.dtd">
<svg version="1.0" xmlns="http://www.w3.org/2000/svg"
 width="3542.000000pt" height="3750.000000pt" viewBox="0 0 3542.000000 3750.000000"
 preserveAspectRatio="xMidYMid meet">

<g transform="translate(0.000000,3750.000000) scale(0.100000,-0.100000)"
fill="#C5C3C1" stroke="none">
<path d="M15460 18662 c-7 -3 -10 -1446 -10 -4746 0 -4505 -1 -4744 -17 -4758
-10 -8 -37 -23 -60 -33 l-43 -18 25 -25 c28 -28 30 -35 13 -65 -15 -28 -38
-46 -60 -47 -15 0 -18 -9 -18 -49 0 -57 -9 -52 137 -77 105 -18 167 -15 311
16 l52 12 0 49 c0 38 -4 49 -15 49 -24 0 -65 46 -65 74 0 14 10 33 25 44 l25
20 -55 23 c-30 13 -57 30 -60 37 -3 7 -5 2149 -5 4758 l-1 4745 -84 -3 c-46
-2 -89 -4 -95 -6z"/>
</g>
</svg>
