<?xml version="1.0" standalone="no"?>
<!DOCTYPE svg PUBLIC "-//W3C//DTD SVG 20010904//EN"
 "http://www.w3.org/TR/2001/REC-SVG-20010904/DTD/svg10.dtd">
<svg version="1.0" xmlns="http://www.w3.org/2000/svg"
 width="3542.000000pt" height="3750.000000pt" viewBox="0 0 3542.000000 3750.000000"
 preserveAspectRatio="xMidYMid meet">

<g transform="translate(0.000000,3750.000000) scale(0.100000,-0.100000)"
fill="#C5C3C1" stroke="none">
<path d="M34480 13667 c0 -3956 -3 -4966 -12 -4979 -7 -8 -34 -24 -60 -34 -44
-17 -62 -34 -38 -34 10 0 40 -51 40 -68 0 -17 -52 -62 -71 -62 -16 0 -19 -8
-19 -54 l0 -55 43 -6 c326 -47 277 -46 440 -4 l37 10 0 54 c0 47 -3 55 -18 55
-27 0 -62 42 -62 73 0 15 9 35 20 44 11 10 20 20 20 24 0 3 -20 14 -45 24 -25
9 -52 23 -60 32 -13 13 -15 607 -15 4979 l0 4964 -100 0 -100 0 0 -4963z"/>
</g>
</svg>
