<?xml version="1.0" standalone="no"?>
<!DOCTYPE svg PUBLIC "-//W3C//DTD SVG 20010904//EN"
 "http://www.w3.org/TR/2001/REC-SVG-20010904/DTD/svg10.dtd">
<svg version="1.0" xmlns="http://www.w3.org/2000/svg"
 width="3542.000000pt" height="3750.000000pt" viewBox="0 0 3542.000000 3750.000000"
 preserveAspectRatio="xMidYMid meet">

<g transform="translate(0.000000,3750.000000) scale(0.100000,-0.100000)"
fill="#C5C3C1" stroke="none">
<path d="M8893 18572 l-63 -3 -2 -942 c0 -518 -1 -2872 -2 -5232 -1 -3253 -4
-4295 -13 -4310 -6 -12 -37 -31 -67 -44 l-57 -23 26 -24 c45 -42 24 -108 -42
-129 -20 -5 -23 -13 -23 -59 l0 -53 118 -27 119 -27 154 26 c85 15 157 29 161
32 5 2 8 26 8 53 0 47 -2 50 -34 64 -67 28 -80 91 -26 129 20 14 19 15 -35 38
-30 12 -62 33 -70 45 -12 19 -14 708 -14 5249 1 2874 -1 5229 -4 5232 -7 7
-58 9 -134 5z"/>
</g>
</svg>
