<?xml version="1.0" standalone="no"?>
<!DOCTYPE svg PUBLIC "-//W3C//DTD SVG 20010904//EN"
 "http://www.w3.org/TR/2001/REC-SVG-20010904/DTD/svg10.dtd">
<svg version="1.0" xmlns="http://www.w3.org/2000/svg"
 width="2550.000000pt" height="2700.000000pt" viewBox="0 0 2550.000000 2700.000000"
 preserveAspectRatio="xMidYMid meet">

<g transform="translate(0.000000,2700.000000) scale(0.100000,-0.100000)"
fill="#3a4548" stroke="none">
<path d="M1380 12428 c0 -1314 -4 -1428 -62 -1761 -26 -154 -17 -198 45 -220
10 -4 17 -17 17 -31 0 -19 -8 -27 -37 -37 -55 -17 -56 -19 -28 -44 14 -13 25
-33 25 -44 0 -20 -43 -61 -64 -61 -6 0 -27 -14 -46 -29 l-35 -29 33 -19 c17
-10 32 -21 32 -25 0 -5 9 -8 20 -8 23 0 60 -33 60 -54 0 -8 -12 -28 -26 -45
l-26 -31 46 -12 c56 -15 62 -43 16 -76 -52 -39 -56 -76 -26 -260 56 -339 56
-373 54 -2262 l-3 -1735 -47 -23 c-46 -23 -46 -24 -27 -43 10 -10 19 -26 19
-34 0 -18 -43 -65 -60 -65 -5 0 -10 -15 -10 -34 0 -38 14 -46 90 -46 25 0 62
-5 83 -11 22 -6 46 -7 55 -3 10 4 55 17 102 28 l85 21 3 35 c2 31 -2 37 -30
50 -37 17 -49 58 -24 80 23 18 20 27 -11 33 -16 3 -37 12 -47 20 -19 14 -19
55 -17 1788 1 1073 6 1817 12 1884 13 152 27 265 44 365 21 120 19 172 -6 204
-11 14 -27 26 -35 26 -9 0 -14 11 -14 29 0 25 5 30 35 35 44 9 51 20 25 46
-30 30 -23 71 16 90 16 9 37 21 45 28 7 7 23 19 34 26 16 12 17 16 6 30 -7 9
-20 16 -27 16 -8 0 -14 4 -14 8 0 4 -16 14 -35 21 -19 7 -39 20 -44 29 -10 20
0 52 23 71 25 21 19 29 -24 36 -33 6 -40 11 -40 30 0 13 15 38 35 58 31 31 35
41 35 85 0 27 -5 74 -10 103 -6 30 -20 122 -32 204 -21 146 -22 186 -27 1445
l-6 1295 -77 3 -78 3 0 -1183z"/>
</g>
</svg>
