<?xml version="1.0" standalone="no"?>
<!DOCTYPE svg PUBLIC "-//W3C//DTD SVG 20010904//EN"
 "http://www.w3.org/TR/2001/REC-SVG-20010904/DTD/svg10.dtd">
<svg version="1.0" xmlns="http://www.w3.org/2000/svg"
 width="2550.000000pt" height="2700.000000pt" viewBox="0 0 2550.000000 2700.000000"
 preserveAspectRatio="xMidYMid meet">

<g transform="translate(0.000000,2700.000000) scale(0.100000,-0.100000)"
fill="#3a4548" stroke="none">
<path d="M14285 13520 c-3 -5 -5 -639 -5 -1407 2 -1409 0 -1510 -35 -1848 -23
-216 -20 -250 27 -283 36 -26 19 -64 -35 -77 -30 -8 -47 -27 -29 -33 7 -2 19
-17 28 -34 14 -27 14 -32 -1 -55 -10 -14 -30 -30 -46 -36 -16 -6 -29 -16 -29
-22 0 -5 -14 -16 -30 -24 -36 -15 -35 -31 3 -49 15 -7 27 -17 27 -23 0 -5 9
-9 20 -9 24 0 70 -42 70 -64 0 -8 -12 -29 -26 -46 -15 -17 -24 -33 -22 -35 2
-3 22 -11 44 -18 45 -16 53 -44 23 -78 -43 -50 -46 -91 -19 -334 10 -100 18
-205 29 -405 4 -74 7 -1012 7 -2085 l-1 -1950 -52 -34 c-50 -33 -51 -35 -33
-48 11 -8 20 -25 20 -39 0 -25 -40 -74 -60 -74 -5 0 -10 -20 -10 -43 l0 -44
139 -12 140 -11 73 29 c73 29 73 29 76 70 3 36 0 42 -21 50 -50 19 -66 73 -31
102 22 18 17 25 -26 38 -22 6 -44 20 -50 31 -14 25 -14 3778 0 4065 6 116 20
302 31 415 22 220 19 269 -21 290 -12 6 -20 21 -20 35 0 19 10 28 47 45 l46
20 -26 28 c-34 35 -34 66 -2 89 88 62 114 85 109 96 -2 7 -31 27 -63 45 -79
44 -89 69 -45 121 l26 31 -24 9 c-13 5 -32 10 -43 12 -29 6 -30 41 -1 83 35
52 39 96 22 247 -41 353 -47 689 -46 2472 l0 807 -74 0 c-41 0 -78 -4 -81 -10z"/>
</g>
</svg>
