<?xml version="1.0" standalone="no"?>
<!DOCTYPE svg PUBLIC "-//W3C//DTD SVG 20010904//EN"
 "http://www.w3.org/TR/2001/REC-SVG-20010904/DTD/svg10.dtd">
<svg version="1.0" xmlns="http://www.w3.org/2000/svg"
 width="2550.000000pt" height="2700.000000pt" viewBox="0 0 2550.000000 2700.000000"
 preserveAspectRatio="xMidYMid meet">

<g transform="translate(0.000000,2700.000000) scale(0.100000,-0.100000)"
fill="#3a4548" stroke="none">
<path d="M18848 22113 l-47 -48 -4 -1270 c-3 -1244 -4 -1273 -25 -1424 -12
-84 -34 -208 -48 -275 -39 -183 -40 -196 -13 -230 12 -16 37 -35 56 -42 24
-10 33 -21 33 -38 0 -18 -8 -25 -40 -35 -45 -13 -48 -20 -20 -46 11 -10 20
-29 20 -42 0 -24 -32 -63 -52 -63 -23 -1 -71 -47 -65 -62 3 -8 30 -32 61 -52
46 -30 56 -42 56 -65 0 -15 -9 -36 -20 -46 -28 -25 -26 -31 20 -49 31 -12 40
-21 40 -39 0 -18 -9 -27 -38 -39 -28 -11 -43 -26 -57 -54 -18 -37 -18 -42 -1
-119 27 -123 55 -278 73 -405 15 -102 17 -275 20 -1519 4 -1564 10 -1427 -64
-1452 l-35 -11 23 -24 c19 -20 21 -29 13 -52 -5 -15 -22 -33 -37 -40 -24 -12
-28 -19 -25 -50 l3 -36 60 1 c33 1 120 2 193 2 l132 1 0 35 c0 28 -5 37 -29
49 -16 9 -31 22 -35 31 -7 19 9 61 26 68 16 5 14 6 -37 32 l-40 20 -3 1370
c-2 947 1 1406 8 1485 12 124 52 374 75 474 28 117 15 164 -51 192 -27 12 -34
20 -34 43 0 25 5 30 35 35 19 4 35 9 35 11 0 2 -9 20 -21 39 -26 45 -18 73 27
92 19 8 34 19 34 24 0 6 6 10 14 10 7 0 20 7 27 16 11 14 10 18 -6 30 -11 7
-27 19 -35 26 -8 7 -23 18 -34 23 -11 6 -27 22 -35 37 -14 25 -14 29 8 59 25
34 21 43 -26 55 -17 5 -23 14 -23 35 0 23 7 31 33 42 68 29 79 79 48 218 -28
129 -58 313 -70 443 -7 71 -11 563 -11 1387 0 1155 -2 1277 -16 1283 -25 10
-27 8 -76 -41z"/>
</g>
</svg>
