<?xml version="1.0" standalone="no"?>
<!DOCTYPE svg PUBLIC "-//W3C//DTD SVG 20010904//EN"
 "http://www.w3.org/TR/2001/REC-SVG-20010904/DTD/svg10.dtd">
<svg version="1.0" xmlns="http://www.w3.org/2000/svg"
 width="2550.000000pt" height="2700.000000pt" viewBox="0 0 2550.000000 2700.000000"
 preserveAspectRatio="xMidYMid meet">

<g transform="translate(0.000000,2700.000000) scale(0.100000,-0.100000)"
fill="#3a4548" stroke="none">
<path d="M19923 23145 l-52 -46 0 -1259 c-1 -804 -5 -1293 -11 -1352 -18 -160
-40 -299 -66 -413 -38 -174 -31 -221 43 -251 28 -12 34 -19 31 -41 -2 -21 -10
-29 -35 -35 -39 -10 -39 -12 -13 -45 11 -14 20 -33 20 -43 0 -18 -40 -60 -58
-60 -6 0 -25 -13 -42 -29 -29 -26 -30 -30 -15 -42 9 -8 24 -22 33 -31 9 -10
21 -18 27 -18 17 0 55 -44 55 -62 0 -8 -10 -28 -22 -43 -21 -27 -21 -28 -3
-41 10 -8 24 -14 31 -14 19 0 34 -24 28 -47 -4 -13 -17 -23 -35 -27 -18 -3
-37 -18 -50 -38 -24 -39 -22 -94 9 -233 26 -117 50 -270 62 -398 11 -109 15
-3821 4 -3838 -3 -5 -23 -18 -45 -29 l-39 -21 21 -29 c21 -28 21 -30 4 -56 -9
-14 -26 -29 -36 -31 -15 -4 -19 -14 -19 -44 l0 -39 192 2 192 3 3 32 c3 27 -1
34 -25 47 -44 23 -55 62 -25 92 19 18 17 21 -46 56 l-31 17 0 1823 c0 2040 0
2037 77 2403 38 182 39 205 13 238 -12 15 -37 34 -56 42 -23 9 -34 21 -34 35
0 19 7 24 68 45 10 4 8 12 -8 35 -31 44 -23 68 40 112 30 21 57 43 59 49 4 12
-57 68 -75 69 -17 0 -44 35 -44 57 0 11 9 32 20 46 l20 25 -23 14 c-12 8 -30
18 -40 21 -31 12 -17 50 25 69 46 22 71 67 65 117 -2 20 -18 104 -35 186 -69
334 -66 263 -72 1730 -4 1171 -7 1330 -20 1333 -8 1 -38 -18 -67 -43z"/>
</g>
</svg>
