<?xml version="1.0" standalone="no"?>
<!DOCTYPE svg PUBLIC "-//W3C//DTD SVG 20010904//EN"
 "http://www.w3.org/TR/2001/REC-SVG-20010904/DTD/svg10.dtd">
<svg version="1.0" xmlns="http://www.w3.org/2000/svg"
 width="2550.000000pt" height="2700.000000pt" viewBox="0 0 2550.000000 2700.000000"
 preserveAspectRatio="xMidYMid meet">

<g transform="translate(0.000000,2700.000000) scale(0.100000,-0.100000)"
fill="#3a4548" stroke="none">
<path d="M12827 12093 c-3 -961 -8 -1471 -15 -1538 -6 -55 -14 -125 -17 -155
-2 -30 -10 -105 -17 -166 -13 -121 -5 -164 33 -185 22 -12 27 -69 6 -69 -8 0
-28 -7 -46 -16 l-33 -16 26 -27 c14 -15 26 -36 26 -47 0 -22 -38 -64 -58 -64
-18 0 -82 -64 -74 -75 9 -12 39 -32 72 -46 65 -27 76 -68 34 -118 l-26 -31 46
-12 c38 -10 46 -16 46 -36 0 -13 -11 -37 -24 -53 -32 -38 -40 -98 -28 -201 6
-46 14 -110 17 -143 3 -33 11 -103 17 -155 12 -99 24 -4142 13 -4188 -3 -14
-22 -31 -50 -44 -42 -21 -58 -38 -35 -38 6 0 15 -11 21 -24 14 -30 -1 -60 -41
-81 -25 -13 -30 -21 -30 -54 l0 -38 53 -6 c185 -21 229 -20 298 7 36 15 66 32
66 39 0 7 4 24 8 39 6 24 3 29 -18 37 -47 18 -60 68 -27 101 19 19 19 19 -24
39 -24 10 -46 23 -50 29 -11 17 -7 3973 4 4122 5 74 16 200 25 279 22 211 21
256 -10 287 -33 33 -34 79 -2 88 48 13 52 21 27 61 -19 30 -21 41 -11 61 6 13
15 24 20 24 6 0 8 9 6 19 -2 13 9 32 34 54 41 37 39 45 -24 78 -39 21 -45 61
-15 101 12 16 20 31 18 33 -1 2 -19 7 -38 12 -28 7 -36 15 -38 37 -2 18 4 36
16 50 37 39 44 93 28 218 -8 62 -20 174 -26 248 -6 74 -12 153 -15 175 -2 22
-4 667 -4 1433 l-1 1392 -79 0 -80 0 -4 -1437z"/>
</g>
</svg>
