<?xml version="1.0" standalone="no"?>
<!DOCTYPE svg PUBLIC "-//W3C//DTD SVG 20010904//EN"
 "http://www.w3.org/TR/2001/REC-SVG-20010904/DTD/svg10.dtd">
<svg version="1.0" xmlns="http://www.w3.org/2000/svg"
 width="2550.000000pt" height="2700.000000pt" viewBox="0 0 2550.000000 2700.000000"
 preserveAspectRatio="xMidYMid meet">

<g transform="translate(0.000000,2700.000000) scale(0.100000,-0.100000)"
fill="#3a4548" stroke="none">
<path d="M14303 15485 c0 -38 2 -53 4 -32 2 20 2 52 0 70 -2 17 -4 1 -4 -38z"/>
<path d="M14237 15032 l-66 -117 -4 -1065 c-4 -1086 -7 -1178 -47 -1488 -12
-94 -2 -155 30 -175 12 -7 20 -23 20 -38 0 -21 -6 -28 -27 -32 -52 -12 -59
-22 -34 -52 11 -15 21 -35 21 -45 0 -16 -39 -60 -54 -60 -4 0 -20 -10 -36 -22
-34 -25 -39 -57 -10 -65 11 -3 20 -9 20 -13 0 -5 10 -12 23 -16 57 -17 73 -63
35 -104 -21 -22 -21 -23 -3 -36 10 -8 29 -14 42 -14 19 0 23 -5 23 -30 0 -16
-7 -33 -16 -38 -8 -4 -22 -28 -30 -51 -13 -38 -12 -61 6 -224 11 -100 24 -262
30 -361 13 -231 14 -3760 1 -3785 -6 -10 -28 -26 -51 -36 l-40 -18 21 -23 c28
-30 19 -68 -22 -89 -26 -14 -30 -21 -27 -52 3 -41 -7 -38 154 -47 95 -5 121
-3 178 14 65 20 66 22 66 55 0 28 -6 37 -30 50 -36 19 -49 59 -26 84 22 24 21
27 -23 44 -21 9 -41 23 -45 32 -10 28 -7 3605 4 3785 6 91 19 249 30 351 11
102 17 199 14 216 -3 18 -17 42 -30 54 -36 33 -31 56 16 75 22 9 40 18 40 21
0 3 -9 16 -20 30 -11 14 -20 33 -20 43 0 18 35 53 63 63 9 4 17 11 17 17 0 5
6 10 13 10 7 0 18 5 25 12 14 14 -2 48 -23 48 -8 0 -15 4 -15 10 0 5 -16 16
-35 24 -46 19 -56 58 -25 91 26 28 20 42 -23 53 -42 11 -48 44 -14 78 32 31
40 89 28 179 -6 39 -18 153 -28 255 -16 165 -18 311 -18 1347 0 639 -3 1164
-6 1167 -3 3 -35 -47 -72 -112z"/>
</g>
</svg>
