<?xml version="1.0" standalone="no"?>
<!DOCTYPE svg PUBLIC "-//W3C//DTD SVG 20010904//EN"
 "http://www.w3.org/TR/2001/REC-SVG-20010904/DTD/svg10.dtd">
<svg version="1.0" xmlns="http://www.w3.org/2000/svg"
 width="2550.000000pt" height="2700.000000pt" viewBox="0 0 2550.000000 2700.000000"
 preserveAspectRatio="xMidYMid meet">

<g transform="translate(0.000000,2700.000000) scale(0.100000,-0.100000)"
fill="#C5C3C1" stroke="none">
<path d="M15477 19778 l-48 -43 1 -942 c0 -815 -2 -943 -14 -943 -8 0 -22 -7
-30 -16 -14 -14 -14 -18 -1 -37 22 -31 19 -64 -7 -78 -26 -14 -57 -49 -58 -65
0 -7 7 -14 15 -18 8 -3 15 -10 15 -16 0 -6 -4 -8 -10 -5 -5 3 -10 3 -10 -1 0
-10 41 -44 53 -44 6 0 2 7 -9 15 -10 8 -14 15 -8 15 31 1 44 -69 20 -106 -15
-21 -15 -24 -1 -24 8 0 15 -7 15 -15 0 -8 7 -15 15 -15 13 0 15 -124 15 -1052
l0 -1053 -31 -17 c-29 -17 -30 -19 -15 -40 23 -33 20 -75 -6 -89 -26 -14 -57
-49 -58 -65 0 -15 43 -64 57 -64 22 0 33 -73 13 -85 -19 -12 -10 -43 14 -49
l24 -6 -5 -1007 c-3 -555 -8 -1010 -11 -1013 -3 -3 -2 2 2 10 4 8 -1 5 -10 -7
-9 -13 -22 -23 -28 -23 -6 0 -4 5 4 10 9 6 10 10 3 10 -20 0 -24 -18 -9 -42
20 -32 14 -73 -10 -73 -16 0 -19 -7 -19 -50 l0 -50 143 -3 142 -3 0 46 c0 38
-5 50 -27 70 l-28 23 19 33 c19 32 19 33 1 43 -10 6 -27 19 -37 29 -17 16 -18
59 -18 1007 0 834 2 990 14 990 7 0 19 7 26 15 11 13 11 22 -2 48 -16 33 -7
77 16 77 18 0 56 46 56 67 0 10 -18 34 -41 53 -42 34 -44 43 -24 107 6 18 2
25 -19 33 l-26 10 0 1055 c0 1025 1 1055 19 1055 10 0 24 7 31 15 11 13 9 22
-8 54 -19 34 -20 40 -7 51 8 6 13 17 12 22 -1 6 4 13 12 16 9 3 11 0 6 -9 -5
-8 4 -3 18 10 31 28 39 91 12 91 -8 0 -15 4 -15 9 0 5 -9 13 -21 16 -25 8 -41
45 -27 63 6 6 7 12 2 12 -4 0 1 6 11 14 16 12 17 16 6 30 -7 9 -22 16 -32 16
-18 0 -19 28 -19 985 0 542 -3 985 -8 985 -4 0 -29 -19 -55 -42z"/>
</g>
</svg>
