<?xml version="1.0" standalone="no"?>
<!DOCTYPE svg PUBLIC "-//W3C//DTD SVG 20010904//EN"
 "http://www.w3.org/TR/2001/REC-SVG-20010904/DTD/svg10.dtd">
<svg version="1.0" xmlns="http://www.w3.org/2000/svg"
 width="2550.000000pt" height="2700.000000pt" viewBox="0 0 2550.000000 2700.000000"
 preserveAspectRatio="xMidYMid meet">

<g transform="translate(0.000000,2700.000000) scale(0.100000,-0.100000)"
fill="#C5C3C1" stroke="none">
<path d="M16463 20677 c-4 -7 -27 -27 -50 -46 l-43 -33 0 -963 0 -963 -25 -6
c-29 -7 -33 -39 -10 -70 8 -11 15 -15 15 -10 0 6 -5 15 -12 22 -6 6 -9 14 -6
18 4 3 11 -3 17 -15 13 -23 -4 -71 -24 -71 -6 0 -24 -13 -39 -29 l-28 -29 42
-39 c23 -21 46 -47 52 -58 l11 -20 -23 20 -23 20 18 -27 c16 -26 16 -30 1 -53
-20 -31 -20 -51 0 -59 26 -10 29 -7 8 9 -18 14 -18 14 4 8 l22 -5 0 -1062 0
-1063 -25 -13 c-26 -14 -31 -29 -16 -45 5 -6 12 -20 15 -32 6 -18 -2 -32 -41
-69 -26 -25 -42 -43 -35 -39 6 3 12 1 12 -6 0 -7 8 -22 18 -33 16 -20 16 -20
-1 -7 -15 12 -17 12 -11 -3 5 -14 17 -20 35 -18 4 1 12 -12 19 -27 10 -24 9
-35 -5 -62 -16 -31 -16 -33 1 -46 10 -7 21 -13 26 -13 4 0 8 -637 8 -1415 l0
-1415 -30 -18 c-18 -11 -26 -22 -21 -28 17 -17 17 -77 1 -82 -13 -5 -13 -3 0
14 9 12 4 10 -13 -5 -30 -27 -37 -80 -13 -100 9 -8 55 -10 147 -7 74 2 135 5
137 5 1 1 2 19 2 41 0 31 -5 43 -25 56 -28 18 -33 55 -10 74 20 16 19 29 -2
37 -10 3 -26 13 -35 21 -17 14 -18 94 -18 1417 l0 1402 25 11 c29 14 31 24 9
62 -19 31 -14 57 13 67 29 10 63 52 63 76 -1 14 -17 34 -45 55 -48 35 -53 47
-30 78 21 28 18 43 -10 56 l-25 11 0 1058 0 1058 23 11 c22 11 22 11 2 -6 -11
-9 -14 -14 -6 -12 29 9 37 36 18 67 -9 16 -17 34 -17 40 0 14 61 83 68 76 3
-2 -7 -16 -22 -30 -15 -14 -24 -25 -20 -25 5 0 21 12 36 27 20 19 28 37 28 60
0 18 -5 33 -10 33 -6 0 -16 5 -23 10 -7 6 -23 19 -37 29 l-25 19 19 36 c21 40
16 66 -14 66 -20 0 -20 1 -20 1010 0 631 -4 1010 -10 1010 -5 0 -13 -6 -17
-13z m-162 -7939 c-4 -35 -6 -38 -9 -15 -3 26 3 57 10 57 2 0 1 -19 -1 -42z"/>
</g>
</svg>
