<?xml version="1.0" standalone="no"?>
<!DOCTYPE svg PUBLIC "-//W3C//DTD SVG 20010904//EN"
 "http://www.w3.org/TR/2001/REC-SVG-20010904/DTD/svg10.dtd">
<svg version="1.0" xmlns="http://www.w3.org/2000/svg"
 width="2550.000000pt" height="2700.000000pt" viewBox="0 0 2550.000000 2700.000000"
 preserveAspectRatio="xMidYMid meet">

<g transform="translate(0.000000,2700.000000) scale(0.100000,-0.100000)"
fill="#C5C3C1" stroke="none">
<path d="M19940 24207 l-45 -42 0 -984 0 -984 -30 -10 c-40 -13 -39 -12 -21
-39 27 -39 21 -72 -19 -94 -19 -10 -35 -22 -35 -26 0 -5 -6 -8 -14 -8 -44 0
-16 -45 57 -93 31 -20 36 -60 10 -89 -15 -17 -15 -19 3 -33 10 -8 25 -15 31
-15 7 0 15 -10 18 -22 3 -13 4 -502 3 -1088 l-3 -1064 -32 -10 c-37 -10 -40
-18 -18 -36 30 -25 7 -99 -31 -100 -5 -1 -22 -12 -39 -26 l-30 -25 22 -17 c11
-9 37 -30 57 -45 41 -31 47 -68 19 -100 -10 -11 -13 -22 -8 -24 6 -2 21 -9 35
-16 l25 -13 3 -1432 2 -1433 -26 -24 c-15 -14 -33 -25 -40 -25 -18 0 -17 -4 2
-41 15 -30 15 -31 -20 -64 -20 -19 -36 -43 -36 -55 0 -20 3 -20 173 -18 170 3
172 3 175 25 2 17 -4 26 -23 35 -32 15 -42 51 -22 82 15 23 15 24 -23 35 -21
6 -38 17 -37 24 0 6 -1 252 -1 545 l-2 532 -25 10 -25 10 0 190 c0 190 5 225
36 243 12 7 14 126 14 686 l0 679 35 6 c41 8 42 9 14 37 -33 33 -22 69 34 105
26 17 50 34 54 38 8 7 -35 48 -77 72 -36 22 -40 57 -8 91 l21 23 -36 15 -37
15 -2 518 c-2 284 -1 773 2 1086 5 542 6 569 23 572 10 1 26 5 35 9 13 5 12 8
-6 21 -29 20 -29 64 1 92 13 12 27 22 33 22 5 0 20 9 34 20 l25 19 -30 28
c-17 16 -42 37 -57 46 -34 21 -37 58 -8 87 23 23 25 30 8 30 -7 0 -23 8 -36
18 l-22 17 -3 1025 c-2 902 -4 1025 -17 1027 -8 2 -35 -16 -60 -40z"/>
</g>
</svg>
