<?xml version="1.0" standalone="no"?>
<!DOCTYPE svg PUBLIC "-//W3C//DTD SVG 20010904//EN"
 "http://www.w3.org/TR/2001/REC-SVG-20010904/DTD/svg10.dtd">
<svg version="1.0" xmlns="http://www.w3.org/2000/svg"
 width="2550.000000pt" height="2700.000000pt" viewBox="0 0 2550.000000 2700.000000"
 preserveAspectRatio="xMidYMid meet">

<g transform="translate(0.000000,2700.000000) scale(0.100000,-0.100000)"
fill="#C5C3C1" stroke="none">
<path d="M9110 12901 c0 -671 -3 -1226 -6 -1235 -3 -9 -16 -16 -28 -16 -11 0
-27 -4 -35 -9 -12 -7 -10 -14 8 -36 11 -15 21 -35 21 -44 0 -24 -48 -71 -65
-65 -9 4 -15 0 -15 -10 0 -9 -8 -16 -20 -16 -29 0 -38 -30 -14 -46 10 -7 24
-18 31 -24 7 -5 17 -10 23 -10 18 0 60 -48 60 -68 0 -11 -11 -31 -25 -46 l-25
-27 23 -8 c12 -5 31 -10 42 -12 20 -4 20 -13 23 -1173 1 -798 -1 -1173 -8
-1181 -6 -7 -26 -16 -46 -19 l-35 -7 26 -30 c14 -17 25 -38 25 -48 0 -19 -40
-61 -58 -61 -6 0 -15 -6 -19 -14 -4 -8 -17 -15 -28 -18 -30 -5 -31 -36 -1 -48
14 -5 26 -14 26 -20 0 -5 6 -10 14 -10 20 0 66 -47 66 -68 0 -10 -9 -28 -20
-40 -27 -28 -25 -39 7 -47 16 -4 33 -11 40 -17 16 -13 19 -3088 3 -3117 -5
-10 -28 -26 -50 -35 l-41 -16 22 -30 c21 -28 21 -30 5 -55 -9 -14 -27 -30 -40
-34 -19 -8 -22 -15 -18 -46 4 -31 10 -39 41 -52 20 -8 50 -22 68 -31 27 -12
40 -13 75 -3 24 7 81 17 128 24 l85 12 3 42 c3 35 0 42 -18 48 -33 10 -52 48
-41 78 5 14 16 27 23 29 7 3 -5 14 -28 26 -22 11 -46 27 -52 35 -9 11 -11 381
-10 1567 l3 1553 34 12 c43 14 48 26 21 50 -11 10 -20 28 -20 40 0 25 39 65
63 65 9 0 17 5 17 10 0 6 11 15 25 20 14 5 25 16 25 25 0 8 -11 21 -25 27 -14
6 -25 15 -25 20 0 4 -6 8 -14 8 -7 0 -25 9 -40 21 -31 25 -34 61 -6 89 28 28
25 37 -12 45 -18 4 -36 13 -40 19 -4 6 -8 536 -8 1178 l0 1167 40 12 c22 7 40
14 40 16 0 2 -10 17 -21 33 -29 38 -19 77 24 95 18 8 45 25 62 38 25 21 28 27
16 41 -7 9 -20 16 -27 16 -8 0 -14 4 -14 8 0 5 -16 16 -35 25 -46 22 -55 58
-25 99 25 34 23 38 -22 47 l-33 7 -3 1224 c-2 964 -5 1226 -15 1232 -6 4 -38
8 -69 8 l-58 0 0 -1219z"/>
</g>
</svg>
