<?xml version="1.0" standalone="no"?>
<!DOCTYPE svg PUBLIC "-//W3C//DTD SVG 20010904//EN"
 "http://www.w3.org/TR/2001/REC-SVG-20010904/DTD/svg10.dtd">
<svg version="1.0" xmlns="http://www.w3.org/2000/svg"
 width="2550.000000pt" height="2700.000000pt" viewBox="0 0 2550.000000 2700.000000"
 preserveAspectRatio="xMidYMid meet">

<g transform="translate(0.000000,2700.000000) scale(0.100000,-0.100000)"
fill="#C5C3C1" stroke="none">
<path d="M23944 26984 c5 -12 10 -1949 6 -2315 0 -10 -16 -21 -40 -29 -36 -12
-54 -30 -30 -30 5 0 16 -14 25 -30 20 -39 7 -66 -41 -86 -19 -8 -34 -19 -34
-24 0 -6 -6 -10 -14 -10 -18 0 -37 -23 -28 -35 8 -12 34 -28 79 -52 51 -26 59
-69 21 -110 l-21 -22 29 -11 c16 -6 35 -13 42 -15 9 -3 12 -219 13 -1032 0
-565 0 -1059 -1 -1098 -2 -78 -14 -100 -61 -110 -33 -7 -36 -17 -13 -35 24
-21 13 -62 -23 -85 -35 -21 -45 -50 -15 -41 18 5 92 16 245 37 89 12 89 13 83
39 -3 16 1 36 11 49 8 12 13 24 11 26 -2 2 -26 10 -53 16 -28 7 -54 17 -60 22
-6 6 -3 8 10 5 20 -5 20 0 20 1101 0 1098 0 1106 20 1110 11 2 30 7 42 12 l23
8 -25 25 c-33 33 -32 69 1 95 15 12 31 21 36 21 18 0 68 41 68 55 0 8 -11 17
-25 21 -14 3 -25 12 -25 20 0 8 -7 14 -15 14 -9 0 -27 7 -40 16 -33 22 -33 63
0 94 l26 24 -43 17 -43 17 -2 1168 -3 1169 -81 3 c-73 3 -81 1 -75 -14z"/>
</g>
</svg>
