<?xml version="1.0" standalone="no"?>
<!DOCTYPE svg PUBLIC "-//W3C//DTD SVG 20010904//EN"
 "http://www.w3.org/TR/2001/REC-SVG-20010904/DTD/svg10.dtd">
<svg version="1.0" xmlns="http://www.w3.org/2000/svg"
 width="2550.000000pt" height="2700.000000pt" viewBox="0 0 2550.000000 2700.000000"
 preserveAspectRatio="xMidYMid meet">

<g transform="translate(0.000000,2700.000000) scale(0.100000,-0.100000)"
fill="#C5C3C1" stroke="none">
<path d="M9308 14098 c0 -13 -2 -551 -2 -1197 l-1 -1175 -32 -8 c-37 -10 -39
-14 -18 -42 36 -48 14 -81 -92 -137 -38 -20 -36 -22 64 -74 43 -22 53 -67 24
-105 l-20 -28 37 -9 37 -9 3 -1129 c1 -622 0 -1140 -3 -1151 -3 -15 -15 -24
-41 -29 -33 -6 -35 -8 -21 -23 9 -9 19 -30 22 -45 9 -34 -18 -67 -82 -99 -24
-12 -43 -25 -43 -29 0 -8 41 -36 85 -59 44 -22 55 -62 27 -100 l-22 -30 27 -6
c16 -3 34 -7 41 -10 16 -5 18 -3001 1 -3038 -6 -13 -27 -31 -46 -40 -27 -13
-33 -20 -24 -29 30 -30 6 -93 -42 -110 -13 -5 -17 -15 -15 -34 3 -23 10 -29
53 -40 100 -26 173 -26 270 -1 82 22 90 26 93 50 2 20 -4 30 -32 46 -30 18
-36 27 -36 56 0 19 5 38 10 41 18 11 10 23 -19 30 -60 13 -56 -89 -59 1534 -1
823 0 1506 3 1519 3 12 12 22 21 22 8 0 24 5 35 10 19 11 19 11 -3 41 -21 28
-21 32 -8 56 14 24 41 45 98 74 12 7 22 15 22 19 0 10 -52 46 -78 54 -50 16
-63 75 -25 117 12 15 11 17 -14 24 -15 3 -34 11 -40 17 -10 8 -13 248 -13
1150 0 1076 1 1139 18 1144 9 3 27 10 40 15 l23 9 -23 30 c-21 29 -21 33 -8
58 9 14 29 33 45 42 16 8 35 21 43 28 7 6 18 12 23 12 5 0 9 6 9 13 0 12 -11
19 -77 50 -54 26 -65 75 -26 119 14 16 13 18 -13 24 -61 14 -57 -78 -53 1214
l4 1185 -72 3 c-70 3 -73 2 -75 -20z"/>
</g>
</svg>
