<?xml version="1.0" standalone="no"?>
<!DOCTYPE svg PUBLIC "-//W3C//DTD SVG 20010904//EN"
 "http://www.w3.org/TR/2001/REC-SVG-20010904/DTD/svg10.dtd">
<svg version="1.0" xmlns="http://www.w3.org/2000/svg"
 width="2550.000000pt" height="2700.000000pt" viewBox="0 0 2550.000000 2700.000000"
 preserveAspectRatio="xMidYMid meet">

<g transform="translate(0.000000,2700.000000) scale(0.100000,-0.100000)"
fill="#C5C3C1" stroke="none">
<path d="M11188 15452 l-68 -76 0 -897 0 -897 -39 -7 -39 -6 23 -35 c31 -45
20 -73 -41 -105 -24 -12 -49 -28 -55 -35 -13 -15 -4 -34 16 -34 8 0 18 -6 22
-12 4 -7 22 -20 38 -28 39 -20 46 -63 14 -96 -24 -25 -20 -30 31 -36 l25 -3 3
-1107 c2 -965 0 -1108 -12 -1108 -9 0 -26 -5 -40 -11 l-25 -12 19 -25 c11 -13
20 -35 20 -47 0 -25 -29 -55 -52 -55 -9 0 -18 -7 -22 -15 -3 -8 -12 -15 -20
-15 -29 0 -28 -22 3 -51 18 -16 38 -29 45 -29 19 0 46 -34 46 -58 0 -12 -9
-31 -21 -43 -24 -24 -21 -29 23 -38 l33 -7 3 -1449 c1 -798 0 -1460 -3 -1472
-3 -13 -20 -28 -44 -39 -38 -17 -38 -17 -23 -44 20 -35 5 -76 -33 -90 -25 -9
-34 -42 -17 -65 4 -6 41 -19 82 -28 69 -16 83 -16 180 -2 58 9 110 17 116 20
16 5 10 68 -7 73 -46 14 -62 61 -32 94 9 10 14 19 12 21 -2 1 -22 11 -44 22
l-40 20 -3 1467 -2 1466 32 7 c48 11 52 15 30 39 -32 36 -34 55 -7 82 13 13
31 24 40 24 8 0 15 3 15 8 0 4 15 15 32 25 l32 18 -62 40 c-84 54 -94 77 -51
125 19 21 19 21 -21 34 l-40 13 2 1106 c2 876 6 1106 16 1107 6 1 21 2 32 3
26 1 25 15 -2 51 l-22 30 21 28 c11 15 30 28 42 30 11 2 21 8 21 13 0 5 12 14
26 19 29 12 28 30 -4 45 -12 5 -22 13 -22 17 0 5 -6 8 -14 8 -7 0 -25 11 -40
25 -29 27 -29 53 2 88 18 20 17 21 -23 34 l-30 10 -5 970 -5 970 -67 -75z"/>
</g>
</svg>
