<?xml version="1.0" standalone="no"?>
<!DOCTYPE svg PUBLIC "-//W3C//DTD SVG 20010904//EN"
 "http://www.w3.org/TR/2001/REC-SVG-20010904/DTD/svg10.dtd">
<svg version="1.0" xmlns="http://www.w3.org/2000/svg"
 width="2550.000000pt" height="2700.000000pt" viewBox="0 0 2550.000000 2700.000000"
 preserveAspectRatio="xMidYMid meet">

<g transform="translate(0.000000,2700.000000) scale(0.100000,-0.100000)"
fill="#C5C3C1" stroke="none">
<path d="M12867 17222 l-57 -58 0 -927 0 -927 -30 -7 c-39 -7 -44 -16 -20 -38
11 -10 20 -27 20 -37 0 -27 -18 -58 -35 -58 -7 0 -20 -6 -27 -13 -7 -8 -24
-20 -37 -27 l-25 -13 35 -28 c19 -16 39 -29 45 -29 18 0 44 -35 44 -58 0 -12
-9 -31 -20 -42 -26 -26 -26 -28 15 -36 l35 -6 -2 -1087 -3 -1086 -32 -3 c-38
-4 -41 -12 -13 -37 11 -10 20 -28 20 -40 0 -25 -34 -65 -55 -65 -8 0 -15 -3
-15 -8 0 -4 -10 -12 -21 -17 -26 -12 -27 -27 -2 -40 10 -5 22 -16 26 -22 4 -7
14 -13 21 -13 18 0 46 -33 46 -55 0 -10 -10 -29 -21 -42 l-22 -22 27 -11 c15
-5 32 -10 37 -10 5 0 9 -551 9 -1433 0 -1353 -1 -1435 -17 -1449 -10 -9 -28
-19 -40 -22 -22 -7 -32 -26 -14 -26 17 0 23 -40 9 -70 -7 -17 -21 -30 -30 -30
-14 0 -18 -8 -18 -35 0 -32 3 -35 48 -48 42 -13 123 -12 295 2 4 1 7 17 7 36
0 24 -6 37 -20 45 -34 18 -44 48 -25 77 9 13 15 26 13 28 -2 1 -18 10 -35 19
-18 9 -35 26 -38 39 -3 12 -4 661 -3 1441 l3 1420 33 8 c28 8 46 28 24 28 -14
0 -33 51 -27 70 3 9 18 23 33 31 15 8 32 18 37 22 6 4 19 14 30 22 l20 15 -20
15 c-11 8 -25 19 -32 25 -7 5 -16 10 -21 10 -14 0 -52 45 -52 62 0 8 9 27 21
42 l20 26 -26 10 c-14 5 -31 10 -36 10 -5 0 -9 418 -9 1084 l0 1084 35 6 c19
4 35 9 35 12 0 3 -10 18 -22 34 -18 25 -20 33 -10 55 7 14 22 30 34 35 13 5
36 19 52 32 l28 24 -33 25 c-19 14 -42 28 -52 32 -9 4 -22 18 -29 32 -10 22
-8 30 10 55 12 16 22 31 22 34 0 3 -16 8 -35 12 l-35 6 0 984 c0 541 -4 984
-8 984 -4 0 -33 -26 -65 -58z"/>
</g>
</svg>
