<?xml version="1.0" standalone="no"?>
<!DOCTYPE svg PUBLIC "-//W3C//DTD SVG 20010904//EN"
 "http://www.w3.org/TR/2001/REC-SVG-20010904/DTD/svg10.dtd">
<svg version="1.0" xmlns="http://www.w3.org/2000/svg"
 width="2550.000000pt" height="2700.000000pt" viewBox="0 0 2550.000000 2700.000000"
 preserveAspectRatio="xMidYMid meet">

<g transform="translate(0.000000,2700.000000) scale(0.100000,-0.100000)"
fill="#C5C3C1" stroke="none">
<path d="M13706 18071 l-49 -50 2 -916 2 -916 -23 -19 c-13 -11 -29 -19 -37
-20 -11 0 -11 -3 -1 -15 7 -8 15 -13 19 -11 3 2 7 -13 9 -35 2 -29 -2 -40 -16
-48 -11 -6 -25 -24 -32 -41 -11 -27 -10 -33 6 -53 11 -12 25 -26 32 -30 6 -4
12 -28 12 -53 0 -39 -3 -47 -21 -51 -20 -6 -19 -8 12 -22 l34 -16 0 -1069 0
-1069 -35 -18 c-19 -11 -30 -19 -24 -19 14 0 33 -48 31 -75 -1 -12 -16 -36
-34 -55 -25 -27 -30 -38 -22 -52 7 -13 6 -18 -3 -19 -7 0 -3 -4 9 -9 32 -13
56 -54 47 -82 -14 -42 -11 -58 14 -74 l25 -16 -7 -992 c-3 -545 -7 -998 -9
-1007 -5 -30 -29 -50 -51 -44 -12 4 -16 3 -10 -2 17 -13 24 -54 12 -76 -9 -17
-8 -19 8 -13 14 4 12 1 -5 -13 -14 -10 -31 -17 -38 -14 -9 4 -13 -5 -13 -30 0
-32 3 -35 38 -43 20 -5 91 -7 157 -4 l119 5 0 27 c0 16 -11 37 -27 52 -30 28
-35 61 -12 86 14 16 13 18 -15 30 -17 7 -35 21 -40 31 -6 11 -10 397 -10 1019
l0 1001 30 11 c17 5 29 13 28 17 -30 57 -31 62 -20 86 7 14 22 29 34 34 13 5
33 20 46 34 l23 25 -45 28 c-62 40 -76 67 -52 107 17 30 17 32 0 44 -10 7 -24
13 -31 13 -11 0 -13 196 -13 1075 0 879 2 1075 13 1075 7 0 21 6 31 13 18 13
18 15 1 40 -24 37 -13 68 31 98 53 34 64 55 39 74 -11 9 -30 20 -43 25 -12 5
-27 21 -34 35 -11 24 -10 29 20 86 1 4 -11 11 -27 17 l-31 11 -2 971 -3 971
-49 -50z"/>
<path d="M13526 15982 c-6 -10 39 -52 55 -52 11 0 -31 58 -43 59 -4 1 -9 -3
-12 -7z"/>
<path d="M13560 13469 c0 -5 5 -7 10 -4 6 3 10 8 10 11 0 2 -4 4 -10 4 -5 0
-10 -5 -10 -11z"/>
<path d="M13526 13441 c-3 -5 1 -14 9 -21 13 -10 15 -9 15 9 0 21 -14 28 -24
12z"/>
</g>
</svg>
