<?xml version="1.0" standalone="no"?>
<!DOCTYPE svg PUBLIC "-//W3C//DTD SVG 20010904//EN"
 "http://www.w3.org/TR/2001/REC-SVG-20010904/DTD/svg10.dtd">
<svg version="1.0" xmlns="http://www.w3.org/2000/svg"
 width="2551.000000pt" height="2701.000000pt" viewBox="0 0 2551.000000 2701.000000"
 preserveAspectRatio="xMidYMid meet">

<g transform="translate(0.000000,2701.000000) scale(0.100000,-0.100000)"
fill="#C5C3C1" stroke="none">
<path d="M4743 12539 l-63 -51 0 -594 0 -593 -142 -3 -143 -3 -3 -2813 -2
-2812 145 0 145 0 0 -810 0 -809 -30 -16 c-42 -21 -56 -52 -36 -74 18 -19 21
-51 6 -51 -18 0 -40 -58 -40 -105 l0 -45 150 0 150 0 20 33 c27 43 27 113 1
122 -40 12 -46 33 -22 75 l21 38 -37 13 c-21 6 -41 17 -45 23 -4 6 -8 370 -8
809 l0 797 103 1 c56 1 118 0 138 -1 21 -1 40 4 44 10 7 12 13 5302 7 5518
l-3 102 -145 0 -144 0 -2 645 -3 645 -62 -51z m234 -4046 l2 -2683 -229 0
-230 0 -6 24 c-3 13 -3 97 0 187 2 90 5 1287 5 2661 l1 2496 228 -1 227 -2 2
-2682z"/>
</g>
</svg>
