<?xml version="1.0" standalone="no"?>
<!DOCTYPE svg PUBLIC "-//W3C//DTD SVG 20010904//EN"
 "http://www.w3.org/TR/2001/REC-SVG-20010904/DTD/svg10.dtd">
<svg version="1.0" xmlns="http://www.w3.org/2000/svg"
 width="2551.000000pt" height="2701.000000pt" viewBox="0 0 2551.000000 2701.000000"
 preserveAspectRatio="xMidYMid meet">

<g transform="translate(0.000000,2701.000000) scale(0.100000,-0.100000)"
fill="#C5C3C1" stroke="none">
<path d="M15308 21233 l-58 -46 0 -574 0 -573 -145 0 -145 0 2 -2797 3 -2798
143 -3 142 -3 0 -355 0 -355 -35 -20 c-34 -21 -34 -21 -19 -50 18 -36 11 -64
-22 -85 -18 -13 -24 -25 -24 -54 0 -21 6 -42 13 -47 9 -8 272 -11 310 -4 4 0
7 18 7 39 0 31 -6 43 -30 60 -33 25 -38 51 -14 87 15 23 14 24 -15 39 -17 9
-35 25 -40 35 -6 11 -9 149 -8 362 l2 344 148 3 147 3 0 2799 0 2800 -145 0
-145 0 0 38 c0 20 0 299 0 620 0 320 -3 582 -7 582 -5 0 -34 -21 -65 -47z
m237 -3988 l0 -2680 -232 -3 -233 -2 0 2678 c0 1473 3 2682 6 2685 4 4 109 5
233 4 l226 -2 0 -2680z"/>
</g>
</svg>
