<?xml version="1.0" standalone="no"?>
<!DOCTYPE svg PUBLIC "-//W3C//DTD SVG 20010904//EN"
 "http://www.w3.org/TR/2001/REC-SVG-20010904/DTD/svg10.dtd">
<svg version="1.0" xmlns="http://www.w3.org/2000/svg"
 width="2551.000000pt" height="2701.000000pt" viewBox="0 0 2551.000000 2701.000000"
 preserveAspectRatio="xMidYMid meet">

<g transform="translate(0.000000,2701.000000) scale(0.100000,-0.100000)"
fill="#C5C3C1" stroke="none">
<path d="M16477 22197 l-57 -52 0 -592 0 -592 -142 -3 -143 -3 -3 -2797 -2
-2798 145 0 145 0 -2 -817 -3 -817 -39 -22 c-24 -14 -34 -24 -26 -29 6 -4 16
-18 21 -32 11 -29 -11 -73 -36 -73 -23 0 -21 -87 3 -98 9 -5 82 -8 162 -8
l145 1 3 47 c3 40 0 47 -18 53 -31 10 -44 51 -26 86 13 27 13 30 -4 39 -53 28
-50 -24 -50 856 l0 814 145 0 145 0 0 2800 0 2800 -145 0 -145 0 0 645 c0 355
-3 645 -7 645 -5 -1 -34 -24 -66 -53z m239 -4039 l-1 -2683 -230 0 -230 0 0
2670 c0 1469 2 2676 4 2683 2 9 57 12 231 12 l227 0 -1 -2682z"/>
</g>
</svg>
