<?xml version="1.0" standalone="no"?>
<!DOCTYPE svg PUBLIC "-//W3C//DTD SVG 20010904//EN"
 "http://www.w3.org/TR/2001/REC-SVG-20010904/DTD/svg10.dtd">
<svg version="1.0" xmlns="http://www.w3.org/2000/svg"
 width="2551.000000pt" height="2701.000000pt" viewBox="0 0 2551.000000 2701.000000"
 preserveAspectRatio="xMidYMid meet">

<g transform="translate(0.000000,2701.000000) scale(0.100000,-0.100000)"
fill="#C5C3C1" stroke="none">
<path d="M17647 23157 l-57 -52 -3 -565 -2 -565 -105 -2 c-58 -1 -122 -2 -142
-2 l-38 -1 0 -2795 0 -2794 143 -3 142 -3 3 -358 2 -357 -32 -20 c-18 -11 -37
-22 -43 -23 -5 -2 -2 -13 8 -24 25 -29 22 -69 -8 -89 -20 -13 -25 -24 -25 -60
l0 -44 167 2 168 3 -3 39 c-3 27 -11 46 -28 59 -28 22 -32 62 -8 88 15 16 13
19 -25 44 l-41 25 2 358 3 357 143 3 142 3 0 2794 0 2794 -142 3 -143 3 -3
618 c-1 339 -5 617 -10 617 -4 0 -33 -24 -65 -53z m236 -1324 c3 -10 4 -1215
3 -2678 l-1 -2660 -227 -3 -228 -2 0 2680 0 2680 224 0 c206 0 225 -1 229 -17z"/>
</g>
</svg>
