<?xml version="1.0" standalone="no"?>
<!DOCTYPE svg PUBLIC "-//W3C//DTD SVG 20010904//EN"
 "http://www.w3.org/TR/2001/REC-SVG-20010904/DTD/svg10.dtd">
<svg version="1.0" xmlns="http://www.w3.org/2000/svg"
 width="2551.000000pt" height="2701.000000pt" viewBox="0 0 2551.000000 2701.000000"
 preserveAspectRatio="xMidYMid meet">

<g transform="translate(0.000000,2701.000000) scale(0.100000,-0.100000)"
fill="#C5C3C1" stroke="none">
<path d="M18823 24128 l-63 -50 0 -594 0 -593 -142 -3 -143 -3 -3 -2798 -2
-2798 141 2 c77 0 142 -1 145 -4 2 -2 5 -367 5 -811 0 -572 -3 -811 -11 -821
-6 -7 -24 -18 -41 -25 -27 -12 -28 -14 -14 -30 23 -25 19 -68 -10 -94 -19 -18
-25 -33 -25 -65 l0 -41 168 2 167 3 3 43 c2 25 -1 42 -7 42 -40 0 -67 84 -36
110 14 11 11 16 -22 34 l-38 22 -3 817 -2 817 145 0 145 0 0 988 c1 543 1
1752 1 2687 -1 935 -1 1751 -1 1812 l0 112 -142 3 -143 3 -5 642 -5 641 -62
-50z m229 -3998 c-1 -1449 -1 -2656 -1 -2682 l-1 -48 -225 0 -225 0 0 2685 0
2685 226 -2 226 -3 0 -2635z"/>
</g>
</svg>
