<?xml version="1.0" standalone="no"?>
<!DOCTYPE svg PUBLIC "-//W3C//DTD SVG 20010904//EN"
 "http://www.w3.org/TR/2001/REC-SVG-20010904/DTD/svg10.dtd">
<svg version="1.0" xmlns="http://www.w3.org/2000/svg"
 width="2551.000000pt" height="2701.000000pt" viewBox="0 0 2551.000000 2701.000000"
 preserveAspectRatio="xMidYMid meet">

<g transform="translate(0.000000,2701.000000) scale(0.100000,-0.100000)"
fill="#C5C3C1" stroke="none">
<path d="M24310 26778 c0 -431 0 -3727 0 -4165 l0 -463 145 0 145 0 0 -348 c0
-377 2 -364 -58 -400 -28 -17 -31 -21 -17 -32 31 -26 4 -110 -35 -110 -5 0
-10 -4 -10 -10 0 -6 68 -10 184 -10 159 0 185 2 190 16 8 20 -1 34 -19 34 -8
0 -22 11 -31 25 -14 21 -14 30 -4 55 7 17 18 30 24 30 6 1 -9 11 -34 23 l-45
22 -3 358 -2 357 145 0 145 0 0 2410 0 2410 -70 0 -70 0 0 -2355 0 -2355 -220
0 -220 0 0 2355 0 2355 -70 0 -70 0 0 -202z"/>
</g>
</svg>
