<?xml version="1.0" standalone="no"?>
<!DOCTYPE svg PUBLIC "-//W3C//DTD SVG 20010904//EN"
 "http://www.w3.org/TR/2001/REC-SVG-20010904/DTD/svg10.dtd">
<svg version="1.0" xmlns="http://www.w3.org/2000/svg"
 width="2551.000000pt" height="2701.000000pt" viewBox="0 0 2551.000000 2701.000000"
 preserveAspectRatio="xMidYMid meet">

<g transform="translate(0.000000,2701.000000) scale(0.100000,-0.100000)"
fill="#C5C3C1" stroke="none">
<path d="M9443 16407 l-53 -42 0 -597 0 -597 -147 -3 -148 -3 0 -2793 c0
-1537 3 -2798 6 -2803 3 -6 68 -11 145 -12 l139 -2 3 -795 c1 -437 0 -804 -2
-815 -3 -12 -21 -29 -41 -38 -37 -18 -44 -39 -20 -63 21 -21 19 -51 -4 -59
-22 -7 -31 -33 -31 -92 l0 -43 154 0 154 0 4 58 c4 53 2 59 -26 83 l-30 26 18
28 18 28 -36 31 -37 31 3 810 3 810 143 0 142 -1 -2 2806 -3 2805 -142 3 -143
3 0 639 c0 352 -3 640 -7 640 -5 -1 -32 -20 -60 -43z m237 -4042 l0 -2685
-232 2 -233 3 0 2675 c0 1471 1 2678 3 2683 2 4 106 7 233 7 l229 0 0 -2685z"/>
</g>
</svg>
