<?xml version="1.0" standalone="no"?>
<!DOCTYPE svg PUBLIC "-//W3C//DTD SVG 20010904//EN"
 "http://www.w3.org/TR/2001/REC-SVG-20010904/DTD/svg10.dtd">
<svg version="1.0" xmlns="http://www.w3.org/2000/svg"
 width="2551.000000pt" height="2701.000000pt" viewBox="0 0 2551.000000 2701.000000"
 preserveAspectRatio="xMidYMid meet">

<g transform="translate(0.000000,2701.000000) scale(0.100000,-0.100000)"
fill="#C5C3C1" stroke="none">
<path d="M11787 18337 l-47 -42 -3 -595 -2 -595 -145 -5 -145 -5 0 -2800 0
-2800 148 -3 147 -3 0 -800 c0 -493 -4 -807 -10 -818 -5 -10 -23 -24 -40 -31
-33 -14 -38 -31 -15 -50 24 -20 19 -59 -10 -72 -23 -10 -25 -17 -25 -70 l0
-58 155 0 155 0 0 61 c0 50 -3 60 -15 55 -9 -3 -19 3 -26 15 -12 23 -4 69 11
69 22 0 8 26 -25 49 -20 13 -38 33 -40 45 -3 12 -4 377 -3 811 l3 790 148 3
147 3 0 2804 0 2805 -144 0 -143 0 -5 38 c-2 20 -4 308 -3 640 1 419 -2 602
-9 602 -6 0 -32 -19 -59 -43z m243 -4042 l0 -2685 -235 0 -235 0 0 2685 0
2685 235 0 235 0 0 -2685z"/>
</g>
</svg>
