<?xml version="1.0" standalone="no"?>
<!DOCTYPE svg PUBLIC "-//W3C//DTD SVG 20010904//EN"
 "http://www.w3.org/TR/2001/REC-SVG-20010904/DTD/svg10.dtd">
<svg version="1.0" xmlns="http://www.w3.org/2000/svg"
 width="2551.000000pt" height="2701.000000pt" viewBox="0 0 2551.000000 2701.000000"
 preserveAspectRatio="xMidYMid meet">

<g transform="translate(0.000000,2701.000000) scale(0.100000,-0.100000)"
fill="#C5C3C1" stroke="none">
<path d="M14138 20272 l-58 -45 0 -599 0 -598 -145 0 -145 0 0 -2800 0 -2800
123 -1 c67 -1 127 -2 132 -4 6 -1 16 -3 23 -3 10 -2 12 -168 10 -814 l-3 -812
-36 -21 -36 -20 19 -26 c15 -20 17 -30 9 -51 -5 -15 -19 -29 -30 -33 -17 -5
-21 -15 -21 -48 0 -23 4 -47 8 -54 5 -8 46 -12 127 -13 206 -2 185 -8 185 49
0 41 -4 51 -25 65 -29 19 -32 51 -7 79 16 19 16 20 -8 36 -65 43 -60 -33 -60
854 l0 804 142 6 c85 4 144 10 148 17 4 6 8 1266 9 2800 l2 2789 -148 3 -148
3 -5 641 -5 642 -57 -46z m227 -1360 c7 -1 9 -900 8 -2679 -2 -1473 -3 -2681
-3 -2686 0 -4 -103 -7 -230 -7 l-230 1 0 2683 c0 1475 2 2685 5 2688 4 4 422
4 450 0z"/>
</g>
</svg>
