<?xml version="1.0" standalone="no"?>
<!DOCTYPE svg PUBLIC "-//W3C//DTD SVG 20010904//EN"
 "http://www.w3.org/TR/2001/REC-SVG-20010904/DTD/svg10.dtd">
<svg version="1.0" xmlns="http://www.w3.org/2000/svg"
 width="2644.000000pt" height="2800.000000pt" viewBox="0 0 2644.000000 2800.000000"
 preserveAspectRatio="xMidYMid meet">

<g transform="translate(0.000000,2800.000000) scale(0.100000,-0.100000)"
fill="#C5C3C1" stroke="none">
<path d="M1587 14033 c-3 -5 -5 -804 -6 -1778 0 -973 -1 -1789 -1 -1812 0 -39
-2 -43 -25 -43 -47 0 -70 -93 -34 -137 6 -7 22 -13 34 -13 13 0 25 -5 27 -12
7 -20 -10 -101 -37 -176 -48 -135 -44 -306 10 -429 14 -31 25 -75 25 -99 0
-40 -2 -44 -24 -44 -67 0 -73 -133 -6 -146 l30 -6 0 -367 c-1 -201 2 -1048 5
-1881 4 -1255 3 -1518 -9 -1532 -7 -10 -32 -26 -54 -36 -42 -19 -42 -19 -22
-37 11 -10 20 -28 20 -40 0 -22 -32 -57 -62 -68 -11 -4 -16 -16 -15 -44 l2
-38 120 -13 c119 -12 121 -12 222 15 l103 28 0 42 c0 35 -3 42 -21 45 -12 2
-31 15 -42 30 l-21 28 22 29 21 29 -44 17 c-25 9 -54 14 -67 10 -13 -4 -31 -9
-40 -11 -10 -3 -18 -1 -18 5 0 5 16 13 35 17 l35 6 2 1892 3 1891 22 3 c30 4
53 39 53 80 0 49 -16 72 -50 72 -27 0 -30 3 -30 34 0 18 11 58 24 87 67 154
69 341 6 478 -19 40 -30 79 -30 107 0 40 2 44 24 44 33 0 56 35 56 86 0 45
-11 60 -50 66 l-25 3 -3 1813 -2 1812 -79 0 c-44 0 -82 -3 -84 -7z m102 -4050
c14 -69 13 -140 -2 -213 -12 -57 -27 -68 -39 -28 -18 65 -1 298 22 298 4 0 12
-26 19 -57z"/>
</g>
</svg>
