<?xml version="1.0" standalone="no"?>
<!DOCTYPE svg PUBLIC "-//W3C//DTD SVG 20010904//EN"
 "http://www.w3.org/TR/2001/REC-SVG-20010904/DTD/svg10.dtd">
<svg version="1.0" xmlns="http://www.w3.org/2000/svg"
 width="2644.000000pt" height="2800.000000pt" viewBox="0 0 2644.000000 2800.000000"
 preserveAspectRatio="xMidYMid meet">

<g transform="translate(0.000000,2800.000000) scale(0.100000,-0.100000)"
fill="#C5C3C1" stroke="none">
<path d="M8920 15830 l0 -1460 -24 -9 c-26 -11 -36 -30 -36 -69 0 -34 10 -49
35 -53 29 -6 31 -57 3 -131 -20 -55 -23 -81 -23 -203 1 -121 4 -148 23 -195
28 -71 29 -110 2 -110 -23 0 -40 -28 -40 -65 0 -37 17 -65 40 -65 20 0 20 -11
20 -785 l0 -784 -22 -21 c-12 -11 -27 -20 -34 -20 -22 0 -25 -19 -8 -45 16
-24 15 -26 -15 -54 -22 -21 -31 -38 -31 -61 0 -24 4 -31 15 -27 8 4 16 3 19
-1 8 -13 236 -15 236 -3 0 6 18 11 40 11 39 0 40 1 40 35 0 23 -5 35 -13 35
-18 0 -47 32 -47 53 0 8 7 23 16 32 9 9 15 17 13 18 -2 2 -21 10 -41 20 l-38
17 0 787 0 788 23 10 c19 9 22 18 22 65 0 49 -2 55 -22 58 -30 4 -30 44 -1
132 31 93 31 278 0 367 -12 34 -22 80 -22 102 0 33 3 40 23 43 19 3 22 10 25
56 3 48 1 53 -22 62 l-26 10 0 1454 0 1454 -22 6 c-13 3 -42 6 -65 6 l-43 0 0
-1460z m70 -1922 c0 -57 -3 -78 -10 -68 -15 24 -10 150 6 150 2 0 4 -37 4 -82z"/>
</g>
</svg>
