<?xml version="1.0" standalone="no"?>
<!DOCTYPE svg PUBLIC "-//W3C//DTD SVG 20010904//EN"
 "http://www.w3.org/TR/2001/REC-SVG-20010904/DTD/svg10.dtd">
<svg version="1.0" xmlns="http://www.w3.org/2000/svg"
 width="2644.000000pt" height="2800.000000pt" viewBox="0 0 2644.000000 2800.000000"
 preserveAspectRatio="xMidYMid meet">

<g transform="translate(0.000000,2800.000000) scale(0.100000,-0.100000)"
fill="#C5C3C1" stroke="none">
<path d="M3007 14034 c-4 -4 -7 -830 -7 -1836 0 -1770 -1 -1828 -18 -1828 -31
0 -55 -36 -56 -83 -1 -51 16 -77 51 -77 24 0 25 -2 20 -52 -2 -29 -17 -87 -32
-128 -26 -68 -28 -87 -29 -210 0 -126 2 -140 28 -205 16 -38 31 -91 33 -116 5
-45 4 -46 -26 -52 -24 -5 -32 -14 -42 -45 -16 -55 -2 -94 39 -107 l32 -9 0
-1906 c0 -1048 -4 -1910 -8 -1916 -4 -6 -27 -21 -51 -33 l-43 -22 21 -23 c12
-12 21 -29 21 -37 0 -19 -38 -54 -67 -64 -19 -5 -23 -14 -23 -44 0 -38 0 -38
48 -44 168 -22 224 -20 320 8 l92 28 0 38 c0 35 -4 40 -34 53 -45 19 -54 50
-27 86 l20 28 -45 16 c-25 8 -50 13 -57 11 -38 -11 -67 -14 -67 -6 0 5 16 12
35 15 l35 7 0 1916 c0 1628 2 1914 14 1910 42 -16 80 66 56 123 -10 24 -19 30
-42 30 -30 0 -30 0 -25 48 3 26 17 81 32 122 51 138 44 344 -15 460 -11 22
-20 59 -20 83 0 41 2 45 29 50 22 5 32 14 41 42 20 60 -3 115 -46 115 l-24 0
-2 1828 -3 1827 -75 3 c-42 1 -79 0 -83 -4z m98 -4187 c0 -132 -9 -187 -27
-169 -17 17 -22 189 -8 256 19 95 35 57 35 -87z"/>
</g>
</svg>
