<?xml version="1.0" standalone="no"?>
<!DOCTYPE svg PUBLIC "-//W3C//DTD SVG 20010904//EN"
 "http://www.w3.org/TR/2001/REC-SVG-20010904/DTD/svg10.dtd">
<svg version="1.0" xmlns="http://www.w3.org/2000/svg"
 width="2644.000000pt" height="2800.000000pt" viewBox="0 0 2644.000000 2800.000000"
 preserveAspectRatio="xMidYMid meet">

<g transform="translate(0.000000,2800.000000) scale(0.100000,-0.100000)"
fill="#C5C3C1" stroke="none">
<path d="M5162 15548 l-72 -102 0 -1336 0 -1336 -30 -11 c-35 -13 -47 -49 -34
-102 7 -30 14 -37 37 -39 28 -3 29 -5 24 -55 -2 -29 -15 -79 -28 -112 -21 -54
-24 -75 -24 -205 0 -135 2 -150 28 -211 33 -80 36 -139 8 -139 -26 0 -51 -37
-51 -75 0 -38 25 -75 51 -75 19 0 19 -26 19 -1964 0 -1680 -2 -1967 -14 -1979
-8 -8 -28 -20 -45 -27 -35 -14 -38 -22 -16 -40 33 -27 10 -78 -42 -94 -18 -6
-23 -15 -23 -41 0 -41 1 -42 155 -50 98 -5 134 -2 195 13 l75 19 3 36 c3 33 0
38 -25 48 -46 17 -57 57 -27 90 16 18 14 20 -30 38 l-46 20 0 328 c0 180 0
1037 0 1903 -1 866 -1 1605 0 1643 0 59 2 67 19 67 25 0 41 21 47 62 6 42 -14
80 -45 88 -34 8 -34 39 3 140 28 78 30 96 30 210 0 111 -3 133 -27 200 -27 73
-38 132 -29 158 2 6 15 12 28 12 18 0 26 8 35 39 14 47 -3 92 -39 101 l-23 5
1 1438 c0 790 -3 1437 -8 1437 -4 0 -40 -46 -80 -102z m23 -3223 c12 -108 -11
-250 -29 -182 -14 53 -3 247 15 247 4 0 11 -29 14 -65z"/>
</g>
</svg>
