<?xml version="1.0" standalone="no"?>
<!DOCTYPE svg PUBLIC "-//W3C//DTD SVG 20010904//EN"
 "http://www.w3.org/TR/2001/REC-SVG-20010904/DTD/svg10.dtd">
<svg version="1.0" xmlns="http://www.w3.org/2000/svg"
 width="2644.000000pt" height="2800.000000pt" viewBox="0 0 2644.000000 2800.000000"
 preserveAspectRatio="xMidYMid meet">

<g transform="translate(0.000000,2800.000000) scale(0.100000,-0.100000)"
fill="#C5C3C1" stroke="none">
<path d="M7860 15865 c0 -1525 0 -1525 -20 -1525 -48 0 -50 -121 -2 -128 19
-3 22 -10 22 -43 0 -22 -10 -68 -22 -102 -19 -52 -22 -83 -22 -197 0 -116 3
-143 22 -190 12 -30 22 -72 22 -92 0 -30 -4 -37 -22 -40 -48 -7 -46 -128 2
-128 20 0 20 -1 20 -1665 l0 -1665 -44 -21 c-42 -21 -43 -22 -25 -40 11 -11
19 -26 19 -34 0 -15 -38 -55 -52 -55 -4 0 -8 -16 -8 -35 0 -33 2 -35 33 -36
17 0 41 -3 52 -5 54 -12 148 -15 173 -6 15 6 44 13 65 17 34 5 37 8 37 41 0
27 -5 37 -25 46 -13 6 -27 19 -30 29 -7 22 11 59 28 60 7 0 -8 10 -33 22 l-45
22 -3 1662 -2 1662 22 3 c49 7 47 128 -2 128 -27 0 -27 47 2 125 32 92 36 265
8 365 -12 41 -24 96 -27 122 -4 43 -3 47 18 50 48 7 51 110 4 128 l-25 10 0
1513 0 1514 -46 7 c-26 3 -57 6 -70 6 l-24 0 0 -1525z m80 -1990 c0 -57 -4
-95 -10 -95 -6 0 -10 38 -10 95 0 57 4 95 10 95 6 0 10 -38 10 -95z"/>
</g>
</svg>
