<?xml version="1.0" standalone="no"?>
<!DOCTYPE svg PUBLIC "-//W3C//DTD SVG 20010904//EN"
 "http://www.w3.org/TR/2001/REC-SVG-20010904/DTD/svg10.dtd">
<svg version="1.0" xmlns="http://www.w3.org/2000/svg"
 width="2644.000000pt" height="2800.000000pt" viewBox="0 0 2644.000000 2800.000000"
 preserveAspectRatio="xMidYMid meet">

<g transform="translate(0.000000,2800.000000) scale(0.100000,-0.100000)"
fill="#C5C3C1" stroke="none">
<path d="M22808 27099 l-3 -902 -35 -2 c-45 -4 -80 -43 -80 -91 0 -41 46 -91
93 -101 22 -5 27 -11 27 -36 0 -17 -11 -45 -26 -64 -14 -18 -39 -63 -57 -101
-30 -64 -32 -73 -32 -187 0 -110 2 -125 27 -178 15 -32 41 -76 58 -97 24 -31
30 -47 30 -89 0 -47 -10 -65 -25 -41 -12 19 -53 10 -74 -16 -45 -57 -16 -126
65 -156 l34 -12 0 -1764 c0 -1080 -4 -1770 -9 -1781 -6 -10 -28 -26 -50 -36
l-40 -18 19 -25 c11 -13 20 -32 20 -42 0 -19 -40 -60 -58 -60 -7 0 -12 -5 -12
-11 0 -10 167 -7 297 7 51 5 52 6 42 32 -8 21 -6 31 10 53 l21 28 -43 23 -42
23 -3 1798 -2 1797 35 0 c61 0 100 63 71 118 -17 34 -65 72 -90 72 -28 0 -18
47 24 117 57 94 74 153 75 253 0 103 -15 154 -72 241 -39 60 -43 73 -43 128 0
61 6 71 27 50 33 -33 102 42 89 96 -7 29 -71 85 -96 85 -20 0 -20 12 -20 895
l0 895 -75 0 -75 0 -2 -901z m147 -1304 c27 -54 30 -69 30 -155 0 -101 -15
-158 -62 -233 -21 -33 -28 -38 -56 -35 -27 3 -35 10 -55 52 -51 105 -49 228 5
349 48 107 92 114 138 22z"/>
</g>
</svg>
