<?xml version="1.0" standalone="no"?>
<!DOCTYPE svg PUBLIC "-//W3C//DTD SVG 20010904//EN"
 "http://www.w3.org/TR/2001/REC-SVG-20010904/DTD/svg10.dtd">
<svg version="1.0" xmlns="http://www.w3.org/2000/svg"
 width="2644.000000pt" height="2800.000000pt" viewBox="0 0 2644.000000 2800.000000"
 preserveAspectRatio="xMidYMid meet">

<g transform="translate(0.000000,2800.000000) scale(0.100000,-0.100000)"
fill="#C5C3C1" stroke="none">
<path d="M24049 27998 c-1 -2 -2 -147 -3 -323 -1 -310 -2 -320 -21 -323 -68
-11 -113 -59 -101 -108 10 -37 65 -94 92 -94 39 0 43 -43 7 -93 -74 -103 -108
-217 -100 -332 6 -85 33 -158 82 -227 29 -40 38 -62 40 -100 2 -47 -7 -69 -20
-48 -3 5 -19 10 -35 10 -33 0 -56 -27 -66 -78 -6 -29 -2 -37 35 -72 23 -22 50
-40 61 -40 10 0 21 -8 23 -17 3 -10 4 -1049 3 -2310 -2 -1801 -5 -2294 -14
-2306 -7 -8 -27 -21 -45 -28 -43 -17 -42 -16 -25 -36 32 -35 26 -79 -12 -101
-44 -25 -37 -32 28 -27 31 3 110 8 175 11 86 4 116 9 108 17 -17 17 -13 55 8
76 20 20 19 20 -24 46 -25 14 -47 35 -50 48 -3 12 -4 1061 -3 2332 l3 2309 34
3 c81 7 107 87 50 156 -22 27 -38 37 -60 37 -24 0 -29 4 -29 26 0 14 11 40 24
57 93 122 123 299 75 444 -13 41 -70 136 -88 147 -13 9 -15 136 -2 136 6 0 13
-4 16 -10 10 -16 51 -11 69 9 24 26 36 74 23 97 -19 36 -60 73 -88 79 l-29 7
0 314 0 314 -70 0 c-38 0 -70 -1 -71 -2z m138 -1032 c24 -45 43 -124 43 -177
0 -121 -57 -255 -114 -271 -37 -9 -53 3 -78 60 -47 105 -41 238 15 349 28 54
42 69 72 75 30 7 44 -1 62 -36z"/>
</g>
</svg>
