<?xml version="1.0" standalone="no"?>
<!DOCTYPE svg PUBLIC "-//W3C//DTD SVG 20010904//EN"
 "http://www.w3.org/TR/2001/REC-SVG-20010904/DTD/svg10.dtd">
<svg version="1.0" xmlns="http://www.w3.org/2000/svg"
 width="2644.000000pt" height="2800.000000pt" viewBox="0 0 2644.000000 2800.000000"
 preserveAspectRatio="xMidYMid meet">

<g transform="translate(0.000000,2800.000000) scale(0.100000,-0.100000)"
fill="#C5C3C1" stroke="none">
<path d="M16994 23868 l-44 -41 0 -1549 c0 -1086 -3 -1547 -11 -1543 -16 11
-57 -3 -79 -27 -42 -45 -10 -121 55 -134 33 -6 35 -8 35 -48 0 -29 -9 -54 -30
-84 -54 -80 -74 -147 -74 -252 -1 -109 16 -172 70 -251 26 -39 34 -61 34 -96
0 -45 -1 -45 -29 -40 -38 8 -69 -15 -77 -58 -9 -48 15 -81 66 -95 l40 -11 0
-2199 c0 -1882 -2 -2201 -14 -2213 -8 -8 -28 -20 -45 -27 -35 -14 -38 -22 -16
-40 29 -24 14 -75 -29 -98 -13 -6 -20 -22 -22 -46 l-2 -36 204 0 204 0 0 38
c-1 31 -6 40 -33 57 -39 25 -45 57 -17 85 12 12 20 23 18 24 -1 1 -17 8 -35
15 -17 7 -39 21 -47 30 -15 16 -16 227 -14 2217 l3 2199 39 6 c46 7 66 30 66
74 0 42 -20 67 -66 80 -55 15 -56 45 -4 132 56 92 65 131 64 258 0 96 -3 117
-25 165 -14 30 -38 69 -53 87 -23 28 -27 40 -24 85 l3 53 36 -3 c44 -4 69 23
69 73 0 42 -17 62 -65 78 l-40 14 -3 1571 -2 1570 -31 11 c-28 10 -33 7 -75
-31z m79 -3485 c62 -107 60 -267 -5 -385 -36 -66 -62 -64 -96 9 -24 52 -27 69
-27 168 0 105 2 114 33 178 39 78 62 85 95 30z"/>
</g>
</svg>
