<?xml version="1.0" standalone="no"?>
<!DOCTYPE svg PUBLIC "-//W3C//DTD SVG 20010904//EN"
 "http://www.w3.org/TR/2001/REC-SVG-20010904/DTD/svg10.dtd">
<svg version="1.0" xmlns="http://www.w3.org/2000/svg"
 width="2644.000000pt" height="2800.000000pt" viewBox="0 0 2644.000000 2800.000000"
 preserveAspectRatio="xMidYMid meet">

<g transform="translate(0.000000,2800.000000) scale(0.100000,-0.100000)"
fill="#C5C3C1" stroke="none">
<path d="M18122 24947 l-42 -43 0 -1557 0 -1557 -30 0 c-19 0 -40 -9 -55 -25
-47 -46 -23 -117 46 -140 29 -10 34 -17 37 -48 2 -26 -3 -47 -18 -66 -11 -17
-35 -60 -53 -98 -30 -63 -32 -75 -32 -173 0 -121 16 -180 70 -256 28 -39 35
-58 35 -96 l0 -47 -33 6 c-28 4 -37 1 -55 -22 -42 -54 -20 -116 48 -133 l35
-8 0 -1724 0 -1725 -43 -23 c-40 -22 -41 -25 -27 -45 8 -12 15 -31 15 -43 0
-21 -28 -54 -47 -54 -11 0 -24 -58 -14 -64 3 -2 95 -1 204 2 182 5 197 6 197
23 0 10 -9 23 -19 29 -53 28 -65 66 -31 100 20 20 20 20 -23 41 -23 12 -45 27
-49 33 -4 6 -8 786 -8 1734 l0 1722 31 0 c43 0 65 15 78 50 18 54 -13 99 -81
115 -41 10 -37 50 13 129 22 36 47 89 55 118 19 69 19 200 1 260 -17 53 -58
128 -81 148 -11 9 -16 30 -16 71 l0 58 43 -2 c39 -2 43 0 60 34 25 53 11 84
-53 112 l-50 22 0 1579 1 1580 -23 13 c-34 19 -40 17 -86 -30z m86 -3519 c59
-127 55 -272 -11 -390 -34 -63 -62 -61 -95 7 -55 113 -51 253 10 367 39 74 66
78 96 16z"/>
</g>
</svg>
