<?xml version="1.0" standalone="no"?>
<!DOCTYPE svg PUBLIC "-//W3C//DTD SVG 20010904//EN"
 "http://www.w3.org/TR/2001/REC-SVG-20010904/DTD/svg10.dtd">
<svg version="1.0" xmlns="http://www.w3.org/2000/svg"
 width="3542.000000pt" height="3750.000000pt" viewBox="0 0 3542.000000 3750.000000"
 preserveAspectRatio="xMidYMid meet">

<g transform="translate(0.000000,3750.000000) scale(0.100000,-0.100000)"
fill="#65340A" stroke="none">
<path d="M15450 16420 l0 -2240 -20 0 c-12 0 -35 -7 -52 -16 l-30 -16 26 -27
c36 -38 35 -83 -3 -110 -16 -12 -36 -21 -45 -21 -9 0 -16 -7 -16 -15 0 -8 -8
-15 -19 -15 -24 0 -45 -25 -37 -45 3 -8 16 -19 30 -25 13 -5 25 -12 27 -17 2
-4 22 -17 44 -28 33 -17 41 -26 43 -54 3 -26 -3 -40 -24 -62 -15 -16 -26 -30
-23 -32 14 -10 63 -27 79 -27 20 0 20 -25 20 -2249 0 -1912 -2 -2252 -14
-2264 -8 -7 -35 -21 -60 -31 l-47 -18 26 -24 c14 -12 25 -32 25 -44 0 -24 -42
-70 -65 -70 -16 0 -17 -4 -19 -62 -1 -42 -13 -37 144 -63 91 -15 101 -15 216
4 67 12 124 21 128 21 3 0 6 23 6 50 0 42 -3 50 -18 50 -26 0 -62 41 -62 70 0
13 10 34 21 46 l21 23 -37 15 c-21 9 -40 16 -44 16 -4 0 -15 10 -25 21 -17 21
-18 109 -14 2262 l3 2240 41 12 c63 18 65 22 33 54 -16 16 -29 40 -29 53 0 28
38 68 63 68 10 0 25 9 34 20 10 11 23 20 30 20 7 0 17 9 23 21 13 23 -2 49
-27 49 -7 0 -16 6 -19 14 -3 8 -17 17 -32 21 -37 9 -72 44 -72 71 0 12 11 36
25 52 14 17 25 32 25 36 0 3 -21 12 -47 19 l-47 14 0 2236 0 2237 -93 0 -93 0
0 -2240z"/>
</g>
</svg>
