<?xml version="1.0" standalone="no"?>
<!DOCTYPE svg PUBLIC "-//W3C//DTD SVG 20010904//EN"
 "http://www.w3.org/TR/2001/REC-SVG-20010904/DTD/svg10.dtd">
<svg version="1.0" xmlns="http://www.w3.org/2000/svg"
 width="3542.000000pt" height="3750.000000pt" viewBox="0 0 3542.000000 3750.000000"
 preserveAspectRatio="xMidYMid meet">

<g transform="translate(0.000000,3750.000000) scale(0.100000,-0.100000)"
fill="#65340A" stroke="none">
<path d="M34480 16280 c0 -1955 -2 -2340 -13 -2340 -12 0 -74 -26 -86 -36 -2
-2 8 -15 22 -30 15 -14 29 -35 33 -46 8 -28 -25 -71 -64 -83 -18 -5 -32 -13
-32 -17 0 -4 -13 -14 -30 -23 -21 -11 -30 -23 -30 -39 0 -18 8 -27 30 -35 17
-5 30 -14 30 -20 0 -5 16 -15 35 -21 69 -23 80 -76 28 -132 l-25 -26 30 -16
c17 -9 40 -16 52 -16 l20 0 0 -1047 c0 -577 3 -1634 7 -2350 4 -971 3 -1303
-6 -1303 -6 0 -11 -7 -11 -15 0 -8 -4 -15 -9 -15 -5 0 -30 -9 -55 -20 l-46
-19 25 -25 c14 -14 25 -36 25 -50 0 -25 -34 -60 -71 -71 -15 -5 -19 -16 -19
-54 l0 -48 164 -23 164 -22 96 22 96 22 0 48 c0 44 -3 49 -30 60 -61 25 -76
75 -35 116 l25 24 -54 24 c-29 13 -56 31 -59 40 -7 18 -8 447 -7 3114 l0 1592
20 0 c20 0 80 26 80 35 0 2 -11 15 -25 29 -47 47 -23 116 46 131 16 4 27 11
24 16 -3 4 10 15 30 23 19 8 35 21 35 29 0 16 -31 47 -47 47 -6 0 -13 6 -16
14 -3 7 -18 17 -34 20 -67 17 -84 78 -36 128 31 32 26 39 -34 57 l-43 12 0
2339 0 2340 -100 0 -100 0 0 -2340z"/>
</g>
</svg>
