<?xml version="1.0" standalone="no"?>
<!DOCTYPE svg PUBLIC "-//W3C//DTD SVG 20010904//EN"
 "http://www.w3.org/TR/2001/REC-SVG-20010904/DTD/svg10.dtd">
<svg version="1.0" xmlns="http://www.w3.org/2000/svg"
 width="3542.000000pt" height="3750.000000pt" viewBox="0 0 3542.000000 3750.000000"
 preserveAspectRatio="xMidYMid meet">

<g transform="translate(0.000000,3750.000000) scale(0.100000,-0.100000)"
fill="#65340A" stroke="none">
<path d="M8830 16463 c0 -1160 -1 -2272 -3 -2473 l-2 -364 -30 -7 c-16 -3 -43
-12 -59 -18 l-29 -12 31 -32 c57 -59 39 -125 -39 -142 -16 -4 -29 -13 -29 -21
0 -8 -7 -14 -15 -14 -8 0 -24 -9 -35 -20 -25 -25 -14 -54 25 -64 14 -4 25 -13
25 -21 0 -8 8 -15 18 -15 26 0 79 -36 87 -59 7 -22 -14 -69 -39 -90 -26 -21
-19 -29 39 -47 l55 -18 0 -2475 c-1 -1931 -3 -2479 -13 -2491 -7 -8 -35 -26
-64 -39 l-52 -24 24 -29 c39 -46 29 -85 -28 -114 -18 -9 -35 -22 -39 -27 -6
-10 -3 -86 4 -92 2 -1 53 -13 114 -27 l112 -24 108 18 c60 10 120 20 134 22
14 2 35 5 48 5 20 1 22 6 22 55 0 50 -2 54 -30 66 -64 26 -78 83 -30 123 l29
25 -58 22 c-35 13 -63 30 -70 43 -8 16 -11 651 -9 2496 l3 2475 48 12 c58 15
67 22 46 37 -30 23 -51 66 -45 92 7 27 59 65 89 65 9 0 17 6 17 13 0 7 14 18
30 24 23 9 30 17 30 38 0 21 -7 29 -30 38 -16 6 -30 17 -30 24 0 6 -10 14 -22
18 -45 12 -67 28 -79 56 -9 24 -8 33 6 56 10 16 24 32 32 36 27 16 12 35 -39
49 l-53 15 -2 294 c-1 162 -2 1274 -3 2472 l0 2177 -100 0 -100 0 0 -2107z"/>
</g>
</svg>
