<?xml version="1.0" standalone="no"?>
<!DOCTYPE svg PUBLIC "-//W3C//DTD SVG 20010904//EN"
 "http://www.w3.org/TR/2001/REC-SVG-20010904/DTD/svg10.dtd">
<svg version="1.0" xmlns="http://www.w3.org/2000/svg"
 width="2644.000000pt" height="2800.000000pt" viewBox="0 0 2644.000000 2800.000000"
 preserveAspectRatio="xMidYMid meet">

<g transform="translate(0.000000,2800.000000) scale(0.100000,-0.100000)"
fill="#C5C3C1" stroke="none">
<path d="M1586 14032 c-2 -4 -5 -410 -5 -902 0 -492 0 -994 -1 -1115 l0 -220
-33 -15 c-62 -29 -59 -134 4 -147 16 -3 29 -11 30 -17 0 -6 2 -21 5 -34 2 -13
-9 -53 -25 -90 -62 -144 -67 -314 -13 -458 50 -131 50 -145 0 -158 -38 -9 -59
-75 -37 -115 8 -14 24 -27 34 -29 11 -2 24 -8 28 -12 7 -6 10 -938 7 -1705 0
-36 -4 -42 -29 -52 -64 -24 -63 -144 2 -151 25 -3 27 -6 27 -50 0 -26 -9 -66
-19 -89 -63 -137 -67 -318 -12 -458 17 -46 31 -99 31 -123 0 -39 -2 -43 -22
-40 -16 2 -27 -6 -41 -31 -29 -48 -15 -99 31 -115 l33 -11 5 -1160 c3 -963 2
-1163 -9 -1177 -8 -10 -33 -26 -55 -36 -42 -19 -42 -19 -22 -37 11 -10 20 -28
20 -40 0 -22 -32 -57 -62 -68 -12 -4 -16 -16 -14 -44 l2 -38 119 -13 c119 -12
121 -12 222 15 l103 28 0 42 c0 35 -3 42 -21 45 -12 2 -31 15 -42 30 l-21 28
22 29 21 29 -43 16 c-24 9 -49 15 -57 12 -40 -12 -69 -15 -69 -7 0 6 16 13 35
17 l35 6 0 1174 0 1174 24 0 c33 0 56 35 56 86 0 45 -10 58 -53 68 -27 6 -29
9 -24 49 2 23 16 69 30 102 58 135 56 325 -4 451 -19 41 -29 78 -29 108 0 44
1 46 28 46 33 0 52 30 52 81 0 47 -16 69 -50 69 l-30 0 0 875 c0 868 0 875 20
875 35 0 60 35 60 83 0 49 -22 77 -58 77 -18 0 -22 6 -22 34 0 18 11 58 24 87
68 156 68 355 0 491 -15 29 -24 65 -24 93 0 41 2 45 24 45 31 0 56 34 56 78 0
49 -16 72 -50 72 l-30 0 0 1125 0 1125 -79 0 c-44 0 -82 -4 -85 -8z m103
-2675 c14 -80 14 -132 0 -199 -15 -70 -25 -79 -38 -32 -21 75 -7 294 19 294 4
0 13 -28 19 -63z m2 -2814 c18 -91 -6 -292 -33 -265 -28 28 -17 322 12 322 5
0 14 -26 21 -57z"/>
</g>
</svg>
