<?xml version="1.0" standalone="no"?>
<!DOCTYPE svg PUBLIC "-//W3C//DTD SVG 20010904//EN"
 "http://www.w3.org/TR/2001/REC-SVG-20010904/DTD/svg10.dtd">
<svg version="1.0" xmlns="http://www.w3.org/2000/svg"
 width="2644.000000pt" height="2800.000000pt" viewBox="0 0 2644.000000 2800.000000"
 preserveAspectRatio="xMidYMid meet">

<g transform="translate(0.000000,2800.000000) scale(0.100000,-0.100000)"
fill="#C5C3C1" stroke="none">
<path d="M10367 17203 c-4 -3 -7 -379 -7 -834 0 -812 0 -828 -19 -834 -40 -12
-40 -108 1 -118 19 -5 20 -11 15 -59 -3 -29 -13 -78 -21 -108 -22 -76 -20
-210 4 -305 26 -101 26 -131 0 -138 -38 -10 -38 -104 0 -114 20 -5 20 -19 22
-592 4 -910 6 -821 -18 -821 -38 0 -42 -107 -4 -117 23 -6 31 -62 15 -101 -36
-85 -44 -291 -15 -367 6 -16 15 -52 19 -78 8 -45 6 -50 -14 -59 -40 -18 -40
-118 -1 -118 19 0 22 -44 18 -252 l-3 -158 -32 -16 c-43 -22 -43 -21 -23 -43
20 -22 10 -53 -24 -71 -13 -7 -20 -21 -20 -40 l0 -29 103 -3 c56 -2 129 -1
162 2 59 5 60 5 63 38 3 26 -1 34 -21 41 -32 13 -41 39 -22 68 15 23 15 24
-20 38 -19 9 -35 19 -35 23 -1 4 -1 93 -2 197 l-2 190 27 27 c15 15 27 34 27
42 0 30 -19 63 -39 69 -26 7 -26 26 1 107 31 94 32 289 1 375 -24 69 -21 121
8 128 39 10 37 96 -3 114 -22 10 -23 16 -23 114 4 1193 5 1289 20 1289 40 0
44 107 4 117 -25 7 -25 38 1 138 12 47 20 111 20 160 0 49 -8 113 -20 160 -26
102 -26 142 0 150 39 12 34 115 -5 115 -13 0 -15 110 -17 828 l-3 827 -45 3
c-24 2 -50 8 -56 13 -6 5 -14 6 -17 2z m60 -2125 c-2 -18 -4 -6 -4 27 0 33 2
48 4 33 2 -15 2 -42 0 -60z m0 -2250 c-2 -18 -4 -6 -4 27 0 33 2 48 4 33 2
-15 2 -42 0 -60z"/>
</g>
</svg>
