<?xml version="1.0" standalone="no"?>
<!DOCTYPE svg PUBLIC "-//W3C//DTD SVG 20010904//EN"
 "http://www.w3.org/TR/2001/REC-SVG-20010904/DTD/svg10.dtd">
<svg version="1.0" xmlns="http://www.w3.org/2000/svg"
 width="2644.000000pt" height="2800.000000pt" viewBox="0 0 2644.000000 2800.000000"
 preserveAspectRatio="xMidYMid meet">

<g transform="translate(0.000000,2800.000000) scale(0.100000,-0.100000)"
fill="#C5C3C1" stroke="none">
<path d="M20446 27167 l-49 -42 2 -953 2 -952 -29 0 c-45 0 -82 -34 -82 -76 0
-51 16 -73 66 -95 39 -18 44 -24 44 -53 0 -18 -8 -44 -19 -57 -110 -141 -122
-377 -26 -529 13 -21 29 -41 35 -45 5 -3 10 -30 10 -60 l0 -53 -39 5 c-32 4
-41 2 -55 -18 -9 -13 -16 -40 -16 -60 0 -41 22 -65 80 -89 l30 -12 0 -915 c0
-902 0 -914 -20 -908 -23 7 -75 -18 -84 -40 -23 -60 9 -119 72 -131 30 -6 32
-10 32 -46 0 -27 -9 -53 -29 -81 -57 -83 -82 -170 -82 -280 0 -90 22 -161 71
-234 33 -51 40 -69 40 -111 l0 -50 -31 11 c-28 11 -33 10 -55 -16 -26 -31 -32
-83 -11 -110 6 -9 30 -23 52 -30 l40 -14 0 -904 0 -904 -40 -20 c-22 -11 -42
-21 -44 -22 -2 -2 3 -11 12 -21 27 -29 21 -68 -13 -94 -16 -12 -30 -29 -30
-37 0 -14 15 -16 102 -13 57 1 144 5 195 8 l92 6 -29 25 c-35 29 -38 58 -9 89
l20 21 -40 16 c-22 9 -45 25 -51 36 -7 14 -9 304 -8 923 l3 903 28 -3 c35 -4
87 45 87 83 0 34 -48 83 -89 91 -26 6 -31 11 -31 36 0 16 11 44 24 61 120 160
124 393 10 542 -29 39 -34 53 -34 100 l0 55 38 -6 c43 -7 68 13 78 62 7 38
-22 76 -76 100 l-40 18 2 910 3 911 37 3 c43 4 78 39 78 80 0 30 -71 102 -100
102 -31 0 -25 43 15 103 58 88 79 158 79 267 0 109 -22 180 -80 255 -30 40
-34 52 -34 106 0 54 2 60 18 54 39 -16 51 -16 71 4 51 51 36 107 -39 148 l-50
28 0 966 0 967 -25 16 c-13 9 -26 16 -27 16 -2 0 -25 -19 -52 -43z m100 -2339
c24 -54 28 -76 29 -153 0 -96 -16 -154 -62 -227 -17 -28 -30 -38 -49 -38 -21
0 -29 9 -49 53 -49 105 -52 202 -11 316 28 76 54 111 85 111 25 0 32 -8 57
-62z m-5 -2961 c52 -113 50 -236 -8 -354 -33 -67 -68 -86 -95 -53 -35 43 -60
132 -60 210 1 124 57 260 108 260 21 0 30 -10 55 -63z"/>
</g>
</svg>
