<?xml version="1.0" standalone="no"?>
<!DOCTYPE svg PUBLIC "-//W3C//DTD SVG 20010904//EN"
 "http://www.w3.org/TR/2001/REC-SVG-20010904/DTD/svg10.dtd">
<svg version="1.0" xmlns="http://www.w3.org/2000/svg"
 width="2644.000000pt" height="2800.000000pt" viewBox="0 0 2644.000000 2800.000000"
 preserveAspectRatio="xMidYMid meet">

<g transform="translate(0.000000,2800.000000) scale(0.100000,-0.100000)"
fill="#C5C3C1" stroke="none">
<path d="M22810 27745 l0 -255 -34 0 c-46 0 -86 -41 -86 -88 0 -28 8 -43 41
-74 22 -21 48 -37 57 -36 33 6 26 -49 -14 -109 -54 -82 -76 -146 -81 -244 -8
-130 20 -226 87 -303 25 -28 30 -42 30 -85 l0 -51 -44 6 c-42 6 -45 5 -60 -24
-27 -52 -21 -86 22 -122 20 -17 47 -33 60 -36 l22 -6 0 -924 0 -924 -35 0
c-82 0 -115 -94 -53 -152 17 -16 44 -32 60 -35 24 -5 28 -10 28 -38 0 -18 -8
-43 -18 -56 -11 -13 -31 -45 -46 -71 -84 -144 -73 -358 24 -488 34 -45 40 -61
40 -102 0 -35 -4 -48 -14 -48 -8 0 -18 5 -21 10 -4 6 -16 8 -28 4 -59 -17 -78
-106 -31 -143 14 -11 41 -26 60 -33 l34 -12 0 -904 c0 -544 -4 -910 -9 -921
-6 -10 -28 -26 -50 -36 l-40 -18 19 -25 c11 -13 20 -32 20 -42 0 -19 -40 -60
-58 -60 -7 0 -12 -5 -12 -11 0 -10 167 -7 297 7 51 5 52 6 41 30 -10 20 -8 29
10 54 l22 29 -43 23 -42 23 -3 936 -2 935 35 0 c43 0 72 26 81 71 6 29 2 38
-34 73 -22 22 -49 40 -61 40 -34 0 -27 50 15 116 60 93 78 155 78 264 0 109
-22 180 -80 255 -31 41 -34 52 -34 109 l0 64 29 -11 c15 -5 35 -8 44 -4 24 9
50 65 43 93 -7 28 -49 69 -88 85 l-28 11 0 924 0 924 31 0 c39 0 89 47 89 86
0 34 -80 117 -104 108 -13 -5 -16 1 -16 29 0 20 4 39 10 42 22 14 80 136 96
200 29 126 5 251 -70 355 -32 44 -36 57 -36 110 0 64 1 66 31 50 13 -8 25 -7
39 0 27 15 53 67 46 95 -7 26 -79 95 -101 95 -13 0 -15 34 -15 245 l0 245 -75
0 -75 0 0 -255z m145 -649 c53 -109 42 -273 -26 -381 -25 -40 -33 -45 -64 -45
-33 0 -38 4 -56 45 -49 110 -46 228 6 343 33 72 52 92 86 92 23 0 31 -8 54
-54z m-6 -3011 c55 -118 54 -244 -3 -361 -31 -62 -40 -72 -66 -76 -38 -6 -54
12 -79 83 -42 120 -36 215 21 329 24 47 40 66 58 70 37 10 46 3 69 -45z"/>
</g>
</svg>
