<?xml version="1.0" standalone="no"?>
<!DOCTYPE svg PUBLIC "-//W3C//DTD SVG 20010904//EN"
 "http://www.w3.org/TR/2001/REC-SVG-20010904/DTD/svg10.dtd">
<svg version="1.0" xmlns="http://www.w3.org/2000/svg"
 width="2644.000000pt" height="2800.000000pt" viewBox="0 0 2644.000000 2800.000000"
 preserveAspectRatio="xMidYMid meet">

<g transform="translate(0.000000,2800.000000) scale(0.100000,-0.100000)"
fill="#C5C3C1" stroke="none">
<path d="M14760 13713 c0 -153 -2 -746 -3 -1318 l-2 -1039 -40 -8 c-48 -10
-75 -39 -75 -83 0 -50 33 -85 81 -85 l39 0 0 -50 c0 -40 -7 -60 -39 -110 -61
-94 -76 -148 -76 -270 0 -125 16 -185 75 -283 30 -49 40 -77 38 -100 -3 -28
-7 -32 -43 -39 -22 -5 -48 -18 -57 -29 -25 -29 -23 -90 2 -117 21 -23 27 -25
70 -26 l25 -1 0 -984 0 -984 -45 -13 c-25 -7 -50 -21 -57 -31 -20 -27 -16 -87
8 -117 19 -24 26 -27 60 -21 l39 7 0 -54 c0 -45 -6 -61 -35 -102 -63 -89 -79
-145 -79 -281 0 -134 15 -190 81 -294 24 -37 33 -62 31 -84 -3 -26 -9 -32 -46
-43 -53 -15 -71 -37 -72 -87 0 -50 35 -87 84 -87 l35 0 0 -1282 c0 -998 -2
-1286 -12 -1299 -6 -8 -31 -26 -54 -39 -24 -13 -43 -26 -43 -29 0 -4 9 -12 20
-19 37 -23 21 -81 -30 -107 -26 -14 -30 -21 -30 -60 0 -52 -10 -49 194 -64
l128 -10 69 35 c68 34 69 35 69 73 0 34 -5 42 -35 59 -45 27 -55 64 -27 102
l21 28 -45 17 c-24 9 -49 25 -54 36 -16 28 -12 2535 3 2547 7 5 29 15 50 21
43 14 57 35 57 86 0 46 -39 90 -73 79 -40 -12 -42 -10 -45 39 -3 41 2 54 32
95 64 88 80 142 81 277 0 138 -12 183 -76 289 -54 90 -52 124 10 147 54 20 71
41 71 91 0 52 -37 91 -83 86 l-32 -3 0 985 0 985 40 13 c57 19 75 39 75 84 0
56 -35 89 -84 81 l-36 -6 0 48 c0 35 6 57 24 79 63 83 96 184 96 293 0 121
-27 208 -97 314 -18 28 -23 47 -21 80 3 42 4 44 40 50 54 8 78 34 78 81 0 51
-35 88 -84 88 l-35 0 0 1103 c0 606 0 1199 0 1318 l-1 216 -80 2 -80 1 0 -277z
m128 -2774 c65 -130 66 -260 3 -395 -39 -83 -54 -82 -98 6 -40 80 -56 178 -43
269 11 80 64 193 88 189 10 -2 32 -33 50 -69z m0 -3180 c63 -126 66 -257 8
-384 -40 -89 -59 -85 -111 23 -56 117 -56 246 1 373 36 80 57 78 102 -12z"/>
</g>
</svg>
