<?xml version="1.0" standalone="no"?>
<!DOCTYPE svg PUBLIC "-//W3C//DTD SVG 20010904//EN"
 "http://www.w3.org/TR/2001/REC-SVG-20010904/DTD/svg10.dtd">
<svg version="1.0" xmlns="http://www.w3.org/2000/svg"
 width="2644.000000pt" height="2800.000000pt" viewBox="0 0 2644.000000 2800.000000"
 preserveAspectRatio="xMidYMid meet">

<g transform="translate(0.000000,2800.000000) scale(0.100000,-0.100000)"
fill="#C5C3C1" stroke="none">
<path d="M14542 14628 c-10 -37 -6 -50 8 -28 10 15 14 60 5 60 -2 0 -8 -15
-13 -32z"/>
<path d="M14393 12868 l1 -1103 -21 -3 c-23 -3 -43 -46 -43 -91 0 -32 22 -76
37 -76 6 0 15 -3 18 -7 14 -13 6 -95 -17 -174 -18 -66 -22 -104 -22 -234 0
-136 3 -168 27 -260 28 -111 27 -150 -4 -150 -46 0 -50 -150 -4 -159 11 -2 23
-7 26 -12 6 -11 5 -1897 -2 -1901 -2 -2 -13 -8 -24 -14 -43 -24 -42 -154 0
-163 11 -2 23 -8 26 -13 11 -17 3 -78 -21 -163 -19 -68 -23 -105 -23 -245 0
-142 3 -175 22 -235 36 -113 35 -154 -2 -170 -26 -12 -39 -57 -32 -112 5 -34
11 -43 33 -51 l27 -9 -1 -1375 c-1 -756 -5 -1384 -8 -1396 -4 -11 -27 -33 -52
-47 l-46 -27 21 -22 c12 -12 21 -29 21 -38 0 -21 -38 -68 -56 -68 -10 0 -14
-13 -14 -49 l0 -48 63 -6 c225 -22 238 -22 305 12 61 31 62 32 62 74 -1 36 -5
45 -33 62 -40 25 -46 59 -17 90 l22 24 -37 15 c-21 9 -41 16 -46 16 -4 0 -11
9 -14 21 -4 12 -7 544 -7 1183 0 1660 -1 1606 17 1606 22 0 35 33 35 92 0 60
-6 74 -35 79 -27 6 -28 37 -5 124 46 174 47 415 1 546 -24 71 -19 141 12 155
45 19 44 146 -1 152 -12 2 -22 6 -23 10 -3 23 -4 1889 -1 1900 2 6 12 12 22
12 22 0 34 31 31 85 -2 57 -9 73 -34 77 -30 4 -33 50 -9 130 50 160 50 387 1
543 -29 92 -24 155 11 155 23 0 30 19 30 86 0 49 -2 55 -30 69 l-30 16 2 1094
3 1095 -82 0 -82 0 2 -1102z"/>
</g>
</svg>
