<?xml version="1.0" standalone="no"?>
<!DOCTYPE svg PUBLIC "-//W3C//DTD SVG 20010904//EN"
 "http://www.w3.org/TR/2001/REC-SVG-20010904/DTD/svg10.dtd">
<svg version="1.0" xmlns="http://www.w3.org/2000/svg"
 width="2644.000000pt" height="2800.000000pt" viewBox="0 0 2644.000000 2800.000000"
 preserveAspectRatio="xMidYMid meet">

<g transform="translate(0.000000,2800.000000) scale(0.100000,-0.100000)"
fill="#C5C3C1" stroke="none">
<path d="M16992 23867 l-42 -43 0 -927 0 -927 -28 0 c-56 0 -98 -70 -71 -118
15 -27 28 -36 72 -52 40 -14 37 -68 -8 -139 -52 -82 -69 -143 -70 -246 0 -104
18 -168 71 -246 27 -41 34 -61 34 -101 0 -44 -2 -49 -17 -43 -44 19 -77 -1
-90 -54 -9 -37 17 -74 65 -91 l42 -14 0 -893 0 -893 -30 0 c-19 0 -40 -9 -55
-25 -48 -47 -23 -120 45 -134 33 -6 35 -10 38 -49 2 -32 -3 -51 -25 -84 -107
-162 -108 -371 -3 -517 23 -31 30 -52 30 -87 0 -45 0 -46 -30 -39 -39 9 -80
-30 -80 -75 0 -41 39 -80 80 -80 l30 0 0 -1374 c0 -1172 -2 -1377 -14 -1389
-8 -8 -28 -20 -45 -27 -35 -14 -38 -22 -16 -40 8 -7 15 -26 15 -42 0 -22 -8
-33 -33 -48 -27 -16 -34 -27 -35 -55 l-1 -35 204 0 205 0 0 40 c0 27 -4 40
-13 40 -19 0 -57 43 -57 63 0 9 9 26 20 37 25 25 25 27 -3 34 -13 3 -36 15
-50 27 l-27 20 0 1375 0 1374 33 0 c42 0 77 35 77 76 0 42 -21 66 -66 79 -55
15 -58 55 -10 125 49 71 76 164 76 259 0 97 -19 160 -70 240 -35 54 -41 70
-38 110 l3 46 37 -3 c46 -4 71 27 66 84 -3 40 -16 51 -81 74 l-27 10 2 892 3
892 33 2 c46 2 72 29 72 74 0 47 -15 66 -65 83 -56 19 -57 48 -6 134 51 83 61
117 68 217 9 121 -24 230 -89 302 -15 17 -18 33 -16 75 l3 54 36 -3 c44 -4 69
23 69 75 0 38 -13 52 -69 77 l-41 19 0 935 0 935 -27 29 c-15 15 -29 28 -33
28 -3 0 -25 -19 -48 -43z m91 -2277 c51 -103 47 -248 -12 -356 -33 -62 -62
-70 -86 -23 -51 98 -61 220 -26 322 25 72 58 119 80 115 9 -2 28 -28 44 -58z
m-16 -2860 c66 -97 68 -268 4 -386 -44 -82 -73 -70 -111 43 -39 114 -21 267
41 354 25 35 36 34 66 -11z"/>
</g>
</svg>
