<?xml version="1.0" standalone="no"?>
<!DOCTYPE svg PUBLIC "-//W3C//DTD SVG 20010904//EN"
 "http://www.w3.org/TR/2001/REC-SVG-20010904/DTD/svg10.dtd">
<svg version="1.0" xmlns="http://www.w3.org/2000/svg"
 width="2550.000000pt" height="2700.000000pt" viewBox="0 0 2550.000000 2700.000000"
 preserveAspectRatio="xMidYMid meet">

<g transform="translate(0.000000,2700.000000) scale(0.100000,-0.100000)"
fill="#C5C3C1" stroke="none">
<path d="M8758 14859 l-3 -1443 -32 -9 -32 -10 22 -29 c25 -34 18 -53 -34 -81
-19 -10 -40 -25 -48 -32 -15 -15 -7 -35 15 -35 8 0 14 -4 14 -10 0 -5 7 -10
15 -10 16 0 55 -38 55 -55 0 -6 -9 -21 -20 -33 -11 -12 -20 -23 -20 -25 0 -3
16 -8 35 -11 l35 -7 -2 -1537 -3 -1536 -38 -22 c-33 -18 -36 -23 -22 -34 8 -7
15 -20 15 -30 0 -19 -30 -50 -49 -50 -8 0 -11 -12 -9 -32 3 -36 -8 -33 143
-38 44 -2 106 1 138 5 57 8 57 8 57 41 0 23 -5 34 -15 34 -8 0 -22 11 -31 25
-15 22 -15 28 -1 48 14 21 13 23 -22 42 l-36 21 -3 1532 c-2 1386 -1 1532 14
1532 8 0 24 5 35 11 18 9 19 13 6 27 -35 42 -26 64 45 101 39 22 49 50 19 58
-12 3 -21 9 -21 14 0 5 -9 9 -20 9 -11 0 -27 11 -36 26 -16 24 -16 26 5 55 23
30 21 34 -24 41 -20 3 -20 12 -23 1441 l-2 1437 -23 0 c-12 0 -39 3 -59 6
l-38 7 -2 -1444z"/>
</g>
</svg>
