<?xml version="1.0" standalone="no"?>
<!DOCTYPE svg PUBLIC "-//W3C//DTD SVG 20010904//EN"
 "http://www.w3.org/TR/2001/REC-SVG-20010904/DTD/svg10.dtd">
<svg version="1.0" xmlns="http://www.w3.org/2000/svg"
 width="2550.000000pt" height="2700.000000pt" viewBox="0 0 2550.000000 2700.000000"
 preserveAspectRatio="xMidYMid meet">

<g transform="translate(0.000000,2700.000000) scale(0.100000,-0.100000)"
fill="#C5C3C1" stroke="none">
<path d="M9288 14844 c-3 -1364 -4 -1417 -21 -1420 -47 -7 -51 -13 -27 -39 20
-21 22 -28 12 -50 -6 -13 -23 -27 -37 -31 -14 -3 -25 -10 -25 -15 0 -5 -6 -9
-14 -9 -28 0 -28 -23 0 -46 16 -13 34 -23 40 -24 6 0 19 -9 29 -20 15 -17 16
-24 7 -45 -6 -14 -17 -25 -24 -25 -20 -1 23 -30 44 -30 17 0 18 -60 18 -1502
0 -827 -4 -1508 -8 -1514 -4 -6 -22 -19 -40 -28 -33 -17 -33 -18 -16 -37 14
-15 15 -24 6 -43 -6 -13 -20 -27 -31 -31 -21 -6 -30 -48 -12 -59 17 -11 276
-9 304 2 38 16 36 52 -3 74 -33 19 -38 42 -15 68 14 16 13 18 -17 31 -18 7
-36 18 -40 23 -4 6 -8 687 -8 1513 l0 1501 30 7 c29 6 52 25 31 25 -16 0 -33
39 -26 59 3 11 19 24 35 31 17 7 30 16 30 20 0 4 9 10 20 13 30 8 15 32 -35
56 -50 24 -64 51 -41 86 21 32 21 32 -14 40 l-30 7 -2 1411 -3 1412 -57 3 -58
3 -2 -1417z"/>
</g>
</svg>
