<?xml version="1.0" standalone="no"?>
<!DOCTYPE svg PUBLIC "-//W3C//DTD SVG 20010904//EN"
 "http://www.w3.org/TR/2001/REC-SVG-20010904/DTD/svg10.dtd">
<svg version="1.0" xmlns="http://www.w3.org/2000/svg"
 width="2550.000000pt" height="2700.000000pt" viewBox="0 0 2550.000000 2700.000000"
 preserveAspectRatio="xMidYMid meet">

<g transform="translate(0.000000,2700.000000) scale(0.100000,-0.100000)"
fill="#C5C3C1" stroke="none">
<path d="M10299 16190 c-1 -3 -3 -617 -5 -1365 -2 -748 -3 -1363 -3 -1366 -1
-4 -15 -9 -33 -13 -29 -6 -30 -7 -15 -24 34 -37 21 -66 -45 -102 -18 -9 -34
-22 -36 -28 -2 -6 17 -22 42 -37 67 -39 73 -50 47 -86 l-22 -29 31 -6 c16 -4
30 -9 30 -13 3 -108 5 -2891 2 -2903 -2 -9 -20 -24 -39 -33 -32 -15 -33 -18
-19 -34 23 -25 20 -37 -14 -63 -23 -16 -30 -29 -28 -48 3 -25 5 -25 98 -28 52
-2 123 -1 158 3 62 7 62 7 62 38 0 24 -6 35 -22 42 -26 11 -35 49 -18 70 10
12 7 17 -16 25 -16 6 -32 17 -36 23 -4 7 -8 664 -8 1460 l0 1448 30 10 c34 12
37 21 15 39 -28 23 -17 49 35 81 28 17 50 34 50 39 0 5 -22 22 -50 39 -53 32
-63 57 -35 85 20 20 19 23 -15 35 l-30 10 0 1365 0 1364 -55 4 c-30 1 -56 1
-56 -2z"/>
</g>
</svg>
