<?xml version="1.0" standalone="no"?>
<!DOCTYPE svg PUBLIC "-//W3C//DTD SVG 20010904//EN"
 "http://www.w3.org/TR/2001/REC-SVG-20010904/DTD/svg10.dtd">
<svg version="1.0" xmlns="http://www.w3.org/2000/svg"
 width="2550.000000pt" height="2700.000000pt" viewBox="0 0 2550.000000 2700.000000"
 preserveAspectRatio="xMidYMid meet">

<g transform="translate(0.000000,2700.000000) scale(0.100000,-0.100000)"
fill="#C5C3C1" stroke="none">
<path d="M4900 14956 l-65 -80 -5 -1320 -5 -1321 -30 -9 c-16 -6 -31 -11 -33
-12 -1 -1 5 -15 15 -32 22 -39 7 -78 -37 -94 -17 -5 -30 -13 -30 -18 0 -4 -9
-10 -20 -13 -25 -6 -26 -25 -2 -34 9 -4 20 -10 23 -15 3 -5 21 -17 40 -26 39
-20 48 -51 25 -87 -21 -33 -21 -33 19 -41 l35 -6 0 -2038 c0 -1121 -3 -2046
-6 -2055 -4 -9 -24 -25 -46 -36 -37 -19 -39 -22 -24 -38 9 -10 16 -24 16 -33
0 -16 -47 -68 -61 -68 -5 0 -9 -13 -9 -29 0 -26 3 -29 46 -35 74 -10 211 -7
280 6 62 11 64 12 64 42 0 24 -7 35 -30 48 -23 13 -30 24 -30 47 0 16 5 33 10
36 17 10 11 23 -12 31 -13 3 -31 13 -40 22 -17 14 -18 125 -18 2057 l0 2041
35 13 35 12 -21 31 c-18 24 -20 34 -10 54 6 13 23 30 38 36 16 7 30 15 33 19
3 3 16 12 29 19 l24 12 -24 20 c-13 10 -39 25 -56 33 -18 8 -38 26 -45 40 -10
22 -8 30 10 55 l22 29 -32 9 -33 8 -5 1400 -5 1400 -65 -80z"/>
</g>
</svg>
