<?xml version="1.0" standalone="no"?>
<!DOCTYPE svg PUBLIC "-//W3C//DTD SVG 20010904//EN"
 "http://www.w3.org/TR/2001/REC-SVG-20010904/DTD/svg10.dtd">
<svg version="1.0" xmlns="http://www.w3.org/2000/svg"
 width="2550.000000pt" height="2700.000000pt" viewBox="0 0 2550.000000 2700.000000"
 preserveAspectRatio="xMidYMid meet">

<g transform="translate(0.000000,2700.000000) scale(0.100000,-0.100000)"
fill="#C5C3C1" stroke="none">
<path d="M7051 14968 c0 -794 0 -1477 0 -1519 l-1 -77 -35 -6 c-41 -8 -41 -10
-15 -36 11 -11 20 -28 20 -38 0 -18 -29 -52 -44 -52 -13 0 -66 -44 -66 -55 0
-6 17 -19 38 -30 76 -39 90 -67 52 -105 -26 -26 -26 -28 15 -36 l35 -6 1 -72
c0 -85 0 -2853 -1 -3044 l0 -132 -37 -17 c-21 -10 -40 -19 -42 -20 -2 -2 3
-11 12 -21 10 -10 17 -25 17 -34 0 -17 -31 -48 -48 -48 -7 0 -12 -15 -12 -34
l0 -34 98 -7 c61 -4 128 -2 180 5 l82 12 0 33 c0 24 -5 34 -20 38 -11 3 -25
17 -31 31 -10 21 -9 29 4 44 23 25 22 29 -10 37 -16 4 -34 11 -40 17 -10 8
-13 343 -13 1629 0 998 4 1619 9 1619 5 0 22 5 37 10 l27 11 -22 23 c-33 35
-23 56 43 100 55 36 58 40 40 52 -10 7 -24 17 -30 22 -6 5 -21 13 -33 17 -31
9 -46 46 -32 74 7 11 16 21 21 21 26 0 6 20 -25 26 l-35 6 -2 1517 -3 1516
-67 3 -68 3 1 -1443z"/>
</g>
</svg>
