<?xml version="1.0" standalone="no"?>
<!DOCTYPE svg PUBLIC "-//W3C//DTD SVG 20010904//EN"
 "http://www.w3.org/TR/2001/REC-SVG-20010904/DTD/svg10.dtd">
<svg version="1.0" xmlns="http://www.w3.org/2000/svg"
 width="2550.000000pt" height="2700.000000pt" viewBox="0 0 2550.000000 2700.000000"
 preserveAspectRatio="xMidYMid meet">

<g transform="translate(0.000000,2700.000000) scale(0.100000,-0.100000)"
fill="#C5C3C1" stroke="none">
<path d="M21052 24202 l-52 -47 -3 -1689 -2 -1690 -35 -9 c-46 -12 -46 -12
-21 -43 11 -15 21 -37 21 -49 0 -25 -29 -55 -54 -55 -9 0 -19 -6 -22 -14 -3
-8 -14 -16 -25 -19 -36 -10 -21 -43 39 -84 65 -45 75 -71 42 -115 -12 -16 -20
-31 -18 -32 1 -1 20 -10 41 -20 l37 -17 0 -1809 c0 -994 -3 -1816 -6 -1825 -4
-9 -27 -25 -51 -36 l-43 -19 20 -20 c11 -11 20 -28 20 -38 0 -21 -39 -62 -59
-62 -8 0 -11 -11 -9 -31 l3 -32 100 2 c55 1 142 4 193 7 81 6 92 9 92 25 0 11
-4 19 -8 19 -5 0 -18 9 -30 20 -26 24 -30 78 -7 86 23 9 18 21 -10 28 -14 4
-34 15 -45 26 -20 20 -20 41 -20 1838 l0 1819 41 12 c37 11 40 14 26 29 -33
38 -39 62 -23 87 15 23 50 47 89 61 27 10 20 38 -19 70 -77 62 -86 73 -78 97
3 12 14 31 25 42 17 20 17 20 -22 39 l-39 19 0 1728 c0 1639 -1 1729 -18 1738
-13 7 -28 -1 -70 -37z"/>
</g>
</svg>
