<?xml version="1.0" standalone="no"?>
<!DOCTYPE svg PUBLIC "-//W3C//DTD SVG 20010904//EN"
 "http://www.w3.org/TR/2001/REC-SVG-20010904/DTD/svg10.dtd">
<svg version="1.0" xmlns="http://www.w3.org/2000/svg"
 width="2550.000000pt" height="2700.000000pt" viewBox="0 0 2550.000000 2700.000000"
 preserveAspectRatio="xMidYMid meet">

<g transform="translate(0.000000,2700.000000) scale(0.100000,-0.100000)"
fill="#C5C3C1" stroke="none">
<path d="M22162 25267 l-52 -53 0 -1727 c0 -1494 -2 -1727 -14 -1727 -8 0 -26
-4 -40 -10 l-26 -9 25 -37 c14 -20 25 -41 25 -46 0 -15 -48 -58 -65 -58 -8 0
-15 -4 -15 -9 0 -5 -9 -12 -19 -16 -11 -3 -22 -12 -25 -20 -6 -17 -1 -23 93
-93 30 -23 31 -65 3 -95 l-21 -22 40 -23 39 -23 -2 -2302 -3 -2302 -40 -20
c-22 -11 -42 -21 -44 -22 -2 -2 3 -11 12 -21 28 -30 22 -70 -13 -90 -22 -13
-30 -24 -30 -46 l0 -29 187 7 c106 4 192 11 198 17 7 7 -2 20 -27 41 -41 32
-49 66 -23 88 22 18 19 26 -16 40 -64 27 -59 -164 -57 2350 l3 2294 33 7 c44
9 47 14 23 38 -38 38 -17 111 32 111 9 0 17 5 17 10 0 6 11 15 25 20 44 17 34
33 -67 110 -33 25 -36 57 -8 93 l20 25 -23 14 c-12 8 -30 17 -39 21 -17 6 -18
100 -18 1775 0 1757 -1 1792 -30 1792 -3 0 -29 -24 -58 -53z"/>
</g>
</svg>
