<?xml version="1.0" standalone="no"?>
<!DOCTYPE svg PUBLIC "-//W3C//DTD SVG 20010904//EN"
 "http://www.w3.org/TR/2001/REC-SVG-20010904/DTD/svg10.dtd">
<svg version="1.0" xmlns="http://www.w3.org/2000/svg"
 width="2550.000000pt" height="2700.000000pt" viewBox="0 0 2550.000000 2700.000000"
 preserveAspectRatio="xMidYMid meet">

<g transform="translate(0.000000,2700.000000) scale(0.100000,-0.100000)"
fill="#C5C3C1" stroke="none">
<path d="M24400 25445 c0 -1353 -2 -1555 -15 -1555 -8 0 -26 -5 -40 -12 -22
-10 -23 -13 -11 -27 8 -9 19 -28 25 -43 8 -22 6 -31 -10 -52 -11 -14 -26 -26
-32 -26 -7 0 -28 -14 -47 -30 l-35 -30 42 -37 c23 -21 53 -48 67 -60 32 -27
32 -31 2 -76 l-25 -36 40 -23 39 -22 0 -2336 c0 -2213 -1 -2338 -17 -2352 -10
-9 -31 -22 -46 -30 -25 -13 -27 -16 -13 -27 30 -25 18 -87 -20 -102 -13 -4
-24 -16 -24 -26 0 -16 11 -18 117 -16 185 4 271 13 247 25 -43 23 -58 74 -29
98 22 19 19 25 -24 45 -23 10 -42 26 -45 39 -3 11 -6 1068 -6 2349 l0 2327 28
11 c15 5 33 12 41 15 11 3 9 10 -8 28 -33 35 -26 85 14 106 17 8 32 17 35 20
3 3 14 10 24 16 11 6 21 15 23 20 4 12 -41 61 -85 93 -38 27 -42 64 -11 97
l21 22 -41 28 -41 27 0 1553 0 1554 -70 0 -70 0 0 -1555z"/>
</g>
</svg>
