<?xml version="1.0" standalone="no"?>
<!DOCTYPE svg PUBLIC "-//W3C//DTD SVG 20010904//EN"
 "http://www.w3.org/TR/2001/REC-SVG-20010904/DTD/svg10.dtd">
<svg version="1.0" xmlns="http://www.w3.org/2000/svg"
 width="2550.000000pt" height="2700.000000pt" viewBox="0 0 2550.000000 2700.000000"
 preserveAspectRatio="xMidYMid meet">

<g transform="translate(0.000000,2700.000000) scale(0.100000,-0.100000)"
fill="#C5C3C1" stroke="none">
<path d="M12860 11741 l0 -1809 -37 -13 c-54 -17 -54 -17 -27 -44 13 -13 24
-35 24 -48 0 -24 -37 -67 -58 -67 -6 0 -15 -6 -19 -14 -4 -7 -18 -18 -30 -25
-30 -15 -29 -39 2 -53 14 -6 25 -15 25 -20 0 -4 6 -8 14 -8 24 0 66 -41 66
-64 0 -13 -10 -35 -21 -50 -25 -31 -22 -36 23 -45 l33 -7 3 -2349 c1 -1293 0
-2360 -3 -2373 -3 -14 -22 -30 -49 -44 l-44 -21 21 -29 c20 -27 20 -31 7 -56
-9 -15 -25 -31 -37 -37 -21 -9 -38 -71 -24 -88 4 -4 68 -12 142 -18 l134 -12
70 29 c68 29 70 31 70 64 0 28 -6 39 -30 55 -35 24 -46 74 -21 95 23 19 20 28
-14 35 -17 4 -40 16 -50 28 -19 20 -20 59 -20 2369 l0 2349 45 20 45 20 -20
21 c-27 29 -33 53 -20 78 11 21 30 27 30 10 0 -5 5 -10 10 -10 7 0 7 6 0 19
-13 25 -13 34 0 26 6 -3 7 1 4 9 -3 9 -1 16 4 16 6 0 17 6 24 13 7 7 22 18 33
24 l20 12 -20 7 c-11 4 -24 13 -30 20 -5 7 -19 14 -29 16 -10 1 -28 15 -39 30
-20 27 -20 29 -4 63 9 19 22 35 29 35 22 0 -6 18 -42 27 l-35 9 -1 1795 c0
987 -1 1800 -2 1807 -1 8 -25 12 -77 12 l-75 0 0 -1809z"/>
</g>
</svg>
