<?xml version="1.0" standalone="no"?>
<!DOCTYPE svg PUBLIC "-//W3C//DTD SVG 20010904//EN"
 "http://www.w3.org/TR/2001/REC-SVG-20010904/DTD/svg10.dtd">
<svg version="1.0" xmlns="http://www.w3.org/2000/svg"
 width="2550.000000pt" height="2700.000000pt" viewBox="0 0 2550.000000 2700.000000"
 preserveAspectRatio="xMidYMid meet">

<g transform="translate(0.000000,2700.000000) scale(0.100000,-0.100000)"
fill="#C5C3C1" stroke="none">
<path d="M13692 14083 l-73 -124 0 -1424 c-1 -1069 -4 -1427 -12 -1434 -7 -5
-24 -12 -40 -16 -33 -9 -33 -8 -5 -45 29 -39 17 -78 -31 -102 -19 -9 -37 -21
-40 -26 -3 -5 -14 -11 -23 -15 -25 -9 -22 -26 7 -39 14 -6 25 -15 25 -20 0 -4
6 -8 14 -8 24 0 66 -41 66 -64 0 -13 -10 -35 -21 -50 -24 -31 -25 -30 21 -42
l35 -10 3 -1799 c1 -1256 -1 -1808 -8 -1826 -6 -14 -27 -33 -46 -42 -33 -16
-34 -18 -19 -40 20 -30 5 -79 -30 -97 -20 -11 -25 -21 -25 -50 l0 -37 77 -7
c123 -10 224 -6 278 12 47 16 50 19 53 55 3 29 -1 39 -15 44 -48 17 -66 60
-43 103 8 16 4 21 -28 37 l-37 18 0 1819 0 1819 30 10 c40 13 41 14 23 34 -35
39 -23 93 24 117 18 8 44 25 58 36 l25 20 -30 24 c-16 14 -36 25 -42 26 -43 1
-68 77 -38 116 21 28 19 32 -20 40 l-35 6 -2 1553 -3 1552 -73 -124z"/>
<path d="M13310 9785 c0 -27 4 -45 8 -39 4 6 15 13 25 17 9 3 17 13 17 22 0 9
-8 19 -17 22 -10 4 -21 11 -25 17 -4 6 -8 -11 -8 -39z"/>
<path d="M13310 4736 c0 -9 5 -16 10 -16 6 0 10 4 10 9 0 6 -4 13 -10 16 -5 3
-10 -1 -10 -9z"/>
</g>
</svg>
