<?xml version="1.0" standalone="no"?>
<!DOCTYPE svg PUBLIC "-//W3C//DTD SVG 20010904//EN"
 "http://www.w3.org/TR/2001/REC-SVG-20010904/DTD/svg10.dtd">
<svg version="1.0" xmlns="http://www.w3.org/2000/svg"
 width="3542.000000pt" height="3750.000000pt" viewBox="0 0 3542.000000 3750.000000"
 preserveAspectRatio="xMidYMid meet">

<g transform="translate(0.000000,3750.000000) scale(0.100000,-0.100000)"
fill="#65340A" stroke="none">
<path d="M12300 18523 c-3 -1248 -4 -1288 -25 -1290 -11 -1 -64 -5 -117 -8
l-98 -7 0 -1935 0 -1935 120 7 121 7 -3 -118 -3 -119 -95 -2 c-52 0 -105 -1
-117 -2 l-23 -1 0 -1659 0 -1658 39 -7 c33 -5 99 2 179 19 l22 5 0 -578 c0
-654 8 -592 -84 -631 l-48 -21 26 -21 c47 -37 30 -93 -37 -118 -24 -9 -27 -15
-27 -60 l0 -49 120 -23 119 -23 138 23 c75 12 141 25 145 27 4 3 8 25 8 50 0
39 -3 46 -27 55 -63 24 -83 78 -43 114 28 25 26 31 -22 50 -84 33 -78 -19 -78
644 l0 589 73 12 c39 7 90 15 112 19 l40 7 2 1628 2 1628 -109 -4 c-67 -2
-111 1 -113 7 -2 6 -3 57 -3 115 l1 105 98 -3 c65 -2 104 1 113 9 12 10 14
293 14 1940 l0 1928 -112 3 -113 3 -2 660 c-1 363 -2 670 -3 683 0 21 -3 22
-95 22 l-95 0 0 -87z m245 -3221 c0 -986 -2 -1797 -5 -1801 -3 -5 -72 -10
-155 -12 l-150 -4 -2 1798 c-2 988 -2 1798 0 1798 3 3 279 16 297 15 13 -1 15
-208 15 -1794z m-1 -2324 c8 -33 7 -2958 -2 -2958 -4 0 -72 -11 -151 -25 -79
-14 -148 -25 -152 -25 -8 0 -14 3007 -6 3011 1 1 65 5 142 9 77 3 145 7 151 8
7 1 14 -8 18 -20z"/>
</g>
</svg>
