<?xml version="1.0" standalone="no"?>
<!DOCTYPE svg PUBLIC "-//W3C//DTD SVG 20010904//EN"
 "http://www.w3.org/TR/2001/REC-SVG-20010904/DTD/svg10.dtd">
<svg version="1.0" xmlns="http://www.w3.org/2000/svg"
 width="3542.000000pt" height="3750.000000pt" viewBox="0 0 3542.000000 3750.000000"
 preserveAspectRatio="xMidYMid meet">

<g transform="translate(0.000000,3750.000000) scale(0.100000,-0.100000)"
fill="#65340A" stroke="none">
<path d="M15450 18608 c-1 -24 -1 -318 -1 -654 l0 -612 -31 -6 c-17 -3 -64 -6
-104 -6 l-74 0 0 -1805 0 -1805 99 0 100 0 6 -42 c3 -24 4 -74 2 -113 l-3 -70
-40 -1 c-21 0 -67 -1 -101 -2 l-63 -2 0 -1610 0 -1610 23 -5 c34 -9 57 -9 120
-1 l57 7 1 -38 c3 -237 -1 -1046 -5 -1060 -4 -11 -29 -29 -61 -42 l-55 -23 25
-20 c34 -27 33 -70 -1 -97 -15 -12 -33 -21 -40 -21 -10 0 -14 -14 -14 -49 l0
-49 118 -22 117 -21 125 21 c68 12 126 23 130 25 3 2 7 22 8 44 3 38 0 42 -36
60 -57 29 -66 91 -16 119 12 7 3 15 -43 38 l-58 29 -3 571 -2 571 42 7 c24 4
71 11 106 17 l62 11 0 1585 0 1586 -105 -5 -105 -6 0 109 0 109 59 0 c32 0 79
3 105 6 l46 7 0 1808 0 1809 -105 0 -105 0 0 650 0 650 -90 0 -90 0 0 -42z
m228 -3080 l-3 -1683 -137 -3 -138 -3 0 1680 0 1680 68 4 c37 2 100 4 140 5
l72 2 -2 -1682z m-4 -2174 c3 -9 6 -661 6 -1449 l0 -1433 -27 -6 c-69 -14
-208 -36 -229 -36 l-24 0 2 1463 3 1462 65 6 c138 12 197 10 204 -7z"/>
</g>
</svg>
