<?xml version="1.0" standalone="no"?>
<!DOCTYPE svg PUBLIC "-//W3C//DTD SVG 20010904//EN"
 "http://www.w3.org/TR/2001/REC-SVG-20010904/DTD/svg10.dtd">
<svg version="1.0" xmlns="http://www.w3.org/2000/svg"
 width="3542.000000pt" height="3750.000000pt" viewBox="0 0 3542.000000 3750.000000"
 preserveAspectRatio="xMidYMid meet">

<g transform="translate(0.000000,3750.000000) scale(0.100000,-0.100000)"
fill="#65340A" stroke="none">
<path d="M16428 18023 l-3 -648 -95 -5 -95 -5 0 -1805 0 -1804 98 3 98 3 -3
-99 -3 -98 -95 -5 -95 -5 2 -1569 c1 -863 5 -1572 9 -1575 8 -9 102 -7 147 2
l37 8 0 -539 c0 -415 -3 -542 -12 -555 -7 -9 -34 -25 -60 -36 l-48 -20 25 -25
c14 -14 25 -31 25 -39 0 -23 -38 -64 -65 -71 -21 -5 -25 -12 -25 -45 0 -21 6
-43 13 -49 6 -5 59 -18 118 -28 102 -17 109 -17 230 2 l124 19 3 48 c3 38 0
48 -15 54 -28 10 -63 45 -63 63 0 10 10 30 22 45 13 17 18 30 11 32 -5 2 -30
14 -54 26 l-44 22 -3 562 -2 561 27 6 c16 3 58 11 96 17 l67 11 0 1544 0 1544
-95 0 -95 0 0 100 0 100 95 0 95 0 0 1805 0 1805 -95 0 -95 0 0 645 0 645 -90
0 -90 0 -2 -647z m222 -2452 l0 -1679 -122 -4 c-68 -2 -126 -3 -130 -1 -5 2
-8 758 -8 1678 l0 1674 98 4 c53 1 112 4 130 5 l32 2 0 -1679z m0 -3545 c0
-1339 -1 -1415 -17 -1420 -24 -7 -203 -36 -225 -36 -17 0 -18 75 -18 1430 l0
1429 98 4 c53 1 112 4 130 5 l32 2 0 -1414z"/>
</g>
</svg>
