<?xml version="1.0" standalone="no"?>
<!DOCTYPE svg PUBLIC "-//W3C//DTD SVG 20010904//EN"
 "http://www.w3.org/TR/2001/REC-SVG-20010904/DTD/svg10.dtd">
<svg version="1.0" xmlns="http://www.w3.org/2000/svg"
 width="3542.000000pt" height="3750.000000pt" viewBox="0 0 3542.000000 3750.000000"
 preserveAspectRatio="xMidYMid meet">

<g transform="translate(0.000000,3750.000000) scale(0.100000,-0.100000)"
fill="#65340A" stroke="none">
<path d="M17380 18040 l0 -639 -87 -3 -88 -3 1 -280 c1 -154 2 -940 3 -1747
l1 -1468 85 0 85 0 0 -105 0 -104 -87 -3 -88 -3 3 -1565 c2 -861 6 -1567 9
-1570 3 -3 40 -4 84 -3 l79 2 0 -529 c0 -590 6 -545 -75 -575 l-44 -18 25 -19
c39 -31 30 -77 -18 -103 -35 -18 -38 -24 -38 -62 0 -48 -6 -45 134 -68 92 -16
106 -16 209 0 61 9 117 19 124 22 8 3 13 22 13 49 0 37 -4 46 -23 53 -59 23
-72 66 -33 106 l24 24 -45 17 c-79 30 -73 -16 -73 594 l0 548 73 12 c39 7 80
15 89 19 16 6 17 109 20 1546 l3 1540 -92 -4 -93 -3 0 106 0 105 93 3 92 3 0
1750 0 1750 -92 -3 -93 -3 0 636 0 635 -90 0 -90 0 0 -640z m218 -2387 l3
-1623 -68 0 c-37 0 -92 -3 -120 -6 l-53 -7 0 1626 0 1626 48 4 c26 2 79 3 117
3 l70 -1 3 -1622z m0 -3495 c2 -773 -1 -1409 -5 -1411 -5 -3 -51 -13 -103 -22
-52 -9 -103 -18 -112 -21 -17 -5 -18 67 -18 1425 l0 1430 48 4 c26 2 79 3 117
3 l70 -1 3 -1407z"/>
</g>
</svg>
