<?xml version="1.0" standalone="no"?>
<!DOCTYPE svg PUBLIC "-//W3C//DTD SVG 20010904//EN"
 "http://www.w3.org/TR/2001/REC-SVG-20010904/DTD/svg10.dtd">
<svg version="1.0" xmlns="http://www.w3.org/2000/svg"
 width="3542.000000pt" height="3750.000000pt" viewBox="0 0 3542.000000 3750.000000"
 preserveAspectRatio="xMidYMid meet">

<g transform="translate(0.000000,3750.000000) scale(0.100000,-0.100000)"
fill="#65340A" stroke="none">
<path d="M23480 18160 l0 -590 -93 0 -94 0 1 -1652 1 -1653 93 -3 92 -3 0 -93
c0 -109 4 -106 -117 -106 l-71 0 -2 -922 c0 -508 2 -1140 6 -1404 l7 -482 89
-12 88 -12 -2 -516 -3 -517 -51 -25 -51 -25 26 -21 c22 -19 24 -25 16 -50 -6
-17 -23 -35 -42 -44 -29 -13 -33 -20 -33 -56 l0 -41 125 -17 c117 -15 131 -15
225 1 l100 17 0 42 c0 37 -3 43 -31 54 -52 22 -59 82 -13 108 13 7 7 13 -30
27 -26 10 -51 26 -56 36 -6 10 -10 216 -10 508 l0 490 98 -2 97 -2 3 1433 2
1432 -100 0 -100 0 0 95 c0 83 2 95 18 96 9 1 54 0 100 -1 l82 -2 0 1656 0
1655 -97 3 -98 3 -3 593 -2 592 -85 0 -85 0 0 -590z m188 -720 l32 0 0 -1536
0 -1536 -127 7 c-71 4 -129 8 -130 9 -2 2 -3 1018 -3 2700 l0 369 98 -6 c53
-4 112 -7 130 -7z m0 -3500 l32 0 0 -1305 0 -1305 -22 4 c-13 3 -57 10 -98 16
-41 6 -90 13 -107 16 l-33 5 0 1291 0 1291 98 -6 c53 -4 112 -7 130 -7z"/>
</g>
</svg>
