<?xml version="1.0" standalone="no"?>
<!DOCTYPE svg PUBLIC "-//W3C//DTD SVG 20010904//EN"
 "http://www.w3.org/TR/2001/REC-SVG-20010904/DTD/svg10.dtd">
<svg version="1.0" xmlns="http://www.w3.org/2000/svg"
 width="3542.000000pt" height="3750.000000pt" viewBox="0 0 3542.000000 3750.000000"
 preserveAspectRatio="xMidYMid meet">

<g transform="translate(0.000000,3750.000000) scale(0.100000,-0.100000)"
fill="#65340A" stroke="none">
<path d="M25430 18122 l0 -609 -105 5 -105 5 0 -1707 0 -1707 103 3 102 3 3
-104 3 -103 -63 2 c-35 2 -82 2 -105 1 l-43 -1 0 -1445 0 -1445 23 -4 c12 -3
45 -8 72 -11 28 -3 65 -9 83 -12 l32 -5 0 -520 c0 -498 -3 -558 -29 -558 -5 0
-26 -7 -47 -16 -33 -14 -36 -17 -20 -26 44 -25 35 -88 -16 -110 -24 -11 -28
-18 -28 -55 0 -49 -13 -43 155 -67 98 -13 117 -13 185 0 41 9 85 18 98 20 19
4 22 11 22 49 0 31 -4 45 -14 45 -23 0 -66 40 -66 63 0 11 10 31 22 44 l21 23
-39 16 c-80 33 -74 -14 -74 555 l0 508 102 -2 102 -2 4 1477 4 1477 -103 -2
-104 -2 -2 103 -1 102 104 0 104 0 0 1695 0 1695 -55 1 c-30 1 -59 3 -65 4 -5
1 -28 3 -51 4 l-40 1 1 93 c1 50 1 325 1 610 l-1 517 -85 0 -85 0 0 -608z
m220 -747 c4 -2 4 -2652 1 -3083 l-1 -73 -137 3 -138 3 -3 1584 -2 1583 137
-7 c76 -4 140 -9 143 -10z m-2 -3600 c4 -4 2 -2668 -2 -2672 -2 -2 -64 4 -137
15 l-134 18 -3 1314 c-1 723 0 1321 3 1328 4 11 31 12 138 7 72 -4 133 -9 135
-10z"/>
</g>
</svg>
