<?xml version="1.0" standalone="no"?>
<!DOCTYPE svg PUBLIC "-//W3C//DTD SVG 20010904//EN"
 "http://www.w3.org/TR/2001/REC-SVG-20010904/DTD/svg10.dtd">
<svg version="1.0" xmlns="http://www.w3.org/2000/svg"
 width="3542.000000pt" height="3750.000000pt" viewBox="0 0 3542.000000 3750.000000"
 preserveAspectRatio="xMidYMid meet">

<g transform="translate(0.000000,3750.000000) scale(0.100000,-0.100000)"
fill="#65340A" stroke="none">
<path d="M26450 18105 l0 -615 -110 0 -110 0 0 -1705 0 -1705 110 0 110 0 0
-105 0 -104 -36 -7 c-20 -4 -59 -4 -87 -1 -29 4 -62 4 -74 1 l-23 -6 0 -1482
0 -1482 110 -14 110 -13 0 -531 c0 -292 -4 -536 -8 -543 -4 -6 -29 -21 -56
-33 l-49 -21 22 -22 c11 -13 21 -33 21 -44 0 -23 -43 -63 -66 -63 -10 0 -14
-14 -14 -48 l0 -48 143 -17 c136 -17 146 -17 232 0 l90 18 3 48 c2 35 0 47
-11 47 -24 0 -67 40 -67 63 0 11 10 31 21 43 l22 23 -39 18 c-81 36 -74 -15
-74 565 l0 518 43 -7 c55 -9 153 -10 162 -1 6 5 9 1479 6 2655 l-1 362 -102 3
-103 3 -3 107 -3 107 106 3 106 3 -1 480 c0 264 0 1028 0 1698 l0 1217 -37 0
c-21 0 -68 3 -105 7 l-68 6 0 618 0 619 -85 0 -85 0 0 -615z m153 -755 l77 0
0 -1580 0 -1581 -147 3 -148 3 -3 1570 c-1 864 0 1576 3 1584 4 11 20 12 73 7
37 -3 102 -6 145 -6z m65 -3626 c9 -3 12 -286 12 -1374 l0 -1370 -32 1 c-18 0
-84 8 -147 17 l-114 17 -1 1358 c-1 747 1 1360 3 1363 5 5 259 -6 279 -12z"/>
</g>
</svg>
