<?xml version="1.0" standalone="no"?>
<!DOCTYPE svg PUBLIC "-//W3C//DTD SVG 20010904//EN"
 "http://www.w3.org/TR/2001/REC-SVG-20010904/DTD/svg10.dtd">
<svg version="1.0" xmlns="http://www.w3.org/2000/svg"
 width="3542.000000pt" height="3750.000000pt" viewBox="0 0 3542.000000 3750.000000"
 preserveAspectRatio="xMidYMid meet">

<g transform="translate(0.000000,3750.000000) scale(0.100000,-0.100000)"
fill="#65340A" stroke="none">
<path d="M4958 17743 l-3 -768 -132 -3 -133 -3 0 -2134 0 -2135 135 0 135 0 0
-119 c0 -99 -3 -120 -16 -125 -9 -3 -69 -6 -135 -6 l-119 0 0 -1860 0 -1859
37 -10 c28 -8 61 -7 131 5 51 9 95 14 98 11 8 -7 7 -1252 -1 -1276 -3 -11 -31
-30 -68 -46 l-63 -28 28 -28 c15 -15 28 -38 28 -52 0 -29 -42 -75 -73 -79 -19
-3 -22 -10 -25 -60 l-3 -57 38 -10 c21 -6 73 -19 116 -30 l79 -20 166 30 c92
16 170 29 175 29 4 0 7 27 7 60 0 52 -3 60 -19 60 -10 0 -30 9 -45 21 -42 33
-34 99 17 126 14 7 7 13 -40 32 -101 41 -93 -25 -93 719 0 358 1 652 3 652 1
0 65 11 141 25 77 14 141 25 143 25 2 0 3 819 3 1820 l0 1819 -142 3 -143 3
-2 117 c-2 136 -10 128 112 127 44 -1 101 0 128 0 l47 1 0 2135 0 2135 -145 0
-144 0 -1 438 c0 240 0 582 0 760 l0 322 -110 0 -110 0 -2 -767z m322 -2887
c0 -1872 -1 -1975 -17 -1980 -10 -3 -99 -8 -198 -12 l-180 -6 -3 1976 c-4
1912 -3 1976 15 1977 82 5 288 16 331 17 l52 2 0 -1974z m0 -4206 l0 -1670
-22 -5 c-67 -15 -369 -61 -373 -57 -3 3 -5 765 -5 1694 0 1601 1 1688 18 1689
65 4 286 16 330 17 l52 2 0 -1670z"/>
</g>
</svg>
