<?xml version="1.0" standalone="no"?>
<!DOCTYPE svg PUBLIC "-//W3C//DTD SVG 20010904//EN"
 "http://www.w3.org/TR/2001/REC-SVG-20010904/DTD/svg10.dtd">
<svg version="1.0" xmlns="http://www.w3.org/2000/svg"
 width="3542.000000pt" height="3750.000000pt" viewBox="0 0 3542.000000 3750.000000"
 preserveAspectRatio="xMidYMid meet">

<g transform="translate(0.000000,3750.000000) scale(0.100000,-0.100000)"
fill="#65340A" stroke="none">
<path d="M10020 17865 l0 -715 -77 -2 c-43 0 -91 -2 -108 -4 -16 -1 -40 -2
-52 -3 l-23 -1 0 -1985 0 -1985 130 0 130 0 0 -124 c0 -90 -3 -125 -12 -129
-7 -2 -62 -5 -123 -6 -60 -1 -112 -4 -114 -7 -3 -3 -5 -776 -6 -1719 l0 -1714
44 -7 c25 -4 72 -2 106 5 34 6 72 11 84 11 l21 0 0 -595 c0 -582 0 -595 -20
-615 -11 -11 -24 -20 -29 -20 -5 0 -25 -7 -46 -16 l-37 -15 26 -24 c35 -32 35
-77 0 -104 -15 -12 -35 -21 -45 -21 -16 0 -19 -8 -19 -54 0 -63 -12 -55 136
-86 l100 -21 125 21 c199 33 179 23 179 85 0 48 -2 53 -25 59 -32 8 -65 44
-65 71 0 23 33 65 53 66 7 0 -13 11 -43 25 -99 45 -90 -20 -90 673 l0 609 68
12 c37 6 89 14 115 17 26 3 50 10 53 15 4 7 8 2275 5 3206 l-1 163 -111 -2
c-61 0 -115 3 -120 8 -5 5 -8 61 -7 124 l3 114 117 3 116 3 7 82 c3 45 5 942
3 1992 l-3 1910 -114 -4 c-70 -2 -116 1 -120 7 -3 6 -6 326 -5 711 l1 701
-104 0 -103 0 0 -715z m263 -1897 c-1 -574 -2 -1406 -2 -1849 l-1 -806 -162
-5 c-90 -3 -164 -4 -165 -4 -2 1 -3 832 -4 1847 l-1 1844 83 6 c46 3 122 6
169 7 l85 2 -2 -1042z m-1 -3275 c3 -49 6 -742 7 -1540 l1 -1453 -22 -5 c-13
-2 -81 -14 -153 -25 -71 -11 -139 -23 -150 -25 -20 -4 -20 1 -18 1183 2 653 3
1357 3 1564 l0 377 83 4 c45 1 119 4 163 5 l81 2 5 -87z"/>
</g>
</svg>
