<?xml version="1.0" standalone="no"?>
<!DOCTYPE svg PUBLIC "-//W3C//DTD SVG 20010904//EN"
 "http://www.w3.org/TR/2001/REC-SVG-20010904/DTD/svg10.dtd">
<svg version="1.0" xmlns="http://www.w3.org/2000/svg"
 width="2550.000000pt" height="2700.000000pt" viewBox="0 0 2550.000000 2700.000000"
 preserveAspectRatio="xMidYMid meet">

<g transform="translate(0.000000,2700.000000) scale(0.100000,-0.100000)"
fill="#C5C3C1" stroke="none">
<path d="M8190 15643 c0 -602 -2 -699 -15 -713 -18 -20 -19 -42 -3 -58 9 -9 9
-17 -1 -36 -10 -18 -10 -29 -2 -45 7 -11 16 -21 21 -21 17 0 11 -48 -10 -82
-30 -50 -25 -67 10 -33 16 16 32 26 36 23 3 -3 -23 -34 -57 -69 -34 -34 -68
-78 -76 -97 -13 -32 -13 -39 3 -74 25 -57 50 -46 45 21 -2 35 15 91 28 91 4 0
17 -13 29 -30 21 -28 21 -32 8 -58 -8 -16 -26 -36 -40 -45 -14 -9 -37 -37 -52
-62 -31 -53 -26 -79 29 -148 33 -42 57 -97 57 -132 0 -10 -10 -29 -22 -42 -18
-19 -20 -27 -10 -48 9 -19 9 -31 0 -50 -9 -20 -8 -28 6 -43 15 -17 16 -71 16
-621 0 -543 -1 -604 -16 -627 -15 -21 -15 -28 -4 -50 11 -19 11 -27 2 -36 -18
-18 -14 -46 8 -60 26 -16 26 -54 0 -93 -11 -16 -20 -39 -20 -50 0 -16 5 -13
29 15 16 19 32 32 37 27 4 -4 -24 -40 -63 -80 -83 -85 -92 -111 -62 -169 20
-39 22 -40 35 -24 7 11 11 30 7 46 -5 29 13 100 26 100 11 0 51 -57 51 -73 0
-8 -26 -41 -59 -74 -84 -87 -86 -109 -17 -198 55 -70 70 -139 36 -170 -23 -20
-26 -45 -8 -63 9 -9 9 -17 -2 -36 -11 -22 -11 -29 4 -50 17 -27 17 -19 16
-1259 l0 -408 -40 -18 c-35 -16 -38 -20 -25 -31 26 -21 18 -59 -15 -78 -25
-14 -30 -23 -28 -47 l3 -30 145 0 c179 0 200 5 200 45 0 23 -6 33 -24 40 -33
12 -43 46 -20 71 20 22 20 21 -23 38 -18 8 -45 10 -62 6 -37 -8 -42 10 -6 19
l25 6 0 809 c0 753 1 812 18 840 14 26 15 34 4 52 -10 15 -11 24 -3 32 16 16
13 52 -4 67 -31 26 -11 124 35 165 48 43 61 95 35 145 -14 27 -13 32 6 70 27
51 20 90 -22 143 -17 21 -32 52 -34 69 -3 17 -11 41 -20 54 -20 31 -19 73 2
96 13 15 15 25 7 46 -6 18 -7 36 0 54 7 20 5 33 -7 52 -15 23 -17 82 -17 617
0 570 1 592 20 618 17 25 18 30 4 49 -12 17 -12 25 -2 42 11 16 10 25 -6 54
-28 52 -15 114 34 171 48 55 57 91 34 139 -17 35 -17 37 5 77 29 51 23 87 -24
145 -19 23 -33 48 -30 56 3 7 -4 31 -15 53 -24 48 -25 82 -3 107 14 15 15 24
6 47 -7 18 -7 34 -1 45 11 20 2 66 -12 66 -7 0 -10 247 -10 694 l0 694 -31 6
c-17 3 -47 6 -65 6 l-33 0 -1 -697z m110 -1052 c-1 -3 -10 -17 -21 -30 l-20
-25 -27 27 -26 26 24 26 24 25 23 -22 c13 -12 23 -24 23 -27z m60 -67 c11 -27
14 -94 5 -94 -7 0 -65 59 -65 66 0 10 35 53 43 54 4 0 12 -12 17 -26z m36 -31
c-11 -11 -19 6 -11 24 8 17 8 17 12 0 3 -10 2 -21 -1 -24z m-99 -75 l33 -32
-32 -33 c-18 -18 -36 -33 -42 -33 -6 0 -25 14 -43 32 l-33 32 32 33 c18 18 36
33 42 33 6 0 25 -14 43 -32z m-108 -111 c17 -19 21 -32 17 -62 -3 -21 -10 -43
-17 -49 -8 -8 -10 -5 -4 12 3 12 2 22 -3 22 -11 0 -32 53 -32 81 0 25 12 24
39 -4z m194 10 c4 3 7 -1 7 -10 0 -9 -9 -21 -20 -27 -11 -6 -23 -22 -26 -35
-8 -32 -18 -32 -33 1 -11 24 -9 30 15 55 19 20 31 26 39 19 7 -5 15 -7 18 -3z
m-104 -116 c14 -24 -18 -58 -37 -39 -15 15 -15 31 0 46 17 17 26 15 37 -7z m3
-1858 c24 -21 23 -45 -2 -68 -19 -17 -21 -17 -40 0 -24 22 -25 42 -3 67 20 22
22 22 45 1z m76 -90 c12 -24 22 -103 13 -103 -4 0 -20 13 -36 30 -26 27 -27
31 -15 60 14 34 25 38 38 13z m42 -25 c0 -16 -3 -19 -11 -11 -6 6 -8 16 -5 22
11 17 16 13 16 -11z m-103 -84 c40 -30 41 -40 6 -76 -33 -35 -39 -34 -83 2
l-34 30 34 35 c19 19 36 35 39 35 2 0 19 -11 38 -26z m-103 -123 c22 -23 26
-33 18 -47 -5 -11 -8 -24 -5 -30 2 -6 -4 -17 -13 -24 -13 -12 -15 -12 -13 1 1
7 -5 31 -14 51 -18 40 -22 78 -9 78 5 0 21 -13 36 -29z m189 16 c4 3 7 -1 7
-11 0 -9 -6 -19 -14 -22 -8 -3 -20 -19 -26 -35 -15 -36 -23 -36 -39 -3 -11 24
-9 30 15 55 19 20 31 26 39 19 7 -5 15 -7 18 -3z m-99 -120 c8 -13 6 -21 -7
-34 -16 -16 -18 -16 -33 -1 -13 13 -14 20 -4 37 13 24 28 24 44 -2z"/>
</g>
</svg>
