<?xml version="1.0" standalone="no"?>
<!DOCTYPE svg PUBLIC "-//W3C//DTD SVG 20010904//EN"
 "http://www.w3.org/TR/2001/REC-SVG-20010904/DTD/svg10.dtd">
<svg version="1.0" xmlns="http://www.w3.org/2000/svg"
 width="2550.000000pt" height="2700.000000pt" viewBox="0 0 2550.000000 2700.000000"
 preserveAspectRatio="xMidYMid meet">

<g transform="translate(0.000000,2700.000000) scale(0.100000,-0.100000)"
fill="#C5C3C1" stroke="none">
<path d="M10280 15555 c0 -626 -1 -648 -19 -672 -17 -20 -18 -29 -9 -49 9 -19
9 -30 0 -44 -9 -15 -7 -23 8 -43 26 -32 25 -61 -1 -97 -14 -18 -20 -37 -16
-50 4 -14 -4 -31 -23 -54 -48 -54 -53 -80 -29 -136 16 -37 18 -53 10 -68 -22
-42 -13 -85 28 -135 52 -62 64 -127 31 -161 -18 -21 -20 -27 -9 -44 10 -15 10
-27 2 -44 -9 -20 -7 -29 8 -49 18 -23 19 -52 19 -577 0 -534 -1 -555 -19 -579
-16 -19 -18 -29 -9 -47 7 -17 7 -29 -1 -44 -8 -16 -6 -25 9 -45 26 -32 25 -61
-1 -97 -14 -18 -20 -37 -16 -50 4 -14 -4 -31 -23 -54 -49 -55 -54 -82 -28
-135 22 -45 23 -47 6 -81 -22 -42 -17 -61 33 -123 39 -49 63 -132 42 -146 -22
-14 -31 -44 -20 -63 9 -14 9 -23 -1 -38 -11 -18 -10 -25 8 -49 19 -28 20 -42
20 -784 l0 -756 -26 -20 c-15 -12 -34 -21 -42 -21 -13 0 -13 -3 1 -18 23 -26
21 -47 -7 -69 -13 -11 -26 -30 -28 -43 -3 -22 2 -25 42 -33 45 -8 206 -3 248
9 32 9 31 57 -3 72 -26 12 -35 54 -15 67 6 3 10 10 10 14 0 12 -64 31 -87 25
-14 -4 -23 -2 -23 5 0 6 9 11 20 11 20 0 20 7 20 762 0 703 1 763 17 780 14
16 15 24 6 48 -7 18 -7 32 -2 36 14 9 10 41 -7 59 -25 25 -12 101 25 140 51
54 63 98 40 148 -9 19 -7 31 5 55 24 47 20 92 -13 138 -15 21 -31 55 -35 75
-4 21 -13 42 -21 49 -20 17 -19 52 3 89 13 23 14 35 6 48 -7 12 -8 25 0 45 8
22 7 31 -7 46 -16 17 -17 65 -17 569 0 507 1 554 18 582 13 23 14 35 6 48 -7
12 -8 25 0 45 8 22 7 31 -8 47 -27 30 -15 105 23 146 53 55 63 97 37 145 -13
22 -12 28 5 51 32 45 19 121 -25 158 -9 8 -16 25 -16 40 0 14 -9 41 -20 59
-24 40 -25 69 -3 94 14 15 15 24 7 46 -8 20 -7 33 0 45 8 13 7 25 -6 48 -17
28 -18 79 -18 670 l0 639 -32 0 c-18 0 -43 3 -55 6 l-23 6 0 -647z m90 -1005
c-20 -37 -35 -41 -60 -15 l-23 25 23 25 24 25 22 -21 c17 -16 21 -26 14 -39z
m-90 -54 c11 -22 10 -28 -11 -55 -32 -40 -39 -38 -39 8 0 72 24 94 50 47z
m150 5 c10 -20 14 -91 5 -91 -3 0 -18 14 -34 32 -27 31 -28 33 -12 55 20 28
27 28 41 4z m-57 -101 l31 -29 -29 -31 c-36 -37 -44 -37 -80 0 l-29 30 29 30
c16 17 33 30 37 30 5 0 23 -13 41 -30z m-86 -160 l-15 -21 -16 23 c-9 12 -16
36 -16 53 l0 30 31 -32 c30 -29 31 -32 16 -53z m133 9 c-15 -35 -21 -36 -38
-8 -12 19 -10 25 15 51 27 28 28 29 31 8 2 -12 -2 -35 -8 -51z m-70 -50 c15
-27 -5 -56 -26 -38 -17 14 -18 31 -2 47 16 16 15 16 28 -9z m25 -1749 c8 -13
-21 -60 -36 -60 -6 0 -19 10 -29 23 -18 21 -18 23 2 44 21 22 47 19 63 -7z
m-104 -137 c-14 -18 -29 -33 -33 -33 -12 0 -9 79 3 102 11 20 12 20 34 -8 l22
-28 -26 -33z m169 15 c0 -46 -11 -48 -40 -8 -20 28 -20 30 -4 56 17 25 18 25
31 8 7 -10 13 -35 13 -56z m-70 -50 c37 -27 37 -37 1 -72 l-29 -28 -36 28 -35
29 31 32 c18 18 33 33 35 33 2 0 17 -10 33 -22z m-92 -118 c21 -27 22 -32 9
-51 l-15 -20 -16 23 c-16 23 -22 78 -8 77 4 0 17 -13 30 -29z m143 -33 c-13
-32 -27 -35 -36 -6 -5 14 0 28 17 46 21 23 23 23 26 6 2 -11 -2 -31 -7 -46z
m-66 -57 c8 -24 -1 -40 -21 -40 -20 0 -29 27 -14 45 17 20 27 19 35 -5z"/>
</g>
</svg>
