<?xml version="1.0" standalone="no"?>
<!DOCTYPE svg PUBLIC "-//W3C//DTD SVG 20010904//EN"
 "http://www.w3.org/TR/2001/REC-SVG-20010904/DTD/svg10.dtd">
<svg version="1.0" xmlns="http://www.w3.org/2000/svg"
 width="2550.000000pt" height="2700.000000pt" viewBox="0 0 2550.000000 2700.000000"
 preserveAspectRatio="xMidYMid meet">

<g transform="translate(0.000000,2700.000000) scale(0.100000,-0.100000)"
fill="#C5C3C1" stroke="none">
<path d="M3436 13721 l-36 -49 0 -767 0 -767 -21 -30 c-21 -29 -21 -32 -6 -58
14 -24 15 -29 2 -46 -20 -27 -19 -39 11 -71 28 -30 28 -71 -1 -103 -8 -9 -15
-27 -15 -40 0 -22 1 -22 22 6 35 45 58 57 58 30 0 -8 -32 -43 -71 -78 -39 -35
-77 -75 -85 -90 -24 -46 -16 -96 24 -148 9 -12 26 39 26 80 1 27 9 58 20 74
l18 29 24 -29 c36 -45 28 -71 -47 -150 -97 -101 -100 -129 -23 -220 26 -30 44
-61 44 -76 0 -13 5 -29 11 -35 20 -20 15 -78 -9 -103 -25 -27 -27 -42 -10 -70
10 -16 10 -24 0 -40 -17 -28 -15 -44 8 -65 20 -18 20 -31 20 -712 0 -680 0
-694 -20 -715 -22 -24 -26 -43 -10 -53 6 -3 10 -17 10 -30 0 -13 -4 -27 -10
-30 -16 -10 -11 -43 8 -57 30 -21 34 -59 12 -96 -11 -18 -20 -42 -20 -55 0
-19 4 -17 31 16 17 20 35 37 40 37 25 0 1 -35 -76 -112 -96 -95 -102 -115 -64
-190 19 -38 22 -40 32 -22 6 10 11 42 12 69 0 33 7 61 19 80 l19 29 28 -34
c23 -27 26 -36 16 -48 -10 -12 -9 -16 2 -20 8 -3 -15 -33 -65 -83 -70 -71 -79
-83 -79 -117 0 -30 9 -49 45 -91 39 -46 45 -50 51 -33 8 21 29 39 29 25 0 -5
-7 -19 -16 -31 -11 -16 -14 -33 -9 -55 18 -88 17 -105 -4 -128 -24 -26 -26
-41 -9 -69 10 -15 9 -24 -2 -44 -11 -22 -11 -30 0 -51 7 -14 17 -25 22 -25 11
0 10 -2557 -1 -2579 -6 -10 -28 -26 -50 -36 -40 -17 -40 -18 -19 -35 28 -23
18 -66 -22 -88 -25 -14 -30 -23 -30 -54 l0 -38 63 -1 c34 0 83 -4 109 -8 37
-6 69 -2 143 17 l95 25 0 39 c0 25 -5 38 -13 38 -8 0 -24 11 -37 25 -20 21
-22 28 -12 50 6 14 16 25 22 25 20 0 0 18 -27 25 -16 3 -36 14 -45 22 -17 15
-18 89 -18 1290 l0 1274 22 30 c19 26 21 33 10 61 -9 24 -8 36 3 58 13 26 13
30 -10 54 -41 45 -28 117 36 196 20 25 41 55 48 67 16 31 14 89 -4 123 -14 28
-14 33 5 70 33 65 22 115 -41 188 -16 18 -29 39 -29 48 0 8 -9 32 -20 54 -21
41 -27 100 -10 100 5 0 16 12 24 27 12 24 12 30 -2 51 -14 21 -14 26 1 52 17
27 16 29 -8 58 l-25 30 0 682 c0 667 0 682 20 707 22 29 26 53 9 70 -8 8 -7
21 2 47 12 33 11 37 -10 60 -18 19 -22 32 -18 58 12 72 21 95 57 138 20 25 42
55 49 67 16 30 14 79 -5 115 -15 28 -14 33 6 80 28 65 21 101 -30 166 -22 27
-40 58 -40 68 0 11 -9 34 -20 52 -26 42 -26 86 0 112 22 22 26 50 9 67 -8 8
-7 21 2 47 12 33 11 38 -9 66 l-22 30 0 562 c0 310 0 674 0 811 l0 247 -39 0
c-35 0 -43 -5 -75 -49z m78 -1960 c17 -19 17 -21 0 -50 -23 -38 -37 -39 -63
-3 l-20 29 22 21 c26 27 39 28 61 3z m81 -101 c15 -30 21 -100 7 -100 -11 0
-62 57 -62 69 0 12 29 61 36 61 2 0 10 -13 19 -30z m55 -24 c0 -16 -18 -31
-27 -22 -8 8 5 36 17 36 5 0 10 -6 10 -14z m-84 -128 c7 -11 -63 -88 -80 -88
-6 0 -27 17 -48 37 l-38 37 42 43 41 42 38 -30 c22 -17 42 -35 45 -41z m-166
-103 c34 -35 34 -36 18 -62 -23 -38 -34 -39 -52 -4 -17 31 -22 101 -8 101 4 0
23 -16 42 -35z m244 1 c-4 -12 -19 -33 -35 -48 -16 -15 -29 -32 -29 -37 0 -20
-15 -11 -31 17 -15 26 -14 28 10 58 20 23 34 31 59 31 28 -1 31 -4 26 -21z
m-132 -121 c10 -22 9 -29 -10 -48 l-22 -21 -21 21 c-20 20 -20 22 -4 47 22 33
42 33 57 1z m-102 6 c0 -5 -7 -14 -15 -21 -16 -14 -18 -10 -9 14 6 17 24 22
24 7z m120 -2185 c0 -6 -9 -22 -20 -36 l-19 -25 -25 24 c-32 30 -32 38 -4 68
l22 23 23 -22 c13 -12 23 -26 23 -32z m69 -77 c13 -39 14 -89 2 -89 -5 0 -21
14 -35 32 -23 30 -24 34 -10 60 19 36 29 35 43 -3z m37 -46 c-11 -11 -19 6
-11 24 8 17 8 17 12 0 3 -10 2 -21 -1 -24z m-72 -92 c20 -22 20 -22 -20 -61
-21 -22 -44 -39 -49 -40 -6 0 -28 17 -49 39 l-38 39 43 40 c43 40 44 40 69 22
14 -10 34 -27 44 -39z m-160 -115 l37 -33 -18 -31 c-23 -41 -37 -40 -57 2 -17
36 -22 96 -7 96 5 0 25 -15 45 -34z m236 -10 c-6 -16 -19 -30 -30 -33 -11 -3
-22 -14 -25 -24 -8 -26 -19 -24 -35 6 -12 23 -11 28 15 55 16 17 35 28 42 26
7 -3 15 0 19 5 13 22 25 -8 14 -35z m-128 -111 c9 -21 8 -28 -7 -45 -17 -19
-19 -19 -37 -4 -22 21 -23 32 -1 56 22 24 31 23 45 -7z m58 15 c0 -5 -5 -10
-11 -10 -5 0 -7 5 -4 10 3 6 8 10 11 10 2 0 4 -4 4 -10z"/>
</g>
</svg>
