<?xml version="1.0" standalone="no"?>
<!DOCTYPE svg PUBLIC "-//W3C//DTD SVG 20010904//EN"
 "http://www.w3.org/TR/2001/REC-SVG-20010904/DTD/svg10.dtd">
<svg version="1.0" xmlns="http://www.w3.org/2000/svg"
 width="2550.000000pt" height="2700.000000pt" viewBox="0 0 2550.000000 2700.000000"
 preserveAspectRatio="xMidYMid meet">

<g transform="translate(0.000000,2700.000000) scale(0.100000,-0.100000)"
fill="#C5C3C1" stroke="none">
<path d="M14290 12370 c0 -704 -4 -1280 -8 -1280 -4 0 -16 -14 -26 -31 -16
-28 -17 -32 -2 -48 20 -22 20 -35 0 -66 -16 -24 -15 -27 10 -59 30 -40 35 -96
10 -117 -28 -23 -46 -70 -40 -102 5 -25 -1 -40 -35 -84 -65 -86 -69 -121 -21
-197 13 -21 21 -46 19 -55 -3 -9 -12 -34 -20 -55 -20 -53 -9 -84 53 -156 47
-55 52 -65 57 -120 5 -51 3 -64 -14 -83 -33 -36 -35 -46 -17 -75 15 -26 15
-31 0 -60 -15 -30 -15 -32 9 -60 l25 -30 0 -777 c0 -762 0 -777 -20 -802 -22
-28 -26 -58 -10 -68 6 -3 10 -17 10 -30 0 -13 -4 -27 -10 -30 -17 -10 -11 -51
10 -70 30 -27 26 -77 -11 -128 -26 -35 -30 -48 -25 -80 6 -35 2 -45 -39 -99
-59 -79 -61 -104 -14 -181 l29 -48 -20 -39 c-34 -66 -27 -97 35 -172 49 -60
56 -72 61 -126 6 -53 4 -63 -19 -97 -25 -37 -26 -39 -9 -67 13 -23 14 -32 4
-48 -17 -28 -15 -53 8 -78 20 -21 20 -35 20 -1080 l0 -1059 -22 -20 c-13 -11
-38 -28 -57 -38 -33 -17 -33 -17 -12 -32 33 -23 25 -72 -16 -98 -28 -17 -32
-26 -33 -61 l0 -41 143 -12 142 -12 70 29 c70 28 70 29 73 70 3 33 -1 44 -15
49 -53 19 -69 67 -33 103 l20 20 -25 10 c-15 6 -31 10 -36 10 -5 0 -18 9 -29
20 -19 19 -20 36 -20 1074 0 685 4 1057 10 1061 6 4 17 19 25 36 14 26 14 31
-1 55 -16 24 -16 27 0 55 18 30 16 40 -17 76 -16 18 -19 32 -15 72 4 42 12 58
47 96 45 49 80 116 81 153 0 12 -6 38 -14 56 -13 32 -12 38 10 82 39 77 29
138 -35 218 -20 25 -31 50 -31 70 0 18 -13 52 -30 79 -29 47 -42 117 -20 117
5 0 17 14 25 30 14 28 14 33 -1 59 -16 28 -16 31 0 56 17 26 17 28 -8 64 l-26
37 0 768 0 767 27 35 c26 35 26 36 9 64 -16 27 -16 32 -1 60 15 29 15 34 0 56
-8 13 -20 24 -25 24 -14 0 -12 91 3 116 6 12 31 45 54 73 57 69 70 120 48 178
-16 42 -16 44 9 95 14 29 26 62 26 75 0 34 -25 89 -60 133 -20 26 -30 49 -30
72 0 22 -11 51 -30 79 -29 43 -42 119 -21 119 5 0 16 12 26 26 16 25 16 28 0
58 -17 31 -17 34 0 60 18 26 17 28 -4 57 l-23 30 2 1275 1 1274 -81 0 -80 0 0
-1280z m125 -1720 l28 -29 -27 -36 c-15 -19 -30 -35 -35 -35 -4 0 -22 16 -41
35 l-34 35 29 30 c36 37 44 37 80 0z m96 -141 c7 -25 9 -58 5 -75 l-8 -29 -39
42 -39 43 26 40 c15 23 31 37 35 33 4 -4 13 -29 20 -54z m-217 17 c14 -19 26
-38 26 -42 0 -15 -80 -85 -90 -79 -14 8 -13 98 2 130 15 34 31 32 62 -9z m136
-138 l41 -41 -43 -44 c-23 -24 -45 -42 -49 -41 -4 2 -26 20 -49 41 l-42 39 43
44 c24 24 47 44 51 44 4 0 26 -19 48 -42z m-135 -148 c37 -37 38 -40 22 -58
-9 -10 -17 -24 -17 -31 0 -22 -23 -6 -42 29 -18 35 -25 100 -10 100 4 0 25
-18 47 -40z m199 -7 c-10 -39 -33 -83 -44 -83 -5 0 -13 12 -16 26 -5 19 0 32
22 55 35 36 46 37 38 2z m-101 -117 c8 -21 -3 -56 -18 -56 -24 0 -37 27 -25
49 12 24 35 28 43 7z m22 -2418 c30 -26 31 -41 4 -79 -27 -38 -42 -37 -75 6
l-27 36 28 29 c34 36 38 36 70 8z m-108 -137 l32 -38 -44 -43 c-60 -59 -79
-51 -73 29 4 58 19 91 42 91 6 0 25 -18 43 -39z m202 2 c15 -52 14 -103 -1
-102 -7 0 -25 15 -41 34 -27 33 -27 33 -10 69 23 46 39 45 52 -1z m-65 -135
c39 -45 39 -43 -13 -100 -14 -16 -30 -28 -35 -28 -6 0 -31 19 -54 41 l-44 41
43 44 c24 24 49 44 55 44 7 0 28 -19 48 -42z m-146 -148 c33 -40 33 -40 15
-70 -9 -17 -22 -29 -28 -27 -17 5 -45 70 -45 105 0 43 18 41 58 -8z m199 -2
c-2 -7 -10 -30 -18 -50 -15 -43 -34 -49 -42 -16 -5 16 1 31 20 50 28 29 48 37
40 16z m-102 -118 c9 -15 -6 -60 -20 -60 -25 0 -35 25 -19 48 16 24 29 28 39
12z"/>
</g>
</svg>
