<?xml version="1.0" standalone="no"?>
<!DOCTYPE svg PUBLIC "-//W3C//DTD SVG 20010904//EN"
 "http://www.w3.org/TR/2001/REC-SVG-20010904/DTD/svg10.dtd">
<svg version="1.0" xmlns="http://www.w3.org/2000/svg"
 width="2550.000000pt" height="2700.000000pt" viewBox="0 0 2550.000000 2700.000000"
 preserveAspectRatio="xMidYMid meet">

<g transform="translate(0.000000,2700.000000) scale(0.100000,-0.100000)"
fill="#C5C3C1" stroke="none">
<path d="M19923 23131 l-53 -49 0 -825 c0 -576 -3 -828 -11 -832 -21 -14 -27
-49 -13 -77 13 -24 12 -31 -1 -52 -17 -26 -11 -50 19 -76 25 -20 19 -62 -15
-109 -21 -28 -33 -58 -37 -89 -3 -29 -14 -58 -29 -76 -57 -68 -66 -138 -28
-210 19 -37 23 -51 15 -72 -24 -62 -4 -120 69 -208 44 -52 54 -102 25 -126
-29 -25 -35 -48 -20 -78 12 -24 12 -31 -1 -55 -13 -25 -12 -31 6 -61 21 -33
21 -45 21 -679 0 -625 -1 -647 -20 -679 -17 -30 -18 -36 -5 -61 12 -23 12 -32
0 -60 -13 -31 -12 -35 10 -63 30 -36 31 -60 2 -103 -42 -65 -47 -76 -47 -115
0 -27 -8 -48 -27 -70 -58 -69 -66 -126 -28 -199 23 -43 25 -51 14 -86 -18 -60
-4 -104 53 -172 39 -48 52 -71 56 -105 3 -28 1 -44 -6 -44 -7 0 -19 -14 -27
-31 -15 -28 -15 -33 0 -55 14 -21 14 -27 1 -52 -13 -26 -13 -32 5 -61 19 -31
19 -60 17 -1399 l-3 -1367 -42 -23 -43 -23 22 -29 c20 -27 20 -30 5 -54 -9
-13 -26 -27 -37 -31 -15 -5 -20 -15 -20 -45 0 -39 0 -39 43 -42 23 -2 111 -2
195 0 l152 3 0 37 c0 31 -5 40 -30 54 -34 19 -41 60 -14 89 14 16 12 19 -28
41 l-43 23 -3 1373 c-1 754 2 1372 6 1372 5 0 14 11 20 25 10 21 9 32 -3 54
-12 25 -12 31 0 47 20 27 19 38 -10 72 -16 20 -24 38 -21 54 3 12 5 33 5 46 1
12 18 41 39 65 78 85 87 115 55 181 -16 34 -16 36 12 77 46 70 44 103 -7 179
-35 51 -43 71 -38 90 9 32 -4 68 -36 101 -35 37 -37 76 -6 117 25 33 25 34 8
63 -16 27 -16 31 0 58 16 28 16 30 -5 59 -21 30 -21 31 -21 681 0 646 0 652
21 680 19 26 20 31 6 57 -14 26 -14 32 1 56 15 25 14 29 -12 66 -40 58 -31
109 35 186 56 66 67 97 50 140 -24 58 -23 65 14 124 l37 60 -18 33 c-9 19 -32
53 -49 76 -28 37 -32 48 -28 87 5 40 2 50 -27 86 -41 51 -43 76 -11 119 24 32
25 34 8 63 -16 28 -16 32 -1 58 16 26 16 29 -5 58 l-21 30 0 870 c0 784 -2
870 -16 876 -24 9 -26 9 -81 -43z m42 -2141 l29 -30 -36 -36 -35 -36 -28 36
-28 37 28 29 c16 17 32 30 35 30 3 0 19 -14 35 -30z m-112 -121 c17 -31 17
-32 -5 -65 -26 -39 -34 -42 -41 -15 -6 23 11 111 21 111 4 0 15 -14 25 -31z
m226 -17 c10 -34 11 -49 1 -72 -7 -17 -15 -30 -19 -30 -4 0 -24 18 -45 39
l-38 39 28 36 c16 20 36 35 44 34 8 -2 21 -22 29 -46z m-114 -112 l39 -40 -35
-37 c-18 -21 -35 -40 -37 -42 -3 -6 -82 70 -82 79 0 9 61 80 69 80 4 0 25 -18
46 -40z m80 -176 c-19 -50 -24 -52 -50 -24 -18 20 -18 21 21 61 46 47 56 34
29 -37z m-165 -23 l-1 -26 -19 24 c-11 13 -20 32 -20 44 0 19 1 20 20 2 11
-10 20 -30 20 -44z m74 -67 c7 -19 -2 -37 -15 -29 -12 8 -12 45 0 45 5 0 12
-7 15 -16z m18 -2118 l27 -33 -35 -34 -36 -34 -24 30 c-13 17 -24 34 -24 39 0
11 51 66 59 65 3 0 18 -15 33 -33z m-114 -122 l23 -35 -28 -34 c-34 -41 -39
-42 -46 -10 -5 29 11 115 21 115 4 0 17 -16 30 -36z m220 -9 c12 -36 7 -105
-7 -105 -4 0 -24 18 -45 39 l-38 39 28 36 c16 20 34 35 39 33 6 -2 16 -21 23
-42z m-101 -117 c18 -18 33 -37 33 -43 0 -11 -66 -75 -78 -75 -10 0 -72 63
-72 74 0 13 61 76 74 76 6 0 25 -14 43 -32z m68 -174 c-19 -49 -29 -54 -46
-23 -9 18 -6 26 22 55 40 41 48 30 24 -32z m-177 16 c20 -26 22 -60 2 -60 -7
0 -40 71 -40 85 0 13 17 1 38 -25z m87 -115 c0 -10 -6 -20 -12 -22 -8 -3 -13
5 -13 22 0 17 5 25 13 23 6 -3 12 -13 12 -23z"/>
</g>
</svg>
