<?xml version="1.0" standalone="no"?>
<!DOCTYPE svg PUBLIC "-//W3C//DTD SVG 20010904//EN"
 "http://www.w3.org/TR/2001/REC-SVG-20010904/DTD/svg10.dtd">
<svg version="1.0" xmlns="http://www.w3.org/2000/svg"
 width="2550.000000pt" height="2700.000000pt" viewBox="0 0 2550.000000 2700.000000"
 preserveAspectRatio="xMidYMid meet">

<g transform="translate(0.000000,2700.000000) scale(0.100000,-0.100000)"
fill="#C5C3C1" stroke="none">
<path d="M22132 25247 l-52 -53 0 -833 0 -833 -22 -31 c-21 -29 -21 -31 -5
-59 16 -28 16 -32 0 -58 -16 -28 -16 -30 10 -67 34 -49 34 -73 2 -111 -31 -37
-55 -93 -55 -126 0 -14 -13 -44 -29 -68 -16 -24 -32 -54 -36 -67 -13 -42 -6
-112 14 -146 15 -27 18 -45 14 -92 -7 -72 8 -108 71 -181 54 -63 59 -97 21
-138 -29 -31 -31 -42 -9 -72 14 -20 14 -25 -2 -51 -16 -28 -16 -30 5 -59 21
-30 21 -31 21 -696 l0 -667 -22 -30 c-21 -28 -22 -30 -5 -59 16 -27 17 -31 2
-54 -15 -22 -15 -27 -1 -55 9 -16 20 -33 26 -36 20 -12 9 -48 -30 -107 -29
-44 -40 -71 -40 -99 0 -27 -9 -52 -31 -83 -52 -73 -54 -152 -7 -218 15 -21 17
-32 8 -47 -15 -29 -12 -98 6 -133 9 -16 34 -50 56 -74 51 -56 59 -103 22 -147
-28 -34 -29 -40 -8 -72 14 -22 14 -26 -1 -49 -16 -24 -16 -28 4 -61 l21 -36 0
-1380 c0 -894 -3 -1387 -10 -1399 -5 -10 -26 -24 -45 -30 -38 -13 -43 -21 -20
-40 8 -7 15 -26 15 -42 0 -22 -7 -33 -30 -46 -22 -13 -30 -24 -30 -46 l0 -29
193 6 c105 4 193 7 195 7 1 0 2 9 2 20 0 12 -10 25 -24 31 -32 15 -49 54 -36
80 6 10 15 19 20 19 21 0 8 18 -21 30 -17 7 -37 19 -45 27 -12 12 -14 220 -14
1409 0 767 4 1394 8 1394 5 0 14 12 21 26 10 22 9 31 -4 50 -13 21 -14 28 -2
52 16 31 13 48 -16 79 -31 34 -18 103 31 160 77 92 83 113 52 188 -11 27 -10
35 20 83 44 69 42 96 -8 167 -39 54 -42 62 -36 105 6 44 4 49 -35 94 -28 32
-41 57 -41 77 0 16 4 29 10 29 5 0 16 12 24 28 12 24 12 31 0 55 -13 24 -13
31 1 57 15 29 15 33 -5 59 -20 29 -20 40 -20 700 0 369 4 671 8 671 5 0 14 12
21 26 9 21 8 31 -5 53 -15 26 -15 30 0 54 18 27 13 50 -21 89 -29 33 -9 99 53
173 59 72 64 94 37 150 l-17 37 37 68 c42 77 42 79 -18 165 -32 46 -41 65 -34
80 15 39 8 64 -31 110 -27 31 -40 56 -40 76 0 16 4 29 10 29 5 0 16 13 25 30
14 27 14 32 0 54 -15 22 -15 27 0 56 15 29 15 32 -5 59 -20 29 -20 39 -20 913
0 898 0 908 -35 908 -6 0 -34 -24 -63 -53z m37 -2187 l22 -31 -28 -34 c-35
-42 -44 -43 -66 -6 -22 38 -21 50 5 78 28 30 40 29 67 -7z m-99 -156 c0 -3
-11 -21 -25 -41 -20 -30 -25 -34 -31 -19 -7 18 1 101 12 118 5 8 44 -42 44
-58z m213 37 c20 -34 22 -79 3 -103 -19 -25 -27 -23 -71 22 l-39 40 34 35 c19
19 39 35 45 35 6 0 18 -13 28 -29z m-116 -139 l42 -37 -41 -43 -40 -44 -39 38
c-22 21 -39 41 -39 44 0 9 61 80 68 80 4 -1 26 -18 49 -38z m103 -125 c0 -25
-32 -89 -47 -94 -5 -2 -15 8 -23 22 -13 24 -11 28 20 60 40 41 50 43 50 12z
m-180 -74 c0 -22 -20 -14 -30 13 -14 36 -13 39 10 19 11 -10 20 -24 20 -32z
m70 -79 c0 -8 -4 -12 -10 -9 -5 3 -10 10 -10 16 0 5 5 9 10 9 6 0 10 -7 10
-16z m12 -2141 c35 -34 35 -42 -2 -78 -34 -33 -50 -29 -78 17 -16 27 -15 28
13 58 16 16 31 30 34 30 3 0 18 -12 33 -27z m113 -123 c18 -34 20 -83 4 -112
-10 -19 -13 -18 -54 22 l-44 43 31 38 c17 22 35 39 39 39 5 0 15 -13 24 -30z
m-223 -11 c18 -30 17 -31 -8 -65 -15 -19 -30 -34 -35 -34 -12 0 -11 72 1 104
12 34 21 33 42 -5z m114 -130 l42 -41 -40 -40 -39 -39 -39 33 c-21 18 -39 37
-39 42 -1 10 58 86 67 86 3 0 25 -18 48 -41z m90 -141 c-7 -36 -32 -78 -46
-78 -5 0 -13 12 -16 26 -5 19 0 32 22 55 36 38 48 37 40 -3z m-176 -59 c0 -10
-4 -19 -8 -19 -11 0 -32 46 -32 68 1 25 40 -24 40 -49z m75 -77 c0 -18 -20
-15 -23 4 -3 10 1 15 10 12 7 -3 13 -10 13 -16z"/>
</g>
</svg>
