<?xml version="1.0" standalone="no"?>
<!DOCTYPE svg PUBLIC "-//W3C//DTD SVG 20010904//EN"
 "http://www.w3.org/TR/2001/REC-SVG-20010904/DTD/svg10.dtd">
<svg version="1.0" xmlns="http://www.w3.org/2000/svg"
 width="2550.000000pt" height="2700.000000pt" viewBox="0 0 2550.000000 2700.000000"
 preserveAspectRatio="xMidYMid meet">

<g transform="translate(0.000000,2700.000000) scale(0.100000,-0.100000)"
fill="#C5C3C1" stroke="none">
<path d="M23272 26337 l-52 -53 0 -842 c0 -829 0 -843 -20 -864 -23 -25 -25
-50 -8 -78 10 -16 10 -24 0 -40 -17 -28 -15 -54 8 -83 27 -34 25 -73 -6 -114
-31 -41 -54 -95 -54 -127 0 -14 -14 -46 -32 -72 -43 -64 -50 -144 -19 -204 17
-33 20 -51 15 -94 -8 -65 16 -124 75 -189 47 -51 54 -94 21 -129 -23 -25 -25
-50 -8 -78 10 -16 10 -24 0 -40 -17 -28 -15 -48 8 -80 20 -28 20 -42 19 -695
0 -645 -1 -668 -20 -688 -22 -24 -24 -45 -7 -82 9 -19 9 -28 0 -37 -18 -18
-14 -52 8 -81 29 -37 25 -70 -16 -127 -25 -35 -38 -66 -42 -97 -3 -26 -19 -69
-38 -101 -43 -71 -46 -135 -10 -196 22 -37 23 -46 13 -83 -15 -59 3 -110 63
-176 41 -45 50 -61 50 -91 0 -23 -8 -45 -20 -58 -23 -25 -25 -50 -8 -78 10
-16 10 -24 0 -40 -17 -28 -15 -53 7 -82 19 -24 20 -50 20 -923 0 -499 -4 -906
-9 -915 -5 -9 -27 -25 -50 -35 l-40 -18 22 -24 c18 -19 20 -28 12 -51 -5 -15
-22 -33 -37 -40 -17 -8 -27 -20 -25 -30 3 -15 18 -16 123 -14 66 1 153 5 194
8 l73 7 -31 24 c-34 27 -41 62 -16 83 23 19 19 28 -24 49 -21 11 -41 27 -45
36 -3 9 -6 420 -6 913 0 875 1 898 20 922 21 27 26 55 10 65 -5 3 -10 17 -10
30 0 13 5 27 10 30 16 10 12 40 -10 68 -31 39 -27 104 9 153 15 21 38 47 49
58 12 10 26 33 32 52 9 27 8 41 -8 77 l-20 44 34 54 c18 30 34 66 34 81 0 16
-19 54 -45 92 -40 60 -43 68 -34 96 14 38 0 76 -42 116 -35 33 -38 74 -9 111
23 29 25 54 8 71 -9 9 -8 21 2 51 11 36 11 42 -9 69 -21 30 -21 32 -21 697 0
652 0 667 20 692 23 29 25 54 8 71 -9 9 -8 21 2 51 11 36 11 42 -9 69 -14 21
-21 45 -21 79 0 44 5 53 54 110 30 35 57 71 61 82 3 11 -3 41 -15 69 l-21 49
35 59 c20 32 36 68 36 79 0 11 -21 50 -46 87 -44 64 -45 69 -33 101 11 31 10
39 -10 71 -13 20 -31 41 -42 46 -14 8 -19 22 -19 50 0 22 4 40 8 40 5 0 15 11
22 24 10 20 10 31 0 55 -10 25 -10 37 0 61 11 26 9 34 -9 65 -21 36 -21 38
-21 924 0 876 -1 911 -30 911 -3 0 -29 -24 -58 -53z m30 -2211 l27 -33 -38
-37 -38 -37 -22 27 c-11 15 -21 34 -21 42 0 15 48 73 59 71 3 0 18 -15 33 -33z
m-117 -128 c15 -30 14 -35 -2 -65 -35 -65 -56 -26 -32 60 5 20 12 37 14 37 2
0 11 -15 20 -32z m227 15 c8 -10 18 -29 21 -42 6 -26 -16 -91 -31 -91 -5 0
-29 18 -53 39 l-44 39 34 36 c39 41 51 44 73 19z m-115 -151 l41 -37 -39 -45
-39 -45 -40 41 -41 40 31 42 c16 23 33 42 38 42 4 -1 26 -18 49 -38z m103
-129 c0 -16 -9 -43 -21 -62 -19 -32 -21 -33 -40 -16 -25 23 -25 24 12 68 36
44 49 47 49 10z m-177 -80 c-5 -14 -8 -13 -20 3 -7 10 -13 24 -13 32 0 12 4
12 19 -2 11 -10 17 -25 14 -33z m72 -62 c3 -5 1 -12 -5 -16 -5 -3 -10 1 -10 9
0 18 6 21 15 7z m27 -2194 c8 -16 3 -26 -23 -53 -31 -32 -34 -33 -52 -16 -40
36 -41 52 -6 88 31 32 34 33 52 16 10 -9 23 -25 29 -35z m110 -136 c2 -43 -2
-65 -15 -79 -11 -10 -21 -5 -57 28 l-44 40 40 41 39 40 18 -22 c9 -11 18 -33
19 -48z m-239 23 c17 -35 17 -35 -10 -70 -27 -36 -43 -32 -43 11 0 28 20 95
28 95 4 0 15 -16 25 -36z m116 -131 l41 -38 -41 -43 -41 -44 -39 38 c-22 21
-39 41 -39 46 0 10 60 78 70 78 4 0 26 -17 49 -37z m75 -184 c-20 -46 -30 -48
-46 -14 -10 23 -8 29 23 61 32 33 34 34 37 13 2 -12 -4 -39 -14 -60z m-154
-16 c0 -19 -27 -16 -33 5 -2 9 -8 26 -12 37 -7 18 -5 17 18 -4 15 -14 27 -30
27 -38z m65 -91 c-8 -9 -25 20 -18 31 3 5 10 2 15 -7 6 -10 7 -20 3 -24z"/>
</g>
</svg>
