<?xml version="1.0" standalone="no"?>
<!DOCTYPE svg PUBLIC "-//W3C//DTD SVG 20010904//EN"
 "http://www.w3.org/TR/2001/REC-SVG-20010904/DTD/svg10.dtd">
<svg version="1.0" xmlns="http://www.w3.org/2000/svg"
 width="2550.000000pt" height="2700.000000pt" viewBox="0 0 2550.000000 2700.000000"
 preserveAspectRatio="xMidYMid meet">

<g transform="translate(0.000000,2700.000000) scale(0.100000,-0.100000)"
fill="#C5C3C1" stroke="none">
<path d="M24370 26344 l0 -656 -22 -31 c-21 -29 -21 -31 -5 -60 16 -27 16 -32
1 -54 -13 -21 -14 -30 -4 -54 7 -15 18 -33 26 -40 18 -15 7 -65 -22 -105 -30
-39 -54 -96 -54 -128 0 -14 -14 -47 -31 -75 -45 -71 -49 -132 -16 -204 20 -45
24 -63 17 -92 -14 -62 13 -127 83 -202 37 -39 40 -79 9 -118 -25 -32 -26 -41
-8 -75 12 -21 12 -28 -1 -51 -15 -25 -15 -29 5 -64 22 -36 22 -38 22 -711 l0
-675 -22 -30 c-21 -28 -21 -30 -5 -58 16 -27 16 -31 0 -59 -16 -28 -16 -30 7
-68 31 -49 27 -84 -15 -140 -33 -43 -53 -103 -41 -122 3 -5 -3 -21 -14 -35
-32 -40 -60 -109 -60 -147 0 -19 11 -59 25 -89 21 -44 24 -60 16 -87 -17 -61
6 -118 79 -198 43 -48 46 -85 9 -135 -22 -30 -22 -33 -7 -58 14 -24 14 -30 1
-59 -15 -30 -14 -34 6 -62 l21 -30 0 -1414 c0 -1335 -1 -1416 -17 -1430 -10
-8 -31 -20 -47 -26 -27 -12 -27 -14 -12 -31 26 -28 20 -67 -14 -93 -16 -12
-30 -29 -30 -38 0 -14 15 -16 123 -13 67 2 155 6 196 9 l73 6 -30 18 c-17 10
-33 28 -37 39 -7 22 9 61 25 61 23 0 7 18 -29 35 -22 10 -42 24 -46 32 -3 9
-5 650 -5 1425 0 1240 2 1412 15 1431 18 26 19 59 3 75 -9 9 -9 18 0 37 17 36
15 56 -8 85 -12 15 -20 41 -20 66 0 44 11 63 83 142 34 38 38 49 34 80 -2 20
-10 51 -17 68 -12 29 -11 34 19 77 50 74 50 92 -4 172 -44 64 -47 71 -37 103
13 41 6 58 -44 115 -39 43 -44 85 -14 112 22 20 26 65 8 83 -10 10 -10 17 0
32 16 26 15 61 -3 84 -13 17 -15 117 -15 697 0 625 1 680 17 708 15 25 16 35
6 62 -8 21 -9 38 -3 50 15 27 12 54 -10 82 -22 28 -26 86 -9 120 7 12 34 48
60 80 52 63 60 92 34 137 -22 38 -18 56 20 113 19 28 35 61 35 73 0 12 -21 50
-47 85 -45 61 -46 64 -35 103 12 47 2 74 -47 120 -36 35 -41 74 -11 101 22 20
27 64 9 82 -8 8 -7 21 2 48 12 32 11 40 -4 67 -16 27 -17 83 -17 694 l0 664
-75 0 -75 0 0 -656z m83 -1137 l25 -33 -35 -38 c-38 -41 -51 -39 -73 15 -12
28 -11 32 15 59 16 17 32 30 36 30 4 0 18 -15 32 -33z m116 -113 c27 -35 28
-95 2 -119 -19 -17 -22 -16 -65 20 -26 21 -46 40 -46 43 0 9 73 82 81 82 4 0
17 -12 28 -26z m-229 -24 c11 -26 9 -34 -11 -67 l-24 -38 -3 44 c-4 50 4 91
17 91 5 0 14 -13 21 -30z m109 -131 l45 -40 -42 -42 -42 -41 -35 34 c-19 19
-35 40 -35 48 0 15 48 82 59 82 3 -1 26 -19 50 -41z m111 -119 c0 -25 -37
-100 -49 -100 -4 0 -16 9 -25 19 -17 19 -17 21 15 60 37 45 59 52 59 21z
m-192 -62 c14 -14 16 -42 2 -33 -14 9 -32 45 -22 45 4 0 13 -5 20 -12z m95
-2292 l26 -33 -33 -32 c-17 -17 -37 -31 -43 -31 -6 0 -21 16 -33 36 l-22 35
28 30 c36 37 46 37 77 -5z m111 -108 c21 -30 20 -97 -1 -120 -16 -18 -18 -17
-60 24 l-43 42 37 38 c20 21 40 38 44 38 5 0 15 -10 23 -22z m-231 -19 c17
-30 17 -32 -4 -65 -11 -19 -25 -34 -30 -34 -10 0 -12 89 -3 114 9 23 17 20 37
-15z m120 -211 c-20 -21 -42 -38 -47 -38 -12 0 -76 61 -76 72 0 4 16 26 37 48
l36 41 44 -43 43 -42 -37 -38z m97 -45 c0 -9 -10 -36 -21 -60 -20 -42 -22 -43
-40 -27 -26 23 -24 33 13 71 36 37 48 41 48 16z m-194 -50 c15 -20 18 -43 6
-43 -8 0 -32 43 -32 55 0 11 14 4 26 -12z m84 -109 c0 -8 -4 -12 -10 -9 -5 3
-10 10 -10 16 0 5 5 9 10 9 6 0 10 -7 10 -16z"/>
</g>
</svg>
