<?xml version="1.0" standalone="no"?>
<!DOCTYPE svg PUBLIC "-//W3C//DTD SVG 20010904//EN"
 "http://www.w3.org/TR/2001/REC-SVG-20010904/DTD/svg10.dtd">
<svg version="1.0" xmlns="http://www.w3.org/2000/svg"
 width="2550.000000pt" height="2700.000000pt" viewBox="0 0 2550.000000 2700.000000"
 preserveAspectRatio="xMidYMid meet">

<g transform="translate(0.000000,2700.000000) scale(0.100000,-0.100000)"
fill="#C5C3C1" stroke="none">
<path d="M12837 13653 c-4 -3 -7 -568 -7 -1255 1 -1239 0 -1249 -20 -1278 -24
-34 -25 -48 -4 -71 15 -17 15 -20 0 -43 -22 -34 -20 -50 9 -77 35 -34 33 -77
-6 -125 -25 -32 -30 -46 -26 -75 4 -30 -1 -44 -30 -80 -73 -92 -77 -117 -33
-195 l31 -53 -21 -40 c-33 -66 -27 -90 42 -173 36 -43 68 -119 68 -162 0 -10
-11 -31 -25 -48 -29 -34 -31 -54 -9 -79 15 -16 15 -20 0 -41 -21 -30 -20 -47
4 -73 19 -20 20 -38 20 -788 l1 -767 -22 -31 c-22 -31 -22 -32 -4 -64 16 -31
16 -35 1 -56 -22 -32 -20 -43 9 -70 35 -34 33 -77 -6 -125 -26 -33 -30 -45
-25 -76 5 -32 1 -43 -38 -95 -62 -82 -65 -100 -25 -172 l33 -60 -23 -50 c-30
-62 -25 -80 38 -154 27 -32 52 -73 55 -90 19 -91 19 -95 -10 -132 -28 -37 -28
-38 -11 -67 16 -28 16 -33 2 -54 -20 -30 -19 -36 6 -68 20 -26 21 -28 20
-1066 0 -664 -4 -1046 -10 -1058 -5 -10 -28 -27 -51 -37 l-40 -18 20 -22 c11
-12 20 -30 20 -41 0 -22 -39 -64 -59 -64 -8 0 -11 -15 -9 -47 3 -41 6 -47 28
-48 14 -1 75 -5 137 -10 103 -7 116 -6 178 16 49 17 70 30 76 47 11 28 1 72
-15 72 -17 0 -56 43 -56 62 0 8 9 23 20 33 27 24 25 32 -7 40 -16 3 -38 13
-50 21 l-23 14 0 1046 c0 1031 0 1046 20 1071 23 29 25 54 8 71 -9 9 -8 21 2
52 13 39 12 41 -15 70 -25 26 -27 33 -21 74 5 34 19 59 51 97 71 83 91 147 66
212 -7 18 -3 41 15 91 l24 66 -19 50 c-10 27 -33 67 -50 89 -18 23 -31 51 -31
67 0 16 -14 52 -30 79 -36 61 -37 77 -5 119 26 35 32 61 15 71 -5 3 -10 17
-10 30 0 13 5 27 10 30 16 10 12 40 -10 68 -20 25 -20 40 -20 789 0 742 1 764
20 788 21 27 26 55 10 65 -5 3 -10 17 -10 30 0 13 5 27 10 30 17 10 11 36 -15
71 -41 54 -29 103 50 202 36 45 51 57 53 44 2 -9 7 -21 11 -25 12 -12 -14 146
-28 171 -10 20 -10 26 2 40 9 9 21 47 27 84 13 74 10 85 -46 155 -24 29 -34
52 -34 76 0 20 -10 50 -26 72 -39 57 -42 95 -10 124 28 26 34 59 14 79 -9 9
-9 20 1 48 11 30 11 41 0 60 -7 13 -16 24 -21 24 -4 0 -8 567 -8 1260 l0 1260
-73 0 c-41 0 -77 -3 -80 -7z m118 -2943 l28 -29 -24 -36 c-13 -19 -29 -35 -35
-35 -12 0 -64 52 -64 65 0 10 51 65 60 65 3 0 19 -13 35 -30z m-111 -126 l29
-35 -46 -47 -46 -46 -11 29 c-11 30 -8 57 12 108 14 35 27 33 62 -9z m205 5
c13 -37 15 -106 3 -113 -4 -2 -23 14 -41 36 -28 34 -32 43 -22 57 6 9 14 24
17 34 10 27 31 20 43 -14z m-74 -139 l39 -40 -44 -45 -43 -44 -41 36 c-23 20
-43 41 -45 46 -4 11 69 87 84 87 6 0 29 -18 50 -40z m-137 -150 c33 -39 33
-39 15 -64 -10 -14 -22 -26 -26 -26 -11 0 -47 81 -47 108 0 32 20 26 58 -18z
m199 -6 c-3 -20 -14 -48 -23 -62 l-17 -25 -14 27 c-14 27 -13 30 18 62 18 19
35 34 37 34 3 0 2 -16 -1 -36z m-102 -114 c7 -22 -2 -60 -14 -60 -4 0 -15 8
-24 18 -15 16 -15 20 -1 40 19 27 31 28 39 2z m22 -2382 c29 -27 29 -50 -1
-85 l-24 -28 -31 29 c-37 35 -37 39 -10 77 24 35 35 36 66 7z m89 -123 c15
-36 19 -115 7 -115 -10 0 -63 66 -63 79 0 10 33 71 38 71 2 0 10 -16 18 -35z
m-192 -11 l29 -35 -47 -47 c-46 -46 -47 -46 -62 -27 -26 34 4 146 39 144 6 0
25 -16 41 -35z m130 -126 c20 -23 36 -44 36 -48 0 -3 -19 -25 -43 -48 l-43
-42 -44 45 -44 45 44 45 c24 25 47 45 51 45 4 0 24 -19 43 -42z m-140 -147
l38 -39 -21 -31 c-12 -17 -26 -31 -31 -31 -15 0 -50 77 -50 110 0 41 18 38 64
-9z m196 -6 c0 -24 -28 -85 -39 -85 -22 0 -22 40 0 70 25 33 39 38 39 15z
m-100 -132 c0 -16 -4 -34 -9 -42 -8 -12 -12 -12 -26 3 -15 15 -16 21 -5 42 18
33 40 31 40 -3z"/>
<path d="M13111 7274 c0 -11 3 -14 6 -6 3 7 2 16 -1 19 -3 4 -6 -2 -5 -13z"/>
</g>
</svg>
