<?xml version="1.0" standalone="no"?>
<!DOCTYPE svg PUBLIC "-//W3C//DTD SVG 20010904//EN"
 "http://www.w3.org/TR/2001/REC-SVG-20010904/DTD/svg10.dtd">
<svg version="1.0" xmlns="http://www.w3.org/2000/svg"
 width="2550.000000pt" height="2700.000000pt" viewBox="0 0 2550.000000 2700.000000"
 preserveAspectRatio="xMidYMid meet">

<g transform="translate(0.000000,2700.000000) scale(0.100000,-0.100000)"
fill="#C5C3C1" stroke="none">
<path d="M13280 13683 l-30 -47 0 -843 c0 -830 0 -844 -20 -865 -23 -25 -25
-46 -8 -83 9 -19 9 -28 0 -37 -18 -18 -14 -52 8 -76 28 -30 26 -80 -5 -122
-23 -31 -35 -90 -17 -90 4 0 20 18 35 40 16 22 32 40 37 40 20 0 -6 -38 -70
-105 -110 -115 -118 -137 -78 -220 25 -51 31 -54 51 -24 12 16 12 28 4 54 -8
27 -6 44 7 80 10 25 21 45 24 45 15 0 62 -70 62 -92 0 -16 -21 -44 -61 -83
-109 -107 -115 -149 -39 -240 71 -85 91 -173 50 -217 -23 -25 -25 -50 -8 -78
10 -16 10 -24 0 -40 -17 -29 -15 -54 8 -75 20 -18 20 -31 20 -772 0 -740 0
-754 -20 -775 -23 -25 -25 -50 -8 -78 10 -16 10 -24 0 -40 -17 -28 -15 -53 8
-78 28 -29 26 -77 -5 -114 -24 -28 -36 -98 -17 -98 4 0 20 18 35 40 30 42 47
51 47 24 0 -8 -32 -46 -71 -82 -77 -73 -109 -118 -109 -151 0 -24 46 -121 58
-121 17 0 32 41 22 60 -15 27 -12 76 5 110 20 38 34 38 66 -3 39 -48 30 -85
-34 -143 -115 -103 -122 -139 -47 -229 27 -33 54 -76 60 -95 12 -42 13 -120 2
-120 -5 0 -14 -11 -21 -24 -11 -19 -11 -30 0 -60 10 -28 10 -39 1 -48 -17 -17
-15 -42 8 -71 20 -25 20 -40 20 -1420 0 -1315 -1 -1395 -17 -1409 -10 -9 -33
-23 -51 -32 l-32 -17 21 -28 c17 -23 18 -32 9 -53 -7 -13 -24 -32 -39 -41 -23
-14 -28 -23 -27 -54 l1 -38 135 -12 134 -11 76 27 75 27 3 42 c2 33 0 42 -13
42 -9 0 -27 11 -40 24 -22 22 -23 28 -14 55 6 17 15 31 20 31 23 0 5 20 -28
30 -21 7 -44 19 -50 28 -10 12 -13 309 -13 1404 l0 1389 22 30 c20 26 21 33 9
64 -9 25 -9 40 -2 54 16 29 13 49 -10 72 -18 18 -21 30 -17 75 4 46 10 59 47
99 67 73 83 127 60 204 -9 32 -8 43 10 76 36 68 26 131 -36 213 -13 18 -26 49
-28 68 -2 19 -15 52 -29 73 -31 45 -34 94 -6 123 23 25 25 50 8 78 -10 16 -10
24 0 40 17 29 15 54 -8 75 -20 18 -20 31 -20 769 0 730 1 752 20 776 23 29 25
52 8 80 -10 16 -10 24 0 40 17 29 15 54 -8 75 -39 35 -20 135 35 185 59 54 80
136 50 193 -14 27 -13 32 10 71 35 60 34 118 -4 178 -16 25 -34 49 -40 52 -6
4 -11 24 -11 45 0 26 -10 52 -30 82 -28 41 -41 109 -22 109 4 0 16 13 25 30
17 28 17 31 1 56 -16 24 -16 27 0 55 18 30 13 53 -19 79 -14 11 -15 74 -15
559 0 300 0 700 0 889 l0 342 -45 0 c-43 0 -47 -2 -75 -47z m86 -2168 l26 -24
-22 -36 c-26 -43 -40 -44 -68 -5 -27 36 -27 38 0 67 27 29 31 29 64 -2z m92
-117 c12 -40 22 -115 15 -121 -2 -3 -22 14 -44 38 l-40 43 22 36 c26 44 35 45
47 4z m44 -20 c-9 -9 -12 -7 -12 12 0 19 3 21 12 12 9 -9 9 -15 0 -24z m-117
-118 l39 -40 -39 -40 c-21 -22 -44 -40 -50 -40 -6 0 -29 18 -50 41 l-40 41 45
39 c25 21 47 39 50 39 3 0 24 -18 45 -40z m-111 -190 c-3 -8 -9 -21 -12 -29
-4 -10 -1 -13 11 -8 14 5 13 1 -5 -23 -27 -36 -30 -37 -22 -5 3 14 2 25 -3 25
-15 0 -43 68 -43 102 l0 32 40 -39 c26 -25 38 -45 34 -55z m216 61 c-1 -15
-19 -33 -27 -28 -10 7 -33 -34 -33 -58 0 -27 -19 -25 -34 2 -13 26 -12 30 13
59 18 22 35 31 54 31 15 0 27 -3 27 -6z m-142 -150 c5 -33 -14 -49 -34 -29
-13 13 -14 20 -4 37 14 27 34 23 38 -8z m19 -2323 c29 -27 29 -45 0 -81 l-22
-28 -34 35 -34 35 24 30 c29 36 36 37 66 9z m91 -131 c20 -65 23 -114 7 -127
-13 -11 -14 -10 -9 3 3 10 -7 31 -26 55 l-31 39 17 36 c20 41 28 40 42 -6z
m47 4 c3 -5 1 -12 -5 -16 -5 -3 -10 1 -10 9 0 18 6 21 15 7z m-113 -128 c21
-20 38 -42 38 -48 0 -6 -18 -29 -40 -50 l-40 -39 -37 34 c-21 19 -42 38 -48
43 -8 6 70 97 84 97 3 0 22 -17 43 -37z m-140 -140 c21 -20 38 -42 38 -48 -1
-19 -39 -57 -51 -50 -26 17 -54 135 -32 135 4 0 24 -17 45 -37z m238 2 c0 -9
-11 -20 -24 -25 -18 -6 -27 -20 -32 -44 -6 -35 -30 -68 -31 -43 0 6 -3 23 -7
37 -9 37 33 81 87 89 4 0 7 -6 7 -14z m-230 -135 c-6 -11 -13 -20 -16 -20 -2
0 0 9 6 20 6 11 13 20 16 20 2 0 0 -9 -6 -20z m94 5 c3 -8 1 -27 -5 -41 -9
-26 -10 -26 -29 -9 -19 17 -18 25 3 53 13 16 24 15 31 -3z"/>
</g>
</svg>
