<?xml version="1.0" standalone="no"?>
<!DOCTYPE svg PUBLIC "-//W3C//DTD SVG 20010904//EN"
 "http://www.w3.org/TR/2001/REC-SVG-20010904/DTD/svg10.dtd">
<svg version="1.0" xmlns="http://www.w3.org/2000/svg"
 width="2550.000000pt" height="2700.000000pt" viewBox="0 0 2550.000000 2700.000000"
 preserveAspectRatio="xMidYMid meet">

<g transform="translate(0.000000,2700.000000) scale(0.100000,-0.100000)"
fill="#C5C3C1" stroke="none">
<path d="M13646 14656 l-26 -45 0 -821 0 -822 -22 -30 c-19 -27 -20 -34 -9
-64 9 -24 9 -39 2 -53 -16 -29 -13 -49 9 -71 28 -28 25 -76 -5 -116 -17 -22
-25 -45 -25 -71 l1 -38 29 33 c17 18 30 29 30 25 -1 -5 -30 -39 -66 -78 -38
-41 -69 -86 -76 -108 -10 -35 -9 -44 16 -95 l28 -57 18 22 c14 18 16 29 8 60
-11 41 8 118 28 118 6 0 24 -15 39 -33 21 -25 25 -36 16 -45 -6 -6 -11 -19
-11 -28 0 -9 -20 -35 -45 -58 -51 -47 -85 -103 -85 -141 0 -27 15 -53 73 -123
33 -39 40 -56 44 -104 5 -50 2 -61 -16 -77 -24 -22 -27 -47 -9 -76 10 -16 10
-24 0 -40 -17 -29 -15 -54 8 -75 20 -18 20 -31 20 -753 l0 -734 -25 -30 c-25
-29 -25 -30 -8 -59 16 -27 16 -31 0 -58 -17 -29 -17 -30 8 -59 32 -38 32 -76
-1 -124 -25 -36 -34 -81 -20 -95 4 -4 20 9 36 28 16 19 29 31 30 27 0 -4 -32
-42 -70 -85 -41 -45 -75 -92 -81 -114 -10 -33 -9 -42 16 -88 16 -28 32 -51 36
-51 17 0 30 40 19 59 -21 40 1 141 30 141 19 0 62 -69 55 -87 -5 -10 -7 -22
-6 -26 1 -5 -28 -40 -63 -78 -98 -103 -98 -128 -5 -239 31 -37 40 -57 45 -102
6 -49 4 -60 -15 -84 -24 -31 -26 -46 -9 -74 10 -16 10 -24 0 -40 -17 -29 -15
-54 8 -75 20 -18 20 -31 20 -905 0 -989 7 -896 -69 -935 l-33 -17 23 -24 c22
-23 22 -27 9 -52 -9 -15 -26 -31 -38 -37 -18 -8 -22 -18 -22 -52 l0 -43 43 -1
c23 0 82 -4 130 -7 74 -6 100 -4 160 14 70 21 72 22 75 56 3 31 -1 38 -32 56
-41 24 -48 62 -20 94 16 17 15 19 -22 34 -21 9 -42 21 -46 28 -4 6 -8 409 -8
894 l0 884 21 30 c21 29 21 31 5 59 -16 26 -16 31 -2 51 21 29 21 31 -10 68
-23 27 -26 37 -20 78 4 32 15 56 35 77 77 80 100 153 69 220 -10 21 -8 31 9
63 20 36 26 63 24 108 -1 12 -19 49 -41 82 -24 36 -40 71 -40 89 0 17 -13 50
-30 74 -35 51 -38 89 -10 114 28 26 33 51 15 79 -15 23 -15 27 1 51 16 25 16
27 -5 55 l-21 29 0 736 c0 722 0 736 20 757 21 23 26 53 10 63 -5 3 -10 17
-10 30 0 13 5 27 10 30 16 10 12 40 -9 62 -18 19 -25 49 -22 99 1 11 23 48 50
82 66 82 76 116 56 176 -16 46 -15 48 10 100 33 68 28 105 -26 177 -28 38 -39
63 -39 88 0 23 -11 52 -30 80 -36 54 -37 70 -5 107 28 33 31 51 10 78 -13 17
-13 22 0 42 20 30 19 44 -5 74 -19 24 -20 47 -20 893 l0 867 -49 0 c-47 0 -50
-1 -75 -44z m87 -2124 l27 -28 -29 -34 -30 -35 -32 32 -33 33 29 30 c16 16 32
30 35 30 3 0 18 -13 33 -28z m96 -144 c8 -30 11 -63 7 -73 -6 -17 -12 -13 -45
25 l-38 44 21 32 c12 18 26 32 31 30 6 -1 16 -27 24 -58z m-49 -142 c0 -12
-61 -76 -73 -76 -14 0 -87 63 -87 76 0 6 18 28 41 49 l41 37 39 -38 c21 -21
39 -43 39 -48z m-161 -99 c29 -31 31 -36 20 -60 -7 -15 -18 -27 -25 -27 -13 0
-44 69 -44 100 0 28 11 25 49 -13z m201 11 c0 -22 -32 -98 -42 -98 -4 0 -14
11 -20 25 -10 22 -8 29 17 55 31 32 45 38 45 18z m-105 -149 c0 -15 -7 -25
-18 -27 -22 -4 -33 24 -17 43 18 21 35 13 35 -16z m19 -2275 c28 -25 29 -27
13 -52 -28 -48 -45 -51 -78 -13 l-31 33 28 29 c15 16 30 29 33 29 3 0 19 -12
35 -26z m85 -101 c5 -10 12 -44 16 -76 8 -66 -1 -68 -49 -11 l-29 35 19 34
c21 39 29 43 43 18z m-67 -140 c21 -20 38 -42 38 -48 0 -6 -18 -29 -40 -50
l-40 -39 -45 44 -45 44 42 43 c23 24 44 43 47 43 3 0 22 -17 43 -37z m-113
-215 c-11 -15 -24 -26 -29 -23 -16 10 -40 74 -40 106 l0 33 45 -44 44 -43 -20
-29z m175 60 c-3 -13 -13 -39 -21 -58 l-14 -35 -15 28 c-14 26 -13 30 8 57 28
36 52 40 42 8z m-96 -124 c1 -10 -2 -26 -8 -34 -8 -13 -11 -13 -26 1 -13 14
-14 21 -4 38 13 26 34 23 38 -5z"/>
</g>
</svg>
