<?xml version="1.0" standalone="no"?>
<!DOCTYPE svg PUBLIC "-//W3C//DTD SVG 20010904//EN"
 "http://www.w3.org/TR/2001/REC-SVG-20010904/DTD/svg10.dtd">
<svg version="1.0" xmlns="http://www.w3.org/2000/svg"
 width="2550.000000pt" height="2700.000000pt" viewBox="0 0 2550.000000 2700.000000"
 preserveAspectRatio="xMidYMid meet">

<g transform="translate(0.000000,2700.000000) scale(0.100000,-0.100000)"
fill="#C5C3C1" stroke="none">
<path d="M14176 15415 c-3 -9 -6 -347 -6 -751 l0 -735 -22 -30 c-21 -28 -21
-31 -5 -58 14 -25 15 -30 2 -47 -20 -27 -19 -38 11 -73 30 -36 28 -62 -12
-120 -21 -31 -33 -91 -19 -91 3 0 17 12 30 28 13 15 25 24 25 19 0 -4 -24 -34
-54 -66 -91 -99 -103 -139 -65 -214 28 -54 27 -54 43 -31 10 13 12 35 9 71 -5
50 10 113 27 113 4 0 18 -16 32 -36 25 -35 25 -35 7 -72 -10 -20 -32 -50 -50
-67 -46 -42 -69 -84 -69 -125 0 -37 12 -59 66 -124 21 -24 38 -59 45 -93 12
-52 12 -54 -14 -81 -28 -29 -35 -56 -17 -67 13 -8 13 -41 -2 -64 -9 -15 -7
-24 10 -49 l22 -30 0 -717 0 -717 -22 -31 c-20 -28 -21 -32 -6 -58 14 -24 14
-30 2 -46 -19 -25 -17 -46 6 -71 28 -30 26 -80 -5 -122 -23 -31 -35 -90 -18
-90 4 0 20 12 37 28 38 34 14 0 -32 -47 -56 -56 -92 -112 -92 -143 0 -29 32
-102 49 -113 19 -11 31 30 19 68 -9 29 -8 44 6 82 10 25 21 45 26 45 17 0 62
-71 54 -88 -4 -9 -6 -22 -5 -28 0 -6 -19 -30 -44 -53 -57 -53 -85 -97 -85
-136 0 -30 13 -53 73 -128 41 -52 48 -132 16 -176 -20 -27 -21 -35 -11 -51 7
-11 12 -27 12 -35 0 -8 -5 -24 -12 -35 -10 -16 -9 -24 10 -49 l22 -30 0 -1341
0 -1341 -31 -17 c-63 -35 -65 -38 -46 -56 32 -33 15 -81 -35 -99 -11 -4 -16
-16 -15 -44 l2 -38 114 -7 c63 -4 120 -9 126 -12 7 -2 43 6 81 18 l69 23 3 41
c2 31 -1 42 -11 42 -40 0 -61 68 -31 101 14 16 13 18 -20 29 -19 6 -39 17 -45
24 -8 9 -11 412 -11 1350 l0 1336 21 29 c20 27 20 30 4 54 -15 23 -15 28 -1
56 15 28 15 31 -10 61 -38 45 -29 105 25 166 69 78 86 136 56 194 -14 26 -13
31 11 75 36 63 30 116 -20 183 -22 30 -36 61 -36 79 0 16 -13 50 -30 76 -37
58 -37 79 -4 122 25 33 25 35 9 63 -17 27 -17 30 0 56 17 26 17 28 -4 56 l-21
29 0 717 0 716 22 31 c21 29 21 31 5 59 -15 27 -15 32 -2 51 21 30 19 40 -11
70 -39 39 -28 99 30 171 24 29 49 62 55 74 16 29 14 78 -4 113 -15 28 -14 32
10 73 38 64 34 110 -15 179 -28 38 -40 66 -40 89 0 20 -11 49 -27 72 -35 53
-37 83 -7 119 28 33 29 44 9 71 -13 17 -12 22 2 47 15 26 15 29 -3 56 -18 27
-19 60 -24 778 l-5 750 -66 3 c-54 2 -68 0 -73 -13z m124 -1939 c0 -14 -41
-56 -56 -56 -7 0 -22 14 -35 31 l-21 30 28 30 28 29 28 -27 c15 -15 28 -31 28
-37z m68 -73 c14 -37 22 -112 13 -118 -4 -2 -25 13 -45 34 l-38 39 24 36 c12
20 26 36 29 36 4 0 11 -12 17 -27z m-73 -133 l39 -40 -41 -42 -42 -41 -40 34
c-21 19 -40 38 -40 44 -1 10 69 85 79 85 3 0 24 -18 45 -40z m-127 -143 c29
-30 31 -35 20 -60 -7 -15 -16 -27 -19 -27 -8 0 -35 57 -43 93 -8 36 3 34 42
-6z m202 11 c0 -7 -10 -33 -21 -58 -19 -43 -21 -44 -35 -26 -19 26 -18 33 9
66 23 30 47 39 47 18z m-105 -129 c4 -13 2 -27 -7 -36 -13 -12 -16 -12 -27 1
-9 11 -10 20 -1 35 14 27 27 27 35 0z m20 -2239 l28 -29 -28 -36 -27 -37 -34
33 c-34 33 -35 39 -1 77 26 28 28 28 62 -8z m83 -107 c14 -38 22 -112 12 -118
-4 -2 -22 14 -40 36 l-32 41 18 34 c22 41 28 42 42 7z m-63 -134 l37 -41 -38
-39 c-21 -21 -43 -39 -48 -39 -6 0 -27 17 -48 37 l-38 37 42 43 c23 24 45 43
49 43 4 0 23 -18 44 -41z m-105 -178 c-1 -23 -27 -54 -39 -47 -16 10 -44 94
-37 112 6 15 12 13 41 -16 19 -19 35 -41 35 -49z m164 32 c-8 -32 -32 -83 -40
-83 -2 0 -9 12 -15 27 -8 22 -6 30 18 55 34 35 45 36 37 1z m-96 -122 c5 -33
-14 -49 -34 -29 -13 13 -14 19 -2 37 16 26 32 22 36 -8z"/>
</g>
</svg>
