<?xml version="1.0" standalone="no"?>
<!DOCTYPE svg PUBLIC "-//W3C//DTD SVG 20010904//EN"
 "http://www.w3.org/TR/2001/REC-SVG-20010904/DTD/svg10.dtd">
<svg version="1.0" xmlns="http://www.w3.org/2000/svg"
 width="2550.000000pt" height="2700.000000pt" viewBox="0 0 2550.000000 2700.000000"
 preserveAspectRatio="xMidYMid meet">

<g transform="translate(0.000000,2700.000000) scale(0.100000,-0.100000)"
fill="#C5C3C1" stroke="none">
<path d="M16751 20096 l-51 -52 0 -798 c0 -790 0 -798 -21 -827 -18 -26 -19
-33 -8 -64 10 -27 10 -38 1 -47 -17 -17 -15 -39 8 -68 28 -36 24 -78 -10 -129
-20 -29 -30 -55 -28 -75 1 -22 -9 -45 -35 -79 -48 -64 -53 -123 -15 -186 18
-29 20 -38 10 -65 -15 -41 -15 -91 0 -119 6 -12 31 -44 55 -72 37 -42 43 -56
43 -93 0 -29 -7 -54 -21 -73 -18 -26 -19 -34 -9 -59 10 -24 10 -36 0 -60 -10
-25 -9 -33 9 -59 21 -29 21 -35 21 -660 0 -618 0 -632 -20 -653 -23 -25 -25
-46 -6 -71 12 -16 12 -22 -2 -46 -15 -26 -14 -30 6 -58 26 -36 29 -95 6 -114
-26 -22 -46 -70 -41 -99 5 -20 -2 -36 -24 -63 -63 -77 -69 -123 -23 -202 20
-36 21 -43 9 -65 -17 -30 -19 -84 -4 -112 6 -12 31 -46 55 -75 39 -47 44 -60
44 -103 0 -28 -4 -50 -9 -50 -5 0 -14 -14 -21 -31 -10 -22 -10 -33 -1 -42 14
-14 14 -42 -1 -67 -10 -16 -9 -24 10 -49 l22 -30 0 -861 0 -861 -31 -17 c-64
-36 -66 -38 -46 -59 27 -31 21 -61 -16 -83 -30 -18 -32 -23 -29 -60 l4 -40
107 -1 c160 -2 164 -2 225 5 l56 7 0 45 c0 30 -4 44 -13 44 -20 0 -47 33 -47
58 0 12 10 26 21 33 21 11 19 13 -27 38 l-49 26 -3 863 -2 863 22 30 c19 25
20 33 10 49 -15 24 -16 57 -2 65 16 10 11 40 -10 63 -33 35 -27 100 13 151 68
90 77 105 77 133 0 16 -7 45 -15 64 -14 34 -13 38 6 65 30 42 41 91 29 123 -5
15 -25 47 -45 72 -26 35 -33 52 -29 73 6 30 -13 78 -40 100 -23 19 -20 77 4
103 24 26 25 46 5 72 -13 17 -13 23 1 44 13 20 14 29 4 53 -7 16 -16 29 -21
29 -5 0 -9 279 -9 640 0 361 4 640 9 640 5 0 14 13 21 29 10 24 9 33 -4 53
-14 22 -14 26 0 47 13 18 14 27 4 52 -7 16 -16 29 -21 29 -5 0 -9 22 -9 49 0
49 2 53 78 152 36 47 40 84 16 131 -15 29 -15 33 16 93 37 73 35 85 -18 159
-29 39 -36 59 -37 97 -1 39 -7 55 -28 77 -33 34 -36 83 -7 114 21 23 26 53 10
63 -14 8 -13 48 1 62 9 9 9 20 -1 42 -7 17 -16 31 -21 31 -5 0 -10 375 -11
851 l-3 852 -21 8 c-17 6 -31 -2 -73 -45z m49 -2081 c20 -21 21 -27 9 -42 -41
-53 -50 -54 -79 -14 l-21 30 23 24 c30 32 40 32 68 2z m-107 -116 c17 -31 17
-31 -13 -66 -36 -40 -47 -28 -36 39 11 68 22 74 49 27z m206 0 c13 -37 14 -79
3 -96 -6 -9 -19 -1 -47 27 l-39 40 29 30 c16 16 32 30 36 30 4 0 12 -14 18
-31z m-96 -127 l37 -38 -37 -36 -38 -37 -37 35 c-21 19 -38 37 -38 41 0 9 62
73 70 73 3 0 23 -17 43 -38z m72 -168 c-19 -50 -25 -53 -43 -23 -12 19 -10 25
20 56 39 40 47 29 23 -33z m-179 19 c19 -27 22 -63 4 -63 -7 0 -40 71 -40 85
0 14 18 2 36 -22z m89 -118 c0 -10 -6 -20 -12 -22 -8 -3 -13 5 -13 22 0 17 5
25 13 23 6 -3 12 -13 12 -23z m16 -2051 l28 -27 -26 -34 -26 -34 -29 27 c-34
33 -34 41 -6 71 27 29 26 29 59 -3z m-105 -117 l22 -33 -34 -36 c-34 -38 -44
-34 -44 16 0 28 19 86 28 86 4 0 17 -15 28 -33z m203 2 c12 -36 15 -92 4 -103
-6 -6 -73 60 -73 72 0 7 45 61 52 61 3 1 11 -13 17 -30z m-86 -127 l37 -38
-40 -39 -40 -39 -35 34 c-19 19 -35 38 -35 44 0 11 60 76 70 76 3 0 23 -17 43
-38z m-98 -191 c-10 -31 -21 -26 -39 19 -24 60 -20 68 15 34 23 -24 29 -37 24
-53z m170 57 c-21 -76 -38 -95 -50 -58 -4 12 2 30 16 50 27 35 43 39 34 8z
m-100 -133 c0 -10 -6 -20 -12 -22 -8 -3 -13 5 -13 22 0 17 5 25 13 23 6 -3 12
-13 12 -23z"/>
</g>
</svg>
