<?xml version="1.0" standalone="no"?>
<!DOCTYPE svg PUBLIC "-//W3C//DTD SVG 20010904//EN"
 "http://www.w3.org/TR/2001/REC-SVG-20010904/DTD/svg10.dtd">
<svg version="1.0" xmlns="http://www.w3.org/2000/svg"
 width="2644.000000pt" height="2800.000000pt" viewBox="0 0 2644.000000 2800.000000"
 preserveAspectRatio="xMidYMid meet">

<g transform="translate(0.000000,2800.000000) scale(0.100000,-0.100000)"
fill="#C5C3C1" stroke="none">
<path d="M8910 17150 l0 -160 -65 0 -65 0 0 -2380 0 -2380 65 0 65 0 -2 -172
-3 -172 -36 -21 c-34 -19 -35 -21 -22 -41 17 -26 1 -70 -29 -79 -13 -5 -18
-16 -18 -41 l0 -34 123 0 c67 0 146 3 175 6 51 7 52 7 52 40 0 22 -5 34 -13
34 -18 0 -47 32 -47 53 0 8 7 22 15 31 14 14 12 17 -25 36 l-40 20 0 174 0
174 31 6 c17 3 44 6 60 6 l29 0 0 2360 0 2359 -57 3 -58 3 -5 165 -5 165 -62
3 -63 3 0 -161z m74 -266 l46 -7 -2 -2271 -3 -2271 -57 -3 -58 -3 0 2281 c0
1916 2 2280 14 2280 7 0 34 -3 60 -6z"/>
</g>
</svg>
