<?xml version="1.0" standalone="no"?>
<!DOCTYPE svg PUBLIC "-//W3C//DTD SVG 20010904//EN"
 "http://www.w3.org/TR/2001/REC-SVG-20010904/DTD/svg10.dtd">
<svg version="1.0" xmlns="http://www.w3.org/2000/svg"
 width="2644.000000pt" height="2800.000000pt" viewBox="0 0 2644.000000 2800.000000"
 preserveAspectRatio="xMidYMid meet">

<g transform="translate(0.000000,2800.000000) scale(0.100000,-0.100000)"
fill="#C5C3C1" stroke="none">
<path d="M5168 15556 l-78 -110 0 -358 0 -358 -80 0 -80 0 0 -87 c0 -49 0
-1257 -1 -2687 0 -1429 3 -2601 6 -2605 4 -3 40 -5 81 -5 l74 1 0 -763 c0
-843 5 -780 -65 -805 -33 -12 -47 -29 -25 -29 6 0 15 -11 21 -24 14 -30 -2
-63 -36 -72 -22 -5 -25 -12 -25 -49 l0 -42 128 -8 c105 -5 141 -3 202 11 41
10 78 23 82 28 15 21 8 66 -9 73 -49 17 -69 67 -38 93 22 19 19 25 -22 39 -21
8 -41 19 -45 25 -4 6 -8 358 -8 783 0 726 1 772 18 777 9 2 37 7 62 11 25 4
53 9 63 11 16 5 17 141 17 2665 l0 2659 -80 0 -80 0 -2 468 -3 467 -77 -109z
m82 -3495 l0 -2559 -37 -5 c-21 -3 -54 -9 -73 -14 -19 -5 -41 -8 -47 -6 -10 4
-13 527 -13 2574 l0 2569 85 0 85 0 0 -2559z"/>
</g>
</svg>
