<?xml version="1.0" standalone="no"?>
<!DOCTYPE svg PUBLIC "-//W3C//DTD SVG 20010904//EN"
 "http://www.w3.org/TR/2001/REC-SVG-20010904/DTD/svg10.dtd">
<svg version="1.0" xmlns="http://www.w3.org/2000/svg"
 width="2644.000000pt" height="2800.000000pt" viewBox="0 0 2644.000000 2800.000000"
 preserveAspectRatio="xMidYMid meet">

<g transform="translate(0.000000,2800.000000) scale(0.100000,-0.100000)"
fill="#C5C3C1" stroke="none">
<path d="M15900 13961 c-6 -13 -10 -255 -10 -714 0 -624 -2 -695 -16 -701 -9
-3 -38 -6 -65 -6 l-49 0 0 -3180 0 -3180 49 0 c27 0 56 -3 65 -6 14 -6 16 -93
16 -876 -1 -753 -3 -874 -16 -899 -8 -16 -18 -29 -22 -29 -4 0 -22 -9 -41 -21
l-33 -20 21 -23 c32 -34 27 -62 -19 -94 -38 -25 -40 -30 -37 -72 l2 -45 159
-14 160 -13 62 31 c59 29 62 33 66 72 4 40 -10 69 -32 69 -17 0 -40 32 -40 56
0 13 9 33 21 45 11 11 19 22 17 23 -1 2 -23 11 -48 20 -25 10 -48 23 -52 29
-4 7 -8 422 -8 923 l0 910 65 25 65 24 0 3136 0 3135 -62 0 -63 -1 -3 708 -2
707 -70 0 c-58 0 -71 -3 -80 -19z m110 -4545 l0 -3004 -37 -15 c-21 -8 -39
-14 -40 -13 -6 5 -3 6017 2 6026 3 6 22 10 41 10 l34 0 0 -3004z"/>
</g>
</svg>
