<?xml version="1.0" standalone="no"?>
<!DOCTYPE svg PUBLIC "-//W3C//DTD SVG 20010904//EN"
 "http://www.w3.org/TR/2001/REC-SVG-20010904/DTD/svg10.dtd">
<svg version="1.0" xmlns="http://www.w3.org/2000/svg"
 width="2644.000000pt" height="2800.000000pt" viewBox="0 0 2644.000000 2800.000000"
 preserveAspectRatio="xMidYMid meet">

<g transform="translate(0.000000,2800.000000) scale(0.100000,-0.100000)"
fill="#C5C3C1" stroke="none">
<path d="M20457 27142 l-57 -58 0 -557 c0 -364 -3 -557 -10 -558 -5 -1 -13 -2
-17 -3 -5 -1 -53 -5 -108 -10 -55 -4 -112 -9 -128 -12 l-27 -6 2 -2941 3
-2942 143 2 142 2 -2 -372 -3 -372 -48 -24 c-46 -23 -47 -24 -27 -38 31 -22
26 -68 -10 -95 -16 -12 -30 -31 -30 -41 0 -19 5 -20 98 -14 53 4 143 7 200 7
56 0 102 3 102 8 -1 4 -15 16 -33 27 -39 25 -46 59 -18 89 l21 22 -45 22 c-28
13 -47 30 -50 44 -3 13 -4 185 -3 383 l3 360 115 3 c63 1 130 5 148 8 l32 5 0
2949 0 2949 -21 12 c-20 10 -103 8 -232 -7 l-48 -6 1 597 c1 586 -1 625 -29
625 -4 0 -32 -26 -64 -58z m243 -4122 l0 -2820 -47 0 c-52 0 -206 -7 -320 -15
l-73 -5 0 2814 0 2814 88 7 c48 4 116 11 152 15 36 4 95 8 133 9 l67 1 0
-2820z"/>
</g>
</svg>
