<?xml version="1.0" standalone="no"?>
<!DOCTYPE svg PUBLIC "-//W3C//DTD SVG 20010904//EN"
 "http://www.w3.org/TR/2001/REC-SVG-20010904/DTD/svg10.dtd">
<svg version="1.0" xmlns="http://www.w3.org/2000/svg"
 width="2644.000000pt" height="2800.000000pt" viewBox="0 0 2644.000000 2800.000000"
 preserveAspectRatio="xMidYMid meet">

<g transform="translate(0.000000,2800.000000) scale(0.100000,-0.100000)"
fill="#C5C3C1" stroke="none">
<path d="M23730 25640 l0 -2360 26 -6 c14 -4 84 -4 155 0 l129 7 -2 -873 -3
-873 -35 -17 c-19 -10 -39 -20 -45 -22 -6 -1 -3 -12 7 -22 32 -37 27 -80 -12
-102 -16 -9 -30 -21 -30 -25 0 -8 187 -2 299 9 39 4 50 9 42 17 -17 17 -13 49
10 73 l21 22 -32 17 c-17 9 -40 25 -51 36 -19 19 -19 40 -19 894 0 771 2 875
15 876 8 1 18 2 23 3 4 1 66 6 139 10 l131 8 4 41 c3 23 4 1077 4 2342 l-1
2300 -75 3 -75 3 2 -2275 1 -2275 -31 -5 c-34 -6 -365 -26 -417 -26 l-30 0 0
2290 0 2290 -75 0 -75 0 0 -2360z"/>
</g>
</svg>
