<?xml version="1.0" standalone="no"?>
<!DOCTYPE svg PUBLIC "-//W3C//DTD SVG 20010904//EN"
 "http://www.w3.org/TR/2001/REC-SVG-20010904/DTD/svg10.dtd">
<svg version="1.0" xmlns="http://www.w3.org/2000/svg"
 width="2644.000000pt" height="2800.000000pt" viewBox="0 0 2644.000000 2800.000000"
 preserveAspectRatio="xMidYMid meet">

<g transform="translate(0.000000,2800.000000) scale(0.100000,-0.100000)"
fill="#C5C3C1" stroke="none">
<path d="M14787 13952 l-27 -28 -2 -684 -3 -685 -106 4 c-58 2 -125 0 -148 -4
l-41 -7 0 -3143 0 -3144 43 -5 c23 -3 89 -9 147 -13 l105 -8 2 -910 c1 -680
-2 -914 -10 -926 -7 -8 -31 -26 -54 -39 -41 -22 -55 -40 -33 -40 16 0 32 -41
26 -66 -4 -14 -22 -34 -41 -46 -31 -18 -35 -24 -35 -63 l0 -44 53 -5 c28 -4
101 -11 160 -16 l108 -10 70 35 69 35 0 46 c0 41 -3 46 -30 56 -53 18 -65 64
-27 102 l23 23 -47 18 c-32 11 -51 24 -55 38 -9 29 -12 1779 -2 1792 4 7 47 8
126 2 76 -5 129 -4 145 2 l27 11 0 3159 0 3160 -152 3 -153 3 0 710 0 710 -55
3 c-50 3 -58 0 -83 -26z m150 -1532 l123 0 0 -3025 0 -3025 -27 0 c-23 1 -402
28 -410 29 -7 2 -2 6019 4 6025 5 5 48 6 97 2 49 -3 145 -6 213 -6z"/>
</g>
</svg>
