<?xml version="1.0" standalone="no"?>
<!DOCTYPE svg PUBLIC "-//W3C//DTD SVG 20010904//EN"
 "http://www.w3.org/TR/2001/REC-SVG-20010904/DTD/svg10.dtd">
<svg version="1.0" xmlns="http://www.w3.org/2000/svg"
 width="2644.000000pt" height="2800.000000pt" viewBox="0 0 2644.000000 2800.000000"
 preserveAspectRatio="xMidYMid meet">

<g transform="translate(0.000000,2800.000000) scale(0.100000,-0.100000)"
fill="#C5C3C1" stroke="none">
<path d="M14265 13960 c-4 -12 -7 -323 -7 -693 0 -434 -4 -676 -10 -684 -6 -8
-34 -13 -69 -13 l-59 0 0 -3130 0 -3130 64 0 c53 0 66 -3 70 -17 3 -10 5 -400
4 -868 -2 -944 4 -879 -71 -916 l-39 -20 21 -23 c37 -39 21 -85 -37 -107 -22
-9 -24 -13 -18 -51 4 -23 9 -45 12 -48 3 -2 69 -10 147 -17 l142 -12 73 31 72
31 0 48 c0 37 -4 49 -15 49 -23 0 -55 37 -55 63 0 13 9 33 21 45 l20 23 -35
14 c-19 8 -38 15 -42 15 -32 0 -33 26 -34 932 l0 896 70 33 70 32 0 3073 0
3073 -67 3 -68 3 -3 693 -2 692 -74 0 c-66 0 -75 -2 -81 -20z m125 -4460 l0
-2960 -36 -15 c-20 -8 -43 -15 -50 -15 -12 0 -14 454 -14 2969 l0 2970 43 4
c23 2 45 4 50 5 4 1 7 -1330 7 -2958z"/>
</g>
</svg>
