<?xml version="1.0" standalone="no"?>
<!DOCTYPE svg PUBLIC "-//W3C//DTD SVG 20010904//EN"
 "http://www.w3.org/TR/2001/REC-SVG-20010904/DTD/svg10.dtd">
<svg version="1.0" xmlns="http://www.w3.org/2000/svg"
 width="3542.000000pt" height="3750.000000pt" viewBox="0 0 3542.000000 3750.000000"
 preserveAspectRatio="xMidYMid meet">

<g transform="translate(0.000000,3750.000000) scale(0.100000,-0.100000)"
fill="#3a4548" stroke="none">
<path d="M16457 18672 l-27 -3 0 -1220 c1 -1211 0 -1219 -20 -1241 -23 -25
-25 -55 -5 -82 12 -16 12 -22 0 -47 -8 -15 -15 -36 -15 -46 1 -22 23 -53 39
-53 18 0 13 -77 -9 -117 -11 -20 -17 -46 -15 -57 4 -15 -9 -38 -45 -79 -27
-32 -55 -76 -61 -98 -11 -36 -10 -44 18 -98 l30 -59 -28 -48 c-45 -78 -40
-105 38 -205 28 -36 43 -65 43 -85 0 -16 9 -44 20 -62 28 -45 26 -95 -5 -128
-25 -27 -33 -68 -15 -79 6 -3 10 -17 10 -30 0 -13 -4 -27 -10 -30 -17 -10 -11
-50 10 -73 20 -21 20 -32 20 -867 l0 -846 -25 -37 c-23 -33 -23 -38 -10 -59
19 -29 19 -48 -1 -78 -14 -22 -14 -26 2 -55 10 -16 24 -30 31 -30 20 0 16 -65
-6 -108 -11 -21 -17 -49 -15 -62 4 -19 -7 -39 -41 -80 -81 -95 -86 -127 -35
-218 l22 -39 -32 -57 c-41 -73 -37 -96 35 -188 43 -55 54 -75 49 -94 -4 -15 1
-37 15 -59 29 -49 27 -98 -4 -129 -29 -29 -31 -47 -9 -81 15 -23 15 -27 0 -50
-22 -34 -20 -55 8 -88 l24 -28 0 -1067 c0 -851 -2 -1071 -12 -1084 -7 -10 -34
-27 -59 -38 -46 -21 -46 -21 -27 -40 29 -29 26 -74 -6 -99 -15 -12 -33 -21
-41 -21 -11 0 -13 -12 -11 -47 l3 -47 110 -19 c106 -19 114 -19 228 -3 65 9
125 20 133 23 9 3 14 20 14 48 0 37 -4 45 -22 51 -58 17 -77 75 -38 114 l20
20 -46 21 c-26 11 -53 27 -60 37 -20 26 -19 2161 1 2168 7 3 19 19 26 36 10
25 10 34 -5 59 -16 28 -16 32 -2 54 22 33 20 48 -10 80 -21 23 -25 35 -21 69
7 61 42 146 75 186 67 81 83 159 49 236 -18 39 -18 43 -2 75 23 43 23 125 2
166 -10 18 -30 47 -46 65 -55 63 -106 238 -70 238 34 0 50 70 24 104 -13 17
-13 22 0 42 20 31 19 54 -5 84 -19 24 -20 47 -20 873 0 834 0 848 20 869 23
25 25 55 5 82 -12 16 -12 22 0 47 21 39 19 52 -10 83 -31 33 -33 82 -5 133 11
21 20 48 20 60 0 13 16 40 35 61 40 45 74 115 75 153 0 14 -11 47 -24 73 l-24
48 24 51 c13 29 24 61 24 72 -1 30 -35 101 -71 144 -55 65 -103 241 -66 241 8
0 20 14 27 31 11 27 11 35 -4 60 -16 28 -16 32 -2 54 21 32 20 57 -4 83 -20
21 -20 35 -20 1247 l0 1226 -67 -3 c-38 -2 -80 -4 -96 -6z m113 -2892 c8 -16
7 -27 -7 -50 -22 -38 -36 -38 -63 0 l-21 29 22 30 c18 24 26 28 40 20 10 -5
23 -18 29 -29z m107 -185 c7 -57 -4 -58 -49 -2 l-35 42 20 39 20 39 19 -37
c10 -19 21 -56 25 -81z m-229 75 c12 -16 22 -33 22 -39 0 -5 -18 -29 -40 -53
-33 -36 -41 -41 -50 -28 -19 27 13 150 38 150 5 0 18 -13 30 -30z m140 -143
c23 -23 42 -47 42 -53 0 -5 -20 -29 -44 -53 l-45 -44 -39 31 c-71 57 -71 57
-17 112 27 28 52 50 55 50 3 0 25 -19 48 -43z m-136 -248 c-15 -21 -30 -38
-34 -39 -23 -1 -55 112 -43 150 7 21 10 20 55 -25 l48 -47 -26 -39z m228 94
c0 -37 -17 -94 -33 -118 -13 -17 -15 -16 -30 15 -23 44 -22 47 16 90 39 46 47
48 47 13z m-100 -187 c0 -7 -11 -23 -25 -36 l-25 -23 -25 23 c-31 29 -31 31 2
70 l27 33 23 -27 c13 -15 23 -33 23 -40z m0 -2645 c0 -9 -9 -27 -19 -41 -19
-24 -20 -24 -40 -6 -33 30 -36 55 -10 82 l23 24 23 -22 c13 -12 23 -29 23 -37z
m-110 -151 c-10 -14 -32 -38 -49 -54 l-30 -29 -12 26 c-14 31 -6 81 22 126
l21 35 33 -40 c33 -38 33 -39 15 -64z m194 43 c19 -56 21 -96 4 -91 -6 2 -25
20 -40 39 -28 35 -28 36 -13 73 9 20 20 34 24 31 5 -3 16 -26 25 -52z m-66
-126 c23 -23 42 -47 42 -53 0 -5 -20 -29 -44 -53 l-44 -44 -51 43 c-28 24 -51
47 -51 52 0 10 90 97 100 98 3 0 25 -19 48 -43z m-152 -163 l43 -47 -31 -38
c-26 -32 -34 -37 -46 -26 -22 17 -42 71 -42 110 0 62 19 62 76 1z m231 -19
c-4 -25 -14 -60 -23 -77 l-17 -32 -19 37 -19 38 31 39 c42 53 54 51 47 -5z
m-113 -117 c23 -32 20 -61 -8 -87 l-24 -22 -25 32 -25 33 25 33 c30 39 37 40
57 11z"/>
</g>
</svg>
