<?xml version="1.0" standalone="no"?>
<!DOCTYPE svg PUBLIC "-//W3C//DTD SVG 20010904//EN"
 "http://www.w3.org/TR/2001/REC-SVG-20010904/DTD/svg10.dtd">
<svg version="1.0" xmlns="http://www.w3.org/2000/svg"
 width="3542.000000pt" height="3750.000000pt" viewBox="0 0 3542.000000 3750.000000"
 preserveAspectRatio="xMidYMid meet">

<g transform="translate(0.000000,3750.000000) scale(0.100000,-0.100000)"
fill="#3a4548" stroke="none">
<path d="M25390 17577 c0 -1141 0 -1154 -20 -1172 -21 -19 -27 -60 -10 -70 6
-3 10 -17 10 -30 0 -13 -4 -27 -10 -30 -18 -11 -10 -53 15 -76 31 -30 33 -77
3 -114 -13 -17 -23 -44 -24 -68 -1 -31 -12 -53 -43 -91 -23 -28 -46 -68 -53
-88 -10 -34 -8 -43 19 -96 l31 -58 -25 -48 c-33 -65 -26 -99 37 -178 28 -33
50 -71 50 -82 1 -12 7 -32 15 -46 23 -39 19 -86 -10 -114 -26 -26 -33 -60 -15
-71 6 -3 10 -17 10 -30 0 -13 -4 -27 -10 -30 -17 -10 -11 -50 10 -73 20 -21
20 -35 20 -817 0 -782 0 -796 -20 -817 -23 -25 -25 -55 -5 -82 13 -17 13 -22
0 -42 -22 -33 -19 -59 10 -85 32 -31 32 -75 0 -120 -18 -23 -25 -44 -23 -67 2
-25 -7 -44 -40 -87 -67 -85 -70 -104 -33 -179 l31 -64 -25 -43 c-39 -70 -31
-104 44 -189 17 -19 34 -46 37 -60 3 -14 12 -43 20 -65 20 -57 18 -80 -11
-109 -28 -28 -31 -52 -10 -80 13 -17 13 -22 0 -42 -21 -32 -19 -56 6 -82 20
-23 20 -26 21 -1026 0 -552 -3 -1012 -6 -1023 -3 -10 -26 -29 -51 -41 l-46
-22 21 -22 c34 -36 21 -77 -30 -98 -27 -11 -30 -17 -30 -54 l0 -42 113 -17
c136 -21 138 -21 254 0 l93 16 0 43 c0 36 -4 44 -22 50 -58 17 -78 79 -36 108
21 15 21 16 -24 36 -25 11 -51 26 -57 34 -9 11 -12 262 -10 1022 l1 1009 24
28 c28 34 29 45 8 75 -14 21 -14 25 0 47 22 33 20 48 -9 79 -43 46 -29 127 35
206 72 88 90 162 56 228 -15 30 -15 33 6 73 38 73 16 172 -51 233 -12 11 -21
29 -21 41 0 12 -11 44 -25 71 -25 49 -34 124 -15 124 5 0 17 11 26 25 16 24
16 28 -2 60 -17 32 -17 35 -1 53 23 25 21 39 -8 78 l-25 32 0 787 0 786 27 36
c27 35 27 36 10 65 -16 28 -16 33 -2 54 21 32 19 47 -10 78 -16 17 -25 39 -25
59 0 45 27 117 55 147 75 81 94 153 59 227 -16 33 -16 36 6 75 35 63 26 131
-29 202 -23 30 -44 69 -46 86 -3 18 -13 48 -25 67 -20 35 -28 113 -10 113 5 0
17 11 26 25 16 24 16 28 -2 60 -17 32 -17 35 -1 53 23 26 21 44 -8 76 l-25 27
0 1067 c0 587 0 1104 0 1150 l0 82 -85 0 -85 0 0 -1153z m121 -1583 c26 -25
27 -29 14 -54 -26 -51 -40 -54 -69 -15 l-27 35 23 30 c13 16 25 29 27 29 3 1
17 -11 32 -25z m-106 -125 l27 -41 -43 -44 c-37 -37 -45 -42 -52 -28 -13 23
-3 99 17 129 9 14 18 25 20 25 2 0 16 -19 31 -41z m215 -29 c12 -42 12 -61 2
-78 -6 -9 -18 -1 -41 29 l-33 41 18 40 c16 37 19 38 31 22 7 -10 18 -34 23
-54z m-81 -111 c22 -23 41 -44 41 -48 0 -4 -12 -18 -27 -32 -61 -54 -58 -54
-108 -13 -25 21 -45 44 -45 50 0 12 78 83 91 84 4 0 25 -19 48 -41z m-145
-148 l39 -39 -23 -36 c-12 -20 -23 -36 -26 -36 -2 0 -13 18 -24 40 -20 39 -28
110 -12 110 4 0 25 -18 46 -39z m222 -12 c-4 -23 -14 -55 -22 -71 l-16 -30
-20 32 -19 33 37 38 c21 22 40 39 42 39 3 0 2 -18 -2 -41z m-106 -130 c12 -27
11 -33 -7 -50 -19 -19 -19 -19 -41 4 l-22 24 21 26 c26 34 34 34 49 -4z m19
-2491 c10 -16 8 -25 -10 -54 l-21 -35 -24 22 c-35 33 -39 57 -14 84 24 26 45
21 69 -17z m-134 -187 c-27 -27 -47 -41 -55 -36 -17 10 -6 96 16 130 l17 27
33 -39 33 -38 -44 -44z m213 85 c16 -36 25 -93 17 -107 -5 -8 -18 1 -40 27
-32 38 -32 39 -17 71 19 39 25 41 40 9z m-59 -148 l41 -43 -44 -44 -44 -44
-46 39 c-25 21 -45 44 -46 51 0 11 78 82 92 83 3 0 25 -19 47 -42z m-130 -218
c-13 -16 -28 -30 -35 -30 -26 0 -57 124 -37 144 4 4 27 -13 51 -38 l43 -46
-22 -30z m198 61 c-4 -17 -14 -47 -23 -68 l-16 -38 -15 32 c-16 31 -15 33 13
67 36 43 48 45 41 7z m-103 -134 c8 -21 6 -31 -9 -47 -17 -19 -19 -19 -37 -4
-22 21 -23 29 0 59 21 29 34 27 46 -8z"/>
</g>
</svg>
