<?xml version="1.0" standalone="no"?>
<!DOCTYPE svg PUBLIC "-//W3C//DTD SVG 20010904//EN"
 "http://www.w3.org/TR/2001/REC-SVG-20010904/DTD/svg10.dtd">
<svg version="1.0" xmlns="http://www.w3.org/2000/svg"
 width="3542.000000pt" height="3750.000000pt" viewBox="0 0 3542.000000 3750.000000"
 preserveAspectRatio="xMidYMid meet">

<g transform="translate(0.000000,3750.000000) scale(0.100000,-0.100000)"
fill="#3a4548" stroke="none">
<path d="M30790 17426 c0 -685 -4 -1246 -8 -1246 -5 0 -17 -15 -27 -34 -17
-31 -17 -35 -2 -57 21 -29 22 -53 2 -69 -23 -19 -18 -43 16 -78 27 -27 31 -37
26 -67 -3 -20 -17 -49 -31 -66 -20 -23 -26 -42 -26 -77 0 -39 -6 -53 -40 -94
-50 -59 -74 -112 -65 -147 4 -14 20 -47 36 -73 l29 -48 -25 -46 c-40 -76 -32
-109 48 -203 30 -35 49 -70 60 -111 19 -67 22 -110 8 -110 -5 0 -20 -14 -32
-32 -22 -30 -22 -32 -6 -60 21 -36 21 -52 2 -68 -22 -18 -18 -41 10 -72 l25
-27 0 -859 c0 -842 0 -859 -20 -877 -29 -26 -33 -51 -13 -85 16 -28 16 -32 0
-59 -22 -38 -22 -43 9 -76 37 -40 37 -91 1 -134 -21 -25 -27 -43 -27 -79 0
-41 -7 -55 -50 -111 -71 -92 -73 -109 -17 -203 l28 -47 -25 -50 c-15 -28 -26
-61 -26 -75 0 -22 29 -69 93 -150 16 -19 30 -45 32 -58 3 -13 8 -43 14 -67 11
-56 11 -60 -22 -95 -30 -32 -34 -58 -12 -76 19 -16 19 -39 0 -64 -21 -27 -19
-40 10 -74 l25 -30 0 -1090 c0 -940 -2 -1093 -15 -1105 -8 -8 -34 -23 -57 -33
l-44 -17 23 -23 c13 -13 23 -32 23 -44 0 -24 -42 -70 -64 -70 -21 0 -27 -100
-6 -101 8 0 24 -2 35 -4 11 -3 37 -7 57 -9 21 -3 73 -10 117 -16 71 -11 89
-10 175 10 l96 22 0 49 c0 41 -3 49 -18 49 -26 0 -62 42 -62 72 0 16 10 34 25
46 l24 19 -41 14 c-23 7 -53 24 -66 36 l-25 23 5 1083 5 1083 26 39 c24 36 25
41 12 62 -17 26 -20 59 -5 68 25 15 1 95 -29 95 -15 0 -14 76 2 122 7 20 31
56 54 81 76 82 92 136 64 216 l-19 53 24 42 c42 73 28 157 -40 240 -21 27 -35
56 -39 84 -3 24 -17 60 -31 81 -34 49 -34 98 -1 130 29 27 31 52 9 86 -15 23
-15 27 0 50 22 33 20 57 -6 84 l-21 24 1 858 c1 851 1 859 22 881 24 26 25 49
5 87 -12 25 -12 31 0 47 21 28 18 58 -10 88 -45 48 -25 149 44 221 22 22 46
54 55 72 20 41 21 115 0 155 -15 29 -15 33 10 78 44 82 33 146 -40 237 -24 29
-34 52 -34 75 0 21 -12 53 -30 81 -32 52 -42 127 -17 127 15 0 37 41 37 68 0
9 -7 26 -15 36 -13 17 -13 22 0 42 20 31 19 50 -6 85 -20 29 -20 33 -20 1263
l-1 1234 -21 5 c-12 2 -55 5 -94 6 l-73 2 0 -1245z m159 -1751 c1 -6 -11 -28
-25 -49 l-26 -38 -25 24 c-44 41 -47 55 -17 93 l26 35 33 -28 c19 -15 34 -32
34 -37z m-148 -106 l32 -40 -49 -50 c-53 -54 -64 -51 -64 18 0 41 26 113 41
113 4 0 22 -18 40 -41z m239 -29 c12 -43 12 -71 1 -88 -6 -9 -18 -1 -45 32
l-37 45 23 41 c21 36 24 38 36 23 7 -9 17 -33 22 -53z m-71 -143 l24 -28 -44
-45 c-24 -24 -48 -44 -53 -44 -13 0 -96 81 -96 93 0 5 21 28 47 52 l48 43 25
-21 c14 -12 36 -34 49 -50z m-168 -148 c31 -40 31 -43 -8 -98 -1 -2 -9 2 -18
9 -20 16 -45 103 -38 129 6 25 18 18 64 -40z m229 9 c0 -13 -11 -45 -24 -73
l-23 -50 -15 35 c-15 34 -14 36 16 72 36 43 46 46 46 16z m-116 -151 c17 -47
-42 -79 -60 -33 -7 18 25 68 40 63 6 -2 15 -16 20 -30z m13 -2659 c29 -27 29
-51 2 -90 l-22 -30 -38 38 -38 37 26 33 c30 40 39 41 70 12z m-118 -139 l34
-40 -49 -50 c-45 -46 -50 -48 -62 -32 -25 33 4 166 36 162 4 0 22 -19 41 -40z
m226 -21 c17 -57 18 -77 7 -95 -5 -8 -18 2 -41 28 l-33 40 17 40 c10 21 22 39
26 39 5 0 15 -23 24 -52z m-77 -131 c23 -23 42 -48 42 -54 0 -6 -21 -30 -47
-53 l-47 -41 -50 51 -51 51 47 44 c26 25 51 45 55 45 5 0 28 -19 51 -43z
m-118 -207 c-1 -3 -11 -18 -25 -34 -20 -25 -26 -28 -39 -17 -21 17 -44 97 -38
128 4 24 6 23 53 -23 27 -27 49 -51 49 -54z m181 3 c-6 -21 -17 -47 -24 -57
-13 -17 -14 -16 -27 13 -12 31 -11 34 21 67 38 39 45 33 30 -23z m-105 -107
c6 -24 -10 -66 -25 -66 -4 0 -14 11 -21 25 -12 22 -11 27 5 45 24 26 33 25 41
-4z"/>
</g>
</svg>
