<?xml version="1.0" standalone="no"?>
<!DOCTYPE svg PUBLIC "-//W3C//DTD SVG 20010904//EN"
 "http://www.w3.org/TR/2001/REC-SVG-20010904/DTD/svg10.dtd">
<svg version="1.0" xmlns="http://www.w3.org/2000/svg"
 width="3542.000000pt" height="3750.000000pt" viewBox="0 0 3542.000000 3750.000000"
 preserveAspectRatio="xMidYMid meet">

<g transform="translate(0.000000,3750.000000) scale(0.100000,-0.100000)"
fill="#3a4548" stroke="none">
<path d="M4970 17076 l0 -1445 -30 -33 c-32 -35 -38 -69 -16 -87 23 -19 25
-49 5 -75 -27 -34 -24 -56 12 -95 28 -31 30 -39 25 -85 -11 -107 -17 -122 -81
-199 -94 -113 -101 -155 -43 -253 l20 -34 -35 -57 c-63 -105 -59 -142 33 -254
45 -55 51 -68 46 -97 -6 -40 6 -74 39 -114 30 -35 37 -128 10 -128 -8 0 -15
-6 -15 -14 0 -7 -7 -19 -15 -26 -8 -7 -15 -23 -15 -35 0 -12 7 -28 15 -35 19
-16 19 -45 -1 -75 -20 -31 -13 -65 21 -96 l25 -24 0 -1000 0 -1000 -25 -24
c-37 -34 -41 -64 -15 -99 l23 -30 -22 -36 c-26 -41 -23 -59 18 -105 25 -28 29
-39 25 -78 -2 -25 -9 -53 -14 -63 -6 -10 -10 -29 -10 -42 0 -15 -23 -52 -58
-94 -32 -38 -64 -80 -71 -93 -21 -37 -15 -86 15 -140 l28 -50 -42 -83 c-52
-102 -50 -118 36 -223 58 -70 59 -73 55 -122 -5 -45 -2 -53 25 -84 43 -49 46
-112 9 -153 -38 -41 -42 -61 -16 -102 l22 -36 -22 -28 c-25 -34 -27 -53 -6
-70 8 -7 15 -19 15 -26 0 -8 7 -14 15 -14 13 0 15 -148 15 -1277 -1 -1020 -3
-1281 -13 -1295 -7 -9 -39 -28 -71 -42 l-59 -26 27 -21 c38 -30 36 -79 -5
-113 -17 -14 -37 -26 -45 -26 -10 0 -14 -15 -14 -59 l0 -59 115 -27 114 -27
173 29 173 28 3 58 c3 51 1 57 -17 57 -11 0 -33 12 -50 26 -39 33 -41 74 -5
111 14 14 24 26 22 27 -2 2 -29 13 -60 25 -32 13 -58 30 -58 37 0 8 -4 14 -10
14 -7 0 -10 432 -10 1275 0 1048 2 1275 13 1282 8 4 22 23 32 40 18 31 18 34
2 62 -21 36 -22 65 -2 81 23 19 18 53 -15 88 -40 45 -41 96 -1 166 17 28 32
68 34 88 2 23 18 56 44 90 60 78 75 114 76 177 0 41 -7 70 -26 106 l-25 51 20
59 c30 91 7 168 -77 255 -24 25 -51 65 -60 89 -17 51 -20 151 -4 151 16 0 48
42 49 63 0 10 -10 31 -22 47 l-22 30 22 30 c30 39 28 60 -9 98 l-30 31 5 1000
5 1001 26 27 c28 31 33 74 10 93 -19 16 -19 54 0 70 8 7 15 21 15 30 0 26 -32
80 -47 80 -22 0 -16 93 7 123 28 36 50 91 50 126 0 19 13 44 36 72 85 102 100
183 50 281 l-29 56 19 39 c24 48 24 127 1 174 -10 20 -40 61 -67 91 -84 95
-105 200 -50 260 35 37 37 54 13 97 -17 30 -17 32 0 62 23 41 22 54 -10 96
l-27 35 -1 1442 0 1441 -107 3 -108 3 0 -1445z m135 -1946 c17 -19 16 -48 -4
-80 -8 -12 -13 -12 -30 4 -30 27 -36 54 -15 77 21 24 27 24 49 -1z m-112 -138
l25 -38 -53 -59 c-49 -55 -53 -58 -59 -37 -4 12 -4 37 0 55 8 38 45 117 55
117 3 0 18 -17 32 -38z m227 -1 c22 -43 37 -122 24 -120 -5 0 -26 21 -48 45
l-38 44 16 35 c9 19 19 35 21 35 3 0 14 -18 25 -39z m-65 -165 l60 -54 -55
-56 c-30 -31 -59 -56 -64 -56 -10 0 -109 89 -115 103 -3 9 98 117 109 117 3 0
32 -24 65 -54z m-186 -190 l54 -55 -39 -43 c-21 -24 -43 -43 -49 -43 -17 0
-48 76 -49 119 -1 44 8 76 22 76 4 0 32 -25 61 -54z m296 24 c12 -38 -22 -170
-44 -170 -5 0 -11 8 -14 18 -3 9 -14 29 -23 43 -17 26 -17 27 22 77 21 28 42
51 46 52 4 0 10 -9 13 -20z m-131 -201 l29 -41 -39 -39 -40 -39 -37 38 -37 38
36 42 c19 23 41 42 47 42 7 0 25 -19 41 -41z m-20 -3151 c11 -31 0 -78 -17
-78 -7 0 -24 14 -36 31 l-23 31 23 24 c27 29 41 27 53 -8z m106 -117 c19 -39
38 -121 27 -121 -4 0 -24 19 -45 42 l-39 41 15 39 c8 21 17 38 18 38 2 0 13
-18 24 -39z m-216 -12 l29 -41 -56 -55 c-57 -58 -77 -61 -77 -14 0 50 46 151
68 151 4 0 20 -19 36 -41z m165 -163 c61 -62 62 -52 -16 -136 l-42 -44 -59 54
c-33 30 -60 59 -61 64 -1 11 101 114 114 115 6 1 35 -24 64 -53z m-190 -190
c59 -60 59 -53 -3 -126 l-28 -34 -24 27 c-34 40 -49 102 -35 149 7 21 17 38
24 38 7 0 37 -24 66 -54z m291 6 c0 -43 -26 -138 -40 -147 -9 -5 -50 63 -50
83 0 13 71 102 81 102 5 0 9 -17 9 -38z m-124 -183 c8 -16 14 -35 14 -44 0
-14 -57 -74 -72 -75 -3 0 -21 18 -39 41 l-32 40 43 44 c47 48 58 48 86 -6z"/>
</g>
</svg>
