<?xml version="1.0" standalone="no"?>
<!DOCTYPE svg PUBLIC "-//W3C//DTD SVG 20010904//EN"
 "http://www.w3.org/TR/2001/REC-SVG-20010904/DTD/svg10.dtd">
<svg version="1.0" xmlns="http://www.w3.org/2000/svg"
 width="3542.000000pt" height="3750.000000pt" viewBox="0 0 3542.000000 3750.000000"
 preserveAspectRatio="xMidYMid meet">

<g transform="translate(0.000000,3750.000000) scale(0.100000,-0.100000)"
fill="#C5C3C1" stroke="none">
<path d="M650 17641 l0 -809 -22 -6 c-13 -3 -83 -6 -156 -6 l-132 0 2 -2232 3
-2232 156 2 157 2 -5 -127 c-2 -71 -6 -134 -8 -140 -3 -9 -46 -13 -152 -15
l-148 -3 0 -1990 0 -1989 39 -9 c27 -7 69 -5 144 8 58 9 112 19 119 22 11 4
13 -122 13 -672 l0 -678 -24 -22 c-13 -12 -49 -32 -81 -45 -56 -23 -57 -23
-33 -36 14 -7 31 -26 37 -42 17 -42 -2 -77 -56 -103 l-44 -21 3 -56 c3 -63
-13 -52 153 -101 l70 -21 195 33 195 33 3 61 c3 59 2 61 -25 68 -74 18 -97 93
-43 139 l30 25 -46 20 c-26 12 -50 21 -55 21 -5 0 -18 9 -29 20 -20 20 -20 33
-20 718 l0 698 144 23 c79 13 148 26 154 30 7 4 12 593 14 1949 l3 1942 -157
0 -158 0 0 134 0 134 94 7 c51 4 111 4 133 1 21 -4 51 -2 66 3 l27 11 0 2224
c0 1770 -3 2225 -12 2229 -7 2 -79 2 -160 -1 l-148 -5 0 807 0 806 -120 0
-120 0 0 -809z m350 -3036 l0 -2064 -32 -5 c-18 -3 -120 -8 -225 -12 l-193 -6
0 2066 c0 1136 1 2067 3 2067 3 3 273 15 365 17 l82 2 0 -2065z m1 -2752 c1
-92 0 -3438 0 -3470 -1 -18 -7 -23 -28 -24 -16 0 -116 -15 -223 -33 -107 -18
-196 -32 -198 -31 -5 5 -2 3608 4 3614 5 6 187 15 362 19 l82 2 1 -77z"/>
</g>
</svg>
