<?xml version="1.0" standalone="no"?>
<!DOCTYPE svg PUBLIC "-//W3C//DTD SVG 20010904//EN"
 "http://www.w3.org/TR/2001/REC-SVG-20010904/DTD/svg10.dtd">
<svg version="1.0" xmlns="http://www.w3.org/2000/svg"
 width="3542.000000pt" height="3750.000000pt" viewBox="0 0 3542.000000 3750.000000"
 preserveAspectRatio="xMidYMid meet">

<g transform="translate(0.000000,3750.000000) scale(0.100000,-0.100000)"
fill="#C5C3C1" stroke="none">
<path d="M20077 18713 c-3 -5 -5 -277 -5 -607 -1 -329 -3 -600 -5 -602 -2 -2
-36 -7 -75 -10 l-72 -7 0 -1688 0 -1689 75 0 c71 0 75 -1 76 -22 2 -36 -2
-182 -5 -185 -1 -1 -35 -6 -74 -9 l-72 -7 2 -1471 3 -1471 78 0 77 1 0 -506
c0 -567 7 -517 -74 -553 l-39 -18 24 -25 c19 -20 21 -29 13 -52 -5 -15 -23
-33 -41 -42 -29 -13 -33 -19 -33 -57 0 -24 3 -43 8 -43 4 0 58 -9 120 -19 109
-18 115 -18 215 0 56 10 105 19 110 19 4 0 7 20 7 44 0 39 -3 45 -29 55 -50
21 -59 84 -14 109 15 9 11 14 -32 32 -27 12 -53 27 -57 33 -4 7 -8 249 -8 539
l0 526 58 7 c32 3 64 10 70 14 10 6 14 873 12 2654 l0 248 -67 -3 -68 -3 -3
103 -3 102 71 0 70 0 2 608 c2 334 2 1099 0 1700 l-2 1092 -70 0 -70 0 0 605
0 605 -84 0 c-47 0 -87 -3 -89 -7z m183 -2912 l0 -1581 -102 0 -103 0 2 1512
c1 832 2 1541 2 1575 l1 62 48 3 c26 2 71 4 100 6 l52 3 0 -1580z m-3 -3348
l-2 -1328 -65 -12 c-36 -6 -82 -14 -103 -17 l-38 -6 6 1242 c3 684 5 1287 5
1340 l0 97 48 3 c26 2 71 4 99 6 l53 3 -3 -1328z"/>
</g>
</svg>
