<?xml version="1.0" standalone="no"?>
<!DOCTYPE svg PUBLIC "-//W3C//DTD SVG 20010904//EN"
 "http://www.w3.org/TR/2001/REC-SVG-20010904/DTD/svg10.dtd">
<svg version="1.0" xmlns="http://www.w3.org/2000/svg"
 width="3542.000000pt" height="3750.000000pt" viewBox="0 0 3542.000000 3750.000000"
 preserveAspectRatio="xMidYMid meet">

<g transform="translate(0.000000,3750.000000) scale(0.100000,-0.100000)"
fill="#C5C3C1" stroke="none">
<path d="M27488 18084 l-3 -627 -107 2 -108 2 0 -1750 0 -1750 108 -3 107 -3
0 -105 0 -105 -105 -3 c-58 -2 -106 -5 -107 -6 -5 -5 -3 -2959 1 -2964 3 -2
51 -11 108 -19 57 -8 105 -17 108 -20 3 -3 6 -242 6 -531 2 -427 -1 -531 -12
-549 -7 -11 -34 -29 -59 -39 -45 -17 -46 -17 -27 -38 11 -12 22 -26 26 -33 11
-19 -15 -61 -45 -74 -26 -10 -29 -16 -29 -55 0 -50 -11 -46 158 -69 103 -15
119 -15 195 0 124 25 117 21 117 69 0 39 -3 45 -30 56 -54 22 -65 67 -25 104
l24 22 -50 18 c-27 10 -54 26 -59 36 -16 30 -13 1060 3 1060 6 0 39 -5 72 -10
33 -6 77 -8 98 -4 l37 6 0 1518 0 1519 -107 -2 -108 -2 -3 108 -3 107 111 0
110 0 0 1744 0 1744 -110 7 -110 7 0 623 c0 559 -2 623 -16 629 -9 3 -49 6
-90 6 l-74 0 -2 -626z m130 -764 l112 0 0 -1625 0 -1626 -152 3 -153 3 -2
1615 c-2 888 -1 1621 2 1629 4 10 16 12 43 7 20 -3 88 -6 150 -6z m0 -3710
l112 0 0 -1381 0 -1382 -42 7 c-24 4 -79 11 -123 17 -44 5 -93 11 -110 14
l-30 5 1 1347 c1 742 2 1356 3 1367 1 16 7 18 39 12 20 -3 88 -6 150 -6z"/>
</g>
</svg>
