<?xml version="1.0" standalone="no"?>
<!DOCTYPE svg PUBLIC "-//W3C//DTD SVG 20010904//EN"
 "http://www.w3.org/TR/2001/REC-SVG-20010904/DTD/svg10.dtd">
<svg version="1.0" xmlns="http://www.w3.org/2000/svg"
 width="3542.000000pt" height="3750.000000pt" viewBox="0 0 3542.000000 3750.000000"
 preserveAspectRatio="xMidYMid meet">

<g transform="translate(0.000000,3750.000000) scale(0.100000,-0.100000)"
fill="#C5C3C1" stroke="none">
<path d="M652 16528 c-1 -1063 -2 -2206 -2 -2540 l0 -608 -29 0 c-77 0 -125
-53 -118 -129 6 -56 38 -89 97 -99 l45 -7 3 -58 c3 -50 -1 -62 -28 -102 -68
-99 -110 -231 -115 -360 -6 -140 29 -260 111 -377 40 -57 44 -69 44 -122 l0
-59 -38 6 c-55 9 -95 -18 -112 -76 -11 -41 -10 -50 6 -84 19 -38 20 -38 132
-69 9 -3 12 -519 12 -2539 0 -2276 -2 -2538 -16 -2559 -8 -13 -41 -34 -72 -47
-31 -12 -58 -23 -60 -24 -2 -2 11 -16 28 -33 16 -17 30 -40 30 -52 0 -28 -61
-90 -89 -90 -19 0 -21 -6 -21 -60 0 -40 4 -62 13 -64 6 -3 57 -18 112 -34
l101 -30 194 34 c107 18 196 34 198 34 1 0 2 27 2 59 0 59 0 60 -35 71 -67 22
-87 91 -38 136 14 13 24 26 22 28 -2 2 -31 16 -64 30 -32 15 -63 32 -67 39 -4
7 -8 1163 -8 2570 l0 2557 40 0 c57 0 100 41 106 100 8 75 -25 112 -108 125
l-38 6 0 50 c0 38 6 58 25 83 13 18 40 67 60 108 102 223 84 466 -50 648 -32
43 -35 54 -35 115 l0 68 39 -7 c33 -5 44 -2 69 19 50 42 58 129 16 176 -9 10
-33 21 -53 25 -20 3 -44 8 -53 11 -17 4 -18 133 -18 2534 l0 2529 -118 0 -118
0 -2 -1932z m173 -3660 c19 -40 40 -100 46 -133 22 -119 -7 -291 -67 -399 -33
-59 -39 -62 -61 -29 -79 117 -100 316 -50 463 28 83 73 170 88 170 6 0 25 -33
44 -72z"/>
</g>
</svg>
