<?xml version="1.0" standalone="no"?>
<!DOCTYPE svg PUBLIC "-//W3C//DTD SVG 20010904//EN"
 "http://www.w3.org/TR/2001/REC-SVG-20010904/DTD/svg10.dtd">
<svg version="1.0" xmlns="http://www.w3.org/2000/svg"
 width="3542.000000pt" height="3750.000000pt" viewBox="0 0 3542.000000 3750.000000"
 preserveAspectRatio="xMidYMid meet">

<g transform="translate(0.000000,3750.000000) scale(0.100000,-0.100000)"
fill="#C5C3C1" stroke="none">
<path d="M17390 18458 c-1 -128 -1 -1026 0 -1995 l1 -1763 -25 0 c-38 0 -67
-30 -73 -77 -7 -55 13 -88 61 -97 35 -7 36 -8 36 -52 0 -29 -10 -64 -29 -103
-86 -169 -86 -400 1 -562 21 -41 28 -67 26 -95 -3 -36 -6 -39 -35 -42 -42 -4
-63 -34 -63 -89 0 -52 26 -83 70 -83 l30 0 0 -2003 c0 -1899 -1 -2005 -17
-2020 -10 -8 -38 -23 -62 -33 -43 -17 -43 -17 -22 -33 19 -15 26 -36 23 -72
-1 -9 -18 -24 -37 -35 -32 -17 -35 -22 -35 -65 l0 -46 120 -18 c117 -18 122
-18 237 1 l118 19 3 47 c3 41 0 47 -20 53 -60 19 -78 78 -33 113 l24 19 -44
18 c-25 9 -52 23 -60 32 -13 13 -15 262 -15 2023 l0 2009 33 3 c26 2 36 10 51
41 16 34 17 44 7 79 -7 21 -17 41 -24 43 -7 2 -24 6 -39 9 -25 6 -28 11 -28
45 0 22 11 61 25 88 58 113 79 289 51 416 -10 42 -30 103 -47 134 -21 43 -29
72 -29 114 0 56 0 56 29 51 38 -5 61 27 61 89 0 53 -21 79 -63 79 l-27 0 0
1995 0 1995 -90 0 -90 0 0 -232z m117 -4195 c24 -79 23 -228 -1 -311 -10 -34
-23 -65 -28 -68 -4 -3 -16 12 -25 33 -26 56 -25 267 1 346 10 31 22 57 27 57
5 0 16 -26 26 -57z"/>
</g>
</svg>
