<?xml version="1.0" standalone="no"?>
<!DOCTYPE svg PUBLIC "-//W3C//DTD SVG 20010904//EN"
 "http://www.w3.org/TR/2001/REC-SVG-20010904/DTD/svg10.dtd">
<svg version="1.0" xmlns="http://www.w3.org/2000/svg"
 width="3542.000000pt" height="3750.000000pt" viewBox="0 0 3542.000000 3750.000000"
 preserveAspectRatio="xMidYMid meet">

<g transform="translate(0.000000,3750.000000) scale(0.100000,-0.100000)"
fill="#C5C3C1" stroke="none">
<path d="M2150 16523 c-1 -1077 -2 -2198 -2 -2490 l-2 -533 -39 0 c-31 0 -46
-7 -73 -34 -28 -28 -34 -41 -34 -78 0 -25 8 -56 19 -75 17 -26 28 -33 73 -40
l53 -8 -1 -55 c0 -47 -6 -64 -40 -116 -105 -160 -135 -432 -65 -578 12 -23 21
-46 21 -50 0 -5 20 -37 45 -73 41 -59 45 -69 45 -124 l0 -61 -31 7 c-43 10
-83 -10 -102 -51 -21 -43 -21 -76 -2 -114 14 -28 41 -40 110 -52 20 -3 20 -12
23 -2493 2 -1871 -1 -2495 -9 -2512 -7 -12 -39 -34 -75 -49 l-63 -27 29 -27
c19 -18 30 -38 30 -54 0 -32 -37 -72 -74 -82 -24 -6 -26 -10 -26 -65 l0 -58
83 -25 c126 -38 142 -39 277 -16 69 11 139 23 155 26 94 14 94 14 87 85 -3 42
-7 47 -42 63 -64 28 -76 106 -20 136 28 15 20 24 -48 49 -42 16 -60 29 -69 49
-8 20 -11 686 -10 2521 l2 2493 43 2 c78 4 124 88 92 166 -15 37 -30 46 -92
55 l-48 7 4 47 c2 31 15 65 39 105 20 32 51 95 68 140 31 78 33 87 33 221 0
126 -2 147 -26 212 -14 40 -44 99 -67 133 -38 55 -41 65 -41 125 l0 65 45 0
c53 0 79 21 94 75 20 74 -16 131 -90 141 l-49 7 0 2483 0 2484 -115 0 -115 0
0 -1957z m153 -3511 c63 -115 75 -278 32 -422 -27 -91 -71 -174 -86 -165 -15
10 -54 94 -70 150 -23 82 -18 256 10 335 24 68 68 150 80 150 4 0 20 -22 34
-48z"/>
</g>
</svg>
