<?xml version="1.0" standalone="no"?>
<!DOCTYPE svg PUBLIC "-//W3C//DTD SVG 20010904//EN"
 "http://www.w3.org/TR/2001/REC-SVG-20010904/DTD/svg10.dtd">
<svg version="1.0" xmlns="http://www.w3.org/2000/svg"
 width="3542.000000pt" height="3750.000000pt" viewBox="0 0 3542.000000 3750.000000"
 preserveAspectRatio="xMidYMid meet">

<g transform="translate(0.000000,3750.000000) scale(0.100000,-0.100000)"
fill="#C5C3C1" stroke="none">
<path d="M24440 16866 c0 -1699 -1 -1874 -16 -1880 -9 -3 -24 -6 -35 -6 -29 0
-53 -44 -46 -86 8 -47 33 -74 69 -74 27 0 28 -2 28 -51 0 -37 -6 -60 -25 -87
-90 -132 -90 -382 1 -539 13 -23 24 -57 24 -76 0 -32 -3 -36 -37 -44 -41 -9
-63 -39 -63 -84 0 -39 36 -79 71 -79 l29 0 -2 -1897 -3 -1898 -53 -26 c-39
-19 -49 -28 -38 -32 9 -4 21 -18 28 -31 14 -32 -10 -73 -47 -82 -22 -5 -25
-12 -25 -50 0 -49 -18 -41 158 -68 86 -13 101 -13 188 4 53 10 97 20 100 22
14 14 7 88 -9 88 -21 0 -57 39 -57 62 0 12 9 32 21 44 l20 22 -46 17 c-25 10
-50 26 -55 36 -6 10 -8 740 -7 1895 l4 1879 38 11 c57 16 76 75 44 135 -10 19
-44 33 -70 27 -28 -6 -19 72 17 137 86 156 85 351 -1 514 -22 41 -35 79 -35
103 0 35 2 37 43 45 36 7 44 13 53 43 21 64 -11 120 -68 120 l-28 0 0 653 c0
358 0 1204 0 1880 l0 1227 -85 0 -85 0 0 -1874z m136 -2365 c12 -51 15 -93 10
-138 -7 -63 -41 -173 -54 -173 -10 0 -39 75 -51 130 -21 91 -10 212 26 288
l16 34 18 -33 c10 -19 26 -67 35 -108z"/>
</g>
</svg>
