<?xml version="1.0" standalone="no"?>
<!DOCTYPE svg PUBLIC "-//W3C//DTD SVG 20010904//EN"
 "http://www.w3.org/TR/2001/REC-SVG-20010904/DTD/svg10.dtd">
<svg version="1.0" xmlns="http://www.w3.org/2000/svg"
 width="3542.000000pt" height="3750.000000pt" viewBox="0 0 3542.000000 3750.000000"
 preserveAspectRatio="xMidYMid meet">

<g transform="translate(0.000000,3750.000000) scale(0.100000,-0.100000)"
fill="#C5C3C1" stroke="none">
<path d="M4962 16347 c-1 -1194 -2 -2274 -2 -2399 l0 -228 -36 0 c-56 0 -94
-44 -94 -108 0 -66 25 -99 84 -107 l44 -7 4 -50 c2 -42 -2 -57 -29 -101 -18
-29 -47 -90 -65 -137 -30 -81 -32 -92 -32 -225 0 -132 1 -144 28 -208 16 -37
46 -95 67 -128 33 -51 39 -68 39 -115 l0 -55 -34 6 c-42 8 -71 -6 -91 -45 -38
-74 -5 -145 75 -158 l45 -8 3 -2407 c1 -1603 -1 -2407 -8 -2407 -5 0 -10 -6
-10 -13 0 -7 -26 -24 -57 -37 -32 -13 -59 -24 -61 -26 -2 -1 8 -13 22 -27 47
-47 28 -103 -46 -135 -25 -10 -28 -16 -28 -62 0 -59 -2 -58 146 -92 l94 -21
172 29 173 29 3 56 c3 54 2 57 -23 63 -37 9 -75 50 -75 81 0 15 11 36 27 51
31 29 28 33 -48 60 -31 11 -49 25 -56 43 -8 19 -11 696 -10 2426 l2 2400 25 3
c56 6 71 14 90 45 24 38 26 87 5 126 -16 31 -33 41 -73 41 -15 0 -33 4 -40 9
-23 14 -11 82 24 141 78 128 110 258 101 404 -6 109 -35 198 -88 280 -35 52
-39 65 -39 122 l0 64 42 -2 c47 -2 71 20 87 78 21 74 -23 134 -99 134 l-30 0
0 2395 0 2395 -112 0 -113 0 -3 -2173z m192 -3231 c18 -84 15 -158 -10 -261
-16 -64 -62 -165 -75 -165 -15 0 -49 77 -65 147 -35 146 -8 331 63 439 l17 26
27 -54 c15 -30 35 -89 43 -132z"/>
</g>
</svg>
