<?xml version="1.0" standalone="no"?>
<!DOCTYPE svg PUBLIC "-//W3C//DTD SVG 20010904//EN"
 "http://www.w3.org/TR/2001/REC-SVG-20010904/DTD/svg10.dtd">
<svg version="1.0" xmlns="http://www.w3.org/2000/svg"
 width="3542.000000pt" height="3750.000000pt" viewBox="0 0 3542.000000 3750.000000"
 preserveAspectRatio="xMidYMid meet">

<g transform="translate(0.000000,3750.000000) scale(0.100000,-0.100000)"
fill="#C5C3C1" stroke="none">
<path d="M6299 16348 c0 -1206 0 -2266 0 -2354 l0 -161 -42 -6 c-78 -11 -117
-92 -80 -164 16 -30 28 -40 59 -47 21 -4 45 -10 52 -12 21 -6 15 -97 -8 -127
-65 -82 -112 -245 -111 -384 1 -124 34 -230 102 -330 24 -34 29 -52 29 -99 l0
-57 -36 6 c-31 5 -41 2 -65 -23 -24 -23 -29 -37 -29 -77 0 -67 19 -91 80 -99
l50 -7 0 -2361 c0 -2121 -2 -2364 -16 -2384 -8 -12 -19 -22 -24 -22 -4 0 -29
-9 -55 -20 l-47 -20 25 -20 c14 -11 29 -29 32 -40 10 -31 -21 -77 -60 -91 -34
-13 -35 -15 -35 -66 l0 -52 43 -12 c124 -33 180 -45 200 -43 32 3 277 44 305
51 19 5 22 11 22 58 0 44 -3 55 -19 60 -71 22 -95 95 -44 134 14 12 24 23 22
25 -2 2 -26 11 -53 21 -27 11 -57 28 -67 39 -18 19 -19 94 -19 2388 l0 2368
34 0 c69 0 118 70 97 139 -14 49 -32 63 -84 70 -41 6 -42 7 -45 46 -2 32 5 53
32 99 126 209 135 458 24 653 -16 29 -33 55 -39 58 -5 4 -9 37 -9 74 l0 68 41
-1 c48 -1 74 24 85 80 13 71 -17 117 -85 129 l-41 7 0 51 c0 29 -1 1086 -2
2350 l-1 2297 -108 0 -109 0 -1 -2192z m180 -3103 c6 -32 11 -88 11 -125 0
-109 -62 -308 -93 -297 -20 6 -57 112 -69 196 -16 108 2 225 49 323 l35 73 28
-55 c16 -31 33 -82 39 -115z"/>
</g>
</svg>
