<?xml version="1.0" standalone="no"?>
<!DOCTYPE svg PUBLIC "-//W3C//DTD SVG 20010904//EN"
 "http://www.w3.org/TR/2001/REC-SVG-20010904/DTD/svg10.dtd">
<svg version="1.0" xmlns="http://www.w3.org/2000/svg"
 width="2550.000000pt" height="2700.000000pt" viewBox="0 0 2550.000000 2700.000000"
 preserveAspectRatio="xMidYMid meet">

<g transform="translate(0.000000,2700.000000) scale(0.100000,-0.100000)"
fill="#C5C3C1" stroke="none">
<path d="M17273 21475 l-51 -45 0 -1563 c0 -859 -1 -1568 -1 -1574 -1 -7 -7
-13 -14 -13 -7 0 -21 -6 -31 -13 -17 -12 -17 -15 3 -48 19 -32 19 -37 5 -57
-8 -12 -22 -22 -30 -22 -8 0 -17 -7 -20 -15 -4 -8 -12 -15 -20 -15 -26 0 -15
-47 17 -74 17 -14 34 -26 38 -26 4 0 13 -11 19 -24 9 -20 7 -29 -9 -49 -26
-34 -24 -41 12 -58 l32 -15 -1 -1285 c0 -706 -1 -1438 -1 -1627 l-1 -342 -32
-20 c-18 -11 -37 -21 -43 -23 -5 -2 -2 -11 8 -21 25 -26 21 -63 -9 -82 -20
-14 -24 -24 -22 -53 l3 -36 65 -5 c36 -3 107 -4 158 -2 l92 3 0 46 c0 42 -2
45 -22 40 -23 -6 -48 8 -48 26 0 5 10 2 23 -9 12 -10 16 -12 10 -4 -18 19 -16
67 2 74 8 3 15 9 15 14 0 11 -51 35 -58 27 -4 -3 4 -8 16 -12 12 -3 22 -9 22
-14 0 -26 -41 8 -48 40 -1 9 -6 746 -9 1639 l-6 1622 32 11 c36 13 37 17 14
58 -20 33 -13 55 22 75 31 18 65 49 65 59 0 12 -60 67 -72 67 -5 0 -13 11 -20
25 -9 19 -8 29 6 49 22 34 21 39 -14 59 l-30 18 0 1611 c1 886 -3 1615 -7
1619 -5 5 -32 -12 -60 -36z m157 -3415 c0 -11 -7 -20 -16 -20 -8 0 -13 -4 -9
-9 5 -9 -33 -37 -40 -29 -3 3 56 77 63 78 1 0 2 -9 2 -20z"/>
</g>
</svg>
