<?xml version="1.0" standalone="no"?>
<!DOCTYPE svg PUBLIC "-//W3C//DTD SVG 20010904//EN"
 "http://www.w3.org/TR/2001/REC-SVG-20010904/DTD/svg10.dtd">
<svg version="1.0" xmlns="http://www.w3.org/2000/svg"
 width="2550.000000pt" height="2700.000000pt" viewBox="0 0 2550.000000 2700.000000"
 preserveAspectRatio="xMidYMid meet">

<g transform="translate(0.000000,2700.000000) scale(0.100000,-0.100000)"
fill="#C5C3C1" stroke="none">
<path d="M19031 23246 l-43 -44 -2 -1593 -1 -1592 -30 -10 c-40 -13 -40 -11
-14 -46 20 -28 21 -33 9 -56 -8 -14 -24 -28 -36 -31 -12 -3 -25 -12 -28 -20
-3 -8 -12 -14 -21 -14 -32 0 -14 -36 34 -68 61 -39 71 -64 42 -103 -26 -36
-26 -35 6 -44 15 -3 31 -12 35 -18 4 -7 8 -751 8 -1655 l0 -1642 -32 -20 c-18
-11 -37 -22 -43 -23 -5 -2 -2 -13 8 -24 25 -28 21 -49 -13 -75 -21 -15 -30
-30 -30 -51 l0 -29 98 5 c53 3 130 6 170 7 64 0 72 2 72 19 0 11 -13 29 -30
41 -33 24 -39 54 -14 81 15 17 13 18 -25 29 l-41 11 0 1664 c0 1033 3 1665 9
1665 5 0 21 4 36 10 l25 10 -20 20 c-11 11 -20 28 -20 39 0 24 37 71 56 71 8
0 14 5 14 10 0 6 6 10 14 10 43 0 20 36 -59 93 -30 22 -32 46 -4 81 l21 26
-36 15 -36 15 0 1634 c0 1481 -1 1634 -16 1640 -9 3 -17 6 -18 6 -1 0 -21 -20
-45 -44z"/>
</g>
</svg>
