<?xml version="1.0" standalone="no"?>
<!DOCTYPE svg PUBLIC "-//W3C//DTD SVG 20010904//EN"
 "http://www.w3.org/TR/2001/REC-SVG-20010904/DTD/svg10.dtd">
<svg version="1.0" xmlns="http://www.w3.org/2000/svg"
 width="2550.000000pt" height="2700.000000pt" viewBox="0 0 2550.000000 2700.000000"
 preserveAspectRatio="xMidYMid meet">

<g transform="translate(0.000000,2700.000000) scale(0.100000,-0.100000)"
fill="#C5C3C1" stroke="none">
<path d="M19941 24207 l-44 -43 -1 -1628 -1 -1629 -30 -10 c-40 -13 -41 -14
-23 -34 8 -10 18 -26 21 -35 7 -20 -28 -68 -49 -68 -8 0 -17 -6 -20 -14 -3 -8
-14 -16 -25 -19 -30 -8 -23 -22 36 -66 44 -33 55 -47 55 -70 0 -16 -7 -34 -15
-41 -20 -17 -19 -27 5 -35 54 -17 50 134 50 -2106 l0 -2070 -26 -24 c-15 -14
-33 -25 -40 -25 -18 0 -18 -10 1 -38 19 -26 8 -53 -30 -78 -15 -10 -25 -26
-25 -40 l0 -24 173 2 c170 3 172 3 175 25 2 17 -4 26 -23 35 -32 15 -42 51
-22 82 15 23 15 24 -23 35 -21 6 -38 17 -37 24 0 6 -1 252 -1 545 l-2 532 -25
10 -25 10 0 190 c0 190 5 225 37 243 11 7 13 224 13 1323 0 724 2 1319 5 1324
3 5 19 11 36 15 l31 7 -21 22 c-12 12 -21 32 -21 44 0 25 33 62 55 62 8 0 15
4 15 9 0 5 9 13 20 16 29 9 25 26 -14 58 -36 28 -52 35 -41 17 3 -5 1 -10 -4
-10 -6 0 -11 9 -11 19 0 11 -4 23 -10 26 -16 10 -12 40 10 68 l20 25 -35 16
-35 17 -1 762 c-2 2385 -3 2582 -19 2585 -8 1 -35 -17 -59 -41z"/>
</g>
</svg>
