<?xml version="1.0" standalone="no"?>
<!DOCTYPE svg PUBLIC "-//W3C//DTD SVG 20010904//EN"
 "http://www.w3.org/TR/2001/REC-SVG-20010904/DTD/svg10.dtd">
<svg version="1.0" xmlns="http://www.w3.org/2000/svg"
 width="2550.000000pt" height="2700.000000pt" viewBox="0 0 2550.000000 2700.000000"
 preserveAspectRatio="xMidYMid meet">

<g transform="translate(0.000000,2700.000000) scale(0.100000,-0.100000)"
fill="#C5C3C1" stroke="none">
<path d="M21579 26211 l-43 -49 3 -1666 3 -1666 -39 -16 c-49 -21 -48 -19 -24
-45 12 -13 21 -32 21 -44 0 -25 -29 -55 -54 -55 -9 0 -19 -7 -22 -15 -4 -8
-12 -15 -19 -15 -7 0 -18 -6 -24 -14 -9 -10 -4 -19 23 -40 19 -14 39 -26 44
-26 14 0 52 -45 52 -62 0 -8 -9 -27 -20 -41 -26 -32 -25 -33 7 -42 16 -4 34
-11 40 -17 10 -8 13 -286 13 -1344 l0 -1334 34 0 c18 0 48 3 65 6 l31 7 0
1327 c0 1050 3 1330 13 1337 6 6 25 13 41 17 l29 7 -22 23 c-11 12 -21 34 -21
48 0 28 17 45 73 73 59 31 66 43 28 58 -17 6 -31 16 -31 22 0 5 -15 17 -33 25
-41 19 -49 61 -17 95 l21 22 -41 17 -40 16 0 1707 c0 1598 -1 1709 -17 1721
-25 18 -27 17 -74 -37z"/>
<path d="M21536 19250 c-2 -3 -2 -237 -2 -520 1 -283 0 -535 -2 -559 -4 -35
-10 -46 -36 -62 -17 -10 -35 -20 -40 -22 -5 -2 -1 -15 9 -30 16 -26 16 -28 0
-53 -9 -15 -26 -29 -36 -31 -13 -4 -19 -14 -19 -35 0 -23 4 -29 16 -24 9 3 93
11 187 17 95 7 176 15 180 19 5 5 -3 14 -19 21 -15 8 -32 22 -38 31 -9 15 -8
22 22 80 2 3 -11 9 -27 13 -63 14 -61 -5 -61 595 l0 546 -66 10 c-36 5 -67 7
-68 4z"/>
</g>
</svg>
