<?xml version="1.0" standalone="no"?>
<!DOCTYPE svg PUBLIC "-//W3C//DTD SVG 20010904//EN"
 "http://www.w3.org/TR/2001/REC-SVG-20010904/DTD/svg10.dtd">
<svg version="1.0" xmlns="http://www.w3.org/2000/svg"
 width="2550.000000pt" height="2700.000000pt" viewBox="0 0 2550.000000 2700.000000"
 preserveAspectRatio="xMidYMid meet">

<g transform="translate(0.000000,2700.000000) scale(0.100000,-0.100000)"
fill="#C5C3C1" stroke="none">
<path d="M23088 26995 c-3 -3 -3 -469 -2 -1035 l3 -1030 -29 -15 c-16 -8 -36
-15 -45 -15 -14 0 -12 -6 9 -31 14 -17 26 -37 26 -45 0 -20 -45 -64 -65 -64
-8 0 -15 -5 -15 -10 0 -6 -11 -15 -25 -20 -14 -5 -25 -16 -25 -25 0 -9 11 -20
25 -25 14 -5 25 -14 25 -20 0 -5 6 -10 14 -10 22 0 66 -40 66 -59 0 -10 -10
-31 -21 -46 -24 -29 -19 -39 28 -51 12 -3 24 -13 27 -22 3 -10 4 -1000 4
-2202 -1 -1891 -3 -2188 -16 -2207 -8 -13 -18 -23 -22 -23 -22 0 -63 -22 -54
-28 18 -12 32 -44 26 -64 -2 -10 -17 -25 -33 -34 -16 -8 -29 -23 -29 -33 0
-21 -9 -21 225 5 72 8 136 14 144 14 9 0 4 9 -13 25 -30 27 -32 43 -11 71 22
28 19 33 -24 40 -33 5 -40 11 -45 36 -3 17 -6 288 -6 603 0 564 0 573 -20 578
-19 5 -20 14 -20 235 0 222 1 231 20 237 20 6 20 15 20 1381 l0 1374 40 16
c22 9 40 18 40 20 0 2 -9 13 -20 24 -28 28 -25 64 6 89 15 12 32 21 39 21 7 0
15 7 19 15 3 8 12 15 19 15 8 0 20 7 27 15 10 12 7 17 -16 27 -16 7 -32 16
-35 21 -3 4 -21 16 -40 26 -42 22 -48 53 -20 92 12 15 21 30 21 32 0 2 -18 10
-40 17 l-40 13 0 1039 0 1038 -68 0 c-38 0 -71 -2 -74 -5z"/>
</g>
</svg>
