<?xml version="1.0" standalone="no"?>
<!DOCTYPE svg PUBLIC "-//W3C//DTD SVG 20010904//EN"
 "http://www.w3.org/TR/2001/REC-SVG-20010904/DTD/svg10.dtd">
<svg version="1.0" xmlns="http://www.w3.org/2000/svg"
 width="2550.000000pt" height="2700.000000pt" viewBox="0 0 2550.000000 2700.000000"
 preserveAspectRatio="xMidYMid meet">

<g transform="translate(0.000000,2700.000000) scale(0.100000,-0.100000)"
fill="#C5C3C1" stroke="none">
<path d="M9108 12193 c-3 -1919 -3 -1928 -23 -1932 -11 -2 -31 -7 -44 -12
l-23 -9 26 -27 c14 -14 26 -34 26 -45 0 -21 -46 -68 -66 -68 -8 0 -14 -4 -14
-8 0 -5 -11 -14 -25 -20 -24 -11 -35 -42 -15 -42 6 0 18 -8 28 -17 9 -10 30
-24 45 -30 15 -7 32 -24 39 -38 10 -22 8 -30 -10 -55 -12 -16 -22 -31 -22 -33
0 -3 15 -10 33 -18 17 -7 35 -18 39 -23 12 -17 10 -4484 -2 -4505 -5 -10 -28
-26 -50 -35 l-41 -16 22 -30 c21 -28 21 -30 5 -55 -9 -14 -27 -30 -40 -34 -19
-8 -22 -15 -18 -46 4 -30 10 -39 38 -51 19 -8 50 -21 69 -29 28 -12 45 -13 78
-5 23 6 80 16 127 23 l85 12 3 42 c3 35 0 42 -18 48 -33 10 -52 48 -41 78 5
14 16 27 23 29 7 3 -5 14 -28 26 -22 11 -46 27 -52 35 -9 11 -11 542 -10 2267
l3 2254 35 9 c19 5 37 10 39 12 2 2 -6 17 -18 33 -12 17 -21 39 -21 49 0 20
29 53 46 53 19 0 84 51 84 66 0 8 -10 19 -22 25 -107 48 -131 89 -82 140 l26
27 -44 14 -43 15 -3 1918 c-2 1520 -5 1920 -15 1927 -6 4 -38 8 -69 8 l-58 0
-2 -1927z"/>
</g>
</svg>
