<?xml version="1.0" standalone="no"?>
<!DOCTYPE svg PUBLIC "-//W3C//DTD SVG 20010904//EN"
 "http://www.w3.org/TR/2001/REC-SVG-20010904/DTD/svg10.dtd">
<svg version="1.0" xmlns="http://www.w3.org/2000/svg"
 width="2550.000000pt" height="2700.000000pt" viewBox="0 0 2550.000000 2700.000000"
 preserveAspectRatio="xMidYMid meet">

<g transform="translate(0.000000,2700.000000) scale(0.100000,-0.100000)"
fill="#C5C3C1" stroke="none">
<path d="M10351 14549 l-64 -71 -3 -1543 c-1 -849 -5 -1548 -8 -1554 -4 -6
-15 -11 -24 -11 -39 -1 -46 -16 -21 -49 19 -26 21 -34 10 -57 -6 -14 -25 -31
-41 -37 -17 -6 -30 -15 -30 -19 0 -4 -6 -8 -14 -8 -7 0 -20 -7 -27 -16 -11
-14 -10 -18 6 -30 11 -7 25 -17 31 -22 6 -5 20 -13 33 -17 33 -10 53 -47 42
-78 -5 -14 -15 -28 -20 -32 -19 -11 -12 -23 19 -30 16 -4 32 -10 34 -13 2 -4
7 -773 11 -1708 5 -1402 4 -1706 -7 -1724 -7 -12 -28 -28 -46 -35 -33 -14 -33
-15 -16 -40 21 -32 7 -69 -31 -87 -22 -10 -26 -17 -23 -47 3 -35 3 -35 77 -52
57 -13 89 -15 135 -8 34 5 87 11 119 15 56 5 57 6 57 37 0 25 -8 39 -35 60
-39 31 -43 51 -17 80 12 14 13 21 5 24 -7 2 -27 14 -45 27 l-33 22 -2 1709
c-2 1172 1 1713 8 1721 6 7 24 16 40 19 35 8 35 8 7 45 -18 25 -20 33 -10 55
7 14 26 31 42 37 17 5 30 14 30 19 0 5 6 9 14 9 7 0 20 7 27 16 11 14 10 18
-6 30 -11 7 -24 17 -30 21 -5 5 -22 14 -38 20 -15 7 -32 24 -39 38 -10 22 -8
30 10 55 28 37 28 37 -7 45 -16 3 -34 12 -40 19 -8 9 -10 484 -9 1625 2 886 1
1611 -2 1611 -3 0 -34 -32 -69 -71z"/>
</g>
</svg>
