<?xml version="1.0" standalone="no"?>
<!DOCTYPE svg PUBLIC "-//W3C//DTD SVG 20010904//EN"
 "http://www.w3.org/TR/2001/REC-SVG-20010904/DTD/svg10.dtd">
<svg version="1.0" xmlns="http://www.w3.org/2000/svg"
 width="2550.000000pt" height="2700.000000pt" viewBox="0 0 2550.000000 2700.000000"
 preserveAspectRatio="xMidYMid meet">

<g transform="translate(0.000000,2700.000000) scale(0.100000,-0.100000)"
fill="#C5C3C1" stroke="none">
<path d="M14627 18952 l-57 -58 0 -1581 0 -1581 -30 -11 c-33 -11 -37 -22 -15
-41 21 -17 19 -63 -3 -83 -10 -10 -22 -17 -25 -17 -14 0 -47 -41 -47 -57 0
-10 20 -30 45 -46 36 -23 45 -35 45 -57 0 -15 -7 -33 -15 -40 -24 -20 -18 -38
15 -45 l30 -7 0 -531 c1 -3782 2 -3551 -19 -3567 -10 -8 -27 -20 -37 -26 -18
-11 -18 -12 -1 -32 23 -26 15 -59 -19 -74 -19 -9 -24 -19 -24 -50 0 -52 19
-58 191 -58 l139 0 0 41 c0 32 -6 46 -25 61 -29 22 -32 49 -9 72 17 17 11 36
-12 36 -8 0 -23 9 -34 20 -20 20 -20 33 -20 2065 0 1994 0 2045 19 2045 10 0
24 7 31 15 10 13 10 19 -4 33 -26 30 -20 68 14 89 17 9 30 21 30 24 0 4 9 11
20 14 11 4 20 15 20 27 0 11 -8 22 -20 25 -11 3 -20 9 -20 14 0 4 -12 14 -27
21 -33 16 -41 50 -19 83 23 34 20 43 -14 50 l-30 7 0 1639 c0 901 -4 1639 -8
1639 -4 0 -33 -26 -65 -58z m-57 -3297 c0 -5 -5 -3 -10 5 -5 8 -10 20 -10 25
0 6 5 3 10 -5 5 -8 10 -19 10 -25z m-39 -85 c-23 -23 -41 -37 -41 -30 0 13 72
81 78 75 2 -2 -15 -22 -37 -45z m33 -116 c9 -24 2 -26 -12 -4 -7 11 -8 20 -3
20 5 0 12 -7 15 -16z m-4 -74 c-6 -11 -16 -20 -22 -20 -6 0 -3 9 7 20 10 11
20 20 22 20 2 0 -1 -9 -7 -20z m5 -4180 c-10 -11 -22 -17 -27 -14 -5 3 -1 12
9 20 27 20 39 17 18 -6z m-40 -110 c-3 -5 -14 -10 -23 -10 -15 0 -15 2 -2 10
20 13 33 13 25 0z"/>
</g>
</svg>
