<?xml version="1.0" standalone="no"?>
<!DOCTYPE svg PUBLIC "-//W3C//DTD SVG 20010904//EN"
 "http://www.w3.org/TR/2001/REC-SVG-20010904/DTD/svg10.dtd">
<svg version="1.0" xmlns="http://www.w3.org/2000/svg"
 width="2551.000000pt" height="2701.000000pt" viewBox="0 0 2551.000000 2701.000000"
 preserveAspectRatio="xMidYMid meet">

<g transform="translate(0.000000,2701.000000) scale(0.100000,-0.100000)"
fill="#C5C3C1" stroke="none">
<path d="M15307 21233 l-57 -47 2 -563 3 -563 -87 0 -88 0 -1 -47 c-1 -72 -1
-4419 0 -5030 l1 -532 88 -3 c48 -2 86 -6 85 -10 -2 -5 -3 -166 -3 -358 l0
-351 -35 -20 c-34 -21 -34 -21 -19 -50 18 -36 11 -64 -22 -85 -18 -13 -24 -25
-24 -54 0 -21 6 -42 13 -47 9 -8 272 -11 310 -4 4 0 7 18 7 39 0 31 -6 43 -30
60 -33 25 -38 51 -14 87 15 23 14 24 -15 39 -17 9 -35 25 -40 35 -7 12 -10
150 -8 367 l2 349 100 5 100 5 3 2803 2 2802 -102 0 -103 0 3 610 c1 335 -1
610 -5 610 -5 0 -34 -21 -66 -47z m181 -1815 l2 -517 -122 -3 c-68 -2 -140 -1
-160 1 l-38 3 -2 512 c-2 281 -2 513 -1 516 0 3 72 5 160 5 l158 0 3 -517z m2
-763 l0 -125 -160 0 -160 0 0 125 0 125 160 0 160 0 0 -125z m0 -1455 l0
-1210 -160 0 -160 0 0 1210 0 1210 160 0 160 0 0 -1210z m0 -1455 l0 -125
-160 0 -160 0 -2 43 c-3 81 -3 192 0 200 2 4 75 7 163 7 l159 0 0 -125z m0
-705 l0 -460 -162 2 -163 3 0 375 c0 206 1 412 3 458 l4 82 159 0 159 0 0
-460z"/>
</g>
</svg>
