<?xml version="1.0" standalone="no"?>
<!DOCTYPE svg PUBLIC "-//W3C//DTD SVG 20010904//EN"
 "http://www.w3.org/TR/2001/REC-SVG-20010904/DTD/svg10.dtd">
<svg version="1.0" xmlns="http://www.w3.org/2000/svg"
 width="2551.000000pt" height="2701.000000pt" viewBox="0 0 2551.000000 2701.000000"
 preserveAspectRatio="xMidYMid meet">

<g transform="translate(0.000000,2701.000000) scale(0.100000,-0.100000)"
fill="#C5C3C1" stroke="none">
<path d="M19993 25091 l-63 -52 0 -564 0 -565 -90 0 -90 0 -1 -47 c-1 -75 -1
-4427 0 -5020 l1 -533 90 0 90 0 0 -351 c0 -221 -4 -357 -10 -370 -6 -10 -24
-26 -40 -34 -28 -14 -28 -16 -14 -45 19 -37 10 -68 -22 -82 -18 -9 -24 -19
-24 -45 l0 -33 175 0 175 0 0 35 c0 24 -6 37 -20 45 -34 18 -43 47 -25 82 12
25 13 33 3 40 -7 4 -16 8 -19 8 -3 0 -15 9 -27 20 -22 21 -22 23 -22 375 l0
355 89 0 c72 0 90 3 95 16 3 9 6 1269 6 2800 l0 2784 -95 0 -95 0 -2 617 -3
616 -62 -52z m165 -1823 l2 -518 -160 0 -160 0 -2 513 c-2 281 -2 514 -1 517
0 3 72 5 160 5 l158 0 3 -517z m2 -763 l0 -125 -160 0 -160 0 0 125 0 125 160
0 160 0 0 -125z m0 -1450 l0 -1205 -160 0 -160 0 0 1205 0 1205 160 0 160 0 0
-1205z m0 -1450 l0 -125 -160 0 -160 0 -2 48 c-1 37 0 188 2 200 0 1 72 2 160
2 l160 0 0 -125z m0 -702 l0 -463 -160 0 -160 0 -6 27 c-5 18 1 887 6 899 0 1
72 1 160 0 l160 -1 0 -462z"/>
</g>
</svg>
