<?xml version="1.0" standalone="no"?>
<!DOCTYPE svg PUBLIC "-//W3C//DTD SVG 20010904//EN"
 "http://www.w3.org/TR/2001/REC-SVG-20010904/DTD/svg10.dtd">
<svg version="1.0" xmlns="http://www.w3.org/2000/svg"
 width="2551.000000pt" height="2701.000000pt" viewBox="0 0 2551.000000 2701.000000"
 preserveAspectRatio="xMidYMid meet">

<g transform="translate(0.000000,2701.000000) scale(0.100000,-0.100000)"
fill="#C5C3C1" stroke="none">
<path d="M21158 26052 l-57 -47 0 -592 -1 -593 -90 0 -90 0 -1 -42 c-1 -70 -1
-4446 0 -5020 l1 -528 90 0 90 0 0 -809 c0 -445 -3 -816 -6 -825 -3 -9 -21
-25 -40 -37 -30 -18 -32 -22 -19 -35 8 -9 15 -26 15 -40 0 -24 -31 -64 -50
-64 -5 0 -10 -16 -10 -35 l0 -35 175 0 175 0 0 34 c0 25 -6 38 -24 50 -33 21
-40 49 -22 84 15 29 15 30 -15 42 -16 7 -34 21 -39 31 -6 11 -10 328 -10 828
l0 810 93 3 92 3 3 2792 2 2792 -92 3 -93 3 -3 638 c-1 350 -5 637 -10 636 -4
0 -33 -21 -64 -47z m170 -1869 l-3 -518 -157 -3 -158 -2 -2 516 c-2 283 -1
518 1 520 2 2 76 4 163 4 l158 0 -2 -517z m2 -757 l0 -125 -122 -3 c-68 -2
-140 -1 -160 1 l-38 3 0 124 0 124 160 0 160 0 0 -124z m0 -1451 l0 -1205 -87
-1 c-90 -2 -184 -2 -215 0 -17 1 -18 65 -18 1206 l0 1205 160 0 160 0 0 -1205z
m0 -1450 l0 -125 -160 0 -160 0 -1 43 c-4 90 -4 192 -1 200 2 4 75 7 163 7
l159 0 0 -125z m0 -705 l0 -460 -162 2 -163 3 0 375 c0 206 1 412 3 458 l4 82
159 0 159 0 0 -460z"/>
</g>
</svg>
