<?xml version="1.0" standalone="no"?>
<!DOCTYPE svg PUBLIC "-//W3C//DTD SVG 20010904//EN"
 "http://www.w3.org/TR/2001/REC-SVG-20010904/DTD/svg10.dtd">
<svg version="1.0" xmlns="http://www.w3.org/2000/svg"
 width="2551.000000pt" height="2701.000000pt" viewBox="0 0 2551.000000 2701.000000"
 preserveAspectRatio="xMidYMid meet">

<g transform="translate(0.000000,2701.000000) scale(0.100000,-0.100000)"
fill="#C5C3C1" stroke="none">
<path d="M22273 26968 c-4 -7 -8 -263 -8 -568 l0 -555 -87 -3 -88 -3 -1 -42
c-1 -66 -1 -4441 0 -5034 l1 -533 88 0 87 0 -1 -347 c-1 -192 -2 -354 -3 -360
-1 -7 -19 -24 -42 -39 -38 -24 -40 -27 -25 -43 27 -29 20 -69 -14 -89 -16 -9
-30 -25 -30 -34 0 -16 12 -18 115 -19 261 -2 245 -4 245 30 0 20 -6 30 -20 34
-11 3 -25 17 -31 31 -11 23 -9 31 9 55 l21 29 -30 13 c-61 25 -59 9 -59 390
l0 349 89 0 c72 0 90 3 95 16 3 9 6 1271 6 2804 l0 2789 -92 3 -93 3 -3 568
-2 567 -59 0 c-37 0 -63 -5 -68 -12z m227 -1768 l0 -520 -160 0 -160 0 -2 516
c-2 284 -1 518 1 520 2 2 76 4 163 4 l158 0 0 -520z m-2 -762 l-3 -123 -157
-3 -158 -3 0 126 0 125 160 0 161 0 -3 -122z m-120 -247 l122 -1 0 -1205 0
-1205 -87 -1 c-90 -2 -184 -2 -215 0 -17 1 -18 65 -18 1205 0 954 3 1205 13
1209 6 3 23 4 37 2 14 -2 80 -4 148 -4z m122 -2656 l0 -125 -160 0 -160 0 -1
43 c-4 90 -4 192 -1 200 2 4 75 7 163 7 l159 0 0 -125z m0 -705 l0 -460 -47
-1 c-116 -3 -266 1 -275 7 -8 5 -9 144 -5 458 3 248 6 452 7 454 0 1 72 2 160
2 l160 0 0 -460z"/>
</g>
</svg>
