<?xml version="1.0" standalone="no"?>
<!DOCTYPE svg PUBLIC "-//W3C//DTD SVG 20010904//EN"
 "http://www.w3.org/TR/2001/REC-SVG-20010904/DTD/svg10.dtd">
<svg version="1.0" xmlns="http://www.w3.org/2000/svg"
 width="2551.000000pt" height="2701.000000pt" viewBox="0 0 2551.000000 2701.000000"
 preserveAspectRatio="xMidYMid meet">

<g transform="translate(0.000000,2701.000000) scale(0.100000,-0.100000)"
fill="#C5C3C1" stroke="none">
<path d="M5912 13502 l-52 -47 0 -567 0 -568 -90 0 -90 0 -1 -42 c-1 -63 -1
-4425 0 -5045 l1 -533 90 0 90 0 0 -354 0 -354 -34 -21 c-41 -26 -51 -48 -31
-71 21 -23 19 -41 -10 -69 -21 -19 -25 -33 -25 -77 l0 -54 150 0 149 0 16 30
c8 16 15 47 15 70 0 33 -4 42 -24 52 -35 15 -39 35 -16 68 11 15 20 31 20 34
0 3 -16 12 -35 20 -19 8 -39 26 -44 39 -5 13 -10 173 -10 355 l-2 331 98 3 98
3 3 2807 2 2807 -97 3 -97 3 0 613 c0 426 -3 612 -10 612 -6 0 -35 -22 -64
-48z m178 -1822 l0 -520 -92 -1 c-125 -2 -220 0 -224 4 -3 2 -6 945 -4 1030 0
4 72 7 160 7 l160 0 0 -520z m0 -764 l0 -125 -122 -3 c-68 -2 -140 -1 -160 1
l-38 3 0 124 0 124 160 0 160 0 0 -124z m0 -1461 l0 -1215 -160 0 -160 0 0
1215 0 1215 160 0 160 0 0 -1215z m0 -1460 l0 -125 -160 0 -160 0 -2 48 c-1
37 0 188 2 200 0 1 72 2 160 2 l160 0 0 -125z m0 -705 l0 -460 -162 2 -163 3
0 380 c0 209 1 415 3 458 l4 77 159 0 159 0 0 -460z"/>
</g>
</svg>
