<?xml version="1.0" standalone="no"?>
<!DOCTYPE svg PUBLIC "-//W3C//DTD SVG 20010904//EN"
 "http://www.w3.org/TR/2001/REC-SVG-20010904/DTD/svg10.dtd">
<svg version="1.0" xmlns="http://www.w3.org/2000/svg"
 width="2551.000000pt" height="2701.000000pt" viewBox="0 0 2551.000000 2701.000000"
 preserveAspectRatio="xMidYMid meet">

<g transform="translate(0.000000,2701.000000) scale(0.100000,-0.100000)"
fill="#C5C3C1" stroke="none">
<path d="M8267 15441 l-57 -46 2 -568 3 -567 -87 0 -88 0 -1 -27 c-1 -44 -1
-4512 0 -5070 l1 -503 85 0 c81 0 85 -1 85 -22 0 -13 0 -176 0 -363 l0 -340
-23 -17 c-60 -45 -60 -45 -35 -79 l23 -31 -30 -24 c-26 -21 -29 -29 -30 -80
l0 -57 146 0 c81 0 152 3 158 7 6 4 11 33 11 65 0 52 -3 59 -25 69 -25 12 -34
45 -15 57 5 3 15 15 20 25 9 17 5 22 -30 40 -23 12 -42 30 -45 43 -3 12 -4
175 -3 362 l3 340 103 3 102 3 0 2799 0 2800 -104 0 -103 0 -1 611 c-1 336 -2
612 -4 614 -2 1 -29 -18 -61 -44z m181 -1798 l-3 -528 -157 -3 -158 -3 -2 527
c-2 289 -1 528 1 530 2 2 76 4 163 4 l158 0 -2 -527z m2 -778 l0 -125 -160 0
-160 0 0 125 0 125 160 0 160 0 0 -125z m0 -1475 c0 -1165 -1 -1230 -17 -1231
-10 0 -81 -1 -158 -2 l-140 -2 -3 1233 -2 1232 160 0 160 0 0 -1230z m-122
-1359 l122 -1 0 -125 0 -125 -160 0 -160 0 -2 43 c-1 34 0 185 2 208 0 4 17 5
38 4 20 -1 92 -3 160 -4z m122 -841 l0 -470 -162 2 -163 3 0 385 c0 212 1 422
3 468 l4 82 159 0 159 0 0 -470z"/>
</g>
</svg>
