<?xml version="1.0" standalone="no"?>
<!DOCTYPE svg PUBLIC "-//W3C//DTD SVG 20010904//EN"
 "http://www.w3.org/TR/2001/REC-SVG-20010904/DTD/svg10.dtd">
<svg version="1.0" xmlns="http://www.w3.org/2000/svg"
 width="2551.000000pt" height="2701.000000pt" viewBox="0 0 2551.000000 2701.000000"
 preserveAspectRatio="xMidYMid meet">

<g transform="translate(0.000000,2701.000000) scale(0.100000,-0.100000)"
fill="#C5C3C1" stroke="none">
<path d="M9443 16407 l-53 -42 0 -597 0 -598 -95 0 -95 0 -1 -47 c-1 -72 -1
-4465 0 -5045 l1 -508 95 0 95 0 0 -812 c0 -447 -4 -818 -8 -824 -4 -6 -22
-19 -39 -28 -36 -18 -42 -39 -18 -62 21 -21 19 -51 -4 -59 -22 -7 -31 -33 -31
-92 l0 -43 154 0 154 0 4 58 c4 53 2 59 -26 83 l-30 26 18 28 19 29 -37 29
-36 29 0 819 0 819 95 0 95 0 0 2800 0 2800 -95 0 -95 0 0 640 c0 352 -3 640
-7 640 -5 -1 -32 -20 -60 -43z m165 -1885 l2 -522 -117 -1 c-120 -1 -196 1
-200 5 -2 1 -3 234 -3 517 l-1 514 123 5 c68 3 139 5 158 5 l35 -1 3 -522z m0
-769 l-3 -128 -157 -3 -158 -3 0 131 0 130 160 0 161 0 -3 -127z m-120 -252
l122 -1 -2 -1217 -3 -1218 -157 -3 -158 -3 0 1220 c0 966 3 1220 13 1224 6 3
23 4 37 2 14 -2 80 -4 148 -4z m122 -2686 l0 -125 -160 0 -160 0 -2 43 c-1 34
0 195 2 205 0 1 72 2 160 2 l160 0 0 -125z m0 -710 l0 -465 -162 2 -163 3 0
380 c0 209 1 417 3 463 l4 82 159 0 159 0 0 -465z"/>
</g>
</svg>
