<?xml version="1.0" standalone="no"?>
<!DOCTYPE svg PUBLIC "-//W3C//DTD SVG 20010904//EN"
 "http://www.w3.org/TR/2001/REC-SVG-20010904/DTD/svg10.dtd">
<svg version="1.0" xmlns="http://www.w3.org/2000/svg"
 width="2551.000000pt" height="2701.000000pt" viewBox="0 0 2551.000000 2701.000000"
 preserveAspectRatio="xMidYMid meet">

<g transform="translate(0.000000,2701.000000) scale(0.100000,-0.100000)"
fill="#C5C3C1" stroke="none">
<path d="M12963 19304 l-53 -46 0 -574 0 -574 -95 0 -95 0 -1 -42 c-1 -71 -1
-4454 0 -5020 l1 -528 95 0 95 0 0 -360 0 -360 -32 -20 c-18 -11 -37 -21 -42
-23 -5 -2 1 -17 13 -34 19 -25 21 -34 12 -52 -6 -11 -21 -25 -32 -31 -16 -9
-20 -19 -17 -58 l3 -47 158 -3 157 -3 0 40 c0 49 -8 71 -26 71 -8 0 -20 11
-26 25 -10 22 -8 30 10 55 l22 29 -32 17 c-18 9 -36 22 -40 28 -4 6 -8 172 -8
368 l0 357 93 3 92 3 3 2793 2 2792 -95 0 -95 0 0 620 c0 341 -3 620 -7 620
-5 0 -32 -21 -60 -46z m165 -1831 l-3 -518 -157 -3 -158 -3 -2 517 c-2 283 -1
518 1 520 2 2 76 4 163 4 l158 0 -2 -517z m-3 -766 l0 -122 -155 0 -155 0 -3
128 -3 127 158 -5 158 -5 0 -123z m3 -1444 l-3 -1208 -157 -3 -158 -3 0 1211
0 1210 160 0 160 0 -2 -1207z m0 -1453 l-3 -125 -149 -3 c-87 -1 -153 1 -159
7 -9 9 -17 237 -10 245 2 2 75 3 163 2 l160 -1 -2 -125z m0 -702 l-3 -463
-157 -3 -157 -3 -7 27 c-5 19 1 872 6 902 0 1 72 2 160 2 l160 0 -2 -462z"/>
</g>
</svg>
