<?xml version="1.0" standalone="no"?>
<!DOCTYPE svg PUBLIC "-//W3C//DTD SVG 20010904//EN"
 "http://www.w3.org/TR/2001/REC-SVG-20010904/DTD/svg10.dtd">
<svg version="1.0" xmlns="http://www.w3.org/2000/svg"
 width="3542.000000pt" height="3750.000000pt" viewBox="0 0 3542.000000 3750.000000"
 preserveAspectRatio="xMidYMid meet">

<g transform="translate(0.000000,3750.000000) scale(0.100000,-0.100000)"
fill="#C5C3C1" stroke="none">
<path d="M14430 17970 l0 -670 -110 0 -110 0 0 -1866 0 -1867 110 5 110 6 0
-104 0 -104 -110 0 -110 0 0 -1625 0 -1625 26 -6 c27 -7 151 2 178 12 14 6 16
-47 16 -552 0 -308 -4 -564 -8 -570 -4 -6 -31 -23 -60 -38 -52 -26 -53 -27
-33 -44 35 -30 36 -59 2 -92 -16 -17 -37 -30 -45 -30 -12 0 -16 -11 -16 -49
l0 -50 53 -10 c181 -36 182 -36 395 0 l62 11 0 49 c0 36 -4 49 -14 49 -25 0
-76 50 -76 74 0 12 11 33 25 46 l26 24 -48 19 c-26 10 -54 25 -60 34 -10 13
-13 147 -13 589 l0 572 63 11 c34 6 81 13 105 17 l42 7 0 1593 0 1594 -105 0
-105 0 0 100 c0 95 1 100 23 105 12 3 31 5 42 4 11 -1 48 -1 83 -1 l62 2 0
1860 0 1860 -105 0 -105 0 0 665 0 665 -95 0 -95 0 0 -670z m238 -2528 l2
-1732 -47 0 c-27 0 -92 -3 -145 -7 l-98 -6 0 1731 c0 953 1 1733 3 1733 4 3
261 15 272 14 7 -1 11 -588 13 -1733z m0 -3659 l2 -1460 -132 -22 c-73 -12
-139 -21 -145 -21 -10 0 -13 302 -13 1475 0 811 1 1476 3 1476 4 3 261 15 272
14 7 -1 11 -498 13 -1462z"/>
</g>
</svg>
