<?xml version="1.0" standalone="no"?>
<!DOCTYPE svg PUBLIC "-//W3C//DTD SVG 20010904//EN"
 "http://www.w3.org/TR/2001/REC-SVG-20010904/DTD/svg10.dtd">
<svg version="1.0" xmlns="http://www.w3.org/2000/svg"
 width="3542.000000pt" height="3750.000000pt" viewBox="0 0 3542.000000 3750.000000"
 preserveAspectRatio="xMidYMid meet">

<g transform="translate(0.000000,3750.000000) scale(0.100000,-0.100000)"
fill="#C5C3C1" stroke="none">
<path d="M24440 18140 l0 -601 -100 7 -100 7 0 -1667 0 -1666 100 0 100 0 0
-96 0 -96 -97 3 -98 4 -3 -1447 -2 -1448 22 -4 c23 -5 162 -26 172 -26 9 0 7
-1033 -2 -1046 -4 -6 -28 -19 -53 -28 l-46 -18 23 -23 c13 -13 24 -31 24 -40
0 -20 -44 -65 -65 -65 -11 0 -15 -11 -15 -45 0 -50 -17 -42 157 -70 85 -13
100 -12 189 5 52 10 97 20 100 22 14 14 7 88 -9 88 -21 0 -57 39 -57 62 0 12
9 32 21 44 l20 22 -46 17 c-25 10 -50 26 -55 36 -6 10 -10 219 -10 514 l0 497
69 -7 c38 -4 83 -4 100 0 l31 7 0 1474 0 1475 -77 -1 c-139 -2 -124 -14 -121
93 l3 92 77 -3 c42 -2 86 -1 97 3 l21 6 0 1655 0 1654 -62 0 c-35 0 -80 3
-100 6 l-38 7 0 598 0 599 -85 0 -85 0 0 -600z m183 -730 l37 0 0 -1540 0
-1540 -135 0 -135 0 0 1547 0 1546 98 -6 c53 -4 114 -7 135 -7z m0 -3510 l37
0 0 -1341 0 -1342 -47 6 c-27 3 -87 11 -135 17 l-88 13 0 1330 0 1330 98 -6
c53 -4 114 -7 135 -7z"/>
</g>
</svg>
