<?xml version="1.0" standalone="no"?>
<!DOCTYPE svg PUBLIC "-//W3C//DTD SVG 20010904//EN"
 "http://www.w3.org/TR/2001/REC-SVG-20010904/DTD/svg10.dtd">
<svg version="1.0" xmlns="http://www.w3.org/2000/svg"
 width="3542.000000pt" height="3750.000000pt" viewBox="0 0 3542.000000 3750.000000"
 preserveAspectRatio="xMidYMid meet">

<g transform="translate(0.000000,3750.000000) scale(0.100000,-0.100000)"
fill="#C5C3C1" stroke="none">
<path d="M28570 18056 l0 -634 -115 5 -115 6 0 -1762 0 -1763 78 2 c42 1 94 2
115 1 l37 -1 0 -105 0 -105 -115 0 -115 0 0 -872 c0 -2065 0 -2182 11 -2189 6
-3 58 -12 115 -19 l104 -13 0 -543 c0 -298 -3 -550 -6 -558 -4 -9 -28 -26 -56
-38 l-49 -21 21 -22 c28 -30 26 -69 -6 -94 -15 -12 -33 -21 -41 -21 -11 0 -13
-12 -11 -47 l3 -48 142 -19 c140 -19 142 -19 235 0 l93 20 3 45 c3 43 1 47
-28 59 -54 22 -65 67 -25 104 l25 23 -45 18 c-81 30 -75 -16 -75 582 l0 535
33 -5 c87 -15 130 -19 162 -13 l35 7 0 1559 0 1560 -115 0 -115 0 0 110 0 109
115 -6 115 -6 0 1756 0 1757 -62 0 c-35 0 -87 3 -115 6 l-53 7 0 633 0 634
-90 0 -90 0 0 -634z m219 -774 l31 -4 0 -1624 c0 -892 -3 -1625 -7 -1627 -5
-2 -77 -2 -160 1 l-153 4 0 1630 0 1629 129 -2 c71 -1 143 -4 160 -7z m-1
-3720 l31 -4 -2 -1419 c-1 -1418 -1 -1419 -22 -1419 -11 0 -78 9 -150 20 -71
11 -133 20 -137 20 -5 0 -8 633 -8 1406 l0 1405 129 -2 c71 -1 143 -4 159 -7z"/>
</g>
</svg>
