<?xml version="1.0" standalone="no"?>
<!DOCTYPE svg PUBLIC "-//W3C//DTD SVG 20010904//EN"
 "http://www.w3.org/TR/2001/REC-SVG-20010904/DTD/svg10.dtd">
<svg version="1.0" xmlns="http://www.w3.org/2000/svg"
 width="2550.000000pt" height="2700.000000pt" viewBox="0 0 2550.000000 2700.000000"
 preserveAspectRatio="xMidYMid meet">

<g transform="translate(0.000000,2700.000000) scale(0.100000,-0.100000)"
fill="#C5C3C1" stroke="none">
<path d="M1856 13593 c-4 -4 -6 -1820 -5 -4035 1 -3002 -2 -4032 -10 -4042 -7
-8 -25 -19 -41 -26 -34 -14 -34 -14 -19 -39 18 -27 2 -70 -31 -89 -23 -13 -30
-24 -30 -49 l0 -31 116 -7 c117 -8 156 -5 252 15 52 12 52 12 52 51 0 26 -5
39 -13 39 -18 0 -57 42 -57 61 0 8 6 24 14 35 13 17 11 20 -27 39 l-42 20 -3
4033 -2 4032 -73 0 c-41 0 -77 -3 -81 -7z"/>
<path d="M1652 5458 c2 -18 8 -33 13 -33 6 0 11 15 13 33 3 24 -1 32 -13 32
-12 0 -16 -8 -13 -32z"/>
</g>
</svg>
