<?xml version="1.0" standalone="no"?>
<!DOCTYPE svg PUBLIC "-//W3C//DTD SVG 20010904//EN"
 "http://www.w3.org/TR/2001/REC-SVG-20010904/DTD/svg10.dtd">
<svg version="1.0" xmlns="http://www.w3.org/2000/svg"
 width="2550.000000pt" height="2700.000000pt" viewBox="0 0 2550.000000 2700.000000"
 preserveAspectRatio="xMidYMid meet">

<g transform="translate(0.000000,2700.000000) scale(0.100000,-0.100000)"
fill="#C5C3C1" stroke="none">
<path d="M3398 9638 l-3 -3983 -33 -17 c-45 -22 -45 -23 -32 -48 18 -34 4 -68
-35 -87 -28 -13 -35 -23 -35 -45 0 -20 5 -28 18 -28 9 0 67 -4 127 -10 92 -8
123 -6 190 8 l80 17 3 37 c3 32 -1 40 -21 49 -37 17 -52 56 -33 85 15 22 14
23 -18 34 -19 6 -38 21 -45 36 -8 18 -11 115 -11 318 0 160 0 1939 0 3954 l0
3662 -75 0 -75 0 -2 -3982z m149 -3954 c-3 -3 -12 -4 -19 -1 -8 3 -5 6 6 6 11
1 17 -2 13 -5z"/>
</g>
</svg>
