<?xml version="1.0" standalone="no"?>
<!DOCTYPE svg PUBLIC "-//W3C//DTD SVG 20010904//EN"
 "http://www.w3.org/TR/2001/REC-SVG-20010904/DTD/svg10.dtd">
<svg version="1.0" xmlns="http://www.w3.org/2000/svg"
 width="2550.000000pt" height="2700.000000pt" viewBox="0 0 2550.000000 2700.000000"
 preserveAspectRatio="xMidYMid meet">

<g transform="translate(0.000000,2700.000000) scale(0.100000,-0.100000)"
fill="#C5C3C1" stroke="none">
<path d="M4203 14100 l-73 -91 0 -3184 c0 -1958 -4 -3193 -9 -3208 -6 -16 -23
-29 -45 -37 -35 -11 -35 -12 -20 -35 21 -32 11 -59 -32 -92 -46 -34 -43 -64 6
-75 60 -12 272 -10 325 4 46 12 50 16 53 46 2 24 -1 34 -15 39 -33 11 -53 36
-53 64 0 15 5 31 10 34 15 9 12 25 -4 25 -7 0 -25 9 -40 21 l-26 20 -2 3281
-3 3280 -72 -92z"/>
</g>
</svg>
