<?xml version="1.0" standalone="no"?>
<!DOCTYPE svg PUBLIC "-//W3C//DTD SVG 20010904//EN"
 "http://www.w3.org/TR/2001/REC-SVG-20010904/DTD/svg10.dtd">
<svg version="1.0" xmlns="http://www.w3.org/2000/svg"
 width="2550.000000pt" height="2700.000000pt" viewBox="0 0 2550.000000 2700.000000"
 preserveAspectRatio="xMidYMid meet">

<g transform="translate(0.000000,2700.000000) scale(0.100000,-0.100000)"
fill="#C5C3C1" stroke="none">
<path d="M22138 25235 l-48 -43 0 -4242 c0 -2696 -4 -4248 -10 -4259 -5 -10
-23 -24 -40 -31 -31 -13 -37 -24 -20 -35 27 -17 -3 -105 -36 -105 -8 0 -14
-10 -14 -25 l0 -25 185 0 c165 0 186 2 192 17 4 10 1 19 -6 21 -43 14 -69 90
-40 119 7 7 1 14 -21 23 -17 7 -35 21 -40 31 -6 11 -10 1581 -10 4308 l0 4291
-22 0 c-13 -1 -44 -20 -70 -45z"/>
</g>
</svg>
