<?xml version="1.0" standalone="no"?>
<!DOCTYPE svg PUBLIC "-//W3C//DTD SVG 20010904//EN"
 "http://www.w3.org/TR/2001/REC-SVG-20010904/DTD/svg10.dtd">
<svg version="1.0" xmlns="http://www.w3.org/2000/svg"
 width="3542.000000pt" height="3750.000000pt" viewBox="0 0 3542.000000 3750.000000"
 preserveAspectRatio="xMidYMid meet">

<g transform="translate(0.000000,3750.000000) scale(0.100000,-0.100000)"
fill="#C5C3C1" stroke="none">
<path d="M18310 16561 l0 -2138 -39 -7 c-52 -8 -58 -20 -27 -57 14 -17 26 -38
26 -48 0 -21 -36 -56 -67 -66 -13 -3 -23 -10 -23 -15 0 -5 -12 -15 -27 -22
-40 -19 -42 -46 -4 -61 17 -6 31 -17 31 -23 0 -6 13 -14 30 -17 16 -4 37 -18
46 -32 14 -21 14 -30 4 -55 -7 -17 -20 -35 -29 -40 -14 -9 -14 -12 4 -26 11
-8 32 -18 48 -21 l27 -5 0 -972 c1 -2305 0 -3305 -6 -3319 -3 -8 -28 -25 -55
-36 l-49 -21 21 -21 c33 -33 23 -79 -22 -104 -31 -16 -37 -25 -37 -51 0 -17 3
-36 7 -41 7 -12 175 -43 230 -43 20 0 82 7 139 17 l102 16 0 43 c0 39 -3 44
-37 61 -31 14 -39 24 -41 50 -2 22 3 38 17 52 l20 20 -46 21 c-26 11 -51 26
-55 33 -4 7 -8 976 -8 2153 l0 2142 25 6 c13 3 36 11 51 17 l28 10 -26 24
c-15 13 -29 34 -33 45 -9 28 19 68 53 76 15 4 32 12 37 19 6 6 20 17 33 24 30
16 29 49 -3 61 -14 5 -25 14 -25 19 0 5 -13 12 -30 16 -30 7 -70 47 -70 71 0
7 12 26 26 43 31 37 25 49 -27 57 l-39 7 0 2138 0 2139 -90 0 -90 0 0 -2139z"/>
</g>
</svg>
