<?xml version="1.0" standalone="no"?>
<!DOCTYPE svg PUBLIC "-//W3C//DTD SVG 20010904//EN"
 "http://www.w3.org/TR/2001/REC-SVG-20010904/DTD/svg10.dtd">
<svg version="1.0" xmlns="http://www.w3.org/2000/svg"
 width="3542.000000pt" height="3750.000000pt" viewBox="0 0 3542.000000 3750.000000"
 preserveAspectRatio="xMidYMid meet">

<g transform="translate(0.000000,3750.000000) scale(0.100000,-0.100000)"
fill="#C5C3C1" stroke="none">
<path d="M26450 16616 l0 -2104 -51 -17 -51 -17 27 -28 c35 -36 36 -77 4 -101
-13 -10 -32 -19 -41 -19 -10 0 -18 -4 -18 -9 0 -6 -12 -16 -27 -23 -35 -16
-36 -48 -4 -64 13 -7 26 -16 30 -21 3 -5 20 -15 37 -22 56 -22 62 -80 12 -121
l-23 -18 39 -16 c21 -9 45 -16 52 -16 12 0 14 -324 14 -2107 0 -1160 -4 -2113
-8 -2120 -4 -6 -29 -21 -56 -33 l-49 -21 21 -20 c12 -11 22 -30 22 -43 0 -23
-32 -58 -63 -69 -14 -5 -18 -16 -15 -49 l3 -42 130 -18 c132 -19 178 -17 298
13 35 9 37 12 37 50 0 34 -4 41 -27 50 -53 20 -68 67 -32 105 l21 22 -48 22
c-27 11 -52 26 -56 33 -4 7 -8 960 -8 2120 0 1783 2 2107 14 2107 7 0 31 7 52
16 34 14 36 17 21 28 -54 40 -50 104 7 127 17 7 34 17 37 22 4 5 17 14 30 21
32 16 31 48 -3 64 -16 7 -28 17 -28 23 0 5 -7 9 -15 9 -9 0 -27 7 -40 16 -34
22 -33 69 2 106 20 20 23 29 12 32 -8 2 -31 10 -51 16 l-38 12 -2 2101 -3
2102 -82 3 -83 3 0 -2105z"/>
</g>
</svg>
