<?xml version="1.0" standalone="no"?>
<!DOCTYPE svg PUBLIC "-//W3C//DTD SVG 20010904//EN"
 "http://www.w3.org/TR/2001/REC-SVG-20010904/DTD/svg10.dtd">
<svg version="1.0" xmlns="http://www.w3.org/2000/svg"
 width="3542.000000pt" height="3750.000000pt" viewBox="0 0 3542.000000 3750.000000"
 preserveAspectRatio="xMidYMid meet">

<g transform="translate(0.000000,3750.000000) scale(0.100000,-0.100000)"
fill="#C5C3C1" stroke="none">
<path d="M7688 18552 c-54 -1 -98 -6 -99 -10 -1 -4 -2 -1127 -4 -2497 -1
-1369 -3 -2497 -4 -2506 0 -9 -18 -21 -43 -28 -68 -20 -73 -29 -38 -62 57 -55
31 -126 -50 -144 -17 -4 -30 -12 -30 -19 0 -6 -13 -17 -30 -23 -40 -15 -40
-48 0 -71 16 -9 30 -23 30 -29 0 -7 11 -13 24 -13 34 0 86 -46 86 -77 0 -30
-16 -62 -44 -84 -21 -17 -21 -18 -1 -24 11 -4 29 -11 40 -15 11 -5 29 -10 40
-12 20 -3 20 -12 23 -2518 2 -1884 -1 -2520 -9 -2537 -7 -12 -36 -32 -65 -44
-30 -12 -54 -24 -54 -27 0 -3 10 -16 21 -28 40 -43 24 -95 -38 -121 -31 -13
-33 -16 -33 -66 l0 -52 118 -26 117 -27 160 27 160 27 3 57 c3 51 1 57 -16 57
-11 0 -31 9 -46 21 -33 26 -36 81 -6 106 11 10 20 20 20 24 0 4 -24 16 -54 28
-29 12 -58 32 -65 44 -8 16 -11 661 -9 2537 l3 2515 25 6 c14 3 40 11 58 18
l32 13 -30 34 c-51 59 -32 123 41 139 16 4 32 12 36 19 5 6 20 19 36 29 37 24
36 55 -3 70 -16 6 -30 17 -30 24 0 7 -16 17 -36 22 -79 22 -99 83 -44 136 17
16 30 32 30 36 0 4 -25 15 -55 24 -36 12 -55 23 -55 34 0 9 -1 1140 -1 2513 0
1374 -3 2499 -7 2500 -4 2 -51 2 -104 0z"/>
</g>
</svg>
