<?xml version="1.0" standalone="no"?>
<!DOCTYPE svg PUBLIC "-//W3C//DTD SVG 20010904//EN"
 "http://www.w3.org/TR/2001/REC-SVG-20010904/DTD/svg10.dtd">
<svg version="1.0" xmlns="http://www.w3.org/2000/svg"
 width="2551.000000pt" height="2701.000000pt" viewBox="0 0 2551.000000 2701.000000"
 preserveAspectRatio="xMidYMid meet">

<g transform="translate(0.000000,2701.000000) scale(0.100000,-0.100000)"
fill="#65340A" stroke="none">
<path d="M4753 12539 l-63 -51 0 -594 0 -594 -94 0 -93 0 -5 -32 c-3 -18 -4
-622 -4 -1343 l1 -1310 103 3 102 4 0 -142 0 -142 -102 4 -103 3 2 -880 c1
-484 2 -1086 3 -1337 l0 -458 95 0 95 0 0 -810 0 -809 -30 -16 c-42 -21 -56
-52 -36 -74 18 -19 21 -51 6 -51 -18 0 -40 -58 -40 -105 l0 -45 150 0 150 0
20 33 c27 43 27 113 1 122 -40 12 -46 33 -22 75 l21 38 -37 13 c-21 6 -41 17
-45 23 -4 6 -8 370 -8 809 l0 797 84 0 c67 0 85 3 90 16 3 9 6 612 6 1341 l0
1325 -102 -4 -103 -3 0 135 0 135 103 -3 102 -3 0 1345 0 1346 -90 0 -90 0 -2
645 -3 645 -62 -51z m155 -2581 l2 -1218 -162 0 -163 0 3 1212 c1 667 2 1216
2 1220 0 4 71 6 158 5 l157 -2 3 -1217z m2 -2943 l0 -1205 -162 2 -163 3 0
1202 0 1203 163 0 162 0 0 -1205z"/>
</g>
</svg>
