<?xml version="1.0" standalone="no"?>
<!DOCTYPE svg PUBLIC "-//W3C//DTD SVG 20010904//EN"
 "http://www.w3.org/TR/2001/REC-SVG-20010904/DTD/svg10.dtd">
<svg version="1.0" xmlns="http://www.w3.org/2000/svg"
 width="2551.000000pt" height="2701.000000pt" viewBox="0 0 2551.000000 2701.000000"
 preserveAspectRatio="xMidYMid meet">

<g transform="translate(0.000000,2701.000000) scale(0.100000,-0.100000)"
fill="#65340A" stroke="none">
<path d="M22273 26998 c-7 -8 -10 -216 -8 -575 l1 -563 -93 0 -93 0 0 -1336 0
-1335 105 7 105 7 0 -143 0 -142 -105 7 -105 7 -2 -674 c-2 -370 -2 -971 0
-1335 l2 -663 90 0 c50 0 90 -3 91 -7 5 -39 3 -683 -2 -699 -4 -12 -24 -31
-44 -43 -35 -20 -36 -23 -21 -40 27 -29 20 -69 -14 -89 -16 -9 -30 -25 -30
-34 0 -16 12 -18 115 -19 261 -2 245 -4 245 30 0 20 -6 30 -20 34 -11 3 -25
17 -31 31 -11 23 -9 31 9 55 l21 29 -30 13 c-61 25 -59 9 -59 390 l0 349 95 0
95 0 0 1336 0 1336 -102 -4 -103 -3 0 135 0 135 103 -3 102 -3 0 1336 0 1335
-95 0 -95 0 0 575 0 575 -59 0 c-35 0 -63 -5 -68 -12z m227 -2463 l0 -1215
-170 0 -170 0 0 1208 c0 665 3 1212 7 1215 3 4 80 7 170 7 l163 0 0 -1215z m2
-2142 c2 -225 2 -769 0 -1210 l-2 -803 -170 0 -170 0 0 1210 0 1210 170 0 170
0 2 -407z"/>
</g>
</svg>
