<?xml version="1.0" standalone="no"?>
<!DOCTYPE svg PUBLIC "-//W3C//DTD SVG 20010904//EN"
 "http://www.w3.org/TR/2001/REC-SVG-20010904/DTD/svg10.dtd">
<svg version="1.0" xmlns="http://www.w3.org/2000/svg"
 width="2551.000000pt" height="2701.000000pt" viewBox="0 0 2551.000000 2701.000000"
 preserveAspectRatio="xMidYMid meet">

<g transform="translate(0.000000,2701.000000) scale(0.100000,-0.100000)"
fill="#65340A" stroke="none">
<path d="M5912 13502 l-52 -47 0 -572 0 -573 -95 0 -95 0 2 -1337 3 -1338 103
3 102 4 0 -142 0 -142 -102 4 -103 3 -2 -1332 c-2 -1243 -1 -1333 15 -1334 9
-1 52 0 95 1 l77 2 0 -355 0 -355 -34 -21 c-41 -26 -51 -48 -31 -71 21 -23 19
-41 -10 -69 -21 -19 -25 -33 -25 -77 l0 -54 150 0 149 0 16 30 c8 16 15 47 15
70 0 33 -4 42 -24 52 -35 15 -39 35 -16 68 11 15 20 31 20 34 0 3 -16 12 -35
20 -19 8 -39 26 -44 39 -5 13 -10 173 -10 355 l-2 332 96 0 95 0 0 353 c0 193
3 795 6 1335 l5 984 -103 -4 -103 -3 0 135 0 135 103 -3 102 -3 0 1340 0 1341
-97 0 -98 0 1 620 c0 433 -3 620 -10 620 -6 0 -35 -22 -64 -48z m178 -2527 l0
-1215 -165 0 -165 0 0 1215 0 1215 165 0 165 0 0 -1215z m-2 -2942 l-3 -1208
-160 0 -160 0 -3 1208 -2 1207 165 0 165 0 -2 -1207z"/>
</g>
</svg>
