<?xml version="1.0" standalone="no"?>
<!DOCTYPE svg PUBLIC "-//W3C//DTD SVG 20010904//EN"
 "http://www.w3.org/TR/2001/REC-SVG-20010904/DTD/svg10.dtd">
<svg version="1.0" xmlns="http://www.w3.org/2000/svg"
 width="2551.000000pt" height="2701.000000pt" viewBox="0 0 2551.000000 2701.000000"
 preserveAspectRatio="xMidYMid meet">

<g transform="translate(0.000000,2701.000000) scale(0.100000,-0.100000)"
fill="#65340A" stroke="none">
<path d="M7120 14497 c-14 -12 -38 -32 -53 -44 l-28 -22 0 -600 0 -601 -99 0
-100 0 2 -1332 3 -1333 100 0 100 0 0 -135 0 -135 -102 3 -103 3 0 -1340 0
-1340 98 -3 97 -3 3 -808 2 -808 -35 -20 c-49 -29 -60 -52 -35 -74 25 -23 25
-41 0 -55 -23 -12 -43 -73 -38 -115 l3 -30 152 0 c84 0 155 4 159 8 5 4 10 36
12 71 4 57 2 64 -17 69 -30 7 -37 35 -17 67 22 38 21 39 -19 56 -21 8 -37 23
-40 37 -3 12 -4 378 -3 812 l3 790 80 0 c78 0 80 1 82 25 1 14 4 618 5 1343
l4 1318 -101 -3 -100 -3 0 135 0 135 104 -3 104 -3 -6 248 c-4 136 -7 737 -7
1336 l0 1087 -85 0 -85 0 0 645 c0 355 -3 645 -7 645 -5 0 -19 -11 -33 -23z
m128 -2596 l2 -1211 -160 0 -160 0 -1 363 c0 199 0 668 0 1042 1 374 1 755 1
847 l0 167 88 3 c48 2 119 2 157 2 l70 -2 3 -1211z m0 -2943 l-3 -1213 -157
-3 -157 -3 -7 26 c-4 15 -4 133 -1 263 4 130 7 666 7 1190 l0 952 160 0 160 0
-2 -1212z"/>
</g>
</svg>
