<?xml version="1.0" standalone="no"?>
<!DOCTYPE svg PUBLIC "-//W3C//DTD SVG 20010904//EN"
 "http://www.w3.org/TR/2001/REC-SVG-20010904/DTD/svg10.dtd">
<svg version="1.0" xmlns="http://www.w3.org/2000/svg"
 width="2551.000000pt" height="2701.000000pt" viewBox="0 0 2551.000000 2701.000000"
 preserveAspectRatio="xMidYMid meet">

<g transform="translate(0.000000,2701.000000) scale(0.100000,-0.100000)"
fill="#65340A" stroke="none">
<path d="M8268 15441 l-58 -46 0 -572 0 -573 -90 0 -90 0 -2 -1260 c-1 -693
-3 -1297 -3 -1342 l0 -83 108 3 107 4 0 -142 0 -142 -107 4 -108 3 0 -117 c0
-65 1 -665 3 -1334 l2 -1217 90 6 90 6 0 -354 0 -355 -27 -17 c-50 -30 -54
-42 -30 -75 l22 -30 -30 -24 c-26 -21 -29 -29 -30 -80 l0 -57 146 0 c81 0 152
3 158 7 6 4 11 33 11 65 0 52 -3 59 -25 69 -25 12 -34 45 -15 57 5 3 15 15 20
25 9 17 5 22 -29 39 -21 11 -41 27 -45 36 -3 9 -6 169 -6 356 l0 339 105 0
105 0 2 953 c1 523 2 1121 2 1327 l1 375 -105 0 -105 0 0 135 0 135 105 0 104
0 -2 1220 c-1 671 -2 1275 -2 1342 l0 122 -102 3 -103 3 -2 614 c-1 337 -3
615 -5 616 -2 1 -29 -18 -60 -44z m188 -2456 c0 -627 -1 -1175 -3 -1217 l-5
-78 -164 0 -164 0 0 1220 0 1220 168 -2 167 -3 1 -1140z m-4 -1897 c3 -46 5
-588 6 -1206 l2 -1122 -172 2 -173 3 1 640 c1 352 2 893 2 1203 l2 562 164 0
164 0 4 -82z"/>
</g>
</svg>
