<?xml version="1.0" standalone="no"?>
<!DOCTYPE svg PUBLIC "-//W3C//DTD SVG 20010904//EN"
 "http://www.w3.org/TR/2001/REC-SVG-20010904/DTD/svg10.dtd">
<svg version="1.0" xmlns="http://www.w3.org/2000/svg"
 width="2551.000000pt" height="2701.000000pt" viewBox="0 0 2551.000000 2701.000000"
 preserveAspectRatio="xMidYMid meet">

<g transform="translate(0.000000,2701.000000) scale(0.100000,-0.100000)"
fill="#65340A" stroke="none">
<path d="M9443 16407 l-53 -42 0 -597 0 -597 -92 -3 -93 -3 0 -1330 0 -1330
100 0 100 0 0 -135 0 -135 -100 0 -100 0 -2 -1337 -3 -1338 95 0 95 0 0 -807
c0 -445 -4 -813 -8 -819 -4 -6 -22 -19 -39 -28 -36 -18 -42 -39 -18 -62 21
-21 19 -51 -4 -59 -22 -7 -31 -33 -31 -92 l0 -43 154 0 154 0 4 58 c4 53 2 59
-26 83 l-30 26 18 28 18 28 -36 31 -37 31 3 810 3 810 88 -1 87 -2 2 1142 c1
627 2 1231 2 1341 l1 200 -100 0 -100 0 0 135 0 135 95 0 c52 0 96 3 98 8 1 4
2 603 2 1332 l0 1325 -90 0 -90 0 0 640 c0 352 -3 640 -7 640 -5 -1 -32 -20
-60 -43z m167 -2567 l0 -1210 -160 0 -160 0 -1 83 c-5 223 -8 2314 -4 2325 3
9 45 12 165 12 l160 0 0 -1210z m0 -2945 l0 -1215 -162 2 -163 3 0 1050 c0
578 1 1123 3 1213 l3 162 159 0 160 0 0 -1215z"/>
</g>
</svg>
