<?xml version="1.0" standalone="no"?>
<!DOCTYPE svg PUBLIC "-//W3C//DTD SVG 20010904//EN"
 "http://www.w3.org/TR/2001/REC-SVG-20010904/DTD/svg10.dtd">
<svg version="1.0" xmlns="http://www.w3.org/2000/svg"
 width="2550.000000pt" height="2700.000000pt" viewBox="0 0 2550.000000 2700.000000"
 preserveAspectRatio="xMidYMid meet">

<g transform="translate(0.000000,2700.000000) scale(0.100000,-0.100000)"
fill="#C5C3C1" stroke="none">
<path d="M10310 14116 c-7 -7 -10 -337 -10 -992 0 -915 -1 -984 -17 -1013 -15
-25 -16 -35 -6 -62 11 -27 10 -37 -2 -56 -13 -19 -13 -28 -4 -46 7 -12 18 -26
25 -30 8 -5 14 -25 14 -50 0 -37 -8 -50 -60 -110 -65 -74 -75 -109 -45 -167
14 -27 13 -31 -20 -80 -46 -68 -45 -97 5 -170 35 -52 40 -64 34 -98 -7 -45 3
-70 52 -125 40 -44 42 -69 9 -109 -24 -28 -24 -30 -9 -60 15 -29 15 -34 1 -58
-15 -24 -15 -29 4 -58 18 -31 19 -56 19 -767 0 -713 -1 -735 -20 -767 -18 -30
-18 -34 -4 -56 13 -19 14 -30 5 -49 -16 -35 -14 -57 9 -86 37 -47 27 -88 -40
-168 -65 -77 -70 -95 -44 -158 16 -39 16 -39 -20 -93 -20 -29 -36 -63 -36 -75
0 -12 20 -51 44 -88 40 -59 44 -69 34 -96 -13 -38 1 -75 48 -120 39 -38 45
-76 14 -104 -22 -20 -26 -65 -8 -83 10 -10 10 -17 0 -32 -16 -26 -15 -52 3
-76 12 -16 14 -200 15 -1387 0 -887 -3 -1375 -10 -1387 -5 -10 -26 -24 -45
-30 l-35 -11 21 -29 c24 -32 16 -58 -26 -86 -19 -12 -25 -25 -25 -53 0 -30 7
-42 41 -69 l40 -34 82 11 c45 6 109 15 142 19 59 7 60 7 63 41 3 28 -3 40 -34
72 l-38 39 22 29 22 30 -33 22 c-17 12 -38 29 -44 37 -10 13 -13 304 -13 1384
l0 1369 21 28 c20 28 20 30 3 56 -16 25 -16 28 -1 55 16 26 16 29 -8 64 -34
49 -31 76 9 125 38 46 60 101 52 129 -4 11 2 29 12 43 33 41 62 107 62 138 0
16 -13 54 -29 84 -19 36 -26 59 -20 68 12 19 11 82 -1 114 -5 14 -31 48 -57
76 -40 43 -47 56 -45 86 2 20 12 49 24 66 20 28 20 30 4 58 -16 27 -16 31 0
58 16 28 16 30 -5 59 l-21 30 0 737 0 737 21 30 c21 29 21 31 5 59 -16 27 -16
31 0 58 16 28 16 30 -5 59 -28 39 -28 93 0 118 36 32 62 94 56 131 -4 25 0 40
17 60 64 77 70 136 21 213 -23 36 -25 47 -16 67 26 58 5 119 -69 198 -34 36
-43 103 -19 132 28 32 30 42 14 73 -14 27 -14 32 1 55 15 23 15 27 -5 58 -21
34 -21 36 -21 1029 l0 994 -55 0 c-30 0 -59 -4 -65 -10z m70 -2337 c0 -20 -15
-26 -25 -9 -9 15 3 43 15 35 5 -3 10 -15 10 -26z m-63 -68 c10 -15 7 -24 -18
-55 -49 -58 -64 -43 -33 34 18 44 33 50 51 21z m143 -22 c27 -52 18 -62 -21
-23 -20 20 -28 36 -23 47 10 27 22 20 44 -24z m-8 -124 c7 -12 -56 -96 -70
-95 -4 1 -27 19 -52 40 l-45 40 44 44 44 45 36 -31 c20 -17 39 -36 43 -43z
m-164 -105 l33 -40 -28 -40 c-15 -22 -33 -40 -39 -40 -12 0 -44 69 -44 95 0
26 19 65 32 65 7 0 28 -18 46 -40z m217 -33 c0 -86 -13 -100 -49 -48 l-27 39
28 41 c15 22 33 39 38 37 6 -2 10 -33 10 -69z m-91 -91 c14 -19 26 -39 26 -43
0 -5 -15 -24 -34 -42 l-34 -33 -38 36 -38 36 39 40 c22 22 42 40 46 40 4 0 18
-15 33 -34z m-34 -2366 c0 -11 -4 -20 -10 -20 -5 0 -10 2 -10 4 0 2 -3 11 -6
20 -4 11 -1 16 10 16 9 0 16 -8 16 -20z m-58 -75 c10 -21 7 -29 -23 -64 -19
-22 -37 -40 -41 -40 -16 -2 -7 65 12 97 24 38 37 40 52 7z m140 -16 c12 -23
15 -35 7 -38 -15 -5 -48 38 -49 62 0 28 21 16 42 -24z m-8 -117 c17 -22 17
-24 -16 -62 -18 -21 -39 -39 -46 -39 -7 -1 -32 17 -55 38 l-42 40 44 45 44 45
27 -22 c15 -12 35 -32 44 -45z m-157 -114 l41 -43 -40 -45 -40 -44 -18 24
c-34 44 -37 101 -8 138 15 18 20 16 65 -30z m216 -26 c0 -27 -6 -59 -13 -72
l-12 -23 -19 24 c-31 40 -31 56 -3 99 33 50 48 41 47 -28z m-89 -100 c14 -21
26 -43 26 -48 0 -17 -70 -79 -78 -68 -4 5 -20 24 -37 42 l-29 32 39 40 c22 22
42 40 46 40 3 0 18 -17 33 -38z m-96 -170 c6 -18 -15 -14 -22 4 -4 10 -1 14 6
12 6 -2 14 -10 16 -16z"/>
</g>
</svg>
