<?xml version="1.0" standalone="no"?>
<!DOCTYPE svg PUBLIC "-//W3C//DTD SVG 20010904//EN"
 "http://www.w3.org/TR/2001/REC-SVG-20010904/DTD/svg10.dtd">
<svg version="1.0" xmlns="http://www.w3.org/2000/svg"
 width="2550.000000pt" height="2700.000000pt" viewBox="0 0 2550.000000 2700.000000"
 preserveAspectRatio="xMidYMid meet">

<g transform="translate(0.000000,2700.000000) scale(0.100000,-0.100000)"
fill="#C5C3C1" stroke="none">
<path d="M15482 19772 l-42 -37 0 -741 c0 -643 -2 -745 -15 -771 -11 -23 -13
-37 -5 -57 6 -17 6 -35 -1 -52 -7 -20 -6 -32 4 -48 33 -51 30 -73 -16 -124
-63 -68 -70 -84 -56 -132 11 -36 10 -42 -15 -75 -15 -19 -32 -49 -38 -65 -9
-28 -6 -37 26 -90 35 -56 36 -62 25 -98 -13 -46 -6 -64 51 -126 50 -55 55 -76
30 -119 -17 -29 -19 -40 -10 -57 8 -15 9 -30 1 -52 -8 -23 -7 -36 4 -58 22
-43 22 -1327 0 -1370 -11 -22 -12 -35 -4 -58 7 -22 7 -37 -1 -52 -9 -17 -7
-27 9 -53 26 -42 19 -71 -30 -122 -49 -52 -63 -88 -49 -130 10 -30 8 -38 -22
-79 -42 -61 -42 -101 1 -162 29 -42 31 -49 21 -75 -17 -41 -6 -74 45 -128 50
-53 59 -91 32 -132 -15 -22 -16 -31 -6 -53 9 -20 9 -32 1 -51 -10 -21 -9 -32
3 -55 13 -25 15 -136 15 -822 0 -436 -4 -798 -8 -803 -4 -6 -20 -19 -35 -29
-27 -17 -28 -18 -12 -36 21 -24 13 -65 -15 -80 -14 -7 -20 -21 -20 -43 0 -44
9 -53 50 -51 19 2 77 3 128 3 l92 1 0 40 c0 29 -5 42 -19 50 -28 14 -35 46
-16 72 15 22 14 24 -15 48 l-30 25 0 801 c-1 605 2 808 11 828 9 20 9 32 1 51
-9 19 -9 31 0 51 10 20 9 30 -5 54 -26 44 -21 76 18 116 59 59 68 79 61 132
-5 41 -2 53 21 87 39 57 38 109 -5 169 -28 39 -31 49 -22 67 19 35 3 82 -45
135 -49 53 -55 79 -28 124 13 23 14 34 5 54 -8 18 -8 32 0 54 9 24 9 35 -4 55
-15 21 -17 95 -17 684 -1 566 1 662 14 679 17 22 19 56 5 70 -6 6 -6 20 2 41
10 26 9 35 -5 57 -29 43 -21 71 34 132 51 56 51 58 46 109 -5 45 -2 58 20 89
40 59 41 96 4 161 -21 37 -30 63 -26 77 12 37 -5 84 -50 137 -47 55 -55 84
-30 117 17 22 19 56 5 70 -6 6 -6 21 2 42 10 27 10 36 -4 60 -16 26 -17 95
-15 805 1 427 0 777 -3 777 -3 0 -24 -17 -48 -38z m-32 -1880 c0 -20 -36 -59
-46 -50 -8 8 24 68 36 68 6 0 10 -8 10 -18z m107 -18 c-9 -10 -38 16 -31 28 4
6 13 4 22 -6 9 -8 13 -19 9 -22z m-15 -140 c-15 -18 -34 -33 -41 -33 -17 -1
-71 47 -71 63 0 5 14 25 32 43 l32 33 38 -37 37 -36 -27 -33z m-119 -49 l29
-35 -34 -40 c-18 -22 -36 -40 -39 -40 -10 0 -29 49 -29 75 0 35 18 75 32 74 7
0 26 -16 41 -34z m191 19 c14 -36 4 -124 -14 -124 -4 0 -20 16 -34 35 l-27 35
28 35 c31 39 38 42 47 19z m-77 -136 c18 -18 33 -35 33 -39 0 -4 -18 -21 -39
-39 l-40 -31 -35 38 -35 38 32 33 c17 17 35 32 41 32 6 0 25 -14 43 -32z
m-102 -134 c9 -14 14 -33 10 -42 -5 -13 -10 -11 -25 13 -21 32 -26 55 -11 55
5 0 16 -12 26 -26z m120 -23 c-3 -12 -13 -21 -21 -21 -9 0 -12 5 -8 13 23 40
41 46 29 8z m-105 -2034 c0 -19 -30 -58 -40 -52 -5 3 -1 19 8 35 18 31 32 39
32 17z m120 -39 c0 -14 -17 -8 -34 11 -10 11 -15 25 -11 32 6 8 13 5 26 -12
10 -13 19 -27 19 -31z m-40 -63 l34 -35 -37 -37 -37 -37 -35 34 c-19 19 -35
39 -35 46 0 12 58 64 71 64 3 0 20 -16 39 -35z m-117 -109 c15 -19 27 -39 27
-43 0 -4 -14 -23 -31 -42 -35 -38 -48 -33 -56 25 -5 39 9 94 24 94 5 0 20 -16
36 -34z m201 12 c10 -39 7 -93 -7 -112 -12 -17 -15 -15 -40 17 -15 20 -27 39
-27 42 0 10 52 75 60 75 4 0 10 -10 14 -22z m-84 -133 l34 -35 -36 -36 -36
-37 -36 29 c-20 16 -36 33 -36 39 0 10 60 75 70 75 3 0 21 -16 40 -35z m-96
-137 c18 -25 21 -48 6 -48 -8 0 -40 51 -40 65 0 13 20 3 34 -17z m136 5 c0 -5
-9 -19 -19 -32 -13 -17 -20 -20 -26 -12 -4 7 1 21 11 32 17 19 34 25 34 12z"/>
</g>
</svg>
