<?xml version="1.0" standalone="no"?>
<!DOCTYPE svg PUBLIC "-//W3C//DTD SVG 20010904//EN"
 "http://www.w3.org/TR/2001/REC-SVG-20010904/DTD/svg10.dtd">
<svg version="1.0" xmlns="http://www.w3.org/2000/svg"
 width="2550.000000pt" height="2700.000000pt" viewBox="0 0 2550.000000 2700.000000"
 preserveAspectRatio="xMidYMid meet">

<g transform="translate(0.000000,2700.000000) scale(0.100000,-0.100000)"
fill="#C5C3C1" stroke="none">
<path d="M19037 23251 l-48 -48 1 -753 1 -753 -23 -24 c-21 -22 -21 -25 -6
-51 14 -24 15 -30 2 -55 -14 -25 -13 -30 6 -56 13 -19 20 -44 20 -73 0 -37 -8
-52 -49 -102 -27 -32 -51 -67 -54 -76 -3 -10 4 -37 14 -61 l19 -42 -24 -38
c-48 -71 -46 -101 9 -170 30 -38 33 -48 28 -88 -4 -42 -2 -49 26 -75 37 -36
40 -74 10 -116 -20 -27 -21 -31 -7 -52 14 -21 14 -27 1 -52 -14 -26 -13 -31 6
-57 21 -28 21 -34 21 -694 0 -666 0 -666 -21 -695 -21 -28 -21 -30 -5 -54 15
-24 15 -28 0 -52 -16 -24 -16 -26 5 -54 14 -20 21 -44 21 -73 0 -37 -6 -51
-40 -90 -22 -25 -47 -61 -54 -79 -13 -30 -13 -38 3 -73 l18 -40 -30 -48 c-37
-60 -33 -97 16 -162 30 -39 34 -50 30 -87 -4 -38 -1 -46 26 -72 37 -36 42 -84
11 -123 -18 -23 -18 -28 -5 -53 12 -24 12 -30 -2 -49 -14 -21 -14 -25 6 -52
21 -28 21 -29 21 -839 l0 -810 -32 -20 c-18 -11 -37 -21 -42 -23 -5 -2 -1 -15
8 -29 20 -30 11 -60 -24 -78 -13 -7 -20 -21 -20 -42 l0 -31 118 6 c64 4 141 7
170 7 48 0 52 2 52 23 0 16 -9 28 -25 35 -32 15 -43 57 -21 81 21 23 20 28 -8
35 -59 15 -56 -36 -56 841 0 777 1 806 19 836 18 29 18 34 4 56 -12 18 -13 27
-4 36 16 16 14 49 -6 77 -22 32 -18 66 14 109 15 19 28 52 31 78 3 28 17 64
38 95 41 61 44 105 9 166 -20 36 -23 47 -13 65 26 50 5 118 -56 176 -31 30
-36 42 -36 79 0 25 6 50 15 58 18 18 20 55 4 71 -8 8 -6 19 5 41 14 28 14 32
-4 55 -19 24 -20 43 -20 691 0 608 1 669 17 692 14 22 15 31 5 57 -8 21 -8 35
-2 41 16 16 12 52 -9 77 -22 28 -15 67 22 123 18 25 27 52 27 76 0 22 7 43 16
51 26 21 54 86 54 124 0 20 -9 53 -19 74 -16 29 -19 50 -14 93 6 62 -7 96 -63
158 -38 41 -53 104 -29 118 25 15 35 48 20 69 -11 16 -12 27 -3 51 10 25 9 34
-5 56 -16 23 -17 92 -17 819 0 624 -3 797 -12 805 -10 7 -26 -2 -61 -37z m31
-1890 c3 -16 -1 -22 -10 -19 -7 3 -15 15 -16 27 -3 16 1 22 10 19 7 -3 15 -15
16 -27z m-56 -66 c10 -23 8 -29 -22 -60 -19 -19 -38 -35 -42 -35 -15 0 -8 55
12 88 24 39 37 40 52 7z m126 0 c7 -14 12 -34 12 -43 0 -13 -5 -11 -26 10 -17
16 -24 32 -21 42 9 23 22 20 35 -9z m-25 -103 l37 -38 -36 -43 -37 -42 -43 42
-44 43 37 38 c20 21 40 38 43 38 3 0 23 -17 43 -38z m-99 -141 c20 -22 20 -22
-17 -59 l-37 -37 -21 22 c-25 24 -30 93 -9 118 11 13 15 13 39 -4 14 -10 35
-29 45 -40z m168 22 c4 -34 -7 -92 -20 -105 -6 -6 -17 3 -29 24 l-20 33 26 37
c31 45 39 47 43 11z m-83 -119 c27 -34 26 -42 -6 -76 l-27 -28 -33 32 -33 32
32 33 c18 18 35 33 39 33 4 0 17 -12 28 -26z m-29 -2144 c0 -27 -17 -34 -29
-12 -7 13 -7 22 1 30 15 15 28 6 28 -18z m-81 -121 c-17 -21 -35 -39 -41 -39
-15 0 -3 66 18 98 l17 26 18 -23 c19 -23 19 -24 -12 -62z m158 34 c18 -44 10
-53 -22 -23 -24 23 -32 50 -19 63 11 11 25 -4 41 -40z m-42 -163 l-39 -40 -38
37 c-21 20 -38 41 -38 45 0 4 17 23 38 42 l37 35 40 -39 39 -40 -39 -40z
m-123 -41 l39 -40 -28 -34 c-35 -42 -55 -40 -70 7 -11 34 -2 108 14 108 3 0
23 -18 45 -41z m198 -20 c0 -48 -13 -89 -28 -89 -4 0 -16 15 -26 34 l-18 34
27 36 c15 20 31 36 36 36 5 0 9 -23 9 -51z m-86 -100 c14 -17 26 -34 26 -38 0
-4 -13 -20 -30 -36 l-30 -29 -30 29 c-16 16 -30 33 -30 39 0 12 50 66 61 66 4
0 19 -14 33 -31z"/>
</g>
</svg>
