<?xml version="1.0" standalone="no"?>
<!DOCTYPE svg PUBLIC "-//W3C//DTD SVG 20010904//EN"
 "http://www.w3.org/TR/2001/REC-SVG-20010904/DTD/svg10.dtd">
<svg version="1.0" xmlns="http://www.w3.org/2000/svg"
 width="2550.000000pt" height="2700.000000pt" viewBox="0 0 2550.000000 2700.000000"
 preserveAspectRatio="xMidYMid meet">

<g transform="translate(0.000000,2700.000000) scale(0.100000,-0.100000)"
fill="#C5C3C1" stroke="none">
<path d="M9110 14108 c-1 -7 -1 -450 0 -984 0 -865 -2 -973 -16 -985 -30 -25
-36 -47 -18 -75 16 -24 16 -27 0 -55 -18 -31 -14 -46 23 -75 11 -8 13 -25 8
-68 -5 -50 -12 -64 -61 -123 -63 -76 -71 -112 -36 -167 l19 -32 -25 -38 c-55
-81 -54 -97 16 -191 30 -41 36 -57 32 -83 -3 -26 2 -43 27 -77 38 -53 40 -91
6 -124 -29 -27 -30 -34 -9 -66 15 -23 15 -27 0 -50 -17 -26 -15 -36 11 -67 13
-14 15 -128 15 -752 l0 -735 -21 -27 c-12 -15 -20 -30 -18 -33 30 -57 30 -61
14 -79 -22 -24 -22 -29 9 -69 23 -31 25 -40 19 -88 -5 -42 -14 -63 -44 -97
-79 -91 -88 -124 -50 -184 l20 -34 -36 -59 c-43 -70 -42 -80 21 -162 38 -50
42 -61 37 -93 -5 -31 -1 -43 26 -76 38 -48 40 -86 6 -119 -29 -27 -30 -34 -9
-66 15 -23 15 -27 -1 -51 -16 -25 -16 -28 5 -56 l21 -29 1 -1357 c0 -746 -3
-1365 -7 -1374 -3 -9 -24 -24 -46 -32 l-40 -16 22 -29 c25 -35 15 -62 -32 -86
-26 -14 -30 -21 -27 -52 3 -32 8 -38 40 -49 20 -7 53 -20 73 -30 30 -14 42
-15 78 -5 23 7 80 18 127 24 l85 12 3 41 c3 35 0 42 -23 52 -14 6 -30 23 -37
37 -10 22 -8 29 12 50 l23 24 -29 13 c-16 6 -39 21 -51 32 l-23 19 0 1362 c0
1348 0 1362 20 1380 22 20 26 55 9 72 -8 8 -7 21 2 47 12 33 11 38 -9 65 -29
39 -28 78 3 123 13 20 27 52 29 72 2 19 16 50 30 69 33 43 56 99 56 135 0 16
-11 49 -24 74 -21 39 -22 47 -10 69 31 56 11 122 -65 213 -49 58 -55 108 -19
157 19 26 21 33 10 62 -9 25 -9 40 0 64 10 26 8 34 -10 61 l-22 30 0 729 c0
717 0 730 20 748 23 21 25 46 8 75 -10 16 -10 24 0 40 17 27 15 43 -8 73 -21
27 -27 91 -10 102 19 12 51 86 45 104 -3 11 6 32 26 57 65 80 73 131 33 204
-25 45 -25 49 -10 78 31 60 16 110 -56 187 -33 37 -40 52 -45 100 -5 49 -3 59
17 80 22 23 22 27 10 65 -10 31 -11 43 -2 52 17 17 14 39 -8 68 -19 24 -20 48
-20 1001 0 881 -2 977 -16 983 -30 12 -124 7 -124 -6z m95 -2318 c5 -17 -9
-60 -20 -60 -3 0 -12 11 -21 25 -13 20 -14 28 -4 40 17 21 37 19 45 -5z m-84
-82 c10 -13 18 -26 19 -30 0 -13 -73 -87 -81 -82 -5 3 -9 15 -9 27 0 24 35
107 45 107 4 0 15 -10 26 -22z m162 -13 c9 -20 17 -48 17 -63 l0 -27 -36 36
c-32 33 -34 38 -23 62 16 35 22 34 42 -8z m-51 -112 c21 -20 38 -42 38 -48 0
-6 -17 -28 -38 -48 l-38 -37 -47 42 -48 42 43 43 c23 24 44 43 47 43 3 0 22
-17 43 -37z m-118 -217 c-35 -42 -48 -44 -62 -8 -20 50 -23 77 -12 107 l11 29
46 -46 46 -47 -29 -35z m204 54 c-3 -36 -11 -67 -20 -76 -14 -14 -17 -12 -37
21 l-21 36 32 40 c17 21 36 39 41 39 5 0 8 -26 5 -60z m-99 -99 c12 -16 21
-35 21 -42 0 -15 -39 -59 -52 -59 -10 0 -57 51 -58 62 0 10 51 68 60 68 5 0
18 -13 29 -29z m-17 -2341 c3 -29 -19 -34 -35 -8 -8 12 -7 21 3 33 16 19 28 9
32 -25z m-72 -115 c-7 -14 -24 -34 -37 -47 -47 -44 -56 19 -12 91 l20 33 21
-27 c18 -23 19 -30 8 -50z m154 35 c26 -65 21 -80 -15 -44 -24 25 -29 36 -24
57 10 37 20 34 39 -13z m-42 -107 c21 -20 38 -41 38 -45 0 -4 -16 -26 -36 -48
l-36 -40 -50 41 -49 42 42 43 c24 24 45 44 48 44 3 0 22 -17 43 -37z m-127
-143 l39 -40 -37 -38 -38 -37 -19 23 c-25 30 -35 84 -21 111 17 30 32 26 76
-19z m205 -9 c0 -41 -17 -101 -29 -101 -4 0 -15 16 -24 35 -17 36 -17 36 10
70 16 19 31 35 36 35 4 0 7 -17 7 -39z m-89 -122 l22 -31 -31 -31 -31 -31 -26
24 c-31 29 -31 34 -2 70 29 37 41 37 68 -1z"/>
</g>
</svg>
