<?xml version="1.0" standalone="no"?>
<!DOCTYPE svg PUBLIC "-//W3C//DTD SVG 20010904//EN"
 "http://www.w3.org/TR/2001/REC-SVG-20010904/DTD/svg10.dtd">
<svg version="1.0" xmlns="http://www.w3.org/2000/svg"
 width="2550.000000pt" height="2700.000000pt" viewBox="0 0 2550.000000 2700.000000"
 preserveAspectRatio="xMidYMid meet">

<g transform="translate(0.000000,2700.000000) scale(0.100000,-0.100000)"
fill="#C5C3C1" stroke="none">
<path d="M23912 26943 c-1 -45 3 -62 18 -78 33 -35 36 -76 6 -104 -29 -28 -32
-47 -11 -75 13 -17 13 -22 0 -42 -20 -31 -19 -47 5 -69 20 -18 20 -31 20 -750
l0 -732 -22 -28 c-20 -26 -20 -28 -4 -56 16 -27 16 -31 0 -58 -17 -29 -17 -30
10 -62 29 -34 29 -32 10 -129 -3 -19 -25 -60 -49 -91 -69 -90 -69 -90 -39
-152 l27 -55 -31 -56 c-18 -31 -32 -63 -32 -72 0 -9 22 -44 50 -79 44 -55 49
-66 43 -98 -4 -30 -1 -42 21 -67 33 -40 33 -76 -1 -112 -27 -28 -27 -29 -9
-59 16 -28 16 -32 2 -54 -21 -31 -20 -37 4 -63 20 -21 20 -33 18 -909 l-3
-888 -35 -17 c-19 -9 -39 -19 -45 -21 -5 -2 -2 -11 8 -21 25 -25 21 -61 -9
-85 -14 -11 -30 -21 -36 -23 -6 -2 -9 -9 -6 -14 5 -8 345 31 356 41 2 2 -2 13
-8 25 -10 19 -9 27 8 50 l21 27 -40 13 c-22 8 -44 21 -50 31 -5 11 -9 365 -9
889 l0 872 25 30 c25 29 25 30 8 59 -16 27 -16 31 -1 57 15 26 15 28 -8 57
-30 37 -31 87 -4 125 11 16 23 43 27 60 3 18 21 55 39 82 52 77 62 121 40 177
-20 51 -21 66 -11 129 10 56 -13 116 -67 171 -34 36 -42 52 -46 92 -4 41 -1
53 22 79 26 31 26 32 9 61 -16 27 -16 31 0 58 17 29 17 30 -8 59 l-25 30 0
722 0 721 26 34 c25 33 25 34 8 60 -16 25 -16 28 0 56 16 27 16 30 -1 54 -10
13 -21 25 -25 25 -17 0 -6 72 17 116 14 26 25 55 25 65 0 10 5 21 10 24 22 13
8 25 -30 25 -32 0 -40 -4 -40 -18 0 -11 -9 -27 -21 -38 -21 -19 -21 -19 -45
11 -13 17 -24 33 -24 38 0 4 -19 7 -43 7 l-43 0 -2 -57z m146 -2236 c4 -41 -3
-45 -30 -20 -21 19 -23 34 -6 51 20 20 33 8 36 -31z m87 -93 c16 -46 3 -56
-25 -22 -19 23 -26 59 -13 72 10 10 23 -7 38 -50z m-160 21 c14 -14 25 -29 25
-33 0 -4 -20 -27 -43 -50 -39 -38 -45 -41 -57 -27 -18 21 -6 82 21 111 13 13
24 24 25 24 2 0 15 -11 29 -25z m145 -184 c-11 -14 -28 -37 -39 -51 l-20 -25
-48 47 -47 48 44 45 44 45 43 -42 42 -41 -19 -26z m-120 -116 c0 -6 -16 -26
-35 -45 l-35 -34 -27 27 c-32 32 -36 86 -9 116 18 20 19 20 62 -17 24 -20 44
-41 44 -47z m160 33 c0 -40 -21 -99 -34 -95 -5 2 -14 16 -19 31 -7 21 -4 34
15 61 29 43 38 44 38 3z m-94 -105 c19 -25 17 -64 -5 -90 -11 -13 -22 -23 -26
-23 -11 0 -44 44 -45 59 0 13 47 71 58 71 3 0 11 -8 18 -17z"/>
</g>
</svg>
