<?xml version="1.0" standalone="no"?>
<!DOCTYPE svg PUBLIC "-//W3C//DTD SVG 20010904//EN"
 "http://www.w3.org/TR/2001/REC-SVG-20010904/DTD/svg10.dtd">
<svg version="1.0" xmlns="http://www.w3.org/2000/svg"
 width="2550.000000pt" height="2700.000000pt" viewBox="0 0 2550.000000 2700.000000"
 preserveAspectRatio="xMidYMid meet">

<g transform="translate(0.000000,2700.000000) scale(0.100000,-0.100000)"
fill="#C5C3C1" stroke="none">
<path d="M9309 14115 c-3 -3 -4 -428 -1 -944 l5 -939 -26 -33 c-25 -32 -25
-34 -9 -61 15 -26 15 -30 -1 -58 -18 -29 -18 -30 7 -55 30 -30 34 -71 10 -116
-8 -17 -13 -37 -10 -44 3 -8 -17 -42 -45 -76 -57 -71 -62 -102 -27 -173 l21
-44 -21 -26 c-28 -36 -36 -79 -21 -108 7 -13 30 -46 51 -74 25 -33 38 -61 38
-81 0 -17 7 -36 15 -43 19 -16 20 -86 1 -97 -28 -17 -36 -48 -19 -73 14 -20
14 -25 0 -49 -16 -28 -9 -57 20 -74 11 -7 13 -136 13 -718 l0 -710 -26 -34
c-25 -33 -25 -35 -9 -63 16 -27 16 -31 1 -54 -16 -25 -16 -27 9 -56 29 -34 32
-70 9 -113 -8 -16 -12 -38 -9 -48 3 -12 -8 -33 -33 -62 -22 -24 -47 -59 -56
-78 -17 -33 -17 -34 11 -90 l28 -58 -29 -46 c-35 -56 -32 -73 28 -152 30 -39
46 -71 46 -90 0 -16 7 -39 15 -49 22 -30 18 -74 -10 -108 -24 -28 -24 -31 -9
-59 14 -28 14 -33 -1 -55 -16 -26 -14 -35 16 -69 17 -19 18 -80 16 -1336 -2
-1448 3 -1336 -65 -1365 -33 -13 -34 -15 -18 -32 32 -36 13 -82 -41 -103 -20
-7 -24 -15 -21 -41 l3 -33 105 -21 105 -20 105 26 c104 26 105 26 108 58 3 26
-2 33 -27 47 -47 24 -57 51 -32 86 l22 29 -41 16 c-22 9 -45 25 -50 35 -6 11
-10 500 -10 1329 0 1297 0 1311 20 1332 22 24 26 58 9 75 -8 8 -7 21 2 47 12
33 11 38 -9 59 -26 27 -29 79 -7 117 8 14 14 33 15 44 0 10 15 35 34 56 18 20
41 58 51 84 18 47 18 48 -3 98 -19 46 -20 53 -7 79 32 60 14 137 -46 207 -16
18 -29 41 -29 50 0 10 -7 27 -15 38 -16 22 -20 104 -5 104 22 0 33 47 20 80
-10 23 -10 34 -1 43 17 17 13 52 -9 72 -20 18 -20 31 -20 730 0 699 0 712 20
730 22 20 26 55 8 73 -9 9 -9 18 0 37 17 36 15 53 -8 72 -24 21 -26 79 -5 107
8 11 15 31 15 44 0 13 14 40 31 60 18 20 41 56 52 81 l19 44 -22 54 c-19 47
-21 58 -10 81 37 80 31 116 -35 196 -19 24 -35 52 -35 62 -1 10 -7 30 -15 44
-17 29 -20 100 -5 100 6 0 16 11 22 25 9 20 8 31 -2 51 -11 20 -12 29 -2 44
17 29 15 54 -8 75 -20 18 -20 33 -22 964 l-3 946 -65 3 c-36 2 -68 0 -71 -3z
m105 -2264 c16 -18 16 -21 1 -50 -19 -37 -30 -39 -56 -8 -23 27 -23 36 -2 59
21 23 36 23 57 -1z m-96 -101 c12 -16 22 -33 22 -37 0 -10 -72 -83 -82 -83
-14 0 -9 90 7 120 19 37 26 37 53 0z m175 -5 c18 -37 23 -95 9 -95 -12 0 -62
54 -62 68 0 16 22 62 30 62 3 0 14 -16 23 -35z m-31 -179 c-28 -34 -63 -66
-70 -66 -4 1 -27 19 -52 41 l-44 41 49 43 50 44 42 -42 c41 -40 42 -41 25 -61z
m-158 -75 l39 -39 -23 -36 c-12 -20 -26 -36 -31 -36 -21 0 -54 98 -44 131 9
27 16 24 59 -20z m206 -11 c0 -43 -25 -104 -39 -96 -5 3 -14 19 -21 35 -11 27
-9 33 17 65 15 20 31 36 36 36 4 0 7 -18 7 -40z m-90 -120 c11 -26 10 -33 -5
-50 -22 -24 -33 -25 -57 -3 -24 22 -23 33 8 66 29 31 36 30 54 -13z m-5 -2220
c15 -17 16 -24 5 -50 -15 -37 -24 -38 -55 -2 l-24 27 21 23 c26 27 30 27 53 2z
m-65 -140 c1 -14 -79 -82 -89 -76 -18 12 -12 79 10 115 l20 34 29 -34 c16 -19
29 -36 30 -39z m145 34 c16 -38 20 -95 8 -93 -5 0 -21 16 -36 34 -27 33 -28
35 -12 64 8 17 18 31 20 31 3 0 12 -16 20 -36z m-48 -116 c18 -18 33 -37 33
-43 0 -16 -60 -85 -74 -85 -12 1 -86 66 -86 77 0 11 73 83 84 83 6 0 25 -14
43 -32z m-135 -135 c21 -20 38 -41 38 -46 0 -4 -13 -22 -30 -40 -29 -31 -30
-31 -44 -12 -25 34 -38 92 -26 115 14 27 18 26 62 -17z m200 -20 c-3 -33 -26
-93 -37 -93 -3 0 -11 15 -18 33 -13 30 -12 34 16 69 17 21 33 36 36 33 3 -3 4
-22 3 -42z m-88 -115 c8 -23 6 -32 -14 -53 l-24 -25 -22 27 -21 27 20 28 c25
34 48 33 61 -4z"/>
</g>
</svg>
