<?xml version="1.0" standalone="no"?>
<!DOCTYPE svg PUBLIC "-//W3C//DTD SVG 20010904//EN"
 "http://www.w3.org/TR/2001/REC-SVG-20010904/DTD/svg10.dtd">
<svg version="1.0" xmlns="http://www.w3.org/2000/svg"
 width="2550.000000pt" height="2700.000000pt" viewBox="0 0 2550.000000 2700.000000"
 preserveAspectRatio="xMidYMid meet">

<g transform="translate(0.000000,2700.000000) scale(0.100000,-0.100000)"
fill="#C5C3C1" stroke="none">
<path d="M11975 16323 l-60 -67 -1 -681 c0 -638 -1 -682 -18 -708 -15 -23 -16
-32 -7 -55 9 -22 9 -35 0 -56 -11 -23 -10 -30 9 -56 29 -38 28 -72 -3 -108
-31 -37 -45 -74 -38 -100 3 -13 -8 -38 -30 -70 -51 -75 -54 -96 -20 -162 27
-52 28 -58 15 -90 -20 -50 -8 -91 45 -150 38 -42 47 -60 51 -98 3 -39 0 -50
-17 -66 -24 -22 -26 -38 -9 -66 10 -16 10 -24 0 -40 -16 -27 -15 -40 6 -63 16
-18 17 -63 14 -705 -2 -586 -5 -689 -17 -702 -18 -20 -19 -34 -3 -60 10 -15 9
-24 -2 -44 -10 -20 -11 -31 -2 -51 6 -14 16 -25 22 -25 22 0 9 -62 -22 -100
-23 -29 -31 -51 -33 -82 -1 -31 -10 -55 -33 -87 -46 -64 -50 -100 -17 -165 22
-43 25 -57 16 -74 -14 -27 -14 -78 0 -104 6 -12 31 -46 55 -75 50 -61 56 -99
24 -140 -22 -29 -26 -53 -9 -70 8 -8 8 -21 -2 -47 -11 -31 -11 -38 4 -54 16
-17 17 -84 17 -844 0 -888 3 -839 -53 -853 -31 -8 -32 -11 -12 -31 25 -26 19
-63 -15 -82 -26 -14 -30 -22 -28 -52 3 -31 8 -36 48 -50 39 -14 65 -15 178 -7
l132 10 0 32 c0 23 -8 37 -30 53 -33 25 -39 56 -14 83 15 16 13 19 -24 38 -22
11 -42 27 -46 36 -3 9 -6 380 -6 823 0 786 1 808 20 832 23 29 24 43 8 70 -10
15 -9 24 2 45 12 23 11 28 -8 55 -33 44 -29 97 11 150 87 116 89 121 62 174
-20 37 -20 38 15 93 17 26 30 55 30 64 0 10 -20 46 -44 81 -35 52 -42 70 -38
97 3 25 -3 42 -27 76 -30 42 -43 105 -21 105 21 0 32 41 19 71 -9 24 -9 35 1
55 12 21 11 28 -8 54 l-22 29 0 676 c0 667 0 676 21 704 17 24 18 31 8 54 -10
22 -10 32 1 52 12 22 11 29 -8 55 -37 49 -30 98 21 162 72 88 79 110 52 162
-15 28 -14 33 15 87 36 68 34 89 -18 157 -29 38 -35 54 -33 88 1 32 -5 48 -29
79 -35 44 -39 86 -10 117 22 24 26 43 10 53 -13 8 -13 41 2 64 9 15 7 24 -10
49 -22 30 -22 30 -24 776 l-3 746 -60 -67z m39 -1839 l29 -36 -32 -31 -31 -31
-30 29 c-16 16 -30 33 -30 39 0 10 50 66 59 66 3 0 19 -16 35 -36z m-106 -109
l23 -36 -33 -39 c-18 -22 -36 -40 -39 -40 -22 0 -20 90 3 133 13 24 20 21 46
-18z m190 18 c18 -34 23 -80 12 -108 l-11 -29 -35 36 c-40 43 -41 49 -12 88
25 35 34 37 46 13z m-76 -140 l38 -37 -37 -38 c-20 -21 -40 -38 -45 -38 -12 0
-78 61 -78 73 0 9 69 77 80 77 2 0 21 -17 42 -37z m-113 -135 c24 -27 27 -36
18 -55 -14 -31 -22 -29 -41 11 -15 33 -22 76 -11 76 3 0 18 -14 34 -32z m181
17 c0 -22 -26 -81 -39 -89 -6 -4 -16 4 -23 19 -10 23 -8 29 17 55 32 33 45 38
45 15z m-95 -126 c8 -23 -7 -45 -24 -35 -12 8 -15 39 -4 49 12 12 22 7 28 -14z
m35 -2144 c0 -6 -14 -24 -31 -41 l-30 -29 -29 35 -29 35 32 32 31 33 28 -27
c15 -15 28 -32 28 -38z m-130 -80 l21 -34 -28 -36 c-33 -42 -39 -43 -47 -10
-7 26 0 67 16 98 12 23 13 22 38 -18z m198 10 c14 -29 16 -94 4 -112 -6 -9
-19 -2 -47 27 l-38 39 27 36 c32 42 39 43 54 10z m-91 -127 c18 -18 33 -37 33
-43 0 -6 -16 -26 -35 -45 l-35 -34 -40 40 -40 39 31 38 c17 20 36 37 42 37 6
0 26 -14 44 -32z m83 -118 c0 -28 -32 -90 -46 -90 -11 0 -24 21 -24 40 0 12
50 70 61 70 5 0 9 -9 9 -20z m-182 -29 c21 -28 21 -61 0 -61 -9 0 -38 60 -38
80 0 18 16 10 38 -19z m80 -127 c-15 -15 -16 -15 -23 5 -9 31 4 46 23 27 15
-15 15 -17 0 -32z"/>
</g>
</svg>
