<?xml version="1.0" standalone="no"?>
<!DOCTYPE svg PUBLIC "-//W3C//DTD SVG 20010904//EN"
 "http://www.w3.org/TR/2001/REC-SVG-20010904/DTD/svg10.dtd">
<svg version="1.0" xmlns="http://www.w3.org/2000/svg"
 width="2550.000000pt" height="2700.000000pt" viewBox="0 0 2550.000000 2700.000000"
 preserveAspectRatio="xMidYMid meet">

<g transform="translate(0.000000,2700.000000) scale(0.100000,-0.100000)"
fill="#C5C3C1" stroke="none">
<path d="M14632 18948 l-52 -54 0 -727 c0 -650 -1 -731 -16 -759 -13 -26 -14
-35 -3 -55 10 -19 10 -28 1 -43 -16 -26 -15 -40 4 -61 30 -33 24 -67 -18 -116
-36 -42 -39 -51 -36 -92 2 -39 -3 -55 -29 -97 -42 -64 -42 -102 -3 -159 28
-41 29 -45 15 -72 -27 -52 -18 -80 53 -155 40 -43 47 -96 18 -141 -16 -23 -17
-31 -6 -58 10 -23 10 -33 1 -42 -15 -15 -14 -37 4 -57 13 -14 15 -105 15 -683
0 -601 -1 -670 -16 -692 -13 -21 -14 -30 -5 -53 9 -22 9 -35 0 -56 -11 -23
-10 -30 10 -57 29 -39 22 -69 -25 -122 -31 -33 -35 -44 -33 -85 2 -39 -3 -55
-29 -91 -41 -57 -43 -110 -6 -165 24 -36 25 -41 14 -76 -17 -52 -7 -83 46
-140 52 -55 62 -99 32 -139 -21 -27 -23 -52 -7 -68 8 -8 8 -21 -2 -47 -11 -31
-11 -38 4 -54 16 -17 17 -109 17 -1255 0 -1110 -2 -1237 -16 -1251 -8 -9 -22
-16 -29 -16 -22 0 -27 -18 -11 -42 17 -28 5 -67 -24 -75 -15 -4 -20 -14 -20
-42 0 -34 3 -39 33 -48 17 -5 57 -8 87 -7 30 2 88 3 128 3 l72 1 0 31 c0 21
-9 38 -30 56 -34 28 -37 48 -12 76 13 15 14 21 4 24 -7 3 -26 16 -42 30 l-30
24 0 1230 c0 1227 0 1230 21 1258 17 24 18 31 8 54 -10 21 -10 33 0 54 10 23
9 30 -8 54 -34 46 -27 87 24 144 59 66 72 103 50 145 -16 31 -16 33 10 72 44
66 44 100 2 161 -31 45 -36 58 -31 89 7 39 -15 85 -56 123 -20 18 -29 85 -12
85 18 0 29 44 18 71 -7 20 -6 35 2 53 9 20 8 29 -9 49 -18 24 -19 46 -19 686
0 629 1 662 19 692 15 25 17 36 8 60 -9 23 -9 34 2 51 11 18 10 24 -8 49 -28
37 -27 90 0 115 49 43 79 96 79 139 0 22 -5 46 -11 52 -8 8 -3 22 16 51 15 22
29 58 32 79 4 32 -1 46 -31 90 -28 41 -34 58 -30 81 7 35 -16 89 -52 123 -29
27 -32 71 -5 105 16 20 17 29 8 53 -8 22 -8 36 0 54 9 20 8 30 -8 56 -18 30
-19 63 -21 806 l-3 776 -53 -53z m46 -1929 l34 -30 -27 -35 c-14 -18 -32 -34
-39 -34 -14 0 -66 51 -66 65 0 10 51 65 59 65 3 0 21 -14 39 -31z m-78 -149
c0 -3 -18 -23 -40 -45 l-39 -38 -11 29 c-12 30 -6 84 12 118 10 18 13 16 44
-20 18 -21 33 -41 34 -44z m160 50 c14 -26 9 -115 -6 -115 -6 0 -23 14 -38 32
l-27 32 23 35 c27 41 33 43 48 16z m-70 -205 c-19 -19 -39 -35 -45 -35 -6 0
-26 16 -45 35 l-34 35 39 40 39 40 40 -40 40 -40 -34 -35z m-112 -55 c23 -29
23 -70 2 -70 -13 0 -40 54 -40 80 0 27 11 24 38 -10z m145 -30 c-17 -42 -30
-50 -39 -25 -7 17 33 78 46 70 5 -3 1 -23 -7 -45z m-73 -85 c0 -8 -7 -15 -15
-15 -16 0 -20 12 -8 23 11 12 23 8 23 -8z m22 -2052 c35 -33 35 -40 1 -75 -35
-36 -45 -35 -78 8 l-27 36 28 29 c34 36 41 36 76 2z m-108 -114 l27 -40 -28
-34 c-15 -18 -33 -34 -39 -34 -12 -1 -24 30 -24 62 0 18 26 87 33 87 2 0 16
-18 31 -41z m205 -44 c1 -68 -13 -76 -55 -33 l-37 36 33 42 33 42 13 -24 c7
-12 13 -41 13 -63z m-89 -150 c-19 -19 -39 -35 -45 -35 -6 0 -26 16 -45 35
l-34 35 39 40 39 40 40 -40 40 -40 -34 -35z m-103 -63 c16 -21 18 -33 11 -46
-9 -17 -12 -16 -29 10 -19 30 -25 64 -11 64 5 0 18 -13 29 -28z m163 23 c0
-18 -42 -85 -50 -80 -15 9 -12 34 8 60 15 22 42 34 42 20z m-90 -131 c0 -17
-22 -14 -28 4 -2 7 3 12 12 12 9 0 16 -7 16 -16z"/>
</g>
</svg>
