<?xml version="1.0" standalone="no"?>
<!DOCTYPE svg PUBLIC "-//W3C//DTD SVG 20010904//EN"
 "http://www.w3.org/TR/2001/REC-SVG-20010904/DTD/svg10.dtd">
<svg version="1.0" xmlns="http://www.w3.org/2000/svg"
 width="2550.000000pt" height="2700.000000pt" viewBox="0 0 2550.000000 2700.000000"
 preserveAspectRatio="xMidYMid meet">

<g transform="translate(0.000000,2700.000000) scale(0.100000,-0.100000)"
fill="#65340A" stroke="none">
<path d="M9270 14995 c0 -1241 -1 -1275 -19 -1275 -48 0 -49 -111 -2 -118 21
-3 22 -8 18 -45 -3 -23 -15 -73 -27 -112 -28 -91 -24 -241 9 -325 28 -73 28
-108 -1 -112 -46 -6 -44 -118 2 -118 20 0 20 -1 20 -1394 0 -1526 4 -1417 -56
-1432 -27 -7 -31 -19 -9 -28 23 -8 18 -42 -10 -64 -17 -14 -25 -30 -25 -51 l0
-31 123 1 c168 0 201 7 205 41 2 19 -3 30 -17 38 -35 18 -45 49 -25 71 9 10
15 20 13 22 -2 1 -17 9 -34 17 l-30 16 -3 1397 c-2 1223 0 1397 13 1397 27 0
45 62 29 104 -3 9 -15 16 -26 16 -18 0 -19 5 -15 43 3 23 13 67 22 97 26 82
24 237 -3 317 -29 83 -29 125 1 138 18 8 22 18 22 55 0 37 -4 47 -22 55 l-23
10 -2 1270 -3 1270 -62 3 -63 3 0 -1276z m76 -1739 c-4 -26 -11 -44 -17 -41
-11 7 -12 145 -2 172 12 29 27 -77 19 -131z"/>
</g>
</svg>
