<?xml version="1.0" standalone="no"?>
<!DOCTYPE svg PUBLIC "-//W3C//DTD SVG 20010904//EN"
 "http://www.w3.org/TR/2001/REC-SVG-20010904/DTD/svg10.dtd">
<svg version="1.0" xmlns="http://www.w3.org/2000/svg"
 width="2550.000000pt" height="2700.000000pt" viewBox="0 0 2550.000000 2700.000000"
 preserveAspectRatio="xMidYMid meet">

<g transform="translate(0.000000,2700.000000) scale(0.100000,-0.100000)"
fill="#65340A" stroke="none">
<path d="M4223 14118 l-73 -91 0 -1188 0 -1189 -25 0 c-25 0 -55 -41 -55 -74
0 -37 23 -66 53 -66 29 0 29 -1 24 -47 -2 -27 -17 -77 -32 -113 -22 -51 -29
-85 -33 -161 -5 -108 7 -179 44 -252 32 -65 31 -123 -4 -120 -17 2 -26 -6 -39
-32 -25 -53 -8 -91 50 -109 16 -5 17 -86 17 -1525 l0 -1520 -27 -20 c-14 -12
-37 -24 -50 -27 l-24 -6 23 -25 c21 -22 21 -26 8 -51 -9 -15 -26 -31 -38 -37
-31 -13 -28 -77 3 -80 106 -13 210 -12 290 3 89 17 90 18 93 48 3 27 -2 35
-32 52 -39 23 -48 59 -21 82 23 19 19 26 -25 39 -27 8 -41 19 -45 34 -3 12 -4
702 -3 1532 l3 1510 23 3 c43 6 61 89 29 130 -5 6 -20 12 -33 12 -21 0 -24 5
-24 34 0 18 11 58 25 89 56 122 57 301 1 422 -15 34 -26 75 -26 101 0 40 2 44
24 44 63 0 70 125 8 132 l-27 3 -5 1277 -5 1278 -72 -92z m27 -2880 c13 -85
-6 -228 -30 -228 -14 0 -32 139 -25 188 10 75 26 125 35 116 5 -5 14 -39 20
-76z"/>
</g>
</svg>
