<?xml version="1.0" standalone="no"?>
<!DOCTYPE svg PUBLIC "-//W3C//DTD SVG 20010904//EN"
 "http://www.w3.org/TR/2001/REC-SVG-20010904/DTD/svg10.dtd">
<svg version="1.0" xmlns="http://www.w3.org/2000/svg"
 width="2550.000000pt" height="2700.000000pt" viewBox="0 0 2550.000000 2700.000000"
 preserveAspectRatio="xMidYMid meet">

<g transform="translate(0.000000,2700.000000) scale(0.100000,-0.100000)"
fill="#65340A" stroke="none">
<path d="M7036 16433 c-3 -4 -6 -624 -6 -1380 0 -1358 0 -1373 -20 -1373 -23
0 -40 -28 -40 -65 0 -37 17 -65 40 -65 29 0 26 -51 -7 -147 -37 -110 -37 -236
0 -346 33 -95 35 -137 7 -137 -23 0 -40 -28 -40 -65 0 -37 17 -65 40 -65 20 0
20 -16 20 -1499 0 -1350 -2 -1501 -16 -1515 -8 -9 -21 -16 -27 -16 -7 0 -19
-4 -27 -10 -12 -7 -12 -12 4 -29 23 -26 13 -57 -24 -76 -23 -12 -28 -21 -26
-42 3 -28 4 -28 107 -40 62 -7 116 -8 134 -3 17 5 51 11 78 15 45 6 47 7 47
39 0 25 -6 35 -25 44 -19 9 -25 19 -25 42 0 18 6 33 15 36 24 10 17 22 -15 29
-65 14 -60 -111 -60 1530 l0 1494 22 3 c54 7 60 116 8 128 -21 5 -25 12 -24
41 1 18 12 61 24 94 42 112 37 293 -12 388 -25 50 -22 112 7 112 51 0 56 113
5 125 l-25 6 -3 1367 -2 1366 -38 6 c-20 3 -49 8 -63 10 -15 2 -29 1 -33 -2z
m78 -3105 c8 -32 6 -179 -3 -202 -18 -45 -35 67 -26 160 8 66 18 81 29 42z"/>
</g>
</svg>
