<?xml version="1.0" standalone="no"?>
<!DOCTYPE svg PUBLIC "-//W3C//DTD SVG 20010904//EN"
 "http://www.w3.org/TR/2001/REC-SVG-20010904/DTD/svg10.dtd">
<svg version="1.0" xmlns="http://www.w3.org/2000/svg"
 width="2550.000000pt" height="2700.000000pt" viewBox="0 0 2550.000000 2700.000000"
 preserveAspectRatio="xMidYMid meet">

<g transform="translate(0.000000,2700.000000) scale(0.100000,-0.100000)"
fill="#65340A" stroke="none">
<path d="M7620 15040 c0 -1335 0 -1350 -20 -1350 -23 0 -40 -28 -40 -65 0 -37
17 -65 40 -65 27 0 27 -48 0 -119 -45 -118 -45 -282 1 -388 10 -25 19 -60 19
-79 0 -29 -3 -34 -24 -34 -25 0 -36 -21 -36 -71 0 -26 27 -59 48 -59 9 0 12
-353 12 -1470 l0 -1470 -32 -20 c-18 -11 -37 -22 -43 -23 -5 -2 -2 -14 9 -25
22 -26 16 -46 -21 -69 -24 -15 -28 -23 -23 -48 l5 -30 105 -5 c58 -3 137 0
175 5 69 10 70 11 73 43 3 26 -1 34 -22 41 -35 14 -43 47 -17 75 l21 22 -38
13 c-20 8 -40 19 -44 25 -4 6 -8 669 -8 1473 l0 1462 28 13 c21 10 28 21 30
50 4 46 -12 78 -39 78 -19 0 -20 5 -16 38 3 20 15 64 28 97 33 86 32 244 0
330 -13 33 -24 80 -25 105 -1 37 2 45 19 48 27 6 35 20 35 62 0 42 -11 60 -36
64 -19 3 -19 35 -22 1343 l-2 1340 -38 7 c-20 3 -52 6 -69 6 l-33 0 0 -1350z
m85 -1839 c-5 -47 -10 -60 -18 -52 -13 13 -14 182 -1 203 14 21 26 -79 19
-151z"/>
</g>
</svg>
