<?xml version="1.0" standalone="no"?>
<!DOCTYPE svg PUBLIC "-//W3C//DTD SVG 20010904//EN"
 "http://www.w3.org/TR/2001/REC-SVG-20010904/DTD/svg10.dtd">
<svg version="1.0" xmlns="http://www.w3.org/2000/svg"
 width="2550.000000pt" height="2700.000000pt" viewBox="0 0 2550.000000 2700.000000"
 preserveAspectRatio="xMidYMid meet">

<g transform="translate(0.000000,2700.000000) scale(0.100000,-0.100000)"
fill="#65340A" stroke="none">
<path d="M14289 13523 c-1 -4 -2 -744 -3 -1643 l-1 -1635 -23 -3 c-30 -4 -45
-44 -39 -100 5 -50 9 -54 39 -56 19 -1 24 -7 26 -39 2 -21 -6 -66 -17 -100
-52 -158 -55 -370 -7 -510 32 -95 35 -147 7 -147 -27 0 -43 -24 -48 -74 -6
-51 8 -83 39 -88 l23 -3 3 -2254 c2 -2138 1 -2255 -15 -2274 -10 -10 -35 -28
-57 -39 -38 -19 -38 -20 -17 -35 34 -23 25 -71 -18 -100 -29 -20 -34 -29 -34
-61 l0 -37 144 -13 145 -13 69 30 c69 29 70 30 73 70 3 32 -1 43 -15 48 -53
19 -69 67 -33 103 21 21 21 22 -33 40 -23 7 -42 21 -46 33 -5 12 -9 1033 -10
2270 -1 1783 2 2247 12 2248 6 1 16 1 20 0 4 -1 14 14 22 34 28 64 14 119 -30
127 -30 5 -30 42 0 144 47 160 44 389 -6 517 -26 67 -23 131 8 135 23 3 43 45
43 91 0 30 -27 74 -40 66 -5 -3 -12 0 -17 7 -4 7 -8 744 -8 1638 l0 1625 -77
3 c-43 2 -79 -1 -79 -5z m78 -3860 c-2 -16 -4 -3 -4 27 0 30 2 43 4 28 2 -16
2 -40 0 -55z"/>
</g>
</svg>
