<?xml version="1.0" standalone="no"?>
<!DOCTYPE svg PUBLIC "-//W3C//DTD SVG 20010904//EN"
 "http://www.w3.org/TR/2001/REC-SVG-20010904/DTD/svg10.dtd">
<svg version="1.0" xmlns="http://www.w3.org/2000/svg"
 width="2550.000000pt" height="2700.000000pt" viewBox="0 0 2550.000000 2700.000000"
 preserveAspectRatio="xMidYMid meet">

<g transform="translate(0.000000,2700.000000) scale(0.100000,-0.100000)"
fill="#65340A" stroke="none">
<path d="M21041 24184 l-51 -46 0 -1529 c0 -1362 -2 -1528 -15 -1523 -26 10
-73 -16 -86 -48 -19 -45 8 -93 61 -109 37 -11 40 -15 40 -48 0 -23 -11 -52
-30 -79 -51 -77 -72 -147 -74 -247 -1 -104 17 -168 70 -246 26 -39 34 -61 34
-96 0 -45 -1 -45 -29 -40 -55 11 -94 -46 -71 -104 9 -20 24 -32 54 -42 l41
-14 0 -1669 0 -1669 -40 -20 c-22 -11 -42 -21 -43 -22 -2 -1 6 -15 19 -32 21
-28 21 -31 6 -55 -9 -13 -26 -27 -37 -31 -14 -5 -20 -15 -20 -37 l0 -30 103 6
c56 3 144 6 195 6 81 0 92 2 92 18 -1 9 -15 26 -33 37 -40 25 -46 59 -17 90
l21 23 -26 6 c-15 4 -38 18 -51 31 l-24 24 0 1666 0 1665 29 0 c15 0 40 9 55
21 47 37 28 119 -31 134 -63 16 -69 48 -19 118 18 26 44 79 56 117 19 60 22
85 18 163 -6 100 -25 157 -79 231 -25 35 -30 51 -27 87 3 43 4 44 35 41 42 -4
73 26 73 71 0 43 -11 58 -62 82 l-43 20 -2 1550 c-2 853 -5 1556 -8 1563 -8
22 -32 13 -84 -34z m79 -3465 c52 -110 49 -227 -8 -339 -30 -61 -62 -76 -88
-43 -24 32 -54 143 -54 202 0 97 61 241 101 241 14 0 28 -17 49 -61z"/>
</g>
</svg>
