<?xml version="1.0" standalone="no"?>
<!DOCTYPE svg PUBLIC "-//W3C//DTD SVG 20010904//EN"
 "http://www.w3.org/TR/2001/REC-SVG-20010904/DTD/svg10.dtd">
<svg version="1.0" xmlns="http://www.w3.org/2000/svg"
 width="2550.000000pt" height="2700.000000pt" viewBox="0 0 2550.000000 2700.000000"
 preserveAspectRatio="xMidYMid meet">

<g transform="translate(0.000000,2700.000000) scale(0.100000,-0.100000)"
fill="#65340A" stroke="none">
<path d="M13091 13683 l-31 -48 0 -1632 c0 -1566 -1 -1633 -18 -1633 -29 0
-42 -21 -42 -71 0 -63 7 -79 36 -79 22 0 24 -4 24 -47 0 -27 -10 -75 -21 -108
-48 -141 -47 -351 1 -478 11 -28 20 -71 20 -94 0 -36 -3 -43 -20 -43 -25 0
-40 -29 -40 -79 0 -55 8 -71 36 -71 l24 0 0 -2186 c0 -1343 -4 -2192 -9 -2203
-6 -10 -28 -26 -51 -36 l-40 -18 21 -23 c28 -30 19 -69 -21 -92 -25 -14 -30
-23 -30 -55 0 -21 5 -39 13 -41 6 -2 68 -8 136 -13 119 -8 126 -7 195 18 l71
26 3 42 c2 32 0 41 -12 41 -43 0 -73 74 -41 100 23 19 18 28 -24 41 -22 7 -43
19 -47 28 -4 9 -8 996 -10 2194 l-2 2178 23 9 c29 11 45 39 45 80 0 41 -16 70
-40 70 -36 0 -36 43 1 160 21 65 24 95 24 230 0 141 -3 162 -26 230 -31 89
-32 140 -1 151 27 10 42 39 42 81 0 40 -10 56 -41 72 l-24 12 0 1664 0 1665
-47 3 c-47 3 -48 2 -77 -45z m59 -3842 c0 -44 -4 -83 -10 -86 -9 -6 -12 14
-12 75 0 65 3 90 12 90 6 0 10 -33 10 -79z"/>
</g>
</svg>
