<?xml version="1.0" standalone="no"?>
<!DOCTYPE svg PUBLIC "-//W3C//DTD SVG 20010904//EN"
 "http://www.w3.org/TR/2001/REC-SVG-20010904/DTD/svg10.dtd">
<svg version="1.0" xmlns="http://www.w3.org/2000/svg"
 width="2550.000000pt" height="2700.000000pt" viewBox="0 0 2550.000000 2700.000000"
 preserveAspectRatio="xMidYMid meet">

<g transform="translate(0.000000,2700.000000) scale(0.100000,-0.100000)"
fill="#65340A" stroke="none">
<path d="M16768 20093 l-48 -48 0 -325 c0 -179 0 -839 0 -1467 l0 -1143 -29 0
c-87 0 -94 -123 -8 -143 36 -9 37 -10 37 -57 0 -27 -5 -52 -10 -55 -6 -4 -23
-32 -39 -63 -71 -142 -64 -302 19 -432 21 -33 30 -59 30 -88 0 -40 -1 -41 -37
-44 -30 -2 -41 -9 -52 -32 -20 -42 -4 -88 34 -100 17 -4 36 -11 43 -15 10 -5
13 -314 12 -1615 0 -884 -3 -1612 -6 -1618 -3 -5 -23 -16 -45 -24 l-39 -16 20
-25 c28 -35 25 -47 -16 -81 -30 -25 -35 -35 -32 -62 l3 -33 140 -2 c77 -2 162
0 190 4 46 6 50 8 56 39 6 29 3 34 -22 47 -45 24 -55 52 -30 86 l21 29 -37 15
c-21 9 -41 21 -45 28 -4 7 -8 738 -8 1625 l0 1612 34 0 c86 0 89 134 3 142
-29 3 -32 7 -35 38 -2 27 6 51 33 95 48 80 59 124 60 230 0 102 -19 170 -66
234 -23 33 -29 51 -29 92 0 50 1 51 27 46 53 -10 95 70 60 117 -7 10 -29 21
-47 25 l-35 7 -5 1509 -5 1510 -25 3 c-19 2 -37 -9 -72 -45z m75 -3340 c29
-61 32 -78 32 -158 0 -84 -3 -96 -35 -160 -19 -38 -39 -69 -45 -69 -18 -2 -63
97 -74 159 -7 39 -7 80 -2 116 14 83 58 179 82 179 5 0 24 -30 42 -67z"/>
</g>
</svg>
