<?xml version="1.0" standalone="no"?>
<!DOCTYPE svg PUBLIC "-//W3C//DTD SVG 20010904//EN"
 "http://www.w3.org/TR/2001/REC-SVG-20010904/DTD/svg10.dtd">
<svg version="1.0" xmlns="http://www.w3.org/2000/svg"
 width="2550.000000pt" height="2700.000000pt" viewBox="0 0 2550.000000 2700.000000"
 preserveAspectRatio="xMidYMid meet">

<g transform="translate(0.000000,2700.000000) scale(0.100000,-0.100000)"
fill="#65340A" stroke="none">
<path d="M17813 21089 l-53 -51 0 -1479 0 -1479 -28 0 c-55 0 -88 -62 -61
-113 16 -29 28 -37 62 -37 26 0 27 -2 27 -49 0 -28 -5 -53 -10 -56 -16 -10
-62 -105 -76 -160 -30 -110 -7 -251 56 -345 21 -32 30 -57 30 -87 0 -42 -1
-43 -34 -43 -86 0 -89 -134 -3 -142 l32 -3 0 -2105 0 -2105 -40 -20 c-22 -11
-41 -21 -43 -22 -2 -1 6 -11 17 -22 12 -12 21 -28 21 -36 0 -18 -44 -65 -60
-65 -7 0 -10 -15 -8 -37 l3 -38 120 -7 c72 -3 149 -2 193 5 l72 11 0 33 c0 26
-6 36 -29 48 -40 20 -48 50 -22 85 l20 28 -30 13 c-17 6 -37 18 -45 26 -12 12
-14 317 -14 2113 l0 2099 32 -1 c57 -2 88 69 52 120 -8 12 -24 22 -34 22 -62
0 -67 49 -15 136 49 81 60 124 60 234 0 105 -16 163 -67 237 -22 32 -28 53
-28 92 0 50 0 50 29 45 65 -13 99 83 45 125 -15 12 -37 21 -50 21 l-24 0 0
1524 c0 1380 -1 1524 -16 1530 -25 9 -26 9 -81 -45z m73 -3372 c25 -54 29 -74
29 -157 0 -88 -3 -101 -33 -163 -41 -83 -56 -84 -95 -7 -33 67 -44 162 -28
240 14 69 65 161 85 154 8 -3 27 -33 42 -67z"/>
</g>
</svg>
