<?xml version="1.0" standalone="no"?>
<!DOCTYPE svg PUBLIC "-//W3C//DTD SVG 20010904//EN"
 "http://www.w3.org/TR/2001/REC-SVG-20010904/DTD/svg10.dtd">
<svg version="1.0" xmlns="http://www.w3.org/2000/svg"
 width="2551.000000pt" height="2701.000000pt" viewBox="0 0 2551.000000 2701.000000"
 preserveAspectRatio="xMidYMid meet">

<g transform="translate(0.000000,2701.000000) scale(0.100000,-0.100000)"
fill="#C5C3C1" stroke="none">
<path d="M16478 22203 l-58 -46 0 -1706 0 -1706 -35 -19 -34 -19 19 -27 c29
-40 26 -76 -7 -97 -35 -22 -73 -61 -73 -75 0 -14 42 -58 56 -58 18 0 44 -35
44 -59 0 -12 -8 -33 -17 -48 -16 -24 -16 -26 2 -39 10 -8 25 -14 32 -14 11 0
13 -405 13 -2266 0 -1431 -4 -2272 -10 -2283 -5 -10 -23 -24 -40 -31 -28 -12
-29 -14 -15 -30 16 -17 20 -57 7 -76 -4 -6 -16 -16 -27 -22 -15 -8 -20 -19
-19 -45 1 -20 5 -40 9 -46 4 -7 61 -11 161 -11 l154 0 0 45 c0 25 -4 45 -9 45
-36 0 -55 76 -26 100 14 11 11 15 -17 33 -18 11 -36 25 -40 31 -4 6 -8 1033
-8 2282 l0 2270 36 17 35 17 -20 29 c-31 44 -26 64 29 110 28 23 50 50 50 59
0 18 -30 49 -65 67 -11 6 -24 23 -29 38 -8 22 -6 33 13 58 25 34 21 43 -26 55
l-23 6 -2 1754 -3 1754 -57 -47z"/>
</g>
</svg>
