<?xml version="1.0" standalone="no"?>
<!DOCTYPE svg PUBLIC "-//W3C//DTD SVG 20010904//EN"
 "http://www.w3.org/TR/2001/REC-SVG-20010904/DTD/svg10.dtd">
<svg version="1.0" xmlns="http://www.w3.org/2000/svg"
 width="2551.000000pt" height="2701.000000pt" viewBox="0 0 2551.000000 2701.000000"
 preserveAspectRatio="xMidYMid meet">

<g transform="translate(0.000000,2701.000000) scale(0.100000,-0.100000)"
fill="#C5C3C1" stroke="none">
<path d="M17642 23162 l-53 -47 1 -1682 c0 -1344 -2 -1683 -12 -1683 -7 -1
-23 -9 -36 -20 l-23 -19 22 -30 c26 -35 20 -77 -14 -91 -32 -13 -78 -65 -72
-81 3 -8 22 -25 43 -39 67 -45 76 -70 42 -113 -26 -33 -26 -35 13 -45 l32 -8
3 -1800 c1 -989 0 -1809 -3 -1822 -3 -13 -20 -30 -40 -39 -39 -19 -42 -25 -20
-43 8 -7 15 -23 15 -36 0 -24 -31 -64 -50 -64 -5 0 -10 -18 -10 -40 0 -36 2
-40 33 -45 17 -3 93 -5 167 -3 l135 3 3 33 c3 26 -3 39 -27 61 -34 32 -39 56
-16 88 15 21 14 23 -12 39 -15 10 -34 24 -40 33 -10 12 -13 391 -13 1823 l0
1808 35 14 c35 15 44 29 24 41 -20 13 -29 54 -17 80 6 14 15 25 19 25 12 0 79
63 79 75 0 12 -33 42 -66 61 -10 6 -26 23 -34 37 -13 24 -13 28 9 58 23 31 23
33 6 46 -11 7 -27 13 -37 13 -17 0 -18 68 -18 1730 0 952 -3 1730 -7 1730 -5
0 -32 -22 -61 -48z"/>
</g>
</svg>
