<?xml version="1.0" standalone="no"?>
<!DOCTYPE svg PUBLIC "-//W3C//DTD SVG 20010904//EN"
 "http://www.w3.org/TR/2001/REC-SVG-20010904/DTD/svg10.dtd">
<svg version="1.0" xmlns="http://www.w3.org/2000/svg"
 width="2551.000000pt" height="2701.000000pt" viewBox="0 0 2551.000000 2701.000000"
 preserveAspectRatio="xMidYMid meet">

<g transform="translate(0.000000,2701.000000) scale(0.100000,-0.100000)"
fill="#C5C3C1" stroke="none">
<path d="M18812 24122 l-53 -47 1 -1702 c0 -937 -3 -1703 -7 -1703 -5 0 -21
-11 -38 -24 -29 -23 -29 -25 -12 -44 30 -33 29 -70 -2 -90 -39 -25 -81 -69
-81 -84 0 -15 52 -58 69 -58 5 0 17 -10 25 -22 17 -24 12 -63 -12 -91 -18 -20
-17 -21 23 -34 l30 -10 3 -2254 c1 -1240 0 -2264 -3 -2276 -3 -13 -20 -30 -38
-39 -17 -9 -33 -18 -35 -19 -2 -2 4 -15 13 -29 22 -33 13 -69 -20 -84 -20 -10
-25 -19 -25 -51 0 -22 5 -41 13 -44 6 -2 83 -5 170 -6 l157 -1 0 44 c0 35 -4
45 -20 49 -11 3 -25 17 -32 32 -10 23 -9 32 4 55 16 28 16 28 -21 52 l-36 23
-2 2272 -3 2272 35 21 c19 12 35 24 35 26 0 3 -9 17 -20 33 -17 22 -19 32 -11
53 6 15 20 32 32 39 25 13 68 59 69 73 0 12 -46 53 -68 60 -11 4 -24 18 -31
32 -10 22 -8 32 9 61 24 40 21 49 -20 58 l-30 7 0 1091 c1 2163 0 2407 -7
2407 -5 0 -32 -22 -61 -48z"/>
</g>
</svg>
