<?xml version="1.0" standalone="no"?>
<!DOCTYPE svg PUBLIC "-//W3C//DTD SVG 20010904//EN"
 "http://www.w3.org/TR/2001/REC-SVG-20010904/DTD/svg10.dtd">
<svg version="1.0" xmlns="http://www.w3.org/2000/svg"
 width="2551.000000pt" height="2701.000000pt" viewBox="0 0 2551.000000 2701.000000"
 preserveAspectRatio="xMidYMid meet">

<g transform="translate(0.000000,2701.000000) scale(0.100000,-0.100000)"
fill="#C5C3C1" stroke="none">
<path d="M22258 25281 l2 -1669 -39 -29 -39 -29 19 -23 c30 -37 23 -59 -36
-116 -30 -30 -55 -58 -55 -62 0 -11 55 -53 68 -53 17 0 42 -37 42 -61 0 -14
-7 -34 -15 -45 -21 -28 -19 -32 18 -42 l32 -8 3 -1795 c1 -987 0 -1804 -3
-1816 -3 -13 -23 -33 -44 -45 l-39 -22 20 -27 c24 -32 18 -60 -17 -83 -14 -9
-25 -25 -25 -36 0 -19 7 -20 175 -20 l175 0 0 26 c0 16 -11 35 -30 51 -35 29
-38 55 -10 83 20 20 20 20 -17 35 -21 9 -41 21 -45 28 -10 16 -10 3627 0 3627
4 0 20 11 37 24 29 24 30 24 11 45 -24 26 -24 72 -1 86 33 19 95 79 95 92 0 7
-24 29 -54 48 -30 19 -58 40 -61 45 -4 6 2 29 14 52 23 48 21 54 -19 63 l-30
7 0 1669 0 1669 -67 0 -68 0 3 -1669z"/>
</g>
</svg>
