<?xml version="1.0" standalone="no"?>
<!DOCTYPE svg PUBLIC "-//W3C//DTD SVG 20010904//EN"
 "http://www.w3.org/TR/2001/REC-SVG-20010904/DTD/svg10.dtd">
<svg version="1.0" xmlns="http://www.w3.org/2000/svg"
 width="2551.000000pt" height="2701.000000pt" viewBox="0 0 2551.000000 2701.000000"
 preserveAspectRatio="xMidYMid meet">

<g transform="translate(0.000000,2701.000000) scale(0.100000,-0.100000)"
fill="#C5C3C1" stroke="none">
<path d="M24590 26243 l0 -708 -37 -31 -36 -30 22 -30 c12 -17 19 -37 16 -46
-3 -8 -30 -37 -60 -63 -30 -26 -55 -53 -55 -60 0 -14 35 -44 76 -65 34 -18 45
-68 20 -93 -24 -24 -19 -36 17 -45 l32 -8 3 -1795 c1 -987 0 -1804 -3 -1816
-3 -12 -23 -32 -45 -44 l-39 -22 19 -24 c24 -30 11 -75 -27 -92 -14 -6 -23
-15 -19 -18 3 -4 87 -7 186 -9 l180 -2 0 24 c0 13 -4 24 -10 24 -17 0 -50 39
-50 60 0 11 8 28 19 39 18 18 17 19 -25 40 l-44 21 0 1809 0 1810 33 22 c17
12 34 24 36 25 2 2 -6 15 -18 30 -11 15 -21 34 -21 44 0 9 27 41 60 70 33 29
60 59 60 67 0 7 -11 18 -25 23 -14 5 -25 14 -25 20 0 5 -8 10 -18 10 -22 0
-52 30 -52 51 0 8 9 28 20 44 27 40 26 43 -15 51 l-35 6 0 709 0 709 -70 0
-70 0 0 -707z"/>
</g>
</svg>
