<?xml version="1.0" standalone="no"?>
<!DOCTYPE svg PUBLIC "-//W3C//DTD SVG 20010904//EN"
 "http://www.w3.org/TR/2001/REC-SVG-20010904/DTD/svg10.dtd">
<svg version="1.0" xmlns="http://www.w3.org/2000/svg"
 width="2551.000000pt" height="2701.000000pt" viewBox="0 0 2551.000000 2701.000000"
 preserveAspectRatio="xMidYMid meet">

<g transform="translate(0.000000,2701.000000) scale(0.100000,-0.100000)"
fill="#C5C3C1" stroke="none">
<path d="M5918 13513 l-58 -46 0 -1680 0 -1681 -32 -26 c-31 -26 -31 -27 -15
-51 26 -37 21 -56 -33 -110 -27 -27 -50 -58 -50 -68 0 -17 27 -41 75 -66 26
-13 31 -59 11 -90 -22 -34 -20 -43 14 -50 l30 -7 1 -691 c0 -381 2 -1195 5
-1809 4 -1088 4 -1118 -15 -1134 -10 -9 -31 -27 -45 -40 l-27 -24 23 -31 23
-30 -21 -17 c-31 -24 -44 -55 -44 -99 l0 -39 151 1 c149 2 152 2 165 26 7 13
13 43 14 66 0 32 -4 43 -19 48 -39 12 -45 32 -21 70 12 20 21 37 19 39 -2 1
-19 8 -37 16 -18 7 -36 20 -41 29 -11 22 -14 1203 -5 2518 7 1060 8 1103 26
1108 34 11 40 40 17 80 l-21 35 39 38 c63 61 75 79 68 101 -3 12 -13 21 -21
21 -8 0 -14 4 -14 9 0 5 -9 13 -20 16 -11 4 -28 17 -36 31 -15 22 -15 26 6 61
21 35 21 38 4 50 -10 7 -24 13 -31 13 -10 0 -13 78 -13 403 -1 1651 -6 3057
-10 3057 -3 -1 -31 -22 -62 -47z"/>
</g>
</svg>
