<?xml version="1.0" standalone="no"?>
<!DOCTYPE svg PUBLIC "-//W3C//DTD SVG 20010904//EN"
 "http://www.w3.org/TR/2001/REC-SVG-20010904/DTD/svg10.dtd">
<svg version="1.0" xmlns="http://www.w3.org/2000/svg"
 width="2551.000000pt" height="2701.000000pt" viewBox="0 0 2551.000000 2701.000000"
 preserveAspectRatio="xMidYMid meet">

<g transform="translate(0.000000,2701.000000) scale(0.100000,-0.100000)"
fill="#C5C3C1" stroke="none">
<path d="M7098 14483 l-58 -48 0 -1707 0 -1706 -35 -21 c-40 -24 -42 -31 -15
-56 31 -28 24 -53 -30 -104 -64 -60 -65 -82 -5 -117 56 -32 65 -61 35 -109
l-22 -35 27 -10 c14 -5 31 -10 36 -10 5 0 9 -871 9 -2275 l0 -2276 -34 -20
c-45 -26 -51 -45 -25 -77 20 -26 20 -27 1 -42 -29 -24 -42 -54 -42 -99 l0 -41
150 0 150 0 10 26 c6 14 10 43 10 64 0 30 -5 40 -20 45 -30 10 -45 43 -27 63
30 35 28 50 -8 62 -18 6 -36 18 -39 26 -3 9 -6 1033 -6 2277 l0 2262 30 17
c33 19 37 33 15 62 -23 30 -19 64 10 78 26 14 75 74 75 93 0 13 -45 55 -59 55
-14 0 -41 36 -41 56 0 11 7 29 15 40 22 29 18 41 -15 52 l-30 11 -2 1756 -3
1755 -57 -47z"/>
</g>
</svg>
