<?xml version="1.0" standalone="no"?>
<!DOCTYPE svg PUBLIC "-//W3C//DTD SVG 20010904//EN"
 "http://www.w3.org/TR/2001/REC-SVG-20010904/DTD/svg10.dtd">
<svg version="1.0" xmlns="http://www.w3.org/2000/svg"
 width="2551.000000pt" height="2701.000000pt" viewBox="0 0 2551.000000 2701.000000"
 preserveAspectRatio="xMidYMid meet">

<g transform="translate(0.000000,2701.000000) scale(0.100000,-0.100000)"
fill="#C5C3C1" stroke="none">
<path d="M9442 16413 l-52 -45 0 -1709 0 -1710 -30 -10 c-34 -12 -37 -25 -14
-57 20 -30 14 -74 -12 -87 -24 -12 -74 -68 -74 -83 0 -5 14 -20 31 -33 76 -58
86 -85 49 -132 -20 -26 -20 -26 -1 -36 11 -6 27 -11 35 -11 15 0 16 -217 16
-2275 l0 -2276 -34 -20 c-42 -24 -52 -46 -31 -69 21 -23 19 -45 -7 -62 -28
-19 -41 -128 -14 -129 21 0 125 0 221 0 l75 1 0 66 c0 61 -2 66 -20 61 -10 -3
-19 -2 -18 2 1 3 -2 14 -7 24 -5 11 -2 24 9 36 16 17 14 21 -25 60 l-42 42 6
2267 c4 1247 6 2268 7 2270 0 1 6 2 14 2 8 0 21 7 30 15 13 14 13 19 -6 51
-17 29 -19 40 -10 60 7 13 16 24 21 24 17 0 71 58 71 76 0 17 -56 74 -72 74
-5 0 -13 11 -20 24 -9 20 -7 31 11 61 11 20 21 38 21 39 0 2 -13 9 -30 16 -28
11 -30 16 -30 64 0 28 -1 815 -1 1748 0 934 -4 1700 -7 1702 -4 2 -31 -16 -60
-41z"/>
</g>
</svg>
