<?xml version="1.0" standalone="no"?>
<!DOCTYPE svg PUBLIC "-//W3C//DTD SVG 20010904//EN"
 "http://www.w3.org/TR/2001/REC-SVG-20010904/DTD/svg10.dtd">
<svg version="1.0" xmlns="http://www.w3.org/2000/svg"
 width="2550.000000pt" height="2700.000000pt" viewBox="0 0 2550.000000 2700.000000"
 preserveAspectRatio="xMidYMid meet">

<g transform="translate(0.000000,2700.000000) scale(0.100000,-0.100000)"
fill="#C5C3C1" stroke="none">
<path d="M1380 12150 l0 -1470 -24 0 c-32 0 -56 -35 -56 -81 0 -40 12 -55 50
-61 37 -5 39 -62 5 -131 -66 -136 -69 -309 -7 -442 18 -37 32 -82 32 -101 0
-29 -3 -34 -24 -34 -32 0 -56 -35 -56 -81 0 -40 12 -55 50 -61 l25 -3 0 -2020
0 -2020 -43 -23 c-40 -22 -42 -25 -28 -41 9 -10 16 -27 16 -39 0 -21 -43 -62
-65 -62 -7 0 -12 -14 -12 -34 0 -30 4 -35 30 -40 16 -3 50 -6 76 -6 25 0 62
-5 81 -10 22 -7 42 -7 55 -1 11 5 43 14 70 21 121 27 120 27 119 60 -1 25 -8
34 -35 48 -40 20 -49 54 -23 83 20 22 21 21 -33 39 l-43 13 0 2024 0 2023 24
0 c30 0 56 34 56 73 0 45 -17 67 -51 67 -30 0 -31 1 -26 43 2 23 16 69 30 103
58 134 56 296 -4 418 -18 38 -29 75 -29 103 0 41 2 43 28 43 21 0 32 7 40 25
27 58 4 115 -46 115 l-22 0 0 1465 0 1465 -80 0 -80 0 0 -1470z m101 -1837 c8
-21 14 -72 14 -113 0 -75 -21 -190 -36 -190 -17 0 -34 80 -34 160 0 82 19 180
36 180 4 0 13 -17 20 -37z"/>
</g>
</svg>
