<?xml version="1.0" standalone="no"?>
<!DOCTYPE svg PUBLIC "-//W3C//DTD SVG 20010904//EN"
 "http://www.w3.org/TR/2001/REC-SVG-20010904/DTD/svg10.dtd">
<svg version="1.0" xmlns="http://www.w3.org/2000/svg"
 width="2550.000000pt" height="2700.000000pt" viewBox="0 0 2550.000000 2700.000000"
 preserveAspectRatio="xMidYMid meet">

<g transform="translate(0.000000,2700.000000) scale(0.100000,-0.100000)"
fill="#C5C3C1" stroke="none">
<path d="M8190 15026 l0 -1325 -22 -3 c-29 -4 -45 -48 -32 -85 6 -17 18 -29
32 -31 30 -5 29 -50 -4 -149 -24 -70 -26 -89 -22 -188 4 -81 11 -125 27 -167
24 -61 25 -113 3 -113 -8 0 -20 -9 -28 -19 -27 -38 -11 -106 26 -106 20 0 20
-15 20 -1443 0 -1363 -1 -1445 -17 -1459 -10 -9 -28 -19 -40 -22 -22 -7 -32
-26 -14 -26 13 0 23 -34 16 -52 -4 -9 -17 -20 -31 -27 -20 -9 -25 -17 -22 -42
3 -33 -8 -31 168 -40 36 -2 141 9 173 17 27 8 22 58 -7 72 -40 18 -49 45 -26
75 l20 25 -28 7 c-15 3 -35 14 -44 22 -17 15 -18 97 -18 1455 0 1240 2 1438
14 1438 25 0 46 30 46 65 0 46 -9 65 -31 65 -33 0 -33 28 -3 113 25 71 29 97
29 187 0 90 -4 116 -28 182 -32 85 -32 121 -2 127 27 5 35 19 35 61 0 42 -8
56 -35 61 -20 4 -20 13 -23 1320 l-2 1317 -31 6 c-17 3 -47 6 -65 6 l-34 0 0
-1324z m81 -1761 c0 -93 -4 -116 -17 -102 -10 10 -17 124 -9 172 11 78 27 38
26 -70z"/>
</g>
</svg>
