<?xml version="1.0" standalone="no"?>
<!DOCTYPE svg PUBLIC "-//W3C//DTD SVG 20010904//EN"
 "http://www.w3.org/TR/2001/REC-SVG-20010904/DTD/svg10.dtd">
<svg version="1.0" xmlns="http://www.w3.org/2000/svg"
 width="2550.000000pt" height="2700.000000pt" viewBox="0 0 2550.000000 2700.000000"
 preserveAspectRatio="xMidYMid meet">

<g transform="translate(0.000000,2700.000000) scale(0.100000,-0.100000)"
fill="#C5C3C1" stroke="none">
<path d="M8740 15011 l0 -1300 -22 -3 c-29 -4 -45 -48 -32 -85 6 -17 18 -29
32 -31 29 -4 29 -47 0 -127 -15 -43 -23 -91 -26 -165 -4 -94 -1 -114 22 -183
32 -97 33 -125 4 -129 -46 -7 -48 -101 -3 -118 l25 -10 0 -1420 0 -1420 -41
-20 c-39 -20 -40 -22 -24 -40 23 -25 16 -52 -18 -68 -23 -11 -28 -19 -25 -45
l3 -32 95 -8 c62 -5 114 -4 150 3 30 7 65 14 76 16 33 6 28 50 -7 75 -32 23
-36 44 -13 70 14 15 12 18 -23 35 l-38 19 -3 1422 -2 1422 22 3 c48 7 46 118
-2 118 -27 0 -27 38 2 115 19 50 22 80 22 185 0 106 -3 133 -22 180 -29 74
-29 118 0 122 48 7 46 118 -2 118 -20 0 -20 2 -20 1294 l0 1294 -22 6 c-13 3
-42 6 -65 6 l-43 0 0 -1299z m80 -1716 c0 -83 -9 -123 -21 -103 -10 15 -12
142 -2 176 10 41 23 3 23 -73z"/>
</g>
</svg>
