<?xml version="1.0" standalone="no"?>
<!DOCTYPE svg PUBLIC "-//W3C//DTD SVG 20010904//EN"
 "http://www.w3.org/TR/2001/REC-SVG-20010904/DTD/svg10.dtd">
<svg version="1.0" xmlns="http://www.w3.org/2000/svg"
 width="2550.000000pt" height="2700.000000pt" viewBox="0 0 2550.000000 2700.000000"
 preserveAspectRatio="xMidYMid meet">

<g transform="translate(0.000000,2700.000000) scale(0.100000,-0.100000)"
fill="#C5C3C1" stroke="none">
<path d="M9780 14988 l0 -1253 -22 -10 c-39 -17 -37 -115 2 -115 27 0 26 -42
-2 -123 -31 -89 -31 -257 0 -342 28 -77 29 -115 2 -115 -39 0 -41 -98 -2 -115
l22 -10 0 -1372 0 -1372 -32 -17 c-43 -22 -43 -21 -28 -39 17 -20 5 -62 -20
-70 -14 -4 -20 -15 -20 -36 0 -23 4 -29 23 -29 12 -1 55 -5 95 -9 41 -5 88 -5
105 -1 18 5 49 11 70 15 30 5 37 10 37 29 0 13 -12 31 -30 44 -33 25 -38 47
-15 72 13 15 11 17 -20 29 -19 6 -37 20 -40 30 -3 11 -4 628 -1 1372 4 1296 5
1353 23 1362 25 14 33 28 33 59 0 39 -10 58 -30 58 -28 0 -28 45 -1 125 20 61
22 83 19 180 -3 71 -11 128 -23 160 -27 77 -27 105 1 115 43 17 44 103 1 119
l-22 9 0 1241 c1 683 -1 1244 -5 1245 -3 2 -31 7 -62 10 l-58 7 0 -1253z m73
-1710 c-3 -26 -10 -45 -14 -42 -11 6 -12 148 -1 158 11 12 21 -63 15 -116z"/>
</g>
</svg>
