<?xml version="1.0" standalone="no"?>
<!DOCTYPE svg PUBLIC "-//W3C//DTD SVG 20010904//EN"
 "http://www.w3.org/TR/2001/REC-SVG-20010904/DTD/svg10.dtd">
<svg version="1.0" xmlns="http://www.w3.org/2000/svg"
 width="2550.000000pt" height="2700.000000pt" viewBox="0 0 2550.000000 2700.000000"
 preserveAspectRatio="xMidYMid meet">

<g transform="translate(0.000000,2700.000000) scale(0.100000,-0.100000)"
fill="#C5C3C1" stroke="none">
<path d="M3457 13724 l-37 -47 0 -1494 0 -1493 -24 0 c-29 0 -44 -17 -52 -58
-8 -41 17 -82 51 -82 23 0 25 -4 25 -42 0 -23 -9 -60 -20 -82 -32 -67 -50
-155 -50 -241 1 -95 12 -152 46 -218 13 -27 24 -66 24 -88 0 -34 -3 -39 -24
-39 -29 0 -44 -17 -52 -58 -8 -41 17 -82 51 -82 l25 0 -2 -2012 -3 -2013 -47
-25 c-44 -24 -46 -26 -27 -38 30 -19 21 -62 -18 -87 -25 -15 -32 -27 -33 -52
0 -29 3 -32 38 -37 124 -18 198 -16 287 6 89 23 90 24 93 56 3 26 -1 34 -21
41 -39 15 -58 48 -45 77 6 13 15 24 20 24 19 0 -3 18 -29 25 -16 3 -36 14 -46
23 -17 15 -18 95 -12 2017 6 1958 7 2000 26 2003 28 5 49 41 49 84 0 39 -24
73 -46 64 -18 -7 -33 15 -29 44 2 14 15 53 30 88 56 136 56 308 0 430 -15 32
-25 73 -25 98 0 40 2 44 25 44 30 0 45 26 45 77 0 44 -14 63 -47 63 -13 0 -23
3 -23 8 0 4 -2 693 -3 1532 l-2 1525 -41 3 c-38 3 -43 0 -77 -44z m62 -3414
c19 -87 7 -245 -19 -274 -14 -14 -32 72 -32 153 0 77 18 171 32 171 5 0 13
-23 19 -50z"/>
</g>
</svg>
