<?xml version="1.0" standalone="no"?>
<!DOCTYPE svg PUBLIC "-//W3C//DTD SVG 20010904//EN"
 "http://www.w3.org/TR/2001/REC-SVG-20010904/DTD/svg10.dtd">
<svg version="1.0" xmlns="http://www.w3.org/2000/svg"
 width="2550.000000pt" height="2700.000000pt" viewBox="0 0 2550.000000 2700.000000"
 preserveAspectRatio="xMidYMid meet">

<g transform="translate(0.000000,2700.000000) scale(0.100000,-0.100000)"
fill="#C5C3C1" stroke="none">
<path d="M6424 16471 c-2 -2 -4 -633 -4 -1402 l0 -1398 -22 -3 c-56 -8 -57
-128 -2 -128 21 0 24 -5 24 -37 0 -20 -12 -66 -27 -102 -25 -60 -28 -78 -27
-186 0 -102 3 -129 23 -180 13 -33 24 -78 25 -100 1 -34 -2 -40 -21 -43 -31
-5 -49 -61 -31 -99 7 -16 23 -29 36 -31 l22 -3 0 -1524 c0 -1300 -2 -1526 -14
-1538 -8 -8 -28 -20 -45 -27 l-31 -12 20 -25 c23 -29 14 -57 -24 -74 -18 -8
-21 -17 -18 -44 l4 -33 77 -8 c97 -10 140 -9 226 8 67 12 70 14 73 43 3 27 -2
33 -30 45 -39 17 -48 52 -22 81 16 18 15 19 -10 29 -15 5 -31 10 -36 10 -5 0
-14 9 -20 19 -7 13 -10 510 -10 1535 0 1495 0 1516 19 1516 41 0 65 74 41 121
-6 11 -21 19 -35 19 -21 0 -25 5 -25 30 0 17 7 45 16 62 59 114 63 308 9 426
-14 30 -25 70 -25 88 0 29 3 34 25 34 61 0 61 121 0 132 -20 3 -20 12 -23
1400 l-2 1396 -66 4 c-36 1 -68 1 -70 -1z m84 -3273 c-3 -93 -10 -120 -25
-104 -11 10 -10 206 1 231 16 38 28 -24 24 -127z"/>
</g>
</svg>
