<?xml version="1.0" standalone="no"?>
<!DOCTYPE svg PUBLIC "-//W3C//DTD SVG 20010904//EN"
 "http://www.w3.org/TR/2001/REC-SVG-20010904/DTD/svg10.dtd">
<svg version="1.0" xmlns="http://www.w3.org/2000/svg"
 width="2550.000000pt" height="2700.000000pt" viewBox="0 0 2550.000000 2700.000000"
 preserveAspectRatio="xMidYMid meet">

<g transform="translate(0.000000,2700.000000) scale(0.100000,-0.100000)"
fill="#C5C3C1" stroke="none">
<path d="M18867 22103 l-47 -49 0 -1498 0 -1497 -20 6 c-26 8 -68 -18 -80 -50
-16 -42 6 -82 53 -98 39 -12 42 -17 45 -52 2 -26 -3 -47 -16 -64 -104 -142
-110 -362 -13 -506 26 -38 31 -56 29 -89 -3 -39 -4 -41 -34 -38 -38 4 -64 -26
-64 -73 0 -41 17 -62 60 -73 l35 -8 3 -1625 c1 -893 0 -1634 -3 -1647 -4 -14
-19 -28 -45 -38 -36 -14 -54 -34 -32 -34 5 0 14 -12 21 -26 11 -24 8 -29 -24
-60 -29 -27 -36 -40 -33 -65 3 -32 3 -32 61 -31 31 0 118 1 192 1 l135 1 0 33
c-1 25 -8 36 -33 52 -38 24 -46 58 -20 87 12 15 14 22 6 25 -7 2 -27 14 -45
27 l-33 22 0 1639 0 1640 32 3 c37 4 73 42 73 77 0 29 -37 75 -60 75 -56 0
-68 48 -25 104 14 18 37 62 52 97 23 55 27 78 27 164 0 111 -16 166 -72 248
-25 35 -32 56 -32 92 l0 46 36 -3 c43 -3 74 27 74 72 0 31 -20 52 -72 73 l-38
16 -2 1533 c-3 1525 -3 1533 -23 1536 -13 2 -37 -14 -68 -45z m78 -3399 c27
-54 30 -68 30 -159 0 -86 -4 -108 -26 -155 -28 -61 -55 -93 -70 -84 -20 12
-59 105 -68 163 -15 96 15 227 66 283 24 26 34 19 68 -48z"/>
</g>
</svg>
