<?xml version="1.0" standalone="no"?>
<!DOCTYPE svg PUBLIC "-//W3C//DTD SVG 20010904//EN"
 "http://www.w3.org/TR/2001/REC-SVG-20010904/DTD/svg10.dtd">
<svg version="1.0" xmlns="http://www.w3.org/2000/svg"
 width="2550.000000pt" height="2700.000000pt" viewBox="0 0 2550.000000 2700.000000"
 preserveAspectRatio="xMidYMid meet">

<g transform="translate(0.000000,2700.000000) scale(0.100000,-0.100000)"
fill="#C5C3C1" stroke="none">
<path d="M22157 25252 l-47 -48 -2 -1539 -3 -1540 -23 3 c-13 2 -34 -4 -48
-13 -63 -41 -47 -121 30 -150 40 -15 46 -22 46 -47 0 -16 -15 -51 -35 -81
-106 -159 -105 -352 1 -507 24 -35 34 -61 34 -88 0 -46 -6 -55 -32 -41 -28 15
-54 2 -73 -36 -22 -49 -5 -83 58 -113 l47 -22 -2 -2162 -3 -2162 -33 -22 c-18
-13 -38 -24 -44 -26 -8 -3 -6 -12 5 -28 9 -14 17 -32 17 -40 0 -19 -40 -60
-58 -60 -7 0 -12 -14 -12 -31 l0 -31 93 5 c50 4 138 6 195 7 91 0 102 2 102
18 0 10 -13 26 -30 35 -38 23 -44 65 -14 98 13 15 11 18 -17 29 -17 7 -37 19
-45 27 -12 12 -14 328 -14 2189 l0 2174 34 0 c25 0 40 7 55 26 39 50 20 104
-45 131 -37 15 -44 22 -44 46 0 16 14 49 31 74 52 76 73 146 73 253 1 108 -15
165 -70 243 -29 39 -34 56 -34 101 l0 54 40 -5 c37 -5 40 -4 56 31 25 52 11
84 -49 116 l-47 25 0 1566 c0 1204 -3 1568 -12 1577 -20 20 -31 14 -81 -36z
m80 -3494 c21 -42 27 -71 31 -140 5 -97 -11 -164 -54 -231 -36 -55 -61 -48
-98 26 -52 104 -45 244 18 352 38 65 67 62 103 -7z"/>
</g>
</svg>
