<?xml version="1.0" standalone="no"?>
<!DOCTYPE svg PUBLIC "-//W3C//DTD SVG 20010904//EN"
 "http://www.w3.org/TR/2001/REC-SVG-20010904/DTD/svg10.dtd">
<svg version="1.0" xmlns="http://www.w3.org/2000/svg"
 width="2550.000000pt" height="2700.000000pt" viewBox="0 0 2550.000000 2700.000000"
 preserveAspectRatio="xMidYMid meet">

<g transform="translate(0.000000,2700.000000) scale(0.100000,-0.100000)"
fill="#C5C3C1" stroke="none">
<path d="M13230 12008 c0 -838 0 -1576 0 -1640 l0 -118 -30 0 c-43 0 -70 -31
-70 -80 0 -53 29 -84 71 -75 32 7 32 7 30 -62 0 -28 -11 -58 -31 -90 -45 -70
-70 -162 -70 -252 0 -94 18 -162 63 -245 31 -56 42 -93 38 -133 -1 -7 -10 -13
-22 -13 -23 0 -60 -18 -71 -34 -4 -6 -8 -28 -8 -48 0 -47 28 -78 70 -78 l30 0
0 -147 c2 -3033 -1 -4376 -9 -4391 -5 -10 -28 -27 -51 -37 l-40 -18 20 -22
c11 -12 20 -30 20 -41 0 -22 -38 -64 -58 -64 -8 0 -12 -17 -12 -45 0 -25 1
-45 3 -46 1 0 61 -6 132 -13 l130 -13 83 30 82 30 0 41 c0 36 -4 43 -33 56
-24 11 -33 22 -35 46 -2 19 3 36 12 44 24 19 20 26 -29 44 -30 12 -47 25 -50
39 -3 12 -4 1030 -3 2261 l3 2240 35 9 c50 13 70 34 70 76 -1 51 -23 76 -68
76 -36 0 -37 1 -40 42 -3 35 3 52 29 89 60 87 73 136 73 264 0 128 -10 165
-70 262 -27 44 -34 67 -32 95 3 33 7 38 38 45 44 11 70 41 70 82 0 45 -20 68
-66 75 l-39 6 -2 595 c-2 327 -3 1064 -3 1638 l0 1042 -80 0 -80 0 0 -1522z
m117 -2124 c36 -65 56 -160 49 -234 -7 -75 -31 -148 -61 -186 l-21 -27 -20 34
c-44 74 -59 131 -59 224 0 95 12 149 45 203 25 41 38 38 67 -14z"/>
</g>
</svg>
