<?xml version="1.0" standalone="no"?>
<!DOCTYPE svg PUBLIC "-//W3C//DTD SVG 20010904//EN"
 "http://www.w3.org/TR/2001/REC-SVG-20010904/DTD/svg10.dtd">
<svg version="1.0" xmlns="http://www.w3.org/2000/svg"
 width="2550.000000pt" height="2700.000000pt" viewBox="0 0 2550.000000 2700.000000"
 preserveAspectRatio="xMidYMid meet">

<g transform="translate(0.000000,2700.000000) scale(0.100000,-0.100000)"
fill="#C5C3C1" stroke="none">
<path d="M12830 11915 c0 -1573 0 -1615 -19 -1615 -56 0 -66 -137 -11 -150 21
-5 25 -13 28 -47 2 -23 -6 -72 -18 -109 -33 -109 -45 -241 -31 -346 6 -50 21
-116 31 -146 11 -31 20 -75 20 -98 0 -37 -3 -43 -22 -46 -52 -7 -58 -136 -7
-148 l24 -6 3 -2214 c1 -1218 0 -2225 -3 -2238 -3 -14 -22 -30 -50 -44 l-44
-21 20 -25 c10 -14 19 -32 19 -42 0 -18 -40 -60 -57 -60 -12 0 -24 -71 -14
-82 3 -4 65 -12 137 -19 l132 -12 75 28 c58 21 76 32 79 48 6 36 -2 67 -18 67
-21 0 -54 37 -54 60 0 11 9 29 20 40 25 25 25 30 3 30 -10 0 -33 9 -50 20
l-33 20 0 2230 c0 2210 0 2230 20 2230 28 0 41 33 38 92 -3 46 -6 53 -28 58
-21 5 -25 12 -28 47 -2 22 6 67 17 99 33 99 45 236 31 345 -7 52 -21 117 -31
144 -10 28 -19 74 -19 103 0 45 3 52 20 52 26 0 40 29 40 82 0 50 -7 64 -35
69 -20 4 -20 13 -23 1612 l-2 1607 -80 0 -80 0 0 -1615z m80 -2249 c-7 -7 -10
18 -10 80 0 118 14 132 18 18 2 -51 -1 -91 -8 -98z"/>
</g>
</svg>
