<?xml version="1.0" standalone="no"?>
<!DOCTYPE svg PUBLIC "-//W3C//DTD SVG 20010904//EN"
 "http://www.w3.org/TR/2001/REC-SVG-20010904/DTD/svg10.dtd">
<svg version="1.0" xmlns="http://www.w3.org/2000/svg"
 width="2550.000000pt" height="2700.000000pt" viewBox="0 0 2550.000000 2700.000000"
 preserveAspectRatio="xMidYMid meet">

<g transform="translate(0.000000,2700.000000) scale(0.100000,-0.100000)"
fill="#C5C3C1" stroke="none">
<path d="M13713 14202 l-73 -129 0 -1321 0 -1321 -27 -13 c-23 -11 -29 -21
-31 -57 -5 -67 4 -91 33 -91 23 0 25 -4 25 -43 0 -24 -9 -70 -20 -103 -42
-125 -45 -308 -8 -437 11 -40 21 -94 22 -122 1 -45 -1 -50 -21 -53 -26 -4 -36
-31 -31 -88 2 -31 9 -42 31 -52 l27 -13 0 -1654 c0 -1547 -1 -1655 -17 -1671
-10 -9 -32 -23 -50 -30 -33 -14 -33 -14 -13 -34 33 -33 24 -72 -21 -96 -24
-12 -29 -21 -29 -53 l0 -39 143 -6 c124 -6 150 -4 202 12 59 19 60 20 63 58 3
36 0 40 -27 51 -38 14 -50 53 -27 88 17 25 17 26 -21 41 -21 9 -41 21 -45 28
-4 6 -8 755 -8 1664 l0 1652 24 9 c28 11 36 29 36 85 0 46 -13 66 -43 66 -17
0 -18 6 -14 48 2 26 14 83 26 127 31 113 31 291 0 390 -12 39 -24 96 -26 128
-4 51 -3 57 14 57 31 0 43 21 43 75 0 54 -12 75 -42 75 -17 0 -18 62 -20 1451
l-3 1451 -72 -130z m8 -3339 c-2 -18 -7 -30 -12 -27 -11 6 -12 69 -2 104 7 24
8 23 13 -10 3 -19 3 -50 1 -67z"/>
</g>
</svg>
