<?xml version="1.0" standalone="no"?>
<!DOCTYPE svg PUBLIC "-//W3C//DTD SVG 20010904//EN"
 "http://www.w3.org/TR/2001/REC-SVG-20010904/DTD/svg10.dtd">
<svg version="1.0" xmlns="http://www.w3.org/2000/svg"
 width="2550.000000pt" height="2700.000000pt" viewBox="0 0 2550.000000 2700.000000"
 preserveAspectRatio="xMidYMid meet">

<g transform="translate(0.000000,2700.000000) scale(0.100000,-0.100000)"
fill="#C5C3C1" stroke="none">
<path d="M14263 15057 l-73 -127 0 -1254 0 -1255 -22 -3 c-15 -2 -25 -13 -32
-35 -13 -46 3 -97 32 -101 19 -3 22 -9 22 -50 0 -26 -10 -76 -22 -112 -29 -88
-32 -334 -4 -420 10 -30 20 -78 23 -107 4 -48 3 -52 -18 -55 -48 -7 -51 -132
-4 -144 l25 -6 1 -327 c2 -1360 -1 -3847 -6 -3861 -3 -9 -23 -25 -45 -35 l-39
-17 21 -29 c20 -27 20 -29 3 -55 -9 -14 -26 -29 -36 -31 -15 -4 -19 -14 -19
-44 0 -46 -1 -45 150 -53 100 -5 148 1 213 26 23 9 27 16 27 49 0 26 -4 39
-13 39 -20 0 -47 33 -47 58 0 11 8 28 17 38 10 10 13 19 8 21 -6 2 -26 11 -45
21 l-35 17 -3 2098 -2 2097 20 0 c23 0 40 34 40 81 0 41 -17 69 -40 69 -27 0
-26 45 1 130 16 49 23 99 26 205 4 122 2 150 -17 215 -12 41 -24 99 -27 128
-4 48 -3 52 16 52 24 0 41 34 41 81 0 41 -17 69 -40 69 -20 0 -20 17 -22 1377
l-3 1378 -72 -128z m4 -3174 c-2 -16 -4 -5 -4 22 0 28 2 40 4 28 2 -13 2 -35
0 -50z"/>
</g>
</svg>
