<?xml version="1.0" standalone="no"?>
<!DOCTYPE svg PUBLIC "-//W3C//DTD SVG 20010904//EN"
 "http://www.w3.org/TR/2001/REC-SVG-20010904/DTD/svg10.dtd">
<svg version="1.0" xmlns="http://www.w3.org/2000/svg"
 width="2550.000000pt" height="2700.000000pt" viewBox="0 0 2550.000000 2700.000000"
 preserveAspectRatio="xMidYMid meet">

<g transform="translate(0.000000,2700.000000) scale(0.100000,-0.100000)"
fill="#C5C3C1" stroke="none">
<path d="M15748 19113 l-47 -48 0 -1400 c-1 -770 -1 -1424 -1 -1452 0 -52 -1
-53 -29 -53 -34 0 -71 -39 -71 -74 0 -31 28 -66 53 -66 36 0 49 -15 49 -54 0
-23 -11 -53 -30 -84 -90 -143 -89 -341 3 -477 16 -23 25 -50 25 -75 0 -38 -2
-40 -29 -40 -81 0 -96 -129 -16 -138 17 -2 33 -7 37 -10 4 -4 8 -933 9 -2065
0 -1638 -2 -2061 -12 -2073 -7 -8 -28 -21 -46 -29 l-34 -14 21 -21 c11 -11 20
-27 20 -35 0 -20 -44 -65 -63 -65 -20 0 -18 -68 2 -74 30 -9 276 -8 326 0 48
9 50 11 53 44 2 30 -2 37 -28 52 -40 23 -47 45 -27 80 l17 29 -35 15 c-47 19
-55 39 -51 130 2 44 4 968 5 2055 l1 1976 30 0 c41 0 64 25 64 67 0 44 -28 76
-66 76 -26 0 -28 2 -28 44 0 25 6 48 14 55 24 20 64 124 76 194 7 45 7 87 1
127 -10 63 -54 172 -77 191 -9 7 -14 32 -14 65 l0 54 34 0 c38 0 53 14 62 58
5 25 1 36 -19 56 -15 14 -38 26 -52 26 l-25 0 0 968 c0 532 -1 1206 -3 1497
l-2 530 -25 3 c-19 2 -37 -9 -72 -45z m69 -3300 c30 -65 41 -145 31 -222 -7
-55 -54 -163 -75 -169 -16 -4 -61 93 -73 160 -7 38 -8 76 -1 119 12 71 57 169
78 169 8 0 26 -25 40 -57z"/>
</g>
</svg>
