<?xml version="1.0" standalone="no"?>
<!DOCTYPE svg PUBLIC "-//W3C//DTD SVG 20010904//EN"
 "http://www.w3.org/TR/2001/REC-SVG-20010904/DTD/svg10.dtd">
<svg version="1.0" xmlns="http://www.w3.org/2000/svg"
 width="2551.000000pt" height="2701.000000pt" viewBox="0 0 2551.000000 2701.000000"
 preserveAspectRatio="xMidYMid meet">

<g transform="translate(0.000000,2701.000000) scale(0.100000,-0.100000)"
fill="#65340A" stroke="none">
<path d="M4743 12544 l-53 -46 0 -1700 0 -1701 -37 -32 c-36 -31 -37 -34 -22
-51 34 -40 31 -52 -26 -110 -58 -59 -69 -92 -35 -101 11 -3 20 -9 20 -13 0 -4
11 -12 25 -18 38 -18 47 -50 24 -90 -23 -39 -19 -48 21 -57 l30 -7 0 -2273 0
-2273 -33 -15 c-39 -19 -66 -64 -43 -73 28 -11 26 -36 -4 -72 -24 -29 -30 -46
-30 -84 l0 -48 150 0 150 0 20 32 c23 39 28 118 7 118 -8 0 -22 9 -32 20 -18
20 -18 22 -2 49 23 40 22 48 -13 56 -17 4 -35 15 -40 25 -7 12 -10 797 -10
2277 l0 2258 30 17 c41 23 46 42 21 74 -12 15 -21 31 -21 36 0 4 25 33 55 63
30 31 55 61 55 68 0 17 -41 53 -69 62 -36 11 -45 51 -21 93 24 40 17 51 -32
56 -10 1 -14 360 -16 1754 -1 963 -5 1752 -10 1752 -4 0 -31 -21 -59 -46z"/>
</g>
</svg>
