<?xml version="1.0" standalone="no"?>
<!DOCTYPE svg PUBLIC "-//W3C//DTD SVG 20010904//EN"
 "http://www.w3.org/TR/2001/REC-SVG-20010904/DTD/svg10.dtd">
<svg version="1.0" xmlns="http://www.w3.org/2000/svg"
 width="2551.000000pt" height="2701.000000pt" viewBox="0 0 2551.000000 2701.000000"
 preserveAspectRatio="xMidYMid meet">

<g transform="translate(0.000000,2701.000000) scale(0.100000,-0.100000)"
fill="#65340A" stroke="none">
<path d="M20020 25117 c-14 -12 -41 -34 -60 -49 l-35 -27 -2 -1653 c-1 -909
-2 -1665 -2 -1680 -1 -19 -10 -32 -31 -45 -33 -19 -38 -34 -15 -53 30 -25 17
-60 -40 -115 -56 -55 -62 -78 -24 -90 10 -4 19 -11 19 -16 0 -5 6 -9 14 -9 21
0 55 -47 49 -69 -3 -11 -13 -28 -24 -40 -19 -20 -19 -20 0 -31 11 -5 27 -10
35 -10 9 0 16 -1 17 -2 0 -2 3 -816 5 -1811 l5 -1807 -29 -30 c-17 -17 -38
-30 -48 -30 -15 0 -16 -2 -2 -17 32 -37 32 -62 -1 -92 -19 -18 -31 -39 -31
-55 l0 -26 170 0 170 0 0 36 c0 27 -5 37 -19 41 -10 2 -24 16 -31 29 -13 24
-12 28 18 85 1 4 -11 12 -28 19 -17 7 -35 21 -40 31 -6 11 -10 695 -10 1817
l0 1800 35 22 c39 24 41 27 21 49 -29 34 -29 59 1 87 89 81 103 107 66 121
-20 8 -34 18 -70 51 -26 24 -25 51 6 85 15 17 14 20 -4 33 -10 8 -27 14 -37
14 -17 0 -18 69 -20 1729 l-3 1729 -25 -21z"/>
</g>
</svg>
