<?xml version="1.0" standalone="no"?>
<!DOCTYPE svg PUBLIC "-//W3C//DTD SVG 20010904//EN"
 "http://www.w3.org/TR/2001/REC-SVG-20010904/DTD/svg10.dtd">
<svg version="1.0" xmlns="http://www.w3.org/2000/svg"
 width="2551.000000pt" height="2701.000000pt" viewBox="0 0 2551.000000 2701.000000"
 preserveAspectRatio="xMidYMid meet">

<g transform="translate(0.000000,2701.000000) scale(0.100000,-0.100000)"
fill="#65340A" stroke="none">
<path d="M8263 15444 l-52 -45 0 -1682 c0 -1157 -3 -1683 -10 -1685 -6 -2 -20
-11 -31 -20 -21 -17 -21 -17 -1 -55 23 -46 20 -58 -25 -92 -19 -15 -42 -37
-51 -51 -15 -24 -14 -26 13 -54 16 -16 34 -30 40 -30 35 -1 48 -68 20 -99 -24
-26 -20 -39 14 -46 30 -7 30 -7 30 -73 0 -37 3 -849 6 -1804 6 -1608 5 -1739
-10 -1763 -9 -14 -23 -25 -31 -25 -7 0 -21 -10 -29 -22 -14 -20 -14 -24 4 -43
26 -27 25 -40 -2 -59 -16 -12 -23 -30 -28 -71 -3 -31 -4 -58 -1 -60 2 -3 71
-5 152 -5 166 0 159 -4 159 88 0 36 -4 44 -25 54 -30 14 -32 41 -4 76 l20 26
-38 19 c-21 11 -41 25 -45 31 -4 6 -8 822 -8 1814 l0 1803 23 8 c13 5 29 16
36 25 11 13 10 20 -8 42 -29 37 -26 62 8 81 32 19 71 71 71 95 0 9 -9 20 -20
23 -11 3 -20 11 -20 16 0 5 -11 14 -25 19 -35 13 -42 52 -15 95 l22 35 -36 15
-36 15 0 1725 c0 949 -3 1725 -7 1725 -5 0 -31 -21 -60 -46z"/>
</g>
</svg>
