<?xml version="1.0" standalone="no"?>
<!DOCTYPE svg PUBLIC "-//W3C//DTD SVG 20010904//EN"
 "http://www.w3.org/TR/2001/REC-SVG-20010904/DTD/svg10.dtd">
<svg version="1.0" xmlns="http://www.w3.org/2000/svg"
 width="2551.000000pt" height="2701.000000pt" viewBox="0 0 2551.000000 2701.000000"
 preserveAspectRatio="xMidYMid meet">

<g transform="translate(0.000000,2701.000000) scale(0.100000,-0.100000)"
fill="#65340A" stroke="none">
<path d="M10618 17381 l-58 -46 0 -1687 c0 -1384 -2 -1688 -13 -1688 -7 0 -21
-6 -31 -13 -17 -13 -17 -15 2 -51 17 -31 18 -43 10 -62 -6 -13 -15 -24 -20
-24 -15 0 -68 -60 -68 -77 0 -15 56 -73 70 -73 4 0 12 -11 18 -24 8 -19 7 -31
-9 -60 -10 -20 -19 -38 -19 -40 0 -2 14 -9 30 -16 l30 -12 0 -689 c0 -379 0
-1190 1 -1802 1 -611 1 -1120 0 -1129 -1 -9 -9 -19 -19 -22 -10 -4 -29 -16
-41 -27 l-22 -21 21 -23 c25 -27 20 -60 -11 -70 -16 -5 -19 -16 -19 -66 l0
-59 150 1 150 1 0 55 c0 47 -4 60 -25 79 -30 28 -31 34 -5 64 27 31 26 35 -17
57 l-38 20 -3 1815 -2 1816 30 10 c33 12 37 27 15 56 -23 30 -19 73 8 87 37
20 67 53 66 74 0 21 -31 65 -47 65 -16 0 -42 36 -42 59 0 12 8 33 17 48 16 24
16 26 -2 39 -10 8 -25 14 -32 14 -11 0 -13 315 -15 1733 l-3 1734 -57 -46z"/>
</g>
</svg>
