<?xml version="1.0" standalone="no"?>
<!DOCTYPE svg PUBLIC "-//W3C//DTD SVG 20010904//EN"
 "http://www.w3.org/TR/2001/REC-SVG-20010904/DTD/svg10.dtd">
<svg version="1.0" xmlns="http://www.w3.org/2000/svg"
 width="2551.000000pt" height="2701.000000pt" viewBox="0 0 2551.000000 2701.000000"
 preserveAspectRatio="xMidYMid meet">

<g transform="translate(0.000000,2701.000000) scale(0.100000,-0.100000)"
fill="#65340A" stroke="none">
<path d="M11793 18346 l-53 -41 0 -1712 c0 -1383 -2 -1713 -13 -1713 -7 0 -23
-7 -35 -16 l-22 -15 22 -30 c18 -23 20 -34 12 -57 -5 -15 -19 -31 -32 -37 -12
-5 -22 -13 -22 -17 0 -5 -9 -17 -20 -28 -12 -12 -17 -26 -13 -37 8 -20 40 -53
51 -53 16 0 42 -36 42 -57 0 -11 -9 -32 -20 -46 l-20 -26 22 -15 c12 -9 28
-16 35 -16 11 0 13 -434 13 -2269 0 -2049 -2 -2271 -16 -2285 -8 -9 -26 -19
-40 -22 -27 -7 -32 -35 -9 -54 22 -19 18 -48 -10 -66 -22 -14 -25 -24 -25 -70
0 -30 3 -54 8 -54 11 -1 191 -1 250 -1 l52 1 0 56 c0 46 -3 55 -15 50 -30 -11
-46 55 -20 84 14 16 12 19 -19 41 -19 13 -37 33 -40 44 -3 11 -6 1038 -6 2283
0 1857 2 2262 13 2262 7 0 22 6 33 14 18 14 18 16 2 44 -10 17 -18 39 -18 49
0 19 28 53 44 53 10 0 56 51 56 63 0 5 -22 30 -50 56 -55 51 -61 75 -30 114
l20 25 -25 16 c-13 9 -29 16 -35 16 -7 0 -11 556 -12 1754 l-3 1754 -52 -42z"/>
</g>
</svg>
