<?xml version="1.0" standalone="no"?>
<!DOCTYPE svg PUBLIC "-//W3C//DTD SVG 20010904//EN"
 "http://www.w3.org/TR/2001/REC-SVG-20010904/DTD/svg10.dtd">
<svg version="1.0" xmlns="http://www.w3.org/2000/svg"
 width="2551.000000pt" height="2701.000000pt" viewBox="0 0 2551.000000 2701.000000"
 preserveAspectRatio="xMidYMid meet">

<g transform="translate(0.000000,2701.000000) scale(0.100000,-0.100000)"
fill="#65340A" stroke="none">
<path d="M12957 19307 l-47 -42 0 -1687 c0 -1384 -2 -1688 -13 -1688 -7 0 -22
-6 -32 -14 -18 -13 -18 -15 -2 -39 26 -39 22 -74 -10 -94 -37 -24 -69 -64 -65
-82 2 -7 15 -23 29 -35 70 -58 78 -80 47 -124 -18 -26 -5 -52 27 -52 19 0 19
-46 19 -1811 0 -1140 -4 -1817 -10 -1828 -5 -10 -23 -24 -40 -31 -36 -15 -36
-15 -11 -47 24 -29 16 -63 -18 -78 -19 -9 -21 -17 -19 -60 l3 -50 153 -3 152
-3 0 50 c0 41 -4 51 -25 65 -29 19 -32 51 -8 79 17 18 17 20 -7 37 -14 11 -32
25 -41 33 -15 13 -16 165 -13 1828 l4 1813 31 13 31 13 -22 35 c-27 44 -21 61
35 108 25 21 45 45 45 54 0 15 -56 73 -70 73 -4 0 -12 12 -19 26 -10 22 -8 32
9 61 11 20 19 37 18 39 -2 1 -16 9 -31 17 l-27 14 0 1727 c0 1378 -2 1726 -12
1726 -7 -1 -34 -20 -61 -43z"/>
</g>
</svg>
