<?xml version="1.0" standalone="no"?>
<!DOCTYPE svg PUBLIC "-//W3C//DTD SVG 20010904//EN"
 "http://www.w3.org/TR/2001/REC-SVG-20010904/DTD/svg10.dtd">
<svg version="1.0" xmlns="http://www.w3.org/2000/svg"
 width="2551.000000pt" height="2701.000000pt" viewBox="0 0 2551.000000 2701.000000"
 preserveAspectRatio="xMidYMid meet">

<g transform="translate(0.000000,2701.000000) scale(0.100000,-0.100000)"
fill="#3a4548" stroke="none">
<path d="M15303 21237 l-52 -42 0 -1687 c-1 -1343 -4 -1688 -13 -1688 -7 0
-22 -7 -32 -15 -18 -13 -18 -16 -2 -39 27 -42 20 -70 -29 -111 -24 -21 -47
-45 -50 -53 -6 -16 19 -43 68 -75 31 -20 36 -61 12 -93 -22 -29 -18 -44 15
-50 l30 -6 0 -1820 0 -1819 -35 -20 c-39 -24 -40 -26 -20 -53 22 -29 19 -45
-16 -77 -25 -23 -30 -35 -27 -66 l3 -38 148 -5 c81 -3 152 -4 157 -2 6 2 10
21 10 43 0 30 -5 42 -25 55 -33 22 -40 50 -19 82 16 25 16 27 -1 37 -9 5 -26
17 -36 25 -18 15 -19 45 -19 935 -1 2654 -1 2725 13 2725 7 0 22 6 32 14 17
12 17 14 2 37 -22 31 -21 72 1 92 10 10 21 17 25 17 12 0 57 47 57 60 0 14
-46 60 -59 60 -16 0 -41 37 -41 61 0 14 7 35 17 48 15 23 15 25 -2 37 -10 8
-25 14 -32 14 -11 0 -13 311 -13 1730 0 952 -3 1730 -7 1730 -5 0 -31 -20 -60
-43z"/>
</g>
</svg>
