<?xml version="1.0" standalone="no"?>
<!DOCTYPE svg PUBLIC "-//W3C//DTD SVG 20010904//EN"
 "http://www.w3.org/TR/2001/REC-SVG-20010904/DTD/svg10.dtd">
<svg version="1.0" xmlns="http://www.w3.org/2000/svg"
 width="2551.000000pt" height="2701.000000pt" viewBox="0 0 2551.000000 2701.000000"
 preserveAspectRatio="xMidYMid meet">

<g transform="translate(0.000000,2701.000000) scale(0.100000,-0.100000)"
fill="#3a4548" stroke="none">
<path d="M21153 26049 l-63 -51 0 -1698 0 -1698 -35 -26 -35 -27 20 -26 c28
-36 26 -67 -9 -90 -64 -41 -101 -113 -57 -113 7 0 16 -7 20 -15 3 -8 12 -15
19 -15 20 0 47 -33 47 -57 0 -11 -9 -32 -20 -46 -26 -33 -26 -35 15 -43 l35
-6 0 -737 c1 -405 2 -1421 3 -2258 2 -837 -1 -1531 -5 -1542 -4 -11 -23 -28
-43 -39 -32 -16 -35 -20 -21 -31 9 -8 16 -29 16 -48 0 -27 -6 -37 -30 -51 -23
-14 -29 -23 -26 -46 l3 -29 172 -1 171 -1 0 36 c0 28 -5 39 -25 49 -34 18 -42
53 -20 87 10 15 14 28 9 30 -5 2 -24 12 -41 23 l-33 20 0 2268 0 2269 35 19
c41 22 42 26 15 62 -18 25 -19 72 0 72 3 0 25 17 48 38 46 42 54 77 22 87 -11
3 -20 10 -20 15 0 4 -11 11 -25 14 -39 10 -50 51 -25 93 24 40 21 49 -20 58
l-30 7 -2 1749 -3 1749 -62 -51z"/>
</g>
</svg>
