<?xml version="1.0" standalone="no"?>
<!DOCTYPE svg PUBLIC "-//W3C//DTD SVG 20010904//EN"
 "http://www.w3.org/TR/2001/REC-SVG-20010904/DTD/svg10.dtd">
<svg version="1.0" xmlns="http://www.w3.org/2000/svg"
 width="2551.000000pt" height="2701.000000pt" viewBox="0 0 2551.000000 2701.000000"
 preserveAspectRatio="xMidYMid meet">

<g transform="translate(0.000000,2701.000000) scale(0.100000,-0.100000)"
fill="#3a4548" stroke="none">
<path d="M23420 25736 l0 -1214 -37 -29 -36 -30 21 -21 c31 -31 28 -66 -5 -87
-33 -21 -82 -75 -83 -91 0 -11 53 -54 68 -54 16 0 42 -36 42 -57 0 -11 -9 -32
-20 -46 -11 -14 -20 -27 -20 -30 0 -3 16 -8 35 -11 l35 -7 0 -657 c0 -361 0
-1370 1 -2242 1 -872 1 -1599 0 -1617 -1 -26 -8 -36 -41 -56 -35 -21 -39 -26
-25 -37 26 -21 19 -67 -15 -92 -16 -12 -30 -30 -30 -40 0 -17 13 -18 180 -18
l180 0 0 28 c0 21 -7 32 -25 40 -32 15 -42 55 -21 87 16 24 15 25 -16 41 -18
9 -36 22 -40 28 -4 6 -8 1029 -8 2274 l0 2263 35 20 c31 19 48 49 27 49 -5 0
-14 12 -21 26 -10 22 -9 31 4 50 8 13 20 24 25 24 12 0 80 72 80 86 0 13 -48
49 -78 58 -31 10 -44 39 -33 69 6 14 15 28 20 32 23 13 10 34 -24 41 l-35 6 0
1214 0 1214 -70 0 -70 0 0 -1214z"/>
</g>
</svg>
