<?xml version="1.0" standalone="no"?>
<!DOCTYPE svg PUBLIC "-//W3C//DTD SVG 20010904//EN"
 "http://www.w3.org/TR/2001/REC-SVG-20010904/DTD/svg10.dtd">
<svg version="1.0" xmlns="http://www.w3.org/2000/svg"
 width="2551.000000pt" height="2701.000000pt" viewBox="0 0 2551.000000 2701.000000"
 preserveAspectRatio="xMidYMid meet">

<g transform="translate(0.000000,2701.000000) scale(0.100000,-0.100000)"
fill="#3a4548" stroke="none">
<path d="M14132 20272 l-52 -47 0 -1706 0 -1707 -30 -12 c-33 -14 -38 -31 -15
-50 29 -24 18 -65 -30 -106 -53 -45 -57 -70 -15 -104 55 -45 60 -51 60 -79 0
-16 -7 -34 -15 -41 -23 -19 -18 -36 15 -50 l30 -12 0 -2265 c0 -1430 -4 -2271
-10 -2282 -5 -10 -23 -24 -39 -31 l-31 -12 20 -28 c23 -33 14 -74 -18 -84 -15
-5 -20 -16 -20 -51 -1 -24 4 -47 10 -51 7 -4 76 -8 155 -8 l143 -1 0 47 c0 37
-4 50 -19 58 -29 15 -35 47 -15 78 16 25 16 27 -1 37 -9 5 -27 17 -39 27 l-21
16 0 1909 c0 1049 1 2074 3 2276 l2 368 30 11 c33 11 38 29 15 48 -8 7 -15 28
-15 46 0 26 6 38 28 51 26 17 72 60 72 68 0 9 -57 63 -77 74 -27 14 -31 65 -8
95 21 27 19 32 -15 46 l-30 12 0 1754 c0 965 -3 1754 -7 1754 -5 0 -32 -22
-61 -48z"/>
</g>
</svg>
