<?xml version="1.0" standalone="no"?>
<!DOCTYPE svg PUBLIC "-//W3C//DTD SVG 20010904//EN"
 "http://www.w3.org/TR/2001/REC-SVG-20010904/DTD/svg10.dtd">
<svg version="1.0" xmlns="http://www.w3.org/2000/svg"
 width="2551.000000pt" height="2701.000000pt" viewBox="0 0 2551.000000 2701.000000"
 preserveAspectRatio="xMidYMid meet">

<g transform="translate(0.000000,2701.000000) scale(0.100000,-0.100000)"
fill="#3a4548" stroke="none">
<path d="M17647 23157 l-58 -52 3 -563 3 -562 -92 0 -93 0 -1 -47 c-1 -72 -1
-4415 0 -5030 l1 -533 90 0 90 0 0 -355 0 -355 -32 -20 c-18 -11 -37 -22 -43
-23 -5 -2 -2 -13 8 -24 25 -29 22 -69 -8 -89 -20 -13 -25 -24 -25 -60 l0 -44
167 2 168 3 -3 39 c-3 27 -11 46 -28 59 -28 22 -32 62 -8 88 15 16 13 19 -25
43 l-41 26 0 355 0 355 89 0 c72 0 90 3 95 16 3 9 6 1271 6 2805 l0 2789 -95
0 -95 0 0 615 c0 338 -3 615 -7 615 -5 0 -34 -24 -66 -53z m171 -1819 l2 -518
-160 0 -160 0 0 518 0 517 158 0 157 0 3 -517z m2 -763 l0 -125 -160 0 -160 0
0 125 0 125 160 0 160 0 0 -125z m-2 -1452 l-3 -1208 -157 -3 -158 -3 0 1211
0 1210 160 0 160 0 -2 -1207z m2 -1447 c0 -110 -2 -125 -17 -130 -36 -9 -292
-6 -298 5 -8 12 -13 238 -6 244 2 3 76 5 163 5 l158 0 0 -124z m-2 -708 l-3
-463 -157 -3 -157 -3 -7 27 c-5 19 1 872 6 902 0 1 72 2 160 2 l160 0 -2 -462z"/>
</g>
</svg>
