<?xml version="1.0" standalone="no"?>
<!DOCTYPE svg PUBLIC "-//W3C//DTD SVG 20010904//EN"
 "http://www.w3.org/TR/2001/REC-SVG-20010904/DTD/svg10.dtd">
<svg version="1.0" xmlns="http://www.w3.org/2000/svg"
 width="2551.000000pt" height="2701.000000pt" viewBox="0 0 2551.000000 2701.000000"
 preserveAspectRatio="xMidYMid meet">

<g transform="translate(0.000000,2701.000000) scale(0.100000,-0.100000)"
fill="#3a4548" stroke="none">
<path d="M18825 24130 l-60 -48 -5 -599 -5 -598 -87 -3 -88 -3 -1 -42 c-1 -67
-1 -4427 0 -5009 l1 -527 91 -3 90 -3 0 -813 c0 -569 -3 -818 -11 -827 -6 -7
-24 -18 -41 -25 -27 -12 -28 -14 -14 -30 23 -25 19 -68 -10 -94 -19 -18 -25
-33 -25 -65 l0 -41 168 2 167 3 3 43 c2 25 -1 42 -7 42 -40 0 -67 84 -36 110
14 11 11 16 -22 34 l-38 22 -3 821 -2 822 92 3 93 3 3 2788 c1 1533 -1 2788
-5 2788 -5 1 -44 3 -88 4 -44 2 -83 3 -87 4 -5 1 -9 291 -10 645 l-3 644 -60
-48z m165 -1885 l0 -515 -160 0 -160 0 -2 511 c-2 281 -1 513 1 515 2 2 76 4
163 4 l158 0 0 -515z m0 -760 l0 -125 -160 0 -160 0 0 125 0 125 160 0 160 0
0 -125z m-2 -1447 l-3 -1203 -157 -3 -158 -3 0 1206 0 1205 160 0 160 0 -2
-1202z m2 -1445 l0 -123 -117 -1 c-121 -2 -195 1 -201 6 -6 5 -8 236 -2 242 3
2 76 3 162 1 l158 -3 0 -122z m0 -703 l0 -460 -162 2 -163 3 0 375 c0 206 1
412 3 458 l4 82 159 0 159 0 0 -460z"/>
</g>
</svg>
