<?xml version="1.0" standalone="no"?>
<!DOCTYPE svg PUBLIC "-//W3C//DTD SVG 20010904//EN"
 "http://www.w3.org/TR/2001/REC-SVG-20010904/DTD/svg10.dtd">
<svg version="1.0" xmlns="http://www.w3.org/2000/svg"
 width="2551.000000pt" height="2701.000000pt" viewBox="0 0 2551.000000 2701.000000"
 preserveAspectRatio="xMidYMid meet">

<g transform="translate(0.000000,2701.000000) scale(0.100000,-0.100000)"
fill="#3a4548" stroke="none">
<path d="M7120 14497 c-14 -12 -38 -32 -53 -44 l-28 -22 -2 -593 -2 -593 -92
-3 -93 -3 -1 -42 c-1 -66 -1 -4453 0 -5044 l1 -533 95 0 95 0 0 -810 0 -811
-35 -20 c-49 -29 -60 -52 -35 -74 25 -23 25 -41 0 -55 -23 -12 -43 -73 -38
-115 l3 -30 152 0 c84 0 155 4 159 8 5 4 10 36 12 71 4 57 2 64 -17 69 -30 7
-37 35 -17 67 22 38 21 39 -19 56 -21 8 -37 23 -40 37 -3 12 -6 378 -8 814
l-2 792 95 3 95 3 3 2808 2 2807 -95 0 -95 0 0 640 c0 352 -3 640 -7 640 -5 0
-19 -11 -33 -23z m140 -1897 l0 -520 -160 0 -160 0 -2 516 c-2 284 -1 518 1
520 2 2 76 4 163 4 l158 0 0 -520z m0 -765 l0 -125 -160 0 -160 0 0 125 0 125
160 0 160 0 0 -125z m0 -1460 l0 -1215 -160 0 -160 0 0 1215 0 1215 160 0 160
0 0 -1215z m0 -1460 l0 -125 -160 0 -160 0 -2 48 c-1 37 0 188 2 200 0 1 72 2
160 2 l160 0 0 -125z m0 -705 l0 -460 -162 2 -163 3 0 380 c0 209 1 415 3 458
l4 77 159 0 159 0 0 -460z"/>
</g>
</svg>
