<?xml version="1.0" standalone="no"?>
<!DOCTYPE svg PUBLIC "-//W3C//DTD SVG 20010904//EN"
 "http://www.w3.org/TR/2001/REC-SVG-20010904/DTD/svg10.dtd">
<svg version="1.0" xmlns="http://www.w3.org/2000/svg"
 width="2551.000000pt" height="2701.000000pt" viewBox="0 0 2551.000000 2701.000000"
 preserveAspectRatio="xMidYMid meet">

<g transform="translate(0.000000,2701.000000) scale(0.100000,-0.100000)"
fill="#3a4548" stroke="none">
<path d="M11787 18337 l-47 -42 -3 -595 -2 -595 -92 -3 -93 -3 -1 -42 c-1 -63
-1 -4413 0 -5024 l1 -533 95 0 95 0 0 -806 c0 -496 -4 -812 -10 -823 -5 -10
-23 -24 -40 -31 -33 -14 -38 -31 -15 -50 24 -20 19 -59 -10 -72 -23 -10 -25
-17 -25 -70 l0 -58 155 0 155 0 0 61 c0 50 -3 60 -15 55 -9 -3 -19 3 -26 15
-12 23 -4 69 11 69 22 0 8 26 -25 49 -20 13 -38 33 -40 45 -3 12 -4 379 -3
816 l3 795 95 5 95 5 3 2798 2 2797 -94 0 c-66 0 -95 4 -98 13 -2 6 -3 294 -3
640 1 440 -2 627 -9 627 -6 0 -32 -19 -59 -43z m171 -1874 l-3 -518 -157 -3
-158 -2 -2 516 c-2 284 -1 518 1 520 2 2 76 4 163 4 l158 0 -2 -517z m2 -759
l0 -124 -87 -1 c-90 -2 -184 -2 -215 0 -16 1 -18 14 -18 126 l0 126 160 -2
160 -1 0 -124z m0 -1454 l0 -1210 -160 0 -160 0 0 1210 0 1210 160 0 160 0 0
-1210z m0 -1455 l0 -125 -160 0 -160 0 -2 43 c-1 34 0 195 2 205 0 1 72 2 160
2 l160 0 0 -125z m0 -705 l0 -460 -162 2 -163 3 0 380 c0 209 1 415 3 458 l4
77 159 0 159 0 0 -460z"/>
</g>
</svg>
