<?xml version="1.0" standalone="no"?>
<!DOCTYPE svg PUBLIC "-//W3C//DTD SVG 20010904//EN"
 "http://www.w3.org/TR/2001/REC-SVG-20010904/DTD/svg10.dtd">
<svg version="1.0" xmlns="http://www.w3.org/2000/svg"
 width="2551.000000pt" height="2701.000000pt" viewBox="0 0 2551.000000 2701.000000"
 preserveAspectRatio="xMidYMid meet">

<g transform="translate(0.000000,2701.000000) scale(0.100000,-0.100000)"
fill="#3a4548" stroke="none">
<path d="M14140 20274 l-55 -44 -5 -597 -5 -598 -87 -3 -88 -3 -1 -42 c-1 -58
-1 -4355 0 -5014 l1 -533 90 0 90 0 -2 -822 -3 -822 -36 -21 -36 -20 19 -26
c15 -20 17 -30 9 -51 -5 -15 -19 -29 -30 -33 -17 -5 -21 -15 -21 -48 0 -23 4
-47 8 -54 5 -8 46 -12 127 -13 206 -2 185 -8 185 49 0 41 -4 51 -25 65 -29 19
-32 51 -7 79 16 19 16 20 -8 36 -65 43 -60 -34 -60 866 l0 814 98 3 97 3 3
2793 2 2792 -95 0 c-52 0 -96 1 -97 3 -1 1 -5 291 -8 643 l-5 642 -55 -44z
m170 -1878 l0 -515 -122 -3 c-68 -2 -140 -1 -160 1 l-38 3 -2 510 c-2 280 -1
512 1 514 2 2 76 4 163 4 l158 0 0 -514z m0 -761 l0 -125 -160 0 -160 0 0 125
0 125 160 0 160 0 0 -125z m0 -1450 l0 -1205 -160 0 -160 0 0 1205 0 1205 160
0 160 0 0 -1205z m0 -1450 l0 -125 -160 0 -160 0 -2 43 c-3 81 -3 192 0 200 2
4 75 7 163 7 l159 0 0 -125z m0 -705 l0 -460 -162 2 -163 3 0 375 c0 206 1
412 3 458 l4 82 159 0 159 0 0 -460z"/>
</g>
</svg>
