<?xml version="1.0" standalone="no"?>
<!DOCTYPE svg PUBLIC "-//W3C//DTD SVG 20010904//EN"
 "http://www.w3.org/TR/2001/REC-SVG-20010904/DTD/svg10.dtd">
<svg version="1.0" xmlns="http://www.w3.org/2000/svg"
 width="2550.000000pt" height="2700.000000pt" viewBox="0 0 2550.000000 2700.000000"
 preserveAspectRatio="xMidYMid meet">

<g transform="translate(0.000000,2700.000000) scale(0.100000,-0.100000)"
fill="#3a4548" stroke="none">
<path d="M16423 20651 l-53 -49 0 -596 0 -596 -105 0 -105 0 0 -2520 0 -2520
105 0 105 0 -2 -732 c-3 -727 -3 -733 -23 -730 -11 2 -17 1 -13 -4 4 -4 4 -12
-2 -18 -5 -7 -5 -27 -1 -48 7 -30 5 -40 -10 -54 -10 -9 -20 -30 -22 -48 l-4
-31 -1 33 c-2 24 5 40 21 53 l22 20 -27 -17 c-24 -14 -28 -23 -28 -60 0 -39 3
-44 23 -45 25 -1 109 -1 210 0 l67 1 0 40 c0 30 -4 40 -16 40 -8 0 -13 4 -10
9 3 5 -1 11 -9 15 -19 7 -19 50 0 66 21 17 19 29 -7 40 -60 25 -55 -31 -57
764 -2 634 0 728 13 717 9 -8 47 -11 112 -9 l99 3 0 2515 0 2515 -107 3 -108
3 0 644 c0 355 -3 645 -7 645 -5 0 -32 -22 -60 -49z m77 -1361 l-115 -6 108
-2 107 -2 0 -445 0 -445 -169 0 c-153 0 -170 2 -174 18 -3 9 -6 209 -6 445
l-2 427 68 2 68 2 -70 6 c-45 4 -5 6 115 6 164 0 172 -1 70 -6z m0 -1020
l-115 -6 108 -2 107 -2 0 -105 0 -105 -173 0 -173 0 -2 78 c-1 42 1 89 4 105
5 26 9 27 67 29 l62 2 -70 6 c-45 4 -5 6 115 6 164 0 172 -1 70 -6z m0 -340
l-115 -6 108 -2 107 -2 0 -1075 0 -1075 -170 0 -169 0 -6 33 c-3 17 -4 500 -2
1072 l2 1040 65 5 65 4 -70 6 c-43 4 0 6 115 6 164 0 172 -1 70 -6z m0 -2280
l-115 -6 108 -2 107 -2 0 -95 0 -95 -175 0 -175 0 0 73 c0 114 2 117 74 119
l61 2 -70 6 c-45 4 -5 6 115 6 164 0 172 -1 70 -6z m0 -320 l-115 -6 107 -2
108 -2 2 -417 3 -418 -170 5 -170 5 -6 195 c-3 107 -5 292 -5 410 l1 215 65 5
65 4 -70 6 c-43 4 0 6 115 6 164 0 172 -1 70 -6z m67 -946 c-3 -3 -12 -4 -19
-1 -8 3 -5 6 6 6 11 1 17 -2 13 -5z m126 -1 c-7 -2 -21 -2 -30 0 -10 3 -4 5
12 5 17 0 24 -2 18 -5z"/>
<path d="M16305 12889 c-4 -6 -5 -12 -2 -15 2 -3 7 2 10 11 7 17 1 20 -8 4z"/>
</g>
</svg>
