<?xml version="1.0" standalone="no"?>
<!DOCTYPE svg PUBLIC "-//W3C//DTD SVG 20010904//EN"
 "http://www.w3.org/TR/2001/REC-SVG-20010904/DTD/svg10.dtd">
<svg version="1.0" xmlns="http://www.w3.org/2000/svg"
 width="2550.000000pt" height="2700.000000pt" viewBox="0 0 2550.000000 2700.000000"
 preserveAspectRatio="xMidYMid meet">

<g transform="translate(0.000000,2700.000000) scale(0.100000,-0.100000)"
fill="#3a4548" stroke="none">
<path d="M18210 22375 l-44 -45 3 -593 c1 -325 0 -600 -4 -609 -6 -16 -21 -18
-111 -18 l-104 0 0 -2515 0 -2515 110 0 110 0 -2 -737 -3 -738 -32 -20 c-21
-13 -30 -25 -26 -35 17 -44 14 -67 -11 -87 -18 -15 -26 -30 -26 -52 l0 -31
144 0 144 0 4 30 c3 23 -1 33 -17 44 -28 18 -37 59 -19 85 13 17 10 21 -21 40
l-35 20 0 739 0 739 53 7 c28 3 76 6 105 6 l52 0 0 2520 0 2520 -105 -7 -105
-6 0 651 c0 359 -4 652 -8 652 -4 0 -28 -20 -52 -45z m184 -1361 c9 -23 7
-902 -2 -908 -4 -2 -85 -7 -180 -11 l-172 -8 2 464 3 464 135 5 c74 3 151 7
171 8 26 1 39 -3 43 -14z m0 -1035 c9 -44 8 -207 -2 -213 -4 -2 -85 -7 -180
-11 l-173 -8 3 124 3 124 135 5 c74 3 151 7 171 8 33 2 37 -1 43 -29z m0 -340
c9 -45 7 -2167 -2 -2173 -4 -2 -85 -7 -180 -11 l-172 -8 2 1104 3 1104 135 5
c74 3 151 7 171 8 33 2 37 -1 43 -29z m0 -2285 c9 -23 7 -202 -2 -208 -4 -2
-85 -7 -180 -11 l-173 -8 3 114 3 114 135 5 c74 3 151 7 171 8 26 1 39 -3 43
-14z m1 -326 c3 -13 4 -210 3 -438 l-3 -415 -175 0 -175 0 0 430 0 430 135 5
c74 3 152 7 172 8 32 2 39 -2 43 -20z"/>
</g>
</svg>
