<?xml version="1.0" standalone="no"?>
<!DOCTYPE svg PUBLIC "-//W3C//DTD SVG 20010904//EN"
 "http://www.w3.org/TR/2001/REC-SVG-20010904/DTD/svg10.dtd">
<svg version="1.0" xmlns="http://www.w3.org/2000/svg"
 width="2550.000000pt" height="2700.000000pt" viewBox="0 0 2550.000000 2700.000000"
 preserveAspectRatio="xMidYMid meet">

<g transform="translate(0.000000,2700.000000) scale(0.100000,-0.100000)"
fill="#3a4548" stroke="none">
<path d="M19938 24219 l-43 -51 4 -613 3 -612 -23 -6 c-13 -3 -63 -9 -111 -13
l-88 -7 0 -2554 0 -2555 108 3 107 3 0 -744 0 -745 -44 -24 c-38 -21 -42 -26
-27 -36 26 -20 20 -62 -14 -87 -18 -13 -30 -31 -30 -45 l0 -23 173 2 c170 3
172 3 175 25 2 17 -4 26 -23 35 -32 15 -42 51 -22 82 16 23 15 24 -14 36 -16
7 -34 21 -39 31 -6 11 -10 228 -10 548 l0 530 -22 3 c-23 3 -23 4 -26 212 -1
134 1 213 8 221 7 8 54 15 127 20 l116 7 -6 2546 c-7 2666 -5 2569 -47 2557
-8 -2 -45 -7 -82 -11 l-68 -6 0 649 c0 745 3 723 -82 622z m170 -1841 l2 -468
-22 -4 c-25 -5 -263 -26 -290 -26 -17 0 -18 28 -18 458 0 251 4 463 9 471 6 9
44 17 117 23 60 5 114 10 119 13 6 2 26 3 45 2 l35 -2 3 -467z m-3 -698 l0
-115 -135 -12 c-74 -6 -147 -14 -162 -17 l-28 -5 0 107 c0 59 4 113 9 121 6 9
44 17 117 23 60 5 114 10 119 13 6 2 26 3 45 2 l35 -2 0 -115z m5 -1314 c0
-599 -2 -1092 -5 -1095 -5 -5 -245 -30 -297 -31 l-28 0 0 1084 c0 963 2 1085
15 1096 9 7 63 17 123 22 59 5 112 10 117 13 6 2 25 3 43 2 l32 -2 0 -1089z
m-2 -1313 c3 -100 2 -103 -20 -107 -25 -5 -262 -26 -290 -26 -16 0 -18 11 -18
93 0 50 4 98 9 106 6 9 44 17 117 23 60 5 114 10 119 13 6 2 26 3 45 2 l35 -2
3 -102z m-3 -673 l0 -455 -155 -6 c-85 -3 -158 -4 -162 -2 -11 6 -10 865 1
882 6 9 44 17 117 23 60 5 114 10 119 13 6 2 26 3 45 2 l35 -2 0 -455z"/>
</g>
</svg>
