<?xml version="1.0" standalone="no"?>
<!DOCTYPE svg PUBLIC "-//W3C//DTD SVG 20010904//EN"
 "http://www.w3.org/TR/2001/REC-SVG-20010904/DTD/svg10.dtd">
<svg version="1.0" xmlns="http://www.w3.org/2000/svg"
 width="2550.000000pt" height="2700.000000pt" viewBox="0 0 2550.000000 2700.000000"
 preserveAspectRatio="xMidYMid meet">

<g transform="translate(0.000000,2700.000000) scale(0.100000,-0.100000)"
fill="#3a4548" stroke="none">
<path d="M22249 26993 c-1 -4 -2 -230 -3 -501 -1 -395 -4 -494 -14 -501 -7 -4
-47 -16 -88 -26 l-74 -19 0 -531 c-1 -4879 -2 -4769 19 -4777 20 -7 101 3 132
16 12 5 18 1 23 -16 3 -13 6 -163 6 -334 0 -298 -1 -311 -20 -332 -12 -12 -26
-22 -33 -22 -7 0 -18 -4 -26 -9 -11 -7 -10 -13 4 -34 21 -33 13 -58 -25 -80
-16 -10 -30 -25 -30 -34 0 -13 9 -15 53 -10 28 3 114 11 191 18 l138 13 -26
19 c-30 21 -33 52 -10 78 16 17 15 19 -10 29 -15 5 -36 10 -46 10 -17 0 -18
17 -19 359 -2 338 -1 360 16 365 10 3 51 8 91 12 l72 7 0 2677 0 2677 -22 10
c-17 7 -40 5 -85 -8 -34 -9 -64 -15 -67 -11 -3 3 -6 219 -6 481 l0 476 -70 3
c-39 1 -71 -1 -71 -5z m201 -1557 l0 -474 -47 -16 c-41 -13 -190 -46 -208 -46
-3 0 -4 213 -3 473 l3 472 110 32 c61 17 118 32 128 32 16 1 17 -28 17 -473z
m0 -715 l0 -109 -47 -16 c-41 -13 -190 -46 -208 -46 -3 0 -4 48 -3 108 l3 107
110 32 c61 17 118 32 128 32 15 1 17 -11 17 -108z m0 -1385 l0 -1144 -47 -16
c-40 -13 -190 -46 -208 -46 -3 0 -4 514 -3 1143 l3 1142 110 32 c61 17 118 32
128 32 16 1 17 -60 17 -1143z m0 -1375 l0 -99 -47 -16 c-41 -13 -190 -46 -208
-46 -3 0 -4 44 -3 98 l3 97 110 32 c61 17 118 32 128 32 15 1 17 -10 17 -98z
m0 -700 l0 -468 -122 -20 c-68 -10 -126 -16 -131 -13 -4 3 -6 208 -5 456 l3
449 110 32 c61 17 118 32 128 32 16 1 17 -28 17 -468z"/>
</g>
</svg>
