<?xml version="1.0" standalone="no"?>
<!DOCTYPE svg PUBLIC "-//W3C//DTD SVG 20010904//EN"
 "http://www.w3.org/TR/2001/REC-SVG-20010904/DTD/svg10.dtd">
<svg version="1.0" xmlns="http://www.w3.org/2000/svg"
 width="2550.000000pt" height="2700.000000pt" viewBox="0 0 2550.000000 2700.000000"
 preserveAspectRatio="xMidYMid meet">

<g transform="translate(0.000000,2700.000000) scale(0.100000,-0.100000)"
fill="#3a4548" stroke="none">
<path d="M22898 26579 c-2 -233 -2 -1444 0 -2691 l2 -2268 53 0 c28 0 69 4 89
9 29 7 38 5 42 -6 3 -8 6 -357 6 -776 -1 -595 -3 -766 -13 -778 -7 -10 -30
-24 -51 -33 l-38 -16 21 -26 c16 -21 18 -30 9 -49 -6 -14 -19 -27 -30 -30 -20
-7 -42 -41 -31 -48 5 -3 87 4 183 14 96 10 181 19 189 19 9 0 4 9 -13 25 -30
27 -32 43 -11 71 21 28 19 31 -20 38 -26 5 -39 14 -45 32 -6 15 -10 260 -10
603 0 570 0 579 -20 584 -19 5 -20 14 -22 206 -1 111 -2 215 -2 233 l-1 32 85
17 c47 10 97 18 113 18 l27 1 0 2620 0 2620 -60 0 -60 0 0 -492 0 -493 -88
-27 c-48 -15 -108 -30 -135 -33 l-47 -7 2 483 3 484 70 22 c39 12 90 27 114
33 23 6 40 14 37 17 -3 4 -82 8 -176 11 l-170 4 -2 -423z m392 -801 l0 -123
-88 -27 c-48 -15 -109 -30 -135 -33 l-48 -7 3 118 3 119 120 36 c66 20 126 37
133 38 9 1 12 -30 12 -121z m0 -1395 l0 -1158 -88 -27 c-48 -15 -108 -30 -135
-33 l-47 -7 2 1153 3 1154 120 36 c66 20 126 37 133 38 9 1 12 -237 12 -1156z
m0 -1392 c0 -66 -4 -122 -9 -125 -15 -10 -173 -53 -219 -61 l-43 -7 3 118 3
119 120 36 c66 20 126 37 133 38 9 1 12 -29 12 -118z m0 -720 c0 -448 -1 -480
-17 -485 -10 -2 -52 -10 -93 -16 -41 -6 -92 -15 -112 -20 -20 -4 -40 -5 -43
-2 -3 3 -5 213 -5 467 l0 462 118 35 c64 20 125 36 135 37 16 1 17 -28 17
-478z"/>
</g>
</svg>
