<?xml version="1.0" standalone="no"?>
<!DOCTYPE svg PUBLIC "-//W3C//DTD SVG 20010904//EN"
 "http://www.w3.org/TR/2001/REC-SVG-20010904/DTD/svg10.dtd">
<svg version="1.0" xmlns="http://www.w3.org/2000/svg"
 width="2550.000000pt" height="2700.000000pt" viewBox="0 0 2550.000000 2700.000000"
 preserveAspectRatio="xMidYMid meet">

<g transform="translate(0.000000,2700.000000) scale(0.100000,-0.100000)"
fill="#3a4548" stroke="none">
<path d="M12867 17222 l-57 -58 0 -552 0 -552 -100 0 -100 0 0 -2550 c0 -2422
1 -2550 18 -2551 9 0 54 0 100 1 l82 1 0 -736 0 -735 -32 -20 c-18 -11 -37
-22 -43 -23 -5 -2 -2 -13 8 -24 25 -28 21 -49 -13 -75 -23 -16 -30 -30 -30
-54 0 -31 3 -34 50 -48 46 -14 94 -14 265 -2 38 3 40 5 40 36 0 23 -7 37 -26
51 -35 25 -41 53 -18 83 19 24 19 24 -4 30 -12 3 -32 15 -45 26 l-22 21 0 739
0 738 100 7 100 8 0 2533 0 2534 -47 0 c-27 0 -72 3 -100 6 l-53 7 0 608 c0
335 -4 609 -8 609 -4 0 -33 -26 -65 -58z m158 -1745 l0 -478 -100 -1 c-55 -1
-124 -1 -152 0 l-53 2 0 478 c0 263 2 481 4 483 2 2 71 2 153 -1 l148 -5 0
-478z m0 -705 l0 -123 -100 -1 c-55 -1 -124 -1 -152 0 l-53 2 0 123 c0 68 2
126 4 128 2 2 71 2 153 -1 l148 -5 0 -123z m0 -1325 l0 -1098 -100 -1 c-55 -1
-124 -1 -152 0 l-53 2 0 1098 c0 604 2 1101 4 1103 2 2 71 2 153 -1 l148 -5 0
-1098z m0 -1315 l0 -113 -100 -1 c-55 -1 -124 -1 -152 0 l-53 2 0 113 c0 63 2
116 4 118 2 2 71 2 153 -1 l148 -5 0 -113z m0 -637 l0 -420 -140 -7 c-77 -5
-146 -6 -152 -3 -10 3 -13 98 -13 428 0 233 2 426 4 428 2 2 71 2 153 -1 l148
-5 0 -420z"/>
</g>
</svg>
