<?xml version="1.0" standalone="no"?>
<!DOCTYPE svg PUBLIC "-//W3C//DTD SVG 20010904//EN"
 "http://www.w3.org/TR/2001/REC-SVG-20010904/DTD/svg10.dtd">
<svg version="1.0" xmlns="http://www.w3.org/2000/svg"
 width="2550.000000pt" height="2700.000000pt" viewBox="0 0 2550.000000 2700.000000"
 preserveAspectRatio="xMidYMid meet">

<g transform="translate(0.000000,2700.000000) scale(0.100000,-0.100000)"
fill="#3a4548" stroke="none">
<path d="M13703 18068 l-53 -53 -2 -550 -3 -550 -102 3 -103 4 0 -2531 0
-2531 105 0 105 0 0 -319 c0 -277 -2 -322 -16 -335 -8 -9 -18 -16 -22 -16 -4
0 -13 -4 -20 -9 -11 -7 -11 -12 -1 -28 16 -26 4 -74 -21 -80 -16 -4 -20 -14
-20 -43 0 -35 3 -39 33 -48 17 -6 55 -9 82 -7 28 2 83 3 123 4 l72 1 0 31 c0
21 -9 40 -25 55 -28 26 -32 59 -10 84 14 16 13 18 -15 30 -17 7 -35 21 -40 31
-6 10 -10 150 -10 333 l0 316 59 0 c32 0 79 3 105 6 l46 7 0 2518 0 2519 -105
0 -105 0 -2 605 -3 606 -52 -53z m175 -1726 l2 -473 -135 2 c-75 0 -154 3
-175 6 l-40 6 0 469 0 468 173 -2 172 -3 3 -473z m0 -685 l3 -118 -136 2 c-75
0 -154 3 -175 6 l-40 6 0 114 0 113 173 -2 172 -3 3 -118z m0 -1315 l2 -1103
-135 2 c-75 0 -154 3 -175 6 l-40 6 0 1099 0 1098 173 -2 172 -3 3 -1103z m0
-1310 l3 -113 -136 2 c-75 0 -154 3 -175 6 l-40 6 0 109 0 108 173 -2 172 -3
3 -113z m0 -639 l2 -433 -127 -1 c-71 -1 -148 -2 -173 -3 l-45 -1 -3 438 -2
437 172 -2 173 -3 3 -432z"/>
</g>
</svg>
