<?xml version="1.0" standalone="no"?>
<!DOCTYPE svg PUBLIC "-//W3C//DTD SVG 20010904//EN"
 "http://www.w3.org/TR/2001/REC-SVG-20010904/DTD/svg10.dtd">
<svg version="1.0" xmlns="http://www.w3.org/2000/svg"
 width="3542.000000pt" height="3750.000000pt" viewBox="0 0 3542.000000 3750.000000"
 preserveAspectRatio="xMidYMid meet">

<g transform="translate(0.000000,3750.000000) scale(0.100000,-0.100000)"
fill="#3a4548" stroke="none">
<path d="M2150 15985 c0 -1509 -4 -2495 -9 -2495 -13 0 -51 -63 -51 -85 0 -9
9 -28 20 -42 20 -26 20 -26 0 -58 -27 -44 -25 -65 10 -103 25 -27 30 -42 30
-80 -1 -83 -23 -140 -76 -200 -103 -115 -113 -155 -65 -250 l29 -58 -24 -39
c-14 -22 -34 -59 -45 -83 -27 -58 -15 -97 61 -191 55 -69 59 -78 54 -113 -8
-48 0 -77 29 -109 35 -37 47 -63 47 -103 0 -24 -6 -38 -18 -45 -10 -5 -26 -25
-37 -44 -18 -34 -18 -35 5 -72 l23 -37 -23 -30 c-26 -35 -22 -62 15 -102 l25
-27 0 -2308 c0 -2261 0 -2308 -19 -2328 -11 -11 -44 -31 -74 -43 l-55 -23 29
-24 c40 -34 39 -75 -2 -114 -17 -16 -40 -29 -50 -29 -17 0 -19 -8 -19 -59 0
-68 -13 -58 143 -101 l79 -22 183 31 c101 17 186 31 189 31 3 0 6 27 6 59 0
55 -2 59 -26 65 -34 9 -74 53 -74 83 0 14 13 37 28 53 l29 28 -64 27 c-34 15
-63 33 -63 41 0 8 -5 14 -10 14 -7 0 -10 774 -10 2315 0 1838 3 2315 13 2315
14 0 47 55 47 78 0 9 -7 26 -15 36 -19 25 -19 60 0 76 8 7 15 21 15 30 0 26
-32 80 -47 80 -9 0 -13 16 -13 49 0 38 8 61 35 107 24 39 35 70 35 96 0 31 10
52 49 102 89 116 100 184 46 290 l-26 52 21 64 c33 97 13 156 -86 260 -48 50
-74 111 -74 175 0 34 6 50 30 75 33 35 40 80 15 100 -19 15 -19 39 -2 65 27
40 26 53 -5 96 l-31 42 1 2489 0 2488 -114 0 -114 0 0 -2495z m140 -2994 c12
-24 13 -61 0 -81 -7 -12 -13 -11 -34 10 -31 28 -31 34 -8 65 21 30 28 31 42 6z
m129 -167 c12 -30 21 -65 21 -77 0 -19 -6 -16 -46 24 l-45 46 17 36 c10 20 21
34 25 31 4 -2 17 -29 28 -60z m-237 17 l27 -38 -59 -58 c-58 -57 -59 -58 -65
-33 -11 42 36 169 62 168 5 0 20 -18 35 -39z m172 -166 l59 -54 -61 -63 -60
-62 -58 53 c-33 30 -60 57 -62 62 -3 8 107 118 118 118 3 0 31 -24 64 -54z
m-195 -199 l54 -55 -42 -48 c-24 -26 -48 -48 -54 -48 -22 0 -57 78 -57 127 0
96 23 101 99 24z m306 26 c7 -33 -9 -111 -31 -154 l-16 -31 -29 53 -28 52 42
53 c23 30 45 54 49 54 3 1 9 -12 13 -27z m-115 -247 c0 -12 -17 -38 -38 -58
l-38 -37 -37 44 c-20 25 -37 47 -37 51 0 3 19 26 42 51 l42 46 33 -38 c18 -22
33 -48 33 -59z"/>
</g>
</svg>
