<?xml version="1.0" standalone="no"?>
<!DOCTYPE svg PUBLIC "-//W3C//DTD SVG 20010904//EN"
 "http://www.w3.org/TR/2001/REC-SVG-20010904/DTD/svg10.dtd">
<svg version="1.0" xmlns="http://www.w3.org/2000/svg"
 width="3542.000000pt" height="3750.000000pt" viewBox="0 0 3542.000000 3750.000000"
 preserveAspectRatio="xMidYMid meet">

<g transform="translate(0.000000,3750.000000) scale(0.100000,-0.100000)"
fill="#3a4548" stroke="none">
<path d="M6305 18532 c-3 -3 -5 -1064 -5 -2358 l0 -2353 -30 -33 c-36 -39 -36
-41 -9 -84 l21 -34 -22 -35 -22 -35 21 -34 c12 -19 28 -36 36 -39 17 -7 14
-91 -4 -125 -6 -11 -11 -32 -11 -45 0 -16 -22 -52 -61 -98 -91 -109 -97 -139
-50 -229 28 -55 28 -55 10 -85 -35 -58 -56 -112 -54 -136 1 -13 3 -29 4 -36 0
-6 28 -46 62 -87 57 -71 60 -79 54 -114 -5 -33 -1 -45 29 -90 41 -59 50 -124
19 -141 -29 -15 -52 -63 -43 -87 5 -12 13 -25 19 -29 16 -9 13 -41 -4 -55 -23
-19 -18 -62 10 -92 l25 -27 0 -2190 c0 -1903 -2 -2191 -15 -2204 -8 -8 -37
-23 -65 -33 -27 -10 -50 -21 -50 -24 0 -3 9 -13 20 -22 48 -41 30 -106 -35
-129 -34 -13 -35 -14 -35 -66 0 -46 3 -53 23 -58 12 -2 65 -15 117 -28 l96
-23 134 23 c226 37 200 26 200 88 0 49 -2 55 -24 61 -35 8 -68 48 -68 80 0 18
9 36 27 51 l27 23 -58 26 c-32 14 -64 33 -71 42 -10 14 -12 446 -13 2199 l0
2182 30 33 c31 33 38 62 19 73 -24 15 -27 50 -7 82 19 32 18 73 -3 73 -5 0 -9
7 -9 15 0 8 -7 15 -15 15 -27 0 -20 97 10 141 14 20 29 60 34 88 6 37 17 61
39 84 78 82 98 187 55 279 -27 57 -27 56 -7 97 20 39 20 117 1 163 -8 18 -39
61 -68 96 -59 66 -79 118 -79 197 0 30 4 45 13 45 14 0 47 50 47 73 0 8 -7 20
-15 27 -19 16 -19 51 0 76 22 29 18 58 -14 90 l-30 29 0 2330 c-1 1282 -1
2342 -1 2357 l0 28 -100 -2 c-55 0 -102 -3 -105 -6z m133 -5194 c16 -16 15
-60 -2 -83 -13 -18 -15 -18 -39 11 -31 34 -32 42 -10 66 19 21 34 23 51 6z
m-92 -172 c4 -13 -7 -31 -42 -67 -27 -27 -52 -49 -56 -49 -20 0 -7 94 19 142
l27 49 22 -28 c13 -15 26 -36 30 -47z m225 -28 c6 -27 8 -52 5 -55 -3 -4 -7
-4 -8 -2 -2 2 -20 23 -41 45 l-38 41 17 36 18 37 17 -27 c10 -15 23 -49 30
-75z m-82 -102 l54 -54 -21 -29 c-11 -15 -35 -42 -54 -60 l-33 -32 -57 53
c-32 29 -58 56 -58 60 0 8 102 114 110 115 3 1 30 -23 59 -53z m-165 -290
c-21 -25 -45 -45 -52 -46 -35 -1 -66 144 -41 192 11 20 14 17 72 -40 l60 -60
-39 -46z m267 117 c3 -68 -21 -163 -40 -163 -4 0 -17 21 -29 46 l-23 46 28 35
c15 19 32 42 38 49 15 22 25 17 26 -13z m-125 -189 l27 -46 -36 -36 -37 -36
-35 34 c-19 19 -35 38 -35 42 0 11 70 88 81 88 4 0 20 -21 35 -46z"/>
</g>
</svg>
