<?xml version="1.0" standalone="no"?>
<!DOCTYPE svg PUBLIC "-//W3C//DTD SVG 20010904//EN"
 "http://www.w3.org/TR/2001/REC-SVG-20010904/DTD/svg10.dtd">
<svg version="1.0" xmlns="http://www.w3.org/2000/svg"
 width="3542.000000pt" height="3750.000000pt" viewBox="0 0 3542.000000 3750.000000"
 preserveAspectRatio="xMidYMid meet">

<g transform="translate(0.000000,3750.000000) scale(0.100000,-0.100000)"
fill="#3a4548" stroke="none">
<path d="M10026 18581 c-3 -4 -5 -1010 -5 -2235 l0 -2228 -27 -35 -27 -36 19
-35 c21 -39 20 -57 -2 -79 -22 -22 -17 -47 16 -79 23 -23 29 -38 29 -69 0 -22
-6 -51 -14 -65 -8 -14 -14 -38 -15 -55 0 -21 -15 -47 -50 -89 -90 -104 -96
-133 -51 -217 l28 -53 -33 -70 c-19 -39 -34 -80 -34 -91 0 -25 30 -74 83 -137
35 -42 40 -54 39 -91 -2 -32 4 -51 23 -77 28 -39 37 -130 12 -130 -8 0 -22
-16 -32 -34 -17 -32 -18 -37 -3 -53 25 -29 27 -46 6 -80 -20 -33 -20 -33 2
-68 12 -19 26 -35 31 -35 5 0 9 -820 9 -2073 0 -2038 0 -2074 -19 -2094 -11
-12 -40 -29 -65 -38 -25 -10 -46 -19 -46 -21 0 -2 11 -14 25 -28 41 -41 26
-91 -35 -116 -29 -12 -31 -15 -28 -63 l3 -51 110 -24 c119 -27 95 -28 350 13
76 13 75 11 72 63 -2 43 -5 48 -36 63 -44 20 -64 59 -51 94 5 14 17 28 25 31
26 10 17 21 -40 45 -34 14 -57 30 -62 43 -3 12 -6 949 -6 2084 l1 2062 28 37
c27 35 27 37 11 65 -21 37 -21 52 0 84 16 24 15 28 -2 60 -10 19 -24 34 -32
34 -24 0 -16 90 12 135 14 22 25 54 25 70 0 21 13 46 41 80 50 60 79 124 79
171 0 20 -12 60 -26 90 -25 54 -25 55 -8 82 13 19 19 46 19 92 0 71 -17 109
-84 183 -39 43 -71 123 -71 175 0 24 9 42 30 64 33 32 39 68 15 88 -20 16 -19
35 2 71 17 28 17 31 -1 64 -11 19 -23 35 -28 35 -4 0 -8 1008 -8 2240 l0 2240
-99 0 c-55 0 -102 -4 -105 -9z m144 -4971 c0 -14 -7 -35 -15 -46 -14 -18 -15
-18 -39 11 -31 37 -31 43 -4 72 20 21 23 22 40 6 10 -9 18 -28 18 -43z m-140
-69 c0 -5 11 -22 24 -38 l24 -29 -50 -53 c-38 -40 -53 -49 -60 -39 -12 18 -1
83 22 129 19 36 40 52 40 30z m233 -26 c20 -42 33 -115 21 -115 -5 0 -24 18
-42 40 -32 38 -33 42 -21 75 7 19 16 35 19 35 4 0 14 -16 23 -35z m-46 -175
c18 -19 33 -38 33 -43 0 -4 -23 -31 -50 -59 l-50 -52 -58 57 -57 57 55 55 c61
61 56 62 127 -15z m-156 -237 c-57 -76 -59 -76 -91 -13 -22 44 -25 85 -10 126
l11 28 55 -57 56 -57 -21 -27z m239 80 c0 -46 -15 -102 -33 -127 -13 -17 -15
-15 -35 25 l-21 43 27 34 c15 19 31 41 37 48 17 24 25 16 25 -23z m-115 -178
l19 -34 -29 -31 c-16 -16 -34 -30 -39 -29 -6 0 -24 16 -39 34 l-28 34 37 41
c41 45 48 43 79 -15z"/>
</g>
</svg>
