<?xml version="1.0" standalone="no"?>
<!DOCTYPE svg PUBLIC "-//W3C//DTD SVG 20010904//EN"
 "http://www.w3.org/TR/2001/REC-SVG-20010904/DTD/svg10.dtd">
<svg version="1.0" xmlns="http://www.w3.org/2000/svg"
 width="2644.000000pt" height="2800.000000pt" viewBox="0 0 2644.000000 2800.000000"
 preserveAspectRatio="xMidYMid meet">

<g transform="translate(0.000000,2800.000000) scale(0.100000,-0.100000)"
fill="#65340A" stroke="none">
<path d="M8920 16070 c0 -1213 -6 -1480 -35 -1718 -22 -178 -20 -228 10 -256
37 -34 33 -62 -10 -70 -38 -8 -43 -17 -19 -36 25 -21 14 -71 -21 -92 -16 -10
-38 -21 -47 -24 -36 -13 -28 -34 27 -70 59 -37 68 -61 40 -101 -14 -20 -14
-23 4 -33 11 -5 27 -10 35 -10 25 0 19 -40 -9 -66 -30 -28 -32 -75 -10 -257 8
-67 19 -202 25 -301 11 -202 14 -1125 2 -1142 -4 -6 -24 -20 -45 -31 -34 -17
-37 -21 -23 -32 24 -20 20 -58 -9 -77 -31 -20 -36 -79 -7 -86 41 -10 252 -9
252 1 0 6 18 11 40 11 38 0 40 1 40 33 0 25 -6 36 -30 49 -33 19 -39 48 -14
73 19 18 19 17 -24 35 -19 7 -35 22 -38 35 -3 13 -4 301 -1 642 4 557 6 636
26 801 23 191 20 243 -14 256 -8 3 -15 16 -15 29 0 17 9 26 35 36 l35 12 -22
29 c-18 25 -20 34 -10 54 6 13 21 27 33 31 12 4 34 18 48 31 l26 24 -30 25
c-16 13 -35 24 -41 25 -16 0 -44 34 -44 52 0 8 9 23 20 33 28 25 25 33 -15 41
-30 5 -35 10 -35 35 0 16 4 29 10 29 5 0 17 14 26 32 18 35 17 55 -13 273 -14
105 -17 295 -22 1505 l-6 1385 -63 5 -62 5 0 -1225z"/>
</g>
</svg>
