<?xml version="1.0" standalone="no"?>
<!DOCTYPE svg PUBLIC "-//W3C//DTD SVG 20010904//EN"
 "http://www.w3.org/TR/2001/REC-SVG-20010904/DTD/svg10.dtd">
<svg version="1.0" xmlns="http://www.w3.org/2000/svg"
 width="2644.000000pt" height="2800.000000pt" viewBox="0 0 2644.000000 2800.000000"
 preserveAspectRatio="xMidYMid meet">

<g transform="translate(0.000000,2800.000000) scale(0.100000,-0.100000)"
fill="#65340A" stroke="none">
<path d="M10357 15833 c-3 -1158 -6 -1344 -20 -1453 -23 -170 -22 -215 3 -240
25 -25 27 -70 3 -70 -10 0 -25 -4 -33 -10 -12 -7 -12 -12 4 -29 22 -24 18 -62
-9 -76 -72 -37 -95 -72 -55 -82 11 -3 20 -9 20 -14 0 -5 6 -9 13 -9 25 0 50
-37 43 -65 -4 -14 -11 -25 -16 -25 -24 0 -7 -29 20 -35 23 -5 30 -12 30 -31 0
-13 -4 -24 -9 -24 -5 0 -14 -14 -21 -31 -13 -31 -10 -113 11 -254 6 -39 13
-356 16 -712 l5 -641 -34 -18 c-44 -22 -44 -21 -24 -43 20 -22 10 -53 -24 -71
-13 -7 -20 -21 -20 -40 l0 -30 108 -1 c202 -2 222 2 222 42 0 22 -7 32 -24 41
-33 14 -40 36 -21 64 14 22 14 24 -17 40 -18 9 -36 21 -40 27 -3 6 -6 202 -7
436 0 413 10 721 30 906 21 198 22 224 9 255 -7 16 -16 30 -21 30 -5 0 -9 11
-9 24 0 18 8 27 30 35 34 11 36 16 15 37 -28 28 -13 84 22 84 8 0 26 11 40 25
l27 24 -28 26 c-15 14 -33 25 -40 25 -35 0 -47 51 -19 82 15 17 15 20 3 28 -8
6 -23 10 -32 10 -13 0 -18 8 -18 30 0 17 4 30 9 30 5 0 14 14 21 31 11 26 10
59 -6 203 -17 158 -19 273 -22 1477 l-3 1307 -22 6 c-12 3 -41 6 -64 6 l-42 0
-4 -1327z"/>
</g>
</svg>
