<?xml version="1.0" standalone="no"?>
<!DOCTYPE svg PUBLIC "-//W3C//DTD SVG 20010904//EN"
 "http://www.w3.org/TR/2001/REC-SVG-20010904/DTD/svg10.dtd">
<svg version="1.0" xmlns="http://www.w3.org/2000/svg"
 width="2644.000000pt" height="2800.000000pt" viewBox="0 0 2644.000000 2800.000000"
 preserveAspectRatio="xMidYMid meet">

<g transform="translate(0.000000,2800.000000) scale(0.100000,-0.100000)"
fill="#65340A" stroke="none">
<path d="M3722 12573 c-1 -1536 -3 -1598 -48 -1930 -27 -202 -25 -220 28 -264
37 -31 32 -63 -10 -73 -53 -11 -58 -21 -29 -55 16 -20 24 -38 20 -49 -9 -24
-34 -52 -48 -52 -7 0 -21 -8 -33 -17 -11 -10 -28 -23 -38 -29 -22 -13 -12 -44
16 -51 11 -3 20 -9 20 -14 0 -5 8 -9 18 -9 55 0 82 -69 42 -105 -28 -26 -25
-33 20 -46 22 -7 41 -16 41 -21 1 -4 2 -14 3 -20 2 -7 -11 -27 -27 -44 -36
-40 -46 -83 -36 -159 28 -220 49 -415 54 -505 4 -58 7 -874 9 -1813 1 -1318
-1 -1713 -11 -1726 -6 -10 -30 -26 -52 -36 l-41 -18 22 -24 c18 -19 20 -28 12
-51 -5 -15 -22 -33 -37 -40 -23 -11 -27 -19 -27 -57 l0 -43 73 -7 c203 -21
351 -7 359 34 9 45 -5 87 -36 106 -38 25 -44 57 -17 84 22 22 22 23 -31 40
-20 7 -39 20 -43 29 -12 28 -6 3459 6 3607 6 72 21 217 35 323 22 175 23 195
9 228 -8 20 -24 38 -35 41 -15 4 -20 14 -20 38 0 27 4 33 28 38 52 12 59 23
33 50 -33 36 -26 77 18 99 19 9 37 21 40 26 3 5 16 12 29 16 30 10 29 44 -2
56 -13 5 -27 14 -31 19 -3 6 -14 11 -24 11 -46 0 -67 72 -31 105 11 10 20 22
20 26 0 10 -49 24 -67 21 -9 -2 -13 9 -13 31 0 25 6 39 23 50 44 29 50 80 27
239 -48 335 -50 392 -53 1943 l-2 1460 -81 3 -80 3 -2 -1468z"/>
</g>
</svg>
