<?xml version="1.0" standalone="no"?>
<!DOCTYPE svg PUBLIC "-//W3C//DTD SVG 20010904//EN"
 "http://www.w3.org/TR/2001/REC-SVG-20010904/DTD/svg10.dtd">
<svg version="1.0" xmlns="http://www.w3.org/2000/svg"
 width="2644.000000pt" height="2800.000000pt" viewBox="0 0 2644.000000 2800.000000"
 preserveAspectRatio="xMidYMid meet">

<g transform="translate(0.000000,2800.000000) scale(0.100000,-0.100000)"
fill="#65340A" stroke="none">
<path d="M6723 16077 c-2 -1406 -5 -1535 -39 -1791 -22 -172 -20 -210 16 -248
17 -17 30 -34 30 -37 -1 -15 -18 -30 -43 -36 -38 -10 -43 -23 -17 -50 31 -33
22 -55 -43 -98 -58 -38 -71 -62 -39 -74 9 -4 20 -10 23 -15 3 -5 21 -17 40
-26 42 -21 48 -46 20 -83 -12 -15 -21 -30 -21 -33 0 -3 15 -8 34 -11 40 -8 55
-47 26 -68 -44 -31 -49 -82 -26 -262 35 -267 38 -383 39 -1847 1 -802 -1
-1468 -5 -1479 -5 -11 -26 -28 -48 -36 l-40 -16 21 -24 c19 -19 21 -26 11 -48
-7 -14 -23 -30 -37 -37 -19 -9 -25 -19 -25 -43 0 -28 4 -33 31 -39 51 -10 227
-7 296 5 l63 11 0 37 c0 32 -4 38 -30 48 -23 9 -30 17 -30 39 0 15 7 36 16 45
16 17 15 19 -12 29 -16 5 -36 14 -44 19 -13 7 -15 178 -18 1427 -3 1474 -1
1606 39 1929 22 175 19 205 -17 234 -27 21 -34 71 -9 71 8 0 26 5 40 12 l25
11 -21 23 c-30 32 -23 75 16 93 17 8 32 18 33 23 2 4 10 8 17 8 21 0 37 34 23
48 -7 7 -17 12 -24 12 -7 0 -14 4 -16 8 -1 5 -16 15 -33 23 -39 19 -46 61 -14
95 l22 23 -27 11 c-15 5 -34 10 -42 10 -21 0 -18 53 5 67 34 21 44 75 32 161
-45 309 -45 295 -48 1823 l-4 1457 -22 6 c-12 3 -44 6 -72 6 l-50 0 -2 -1413z"/>
</g>
</svg>
