<?xml version="1.0" standalone="no"?>
<!DOCTYPE svg PUBLIC "-//W3C//DTD SVG 20010904//EN"
 "http://www.w3.org/TR/2001/REC-SVG-20010904/DTD/svg10.dtd">
<svg version="1.0" xmlns="http://www.w3.org/2000/svg"
 width="2644.000000pt" height="2800.000000pt" viewBox="0 0 2644.000000 2800.000000"
 preserveAspectRatio="xMidYMid meet">

<g transform="translate(0.000000,2800.000000) scale(0.100000,-0.100000)"
fill="#65340A" stroke="none">
<path d="M7297 15973 c-3 -1317 -5 -1492 -20 -1603 -28 -204 -31 -256 -17
-289 6 -16 18 -32 26 -35 8 -3 14 -19 14 -36 0 -24 -4 -30 -22 -30 -44 0 -53
-15 -28 -48 27 -36 21 -63 -18 -83 -44 -22 -82 -52 -82 -64 0 -6 17 -19 37
-30 86 -46 100 -73 62 -113 -24 -27 -19 -38 21 -47 24 -5 30 -12 30 -33 0 -16
-8 -32 -20 -39 -30 -19 -34 -74 -16 -227 38 -330 37 -269 36 -2744 l0 -552
-44 -21 c-42 -21 -43 -22 -25 -40 11 -11 19 -26 19 -34 0 -17 -35 -55 -50 -55
-6 0 -10 -18 -10 -40 l0 -40 48 0 c26 0 76 -3 112 -6 36 -3 96 1 135 8 l70 13
3 36 c2 29 -1 37 -22 47 -33 15 -42 47 -22 77 16 24 15 25 -21 42 l-38 18 -5
260 c-3 143 -3 827 0 1520 5 1249 5 1262 29 1466 13 113 21 218 17 233 -4 15
-15 34 -26 44 -32 27 -26 59 15 72 41 14 42 16 14 46 -28 30 -19 71 18 85 34
13 83 48 83 59 0 5 -26 27 -57 47 -64 42 -75 69 -43 98 28 25 25 32 -15 45
-41 13 -47 46 -15 75 32 29 33 72 9 271 -24 189 -24 193 -27 1644 l-3 1456
-64 12 c-35 7 -69 12 -74 12 -7 0 -11 -516 -14 -1477z"/>
</g>
</svg>
