<?xml version="1.0" standalone="no"?>
<!DOCTYPE svg PUBLIC "-//W3C//DTD SVG 20010904//EN"
 "http://www.w3.org/TR/2001/REC-SVG-20010904/DTD/svg10.dtd">
<svg version="1.0" xmlns="http://www.w3.org/2000/svg"
 width="2644.000000pt" height="2800.000000pt" viewBox="0 0 2644.000000 2800.000000"
 preserveAspectRatio="xMidYMid meet">

<g transform="translate(0.000000,2800.000000) scale(0.100000,-0.100000)"
fill="#65340A" stroke="none">
<path d="M20447 27171 l-42 -40 -1 -1388 c-1 -955 -5 -1422 -13 -1498 -14
-136 -56 -391 -83 -505 -11 -47 -20 -99 -20 -116 0 -49 27 -90 72 -110 55 -25
56 -56 0 -73 -22 -6 -40 -15 -40 -18 0 -4 10 -17 21 -29 28 -30 28 -73 -1 -96
-12 -10 -28 -18 -36 -18 -8 0 -14 -4 -14 -8 0 -5 -11 -14 -25 -20 -14 -6 -25
-17 -25 -24 0 -12 43 -54 99 -96 30 -23 31 -65 1 -97 l-22 -23 41 -24 c32 -18
41 -29 41 -50 0 -20 -5 -28 -18 -28 -10 0 -33 -13 -52 -29 -33 -27 -35 -32
-35 -92 0 -35 15 -131 32 -214 71 -331 68 -243 68 -1830 l0 -1430 -48 -24
c-46 -23 -47 -24 -27 -38 36 -26 15 -103 -28 -103 -7 0 -12 -10 -12 -22 0 -22
2 -23 97 -20 54 1 144 5 201 8 l102 6 -32 22 c-40 27 -47 60 -19 90 l21 23
-40 18 c-23 10 -45 26 -51 36 -13 25 -12 2651 1 2794 18 197 40 347 73 500 47
225 43 251 -46 297 -50 25 -49 58 3 71 46 12 46 12 21 43 -11 15 -21 37 -21
50 0 27 32 64 55 64 9 0 18 6 21 14 3 8 14 16 25 19 29 8 23 36 -18 73 -20 19
-40 34 -44 34 -16 0 -39 33 -39 54 0 13 10 35 21 50 12 15 20 28 18 30 -2 1
-21 13 -41 25 -49 29 -49 54 -1 78 21 10 48 34 61 53 28 41 27 58 -12 225 -29
125 -60 335 -76 507 -6 75 -10 617 -10 1500 l1 1382 -23 18 c-31 24 -33 23
-81 -21z"/>
</g>
</svg>
