<?xml version="1.0" standalone="no"?>
<!DOCTYPE svg PUBLIC "-//W3C//DTD SVG 20010904//EN"
 "http://www.w3.org/TR/2001/REC-SVG-20010904/DTD/svg10.dtd">
<svg version="1.0" xmlns="http://www.w3.org/2000/svg"
 width="2644.000000pt" height="2800.000000pt" viewBox="0 0 2644.000000 2800.000000"
 preserveAspectRatio="xMidYMid meet">

<g transform="translate(0.000000,2800.000000) scale(0.100000,-0.100000)"
fill="#65340A" stroke="none">
<path d="M22810 27338 c0 -791 -9 -925 -82 -1263 -54 -253 -51 -279 37 -331
55 -32 56 -55 2 -67 -42 -10 -45 -19 -17 -54 11 -14 20 -36 20 -48 0 -25 -29
-55 -53 -55 -9 0 -20 -6 -24 -13 -4 -8 -16 -16 -25 -20 -38 -14 -4 -75 70
-126 37 -26 42 -59 12 -86 -28 -26 -25 -36 20 -68 49 -35 51 -59 7 -75 -87
-31 -102 -94 -64 -258 31 -131 52 -242 74 -395 15 -101 17 -279 20 -1539 2
-784 1 -1435 -2 -1448 -4 -16 -21 -30 -51 -43 l-45 -20 21 -26 c11 -14 20 -33
20 -43 0 -19 -40 -60 -58 -60 -7 0 -12 -5 -12 -11 0 -11 186 -6 302 7 46 6 47
6 37 32 -8 21 -6 31 11 54 l20 27 -40 21 c-23 12 -42 30 -45 43 -3 12 -4 677
-3 1477 l4 1455 26 165 c14 91 40 227 58 303 19 83 29 149 25 166 -6 29 -53
80 -92 100 -25 13 -31 51 -9 51 8 0 27 5 41 10 l27 10 -26 31 c-14 17 -26 38
-26 48 0 23 28 61 45 61 7 0 20 6 27 13 8 6 22 17 33 23 34 19 28 33 -39 98
-36 35 -66 68 -66 74 0 6 11 24 25 40 l25 30 -40 32 c-47 38 -51 63 -11 80 42
17 81 62 87 101 3 20 -3 68 -15 115 -31 122 -50 215 -73 364 -20 127 -22 181
-25 908 l-4 772 -75 0 -74 0 0 -662z"/>
</g>
</svg>
