<?xml version="1.0" standalone="no"?>
<!DOCTYPE svg PUBLIC "-//W3C//DTD SVG 20010904//EN"
 "http://www.w3.org/TR/2001/REC-SVG-20010904/DTD/svg10.dtd">
<svg version="1.0" xmlns="http://www.w3.org/2000/svg"
 width="2644.000000pt" height="2800.000000pt" viewBox="0 0 2644.000000 2800.000000"
 preserveAspectRatio="xMidYMid meet">

<g transform="translate(0.000000,2800.000000) scale(0.100000,-0.100000)"
fill="#65340A" stroke="none">
<path d="M14987 14544 l-78 -159 0 -1285 c0 -1269 -4 -1471 -35 -1785 -19
-189 -16 -251 15 -276 25 -20 30 -79 6 -79 -21 0 -65 -22 -65 -32 0 -5 9 -18
20 -30 35 -38 22 -87 -30 -108 -16 -7 -30 -16 -30 -21 0 -5 -11 -14 -25 -19
-15 -6 -25 -17 -25 -30 0 -13 10 -24 25 -30 14 -5 25 -14 25 -20 0 -5 6 -10
14 -10 24 0 66 -41 66 -65 0 -13 -12 -37 -26 -54 l-26 -31 46 -12 c42 -11 46
-15 46 -44 0 -18 -6 -34 -13 -37 -34 -13 -45 -126 -27 -266 33 -255 40 -556
40 -1828 0 -699 -3 -1279 -6 -1288 -4 -9 -25 -25 -48 -37 -22 -11 -43 -22 -44
-23 -2 -2 6 -16 18 -32 26 -36 15 -75 -27 -97 -26 -13 -28 -18 -25 -59 l4 -44
105 -7 c154 -9 246 -7 282 5 30 10 31 13 31 64 0 49 -3 55 -27 67 -41 20 -52
61 -26 97 l22 28 -40 13 c-22 8 -44 21 -50 31 -13 24 -12 2617 1 2824 6 88 17
229 25 313 16 159 12 216 -20 242 -8 7 -15 25 -15 40 0 23 7 31 40 44 22 9 40
19 40 22 0 3 -11 19 -24 35 -15 18 -22 36 -19 49 6 23 49 60 69 60 8 0 14 5
14 10 0 6 12 15 26 20 30 12 30 47 0 64 -11 6 -25 15 -30 19 -6 5 -26 17 -43
27 -39 23 -45 68 -13 100 29 29 25 39 -20 46 -37 6 -40 9 -40 38 0 17 7 40 16
51 31 42 35 89 20 247 -9 84 -18 173 -22 198 -3 25 -9 758 -12 1629 l-7 1583
-78 -158z"/>
</g>
</svg>
