<?xml version="1.0" standalone="no"?>
<!DOCTYPE svg PUBLIC "-//W3C//DTD SVG 20010904//EN"
 "http://www.w3.org/TR/2001/REC-SVG-20010904/DTD/svg10.dtd">
<svg version="1.0" xmlns="http://www.w3.org/2000/svg"
 width="3542.000000pt" height="3750.000000pt" viewBox="0 0 3542.000000 3750.000000"
 preserveAspectRatio="xMidYMid meet">

<g transform="translate(0.000000,3750.000000) scale(0.100000,-0.100000)"
fill="#3a4548" stroke="none">
<path d="M13389 18638 c-1 -2 -3 -2203 -5 -4893 -2 -2689 -5 -4899 -8 -4910
-4 -12 -26 -29 -61 -44 l-55 -24 25 -23 c14 -13 25 -34 25 -48 0 -25 -34 -60
-71 -71 -15 -5 -19 -16 -19 -55 l0 -49 53 -10 c174 -36 187 -37 297 -19 191
32 170 22 170 78 0 46 -2 49 -37 67 -53 26 -62 66 -24 104 l28 28 -51 21 c-28
12 -57 29 -63 38 -10 13 -13 1011 -13 4914 l0 4898 -95 0 c-52 0 -96 -1 -96
-2z"/>
</g>
</svg>
