<?xml version="1.0" standalone="no"?>
<!DOCTYPE svg PUBLIC "-//W3C//DTD SVG 20010904//EN"
 "http://www.w3.org/TR/2001/REC-SVG-20010904/DTD/svg10.dtd">
<svg version="1.0" xmlns="http://www.w3.org/2000/svg"
 width="3542.000000pt" height="3750.000000pt" viewBox="0 0 3542.000000 3750.000000"
 preserveAspectRatio="xMidYMid meet">

<g transform="translate(0.000000,3750.000000) scale(0.100000,-0.100000)"
fill="#3a4548" stroke="none">
<path d="M28570 14103 c0 -4043 -2 -4593 -15 -4606 -8 -9 -35 -23 -60 -32
l-44 -18 24 -19 c41 -32 29 -86 -25 -108 -27 -11 -30 -17 -30 -59 l0 -47 143
-20 c143 -19 144 -19 240 0 53 11 98 25 100 30 2 6 2 27 0 47 -4 26 -12 40
-28 47 -13 6 -31 22 -40 36 -14 20 -14 29 -4 48 7 13 19 28 27 34 11 8 5 14
-30 29 -23 10 -51 25 -60 33 -17 14 -18 246 -18 4604 l0 4588 -50 1 c-27 1
-68 2 -90 3 l-40 1 0 -4592z"/>
</g>
</svg>
