<?xml version="1.0" standalone="no"?>
<!DOCTYPE svg PUBLIC "-//W3C//DTD SVG 20010904//EN"
 "http://www.w3.org/TR/2001/REC-SVG-20010904/DTD/svg10.dtd">
<svg version="1.0" xmlns="http://www.w3.org/2000/svg"
 width="3542.000000pt" height="3750.000000pt" viewBox="0 0 3542.000000 3750.000000"
 preserveAspectRatio="xMidYMid meet">

<g transform="translate(0.000000,3750.000000) scale(0.100000,-0.100000)"
fill="#3a4548" stroke="none">
<path d="M4968 16338 c-1 -1201 0 -3684 2 -5519 3 -3138 2 -3337 -14 -3361
-10 -15 -41 -37 -72 -49 -30 -13 -54 -25 -54 -28 0 -3 12 -17 25 -30 14 -13
25 -34 25 -48 0 -29 -38 -70 -74 -79 -24 -6 -26 -10 -26 -64 l0 -58 119 -29
120 -29 175 30 176 29 0 58 c0 53 -2 57 -26 63 -36 9 -74 50 -74 80 0 15 12
34 31 51 17 14 30 27 28 29 -2 1 -30 13 -62 26 -32 12 -62 31 -67 40 -6 11
-10 2093 -10 5544 l-1 5526 -110 0 -109 0 -2 -2182z"/>
</g>
</svg>
