<?xml version="1.0" standalone="no"?>
<!DOCTYPE svg PUBLIC "-//W3C//DTD SVG 20010904//EN"
 "http://www.w3.org/TR/2001/REC-SVG-20010904/DTD/svg10.dtd">
<svg version="1.0" xmlns="http://www.w3.org/2000/svg"
 width="3542.000000pt" height="3750.000000pt" viewBox="0 0 3542.000000 3750.000000"
 preserveAspectRatio="xMidYMid meet">

<g transform="translate(0.000000,3750.000000) scale(0.100000,-0.100000)"
fill="#3a4548" stroke="none">
<path d="M11179 16503 c0 -1160 0 -3440 1 -5069 1 -2833 0 -2961 -17 -2976
-10 -8 -40 -23 -66 -33 l-48 -18 25 -24 c46 -43 30 -97 -37 -122 -24 -10 -27
-15 -27 -61 0 -43 3 -50 23 -55 12 -3 66 -14 121 -25 l98 -20 122 20 c196 33
176 23 176 85 0 48 -2 53 -25 59 -34 9 -65 41 -65 67 0 11 13 33 28 48 l28 28
-50 19 c-27 11 -58 28 -68 39 -18 19 -18 97 -18 2410 0 1314 0 3593 0 5063 l0
2672 -100 0 -100 0 -1 -2107z"/>
</g>
</svg>
