<?xml version="1.0" standalone="no"?>
<!DOCTYPE svg PUBLIC "-//W3C//DTD SVG 20010904//EN"
 "http://www.w3.org/TR/2001/REC-SVG-20010904/DTD/svg10.dtd">
<svg version="1.0" xmlns="http://www.w3.org/2000/svg"
 width="2551.000000pt" height="2701.000000pt" viewBox="0 0 2551.000000 2701.000000"
 preserveAspectRatio="xMidYMid meet">

<g transform="translate(0.000000,2701.000000) scale(0.100000,-0.100000)"
fill="#3a4548" stroke="none">
<path d="M16482 22207 l-52 -42 -1 -400 c0 -220 0 -489 0 -597 l1 -197 -103
-3 -102 -3 -3 -1337 -2 -1338 105 0 105 0 0 -135 0 -135 -99 0 -98 0 -7 -97
c-3 -54 -6 -650 -6 -1325 l1 -1228 105 0 104 0 0 -801 c0 -493 -4 -807 -10
-818 -5 -10 -23 -24 -40 -31 -33 -14 -38 -31 -15 -50 24 -20 19 -59 -10 -72
-23 -10 -25 -17 -25 -70 l0 -58 155 0 155 0 0 61 c0 50 -3 60 -15 55 -15 -5
-35 21 -35 48 0 8 7 22 17 31 15 16 13 19 -25 55 l-42 37 1 807 0 806 99 0
100 0 0 1326 0 1327 -78 -6 c-43 -2 -91 -3 -105 0 l-27 5 0 135 0 134 68 -1
c37 -1 84 -1 105 -1 l37 1 0 1341 0 1340 -87 -1 c-49 -1 -93 -1 -99 -1 -9 1
-12 171 -12 637 0 349 -2 637 -4 639 -2 2 -27 -15 -56 -38z m176 -2574 l-3
-1218 -172 -3 -173 -2 0 1220 0 1220 175 0 176 0 -3 -1217z m0 -2940 l2 -1203
-175 0 -175 0 0 1205 0 1205 173 -2 172 -3 3 -1202z"/>
</g>
</svg>
