<?xml version="1.0" standalone="no"?>
<!DOCTYPE svg PUBLIC "-//W3C//DTD SVG 20010904//EN"
 "http://www.w3.org/TR/2001/REC-SVG-20010904/DTD/svg10.dtd">
<svg version="1.0" xmlns="http://www.w3.org/2000/svg"
 width="2551.000000pt" height="2701.000000pt" viewBox="0 0 2551.000000 2701.000000"
 preserveAspectRatio="xMidYMid meet">

<g transform="translate(0.000000,2701.000000) scale(0.100000,-0.100000)"
fill="#3a4548" stroke="none">
<path d="M17647 23157 l-58 -52 1 -562 0 -563 -95 0 -95 0 0 -1267 c0 -698 3
-1299 7 -1336 l6 -68 99 7 98 7 0 -143 0 -142 -102 4 -103 3 1 -900 c1 -495 2
-1095 3 -1332 l1 -433 90 0 90 0 0 -360 0 -360 -32 -20 c-18 -11 -37 -22 -43
-23 -5 -2 -2 -13 8 -24 25 -29 22 -69 -8 -89 -20 -13 -25 -24 -25 -60 l0 -44
167 2 168 3 -3 39 c-3 27 -11 46 -28 59 -28 22 -32 62 -8 88 15 16 13 19 -25
43 l-41 26 0 361 0 361 43 -2 c23 -1 63 -1 90 -1 l47 1 0 1336 0 1336 -97 -4
-98 -3 0 135 0 135 98 -3 97 -3 0 1336 0 1335 -90 0 -90 0 0 615 c0 338 -3
615 -7 615 -5 0 -34 -24 -66 -53z m171 -2504 l2 -1213 -165 0 -165 0 0 1215 0
1215 163 -2 162 -3 3 -1212z m2 -2943 l0 -1210 -165 0 c-150 0 -165 2 -166 18
0 9 0 123 0 252 1 129 1 666 1 1193 l0 957 165 0 165 0 0 -1210z"/>
</g>
</svg>
