<?xml version="1.0" standalone="no"?>
<!DOCTYPE svg PUBLIC "-//W3C//DTD SVG 20010904//EN"
 "http://www.w3.org/TR/2001/REC-SVG-20010904/DTD/svg10.dtd">
<svg version="1.0" xmlns="http://www.w3.org/2000/svg"
 width="2551.000000pt" height="2701.000000pt" viewBox="0 0 2551.000000 2701.000000"
 preserveAspectRatio="xMidYMid meet">

<g transform="translate(0.000000,2701.000000) scale(0.100000,-0.100000)"
fill="#3a4548" stroke="none">
<path d="M18822 24132 l-52 -47 0 -597 0 -598 -100 0 -100 0 0 -1340 0 -1340
100 0 100 0 0 -125 c0 -69 1 -128 3 -132 1 -5 -44 -9 -101 -11 l-102 -3 2
-1322 3 -1322 98 0 97 0 0 -805 c0 -443 -4 -810 -8 -816 -4 -6 -22 -19 -39
-28 -37 -19 -40 -31 -17 -57 21 -23 11 -65 -16 -74 -18 -6 -21 -14 -18 -63 l3
-57 150 0 150 0 3 55 c3 49 0 56 -20 65 -29 13 -35 51 -11 77 18 20 17 21 -7
37 -65 43 -60 -33 -59 856 l0 805 95 0 94 0 1 988 c2 1049 2 1459 0 1584 l-1
77 -102 3 -103 3 0 130 0 130 103 3 102 3 1 77 c1 125 1 2544 0 2575 l-1 27
-93 0 -94 0 -1 641 c0 353 -2 642 -4 644 -2 2 -27 -18 -56 -43z m166 -2580 l2
-1222 -167 2 -168 3 -3 1209 c-2 665 -1 1215 2 1223 5 11 37 13 168 11 l163
-3 3 -1223z m2 -2937 l0 -1205 -167 2 -168 3 -2 1190 c-2 655 -1 1196 2 1203
3 9 47 12 170 12 l165 0 0 -1205z"/>
</g>
</svg>
