<?xml version="1.0" standalone="no"?>
<!DOCTYPE svg PUBLIC "-//W3C//DTD SVG 20010904//EN"
 "http://www.w3.org/TR/2001/REC-SVG-20010904/DTD/svg10.dtd">
<svg version="1.0" xmlns="http://www.w3.org/2000/svg"
 width="2551.000000pt" height="2701.000000pt" viewBox="0 0 2551.000000 2701.000000"
 preserveAspectRatio="xMidYMid meet">

<g transform="translate(0.000000,2701.000000) scale(0.100000,-0.100000)"
fill="#3a4548" stroke="none">
<path d="M19993 25091 l-63 -52 0 -569 0 -569 -97 -3 -97 -3 0 -1275 c-1 -701
1 -1301 2 -1333 l4 -58 99 3 100 3 0 -135 0 -135 -102 0 -102 0 0 -675 c0
-371 1 -971 1 -1332 l2 -658 95 0 95 0 0 -346 c0 -218 -4 -352 -10 -365 -6
-10 -24 -26 -40 -34 -28 -14 -28 -16 -14 -45 19 -37 10 -68 -22 -82 -18 -9
-24 -19 -24 -45 l0 -33 175 0 175 0 0 35 c0 24 -6 37 -20 45 -34 18 -43 47
-25 82 12 25 13 33 3 40 -7 4 -16 8 -19 8 -3 0 -15 9 -27 20 -22 21 -22 24
-22 371 l0 351 43 -2 c23 -1 63 -1 90 -1 l47 1 0 1336 0 1336 -99 -7 -98 -7
-5 30 c-4 27 -4 164 1 231 l1 24 100 -8 100 -7 0 1336 0 1336 -90 0 -90 0 -2
622 -3 621 -62 -52z m164 -2518 l2 -1213 -169 0 -170 0 0 1215 0 1215 168 -2
167 -3 2 -1212z m3 -2942 l0 -1210 -102 -3 c-57 -2 -133 -2 -170 0 l-68 3 0
1209 0 1210 169 0 170 0 1 -1209z"/>
</g>
</svg>
