<?xml version="1.0" standalone="no"?>
<!DOCTYPE svg PUBLIC "-//W3C//DTD SVG 20010904//EN"
 "http://www.w3.org/TR/2001/REC-SVG-20010904/DTD/svg10.dtd">
<svg version="1.0" xmlns="http://www.w3.org/2000/svg"
 width="2551.000000pt" height="2701.000000pt" viewBox="0 0 2551.000000 2701.000000"
 preserveAspectRatio="xMidYMid meet">

<g transform="translate(0.000000,2701.000000) scale(0.100000,-0.100000)"
fill="#3a4548" stroke="none">
<path d="M23430 26890 l0 -120 -85 0 -85 0 0 -1346 0 -1346 100 7 100 8 0
-143 0 -142 -97 4 -98 3 -3 -1327 -2 -1328 85 0 85 0 -2 -817 -3 -817 -38 -22
c-33 -18 -36 -23 -22 -34 22 -18 19 -66 -7 -90 -12 -11 -26 -20 -31 -20 -4 0
-7 -10 -5 -22 3 -23 4 -23 180 -23 l178 0 0 31 c0 23 -5 33 -20 37 -11 3 -25
17 -32 32 -10 23 -9 32 5 57 l17 29 -34 14 c-18 8 -36 22 -40 30 -3 9 -6 376
-6 815 l0 799 93 3 92 3 0 1325 0 1325 -100 0 -100 0 0 135 0 135 100 0 100 0
3 1343 2 1342 -105 0 -105 0 0 120 0 120 -60 0 -60 0 0 -120z m240 -1460 l0
-1220 -165 0 -165 0 0 1220 0 1220 165 0 165 0 0 -1220z m1 -2087 c1 -192 1
-663 0 -1048 0 -385 -1 -771 -1 -857 l0 -158 -165 0 -165 0 0 1205 0 1205 165
0 165 0 1 -347z"/>
</g>
</svg>
