<?xml version="1.0" standalone="no"?>
<!DOCTYPE svg PUBLIC "-//W3C//DTD SVG 20010904//EN"
 "http://www.w3.org/TR/2001/REC-SVG-20010904/DTD/svg10.dtd">
<svg version="1.0" xmlns="http://www.w3.org/2000/svg"
 width="2551.000000pt" height="2701.000000pt" viewBox="0 0 2551.000000 2701.000000"
 preserveAspectRatio="xMidYMid meet">

<g transform="translate(0.000000,2701.000000) scale(0.100000,-0.100000)"
fill="#3a4548" stroke="none">
<path d="M11788 18339 l-48 -41 0 -599 0 -599 -95 0 -95 0 0 -1345 0 -1346
100 3 101 3 0 -135 0 -135 -98 0 -98 0 -3 -1327 -2 -1327 92 -3 93 -3 3 -790
c1 -434 0 -800 -3 -813 -3 -13 -20 -30 -40 -39 -38 -18 -44 -33 -20 -53 24
-20 19 -59 -10 -72 -23 -10 -25 -17 -25 -70 l0 -58 155 0 155 0 0 61 c0 50 -3
60 -15 55 -9 -3 -19 3 -26 15 -12 23 -4 69 11 69 22 0 8 26 -25 49 -20 13 -38
33 -40 45 -3 12 -4 377 -3 811 l3 790 100 5 100 5 3 1235 c1 679 -1 1277 -4
1329 l-6 93 -98 -7 -97 -7 -5 30 c-4 27 -4 165 1 230 1 23 2 24 104 20 l102
-3 0 1340 0 1340 -96 3 -97 3 -4 37 c-2 20 -4 308 -3 640 1 419 -2 602 -9 602
-6 -1 -32 -19 -58 -41z m182 -2579 l0 -1220 -165 0 -165 0 -1 73 c-4 220 -5
2353 -2 2360 2 4 78 7 169 7 l164 0 0 -1220z m0 -2945 l0 -1205 -167 2 -168 3
0 1195 c0 657 1 1198 3 1203 2 4 77 7 168 7 l164 0 0 -1205z"/>
</g>
</svg>
