<?xml version="1.0" standalone="no"?>
<!DOCTYPE svg PUBLIC "-//W3C//DTD SVG 20010904//EN"
 "http://www.w3.org/TR/2001/REC-SVG-20010904/DTD/svg10.dtd">
<svg version="1.0" xmlns="http://www.w3.org/2000/svg"
 width="2551.000000pt" height="2701.000000pt" viewBox="0 0 2551.000000 2701.000000"
 preserveAspectRatio="xMidYMid meet">

<g transform="translate(0.000000,2701.000000) scale(0.100000,-0.100000)"
fill="#3a4548" stroke="none">
<path d="M14138 20279 l-48 -41 0 -599 0 -599 -100 0 -100 0 0 -1346 0 -1345
105 7 105 7 0 -143 0 -142 -102 4 -103 3 0 -1325 0 -1325 98 -3 97 -3 0 -800
c0 -493 -4 -807 -10 -818 -5 -10 -23 -24 -40 -31 -33 -14 -38 -31 -15 -50 24
-20 19 -59 -10 -72 -23 -10 -25 -17 -25 -70 l0 -58 155 0 155 0 0 61 c0 50 -3
60 -15 55 -9 -3 -19 3 -26 15 -12 23 -4 69 11 69 6 0 10 7 10 15 0 8 -3 15 -8
15 -4 0 -22 13 -40 29 l-32 30 1 805 1 806 99 0 99 0 0 753 c0 413 2 984 3
1267 2 283 2 543 0 578 l-5 64 -101 -4 -102 -3 0 135 0 135 101 -3 102 -3 4
98 c6 130 7 2564 1 2581 -4 8 -33 12 -98 12 l-92 0 -5 38 c-2 20 -4 308 -3
640 1 419 -2 602 -9 602 -6 -1 -32 -19 -58 -41z m182 -2579 l0 -1220 -170 0
-170 0 0 1220 0 1220 170 0 170 0 0 -1220z m0 -2945 l0 -1205 -172 2 -173 3 1
670 c0 369 1 910 2 1203 l2 532 170 0 170 0 0 -1205z"/>
</g>
</svg>
