<?xml version="1.0" standalone="no"?>
<!DOCTYPE svg PUBLIC "-//W3C//DTD SVG 20010904//EN"
 "http://www.w3.org/TR/2001/REC-SVG-20010904/DTD/svg10.dtd">
<svg version="1.0" xmlns="http://www.w3.org/2000/svg"
 width="2550.000000pt" height="2700.000000pt" viewBox="0 0 2550.000000 2700.000000"
 preserveAspectRatio="xMidYMid meet">

<g transform="translate(0.000000,2700.000000) scale(0.100000,-0.100000)"
fill="#65340A" stroke="none">
<path d="M8212 15053 c-2 -1160 -3 -1268 -18 -1284 -14 -16 -15 -23 -4 -49 10
-24 10 -33 0 -45 -10 -12 -10 -21 -2 -40 7 -14 16 -25 22 -25 17 0 11 -48 -10
-82 -31 -51 -24 -67 11 -29 31 34 48 37 31 4 -6 -10 -34 -40 -63 -68 -70 -68
-84 -102 -63 -155 24 -59 50 -48 45 19 -2 35 15 91 28 91 11 0 51 -57 51 -72
0 -8 -23 -36 -51 -63 -89 -86 -93 -123 -26 -208 33 -42 57 -98 57 -132 0 -10
-10 -29 -22 -42 -19 -21 -21 -27 -9 -45 10 -16 10 -26 0 -49 -10 -25 -9 -32 6
-49 16 -17 17 -105 16 -1397 -1 -758 -1 -1386 -1 -1396 0 -11 -15 -25 -40 -36
-35 -16 -38 -20 -25 -31 25 -21 19 -59 -13 -77 -20 -12 -29 -24 -29 -43 0 -27
1 -27 104 -36 57 -5 113 -6 126 -2 12 3 43 9 70 13 44 6 47 8 47 35 0 20 -6
31 -20 35 -11 3 -25 15 -31 26 -11 21 -4 59 12 59 5 0 9 4 9 8 0 15 -77 35
-104 28 -15 -4 -26 -2 -26 4 0 5 11 12 25 16 l25 6 0 1389 c0 901 3 1389 10
1389 15 0 24 49 11 63 -8 10 -7 22 1 45 10 27 9 34 -6 51 -28 31 -16 114 22
155 65 70 75 102 46 158 -15 29 -15 33 6 70 28 49 22 88 -22 142 -17 21 -33
52 -34 69 -2 17 -11 41 -19 53 -20 31 -19 73 2 96 14 16 15 24 5 50 -8 23 -9
35 -1 45 13 14 4 63 -11 63 -7 0 -10 446 -10 1270 l0 1270 -63 0 -63 0 -2
-1267z m90 -1590 c23 -20 22 -32 -2 -63 l-19 -25 -28 27 -27 27 24 26 c28 30
28 30 52 8z m77 -90 c9 -19 14 -52 12 -92 -1 -23 -3 -22 -35 15 -33 38 -34 40
-18 67 19 31 28 34 41 10z m41 -23 c0 -11 -4 -20 -10 -20 -5 0 -10 9 -10 20 0
11 5 20 10 20 6 0 10 -9 10 -20z m-104 -86 c19 -15 34 -31 34 -38 0 -6 -16
-24 -35 -39 l-36 -29 -34 27 c-19 14 -35 32 -35 40 0 11 56 64 68 65 2 0 19
-12 38 -26z m-101 -124 c22 -23 26 -32 16 -43 -6 -8 -9 -21 -6 -29 3 -8 -1
-21 -10 -28 -14 -12 -16 -12 -14 1 1 7 -5 31 -14 51 -18 40 -22 78 -9 78 5 0
21 -13 37 -30z m175 19 c0 -5 5 -7 10 -4 18 11 10 -24 -9 -37 -10 -7 -21 -23
-25 -35 -10 -30 -20 -29 -35 3 -11 24 -9 30 15 55 29 30 44 36 44 18z m-91
-118 c7 -13 6 -24 -3 -37 -12 -15 -16 -16 -30 -5 -19 16 -20 33 -4 49 17 17
26 15 37 -7z"/>
</g>
</svg>
