<?xml version="1.0" standalone="no"?>
<!DOCTYPE svg PUBLIC "-//W3C//DTD SVG 20010904//EN"
 "http://www.w3.org/TR/2001/REC-SVG-20010904/DTD/svg10.dtd">
<svg version="1.0" xmlns="http://www.w3.org/2000/svg"
 width="2550.000000pt" height="2700.000000pt" viewBox="0 0 2550.000000 2700.000000"
 preserveAspectRatio="xMidYMid meet">

<g transform="translate(0.000000,2700.000000) scale(0.100000,-0.100000)"
fill="#65340A" stroke="none">
<path d="M8777 16282 c-16 -3 -17 -91 -17 -1247 0 -1092 -2 -1244 -15 -1255
-18 -15 -19 -42 -3 -58 10 -10 10 -17 0 -32 -17 -28 -15 -48 8 -62 25 -16 25
-45 0 -83 -11 -16 -20 -39 -20 -49 0 -18 2 -18 25 4 48 45 24 7 -35 -57 -54
-57 -60 -68 -60 -106 0 -47 31 -100 45 -77 5 8 7 34 6 59 -2 57 18 92 43 72
30 -25 29 -49 -5 -96 -18 -25 -35 -45 -39 -45 -14 0 -40 -61 -40 -93 0 -25 11
-48 38 -83 36 -47 62 -103 62 -136 0 -8 -9 -23 -20 -33 -23 -21 -26 -45 -8
-63 10 -10 10 -17 0 -32 -16 -26 -15 -45 3 -60 13 -11 15 -174 13 -1383 l-3
-1371 -25 -13 c-14 -7 -29 -14 -35 -17 -6 -2 -5 -9 3 -17 21 -22 14 -56 -16
-78 -23 -16 -28 -26 -24 -49 l4 -28 151 1 c84 0 158 4 165 8 19 13 15 65 -6
72 -30 9 -43 49 -26 74 15 20 14 22 -18 35 -18 8 -45 12 -61 9 -16 -3 -27 -1
-27 6 0 6 9 11 20 11 20 0 20 7 20 1356 l0 1356 21 30 c18 25 20 33 9 53 -9
17 -9 28 -1 44 13 23 0 61 -21 61 -7 0 -9 17 -5 50 5 39 15 61 47 99 48 56 59
104 37 148 -15 27 -14 32 4 62 29 48 25 91 -16 144 -19 25 -35 56 -35 69 0 13
-9 38 -20 56 -20 33 -27 82 -12 82 5 0 15 11 22 25 11 20 11 27 0 40 -10 12
-10 21 -1 42 10 23 9 30 -8 54 -21 28 -21 32 -21 1264 0 1091 -2 1235 -15
1236 -39 4 -73 4 -88 1z m73 -2809 c25 -22 25 -24 -1 -57 l-21 -27 -24 22
c-28 27 -30 36 -7 61 20 22 28 23 53 1z m75 -93 c16 -31 21 -90 7 -90 -5 0
-21 13 -36 29 -28 29 -28 29 -10 60 10 17 19 31 21 31 1 0 9 -13 18 -30z m32
-22 c-3 -8 -6 -5 -6 6 -1 11 2 17 5 13 3 -3 4 -12 1 -19z m-63 -121 c-3 -7
-20 -24 -38 -39 l-33 -27 -33 34 -34 35 34 35 33 34 38 -30 c21 -16 36 -35 33
-42z m-134 -79 c22 -26 25 -35 16 -55 -14 -30 -22 -29 -41 7 -15 29 -21 80 -8
80 3 0 18 -14 33 -32z m176 18 c12 -12 10 -20 -13 -56 -25 -38 -29 -40 -40
-24 -17 24 -17 30 9 64 25 35 25 35 44 16z m-88 -122 c2 -11 -3 -26 -11 -32
-20 -17 -41 9 -32 38 8 27 39 22 43 -6z"/>
</g>
</svg>
