<?xml version="1.0" standalone="no"?>
<!DOCTYPE svg PUBLIC "-//W3C//DTD SVG 20010904//EN"
 "http://www.w3.org/TR/2001/REC-SVG-20010904/DTD/svg10.dtd">
<svg version="1.0" xmlns="http://www.w3.org/2000/svg"
 width="2550.000000pt" height="2700.000000pt" viewBox="0 0 2550.000000 2700.000000"
 preserveAspectRatio="xMidYMid meet">

<g transform="translate(0.000000,2700.000000) scale(0.100000,-0.100000)"
fill="#65340A" stroke="none">
<path d="M9800 15008 c0 -1106 -1 -1203 -17 -1220 -14 -16 -14 -22 -3 -43 10
-20 11 -28 2 -37 -18 -18 -15 -43 8 -63 25 -23 25 -42 0 -80 -11 -16 -20 -39
-20 -49 0 -18 2 -18 27 5 31 27 15 3 -31 -45 -66 -72 -79 -113 -50 -167 21
-41 45 -24 37 26 -5 34 12 95 27 95 4 0 15 -11 24 -25 22 -33 14 -60 -34 -110
-73 -78 -77 -111 -20 -182 21 -28 45 -71 52 -96 11 -44 11 -48 -12 -72 -21
-22 -22 -28 -11 -49 10 -19 10 -27 0 -44 -10 -17 -10 -24 4 -46 16 -23 17
-126 17 -1340 0 -1420 3 -1334 -50 -1351 -18 -6 -19 -8 -4 -30 13 -20 13 -27
2 -44 -7 -12 -21 -24 -30 -27 -21 -6 -25 -64 -5 -65 6 0 35 -3 62 -5 75 -8
134 -7 193 1 49 7 52 9 52 37 0 20 -8 37 -25 50 -25 20 -33 52 -15 63 6 3 10
10 10 15 0 10 -54 30 -89 31 -24 2 -24 2 -3 6 l22 4 0 1316 c0 1225 1 1318 17
1335 13 15 15 25 7 46 -6 18 -7 36 0 54 8 22 6 31 -9 48 -29 33 -14 101 35
157 43 49 51 88 28 138 -10 22 -9 31 6 56 27 45 23 84 -12 133 -18 25 -32 53
-32 63 0 10 -9 35 -20 56 -24 45 -25 75 -3 99 14 15 15 24 7 46 -7 18 -7 35
-1 50 7 16 5 28 -7 46 -15 23 -16 130 -16 1221 l0 1195 -60 0 -60 0 0 -1202z
m90 -1523 c12 -22 11 -27 -5 -45 -24 -26 -31 -25 -51 5 -16 24 -16 27 1 45 24
27 39 25 55 -5z m70 -81 c6 -14 10 -42 10 -62 l0 -36 -34 33 c-34 33 -34 33
-17 62 20 36 29 36 41 3z m-55 -164 c-36 -37 -44 -37 -80 0 l-29 30 34 35 34
35 35 -35 35 -35 -29 -30z m-102 -48 c16 -17 23 -32 18 -38 -5 -5 -11 -18 -13
-29 -3 -19 -5 -18 -21 6 -20 30 -33 89 -20 89 5 0 21 -13 36 -28z m147 -37
c-13 -41 -20 -43 -38 -14 -12 19 -10 25 15 51 33 35 42 20 23 -37z m-66 -83
c-13 -20 -25 -20 -38 1 -7 10 -5 21 4 32 12 15 15 15 29 0 12 -12 13 -19 5
-33z"/>
</g>
</svg>
