<?xml version="1.0" standalone="no"?>
<!DOCTYPE svg PUBLIC "-//W3C//DTD SVG 20010904//EN"
 "http://www.w3.org/TR/2001/REC-SVG-20010904/DTD/svg10.dtd">
<svg version="1.0" xmlns="http://www.w3.org/2000/svg"
 width="2550.000000pt" height="2700.000000pt" viewBox="0 0 2550.000000 2700.000000"
 preserveAspectRatio="xMidYMid meet">

<g transform="translate(0.000000,2700.000000) scale(0.100000,-0.100000)"
fill="#65340A" stroke="none">
<path d="M3477 13609 c-11 -6 -32 -8 -48 -5 l-29 6 0 -1410 c0 -776 -4 -1410
-8 -1410 -5 0 -15 -11 -22 -25 -11 -21 -11 -29 0 -51 11 -20 12 -29 2 -44 -17
-28 -15 -44 8 -65 24 -21 27 -86 6 -104 -8 -6 -16 -23 -19 -38 -5 -25 -3 -24
29 11 18 20 40 36 49 36 24 0 6 -25 -79 -110 -95 -93 -106 -121 -73 -186 24
-47 25 -47 37 -25 6 13 13 47 13 77 2 36 8 59 20 71 16 17 18 16 39 -4 11 -12
22 -37 24 -55 2 -29 -6 -41 -66 -99 -96 -92 -102 -129 -34 -210 45 -54 50 -57
57 -23 3 18 -2 37 -14 53 -23 34 -35 96 -19 106 7 4 27 -8 50 -30 l39 -38 -21
-27 c-11 -16 -17 -33 -14 -39 4 -6 -1 -22 -10 -36 -11 -17 -14 -35 -9 -57 18
-89 17 -113 -4 -132 -24 -22 -26 -38 -9 -66 10 -15 9 -24 -2 -44 -10 -20 -11
-31 -2 -51 6 -14 16 -25 22 -25 11 0 15 -3865 4 -3895 -4 -9 -24 -25 -45 -36
-39 -19 -39 -20 -23 -45 13 -19 15 -30 6 -49 -8 -18 -8 -25 1 -29 7 -2 2 -5
-10 -5 -41 -2 -53 -12 -53 -46 0 -32 2 -34 43 -39 95 -12 183 -19 192 -16 6 1
47 12 93 22 l82 20 0 39 c0 26 -5 39 -13 39 -16 0 -57 41 -57 57 0 6 9 22 20
35 l20 26 -32 6 c-17 3 -40 14 -50 23 -17 15 -18 94 -18 1950 l0 1934 21 29
c19 25 20 33 10 58 -9 22 -9 35 -1 54 12 26 0 68 -19 68 -39 0 -5 123 57 202
53 68 62 115 34 169 -16 31 -17 39 -5 55 22 30 32 81 22 117 -5 17 -27 54 -49
81 -22 26 -40 57 -40 67 0 11 -9 37 -20 59 -23 45 -26 75 -7 87 32 21 39 41
26 78 -10 27 -10 38 -1 47 18 18 15 43 -8 63 -20 18 -20 31 -20 1427 l0 1408
-27 0 c-16 0 -36 -5 -46 -11z m32 -3180 c22 -18 23 -22 10 -46 -20 -37 -37
-39 -67 -10 l-26 26 24 26 c28 30 28 30 59 4z m84 -99 c11 -29 27 -41 27 -20
0 6 5 10 10 10 6 0 10 -12 10 -26 0 -19 -4 -25 -15 -20 -11 4 -15 -1 -15 -19
0 -32 -7 -31 -46 6 -32 31 -32 31 -16 65 21 42 31 42 45 4z m-62 -121 c21 -17
39 -35 39 -41 0 -12 -71 -78 -85 -77 -5 0 -27 16 -49 35 l-38 36 38 39 c21 21
42 39 47 39 5 0 27 -14 48 -31z m109 -124 c0 -15 -13 -39 -32 -59 -18 -18 -39
-42 -46 -52 -7 -10 -11 -14 -8 -8 3 6 -2 23 -10 39 -14 27 -13 30 18 62 18 18
38 31 45 29 7 -3 15 -1 18 4 10 16 15 11 15 -15z m-131 -132 c10 -23 9 -29 -8
-47 l-21 -20 -21 21 c-21 21 -21 21 -3 47 24 33 38 33 53 -1z"/>
</g>
</svg>
