<?xml version="1.0" standalone="no"?>
<!DOCTYPE svg PUBLIC "-//W3C//DTD SVG 20010904//EN"
 "http://www.w3.org/TR/2001/REC-SVG-20010904/DTD/svg10.dtd">
<svg version="1.0" xmlns="http://www.w3.org/2000/svg"
 width="2550.000000pt" height="2700.000000pt" viewBox="0 0 2550.000000 2700.000000"
 preserveAspectRatio="xMidYMid meet">

<g transform="translate(0.000000,2700.000000) scale(0.100000,-0.100000)"
fill="#65340A" stroke="none">
<path d="M4898 14998 l-68 -86 0 -1117 c-1 -1096 -1 -1118 -20 -1143 -23 -28
-25 -53 -8 -70 10 -10 10 -17 0 -32 -18 -29 -15 -58 8 -72 26 -17 26 -57 -1
-102 -27 -47 -19 -69 10 -28 20 28 51 44 51 25 0 -4 -36 -44 -80 -89 -92 -93
-102 -127 -60 -196 23 -38 32 -24 41 60 4 35 13 70 21 78 12 12 17 10 36 -16
32 -43 22 -75 -41 -136 -59 -57 -82 -101 -73 -137 3 -14 25 -49 50 -78 24 -30
47 -67 50 -84 19 -78 18 -93 -3 -116 -24 -26 -27 -49 -9 -67 10 -10 10 -17 0
-32 -17 -29 -15 -54 8 -75 20 -18 20 -31 19 -1874 0 -1400 -3 -1860 -12 -1872
-7 -9 -29 -25 -50 -35 -38 -20 -38 -20 -18 -39 12 -10 21 -23 21 -29 -1 -16
-32 -51 -53 -59 -14 -5 -17 -15 -15 -39 l3 -33 85 -8 c126 -12 148 -11 228 8
l72 18 0 39 c0 25 -5 38 -13 38 -18 0 -47 32 -47 53 0 8 8 23 17 33 10 10 13
19 8 21 -6 2 -26 11 -45 21 l-35 17 -3 1863 -2 1863 22 29 c17 23 19 33 10 42
-15 15 -16 54 -2 63 16 10 12 29 -11 54 -21 22 -29 77 -14 100 3 6 8 20 10 31
2 12 22 41 44 67 49 55 59 98 37 156 -15 41 -15 45 5 82 27 54 20 94 -31 161
-22 29 -40 63 -40 76 0 13 -9 37 -20 53 -26 39 -25 51 6 96 24 35 25 39 10 61
-14 21 -14 27 -1 44 19 26 19 36 -5 62 -20 21 -20 38 -22 1229 l-3 1207 -67
-86z m31 -2692 c23 -24 23 -25 5 -50 -24 -32 -35 -32 -64 -1 l-23 25 23 25
c29 31 31 31 59 1z m83 -98 c10 -28 12 -29 24 -14 8 12 14 14 19 6 9 -15 -2
-43 -15 -35 -6 4 -10 -5 -10 -19 0 -38 -14 -39 -49 -2 l-32 33 18 31 c23 40
31 40 45 0z m-69 -109 c20 -17 37 -36 37 -42 0 -14 -61 -77 -74 -77 -6 0 -28
17 -50 36 l-38 36 38 39 c21 21 41 39 44 39 3 0 22 -14 43 -31z m-98 -189 c-8
-9 -15 -25 -15 -36 0 -10 -5 -26 -11 -34 -8 -12 -10 -12 -8 5 1 11 -8 40 -19
65 -39 82 -25 107 30 53 34 -33 36 -38 23 -53z m175 69 c0 -8 5 -8 15 1 30 25
16 -28 -15 -60 -16 -17 -30 -35 -30 -40 0 -20 -16 -9 -29 21 -13 29 -12 32 15
60 29 30 44 37 44 18z m-87 -139 c3 -11 -3 -26 -14 -36 -19 -17 -21 -17 -41 4
l-22 22 24 25 c25 27 43 22 53 -15z"/>
</g>
</svg>
