<?xml version="1.0" standalone="no"?>
<!DOCTYPE svg PUBLIC "-//W3C//DTD SVG 20010904//EN"
 "http://www.w3.org/TR/2001/REC-SVG-20010904/DTD/svg10.dtd">
<svg version="1.0" xmlns="http://www.w3.org/2000/svg"
 width="2550.000000pt" height="2700.000000pt" viewBox="0 0 2550.000000 2700.000000"
 preserveAspectRatio="xMidYMid meet">

<g transform="translate(0.000000,2700.000000) scale(0.100000,-0.100000)"
fill="#65340A" stroke="none">
<path d="M7060 15085 c0 -723 -4 -1315 -8 -1315 -5 0 -14 -11 -21 -24 -10 -18
-10 -28 -1 -46 9 -18 9 -27 0 -45 -13 -24 0 -65 20 -65 17 0 11 -58 -10 -92
-31 -51 -24 -67 11 -29 16 18 33 31 36 27 3 -3 -24 -37 -61 -77 -91 -96 -102
-130 -59 -195 14 -22 17 -23 28 -7 7 10 11 32 8 53 -4 31 17 100 31 100 2 0
13 -14 24 -32 26 -41 17 -65 -48 -134 -75 -79 -76 -111 -7 -198 58 -73 72
-144 36 -182 -20 -21 -20 -26 -9 -54 10 -23 10 -34 1 -43 -17 -17 -13 -42 9
-62 20 -18 20 -31 20 -1452 0 -1414 0 -1433 -20 -1453 -11 -11 -31 -22 -45
-26 -24 -6 -36 -24 -15 -24 5 0 12 -11 16 -25 7 -28 -18 -65 -43 -65 -8 0 -13
-12 -13 -34 l0 -34 103 -7 c67 -5 130 -3 180 5 l77 13 0 32 c0 24 -5 34 -20
38 -11 3 -25 17 -31 31 -10 21 -9 29 4 44 10 10 17 21 17 24 0 11 -80 30 -104
26 -37 -7 -43 9 -6 17 l30 7 0 1436 c0 1337 1 1437 17 1454 14 16 15 24 5 51
-8 20 -8 35 -2 41 16 16 11 52 -10 71 -11 10 -20 25 -20 34 0 34 33 107 59
136 53 56 64 101 36 154 -13 26 -12 32 5 67 32 62 26 93 -32 164 -15 19 -28
46 -28 60 0 14 -9 39 -20 55 -26 40 -25 61 5 97 23 27 24 31 9 53 -13 20 -13
27 -2 44 11 18 10 26 -4 52 -17 29 -18 111 -18 1340 l0 1309 -65 0 -65 0 0
-1315z m95 -1654 c16 -19 16 -21 -5 -51 l-22 -31 -24 22 c-28 27 -30 36 -7 61
21 23 36 23 58 -1z m85 -147 c0 -24 -3 -44 -7 -44 -5 0 -20 15 -35 34 -27 34
-28 35 -10 66 l17 30 18 -21 c10 -13 17 -38 17 -65z m26 19 c-11 -11 -19 6
-11 24 8 17 8 17 12 0 3 -10 2 -21 -1 -24z m-96 -78 l35 -36 -37 -34 c-20 -19
-41 -35 -45 -35 -5 0 -24 16 -43 35 l-34 35 34 35 c19 19 39 35 45 35 6 0 27
-16 45 -35z m-116 -121 c22 -26 26 -38 17 -47 -6 -6 -11 -21 -11 -33 0 -13 -5
-26 -11 -30 -7 -4 -10 -1 -7 7 3 8 -3 30 -14 49 -18 35 -25 91 -10 89 4 0 20
-16 36 -35z m199 23 c4 3 7 -3 7 -15 0 -11 -8 -27 -18 -34 -11 -7 -25 -24 -32
-38 l-13 -24 -15 32 c-15 31 -15 33 13 62 20 20 32 27 40 20 7 -5 15 -7 18 -3z
m-103 -137 c0 -10 -7 -23 -16 -30 -12 -11 -18 -10 -31 3 -15 14 -15 18 1 42
14 21 20 24 32 14 8 -6 14 -19 14 -29z"/>
</g>
</svg>
