<?xml version="1.0" standalone="no"?>
<!DOCTYPE svg PUBLIC "-//W3C//DTD SVG 20010904//EN"
 "http://www.w3.org/TR/2001/REC-SVG-20010904/DTD/svg10.dtd">
<svg version="1.0" xmlns="http://www.w3.org/2000/svg"
 width="2550.000000pt" height="2700.000000pt" viewBox="0 0 2550.000000 2700.000000"
 preserveAspectRatio="xMidYMid meet">

<g transform="translate(0.000000,2700.000000) scale(0.100000,-0.100000)"
fill="#65340A" stroke="none">
<path d="M14310 11690 c0 -1857 0 -1871 -20 -1892 -22 -24 -26 -58 -8 -76 9
-9 8 -21 -1 -50 -14 -40 -3 -82 19 -82 17 0 12 -86 -6 -101 -26 -22 -46 -70
-39 -96 6 -24 7 -23 46 26 22 28 42 51 44 51 1 0 6 -7 9 -16 4 -12 -20 -44
-83 -108 -49 -50 -94 -103 -100 -118 -12 -31 -3 -67 29 -121 20 -34 24 -36 35
-20 8 11 11 36 8 75 -6 60 10 118 31 118 22 0 76 -65 76 -91 0 -17 -20 -44
-66 -89 -121 -120 -124 -152 -21 -274 33 -38 40 -54 44 -104 5 -51 2 -64 -17
-90 -22 -29 -22 -34 -10 -72 10 -31 11 -43 2 -52 -18 -18 -14 -52 8 -76 20
-21 20 -35 20 -1931 l0 -1909 -31 -26 c-17 -14 -34 -26 -37 -26 -4 0 -13 -4
-21 -9 -12 -8 -12 -12 3 -26 27 -28 17 -76 -21 -100 -29 -18 -33 -24 -30 -60
l2 -40 140 -11 140 -11 70 27 c69 27 70 28 72 66 3 34 -1 41 -30 59 -37 23
-45 56 -23 90 9 13 16 26 16 28 0 2 -17 9 -39 15 -28 9 -41 20 -49 40 -6 17
-10 683 -11 1915 l-1 1889 27 35 c26 34 26 35 9 63 -16 27 -16 32 -1 60 15 29
15 34 0 56 -8 13 -20 24 -25 24 -14 0 -12 91 3 116 6 12 31 45 54 73 57 69 70
120 48 178 -16 42 -16 45 4 79 45 76 38 137 -27 223 -14 19 -29 56 -33 82 -4
27 -19 64 -33 82 -25 33 -37 107 -17 107 5 0 17 12 26 27 17 25 17 28 0 59
-16 30 -16 34 -1 55 21 31 20 41 -6 70 l-23 25 0 1864 0 1865 -77 3 -78 3 0
-1871z m129 -2384 c-13 -20 -29 -36 -35 -36 -5 0 -25 15 -43 34 l-33 34 33 36
32 37 35 -35 35 -35 -24 -35z m87 -57 c17 -45 17 -126 2 -135 -7 -4 -10 -4 -6
1 4 4 -9 27 -28 51 l-36 43 19 40 c21 47 32 47 49 0z m-36 -183 c0 -13 -71
-86 -84 -86 -6 0 -30 19 -53 42 l-43 42 47 48 47 48 43 -42 c24 -23 43 -47 43
-52z m-156 -172 c-18 -26 -18 -28 -1 -21 23 9 21 -2 -9 -38 l-25 -30 2 25 c2
14 -7 44 -19 67 -12 23 -22 59 -22 80 l0 38 46 -46 46 -46 -18 -29z m181 59
c-12 -49 -34 -95 -44 -89 -5 3 -12 18 -15 32 -6 21 -1 33 20 55 35 36 48 37
39 2z m-100 -141 c-3 -8 -5 -18 -5 -23 0 -14 -26 -11 -39 5 -10 12 -9 20 5 41
17 26 18 26 31 9 7 -10 11 -25 8 -32z"/>
</g>
</svg>
