<?xml version="1.0" standalone="no"?>
<!DOCTYPE svg PUBLIC "-//W3C//DTD SVG 20010904//EN"
 "http://www.w3.org/TR/2001/REC-SVG-20010904/DTD/svg10.dtd">
<svg version="1.0" xmlns="http://www.w3.org/2000/svg"
 width="2550.000000pt" height="2700.000000pt" viewBox="0 0 2550.000000 2700.000000"
 preserveAspectRatio="xMidYMid meet">

<g transform="translate(0.000000,2700.000000) scale(0.100000,-0.100000)"
fill="#65340A" stroke="none">
<path d="M21042 24187 l-52 -53 0 -1463 0 -1463 -21 -30 c-21 -29 -21 -31 -5
-59 16 -27 16 -31 0 -58 -17 -29 -17 -30 10 -66 34 -45 31 -78 -15 -135 -24
-29 -32 -50 -33 -82 -1 -30 -9 -54 -28 -78 -55 -72 -62 -139 -23 -208 19 -34
22 -48 15 -68 -24 -63 -4 -128 60 -197 32 -35 42 -55 46 -91 4 -27 2 -46 -4
-46 -5 0 -18 -12 -27 -27 -16 -24 -16 -28 -1 -55 16 -26 16 -30 0 -57 -16 -28
-16 -30 5 -59 l21 -30 -2 -1604 -3 -1603 -40 -20 c-22 -11 -42 -21 -44 -22 -2
-2 3 -11 12 -21 28 -30 22 -70 -13 -90 -22 -13 -30 -24 -30 -46 l0 -29 61 7
c34 3 120 6 190 6 118 0 129 2 129 18 0 10 -13 28 -30 40 -34 25 -39 56 -13
84 15 17 15 20 3 28 -8 6 -23 10 -32 11 -33 3 -37 4 -50 18 -7 8 -8 11 -3 8 7
-3 9 532 7 1600 l-2 1605 21 29 c18 26 19 34 9 59 -10 24 -10 36 0 60 10 25 9
33 -9 59 -14 20 -21 44 -21 78 0 46 4 55 55 113 61 70 68 101 38 164 -16 34
-16 35 17 86 44 68 43 96 -8 169 -38 54 -41 63 -36 104 6 41 4 47 -30 84 -42
48 -49 98 -16 128 21 19 26 50 10 60 -5 3 -10 17 -10 30 0 13 5 27 10 30 16
10 11 38 -10 65 -19 25 -20 52 -20 1536 0 1498 -1 1534 -30 1534 -3 0 -29 -24
-58 -53z m35 -3504 l-38 -38 -25 28 c-31 36 -30 54 3 89 l27 28 35 -35 36 -35
-38 -37z m-108 -54 l21 -40 -26 -35 c-15 -18 -30 -34 -35 -34 -12 0 -11 92 1
124 5 14 11 26 14 26 2 0 13 -18 25 -41z m237 -35 c7 -37 -8 -84 -26 -84 -6 0
-29 19 -51 42 l-39 42 37 38 38 39 17 -21 c10 -12 20 -37 24 -56z m-124 -91
c21 -20 38 -42 38 -48 0 -6 -18 -28 -39 -49 l-39 -38 -41 37 c-23 21 -41 42
-41 47 0 9 70 88 78 88 3 0 23 -17 44 -37z m98 -128 c0 -28 -36 -105 -49 -105
-4 0 -13 11 -21 24 -11 22 -9 28 20 65 39 47 50 51 50 16z m-199 -37 c18 -23
26 -68 11 -68 -5 0 -16 16 -25 35 -27 57 -20 73 14 33z m93 -129 c-8 -14 -21
-10 -28 7 -10 25 5 40 20 19 7 -10 11 -22 8 -26z"/>
</g>
</svg>
