<?xml version="1.0" standalone="no"?>
<!DOCTYPE svg PUBLIC "-//W3C//DTD SVG 20010904//EN"
 "http://www.w3.org/TR/2001/REC-SVG-20010904/DTD/svg10.dtd">
<svg version="1.0" xmlns="http://www.w3.org/2000/svg"
 width="2550.000000pt" height="2700.000000pt" viewBox="0 0 2550.000000 2700.000000"
 preserveAspectRatio="xMidYMid meet">

<g transform="translate(0.000000,2700.000000) scale(0.100000,-0.100000)"
fill="#65340A" stroke="none">
<path d="M22162 25258 l-52 -49 0 -1483 c0 -1470 0 -1483 -20 -1501 -23 -21
-25 -46 -8 -75 10 -16 10 -24 0 -40 -17 -28 -15 -54 8 -83 29 -36 25 -68 -15
-127 -24 -35 -35 -63 -35 -88 0 -25 -11 -52 -36 -88 -50 -72 -55 -130 -20
-198 22 -44 24 -54 14 -90 -16 -60 2 -111 62 -178 42 -47 50 -62 50 -96 0 -26
-6 -45 -20 -57 -23 -21 -25 -46 -8 -75 10 -16 10 -24 0 -40 -17 -28 -15 -51 8
-80 19 -25 20 -56 20 -2122 l0 -2097 -27 -20 c-14 -12 -37 -24 -50 -27 l-23
-6 20 -25 c11 -14 20 -33 20 -43 0 -19 -40 -60 -59 -60 -8 0 -11 -10 -9 -27 3
-26 6 -28 46 -28 338 4 342 4 342 23 0 10 -13 26 -29 35 -41 24 -48 53 -22 87
l20 28 -27 8 c-15 4 -33 8 -41 9 -8 0 -16 14 -18 30 -3 17 -5 969 -5 2116 -1
1917 1 2089 16 2110 19 27 21 60 5 76 -8 8 -7 21 2 47 12 33 11 38 -9 65 -36
49 -30 109 16 168 21 26 46 54 55 61 27 22 30 67 9 115 l-20 44 34 54 c19 29
34 65 34 80 0 15 -19 55 -45 93 -37 54 -44 70 -35 85 18 35 11 61 -30 105 -46
50 -51 82 -18 127 20 27 21 32 9 65 -9 26 -10 39 -2 47 15 15 14 44 -5 71 -13
21 -15 189 -16 1553 0 1743 9 1591 -86 1501z m32 -3474 l29 -36 -37 -37 -37
-36 -25 28 c-13 15 -24 35 -24 45 0 15 47 72 59 72 3 0 19 -16 35 -36z m111
-114 c20 -38 20 -104 0 -120 -13 -11 -22 -8 -53 21 -20 19 -41 37 -47 41 -9 8
61 88 77 88 4 0 14 -13 23 -30z m-222 -15 c17 -35 17 -36 -12 -75 -15 -22 -31
-36 -35 -33 -9 10 -7 89 4 117 13 35 23 33 43 -9z m145 -158 c9 -10 2 -23 -33
-57 l-45 -44 -42 41 -41 42 37 46 38 45 37 -29 c21 -17 43 -36 49 -44z m46
-159 c-20 -44 -35 -48 -54 -13 -13 24 -11 28 26 66 l39 40 3 -27 c2 -15 -4
-44 -14 -66z m-175 19 c13 -15 19 -30 15 -41 -8 -22 -29 -6 -43 35 -12 35 -2
37 28 6z m89 -110 c2 -10 -3 -17 -12 -17 -10 0 -16 9 -16 21 0 24 23 21 28 -4z"/>
</g>
</svg>
