<?xml version="1.0" standalone="no"?>
<!DOCTYPE svg PUBLIC "-//W3C//DTD SVG 20010904//EN"
 "http://www.w3.org/TR/2001/REC-SVG-20010904/DTD/svg10.dtd">
<svg version="1.0" xmlns="http://www.w3.org/2000/svg"
 width="2550.000000pt" height="2700.000000pt" viewBox="0 0 2550.000000 2700.000000"
 preserveAspectRatio="xMidYMid meet">

<g transform="translate(0.000000,2700.000000) scale(0.100000,-0.100000)"
fill="#65340A" stroke="none">
<path d="M13113 13876 l-73 -192 0 -1593 c0 -1578 0 -1593 -20 -1618 -22 -28
-26 -58 -10 -68 6 -3 10 -17 10 -30 0 -13 -4 -27 -10 -30 -16 -10 -11 -44 10
-65 28 -28 26 -78 -5 -120 -14 -19 -25 -48 -25 -64 l0 -30 45 49 c36 41 44 46
45 29 0 -13 -23 -44 -61 -80 -71 -70 -119 -138 -119 -171 0 -19 26 -79 48
-113 2 -3 10 4 17 14 10 13 12 33 8 62 -6 48 0 80 22 109 15 19 16 18 48 -20
48 -58 45 -77 -20 -132 -60 -53 -103 -116 -103 -154 0 -27 18 -57 73 -122 32
-38 38 -54 43 -108 6 -57 4 -66 -15 -83 -23 -21 -28 -55 -9 -74 9 -9 8 -21 -2
-52 -12 -37 -12 -42 8 -63 l22 -23 0 -2116 c0 -2002 -1 -2116 -17 -2130 -10
-9 -33 -23 -51 -32 l-32 -17 21 -28 c19 -26 20 -31 7 -55 -8 -15 -25 -33 -39
-39 -23 -12 -24 -18 -21 -73 2 -20 10 -22 135 -31 127 -9 135 -8 202 15 78 27
85 34 83 77 -1 23 -8 34 -32 45 -24 12 -32 22 -34 48 -2 21 3 41 13 52 15 17
14 19 -22 30 -21 7 -44 19 -50 28 -10 13 -13 453 -13 2124 0 2095 0 2109 20
2130 23 25 25 50 8 78 -10 16 -10 24 0 40 18 29 15 58 -8 72 -15 10 -20 24
-20 61 0 54 16 91 55 127 59 55 80 136 50 193 -13 25 -12 31 10 74 39 73 32
131 -26 204 -17 21 -32 54 -34 72 -3 35 -28 91 -45 102 -18 11 -11 81 10 100
23 21 26 46 8 74 -9 15 -9 25 0 46 16 36 15 48 -8 73 -20 21 -20 38 -22 1805
l-3 1784 -72 -191z m46 -3810 c26 -27 23 -52 -9 -81 -20 -18 -21 -18 -50 10
-36 34 -37 42 -8 72 27 29 39 29 67 -1z m88 -113 c20 -49 24 -120 8 -133 -12
-10 -15 -9 -15 5 0 10 -13 33 -30 51 l-29 34 20 35 c25 42 31 43 46 8z m48
-13 c0 -7 -6 -15 -12 -17 -8 -3 -13 4 -13 17 0 13 5 20 13 18 6 -3 12 -11 12
-18z m-110 -130 l39 -40 -45 -45 -45 -45 -47 42 -48 42 43 43 c23 24 47 43 53
43 6 0 29 -18 50 -40z m-146 -142 c36 -39 38 -43 25 -64 -12 -17 -12 -23 -2
-26 9 -3 5 -13 -11 -34 l-23 -29 3 26 c2 14 -5 38 -15 54 -19 28 -35 115 -22
115 4 0 24 -19 45 -42z m241 20 c0 -18 -12 -33 -32 -41 -9 -3 -19 -19 -23 -35
-3 -17 -15 -38 -25 -47 -18 -16 -18 -16 -13 3 2 11 0 28 -5 39 -8 14 -4 25 18
49 37 42 80 59 80 32z m-140 -157 c0 -36 -17 -49 -37 -28 -12 11 -13 19 -4 36
17 31 41 27 41 -8z"/>
</g>
</svg>
