<?xml version="1.0" standalone="no"?>
<!DOCTYPE svg PUBLIC "-//W3C//DTD SVG 20010904//EN"
 "http://www.w3.org/TR/2001/REC-SVG-20010904/DTD/svg10.dtd">
<svg version="1.0" xmlns="http://www.w3.org/2000/svg"
 width="2550.000000pt" height="2700.000000pt" viewBox="0 0 2550.000000 2700.000000"
 preserveAspectRatio="xMidYMid meet">

<g transform="translate(0.000000,2700.000000) scale(0.100000,-0.100000)"
fill="#65340A" stroke="none">
<path d="M14238 15057 l-68 -113 0 -1207 c0 -687 -4 -1207 -9 -1207 -5 0 -14
-14 -21 -31 -10 -22 -10 -33 -1 -42 14 -14 15 -54 1 -62 -16 -10 -11 -40 10
-63 27 -29 25 -76 -5 -116 -21 -28 -35 -86 -20 -86 3 0 21 17 40 38 23 24 33
30 29 17 -4 -11 -35 -49 -69 -85 -96 -101 -104 -127 -65 -210 l24 -51 17 22
c13 18 15 29 7 48 -11 30 -2 92 17 118 13 17 16 16 44 -17 39 -46 33 -70 -34
-140 -102 -107 -103 -136 -1 -265 40 -50 48 -132 17 -166 -24 -26 -27 -49 -9
-67 9 -9 9 -20 -1 -48 -12 -33 -11 -39 8 -65 l21 -28 0 -2015 c0 -1108 -3
-2022 -6 -2031 -4 -9 -24 -25 -45 -36 -38 -19 -39 -20 -23 -44 21 -33 11 -71
-24 -89 -23 -12 -28 -21 -27 -53 l0 -38 105 -6 c58 -3 114 -9 125 -12 11 -4
52 4 90 17 70 24 70 24 73 64 2 32 -1 40 -16 44 -11 3 -28 18 -37 32 -17 26
-17 28 3 56 l21 28 -31 11 c-18 6 -40 19 -50 28 -17 15 -18 96 -17 2034 0
1981 1 2017 20 2035 22 20 24 46 7 74 -10 16 -10 24 0 40 18 29 15 58 -8 72
-14 9 -20 24 -20 50 0 52 15 85 60 134 54 59 68 110 46 169 -17 44 -17 45 6
77 37 53 32 112 -17 183 -26 38 -39 67 -37 84 2 16 -9 44 -27 71 -36 52 -39
92 -11 122 22 24 26 58 9 75 -8 8 -8 21 2 46 11 31 10 39 -7 64 -18 27 -19 67
-24 1341 l-5 1313 -67 -114z m37 -2931 c30 -28 28 -50 -9 -85 l-23 -22 -27 36
-27 35 23 30 c28 36 31 36 63 6z m94 -118 c13 -41 17 -105 8 -114 -4 -4 -8 -5
-9 -3 -2 2 -18 20 -36 40 l-33 36 21 37 c12 20 26 36 30 36 5 0 13 -15 19 -32z
m41 -4 c0 -8 -5 -12 -10 -9 -6 4 -8 11 -5 16 9 14 15 11 15 -7z m-115 -124
l39 -40 -41 -42 -42 -41 -40 34 c-21 19 -40 38 -40 44 -1 10 69 85 79 85 3 0
24 -18 45 -40z m-121 -146 c24 -29 26 -37 15 -50 -9 -11 -9 -18 -2 -22 8 -5 4
-15 -10 -32 -11 -14 -18 -18 -14 -9 3 9 -5 38 -19 65 -26 52 -32 97 -11 88 6
-3 25 -21 41 -40z m201 2 c-8 -6 -21 -28 -30 -48 -17 -43 -30 -48 -39 -15 -8
32 -8 33 20 66 21 26 28 29 44 19 15 -10 16 -14 5 -22z m-110 -116 c9 -28 -13
-54 -31 -39 -17 14 -18 31 -2 47 17 17 26 15 33 -8z"/>
</g>
</svg>
