<?xml version="1.0" standalone="no"?>
<!DOCTYPE svg PUBLIC "-//W3C//DTD SVG 20010904//EN"
 "http://www.w3.org/TR/2001/REC-SVG-20010904/DTD/svg10.dtd">
<svg version="1.0" xmlns="http://www.w3.org/2000/svg"
 width="2550.000000pt" height="2700.000000pt" viewBox="0 0 2550.000000 2700.000000"
 preserveAspectRatio="xMidYMid meet">

<g transform="translate(0.000000,2700.000000) scale(0.100000,-0.100000)"
fill="#65340A" stroke="none">
<path d="M16423 20651 l-53 -49 0 -596 0 -596 -130 0 -130 0 2 -2517 3 -2518
123 -3 c79 -2 122 1 122 8 0 5 3 10 8 10 4 0 6 -168 4 -372 -8 -1237 -5 -1113
-27 -1110 -11 2 -17 1 -13 -4 4 -4 4 -12 -2 -18 -5 -7 -5 -27 -1 -48 7 -30 5
-40 -10 -54 -10 -9 -20 -30 -22 -48 l-4 -31 -1 33 c-2 24 5 40 21 53 l22 20
-27 -17 c-24 -14 -28 -23 -28 -60 0 -39 3 -44 23 -45 25 -1 109 -1 210 0 l67
1 0 40 c0 30 -4 40 -16 40 -8 0 -13 4 -10 9 3 5 -1 11 -9 15 -19 7 -19 50 0
66 21 17 19 29 -7 40 -60 25 -55 -31 -57 763 -1 400 2 727 7 727 4 0 13 -5 18
-10 7 -7 57 -10 130 -8 l119 3 0 2515 0 2515 -132 3 -133 3 0 644 c0 355 -3
645 -7 645 -5 0 -32 -22 -60 -49z m212 -3758 l0 -2408 -200 5 -200 5 -6 185
c-4 102 -7 1178 -7 2393 l-1 2207 207 2 207 2 -210 6 -210 6 210 2 210 2 0
-2407z m-48 -2509 c-3 -3 -12 -4 -19 -1 -8 3 -5 6 6 6 11 1 17 -2 13 -5z m141
-1 c-10 -2 -26 -2 -35 0 -10 3 -2 5 17 5 19 0 27 -2 18 -5z"/>
<path d="M16305 12889 c-4 -6 -5 -12 -2 -15 2 -3 7 2 10 11 7 17 1 20 -8 4z"/>
</g>
</svg>
