<?xml version="1.0" standalone="no"?>
<!DOCTYPE svg PUBLIC "-//W3C//DTD SVG 20010904//EN"
 "http://www.w3.org/TR/2001/REC-SVG-20010904/DTD/svg10.dtd">
<svg version="1.0" xmlns="http://www.w3.org/2000/svg"
 width="2550.000000pt" height="2700.000000pt" viewBox="0 0 2550.000000 2700.000000"
 preserveAspectRatio="xMidYMid meet">

<g transform="translate(0.000000,2700.000000) scale(0.100000,-0.100000)"
fill="#65340A" stroke="none">
<path d="M17276 21471 l-49 -47 2 -568 c2 -428 -1 -571 -10 -582 -9 -11 -39
-14 -130 -14 l-119 0 0 -2505 0 -2505 130 0 130 0 0 -319 c0 -342 0 -340 -51
-356 -14 -5 -18 -12 -13 -23 19 -45 16 -70 -10 -87 -20 -13 -26 -26 -26 -51
l0 -34 150 0 150 0 0 33 c0 25 -6 37 -24 47 -30 16 -38 41 -21 73 11 22 10 26
-16 41 -16 9 -31 27 -34 39 -3 12 -4 159 -3 327 l3 305 128 3 127 3 -2 2511
-3 2512 -125 1 -125 0 -2 619 c-1 340 -4 620 -5 622 -2 2 -26 -18 -52 -45z
m212 -3720 l-3 -2406 -205 0 -205 0 -3 2399 c-1 1742 1 2403 9 2412 8 10 57
14 198 16 102 2 192 -1 199 -6 10 -7 12 -497 10 -2415z"/>
</g>
</svg>
