<?xml version="1.0" standalone="no"?>
<!DOCTYPE svg PUBLIC "-//W3C//DTD SVG 20010904//EN"
 "http://www.w3.org/TR/2001/REC-SVG-20010904/DTD/svg10.dtd">
<svg version="1.0" xmlns="http://www.w3.org/2000/svg"
 width="2550.000000pt" height="2700.000000pt" viewBox="0 0 2550.000000 2700.000000"
 preserveAspectRatio="xMidYMid meet">

<g transform="translate(0.000000,2700.000000) scale(0.100000,-0.100000)"
fill="#65340A" stroke="none">
<path d="M19938 24219 l-43 -51 4 -614 c2 -347 0 -614 -5 -615 -5 0 -63 -6
-129 -12 l-120 -12 0 -2550 0 -2550 125 -1 125 0 0 -744 0 -745 -44 -24 c-38
-21 -42 -26 -27 -36 26 -20 20 -62 -14 -87 -18 -13 -30 -31 -30 -45 l0 -23
173 2 c170 3 172 3 175 25 2 17 -4 26 -23 35 -32 15 -42 51 -22 82 16 23 15
24 -14 36 -16 7 -34 21 -39 31 -6 11 -10 228 -10 548 l0 530 -22 3 c-23 3 -23
4 -26 199 -3 254 -13 240 167 254 l131 10 0 2540 c0 2014 -3 2542 -13 2552 -9
9 -30 10 -82 3 -38 -5 -89 -9 -112 -10 l-43 0 0 648 c0 744 3 722 -82 621z
m207 -3834 l0 -2460 -185 -6 c-102 -3 -188 -4 -192 -2 -11 6 -10 4875 1 4892
6 9 48 16 137 22 71 5 136 11 144 13 8 2 33 3 55 3 l40 -2 0 -2460z"/>
</g>
</svg>
