<?xml version="1.0" standalone="no"?>
<!DOCTYPE svg PUBLIC "-//W3C//DTD SVG 20010904//EN"
 "http://www.w3.org/TR/2001/REC-SVG-20010904/DTD/svg10.dtd">
<svg version="1.0" xmlns="http://www.w3.org/2000/svg"
 width="2550.000000pt" height="2700.000000pt" viewBox="0 0 2550.000000 2700.000000"
 preserveAspectRatio="xMidYMid meet">

<g transform="translate(0.000000,2700.000000) scale(0.100000,-0.100000)"
fill="#65340A" stroke="none">
<path d="M22248 26993 c0 -4 -2 -231 -2 -502 l-1 -495 -110 -26 -110 -26 0
-2654 0 -2655 70 4 c39 2 88 4 110 5 l40 1 3 -320 c2 -231 -1 -326 -9 -342 -7
-12 -27 -27 -46 -34 -38 -12 -38 -12 -17 -44 20 -31 12 -56 -26 -78 -16 -10
-30 -25 -30 -34 0 -13 9 -15 53 -10 28 3 114 11 191 18 l138 13 -26 19 c-30
21 -33 52 -10 78 16 17 15 19 -10 29 -15 5 -36 10 -46 10 -17 0 -18 17 -19
355 l-2 355 24 9 c13 5 65 12 115 16 l92 8 0 2677 0 2678 -29 10 c-21 7 -48 5
-106 -9 -43 -10 -82 -16 -87 -13 -4 3 -8 220 -8 482 l0 477 -70 3 c-39 1 -71
-1 -72 -5z m229 -3641 c2 -2033 0 -2554 -10 -2557 -27 -11 -293 -42 -300 -36
-4 4 -6 1150 -5 2546 l3 2540 135 32 c74 17 144 31 155 30 20 -2 20 -10 22
-2555z"/>
</g>
</svg>
