<?xml version="1.0" standalone="no"?>
<!DOCTYPE svg PUBLIC "-//W3C//DTD SVG 20010904//EN"
 "http://www.w3.org/TR/2001/REC-SVG-20010904/DTD/svg10.dtd">
<svg version="1.0" xmlns="http://www.w3.org/2000/svg"
 width="2550.000000pt" height="2700.000000pt" viewBox="0 0 2550.000000 2700.000000"
 preserveAspectRatio="xMidYMid meet">

<g transform="translate(0.000000,2700.000000) scale(0.100000,-0.100000)"
fill="#65340A" stroke="none">
<path d="M22858 26994 c-5 -4 -8 -1215 -8 -2691 l0 -2683 68 0 c37 1 87 5 112
10 32 6 47 5 52 -3 4 -7 8 -356 8 -777 -1 -597 -3 -769 -13 -781 -7 -10 -30
-24 -51 -33 l-38 -16 21 -26 c16 -21 18 -30 9 -49 -6 -14 -19 -27 -30 -30 -20
-7 -42 -41 -31 -48 5 -3 87 4 183 14 96 10 181 19 189 19 9 0 4 9 -13 25 -30
27 -32 43 -11 71 21 28 19 31 -20 38 -26 5 -39 14 -45 32 -6 15 -10 260 -10
603 0 570 0 579 -20 584 -19 5 -20 14 -20 235 0 127 3 233 8 235 4 3 67 13
140 23 l132 19 0 2617 0 2618 -73 0 -74 0 0 -2601 c-1 -1866 -4 -2604 -12
-2608 -6 -4 -59 -13 -119 -20 -59 -7 -124 -17 -145 -21 -26 -6 -40 -5 -43 3
-2 7 -5 1166 -7 2577 -3 2303 -1 2566 13 2580 8 8 53 23 100 34 132 28 162 37
156 43 -9 9 -400 16 -408 7z"/>
</g>
</svg>
