<?xml version="1.0" standalone="no"?>
<!DOCTYPE svg PUBLIC "-//W3C//DTD SVG 20010904//EN"
 "http://www.w3.org/TR/2001/REC-SVG-20010904/DTD/svg10.dtd">
<svg version="1.0" xmlns="http://www.w3.org/2000/svg"
 width="2550.000000pt" height="2700.000000pt" viewBox="0 0 2550.000000 2700.000000"
 preserveAspectRatio="xMidYMid meet">

<g transform="translate(0.000000,2700.000000) scale(0.100000,-0.100000)"
fill="#65340A" stroke="none">
<path d="M9110 13321 c0 -450 -3 -826 -6 -835 -5 -12 -18 -14 -70 -9 l-64 6
-1 -1199 c0 -659 0 -1901 0 -2758 l0 -1559 68 -22 68 -21 3 -789 c1 -435 0
-800 -3 -813 -4 -16 -21 -30 -50 -43 l-45 -20 22 -29 c20 -28 20 -30 4 -55 -9
-14 -27 -30 -39 -34 -19 -8 -22 -15 -19 -48 4 -38 4 -39 75 -64 l72 -25 100
17 c55 10 112 18 128 18 25 1 27 4 27 44 0 37 -4 46 -25 55 -14 7 -30 23 -37
37 -10 22 -8 29 12 50 26 28 27 27 -17 44 -68 27 -63 -34 -61 827 l3 779 45
-3 c25 -2 56 1 70 6 l25 10 -2 2683 c-1 1476 -2 2730 -3 2786 l0 102 -67 3
-68 3 -3 822 c-2 772 -3 822 -20 827 -9 2 -33 7 -52 11 -19 4 -43 9 -52 11
-17 5 -18 -38 -18 -815z m124 -974 c16 -12 17 -157 13 -2657 -2 -1455 -7
-2655 -11 -2666 -7 -18 -11 -20 -31 -10 -13 6 -21 14 -19 18 2 3 -12 12 -31
18 -19 6 -35 17 -36 23 -4 58 -8 5271 -3 5278 8 14 98 11 118 -4z"/>
</g>
</svg>
