<?xml version="1.0" standalone="no"?>
<!DOCTYPE svg PUBLIC "-//W3C//DTD SVG 20010904//EN"
 "http://www.w3.org/TR/2001/REC-SVG-20010904/DTD/svg10.dtd">
<svg version="1.0" xmlns="http://www.w3.org/2000/svg"
 width="2550.000000pt" height="2700.000000pt" viewBox="0 0 2550.000000 2700.000000"
 preserveAspectRatio="xMidYMid meet">

<g transform="translate(0.000000,2700.000000) scale(0.100000,-0.100000)"
fill="#65340A" stroke="none">
<path d="M24600 25370 l0 -1630 26 -10 c19 -7 49 -6 106 5 44 8 89 15 99 15
18 0 19 -22 19 -792 0 -436 -3 -803 -6 -815 -4 -14 -19 -26 -43 -34 -52 -17
-52 -18 -31 -39 11 -11 20 -26 20 -34 0 -20 -39 -66 -56 -66 -8 0 -14 -7 -14
-16 0 -13 7 -15 38 -11 20 3 96 13 167 22 164 21 159 19 144 46 -9 18 -7 27
10 50 l22 29 -26 10 c-15 6 -29 10 -33 10 -4 0 -14 5 -22 10 -13 8 -16 95 -22
637 -4 345 -10 736 -13 867 -4 146 -2 243 4 249 5 5 67 19 138 31 l128 22 0
1534 0 1535 -72 2 -73 1 0 -291 c0 -161 0 -849 0 -1529 0 -912 -3 -1239 -11
-1244 -11 -7 -98 -23 -229 -44 -36 -6 -77 -13 -92 -16 l-28 -6 -2 1564 -3
1563 -72 3 -73 3 0 -1631z m395 -3240 c3 -5 1 -10 -4 -10 -6 0 -11 5 -11 10 0
6 2 10 4 10 3 0 8 -4 11 -10z"/>
</g>
</svg>
