<?xml version="1.0" standalone="no"?>
<!DOCTYPE svg PUBLIC "-//W3C//DTD SVG 20010904//EN"
 "http://www.w3.org/TR/2001/REC-SVG-20010904/DTD/svg10.dtd">
<svg version="1.0" xmlns="http://www.w3.org/2000/svg"
 width="2550.000000pt" height="2700.000000pt" viewBox="0 0 2550.000000 2700.000000"
 preserveAspectRatio="xMidYMid meet">

<g transform="translate(0.000000,2700.000000) scale(0.100000,-0.100000)"
fill="#65340A" stroke="none">
<path d="M11977 16321 l-59 -66 -1 -510 -2 -510 -121 -5 -122 -5 -7 -2572 c-6
-2162 -5 -2573 6 -2575 8 -2 66 -3 129 -3 l115 0 3 -308 c1 -199 -2 -315 -8
-328 -6 -10 -27 -26 -46 -34 -33 -13 -34 -16 -20 -31 9 -8 16 -26 16 -38 0
-24 -28 -56 -48 -56 -7 0 -12 -15 -12 -36 0 -31 4 -37 38 -51 43 -18 88 -20
225 -9 l97 8 0 30 c0 21 -10 39 -35 62 -37 35 -39 58 -8 83 13 10 8 15 -25 32
-22 11 -42 27 -46 36 -3 9 -6 158 -6 330 0 236 3 316 12 321 7 4 63 10 125 12
l113 5 2 746 c2 410 2 1564 0 2564 l-2 1817 -125 0 -125 0 -2 579 -3 579 -58
-67z m190 -3654 l3 -2458 -23 -8 c-12 -4 -97 -11 -189 -15 l-168 -7 0 2476 0
2475 188 -2 187 -3 2 -2458z"/>
</g>
</svg>
