<?xml version="1.0" standalone="no"?>
<!DOCTYPE svg PUBLIC "-//W3C//DTD SVG 20010904//EN"
 "http://www.w3.org/TR/2001/REC-SVG-20010904/DTD/svg10.dtd">
<svg version="1.0" xmlns="http://www.w3.org/2000/svg"
 width="2550.000000pt" height="2700.000000pt" viewBox="0 0 2550.000000 2700.000000"
 preserveAspectRatio="xMidYMid meet">

<g transform="translate(0.000000,2700.000000) scale(0.100000,-0.100000)"
fill="#65340A" stroke="none">
<path d="M14633 18948 l-53 -54 0 -582 0 -582 -125 0 -125 0 -2 -1882 c-1
-1036 -2 -2166 -2 -2513 l-1 -630 128 -3 127 -3 0 -729 c0 -785 2 -748 -50
-765 -24 -8 -25 -18 -5 -35 22 -19 18 -38 -15 -72 -19 -19 -30 -40 -30 -58 0
-43 37 -51 191 -43 l129 6 0 29 c0 20 -9 37 -30 55 -33 27 -38 54 -15 73 22
18 19 24 -20 43 -20 9 -37 26 -40 39 -3 13 -4 345 -3 738 l3 715 128 3 127 3
0 2509 0 2509 -127 3 -128 3 -5 638 -5 638 -52 -53z m205 -3734 l2 -2411 -191
-7 c-128 -4 -195 -3 -204 4 -10 8 -13 497 -14 2411 0 1321 2 2405 5 2410 3 5
92 8 202 7 l197 -3 3 -2411z"/>
</g>
</svg>
