<?xml version="1.0" standalone="no"?>
<!DOCTYPE svg PUBLIC "-//W3C//DTD SVG 20010904//EN"
 "http://www.w3.org/TR/2001/REC-SVG-20010904/DTD/svg10.dtd">
<svg version="1.0" xmlns="http://www.w3.org/2000/svg"
 width="2551.000000pt" height="2701.000000pt" viewBox="0 0 2551.000000 2701.000000"
 preserveAspectRatio="xMidYMid meet">

<g transform="translate(0.000000,2701.000000) scale(0.100000,-0.100000)"
fill="#3a4548" stroke="none">
<path d="M21153 26038 l-63 -50 0 -753 c0 -734 -1 -755 -20 -788 -17 -28 -18
-38 -8 -64 9 -24 9 -38 0 -58 -12 -26 -3 -61 20 -76 5 -3 10 -20 10 -37 1 -24
-9 -43 -40 -76 -61 -67 -75 -100 -69 -165 5 -43 2 -60 -13 -80 -46 -66 -45
-144 5 -211 17 -24 25 -47 25 -76 0 -56 12 -85 55 -133 43 -47 48 -85 17 -128
-18 -26 -20 -34 -10 -61 9 -23 9 -37 0 -56 -12 -27 1 -76 20 -76 4 0 8 -333 8
-739 0 -738 0 -740 -21 -776 -16 -27 -19 -39 -10 -48 14 -14 14 -60 0 -74 -11
-11 3 -51 22 -63 5 -4 11 -20 15 -37 5 -26 -1 -38 -49 -92 -60 -67 -72 -100
-62 -166 5 -37 2 -50 -20 -84 -39 -58 -37 -116 3 -182 24 -37 32 -62 32 -95 0
-53 11 -77 56 -124 44 -47 52 -87 24 -120 -17 -19 -20 -33 -16 -60 8 -45 8
-49 0 -88 -5 -24 -2 -38 11 -52 15 -17 17 -112 16 -1383 -1 -751 -3 -1372 -6
-1379 -3 -8 -22 -22 -41 -31 -32 -16 -34 -19 -20 -33 27 -26 20 -70 -14 -96
-21 -15 -30 -30 -30 -50 l0 -28 175 0 175 0 0 33 c0 25 -7 39 -30 55 -34 26
-38 56 -12 85 9 11 13 22 7 24 -5 1 -25 12 -42 23 l-33 20 0 1374 c0 1287 1
1376 17 1405 15 24 16 35 7 59 -7 18 -8 36 -3 43 14 22 10 66 -6 83 -27 27
-19 78 19 115 50 48 62 82 47 133 -12 39 -11 42 17 72 62 65 67 112 21 194
-26 46 -29 59 -20 79 24 53 14 89 -44 154 -46 52 -55 68 -55 100 0 21 9 53 20
72 17 29 19 39 9 60 -7 16 -8 37 -4 54 10 35 7 53 -11 74 -12 13 -14 132 -14
752 0 722 0 737 20 770 17 29 19 39 9 61 -10 20 -10 32 0 52 10 22 8 32 -9 61
-30 51 -26 80 20 129 46 50 58 86 42 127 -10 27 -8 35 28 86 56 81 57 95 15
166 -27 44 -35 66 -30 85 22 86 20 94 -39 159 -48 52 -56 66 -56 100 0 22 9
55 20 74 17 28 18 38 8 64 -9 24 -9 38 0 57 12 27 -1 76 -20 76 -4 0 -9 362
-10 804 l-3 804 -62 -50z m102 -2017 c10 -38 -5 -39 -35 -2 -24 28 -27 37 -17
52 11 18 13 18 29 -3 9 -13 20 -34 23 -47z m-155 46 c0 -14 -20 -37 -32 -37
-4 0 -2 11 4 25 12 27 28 34 28 12z m80 -112 l34 -35 -42 -42 -41 -42 -27 24
c-46 44 -47 55 -13 95 17 19 36 35 43 35 7 0 27 -16 46 -35z m108 -110 c18
-39 14 -90 -7 -116 l-19 -24 -35 40 -34 40 36 42 c20 23 39 42 42 43 3 0 11
-11 17 -25z m-234 -29 l26 -35 -23 -35 c-12 -19 -25 -35 -28 -36 -15 -1 -26
120 -12 133 9 10 8 11 37 -27z m146 -160 c-1 -6 -13 -26 -28 -43 l-28 -33 -37
31 c-20 17 -37 34 -37 37 0 4 14 25 31 45 l32 38 33 -32 c19 -18 34 -38 34
-43z m12 -128 c-7 -7 -12 -8 -12 -2 0 14 12 26 19 19 2 -3 -1 -11 -7 -17z m38
-2304 c16 -46 9 -50 -24 -15 -21 21 -26 35 -21 51 9 28 30 11 45 -36z m-150
33 c0 -8 -9 -22 -20 -32 -23 -21 -25 -16 -8 20 12 27 28 34 28 12z m83 -189
l-43 -42 -35 34 c-19 19 -35 38 -35 44 0 6 17 27 37 48 l37 38 41 -40 40 -40
-42 -42z m114 -80 c3 -38 -1 -59 -12 -73 -16 -20 -17 -19 -50 19 l-33 40 35
43 c43 52 55 46 60 -29z m-217 -11 c0 -4 -11 -24 -25 -44 l-24 -36 -11 27
c-11 31 -13 86 -3 112 5 14 10 12 34 -17 16 -19 29 -38 29 -42z m130 -131 c0
-6 -14 -25 -32 -43 l-32 -33 -33 32 c-18 18 -33 35 -33 40 0 4 14 23 31 43
l32 36 33 -32 c19 -18 34 -37 34 -43z"/>
</g>
</svg>
