<?xml version="1.0" standalone="no"?>
<!DOCTYPE svg PUBLIC "-//W3C//DTD SVG 20010904//EN"
 "http://www.w3.org/TR/2001/REC-SVG-20010904/DTD/svg10.dtd">
<svg version="1.0" xmlns="http://www.w3.org/2000/svg"
 width="2551.000000pt" height="2701.000000pt" viewBox="0 0 2551.000000 2701.000000"
 preserveAspectRatio="xMidYMid meet">

<g transform="translate(0.000000,2701.000000) scale(0.100000,-0.100000)"
fill="#3a4548" stroke="none">
<path d="M24484 26914 c-10 -23 -13 -50 -9 -77 5 -33 1 -54 -20 -100 -33 -71
-30 -108 15 -180 18 -29 30 -62 30 -83 0 -41 28 -100 64 -133 32 -30 34 -67 5
-115 -18 -31 -19 -39 -8 -71 10 -27 10 -38 1 -47 -17 -17 -15 -42 8 -71 20
-25 20 -40 20 -749 l0 -723 -22 -42 c-20 -37 -21 -44 -8 -68 11 -21 12 -30 2
-45 -18 -29 -15 -58 8 -72 14 -9 20 -24 20 -52 0 -32 -8 -47 -50 -93 -57 -62
-77 -118 -61 -165 9 -27 7 -39 -21 -95 -30 -62 -31 -67 -19 -111 7 -26 23 -61
37 -79 17 -23 26 -49 29 -83 3 -47 25 -90 72 -138 19 -20 15 -73 -7 -102 -22
-29 -25 -51 -8 -68 9 -9 8 -21 -2 -52 -12 -37 -12 -42 8 -63 l22 -23 0 -886
c0 -977 5 -899 -62 -934 -28 -14 -29 -17 -14 -33 26 -29 20 -67 -16 -95 l-33
-26 188 0 c180 0 187 1 187 20 0 11 -4 20 -10 20 -18 0 -50 40 -50 62 0 12 7
29 16 39 15 16 13 19 -25 39 l-41 20 0 896 c0 821 1 897 17 920 14 22 15 31 5
57 -9 24 -9 39 0 64 11 29 9 36 -10 62 -31 43 -28 68 18 117 46 50 57 83 40
124 -12 28 -9 33 35 92 55 74 55 95 4 178 -32 52 -32 54 -16 82 31 54 22 84
-54 165 -41 43 -49 58 -49 90 0 22 9 48 20 63 22 28 25 52 10 79 -6 12 -5 29
3 50 10 27 9 37 -6 62 -16 28 -17 86 -17 764 0 678 1 736 17 764 15 25 16 35
6 62 -8 21 -9 38 -3 50 15 28 12 54 -10 74 -30 27 -24 57 20 111 48 58 56 83
41 125 -10 30 -8 36 34 92 25 34 45 72 45 86 0 13 -17 49 -37 78 -35 51 -36
56 -24 86 34 83 22 117 -39 117 -22 0 -40 -2 -40 -4 0 -2 7 -20 16 -41 9 -22
12 -41 7 -46 -12 -12 -77 67 -68 81 4 6 -15 10 -48 10 -46 0 -55 -3 -60 -20
-3 -11 -10 -20 -16 -20 -9 0 -9 5 -1 20 10 18 8 20 -30 20 -38 0 -42 -3 -56
-36z m183 -76 c18 -18 33 -36 33 -42 0 -6 -17 -27 -37 -48 l-37 -38 -33 32
c-18 18 -33 39 -33 47 0 14 57 81 69 81 3 0 20 -14 38 -32z m123 -117 c22 -41
1 -131 -30 -131 -12 0 -70 53 -70 64 0 12 71 86 82 86 4 0 12 -9 18 -19z
m-235 -102 c-10 -22 -22 -36 -27 -31 -11 11 -22 97 -14 117 5 14 11 11 32 -15
l27 -31 -18 -40z m124 -63 l24 -26 -24 -27 c-13 -16 -27 -32 -31 -37 -10 -14
-68 33 -68 56 0 11 9 33 21 49 23 32 36 30 78 -15z m33 -148 c-7 -7 -12 -8
-12 -2 0 14 12 26 19 19 2 -3 -1 -11 -7 -17z m29 -2275 c21 -36 32 -83 20 -83
-19 0 -62 70 -56 90 9 27 18 25 36 -7z m-151 -13 c-10 -18 -30 -36 -30 -26 0
19 22 56 30 51 7 -4 7 -12 0 -25z m87 -92 c18 -18 33 -37 33 -43 0 -6 -17 -28
-38 -48 l-38 -37 -39 40 -39 40 39 40 c21 22 41 40 44 40 3 0 20 -14 38 -32z
m118 -132 c16 -37 6 -94 -19 -115 -11 -9 -20 -4 -45 26 -17 21 -31 42 -31 47
0 12 61 76 72 76 5 0 15 -15 23 -34z m-238 -83 c-12 -20 -23 -31 -29 -25 -13
13 -21 77 -14 108 l7 26 28 -38 28 -37 -20 -34z m123 -58 l34 -35 -37 -37 -37
-37 -30 29 c-16 16 -30 34 -30 41 0 14 48 74 59 74 4 0 22 -16 41 -35z"/>
</g>
</svg>
