<?xml version="1.0" standalone="no"?>
<!DOCTYPE svg PUBLIC "-//W3C//DTD SVG 20010904//EN"
 "http://www.w3.org/TR/2001/REC-SVG-20010904/DTD/svg10.dtd">
<svg version="1.0" xmlns="http://www.w3.org/2000/svg"
 width="2551.000000pt" height="2701.000000pt" viewBox="0 0 2551.000000 2701.000000"
 preserveAspectRatio="xMidYMid meet">

<g transform="translate(0.000000,2701.000000) scale(0.100000,-0.100000)"
fill="#3a4548" stroke="none">
<path d="M9448 16405 l-58 -47 0 -754 c0 -684 -2 -757 -17 -788 -13 -29 -14
-40 -4 -62 9 -20 9 -34 -1 -60 -11 -30 -10 -37 9 -62 29 -39 20 -77 -33 -134
-49 -53 -59 -81 -50 -140 6 -37 3 -47 -26 -87 -45 -63 -45 -117 1 -184 30 -44
32 -50 21 -83 -17 -51 -5 -82 55 -145 59 -61 64 -86 31 -148 -16 -30 -17 -40
-6 -69 9 -25 9 -37 1 -45 -15 -15 -13 -48 4 -71 13 -17 15 -124 15 -758 0
-669 -2 -741 -17 -772 -13 -29 -14 -40 -4 -62 9 -20 9 -33 0 -59 -11 -29 -10
-37 6 -62 30 -45 21 -80 -35 -139 -41 -43 -50 -59 -50 -89 0 -20 4 -44 9 -54
8 -13 0 -31 -30 -77 -48 -71 -48 -108 1 -179 31 -45 32 -49 20 -85 -18 -53 -8
-78 55 -149 61 -69 66 -91 34 -146 -18 -31 -20 -39 -9 -65 10 -24 10 -36 0
-61 -11 -26 -11 -35 3 -59 15 -25 17 -144 17 -1396 l1 -1369 -23 -17 c-60 -44
-61 -45 -36 -79 l23 -31 -29 -23 c-25 -20 -29 -30 -30 -76 l-1 -54 153 -3 152
-3 0 67 c0 53 -3 65 -14 61 -9 -4 -19 5 -26 24 -11 25 -10 32 6 50 18 20 18
21 -21 54 l-40 33 0 1358 c0 1265 1 1362 17 1406 14 38 15 53 6 72 -8 19 -8
32 1 54 9 22 9 35 0 55 -7 15 -16 27 -21 27 -4 0 -8 13 -8 28 0 19 11 39 36
63 62 60 77 93 72 156 -4 51 -2 61 26 100 41 60 42 133 1 195 -22 33 -28 53
-26 89 3 60 -9 87 -63 148 -25 29 -46 58 -46 66 0 8 10 30 22 51 18 31 20 41
10 68 -9 24 -9 39 0 63 10 26 9 35 -5 57 -16 23 -17 89 -17 767 0 677 1 743
17 769 14 24 15 33 5 56 -10 20 -10 33 0 60 11 30 10 37 -10 63 -32 44 -28 63
28 126 60 69 76 111 60 159 -10 30 -8 37 26 87 31 46 35 60 31 96 -2 23 -18
64 -34 90 -24 38 -30 56 -26 85 8 57 -3 83 -57 143 -28 30 -50 64 -50 75 0 10
10 35 21 55 18 31 20 39 9 65 -10 24 -10 36 0 59 9 23 9 34 -2 53 -10 18 -14
183 -18 832 l-5 808 -57 -47z m-48 -1965 c-10 -19 -30 -36 -30 -26 0 16 24 55
31 50 5 -3 5 -14 -1 -24z m120 -1 c0 -6 -4 -7 -10 -4 -5 3 -10 11 -10 16 0 6
5 7 10 4 6 -3 10 -11 10 -16z m-28 -86 c15 -15 28 -32 28 -39 0 -18 -49 -74
-65 -74 -7 0 -27 16 -45 36 l-32 36 33 34 c18 19 37 34 43 34 5 0 23 -12 38
-27z m-124 -134 l34 -40 -34 -38 c-18 -22 -36 -40 -40 -40 -10 -1 -27 65 -23
86 12 60 16 73 23 73 4 0 22 -18 40 -41z m216 25 c8 -22 7 -117 -2 -131 -5 -8
-18 2 -40 28 l-33 39 25 31 c14 17 26 35 26 40 0 15 17 10 24 -7z m-89 -234
l-41 -40 -39 40 -39 40 39 40 39 40 41 -40 40 -40 -40 -40z m-94 -91 c6 -11 6
-20 -1 -24 -8 -5 -40 43 -40 61 0 10 30 -17 41 -37z m118 -11 c-8 -14 -14 -18
-17 -10 -4 13 17 46 25 38 3 -2 -1 -15 -8 -28z m-109 -2270 c0 -14 -30 -48
-42 -48 -5 0 -2 14 7 30 16 30 35 40 35 18z m89 -102 c36 -37 35 -51 -11 -93
l-24 -23 -39 40 -39 40 34 35 c19 19 37 35 40 35 3 0 21 -15 39 -34z m-123
-208 c-17 -20 -36 -37 -43 -37 -25 -2 -34 99 -13 139 12 23 12 22 50 -21 l38
-44 -32 -37z m214 30 c0 -31 -4 -59 -9 -62 -5 -3 -21 12 -36 34 l-27 39 28 35
c34 43 44 33 44 -46z m-86 -87 l38 -38 -32 -37 c-18 -20 -37 -36 -44 -36 -7 0
-27 16 -46 35 l-34 35 39 40 c21 22 39 40 40 40 1 0 18 -17 39 -39z m-94 -177
c0 -27 -20 -23 -35 5 -22 44 -18 58 10 31 14 -13 25 -29 25 -36z m106 -11
c-10 -10 -19 5 -10 18 6 11 8 11 12 0 2 -7 1 -15 -2 -18z"/>
</g>
</svg>
