<?xml version="1.0" standalone="no"?>
<!DOCTYPE svg PUBLIC "-//W3C//DTD SVG 20010904//EN"
 "http://www.w3.org/TR/2001/REC-SVG-20010904/DTD/svg10.dtd">
<svg version="1.0" xmlns="http://www.w3.org/2000/svg"
 width="2551.000000pt" height="2701.000000pt" viewBox="0 0 2551.000000 2701.000000"
 preserveAspectRatio="xMidYMid meet">

<g transform="translate(0.000000,2701.000000) scale(0.100000,-0.100000)"
fill="#3a4548" stroke="none">
<path d="M12963 19297 l-53 -42 0 -752 c0 -688 -1 -755 -17 -788 -13 -28 -15
-42 -7 -63 6 -15 7 -37 3 -47 -12 -32 -10 -63 6 -79 30 -30 18 -74 -35 -132
-54 -60 -70 -108 -52 -156 9 -25 6 -35 -25 -81 -30 -45 -34 -58 -31 -98 3 -29
16 -62 36 -91 28 -41 30 -48 20 -81 -14 -46 1 -83 59 -145 48 -52 54 -82 26
-131 -15 -25 -16 -35 -6 -60 8 -24 8 -38 0 -62 -10 -25 -9 -35 6 -60 16 -28
17 -86 17 -764 0 -676 -1 -736 -17 -763 -14 -24 -15 -37 -7 -59 6 -18 6 -41 0
-65 -8 -29 -6 -41 7 -62 30 -45 22 -87 -24 -131 -65 -64 -84 -118 -59 -166 9
-15 4 -29 -25 -71 -46 -69 -46 -105 1 -182 32 -53 34 -62 23 -87 -17 -42 -4
-77 52 -141 54 -62 62 -99 32 -144 -14 -21 -14 -31 -5 -58 9 -24 9 -39 0 -63
-10 -26 -9 -35 5 -57 16 -23 17 -98 17 -915 l0 -890 -22 -20 c-12 -12 -30 -23
-40 -27 -19 -6 -25 -24 -8 -24 5 0 14 -9 20 -19 13 -26 -3 -67 -29 -76 -17 -5
-21 -15 -21 -48 0 -23 4 -47 8 -54 5 -8 51 -11 152 -10 l145 2 3 44 c3 37 -1
48 -22 68 -30 28 -33 49 -10 82 15 21 15 25 2 32 -8 4 -25 16 -37 26 l-22 18
0 893 c1 767 3 896 15 921 12 23 13 35 4 59 -9 24 -9 36 1 56 12 22 11 29 -8
61 -28 48 -27 76 5 106 66 60 99 143 75 188 -7 13 -1 30 26 69 48 69 49 120 5
189 -28 44 -30 53 -21 86 13 47 -4 87 -65 156 -52 58 -57 87 -25 131 20 26 20
32 9 59 -10 24 -10 37 0 60 9 24 9 34 -4 59 -14 27 -16 116 -16 772 0 666 2
743 16 765 14 21 14 30 4 55 -10 24 -10 36 0 61 11 27 11 33 -9 59 -32 44 -27
74 23 128 66 72 81 115 56 162 -8 16 -3 30 27 72 49 68 50 112 4 185 -30 47
-32 54 -22 86 16 46 -4 94 -64 158 -51 54 -56 80 -25 132 17 28 18 38 8 64 -9
24 -9 38 0 58 10 21 9 32 -3 55 -13 25 -15 137 -15 830 0 440 -3 800 -7 800
-5 -1 -32 -20 -60 -43z m-43 -1954 c-1 -14 -30 -47 -36 -41 -6 7 17 48 28 48
5 0 8 -3 8 -7z m120 -12 c16 -30 12 -36 -10 -16 -21 19 -26 35 -10 35 5 0 14
-9 20 -19z m-35 -97 l38 -36 -39 -39 -40 -39 -38 39 -38 38 32 37 c18 20 35
36 40 36 4 0 24 -16 45 -36z m-126 -205 c-39 -50 -54 -40 -53 35 2 79 11 86
51 42 l34 -37 -32 -40z m227 75 c6 -35 0 -101 -11 -113 -3 -3 -21 12 -40 34
l-33 40 30 37 c16 21 34 38 38 38 5 0 12 -16 16 -36z m-103 -206 l-37 -38 -33
32 c-18 18 -33 36 -33 42 0 6 14 25 32 43 l32 33 38 -37 38 -37 -37 -38z m-83
-107 c-1 -13 -3 -13 -15 3 -19 26 -19 42 0 26 8 -7 15 -20 15 -29z m120 19
c-6 -11 -15 -20 -21 -20 -6 0 -6 7 1 20 6 11 15 20 21 20 6 0 6 -7 -1 -20z
m-120 -2283 c0 -8 -9 -22 -20 -32 -23 -21 -25 -16 -8 20 12 27 28 34 28 12z
m130 -30 c0 -5 -7 -4 -15 3 -8 7 -15 20 -15 29 1 13 3 13 15 -3 8 -11 15 -24
15 -29z m-43 -69 c18 -18 33 -37 33 -43 0 -6 -16 -26 -35 -45 l-35 -34 -35 34
c-19 19 -35 38 -35 44 0 10 60 76 69 76 3 0 20 -14 38 -32z m-127 -130 c16
-18 30 -37 30 -41 0 -11 -53 -77 -62 -77 -13 0 -29 68 -23 96 15 66 15 66 55
22z m224 10 c8 -30 6 -98 -3 -121 -6 -16 -11 -13 -39 23 l-33 40 28 40 c32 46
38 48 47 18z m-64 -188 c0 -16 -52 -70 -68 -70 -4 0 -23 16 -42 35 l-34 35 39
40 39 40 33 -32 c18 -18 33 -39 33 -48z m-121 -140 c0 -10 -6 -8 -19 9 -11 12
-17 27 -14 33 7 11 33 -21 33 -42z m112 3 c-8 -15 -10 -15 -11 -2 0 17 10 32
18 25 2 -3 -1 -13 -7 -23z"/>
</g>
</svg>
