<?xml version="1.0" standalone="no"?>
<!DOCTYPE svg PUBLIC "-//W3C//DTD SVG 20010904//EN"
 "http://www.w3.org/TR/2001/REC-SVG-20010904/DTD/svg10.dtd">
<svg version="1.0" xmlns="http://www.w3.org/2000/svg"
 width="2551.000000pt" height="2701.000000pt" viewBox="0 0 2551.000000 2701.000000"
 preserveAspectRatio="xMidYMid meet">

<g transform="translate(0.000000,2701.000000) scale(0.100000,-0.100000)"
fill="#65340A" stroke="none">
<path d="M23430 26903 c0 -161 -51 -515 -96 -667 -31 -107 -5 -185 66 -201 41
-9 39 -36 -7 -73 l-37 -29 22 -28 c22 -28 30 -65 13 -65 -17 0 -101 -93 -101
-112 0 -10 8 -22 18 -25 9 -4 19 -9 22 -12 3 -4 17 -12 32 -18 39 -17 46 -57
18 -95 -24 -32 -19 -44 20 -50 32 -4 41 -43 12 -52 -11 -4 -36 -22 -56 -42
-45 -43 -46 -70 -11 -216 31 -131 62 -313 75 -448 10 -97 14 -727 6 -795 -2
-16 -7 -61 -10 -100 -9 -89 -51 -327 -77 -427 -10 -42 -19 -93 -19 -113 0 -47
31 -90 75 -105 48 -16 48 -50 0 -76 -19 -10 -35 -20 -35 -22 0 -2 9 -15 20
-29 27 -34 26 -69 -2 -84 -34 -18 -88 -76 -88 -94 0 -9 9 -19 20 -22 11 -3 20
-12 20 -19 0 -8 8 -14 18 -14 22 0 52 -30 52 -51 0 -8 -9 -29 -20 -47 -11 -18
-20 -34 -20 -36 0 -2 16 -7 35 -10 52 -10 48 -43 -10 -78 -73 -44 -79 -83 -40
-239 30 -116 61 -294 70 -394 3 -38 8 -83 11 -98 8 -40 7 -2361 0 -2385 -4
-11 -23 -28 -42 -37 -33 -15 -34 -18 -20 -34 26 -29 20 -68 -14 -93 -16 -12
-30 -30 -30 -40 0 -17 13 -18 180 -18 l180 0 0 26 c0 16 -11 35 -30 51 -33 27
-37 49 -15 79 20 27 19 30 -17 45 -18 7 -36 18 -40 23 -4 6 -8 531 -8 1166 0
952 3 1180 15 1295 17 160 44 318 79 462 13 55 22 111 19 126 -7 37 -46 76
-83 83 -44 9 -41 45 5 74 19 12 35 24 35 26 0 3 -9 18 -21 33 -25 35 -19 64
19 89 30 19 82 71 82 82 0 11 -46 47 -69 55 -12 3 -29 17 -37 31 -15 22 -15
26 6 61 21 35 21 38 4 50 -10 7 -26 13 -36 13 -12 0 -18 7 -18 23 1 16 12 27
43 42 29 14 48 32 61 58 18 39 18 39 -8 150 -73 298 -96 521 -96 917 0 374 20
566 91 874 24 106 27 135 19 161 -13 39 -38 64 -76 74 -44 11 -43 44 0 71 32
19 49 50 28 50 -14 0 -33 50 -25 63 4 7 31 34 60 61 29 26 53 53 53 60 0 15
-46 50 -78 60 -31 10 -44 39 -33 69 6 14 15 28 20 32 23 13 10 34 -24 41 -42
8 -49 39 -12 53 33 13 83 66 91 96 4 15 -6 78 -23 153 -51 220 -91 501 -91
643 l0 59 -70 0 -70 0 0 -87z"/>
</g>
</svg>
