<?xml version="1.0" standalone="no"?>
<!DOCTYPE svg PUBLIC "-//W3C//DTD SVG 20010904//EN"
 "http://www.w3.org/TR/2001/REC-SVG-20010904/DTD/svg10.dtd">
<svg version="1.0" xmlns="http://www.w3.org/2000/svg"
 width="2551.000000pt" height="2701.000000pt" viewBox="0 0 2551.000000 2701.000000"
 preserveAspectRatio="xMidYMid meet">

<g transform="translate(0.000000,2701.000000) scale(0.100000,-0.100000)"
fill="#65340A" stroke="none">
<path d="M8268 15474 l-57 -45 -1 -571 c0 -680 -6 -762 -84 -1107 -14 -63 -26
-128 -26 -147 0 -41 40 -90 80 -99 24 -5 30 -12 30 -33 0 -20 -7 -30 -30 -40
-33 -15 -38 -33 -15 -52 24 -20 19 -77 -7 -91 -24 -12 -78 -68 -78 -79 0 -8
70 -70 79 -70 4 0 13 -11 19 -24 9 -19 7 -32 -9 -62 -10 -21 -19 -39 -19 -40
0 -1 14 -7 30 -14 44 -18 41 -51 -8 -73 -64 -28 -86 -92 -62 -177 32 -110 80
-394 94 -551 4 -37 6 -219 6 -405 1 -412 -16 -577 -91 -889 -28 -119 -26 -150
15 -191 19 -19 43 -34 55 -34 33 0 27 -41 -9 -62 -33 -19 -38 -39 -15 -58 23
-19 19 -67 -7 -81 -26 -14 -42 -32 -64 -73 -15 -27 -15 -30 10 -52 14 -13 29
-24 34 -24 17 0 42 -37 42 -61 0 -13 -7 -33 -15 -43 -21 -28 -19 -34 20 -50
47 -20 44 -41 -9 -65 -49 -21 -76 -61 -76 -111 0 -16 11 -76 25 -133 31 -132
62 -305 76 -437 14 -130 22 -1456 9 -1480 -5 -10 -22 -23 -39 -29 -27 -12 -50
-51 -30 -51 5 0 15 -12 21 -26 11 -23 9 -28 -16 -48 -23 -18 -30 -32 -34 -74
l-5 -52 44 -1 c165 -2 264 3 271 14 4 7 8 35 8 63 0 43 -3 53 -20 57 -36 9
-38 38 -4 84 15 21 15 23 -22 38 -21 9 -42 21 -46 28 -12 18 -10 1265 2 1413
13 155 49 379 85 527 17 69 25 121 21 141 -7 39 -42 74 -82 85 -41 11 -44 44
-5 60 37 16 44 41 20 70 -27 34 -24 58 11 76 31 16 70 68 70 94 0 15 -45 61
-60 61 -5 0 -17 12 -26 26 -16 24 -16 27 5 64 21 38 21 39 2 49 -11 6 -27 11
-35 11 -34 0 -16 38 28 60 44 21 76 66 76 107 0 11 -14 78 -30 150 -72 314
-95 569 -87 968 6 313 26 495 78 724 41 180 43 196 29 231 -13 31 -65 70 -94
70 -24 0 -21 47 4 55 11 3 27 13 35 21 13 13 12 18 -6 44 -27 36 -19 77 16 90
24 9 65 63 65 86 0 6 -20 25 -44 42 -56 40 -64 63 -37 108 l21 35 -35 15 c-46
19 -47 49 -2 68 44 18 87 70 87 106 0 16 -11 75 -25 132 -25 104 -54 262 -76
418 -8 55 -14 312 -18 722 l-6 638 -57 -46z"/>
</g>
</svg>
