<?xml version="1.0" standalone="no"?>
<!DOCTYPE svg PUBLIC "-//W3C//DTD SVG 20010904//EN"
 "http://www.w3.org/TR/2001/REC-SVG-20010904/DTD/svg10.dtd">
<svg version="1.0" xmlns="http://www.w3.org/2000/svg"
 width="2551.000000pt" height="2701.000000pt" viewBox="0 0 2551.000000 2701.000000"
 preserveAspectRatio="xMidYMid meet">

<g transform="translate(0.000000,2701.000000) scale(0.100000,-0.100000)"
fill="#65340A" stroke="none">
<path d="M9448 16446 l-58 -47 0 -537 c0 -662 -11 -804 -91 -1152 -30 -129
-31 -137 -15 -173 12 -29 26 -43 61 -58 36 -16 45 -25 45 -44 0 -14 -6 -25
-13 -25 -7 0 -22 -6 -33 -14 -18 -14 -18 -16 -1 -44 26 -46 21 -62 -33 -113
-27 -26 -50 -51 -50 -56 0 -13 46 -63 58 -63 15 0 42 -35 42 -54 0 -10 -8 -31
-17 -48 -17 -28 -17 -30 1 -44 11 -8 26 -14 34 -14 9 0 12 -9 10 -27 -2 -20
-10 -29 -32 -34 -38 -11 -63 -35 -76 -75 -10 -29 -7 -52 14 -142 81 -344 99
-539 93 -977 -6 -399 -26 -569 -99 -860 -16 -64 -18 -87 -9 -116 13 -42 38
-67 77 -78 42 -11 44 -44 5 -61 -35 -14 -38 -30 -15 -65 22 -34 14 -66 -21
-85 -16 -9 -39 -33 -50 -53 l-20 -37 26 -24 c14 -13 35 -28 47 -35 33 -18 38
-54 12 -96 l-22 -35 27 -10 c14 -5 31 -10 36 -10 5 0 9 -11 9 -24 0 -19 -7
-26 -30 -31 -35 -8 -76 -53 -84 -93 -4 -16 4 -71 19 -132 32 -134 72 -361 82
-470 4 -47 8 -616 8 -1265 l0 -1180 -32 -15 c-39 -18 -50 -44 -29 -66 22 -21
20 -55 -3 -61 -20 -5 -31 -41 -31 -99 l0 -34 155 0 155 0 0 65 c0 52 -3 65
-16 65 -9 0 -12 -5 -8 -12 4 -7 3 -8 -4 -4 -6 4 -9 13 -6 20 3 8 1 17 -5 21
-15 9 -14 21 5 40 15 15 14 19 -20 49 l-36 34 0 258 c-2 1310 2 2122 10 2199
16 144 49 332 75 438 35 137 33 171 -9 213 -19 19 -43 34 -55 34 -28 0 -30 46
-2 55 35 11 44 31 26 59 -21 31 -16 76 9 90 37 21 58 48 63 82 3 19 1 34 -4
34 -9 0 -24 11 -70 50 -18 15 -16 47 5 82 16 28 16 30 -2 44 -11 8 -26 14 -33
14 -7 0 -13 11 -13 25 0 18 5 25 19 25 31 0 78 46 88 88 8 31 4 63 -23 178
-66 282 -76 380 -81 793 -6 459 10 640 83 949 13 57 24 117 24 133 0 47 -26
86 -70 105 -44 20 -56 58 -21 69 35 11 46 33 27 54 -23 25 -18 80 8 95 30 17
65 59 66 78 0 9 -20 33 -45 54 -50 40 -58 72 -28 113 15 23 15 25 -2 37 -10 8
-25 14 -32 14 -8 0 -13 12 -13 30 0 24 4 30 21 30 12 0 37 16 56 35 33 33 35
38 31 87 -3 29 -17 107 -32 173 -68 296 -69 316 -75 1054 l-6 674 -57 -47z"/>
</g>
</svg>
