<?xml version="1.0" standalone="no"?>
<!DOCTYPE svg PUBLIC "-//W3C//DTD SVG 20010904//EN"
 "http://www.w3.org/TR/2001/REC-SVG-20010904/DTD/svg10.dtd">
<svg version="1.0" xmlns="http://www.w3.org/2000/svg"
 width="2551.000000pt" height="2701.000000pt" viewBox="0 0 2551.000000 2701.000000"
 preserveAspectRatio="xMidYMid meet">

<g transform="translate(0.000000,2701.000000) scale(0.100000,-0.100000)"
fill="#65340A" stroke="none">
<path d="M10613 17404 l-52 -45 0 -572 c0 -669 -10 -797 -90 -1127 -12 -47
-21 -99 -21 -115 0 -47 45 -104 83 -105 19 0 38 -37 30 -57 -3 -7 -13 -13 -23
-13 -10 0 -23 -7 -30 -15 -10 -13 -10 -19 2 -33 36 -41 33 -60 -21 -109 -28
-25 -51 -53 -51 -61 0 -14 56 -72 70 -72 13 0 29 -50 23 -67 -3 -10 -13 -26
-22 -36 -14 -17 -14 -20 4 -33 10 -8 25 -14 32 -14 8 0 13 -12 13 -30 0 -24
-4 -30 -21 -30 -12 0 -36 -15 -55 -34 -42 -42 -43 -66 -9 -208 13 -57 37 -175
52 -263 27 -158 28 -165 28 -615 0 -502 -7 -581 -76 -869 -32 -136 -35 -167
-17 -206 12 -27 54 -55 83 -55 10 0 15 -9 15 -29 0 -22 -6 -30 -24 -35 -30 -7
-41 -34 -22 -55 28 -31 24 -78 -8 -91 -28 -10 -66 -56 -66 -80 0 -9 20 -34 45
-55 56 -48 60 -60 35 -100 -11 -18 -20 -35 -20 -39 0 -3 16 -12 35 -20 50 -21
47 -49 -9 -70 -32 -12 -49 -26 -60 -50 -21 -44 -20 -71 4 -164 34 -136 69
-347 84 -509 11 -117 15 -321 16 -791 l0 -633 -26 -24 c-15 -14 -33 -25 -40
-25 -19 0 -18 -34 1 -50 22 -19 18 -48 -10 -66 -22 -14 -25 -24 -25 -70 l0
-54 150 0 150 0 1 28 c2 60 -4 84 -27 107 -20 20 -23 29 -14 44 5 11 15 23 20
26 18 11 11 24 -22 41 -18 9 -36 22 -40 28 -4 6 -8 314 -8 684 0 800 8 906 96
1273 25 108 25 109 7 146 -12 27 -31 44 -60 58 -32 14 -43 25 -43 42 0 13 6
23 13 23 7 0 22 6 33 14 18 14 18 16 2 44 -27 46 -22 66 27 106 65 54 59 101
-20 141 -26 14 -31 50 -11 80 24 37 20 55 -15 62 -25 5 -30 10 -27 32 2 17 10
27 23 30 37 7 74 41 84 79 9 30 5 63 -24 192 -74 335 -89 512 -82 951 3 178
10 358 16 399 27 182 44 273 72 390 17 71 27 136 24 152 -8 35 -52 78 -87 85
-22 4 -28 11 -28 32 0 20 7 29 30 38 33 12 39 33 15 53 -29 24 -18 65 30 106
27 22 45 46 45 58 0 22 -33 58 -62 69 -27 10 -34 56 -15 90 23 39 22 43 -13
56 -47 16 -41 51 13 76 29 14 48 31 61 58 18 38 18 38 -12 170 -81 346 -92
487 -92 1189 0 323 -3 588 -7 588 -5 0 -31 -21 -60 -46z"/>
</g>
</svg>
