<?xml version="1.0" standalone="no"?>
<!DOCTYPE svg PUBLIC "-//W3C//DTD SVG 20010904//EN"
 "http://www.w3.org/TR/2001/REC-SVG-20010904/DTD/svg10.dtd">
<svg version="1.0" xmlns="http://www.w3.org/2000/svg"
 width="2644.000000pt" height="2800.000000pt" viewBox="0 0 2644.000000 2800.000000"
 preserveAspectRatio="xMidYMid meet">

<g transform="translate(0.000000,2800.000000) scale(0.100000,-0.100000)"
fill="#65340A" stroke="none">
<path d="M1580 13363 c0 -700 -4 -816 -43 -1088 -12 -88 -22 -189 -22 -224 0
-59 2 -65 33 -90 21 -18 32 -36 32 -53 0 -21 -6 -27 -35 -32 -45 -9 -52 -22
-26 -50 39 -42 15 -106 -41 -106 -10 0 -18 -6 -18 -14 0 -8 -11 -17 -24 -20
-36 -9 -40 -33 -8 -53 15 -10 29 -20 32 -23 3 -3 22 -13 43 -22 29 -14 37 -23
37 -45 0 -15 -9 -37 -21 -49 -26 -28 -19 -41 26 -50 30 -5 35 -10 35 -34 0
-18 -8 -33 -25 -44 -40 -26 -51 -83 -36 -184 54 -369 61 -490 61 -940 0 -410
-11 -593 -51 -856 -10 -71 -19 -146 -19 -166 0 -40 31 -90 56 -90 11 0 14 -9
12 -32 -2 -26 -9 -33 -37 -43 -43 -14 -48 -26 -21 -50 11 -10 20 -28 20 -41 0
-27 -36 -64 -62 -64 -10 0 -18 -7 -18 -15 0 -8 -6 -15 -14 -15 -21 0 -46 -28
-40 -45 4 -8 12 -15 19 -15 8 0 20 -6 27 -12 7 -7 30 -21 51 -30 29 -14 37
-23 37 -45 0 -15 -9 -37 -21 -49 -26 -28 -19 -41 25 -50 49 -9 52 -36 10 -80
-19 -21 -36 -52 -40 -72 -4 -22 3 -112 19 -227 15 -104 31 -244 37 -310 5 -66
12 -623 15 -1241 5 -1102 5 -1120 -14 -1141 -11 -12 -36 -26 -56 -33 -40 -13
-43 -20 -14 -38 32 -20 22 -62 -24 -91 -34 -22 -38 -29 -35 -60 l4 -36 119
-12 c117 -12 122 -11 222 15 l103 27 0 40 c0 35 -4 42 -33 55 -41 19 -50 70
-17 93 21 14 20 15 -30 32 -47 16 -71 15 -114 -1 -9 -3 -16 -1 -16 4 0 6 16
14 34 18 l35 6 4 1162 c4 1240 4 1246 57 1603 11 73 17 146 14 162 -7 34 -38
71 -59 71 -10 0 -15 10 -15 28 0 24 6 29 45 41 25 7 45 15 45 18 0 3 -11 18
-25 35 -14 16 -25 36 -25 43 0 17 39 55 55 55 7 0 21 8 33 18 11 9 28 22 38
28 22 13 12 44 -16 51 -11 3 -20 9 -20 13 0 5 -16 14 -35 20 -33 11 -55 35
-55 59 0 5 12 23 26 40 l26 31 -24 9 c-13 5 -32 10 -43 12 -33 7 -31 47 3 78
52 46 55 74 28 265 -42 288 -48 377 -51 786 -4 433 5 598 50 916 25 175 26
185 9 219 -10 21 -26 38 -40 41 -18 5 -24 13 -24 34 0 24 6 30 38 41 54 17 55
18 27 51 -14 16 -25 35 -25 42 0 23 31 55 60 61 17 4 30 11 30 16 0 5 12 14
26 19 30 12 29 37 -1 54 -11 6 -24 17 -28 24 -4 6 -16 12 -26 12 -21 0 -61 36
-61 55 0 7 11 27 25 43 14 17 25 32 25 35 0 2 -20 10 -45 16 -40 10 -45 15
-45 39 0 19 7 30 22 37 30 13 52 60 52 110 0 22 -12 126 -27 230 -40 289 -47
454 -47 1127 l0 618 -85 0 -85 0 0 -677z"/>
</g>
</svg>
