<?xml version="1.0" standalone="no"?>
<!DOCTYPE svg PUBLIC "-//W3C//DTD SVG 20010904//EN"
 "http://www.w3.org/TR/2001/REC-SVG-20010904/DTD/svg10.dtd">
<svg version="1.0" xmlns="http://www.w3.org/2000/svg"
 width="2644.000000pt" height="2800.000000pt" viewBox="0 0 2644.000000 2800.000000"
 preserveAspectRatio="xMidYMid meet">

<g transform="translate(0.000000,2800.000000) scale(0.100000,-0.100000)"
fill="#65340A" stroke="none">
<path d="M8397 16543 c-4 -661 -8 -845 -21 -958 -27 -242 -30 -291 -17 -324 7
-16 19 -32 27 -35 28 -11 16 -44 -21 -56 -19 -6 -35 -14 -35 -16 0 -3 9 -18
21 -33 17 -23 19 -32 10 -50 -7 -11 -23 -24 -36 -27 -14 -3 -25 -10 -25 -15 0
-5 -11 -14 -25 -19 -14 -5 -25 -14 -25 -20 0 -6 24 -26 54 -45 65 -41 74 -60
46 -97 -11 -15 -20 -29 -20 -32 0 -3 16 -8 35 -12 31 -5 35 -10 35 -35 0 -16
-6 -32 -14 -35 -8 -3 -20 -19 -26 -35 -14 -33 -11 -91 16 -329 26 -221 26
-986 1 -1200 -28 -235 -31 -296 -18 -329 7 -16 19 -32 27 -35 27 -10 16 -44
-16 -51 -41 -9 -45 -20 -19 -54 17 -23 19 -32 10 -50 -7 -11 -23 -24 -36 -27
-14 -3 -25 -9 -25 -13 0 -4 -11 -13 -25 -19 -14 -6 -25 -16 -25 -22 0 -6 25
-26 56 -46 30 -19 58 -42 61 -50 3 -9 -4 -28 -16 -44 -11 -16 -21 -31 -21 -34
0 -3 16 -8 35 -12 30 -5 35 -10 35 -35 0 -16 -4 -29 -10 -29 -5 0 -17 -14 -26
-32 -19 -36 -16 -100 12 -333 13 -106 17 -278 21 -934 3 -441 2 -814 -2 -828
-4 -16 -19 -30 -45 -42 l-39 -17 20 -20 c16 -17 18 -25 10 -46 -5 -15 -19 -29
-30 -33 -17 -5 -21 -15 -21 -47 l0 -41 163 5 c89 3 170 9 180 13 11 5 17 18
17 40 0 27 -4 34 -22 37 -31 4 -47 51 -29 81 8 11 10 22 5 24 -5 2 -24 12 -41
23 l-33 20 0 698 c0 707 6 882 40 1184 20 180 16 229 -20 248 -11 6 -20 21
-20 34 0 18 8 25 41 35 l41 12 -21 23 c-12 12 -21 31 -21 43 0 21 29 53 49 53
6 0 14 6 17 14 3 8 14 16 25 19 24 6 25 35 2 44 -10 4 -20 9 -23 12 -3 3 -18
13 -35 21 -39 20 -45 60 -14 89 l22 20 -29 11 c-16 6 -35 13 -41 15 -18 6 -16
30 4 46 41 35 44 67 23 251 -30 258 -37 419 -35 773 3 316 11 471 40 695 16
126 9 182 -24 200 -23 12 -25 60 -2 67 9 2 26 9 39 14 l22 9 -20 20 c-32 32
-26 67 15 87 19 9 35 20 35 24 0 4 9 9 20 12 11 3 20 13 20 22 0 9 -9 19 -20
22 -11 3 -20 9 -20 14 0 5 -16 15 -35 23 -28 12 -35 21 -35 42 0 15 10 38 21
50 l22 23 -29 6 c-16 4 -35 8 -41 11 -18 5 -16 41 2 48 9 3 23 22 31 42 13 32
13 49 0 157 -35 272 -38 357 -43 1137 l-4 795 -64 3 -63 3 -5 -818z"/>
</g>
</svg>
