<?xml version="1.0" standalone="no"?>
<!DOCTYPE svg PUBLIC "-//W3C//DTD SVG 20010904//EN"
 "http://www.w3.org/TR/2001/REC-SVG-20010904/DTD/svg10.dtd">
<svg version="1.0" xmlns="http://www.w3.org/2000/svg"
 width="2644.000000pt" height="2800.000000pt" viewBox="0 0 2644.000000 2800.000000"
 preserveAspectRatio="xMidYMid meet">

<g transform="translate(0.000000,2800.000000) scale(0.100000,-0.100000)"
fill="#65340A" stroke="none">
<path d="M8918 16658 c3 -663 -5 -929 -34 -1192 -19 -164 -15 -224 15 -245 29
-19 28 -51 -2 -51 -13 0 -32 -6 -42 -14 -18 -13 -18 -14 3 -41 20 -25 21 -31
9 -49 -8 -11 -22 -25 -33 -30 -10 -6 -21 -14 -24 -17 -3 -3 -13 -8 -22 -12
-18 -7 -25 -47 -9 -47 5 0 16 -6 23 -13 7 -7 25 -18 41 -24 32 -15 37 -55 10
-85 -19 -22 -15 -28 29 -37 44 -9 50 -43 14 -76 -31 -29 -34 -78 -12 -255 40
-317 45 -915 11 -1255 -8 -82 -18 -191 -22 -242 -6 -89 -5 -92 21 -118 34 -34
30 -57 -12 -66 -45 -9 -47 -13 -22 -47 18 -24 20 -33 11 -51 -7 -11 -22 -23
-36 -27 -13 -3 -26 -12 -29 -20 -3 -8 -12 -14 -20 -14 -7 0 -16 -6 -19 -14 -6
-14 10 -36 25 -36 5 0 14 -4 21 -10 7 -5 26 -20 42 -34 l30 -24 -23 -31 c-27
-37 -23 -48 23 -57 43 -8 46 -33 10 -76 -30 -36 -32 -72 -9 -264 20 -179 18
-205 -23 -224 l-31 -15 19 -23 c22 -28 12 -56 -25 -73 -18 -8 -21 -17 -18 -45
l4 -34 137 0 c75 0 153 3 174 6 34 6 37 10 37 38 0 24 -7 35 -30 48 -33 19
-39 48 -14 73 19 18 20 17 -24 35 l-33 13 6 66 c4 36 13 126 21 200 16 144 13
185 -17 204 -12 8 -19 23 -19 44 0 27 4 32 30 38 17 4 30 9 30 11 0 3 -10 18
-22 35 -26 34 -19 55 25 77 15 7 27 17 27 21 0 5 9 11 20 14 11 3 20 13 20 22
0 9 -9 19 -20 22 -11 3 -20 9 -20 13 0 4 -13 13 -30 20 -40 17 -47 45 -20 81
l21 30 -30 10 c-36 13 -40 38 -11 64 31 28 32 67 9 260 -16 141 -22 261 -26
560 -6 388 3 600 33 845 17 137 14 178 -16 205 -26 23 -27 75 -2 75 9 0 24 5
32 10 12 7 11 13 -9 34 -21 22 -23 29 -13 51 6 13 23 27 37 31 14 3 25 10 25
14 0 5 9 12 20 15 11 3 20 15 20 25 0 10 -9 22 -20 25 -11 3 -20 10 -20 15 0
4 -11 11 -25 14 -33 8 -51 46 -36 75 7 11 16 21 21 21 21 0 9 18 -20 30 -35
14 -39 39 -10 65 30 27 33 70 16 211 -31 249 -36 415 -36 1142 l0 732 -67 0
-68 0 3 -652z"/>
</g>
</svg>
