<?xml version="1.0" standalone="no"?>
<!DOCTYPE svg PUBLIC "-//W3C//DTD SVG 20010904//EN"
 "http://www.w3.org/TR/2001/REC-SVG-20010904/DTD/svg10.dtd">
<svg version="1.0" xmlns="http://www.w3.org/2000/svg"
 width="2644.000000pt" height="2800.000000pt" viewBox="0 0 2644.000000 2800.000000"
 preserveAspectRatio="xMidYMid meet">

<g transform="translate(0.000000,2800.000000) scale(0.100000,-0.100000)"
fill="#65340A" stroke="none">
<path d="M9897 16448 c-4 -663 -7 -795 -22 -928 -26 -222 -26 -282 3 -312 28
-31 29 -58 1 -58 -11 0 -29 -5 -40 -10 -19 -11 -19 -11 2 -39 17 -23 19 -33
10 -49 -6 -11 -21 -24 -33 -28 -12 -3 -33 -17 -47 -31 l-26 -24 30 -22 c16
-12 38 -26 49 -32 37 -19 42 -41 19 -73 l-22 -29 25 -12 c14 -6 31 -11 39 -11
24 0 17 -39 -11 -73 -30 -36 -30 -30 2 -322 27 -241 26 -910 -1 -1160 -27
-244 -26 -292 3 -315 29 -24 30 -60 1 -60 -11 0 -29 -5 -41 -11 -20 -11 -20
-11 2 -34 28 -30 23 -55 -15 -75 -16 -8 -41 -25 -55 -38 l-25 -23 30 -22 c16
-12 38 -26 49 -32 37 -19 42 -41 18 -74 l-22 -30 40 -11 c32 -9 40 -15 40 -34
0 -13 -9 -31 -19 -40 -29 -27 -33 -76 -17 -219 29 -259 30 -234 -10 -255 -31
-16 -34 -20 -20 -31 9 -8 16 -21 16 -31 0 -19 -30 -50 -48 -50 -7 0 -12 -15
-12 -35 0 -34 1 -35 38 -36 20 -1 51 -3 67 -5 17 -2 76 -1 133 2 l102 6 0 34
c0 27 -5 37 -25 46 -33 15 -41 44 -19 69 9 10 15 20 13 22 -2 1 -17 9 -34 17
-34 18 -34 12 -9 250 17 158 13 204 -16 223 -30 18 -25 55 8 69 15 7 29 13 30
14 2 1 -6 15 -18 31 -24 34 -19 55 18 74 15 8 33 20 40 27 7 6 18 12 23 12 16
0 10 30 -8 37 -20 8 -34 18 -69 50 -21 19 -23 25 -12 48 6 14 15 25 20 25 20
0 5 19 -22 29 -35 12 -38 30 -10 56 29 26 34 75 21 184 -18 150 -22 196 -31
351 -8 146 -5 747 4 830 23 196 38 382 32 404 -4 15 -15 34 -26 44 -24 19 -26
61 -5 67 50 16 47 13 31 37 -27 38 -15 88 20 88 7 0 24 11 38 24 26 23 34 46
17 46 -5 0 -16 6 -23 13 -7 7 -25 18 -40 24 -21 10 -28 20 -28 42 0 16 7 34
15 41 22 19 18 28 -15 35 -32 7 -43 41 -16 51 35 14 39 58 22 232 -29 274 -33
425 -34 1122 l-1 665 -60 3 -59 3 -5 -773z"/>
</g>
</svg>
