<?xml version="1.0" standalone="no"?>
<!DOCTYPE svg PUBLIC "-//W3C//DTD SVG 20010904//EN"
 "http://www.w3.org/TR/2001/REC-SVG-20010904/DTD/svg10.dtd">
<svg version="1.0" xmlns="http://www.w3.org/2000/svg"
 width="2644.000000pt" height="2800.000000pt" viewBox="0 0 2644.000000 2800.000000"
 preserveAspectRatio="xMidYMid meet">

<g transform="translate(0.000000,2800.000000) scale(0.100000,-0.100000)"
fill="#65340A" stroke="none">
<path d="M2135 14027 c-3 -7 -6 -338 -8 -737 -4 -783 -3 -772 -64 -1100 -15
-80 -26 -161 -25 -179 3 -45 27 -81 63 -94 24 -9 29 -17 29 -43 0 -30 -3 -33
-40 -39 -51 -9 -55 -17 -25 -45 43 -40 32 -80 -28 -105 -20 -8 -37 -19 -37
-24 0 -5 -9 -11 -20 -14 -29 -8 -37 -37 -14 -53 10 -7 24 -17 30 -22 6 -5 21
-13 35 -17 62 -19 75 -62 32 -107 l-26 -27 27 -11 c15 -5 36 -10 47 -10 15 0
19 -7 19 -35 0 -27 -4 -35 -18 -35 -24 0 -60 -39 -71 -76 -5 -20 -1 -69 15
-154 61 -327 68 -420 69 -905 0 -489 -4 -548 -64 -874 -28 -152 -29 -180 -2
-228 5 -11 24 -26 41 -33 24 -10 30 -19 30 -41 0 -20 -5 -29 -15 -29 -9 0 -30
-7 -47 -16 l-30 -16 26 -27 c14 -15 26 -37 26 -48 0 -22 -43 -63 -66 -63 -7 0
-17 -6 -21 -12 -4 -7 -17 -18 -28 -24 -30 -17 -30 -42 -1 -55 14 -7 26 -16 26
-21 0 -4 8 -8 19 -8 26 0 71 -38 71 -60 0 -10 -12 -32 -26 -49 l-26 -31 27
-10 c14 -5 35 -10 46 -10 14 0 19 -7 19 -30 0 -23 -5 -31 -25 -36 -27 -7 -58
-45 -67 -81 -3 -12 3 -68 13 -125 29 -152 56 -347 68 -478 12 -131 15 -2338 3
-2356 -4 -6 -29 -23 -57 -37 -27 -14 -44 -26 -38 -27 7 0 20 -11 29 -25 15
-23 15 -27 0 -50 -10 -14 -28 -30 -42 -35 -20 -8 -24 -16 -24 -49 0 -49 -1
-48 160 -56 113 -5 133 -3 205 18 l80 24 3 41 c3 39 1 42 -32 56 -29 12 -36
20 -36 42 0 15 9 37 20 49 l21 22 -45 13 c-25 7 -50 18 -56 25 -8 9 -10 363
-7 1177 4 1264 2 1227 63 1553 39 212 39 215 12 255 -13 19 -36 41 -51 48 -22
11 -27 20 -25 40 2 20 12 28 46 40 23 7 42 17 42 21 0 4 -11 18 -25 31 -14 13
-25 31 -25 40 0 20 37 55 68 65 12 3 22 10 22 14 0 4 11 13 25 19 32 15 33 48
3 58 -13 4 -26 11 -30 17 -3 6 -21 15 -39 21 -22 7 -37 20 -43 38 -8 24 -6 32
19 58 33 35 27 44 -32 56 -28 5 -33 10 -33 35 0 23 5 29 20 29 29 0 68 42 75
81 4 21 -4 83 -19 159 -52 258 -68 432 -73 786 -7 443 14 720 77 1024 11 52
20 103 20 113 0 38 -33 89 -67 103 -26 12 -33 20 -33 43 0 25 5 30 33 35 58
11 64 20 34 56 -15 17 -27 36 -27 41 0 24 22 48 55 59 19 6 35 16 35 21 0 5
12 14 26 19 30 12 29 37 -1 54 -11 6 -24 17 -28 24 -4 6 -16 12 -26 12 -10 0
-28 11 -41 25 -23 24 -23 26 -7 60 9 19 21 35 27 35 5 0 10 5 10 10 0 6 -20
15 -45 22 -38 10 -45 16 -45 38 0 18 9 29 33 40 18 8 41 31 52 52 l19 36 -27
144 c-69 366 -77 500 -77 1253 l0 633 -81 0 c-53 1 -81 -3 -84 -11z"/>
</g>
</svg>
