<?xml version="1.0" standalone="no"?>
<!DOCTYPE svg PUBLIC "-//W3C//DTD SVG 20010904//EN"
 "http://www.w3.org/TR/2001/REC-SVG-20010904/DTD/svg10.dtd">
<svg version="1.0" xmlns="http://www.w3.org/2000/svg"
 width="2644.000000pt" height="2800.000000pt" viewBox="0 0 2644.000000 2800.000000"
 preserveAspectRatio="xMidYMid meet">

<g transform="translate(0.000000,2800.000000) scale(0.100000,-0.100000)"
fill="#65340A" stroke="none">
<path d="M3805 14322 l-80 -177 -6 -805 c-6 -816 -7 -842 -50 -1142 -23 -164
-18 -205 27 -235 16 -10 24 -25 24 -43 0 -24 -5 -29 -35 -34 -45 -9 -52 -22
-26 -50 12 -12 21 -32 21 -44 0 -25 -36 -62 -62 -62 -10 0 -18 -6 -18 -14 0
-8 -11 -17 -25 -20 -16 -4 -25 -13 -25 -26 0 -13 10 -24 25 -30 14 -5 25 -14
25 -20 0 -5 8 -10 18 -10 56 0 80 -64 41 -106 -26 -28 -19 -41 26 -50 29 -5
35 -11 35 -31 0 -14 -13 -37 -29 -54 -37 -36 -46 -87 -31 -170 42 -231 52
-381 57 -849 5 -498 -3 -650 -48 -966 -20 -139 -20 -152 -5 -188 9 -21 25 -40
36 -43 17 -4 20 -12 18 -36 -2 -25 -10 -33 -37 -42 -43 -14 -48 -26 -21 -50
11 -10 20 -28 20 -41 0 -27 -36 -64 -62 -64 -10 0 -18 -6 -18 -14 0 -8 -11
-17 -25 -20 -16 -4 -25 -13 -25 -26 0 -12 10 -25 25 -32 14 -6 25 -15 25 -20
0 -4 8 -8 18 -8 56 0 80 -64 41 -106 -26 -28 -19 -41 26 -50 28 -5 35 -11 35
-30 0 -13 -11 -34 -24 -47 -44 -45 -49 -91 -26 -250 26 -186 28 -200 40 -350
14 -175 14 -2365 0 -2382 -5 -6 -28 -20 -50 -30 l-40 -18 21 -23 c28 -30 19
-68 -21 -89 -25 -13 -30 -21 -30 -54 0 -47 1 -47 150 -56 82 -5 119 -3 170 10
36 9 75 19 88 22 18 4 22 12 22 47 -1 35 -5 44 -33 61 -39 24 -45 57 -18 84
22 22 22 23 -32 40 -24 8 -39 20 -43 35 -10 43 3 2387 14 2481 6 50 21 163 33
253 21 155 21 165 5 199 -9 19 -26 37 -36 40 -23 6 -29 63 -7 63 8 0 28 7 46
16 l32 16 -26 23 c-42 40 -27 91 33 109 12 4 22 11 22 15 0 4 12 13 26 19 31
15 30 55 -1 61 -11 2 -24 9 -28 17 -4 8 -16 14 -26 14 -24 0 -51 31 -51 59 0
12 11 33 25 46 29 26 26 30 -28 40 -32 6 -37 11 -37 34 0 16 10 37 25 51 45
42 49 79 26 240 -43 299 -46 361 -46 870 0 508 3 562 46 875 20 140 20 153 5
189 -9 21 -25 40 -36 43 -15 4 -20 14 -20 38 0 29 4 33 35 39 45 9 52 22 26
50 -12 12 -21 32 -21 43 0 23 43 63 66 63 8 0 14 5 14 10 0 6 11 15 25 20 15
6 25 17 25 30 0 13 -10 24 -25 30 -14 5 -25 14 -25 20 0 5 -8 10 -18 10 -28 0
-62 29 -62 54 0 13 10 35 21 50 25 31 22 36 -23 45 -44 9 -52 52 -14 82 41 33
50 85 32 203 -8 55 -20 146 -26 201 -6 55 -13 114 -17 130 -3 17 -8 472 -12
1012 l-6 982 -80 -177z"/>
</g>
</svg>
