<?xml version="1.0" standalone="no"?>
<!DOCTYPE svg PUBLIC "-//W3C//DTD SVG 20010904//EN"
 "http://www.w3.org/TR/2001/REC-SVG-20010904/DTD/svg10.dtd">
<svg version="1.0" xmlns="http://www.w3.org/2000/svg"
 width="2644.000000pt" height="2800.000000pt" viewBox="0 0 2644.000000 2800.000000"
 preserveAspectRatio="xMidYMid meet">

<g transform="translate(0.000000,2800.000000) scale(0.100000,-0.100000)"
fill="#65340A" stroke="none">
<path d="M5169 15528 l-77 -106 -5 -464 c-5 -447 -14 -608 -46 -809 -21 -129
-10 -216 29 -226 15 -4 20 -14 20 -38 0 -30 -3 -33 -40 -39 -45 -7 -49 -15
-20 -41 27 -24 26 -70 -2 -89 -12 -9 -28 -16 -35 -16 -6 0 -26 -13 -43 -29
-28 -25 -30 -30 -16 -42 32 -29 43 -37 64 -43 53 -17 67 -64 30 -103 -25 -27
-21 -33 24 -42 28 -6 33 -11 36 -39 2 -22 -1 -32 -11 -32 -8 0 -22 -15 -32
-34 -20 -37 -19 -86 9 -313 27 -216 36 -401 36 -733 0 -347 -9 -511 -40 -763
-28 -223 -27 -251 10 -289 42 -42 40 -74 -5 -82 -44 -9 -51 -20 -25 -46 11
-11 20 -31 20 -43 0 -24 -28 -57 -48 -57 -6 0 -17 -6 -24 -12 -8 -7 -23 -18
-33 -24 -26 -14 -25 -34 0 -48 11 -6 23 -15 26 -19 3 -4 21 -16 40 -25 42 -21
51 -60 19 -92 -26 -26 -19 -37 25 -46 29 -5 35 -11 35 -31 0 -14 -12 -34 -27
-48 -27 -22 -28 -27 -27 -112 0 -48 11 -169 24 -268 24 -178 24 -189 27 -1310
2 -621 2 -1139 -1 -1151 -3 -12 -22 -28 -46 -39 -45 -20 -46 -22 -24 -46 23
-25 10 -65 -26 -84 -25 -13 -30 -21 -30 -54 l0 -38 125 -7 c101 -6 141 -4 205
10 66 14 81 21 85 38 7 31 0 59 -16 64 -46 14 -62 61 -33 94 16 17 15 19 -22
34 -21 9 -42 21 -46 28 -11 17 -9 2151 2 2296 5 69 19 207 31 307 23 195 20
231 -22 254 -11 5 -19 21 -19 35 0 24 4 27 68 49 10 4 7 13 -12 36 -14 17 -26
34 -26 38 0 18 43 61 61 61 10 0 19 6 19 13 0 7 10 17 22 22 13 6 24 18 26 27
3 16 -14 28 -85 61 -44 21 -50 50 -19 92 l26 34 -40 12 c-48 15 -54 44 -16 82
37 37 39 77 17 258 -38 308 -43 426 -38 894 4 380 8 476 26 620 35 281 35 277
18 318 -9 20 -23 37 -31 37 -12 0 -16 10 -16 35 0 24 5 35 14 35 8 0 27 5 41
10 l27 10 -26 31 c-14 17 -26 35 -26 40 0 16 48 59 65 59 8 0 15 5 15 10 0 6
12 15 26 20 30 12 29 37 -1 54 -11 6 -22 13 -25 16 -3 3 -18 12 -33 20 -16 8
-33 22 -38 31 -11 22 4 67 26 75 25 10 17 20 -25 34 -32 11 -40 18 -40 38 0
14 10 32 25 43 13 11 27 35 31 55 5 30 -23 317 -43 424 -3 19 -9 302 -12 629
l-6 595 -76 -106z"/>
</g>
</svg>
