<?xml version="1.0" standalone="no"?>
<!DOCTYPE svg PUBLIC "-//W3C//DTD SVG 20010904//EN"
 "http://www.w3.org/TR/2001/REC-SVG-20010904/DTD/svg10.dtd">
<svg version="1.0" xmlns="http://www.w3.org/2000/svg"
 width="2644.000000pt" height="2800.000000pt" viewBox="0 0 2644.000000 2800.000000"
 preserveAspectRatio="xMidYMid meet">

<g transform="translate(0.000000,2800.000000) scale(0.100000,-0.100000)"
fill="#65340A" stroke="none">
<path d="M7300 16667 c0 -779 -5 -946 -35 -1172 -22 -159 -20 -197 10 -233 36
-43 33 -68 -10 -76 -19 -4 -35 -9 -35 -12 0 -3 9 -18 21 -33 26 -35 19 -62
-19 -82 -15 -8 -29 -17 -32 -20 -3 -3 -15 -11 -27 -18 -13 -6 -23 -18 -23 -25
0 -7 10 -18 23 -25 103 -55 118 -80 77 -121 -25 -25 -20 -36 20 -45 39 -9 40
-45 4 -88 -25 -30 -26 -36 -21 -112 3 -44 14 -138 23 -210 15 -109 18 -213 18
-645 1 -483 -1 -528 -23 -725 -14 -115 -21 -223 -17 -238 3 -15 15 -35 26 -45
11 -9 20 -26 20 -38 0 -17 -8 -23 -35 -28 -19 -4 -35 -9 -35 -12 0 -3 10 -18
22 -34 18 -25 20 -34 10 -54 -6 -14 -23 -28 -37 -32 -14 -3 -25 -10 -25 -15 0
-5 -11 -14 -25 -19 -14 -5 -25 -16 -25 -25 0 -9 11 -20 25 -25 14 -5 25 -14
25 -20 0 -5 8 -10 18 -10 22 0 52 -30 52 -52 0 -8 -9 -27 -21 -42 l-20 -26 26
-10 c14 -5 31 -10 36 -10 18 0 9 -50 -16 -86 -29 -43 -30 -66 -10 -229 8 -66
19 -178 25 -250 11 -134 15 -1691 4 -1718 -3 -8 -22 -22 -44 -32 -37 -17 -38
-17 -19 -36 10 -10 19 -26 19 -34 0 -17 -35 -55 -50 -55 -6 0 -10 -18 -10 -40
l0 -40 73 0 c39 -1 88 -3 107 -6 19 -2 69 1 110 8 l75 13 3 36 c2 29 -1 37
-22 47 -13 6 -27 20 -31 31 -7 23 10 61 28 62 7 0 -8 10 -33 22 l-45 22 -5
335 c-9 586 4 1393 25 1560 10 80 19 180 19 223 1 70 -1 81 -21 97 -13 10 -23
29 -23 43 0 17 7 27 23 31 48 13 53 23 28 50 -29 31 -22 72 15 86 13 5 30 14
37 20 6 6 21 17 32 24 16 12 17 16 6 30 -7 9 -20 16 -27 16 -8 0 -14 4 -14 9
0 5 -9 13 -20 16 -51 16 -63 57 -29 94 18 19 19 25 8 32 -8 5 -24 9 -36 9 -30
0 -31 45 -2 69 30 24 34 86 15 232 -29 227 -36 361 -36 745 0 379 8 547 35
764 21 163 20 193 -10 228 -24 29 -34 82 -16 82 5 0 22 5 36 10 l26 10 -20 26
c-40 50 -28 70 77 125 12 7 22 18 22 25 0 7 -10 19 -22 25 -13 7 -25 15 -28
18 -3 3 -18 13 -35 21 -38 20 -43 45 -16 81 12 15 21 30 21 33 0 3 -16 8 -35
12 -43 8 -46 33 -10 76 30 35 31 65 10 228 -31 241 -35 388 -35 1173 l0 797
-75 0 -75 0 0 -793z"/>
</g>
</svg>
