<?xml version="1.0" standalone="no"?>
<!DOCTYPE svg PUBLIC "-//W3C//DTD SVG 20010904//EN"
 "http://www.w3.org/TR/2001/REC-SVG-20010904/DTD/svg10.dtd">
<svg version="1.0" xmlns="http://www.w3.org/2000/svg"
 width="2644.000000pt" height="2800.000000pt" viewBox="0 0 2644.000000 2800.000000"
 preserveAspectRatio="xMidYMid meet">

<g transform="translate(0.000000,2800.000000) scale(0.100000,-0.100000)"
fill="#65340A" stroke="none">
<path d="M15887 13130 c-3 -465 -8 -863 -11 -885 -12 -90 -31 -407 -31 -513 0
-107 1 -115 23 -133 37 -29 27 -68 -21 -84 -50 -17 -53 -21 -35 -42 48 -55 42
-104 -17 -129 -19 -8 -35 -18 -35 -23 0 -4 -12 -13 -26 -19 -31 -15 -30 -52 4
-67 12 -5 22 -15 22 -22 0 -7 9 -13 19 -13 25 0 59 -30 63 -56 3 -23 -20 -74
-34 -74 -4 0 -8 -6 -8 -14 0 -7 20 -19 45 -26 54 -15 59 -39 19 -97 -26 -37
-26 -40 -21 -168 3 -71 11 -183 17 -248 41 -437 34 -1319 -13 -1853 -14 -152
-7 -223 22 -243 12 -7 21 -24 21 -38 0 -19 -9 -28 -45 -44 -25 -11 -45 -22
-45 -24 0 -2 11 -20 25 -40 20 -30 22 -41 14 -62 -11 -31 -37 -52 -61 -53 -10
0 -18 -6 -18 -13 0 -8 -11 -19 -25 -25 -34 -16 -35 -59 -1 -68 14 -3 27 -12
30 -20 3 -8 14 -14 24 -14 26 0 55 -34 55 -65 0 -14 -10 -36 -22 -49 -30 -32
-26 -42 22 -52 36 -8 42 -13 45 -36 2 -16 -6 -39 -19 -58 -32 -42 -35 -116
-15 -362 30 -374 35 -636 36 -1814 l0 -1171 -23 -24 c-13 -13 -38 -32 -57 -42
l-33 -18 22 -20 c33 -31 27 -63 -19 -99 -36 -29 -40 -36 -38 -72 1 -21 4 -41
8 -43 3 -2 75 -9 160 -16 l155 -12 63 32 62 31 0 50 c0 35 -4 50 -13 50 -22 0
-57 39 -57 64 0 13 9 35 20 48 l19 25 -39 12 c-77 23 -70 -97 -69 1269 2 1254
5 1442 35 1805 19 240 16 303 -15 328 -11 9 -21 28 -21 42 0 19 9 28 45 43 40
16 62 44 35 44 -5 0 -17 14 -26 31 -20 39 -8 71 34 93 44 23 92 69 92 88 0 10
-10 20 -25 24 -14 3 -25 12 -25 20 0 8 -9 14 -20 14 -24 0 -70 42 -70 63 0 8
11 31 25 51 14 20 25 38 25 40 0 2 -20 9 -45 15 -38 10 -45 15 -45 37 0 13 10
38 23 55 19 27 22 43 22 132 0 56 -6 172 -13 257 -8 85 -17 232 -22 325 -13
252 -4 1093 15 1325 29 371 30 412 11 448 -9 17 -21 32 -27 32 -6 0 -9 14 -7
31 2 26 10 34 43 47 52 20 51 19 33 39 -48 55 -42 102 17 130 19 9 35 22 35
29 0 6 12 15 26 18 32 8 30 46 -3 61 -13 5 -23 15 -23 22 0 7 -9 13 -20 13
-24 0 -70 42 -70 63 0 8 11 31 25 51 14 20 25 38 25 40 0 2 -20 10 -45 17 -41
12 -45 16 -45 45 0 19 6 34 14 37 39 15 42 111 16 407 -22 254 -30 578 -30
1258 l0 713 -79 -2 -79 -3 -5 -846z"/>
</g>
</svg>
