<?xml version="1.0" standalone="no"?>
<!DOCTYPE svg PUBLIC "-//W3C//DTD SVG 20010904//EN"
 "http://www.w3.org/TR/2001/REC-SVG-20010904/DTD/svg10.dtd">
<svg version="1.0" xmlns="http://www.w3.org/2000/svg"
 width="2644.000000pt" height="2800.000000pt" viewBox="0 0 2644.000000 2800.000000"
 preserveAspectRatio="xMidYMid meet">

<g transform="translate(0.000000,2800.000000) scale(0.100000,-0.100000)"
fill="#65340A" stroke="none">
<path d="M20457 27142 l-57 -58 0 -614 c0 -545 -2 -634 -20 -785 -19 -168 -48
-336 -76 -448 -30 -118 -18 -167 51 -211 44 -27 62 -66 31 -66 -8 0 -26 -4
-41 -10 l-26 -10 20 -27 c36 -51 31 -90 -14 -109 -19 -8 -35 -18 -35 -23 0 -5
-9 -11 -20 -14 -38 -10 -35 -36 10 -78 23 -21 46 -39 51 -39 5 0 16 -11 24
-24 14 -20 14 -29 4 -48 -6 -13 -18 -27 -25 -31 -23 -13 -16 -24 26 -48 50
-28 55 -64 13 -80 -40 -15 -72 -48 -82 -85 -7 -25 -2 -64 20 -164 72 -324 89
-502 89 -940 0 -421 -21 -629 -94 -954 -19 -82 -22 -115 -15 -141 10 -36 47
-72 86 -81 17 -5 23 -13 23 -35 0 -19 -5 -29 -14 -29 -8 0 -27 -5 -42 -10 -25
-10 -25 -12 -11 -28 44 -48 36 -109 -15 -119 -15 -3 -28 -11 -28 -18 0 -7 -9
-15 -20 -18 -35 -9 -35 -36 -1 -68 18 -16 46 -36 62 -44 23 -12 29 -22 29 -49
0 -20 -8 -40 -20 -51 -27 -25 -26 -29 20 -51 31 -15 40 -25 40 -44 0 -21 -7
-29 -35 -39 -20 -7 -42 -23 -51 -36 -32 -49 -33 -79 -8 -187 36 -150 71 -373
84 -528 7 -87 10 -359 8 -760 l-3 -625 -48 -24 c-46 -23 -47 -24 -27 -38 31
-22 26 -68 -10 -95 -16 -12 -30 -30 -30 -39 0 -17 13 -18 178 -13 97 3 188 7
200 10 23 5 23 5 -10 27 -40 28 -47 61 -19 91 l21 23 -40 18 c-23 10 -45 26
-51 36 -13 24 -12 1182 1 1345 14 170 43 363 80 532 16 75 30 146 30 157 0 35
-36 80 -79 100 -35 15 -42 23 -39 44 2 19 11 27 38 34 46 12 46 12 21 43 -11
15 -21 37 -21 50 0 29 33 64 60 64 11 0 20 6 20 14 0 7 9 16 20 19 11 3 20 13
20 22 0 18 -52 75 -69 75 -20 0 -51 39 -51 64 0 13 9 35 20 49 l21 26 -41 23
c-55 32 -54 59 4 88 29 14 50 32 60 54 20 42 20 66 1 136 -22 80 -62 296 -82
440 -14 103 -17 199 -18 540 0 461 10 567 77 878 50 226 45 258 -48 308 -46
25 -43 54 6 67 46 12 46 12 21 43 -39 49 -16 114 40 114 9 0 19 7 23 15 3 8
12 15 21 15 9 0 15 9 15 21 0 22 -34 60 -87 98 -39 27 -42 56 -12 96 24 29 24
30 -33 61 -40 21 -38 60 2 69 33 7 77 53 86 91 7 28 8 22 -40 247 -19 93 -38
194 -41 225 -4 31 -11 86 -17 122 -7 40 -13 338 -15 770 -4 674 -6 730 -32
730 -4 0 -32 -26 -64 -58z"/>
</g>
</svg>
