<?xml version="1.0" standalone="no"?>
<!DOCTYPE svg PUBLIC "-//W3C//DTD SVG 20010904//EN"
 "http://www.w3.org/TR/2001/REC-SVG-20010904/DTD/svg10.dtd">
<svg version="1.0" xmlns="http://www.w3.org/2000/svg"
 width="2644.000000pt" height="2800.000000pt" viewBox="0 0 2644.000000 2800.000000"
 preserveAspectRatio="xMidYMid meet">

<g transform="translate(0.000000,2800.000000) scale(0.100000,-0.100000)"
fill="#65340A" stroke="none">
<path d="M21590 27490 c0 -388 -4 -546 -15 -656 -16 -149 -54 -371 -81 -479
-31 -120 -18 -170 58 -214 38 -22 53 -61 24 -61 -8 0 -26 -4 -40 -10 l-26 -9
25 -37 c14 -20 25 -42 25 -48 0 -21 -31 -56 -50 -56 -10 0 -23 -6 -27 -13 -4
-8 -16 -16 -26 -20 -33 -12 -30 -36 9 -75 22 -21 51 -47 67 -57 34 -22 34 -45
2 -84 l-26 -30 41 -27 c47 -31 55 -68 17 -78 -36 -9 -74 -49 -85 -90 -9 -29
-6 -56 13 -134 33 -137 63 -310 80 -465 21 -188 21 -816 -1 -1010 -16 -149
-52 -359 -83 -488 -28 -114 -13 -162 59 -194 55 -25 54 -54 -2 -78 l-41 -17
20 -23 c34 -37 38 -65 12 -93 -12 -13 -31 -24 -41 -24 -10 0 -18 -7 -18 -15 0
-8 -9 -15 -19 -15 -37 0 -37 -54 0 -65 10 -4 19 -12 19 -19 0 -7 15 -20 34
-29 19 -9 37 -25 41 -36 6 -21 -19 -81 -35 -81 -21 0 -8 -16 30 -38 50 -28 56
-67 13 -83 -80 -30 -99 -86 -72 -201 33 -137 67 -336 83 -485 14 -121 16 -318
16 -1308 0 -752 -4 -1173 -10 -1185 -5 -10 -26 -24 -45 -30 -38 -13 -43 -21
-20 -40 31 -26 9 -100 -31 -100 -8 0 -14 -10 -14 -24 l0 -25 188 6 c103 2 193
7 201 9 10 3 5 11 -17 24 -43 26 -51 64 -22 95 l23 25 -35 15 c-75 31 -68 -81
-67 1188 2 1206 4 1269 50 1552 11 72 32 177 45 233 38 163 31 197 -46 242
-54 32 -59 58 -13 74 45 16 48 22 24 52 -11 15 -21 37 -21 50 0 23 42 64 66
64 8 0 14 4 14 9 0 5 9 13 20 16 31 10 24 44 -16 81 -19 19 -39 34 -44 34 -16
0 -40 32 -40 54 0 12 9 32 20 44 27 29 26 34 -20 60 -50 28 -53 56 -7 76 86
36 101 94 64 252 -64 274 -87 474 -94 824 -8 418 11 657 79 985 17 83 33 174
36 203 4 52 3 54 -38 92 -24 22 -51 42 -62 46 -28 9 -18 36 19 48 45 16 47 21
22 55 -29 39 -18 79 26 100 17 8 32 17 35 21 3 3 13 9 23 13 9 3 17 15 17 26
0 21 -51 78 -95 107 -30 20 -32 43 -5 77 11 14 20 29 20 34 -1 4 -19 20 -40
35 -49 34 -50 53 -7 72 49 20 87 70 87 115 0 20 -16 107 -34 192 -70 310 -79
420 -84 1022 l-4 537 -74 0 -74 0 0 -510z"/>
</g>
</svg>
