<?xml version="1.0" standalone="no"?>
<!DOCTYPE svg PUBLIC "-//W3C//DTD SVG 20010904//EN"
 "http://www.w3.org/TR/2001/REC-SVG-20010904/DTD/svg10.dtd">
<svg version="1.0" xmlns="http://www.w3.org/2000/svg"
 width="2644.000000pt" height="2800.000000pt" viewBox="0 0 2644.000000 2800.000000"
 preserveAspectRatio="xMidYMid meet">

<g transform="translate(0.000000,2800.000000) scale(0.100000,-0.100000)"
fill="#65340A" stroke="none">
<path d="M25404 27992 l-51 -3 -6 -312 c-6 -344 -23 -508 -78 -767 -44 -204
-46 -248 -19 -283 12 -15 39 -37 61 -47 51 -26 53 -55 4 -64 -45 -9 -51 -20
-26 -52 34 -44 23 -96 -23 -108 -30 -7 -76 -48 -76 -67 0 -16 51 -67 93 -94
32 -21 35 -52 7 -88 -11 -14 -20 -27 -20 -30 0 -2 18 -16 41 -31 50 -34 50
-63 -1 -80 -44 -14 -80 -67 -80 -116 0 -20 13 -94 29 -166 35 -151 67 -360 81
-529 13 -157 13 -1400 0 -1424 -5 -10 -28 -26 -50 -35 l-41 -16 20 -27 c12
-14 21 -33 21 -43 0 -19 -40 -60 -58 -60 -7 0 -12 -5 -12 -11 0 -7 46 -8 148
-3 81 4 154 8 162 10 8 1 21 3 27 3 9 1 10 8 2 27 -10 29 10 74 34 74 6 1 -9
12 -35 26 -30 15 -50 33 -53 47 -4 12 -4 355 -3 762 4 819 4 816 75 1150 19
94 37 186 40 205 5 46 -23 92 -76 122 -29 16 -41 30 -41 46 0 12 6 22 14 22 8
0 27 5 42 10 l27 11 -20 22 c-31 33 -37 64 -19 92 9 14 23 25 31 25 7 0 20 6
27 13 7 7 21 16 31 20 45 17 22 55 -82 139 -27 23 -27 40 4 77 l26 30 -41 27
c-52 35 -54 65 -5 83 37 13 70 51 80 93 4 16 -7 89 -29 185 -65 293 -78 404
-82 748 -3 171 -7 324 -9 340 -6 39 -28 51 -91 47z"/>
</g>
</svg>
