<?xml version="1.0" standalone="no"?>
<!DOCTYPE svg PUBLIC "-//W3C//DTD SVG 20010904//EN"
 "http://www.w3.org/TR/2001/REC-SVG-20010904/DTD/svg10.dtd">
<svg version="1.0" xmlns="http://www.w3.org/2000/svg"
 width="2644.000000pt" height="2800.000000pt" viewBox="0 0 2644.000000 2800.000000"
 preserveAspectRatio="xMidYMid meet">

<g transform="translate(0.000000,2800.000000) scale(0.100000,-0.100000)"
fill="#65340A" stroke="none">
<path d="M14757 13203 c-4 -617 -8 -804 -20 -903 -21 -170 -43 -304 -72 -434
-14 -60 -25 -125 -25 -145 0 -51 33 -100 80 -118 33 -13 40 -21 40 -43 0 -23
-7 -30 -45 -44 -49 -19 -53 -27 -29 -47 26 -21 36 -57 22 -82 -15 -28 -38 -46
-60 -47 -10 0 -18 -6 -18 -14 0 -7 -9 -16 -19 -19 -10 -2 -24 -14 -30 -25 -10
-18 -7 -24 16 -39 16 -10 34 -23 41 -30 7 -7 20 -13 27 -13 7 0 23 -12 34 -27
25 -31 20 -55 -17 -95 -27 -30 -27 -30 38 -46 30 -7 35 -13 38 -39 3 -28 -1
-32 -32 -43 -49 -16 -86 -62 -86 -108 0 -19 13 -101 30 -181 66 -331 90 -583
90 -971 0 -374 -28 -676 -86 -945 -15 -66 -28 -147 -31 -180 -5 -56 -3 -64 23
-94 15 -19 43 -40 61 -47 25 -11 33 -21 33 -39 0 -19 -9 -28 -45 -44 -25 -11
-45 -23 -45 -27 0 -4 10 -18 21 -30 30 -32 28 -73 -5 -101 -15 -13 -34 -23
-42 -23 -8 0 -14 -7 -14 -15 0 -8 -6 -15 -13 -15 -8 0 -22 -9 -33 -21 -21 -23
-25 -16 51 -74 10 -8 25 -15 31 -15 7 0 22 -12 33 -26 22 -28 16 -61 -16 -97
-20 -21 -11 -32 37 -44 30 -8 35 -14 35 -38 0 -23 -6 -30 -34 -40 -51 -17 -81
-58 -81 -109 0 -24 13 -105 29 -182 36 -166 67 -389 81 -575 15 -205 13 -2489
-3 -2510 -7 -8 -31 -26 -54 -39 -41 -22 -55 -40 -33 -40 16 0 32 -41 26 -66
-4 -14 -22 -34 -41 -46 -31 -18 -35 -24 -35 -63 l0 -44 43 -5 c23 -4 95 -10
160 -16 l119 -9 69 34 69 35 0 46 c0 41 -3 46 -30 56 -53 18 -65 64 -27 102
l23 23 -47 17 c-35 13 -50 25 -57 44 -5 16 -8 556 -7 1262 1 1102 3 1250 19
1375 24 194 43 311 73 444 39 175 27 228 -59 272 -21 11 -38 26 -38 33 0 27
12 46 29 46 9 0 27 9 41 20 l25 19 -24 25 c-13 14 -23 37 -23 51 0 27 27 65
47 65 7 0 25 11 41 25 16 14 35 30 42 36 18 15 10 32 -21 47 -15 7 -27 17 -27
21 0 5 -11 12 -24 15 -57 14 -73 71 -35 120 25 31 23 33 -28 51 -49 17 -53 53
-8 74 89 41 101 82 69 233 -69 318 -94 548 -101 929 -8 430 16 720 88 1065 16
78 29 158 29 179 0 51 -27 92 -77 116 -33 16 -43 26 -43 45 0 19 10 28 50 45
l51 22 -26 26 c-44 47 -29 107 32 125 11 4 24 13 27 21 3 8 12 15 20 15 9 0
20 8 25 18 12 23 -4 52 -29 52 -11 0 -20 7 -20 15 0 8 -8 15 -17 15 -10 0 -29
9 -42 19 -30 23 -31 63 -1 103 12 16 20 31 18 32 -14 12 -50 26 -68 26 -18 0
-21 5 -18 32 2 26 9 33 37 43 82 27 98 91 61 247 -25 107 -55 287 -77 458 -15
117 -17 240 -17 900 l-1 765 -82 3 -81 3 -5 -778z"/>
<path d="M14579 11313 c-13 -16 -12 -17 4 -4 16 13 21 21 13 21 -2 0 -10 -8
-17 -17z"/>
</g>
</svg>
