<?xml version="1.0" standalone="no"?>
<!DOCTYPE svg PUBLIC "-//W3C//DTD SVG 20010904//EN"
 "http://www.w3.org/TR/2001/REC-SVG-20010904/DTD/svg10.dtd">
<svg version="1.0" xmlns="http://www.w3.org/2000/svg"
 width="2644.000000pt" height="2800.000000pt" viewBox="0 0 2644.000000 2800.000000"
 preserveAspectRatio="xMidYMid meet">

<g transform="translate(0.000000,2800.000000) scale(0.100000,-0.100000)"
fill="#65340A" stroke="none">
<path d="M14260 13893 c0 -487 -9 -1555 -13 -1578 -3 -16 -8 -82 -12 -145 -3
-63 -13 -180 -21 -260 -17 -164 -13 -218 20 -257 31 -37 29 -74 -5 -83 -14 -4
-35 -12 -47 -19 l-21 -11 25 -25 c33 -33 32 -77 -2 -104 -15 -12 -33 -21 -40
-21 -8 0 -14 -6 -14 -13 0 -7 -10 -17 -22 -22 -34 -15 -35 -52 -4 -67 14 -6
26 -15 26 -19 0 -4 10 -11 23 -15 58 -17 74 -70 36 -118 -25 -31 -19 -41 31
-53 42 -11 52 -44 22 -76 -42 -46 -45 -92 -22 -336 52 -566 52 -1242 0 -1834
-12 -125 -18 -244 -14 -263 3 -19 17 -43 31 -54 44 -35 24 -68 -62 -103 -6 -2
-3 -13 7 -23 46 -52 38 -102 -18 -129 -19 -9 -34 -20 -34 -24 0 -4 -11 -13
-25 -19 -31 -14 -33 -47 -3 -63 13 -7 29 -18 36 -26 7 -7 20 -13 27 -13 13 0
55 -46 55 -60 0 -4 -12 -24 -26 -45 -28 -42 -25 -49 26 -62 45 -12 50 -38 16
-87 -36 -53 -39 -101 -22 -271 36 -344 39 -451 42 -1734 4 -1432 10 -1312 -67
-1352 l-41 -20 21 -23 c36 -39 21 -85 -34 -106 -23 -9 -23 -11 -16 -96 1 -6
60 -15 153 -22 l153 -11 67 31 68 31 0 48 c0 37 -4 49 -15 49 -23 0 -55 37
-55 65 0 14 9 34 20 45 l21 21 -35 14 c-20 8 -39 15 -43 15 -32 0 -33 30 -32
1257 2 1314 5 1437 43 1841 15 150 8 219 -24 241 -11 7 -20 24 -20 37 0 18 10
28 45 44 25 11 45 23 45 26 0 3 -11 19 -25 36 -14 16 -25 35 -25 42 0 19 39
66 54 66 20 0 86 64 86 83 0 9 -11 19 -25 23 -14 3 -25 12 -25 19 0 7 -13 15
-30 18 -16 4 -37 18 -46 32 -16 24 -16 29 -1 61 9 19 22 34 28 34 25 0 -1 26
-37 36 -49 14 -56 45 -21 97 26 38 41 109 33 148 -5 21 -21 199 -41 439 -10
130 -13 1029 -4 1200 6 96 18 265 28 374 19 215 15 279 -19 308 -11 9 -20 27
-20 41 0 20 9 28 45 41 25 10 45 20 45 23 0 3 -11 18 -25 35 -14 16 -25 37
-25 47 0 23 35 59 65 67 14 3 25 10 25 15 0 4 12 20 26 34 21 21 23 29 14 40
-7 8 -19 15 -26 15 -8 0 -14 4 -14 10 0 5 -15 16 -34 24 -32 13 -56 41 -56 64
0 5 11 25 25 45 26 40 23 46 -29 56 -40 8 -47 49 -17 87 38 49 43 92 27 246
-35 320 -38 434 -43 1246 l-5 832 -79 0 -79 0 0 -87z"/>
</g>
</svg>
