<?xml version="1.0" standalone="no"?>
<!DOCTYPE svg PUBLIC "-//W3C//DTD SVG 20010904//EN"
 "http://www.w3.org/TR/2001/REC-SVG-20010904/DTD/svg10.dtd">
<svg version="1.0" xmlns="http://www.w3.org/2000/svg"
 width="2644.000000pt" height="2800.000000pt" viewBox="0 0 2644.000000 2800.000000"
 preserveAspectRatio="xMidYMid meet">

<g transform="translate(0.000000,2800.000000) scale(0.100000,-0.100000)"
fill="#65340A" stroke="none">
<path d="M14988 14533 l-78 -162 0 -343 c0 -378 -11 -661 -36 -928 -19 -205
-16 -266 15 -291 26 -21 30 -79 6 -79 -9 0 -30 -7 -47 -16 l-30 -16 26 -27
c41 -42 31 -88 -23 -110 -24 -11 -30 -19 -33 -54 -5 -51 0 -77 17 -77 24 0 65
-41 65 -65 0 -13 -12 -37 -26 -54 l-26 -31 46 -12 c41 -11 46 -15 46 -40 0
-15 -9 -37 -19 -47 -31 -31 -35 -98 -17 -289 42 -464 47 -1253 10 -1677 -10
-110 -18 -242 -18 -293 -1 -86 1 -95 22 -112 12 -10 22 -29 22 -44 0 -20 -9
-29 -46 -45 l-46 -21 26 -31 c40 -47 31 -86 -24 -109 -16 -7 -30 -16 -30 -21
0 -5 -11 -14 -25 -19 -15 -6 -25 -17 -25 -30 0 -12 10 -25 25 -32 14 -6 25
-15 25 -19 0 -4 10 -11 23 -15 60 -18 73 -64 31 -113 l-26 -31 27 -10 c14 -5
35 -10 46 -10 15 0 19 -7 19 -35 0 -19 -5 -35 -11 -35 -17 0 -39 -67 -39 -122
0 -29 7 -120 15 -203 8 -82 19 -238 25 -345 11 -210 14 -1458 4 -1485 -4 -9
-29 -27 -57 -42 -42 -21 -48 -27 -34 -35 24 -13 39 -46 32 -68 -3 -10 -21 -28
-39 -40 -29 -17 -34 -26 -34 -60 -1 -31 3 -40 16 -41 9 0 24 -2 32 -3 8 -2 70
-7 137 -10 111 -7 127 -6 182 15 l61 22 0 48 c0 42 -3 49 -19 49 -22 0 -51 35
-51 61 0 9 9 27 19 41 l20 24 -37 14 c-20 7 -43 17 -49 22 -10 8 -13 163 -13
712 0 689 8 936 41 1257 11 114 2 185 -27 196 -8 3 -14 18 -14 34 0 25 6 32
40 45 46 18 48 24 20 49 -33 30 -24 86 16 106 18 8 39 22 48 30 8 8 22 20 31
27 20 17 15 34 -13 47 -12 5 -22 15 -22 22 0 7 -8 13 -18 13 -57 0 -80 64 -41
115 25 30 18 40 -33 52 -24 5 -28 11 -28 39 0 19 4 34 9 34 11 0 28 43 36 92
3 20 1 76 -5 125 -54 444 -54 1436 0 1966 10 100 2 168 -24 196 -9 9 -16 29
-16 43 0 20 7 27 40 38 22 7 40 15 40 18 0 2 -9 15 -20 29 -37 47 -20 100 37
117 11 4 24 13 27 21 3 8 12 15 20 15 7 0 16 7 20 15 8 21 -3 45 -20 45 -8 0
-17 6 -20 14 -3 8 -16 17 -29 20 -55 14 -73 71 -34 112 26 28 19 41 -26 50
-31 5 -35 10 -35 36 0 16 10 43 23 59 28 38 28 113 2 369 -14 141 -18 298 -22
810 -2 349 -5 648 -6 665 -2 24 -17 -2 -79 -132z"/>
</g>
</svg>
