<?xml version="1.0" standalone="no"?>
<!DOCTYPE svg PUBLIC "-//W3C//DTD SVG 20010904//EN"
 "http://www.w3.org/TR/2001/REC-SVG-20010904/DTD/svg10.dtd">
<svg version="1.0" xmlns="http://www.w3.org/2000/svg"
 width="2644.000000pt" height="2800.000000pt" viewBox="0 0 2644.000000 2800.000000"
 preserveAspectRatio="xMidYMid meet">

<g transform="translate(0.000000,2800.000000) scale(0.100000,-0.100000)"
fill="#65340A" stroke="none">
<path d="M17003 23838 l-52 -53 -4 -655 c-4 -718 -5 -738 -70 -1045 -48 -228
-42 -266 41 -302 43 -18 46 -58 5 -66 -52 -12 -60 -23 -35 -50 13 -14 22 -36
22 -56 0 -27 -5 -34 -35 -47 -19 -8 -35 -18 -35 -23 0 -5 -12 -12 -26 -15 -32
-8 -30 -46 4 -61 12 -5 22 -15 22 -22 0 -7 6 -13 14 -13 8 0 24 -8 36 -18 29
-24 29 -66 0 -98 l-23 -24 41 -17 c34 -15 42 -23 42 -45 0 -18 -7 -29 -20 -33
-37 -12 -79 -56 -85 -89 -4 -20 3 -77 19 -147 68 -310 86 -493 86 -919 0 -419
-16 -590 -87 -917 -14 -66 -23 -132 -20 -145 10 -39 45 -76 77 -83 25 -5 30
-12 30 -35 0 -22 -5 -29 -27 -33 -52 -12 -60 -23 -35 -50 13 -14 22 -36 22
-55 0 -27 -6 -35 -35 -49 -19 -9 -35 -20 -35 -24 0 -4 -9 -9 -20 -12 -50 -13
-23 -65 56 -107 39 -21 45 -72 13 -106 l-22 -24 41 -17 c33 -14 42 -23 42 -43
0 -19 -9 -29 -39 -43 -26 -12 -45 -30 -57 -55 -17 -36 -17 -40 5 -142 34 -158
60 -320 76 -470 12 -110 15 -342 15 -1262 0 -1233 5 -1141 -59 -1168 -35 -14
-38 -22 -16 -40 8 -7 15 -26 15 -42 0 -22 -8 -33 -34 -49 -30 -17 -34 -25 -32
-57 0 -20 4 -36 9 -34 4 1 95 2 202 2 l195 0 0 40 c0 28 -4 40 -14 40 -17 0
-56 46 -56 66 0 8 9 23 20 34 25 25 25 27 -3 34 -13 3 -36 15 -50 27 l-27 20
0 1087 c0 1249 3 1315 80 1691 17 80 30 161 30 181 0 46 -30 87 -73 98 -26 7
-33 14 -35 39 -3 28 0 31 32 37 47 9 51 20 25 56 -30 40 -18 81 29 95 17 5 32
14 32 21 0 6 9 14 20 17 11 3 20 13 20 22 0 18 -43 65 -59 65 -5 0 -20 9 -35
21 -32 25 -33 57 -5 93 24 30 21 36 -24 52 -38 13 -52 60 -20 70 100 32 110
75 64 287 -64 294 -85 556 -78 962 6 335 20 480 72 743 19 95 35 186 35 202 0
47 -19 76 -66 98 -34 17 -44 27 -44 46 0 19 7 25 35 30 45 9 50 20 25 54 -30
40 -23 73 19 94 19 9 37 21 40 26 3 5 14 11 24 15 38 14 2 71 -68 107 -38 19
-44 53 -15 92 24 33 25 33 -22 57 -21 12 -34 27 -36 42 -2 20 4 27 33 38 44
15 75 62 75 111 -1 19 -7 64 -15 100 -24 106 -53 267 -71 395 -14 100 -18 232
-21 805 -4 692 -4 699 -38 700 -6 0 -34 -24 -62 -52z"/>
</g>
</svg>
