<?xml version="1.0" standalone="no"?>
<!DOCTYPE svg PUBLIC "-//W3C//DTD SVG 20010904//EN"
 "http://www.w3.org/TR/2001/REC-SVG-20010904/DTD/svg10.dtd">
<svg version="1.0" xmlns="http://www.w3.org/2000/svg"
 width="2644.000000pt" height="2800.000000pt" viewBox="0 0 2644.000000 2800.000000"
 preserveAspectRatio="xMidYMid meet">

<g transform="translate(0.000000,2800.000000) scale(0.100000,-0.100000)"
fill="#65340A" stroke="none">
<path d="M18138 24925 l-57 -55 -3 -657 c-4 -720 -6 -744 -70 -1058 -43 -209
-45 -234 -17 -269 12 -16 37 -35 56 -42 24 -11 33 -21 33 -38 0 -19 -7 -25
-35 -30 -37 -7 -55 -24 -37 -35 6 -3 17 -19 26 -35 19 -38 3 -75 -36 -83 -15
-3 -28 -11 -28 -19 0 -7 -10 -14 -22 -16 -52 -7 -16 -74 60 -110 37 -18 43
-70 12 -103 l-22 -23 41 -24 c53 -30 56 -62 6 -82 -42 -18 -75 -69 -75 -116 0
-19 9 -68 20 -108 29 -108 68 -358 81 -515 7 -86 9 -274 6 -505 -5 -402 -13
-484 -72 -780 -19 -95 -35 -183 -35 -196 0 -32 36 -76 77 -92 27 -12 33 -20
33 -44 0 -19 -5 -30 -14 -30 -8 0 -26 -4 -41 -10 l-26 -10 21 -28 c30 -40 24
-82 -15 -102 -16 -8 -32 -19 -34 -23 -2 -5 -14 -12 -27 -17 -30 -12 -31 -45
-2 -61 26 -14 41 -25 79 -61 26 -24 28 -29 18 -58 -7 -17 -18 -34 -25 -37 -23
-9 -16 -19 26 -38 32 -14 40 -23 40 -45 0 -21 -7 -29 -36 -39 -20 -7 -44 -26
-55 -44 -25 -40 -22 -79 19 -272 64 -298 67 -340 67 -1095 l0 -685 -45 -25
c-44 -24 -45 -26 -28 -42 10 -10 18 -29 18 -41 0 -24 -27 -57 -47 -57 -6 0
-13 -16 -15 -36 l-4 -37 165 6 c91 4 183 7 204 7 33 0 37 3 37 25 0 14 -6 25
-13 25 -19 0 -57 43 -57 63 0 9 9 26 20 37 l20 20 -45 22 c-28 14 -48 31 -51
44 -3 12 -4 320 -1 685 4 738 7 779 81 1130 35 169 35 201 0 240 -9 10 -32 23
-50 29 -28 10 -34 17 -34 40 0 24 5 29 35 34 45 9 52 22 25 51 -32 34 -24 75
19 97 19 9 37 21 40 26 3 5 14 11 24 15 9 3 17 14 17 23 0 19 -57 74 -76 74
-18 0 -44 40 -44 66 0 11 9 29 20 39 28 25 25 33 -20 52 -32 14 -40 23 -40 45
0 21 6 28 29 33 16 3 38 16 50 29 40 43 41 73 10 223 -75 348 -93 564 -86
1000 6 361 21 509 78 779 17 82 32 164 31 182 0 44 -24 78 -73 102 -52 27 -52
60 1 74 46 12 45 11 21 42 -11 15 -21 37 -21 50 0 29 33 64 59 64 10 0 21 7
25 15 3 8 12 15 21 15 24 0 20 51 -5 57 -11 3 -20 10 -20 17 0 6 -17 20 -38
31 -46 25 -55 65 -21 101 12 13 21 25 18 27 -2 2 -21 14 -41 26 -52 31 -51 60
1 82 42 18 72 62 73 107 0 15 -16 106 -36 202 -67 325 -69 369 -73 1125 -3
790 3 744 -95 650z"/>
</g>
</svg>
