<?xml version="1.0" standalone="no"?>
<!DOCTYPE svg PUBLIC "-//W3C//DTD SVG 20010904//EN"
 "http://www.w3.org/TR/2001/REC-SVG-20010904/DTD/svg10.dtd">
<svg version="1.0" xmlns="http://www.w3.org/2000/svg"
 width="2551.000000pt" height="2701.000000pt" viewBox="0 0 2551.000000 2701.000000"
 preserveAspectRatio="xMidYMid meet">

<g transform="translate(0.000000,2701.000000) scale(0.100000,-0.100000)"
fill="#3a4548" stroke="none">
<path d="M4733 12560 l-63 -51 0 -834 0 -835 -24 0 c-39 0 -86 -46 -86 -84 0
-57 64 -98 98 -64 9 9 12 -2 12 -49 0 -51 -4 -67 -25 -91 -14 -17 -38 -57 -53
-89 -24 -52 -27 -69 -27 -168 0 -98 3 -116 27 -167 15 -32 38 -73 52 -91 17
-22 26 -47 26 -70 0 -34 -2 -37 -29 -37 -39 0 -81 -43 -81 -85 0 -41 35 -75
78 -75 l32 0 -2 -872 -3 -872 -29 -7 c-67 -18 -97 -85 -60 -137 17 -24 62 -30
82 -10 9 9 12 -1 12 -46 0 -52 -5 -66 -40 -118 -51 -76 -71 -143 -71 -238 0
-91 25 -171 76 -240 24 -33 35 -58 35 -83 0 -30 -3 -34 -20 -30 -29 8 -90 -56
-90 -94 0 -39 37 -73 78 -73 l32 0 0 -847 c0 -467 1 -911 1 -988 0 -77 0 -348
0 -602 l-1 -463 -24 -6 c-14 -3 -32 -17 -41 -31 -15 -22 -15 -26 -1 -42 17
-18 22 -51 8 -51 -17 0 -42 -61 -42 -104 l0 -46 150 0 150 0 20 32 c11 19 20
51 20 74 0 36 -3 43 -24 48 -32 8 -42 39 -22 68 23 33 20 46 -14 53 -17 4 -35
15 -40 25 -7 12 -10 523 -10 1449 l0 1431 26 0 c15 0 38 12 55 29 51 52 33
141 -29 141 -11 0 -24 -4 -27 -10 -14 -23 -25 -7 -25 35 0 35 9 57 39 105 54
83 75 150 75 240 1 92 -21 163 -75 242 -27 40 -39 69 -39 92 0 33 2 35 38 38
32 3 40 8 59 46 11 23 19 51 16 62 -8 31 -59 63 -88 56 l-25 -6 2 872 3 872
29 7 c46 13 76 47 76 89 0 58 -43 85 -91 60 -18 -10 -19 -7 -19 40 0 41 6 58
34 98 58 80 79 145 79 247 1 104 -22 176 -79 250 -27 36 -34 55 -34 89 0 40 2
43 24 39 53 -10 103 54 84 109 -12 33 -35 48 -77 48 l-31 0 -2 885 -3 885 -62
-50z m-68 -1770 c3 -5 -1 -10 -10 -10 -9 0 -13 5 -10 10 3 6 8 10 10 10 2 0 7
-4 10 -10z m165 -11 c0 -5 -7 -9 -15 -9 -15 0 -20 12 -9 23 8 8 24 -1 24 -14z
m-36 -291 c31 -55 56 -140 56 -192 0 -74 -37 -182 -75 -220 -40 -39 -84 -2
-130 109 -25 61 -22 190 5 252 35 81 47 93 85 93 30 0 37 -6 59 -42z m-124
-660 c0 -16 -3 -19 -11 -11 -6 6 -8 16 -5 22 11 17 16 13 16 -11z m160 -8 c0
-5 -4 -10 -10 -10 -5 0 -10 5 -10 10 0 6 5 10 10 10 6 0 10 -4 10 -10z m-10
-1860 c0 -5 -4 -10 -10 -10 -5 0 -10 5 -10 10 0 6 5 10 10 10 6 0 10 -4 10
-10z m-28 -295 c65 -94 72 -239 17 -355 -28 -60 -29 -61 -66 -58 -34 3 -41 8
-65 53 -38 68 -50 118 -50 196 1 68 20 132 55 182 29 42 72 35 109 -18z m-125
-657 c-3 -8 -6 -5 -6 6 -1 11 2 17 5 13 3 -3 4 -12 1 -19z"/>
</g>
</svg>
