<?xml version="1.0" standalone="no"?>
<!DOCTYPE svg PUBLIC "-//W3C//DTD SVG 20010904//EN"
 "http://www.w3.org/TR/2001/REC-SVG-20010904/DTD/svg10.dtd">
<svg version="1.0" xmlns="http://www.w3.org/2000/svg"
 width="2551.000000pt" height="2701.000000pt" viewBox="0 0 2551.000000 2701.000000"
 preserveAspectRatio="xMidYMid meet">

<g transform="translate(0.000000,2701.000000) scale(0.100000,-0.100000)"
fill="#3a4548" stroke="none">
<path d="M19983 25109 l-63 -51 0 -829 0 -829 -21 0 c-12 0 -36 -15 -55 -34
-40 -40 -45 -85 -14 -116 22 -22 42 -25 71 -10 18 10 19 7 19 -44 0 -46 -6
-62 -39 -112 -101 -154 -100 -340 3 -485 22 -30 36 -61 36 -79 0 -26 -3 -30
-29 -30 -20 0 -37 -9 -55 -31 -39 -45 -38 -82 1 -117 19 -18 32 -22 54 -17
l29 7 0 -876 0 -876 -24 0 c-28 0 -75 -35 -85 -64 -19 -51 30 -104 85 -90 23
6 24 4 24 -49 0 -31 -5 -59 -10 -62 -36 -22 -95 -157 -105 -240 -12 -93 26
-217 89 -293 19 -21 26 -41 26 -71 0 -39 -1 -41 -25 -35 -19 5 -31 -1 -55 -24
-55 -55 -28 -132 47 -132 l33 0 0 -956 c0 -636 -3 -962 -10 -975 -6 -10 -24
-26 -40 -34 -29 -15 -30 -16 -14 -40 21 -32 12 -68 -21 -83 -20 -9 -25 -19
-25 -47 l0 -35 175 0 175 0 0 39 c0 31 -4 41 -20 46 -31 10 -44 42 -30 76 7
16 18 29 24 29 6 1 -6 10 -26 21 -21 10 -42 28 -48 38 -7 13 -10 337 -10 970
l0 951 20 0 c59 0 110 63 91 113 -14 37 -37 50 -76 43 l-35 -7 0 40 c0 32 10
55 44 105 46 67 76 164 76 244 0 74 -49 202 -97 253 -20 21 -24 35 -21 70 2
34 7 43 19 41 30 -5 68 17 84 47 29 57 -6 111 -72 111 l-33 0 2 872 3 871 25
4 c36 5 69 30 81 60 20 54 -48 130 -84 94 -20 -20 -27 -11 -27 34 0 35 8 55
40 101 57 82 75 142 74 249 -1 102 -21 167 -80 246 -44 60 -48 119 -9 119 31
0 82 46 91 82 8 37 -41 88 -85 88 l-31 0 -2 880 -3 880 -62 -51z m83 -1786
c-10 -10 -19 5 -10 18 6 11 8 11 12 0 2 -7 1 -15 -2 -18z m-29 -282 c70 -104
70 -296 1 -394 -16 -22 -27 -27 -51 -25 -26 3 -35 12 -65 66 -59 109 -56 255
8 360 28 46 74 42 107 -7z m-117 -661 c0 -5 -4 -10 -10 -10 -5 0 -10 5 -10 10
0 6 5 10 10 10 6 0 10 -4 10 -10z m-5 -1850 c3 -5 -1 -10 -10 -10 -9 0 -13 5
-10 10 3 6 8 10 10 10 2 0 7 -4 10 -10z m156 -13 c-13 -13 -26 -3 -16 12 3 6
11 8 17 5 6 -4 6 -10 -1 -17z m-56 -253 c20 -21 41 -61 61 -120 26 -77 16
-204 -21 -274 -26 -47 -35 -55 -61 -58 -26 -2 -36 3 -51 25 -81 120 -85 289
-9 404 28 42 54 49 81 23z m-95 -684 c0 -5 -7 -10 -16 -10 -8 0 -12 5 -9 10 3
6 10 10 16 10 5 0 9 -4 9 -10z m160 -4 c0 -11 -19 -15 -25 -6 -3 5 1 10 9 10
9 0 16 -2 16 -4z"/>
</g>
</svg>
