<?xml version="1.0" standalone="no"?>
<!DOCTYPE svg PUBLIC "-//W3C//DTD SVG 20010904//EN"
 "http://www.w3.org/TR/2001/REC-SVG-20010904/DTD/svg10.dtd">
<svg version="1.0" xmlns="http://www.w3.org/2000/svg"
 width="2551.000000pt" height="2701.000000pt" viewBox="0 0 2551.000000 2701.000000"
 preserveAspectRatio="xMidYMid meet">

<g transform="translate(0.000000,2701.000000) scale(0.100000,-0.100000)"
fill="#3a4548" stroke="none">
<path d="M8285 15483 c-16 -14 -42 -36 -57 -49 l-28 -24 0 -242 c1 -134 0
-510 0 -835 l0 -593 -29 0 c-33 0 -81 -40 -81 -69 0 -57 51 -98 92 -72 17 10
18 7 18 -49 0 -53 -4 -65 -34 -104 -48 -64 -76 -153 -76 -248 0 -89 22 -160
76 -239 26 -39 34 -62 34 -94 l0 -44 -33 6 c-28 4 -37 1 -55 -22 -44 -55 -12
-125 56 -125 l32 0 0 -410 c0 -225 1 -471 1 -545 0 -74 -1 -283 -1 -464 l0
-328 -30 -7 c-40 -7 -80 -48 -80 -81 0 -58 62 -99 98 -63 9 9 12 -2 12 -51 0
-54 -4 -68 -27 -95 -78 -92 -106 -260 -63 -385 12 -36 39 -89 60 -119 30 -41
39 -62 36 -86 -3 -28 -7 -31 -36 -31 -22 0 -39 -8 -56 -28 -45 -53 -20 -114
52 -126 l39 -6 2 -954 1 -954 -25 -22 c-14 -13 -34 -30 -45 -40 -20 -17 -20
-17 1 -36 26 -24 27 -44 3 -61 -27 -19 -42 -52 -42 -92 0 -36 1 -36 43 -37
166 -2 262 2 269 14 4 6 8 32 8 56 0 34 -5 47 -25 63 -28 22 -32 50 -10 68 24
20 18 40 -15 52 -17 5 -35 18 -40 28 -6 12 -10 368 -10 969 l0 951 30 0 c67 0
109 100 62 143 -21 19 -57 22 -67 7 -14 -23 -25 -7 -25 36 0 33 7 54 24 77 14
18 40 64 58 102 31 65 33 77 33 171 0 97 -1 104 -39 177 -21 42 -47 84 -57 93
-14 12 -19 31 -19 67 0 43 2 48 18 42 20 -8 21 -8 44 -6 25 2 60 65 52 95 -9
35 -41 61 -78 61 l-31 0 0 875 0 875 31 3 c64 6 100 79 63 126 -19 24 -27 28
-61 23 l-38 -5 0 40 c0 31 10 55 40 101 107 159 104 339 -6 494 -27 38 -34 57
-34 96 0 45 1 47 24 41 37 -9 64 4 82 38 13 25 13 35 3 59 -14 35 -36 49 -78
49 l-31 0 -2 884 -3 884 -30 -25z m-85 -1798 c0 -8 -7 -11 -20 -8 -23 6 -26
19 -7 26 16 6 27 -1 27 -18z m158 3 c-7 -19 -38 -22 -38 -4 0 10 9 16 21 16
12 0 19 -5 17 -12z m-35 -290 c39 -61 52 -111 52 -204 -1 -72 -4 -88 -35 -150
-33 -65 -37 -69 -71 -72 -31 -3 -40 2 -59 28 -77 108 -80 289 -6 401 22 32 32
39 59 39 27 0 37 -7 60 -42z m-123 -662 c0 -8 -4 -17 -9 -21 -12 -7 -24 12
-16 25 9 15 25 12 25 -4z m160 -12 c0 -8 -4 -14 -9 -14 -12 0 -32 26 -25 33
10 9 34 -4 34 -19z m-160 -1854 c0 -5 -7 -10 -15 -10 -8 0 -15 5 -15 10 0 6 7
10 15 10 8 0 15 -4 15 -10z m154 1 c3 -5 -1 -12 -10 -15 -20 -8 -29 -1 -19 13
8 13 22 14 29 2z m-17 -323 c59 -116 54 -258 -13 -361 -22 -34 -29 -38 -61
-35 -33 3 -38 8 -72 73 -34 66 -36 75 -36 165 0 78 4 104 23 145 33 71 50 87
91 83 32 -3 37 -8 68 -70z m-141 -633 c-3 -9 -11 -13 -16 -10 -8 5 -7 11 1 21
14 18 24 11 15 -11z m154 5 c13 -8 13 -10 -2 -10 -9 0 -20 5 -23 10 -8 13 5
13 25 0z"/>
</g>
</svg>
