<?xml version="1.0" standalone="no"?>
<!DOCTYPE svg PUBLIC "-//W3C//DTD SVG 20010904//EN"
 "http://www.w3.org/TR/2001/REC-SVG-20010904/DTD/svg10.dtd">
<svg version="1.0" xmlns="http://www.w3.org/2000/svg"
 width="2551.000000pt" height="2701.000000pt" viewBox="0 0 2551.000000 2701.000000"
 preserveAspectRatio="xMidYMid meet">

<g transform="translate(0.000000,2701.000000) scale(0.100000,-0.100000)"
fill="#3a4548" stroke="none">
<path d="M9440 16432 l-55 -45 -5 -840 -5 -840 -34 -2 c-69 -6 -98 -80 -50
-131 23 -24 32 -25 72 -9 15 6 17 1 17 -47 0 -47 -5 -61 -33 -99 -61 -80 -81
-142 -81 -249 0 -107 20 -169 80 -252 26 -37 34 -58 34 -92 l0 -44 -30 11
c-26 10 -32 8 -55 -13 -18 -17 -25 -34 -25 -60 0 -45 26 -71 72 -75 l33 -2 3
-877 2 -876 -29 0 c-74 0 -110 -89 -55 -141 24 -23 26 -23 55 -7 l29 17 0 -53
c0 -46 -6 -62 -40 -112 -57 -84 -75 -143 -75 -244 0 -103 20 -166 75 -240 32
-43 40 -62 40 -96 l0 -43 -34 6 c-43 7 -76 -25 -76 -74 0 -44 30 -73 75 -73
l35 0 0 -1445 0 -1445 -40 -25 c-42 -27 -49 -45 -25 -65 21 -17 19 -51 -4 -57
-20 -5 -31 -41 -31 -99 l0 -34 155 0 155 0 0 60 c0 48 -3 60 -16 60 -9 0 -12
-5 -8 -12 4 -7 3 -8 -5 -4 -6 4 -9 11 -6 16 3 5 1 19 -5 30 -8 14 -7 25 2 40
11 18 10 23 -14 43 -14 12 -29 31 -32 42 -7 24 -8 339 -7 1783 l1 1112 28 0
c38 0 69 24 77 61 14 63 -36 115 -85 89 -19 -10 -20 -7 -20 34 0 36 8 58 39
105 99 154 93 366 -14 493 -20 24 -25 40 -25 84 0 52 1 54 20 44 12 -6 30 -8
40 -5 24 8 50 54 50 88 0 33 -39 67 -78 67 l-32 0 0 879 0 878 25 -4 c18 -4
33 3 55 25 37 37 38 71 6 109 -22 26 -27 27 -55 16 l-31 -11 0 48 c0 38 7 58
34 99 53 79 76 150 76 237 0 97 -21 168 -70 238 -35 50 -40 64 -40 112 0 52 1
54 20 44 12 -6 30 -8 41 -5 27 9 53 66 45 99 -7 29 -58 60 -87 53 -18 -5 -19
20 -21 883 l-3 887 -55 -45z m-60 -1782 c0 -18 -3 -19 -20 -10 -11 6 -20 15
-20 20 0 6 9 10 20 10 13 0 20 -7 20 -20z m160 10 c0 -5 -9 -14 -20 -20 -17
-9 -20 -8 -20 10 0 13 7 20 20 20 11 0 20 -4 20 -10z m-27 -330 c35 -69 39
-83 38 -155 0 -127 -53 -245 -110 -245 -35 0 -53 19 -87 95 -50 109 -36 261
33 353 20 27 31 33 56 30 29 -3 36 -11 70 -78z m-133 -630 c0 -13 -7 -20 -20
-20 -22 0 -28 25 -7 33 22 10 27 7 27 -13z m160 -6 c0 -8 -9 -14 -20 -14 -13
0 -20 7 -20 19 0 14 5 18 20 14 11 -3 20 -12 20 -19z m-160 -1859 c0 -17 -2
-18 -24 -9 -23 9 -20 24 4 24 11 0 20 -7 20 -15z m154 7 c2 -4 -4 -13 -15 -20
-16 -11 -19 -9 -19 8 0 19 24 28 34 12z m-41 -289 c42 -68 58 -122 58 -199 1
-81 -11 -127 -48 -191 -23 -39 -28 -43 -64 -43 -40 0 -40 0 -77 77 -32 68 -36
87 -36 153 0 91 14 144 54 198 41 57 80 58 113 5z m-121 -675 c-6 -6 -15 -7
-22 -3 -8 5 -6 11 7 20 20 15 32 0 15 -17z m158 6 c0 -2 -7 -4 -15 -4 -8 0
-15 4 -15 10 0 5 7 7 15 4 8 -4 15 -8 15 -10z"/>
</g>
</svg>
