<?xml version="1.0" standalone="no"?>
<!DOCTYPE svg PUBLIC "-//W3C//DTD SVG 20010904//EN"
 "http://www.w3.org/TR/2001/REC-SVG-20010904/DTD/svg10.dtd">
<svg version="1.0" xmlns="http://www.w3.org/2000/svg"
 width="2551.000000pt" height="2701.000000pt" viewBox="0 0 2551.000000 2701.000000"
 preserveAspectRatio="xMidYMid meet">

<g transform="translate(0.000000,2701.000000) scale(0.100000,-0.100000)"
fill="#3a4548" stroke="none">
<path d="M14128 20292 l-58 -47 0 -837 0 -838 -30 0 c-36 0 -80 -38 -80 -69 0
-57 51 -98 92 -72 17 10 18 7 18 -49 0 -53 -4 -65 -34 -104 -56 -73 -71 -126
-71 -246 0 -93 3 -112 27 -162 15 -32 38 -73 52 -91 19 -25 26 -46 26 -80 0
-46 0 -46 -26 -37 -22 9 -30 6 -55 -19 -17 -18 -29 -40 -29 -56 0 -36 41 -75
80 -75 l30 0 0 -881 c0 -616 -3 -878 -11 -874 -16 11 -57 -3 -79 -27 -27 -29
-25 -69 5 -102 26 -29 37 -31 66 -16 18 10 19 7 19 -46 0 -47 -5 -62 -29 -93
-57 -73 -81 -145 -81 -247 0 -91 22 -165 71 -236 33 -48 39 -64 39 -109 0 -41
-3 -50 -12 -41 -32 32 -98 -11 -98 -65 0 -34 42 -73 80 -73 l30 0 0 -1445 c0
-1389 -1 -1446 -18 -1462 -10 -10 -27 -23 -38 -29 -18 -11 -18 -12 -1 -31 25
-28 21 -49 -13 -74 -29 -22 -31 -34 -21 -111 1 -5 71 -8 156 -8 l155 0 0 44
c0 26 -6 48 -15 56 -8 7 -15 9 -15 4 0 -5 -5 -2 -10 6 -14 21 -12 64 3 79 10
11 8 15 -6 25 -10 6 -26 16 -35 23 -16 10 -17 123 -20 1467 l-2 1456 35 0 c46
0 75 29 75 75 0 50 -31 79 -76 70 l-34 -6 0 46 c0 36 6 54 30 83 39 50 66 113
80 192 20 110 -8 225 -75 309 -30 38 -35 51 -35 98 0 45 3 54 15 49 8 -3 21
-8 28 -11 7 -3 25 4 40 15 21 17 27 30 27 59 0 46 -26 73 -72 75 l-33 2 -3
877 -2 877 29 0 c46 0 81 35 81 79 0 51 -27 76 -75 68 l-35 -6 0 48 c0 31 5
53 15 61 27 23 74 116 91 181 30 117 5 238 -72 346 -27 38 -34 58 -34 95 l0
47 34 -6 c45 -7 76 25 76 78 0 45 -27 69 -77 69 l-33 0 -2 884 -3 884 -57 -46z
m-60 -1775 c2 -11 -2 -14 -17 -10 -22 5 -26 14 -14 27 10 10 28 1 31 -17z
m162 3 c0 -10 -31 -22 -38 -16 -2 3 -2 12 1 20 6 15 37 12 37 -4z m-58 -267
c31 -35 59 -102 70 -167 13 -78 -5 -171 -47 -243 -23 -37 -30 -43 -60 -43 -29
0 -39 6 -59 38 -68 105 -74 250 -17 366 30 61 35 66 65 66 19 0 40 -8 48 -17z
m-109 -704 c-4 -4 -15 -4 -23 1 -13 8 -12 11 5 24 18 13 20 13 23 -1 2 -8 0
-19 -5 -24z m151 25 c23 -9 20 -24 -4 -24 -11 0 -20 7 -20 15 0 17 2 18 24 9z
m-144 -1874 c0 -18 -3 -19 -20 -10 -11 6 -20 15 -20 20 0 6 9 10 20 10 13 0
20 -7 20 -20z m160 6 c0 -7 -9 -16 -20 -19 -15 -4 -20 0 -20 14 0 12 7 19 20
19 11 0 20 -6 20 -14z m-57 -264 c9 -10 28 -43 42 -74 45 -98 40 -220 -13
-324 -27 -52 -44 -66 -79 -62 -24 2 -34 14 -63 73 -59 118 -53 257 16 366 19
30 31 39 53 39 15 0 35 -8 44 -18z m-103 -687 c0 -8 -9 -15 -20 -15 -25 0 -26
17 -2 23 9 3 18 5 20 6 1 0 2 -6 2 -14z m144 9 c23 -9 20 -24 -4 -24 -11 0
-20 7 -20 15 0 17 2 18 24 9z"/>
</g>
</svg>
