<?xml version="1.0" standalone="no"?>
<!DOCTYPE svg PUBLIC "-//W3C//DTD SVG 20010904//EN"
 "http://www.w3.org/TR/2001/REC-SVG-20010904/DTD/svg10.dtd">
<svg version="1.0" xmlns="http://www.w3.org/2000/svg"
 width="2644.000000pt" height="2800.000000pt" viewBox="0 0 2644.000000 2800.000000"
 preserveAspectRatio="xMidYMid meet">

<g transform="translate(0.000000,2800.000000) scale(0.100000,-0.100000)"
fill="#65340A" stroke="none">
<path d="M2137 14033 c-4 -3 -7 -290 -7 -636 l0 -629 -90 4 -90 4 0 -1433 0
-1433 90 0 90 0 0 -121 0 -121 -87 3 -88 3 0 -1284 0 -1285 35 -2 c19 -2 59
-6 88 -9 l52 -5 0 -824 c0 -679 -2 -826 -14 -837 -7 -8 -31 -22 -54 -32 l-40
-18 26 -23 c24 -20 25 -25 14 -49 -7 -15 -25 -35 -42 -44 -25 -14 -30 -23 -30
-53 0 -44 2 -45 155 -54 96 -6 120 -4 190 15 44 12 86 27 92 32 7 6 13 26 13
44 0 29 -5 36 -35 48 -28 12 -35 21 -35 42 0 15 9 37 20 49 l20 22 -42 12
c-24 7 -49 18 -55 23 -10 8 -13 185 -13 824 l0 813 64 -6 c35 -3 80 -3 100 1
l36 7 -2 1292 -3 1292 -97 3 -98 3 0 119 0 119 98 3 97 3 0 1425 0 1425 -97 3
-98 3 0 618 c0 710 9 651 -97 651 -33 0 -63 -3 -66 -7z m233 -1621 c0 -137 -3
-252 -7 -256 -4 -4 -8 -485 -8 -1069 l0 -1062 -138 -3 -137 -3 0 1321 0 1320
145 0 145 0 0 -248z m-15 -4028 l0 -1177 -74 7 c-41 3 -103 6 -138 6 l-63 0 0
1170 0 1170 138 0 137 0 0 -1176z"/>
</g>
</svg>
