<?xml version="1.0" standalone="no"?>
<!DOCTYPE svg PUBLIC "-//W3C//DTD SVG 20010904//EN"
 "http://www.w3.org/TR/2001/REC-SVG-20010904/DTD/svg10.dtd">
<svg version="1.0" xmlns="http://www.w3.org/2000/svg"
 width="2644.000000pt" height="2800.000000pt" viewBox="0 0 2644.000000 2800.000000"
 preserveAspectRatio="xMidYMid meet">

<g transform="translate(0.000000,2800.000000) scale(0.100000,-0.100000)"
fill="#65340A" stroke="none">
<path d="M20457 27142 l-57 -57 -2 -560 -3 -560 -113 -11 c-62 -6 -115 -14
-119 -17 -3 -4 -6 -666 -7 -1473 -1 -1180 1 -1468 12 -1476 8 -7 50 -9 123 -4
l110 6 -3 -122 -3 -123 -114 -11 c-62 -6 -116 -16 -120 -22 -4 -7 -7 -2604 -2
-2656 1 -5 53 -7 121 -3 l120 5 -2 -371 -3 -372 -48 -24 c-46 -23 -47 -24 -27
-38 31 -22 26 -68 -10 -95 -16 -12 -30 -31 -30 -41 0 -19 5 -20 98 -14 53 4
143 7 200 7 56 0 102 3 102 8 -1 4 -15 16 -33 27 -39 25 -46 59 -18 89 l21 22
-45 22 c-28 13 -47 30 -50 44 -3 13 -4 185 -3 383 l3 360 100 3 c55 1 110 5
123 7 l22 5 0 1345 0 1344 -21 6 c-20 7 -107 1 -192 -11 l-38 -6 3 124 3 123
25 2 c14 1 69 5 123 8 l97 7 0 1478 c0 1299 -2 1479 -15 1490 -14 12 -113 9
-203 -7 l-33 -5 1 597 c1 586 -1 625 -29 625 -4 0 -32 -26 -64 -58z m211
-2644 c-3 -1186 -5 -1343 -18 -1344 -48 -2 -247 -16 -261 -19 -8 -2 -35 -5
-58 -6 l-42 -3 0 1338 c0 736 1 1340 3 1341 5 6 262 32 321 34 l57 1 -2 -1342z
m2 -3087 l0 -1209 -147 -6 c-82 -4 -167 -9 -190 -12 l-43 -5 -1 153 c-2 391 1
2251 3 2253 5 6 263 32 321 34 l57 1 0 -1209z"/>
</g>
</svg>
