<?xml version="1.0" standalone="no"?>
<!DOCTYPE svg PUBLIC "-//W3C//DTD SVG 20010904//EN"
 "http://www.w3.org/TR/2001/REC-SVG-20010904/DTD/svg10.dtd">
<svg version="1.0" xmlns="http://www.w3.org/2000/svg"
 width="2644.000000pt" height="2800.000000pt" viewBox="0 0 2644.000000 2800.000000"
 preserveAspectRatio="xMidYMid meet">

<g transform="translate(0.000000,2800.000000) scale(0.100000,-0.100000)"
fill="#65340A" stroke="none">
<path d="M21590 27521 l0 -478 -125 -13 -125 -13 0 -1503 0 -1504 23 -5 c12
-3 63 -1 112 4 50 6 96 11 103 11 9 0 12 -30 12 -119 l0 -118 -125 -13 -125
-13 2 -1341 3 -1341 125 1 125 2 -5 -857 c-3 -471 -8 -861 -13 -868 -4 -6 -23
-17 -42 -23 -38 -13 -43 -21 -20 -40 31 -26 9 -100 -31 -100 -8 0 -14 -10 -14
-26 l0 -27 83 6 c45 4 135 7 200 7 64 0 117 3 117 8 0 4 -13 15 -30 24 -41 23
-49 62 -20 93 l23 25 -35 15 c-74 30 -68 -49 -68 911 l0 864 48 0 c26 0 84 3
130 7 l82 6 0 1347 c0 1192 -2 1349 -15 1360 -15 12 -103 9 -207 -7 l-38 -6 0
117 c0 84 3 118 13 121 6 2 61 9 121 15 67 6 113 15 118 23 4 6 8 681 8 1498
0 1317 -2 1488 -15 1499 -15 12 -103 9 -207 -7 l-38 -6 0 472 0 471 -75 0 -75
0 0 -479z m278 -1968 l-3 -1368 -130 -7 c-71 -4 -157 -11 -190 -17 -33 -6 -63
-11 -67 -11 -5 0 -8 614 -8 1365 0 1085 3 1365 13 1366 6 0 80 9 162 19 83 9
167 18 188 19 l37 1 -2 -1367z m2 -3107 l0 -1213 -77 -6 c-43 -4 -133 -9 -200
-13 l-123 -7 0 1207 c0 958 3 1206 13 1207 6 0 80 9 162 19 83 9 167 18 188
19 l37 1 0 -1214z"/>
</g>
</svg>
