<?xml version="1.0" standalone="no"?>
<!DOCTYPE svg PUBLIC "-//W3C//DTD SVG 20010904//EN"
 "http://www.w3.org/TR/2001/REC-SVG-20010904/DTD/svg10.dtd">
<svg version="1.0" xmlns="http://www.w3.org/2000/svg"
 width="2644.000000pt" height="2800.000000pt" viewBox="0 0 2644.000000 2800.000000"
 preserveAspectRatio="xMidYMid meet">

<g transform="translate(0.000000,2800.000000) scale(0.100000,-0.100000)"
fill="#65340A" stroke="none">
<path d="M14787 13952 l-27 -28 0 -688 0 -688 -47 6 c-76 9 -125 9 -165 1
l-38 -7 0 -1583 0 -1583 38 -6 c20 -3 76 -8 125 -11 l87 -7 0 -130 0 -130
-102 2 c-57 1 -113 1 -125 1 l-23 -1 0 -1419 0 -1419 38 -6 c20 -3 77 -8 125
-11 l88 -7 -2 -912 c0 -675 -4 -915 -12 -927 -7 -8 -31 -26 -54 -39 -41 -22
-55 -40 -33 -40 16 0 32 -41 26 -66 -4 -14 -22 -34 -41 -46 -31 -18 -35 -24
-35 -63 l0 -44 53 -5 c28 -4 101 -11 160 -16 l108 -10 70 35 69 35 0 46 c0 41
-3 46 -30 56 -53 18 -65 64 -27 102 l23 23 -47 18 c-32 11 -51 24 -55 38 -7
21 -13 1770 -7 1792 2 7 37 8 106 2 66 -5 110 -4 125 2 l22 11 0 1419 c0 1394
0 1420 -19 1431 -11 5 -65 10 -121 10 -71 0 -102 4 -105 13 -6 15 -13 218 -8
232 2 7 37 8 106 2 66 -5 110 -4 125 2 l22 11 0 1600 0 1600 -130 0 -130 0 3
713 2 712 -55 3 c-50 3 -58 0 -83 -26z m136 -1532 l107 0 0 -1466 0 -1467 -67
7 c-38 3 -108 8 -158 11 -49 3 -105 8 -122 11 l-33 5 0 1456 0 1456 83 -6 c45
-4 130 -7 190 -7z m107 -4759 l0 -1294 -67 7 c-38 3 -108 8 -158 11 -49 3
-105 8 -122 11 l-33 5 0 1274 0 1274 28 3 c15 2 100 3 190 3 l162 0 0 -1294z"/>
</g>
</svg>
