<?xml version="1.0" standalone="no"?>
<!DOCTYPE svg PUBLIC "-//W3C//DTD SVG 20010904//EN"
 "http://www.w3.org/TR/2001/REC-SVG-20010904/DTD/svg10.dtd">
<svg version="1.0" xmlns="http://www.w3.org/2000/svg"
 width="2644.000000pt" height="2800.000000pt" viewBox="0 0 2644.000000 2800.000000"
 preserveAspectRatio="xMidYMid meet">

<g transform="translate(0.000000,2800.000000) scale(0.100000,-0.100000)"
fill="#65340A" stroke="none">
<path d="M14264 13956 c-3 -13 -6 -329 -7 -702 l-2 -679 -47 -3 -48 -3 0
-1545 0 -1544 50 0 49 0 -2 -112 -2 -113 -47 -3 -48 -3 0 -1470 0 -1469 49 0
50 0 -1 -867 c-1 -965 4 -896 -71 -934 l-39 -20 21 -23 c37 -39 21 -85 -37
-107 -22 -9 -24 -13 -18 -51 4 -23 9 -45 12 -48 3 -2 69 -10 147 -17 l142 -12
73 31 72 31 0 48 c0 37 -4 49 -15 49 -23 0 -55 37 -55 63 0 13 9 33 21 45 l20
23 -35 14 c-19 8 -38 15 -42 15 -32 0 -33 26 -34 937 l0 902 45 27 45 26 0
1414 0 1414 -45 0 -46 0 3 103 3 102 43 3 42 3 0 1555 0 1554 -45 0 -45 0 0
695 0 695 -75 0 c-70 0 -75 -1 -81 -24z m115 -2925 l1 -1419 -45 -4 -45 -3 2
1420 3 1420 35 6 c19 3 38 4 42 2 4 -2 7 -642 7 -1422z m0 -3196 l0 -1295 -29
-15 c-65 -34 -60 -149 -58 1293 l3 1307 35 6 c19 3 38 4 42 2 4 -2 7 -586 7
-1298z"/>
</g>
</svg>
