<?xml version="1.0" standalone="no"?>
<!DOCTYPE svg PUBLIC "-//W3C//DTD SVG 20010904//EN"
 "http://www.w3.org/TR/2001/REC-SVG-20010904/DTD/svg10.dtd">
<svg version="1.0" xmlns="http://www.w3.org/2000/svg"
 width="2644.000000pt" height="2800.000000pt" viewBox="0 0 2644.000000 2800.000000"
 preserveAspectRatio="xMidYMid meet">

<g transform="translate(0.000000,2800.000000) scale(0.100000,-0.100000)"
fill="#65340A" stroke="none">
<path d="M14390 13298 c0 -532 -2 -673 -12 -680 -7 -4 -28 -8 -45 -8 l-33 0 0
-170 c0 -93 0 -258 0 -365 0 -107 0 -712 0 -1345 l0 -1150 45 0 45 0 0 -124
c0 -135 0 -136 -61 -136 l-29 0 -1 -1030 c0 -566 -1 -1043 -1 -1060 0 -16 1
-194 1 -395 l1 -365 23 0 c12 0 32 -3 45 -6 l22 -6 0 -848 c0 -467 -3 -856 -6
-865 -4 -9 -28 -27 -55 -40 l-48 -25 24 -25 c14 -13 25 -29 25 -35 0 -23 -21
-50 -50 -65 -26 -14 -30 -21 -30 -59 l0 -43 63 -6 c221 -22 248 -21 314 10
l63 28 0 45 c-1 40 -5 47 -33 65 -39 25 -47 63 -17 90 28 25 26 30 -19 43 -21
7 -44 18 -50 25 -8 10 -11 267 -11 902 l0 888 40 18 40 18 -2 1383 -3 1383
-30 0 c-53 0 -56 7 -54 126 l1 109 44 0 44 0 -2 1528 -3 1527 -30 0 c-16 0
-36 4 -42 8 -10 6 -12 152 -10 668 l2 659 -82 0 -83 0 0 -672z m120 -2182 c0
-761 -3 -1391 -6 -1400 -4 -10 -18 -16 -40 -16 l-34 0 0 1394 c0 1320 1 1395
18 1399 9 3 27 5 40 6 l22 1 0 -1384z m0 -3166 l0 -1260 -36 -15 c-20 -8 -38
-15 -40 -15 -2 0 -4 571 -4 1269 0 1201 1 1270 18 1274 9 3 27 5 40 6 l22 1 0
-1260z"/>
</g>
</svg>
