<?xml version="1.0" standalone="no"?>
<!DOCTYPE svg PUBLIC "-//W3C//DTD SVG 20010904//EN"
 "http://www.w3.org/TR/2001/REC-SVG-20010904/DTD/svg10.dtd">
<svg version="1.0" xmlns="http://www.w3.org/2000/svg"
 width="2644.000000pt" height="2800.000000pt" viewBox="0 0 2644.000000 2800.000000"
 preserveAspectRatio="xMidYMid meet">

<g transform="translate(0.000000,2800.000000) scale(0.100000,-0.100000)"
fill="#65340A" stroke="none">
<path d="M8400 16470 c0 -878 0 -890 -20 -890 -23 0 -40 -28 -40 -65 0 -38 17
-65 41 -65 19 0 20 -5 16 -47 -3 -27 -14 -79 -26 -118 -27 -95 -27 -235 0
-330 11 -38 23 -89 26 -112 4 -39 3 -43 -16 -43 -50 0 -53 -121 -3 -128 l22
-3 0 -755 c0 -750 0 -754 -20 -754 -50 0 -51 -121 -2 -128 22 -3 23 -7 19 -50
-3 -26 -15 -81 -27 -122 -28 -99 -24 -264 9 -355 28 -80 28 -123 -1 -127 -47
-7 -50 -112 -3 -124 l25 -6 0 -1034 0 -1034 -32 -20 c-18 -11 -37 -22 -43 -23
-5 -2 -2 -13 8 -25 23 -26 15 -59 -19 -74 -18 -9 -24 -19 -24 -45 0 -32 6 -37
48 -36 6 1 12 -3 12 -8 0 -5 45 -9 100 -9 60 0 100 4 100 10 0 6 12 10 28 10
57 0 72 10 72 46 0 26 -4 34 -18 34 -10 0 -23 5 -30 12 -16 16 -15 60 1 77 7
8 8 15 2 17 -5 2 -25 13 -42 24 l-33 20 0 1030 0 1030 24 9 c27 11 36 29 36
75 0 36 -15 56 -42 56 -25 0 -24 40 3 109 41 110 41 322 -2 420 -26 62 -23
115 8 119 46 7 42 124 -5 130 l-22 3 0 749 0 749 22 3 c47 6 51 123 5 130 -30
4 -33 36 -8 104 43 114 44 314 1 426 -27 72 -26 106 4 117 26 10 36 30 36 67
0 36 -18 64 -40 64 -20 0 -20 12 -20 890 l0 890 -65 0 -65 0 0 -890z m79
-1355 c1 -81 -14 -104 -24 -36 -8 61 3 148 16 116 4 -11 8 -47 8 -80z m0
-2410 c0 -33 -4 -69 -8 -80 -12 -30 -24 64 -15 121 9 63 24 37 23 -41z"/>
</g>
</svg>
