<?xml version="1.0" standalone="no"?>
<!DOCTYPE svg PUBLIC "-//W3C//DTD SVG 20010904//EN"
 "http://www.w3.org/TR/2001/REC-SVG-20010904/DTD/svg10.dtd">
<svg version="1.0" xmlns="http://www.w3.org/2000/svg"
 width="2644.000000pt" height="2800.000000pt" viewBox="0 0 2644.000000 2800.000000"
 preserveAspectRatio="xMidYMid meet">

<g transform="translate(0.000000,2800.000000) scale(0.100000,-0.100000)"
fill="#65340A" stroke="none">
<path d="M2158 14033 l-28 -4 0 -1135 0 -1134 -25 0 c-35 0 -75 -42 -75 -78 0
-42 36 -84 69 -80 25 3 26 0 29 -46 3 -38 -2 -56 -22 -86 -90 -136 -90 -375 0
-512 15 -24 24 -52 24 -78 0 -36 -2 -40 -25 -40 -36 0 -75 -42 -75 -80 0 -38
39 -80 75 -80 l25 0 -2 -887 -3 -887 -34 -7 c-53 -11 -74 -60 -48 -115 14 -29
22 -34 52 -34 l35 0 0 -51 c0 -37 -6 -60 -25 -87 -40 -58 -66 -156 -67 -247 0
-102 15 -164 58 -243 20 -37 34 -77 34 -97 0 -30 -4 -35 -27 -40 -44 -10 -57
-20 -67 -54 -7 -24 -5 -41 7 -67 16 -32 29 -39 70 -35 16 2 17 -60 17 -1191 0
-656 -4 -1198 -8 -1204 -4 -6 -27 -21 -51 -33 l-43 -22 21 -23 c12 -12 21 -29
21 -37 0 -20 -34 -56 -60 -64 -16 -5 -20 -15 -20 -45 0 -47 -5 -45 153 -57
100 -7 115 -6 200 18 l92 26 3 40 c3 37 0 41 -28 53 -41 17 -53 42 -38 74 6
14 15 26 20 26 23 0 3 18 -32 30 -22 7 -45 19 -50 25 -7 8 -9 426 -8 1196 l3
1184 27 5 c66 12 90 80 48 133 -17 21 -27 25 -50 20 -29 -5 -30 -5 -30 37 0
30 9 57 29 90 51 83 64 135 65 250 0 115 -19 187 -69 262 -20 30 -25 49 -23
81 3 38 6 42 38 48 41 9 60 32 60 75 0 41 -27 74 -65 78 l-30 3 -3 885 -2 885
32 7 c47 9 68 33 68 78 0 48 -29 81 -68 76 -25 -3 -27 0 -30 39 -2 32 3 51 23
81 92 139 97 324 14 489 -24 48 -39 92 -39 114 0 35 2 37 38 43 42 6 62 34 62
85 0 35 -37 71 -73 71 l-27 0 0 1135 0 1135 -29 0 c-16 0 -41 2 -57 4 -16 2
-41 2 -56 -1z m90 -2667 c29 -71 39 -178 23 -243 -14 -61 -41 -123 -53 -123
-29 0 -71 179 -61 262 6 60 45 169 57 165 6 -2 21 -29 34 -61z m23 -2939 c14
-78 2 -189 -27 -251 -22 -46 -36 -35 -63 47 -37 119 -34 217 9 314 l22 48 23
-45 c13 -25 29 -76 36 -113z"/>
</g>
</svg>
