<?xml version="1.0" standalone="no"?>
<!DOCTYPE svg PUBLIC "-//W3C//DTD SVG 20010904//EN"
 "http://www.w3.org/TR/2001/REC-SVG-20010904/DTD/svg10.dtd">
<svg version="1.0" xmlns="http://www.w3.org/2000/svg"
 width="2644.000000pt" height="2800.000000pt" viewBox="0 0 2644.000000 2800.000000"
 preserveAspectRatio="xMidYMid meet">

<g transform="translate(0.000000,2800.000000) scale(0.100000,-0.100000)"
fill="#65340A" stroke="none">
<path d="M4498 14633 l-77 -108 -1 -722 c0 -636 -2 -723 -15 -723 -27 0 -55
-38 -55 -76 0 -48 16 -74 45 -74 23 0 25 -4 25 -41 0 -23 -11 -73 -25 -111
-49 -137 -49 -329 0 -452 14 -34 25 -79 25 -99 0 -33 -3 -37 -25 -37 -29 0
-45 -30 -45 -84 0 -35 25 -66 53 -66 16 0 17 -63 17 -855 0 -840 0 -855 -19
-855 -27 0 -51 -37 -51 -78 0 -47 16 -72 46 -72 25 0 26 -2 22 -52 -3 -29 -15
-79 -27 -111 -45 -121 -44 -322 4 -441 31 -78 34 -136 6 -136 -28 0 -51 -38
-51 -82 0 -40 21 -68 51 -68 19 0 19 -15 17 -812 l-3 -813 -47 -25 -48 -26 22
-22 c30 -29 16 -71 -30 -92 -29 -12 -33 -18 -30 -50 l3 -35 120 -9 c118 -8
182 -2 278 24 34 10 37 14 37 45 0 30 -5 37 -34 49 -45 19 -54 50 -27 86 l21
29 -35 11 c-70 23 -65 -42 -65 845 l0 804 23 3 c60 8 69 143 9 150 -25 3 -27
6 -26 48 1 25 14 79 29 120 25 65 28 90 29 190 1 118 -10 181 -46 252 -10 21
-18 58 -18 83 0 41 2 45 25 45 29 0 45 26 45 75 0 49 -16 75 -45 75 l-25 0 0
855 0 855 25 0 c29 0 45 26 45 75 0 50 -15 75 -46 75 -25 0 -26 2 -21 43 3 23
15 68 27 101 51 141 49 325 -6 445 -31 68 -33 141 -5 141 31 0 51 28 51 71 0
53 -15 79 -45 79 l-25 0 -2 831 -3 831 -77 -109z m20 -2100 c-3 -98 -10 -125
-25 -109 -11 11 -10 237 1 261 16 36 28 -41 24 -152z m0 -2734 c-4 -114 -9
-141 -25 -125 -11 10 -10 236 0 261 8 19 9 19 19 1 6 -11 9 -65 6 -137z"/>
</g>
</svg>
