<?xml version="1.0" standalone="no"?>
<!DOCTYPE svg PUBLIC "-//W3C//DTD SVG 20010904//EN"
 "http://www.w3.org/TR/2001/REC-SVG-20010904/DTD/svg10.dtd">
<svg version="1.0" xmlns="http://www.w3.org/2000/svg"
 width="2644.000000pt" height="2800.000000pt" viewBox="0 0 2644.000000 2800.000000"
 preserveAspectRatio="xMidYMid meet">

<g transform="translate(0.000000,2800.000000) scale(0.100000,-0.100000)"
fill="#65340A" stroke="none">
<path d="M5162 15528 l-72 -102 0 -698 c0 -685 0 -698 -19 -698 -26 0 -51 -37
-51 -75 0 -38 26 -76 48 -73 26 4 21 -92 -9 -167 -21 -53 -24 -76 -24 -200 0
-123 3 -147 24 -200 13 -33 25 -81 28 -107 5 -45 4 -47 -24 -50 -23 -2 -30 -9
-37 -41 -13 -49 1 -89 34 -97 l25 -6 3 -837 c2 -824 2 -837 -17 -837 -41 0
-63 -67 -41 -124 7 -19 17 -26 35 -26 23 0 25 -4 25 -41 0 -23 -12 -74 -27
-113 -25 -65 -27 -83 -28 -216 0 -137 2 -149 28 -212 33 -80 34 -143 2 -143
-22 0 -45 -38 -45 -75 0 -34 26 -70 51 -70 19 0 19 -19 19 -1249 0 -1367 5
-1264 -59 -1291 -35 -14 -38 -22 -16 -40 23 -19 18 -56 -11 -79 -15 -12 -33
-21 -40 -21 -22 0 -18 -67 4 -74 9 -2 71 -7 137 -11 98 -5 134 -2 195 13 l75
19 3 36 c3 33 0 38 -25 48 -46 17 -57 57 -27 90 16 18 14 20 -30 38 l-46 20 0
858 c0 472 0 1036 0 1253 l0 395 25 8 c57 19 53 133 -5 147 -32 8 -30 38 5
144 46 138 44 321 -6 437 -12 26 -21 66 -22 90 -1 38 1 44 23 49 60 14 65 130
6 140 l-29 5 0 835 -1 835 21 3 c32 5 46 28 46 77 0 51 -17 78 -44 70 -32 -10
-29 44 7 153 46 136 42 304 -10 432 -15 37 -21 70 -18 98 4 36 7 42 28 42 18
0 26 8 35 39 14 47 -3 92 -39 101 l-23 5 1 798 c0 438 -3 797 -7 797 -5 0 -41
-46 -81 -102z m23 -1943 c8 -69 -1 -192 -15 -200 -17 -10 -28 165 -14 234 10
50 22 36 29 -34z m0 -2680 c8 -61 -2 -202 -15 -210 -18 -11 -27 145 -14 228 9
53 21 46 29 -18z"/>
</g>
</svg>
