<?xml version="1.0" standalone="no"?>
<!DOCTYPE svg PUBLIC "-//W3C//DTD SVG 20010904//EN"
 "http://www.w3.org/TR/2001/REC-SVG-20010904/DTD/svg10.dtd">
<svg version="1.0" xmlns="http://www.w3.org/2000/svg"
 width="2644.000000pt" height="2800.000000pt" viewBox="0 0 2644.000000 2800.000000"
 preserveAspectRatio="xMidYMid meet">

<g transform="translate(0.000000,2800.000000) scale(0.100000,-0.100000)"
fill="#65340A" stroke="none">
<path d="M7305 17440 c-2 -3 -4 -409 -4 -901 0 -492 0 -902 -1 -912 0 -10 -11
-22 -25 -27 -48 -18 -44 -118 5 -130 21 -5 25 -11 23 -43 -1 -20 -12 -67 -25
-105 -20 -57 -23 -86 -23 -197 1 -110 4 -140 24 -195 36 -100 35 -114 -4 -136
-45 -25 -44 -108 3 -129 26 -12 24 73 24 -805 -1 -851 2 -770 -22 -770 -49 0
-49 -118 -1 -130 33 -8 34 -45 3 -140 -36 -110 -41 -259 -12 -360 12 -41 24
-99 27 -127 4 -49 3 -53 -16 -53 -49 0 -51 -118 -3 -130 l23 -5 0 -960 c0
-528 0 -1011 0 -1073 l-1 -112 -44 -21 c-42 -21 -43 -22 -25 -40 11 -11 19
-26 19 -34 0 -17 -35 -55 -50 -55 -6 0 -10 -18 -10 -40 l0 -40 43 0 c23 0 74
-3 112 -6 40 -3 100 1 140 9 70 13 70 13 73 48 2 29 -2 37 -28 51 -34 19 -40
51 -14 80 16 17 15 19 -19 33 -20 8 -38 19 -41 23 -6 10 -7 271 -6 1414 l0
737 22 3 c47 7 45 128 -2 128 -17 0 -20 6 -20 38 0 20 10 66 21 102 13 41 23
103 26 170 4 88 1 117 -17 180 -13 41 -25 99 -27 127 -5 49 -3 53 20 62 47 18
43 131 -4 131 -18 0 -19 23 -19 778 l0 777 22 10 c46 20 44 120 -2 132 -28 7
-28 48 -1 128 36 107 40 246 11 355 -13 47 -25 108 -27 137 -4 48 -3 52 18 55
48 7 47 122 -1 130 l-21 3 1 917 0 916 -27 6 c-35 8 -112 5 -118 -4z m85
-2312 c0 -85 -7 -118 -21 -96 -10 16 -12 182 -2 191 14 15 23 -21 23 -95z m-1
-2494 c1 -78 -9 -131 -20 -112 -10 15 -12 152 -2 187 6 23 7 23 14 5 4 -10 8
-47 8 -80z"/>
</g>
</svg>
