<?xml version="1.0" standalone="no"?>
<!DOCTYPE svg PUBLIC "-//W3C//DTD SVG 20010904//EN"
 "http://www.w3.org/TR/2001/REC-SVG-20010904/DTD/svg10.dtd">
<svg version="1.0" xmlns="http://www.w3.org/2000/svg"
 width="2644.000000pt" height="2800.000000pt" viewBox="0 0 2644.000000 2800.000000"
 preserveAspectRatio="xMidYMid meet">

<g transform="translate(0.000000,2800.000000) scale(0.100000,-0.100000)"
fill="#65340A" stroke="none">
<path d="M7860 16496 l0 -905 -22 -3 c-49 -7 -46 -128 3 -128 19 0 20 -4 16
-52 -3 -29 -14 -84 -26 -123 -27 -94 -27 -226 0 -320 12 -38 23 -91 26 -117 4
-43 3 -47 -18 -50 -49 -7 -48 -128 1 -128 20 0 20 -4 20 -770 0 -672 -2 -770
-15 -770 -8 0 -22 -12 -31 -26 -24 -35 -9 -98 24 -102 19 -3 22 -9 22 -46 0
-24 -10 -69 -22 -102 -18 -49 -22 -81 -22 -194 -1 -116 2 -143 22 -195 12 -32
22 -76 22 -96 0 -31 -4 -38 -22 -41 -33 -4 -48 -67 -24 -102 9 -14 23 -26 31
-26 13 0 15 -131 15 -1055 l0 -1055 -44 -21 c-42 -21 -43 -22 -25 -40 26 -26
24 -43 -11 -72 -21 -18 -30 -35 -30 -55 0 -32 -13 -28 173 -48 26 -3 62 -1 80
4 17 6 49 13 70 17 34 5 37 8 37 41 0 27 -5 36 -24 43 -21 9 -36 29 -36 52 0
5 9 18 20 29 l20 20 -27 10 c-16 6 -35 14 -43 19 -13 7 -15 138 -18 1064 l-2
1056 22 3 c49 7 47 128 -2 128 -27 0 -26 45 1 125 33 94 37 268 9 365 -12 41
-24 96 -27 122 -4 43 -3 47 18 50 48 7 51 110 4 128 l-25 10 0 760 0 760 24 9
c26 10 36 30 36 67 0 37 -18 64 -41 64 -19 0 -20 5 -16 43 3 23 15 74 26 112
27 96 27 244 0 340 -12 39 -23 91 -26 117 -4 43 -3 47 19 50 49 7 48 128 -2
128 -20 0 -20 3 -20 905 l0 905 -70 0 -70 0 0 -904z m80 -1371 c0 -57 -4 -95
-10 -95 -6 0 -10 38 -10 95 0 57 4 95 10 95 6 0 10 -38 10 -95z m0 -2460 c0
-57 -4 -95 -10 -95 -11 0 -14 172 -3 183 12 13 13 7 13 -88z"/>
</g>
</svg>
