<?xml version="1.0" standalone="no"?>
<!DOCTYPE svg PUBLIC "-//W3C//DTD SVG 20010904//EN"
 "http://www.w3.org/TR/2001/REC-SVG-20010904/DTD/svg10.dtd">
<svg version="1.0" xmlns="http://www.w3.org/2000/svg"
 width="2644.000000pt" height="2800.000000pt" viewBox="0 0 2644.000000 2800.000000"
 preserveAspectRatio="xMidYMid meet">

<g transform="translate(0.000000,2800.000000) scale(0.100000,-0.100000)"
fill="#65340A" stroke="none">
<path d="M15968 13982 l-78 -3 0 -1315 0 -1314 -24 -9 c-29 -11 -36 -29 -36
-87 0 -55 14 -84 40 -84 28 0 27 -56 -2 -163 -20 -71 -23 -106 -23 -272 0
-168 3 -199 23 -268 28 -100 29 -147 2 -147 -27 0 -40 -30 -40 -92 0 -60 6
-74 35 -79 20 -4 20 -12 20 -994 0 -779 -3 -989 -12 -988 -25 5 -44 -43 -41
-103 3 -53 6 -60 31 -72 22 -11 27 -20 27 -51 0 -20 -6 -60 -14 -87 -44 -152
-48 -440 -7 -564 11 -36 21 -84 21 -107 0 -36 -3 -43 -20 -43 -27 0 -40 -30
-40 -92 0 -60 6 -74 35 -79 20 -4 20 -13 23 -1269 1 -696 0 -1275 -3 -1288 -3
-13 -27 -35 -56 -53 l-50 -31 20 -20 c21 -19 27 -54 13 -73 -4 -6 -21 -21 -38
-32 -26 -19 -30 -27 -28 -63 1 -22 3 -43 5 -45 2 -2 74 -9 159 -15 l156 -12
62 31 62 31 0 50 c0 38 -4 50 -15 50 -23 0 -55 37 -55 65 0 14 9 34 20 45 11
11 20 22 20 23 0 2 -18 9 -40 16 -77 23 -70 -103 -70 1323 0 1244 1 1280 19
1285 51 13 58 168 7 175 -18 3 -21 9 -20 53 0 28 9 84 20 125 15 60 18 111 18
255 0 158 -3 188 -22 245 -12 36 -22 89 -22 118 0 46 2 52 20 52 27 0 42 40
38 104 -3 44 -7 53 -30 64 l-28 13 0 985 c0 981 0 984 20 984 25 0 40 35 40
91 0 50 -15 79 -40 79 -27 0 -27 53 2 156 30 110 32 405 4 504 -10 36 -21 93
-23 128 -4 58 -3 62 16 62 26 0 41 34 41 90 0 52 -8 70 -36 81 l-24 8 -2 1313
-3 1313 -77 -3z"/>
</g>
</svg>
