<?xml version="1.0" standalone="no"?>
<!DOCTYPE svg PUBLIC "-//W3C//DTD SVG 20010904//EN"
 "http://www.w3.org/TR/2001/REC-SVG-20010904/DTD/svg10.dtd">
<svg version="1.0" xmlns="http://www.w3.org/2000/svg"
 width="2644.000000pt" height="2800.000000pt" viewBox="0 0 2644.000000 2800.000000"
 preserveAspectRatio="xMidYMid meet">

<g transform="translate(0.000000,2800.000000) scale(0.100000,-0.100000)"
fill="#65340A" stroke="none">
<path d="M21590 27172 l0 -829 -30 0 c-73 0 -107 -93 -54 -146 14 -14 39 -32
55 -39 24 -10 29 -19 29 -46 0 -20 -10 -47 -24 -65 -58 -78 -87 -169 -88 -276
-1 -111 27 -198 87 -269 20 -24 25 -41 25 -85 l0 -55 -30 11 c-26 10 -32 8
-55 -13 -52 -49 -26 -127 55 -160 l30 -12 0 -919 0 -919 -33 0 c-73 0 -105
-95 -50 -146 15 -14 40 -28 55 -31 25 -5 28 -10 28 -44 0 -26 -10 -52 -30 -83
-113 -167 -111 -384 4 -535 20 -28 26 -46 26 -88 0 -49 -10 -67 -25 -43 -11
18 -43 10 -64 -16 -30 -39 -28 -97 4 -123 14 -11 39 -23 56 -26 l29 -7 -2
-1426 -3 -1427 -40 -20 c-22 -11 -42 -21 -43 -22 -2 -1 6 -14 18 -30 18 -25
19 -33 9 -55 -6 -14 -22 -31 -35 -37 -13 -6 -24 -19 -24 -30 0 -19 7 -19 188
-14 103 2 193 7 201 9 10 3 5 11 -17 24 -43 26 -51 64 -22 95 l23 24 -45 20
c-25 10 -48 27 -52 36 -3 9 -6 658 -6 1441 l0 1424 35 0 c46 0 85 37 85 80 0
39 -45 88 -89 96 -43 9 -41 44 10 119 59 89 83 176 76 283 -6 112 -18 148 -72
227 -40 58 -45 71 -45 121 0 50 2 55 18 49 41 -17 52 -16 76 9 40 39 36 86
-11 126 -21 17 -48 33 -61 36 l-22 6 2 917 3 916 37 3 c45 4 78 40 78 85 0 35
-66 107 -99 107 -31 0 -27 38 9 88 17 22 43 69 58 104 23 56 26 76 27 178 0
128 -12 168 -80 260 -30 41 -35 55 -35 105 0 50 2 56 18 50 41 -17 52 -16 76
9 53 52 25 126 -61 162 l-33 14 0 815 0 815 -75 0 -75 0 0 -828z m148 -1219
c51 -113 40 -271 -29 -388 -18 -31 -26 -36 -53 -33 -83 8 -120 232 -62 373 30
72 58 105 89 105 24 0 32 -7 55 -57z m-1 -2990 c26 -53 28 -68 28 -168 0 -106
-1 -113 -35 -180 -57 -113 -104 -107 -146 18 -25 72 -22 194 5 267 34 91 56
120 90 120 26 0 33 -7 58 -57z"/>
</g>
</svg>
