<?xml version="1.0" standalone="no"?>
<!DOCTYPE svg PUBLIC "-//W3C//DTD SVG 20010904//EN"
 "http://www.w3.org/TR/2001/REC-SVG-20010904/DTD/svg10.dtd">
<svg version="1.0" xmlns="http://www.w3.org/2000/svg"
 width="2644.000000pt" height="2800.000000pt" viewBox="0 0 2644.000000 2800.000000"
 preserveAspectRatio="xMidYMid meet">

<g transform="translate(0.000000,2800.000000) scale(0.100000,-0.100000)"
fill="#65340A" stroke="none">
<path d="M23944 27948 c15 -62 33 -99 75 -152 26 -33 31 -47 31 -93 0 -50 -1
-53 -19 -43 -32 17 -58 12 -80 -16 -21 -26 -28 -79 -13 -99 10 -15 74 -60 94
-68 17 -6 17 -62 15 -934 l-3 -928 -36 -6 c-62 -10 -95 -54 -82 -111 7 -32 77
-90 98 -82 9 3 16 -7 20 -28 5 -25 2 -39 -14 -58 -37 -46 -80 -139 -96 -207
-30 -129 -5 -255 73 -369 29 -43 41 -70 42 -101 2 -40 -11 -64 -24 -43 -3 5
-19 10 -36 10 -22 0 -34 -8 -49 -32 -37 -61 -19 -104 58 -141 l46 -22 0 -1437
c-1 -1096 -4 -1441 -13 -1452 -6 -7 -26 -20 -44 -27 -43 -17 -42 -16 -25 -36
32 -35 26 -79 -12 -101 -45 -25 -37 -34 28 -28 31 3 110 8 175 12 86 4 116 9
108 17 -17 17 -13 55 9 77 20 20 20 20 -11 35 -16 9 -39 25 -50 36 -19 19 -19
46 -19 1474 l0 1455 35 0 c49 0 85 36 85 86 0 45 -53 104 -94 104 -38 0 -34
37 13 110 56 87 82 170 82 268 0 118 -28 199 -98 285 -18 23 -23 41 -23 88 0
45 3 59 14 59 8 0 18 -4 21 -10 10 -17 35 -11 60 15 38 37 34 92 -7 132 -18
17 -45 33 -60 37 l-28 6 0 514 c0 282 3 702 7 934 l6 422 28 0 c15 0 35 3 44
6 25 10 48 62 40 93 -9 36 -64 91 -92 91 -19 0 -23 5 -23 29 0 15 9 40 20 54
29 37 80 149 87 191 l6 36 -44 0 c-44 0 -44 0 -62 -50 -29 -83 -55 -118 -90
-126 -25 -5 -34 -2 -49 16 -18 23 -48 110 -48 142 0 15 -8 18 -44 18 l-44 0
12 -52z m234 -2710 c36 -59 55 -145 49 -222 -7 -89 -19 -129 -57 -189 -26 -41
-34 -47 -65 -47 -30 0 -37 5 -53 38 -48 94 -58 208 -26 305 44 138 109 186
152 115z"/>
</g>
</svg>
