<?xml version="1.0" standalone="no"?>
<!DOCTYPE svg PUBLIC "-//W3C//DTD SVG 20010904//EN"
 "http://www.w3.org/TR/2001/REC-SVG-20010904/DTD/svg10.dtd">
<svg version="1.0" xmlns="http://www.w3.org/2000/svg"
 width="2644.000000pt" height="2800.000000pt" viewBox="0 0 2644.000000 2800.000000"
 preserveAspectRatio="xMidYMid meet">

<g transform="translate(0.000000,2800.000000) scale(0.100000,-0.100000)"
fill="#65340A" stroke="none">
<path d="M25300 27386 l0 -613 -39 -7 c-66 -10 -99 -73 -70 -129 17 -32 61
-66 87 -67 35 0 30 -56 -12 -119 -117 -173 -114 -400 5 -552 24 -31 29 -46 29
-95 0 -45 -3 -55 -12 -46 -37 37 -108 -10 -108 -71 0 -35 66 -107 99 -107 l21
0 0 -929 c0 -1017 4 -944 -59 -971 -35 -14 -38 -22 -16 -40 20 -16 19 -64 0
-80 -22 -18 -3 -35 23 -21 11 6 45 11 74 11 29 0 83 3 121 7 61 5 67 8 67 29
0 13 9 30 21 38 21 14 20 15 -30 51 l-51 37 0 944 0 944 38 0 c50 0 82 32 82
83 0 49 -49 107 -91 107 -24 0 -29 4 -29 26 0 14 14 45 31 70 126 183 125 407
-1 566 -26 32 -30 45 -30 97 0 56 10 76 25 51 11 -18 51 -10 74 14 36 38 32
88 -9 131 -18 19 -46 37 -62 40 l-28 7 0 604 0 604 -75 0 -75 0 0 -614z m156
-1022 c54 -110 42 -281 -27 -389 -27 -43 -32 -46 -67 -43 -34 3 -39 8 -64 56
-60 118 -46 270 36 399 17 27 27 33 58 33 35 0 38 -3 64 -56z"/>
</g>
</svg>
