<?xml version="1.0" standalone="no"?>
<!DOCTYPE svg PUBLIC "-//W3C//DTD SVG 20010904//EN"
 "http://www.w3.org/TR/2001/REC-SVG-20010904/DTD/svg10.dtd">
<svg version="1.0" xmlns="http://www.w3.org/2000/svg"
 width="2644.000000pt" height="2800.000000pt" viewBox="0 0 2644.000000 2800.000000"
 preserveAspectRatio="xMidYMid meet">

<g transform="translate(0.000000,2800.000000) scale(0.100000,-0.100000)"
fill="#65340A" stroke="none">
<path d="M14259 13773 c0 -115 -1 -698 -2 -1298 -2 -1083 -2 -1090 -22 -1090
-14 0 -24 -11 -34 -42 -20 -57 -6 -113 32 -131 34 -17 35 -37 3 -164 -46 -180
-44 -385 5 -535 25 -78 23 -138 -6 -138 -28 0 -49 -66 -38 -120 6 -30 14 -40
33 -45 l25 -6 3 -972 c2 -838 0 -972 -12 -972 -25 0 -43 -27 -50 -74 -9 -56 9
-100 42 -104 18 -3 22 -10 22 -40 0 -20 -9 -69 -19 -108 -48 -180 -50 -376 -5
-533 29 -100 29 -154 -1 -160 -26 -4 -32 -15 -39 -66 -9 -54 6 -93 36 -97 l23
-3 2 -1249 c3 -1393 9 -1277 -68 -1317 l-41 -20 21 -23 c35 -37 24 -78 -30
-106 -15 -8 -19 -22 -19 -59 l0 -49 125 -7 c69 -4 128 -11 131 -16 10 -16 35
-10 110 28 l74 36 0 46 c0 42 -3 47 -33 61 -41 19 -49 68 -17 100 l20 20 -25
10 c-15 6 -30 10 -35 10 -5 0 -18 10 -30 22 -20 22 -20 28 -20 1275 l0 1253
24 9 c29 11 36 29 36 87 0 55 -14 84 -40 84 -27 0 -26 44 2 146 19 68 22 106
22 269 0 170 -2 197 -22 255 -12 36 -22 86 -22 113 0 41 3 47 20 47 26 0 40
36 40 98 0 54 -7 68 -35 73 -20 4 -20 13 -23 972 l-2 967 24 9 c29 11 36 29
36 87 0 55 -14 84 -41 84 -19 0 -20 5 -16 48 2 26 14 90 26 142 30 135 30 336
-1 446 -12 43 -22 106 -22 139 -1 54 1 60 20 63 24 3 34 27 34 84 0 49 -8 68
-36 79 l-24 9 0 1290 0 1290 -80 0 -80 0 -1 -207z"/>
</g>
</svg>
