<?xml version="1.0" standalone="no"?>
<!DOCTYPE svg PUBLIC "-//W3C//DTD SVG 20010904//EN"
 "http://www.w3.org/TR/2001/REC-SVG-20010904/DTD/svg10.dtd">
<svg version="1.0" xmlns="http://www.w3.org/2000/svg"
 width="2644.000000pt" height="2800.000000pt" viewBox="0 0 2644.000000 2800.000000"
 preserveAspectRatio="xMidYMid meet">

<g transform="translate(0.000000,2800.000000) scale(0.100000,-0.100000)"
fill="#65340A" stroke="none">
<path d="M19282 26054 l-52 -46 0 -948 c0 -845 -2 -949 -15 -944 -21 8 -74
-15 -85 -37 -13 -24 -13 -65 1 -91 6 -11 31 -29 55 -39 38 -17 44 -24 44 -51
0 -17 -13 -52 -29 -77 -61 -95 -75 -146 -76 -271 0 -104 2 -120 27 -172 15
-32 38 -73 52 -91 20 -26 26 -46 26 -85 0 -48 -10 -66 -25 -42 -22 36 -85 -20
-85 -76 0 -39 19 -60 71 -81 l39 -15 0 -907 0 -906 -37 -1 c-44 -1 -73 -32
-73 -78 0 -44 22 -70 69 -85 38 -11 41 -14 41 -49 0 -25 -12 -55 -36 -92 -100
-157 -98 -364 5 -513 24 -35 31 -56 31 -92 l0 -46 -34 6 c-28 6 -36 3 -55 -20
-26 -34 -27 -86 -2 -109 10 -9 35 -21 55 -27 l36 -10 0 -1394 c0 -1376 0
-1395 -20 -1415 -11 -11 -31 -22 -45 -26 -29 -7 -31 -16 -10 -34 31 -26 6
-100 -33 -100 -7 0 -12 -14 -12 -33 l0 -33 188 3 c103 2 193 6 200 8 22 8 13
34 -18 50 -40 21 -49 58 -22 95 l21 28 -23 6 c-12 3 -35 15 -49 27 l-27 20 0
1405 0 1404 38 0 c44 0 69 21 78 66 8 39 -22 76 -75 94 -36 12 -41 17 -41 43
0 17 11 44 24 61 116 153 120 383 10 539 -28 39 -34 56 -34 98 l0 51 34 -6
c38 -7 60 8 77 52 16 42 -5 77 -62 101 l-49 22 2 907 3 907 26 -3 c42 -5 83
37 82 82 -1 45 -12 59 -69 86 -52 26 -58 53 -19 104 116 152 118 396 5 538
-25 31 -30 46 -30 93 l0 57 39 -7 c35 -6 41 -4 57 20 28 43 23 84 -17 117 -19
16 -44 31 -57 35 l-22 5 0 964 c1 531 -2 969 -5 974 -3 5 -14 14 -24 19 -14 8
-28 0 -69 -35z m82 -2312 c55 -108 53 -240 -5 -359 -46 -95 -78 -95 -119 0
-47 106 -36 258 26 365 35 60 65 58 98 -6z m-2 -2942 c60 -118 58 -237 -4
-360 -52 -103 -83 -93 -129 41 -29 89 -24 200 15 284 51 112 76 120 118 35z"/>
</g>
</svg>
