<?xml version="1.0" standalone="no"?>
<!DOCTYPE svg PUBLIC "-//W3C//DTD SVG 20010904//EN"
 "http://www.w3.org/TR/2001/REC-SVG-20010904/DTD/svg10.dtd">
<svg version="1.0" xmlns="http://www.w3.org/2000/svg"
 width="3542.000000pt" height="3750.000000pt" viewBox="0 0 3542.000000 3750.000000"
 preserveAspectRatio="xMidYMid meet">

<g transform="translate(0.000000,3750.000000) scale(0.100000,-0.100000)"
fill="#C5C3C1" stroke="none">
<path d="M20930 18678 c0 -35 -1 -881 -1 -1880 l-1 -1818 -24 0 c-36 0 -64
-37 -64 -85 0 -50 22 -83 58 -87 41 -5 42 -53 2 -140 -75 -161 -75 -396 0
-524 41 -72 37 -134 -9 -134 -33 0 -51 -31 -51 -89 0 -42 23 -71 58 -71 12 0
22 -3 22 -7 4 -91 10 -3752 6 -3768 -4 -15 -22 -29 -58 -44 l-51 -21 22 -21
c33 -31 25 -68 -22 -98 -34 -22 -38 -29 -35 -60 l3 -36 113 -19 c110 -19 117
-19 228 -2 l114 18 0 42 c0 38 -3 44 -34 59 -45 21 -54 51 -26 88 l21 30 -44
19 c-25 11 -48 27 -51 36 -6 15 -7 444 -6 2801 0 854 2 992 14 987 25 -10 55
15 67 57 10 33 10 45 -4 74 -14 29 -22 35 -47 35 -28 0 -30 2 -30 39 0 21 11
63 25 94 71 155 72 376 1 515 -18 35 -26 67 -26 101 0 49 1 50 33 53 27 3 34
9 46 43 12 35 11 45 -2 78 -14 31 -21 37 -46 37 l-31 0 0 1880 0 1880 -85 0
-85 0 0 -62z m117 -4223 c6 -83 -18 -235 -37 -235 -15 0 -35 104 -34 180 0 67
17 168 32 195 11 19 33 -60 39 -140z"/>
</g>
</svg>
