<?xml version="1.0" standalone="no"?>
<!DOCTYPE svg PUBLIC "-//W3C//DTD SVG 20010904//EN"
 "http://www.w3.org/TR/2001/REC-SVG-20010904/DTD/svg10.dtd">
<svg version="1.0" xmlns="http://www.w3.org/2000/svg"
 width="3542.000000pt" height="3750.000000pt" viewBox="0 0 3542.000000 3750.000000"
 preserveAspectRatio="xMidYMid meet">

<g transform="translate(0.000000,3750.000000) scale(0.100000,-0.100000)"
fill="#C5C3C1" stroke="none">
<path d="M26450 18478 c0 -134 -1 -1003 -3 -1933 l-2 -1690 -39 -6 c-21 -3
-42 -12 -47 -20 -40 -61 -9 -144 53 -144 32 0 33 -1 36 -48 2 -35 -3 -56 -17
-75 -109 -156 -114 -390 -12 -577 15 -27 29 -64 29 -81 2 -29 -1 -32 -35 -39
-49 -9 -61 -20 -69 -61 -11 -61 28 -114 84 -114 16 0 17 -115 19 -1942 2
-1069 -1 -1948 -5 -1954 -4 -6 -29 -21 -56 -33 l-49 -21 22 -24 c31 -33 24
-66 -21 -95 -34 -22 -38 -29 -38 -66 l0 -41 138 -18 c132 -17 141 -17 232 1
l95 18 3 48 c2 35 0 47 -11 47 -24 0 -67 40 -67 63 0 11 10 31 22 44 l21 23
-45 20 c-25 11 -50 26 -56 33 -8 10 -11 545 -9 1953 l2 1939 39 6 c52 8 69 32
63 87 -6 55 -31 84 -71 80 -29 -3 -31 -1 -34 33 -2 26 7 55 37 110 53 97 75
192 67 284 -9 101 -33 182 -72 248 -26 45 -33 67 -31 100 2 33 6 42 22 45 51
7 62 13 73 37 29 64 -7 135 -68 135 l-30 0 0 1935 0 1935 -85 0 -85 0 0 -242z
m108 -4025 c34 -81 45 -150 39 -233 -6 -74 -40 -190 -56 -190 -11 0 -49 88
-61 140 -12 58 -12 143 1 200 13 60 40 130 49 130 4 0 17 -21 28 -47z"/>
</g>
</svg>
