<?xml version="1.0" standalone="no"?>
<!DOCTYPE svg PUBLIC "-//W3C//DTD SVG 20010904//EN"
 "http://www.w3.org/TR/2001/REC-SVG-20010904/DTD/svg10.dtd">
<svg version="1.0" xmlns="http://www.w3.org/2000/svg"
 width="3542.000000pt" height="3750.000000pt" viewBox="0 0 3542.000000 3750.000000"
 preserveAspectRatio="xMidYMid meet">

<g transform="translate(0.000000,3750.000000) scale(0.100000,-0.100000)"
fill="#C5C3C1" stroke="none">
<path d="M27488 16749 l-3 -1964 -30 -3 c-16 -2 -37 -10 -47 -19 -56 -50 -8
-168 61 -150 19 5 21 1 21 -50 0 -40 -6 -63 -21 -84 -46 -65 -72 -150 -77
-254 -5 -119 11 -195 63 -300 21 -42 35 -85 35 -107 0 -35 -2 -37 -37 -40 -33
-3 -41 -8 -56 -40 -32 -65 2 -128 67 -128 l26 0 2 -1142 c0 -629 2 -1514 3
-1968 2 -674 0 -829 -11 -847 -7 -11 -34 -29 -59 -39 -45 -17 -46 -17 -27 -38
11 -12 22 -26 26 -33 11 -19 -15 -61 -45 -74 -26 -10 -29 -16 -29 -55 0 -51
-10 -46 160 -69 103 -14 122 -14 195 0 121 24 115 21 115 69 0 39 -3 45 -30
56 -54 22 -65 67 -25 104 l24 22 -50 18 c-27 10 -54 26 -59 36 -6 12 -9 740
-9 1984 l1 1966 28 0 c15 0 39 9 54 21 31 24 35 73 11 119 -13 26 -21 30 -55
30 l-40 0 0 41 c0 30 10 58 35 99 41 68 75 189 75 270 0 78 -33 201 -75 277
-23 43 -35 77 -35 103 0 39 1 40 40 46 49 8 70 34 70 87 0 48 -35 87 -80 87
l-30 0 0 1960 c0 1860 -1 1960 -17 1960 -10 0 -51 3 -90 6 l-73 6 -2 -1963z
m133 -2404 c33 -92 37 -216 10 -301 -28 -92 -37 -105 -56 -80 -31 40 -57 146
-57 227 0 92 7 126 35 192 24 58 36 52 68 -38z"/>
</g>
</svg>
