<?xml version="1.0" standalone="no"?>
<!DOCTYPE svg PUBLIC "-//W3C//DTD SVG 20010904//EN"
 "http://www.w3.org/TR/2001/REC-SVG-20010904/DTD/svg10.dtd">
<svg version="1.0" xmlns="http://www.w3.org/2000/svg"
 width="3542.000000pt" height="3750.000000pt" viewBox="0 0 3542.000000 3750.000000"
 preserveAspectRatio="xMidYMid meet">

<g transform="translate(0.000000,3750.000000) scale(0.100000,-0.100000)"
fill="#C5C3C1" stroke="none">
<path d="M32010 16571 l0 -2078 -42 -6 c-54 -7 -78 -35 -78 -92 0 -60 36 -99
85 -89 l35 6 0 -55 c0 -39 -6 -61 -20 -80 -33 -42 -77 -138 -89 -195 -32 -151
4 -331 90 -454 24 -33 25 -93 3 -102 -9 -3 -27 -6 -40 -6 -39 0 -64 -33 -64
-84 0 -59 31 -97 80 -99 l35 -2 2 -2093 c2 -1225 -1 -2101 -6 -2111 -5 -9 -32
-25 -60 -35 -28 -10 -51 -20 -51 -22 0 -1 12 -15 26 -29 19 -19 23 -31 18 -48
-9 -31 -32 -54 -60 -61 -21 -6 -24 -12 -24 -55 0 -56 -24 -47 192 -77 114 -16
118 -16 212 6 l96 22 0 48 c0 44 -3 49 -30 60 -52 21 -67 76 -30 107 11 10 20
21 20 24 0 4 -20 15 -45 25 -25 9 -51 26 -56 36 -7 13 -10 291 -10 811 0 436
1 1376 1 2090 l0 1297 35 0 c74 0 108 77 65 148 -17 27 -25 32 -60 32 l-40 0
0 51 c0 37 6 58 24 82 58 78 86 163 91 277 4 113 -14 193 -69 297 -34 63 -46
96 -46 128 0 45 10 55 54 55 32 0 57 31 63 77 7 54 -33 103 -83 103 l-34 0 0
2085 0 2085 -95 0 -95 0 0 -2079z m140 -2549 c29 -76 41 -155 35 -222 -6 -60
-39 -164 -61 -195 -13 -17 -16 -18 -30 -3 -27 27 -66 150 -71 228 -6 88 7 163
43 240 l26 55 18 -23 c10 -13 29 -49 40 -80z"/>
</g>
</svg>
