<?xml version="1.0" standalone="no"?>
<!DOCTYPE svg PUBLIC "-//W3C//DTD SVG 20010904//EN"
 "http://www.w3.org/TR/2001/REC-SVG-20010904/DTD/svg10.dtd">
<svg version="1.0" xmlns="http://www.w3.org/2000/svg"
 width="3542.000000pt" height="3750.000000pt" viewBox="0 0 3542.000000 3750.000000"
 preserveAspectRatio="xMidYMid meet">

<g transform="translate(0.000000,3750.000000) scale(0.100000,-0.100000)"
fill="#C5C3C1" stroke="none">
<path d="M7628 18552 l-48 -3 0 -2310 0 -2309 -28 0 c-59 0 -109 -65 -97 -129
10 -52 40 -81 87 -81 l38 0 0 -54 c0 -44 -7 -68 -39 -128 -64 -117 -85 -210
-79 -348 5 -101 9 -124 37 -190 18 -41 46 -96 62 -122 25 -38 30 -55 27 -95
-3 -44 -5 -48 -28 -46 -67 5 -100 -30 -100 -107 0 -52 30 -84 88 -93 l42 -7 0
-2318 c-1 -1819 -3 -2320 -13 -2333 -7 -9 -36 -27 -65 -39 -28 -12 -52 -26
-52 -30 0 -4 9 -15 20 -25 25 -23 26 -76 2 -98 -9 -8 -29 -20 -45 -26 -25 -10
-27 -15 -27 -64 l0 -53 116 -26 116 -26 164 26 164 26 0 58 c0 52 -2 58 -20
58 -30 0 -70 44 -70 76 0 16 11 39 25 54 l26 27 -60 23 c-48 20 -60 29 -68 54
-7 23 -10 4591 -4 4649 1 4 14 7 30 7 43 0 60 9 76 41 39 75 3 159 -70 159
-19 0 -35 3 -36 8 0 4 -2 21 -4 38 -3 23 7 53 36 109 72 136 83 182 84 335 0
153 -17 221 -81 317 -29 45 -34 61 -34 113 l0 60 38 0 c45 0 68 20 83 74 12
44 -3 101 -31 116 -18 9 -51 18 -77 19 -10 1 -13 470 -13 2311 l0 2311 -62 -3
c-35 -2 -84 -4 -110 -6z m112 -5132 c31 -92 36 -197 16 -299 -16 -78 -49 -165
-66 -176 -26 -16 -80 164 -80 268 0 73 29 196 60 257 27 53 39 44 70 -50z"/>
</g>
</svg>
