<?xml version="1.0" standalone="no"?>
<!DOCTYPE svg PUBLIC "-//W3C//DTD SVG 20010904//EN"
 "http://www.w3.org/TR/2001/REC-SVG-20010904/DTD/svg10.dtd">
<svg version="1.0" xmlns="http://www.w3.org/2000/svg"
 width="3542.000000pt" height="3750.000000pt" viewBox="0 0 3542.000000 3750.000000"
 preserveAspectRatio="xMidYMid meet">

<g transform="translate(0.000000,3750.000000) scale(0.100000,-0.100000)"
fill="#C5C3C1" stroke="none">
<path d="M10020 16355 l0 -2235 -26 0 c-36 0 -61 -16 -79 -50 -20 -39 -19 -79
5 -117 17 -28 25 -33 60 -33 l40 0 0 -55 c0 -41 -7 -65 -28 -102 -46 -78 -72
-161 -87 -274 -14 -103 35 -295 95 -377 15 -20 23 -49 26 -86 l4 -56 -39 0
c-47 0 -67 -17 -81 -70 -14 -54 7 -107 47 -115 15 -4 37 -10 49 -15 l20 -8 0
-2233 c-1 -1471 -4 -2240 -11 -2250 -5 -9 -37 -28 -69 -42 -56 -23 -58 -25
-37 -36 56 -30 42 -109 -23 -131 -34 -11 -35 -12 -33 -63 l2 -52 119 -24 119
-24 151 24 151 25 3 51 c3 46 1 52 -20 58 -66 20 -89 87 -44 128 l24 23 -26
12 c-15 6 -41 16 -59 22 -17 6 -34 18 -37 26 -6 16 -7 102 -6 2651 l0 1862 30
-1 c68 -2 108 79 74 149 -16 33 -25 39 -59 43 -39 5 -40 6 -43 49 -3 33 4 57
27 100 68 129 87 211 84 358 -2 107 -35 213 -93 298 -14 21 -20 46 -20 88 l0
57 40 0 c47 0 70 27 77 93 7 56 -22 94 -78 103 l-39 7 0 2228 0 2229 -105 0
-105 0 0 -2235z m135 -2687 c45 -110 54 -209 30 -323 -17 -83 -52 -175 -65
-175 -8 0 -27 47 -50 123 -20 64 -19 187 1 268 20 80 48 149 59 149 5 0 16
-19 25 -42z"/>
</g>
</svg>
