<?xml version="1.0" standalone="no"?>
<!DOCTYPE svg PUBLIC "-//W3C//DTD SVG 20010904//EN"
 "http://www.w3.org/TR/2001/REC-SVG-20010904/DTD/svg10.dtd">
<svg version="1.0" xmlns="http://www.w3.org/2000/svg"
 width="2551.000000pt" height="2701.000000pt" viewBox="0 0 2551.000000 2701.000000"
 preserveAspectRatio="xMidYMid meet">

<g transform="translate(0.000000,2701.000000) scale(0.100000,-0.100000)"
fill="#C5C3C1" stroke="none">
<path d="M4738 12532 l-57 -47 0 -1537 -1 -1538 -26 0 c-36 0 -84 -50 -84 -88
0 -58 64 -104 98 -70 9 9 12 -1 12 -45 0 -49 -5 -63 -34 -101 -47 -62 -77
-158 -77 -246 0 -93 21 -163 71 -237 25 -39 40 -72 40 -92 0 -28 -3 -31 -29
-31 -39 0 -81 -49 -81 -95 0 -40 38 -75 81 -75 l29 0 1 -1557 c1 -2904 3
-2763 -36 -2763 -7 0 -20 -12 -30 -26 -15 -23 -15 -27 -1 -43 17 -18 22 -51 8
-51 -17 0 -42 -61 -42 -104 l0 -46 150 0 150 0 20 32 c23 39 28 118 7 118 -8
0 -22 9 -32 20 -18 20 -18 22 3 59 l22 39 -30 7 c-17 4 -37 13 -45 22 -13 13
-15 272 -15 2154 l0 2139 26 0 c15 0 38 12 55 29 66 66 16 172 -62 131 -17
-10 -19 -7 -19 35 0 35 8 56 34 95 59 86 80 153 79 255 0 104 -23 178 -79 250
-25 34 -34 55 -34 85 0 38 1 39 28 34 64 -13 114 113 60 150 -12 9 -37 16 -55
16 l-33 0 0 1585 c0 872 -3 1585 -7 1585 -5 -1 -34 -22 -65 -48z m96 -3181 c3
-5 -1 -11 -9 -15 -9 -3 -15 0 -15 9 0 16 16 20 24 6z m-58 -265 c32 -22 74
-127 81 -199 6 -70 -12 -150 -48 -212 -17 -29 -27 -35 -54 -35 -41 0 -65 28
-95 108 -29 76 -29 178 0 252 29 78 38 87 90 99 3 0 15 -5 26 -13z m-96 -686
c0 -5 -5 -10 -11 -10 -5 0 -7 5 -4 10 3 6 8 10 11 10 2 0 4 -4 4 -10z"/>
</g>
</svg>
