<?xml version="1.0" standalone="no"?>
<!DOCTYPE svg PUBLIC "-//W3C//DTD SVG 20010904//EN"
 "http://www.w3.org/TR/2001/REC-SVG-20010904/DTD/svg10.dtd">
<svg version="1.0" xmlns="http://www.w3.org/2000/svg"
 width="2551.000000pt" height="2701.000000pt" viewBox="0 0 2551.000000 2701.000000"
 preserveAspectRatio="xMidYMid meet">

<g transform="translate(0.000000,2701.000000) scale(0.100000,-0.100000)"
fill="#C5C3C1" stroke="none">
<path d="M16510 22219 c-14 -12 -40 -34 -57 -50 l-33 -29 0 -1535 0 -1535 -30
0 c-36 0 -80 -38 -80 -69 0 -60 40 -98 84 -81 l26 10 0 -57 c0 -42 -5 -62 -19
-77 -27 -29 -67 -112 -82 -169 -6 -27 -10 -81 -7 -125 5 -83 26 -141 78 -218
21 -32 30 -57 30 -86 0 -38 -1 -40 -25 -34 -20 5 -32 0 -55 -23 -35 -35 -38
-68 -9 -105 15 -19 30 -26 55 -26 l34 0 1 -537 c3 -1768 0 -3750 -6 -3765 -4
-9 -20 -22 -36 -28 -16 -7 -28 -15 -27 -19 31 -58 31 -60 14 -86 -9 -14 -23
-25 -31 -25 -11 0 -15 -12 -15 -44 0 -25 4 -47 10 -51 7 -4 255 -9 308 -6 7 1
12 16 12 40 0 30 -5 42 -24 55 -34 22 -41 52 -21 83 16 25 16 26 -1 36 -10 6
-27 20 -39 31 -20 21 -20 25 -19 1661 0 902 2 1868 2 2148 l2 507 30 0 c38 0
80 39 80 75 0 56 -40 92 -84 75 -25 -9 -26 -9 -26 35 0 35 9 58 40 107 56 86
73 151 68 257 -4 91 -32 170 -83 237 -18 24 -25 45 -25 79 0 43 1 45 25 39 19
-5 31 1 55 24 32 32 37 60 19 95 -16 30 -28 37 -66 37 l-33 0 0 1585 c0 872
-3 1585 -7 1585 -5 -1 -19 -10 -33 -21z m-90 -3199 c0 -5 -7 -10 -15 -10 -8 0
-15 5 -15 10 0 6 7 10 15 10 8 0 15 -4 15 -10z m160 1 c0 -5 -7 -11 -15 -15
-9 -3 -15 0 -15 9 0 8 7 15 15 15 8 0 15 -4 15 -9z m-46 -283 c44 -59 61 -116
61 -209 0 -79 -3 -92 -35 -155 -32 -64 -38 -69 -70 -72 -32 -2 -38 2 -62 40
-76 122 -74 268 4 396 15 24 27 32 48 32 21 0 36 -9 54 -32z m-114 -673 c0 -8
-7 -15 -15 -15 -26 0 -18 20 13 29 1 1 2 -6 2 -14z m160 -5 c0 -5 -7 -10 -15
-10 -8 0 -15 5 -15 10 0 6 7 10 15 10 8 0 15 -4 15 -10z"/>
</g>
</svg>
