<?xml version="1.0" standalone="no"?>
<!DOCTYPE svg PUBLIC "-//W3C//DTD SVG 20010904//EN"
 "http://www.w3.org/TR/2001/REC-SVG-20010904/DTD/svg10.dtd">
<svg version="1.0" xmlns="http://www.w3.org/2000/svg"
 width="2551.000000pt" height="2701.000000pt" viewBox="0 0 2551.000000 2701.000000"
 preserveAspectRatio="xMidYMid meet">

<g transform="translate(0.000000,2701.000000) scale(0.100000,-0.100000)"
fill="#C5C3C1" stroke="none">
<path d="M19988 25082 l-57 -47 0 -1531 -1 -1531 -30 -7 c-71 -14 -106 -100
-59 -147 20 -20 32 -21 72 -4 15 6 17 1 17 -47 0 -43 -5 -61 -26 -89 -116
-153 -116 -363 0 -518 16 -21 26 -48 26 -68 0 -29 -3 -33 -27 -33 -16 0 -39
-11 -55 -27 -55 -52 -26 -133 47 -133 l35 0 0 -1665 0 -1664 -22 -20 c-12 -12
-30 -23 -40 -27 -17 -5 -17 -7 -3 -27 23 -32 18 -56 -16 -88 -22 -21 -30 -36
-27 -56 l3 -28 173 -3 172 -2 0 39 c0 30 -5 41 -18 45 -11 4 -25 18 -33 32
-12 23 -11 30 4 56 10 17 16 32 15 33 -2 1 -18 10 -35 19 -18 9 -35 26 -38 39
-3 12 -4 762 -3 1666 l3 1644 40 11 c53 15 78 57 62 105 -16 46 -38 59 -77 44
l-30 -11 0 44 c0 35 8 56 39 102 60 89 76 143 75 247 -2 103 -23 169 -80 246
-26 35 -34 57 -34 88 0 39 2 41 24 35 36 -9 89 42 89 86 0 41 -41 80 -84 80
l-29 0 0 1580 c0 869 -3 1580 -7 1580 -5 -1 -34 -22 -65 -48z m-61 -3168 c-3
-3 -12 -4 -19 -1 -8 3 -5 6 6 6 11 1 17 -2 13 -5z m157 -3 c3 -5 -1 -11 -9
-15 -9 -3 -15 0 -15 9 0 16 16 20 24 6z m-40 -288 c40 -60 57 -122 57 -203 0
-116 -50 -230 -101 -230 -77 0 -137 223 -95 353 38 116 94 148 139 80z m-114
-668 c0 -8 -4 -15 -9 -15 -13 0 -22 16 -14 24 11 11 23 6 23 -9z m160 -5 c0
-5 -4 -10 -9 -10 -6 0 -13 5 -16 10 -3 6 1 10 9 10 9 0 16 -4 16 -10z"/>
</g>
</svg>
