<?xml version="1.0" standalone="no"?>
<!DOCTYPE svg PUBLIC "-//W3C//DTD SVG 20010904//EN"
 "http://www.w3.org/TR/2001/REC-SVG-20010904/DTD/svg10.dtd">
<svg version="1.0" xmlns="http://www.w3.org/2000/svg"
 width="2551.000000pt" height="2701.000000pt" viewBox="0 0 2551.000000 2701.000000"
 preserveAspectRatio="xMidYMid meet">

<g transform="translate(0.000000,2701.000000) scale(0.100000,-0.100000)"
fill="#C5C3C1" stroke="none">
<path d="M21165 26048 l-60 -48 -5 -1532 -5 -1532 -29 -7 c-60 -16 -92 -68
-74 -119 12 -36 50 -55 78 -40 29 15 30 14 30 -40 0 -41 -6 -59 -34 -98 -60
-83 -80 -145 -79 -247 0 -103 21 -171 78 -251 38 -53 50 -122 19 -110 -23 9
-72 -20 -89 -53 -11 -23 -12 -36 -4 -60 13 -36 35 -51 78 -51 l31 0 0 -2141
c0 -1351 -4 -2147 -10 -2158 -5 -10 -23 -24 -39 -31 -29 -11 -30 -14 -16 -33
23 -33 18 -63 -16 -90 -24 -19 -30 -30 -27 -53 l3 -29 173 -3 172 -2 0 38 c0
32 -5 41 -25 50 -33 15 -42 55 -20 89 10 15 14 28 9 30 -5 2 -24 12 -41 23
l-33 20 0 2145 0 2145 21 0 c32 0 77 31 89 60 22 52 -34 124 -79 101 -30 -16
-31 -15 -31 34 0 36 7 54 34 90 57 74 80 146 80 250 0 104 -23 176 -80 250
-25 34 -34 55 -34 84 0 33 3 38 18 35 26 -7 84 37 93 70 5 19 3 38 -6 56 -16
31 -33 40 -76 40 l-29 0 -2 1584 -3 1583 -60 -49z m-68 -3174 c-3 -3 -12 -4
-19 -1 -8 3 -5 6 6 6 11 1 17 -2 13 -5z m153 -4 c0 -5 -4 -10 -10 -10 -5 0
-10 5 -10 10 0 6 5 10 10 10 6 0 10 -4 10 -10z m-20 -324 c33 -65 35 -75 35
-165 0 -87 -3 -102 -30 -156 -28 -56 -32 -60 -65 -60 -28 0 -38 6 -57 34 -69
102 -72 266 -6 379 22 38 28 43 56 40 28 -3 36 -11 67 -72z m-130 -626 c0 -5
-7 -10 -16 -10 -8 0 -12 5 -9 10 3 6 10 10 16 10 5 0 9 -4 9 -10z m157 -6 c-3
-3 -12 -4 -19 -1 -8 3 -5 6 6 6 11 1 17 -2 13 -5z"/>
</g>
</svg>
