<?xml version="1.0" standalone="no"?>
<!DOCTYPE svg PUBLIC "-//W3C//DTD SVG 20010904//EN"
 "http://www.w3.org/TR/2001/REC-SVG-20010904/DTD/svg10.dtd">
<svg version="1.0" xmlns="http://www.w3.org/2000/svg"
 width="2551.000000pt" height="2701.000000pt" viewBox="0 0 2551.000000 2701.000000"
 preserveAspectRatio="xMidYMid meet">

<g transform="translate(0.000000,2701.000000) scale(0.100000,-0.100000)"
fill="#C5C3C1" stroke="none">
<path d="M23430 25911 l0 -1049 -24 -6 c-14 -3 -38 -18 -55 -32 -36 -30 -41
-75 -15 -113 14 -20 23 -22 55 -18 l39 5 0 -49 c0 -40 -7 -60 -40 -111 -56
-86 -73 -151 -68 -257 5 -92 23 -146 78 -227 38 -57 41 -104 6 -104 -13 0 -38
-13 -55 -29 -59 -55 -28 -141 50 -141 l29 0 0 -527 c0 -291 1 -1251 1 -2134 1
-884 -2 -1616 -5 -1627 -4 -11 -23 -28 -42 -37 -33 -15 -34 -18 -20 -34 26
-29 20 -68 -14 -93 -16 -12 -30 -30 -30 -40 0 -17 13 -18 180 -18 l180 0 0 26
c0 16 -11 35 -30 51 -33 27 -37 49 -15 79 20 27 19 30 -17 45 -18 7 -36 18
-40 23 -13 19 -10 4286 3 4286 27 0 81 35 95 61 13 25 13 33 0 64 -18 42 -39
52 -77 38 l-29 -11 0 46 c0 38 7 57 35 96 107 151 106 349 -1 497 -44 60 -48
119 -9 119 39 0 88 50 88 90 0 41 -41 80 -84 80 l-29 0 0 1050 0 1050 -70 0
-70 0 0 -1049z m103 -1389 c27 -29 65 -124 72 -178 8 -60 -16 -171 -46 -221
-17 -27 -27 -33 -54 -33 -32 0 -36 4 -67 67 -31 63 -33 75 -33 168 0 86 4 106
24 145 13 25 28 51 33 58 15 18 52 15 71 -6z"/>
</g>
</svg>
