<?xml version="1.0" standalone="no"?>
<!DOCTYPE svg PUBLIC "-//W3C//DTD SVG 20010904//EN"
 "http://www.w3.org/TR/2001/REC-SVG-20010904/DTD/svg10.dtd">
<svg version="1.0" xmlns="http://www.w3.org/2000/svg"
 width="2551.000000pt" height="2701.000000pt" viewBox="0 0 2551.000000 2701.000000"
 preserveAspectRatio="xMidYMid meet">

<g transform="translate(0.000000,2701.000000) scale(0.100000,-0.100000)"
fill="#C5C3C1" stroke="none">
<path d="M24600 26395 l0 -565 -32 -14 c-66 -30 -96 -75 -79 -119 14 -37 37
-50 76 -43 l35 7 0 -50 c0 -42 -6 -58 -34 -96 -111 -145 -107 -375 9 -513 33
-40 32 -85 -3 -87 -36 -3 -85 -58 -85 -96 0 -44 44 -83 85 -75 l28 6 0 -1665
c0 -1509 -1 -1665 -16 -1680 -9 -8 -29 -22 -46 -31 l-30 -16 21 -22 c18 -19
20 -28 12 -50 -6 -14 -22 -31 -36 -38 -14 -6 -25 -15 -25 -20 0 -4 83 -8 185
-8 172 0 185 1 185 18 0 10 -13 28 -30 40 -33 25 -38 48 -15 78 20 27 19 30
-17 45 -18 7 -36 18 -40 23 -4 6 -8 754 -8 1662 l0 1652 24 6 c14 3 38 18 55
32 24 20 31 34 31 60 0 40 -41 90 -65 80 -8 -3 -22 -9 -30 -12 -21 -9 -21 88
0 106 29 24 76 120 89 182 25 118 1 235 -70 338 -43 62 -48 120 -10 120 13 0
38 13 55 29 59 55 32 141 -44 141 l-35 0 0 570 0 570 -70 0 -70 0 0 -565z
m119 -941 c61 -95 68 -244 17 -348 -24 -48 -31 -56 -55 -56 -32 0 -50 17 -79
76 -47 93 -46 215 2 319 22 49 28 55 56 55 25 0 35 -8 59 -46z m-119 -644 c0
-5 -5 -10 -11 -10 -5 0 -7 5 -4 10 3 6 8 10 11 10 2 0 4 -4 4 -10z"/>
</g>
</svg>
