<?xml version="1.0" standalone="no"?>
<!DOCTYPE svg PUBLIC "-//W3C//DTD SVG 20010904//EN"
 "http://www.w3.org/TR/2001/REC-SVG-20010904/DTD/svg10.dtd">
<svg version="1.0" xmlns="http://www.w3.org/2000/svg"
 width="2551.000000pt" height="2701.000000pt" viewBox="0 0 2551.000000 2701.000000"
 preserveAspectRatio="xMidYMid meet">

<g transform="translate(0.000000,2701.000000) scale(0.100000,-0.100000)"
fill="#C5C3C1" stroke="none">
<path d="M14138 20265 l-58 -47 0 -1539 0 -1539 -30 0 c-65 0 -101 -77 -61
-129 15 -20 24 -23 55 -18 l36 6 0 -54 c0 -43 -5 -60 -25 -83 -14 -17 -38 -57
-53 -89 -24 -52 -27 -69 -27 -168 0 -122 11 -160 72 -248 25 -36 33 -57 33
-91 l0 -45 -36 6 c-31 5 -40 2 -55 -18 -41 -53 -7 -129 57 -129 l34 0 -2
-2152 -3 -2152 -38 -21 -37 -22 20 -23 c27 -31 25 -47 -8 -78 -27 -26 -29 -32
-23 -104 1 -16 16 -18 156 -18 l155 0 0 45 c0 36 -4 47 -25 61 -29 19 -33 58
-9 85 14 16 14 19 -13 35 -15 10 -34 24 -40 33 -10 12 -13 459 -13 2163 l0
2148 35 0 c66 0 98 72 59 129 -14 20 -23 22 -55 18 l-39 -5 0 42 c0 30 8 52
26 77 118 158 122 366 8 514 -28 37 -34 54 -34 94 l0 49 39 -5 c32 -4 41 -2
55 18 39 57 7 129 -59 129 l-35 0 -2 1586 -3 1586 -57 -47z m-58 -3179 c0 -9
-7 -12 -20 -9 -11 3 -20 9 -20 14 0 5 9 9 20 9 11 0 20 -6 20 -14z m160 5 c0
-5 -7 -12 -16 -15 -22 -9 -24 -8 -24 9 0 8 9 15 20 15 11 0 20 -4 20 -9z m-57
-269 c9 -10 28 -44 44 -77 46 -100 37 -227 -24 -332 -21 -38 -28 -43 -58 -43
-29 0 -39 6 -59 38 -75 112 -75 281 -2 393 20 30 33 39 55 39 15 0 35 -8 44
-18z m-103 -687 c0 -8 -9 -15 -20 -15 -25 0 -26 17 -2 23 9 3 18 5 20 6 1 0 2
-6 2 -14z m144 9 c23 -9 20 -24 -4 -24 -11 0 -20 7 -20 15 0 17 2 18 24 9z"/>
</g>
</svg>
