<svg id="post_dots" data-name="post dots" xmlns="http://www.w3.org/2000/svg" width="3542" height="3750" viewBox="0 0 3542 3750">
  <defs>
    <style>
      .cls-11 {
        fill: #eb2516;
      }

      .cls-22 {
        fill: #8df47f;
      }
    </style>
  </defs>
  <rect class="cls-11" x="1246" y="2905" width="6" height="6"/>
  <rect id="Rectangle_10_copy" data-name="Rectangle 10 copy" class="cls-11" x="2267" y="2731" width="6" height="6"/>
  <rect id="Rectangle_10_copy_2" data-name="Rectangle 10 copy 2" class="cls-11" x="3451" y="2899" width="6" height="6"/>
  <rect class="cls-22" x="74" y="3106" width="6" height="6"/>
  <rect id="Rectangle_9_copy" data-name="Rectangle 9 copy" class="cls-22" x="222" y="3083" width="6" height="6"/>
  <rect id="Rectangle_9_copy_2" data-name="Rectangle 9 copy 2" class="cls-22" x="365" y="3056" width="6" height="6"/>
  <rect id="Rectangle_9_copy_3" data-name="Rectangle 9 copy 3" class="cls-22" x="504" y="3032" width="6" height="6"/>
  <rect id="Rectangle_9_copy_4" data-name="Rectangle 9 copy 4" class="cls-22" x="635" y="3008" width="6" height="6"/>
  <rect id="Rectangle_9_copy_5" data-name="Rectangle 9 copy 5" class="cls-22" x="764" y="2985" width="6" height="6"/>
  <rect id="Rectangle_9_copy_6" data-name="Rectangle 9 copy 6" class="cls-22" x="890" y="2965" width="6" height="6"/>
  <rect id="Rectangle_9_copy_7" data-name="Rectangle 9 copy 7" class="cls-22" x="1008" y="2944" width="6" height="6"/>
  <rect id="Rectangle_9_copy_8" data-name="Rectangle 9 copy 8" class="cls-22" x="1131" y="2923" width="6" height="6"/>
  <rect id="Rectangle_9_copy_9" data-name="Rectangle 9 copy 9" class="cls-22" x="1240" y="2905" width="6" height="6"/>
  <rect id="Rectangle_9_copy_10" data-name="Rectangle 9 copy 10" class="cls-22" x="1350" y="2885" width="6" height="6"/>
  <rect id="Rectangle_9_copy_11" data-name="Rectangle 9 copy 11" class="cls-22" x="1454" y="2867" width="6" height="6"/>
  <rect id="Rectangle_9_copy_12" data-name="Rectangle 9 copy 12" class="cls-22" x="1556" y="2849" width="6" height="6"/>
  <rect id="Rectangle_9_copy_13" data-name="Rectangle 9 copy 13" class="cls-22" x="1655" y="2835" width="6" height="6"/>
  <rect id="Rectangle_9_copy_14" data-name="Rectangle 9 copy 14" class="cls-22" x="1745" y="2818" width="6" height="6"/>
  <rect id="Rectangle_9_copy_15" data-name="Rectangle 9 copy 15" class="cls-22" x="1842" y="2803" width="6" height="6"/>
  <rect id="Rectangle_9_copy_16" data-name="Rectangle 9 copy 16" class="cls-22" x="1932" y="2790" width="6" height="6"/>
  <rect id="Rectangle_9_copy_17" data-name="Rectangle 9 copy 17" class="cls-22" x="2016" y="2775" width="6" height="6"/>
  <rect id="Rectangle_9_copy_18" data-name="Rectangle 9 copy 18" class="cls-22" x="2100" y="2759" width="6" height="6"/>
  <rect id="Rectangle_9_copy_19" data-name="Rectangle 9 copy 19" class="cls-22" x="2183" y="2744" width="6" height="6"/>
  <rect id="Rectangle_9_copy_20" data-name="Rectangle 9 copy 20" class="cls-22" x="2352" y="2743" width="6" height="6"/>
  <rect id="Rectangle_9_copy_21" data-name="Rectangle 9 copy 21" class="cls-22" x="2452" y="2756" width="6" height="6"/>
  <rect id="Rectangle_9_copy_22" data-name="Rectangle 9 copy 22" class="cls-22" x="2547" y="2772" width="6" height="6"/>
  <rect id="Rectangle_9_copy_23" data-name="Rectangle 9 copy 23" class="cls-22" x="2650" y="2784" width="6" height="6"/>
  <rect id="Rectangle_9_copy_24" data-name="Rectangle 9 copy 24" class="cls-22" x="2753" y="2800" width="6" height="6"/>
  <rect id="Rectangle_9_copy_25" data-name="Rectangle 9 copy 25" class="cls-22" x="2864" y="2812" width="6" height="6"/>
  <rect id="Rectangle_9_copy_26" data-name="Rectangle 9 copy 26" class="cls-22" x="2980" y="2832" width="6" height="6"/>
  <rect id="Rectangle_9_copy_27" data-name="Rectangle 9 copy 27" class="cls-22" x="3094" y="2846" width="6" height="6"/>
  <rect id="Rectangle_9_copy_28" data-name="Rectangle 9 copy 28" class="cls-22" x="3211" y="2861" width="6" height="6"/>
  <rect id="Rectangle_9_copy_29" data-name="Rectangle 9 copy 29" class="cls-22" x="3332" y="2879" width="6" height="6"/>
  <rect id="Rectangle_9_copy_30" data-name="Rectangle 9 copy 30" class="cls-22" x="3457" y="2899" width="6" height="6"/>
</svg>
