<?xml version="1.0" standalone="no"?>
<!DOCTYPE svg PUBLIC "-//W3C//DTD SVG 20010904//EN"
 "http://www.w3.org/TR/2001/REC-SVG-20010904/DTD/svg10.dtd">
<svg version="1.0" xmlns="http://www.w3.org/2000/svg"
 width="2644.000000pt" height="2800.000000pt" viewBox="0 0 2644.000000 2800.000000"
 preserveAspectRatio="xMidYMid meet">

<g transform="translate(0.000000,2800.000000) scale(0.100000,-0.100000)"
fill="#C5C3C1" stroke="none">
<path d="M8400 15717 l0 -1635 -35 -6 c-19 -4 -35 -9 -35 -12 0 -3 10 -18 21
-34 12 -16 19 -35 16 -44 -3 -8 -31 -31 -61 -50 -64 -41 -64 -53 0 -85 60 -30
72 -55 45 -92 -12 -15 -21 -30 -21 -33 0 -3 15 -9 33 -14 l32 -8 3 -1762 2
-1762 -32 -20 c-18 -11 -37 -22 -43 -23 -5 -2 -2 -13 8 -25 23 -26 15 -59 -19
-74 -18 -9 -24 -19 -24 -45 0 -28 3 -33 24 -33 14 0 28 -4 31 -10 3 -6 50 -10
106 -10 59 0 99 4 99 10 0 6 10 10 23 10 51 0 67 11 67 44 0 23 -6 34 -22 41
-27 12 -36 58 -16 82 8 10 9 18 3 20 -5 2 -25 12 -43 23 l-32 20 2 1757 3
1757 33 8 c35 9 40 19 16 38 -26 22 -14 72 21 89 17 8 32 17 35 21 3 3 13 9
23 13 23 9 22 38 -3 44 -11 3 -20 9 -20 13 0 5 -13 13 -30 18 -38 14 -49 52
-25 88 19 29 20 28 -20 41 l-30 10 -5 1629 -5 1629 -62 3 -63 3 0 -1634z"/>
</g>
</svg>
