<?xml version="1.0" standalone="no"?>
<!DOCTYPE svg PUBLIC "-//W3C//DTD SVG 20010904//EN"
 "http://www.w3.org/TR/2001/REC-SVG-20010904/DTD/svg10.dtd">
<svg version="1.0" xmlns="http://www.w3.org/2000/svg"
 width="2644.000000pt" height="2800.000000pt" viewBox="0 0 2644.000000 2800.000000"
 preserveAspectRatio="xMidYMid meet">

<g transform="translate(0.000000,2800.000000) scale(0.100000,-0.100000)"
fill="#C5C3C1" stroke="none">
<path d="M9898 15673 l-3 -1547 -32 -8 c-30 -8 -46 -28 -23 -28 6 0 15 -12 21
-26 7 -21 6 -31 -7 -45 -10 -11 -23 -19 -31 -19 -7 0 -16 -7 -19 -15 -4 -8
-12 -15 -19 -15 -8 0 -16 -4 -19 -9 -9 -14 4 -41 20 -41 8 0 14 -4 14 -9 0 -5
11 -12 25 -15 13 -3 29 -16 36 -27 9 -18 7 -27 -10 -50 -12 -15 -21 -30 -21
-33 0 -3 16 -8 35 -12 l35 -6 -2 -891 -3 -891 -38 -22 c-33 -18 -36 -23 -22
-34 24 -20 18 -47 -15 -72 -21 -15 -30 -30 -30 -50 0 -28 0 -28 65 -28 36 0
65 -4 65 -9 0 -4 27 -9 60 -10 33 0 60 3 60 8 0 6 19 11 43 13 39 3 42 5 45
36 3 26 -1 34 -22 41 -32 13 -43 47 -22 70 22 24 20 28 -14 36 -17 4 -35 15
-40 25 -7 12 -9 327 -8 897 l3 877 33 10 c36 10 39 18 17 36 -8 7 -15 25 -15
41 0 22 7 32 28 42 15 6 38 22 52 35 l25 22 -30 25 c-16 13 -35 24 -42 25 -6
0 -19 10 -27 21 -11 17 -12 27 -4 45 6 13 15 24 20 24 23 0 -1 25 -28 30 l-29
5 -3 1548 -2 1547 -60 0 -60 0 -2 -1547z"/>
</g>
</svg>
