<?xml version="1.0" standalone="no"?>
<!DOCTYPE svg PUBLIC "-//W3C//DTD SVG 20010904//EN"
 "http://www.w3.org/TR/2001/REC-SVG-20010904/DTD/svg10.dtd">
<svg version="1.0" xmlns="http://www.w3.org/2000/svg"
 width="2644.000000pt" height="2800.000000pt" viewBox="0 0 2644.000000 2800.000000"
 preserveAspectRatio="xMidYMid meet">

<g transform="translate(0.000000,2800.000000) scale(0.100000,-0.100000)"
fill="#C5C3C1" stroke="none">
<path d="M2158 14033 l-28 -4 0 -2040 c0 -1835 -2 -2039 -15 -2039 -9 0 -30
-7 -46 -16 l-31 -15 26 -24 c35 -32 34 -68 -3 -94 -16 -12 -34 -21 -39 -21 -6
0 -25 -13 -43 -29 -27 -25 -30 -32 -19 -45 7 -9 18 -16 25 -16 7 0 15 -7 19
-15 3 -8 14 -15 23 -15 30 0 63 -29 63 -56 0 -14 -12 -37 -26 -51 -29 -29 -23
-38 34 -49 l32 -6 0 -2027 c0 -1114 -4 -2031 -8 -2037 -4 -6 -27 -21 -51 -33
l-43 -22 22 -24 c20 -22 21 -27 11 -54 -7 -16 -26 -35 -42 -41 -25 -11 -29
-18 -29 -51 0 -22 1 -39 3 -40 1 -1 59 -6 130 -13 125 -11 129 -11 220 15 l92
26 3 40 c3 37 0 41 -28 53 -41 17 -53 42 -38 74 6 14 15 26 20 26 4 0 8 4 8
10 0 5 -18 15 -40 21 -22 7 -45 18 -50 24 -7 8 -9 710 -8 2034 l3 2023 38 13
c53 18 54 21 23 54 -38 40 -30 76 22 98 20 8 39 18 42 22 3 3 18 15 33 25 28
17 28 18 11 37 -9 10 -23 19 -31 19 -7 0 -13 4 -13 9 0 5 -16 15 -35 21 -58
19 -69 65 -25 105 11 10 20 21 20 25 0 8 -43 22 -70 24 -13 1 -15 236 -18
2039 l-2 2037 -29 0 c-16 0 -41 2 -57 4 -16 2 -41 2 -56 -1z"/>
</g>
</svg>
