<?xml version="1.0" standalone="no"?>
<!DOCTYPE svg PUBLIC "-//W3C//DTD SVG 20010904//EN"
 "http://www.w3.org/TR/2001/REC-SVG-20010904/DTD/svg10.dtd">
<svg version="1.0" xmlns="http://www.w3.org/2000/svg"
 width="2644.000000pt" height="2800.000000pt" viewBox="0 0 2644.000000 2800.000000"
 preserveAspectRatio="xMidYMid meet">

<g transform="translate(0.000000,2800.000000) scale(0.100000,-0.100000)"
fill="#C5C3C1" stroke="none">
<path d="M7858 15733 l-3 -1667 -32 -8 c-38 -10 -41 -18 -13 -43 11 -10 20
-26 20 -35 0 -17 -29 -50 -44 -50 -4 0 -23 -12 -41 -26 -33 -25 -38 -54 -9
-54 8 0 17 -7 20 -15 4 -8 14 -15 24 -15 21 0 50 -31 50 -53 0 -9 -9 -26 -20
-37 -25 -25 -20 -36 20 -45 l30 -7 0 -1794 0 -1794 -44 -21 c-42 -21 -43 -22
-25 -40 26 -26 24 -43 -11 -72 -21 -18 -30 -35 -30 -56 0 -28 3 -31 33 -32 17
0 41 -2 52 -5 56 -12 150 -14 173 -5 26 10 63 19 90 20 7 1 12 15 12 36 0 28
-5 37 -24 45 -13 5 -27 18 -31 29 -7 23 10 61 28 62 7 0 -8 10 -33 22 l-45 22
0 1794 0 1795 33 8 c17 5 32 11 32 14 0 3 -10 18 -21 34 -21 28 -21 30 -5 54
9 15 22 26 30 26 7 0 23 9 36 20 13 11 27 20 32 20 17 0 7 32 -12 37 -11 3
-20 10 -20 15 0 5 -14 14 -30 20 -46 16 -57 44 -31 79 26 34 22 45 -19 54
l-30 7 0 1657 0 1658 -46 7 c-26 3 -57 6 -70 6 l-24 0 -2 -1667z"/>
</g>
</svg>
