<?xml version="1.0" standalone="no"?>
<!DOCTYPE svg PUBLIC "-//W3C//DTD SVG 20010904//EN"
 "http://www.w3.org/TR/2001/REC-SVG-20010904/DTD/svg10.dtd">
<svg version="1.0" xmlns="http://www.w3.org/2000/svg"
 width="2644.000000pt" height="2800.000000pt" viewBox="0 0 2644.000000 2800.000000"
 preserveAspectRatio="xMidYMid meet">

<g transform="translate(0.000000,2800.000000) scale(0.100000,-0.100000)"
fill="#C5C3C1" stroke="none">
<path d="M21597 27093 c-4 -500 -7 -1298 -7 -1774 l0 -866 -41 -12 c-39 -12
-40 -13 -25 -34 47 -64 45 -89 -10 -117 -16 -8 -33 -21 -37 -27 -4 -7 -15 -13
-23 -13 -8 0 -17 -7 -21 -16 -5 -13 24 -45 110 -119 23 -21 22 -38 -8 -74
l-26 -30 41 -27 40 -27 -2 -2301 -3 -2301 -40 -20 c-22 -11 -42 -21 -43 -22
-2 -1 6 -14 18 -30 18 -25 19 -33 9 -55 -6 -14 -22 -31 -35 -37 -13 -6 -24
-19 -24 -30 0 -18 8 -19 188 -14 103 2 193 7 201 9 10 3 5 11 -17 24 -43 26
-51 64 -22 95 l23 24 -46 20 c-31 14 -48 28 -52 43 -3 13 -4 1051 -3 2307 l3
2284 32 11 c45 16 48 22 24 52 -11 15 -21 37 -21 50 0 23 42 64 66 64 8 0 14
4 14 9 0 5 9 13 20 16 35 11 22 41 -40 98 -65 58 -72 80 -39 116 24 25 16 42
-33 67 l-28 15 0 1774 0 1775 -68 0 -69 0 -6 -907z"/>
</g>
</svg>
