<?xml version="1.0" standalone="no"?>
<!DOCTYPE svg PUBLIC "-//W3C//DTD SVG 20010904//EN"
 "http://www.w3.org/TR/2001/REC-SVG-20010904/DTD/svg10.dtd">
<svg version="1.0" xmlns="http://www.w3.org/2000/svg"
 width="2644.000000pt" height="2800.000000pt" viewBox="0 0 2644.000000 2800.000000"
 preserveAspectRatio="xMidYMid meet">

<g transform="translate(0.000000,2800.000000) scale(0.100000,-0.100000)"
fill="#C5C3C1" stroke="none">
<path d="M22810 26817 l0 -1185 -35 -6 c-45 -9 -51 -20 -26 -55 12 -16 21 -39
21 -50 0 -22 -32 -61 -50 -61 -20 0 -70 -44 -70 -60 0 -9 27 -41 60 -71 33
-29 60 -61 60 -70 0 -9 -10 -29 -22 -44 l-22 -28 35 -28 c19 -16 37 -29 42
-29 11 0 9 -3628 -2 -3649 -6 -10 -28 -26 -50 -36 l-40 -18 19 -25 c11 -13 20
-32 20 -42 0 -19 -40 -60 -58 -60 -7 0 -12 -5 -12 -11 0 -10 167 -7 297 7 51
5 52 6 41 30 -10 20 -8 29 10 54 l22 29 -43 23 -42 23 0 1840 0 1839 33 8 c37
10 39 16 12 51 -11 14 -20 34 -20 44 0 23 40 63 62 63 9 0 18 7 22 15 3 8 12
15 20 15 44 0 7 70 -66 126 -44 32 -47 50 -16 89 l22 28 -37 32 -37 32 -2
1179 -3 1179 -72 3 -73 3 0 -1184z"/>
</g>
</svg>
