<?xml version="1.0" standalone="no"?>
<!DOCTYPE svg PUBLIC "-//W3C//DTD SVG 20010904//EN"
 "http://www.w3.org/TR/2001/REC-SVG-20010904/DTD/svg10.dtd">
<svg version="1.0" xmlns="http://www.w3.org/2000/svg"
 width="2644.000000pt" height="2800.000000pt" viewBox="0 0 2644.000000 2800.000000"
 preserveAspectRatio="xMidYMid meet">

<g transform="translate(0.000000,2800.000000) scale(0.100000,-0.100000)"
fill="#C5C3C1" stroke="none">
<path d="M24043 27376 c3 -343 2 -628 -2 -634 -3 -5 -24 -17 -45 -26 l-39 -16
20 -23 c45 -48 38 -96 -17 -115 -16 -6 -30 -16 -30 -21 0 -6 -9 -11 -19 -11
-15 0 -31 -18 -31 -35 0 -2 29 -35 65 -72 35 -37 65 -71 65 -75 0 -3 -11 -20
-25 -36 l-25 -30 43 -38 42 -38 0 -2321 c1 -1276 -3 -2328 -8 -2338 -4 -10
-25 -25 -45 -35 -20 -9 -39 -18 -41 -19 -2 -2 3 -11 11 -20 32 -35 26 -79 -12
-101 -44 -25 -37 -32 28 -27 31 3 110 8 175 11 86 4 116 9 108 17 -17 17 -13
55 9 77 20 20 20 20 -11 35 -16 9 -39 25 -50 36 -19 19 -19 54 -19 2357 l0
2339 40 12 c22 6 40 14 40 17 0 3 -9 17 -21 33 -30 41 -23 82 20 103 19 9 37
21 40 26 3 5 14 11 24 15 31 11 18 41 -43 102 -64 64 -71 84 -40 115 11 11 20
22 20 25 0 3 -18 21 -40 41 l-40 36 0 629 0 629 -76 0 -75 0 4 -624z"/>
</g>
</svg>
