<?xml version="1.0" standalone="no"?>
<!DOCTYPE svg PUBLIC "-//W3C//DTD SVG 20010904//EN"
 "http://www.w3.org/TR/2001/REC-SVG-20010904/DTD/svg10.dtd">
<svg version="1.0" xmlns="http://www.w3.org/2000/svg"
 width="2644.000000pt" height="2800.000000pt" viewBox="0 0 2644.000000 2800.000000"
 preserveAspectRatio="xMidYMid meet">

<g transform="translate(0.000000,2800.000000) scale(0.100000,-0.100000)"
fill="#C5C3C1" stroke="none">
<path d="M14260 13773 c0 -115 -1 -1078 -1 -2140 l0 -1933 -45 -19 c-38 -17
-59 -41 -36 -41 4 0 15 -13 25 -29 22 -38 10 -74 -35 -97 -18 -9 -35 -20 -38
-24 -3 -4 -15 -12 -27 -19 -32 -17 -31 -59 1 -67 14 -3 27 -12 30 -20 3 -8 14
-14 25 -14 11 0 29 -12 40 -27 24 -30 21 -55 -12 -91 -24 -26 -17 -37 33 -49
l35 -9 2 -2309 c3 -2045 1 -2311 -12 -2332 -8 -12 -34 -32 -56 -44 l-41 -20
21 -23 c34 -36 26 -78 -20 -102 -26 -13 -29 -20 -29 -63 l0 -49 125 -7 c69 -4
128 -11 131 -16 10 -16 35 -10 110 28 l74 36 0 46 c0 42 -3 47 -33 61 -41 19
-49 68 -17 100 l20 20 -25 10 c-15 6 -30 10 -35 10 -5 0 -18 10 -30 22 l-20
22 0 2306 0 2307 43 18 c23 11 44 20 46 22 2 1 -8 16 -23 33 -41 49 -30 91 30
116 19 8 34 18 34 23 0 4 11 13 25 19 15 7 25 20 25 32 0 13 -9 22 -25 26 -14
3 -25 12 -25 20 0 8 -9 14 -20 14 -27 0 -70 43 -70 69 0 11 12 34 26 51 15 17
25 32 23 34 -2 2 -22 7 -44 13 l-40 9 -3 2142 -2 2142 -80 0 -80 0 0 -207z"/>
</g>
</svg>
