<?xml version="1.0" standalone="no"?>
<!DOCTYPE svg PUBLIC "-//W3C//DTD SVG 20010904//EN"
 "http://www.w3.org/TR/2001/REC-SVG-20010904/DTD/svg10.dtd">
<svg version="1.0" xmlns="http://www.w3.org/2000/svg"
 width="2644.000000pt" height="2800.000000pt" viewBox="0 0 2644.000000 2800.000000"
 preserveAspectRatio="xMidYMid meet">

<g transform="translate(0.000000,2800.000000) scale(0.100000,-0.100000)"
fill="#C5C3C1" stroke="none">
<path d="M14397 13983 c-3 -5 -4 -925 -3 -2046 l1 -2039 -42 -19 c-49 -22 -51
-28 -23 -54 37 -34 22 -93 -30 -115 -16 -7 -30 -16 -30 -20 0 -4 -11 -12 -25
-18 -15 -7 -25 -20 -25 -32 0 -13 10 -24 25 -30 14 -5 25 -14 25 -19 0 -5 11
-12 24 -15 56 -14 73 -69 36 -116 -27 -34 -26 -37 19 -45 22 -4 41 -12 43 -18
8 -23 2 -4622 -5 -4644 -5 -12 -28 -34 -53 -48 l-46 -27 21 -22 c12 -12 21
-29 21 -38 0 -21 -38 -68 -56 -68 -10 0 -14 -13 -14 -49 l0 -48 63 -6 c34 -4
105 -9 157 -12 90 -5 98 -4 150 23 53 27 55 30 57 73 3 40 0 46 -30 64 -40 25
-47 65 -16 93 l21 21 -37 15 c-21 9 -41 16 -46 16 -4 0 -11 10 -15 23 -8 25
-12 4624 -4 4638 3 4 22 15 43 24 41 17 45 26 21 45 -45 38 -36 90 21 117 19
9 35 20 35 25 0 5 11 13 25 18 15 6 25 17 25 30 0 13 -10 24 -25 30 -14 5 -25
14 -25 20 0 5 -8 10 -17 10 -24 1 -59 30 -67 56 -4 14 2 33 19 58 l25 37 -26
9 c-14 6 -31 10 -38 10 -8 0 -16 10 -18 23 -2 12 -4 934 -4 2049 l1 2028 -77
0 c-42 0 -79 -3 -81 -7z"/>
</g>
</svg>
