<?xml version="1.0" standalone="no"?>
<!DOCTYPE svg PUBLIC "-//W3C//DTD SVG 20010904//EN"
 "http://www.w3.org/TR/2001/REC-SVG-20010904/DTD/svg10.dtd">
<svg version="1.0" xmlns="http://www.w3.org/2000/svg"
 width="2644.000000pt" height="2800.000000pt" viewBox="0 0 2644.000000 2800.000000"
 preserveAspectRatio="xMidYMid meet">

<g transform="translate(0.000000,2800.000000) scale(0.100000,-0.100000)"
fill="#C5C3C1" stroke="none">
<path d="M14988 14523 l-78 -160 0 -1645 0 -1645 -27 -6 c-52 -12 -59 -22 -34
-52 11 -15 21 -38 21 -51 0 -27 -32 -64 -55 -64 -7 0 -18 -6 -22 -14 -4 -7
-18 -18 -30 -25 -30 -16 -29 -45 2 -59 14 -6 25 -16 25 -22 0 -5 9 -10 20 -10
27 0 60 -35 60 -64 0 -13 -9 -35 -21 -50 -25 -32 -19 -43 26 -52 l35 -6 0
-1779 c0 -1749 0 -1779 -19 -1798 -11 -11 -34 -27 -51 -36 l-32 -17 22 -23
c29 -31 20 -70 -20 -93 -26 -15 -30 -23 -30 -59 l0 -41 48 -6 c26 -3 91 -8
144 -12 87 -5 105 -3 163 17 l65 24 0 42 c0 36 -4 44 -27 55 -41 20 -52 61
-26 96 l21 29 -36 13 c-21 7 -43 17 -49 22 -10 8 -13 379 -13 1793 l0 1783 28
5 c15 4 34 11 42 16 12 9 11 13 -6 33 -12 13 -24 30 -26 38 -8 24 20 69 47 76
14 3 29 11 33 18 4 6 19 19 35 29 15 10 27 21 27 26 0 4 -12 14 -27 22 -16 8
-31 18 -34 22 -3 4 -21 16 -40 25 -43 21 -50 62 -20 103 12 16 21 31 21 33 0
3 -18 9 -40 12 l-40 7 -2 1805 -3 1806 -77 -161z"/>
</g>
</svg>
