<?xml version="1.0" standalone="no"?>
<!DOCTYPE svg PUBLIC "-//W3C//DTD SVG 20010904//EN"
 "http://www.w3.org/TR/2001/REC-SVG-20010904/DTD/svg10.dtd">
<svg version="1.0" xmlns="http://www.w3.org/2000/svg"
 width="2550.000000pt" height="2700.000000pt" viewBox="0 0 2550.000000 2700.000000"
 preserveAspectRatio="xMidYMid meet">

<g transform="translate(0.000000,2700.000000) scale(0.100000,-0.100000)"
fill="#C5C3C1" stroke="none">
<path d="M17276 21471 l-49 -47 2 -565 c1 -310 -1 -572 -4 -581 -6 -16 -21
-18 -106 -18 l-99 0 0 -2505 0 -2505 105 0 105 0 0 -319 c0 -342 0 -340 -51
-356 -14 -5 -18 -12 -13 -23 19 -45 16 -70 -10 -87 -20 -13 -26 -26 -26 -51
l0 -34 150 0 150 0 0 33 c0 25 -6 37 -24 47 -31 16 -38 41 -20 74 7 14 9 26 5
26 -5 0 -20 11 -35 25 l-26 24 0 320 0 320 106 3 106 3 -1 2505 c0 1378 -1
2507 -1 2510 0 3 -47 3 -105 2 l-106 -4 1 622 c1 342 0 624 -2 626 -2 2 -26
-18 -52 -45z m184 -1766 l0 -462 -92 -7 c-50 -3 -131 -6 -180 -6 l-88 0 0 453
c0 343 3 458 13 470 10 14 37 17 167 19 85 2 161 1 168 -1 9 -2 12 -104 12
-466z m0 -685 l0 -107 -92 -7 c-50 -3 -131 -6 -180 -6 l-88 0 0 103 c0 67 4
109 13 120 10 14 36 17 167 19 85 2 161 -1 168 -6 8 -6 12 -41 12 -116z m0
-1300 l0 -1077 -92 -7 c-50 -3 -131 -6 -180 -6 l-88 0 0 1073 c0 843 3 1077
13 1090 10 14 36 17 167 19 85 2 161 -1 168 -6 9 -7 12 -235 12 -1086z m0
-1295 l0 -102 -92 -7 c-50 -3 -131 -6 -180 -6 l-88 0 0 98 c0 63 4 104 13 115
10 14 36 17 167 19 85 2 161 -1 168 -6 8 -6 12 -40 12 -111z m-2 -649 l-3
-431 -175 0 -175 0 -3 418 c-1 273 1 425 8 437 10 18 24 20 168 22 86 2 163
-1 170 -6 9 -7 12 -102 10 -440z"/>
</g>
</svg>
