<?xml version="1.0" standalone="no"?>
<!DOCTYPE svg PUBLIC "-//W3C//DTD SVG 20010904//EN"
 "http://www.w3.org/TR/2001/REC-SVG-20010904/DTD/svg10.dtd">
<svg version="1.0" xmlns="http://www.w3.org/2000/svg"
 width="2550.000000pt" height="2700.000000pt" viewBox="0 0 2550.000000 2700.000000"
 preserveAspectRatio="xMidYMid meet">

<g transform="translate(0.000000,2700.000000) scale(0.100000,-0.100000)"
fill="#C5C3C1" stroke="none">
<path d="M20720 25157 l-41 -53 1 -596 c1 -564 0 -597 -17 -602 -18 -5 -141
-26 -155 -26 -5 0 -8 -1158 -8 -2574 0 -1416 3 -2577 8 -2579 4 -2 44 -1 90 2
l82 6 -2 -330 -3 -330 -41 -21 -40 -20 19 -26 c19 -25 19 -28 4 -52 -9 -13
-26 -27 -37 -31 -13 -4 -20 -15 -20 -32 0 -24 2 -25 43 -19 23 3 106 8 185 12
78 4 145 10 147 15 3 4 -8 16 -25 25 -38 23 -46 48 -26 79 9 13 16 26 16 29 0
6 -61 20 -85 18 -12 0 -14 1 -5 4 13 4 15 50 12 349 l-3 345 38 0 c21 0 62 3
91 6 l52 7 0 2592 0 2593 -21 5 c-19 5 -105 -6 -151 -19 -15 -4 -16 41 -13
623 2 428 0 632 -7 640 -20 25 -47 13 -88 -40z m168 -1792 c1 -252 -1 -462 -5
-466 -5 -4 -35 -11 -68 -14 -33 -3 -86 -13 -118 -20 -32 -8 -65 -15 -73 -15
-12 0 -14 69 -14 459 0 357 3 462 13 468 15 9 226 52 247 49 13 -1 15 -61 18
-461z m0 -694 c1 -57 -1 -108 -5 -112 -4 -4 -35 -11 -68 -14 -33 -3 -86 -13
-118 -20 -92 -23 -87 -29 -87 89 0 73 4 107 13 113 15 9 226 52 247 49 12 -1
16 -22 18 -105z m0 -1341 c1 -607 -1 -1107 -5 -1111 -5 -5 -35 -11 -68 -14
-33 -3 -86 -13 -118 -20 -32 -8 -65 -15 -73 -15 -12 0 -14 157 -14 1104 0 873
3 1106 13 1113 15 9 226 52 247 49 13 -1 15 -133 18 -1106z m0 -1334 c1 -55
-1 -103 -5 -107 -4 -4 -35 -11 -68 -14 -33 -3 -86 -13 -118 -20 -92 -23 -87
-28 -87 84 0 69 4 102 13 108 15 9 226 52 247 49 12 -1 16 -21 18 -100z m-3
-686 l0 -455 -130 -11 c-71 -6 -133 -9 -137 -7 -5 2 -8 199 -8 438 0 336 3
436 13 442 15 9 226 52 247 49 13 -1 15 -59 15 -456z"/>
</g>
</svg>
