<?xml version="1.0" standalone="no"?>
<!DOCTYPE svg PUBLIC "-//W3C//DTD SVG 20010904//EN"
 "http://www.w3.org/TR/2001/REC-SVG-20010904/DTD/svg10.dtd">
<svg version="1.0" xmlns="http://www.w3.org/2000/svg"
 width="2550.000000pt" height="2700.000000pt" viewBox="0 0 2550.000000 2700.000000"
 preserveAspectRatio="xMidYMid meet">

<g transform="translate(0.000000,2700.000000) scale(0.100000,-0.100000)"
fill="#C5C3C1" stroke="none">
<path d="M21576 26217 l-45 -53 5 -625 c4 -502 2 -628 -8 -636 -11 -8 -137
-35 -173 -37 -7 -1 -11 -881 -13 -2613 l-2 -2613 57 1 c98 1 138 11 138 36 0
12 4 25 8 30 5 4 79 17 165 28 l157 20 1 2588 c0 2496 -1 2589 -18 2601 -13 9
-31 11 -61 5 -23 -5 -59 -11 -79 -15 l-38 -7 0 658 c0 615 -1 659 -17 671 -10
7 -21 14 -25 14 -3 0 -27 -24 -52 -53z m172 -1885 c1 -265 0 -482 -4 -482 -3
0 -60 -11 -126 -25 -66 -14 -129 -25 -139 -25 -19 0 -19 16 -17 482 l3 482
130 27 c72 15 135 26 140 25 6 -2 11 -173 13 -484z m0 -715 c1 -59 0 -107 -3
-107 -4 0 -61 -11 -127 -25 -174 -36 -159 -44 -156 82 l3 107 130 27 c72 15
135 26 140 25 6 -2 11 -49 13 -109z m0 -1345 c1 -612 0 -1112 -4 -1112 -3 0
-60 -11 -126 -25 -66 -14 -129 -25 -139 -25 -19 0 -19 31 -17 1112 l3 1112
130 27 c72 15 135 26 140 25 7 -2 11 -383 13 -1114z m0 -1345 c1 -59 0 -107
-3 -107 -4 0 -61 -11 -127 -25 -174 -36 -159 -44 -156 82 l3 107 130 27 c72
15 135 26 140 25 6 -2 11 -49 13 -109z m0 -690 l2 -456 -42 -5 c-43 -6 -232
-26 -243 -26 -3 0 -4 201 -3 447 l3 447 130 27 c72 15 135 26 140 25 6 -2 11
-165 13 -459z"/>
<path d="M21534 18730 c1 -286 -1 -541 -3 -566 -3 -42 -6 -47 -40 -61 -47 -20
-45 -17 -25 -48 14 -22 15 -30 4 -49 -7 -13 -23 -29 -36 -35 -15 -6 -24 -19
-24 -32 0 -21 3 -22 73 -16 39 4 125 10 190 13 113 7 149 17 110 31 -50 18
-67 60 -37 94 14 16 13 18 -19 30 -20 7 -40 23 -46 36 -8 16 -11 199 -11 567
l0 543 -46 7 c-26 3 -57 6 -69 6 l-21 0 0 -520z m146 -626 c0 -2 -7 -4 -15 -4
-8 0 -15 4 -15 10 0 5 7 7 15 4 8 -4 15 -8 15 -10z"/>
</g>
</svg>
