<?xml version="1.0" standalone="no"?>
<!DOCTYPE svg PUBLIC "-//W3C//DTD SVG 20010904//EN"
 "http://www.w3.org/TR/2001/REC-SVG-20010904/DTD/svg10.dtd">
<svg version="1.0" xmlns="http://www.w3.org/2000/svg"
 width="2550.000000pt" height="2700.000000pt" viewBox="0 0 2550.000000 2700.000000"
 preserveAspectRatio="xMidYMid meet">

<g transform="translate(0.000000,2700.000000) scale(0.100000,-0.100000)"
fill="#C5C3C1" stroke="none">
<path d="M9109 13314 c-1 -456 -1 -832 -1 -835 0 -3 -20 -5 -46 -5 l-47 1 -3
-2753 -2 -2753 50 -21 49 -20 1 -800 c0 -507 -3 -805 -10 -817 -5 -10 -28 -26
-50 -35 l-41 -16 22 -30 c21 -28 21 -30 4 -56 -9 -14 -26 -29 -36 -31 -15 -4
-19 -14 -19 -47 l0 -42 69 -24 70 -24 128 20 128 19 3 41 c3 35 0 42 -23 52
-14 6 -30 23 -37 37 -10 22 -8 29 12 50 22 23 22 25 4 31 -10 4 -34 18 -51 31
l-33 24 0 775 c0 611 3 775 13 779 6 2 29 6 50 10 l37 6 0 2789 0 2790 -50 0
-50 0 0 824 0 825 -57 11 c-32 7 -63 15 -70 17 -11 4 -13 -156 -14 -823z m105
-960 c14 -5 16 -60 16 -515 l0 -509 -50 0 -50 0 0 515 0 515 34 0 c19 0 41 -3
50 -6z m16 -1270 l0 -134 -50 0 -50 0 0 138 0 137 50 -3 50 -4 0 -134z m0
-1470 l0 -1224 -50 0 -50 0 0 1228 0 1227 50 -3 50 -4 0 -1224z m0 -1465 l0
-129 -50 0 -50 0 0 133 0 132 50 -3 50 -4 0 -129z m-1 -677 c0 -241 -3 -445
-7 -454 -6 -15 -9 -15 -26 -2 -11 8 -16 14 -10 14 5 0 -6 9 -23 20 l-33 20 0
422 0 423 50 -3 50 -4 -1 -436z"/>
</g>
</svg>
