<?xml version="1.0" standalone="no"?>
<!DOCTYPE svg PUBLIC "-//W3C//DTD SVG 20010904//EN"
 "http://www.w3.org/TR/2001/REC-SVG-20010904/DTD/svg10.dtd">
<svg version="1.0" xmlns="http://www.w3.org/2000/svg"
 width="2550.000000pt" height="2700.000000pt" viewBox="0 0 2550.000000 2700.000000"
 preserveAspectRatio="xMidYMid meet">

<g transform="translate(0.000000,2700.000000) scale(0.100000,-0.100000)"
fill="#C5C3C1" stroke="none">
<path d="M11188 15453 l-68 -76 0 -523 0 -524 -106 0 -106 0 7 -172 c3 -95 8
-1266 11 -2603 l4 -2430 95 2 95 2 0 -739 c0 -406 -3 -746 -6 -755 -4 -9 -24
-23 -45 -32 -36 -14 -52 -33 -29 -33 5 0 13 -11 16 -26 5 -18 0 -32 -17 -50
-12 -13 -29 -24 -36 -24 -10 0 -13 -11 -11 -37 l3 -37 75 -18 c44 -11 92 -16
115 -12 22 3 73 9 114 15 41 5 78 14 81 19 10 17 -1 70 -15 70 -17 0 -45 33
-45 55 0 10 7 27 17 37 9 10 14 19 12 21 -2 1 -22 11 -44 22 l-40 20 -3 761
-2 760 80 11 c45 6 83 12 85 14 2 2 5 1167 6 2588 l3 2584 -82 -2 -82 -2 -1
73 c-1 40 -5 308 -8 595 l-6 522 -67 -76z m130 -1697 l-3 -474 -29 -6 c-16 -3
-77 -6 -137 -6 l-109 0 0 473 c0 261 3 477 7 480 3 4 67 7 140 7 l134 0 -3
-474z m-8 -648 c1 -35 2 -89 3 -120 2 -55 1 -57 -27 -62 -16 -3 -77 -6 -137
-6 l-109 0 0 118 c0 65 3 122 7 125 3 4 64 7 135 7 l128 0 0 -62z m2 -1407 l3
-1120 -29 -5 c-16 -3 -76 -6 -135 -6 l-106 0 -3 1115 c-2 613 -1 1119 3 1125
4 6 58 10 136 10 l129 0 2 -1119z m0 -1345 l3 -115 -29 -5 c-16 -3 -76 -6
-135 -6 l-106 0 2 98 c1 53 2 107 2 120 1 22 3 22 130 22 l130 0 3 -114z m-2
-659 l0 -433 -125 -14 c-69 -7 -129 -10 -133 -6 -6 7 -8 326 -3 744 l1 142
130 0 130 0 0 -433z"/>
</g>
</svg>
