<?xml version="1.0" standalone="no"?>
<!DOCTYPE svg PUBLIC "-//W3C//DTD SVG 20010904//EN"
 "http://www.w3.org/TR/2001/REC-SVG-20010904/DTD/svg10.dtd">
<svg version="1.0" xmlns="http://www.w3.org/2000/svg"
 width="2550.000000pt" height="2700.000000pt" viewBox="0 0 2550.000000 2700.000000"
 preserveAspectRatio="xMidYMid meet">

<g transform="translate(0.000000,2700.000000) scale(0.100000,-0.100000)"
fill="#C5C3C1" stroke="none">
<path d="M14633 18948 l-53 -54 0 -581 0 -582 -102 -3 -103 -3 -3 -2512 -3
-2513 105 0 106 0 0 -729 c0 -786 2 -749 -50 -766 -24 -8 -25 -18 -5 -35 22
-19 18 -38 -15 -72 -19 -19 -30 -40 -30 -58 0 -43 37 -51 191 -43 l129 6 0 29
c0 20 -9 37 -30 55 -33 27 -38 54 -15 73 22 18 19 26 -15 40 -17 7 -35 21 -40
31 -6 11 -10 298 -10 743 l0 726 105 0 105 0 0 2510 0 2509 -102 3 -103 3 -5
638 -5 638 -52 -53z m175 -1800 l2 -478 -98 0 c-55 0 -132 3 -173 6 l-74 7 1
471 c1 259 2 472 3 474 0 1 76 1 169 0 l167 -3 3 -477z m2 -684 l0 -117 -166
6 c-101 3 -169 9 -173 16 -6 8 -7 131 -2 194 1 15 16 17 171 17 l170 0 0 -116z
m0 -1300 l0 -1097 -166 6 c-91 3 -168 8 -172 11 -4 5 -7 2031 -3 2154 1 22 2
22 171 22 l170 0 0 -1096z m0 -1295 l0 -112 -166 6 c-121 4 -169 9 -175 18 -8
14 -11 153 -3 182 5 15 22 17 175 17 l169 0 0 -111z m-2 -631 l-3 -433 -159
-8 c-88 -4 -163 -4 -168 1 -7 7 -14 667 -9 835 l1 37 170 0 170 0 -2 -432z"/>
</g>
</svg>
