<?xml version="1.0" standalone="no"?>
<!DOCTYPE svg PUBLIC "-//W3C//DTD SVG 20010904//EN"
 "http://www.w3.org/TR/2001/REC-SVG-20010904/DTD/svg10.dtd">
<svg version="1.0" xmlns="http://www.w3.org/2000/svg"
 width="2550.000000pt" height="2700.000000pt" viewBox="0 0 2550.000000 2700.000000"
 preserveAspectRatio="xMidYMid meet">

<g transform="translate(0.000000,2700.000000) scale(0.100000,-0.100000)"
fill="#65340A" stroke="none">
<path d="M15477 19778 l-48 -43 1 -1572 c0 -1295 -2 -1573 -13 -1573 -7 0 -22
-6 -32 -14 -17 -12 -17 -14 -2 -37 26 -36 21 -59 -23 -100 -38 -36 -52 -69
-30 -69 6 0 15 -11 20 -25 5 -14 16 -25 25 -25 23 0 31 -49 12 -81 -14 -25
-14 -29 2 -43 10 -9 23 -16 31 -16 10 0 11 -295 5 -1637 -4 -901 -9 -1640 -13
-1643 -3 -3 -2 2 2 10 4 8 -1 5 -10 -7 -9 -13 -22 -23 -28 -23 -6 0 -4 5 4 10
9 6 10 10 3 10 -20 0 -24 -18 -9 -42 20 -32 14 -73 -10 -73 -16 0 -19 -7 -19
-50 l0 -50 143 -3 142 -3 0 46 c0 38 -5 50 -27 70 l-28 23 19 33 c19 32 19 33
1 43 -10 6 -27 19 -37 29 -17 16 -18 78 -18 1636 l0 1619 25 6 c18 5 25 13 25
31 0 13 -4 27 -10 30 -23 14 -9 52 30 84 27 22 40 40 40 56 0 25 -31 65 -49
65 -6 0 -17 10 -25 22 -14 20 -14 25 5 57 20 33 20 36 3 48 -10 7 -24 13 -31
13 -11 0 -13 291 -13 1615 0 888 -3 1615 -8 1615 -4 0 -29 -19 -55 -42z"/>
</g>
</svg>
