<?xml version="1.0" standalone="no"?>
<!DOCTYPE svg PUBLIC "-//W3C//DTD SVG 20010904//EN"
 "http://www.w3.org/TR/2001/REC-SVG-20010904/DTD/svg10.dtd">
<svg version="1.0" xmlns="http://www.w3.org/2000/svg"
 width="2550.000000pt" height="2700.000000pt" viewBox="0 0 2550.000000 2700.000000"
 preserveAspectRatio="xMidYMid meet">

<g transform="translate(0.000000,2700.000000) scale(0.100000,-0.100000)"
fill="#65340A" stroke="none">
<path d="M16463 20677 c-4 -7 -27 -27 -50 -46 l-43 -33 0 -1592 0 -1593 -25
-11 c-30 -14 -30 -20 -8 -66 13 -29 14 -38 3 -51 -7 -8 -17 -15 -22 -15 -5 0
-19 -12 -32 -27 l-23 -27 28 -30 c35 -37 29 -48 -8 -15 -28 24 -28 24 -8 1 23
-27 62 -52 50 -32 -5 8 -3 11 6 8 19 -6 21 -58 4 -85 -17 -26 -20 -53 -4 -53
5 0 7 5 3 11 -4 8 0 8 15 0 l21 -12 0 -2050 0 -2049 -30 -18 c-18 -11 -26 -22
-21 -28 17 -17 17 -77 1 -82 -13 -5 -13 -3 0 14 9 12 4 10 -13 -5 -30 -27 -37
-80 -13 -100 14 -12 241 -14 274 -3 7 2 12 21 12 43 0 30 -5 42 -25 55 -29 19
-32 49 -9 75 17 19 12 39 -10 39 -7 0 -20 8 -29 18 -16 17 -17 171 -15 2053 2
1530 6 2033 15 2032 6 -1 17 4 23 13 10 12 9 22 -5 53 -19 43 -15 58 21 71 14
6 24 18 24 29 0 14 5 19 15 15 11 -5 15 1 15 22 0 22 -10 36 -40 58 -48 36
-55 52 -35 82 22 34 19 53 -10 60 l-25 6 0 1639 c0 1029 -4 1639 -10 1639 -5
0 -13 -6 -17 -13z m-113 -3327 c6 -11 8 -20 6 -20 -3 0 -10 9 -16 20 -6 11 -8
20 -6 20 3 0 10 -9 16 -20z m-49 -4612 c-4 -35 -6 -38 -9 -15 -3 26 3 57 10
57 2 0 1 -19 -1 -42z"/>
</g>
</svg>
