<?xml version="1.0" standalone="no"?>
<!DOCTYPE svg PUBLIC "-//W3C//DTD SVG 20010904//EN"
 "http://www.w3.org/TR/2001/REC-SVG-20010904/DTD/svg10.dtd">
<svg version="1.0" xmlns="http://www.w3.org/2000/svg"
 width="2550.000000pt" height="2700.000000pt" viewBox="0 0 2550.000000 2700.000000"
 preserveAspectRatio="xMidYMid meet">

<g transform="translate(0.000000,2700.000000) scale(0.100000,-0.100000)"
fill="#65340A" stroke="none">
<path d="M9309 14103 c0 -10 -1 -848 -2 -1862 -2 -1628 -4 -1845 -17 -1851 -8
-4 -28 -13 -44 -19 l-28 -12 26 -24 c14 -13 26 -30 26 -38 0 -23 -40 -67 -60
-67 -10 0 -20 -7 -24 -15 -3 -8 -12 -15 -19 -15 -8 0 -20 -7 -27 -15 -15 -18
-1 -32 67 -65 39 -18 63 -45 63 -69 0 -5 -11 -23 -25 -39 l-25 -30 30 -10 c16
-6 30 -8 30 -5 0 3 6 0 14 -6 13 -11 15 -308 14 -2194 0 -1988 -2 -2184 -17
-2200 -8 -10 -31 -25 -50 -33 -32 -13 -33 -15 -17 -32 29 -33 18 -75 -26 -98
-24 -13 -29 -20 -26 -46 3 -29 8 -33 53 -45 100 -26 173 -26 270 -1 l90 24 3
36 c3 29 -1 38 -17 43 -48 15 -68 69 -36 95 21 17 19 30 -4 30 -11 0 -32 10
-46 23 l-26 22 -2 2184 c-2 1932 0 2185 13 2191 8 4 28 13 44 19 l29 12 -20
22 c-11 12 -23 28 -27 34 -11 20 13 54 50 69 19 8 34 19 34 24 0 6 7 10 15 10
8 0 19 9 25 20 9 17 7 22 -15 30 -14 5 -25 14 -25 20 0 5 -8 10 -18 10 -16 0
-72 44 -72 56 0 14 32 64 40 64 26 0 6 20 -32 33 l-43 14 -2 1834 c-1 1009 -2
1846 -2 1862 -1 27 -1 27 -71 27 -60 0 -70 -3 -71 -17z"/>
</g>
</svg>
