<?xml version="1.0" standalone="no"?>
<!DOCTYPE svg PUBLIC "-//W3C//DTD SVG 20010904//EN"
 "http://www.w3.org/TR/2001/REC-SVG-20010904/DTD/svg10.dtd">
<svg version="1.0" xmlns="http://www.w3.org/2000/svg"
 width="2550.000000pt" height="2700.000000pt" viewBox="0 0 2550.000000 2700.000000"
 preserveAspectRatio="xMidYMid meet">

<g transform="translate(0.000000,2700.000000) scale(0.100000,-0.100000)"
fill="#65340A" stroke="none">
<path d="M11980 16326 l-55 -59 -5 -1540 -5 -1540 -30 -10 c-40 -13 -41 -14
-23 -34 9 -10 18 -25 20 -33 6 -16 -20 -69 -34 -71 -4 -1 -13 -2 -18 -3 -6 0
-14 -6 -18 -12 -4 -6 -15 -13 -24 -17 -24 -9 -23 -38 2 -44 11 -3 20 -10 20
-15 0 -5 13 -14 29 -19 15 -6 33 -20 38 -32 11 -23 2 -60 -16 -72 -20 -12 -11
-24 22 -33 l32 -8 3 -1664 c2 -1816 6 -1701 -53 -1716 -26 -6 -32 -18 -15 -29
14 -9 12 -57 -4 -77 -7 -10 -21 -18 -30 -18 -14 0 -17 -8 -14 -37 3 -36 6 -39
53 -54 28 -9 59 -15 70 -13 11 1 68 6 128 9 l107 7 0 33 c0 24 -7 37 -25 49
-38 25 -46 48 -29 80 18 35 19 31 -16 46 -17 7 -35 21 -40 31 -6 11 -10 634
-10 1678 l0 1661 35 14 c38 16 43 27 20 46 -8 7 -15 25 -15 41 0 23 9 34 55
64 30 19 55 38 55 43 0 12 -45 49 -69 57 -12 3 -29 17 -37 31 -15 22 -15 26 5
60 12 20 21 38 19 39 -2 1 -16 7 -33 12 l-30 10 -5 1599 -5 1600 -55 -60z"/>
</g>
</svg>
