<?xml version="1.0" standalone="no"?>
<!DOCTYPE svg PUBLIC "-//W3C//DTD SVG 20010904//EN"
 "http://www.w3.org/TR/2001/REC-SVG-20010904/DTD/svg10.dtd">
<svg version="1.0" xmlns="http://www.w3.org/2000/svg"
 width="2551.000000pt" height="2701.000000pt" viewBox="0 0 2551.000000 2701.000000"
 preserveAspectRatio="xMidYMid meet">

<g transform="translate(0.000000,2701.000000) scale(0.100000,-0.100000)"
fill="#C5C3C1" stroke="none">
<path d="M4742 12532 l-52 -47 0 -750 c0 -723 -1 -752 -19 -789 -16 -30 -18
-43 -9 -62 8 -17 8 -34 1 -57 -10 -33 1 -77 19 -77 4 0 8 -17 8 -38 0 -31 -7
-45 -39 -76 -54 -53 -66 -85 -51 -131 11 -34 10 -39 -30 -98 -49 -73 -49 -101
1 -173 29 -43 31 -50 20 -79 -23 -64 -13 -90 61 -170 45 -47 50 -93 18 -148
-17 -29 -19 -39 -9 -61 9 -19 9 -35 2 -61 -9 -29 -8 -39 8 -59 18 -23 19 -52
19 -758 0 -699 -1 -736 -19 -773 -15 -30 -16 -44 -8 -62 7 -16 7 -34 0 -56
-10 -33 1 -77 19 -77 4 0 8 -17 8 -38 0 -31 -7 -45 -36 -73 -56 -53 -66 -80
-52 -132 11 -43 10 -46 -19 -83 -65 -84 -66 -100 -14 -181 35 -55 37 -62 25
-84 -27 -49 -18 -84 41 -150 47 -52 55 -67 55 -101 0 -21 -9 -56 -19 -76 -16
-31 -17 -41 -7 -61 9 -17 10 -33 2 -62 -8 -32 -7 -41 7 -57 16 -17 17 -115 17
-1391 l0 -1372 -35 -20 c-41 -25 -53 -54 -31 -78 19 -21 20 -37 3 -48 -28 -18
-48 -64 -45 -106 l3 -42 149 0 149 0 19 30 c10 17 18 49 18 73 0 36 -4 44 -24
51 -34 13 -38 36 -15 75 l20 34 -36 12 c-19 6 -40 20 -45 30 -7 12 -10 497
-10 1375 l0 1356 21 41 c17 33 19 46 10 60 -14 22 -14 55 -1 63 16 10 11 40
-10 63 -31 33 -26 73 16 113 54 51 76 102 72 163 -2 41 2 59 22 91 37 59 36
154 -2 210 -20 28 -28 52 -28 82 0 56 -11 81 -59 137 -47 54 -49 70 -20 123
18 32 20 42 10 69 -9 24 -9 38 1 59 10 22 9 32 -7 60 -17 33 -18 75 -18 760 0
678 1 728 18 765 16 34 16 44 5 65 -10 20 -10 30 0 55 11 25 10 35 0 56 -7 13
-17 24 -22 24 -4 0 -8 14 -8 32 0 24 12 43 49 83 57 60 79 119 62 166 -9 25
-6 36 21 79 27 43 30 56 26 102 -3 36 -13 66 -31 93 -20 30 -27 52 -27 88 0
57 -9 77 -61 134 -45 49 -49 81 -17 125 19 27 20 34 8 65 -10 29 -10 40 1 60
12 22 11 30 -7 61 -20 36 -20 52 -18 830 1 571 -2 792 -10 792 -6 0 -35 -22
-64 -48z m-42 -1958 c-18 -21 -24 -10 -9 18 8 14 14 18 17 10 2 -7 -2 -19 -8
-28z m130 -114 c-1 -8 -14 -30 -30 -49 l-28 -33 -36 33 c-20 18 -36 37 -36 43
0 5 14 25 31 42 l32 33 33 -27 c19 -15 34 -34 34 -42z m-153 -92 c18 -18 33
-37 33 -43 0 -6 -18 -28 -39 -49 -38 -37 -40 -37 -50 -18 -21 39 -9 142 16
142 4 0 22 -14 40 -32z m217 -42 c1 -30 -2 -57 -6 -61 -7 -7 -57 43 -58 57 0
4 10 23 21 43 28 47 43 33 43 -39z m-87 -88 c18 -18 33 -37 33 -43 0 -6 -16
-26 -35 -45 l-35 -34 -40 39 -40 39 37 38 c20 21 39 38 42 38 3 0 20 -14 38
-32z m-119 -148 c24 -32 27 -46 12 -55 -10 -6 -34 27 -45 63 -9 31 7 28 33 -8z
m140 -35 c-6 -14 -13 -23 -16 -21 -7 7 9 46 18 46 5 0 4 -11 -2 -25z m-133
-2311 c-23 -36 -30 -23 -9 18 10 18 19 27 22 20 2 -7 -4 -24 -13 -38z m115
-63 l34 -29 -27 -41 c-15 -23 -30 -41 -34 -41 -11 0 -73 63 -73 74 0 11 50 66
59 66 3 0 22 -13 41 -29z m-128 -213 c-41 -41 -44 -42 -58 -24 -19 26 -18 96
2 125 l17 23 41 -41 41 -41 -43 -42z m212 73 c3 -21 3 -53 0 -71 l-7 -32 -23
29 c-28 34 -29 46 -7 84 23 38 29 37 37 -10z m-75 -126 c17 -20 31 -39 31 -42
0 -12 -63 -73 -75 -73 -7 0 -26 17 -43 38 l-30 39 36 36 c20 21 40 37 43 37 4
0 21 -16 38 -35z m-99 -175 c0 -3 -6 -15 -14 -26 -14 -18 -16 -17 -35 26 -30
67 -26 79 14 40 19 -19 35 -37 35 -40z m101 -23 c-8 -8 -11 -7 -11 4 0 20 13
34 18 19 3 -7 -1 -17 -7 -23z"/>
</g>
</svg>
