<?xml version="1.0" standalone="no"?>
<!DOCTYPE svg PUBLIC "-//W3C//DTD SVG 20010904//EN"
 "http://www.w3.org/TR/2001/REC-SVG-20010904/DTD/svg10.dtd">
<svg version="1.0" xmlns="http://www.w3.org/2000/svg"
 width="2551.000000pt" height="2701.000000pt" viewBox="0 0 2551.000000 2701.000000"
 preserveAspectRatio="xMidYMid meet">

<g transform="translate(0.000000,2701.000000) scale(0.100000,-0.100000)"
fill="#C5C3C1" stroke="none">
<path d="M15303 21224 l-53 -46 0 -753 c0 -697 -1 -756 -17 -784 -15 -25 -16
-35 -6 -60 8 -24 8 -38 0 -62 -10 -25 -9 -35 6 -60 30 -53 23 -86 -33 -144
-56 -60 -68 -92 -53 -147 9 -32 7 -42 -7 -61 -58 -75 -63 -137 -14 -210 23
-35 28 -51 26 -95 -3 -58 13 -95 67 -146 36 -35 41 -77 14 -125 -14 -24 -16
-36 -7 -58 7 -19 7 -37 0 -56 -8 -23 -7 -35 7 -59 16 -27 17 -87 17 -763 0
-678 -1 -736 -17 -764 -15 -25 -16 -35 -6 -60 8 -24 8 -38 0 -62 -10 -25 -9
-35 6 -60 25 -45 22 -91 -9 -120 -74 -68 -98 -128 -73 -183 10 -21 7 -30 -22
-73 -47 -66 -47 -123 -1 -186 28 -40 32 -51 26 -86 -9 -58 -1 -80 56 -145 56
-64 60 -83 28 -127 -19 -26 -21 -33 -10 -62 9 -25 9 -40 0 -64 -10 -26 -9 -35
5 -57 16 -23 17 -98 17 -910 0 -486 -3 -892 -6 -901 -4 -8 -19 -22 -35 -31
-29 -14 -29 -15 -14 -45 19 -36 13 -62 -21 -84 -21 -14 -25 -23 -22 -58 l3
-42 158 -3 157 -3 0 39 c0 27 -7 45 -21 58 -37 33 -42 53 -23 81 16 25 16 27
-2 40 -59 42 -54 -43 -54 937 0 827 1 897 17 924 15 26 15 34 4 55 -11 20 -11
31 -1 60 12 31 11 38 -8 65 -32 44 -28 65 28 128 53 60 68 103 51 146 -8 22
-5 33 26 77 48 68 49 119 5 188 -29 45 -30 51 -19 90 13 51 0 84 -62 155 -45
50 -54 96 -26 132 18 23 19 58 4 73 -8 8 -7 21 2 47 11 32 11 40 -4 65 -16 27
-17 89 -17 764 0 680 1 738 17 766 15 25 16 35 6 60 -8 23 -8 39 0 61 9 25 8
35 -6 59 -30 51 -22 88 28 142 50 54 63 89 47 131 -10 26 -7 36 29 91 48 73
48 101 -1 178 -29 45 -31 51 -20 84 16 50 8 75 -52 146 -56 68 -63 98 -32 155
15 27 16 37 6 59 -10 21 -10 34 -1 60 11 28 10 37 -4 59 -16 23 -17 95 -17
826 0 440 -3 800 -7 800 -5 0 -32 -21 -60 -46z m-43 -1957 c0 -14 -20 -37 -32
-37 -4 0 -2 11 4 25 12 27 28 34 28 12z m140 -44 c0 -20 -13 -15 -33 12 -24
34 -11 56 14 24 10 -13 19 -30 19 -36z m-58 -60 c37 -35 35 -52 -7 -93 l-35
-34 -26 25 c-48 44 -49 57 -13 95 18 19 37 34 43 34 5 0 23 -12 38 -27z m108
-167 c0 -48 -9 -86 -20 -86 -5 0 -23 18 -40 40 l-32 40 34 39 c29 33 35 36 46
23 6 -9 12 -34 12 -56z m-210 -11 c0 -5 -13 -26 -29 -45 l-29 -34 -11 41 c-10
38 -7 82 7 107 6 11 62 -52 62 -69z m97 -87 c18 -18 33 -37 33 -43 0 -6 -15
-25 -33 -43 l-33 -32 -37 38 -37 38 31 37 c17 20 33 37 37 37 3 0 21 -14 39
-32z m37 -172 c-6 -16 -24 -23 -24 -8 0 10 22 33 27 28 2 -2 1 -11 -3 -20z
m11 -2286 c20 -39 19 -47 -5 -25 -11 10 -20 26 -20 37 0 26 7 22 25 -12z
m-125 7 c0 -8 -9 -22 -20 -32 -22 -20 -27 -7 -10 26 12 22 30 25 30 6z m87
-99 c18 -18 33 -37 33 -43 0 -6 -16 -26 -35 -45 l-35 -34 -35 34 c-19 19 -35
38 -35 44 0 10 60 76 69 76 3 0 20 -14 38 -32z m-127 -130 c16 -18 29 -37 29
-43 0 -10 -55 -75 -63 -75 -11 0 -26 81 -20 107 13 53 15 53 54 11z m224 15
c15 -48 6 -133 -13 -133 -9 0 -61 64 -61 75 0 10 53 73 62 74 4 1 9 -7 12 -16z
m-97 -145 c18 -18 33 -37 33 -43 0 -6 -16 -26 -35 -45 l-35 -34 -35 34 c-19
19 -35 37 -35 42 0 9 60 78 68 78 3 0 21 -14 39 -32z m-87 -168 c6 -11 7 -20
2 -20 -10 0 -32 21 -32 32 0 16 19 8 30 -12z m110 -11 c-7 -11 -14 -18 -17
-15 -3 3 0 12 7 21 18 21 23 19 10 -6z"/>
</g>
</svg>
