<?xml version="1.0" standalone="no"?>
<!DOCTYPE svg PUBLIC "-//W3C//DTD SVG 20010904//EN"
 "http://www.w3.org/TR/2001/REC-SVG-20010904/DTD/svg10.dtd">
<svg version="1.0" xmlns="http://www.w3.org/2000/svg"
 width="2551.000000pt" height="2701.000000pt" viewBox="0 0 2551.000000 2701.000000"
 preserveAspectRatio="xMidYMid meet">

<g transform="translate(0.000000,2701.000000) scale(0.100000,-0.100000)"
fill="#C5C3C1" stroke="none">
<path d="M16478 22192 l-58 -45 0 -754 c0 -722 -1 -755 -19 -791 -14 -28 -17
-42 -9 -55 5 -10 7 -39 3 -66 -5 -37 -3 -52 9 -64 27 -27 20 -79 -15 -113 -17
-16 -42 -48 -56 -72 -22 -37 -25 -51 -19 -96 5 -45 2 -57 -21 -90 -14 -22 -28
-59 -31 -83 -4 -37 1 -52 31 -101 30 -49 35 -64 30 -98 -6 -48 9 -82 61 -137
39 -42 47 -81 22 -120 -18 -28 -16 -181 2 -199 9 -9 12 -181 12 -745 0 -705
-1 -734 -19 -769 -16 -29 -17 -41 -9 -60 8 -17 8 -34 1 -57 -10 -33 1 -77 19
-77 4 0 8 -19 8 -43 0 -36 -6 -48 -37 -77 -20 -19 -44 -48 -54 -65 -21 -33
-25 -95 -8 -112 8 -8 1 -27 -26 -72 -45 -73 -44 -110 3 -184 27 -43 30 -55 25
-100 -5 -51 -4 -53 46 -110 56 -63 64 -98 35 -142 -12 -19 -15 -37 -10 -70 4
-26 3 -53 -4 -65 -9 -16 -7 -26 10 -49 20 -29 20 -34 20 -1398 0 -752 -4
-1373 -8 -1379 -4 -6 -22 -20 -40 -31 -28 -18 -31 -22 -17 -33 24 -20 19 -66
-12 -90 -26 -21 -36 -71 -19 -98 5 -8 54 -12 162 -12 l154 0 0 41 c0 32 -6 45
-26 62 -26 20 -29 54 -10 98 5 12 -1 19 -23 28 -16 7 -32 22 -35 34 -3 12 -6
635 -6 1384 0 1275 1 1363 17 1392 15 25 16 35 6 60 -8 24 -8 38 0 62 10 25 9
35 -6 60 -27 48 -21 76 28 132 49 56 62 97 46 140 -9 24 -6 33 27 79 49 69 50
123 5 189 -29 42 -30 48 -21 85 15 56 5 84 -52 147 -56 61 -64 101 -33 156 15
24 16 35 7 59 -7 18 -8 36 -3 43 13 21 11 63 -6 85 -12 16 -14 124 -15 760 0
665 2 743 16 755 11 9 14 23 10 48 -7 44 -7 48 0 92 4 25 1 40 -10 52 -30 29
-20 79 23 121 55 53 67 86 52 137 -11 37 -10 42 17 77 64 81 66 104 16 185
-32 51 -35 62 -25 83 25 55 1 115 -73 183 -31 29 -35 83 -9 130 15 25 16 35 6
60 -8 23 -8 39 0 61 9 25 8 36 -6 63 -16 29 -17 96 -20 828 l-2 797 -57 -46z
m-48 -1965 c0 -14 -20 -37 -32 -37 -4 0 -2 11 4 25 12 27 28 34 28 12z m128
-12 c21 -47 14 -63 -12 -30 -13 16 -21 35 -19 42 8 20 19 15 31 -12z m-18
-134 c0 -6 -16 -27 -36 -47 l-35 -37 -35 34 c-18 18 -34 39 -34 47 0 8 17 29
37 47 l37 32 33 -33 c18 -18 33 -38 33 -43z m80 -131 c0 -25 -6 -54 -13 -64
-12 -16 -15 -14 -45 18 -18 20 -32 38 -32 41 0 4 14 24 32 46 30 37 33 39 45
23 7 -10 13 -39 13 -64z m-210 -3 c0 -4 -12 -23 -27 -42 -19 -24 -30 -30 -35
-22 -10 15 -10 121 -1 131 7 7 62 -52 63 -67z m97 -89 c18 -18 33 -35 33 -39
0 -4 -14 -21 -31 -38 -17 -17 -34 -31 -38 -31 -4 0 -22 15 -40 34 l-33 34 32
36 c18 20 35 36 38 36 3 0 21 -14 39 -32z m33 -173 c-7 -9 -15 -13 -18 -10 -3
2 1 11 8 20 7 9 15 13 18 10 3 -2 -1 -11 -8 -20z m-110 -2267 c-1 -17 -28 -53
-35 -46 -8 7 16 58 27 58 4 0 8 -6 8 -12z m140 -46 c0 -13 -3 -12 -20 3 -11
10 -20 28 -20 39 1 20 1 20 20 -3 11 -13 20 -30 20 -39z m-50 -67 l34 -35 -39
-40 -39 -40 -40 40 -40 40 34 35 c19 19 39 35 45 35 6 0 26 -16 45 -35z m-127
-131 l28 -32 -28 -40 c-15 -23 -31 -41 -35 -42 -8 0 -21 57 -20 93 1 37 12 71
21 61 3 -5 19 -23 34 -40z m221 20 c10 -25 7 -107 -4 -124 -9 -12 -15 -9 -40
20 -16 19 -30 39 -30 43 0 10 53 77 61 77 4 0 10 -7 13 -16z m-94 -149 l34
-35 -30 -32 c-16 -18 -33 -36 -39 -40 -11 -8 -75 49 -75 66 0 11 60 76 70 76
3 0 21 -16 40 -35z m-92 -180 c-3 -3 -9 2 -12 12 -6 14 -5 15 5 6 7 -7 10 -15
7 -18z m116 10 c-4 -8 -11 -15 -16 -15 -6 0 -5 6 2 15 7 8 14 15 16 15 2 0 1
-7 -2 -15z"/>
</g>
</svg>
