<?xml version="1.0" standalone="no"?>
<!DOCTYPE svg PUBLIC "-//W3C//DTD SVG 20010904//EN"
 "http://www.w3.org/TR/2001/REC-SVG-20010904/DTD/svg10.dtd">
<svg version="1.0" xmlns="http://www.w3.org/2000/svg"
 width="2551.000000pt" height="2701.000000pt" viewBox="0 0 2551.000000 2701.000000"
 preserveAspectRatio="xMidYMid meet">

<g transform="translate(0.000000,2701.000000) scale(0.100000,-0.100000)"
fill="#C5C3C1" stroke="none">
<path d="M22260 26838 c-1 -62 0 -400 0 -751 1 -637 0 -638 -21 -677 -19 -34
-20 -43 -10 -68 9 -22 10 -36 2 -50 -16 -30 -14 -49 9 -72 35 -35 26 -76 -30
-137 -58 -63 -78 -116 -62 -162 10 -27 7 -38 -19 -88 -38 -72 -36 -120 10
-191 22 -35 31 -61 31 -91 0 -50 17 -85 59 -125 37 -35 41 -78 11 -116 -23
-29 -25 -52 -8 -80 10 -16 10 -24 0 -40 -17 -27 -15 -43 8 -72 19 -25 20 -43
20 -749 l0 -724 -22 -42 c-19 -36 -21 -45 -9 -66 11 -20 11 -31 0 -61 -12 -33
-11 -38 9 -59 38 -40 30 -82 -27 -142 -58 -61 -79 -117 -63 -164 10 -27 7 -38
-19 -87 -38 -73 -37 -107 6 -174 26 -42 35 -66 35 -101 0 -46 35 -116 73 -148
23 -19 21 -67 -5 -103 -18 -26 -20 -35 -10 -62 9 -24 9 -40 0 -64 -11 -28 -10
-34 10 -55 l22 -24 -1 -885 c-1 -487 -5 -891 -9 -898 -4 -6 -24 -22 -44 -34
-33 -20 -36 -24 -22 -35 27 -22 20 -68 -14 -93 -51 -37 -40 -48 53 -50 254 -4
272 -3 275 20 2 15 -7 31 -27 48 -35 29 -38 49 -15 83 14 19 14 25 3 32 -8 5
-19 9 -26 9 -6 0 -19 7 -27 16 -14 14 -16 110 -16 904 0 826 1 891 17 919 15
25 16 35 6 60 -8 24 -8 38 0 62 10 25 9 35 -6 60 -25 45 -22 81 13 114 46 45
64 89 50 130 -11 33 -9 38 29 93 52 73 53 107 7 182 -31 49 -33 56 -20 74 8
11 14 37 14 58 0 31 -9 47 -55 99 -51 57 -55 65 -55 110 0 27 4 49 8 49 19 0
31 48 20 79 -9 22 -9 36 0 55 12 27 -1 76 -20 76 -4 0 -8 333 -8 739 0 720 1
741 20 774 17 28 18 38 8 64 -9 25 -9 38 1 59 11 24 10 31 -8 55 -34 45 -27
81 24 139 47 53 53 72 33 114 -10 23 -7 32 32 87 26 38 43 73 43 90 0 16 -16
53 -37 84 -35 53 -36 56 -21 85 28 54 20 83 -40 148 -51 56 -55 63 -55 110 0
30 5 54 14 61 21 17 25 45 11 72 -11 19 -11 29 2 52 13 26 12 31 -6 63 -21 35
-21 46 -21 780 l0 744 -65 0 -65 0 0 -112z m150 -1828 c32 -63 26 -80 -15 -40
-38 36 -42 49 -23 68 16 16 15 17 38 -28z m-160 -6 c-18 -21 -24 -10 -9 18 8
14 14 18 17 10 2 -7 -2 -19 -8 -28z m92 -91 l38 -37 -37 -38 c-20 -21 -43 -38
-50 -38 -12 0 -63 60 -63 75 0 10 61 75 69 75 3 0 22 -17 43 -37z m124 -139
c6 -34 -9 -89 -28 -100 -11 -7 -78 54 -78 70 0 6 17 27 37 48 42 43 58 38 69
-18z m-248 0 c24 -36 24 -37 6 -70 -22 -40 -29 -42 -38 -11 -8 32 -7 117 2
117 4 0 18 -17 30 -36z m122 -129 l34 -35 -34 -35 -34 -35 -33 32 c-18 18 -33
35 -33 39 0 10 50 69 59 69 4 0 22 -16 41 -35z m44 -150 c-4 -8 -11 -15 -16
-15 -6 0 -5 6 2 15 7 8 14 15 16 15 2 0 1 -7 -2 -15z m31 -2305 c23 -50 14
-61 -19 -24 -25 28 -32 54 -20 67 11 10 19 1 39 -43z m-155 10 c-13 -23 -30
-35 -30 -20 0 20 21 51 31 45 6 -4 5 -13 -1 -25z m87 -92 c18 -18 33 -37 33
-44 0 -12 -65 -74 -78 -74 -4 0 -22 18 -40 40 l-33 40 35 35 c20 19 39 35 43
35 4 0 22 -14 40 -32z m123 -164 c0 -32 -20 -84 -33 -84 -12 0 -67 63 -67 77
0 4 17 24 38 46 l37 38 12 -28 c7 -15 12 -37 13 -49z m-242 -48 c-13 -19 -26
-35 -29 -36 -16 -1 -27 129 -12 143 3 4 19 -11 35 -32 l28 -39 -22 -36z m152
-83 c0 -3 -14 -23 -31 -44 l-31 -39 -34 26 c-41 32 -42 45 -8 90 l26 34 39
-31 c22 -17 39 -33 39 -36z"/>
</g>
</svg>
