<?xml version="1.0" standalone="no"?>
<!DOCTYPE svg PUBLIC "-//W3C//DTD SVG 20010904//EN"
 "http://www.w3.org/TR/2001/REC-SVG-20010904/DTD/svg10.dtd">
<svg version="1.0" xmlns="http://www.w3.org/2000/svg"
 width="2551.000000pt" height="2701.000000pt" viewBox="0 0 2551.000000 2701.000000"
 preserveAspectRatio="xMidYMid meet">

<g transform="translate(0.000000,2701.000000) scale(0.100000,-0.100000)"
fill="#C5C3C1" stroke="none">
<path d="M5918 13499 l-58 -51 0 -754 c0 -668 -2 -758 -16 -786 -13 -25 -13
-35 -4 -59 10 -23 10 -36 0 -60 -11 -27 -11 -33 9 -59 33 -45 27 -73 -29 -135
-51 -57 -61 -89 -41 -140 6 -15 -1 -34 -30 -75 -50 -71 -50 -104 -4 -179 35
-56 35 -58 20 -94 -19 -47 -10 -72 55 -145 58 -64 64 -98 28 -158 -17 -29 -19
-40 -10 -55 15 -24 15 -44 0 -69 -10 -16 -9 -25 5 -49 16 -27 17 -86 17 -771
0 -655 -2 -745 -16 -772 -13 -25 -13 -35 -4 -59 10 -23 10 -36 0 -60 -11 -27
-11 -33 9 -59 32 -45 27 -73 -24 -127 -58 -60 -67 -93 -41 -153 4 -10 -9 -36
-34 -70 -50 -68 -51 -97 -4 -173 l35 -57 -16 -44 c-20 -53 -15 -67 56 -143 57
-60 63 -98 28 -158 -18 -31 -20 -39 -9 -65 10 -24 10 -36 0 -61 -11 -27 -11
-33 9 -59 l21 -29 0 -881 c0 -850 -1 -881 -19 -896 -10 -9 -31 -27 -45 -40
l-26 -24 20 -20 c27 -27 25 -37 -10 -70 -25 -23 -30 -36 -30 -74 l0 -46 155 0
c175 0 175 0 175 84 0 36 -4 46 -20 51 -29 9 -35 48 -14 81 10 15 14 29 9 31
-6 2 -25 12 -42 23 l-33 20 0 890 c0 811 1 892 17 924 13 29 14 40 5 61 -8 18
-9 32 -2 45 15 28 12 55 -10 83 -29 36 -26 49 26 109 60 69 78 111 70 165 -4
34 0 52 25 100 38 71 36 120 -8 190 -24 37 -29 56 -26 84 6 43 -21 100 -66
143 -36 34 -40 67 -14 121 14 29 15 41 6 65 -8 22 -8 38 0 61 10 25 9 35 -6
60 -16 28 -17 85 -17 759 0 667 1 732 17 765 14 30 15 41 5 67 -7 20 -8 37 -2
49 14 26 12 55 -5 73 -24 24 -19 79 11 107 68 64 102 155 74 199 -6 10 -2 23
14 45 56 73 58 140 6 216 -20 30 -27 51 -23 67 10 43 -7 92 -52 143 -50 55
-56 84 -28 139 13 26 14 39 5 62 -7 19 -7 38 0 62 9 28 8 40 -5 60 -15 23 -17
99 -17 826 0 440 -3 800 -7 800 -5 0 -34 -23 -65 -51z m-53 -1967 c-15 -16
-16 -15 -4 12 7 15 15 23 17 16 3 -7 -3 -19 -13 -28z m113 -72 c36 -34 35 -46
-12 -90 l-27 -24 -36 37 -37 37 34 35 c19 19 36 35 39 35 4 0 21 -14 39 -30z
m-98 -164 c-1 -6 -16 -29 -35 -51 -28 -32 -37 -37 -44 -26 -19 30 -22 80 -6
117 l15 37 35 -33 c19 -19 35 -39 35 -44z m184 48 c9 -23 7 -97 -3 -112 -6
-10 -15 -4 -35 22 l-27 35 23 36 c26 39 33 42 42 19z m-54 -184 c0 -9 -15 -31
-33 -48 l-34 -33 -36 35 c-20 19 -37 38 -37 42 0 5 17 25 37 46 l37 38 33 -32
c18 -18 33 -39 33 -48z m-130 -142 c0 -27 -18 -22 -35 12 -22 43 -18 57 10 30
14 -13 25 -32 25 -42z m124 -2 c-6 -16 -24 -23 -24 -8 0 10 22 33 27 28 2 -2
1 -11 -3 -20z m-114 -2273 c0 -5 -9 -19 -20 -33 -21 -26 -27 -12 -10 21 10 19
30 26 30 12z m120 -133 c0 -8 -14 -31 -30 -50 l-29 -35 -35 34 c-20 19 -36 39
-36 45 0 6 14 25 31 42 l32 33 33 -27 c19 -15 34 -34 34 -42z m-153 -92 c18
-18 33 -37 33 -43 0 -6 -17 -28 -38 -48 -35 -34 -40 -36 -52 -22 -26 32 -12
145 18 145 3 0 21 -14 39 -32z m212 -54 c1 -28 -2 -53 -5 -57 -6 -6 -54 57
-54 70 0 3 10 22 22 41 19 31 22 33 29 16 4 -10 8 -42 8 -70z m-86 -75 c42
-48 42 -48 1 -90 l-38 -39 -33 36 c-18 20 -33 41 -33 47 0 10 58 73 70 76 3 0
18 -13 33 -30z m-100 -201 l-10 -22 -16 24 c-8 14 -19 39 -23 55 l-6 30 33
-32 c28 -27 31 -35 22 -55z m121 8 c-6 -16 -24 -23 -24 -8 0 10 22 33 27 28 2
-2 1 -11 -3 -20z"/>
</g>
</svg>
