<?xml version="1.0" standalone="no"?>
<!DOCTYPE svg PUBLIC "-//W3C//DTD SVG 20010904//EN"
 "http://www.w3.org/TR/2001/REC-SVG-20010904/DTD/svg10.dtd">
<svg version="1.0" xmlns="http://www.w3.org/2000/svg"
 width="2551.000000pt" height="2701.000000pt" viewBox="0 0 2551.000000 2701.000000"
 preserveAspectRatio="xMidYMid meet">

<g transform="translate(0.000000,2701.000000) scale(0.100000,-0.100000)"
fill="#C5C3C1" stroke="none">
<path d="M11793 18333 l-53 -45 0 -757 c0 -585 -3 -760 -12 -769 -18 -18 -19
-171 -2 -199 23 -37 17 -82 -15 -112 -68 -64 -96 -134 -72 -179 7 -13 0 -32
-26 -74 -23 -38 -35 -69 -35 -93 0 -24 12 -55 35 -93 26 -42 33 -61 26 -74
-24 -45 -4 -101 60 -163 33 -31 41 -46 41 -75 0 -20 -5 -41 -12 -48 -18 -18
-20 -171 -2 -199 21 -33 21 -1473 0 -1506 -18 -29 -17 -198 2 -205 6 -2 12
-20 12 -39 0 -29 -9 -46 -50 -88 -56 -60 -67 -92 -51 -144 10 -33 8 -40 -23
-86 -55 -82 -54 -105 5 -193 26 -39 29 -49 20 -69 -22 -49 -13 -78 44 -142 43
-48 55 -69 55 -94 0 -18 -6 -39 -12 -45 -18 -18 -19 -171 -2 -199 12 -19 14
-245 14 -1392 0 -1498 4 -1392 -56 -1407 -27 -7 -31 -28 -9 -50 22 -23 18 -51
-10 -70 -22 -14 -25 -24 -25 -70 l0 -54 155 0 156 0 -3 58 c-2 42 -7 57 -18
57 -8 0 -19 12 -24 27 -8 22 -6 32 10 49 19 21 19 21 -6 40 -14 11 -33 27 -42
34 -17 14 -18 92 -18 1384 0 1283 1 1371 17 1400 15 24 16 35 7 59 -7 18 -8
36 -3 43 13 21 11 63 -6 85 -28 37 -19 76 30 124 52 51 69 94 60 150 -6 34 -2
47 24 87 42 63 42 121 1 186 -25 40 -29 54 -24 87 9 58 -1 84 -56 145 -39 44
-50 62 -50 89 0 19 6 36 12 38 19 7 20 176 2 205 -19 31 -21 1482 -2 1501 18
18 19 171 2 199 -26 42 -17 80 30 131 65 71 81 115 57 161 -8 14 -2 30 26 71
46 69 47 110 4 180 -28 45 -31 57 -25 99 7 57 -2 77 -62 143 -46 49 -58 100
-32 126 18 18 19 171 2 199 -11 18 -14 165 -16 822 l-3 800 -52 -46z m-43
-1949 c0 -3 -5 -14 -10 -25 -16 -28 -32 -23 -18 6 10 22 28 35 28 19z m118
-19 c13 -29 5 -33 -14 -7 -15 20 -18 32 -6 32 5 0 14 -11 20 -25z m-21 -154
c-51 -58 -45 -57 -88 -15 l-39 38 37 38 37 38 38 -37 38 -37 -23 -25z m-127
-131 c-10 -15 -26 -32 -34 -39 -29 -24 -47 59 -25 116 l11 28 34 -39 33 -39
-19 -27z m215 20 c0 -32 -4 -62 -8 -67 -5 -4 -24 10 -42 31 l-33 40 31 38 c39
48 52 38 52 -42z m-73 -135 c-4 -7 -21 -24 -38 -38 l-31 -26 -31 32 c-18 18
-32 37 -32 42 0 5 14 24 32 42 l32 33 38 -37 c22 -21 34 -41 30 -48z m-122
-114 c12 -24 13 -31 2 -31 -5 0 -14 11 -20 25 -14 29 2 34 18 6z m128 -6 c-6
-14 -15 -25 -20 -25 -11 0 -10 7 4 30 18 29 30 25 16 -5z m-118 -2277 c-1 -17
-39 -67 -40 -51 0 18 22 63 32 63 4 0 8 -6 8 -12z m120 -21 c0 -5 -4 -5 -10
-2 -5 3 -10 14 -10 23 0 15 2 15 10 2 5 -8 10 -19 10 -23z m0 -120 c0 -15 -52
-77 -64 -77 -7 0 -27 16 -46 35 l-34 35 39 40 39 40 33 -32 c18 -18 33 -36 33
-41z m-152 -97 l34 -39 -40 -42 -39 -43 -13 38 c-15 46 -3 128 18 125 4 0 22
-18 40 -39z m217 -45 c0 -59 -12 -96 -22 -67 -3 7 -16 26 -29 42 l-25 29 28
39 c36 51 48 40 48 -43z m-65 -125 c0 -9 -15 -30 -33 -48 l-33 -32 -39 40 -39
40 39 40 39 40 33 -32 c18 -18 33 -39 33 -48z m-120 -144 c-1 -20 -1 -20 -20
3 -11 13 -20 30 -20 39 0 13 3 12 20 -3 11 -10 20 -28 20 -39z m115 5 c-3 -6
-11 -11 -17 -11 -6 0 -6 6 2 15 14 17 26 13 15 -4z"/>
</g>
</svg>
