<?xml version="1.0" standalone="no"?>
<!DOCTYPE svg PUBLIC "-//W3C//DTD SVG 20010904//EN"
 "http://www.w3.org/TR/2001/REC-SVG-20010904/DTD/svg10.dtd">
<svg version="1.0" xmlns="http://www.w3.org/2000/svg"
 width="2550.000000pt" height="2700.000000pt" viewBox="0 0 2550.000000 2700.000000"
 preserveAspectRatio="xMidYMid meet">

<g transform="translate(0.000000,2700.000000) scale(0.100000,-0.100000)"
fill="#C5C3C1" stroke="none">
<path d="M18208 22377 l-48 -42 0 -580 c0 -329 -5 -619 -11 -670 -15 -136 -38
-268 -65 -383 -13 -57 -24 -114 -24 -127 0 -28 33 -71 71 -90 36 -19 37 -42 2
-57 -38 -17 -38 -16 -21 -35 36 -41 32 -60 -21 -100 -27 -21 -50 -46 -50 -55
-1 -9 21 -36 49 -60 27 -24 50 -47 50 -51 0 -5 -9 -22 -21 -38 l-20 -29 37
-32 36 -32 -22 -18 c-12 -10 -28 -18 -35 -18 -20 0 -45 -35 -51 -71 -3 -19 1
-59 10 -89 23 -82 63 -310 76 -431 14 -143 15 -677 1 -814 -15 -138 -35 -260
-67 -395 -34 -142 -25 -181 49 -209 32 -12 40 -61 10 -61 -39 0 -45 -15 -23
-53 24 -40 16 -70 -20 -82 -11 -3 -20 -10 -20 -15 0 -5 -9 -12 -20 -15 -32
-10 -23 -41 24 -80 56 -46 62 -62 36 -97 -11 -15 -20 -29 -20 -31 0 -3 14 -10
30 -17 44 -18 41 -53 -7 -77 -55 -26 -69 -63 -54 -133 97 -442 94 -385 92
-1605 -1 -583 -4 -1067 -6 -1076 -3 -9 -19 -22 -35 -29 -34 -14 -37 -22 -15
-40 23 -19 18 -44 -16 -74 -22 -20 -29 -34 -27 -54 l3 -27 153 -3 152 -3 0 35
c0 25 -6 38 -26 51 -26 17 -29 40 -11 85 4 10 -5 22 -26 35 l-32 20 -3 1035
c-2 890 0 1055 13 1175 19 162 39 286 66 403 10 45 19 98 19 116 0 40 -28 79
-70 96 -34 14 -44 60 -12 60 9 0 23 4 31 9 11 7 11 13 -3 32 -28 41 -20 65 34
106 28 20 50 41 50 45 0 4 -22 26 -50 49 -52 44 -63 75 -35 99 22 19 18 33
-15 52 -43 24 -38 50 13 73 63 30 70 61 41 184 -60 250 -84 481 -84 815 0 319
26 570 81 796 11 47 21 100 21 118 0 43 -26 80 -68 98 -45 19 -47 52 -4 61 33
6 39 23 15 43 -30 25 -18 58 35 96 57 41 57 48 -11 114 -45 43 -47 55 -18 86
l20 22 -35 27 c-43 33 -46 52 -8 66 76 29 86 69 52 211 -70 295 -81 454 -80
1138 1 315 -2 576 -7 580 -4 5 -29 -10 -55 -33z"/>
</g>
</svg>
