<?xml version="1.0" standalone="no"?>
<!DOCTYPE svg PUBLIC "-//W3C//DTD SVG 20010904//EN"
 "http://www.w3.org/TR/2001/REC-SVG-20010904/DTD/svg10.dtd">
<svg version="1.0" xmlns="http://www.w3.org/2000/svg"
 width="2550.000000pt" height="2700.000000pt" viewBox="0 0 2550.000000 2700.000000"
 preserveAspectRatio="xMidYMid meet">

<g transform="translate(0.000000,2700.000000) scale(0.100000,-0.100000)"
fill="#C5C3C1" stroke="none">
<path d="M9104 14125 c-2 -5 -5 -413 -7 -905 -4 -743 -7 -919 -21 -1035 -9
-77 -19 -187 -22 -245 -7 -103 -6 -106 20 -137 15 -18 26 -43 26 -61 0 -27 -4
-31 -40 -37 -45 -8 -48 -13 -20 -38 44 -38 18 -94 -62 -131 -20 -9 -40 -22
-44 -28 -8 -13 35 -51 86 -76 44 -21 52 -62 20 -97 -27 -29 -20 -42 25 -51 30
-5 35 -10 35 -35 0 -15 -6 -32 -14 -36 -40 -24 -44 -75 -21 -294 8 -79 19
-213 25 -297 12 -190 13 -865 0 -1027 -15 -189 -21 -265 -30 -335 -4 -36 -8
-99 -9 -141 -2 -69 0 -79 24 -107 38 -45 32 -83 -15 -95 -46 -12 -47 -13 -23
-40 35 -38 36 -56 4 -88 -16 -16 -37 -29 -45 -29 -9 0 -16 -3 -16 -8 0 -4 -10
-12 -22 -17 -28 -12 -29 -34 -3 -49 11 -6 23 -15 26 -19 3 -4 21 -16 40 -25
43 -22 51 -63 18 -98 -25 -27 -22 -34 24 -50 42 -14 47 -47 13 -81 -32 -31
-33 -74 -11 -286 8 -78 19 -221 25 -317 11 -184 15 -2466 4 -2494 -3 -8 -22
-20 -42 -27 -53 -17 -56 -20 -34 -35 31 -21 33 -50 6 -79 -12 -14 -30 -25 -39
-25 -11 0 -15 -11 -15 -42 0 -24 4 -48 8 -54 4 -6 41 -19 82 -29 41 -10 80
-23 86 -27 7 -5 14 -3 17 6 4 9 18 15 34 15 45 -2 165 20 180 32 17 15 17 89
0 89 -21 0 -57 39 -57 62 0 12 7 29 16 39 15 16 13 19 -25 38 -22 12 -44 29
-49 39 -13 25 -7 2418 7 2567 5 66 18 192 27 280 17 160 17 160 -4 205 -12 25
-27 53 -34 63 -13 17 -2 52 15 48 4 -1 21 6 38 14 l31 16 -26 24 c-14 13 -26
32 -26 43 0 20 39 62 58 62 7 0 20 8 30 18 10 9 27 23 38 30 19 12 19 12 0 25
-11 6 -28 20 -38 30 -10 9 -24 17 -31 17 -19 0 -57 43 -57 64 0 9 12 28 26 43
14 14 23 27 21 29 -2 2 -21 10 -43 17 -31 11 -39 19 -41 40 -1 18 4 28 17 32
38 12 44 69 26 242 -35 344 -40 447 -40 868 0 422 7 575 40 868 18 156 14 193
-22 237 -30 34 -29 73 1 79 11 2 30 7 43 12 l24 9 -26 31 c-14 17 -26 37 -26
45 0 19 36 54 55 54 9 0 18 7 21 15 4 8 12 15 19 15 6 0 20 9 30 20 17 19 17
20 -14 37 -17 10 -31 21 -31 26 0 4 -6 7 -14 7 -22 0 -66 40 -66 60 0 10 12
32 26 49 l26 31 -24 9 c-13 5 -32 10 -43 12 -30 6 -31 46 -1 74 36 33 40 75
22 237 -16 145 -31 341 -40 523 -3 55 -6 436 -6 846 l0 746 -71 -1 c-39 -1
-73 -5 -75 -11z"/>
</g>
</svg>
