<?xml version="1.0" standalone="no"?>
<!DOCTYPE svg PUBLIC "-//W3C//DTD SVG 20010904//EN"
 "http://www.w3.org/TR/2001/REC-SVG-20010904/DTD/svg10.dtd">
<svg version="1.0" xmlns="http://www.w3.org/2000/svg"
 width="2550.000000pt" height="2700.000000pt" viewBox="0 0 2550.000000 2700.000000"
 preserveAspectRatio="xMidYMid meet">

<g transform="translate(0.000000,2700.000000) scale(0.100000,-0.100000)"
fill="#C5C3C1" stroke="none">
<path d="M23946 26968 c5 -29 2 -35 -25 -51 -17 -10 -36 -27 -42 -39 -28 -52
-27 -77 6 -255 60 -317 68 -430 62 -875 -3 -216 -8 -406 -11 -423 -3 -16 -8
-57 -11 -90 -4 -33 -18 -125 -32 -205 -46 -253 -42 -300 27 -315 23 -5 30 -12
30 -31 0 -19 -9 -28 -40 -40 -37 -15 -54 -34 -30 -34 5 0 17 -14 26 -32 16
-32 16 -32 -15 -60 -17 -15 -38 -28 -46 -28 -8 0 -15 -5 -15 -10 0 -6 -11 -15
-25 -20 -29 -11 -33 -38 -7 -47 30 -12 101 -64 111 -81 10 -18 -12 -72 -29
-72 -24 0 -6 -22 30 -36 34 -14 40 -21 40 -45 0 -17 -5 -29 -13 -29 -24 0 -70
-58 -77 -97 -3 -21 0 -64 7 -96 19 -83 51 -272 57 -337 3 -30 10 -95 16 -145
11 -97 14 -1432 4 -1460 -4 -9 -24 -23 -45 -32 -43 -17 -47 -24 -24 -43 31
-26 11 -76 -37 -93 -28 -10 -23 -40 5 -34 12 3 92 15 177 27 85 12 156 24 158
25 2 2 -1 13 -8 24 -11 22 1 61 20 61 24 0 6 18 -29 30 -21 7 -44 22 -51 34
-19 36 -8 1403 13 1561 24 186 35 252 57 360 11 55 20 114 20 130 0 41 -23 71
-65 85 -27 9 -35 17 -35 35 0 18 8 26 38 36 52 16 57 21 40 33 -23 17 -40 55
-33 76 4 11 21 27 38 36 18 9 47 27 65 41 26 20 31 28 21 39 -6 8 -18 14 -26
14 -7 0 -16 7 -19 15 -4 8 -12 15 -19 15 -21 0 -65 40 -65 60 0 10 11 32 24
47 l24 28 -41 16 c-32 13 -43 22 -45 42 -3 20 3 29 28 42 36 19 70 69 70 105
0 14 -9 68 -20 121 -58 291 -80 524 -80 869 0 340 22 590 80 890 31 164 27
186 -40 220 -35 18 -39 24 -34 45 l6 25 -85 0 -86 0 5 -32z"/>
</g>
</svg>
