<?xml version="1.0" standalone="no"?>
<!DOCTYPE svg PUBLIC "-//W3C//DTD SVG 20010904//EN"
 "http://www.w3.org/TR/2001/REC-SVG-20010904/DTD/svg10.dtd">
<svg version="1.0" xmlns="http://www.w3.org/2000/svg"
 width="2550.000000pt" height="2700.000000pt" viewBox="0 0 2550.000000 2700.000000"
 preserveAspectRatio="xMidYMid meet">

<g transform="translate(0.000000,2700.000000) scale(0.100000,-0.100000)"
fill="#C5C3C1" stroke="none">
<path d="M24846 26774 c-4 -124 -11 -261 -17 -303 -5 -42 -12 -103 -15 -136
-3 -33 -17 -118 -31 -190 -45 -236 -42 -258 32 -289 49 -21 47 -50 -2 -66 -53
-17 -57 -23 -28 -50 14 -13 25 -34 25 -46 0 -23 -42 -64 -66 -64 -8 0 -14 -5
-14 -10 0 -6 -11 -15 -25 -20 -14 -5 -25 -16 -25 -24 0 -15 50 -55 92 -73 38
-17 46 -57 19 -93 -11 -16 -21 -31 -21 -34 0 -2 18 -11 40 -20 52 -21 56 -57
10 -81 -37 -19 -70 -70 -70 -107 0 -15 13 -94 30 -175 67 -336 64 -266 68
-1610 2 -849 0 -1229 -8 -1242 -6 -11 -28 -26 -50 -32 -22 -7 -40 -14 -40 -16
0 -1 9 -12 20 -23 11 -11 20 -27 20 -35 0 -17 -33 -53 -65 -71 -10 -5 -16 -15
-12 -20 4 -7 32 -6 84 2 43 8 123 19 178 26 l100 13 -3 36 c-2 23 2 40 12 48
24 20 20 27 -24 40 -22 6 -44 20 -50 31 -6 12 -10 235 -10 629 0 396 -4 612
-10 616 -13 8 -14 477 -1 491 6 5 12 159 14 354 5 342 12 440 53 695 9 55 22
127 30 160 17 74 17 145 1 166 -7 10 -30 24 -51 33 -51 21 -47 53 8 73 22 7
41 15 43 17 2 2 -7 15 -21 29 -14 15 -26 35 -26 45 0 22 40 62 63 62 9 0 20 6
24 13 4 6 17 17 28 23 11 6 20 17 20 24 0 7 -9 18 -20 24 -11 6 -24 17 -28 24
-4 6 -14 12 -21 12 -22 0 -66 40 -66 60 0 10 11 31 24 47 l24 28 -41 21 c-55
27 -60 55 -13 82 72 43 79 97 38 292 -41 192 -55 322 -61 580 l-6 255 -76 3
-76 3 -7 -227z"/>
</g>
</svg>
