<?xml version="1.0" standalone="no"?>
<!DOCTYPE svg PUBLIC "-//W3C//DTD SVG 20010904//EN"
 "http://www.w3.org/TR/2001/REC-SVG-20010904/DTD/svg10.dtd">
<svg version="1.0" xmlns="http://www.w3.org/2000/svg"
 width="2550.000000pt" height="2700.000000pt" viewBox="0 0 2550.000000 2700.000000"
 preserveAspectRatio="xMidYMid meet">

<g transform="translate(0.000000,2700.000000) scale(0.100000,-0.100000)"
fill="#C5C3C1" stroke="none">
<path d="M9305 14118 c-2 -7 -6 -389 -8 -848 -4 -892 -2 -858 -58 -1198 -21
-125 -21 -135 -6 -168 9 -19 28 -40 42 -46 18 -8 25 -19 25 -38 0 -22 -7 -29
-40 -40 -40 -13 -40 -13 -22 -34 43 -48 33 -86 -31 -117 -68 -32 -82 -46 -67
-64 7 -8 18 -15 25 -15 7 0 15 -7 19 -15 3 -8 14 -15 25 -15 18 0 61 -43 61
-61 0 -4 -12 -21 -26 -38 l-26 -31 27 -10 c14 -5 32 -10 40 -10 7 0 15 -14 17
-30 4 -26 0 -33 -28 -49 -56 -33 -60 -70 -30 -251 45 -271 56 -432 56 -819 0
-387 -11 -539 -56 -827 -24 -150 -26 -176 -14 -204 8 -20 24 -36 42 -42 25 -9
29 -15 26 -42 -2 -17 -7 -31 -13 -32 -25 -2 -65 -17 -65 -25 0 -4 6 -12 14
-16 7 -4 19 -19 26 -32 10 -20 9 -27 -7 -50 -11 -14 -30 -27 -42 -29 -11 -2
-21 -7 -21 -12 0 -5 -16 -17 -36 -26 -43 -21 -34 -33 64 -78 51 -24 60 -83 16
-109 -20 -11 -17 -27 4 -27 9 0 28 -6 42 -13 33 -17 28 -47 -15 -90 -19 -19
-37 -46 -41 -61 -3 -14 5 -96 20 -184 56 -340 57 -377 54 -1617 l-3 -1140 -40
-20 c-22 -11 -42 -21 -44 -22 -2 -2 3 -11 12 -21 10 -10 17 -28 17 -39 0 -21
-39 -63 -58 -63 -7 0 -12 -16 -12 -39 l0 -38 75 -13 c42 -7 78 -17 81 -21 7
-11 77 -12 89 -1 6 5 47 17 93 27 l82 18 0 36 c-1 29 -7 40 -33 56 -37 24 -46
58 -21 86 16 18 16 19 -18 33 -19 8 -40 21 -47 29 -9 12 -11 290 -8 1234 4
1312 1 1234 58 1579 24 145 19 176 -31 201 -13 6 -27 20 -31 30 -6 18 6 43 22
43 4 0 20 5 34 10 l27 10 -26 31 c-14 17 -26 36 -26 43 0 20 35 48 108 87 35
19 26 42 -31 73 -83 47 -92 67 -52 114 l24 29 -25 12 c-14 6 -31 11 -39 11
-28 0 -18 54 15 78 49 37 56 81 31 213 -45 244 -53 348 -58 779 -5 457 4 616
53 912 26 155 26 157 8 195 -12 24 -27 39 -41 41 -19 3 -23 10 -23 38 0 23 5
34 14 34 8 0 27 5 41 10 l27 10 -26 31 c-14 17 -26 36 -26 43 0 18 43 56 63
56 9 0 17 5 17 10 0 6 11 15 25 20 32 12 33 47 3 61 -61 27 -108 64 -108 85 0
7 12 26 26 43 l26 31 -24 9 c-13 5 -32 10 -43 12 -33 7 -30 44 6 69 60 43 64
72 35 244 -59 348 -67 555 -66 1614 l0 412 -70 0 c-48 0 -72 -4 -75 -12z"/>
</g>
</svg>
