<?xml version="1.0" standalone="no"?>
<!DOCTYPE svg PUBLIC "-//W3C//DTD SVG 20010904//EN"
 "http://www.w3.org/TR/2001/REC-SVG-20010904/DTD/svg10.dtd">
<svg version="1.0" xmlns="http://www.w3.org/2000/svg"
 width="2550.000000pt" height="2700.000000pt" viewBox="0 0 2550.000000 2700.000000"
 preserveAspectRatio="xMidYMid meet">

<g transform="translate(0.000000,2700.000000) scale(0.100000,-0.100000)"
fill="#C5C3C1" stroke="none">
<path d="M11235 15516 c-6 -7 -36 -44 -67 -81 l-57 -67 -4 -542 c-4 -579 -6
-617 -63 -908 -23 -117 -23 -130 -10 -163 11 -25 26 -40 52 -51 25 -11 34 -20
30 -30 -3 -9 -6 -19 -6 -24 0 -5 -13 -11 -30 -15 -40 -9 -46 -22 -21 -49 12
-12 21 -29 21 -37 0 -24 -30 -59 -51 -59 -11 0 -22 -7 -25 -15 -4 -8 -13 -15
-20 -15 -27 0 -28 -31 -1 -56 14 -13 30 -24 35 -24 18 0 62 -42 62 -59 0 -9
-9 -27 -20 -39 -28 -30 -25 -39 17 -49 50 -12 53 -45 6 -73 -19 -11 -40 -35
-49 -55 -13 -33 -13 -46 10 -163 58 -290 61 -333 61 -817 0 -419 -2 -460 -23
-595 -23 -148 -61 -342 -67 -348 -2 -2 -14 1 -27 8 -19 9 -18 7 5 -10 15 -12
27 -27 27 -34 0 -18 53 -66 73 -66 12 0 17 -8 17 -30 0 -26 -3 -30 -29 -30
-35 0 -60 -24 -38 -37 8 -4 19 -18 26 -30 15 -30 1 -57 -39 -75 -16 -7 -30
-16 -30 -20 0 -5 -6 -8 -14 -8 -7 0 -20 -7 -27 -16 -12 -14 -9 -20 16 -41 17
-13 44 -30 62 -38 39 -17 50 -48 29 -80 -9 -14 -21 -25 -27 -25 -22 0 12 -29
42 -35 24 -5 29 -12 29 -35 0 -21 -6 -29 -24 -34 -28 -7 -66 -63 -66 -97 0
-13 11 -81 24 -150 63 -328 61 -266 61 -1519 l0 -1145 -35 -17 c-19 -10 -39
-20 -45 -22 -5 -3 -2 -10 8 -16 10 -6 17 -23 17 -41 0 -23 -7 -34 -30 -47 -29
-16 -30 -20 -28 -72 1 -30 8 -61 15 -68 9 -9 13 -10 13 -2 0 17 41 1 62 -24 9
-12 17 -15 18 -8 0 6 -4 12 -10 12 -5 0 -10 4 -10 8 0 5 14 7 30 4 18 -3 30 0
30 7 0 6 4 11 10 11 5 0 7 -7 4 -15 -5 -12 2 -15 29 -15 19 0 38 6 41 13 4 8
8 8 11 1 6 -12 52 -9 107 8 28 8 37 17 42 41 13 62 8 82 -24 94 -40 15 -52 59
-21 84 l22 18 -45 20 c-30 13 -47 27 -51 43 -3 13 -3 520 -1 1128 4 1195 4
1193 61 1512 36 201 33 227 -31 254 -44 19 -48 58 -6 67 50 11 57 22 33 48
-11 12 -21 31 -21 41 0 20 33 58 51 58 13 0 79 50 79 60 0 4 -13 13 -30 20
-16 7 -30 15 -30 19 0 4 -13 12 -30 18 -41 15 -50 56 -20 88 26 28 21 41 -20
50 -17 4 -30 13 -30 20 0 7 -3 20 -6 29 -4 11 -1 16 11 16 9 0 30 13 46 29 37
37 38 72 5 241 -43 220 -58 379 -63 690 -6 335 9 564 53 810 14 80 28 171 31
202 5 54 3 59 -25 88 -17 16 -38 30 -46 30 -23 0 -21 49 2 56 9 3 27 10 40 15
l23 9 -22 29 c-30 41 -20 71 35 100 25 13 52 32 62 42 16 17 15 19 -15 36 -17
10 -31 21 -31 26 0 4 -8 7 -18 7 -23 0 -52 30 -52 55 0 10 9 29 21 41 26 28
19 41 -26 50 -29 5 -35 11 -35 30 0 17 8 27 24 34 37 14 66 58 66 100 0 21 -9
80 -19 131 -59 288 -71 472 -71 1092 0 279 -3 507 -8 507 -4 0 -12 -6 -17 -14z"/>
</g>
</svg>
