<?xml version="1.0" standalone="no"?>
<!DOCTYPE svg PUBLIC "-//W3C//DTD SVG 20010904//EN"
 "http://www.w3.org/TR/2001/REC-SVG-20010904/DTD/svg10.dtd">
<svg version="1.0" xmlns="http://www.w3.org/2000/svg"
 width="2550.000000pt" height="2700.000000pt" viewBox="0 0 2550.000000 2700.000000"
 preserveAspectRatio="xMidYMid meet">

<g transform="translate(0.000000,2700.000000) scale(0.100000,-0.100000)"
fill="#C5C3C1" stroke="none">
<path d="M13703 18079 l-53 -56 0 -489 c0 -607 -12 -759 -81 -1071 l-32 -142
20 -33 c12 -21 32 -37 53 -44 27 -9 35 -17 35 -35 0 -21 -7 -27 -63 -56 -2 -1
6 -14 18 -30 17 -24 19 -34 11 -56 -6 -15 -19 -30 -28 -34 -22 -8 -63 -45 -63
-57 0 -10 48 -56 59 -56 13 0 41 -35 41 -52 0 -8 -9 -27 -20 -41 -20 -26 -20
-26 -1 -36 11 -6 27 -11 35 -11 10 0 16 -9 16 -25 0 -19 -8 -28 -27 -36 -16
-6 -36 -18 -47 -27 -36 -33 -37 -58 -12 -175 61 -278 76 -404 83 -707 8 -360
-14 -613 -82 -912 -23 -100 -23 -112 -10 -144 10 -24 26 -39 52 -50 48 -20 45
-17 37 -48 -3 -15 -13 -26 -23 -26 -9 0 -23 -4 -31 -10 -12 -8 -12 -11 3 -28
30 -33 13 -102 -25 -102 -6 0 -22 -12 -35 -26 l-25 -27 28 -26 c16 -14 37 -31
49 -36 25 -13 31 -59 11 -90 -15 -22 -14 -24 19 -44 19 -11 35 -24 35 -28 0
-15 -15 -30 -37 -37 -29 -9 -73 -62 -73 -87 0 -11 11 -68 25 -127 29 -128 52
-263 65 -391 11 -100 16 -1326 5 -1351 -3 -9 -19 -21 -35 -27 -30 -11 -30 -11
-13 -41 16 -28 16 -31 0 -56 -10 -14 -24 -26 -32 -26 -10 0 -15 -11 -15 -35 0
-60 26 -68 183 -61 72 3 135 6 140 6 4 0 7 15 7 34 0 25 -6 38 -24 50 -34 22
-42 53 -20 78 18 19 18 20 -1 31 -11 6 -29 20 -41 32 l-21 21 2 640 c2 521 6
660 19 754 20 147 42 265 67 362 10 42 19 88 19 101 0 27 -44 87 -63 87 -19 0
-34 14 -41 37 -6 18 -1 23 29 33 39 13 41 17 20 40 -32 36 -23 61 39 108 l58
45 -26 16 c-14 9 -26 19 -26 24 0 4 -11 12 -25 17 -14 5 -30 21 -36 34 -10 20
-8 30 10 54 27 38 27 39 -9 47 -16 4 -30 10 -30 15 0 5 -3 15 -6 24 -4 10 4
19 28 29 79 33 85 64 49 228 -59 263 -78 441 -80 754 -2 339 22 577 84 841 32
134 23 169 -52 201 -47 19 -45 54 2 72 32 11 48 31 26 31 -5 0 -14 14 -22 32
-13 31 -12 32 32 70 24 21 47 38 52 38 4 0 7 8 7 18 0 11 -20 33 -44 50 -56
40 -65 65 -37 103 21 28 21 28 2 39 -11 5 -27 10 -35 10 -10 0 -16 9 -16 25 0
20 8 28 39 41 27 11 45 26 56 50 15 32 15 40 -14 172 -30 133 -41 194 -63 352
-6 42 -13 350 -17 695 l-6 620 -52 -56z"/>
</g>
</svg>
