<?xml version="1.0" standalone="no"?>
<!DOCTYPE svg PUBLIC "-//W3C//DTD SVG 20010904//EN"
 "http://www.w3.org/TR/2001/REC-SVG-20010904/DTD/svg10.dtd">
<svg version="1.0" xmlns="http://www.w3.org/2000/svg"
 width="2644.000000pt" height="2800.000000pt" viewBox="0 0 2644.000000 2800.000000"
 preserveAspectRatio="xMidYMid meet">

<g transform="translate(0.000000,2800.000000) scale(0.100000,-0.100000)"
fill="#3a4548" stroke="none">
<path d="M1590 14021 c-6 -13 -10 -227 -10 -625 l0 -606 -34 0 c-18 0 -61 -3
-95 -6 l-61 -7 0 -2813 0 -2813 48 -3 c26 -2 66 1 90 5 24 5 45 7 47 5 2 -1 6
-359 9 -793 6 -778 6 -791 -13 -812 -11 -12 -36 -26 -56 -33 -40 -13 -43 -20
-15 -38 29 -18 25 -57 -7 -81 -16 -12 -33 -25 -39 -30 -6 -5 -11 -24 -10 -43
l1 -33 125 -11 c120 -10 128 -9 220 16 l95 26 3 39 c2 36 -1 41 -30 55 -42 19
-51 69 -18 93 21 14 20 15 -28 31 -30 10 -66 15 -93 12 l-44 -5 38 11 37 12 0
812 c0 679 2 813 14 817 7 3 34 9 60 12 25 4 46 10 46 14 0 4 14 12 30 18 l30
11 0 2755 c0 1516 3 2762 6 2771 5 14 -6 16 -90 16 l-96 0 0 620 0 620 -75 0
c-63 0 -76 -3 -85 -19z m180 -4010 l0 -2670 -72 -15 c-40 -8 -88 -18 -105 -21
l-33 -7 0 2686 0 2685 33 4 c17 2 65 5 105 5 l72 2 0 -2669z"/>
</g>
</svg>
