<?xml version="1.0" standalone="no"?>
<!DOCTYPE svg PUBLIC "-//W3C//DTD SVG 20010904//EN"
 "http://www.w3.org/TR/2001/REC-SVG-20010904/DTD/svg10.dtd">
<svg version="1.0" xmlns="http://www.w3.org/2000/svg"
 width="2644.000000pt" height="2800.000000pt" viewBox="0 0 2644.000000 2800.000000"
 preserveAspectRatio="xMidYMid meet">

<g transform="translate(0.000000,2800.000000) scale(0.100000,-0.100000)"
fill="#3a4548" stroke="none">
<path d="M8390 16775 l0 -585 -65 0 -65 0 0 -2425 0 -2425 65 0 65 0 0 -580 0
-580 -32 -20 c-18 -11 -37 -22 -43 -23 -5 -2 -1 -14 9 -26 16 -18 17 -25 7
-47 -6 -14 -20 -28 -31 -31 -15 -4 -20 -14 -20 -39 0 -30 3 -34 36 -40 42 -8
270 1 297 11 25 10 24 75 -2 75 -28 0 -45 70 -21 85 17 11 11 23 -14 29 -59
15 -56 -15 -56 621 0 639 -4 595 58 595 15 0 37 3 50 6 l22 6 0 2399 0 2398
-62 3 -63 3 -5 585 -5 585 -62 3 -63 3 0 -586z m130 -2999 l0 -2313 -31 -7
c-17 -3 -47 -6 -65 -6 l-34 0 0 2320 0 2320 65 0 65 0 0 -2314z"/>
</g>
</svg>
