<?xml version="1.0" standalone="no"?>
<!DOCTYPE svg PUBLIC "-//W3C//DTD SVG 20010904//EN"
 "http://www.w3.org/TR/2001/REC-SVG-20010904/DTD/svg10.dtd">
<svg version="1.0" xmlns="http://www.w3.org/2000/svg"
 width="2644.000000pt" height="2800.000000pt" viewBox="0 0 2644.000000 2800.000000"
 preserveAspectRatio="xMidYMid meet">

<g transform="translate(0.000000,2800.000000) scale(0.100000,-0.100000)"
fill="#3a4548" stroke="none">
<path d="M9890 17065 l0 -155 -60 0 -60 0 0 -2295 0 -2294 33 -6 c17 -3 43 -5
57 -3 l25 3 0 -165 0 -164 -37 -21 c-34 -19 -36 -22 -21 -37 21 -22 10 -61
-22 -76 -19 -9 -25 -19 -25 -42 l0 -30 88 -1 c227 -4 252 0 252 41 0 17 -4 30
-10 30 -15 0 -50 38 -50 54 0 8 7 21 15 30 14 14 12 17 -17 32 -18 9 -36 22
-40 28 -4 6 -8 84 -8 174 l0 162 29 0 c16 0 43 3 60 6 l31 7 0 2273 0 2274
-44 0 c-79 0 -76 -7 -76 171 l0 159 -60 0 -60 0 0 -155z m108 -263 c10 -7 12
-452 10 -2192 l-3 -2185 -49 -7 c-28 -4 -53 -5 -58 -2 -10 6 -11 4378 -1 4387
9 10 85 8 101 -1z"/>
</g>
</svg>
