<?xml version="1.0" standalone="no"?>
<!DOCTYPE svg PUBLIC "-//W3C//DTD SVG 20010904//EN"
 "http://www.w3.org/TR/2001/REC-SVG-20010904/DTD/svg10.dtd">
<svg version="1.0" xmlns="http://www.w3.org/2000/svg"
 width="2644.000000pt" height="2800.000000pt" viewBox="0 0 2644.000000 2800.000000"
 preserveAspectRatio="xMidYMid meet">

<g transform="translate(0.000000,2800.000000) scale(0.100000,-0.100000)"
fill="#3a4548" stroke="none">
<path d="M3720 13421 l0 -618 -31 -7 c-17 -3 -58 -6 -90 -6 l-59 0 0 -2805 0
-2804 36 -7 c34 -6 95 -1 128 12 15 6 16 -67 16 -786 0 -474 -4 -798 -9 -809
-6 -10 -28 -26 -51 -36 l-40 -18 21 -23 c28 -30 19 -68 -21 -89 -25 -13 -30
-21 -30 -54 0 -47 2 -48 160 -56 101 -4 124 -2 190 17 l75 23 3 43 c3 33 -1
44 -15 49 -52 18 -67 57 -33 88 28 25 25 32 -15 39 -70 13 -65 -49 -65 846 l0
808 71 16 c39 9 78 16 85 16 15 0 15 -12 14 1255 0 253 0 1323 0 2378 l0 1917
-85 0 -85 0 0 615 0 615 -85 0 -85 0 0 -619z m178 -3393 c-3 -2462 -4 -2661
-19 -2664 -10 -1 -49 -9 -87 -18 -39 -9 -73 -16 -76 -16 -4 0 -6 1203 -6 2674
l0 2675 43 4 c23 2 66 4 95 5 l52 2 -2 -2662z"/>
</g>
</svg>
