<?xml version="1.0" standalone="no"?>
<!DOCTYPE svg PUBLIC "-//W3C//DTD SVG 20010904//EN"
 "http://www.w3.org/TR/2001/REC-SVG-20010904/DTD/svg10.dtd">
<svg version="1.0" xmlns="http://www.w3.org/2000/svg"
 width="2644.000000pt" height="2800.000000pt" viewBox="0 0 2644.000000 2800.000000"
 preserveAspectRatio="xMidYMid meet">

<g transform="translate(0.000000,2800.000000) scale(0.100000,-0.100000)"
fill="#3a4548" stroke="none">
<path d="M4498 14616 l-78 -110 0 -338 0 -338 -85 0 -85 0 0 -2751 0 -2752 85
5 85 4 -2 -335 -3 -336 -47 -25 -48 -26 22 -21 c28 -28 18 -67 -22 -85 -26
-11 -30 -18 -30 -54 l0 -41 124 -7 c101 -6 141 -4 210 10 l86 18 0 43 c0 29
-4 43 -13 43 -17 0 -57 42 -57 59 0 6 10 22 23 35 l23 23 -48 18 c-33 12 -50
24 -53 39 -3 11 -4 170 -3 351 l3 330 83 15 82 14 0 2719 0 2719 -82 -3 -83
-4 -5 445 -5 445 -77 -109z m90 -3503 l-3 -2607 -35 -8 c-49 -11 -91 -19 -115
-21 -20 -2 -20 5 -23 2621 l-2 2622 90 0 90 0 -2 -2607z"/>
</g>
</svg>
