<?xml version="1.0" standalone="no"?>
<!DOCTYPE svg PUBLIC "-//W3C//DTD SVG 20010904//EN"
 "http://www.w3.org/TR/2001/REC-SVG-20010904/DTD/svg10.dtd">
<svg version="1.0" xmlns="http://www.w3.org/2000/svg"
 width="2644.000000pt" height="2800.000000pt" viewBox="0 0 2644.000000 2800.000000"
 preserveAspectRatio="xMidYMid meet">

<g transform="translate(0.000000,2800.000000) scale(0.100000,-0.100000)"
fill="#3a4548" stroke="none">
<path d="M22500 25111 l0 -2890 21 -6 c11 -4 81 -4 155 0 l134 7 0 -361 c0
-215 -4 -370 -10 -380 -5 -10 -28 -26 -50 -35 l-41 -16 22 -29 c27 -37 22 -61
-18 -86 -18 -11 -32 -24 -33 -28 0 -9 299 0 332 9 14 4 15 10 7 31 -8 22 -6
32 11 55 l20 27 -39 20 c-21 11 -41 27 -45 36 -3 9 -6 184 -6 390 l0 372 38 7
c20 3 71 6 112 6 41 0 92 3 113 6 l37 7 0 2873 0 2874 -75 0 -75 0 0 -2807 c0
-1543 -2 -2808 -3 -2810 -6 -5 -441 -30 -449 -26 -5 2 -8 1273 -8 2824 l0
2819 -75 0 -75 0 0 -2889z"/>
</g>
</svg>
