<?xml version="1.0" standalone="no"?>
<!DOCTYPE svg PUBLIC "-//W3C//DTD SVG 20010904//EN"
 "http://www.w3.org/TR/2001/REC-SVG-20010904/DTD/svg10.dtd">
<svg version="1.0" xmlns="http://www.w3.org/2000/svg"
 width="2644.000000pt" height="2800.000000pt" viewBox="0 0 2644.000000 2800.000000"
 preserveAspectRatio="xMidYMid meet">

<g transform="translate(0.000000,2800.000000) scale(0.100000,-0.100000)"
fill="#3a4548" stroke="none">
<path d="M15478 15536 l-78 -159 0 -323 0 -324 -60 0 -60 0 0 -2929 c0 -2662
1 -2929 16 -2935 9 -3 36 -6 60 -6 l44 0 0 -821 c0 -492 -4 -827 -9 -838 -6
-10 -28 -26 -50 -36 -47 -21 -49 -25 -21 -43 11 -7 20 -23 20 -35 0 -26 -34
-67 -55 -67 -11 0 -15 -12 -15 -45 0 -55 -2 -55 185 -58 117 -2 148 1 188 17
46 18 47 20 47 60 -1 35 -5 44 -33 61 -40 25 -46 59 -17 90 l22 23 -36 12
c-71 23 -66 -48 -66 884 l0 843 60 16 60 17 0 2895 0 2895 -60 0 -60 0 -2 483
-3 482 -77 -159z m42 -3705 c0 -1529 -3 -2782 -7 -2784 -5 -3 -23 -8 -40 -12
l-33 -7 0 2791 0 2791 40 0 40 0 0 -2779z"/>
</g>
</svg>
