<?xml version="1.0" standalone="no"?>
<!DOCTYPE svg PUBLIC "-//W3C//DTD SVG 20010904//EN"
 "http://www.w3.org/TR/2001/REC-SVG-20010904/DTD/svg10.dtd">
<svg version="1.0" xmlns="http://www.w3.org/2000/svg"
 width="2644.000000pt" height="2800.000000pt" viewBox="0 0 2644.000000 2800.000000"
 preserveAspectRatio="xMidYMid meet">

<g transform="translate(0.000000,2800.000000) scale(0.100000,-0.100000)"
fill="#3a4548" stroke="none">
<path d="M18137 24923 l-57 -57 0 -548 c0 -515 -1 -548 -17 -548 -10 -1 -34
-3 -53 -5 -19 -2 -74 -7 -122 -10 l-88 -7 0 -2888 c0 -2302 3 -2889 13 -2893
6 -2 69 -2 140 1 l127 5 -2 -369 -3 -369 -45 -25 c-44 -24 -45 -26 -28 -42 10
-10 18 -29 18 -41 0 -25 -28 -57 -48 -57 -7 0 -12 -6 -12 -12 0 -7 -3 -24 -7
-37 l-6 -24 204 6 c112 4 205 7 207 7 10 0 -1 50 -11 50 -21 0 -57 39 -57 60
0 11 9 29 20 40 20 20 20 20 -23 41 -23 12 -45 27 -49 33 -4 6 -8 174 -8 374
l0 362 25 1 c14 1 30 3 35 4 6 1 60 3 120 4 l110 1 0 2898 0 2899 -25 11 c-14
6 -30 10 -37 7 -7 -2 -62 -6 -121 -10 l-108 -6 1 588 c1 564 0 589 -17 600
-17 11 -26 6 -76 -44z m233 -4046 l0 -2774 -137 -6 c-75 -4 -169 -7 -210 -7
l-73 0 0 2765 c0 1521 3 2765 8 2766 27 3 335 26 370 28 l42 1 0 -2773z"/>
</g>
</svg>
