<?xml version="1.0" standalone="no"?>
<!DOCTYPE svg PUBLIC "-//W3C//DTD SVG 20010904//EN"
 "http://www.w3.org/TR/2001/REC-SVG-20010904/DTD/svg10.dtd">
<svg version="1.0" xmlns="http://www.w3.org/2000/svg"
 width="2644.000000pt" height="2800.000000pt" viewBox="0 0 2644.000000 2800.000000"
 preserveAspectRatio="xMidYMid meet">

<g transform="translate(0.000000,2800.000000) scale(0.100000,-0.100000)"
fill="#3a4548" stroke="none">
<path d="M19287 26022 l-57 -58 0 -576 0 -576 -22 -5 c-13 -3 -78 -9 -145 -13
l-123 -7 0 -2918 0 -2919 145 0 145 0 0 -834 c0 -459 -3 -842 -6 -851 -4 -9
-24 -23 -45 -32 -43 -17 -45 -20 -24 -47 28 -37 12 -84 -35 -98 -9 -3 -15 -18
-16 -38 l-1 -33 191 6 c105 4 197 7 204 7 6 0 12 11 12 25 0 14 -6 25 -13 25
-18 0 -57 42 -57 62 0 8 9 27 20 41 l20 25 -29 10 c-16 6 -39 20 -50 31 -21
21 -21 24 -21 866 l0 845 48 0 c26 0 91 3 145 7 l97 6 0 2923 c0 2825 -1 2924
-18 2933 -12 6 -61 7 -138 1 -65 -5 -123 -10 -127 -10 -4 0 -7 264 -7 588 0
323 1 601 0 619 0 21 -7 36 -18 42 -15 8 -29 0 -75 -47z m233 -4132 l0 -2800
-37 0 c-21 0 -118 -3 -216 -7 l-177 -6 2 2789 3 2789 90 7 c50 4 142 11 205
16 63 5 118 10 123 11 4 0 7 -1259 7 -2799z"/>
</g>
</svg>
