<?xml version="1.0" standalone="no"?>
<!DOCTYPE svg PUBLIC "-//W3C//DTD SVG 20010904//EN"
 "http://www.w3.org/TR/2001/REC-SVG-20010904/DTD/svg10.dtd">
<svg version="1.0" xmlns="http://www.w3.org/2000/svg"
 width="2550.000000pt" height="2700.000000pt" viewBox="0 0 2550.000000 2700.000000"
 preserveAspectRatio="xMidYMid meet">

<g transform="translate(0.000000,2700.000000) scale(0.100000,-0.100000)"
fill="#3a4548" stroke="none">
<path d="M10279 16195 c0 -5 -2 -559 -3 -1229 l-3 -1220 -21 -9 c-41 -19 -40
-101 2 -117 29 -11 29 -30 3 -105 -32 -94 -35 -244 -7 -337 31 -103 32 -118 4
-128 -42 -16 -45 -98 -4 -116 l21 -9 5 -1342 4 -1341 -26 -21 c-15 -12 -34
-21 -42 -21 -13 0 -13 -3 1 -18 24 -26 21 -47 -8 -70 -15 -12 -25 -30 -25 -45
0 -24 3 -25 85 -32 84 -7 169 0 213 16 31 12 28 41 -8 67 -33 25 -37 43 -15
66 21 20 19 23 -15 31 -17 4 -35 15 -41 26 -7 14 -8 431 -3 1352 l7 1332 23
22 c13 12 24 30 24 40 0 37 -13 63 -30 63 -32 0 -32 12 4 145 21 76 21 205 0
275 -9 30 -18 76 -21 101 -4 40 -2 47 16 52 39 10 40 104 1 114 -20 5 -20 22
-20 1082 -1 592 -2 1144 -3 1226 l-2 150 -57 5 c-36 3 -58 1 -59 -5z m70
-2860 c0 -27 -4 -59 -8 -70 -12 -31 -24 46 -15 101 9 59 24 38 23 -31z"/>
</g>
</svg>
