<?xml version="1.0" standalone="no"?>
<!DOCTYPE svg PUBLIC "-//W3C//DTD SVG 20010904//EN"
 "http://www.w3.org/TR/2001/REC-SVG-20010904/DTD/svg10.dtd">
<svg version="1.0" xmlns="http://www.w3.org/2000/svg"
 width="2550.000000pt" height="2700.000000pt" viewBox="0 0 2550.000000 2700.000000"
 preserveAspectRatio="xMidYMid meet">

<g transform="translate(0.000000,2700.000000) scale(0.100000,-0.100000)"
fill="#3a4548" stroke="none">
<path d="M1850 12130 l0 -1490 -24 0 c-40 0 -70 -32 -69 -74 1 -46 27 -77 62
-74 24 3 26 0 29 -40 2 -31 -3 -50 -18 -72 -87 -122 -91 -342 -9 -488 38 -68
36 -103 -7 -114 -41 -10 -56 -30 -56 -73 0 -45 26 -75 64 -75 l28 0 0 -2036
c0 -1250 -4 -2042 -9 -2053 -6 -10 -28 -26 -51 -36 l-40 -18 21 -24 c19 -19
21 -27 11 -47 -6 -14 -25 -32 -42 -41 -24 -13 -30 -22 -30 -49 l0 -33 113 -10
c104 -9 119 -8 215 15 l102 24 0 35 c0 23 -5 36 -17 40 -51 18 -67 61 -37 94
16 17 15 19 -10 29 -15 5 -31 10 -35 10 -4 0 -15 8 -25 19 -15 17 -16 152 -11
1987 3 1083 6 1997 5 2031 0 62 0 62 32 71 19 5 39 19 47 33 26 48 -10 116
-55 105 -22 -6 -24 -3 -24 35 0 27 12 66 35 113 64 128 64 279 0 415 -46 97
-47 154 -3 159 31 4 58 35 58 68 0 32 -37 74 -66 74 l-24 0 0 343 c0 188 -1
857 -3 1487 l-2 1145 -77 3 -78 3 0 -1491z m103 -1857 c39 -87 22 -328 -23
-328 -24 0 -53 103 -53 185 0 79 26 190 44 190 5 0 20 -21 32 -47z"/>
</g>
</svg>
