<?xml version="1.0" standalone="no"?>
<!DOCTYPE svg PUBLIC "-//W3C//DTD SVG 20010904//EN"
 "http://www.w3.org/TR/2001/REC-SVG-20010904/DTD/svg10.dtd">
<svg version="1.0" xmlns="http://www.w3.org/2000/svg"
 width="2550.000000pt" height="2700.000000pt" viewBox="0 0 2550.000000 2700.000000"
 preserveAspectRatio="xMidYMid meet">

<g transform="translate(0.000000,2700.000000) scale(0.100000,-0.100000)"
fill="#3a4548" stroke="none">
<path d="M2675 13608 c-3 -7 -6 -677 -8 -1488 -2 -1368 -3 -1475 -19 -1472
-28 4 -61 -48 -54 -86 7 -43 23 -62 52 -62 22 0 24 -4 24 -45 0 -25 -9 -63
-19 -83 -67 -131 -67 -357 0 -470 11 -19 19 -52 19 -78 0 -42 -1 -44 -30 -44
-26 0 -31 -5 -42 -41 -15 -52 3 -92 45 -97 l27 -3 0 -1167 c0 -642 3 -1553 5
-2025 3 -529 1 -865 -4 -876 -6 -9 -28 -26 -50 -36 -44 -19 -50 -29 -25 -39
10 -4 14 -16 12 -38 -2 -26 -11 -37 -40 -53 -31 -17 -38 -25 -38 -51 0 -30 2
-32 46 -38 26 -3 69 -6 96 -6 26 0 57 -5 68 -12 14 -9 24 -9 42 0 13 6 57 20
98 30 l75 18 3 37 c2 29 -1 39 -15 44 -27 9 -53 34 -53 51 0 9 9 26 21 38 l20
22 -45 15 c-24 8 -47 13 -50 9 -3 -3 -6 916 -6 2041 0 2040 0 2047 20 2047 32
0 60 36 60 76 0 51 -15 74 -50 74 -26 0 -30 4 -30 28 0 15 13 59 29 97 62 150
63 311 1 444 -17 36 -30 80 -30 102 0 35 3 39 24 39 32 0 56 35 56 81 0 40
-12 55 -50 61 l-25 3 -3 1483 -2 1482 -75 0 c-51 0 -77 -4 -80 -12z m105
-3374 c16 -86 -3 -254 -30 -254 -30 0 -39 233 -11 303 16 40 27 27 41 -49z"/>
</g>
</svg>
