<?xml version="1.0" standalone="no"?>
<!DOCTYPE svg PUBLIC "-//W3C//DTD SVG 20010904//EN"
 "http://www.w3.org/TR/2001/REC-SVG-20010904/DTD/svg10.dtd">
<svg version="1.0" xmlns="http://www.w3.org/2000/svg"
 width="2550.000000pt" height="2700.000000pt" viewBox="0 0 2550.000000 2700.000000"
 preserveAspectRatio="xMidYMid meet">

<g transform="translate(0.000000,2700.000000) scale(0.100000,-0.100000)"
fill="#3a4548" stroke="none">
<path d="M4918 14991 l-68 -86 0 -1166 0 -1166 -29 -6 c-63 -13 -62 -128 2
-135 24 -3 27 -7 27 -43 0 -22 -9 -58 -20 -79 -58 -114 -64 -295 -14 -412 36
-85 42 -136 18 -144 -37 -11 -48 -21 -56 -49 -10 -38 10 -77 42 -85 l25 -6 0
-1929 0 -1930 -50 -27 c-27 -15 -44 -28 -37 -28 7 0 17 -11 23 -24 14 -30 -2
-63 -37 -76 -21 -8 -25 -16 -22 -42 l3 -33 95 -8 c123 -11 122 -11 208 7 90
19 92 20 92 56 0 21 -7 32 -27 42 -43 21 -51 43 -26 76 l22 29 -40 12 c-21 6
-43 20 -48 30 -7 12 -10 710 -10 1933 l-1 1916 29 5 c35 7 59 56 45 94 -9 26
-22 36 -58 47 -24 8 -18 49 20 136 26 60 29 75 29 190 0 117 -2 129 -29 190
-17 38 -30 84 -30 110 -1 42 1 45 26 48 33 4 56 51 42 89 -9 25 -22 36 -56 47
-16 5 -17 81 -17 1252 0 686 -2 1248 -3 1249 -2 1 -33 -37 -70 -84z m29 -2859
c6 -78 -11 -192 -27 -192 -25 0 -33 218 -11 275 11 27 13 28 23 12 5 -11 12
-53 15 -95z"/>
</g>
</svg>
