<?xml version="1.0" standalone="no"?>
<!DOCTYPE svg PUBLIC "-//W3C//DTD SVG 20010904//EN"
 "http://www.w3.org/TR/2001/REC-SVG-20010904/DTD/svg10.dtd">
<svg version="1.0" xmlns="http://www.w3.org/2000/svg"
 width="2550.000000pt" height="2700.000000pt" viewBox="0 0 2550.000000 2700.000000"
 preserveAspectRatio="xMidYMid meet">

<g transform="translate(0.000000,2700.000000) scale(0.100000,-0.100000)"
fill="#3a4548" stroke="none">
<path d="M19952 23137 l-52 -53 -2 -1509 -3 -1510 -27 3 c-36 4 -78 -36 -78
-75 0 -41 23 -68 69 -82 37 -11 41 -15 41 -44 0 -19 -15 -54 -36 -87 -101
-159 -97 -365 11 -506 17 -22 25 -46 25 -73 l0 -41 -39 0 c-95 0 -96 -124 -1
-148 l35 -8 3 -2115 c1 -1163 0 -2124 -3 -2136 -3 -14 -24 -32 -53 -47 -26
-14 -42 -25 -35 -26 19 0 35 -39 29 -66 -4 -13 -20 -31 -36 -39 -25 -13 -30
-22 -30 -50 l0 -35 195 0 195 0 0 40 c0 27 -4 40 -13 40 -39 0 -61 68 -32 100
14 16 13 18 -14 30 -16 6 -37 20 -45 29 -15 16 -16 222 -14 2152 l3 2134 26
-3 c58 -7 99 72 61 118 -11 13 -35 29 -53 35 -48 16 -51 57 -9 119 52 76 74
149 74 246 0 99 -20 167 -70 241 -27 41 -34 61 -34 101 l0 51 30 -7 c23 -4 36
0 50 14 48 48 29 111 -40 134 l-35 11 -3 1547 c-2 1489 -3 1548 -20 1557 -15
8 -28 1 -70 -42z m77 -3447 c44 -103 36 -240 -20 -339 -38 -66 -55 -64 -94 14
-27 55 -30 69 -30 160 0 87 3 107 26 155 14 31 34 63 44 73 16 17 19 17 35 2
10 -9 27 -38 39 -65z"/>
</g>
</svg>
