<?xml version="1.0" standalone="no"?>
<!DOCTYPE svg PUBLIC "-//W3C//DTD SVG 20010904//EN"
 "http://www.w3.org/TR/2001/REC-SVG-20010904/DTD/svg10.dtd">
<svg version="1.0" xmlns="http://www.w3.org/2000/svg"
 width="2550.000000pt" height="2700.000000pt" viewBox="0 0 2550.000000 2700.000000"
 preserveAspectRatio="xMidYMid meet">

<g transform="translate(0.000000,2700.000000) scale(0.100000,-0.100000)"
fill="#3a4548" stroke="none">
<path d="M23292 26337 l-52 -53 0 -1552 0 -1552 -33 0 c-60 0 -96 -66 -66
-122 6 -11 31 -29 55 -39 38 -17 44 -24 44 -49 0 -16 -15 -53 -33 -82 -50 -80
-69 -135 -74 -224 -8 -120 19 -218 82 -292 20 -23 25 -41 25 -81 0 -28 -2 -51
-4 -51 -3 0 -16 4 -31 10 -22 8 -30 6 -51 -15 -49 -49 -25 -113 54 -145 l32
-12 0 -1688 c0 -1443 -2 -1691 -14 -1703 -8 -8 -28 -20 -45 -27 -30 -12 -31
-14 -16 -30 26 -28 15 -71 -22 -95 -60 -37 -44 -45 95 -45 70 0 157 3 194 6
l66 7 -29 24 c-32 27 -38 63 -14 83 22 18 19 26 -16 40 -64 27 -59 -106 -57
1750 l3 1694 33 2 c58 3 90 49 71 103 -11 31 -63 71 -93 71 -26 0 -19 47 14
96 38 54 75 152 85 220 13 96 -24 226 -85 304 -24 31 -30 47 -30 87 0 57 5 66
32 52 29 -15 58 -1 74 36 22 54 -12 107 -83 129 l-23 7 0 1589 c0 1439 -1
1588 -16 1594 -9 3 -17 6 -18 6 -1 0 -25 -24 -54 -53z m83 -3532 c27 -55 30
-69 30 -161 0 -96 -2 -105 -35 -170 -32 -62 -38 -69 -65 -69 -27 0 -33 7 -60
59 -26 53 -29 70 -29 150 0 70 5 104 22 147 26 65 65 112 90 107 9 -2 30 -30
47 -63z"/>
</g>
</svg>
