<?xml version="1.0" standalone="no"?>
<!DOCTYPE svg PUBLIC "-//W3C//DTD SVG 20010904//EN"
 "http://www.w3.org/TR/2001/REC-SVG-20010904/DTD/svg10.dtd">
<svg version="1.0" xmlns="http://www.w3.org/2000/svg"
 width="2550.000000pt" height="2700.000000pt" viewBox="0 0 2550.000000 2700.000000"
 preserveAspectRatio="xMidYMid meet">

<g transform="translate(0.000000,2700.000000) scale(0.100000,-0.100000)"
fill="#3a4548" stroke="none">
<path d="M24397 26993 c-2 -5 -4 -620 -5 -1368 l0 -1360 -37 -6 c-46 -8 -64
-26 -72 -72 -5 -33 -2 -41 31 -72 21 -19 46 -35 57 -35 33 0 25 -65 -16 -129
-54 -85 -70 -142 -70 -256 0 -89 3 -107 28 -160 15 -32 39 -74 53 -93 25 -32
38 -89 28 -117 -4 -9 -16 -12 -38 -8 -27 4 -37 0 -54 -22 -34 -42 -29 -78 15
-114 21 -17 46 -31 55 -31 12 0 18 -8 19 -22 1 -24 0 -4378 -1 -4391 0 -4 -20
-17 -44 -29 l-44 -21 21 -28 c17 -24 19 -33 9 -54 -7 -14 -23 -30 -38 -35 -15
-6 -24 -16 -22 -26 3 -14 21 -16 138 -15 74 1 161 4 193 7 l58 7 -30 18 c-16
10 -32 27 -36 38 -7 22 9 61 25 61 21 0 8 18 -21 30 -17 7 -37 19 -45 27 -12
12 -14 333 -14 2229 l0 2214 30 0 c42 0 80 39 80 81 0 23 -9 40 -36 65 -19 19
-44 34 -55 34 -25 0 -26 49 0 81 117 151 120 405 6 541 -21 24 -25 40 -25 90
0 49 3 59 15 54 8 -3 22 -9 30 -12 8 -3 25 5 40 20 49 49 22 125 -57 155 l-28
11 0 1360 0 1360 -69 0 c-39 0 -72 -3 -74 -7z m138 -3118 c27 -54 30 -69 30
-156 0 -90 -2 -99 -38 -173 -37 -74 -40 -77 -70 -74 -27 2 -36 11 -55 49 -47
96 -47 227 1 332 49 108 86 114 132 22z"/>
</g>
</svg>
