<?xml version="1.0" standalone="no"?>
<!DOCTYPE svg PUBLIC "-//W3C//DTD SVG 20010904//EN"
 "http://www.w3.org/TR/2001/REC-SVG-20010904/DTD/svg10.dtd">
<svg version="1.0" xmlns="http://www.w3.org/2000/svg"
 width="2550.000000pt" height="2700.000000pt" viewBox="0 0 2550.000000 2700.000000"
 preserveAspectRatio="xMidYMid meet">

<g transform="translate(0.000000,2700.000000) scale(0.100000,-0.100000)"
fill="#65340A" stroke="none">
<path d="M10300 14103 c0 -5 -1 -566 -3 -1247 l-2 -1239 -24 -4 c-33 -5 -34
-6 -16 -39 8 -16 15 -36 15 -45 0 -22 -38 -69 -56 -69 -8 0 -17 -7 -20 -15 -4
-8 -12 -15 -19 -15 -32 0 -21 -20 30 -59 62 -47 74 -75 51 -119 -20 -39 -21
-39 9 -46 14 -4 27 -16 30 -29 3 -12 4 -550 3 -1196 -3 -1141 -4 -1174 -22
-1177 -31 -4 -44 -24 -23 -35 10 -6 17 -22 17 -38 0 -32 -34 -81 -56 -81 -8 0
-17 -6 -20 -14 -3 -8 -15 -17 -27 -20 -22 -5 -21 -6 8 -33 16 -16 38 -33 49
-38 11 -6 27 -22 35 -37 14 -24 14 -30 -3 -65 -13 -27 -15 -38 -6 -41 7 -3 21
-13 31 -23 18 -18 19 -67 19 -1577 0 -1697 4 -1591 -55 -1606 -25 -6 -25 -7
-10 -37 13 -25 14 -34 3 -57 -7 -15 -23 -31 -36 -37 -35 -16 -29 -57 16 -100
34 -33 40 -36 82 -30 25 3 88 10 140 16 52 6 98 13 102 15 5 3 8 18 8 34 0 20
-9 35 -30 50 -23 16 -30 29 -30 54 0 17 6 38 13 45 10 11 9 14 -1 18 -7 3 -26
16 -42 30 l-30 25 2 1576 3 1576 25 6 c28 7 30 14 11 52 -19 37 0 83 40 97 16
5 29 15 29 20 0 6 6 11 14 11 42 0 20 39 -47 83 -42 27 -53 58 -33 98 21 43
21 45 -14 58 l-30 10 2 1192 3 1193 32 8 32 8 -21 35 c-17 31 -19 40 -8 65 7
17 24 33 41 39 16 5 29 15 29 20 0 6 6 11 14 11 41 0 19 43 -39 76 -10 6 -28
23 -39 38 l-21 27 21 38 21 39 -33 16 -34 16 0 1240 0 1240 -65 0 c-36 0 -65
-3 -65 -7z m-23 -2639 c-3 -3 -12 -4 -19 -1 -8 3 -5 6 6 6 11 1 17 -2 13 -5z"/>
</g>
</svg>
