<?xml version="1.0" standalone="no"?>
<!DOCTYPE svg PUBLIC "-//W3C//DTD SVG 20010904//EN"
 "http://www.w3.org/TR/2001/REC-SVG-20010904/DTD/svg10.dtd">
<svg version="1.0" xmlns="http://www.w3.org/2000/svg"
 width="2550.000000pt" height="2700.000000pt" viewBox="0 0 2550.000000 2700.000000"
 preserveAspectRatio="xMidYMid meet">

<g transform="translate(0.000000,2700.000000) scale(0.100000,-0.100000)"
fill="#65340A" stroke="none">
<path d="M17270 21475 l-45 -45 0 -942 0 -942 -32 -8 c-38 -10 -39 -15 -16
-64 20 -40 26 -29 -56 -93 -17 -13 -31 -29 -31 -37 0 -7 22 -32 50 -56 27 -24
50 -48 50 -54 0 -6 -9 -23 -20 -37 -18 -23 -19 -27 -4 -41 8 -9 26 -16 40 -16
l24 0 0 -1065 0 -1065 -22 0 c-13 0 -30 -4 -37 -9 -13 -8 -12 -15 4 -44 18
-33 18 -36 2 -61 -10 -14 -22 -26 -27 -26 -14 0 -60 -42 -60 -55 0 -15 53 -65
68 -65 7 0 18 -11 24 -25 10 -22 8 -30 -11 -56 -25 -34 -26 -34 21 -58 l33
-18 2 -992 c2 -637 -1 -990 -7 -986 -6 3 -10 -1 -10 -9 0 -8 -5 -18 -12 -22
-7 -4 -8 -3 -4 4 5 8 2 10 -8 6 -9 -3 -13 -10 -10 -15 3 -5 -1 -6 -9 -3 -23 8
-31 -15 -13 -35 18 -20 21 -47 6 -56 -6 -4 -7 -12 -4 -18 4 -7 4 -9 -1 -5 -14
13 -45 -12 -45 -37 0 -55 0 -55 170 -55 143 0 159 2 162 18 7 36 -5 68 -36 91
l-31 25 24 -27 c18 -20 20 -27 10 -27 -22 0 -39 21 -39 49 0 13 3 21 6 18 10
-9 46 41 41 56 -4 7 -6 6 -6 -4 -1 -22 -31 -48 -31 -27 0 8 -11 25 -24 37
l-25 23 1 999 c1 940 2 999 18 999 10 0 28 8 40 18 21 17 21 18 4 32 -18 14
-18 14 -4 -4 13 -17 13 -19 0 -14 -8 2 -21 16 -29 30 -14 24 -13 27 18 57 32
32 32 44 -1 14 -10 -9 -18 -12 -18 -6 0 5 8 18 19 27 17 16 20 16 35 1 12 -13
16 -13 16 -3 0 8 -5 19 -12 26 -6 6 -9 14 -6 17 3 3 13 -1 22 -10 9 -9 20 -13
26 -10 14 8 13 42 -2 51 -7 4 -8 3 -4 -4 5 -8 0 -12 -14 -12 -24 0 -39 28 -21
40 9 5 8 9 -4 13 -9 4 -13 3 -10 -3 3 -6 1 -10 -4 -10 -6 0 -11 7 -11 15 0 8
-5 14 -11 12 -6 -1 -16 6 -22 16 -10 15 -9 21 4 30 31 23 8 110 -24 90 -4 -2
-7 470 -6 1051 1 635 5 1056 11 1056 5 0 7 4 4 9 -7 11 22 36 31 28 3 -4 0
-14 -8 -24 -12 -15 -12 -16 1 -8 35 20 41 27 29 41 -6 8 -16 11 -22 7 -6 -4
-8 0 -4 11 4 10 3 15 -3 11 -6 -3 -13 1 -16 10 -7 17 14 39 54 55 26 11 28 23
7 43 -8 8 -11 17 -8 21 3 3 14 -4 24 -15 10 -12 23 -18 28 -14 14 8 14 42 1
50 -6 4 -7 -1 -3 -10 5 -15 3 -15 -16 -3 -13 8 -20 20 -17 30 3 12 -7 26 -27
40 -18 13 -34 22 -37 20 -3 -2 -7 4 -8 14 -2 9 0 14 5 11 6 -4 20 7 32 23 l21
30 -37 27 -38 28 0 942 c0 518 4 945 8 949 4 4 7 17 6 28 -1 19 -2 18 -10 -4
-7 -21 -8 -19 -4 13 5 50 -10 48 -65 -8z m115 -1965 c3 -5 1 -10 -4 -10 -6 0
-11 5 -11 10 0 6 2 10 4 10 3 0 8 -4 11 -10z m35 -230 c0 -11 -36 -19 -50 -10
-9 6 -8 10 6 18 18 10 44 6 44 -8z m-45 -2660 c-3 -5 -11 -10 -16 -10 -6 0 -7
5 -4 10 3 6 11 10 16 10 6 0 7 -4 4 -10z"/>
<path d="M17393 16983 c4 -3 1 -13 -6 -22 -11 -14 -10 -14 6 -2 20 15 22 31 5
31 -6 0 -8 -3 -5 -7z"/>
<path d="M17342 14954 l-2 -341 23 -19 c22 -19 22 -19 5 2 -16 18 -18 55 -21
360 l-2 339 -3 -341z"/>
</g>
</svg>
