<?xml version="1.0" standalone="no"?>
<!DOCTYPE svg PUBLIC "-//W3C//DTD SVG 20010904//EN"
 "http://www.w3.org/TR/2001/REC-SVG-20010904/DTD/svg10.dtd">
<svg version="1.0" xmlns="http://www.w3.org/2000/svg"
 width="2550.000000pt" height="2700.000000pt" viewBox="0 0 2550.000000 2700.000000"
 preserveAspectRatio="xMidYMid meet">

<g transform="translate(0.000000,2700.000000) scale(0.100000,-0.100000)"
fill="#65340A" stroke="none">
<path d="M18208 22377 l-48 -42 0 -967 0 -968 -35 -14 c-32 -14 -48 -36 -26
-36 5 0 14 -14 20 -30 9 -26 7 -33 -9 -48 -35 -32 -49 -42 -59 -42 -6 0 -15
-8 -20 -19 -8 -14 -3 -25 23 -55 33 -35 55 -48 40 -23 -5 8 -2 7 9 -2 10 -8
15 -16 12 -19 -3 -3 0 -11 7 -19 9 -11 6 -21 -11 -44 -22 -29 -22 -31 -5 -50
10 -12 24 -17 35 -14 18 6 18 -37 19 -1063 l0 -1070 -35 -6 c-19 -4 -35 -9
-35 -11 0 -2 9 -20 21 -40 20 -33 20 -37 5 -60 -9 -14 -22 -25 -29 -25 -12 0
-67 -46 -67 -56 0 -8 71 -74 81 -74 4 0 13 -9 19 -20 11 -21 -1 -56 -24 -73
-7 -5 -4 -12 9 -22 60 -46 55 44 55 -952 1 -1535 0 -1827 -7 -1867 -5 -32 -3
-38 8 -31 8 5 11 4 6 -1 -5 -5 -12 -9 -15 -9 -4 0 -22 -7 -39 -15 -36 -16 -41
-31 -18 -50 19 -16 19 -44 0 -60 -8 -7 -13 -16 -10 -20 3 -4 -3 -7 -13 -6 -13
1 -17 -7 -17 -39 l0 -40 163 -3 162 -2 0 45 c0 25 -5 45 -11 45 -5 0 -7 -5 -3
-12 8 -13 -12 -3 -38 20 -19 16 -25 38 -8 27 6 -3 10 2 10 11 0 10 7 25 16 35
18 20 13 34 -16 42 -11 3 -18 1 -14 -4 3 -5 12 -9 20 -9 8 0 14 -4 14 -10 0
-16 -13 -12 -44 14 l-30 23 2 1414 c2 778 5 1422 8 1432 3 9 10 17 15 17 6 0
7 -4 4 -10 -8 -13 5 -13 25 0 10 6 11 10 3 10 -7 0 -13 5 -13 11 0 5 5 7 12 3
7 -4 8 -3 4 5 -4 6 -11 9 -16 6 -12 -8 -32 32 -27 53 3 12 5 11 6 -5 0 -12 5
-24 10 -27 5 -4 7 3 4 14 -3 12 2 29 11 39 13 14 14 20 5 23 -7 2 -9 9 -5 16
3 6 13 9 21 6 8 -4 12 -10 9 -15 -9 -16 5 -10 31 13 29 26 31 41 8 59 -16 13
-17 12 -4 -4 20 -26 8 -30 -17 -7 -23 22 -31 46 -10 34 7 -4 8 -3 4 4 -4 6
-14 8 -23 5 -10 -4 -14 -2 -10 4 4 6 0 16 -8 23 -16 14 -16 79 0 77 23 -4 8
29 -20 43 l-30 15 3 1057 2 1056 30 7 c37 8 38 25 5 56 -13 13 -24 31 -24 39
0 10 3 8 9 -5 8 -20 9 -20 9 1 1 14 18 31 51 52 28 17 50 37 50 45 0 8 -22 35
-50 61 -52 48 -61 74 -35 96 23 19 18 36 -15 60 l-30 21 0 962 c0 529 0 967
-1 972 0 6 0 27 1 48 2 49 -13 48 -72 -6z m182 -2199 c0 -6 -7 -5 -15 2 -8 7
-15 17 -15 22 0 6 7 5 15 -2 8 -7 15 -17 15 -22z m-27 -44 c-6 -17 -31 -25
-38 -14 -9 15 1 26 23 26 11 0 18 -5 15 -12z m-48 -144 c-3 -5 -13 -10 -21
-10 -8 0 -12 5 -9 10 3 6 13 10 21 10 8 0 12 -4 9 -10z m-1 -2270 c10 -13 9
-13 -6 -1 -10 7 -18 21 -17 30 0 13 1 14 6 1 3 -8 11 -22 17 -30z m66 -105 c0
-12 -19 -12 -23 0 -4 9 -1 12 9 8 7 -3 14 -7 14 -8z m-13 -3222 c-3 -10 -5 -4
-5 12 0 17 2 24 5 18 2 -7 2 -21 0 -30z"/>
</g>
</svg>
