<?xml version="1.0" standalone="no"?>
<!DOCTYPE svg PUBLIC "-//W3C//DTD SVG 20010904//EN"
 "http://www.w3.org/TR/2001/REC-SVG-20010904/DTD/svg10.dtd">
<svg version="1.0" xmlns="http://www.w3.org/2000/svg"
 width="2550.000000pt" height="2700.000000pt" viewBox="0 0 2550.000000 2700.000000"
 preserveAspectRatio="xMidYMid meet">

<g transform="translate(0.000000,2700.000000) scale(0.100000,-0.100000)"
fill="#65340A" stroke="none">
<path d="M19030 23245 l-43 -44 2 -954 c2 -881 1 -955 -14 -961 -9 -3 -25 -6
-36 -6 -21 0 -26 -15 -8 -25 19 -12 30 -55 19 -75 -10 -18 -45 -42 -82 -56
-31 -11 -20 -39 27 -73 64 -46 73 -66 44 -104 -12 -17 -18 -32 -13 -34 5 -2
20 -9 34 -16 l25 -13 0 -1074 0 -1074 -32 -8 c-36 -9 -41 -19 -18 -38 27 -22
28 -50 4 -76 -12 -13 -28 -24 -36 -24 -7 0 -13 -4 -13 -9 0 -5 -9 -13 -20 -16
-23 -7 -27 -45 -5 -45 7 0 18 -6 22 -12 4 -7 17 -18 28 -24 11 -6 26 -22 34
-36 13 -23 12 -28 -7 -55 l-22 -31 35 -16 35 -17 0 -1010 0 -1009 -32 -20
c-18 -11 -37 -22 -43 -23 -5 -2 -2 -13 8 -24 25 -28 21 -49 -13 -75 -21 -15
-30 -30 -30 -51 l0 -29 108 6 c59 3 135 5 170 6 55 0 62 2 62 20 0 11 -11 27
-25 36 -34 22 -42 59 -20 84 17 18 16 19 -11 25 -16 4 -35 8 -41 10 -10 3 -13
231 -13 1033 l0 1030 35 6 36 7 -21 26 c-11 14 -20 34 -20 43 0 20 45 62 92
86 24 12 27 18 17 30 -6 8 -18 14 -25 14 -8 0 -14 4 -14 9 0 5 -16 18 -35 30
-41 24 -46 55 -16 93 l20 24 -35 13 -34 12 2 1076 3 1076 34 12 34 11 -26 17
c-19 12 -24 22 -20 39 7 28 42 68 60 68 7 0 13 4 13 9 0 5 9 11 20 14 11 3 20
13 20 22 0 9 -9 19 -20 22 -11 3 -20 9 -20 13 0 5 -21 21 -47 36 -26 15 -42
29 -35 32 6 2 12 9 12 16 0 8 9 24 19 38 l20 25 -35 16 -34 17 0 994 c0 897
-2 994 -16 1000 -9 3 -17 6 -18 6 -1 0 -22 -20 -46 -45z"/>
</g>
</svg>
