<?xml version="1.0" standalone="no"?>
<!DOCTYPE svg PUBLIC "-//W3C//DTD SVG 20010904//EN"
 "http://www.w3.org/TR/2001/REC-SVG-20010904/DTD/svg10.dtd">
<svg version="1.0" xmlns="http://www.w3.org/2000/svg"
 width="2550.000000pt" height="2700.000000pt" viewBox="0 0 2550.000000 2700.000000"
 preserveAspectRatio="xMidYMid meet">

<g transform="translate(0.000000,2700.000000) scale(0.100000,-0.100000)"
fill="#65340A" stroke="none">
<path d="M20738 25172 c-19 -20 -40 -44 -46 -53 -10 -13 -12 -241 -12 -987 l0
-970 -22 -6 c-48 -12 -52 -21 -27 -55 20 -27 21 -34 9 -55 -7 -14 -25 -30 -39
-35 -32 -13 -64 -33 -73 -46 -9 -12 10 -35 28 -35 8 0 14 -4 14 -9 0 -5 13
-14 29 -20 15 -7 34 -23 41 -37 12 -21 11 -28 -9 -55 -25 -34 -21 -43 27 -55
l22 -6 0 -1098 0 -1098 -35 -6 c-19 -4 -35 -9 -35 -12 0 -3 10 -18 22 -34 18
-24 20 -34 10 -54 -6 -13 -24 -30 -41 -37 -17 -8 -31 -17 -31 -21 0 -5 -6 -8
-14 -8 -7 0 -19 -6 -25 -14 -9 -10 -4 -19 21 -38 18 -13 41 -27 50 -31 9 -3
24 -17 33 -31 14 -20 14 -29 4 -48 -7 -13 -19 -28 -28 -35 -16 -12 -14 -13 57
-38 9 -3 12 -219 12 -1034 l0 -1030 -26 -20 c-15 -12 -33 -21 -40 -21 -18 0
-18 -5 2 -35 15 -23 15 -27 0 -49 -8 -14 -25 -27 -36 -31 -26 -8 -29 -59 -2
-51 9 2 92 8 185 12 92 3 170 10 172 15 3 4 -8 15 -24 23 -37 20 -47 50 -27
81 9 13 16 27 16 29 0 3 -24 9 -52 13 -29 4 -46 8 -38 10 13 3 15 126 12 1047
l-2 1044 35 6 c19 4 35 9 35 12 0 3 -10 18 -22 34 -18 24 -20 34 -10 54 6 13
24 30 41 37 17 8 31 17 31 20 0 4 9 9 20 12 11 3 20 13 20 22 0 9 -9 19 -20
22 -11 3 -20 10 -20 15 0 5 -14 14 -30 20 -41 14 -55 42 -40 79 7 16 16 29 21
29 23 0 5 20 -26 30 l-35 12 0 1098 0 1098 35 6 c36 7 46 22 21 32 -23 9 -29
53 -11 80 8 13 35 33 60 44 50 23 58 46 20 60 -14 5 -25 14 -25 19 0 5 -14 14
-30 21 -17 7 -33 22 -36 35 -6 25 10 65 26 65 23 0 7 21 -25 34 l-35 15 0
1014 0 1014 -24 11 c-21 9 -27 6 -58 -26z"/>
</g>
</svg>
