<?xml version="1.0" standalone="no"?>
<!DOCTYPE svg PUBLIC "-//W3C//DTD SVG 20010904//EN"
 "http://www.w3.org/TR/2001/REC-SVG-20010904/DTD/svg10.dtd">
<svg version="1.0" xmlns="http://www.w3.org/2000/svg"
 width="2550.000000pt" height="2700.000000pt" viewBox="0 0 2550.000000 2700.000000"
 preserveAspectRatio="xMidYMid meet">

<g transform="translate(0.000000,2700.000000) scale(0.100000,-0.100000)"
fill="#65340A" stroke="none">
<path d="M21578 26209 l-43 -51 4 -999 c4 -1044 4 -1029 -38 -1029 -9 0 -22
-4 -30 -9 -11 -7 -10 -13 8 -32 31 -34 24 -70 -18 -91 -19 -9 -37 -21 -40 -25
-3 -4 -15 -13 -26 -19 -11 -6 -20 -15 -19 -20 1 -4 28 -27 60 -49 32 -23 61
-50 62 -60 2 -9 -6 -30 -17 -46 l-21 -29 37 -17 38 -18 3 -1099 c1 -772 -1
-1103 -9 -1112 -6 -7 -24 -16 -40 -19 -34 -8 -35 -10 -9 -37 34 -36 21 -77
-30 -98 -16 -7 -30 -16 -30 -21 0 -5 -6 -9 -14 -9 -7 0 -19 -6 -25 -14 -9 -10
-4 -19 23 -40 19 -14 39 -26 44 -26 14 0 52 -45 52 -62 0 -8 -9 -27 -20 -41
l-21 -26 38 -18 38 -18 3 -678 2 -677 34 0 c18 0 48 3 65 6 l31 7 0 667 c0
718 -3 681 52 695 l28 7 -20 25 c-39 50 -27 76 58 123 50 28 55 40 22 57 -12
6 -25 15 -29 20 -3 5 -21 15 -38 22 -27 11 -33 19 -33 44 0 18 9 40 21 54 17
17 19 24 8 27 -8 3 -26 10 -41 15 l-28 11 0 1105 0 1105 28 11 c15 5 33 12 41
15 11 3 9 9 -8 25 -32 30 -25 79 14 99 17 8 32 17 35 20 3 3 18 14 33 24 l29
18 -24 15 c-12 9 -28 21 -33 27 -6 6 -24 18 -40 26 -38 20 -45 63 -16 94 l21
23 -40 18 -41 18 1 1046 c1 986 0 1046 -16 1058 -26 19 -29 18 -76 -38z"/>
<path d="M21538 19250 c0 -3 -2 -239 -3 -525 -2 -286 -3 -537 -4 -558 -1 -31
-7 -41 -33 -57 -18 -11 -37 -21 -42 -23 -5 -2 -1 -15 9 -30 16 -26 16 -28 0
-53 -9 -15 -26 -29 -36 -31 -13 -4 -19 -14 -19 -35 0 -23 4 -29 16 -24 8 3 93
11 187 17 166 11 212 21 171 35 -50 18 -71 68 -39 94 22 19 18 28 -15 35 -62
14 -60 -4 -60 595 l0 546 -65 10 c-36 5 -66 7 -67 4z"/>
</g>
</svg>
