<?xml version="1.0" standalone="no"?>
<!DOCTYPE svg PUBLIC "-//W3C//DTD SVG 20010904//EN"
 "http://www.w3.org/TR/2001/REC-SVG-20010904/DTD/svg10.dtd">
<svg version="1.0" xmlns="http://www.w3.org/2000/svg"
 width="2550.000000pt" height="2700.000000pt" viewBox="0 0 2550.000000 2700.000000"
 preserveAspectRatio="xMidYMid meet">

<g transform="translate(0.000000,2700.000000) scale(0.100000,-0.100000)"
fill="#65340A" stroke="none">
<path d="M22249 26993 c0 -5 0 -404 1 -889 l2 -880 -41 -14 c-23 -7 -41 -15
-41 -17 0 -2 9 -17 21 -32 29 -39 21 -61 -33 -96 -92 -60 -87 -51 -53 -80 17
-14 44 -32 62 -40 43 -18 52 -54 24 -94 -27 -37 -27 -38 8 -46 16 -3 34 -12
40 -19 8 -9 10 -346 9 -1131 l-3 -1118 -32 -11 c-45 -15 -48 -22 -24 -47 12
-13 21 -31 21 -41 0 -22 -34 -58 -55 -58 -7 0 -18 -6 -22 -12 -4 -7 -17 -18
-27 -24 -33 -18 -29 -31 21 -59 90 -52 100 -71 62 -119 -25 -31 -25 -29 24
-49 l37 -16 0 -1053 c0 -1158 4 -1089 -60 -1103 -35 -8 -35 -8 -14 -40 20 -31
12 -56 -26 -78 -16 -10 -30 -25 -30 -34 0 -17 -12 -18 265 10 l119 12 -27 18
c-30 20 -36 57 -12 77 24 20 18 28 -30 35 l-44 7 2 1081 2 1081 35 9 c45 11
45 12 21 36 -12 12 -21 31 -21 44 0 22 37 67 54 67 4 0 21 9 37 21 31 22 39
49 14 49 -7 0 -18 6 -22 14 -4 8 -25 21 -45 29 -34 14 -38 20 -38 51 0 25 6
40 20 48 28 18 25 23 -20 38 l-40 13 2 1131 3 1130 35 10 c47 13 47 13 21 37
-34 32 -26 79 18 101 19 9 37 21 40 26 3 5 14 11 24 15 23 9 22 38 -3 44 -11
3 -20 9 -20 14 0 5 -17 17 -37 26 -47 22 -56 63 -23 99 l23 23 -42 18 -41 18
0 887 0 888 -70 0 c-38 0 -70 -3 -71 -7z"/>
</g>
</svg>
