<?xml version="1.0" standalone="no"?>
<!DOCTYPE svg PUBLIC "-//W3C//DTD SVG 20010904//EN"
 "http://www.w3.org/TR/2001/REC-SVG-20010904/DTD/svg10.dtd">
<svg version="1.0" xmlns="http://www.w3.org/2000/svg"
 width="2550.000000pt" height="2700.000000pt" viewBox="0 0 2550.000000 2700.000000"
 preserveAspectRatio="xMidYMid meet">

<g transform="translate(0.000000,2700.000000) scale(0.100000,-0.100000)"
fill="#65340A" stroke="none">
<path d="M23089 26993 c-1 -4 -2 -165 -3 -358 -2 -339 -2 -350 -21 -354 -11
-2 -30 -7 -43 -12 l-24 -9 26 -31 c14 -17 26 -34 26 -39 0 -22 -15 -43 -39
-54 -49 -23 -91 -51 -91 -62 0 -13 49 -51 93 -74 41 -21 46 -55 12 -90 l-28
-29 27 -11 c15 -5 31 -10 36 -10 5 0 14 -8 19 -19 10 -18 14 -2236 5 -2273 -3
-9 -19 -20 -37 -23 -48 -11 -50 -14 -22 -47 14 -16 25 -33 25 -38 0 -22 -15
-43 -39 -54 -56 -26 -91 -52 -89 -66 2 -8 29 -30 61 -49 71 -42 82 -70 42
-111 l-28 -29 27 -11 c15 -5 34 -10 41 -10 8 0 17 -10 20 -22 8 -37 -1 -3021
-9 -3040 -4 -9 -26 -24 -49 -33 -22 -9 -36 -19 -31 -23 18 -12 32 -44 26 -64
-2 -10 -17 -25 -33 -34 -16 -8 -29 -23 -29 -33 0 -21 -9 -21 225 5 72 8 136
14 144 14 9 0 4 9 -13 25 -30 27 -32 43 -11 71 22 28 19 33 -24 40 -33 5 -40
11 -45 36 -3 17 -6 288 -6 603 0 564 0 573 -20 578 -19 5 -20 14 -20 235 0
222 1 231 20 237 20 6 20 17 22 703 l3 696 35 9 c19 5 37 10 38 12 2 2 -6 17
-19 34 -28 38 -19 74 26 99 17 9 32 19 35 22 3 3 18 12 33 20 l29 14 -24 18
c-12 10 -30 25 -39 33 -9 8 -22 15 -31 15 -21 0 -48 33 -48 58 0 12 9 31 21
43 24 24 20 30 -24 45 l-32 11 -3 1146 -2 1146 40 12 c41 12 51 25 26 35 -18
7 -29 49 -20 76 3 11 18 25 32 32 15 6 44 23 66 36 l39 24 -24 18 c-13 10 -31
23 -38 30 -8 7 -29 19 -45 28 -39 19 -45 54 -16 85 26 28 21 40 -25 55 l-35
12 0 352 0 353 -70 2 c-38 1 -71 -2 -71 -6z"/>
</g>
</svg>
