<?xml version="1.0" standalone="no"?>
<!DOCTYPE svg PUBLIC "-//W3C//DTD SVG 20010904//EN"
 "http://www.w3.org/TR/2001/REC-SVG-20010904/DTD/svg10.dtd">
<svg version="1.0" xmlns="http://www.w3.org/2000/svg"
 width="2550.000000pt" height="2700.000000pt" viewBox="0 0 2550.000000 2700.000000"
 preserveAspectRatio="xMidYMid meet">

<g transform="translate(0.000000,2700.000000) scale(0.100000,-0.100000)"
fill="#65340A" stroke="none">
<path d="M11980 16326 l-55 -59 -5 -901 c-5 -894 -5 -901 -25 -899 -11 2 -27
-1 -35 -6 -12 -9 -12 -12 2 -28 20 -22 23 -40 14 -75 -6 -21 -15 -28 -32 -28
-14 0 -27 -6 -30 -14 -3 -8 -14 -16 -25 -19 -18 -5 -28 -37 -11 -37 5 0 19 -9
32 -20 13 -11 29 -20 36 -20 8 0 20 -13 28 -28 13 -26 13 -32 -5 -61 -23 -38
-24 -35 16 -48 l30 -10 0 -1088 0 -1088 -30 -10 c-40 -13 -39 -12 -20 -45 13
-21 16 -37 10 -58 -5 -16 -8 -31 -7 -34 0 -3 -11 -7 -24 -8 -14 -1 -32 -9 -40
-17 -9 -8 -20 -15 -25 -15 -31 0 12 -51 67 -80 36 -19 44 -62 18 -91 -20 -22
-12 -33 34 -45 l22 -6 0 -1023 0 -1024 -26 -20 c-15 -12 -33 -21 -40 -21 -16
0 -19 -16 -4 -25 14 -9 12 -57 -4 -77 -7 -10 -21 -18 -30 -18 -14 0 -17 -8
-14 -37 3 -36 6 -39 53 -54 28 -9 59 -15 70 -13 11 1 68 6 128 9 l107 7 0 33
c0 24 -7 37 -25 49 -38 25 -46 48 -29 81 8 15 13 29 12 30 -2 1 -18 10 -35 19
-18 9 -35 26 -38 39 -3 12 -4 476 -3 1031 l3 1010 33 8 c36 10 38 14 17 42
-20 27 -19 59 3 79 10 10 22 17 26 17 13 0 66 44 66 55 0 12 -53 55 -68 55
-34 0 -55 77 -27 100 22 18 19 24 -20 43 l-35 17 2 1087 3 1087 33 8 c17 5 32
11 32 13 0 3 -9 19 -19 36 -18 29 -18 35 -5 61 8 15 21 28 29 28 7 0 20 6 27
13 7 7 21 16 31 20 23 9 22 38 -3 44 -11 3 -20 9 -20 14 0 5 -11 14 -24 19
-14 5 -33 21 -42 35 -16 25 -16 27 5 55 11 16 21 31 21 34 0 3 -15 9 -32 14
l-33 8 -5 955 -5 955 -55 -60z"/>
</g>
</svg>
