<?xml version="1.0" standalone="no"?>
<!DOCTYPE svg PUBLIC "-//W3C//DTD SVG 20010904//EN"
 "http://www.w3.org/TR/2001/REC-SVG-20010904/DTD/svg10.dtd">
<svg version="1.0" xmlns="http://www.w3.org/2000/svg"
 width="2551.000000pt" height="2701.000000pt" viewBox="0 0 2551.000000 2701.000000"
 preserveAspectRatio="xMidYMid meet">

<g transform="translate(0.000000,2701.000000) scale(0.100000,-0.100000)"
fill="#C5C3C1" stroke="none">
<path d="M17647 23157 l-57 -52 -3 -514 -2 -514 -65 -22 c-234 -79 -438 -266
-546 -501 -62 -133 -77 -209 -78 -384 0 -132 3 -166 22 -232 31 -105 33 -109
336 -717 146 -293 266 -536 266 -540 0 -3 -26 20 -57 51 -32 31 -78 66 -103
77 -52 24 -132 27 -194 9 -55 -16 -140 -101 -156 -156 -47 -155 136 -259 248
-140 29 32 45 87 30 105 -14 17 -38 -1 -38 -27 0 -29 -46 -77 -80 -84 -72 -14
-138 51 -124 123 8 40 67 107 115 131 51 27 130 26 186 -1 47 -23 144 -125
205 -214 30 -45 36 -61 31 -89 -4 -26 0 -38 17 -54 13 -12 27 -19 31 -16 11 6
108 -188 144 -286 72 -199 80 -416 24 -618 -53 -192 -170 -371 -279 -427 -50
-26 -125 -46 -128 -35 -5 13 -95 13 -108 0 -13 -13 -89 9 -148 44 -63 37 -142
130 -167 196 -32 84 -30 163 5 226 33 61 65 87 136 110 126 41 247 -46 196
-143 -14 -27 -31 -38 -89 -57 -10 -3 -17 -12 -15 -19 7 -19 44 -20 82 -2 73
35 98 129 53 196 -44 67 -144 93 -243 64 -107 -30 -195 -148 -194 -259 1 -157
124 -321 283 -381 l49 -18 -54 -20 c-129 -48 -238 -158 -279 -285 -27 -83 -35
-261 -14 -337 83 -310 316 -510 618 -532 l87 -6 0 -571 c0 -314 -4 -576 -8
-582 -4 -6 -22 -19 -40 -28 -31 -16 -33 -19 -18 -35 24 -27 20 -68 -9 -87 -20
-13 -25 -24 -25 -60 l0 -44 165 0 165 0 0 41 c0 32 -6 46 -25 61 -28 22 -32
54 -10 85 15 21 14 23 -17 39 -18 9 -36 22 -40 28 -4 6 -8 273 -8 593 l0 582
58 16 c306 89 548 339 634 655 19 72 23 108 22 240 -1 227 -1 227 -344 918
-160 321 -290 585 -290 588 0 3 28 -23 63 -58 76 -79 121 -101 212 -106 62 -3
76 0 125 25 95 50 148 142 128 223 -28 110 -161 146 -243 65 -38 -39 -57 -101
-34 -116 17 -10 24 -3 39 43 24 77 104 101 162 49 29 -26 33 -36 33 -78 0
-120 -152 -207 -278 -159 -90 34 -277 262 -277 337 0 29 -6 43 -29 61 -57 46
-154 272 -186 433 -29 147 -12 367 39 511 52 149 141 285 222 344 57 41 153
75 167 61 14 -14 104 -14 112 -2 7 13 83 -10 137 -42 135 -79 223 -260 189
-385 -34 -123 -199 -195 -313 -136 -76 39 -59 160 25 182 37 10 50 42 17 42
-72 0 -135 -66 -135 -142 0 -91 69 -142 190 -142 173 1 294 144 266 314 -22
134 -113 255 -237 316 l-74 37 72 35 c173 84 267 246 267 462 1 265 -157 510
-401 623 -65 31 -189 57 -265 57 l-73 0 0 555 c0 305 -3 555 -7 555 -5 0 -34
-24 -66 -53z m309 -1125 c273 -86 454 -329 454 -609 0 -153 -31 -250 -106
-333 -68 -75 -218 -146 -251 -119 -8 7 -36 10 -71 7 -165 -14 -331 180 -292
343 17 70 59 122 124 154 60 29 98 29 143 0 57 -38 72 -134 29 -186 -14 -17
-26 -35 -26 -40 0 -17 37 -9 58 14 88 94 25 256 -107 274 -82 11 -196 -60
-244 -152 -32 -60 -31 -182 2 -250 35 -70 128 -160 191 -182 27 -10 50 -20 50
-23 0 -3 -19 -11 -43 -17 -63 -17 -163 -88 -211 -150 -93 -117 -174 -312 -195
-467 -14 -97 -14 -247 -1 -316 6 -29 8 -55 5 -58 -9 -9 -463 924 -490 1008
-24 73 -28 105 -31 225 -3 123 0 152 21 235 29 111 78 219 139 304 60 84 180
195 263 245 78 46 209 97 286 111 76 13 232 4 303 -18z m139 -3487 c129 -259
247 -505 260 -547 70 -222 52 -449 -54 -663 -122 -247 -337 -413 -609 -471
-320 -67 -639 121 -746 440 -39 114 -30 306 19 414 34 73 115 156 189 191 73
36 126 48 126 30 0 -9 18 -10 69 -6 61 5 76 3 119 -19 59 -30 136 -108 162
-167 24 -52 26 -143 4 -195 -27 -66 -103 -127 -164 -132 -53 -5 -72 1 -106 33
-50 45 -57 105 -20 160 29 43 32 57 12 57 -19 0 -64 -55 -72 -86 -10 -39 1
-109 22 -137 11 -14 37 -36 59 -48 101 -58 240 2 307 131 32 63 32 165 -2 234
-37 76 -119 158 -191 191 l-62 27 58 20 c127 43 209 127 295 303 32 66 68 158
80 205 36 142 38 402 3 497 -19 53 27 -34 242 -462z"/>
<path d="M18650 15451 c0 -22 5 -43 10 -46 6 -4 10 12 10 39 0 25 -4 46 -10
46 -5 0 -10 -18 -10 -39z"/>
</g>
</svg>
