<?xml version="1.0" standalone="no"?>
<!DOCTYPE svg PUBLIC "-//W3C//DTD SVG 20010904//EN"
 "http://www.w3.org/TR/2001/REC-SVG-20010904/DTD/svg10.dtd">
<svg version="1.0" xmlns="http://www.w3.org/2000/svg"
 width="2551.000000pt" height="2701.000000pt" viewBox="0 0 2551.000000 2701.000000"
 preserveAspectRatio="xMidYMid meet">

<g transform="translate(0.000000,2701.000000) scale(0.100000,-0.100000)"
fill="#C5C3C1" stroke="none">
<path d="M23890 26955 c0 -62 26 -222 46 -285 13 -43 139 -311 280 -596 250
-507 277 -564 270 -564 -2 0 -25 17 -51 39 -104 86 -252 81 -345 -12 -87 -86
-105 -178 -49 -242 17 -19 47 -40 68 -46 89 -26 201 49 201 135 0 52 -42 34
-55 -23 -9 -44 -40 -66 -90 -66 -87 0 -128 81 -84 164 34 64 96 101 168 101
78 -1 125 -25 201 -106 75 -80 154 -194 142 -206 -5 -5 -7 -22 -4 -38 3 -21
13 -33 34 -42 32 -14 86 -110 142 -251 56 -141 70 -219 70 -387 -1 -136 -4
-167 -27 -252 -25 -92 -69 -195 -118 -276 -51 -83 -91 -122 -166 -159 -70 -35
-77 -36 -118 -25 -32 9 -56 9 -97 0 -52 -11 -58 -10 -121 20 -133 62 -220 190
-221 326 0 61 4 79 28 120 37 63 104 106 165 106 104 0 161 -39 161 -109 0
-45 -21 -77 -57 -86 -63 -16 -73 -50 -11 -42 106 14 162 134 101 215 -54 72
-194 90 -290 38 -58 -32 -105 -84 -135 -153 -30 -69 -22 -170 22 -259 51 -105
126 -171 250 -221 24 -10 22 -12 -43 -41 -80 -37 -181 -128 -220 -201 -67
-122 -80 -306 -33 -451 62 -187 159 -312 317 -405 102 -59 210 -87 367 -94 15
-1 18 -1111 2 -1141 -5 -10 -26 -28 -45 -40 -33 -20 -35 -24 -21 -39 29 -32
11 -87 -35 -103 -37 -14 15 -19 177 -19 170 -1 179 0 182 19 2 14 -4 21 -22
26 -39 10 -50 63 -20 97 13 14 10 18 -26 34 -22 10 -41 25 -44 34 -2 9 -4 273
-5 586 l0 570 97 35 c145 53 251 120 357 225 132 133 195 247 246 444 24 93
26 280 4 385 -19 91 -70 241 -94 275 -25 36 -501 994 -496 999 2 2 23 -14 47
-36 24 -22 58 -47 75 -56 120 -61 301 2 365 127 25 49 21 111 -11 155 -28 39
-98 67 -146 58 -48 -9 -112 -68 -127 -117 -13 -46 -8 -54 27 -45 18 5 25 13
25 30 0 14 12 38 26 55 31 37 64 40 112 11 83 -51 63 -169 -38 -224 -58 -32
-135 -34 -195 -7 -82 37 -254 253 -262 328 -2 24 -12 46 -28 60 -30 26 -117
198 -150 296 -54 163 -66 365 -30 524 48 208 151 396 258 470 53 36 147 69
156 54 9 -13 40 -16 98 -7 46 7 59 4 116 -23 120 -57 213 -186 224 -310 10
-106 -29 -179 -115 -219 -147 -67 -306 41 -216 147 14 17 34 31 43 31 9 0 26
6 37 14 28 21 6 40 -35 31 -43 -9 -91 -52 -112 -100 -52 -117 72 -220 225
-186 164 37 257 172 227 329 -25 129 -120 252 -239 309 l-63 30 53 26 c83 41
148 96 195 165 24 35 43 67 43 73 0 5 -11 9 -24 9 -19 0 -31 -12 -55 -54 -48
-85 -144 -153 -243 -171 -28 -5 -38 -4 -38 5 0 10 -17 11 -69 7 -58 -5 -76 -2
-117 17 -60 28 -126 92 -154 152 -19 37 -26 44 -52 44 -26 0 -29 -3 -22 -22
27 -88 118 -191 196 -224 27 -10 48 -22 48 -25 0 -3 -18 -11 -39 -18 -56 -16
-153 -91 -206 -158 -63 -80 -140 -239 -172 -358 -24 -88 -27 -119 -27 -258 -1
-86 -2 -157 -4 -157 -6 0 -432 873 -447 917 -27 77 -45 173 -45 241 l0 62 -35
0 c-25 0 -35 -4 -35 -15z m1233 -2688 c266 -530 271 -544 272 -762 0 -163 -16
-243 -76 -374 -122 -265 -364 -447 -653 -491 -168 -25 -353 25 -489 133 -102
80 -209 260 -229 382 -13 84 -5 231 17 299 32 104 111 194 210 240 61 29 93
34 122 18 14 -8 41 -10 77 -6 50 6 60 4 118 -29 142 -80 204 -235 144 -364
-41 -86 -135 -131 -219 -104 -74 25 -102 130 -51 190 30 36 27 69 -6 51 -11
-6 -31 -27 -45 -48 -49 -72 -27 -176 47 -223 42 -26 143 -22 203 9 99 50 164
168 150 271 -13 97 -125 238 -219 277 -25 10 -46 22 -46 25 0 3 17 11 38 17
62 19 157 86 202 143 54 68 144 254 169 349 38 141 50 346 25 433 -20 69 40
-42 239 -436z"/>
</g>
</svg>
