<?xml version="1.0" standalone="no"?>
<!DOCTYPE svg PUBLIC "-//W3C//DTD SVG 20010904//EN"
 "http://www.w3.org/TR/2001/REC-SVG-20010904/DTD/svg10.dtd">
<svg version="1.0" xmlns="http://www.w3.org/2000/svg"
 width="2551.000000pt" height="2701.000000pt" viewBox="0 0 2551.000000 2701.000000"
 preserveAspectRatio="xMidYMid meet">

<g transform="translate(0.000000,2701.000000) scale(0.100000,-0.100000)"
fill="#C5C3C1" stroke="none">
<path d="M8268 15442 l-56 -47 -1 -465 c0 -256 -1 -490 -1 -521 l0 -55 -57
-18 c-230 -73 -434 -248 -547 -473 -104 -208 -124 -474 -51 -697 14 -42 155
-337 315 -656 159 -319 290 -583 290 -587 0 -3 -27 24 -60 60 -77 84 -144 119
-228 118 -99 0 -180 -46 -228 -128 -49 -83 -33 -157 46 -210 84 -57 207 2 213
103 2 39 -19 59 -29 27 -17 -56 -37 -85 -68 -99 -42 -21 -79 -13 -117 26 -56
55 -31 141 59 204 34 24 56 31 106 34 56 4 71 1 116 -24 54 -29 142 -121 203
-213 27 -41 35 -61 30 -81 -4 -23 1 -32 28 -51 40 -30 146 -244 183 -372 71
-245 47 -496 -69 -734 -59 -120 -134 -212 -205 -248 -54 -28 -126 -45 -139
-32 -12 12 -81 11 -94 -2 -13 -13 -83 6 -150 41 -111 59 -185 175 -195 303 -9
133 87 236 220 236 94 0 138 -29 146 -96 4 -38 1 -50 -19 -71 -12 -13 -37 -28
-53 -32 -17 -5 -32 -16 -34 -25 -3 -13 4 -17 32 -17 71 0 135 87 120 164 -31
168 -319 163 -418 -7 -54 -92 -50 -217 11 -328 37 -68 137 -161 206 -189 l55
-23 -66 -32 c-122 -59 -197 -145 -243 -276 -19 -53 -23 -87 -23 -194 -1 -112
2 -140 23 -200 67 -198 177 -324 356 -410 102 -49 152 -63 260 -72 l75 -6 1
-111 c1 -90 1 -473 -1 -962 0 -72 0 -72 -34 -88 -43 -20 -51 -41 -26 -66 25
-25 26 -50 1 -57 -26 -7 -43 -51 -39 -99 l3 -38 147 1 c81 1 152 5 158 8 5 3
10 33 10 65 0 49 -3 60 -19 65 -26 8 -38 45 -19 59 32 25 29 45 -11 66 -21 10
-41 26 -45 35 -3 9 -6 270 -6 580 l0 564 71 21 c305 91 550 354 631 676 18 71
22 117 22 229 0 143 -10 202 -55 323 -13 38 -531 1093 -577 1176 -2 4 26 -22
62 -59 79 -79 130 -104 206 -105 69 0 113 12 161 46 148 102 120 314 -42 314
-78 0 -153 -69 -147 -135 4 -42 30 -39 39 5 10 48 59 90 105 90 50 0 104 -53
104 -102 0 -56 -51 -125 -113 -153 -60 -29 -105 -31 -168 -10 -88 30 -302 284
-276 326 15 24 -5 67 -36 74 -39 10 -145 241 -183 400 -66 276 20 635 200 832
58 63 152 116 205 114 44 -1 113 -1 164 0 88 2 222 -105 274 -218 16 -35 28
-80 30 -122 4 -58 2 -72 -24 -121 -37 -71 -112 -120 -184 -120 -70 0 -106 10
-133 37 -34 34 -40 68 -19 111 14 29 27 39 58 48 52 14 61 44 13 44 -94 -1
-151 -101 -110 -192 26 -60 88 -91 178 -91 143 1 252 105 262 249 10 153 -91
317 -240 387 -31 15 -62 27 -67 27 -6 0 -11 5 -11 10 0 6 9 10 19 10 34 0 135
60 188 112 95 94 143 220 143 378 0 212 -108 427 -272 543 -137 97 -247 134
-400 136 l-68 1 0 555 c0 305 -3 555 -7 555 -5 -1 -34 -22 -65 -48z m282
-1124 c25 -6 83 -28 130 -50 119 -57 231 -169 288 -289 44 -92 57 -141 67
-239 8 -82 -14 -208 -48 -281 -49 -102 -171 -198 -274 -215 -26 -4 -43 -2 -47
5 -9 14 -61 14 -87 0 -16 -8 -33 -4 -82 19 -196 92 -259 312 -126 439 62 59
141 78 198 49 67 -35 83 -117 36 -187 -19 -30 -24 -44 -16 -52 17 -17 67 37
81 88 28 99 -51 203 -154 205 -61 0 -113 -20 -163 -64 -92 -81 -120 -213 -68
-324 34 -74 116 -156 189 -192 34 -16 54 -30 45 -30 -9 0 -48 -16 -87 -35
-231 -116 -392 -504 -354 -852 6 -60 14 -121 17 -138 9 -45 -480 943 -504
1018 -23 74 -41 195 -41 271 0 136 51 315 127 446 55 94 218 254 316 309 186
105 382 140 557 99z m424 -4051 c178 -534 -213 -1116 -769 -1144 -133 -7 -200
8 -324 68 -190 93 -325 291 -346 505 -20 199 56 377 196 461 76 45 140 61 174
43 21 -11 34 -12 68 -2 39 10 47 9 106 -20 110 -53 177 -142 188 -251 10 -102
-62 -209 -162 -237 -53 -15 -100 -2 -137 38 -47 50 -48 107 -1 163 17 20 22
34 16 40 -27 27 -79 -40 -89 -112 -6 -52 24 -121 68 -153 64 -46 180 -28 259
42 87 76 111 218 57 335 -34 72 -118 157 -180 183 -27 10 -48 21 -48 24 0 3
21 12 46 19 171 51 334 300 390 600 16 83 15 276 -1 381 -8 46 458 -889 489
-983z"/>
</g>
</svg>
