<?xml version="1.0" standalone="no"?>
<!DOCTYPE svg PUBLIC "-//W3C//DTD SVG 20010904//EN"
 "http://www.w3.org/TR/2001/REC-SVG-20010904/DTD/svg10.dtd">
<svg version="1.0" xmlns="http://www.w3.org/2000/svg"
 width="2551.000000pt" height="2701.000000pt" viewBox="0 0 2551.000000 2701.000000"
 preserveAspectRatio="xMidYMid meet">

<g transform="translate(0.000000,2701.000000) scale(0.100000,-0.100000)"
fill="#C5C3C1" stroke="none">
<path d="M10620 17375 l-55 -45 -5 -521 -5 -521 -65 -22 c-267 -94 -459 -279
-567 -546 -48 -119 -67 -238 -60 -380 10 -204 14 -214 500 -1186 l156 -312
-82 83 c-66 66 -92 86 -136 100 -100 33 -202 5 -273 -73 -49 -54 -60 -77 -60
-127 -2 -115 131 -191 222 -126 59 42 90 131 49 139 -12 2 -18 -7 -23 -32 -15
-81 -119 -115 -177 -57 -38 39 -40 93 -3 146 36 54 62 73 122 91 96 29 164 2
264 -105 88 -92 137 -170 131 -204 -5 -24 18 -58 45 -68 17 -7 128 -239 155
-324 36 -114 48 -191 49 -309 1 -325 -160 -651 -357 -725 -64 -24 -78 -25
-105 -9 -15 9 -30 9 -68 -1 -58 -14 -87 -9 -165 32 -111 58 -187 175 -195 301
-5 86 13 131 77 189 108 97 291 65 291 -52 0 -49 -23 -78 -71 -91 -30 -8 -39
-16 -37 -28 5 -24 58 -20 96 8 89 66 72 194 -32 241 -114 52 -264 0 -336 -116
-99 -160 25 -430 235 -513 l47 -19 -73 -35 c-187 -89 -280 -270 -266 -513 14
-244 156 -454 384 -569 68 -34 202 -66 276 -66 39 0 57 -4 58 -12 5 -140 4
-1118 -2 -1129 -4 -9 -22 -22 -38 -29 -39 -16 -45 -36 -20 -61 25 -25 21 -51
-9 -64 -19 -8 -22 -17 -22 -67 l0 -58 35 -1 c19 0 49 -1 65 -1 17 0 71 1 120
1 l90 1 0 54 c0 46 -3 56 -25 70 -28 18 -34 63 -10 72 27 11 16 38 -23 59
l-37 20 -3 581 -2 580 61 19 c34 10 100 37 148 60 413 202 612 677 471 1123
-13 41 -153 335 -312 654 -158 319 -288 580 -288 582 0 1 35 -33 78 -75 64
-63 89 -80 132 -93 66 -20 94 -20 154 -2 182 55 239 272 88 338 -95 42 -202
-25 -202 -127 0 -40 29 -27 46 20 18 53 46 75 99 75 107 0 137 -106 57 -202
-48 -57 -135 -83 -217 -66 -44 9 -60 21 -131 92 -91 92 -177 215 -168 240 10
27 -4 62 -31 74 -30 14 -108 168 -155 310 -82 245 -58 524 66 762 58 112 103
172 162 215 52 39 161 78 177 64 12 -12 92 -12 99 0 8 13 79 -5 138 -35 142
-72 235 -256 197 -391 -19 -69 -88 -136 -157 -153 -113 -27 -207 18 -207 99 0
47 26 80 78 97 43 15 43 39 -1 38 -96 -5 -154 -123 -99 -204 31 -47 77 -71
145 -77 73 -7 130 9 184 50 202 154 103 497 -175 602 l-47 18 48 16 c195 66
306 240 306 481 0 122 -17 200 -70 305 -110 223 -351 375 -596 375 l-78 0 -2
555 -3 555 -55 -45z m329 -1139 c173 -60 301 -176 375 -338 44 -97 59 -165 59
-268 -1 -156 -48 -277 -138 -357 -79 -70 -200 -118 -232 -92 -8 8 -34 10 -71
6 -49 -6 -64 -3 -110 20 -70 35 -145 118 -167 184 -25 75 -17 157 21 211 76
108 203 135 268 57 36 -43 36 -115 1 -157 -30 -36 -32 -52 -6 -52 25 0 58 42
71 91 22 81 -33 175 -115 198 -58 16 -74 14 -140 -18 -103 -48 -154 -129 -155
-243 0 -125 79 -244 205 -308 l67 -34 -46 -13 c-63 -19 -164 -90 -209 -149
-97 -126 -173 -314 -197 -489 -13 -95 -8 -265 10 -344 6 -24 9 -45 7 -47 -7
-8 -487 968 -506 1030 -136 439 96 922 521 1086 124 48 190 60 308 55 80 -2
123 -10 179 -29z m374 -4033 c39 -122 52 -251 38 -362 -47 -371 -283 -650
-638 -757 -73 -22 -108 -27 -203 -27 -99 -1 -127 3 -197 27 -198 65 -363 234
-416 426 -35 125 -30 279 13 393 29 77 114 168 193 206 73 35 137 50 137 31 0
-10 16 -11 64 -7 58 6 71 3 124 -24 131 -65 209 -212 172 -325 -33 -99 -99
-155 -189 -162 -50 -4 -61 -1 -88 22 -59 50 -66 119 -17 182 19 27 21 34 10
43 -18 15 -61 -34 -77 -89 -24 -80 32 -174 118 -200 84 -25 201 37 261 138 23
41 27 58 27 127 0 70 -4 87 -30 134 -48 86 -99 137 -177 175 l-70 34 33 7
c217 47 408 363 435 717 6 73 -2 171 -21 288 -8 51 469 -905 498 -997z"/>
</g>
</svg>
