<?xml version="1.0" standalone="no"?>
<!DOCTYPE svg PUBLIC "-//W3C//DTD SVG 20010904//EN"
 "http://www.w3.org/TR/2001/REC-SVG-20010904/DTD/svg10.dtd">
<svg version="1.0" xmlns="http://www.w3.org/2000/svg"
 width="2551.000000pt" height="2701.000000pt" viewBox="0 0 2551.000000 2701.000000"
 preserveAspectRatio="xMidYMid meet">

<g transform="translate(0.000000,2701.000000) scale(0.100000,-0.100000)"
fill="#C5C3C1" stroke="none">
<path d="M12962 19302 l-52 -47 0 -516 0 -516 -88 -32 c-241 -86 -451 -287
-545 -523 -53 -131 -69 -229 -65 -378 7 -214 10 -221 350 -903 164 -329 298
-600 298 -603 0 -2 -30 28 -67 67 -82 87 -143 119 -223 118 -124 0 -220 -70
-251 -183 -8 -31 -7 -48 6 -83 48 -125 223 -123 271 3 16 42 16 46 1 61 -15
15 -17 15 -23 -3 -25 -69 -35 -85 -67 -100 -73 -35 -147 9 -147 88 0 129 166
219 295 159 47 -22 155 -131 212 -216 31 -46 40 -68 36 -88 -6 -29 19 -67 42
-67 13 0 134 -248 159 -325 99 -312 36 -674 -160 -921 -58 -73 -218 -154 -247
-125 -14 14 -97 15 -97 0 0 -16 -66 -2 -124 27 -71 35 -120 77 -155 132 -131
204 -48 421 162 422 63 0 107 -17 131 -52 36 -52 6 -130 -57 -146 -41 -11 -50
-42 -12 -42 35 0 78 24 104 56 15 20 21 41 21 80 0 47 -4 59 -33 90 -99 108
-318 60 -392 -85 -33 -65 -38 -107 -25 -182 24 -131 115 -250 238 -312 l69
-34 -65 -28 c-125 -55 -232 -188 -261 -325 -22 -103 -15 -232 18 -339 40 -128
90 -208 182 -295 123 -116 281 -184 436 -189 l68 -2 3 -573 2 -572 -32 -20
c-18 -11 -37 -21 -42 -23 -5 -2 1 -17 13 -34 19 -25 21 -34 12 -52 -6 -11 -20
-25 -31 -31 -15 -8 -20 -21 -20 -55 0 -24 5 -47 10 -50 6 -4 66 -7 133 -7 197
1 177 -4 177 41 0 49 -8 71 -26 71 -7 0 -18 10 -25 21 -9 18 -7 27 10 50 19
25 19 29 5 43 -8 9 -19 16 -24 16 -5 0 -16 7 -24 16 -14 14 -16 82 -16 599 l0
583 35 6 c112 21 280 115 389 217 127 118 202 237 256 405 55 167 54 376 -2
559 -12 39 -154 335 -315 658 -161 323 -293 590 -293 593 0 3 31 -28 70 -69
81 -86 142 -118 225 -118 137 0 270 125 252 237 -16 95 -124 152 -206 109 -45
-23 -81 -72 -81 -110 0 -19 5 -37 11 -41 14 -8 29 14 29 42 0 27 48 72 86 80
41 8 89 -17 110 -58 21 -40 7 -93 -39 -145 -61 -70 -168 -93 -252 -54 -88 40
-261 259 -263 331 0 26 -8 42 -30 60 -30 25 -67 92 -117 210 -118 278 -110
592 23 855 68 136 129 207 212 249 71 37 120 50 133 37 14 -14 90 -14 104 0
17 17 107 -14 173 -60 167 -115 216 -343 99 -460 -107 -107 -309 -77 -309 46
0 42 45 90 88 95 33 4 37 32 5 36 -34 5 -90 -26 -113 -63 -43 -70 -13 -161 65
-199 51 -26 145 -27 207 -3 64 25 132 101 155 173 52 165 -86 399 -272 461
-47 15 -48 17 -25 26 144 56 228 128 280 239 37 79 50 147 50 257 0 110 -20
194 -72 301 -33 70 -56 100 -127 170 -136 134 -286 200 -458 200 l-83 0 0 555
c0 305 -3 555 -7 555 -5 0 -32 -22 -61 -48z m340 -1135 c191 -70 340 -222 399
-407 26 -80 36 -243 20 -320 -24 -117 -103 -232 -196 -285 -57 -33 -145 -57
-160 -45 -7 6 -41 9 -76 8 -51 -2 -74 2 -112 22 -59 30 -132 106 -158 165 -27
61 -27 150 -1 202 27 53 92 109 142 124 118 36 221 -99 145 -189 -28 -33 -33
-62 -11 -62 19 0 64 55 72 86 11 41 -2 110 -26 143 -28 40 -88 71 -137 71 -83
0 -193 -81 -231 -169 -25 -59 -21 -156 10 -222 43 -93 143 -185 221 -204 36
-9 34 -21 -5 -29 -148 -29 -294 -199 -374 -434 -41 -120 -55 -205 -55 -337 0
-94 13 -212 27 -249 3 -9 4 -16 0 -16 -10 0 -477 952 -501 1022 -89 255 -41
569 119 792 124 171 297 289 509 347 104 28 284 22 379 -14z m349 -3974 c48
-118 62 -208 56 -357 -3 -76 -12 -158 -22 -196 -42 -160 -170 -357 -297 -459
-81 -66 -241 -146 -343 -172 -102 -26 -245 -28 -334 -4 -268 70 -458 298 -477
573 -16 222 65 387 229 466 81 40 109 44 152 27 22 -9 39 -10 65 -2 31 10 42
7 95 -19 137 -67 218 -209 186 -327 -24 -89 -122 -173 -204 -173 -64 0 -127
62 -127 126 0 17 11 48 25 68 28 41 32 66 11 66 -38 0 -83 -103 -72 -163 28
-150 207 -182 331 -59 58 58 79 106 79 187 1 141 -88 264 -239 326 l-40 17 30
7 c60 15 146 66 197 118 93 93 187 288 222 459 20 99 21 309 1 403 -8 38 -15
72 -14 75 1 11 463 -919 490 -987z"/>
</g>
</svg>
