<?xml version="1.0" standalone="no"?>
<!DOCTYPE svg PUBLIC "-//W3C//DTD SVG 20010904//EN"
 "http://www.w3.org/TR/2001/REC-SVG-20010904/DTD/svg10.dtd">
<svg version="1.0" xmlns="http://www.w3.org/2000/svg"
 width="3542.000000pt" height="3750.000000pt" viewBox="0 0 3542.000000 3750.000000"
 preserveAspectRatio="xMidYMid meet">

<g transform="translate(0.000000,3750.000000) scale(0.100000,-0.100000)"
fill="#3a4548" stroke="none">
<path d="M13423 18622 l-43 -3 0 -673 0 -673 -46 -7 c-26 -3 -78 -6 -115 -6
l-69 0 0 -1874 0 -1874 115 5 115 6 0 -112 0 -111 -115 0 -115 0 0 -1665 c0
-1577 1 -1666 18 -1672 23 -10 84 -9 155 1 l57 9 0 -565 c0 -436 -3 -568 -12
-581 -7 -9 -35 -26 -63 -37 -42 -18 -48 -23 -34 -33 30 -22 41 -55 28 -79 -16
-29 -39 -47 -61 -48 -15 0 -18 -9 -18 -54 l0 -54 43 -7 c23 -3 75 -13 116 -21
70 -14 83 -13 213 7 l138 23 0 53 c0 38 -4 53 -14 53 -7 0 -25 9 -40 21 -32
25 -35 68 -6 94 28 25 26 30 -22 46 -84 27 -78 -21 -78 635 l0 582 33 5 c17 3
67 11 110 18 l77 12 0 1639 0 1640 -110 -5 -110 -6 0 109 0 110 110 0 110 0 0
1876 0 1876 -110 -4 -110 -3 0 678 0 678 -52 -3 c-29 -2 -72 -4 -95 -6z m197
-3227 l0 -1745 -58 0 c-33 0 -100 -3 -150 -6 l-92 -7 0 1742 c0 957 1 1742 3
1742 1 1 63 5 137 8 74 4 141 8 148 9 9 2 12 -353 12 -1743z m0 -2346 c3 -68
4 -743 2 -1500 l-2 -1375 -145 -23 c-80 -13 -148 -22 -150 -19 -3 3 -5 515 -5
1139 -1 1785 0 1863 10 1879 7 12 39 16 137 21 70 3 133 5 138 4 6 -1 12 -54
15 -126z"/>
</g>
</svg>
