<?xml version="1.0" standalone="no"?>
<!DOCTYPE svg PUBLIC "-//W3C//DTD SVG 20010904//EN"
 "http://www.w3.org/TR/2001/REC-SVG-20010904/DTD/svg10.dtd">
<svg version="1.0" xmlns="http://www.w3.org/2000/svg"
 width="3542.000000pt" height="3750.000000pt" viewBox="0 0 3542.000000 3750.000000"
 preserveAspectRatio="xMidYMid meet">

<g transform="translate(0.000000,3750.000000) scale(0.100000,-0.100000)"
fill="#3a4548" stroke="none">
<path d="M18306 18070 c2 -712 14 -640 -105 -640 l-71 0 0 -510 c-1 -280 -1
-553 -1 -605 0 -52 0 -606 1 -1230 l0 -1135 90 0 90 0 -1 -92 c-1 -51 -6 -99
-12 -105 -6 -9 -38 -13 -91 -13 l-81 0 3 -1517 c1 -835 5 -1524 7 -1532 4 -11
23 -13 90 -8 l85 6 0 -519 c0 -477 -1 -521 -17 -540 -10 -11 -20 -20 -24 -20
-4 0 -23 -7 -42 -15 l-36 -15 24 -25 c14 -13 25 -30 25 -37 0 -22 -30 -59 -56
-68 -20 -8 -24 -16 -24 -55 0 -36 4 -45 18 -46 20 -1 47 -5 117 -19 73 -15
119 -14 225 4 52 9 98 16 103 16 4 0 7 23 7 50 0 38 -4 50 -15 50 -21 0 -65
45 -65 65 0 9 11 27 24 40 l25 25 -45 19 c-80 36 -74 -12 -74 589 l0 539 85
12 85 13 0 1505 0 1505 -77 -3 -78 -4 -5 35 c-3 19 -4 64 -2 101 l4 67 76 -1
77 -2 3 1748 2 1747 -80 0 -80 0 0 33 c-1 17 -1 296 -1 620 l1 587 -93 0 -92
0 1 -620z m194 -2380 l0 -1620 -110 0 -110 0 -1 43 c-1 31 0 3182 1 3195 0 1
50 2 110 2 l110 0 0 -1620z m0 -2897 c0 -737 0 -1825 0 -1894 0 -24 -4 -26
-107 -42 -58 -10 -108 -15 -111 -13 -2 3 -4 346 -4 763 1 417 1 1040 2 1386
l0 627 110 0 110 0 0 -827z"/>
</g>
</svg>
