<?xml version="1.0" standalone="no"?>
<!DOCTYPE svg PUBLIC "-//W3C//DTD SVG 20010904//EN"
 "http://www.w3.org/TR/2001/REC-SVG-20010904/DTD/svg10.dtd">
<svg version="1.0" xmlns="http://www.w3.org/2000/svg"
 width="3542.000000pt" height="3750.000000pt" viewBox="0 0 3542.000000 3750.000000"
 preserveAspectRatio="xMidYMid meet">

<g transform="translate(0.000000,3750.000000) scale(0.100000,-0.100000)"
fill="#3a4548" stroke="none">
<path d="M2142 17680 c1 -434 -1 -793 -5 -796 -3 -4 -70 -9 -147 -12 l-140 -5
0 -1491 c-1 -2096 -1 -2801 0 -2878 l0 -68 145 0 c109 0 145 -3 146 -12 4 -66
2 -238 -3 -244 -4 -4 -71 -9 -148 -12 l-140 -5 0 -1923 0 -1923 38 -7 c22 -5
77 -1 137 9 55 10 106 17 113 17 9 0 12 -138 12 -655 0 -575 -2 -659 -15 -679
-9 -14 -41 -33 -76 -46 l-60 -23 30 -31 c17 -18 31 -41 31 -52 0 -30 -29 -64
-66 -80 -33 -14 -34 -16 -34 -72 l0 -57 110 -31 109 -31 188 32 188 31 3 62
c3 57 1 62 -18 62 -30 0 -80 53 -80 85 0 16 11 36 30 54 l30 27 -57 24 c-101
40 -93 -29 -93 742 l0 678 23 5 c12 2 78 14 146 25 69 12 128 23 133 26 4 3 6
849 5 1882 l-2 1877 -150 -3 -150 -4 0 130 0 130 44 6 c24 3 93 6 152 6 l109
0 -3 2223 -2 2222 -150 -4 -150 -3 0 788 0 789 -117 3 -117 3 1 -791z m338
-3009 l0 -2059 -92 -6 c-51 -3 -148 -9 -215 -12 l-123 -6 0 669 c-2 2542 -1
3445 2 3448 2 2 91 8 198 13 107 5 203 10 213 10 16 2 17 -102 17 -2057z m0
-2738 c2 -2130 -2 -3348 -11 -3354 -9 -5 -389 -69 -411 -69 -5 0 -8 785 -8
1745 l0 1745 63 1 c59 1 313 14 350 17 15 2 17 -8 17 -85z"/>
</g>
</svg>
