<?xml version="1.0" standalone="no"?>
<!DOCTYPE svg PUBLIC "-//W3C//DTD SVG 20010904//EN"
 "http://www.w3.org/TR/2001/REC-SVG-20010904/DTD/svg10.dtd">
<svg version="1.0" xmlns="http://www.w3.org/2000/svg"
 width="3542.000000pt" height="3750.000000pt" viewBox="0 0 3542.000000 3750.000000"
 preserveAspectRatio="xMidYMid meet">

<g transform="translate(0.000000,3750.000000) scale(0.100000,-0.100000)"
fill="#3a4548" stroke="none">
<path d="M34478 17943 l-3 -688 -130 0 -130 0 0 -1920 0 -1920 50 3 c28 2 87
0 133 -3 l83 -7 -3 -106 -3 -107 -40 -1 c-22 -1 -82 -2 -134 -3 l-94 -1 5
-1630 c3 -897 7 -1632 10 -1635 3 -3 62 -13 131 -22 l127 -17 1 -70 c3 -437 0
-1097 -6 -1115 -4 -14 -26 -30 -61 -46 l-54 -24 25 -25 c41 -41 28 -87 -31
-112 -32 -13 -34 -17 -34 -63 l0 -48 88 -12 c48 -7 98 -14 112 -17 105 -16
140 -15 228 6 l92 22 0 50 c0 46 -2 50 -30 60 -58 20 -73 99 -23 127 15 8 10
13 -38 35 -31 13 -59 32 -63 41 -3 9 -6 274 -6 589 l0 572 103 -13 c56 -7 119
-11 139 -7 l38 6 2 516 c2 285 2 1036 0 1670 l-2 1152 -140 0 -140 0 0 109 0
109 140 7 140 7 0 1914 0 1914 -109 0 c-60 0 -123 3 -140 6 l-31 7 0 682 0
682 -46 7 c-26 3 -71 6 -100 6 l-54 0 -2 -687z m300 -848 c6 -5 5 -3556 -1
-3561 -2 -2 -90 -1 -195 2 l-192 7 0 1785 0 1785 192 -7 c105 -3 194 -8 196
-11z m-2 -4058 c5 -4 8 -3026 4 -3030 -3 -3 -90 7 -195 22 l-190 27 -3 1499
-2 1498 192 -7 c105 -3 193 -7 194 -9z"/>
</g>
</svg>
