<?xml version="1.0" standalone="no"?>
<!DOCTYPE svg PUBLIC "-//W3C//DTD SVG 20010904//EN"
 "http://www.w3.org/TR/2001/REC-SVG-20010904/DTD/svg10.dtd">
<svg version="1.0" xmlns="http://www.w3.org/2000/svg"
 width="3542.000000pt" height="3750.000000pt" viewBox="0 0 3542.000000 3750.000000"
 preserveAspectRatio="xMidYMid meet">

<g transform="translate(0.000000,3750.000000) scale(0.100000,-0.100000)"
fill="#3a4548" stroke="none">
<path d="M6296 18523 c-3 -4 -6 -243 -6 -532 0 -289 0 -626 0 -748 l0 -223
-58 0 c-33 0 -92 -3 -133 -6 l-74 -7 1 -2051 c1 -1128 2 -2059 2 -2068 2 -16
13 -18 80 -18 42 0 101 -3 130 -7 l53 -6 -3 -116 -3 -116 -130 -3 -130 -3 2
-52 c0 -29 2 -861 2 -1849 l1 -1797 43 -6 c37 -6 95 0 200 21 l27 6 0 -626 c0
-710 8 -648 -87 -687 l-54 -22 25 -26 c15 -16 26 -39 26 -55 0 -31 -42 -76
-71 -76 -16 0 -19 -8 -19 -58 l0 -59 115 -27 116 -28 169 28 170 29 0 57 c0
52 -2 58 -21 58 -27 0 -79 53 -79 80 0 12 14 35 30 50 l30 28 -46 18 c-25 9
-56 26 -70 36 l-24 19 0 648 0 648 103 17 c56 9 114 19 130 22 l27 6 1 96 c0
53 1 868 2 1810 l2 1712 -132 0 -133 0 0 114 c0 95 3 115 16 120 9 3 69 6 135
6 l119 0 0 2081 0 2082 -135 -7 -135 -7 0 751 0 750 -103 0 c-57 0 -107 -3
-111 -7z m294 -3572 l0 -1928 -181 -7 c-100 -4 -184 -5 -187 -1 -4 3 -8 870
-10 1926 l-4 1919 29 1 c34 2 287 15 326 17 l27 2 0 -1929z m0 -4120 c0 -1572
-1 -1660 -17 -1665 -28 -8 -320 -56 -343 -56 -20 0 -20 4 -20 1680 l0 1680 28
1 c35 2 289 15 325 17 l27 2 0 -1659z"/>
</g>
</svg>
