<?xml version="1.0" standalone="no"?>
<!DOCTYPE svg PUBLIC "-//W3C//DTD SVG 20010904//EN"
 "http://www.w3.org/TR/2001/REC-SVG-20010904/DTD/svg10.dtd">
<svg version="1.0" xmlns="http://www.w3.org/2000/svg"
 width="2550.000000pt" height="2700.000000pt" viewBox="0 0 2550.000000 2700.000000"
 preserveAspectRatio="xMidYMid meet">

<g transform="translate(0.000000,2700.000000) scale(0.100000,-0.100000)"
fill="#3a4548" stroke="none">
<path d="M15482 19781 l-43 -37 1 -540 c0 -647 -12 -805 -86 -1098 -14 -55
-23 -109 -20 -121 9 -36 44 -73 76 -80 38 -8 41 -41 6 -55 -34 -12 -40 -27
-22 -52 22 -31 20 -65 -5 -78 -79 -43 -79 -97 0 -140 25 -13 29 -61 6 -80 -22
-18 -19 -28 15 -45 39 -20 40 -51 1 -60 -35 -8 -59 -32 -71 -74 -6 -24 -1 -66
25 -180 62 -278 70 -366 70 -766 -1 -393 -9 -483 -71 -750 -16 -66 -28 -135
-28 -152 1 -40 35 -79 75 -88 22 -5 29 -12 29 -31 0 -14 -7 -27 -17 -31 -37
-13 -44 -24 -28 -46 22 -31 19 -74 -6 -87 -30 -17 -59 -48 -59 -65 0 -16 25
-43 56 -61 25 -14 30 -59 9 -90 -16 -25 -16 -26 14 -37 24 -9 31 -17 31 -39 0
-21 -5 -28 -20 -28 -11 0 -34 -13 -52 -28 -40 -37 -41 -61 -4 -217 64 -275 68
-338 73 -1042 5 -628 4 -642 -15 -661 -11 -11 -28 -24 -37 -29 -16 -10 -16
-11 0 -37 16 -24 16 -28 1 -51 -9 -14 -21 -25 -26 -25 -6 0 -10 -22 -10 -50
l0 -50 135 0 c121 0 135 2 137 18 3 43 -5 77 -23 90 -20 14 -26 57 -9 67 18
11 10 30 -20 48 l-30 18 0 620 c0 365 4 660 11 717 14 130 46 320 70 414 10
42 19 88 19 103 0 30 -57 95 -84 95 -11 0 -16 9 -16 30 0 19 5 30 14 30 7 0
19 7 26 15 10 13 10 19 -4 33 -9 10 -16 27 -16 38 1 21 22 54 36 54 11 1 69
59 63 63 -102 78 -115 100 -83 146 14 19 14 25 3 32 -8 5 -20 9 -26 9 -8 0
-13 13 -13 30 0 21 5 30 16 30 9 0 32 16 51 35 41 41 41 32 -6 260 -49 234
-61 371 -61 720 0 381 15 535 82 812 21 89 21 94 5 128 -11 24 -29 41 -52 51
-27 11 -35 20 -35 39 0 15 6 25 14 25 7 0 19 6 25 14 10 12 9 20 -4 40 -21 31
-13 72 14 81 11 3 32 22 47 42 24 31 25 37 11 44 -9 5 -22 15 -29 22 -7 7 -21
16 -30 20 -27 10 -33 53 -13 84 17 25 17 27 -1 40 -10 7 -21 13 -26 13 -4 0
-8 11 -8 25 0 18 7 26 25 31 33 8 75 59 75 91 0 13 -9 59 -19 101 -72 286 -81
407 -81 1110 0 336 -3 612 -7 612 -5 -1 -27 -18 -51 -39z"/>
</g>
</svg>
