<?xml version="1.0" standalone="no"?>
<!DOCTYPE svg PUBLIC "-//W3C//DTD SVG 20010904//EN"
 "http://www.w3.org/TR/2001/REC-SVG-20010904/DTD/svg10.dtd">
<svg version="1.0" xmlns="http://www.w3.org/2000/svg"
 width="2550.000000pt" height="2700.000000pt" viewBox="0 0 2550.000000 2700.000000"
 preserveAspectRatio="xMidYMid meet">

<g transform="translate(0.000000,2700.000000) scale(0.100000,-0.100000)"
fill="#3a4548" stroke="none">
<path d="M16428 20643 l-48 -35 0 -581 c0 -638 -7 -731 -66 -992 -14 -66 -29
-135 -31 -153 -8 -50 13 -89 58 -109 46 -20 52 -48 14 -65 -29 -13 -31 -24 -9
-67 13 -25 13 -35 4 -46 -7 -8 -18 -15 -24 -15 -14 0 -56 -61 -56 -82 0 -8 18
-27 39 -41 47 -31 60 -61 37 -86 -23 -26 -20 -50 9 -57 31 -8 37 -54 6 -54
-25 0 -69 -43 -77 -76 -4 -16 -2 -53 5 -84 84 -381 94 -484 88 -925 -4 -330
-7 -372 -30 -501 -14 -78 -35 -178 -47 -222 -11 -44 -20 -94 -20 -110 0 -36
41 -89 73 -94 26 -4 39 -58 14 -58 -29 0 -38 -25 -21 -59 13 -26 14 -38 5 -57
-6 -13 -16 -24 -23 -24 -7 0 -25 -15 -40 -34 l-27 -33 36 -32 c19 -17 38 -31
43 -31 16 0 19 -45 4 -75 -13 -27 -13 -31 3 -42 9 -7 21 -13 26 -13 4 0 7 -12
5 -27 -2 -20 -9 -29 -25 -31 -12 -2 -34 -17 -49 -35 -31 -37 -30 -61 10 -232
14 -60 35 -182 46 -270 19 -152 20 -212 18 -1215 l-3 -1054 -32 -22 c-28 -19
-31 -24 -18 -34 23 -19 18 -56 -10 -78 -18 -14 -25 -29 -25 -53 0 -59 4 -60
146 -57 l129 3 3 38 c3 31 -2 43 -22 62 -30 28 -32 42 -11 72 14 20 12 23 -21
48 l-35 27 4 1081 c3 933 6 1096 20 1187 25 164 44 268 66 359 19 78 19 87 5
117 -10 22 -30 40 -55 51 -49 21 -52 50 -8 76 30 16 31 19 15 36 -19 21 -21
66 -3 80 6 5 29 25 50 43 l38 33 -50 39 c-56 42 -65 72 -35 114 15 22 14 23
-16 33 -26 9 -31 16 -28 38 2 18 10 27 25 29 28 4 70 46 75 77 3 13 -7 78 -22
143 -56 245 -77 440 -79 762 -2 321 19 539 79 805 25 113 27 133 16 160 -14
32 -54 65 -81 65 -9 0 -15 9 -15 25 0 14 6 25 13 25 8 0 21 8 30 18 13 15 14
19 1 36 -23 32 -17 57 24 96 48 48 65 70 53 70 -5 0 -19 11 -32 25 -13 13 -30
25 -36 25 -21 0 -28 51 -10 81 16 29 12 39 -25 52 -31 11 -21 44 16 57 41 13
67 49 69 93 1 18 -11 84 -26 147 -66 287 -78 451 -77 1114 1 301 0 549 -2 551
-2 1 -24 -13 -50 -32z"/>
</g>
</svg>
