<?xml version="1.0" standalone="no"?>
<!DOCTYPE svg PUBLIC "-//W3C//DTD SVG 20010904//EN"
 "http://www.w3.org/TR/2001/REC-SVG-20010904/DTD/svg10.dtd">
<svg version="1.0" xmlns="http://www.w3.org/2000/svg"
 width="2550.000000pt" height="2700.000000pt" viewBox="0 0 2550.000000 2700.000000"
 preserveAspectRatio="xMidYMid meet">

<g transform="translate(0.000000,2700.000000) scale(0.100000,-0.100000)"
fill="#3a4548" stroke="none">
<path d="M17275 21476 l-49 -43 3 -504 c3 -629 -7 -771 -80 -1105 -33 -154
-31 -177 16 -211 70 -49 70 -50 56 -67 -8 -9 -16 -14 -19 -12 -2 3 -13 1 -23
-4 -17 -10 -17 -12 2 -45 20 -33 20 -37 5 -60 -9 -14 -22 -25 -29 -25 -19 -1
-57 -36 -57 -54 0 -8 23 -34 50 -57 28 -23 50 -48 50 -54 0 -7 -10 -25 -22
-40 -18 -23 -19 -29 -6 -36 39 -22 61 -47 55 -62 -4 -10 -13 -17 -22 -17 -28
0 -64 -31 -75 -66 -9 -28 -8 -49 8 -116 61 -251 82 -421 89 -728 8 -353 -13
-592 -78 -877 -28 -124 -29 -134 -15 -168 12 -27 26 -40 56 -52 52 -21 53 -47
4 -68 -34 -14 -36 -17 -22 -33 8 -9 18 -26 22 -36 8 -22 -18 -66 -39 -66 -8 0
-15 -4 -15 -9 0 -5 -9 -13 -20 -16 -38 -12 -14 -61 47 -93 34 -18 39 -50 13
-84 -12 -16 -20 -30 -18 -31 52 -27 64 -36 66 -54 2 -16 -3 -23 -26 -28 -33
-7 -66 -39 -76 -72 -4 -13 5 -79 23 -155 73 -325 84 -482 76 -1153 -3 -302 -8
-557 -11 -566 -3 -9 -18 -22 -34 -29 -34 -14 -37 -22 -15 -40 23 -19 18 -44
-13 -72 -19 -17 -28 -34 -27 -54 l0 -29 154 0 c146 0 154 1 157 20 5 31 -5 52
-26 58 -27 7 -37 53 -16 76 20 22 20 31 2 31 -8 0 -24 8 -36 18 l-21 17 -1
605 c-1 333 2 643 6 690 10 115 42 315 67 425 12 50 23 100 26 111 9 37 -25
92 -68 111 -50 22 -51 48 -3 68 l35 14 -22 30 c-28 38 -19 62 37 103 24 17 44
36 44 41 0 11 -47 57 -59 57 -13 0 -41 35 -41 52 0 8 9 27 20 41 l20 25 -35
22 c-44 27 -42 49 7 72 21 10 45 32 53 49 15 29 15 37 -9 137 -59 255 -78 434
-80 781 -3 340 19 572 75 811 12 52 22 109 22 127 1 41 -26 80 -69 100 -42 20
-41 42 3 63 l31 15 -19 24 c-10 13 -19 30 -19 38 0 18 68 83 87 83 28 0 11 37
-37 79 -28 25 -50 50 -50 56 0 7 9 24 20 38 l20 25 -36 29 c-41 33 -39 56 9
69 19 6 39 22 50 42 19 31 19 36 4 100 -84 352 -93 479 -91 1229 2 299 -1 545
-5 547 -4 3 -30 -14 -56 -38z"/>
</g>
</svg>
