<?xml version="1.0" standalone="no"?>
<!DOCTYPE svg PUBLIC "-//W3C//DTD SVG 20010904//EN"
 "http://www.w3.org/TR/2001/REC-SVG-20010904/DTD/svg10.dtd">
<svg version="1.0" xmlns="http://www.w3.org/2000/svg"
 width="2550.000000pt" height="2700.000000pt" viewBox="0 0 2550.000000 2700.000000"
 preserveAspectRatio="xMidYMid meet">

<g transform="translate(0.000000,2700.000000) scale(0.100000,-0.100000)"
fill="#3a4548" stroke="none">
<path d="M19933 24213 c-45 -43 -50 -52 -47 -83 6 -55 6 -1078 0 -1145 -3 -33
-8 -94 -11 -135 -7 -81 -47 -311 -70 -400 -7 -30 -11 -67 -8 -83 5 -26 54 -77
73 -77 5 0 14 -9 20 -21 10 -18 7 -22 -30 -36 l-40 -16 21 -23 c33 -35 22 -63
-45 -107 l-59 -39 35 -32 c18 -17 46 -39 61 -49 32 -21 35 -52 7 -82 l-20 -22
37 -24 c21 -13 38 -31 38 -39 0 -8 -17 -24 -37 -35 -25 -13 -43 -32 -53 -57
-14 -36 -13 -46 15 -170 39 -178 53 -266 66 -433 7 -89 7 -597 0 -700 -7 -94
-11 -133 -20 -200 -4 -22 -8 -54 -10 -71 -7 -48 -33 -182 -51 -256 -14 -60
-14 -72 -1 -103 10 -24 26 -40 49 -50 39 -16 56 -53 29 -61 -9 -3 -28 -10 -41
-15 l-24 -10 22 -23 c11 -12 21 -31 21 -43 0 -21 -29 -53 -48 -53 -7 0 -12 -5
-12 -10 0 -6 -11 -15 -25 -20 -37 -14 -31 -30 30 -77 61 -48 69 -72 33 -110
l-21 -23 37 -15 c20 -9 39 -22 43 -30 6 -17 -15 -48 -27 -40 -15 9 -59 -36
-69 -70 -7 -26 -3 -62 19 -160 16 -70 31 -150 35 -178 3 -29 8 -65 10 -82 7
-48 15 -115 21 -190 4 -53 7 -1410 4 -2118 0 -65 -1 -68 -32 -87 -18 -11 -37
-22 -43 -23 -5 -2 -2 -13 8 -25 25 -28 18 -64 -15 -80 -21 -10 -28 -20 -28
-43 l0 -29 175 0 175 0 0 28 c0 21 -7 32 -24 40 -32 14 -42 48 -22 71 9 10 16
22 16 27 0 8 -42 30 -72 38 -2 1 -5 246 -8 546 l-5 545 -22 3 c-23 3 -23 4
-23 202 0 197 0 199 24 217 l24 19 5 375 c5 401 13 481 71 739 14 63 26 126
26 140 0 35 -25 68 -66 85 -47 19 -46 51 1 71 l35 14 -21 29 c-11 16 -19 37
-17 47 2 10 30 36 62 57 l59 39 -37 32 c-20 17 -47 39 -61 49 -30 22 -32 46
-5 75 11 12 20 23 20 25 0 3 -16 12 -36 22 -29 14 -35 21 -32 43 2 18 10 28
23 30 31 6 64 42 71 77 3 20 -6 83 -24 166 -62 273 -67 335 -67 779 0 436 5
495 62 760 44 206 42 225 -27 260 -52 26 -53 59 -2 72 38 10 38 12 12 45 -27
34 -25 48 8 72 15 12 32 25 39 31 7 5 16 10 21 10 5 0 15 7 23 16 11 13 8 19
-17 40 -16 13 -41 31 -56 39 -38 21 -45 51 -18 87 12 16 20 31 18 33 -1 1 -18
10 -35 19 -44 22 -43 50 2 72 37 17 65 58 65 93 0 10 -11 66 -24 123 -68 291
-76 416 -76 1116 1 590 -1 632 -29 632 -4 0 -30 -21 -58 -47z"/>
</g>
</svg>
