<?xml version="1.0" standalone="no"?>
<!DOCTYPE svg PUBLIC "-//W3C//DTD SVG 20010904//EN"
 "http://www.w3.org/TR/2001/REC-SVG-20010904/DTD/svg10.dtd">
<svg version="1.0" xmlns="http://www.w3.org/2000/svg"
 width="2550.000000pt" height="2700.000000pt" viewBox="0 0 2550.000000 2700.000000"
 preserveAspectRatio="xMidYMid meet">

<g transform="translate(0.000000,2700.000000) scale(0.100000,-0.100000)"
fill="#3a4548" stroke="none">
<path d="M22239 26988 c0 -7 0 -206 1 -443 2 -538 -11 -722 -76 -1090 -21
-117 -12 -150 44 -174 42 -19 45 -56 5 -64 -50 -11 -58 -22 -34 -46 11 -11 21
-32 21 -45 0 -29 -17 -44 -97 -87 -30 -16 -29 -47 1 -59 13 -5 25 -12 27 -17
2 -4 18 -15 34 -23 39 -20 46 -63 14 -96 l-22 -23 42 -17 c53 -21 53 -43 2
-92 -22 -21 -43 -50 -46 -65 -4 -16 3 -83 19 -165 47 -250 58 -369 63 -716 7
-419 -11 -659 -78 -1026 -15 -79 -2 -117 48 -140 34 -15 46 -56 21 -65 -7 -2
-26 -9 -42 -15 l-29 -11 22 -22 c11 -13 21 -35 21 -49 0 -28 -28 -58 -53 -58
-9 0 -17 -5 -17 -10 0 -6 -11 -15 -25 -20 -47 -18 -27 -44 70 -96 29 -16 32
-67 5 -94 l-21 -21 40 -17 c33 -14 41 -22 41 -43 0 -18 -8 -29 -25 -37 -31
-14 -65 -68 -65 -102 0 -14 9 -70 20 -125 12 -55 31 -172 43 -260 21 -152 22
-194 22 -870 l0 -710 -35 -17 c-19 -10 -39 -19 -45 -21 -5 -2 -2 -11 8 -21 29
-29 22 -64 -18 -87 -33 -20 -45 -42 -27 -52 4 -2 59 1 122 8 63 8 151 16 195
20 71 6 77 9 60 21 -52 36 -57 52 -25 84 11 11 20 22 20 23 0 2 -18 10 -41 17
-22 8 -44 21 -50 31 -5 11 -9 281 -9 665 0 699 5 795 57 1094 45 256 43 279
-23 306 -25 11 -34 20 -34 38 0 19 7 25 35 30 45 9 52 22 26 50 -12 12 -21 31
-21 43 0 21 29 53 48 53 6 0 17 6 24 13 8 6 23 17 33 23 26 14 25 34 0 48 -11
6 -23 15 -26 19 -3 4 -21 16 -40 25 -42 21 -49 57 -18 90 24 26 21 33 -24 48
-45 15 -49 53 -8 76 16 9 37 31 46 49 20 37 18 77 -14 242 -50 260 -56 350
-56 772 0 429 9 538 61 822 13 73 24 147 24 165 0 44 -23 75 -60 83 -23 5 -30
12 -30 29 0 18 9 26 40 36 22 7 40 15 40 17 0 2 -10 17 -21 33 -27 36 -19 76
19 93 15 6 42 22 60 36 l33 24 -37 34 c-21 18 -43 33 -49 33 -18 0 -45 34 -45
57 0 11 9 28 20 38 28 25 26 31 -20 49 -51 20 -51 41 1 86 55 47 58 81 26 251
-58 301 -67 429 -67 987 l0 462 -75 0 c-53 0 -75 -4 -76 -12z"/>
</g>
</svg>
