<?xml version="1.0" standalone="no"?>
<!DOCTYPE svg PUBLIC "-//W3C//DTD SVG 20010904//EN"
 "http://www.w3.org/TR/2001/REC-SVG-20010904/DTD/svg10.dtd">
<svg version="1.0" xmlns="http://www.w3.org/2000/svg"
 width="2550.000000pt" height="2700.000000pt" viewBox="0 0 2550.000000 2700.000000"
 preserveAspectRatio="xMidYMid meet">

<g transform="translate(0.000000,2700.000000) scale(0.100000,-0.100000)"
fill="#3a4548" stroke="none">
<path d="M23065 26988 c-2 -7 -11 -67 -20 -133 -8 -66 -26 -178 -40 -250 -23
-124 -23 -132 -7 -165 10 -21 30 -41 50 -49 17 -8 32 -22 32 -30 0 -16 -42
-41 -67 -41 -20 0 -16 -25 7 -45 31 -28 23 -66 -19 -87 -19 -9 -37 -21 -40
-25 -3 -4 -18 -14 -33 -22 -16 -8 -28 -17 -28 -20 1 -7 82 -62 118 -80 28 -15
29 -50 1 -85 -12 -15 -20 -28 -18 -30 2 -1 21 -10 42 -20 45 -21 51 -56 12
-74 -34 -16 -65 -69 -65 -113 0 -20 9 -79 19 -130 53 -258 71 -471 71 -834 0
-370 -27 -674 -81 -913 -23 -104 -5 -165 52 -177 22 -5 29 -12 29 -31 0 -14
-6 -27 -12 -29 -7 -2 -26 -9 -41 -15 l-28 -10 20 -26 c12 -15 21 -37 21 -50 0
-23 -42 -64 -66 -64 -8 0 -14 -4 -14 -8 0 -5 -14 -15 -32 -23 l-31 -15 37 -29
c20 -15 51 -35 69 -44 40 -20 46 -53 17 -93 l-21 -29 40 -17 c33 -14 41 -22
41 -44 0 -18 -7 -29 -20 -33 -10 -3 -31 -20 -45 -36 -31 -38 -32 -76 -5 -207
68 -339 71 -417 68 -1682 l-3 -1115 -35 -17 c-19 -10 -39 -20 -45 -22 -5 -1
-2 -12 8 -23 28 -32 21 -61 -18 -84 -34 -21 -49 -59 -22 -59 7 0 66 7 132 14
66 8 151 17 188 19 37 2 71 7 74 11 3 3 0 6 -9 6 -16 0 -58 41 -58 57 0 5 9
18 20 28 27 25 25 32 -10 40 -17 4 -40 16 -50 28 -19 20 -20 39 -20 601 0 570
0 581 -20 594 -19 12 -20 23 -20 232 0 202 1 220 19 232 17 12 19 37 24 363 6
389 29 624 87 879 6 27 8 62 5 76 -7 32 -41 66 -70 72 -13 2 -20 11 -20 27 0
18 8 27 32 35 45 16 48 22 24 52 -11 15 -21 35 -21 45 0 19 44 59 66 59 8 0
14 3 14 8 0 4 14 15 30 24 38 22 38 32 0 48 -16 7 -30 16 -30 21 0 4 -10 11
-22 15 -57 17 -75 65 -38 99 27 24 22 36 -21 50 -48 16 -51 53 -6 80 17 11 40
37 51 58 18 38 18 39 -8 170 -61 308 -70 408 -70 842 0 324 3 426 17 540 19
143 47 319 67 412 16 73 1 118 -48 141 -52 24 -53 48 -3 68 23 9 41 18 41 21
0 3 -9 16 -20 30 -11 14 -20 34 -20 44 0 19 44 59 66 59 8 0 14 3 14 8 0 4 14
15 30 24 17 9 30 21 30 25 0 8 -31 29 -100 68 -45 26 -50 56 -15 91 14 14 25
27 23 29 -2 1 -22 12 -45 24 -24 12 -43 26 -43 32 0 7 20 30 44 53 25 22 48
54 52 70 4 18 -3 79 -20 165 -14 75 -31 170 -36 211 -6 41 -13 90 -16 108 l-5
32 -90 0 c-63 0 -91 -4 -94 -12z"/>
</g>
</svg>
