<?xml version="1.0" standalone="no"?>
<!DOCTYPE svg PUBLIC "-//W3C//DTD SVG 20010904//EN"
 "http://www.w3.org/TR/2001/REC-SVG-20010904/DTD/svg10.dtd">
<svg version="1.0" xmlns="http://www.w3.org/2000/svg"
 width="2550.000000pt" height="2700.000000pt" viewBox="0 0 2550.000000 2700.000000"
 preserveAspectRatio="xMidYMid meet">

<g transform="translate(0.000000,2700.000000) scale(0.100000,-0.100000)"
fill="#3a4548" stroke="none">
<path d="M12873 17228 l-62 -63 -4 -550 c-4 -591 -8 -652 -64 -920 -36 -177
-37 -195 -14 -233 14 -21 32 -35 51 -39 25 -4 30 -10 30 -34 0 -21 -5 -29 -18
-29 -10 0 -26 -6 -37 -13 -17 -13 -17 -15 4 -43 29 -39 21 -57 -45 -99 -30
-19 -54 -38 -54 -43 0 -14 23 -32 42 -32 10 0 18 -7 18 -15 0 -8 7 -15 15 -15
8 0 22 -11 31 -26 16 -24 16 -26 -6 -56 -22 -30 -22 -32 -5 -45 11 -7 27 -13
37 -13 13 0 18 -8 18 -30 0 -23 -5 -30 -19 -30 -10 0 -30 -9 -45 -21 -23 -18
-26 -28 -26 -77 0 -31 9 -100 20 -152 58 -276 74 -488 67 -867 -6 -308 -14
-398 -61 -638 -33 -167 -34 -234 -3 -262 12 -12 31 -23 42 -25 12 -2 21 -13
23 -26 3 -22 1 -24 -67 -48 -11 -3 -9 -10 8 -28 29 -31 25 -77 -6 -91 -20 -8
-23 -17 -23 -66 0 -50 3 -57 25 -67 32 -15 33 -57 4 -89 l-22 -22 29 -11 c16
-6 35 -13 42 -15 22 -8 14 -45 -13 -55 -13 -5 -33 -18 -45 -30 -26 -26 -27
-104 0 -231 29 -142 48 -278 60 -439 12 -178 12 -2127 -1 -2152 -5 -9 -25 -22
-45 -28 -33 -11 -34 -13 -20 -29 23 -25 20 -68 -4 -81 -15 -8 -20 -21 -20 -51
0 -37 3 -41 38 -56 29 -12 58 -14 132 -9 52 3 114 6 138 6 42 0 42 0 42 38 0
31 -5 40 -30 54 -34 19 -41 60 -15 88 14 16 13 18 -14 30 -67 27 -62 -68 -58
1146 3 938 6 1115 20 1209 19 132 40 251 63 362 17 77 17 85 2 117 -12 23 -28
38 -53 47 -30 11 -35 18 -33 38 2 19 11 27 36 33 17 5 32 10 32 13 0 2 -9 19
-20 38 l-20 34 21 27 c11 14 26 26 32 26 7 0 27 13 46 29 l34 28 -43 29 c-91
62 -101 81 -63 126 19 22 10 35 -28 43 -25 6 -30 11 -27 33 2 18 10 28 23 30
31 6 64 42 71 78 3 19 -2 69 -15 121 -58 249 -73 389 -78 748 -5 302 -3 361
16 525 12 102 33 239 47 305 14 66 28 136 30 155 7 47 -25 98 -66 107 -25 4
-30 10 -30 34 0 21 5 29 18 29 10 0 26 6 37 13 17 13 17 15 -5 44 -29 40 -19
59 55 104 30 18 55 36 55 39 -1 8 -79 60 -90 60 -5 0 -17 11 -26 26 -16 24
-16 26 5 54 29 40 27 48 -14 56 -30 5 -35 10 -35 34 0 23 5 29 30 33 19 4 37
18 51 39 23 37 22 49 -11 203 -60 281 -63 312 -69 993 l-6 633 -62 -63z"/>
</g>
</svg>
