<?xml version="1.0" standalone="no"?>
<!DOCTYPE svg PUBLIC "-//W3C//DTD SVG 20010904//EN"
 "http://www.w3.org/TR/2001/REC-SVG-20010904/DTD/svg10.dtd">
<svg version="1.0" xmlns="http://www.w3.org/2000/svg"
 width="2551.000000pt" height="2701.000000pt" viewBox="0 0 2551.000000 2701.000000"
 preserveAspectRatio="xMidYMid meet">

<g transform="translate(0.000000,2701.000000) scale(0.100000,-0.100000)"
fill="#65340A" stroke="none">
<path d="M17648 23154 l-58 -46 0 -751 c0 -734 0 -752 -20 -793 -17 -35 -19
-46 -9 -67 9 -20 9 -33 -1 -57 -12 -28 -11 -34 9 -60 33 -46 27 -75 -29 -136
-52 -58 -67 -98 -57 -160 5 -28 0 -45 -21 -77 -40 -61 -38 -137 5 -196 28 -38
31 -50 26 -86 -6 -49 8 -82 61 -138 42 -45 46 -79 16 -130 -17 -29 -19 -39 -9
-60 9 -20 9 -33 -1 -56 -11 -26 -9 -34 9 -60 21 -29 21 -33 21 -759 0 -728 0
-731 -21 -767 -19 -32 -20 -39 -8 -61 10 -20 10 -32 2 -55 -12 -31 0 -79 19
-79 4 0 8 -17 8 -38 0 -29 -7 -45 -30 -67 -16 -16 -42 -46 -56 -67 -25 -35
-26 -43 -20 -102 4 -41 3 -67 -4 -71 -20 -12 -50 -84 -50 -118 0 -23 12 -52
35 -86 30 -44 35 -57 29 -86 -9 -51 1 -79 51 -135 51 -58 57 -89 25 -143 -17
-29 -19 -39 -9 -60 9 -19 9 -34 0 -57 -9 -27 -8 -36 9 -60 20 -28 20 -46 20
-910 0 -545 -4 -888 -10 -899 -5 -10 -23 -24 -40 -31 -34 -14 -37 -22 -15 -40
8 -7 15 -23 15 -36 0 -24 -31 -64 -50 -64 -5 0 -10 -17 -10 -39 0 -48 0 -48
191 -47 l144 1 3 33 c3 26 -3 39 -27 61 -34 32 -39 57 -16 87 20 27 19 30 -15
44 -17 7 -35 21 -40 31 -6 11 -10 354 -10 899 0 742 2 884 14 903 18 28 16
181 -2 199 -7 7 -12 28 -12 48 0 29 8 44 39 74 54 52 66 85 51 130 -11 34 -9
39 30 99 49 73 49 101 0 181 -27 42 -30 54 -21 73 25 55 8 104 -58 168 -34 32
-41 46 -41 76 0 21 9 53 20 72 17 28 18 38 8 64 -9 24 -9 38 0 58 11 23 9 31
-8 55 -20 28 -20 42 -20 763 0 734 0 736 21 772 16 27 19 39 10 48 -13 13 -14
56 -1 77 6 10 3 25 -10 48 -31 51 -25 78 25 134 53 59 61 84 45 133 -11 32 -9
38 18 73 64 81 66 104 16 185 -32 51 -35 62 -25 83 25 56 8 104 -58 169 -34
32 -41 46 -41 76 0 21 9 53 20 72 17 28 18 38 8 64 -9 24 -9 38 0 58 10 21 9
31 -5 58 -17 29 -18 94 -23 829 l-5 798 -57 -46z m-58 -1985 c-16 -28 -32 -24
-18 6 6 13 15 22 19 19 5 -3 4 -14 -1 -25z m144 -5 c19 -40 15 -54 -9 -34 -22
18 -37 49 -30 60 11 18 21 11 39 -26z m-54 -89 l34 -35 -40 -40 -40 -40 -38
39 -38 38 32 37 c18 20 37 36 44 36 7 0 27 -16 46 -35z m110 -165 c0 -25 -6
-55 -14 -65 -13 -17 -15 -17 -44 16 -17 19 -32 38 -32 43 0 4 14 26 32 48 29
38 32 39 45 22 7 -10 13 -39 13 -64z m-231 28 l24 -28 -28 -40 c-34 -49 -45
-40 -45 41 0 54 7 78 19 62 4 -5 17 -20 30 -35z m121 -123 l34 -35 -36 -36
-36 -37 -36 29 c-20 16 -36 33 -36 38 0 13 54 74 66 75 5 1 25 -15 44 -34z
m30 -171 c-18 -21 -24 -10 -8 15 7 12 14 17 16 11 2 -6 -2 -17 -8 -26z m-110
-2267 c0 -8 -9 -22 -20 -32 -23 -21 -25 -16 -8 20 12 27 28 34 28 12z m133
-22 c9 -19 14 -35 10 -35 -14 0 -43 34 -43 52 0 29 15 21 33 -17z m-48 -165
l-41 -40 -39 40 -39 40 39 40 39 40 41 -40 40 -40 -40 -40z m-105 -92 c0 -5
-10 -23 -22 -41 -13 -18 -24 -34 -26 -37 -9 -13 -22 32 -22 77 0 81 7 89 41
47 16 -20 29 -41 29 -46z m213 -27 c-15 -63 -22 -65 -57 -19 l-33 43 36 44 36
44 12 -43 c7 -24 10 -55 6 -69z m-115 -60 c17 -16 32 -35 32 -42 0 -7 -14 -28
-32 -46 l-32 -33 -33 32 c-18 18 -33 36 -33 41 0 10 52 75 60 76 3 0 20 -12
38 -28z m36 -176 c-4 -8 -10 -15 -15 -15 -4 0 -6 7 -3 15 4 8 10 15 15 15 4 0
6 -7 3 -15z"/>
</g>
</svg>
