<?xml version="1.0" standalone="no"?>
<!DOCTYPE svg PUBLIC "-//W3C//DTD SVG 20010904//EN"
 "http://www.w3.org/TR/2001/REC-SVG-20010904/DTD/svg10.dtd">
<svg version="1.0" xmlns="http://www.w3.org/2000/svg"
 width="2551.000000pt" height="2701.000000pt" viewBox="0 0 2551.000000 2701.000000"
 preserveAspectRatio="xMidYMid meet">

<g transform="translate(0.000000,2701.000000) scale(0.100000,-0.100000)"
fill="#65340A" stroke="none">
<path d="M18812 24112 l-53 -47 1 -748 c0 -737 -1 -749 -21 -789 -17 -34 -19
-44 -9 -69 10 -23 10 -36 0 -60 -11 -27 -11 -33 9 -59 32 -44 27 -80 -15 -121
-67 -65 -90 -125 -70 -186 5 -16 -1 -34 -21 -64 -41 -62 -40 -137 4 -201 26
-39 30 -53 26 -87 -6 -45 24 -108 71 -148 32 -28 33 -55 4 -110 -20 -37 -21
-44 -9 -67 11 -21 12 -30 1 -56 -12 -28 -11 -34 8 -60 22 -29 22 -30 22 -755
l0 -726 -22 -39 c-20 -34 -21 -41 -9 -64 11 -21 12 -30 1 -56 -11 -25 -10 -35
0 -56 7 -13 17 -24 22 -24 4 0 8 -16 8 -37 0 -30 -9 -45 -49 -88 -57 -60 -74
-107 -59 -161 8 -31 6 -41 -18 -77 -48 -72 -42 -139 17 -215 14 -18 17 -34 12
-67 -6 -49 12 -87 66 -139 38 -36 41 -83 10 -126 -20 -26 -20 -32 -9 -59 10
-25 10 -37 0 -61 -10 -25 -9 -33 9 -59 l21 -29 0 -1364 c0 -749 -4 -1368 -8
-1374 -4 -6 -21 -19 -39 -29 -30 -17 -31 -19 -16 -42 20 -30 10 -68 -22 -89
-19 -13 -25 -25 -25 -54 0 -45 -2 -45 200 -45 l135 0 3 43 c2 24 -1 42 -7 42
-17 0 -51 43 -51 65 0 11 7 30 15 42 14 19 13 22 -16 33 -16 7 -34 21 -39 31
-6 11 -10 528 -10 1383 0 1320 1 1367 19 1397 15 25 17 36 8 59 -8 21 -8 35 1
54 12 27 -1 76 -20 76 -4 0 -8 17 -8 38 0 30 7 45 31 68 17 16 40 46 50 67 17
32 18 43 8 77 -11 36 -10 41 19 78 61 77 63 112 10 195 -27 42 -29 51 -19 73
24 54 14 88 -44 153 -49 55 -55 66 -55 106 0 25 4 45 8 45 19 0 32 49 20 76
-9 19 -9 33 0 57 10 26 9 36 -8 64 -19 33 -20 54 -20 763 0 709 1 730 20 763
17 28 18 38 8 64 -9 25 -9 38 1 59 11 24 10 31 -8 55 -32 44 -27 83 18 132 57
63 64 80 50 126 -11 38 -10 41 30 97 22 31 41 69 41 83 0 14 -16 52 -36 84
-32 51 -35 62 -25 83 25 55 14 90 -44 154 -50 54 -55 64 -55 105 0 25 4 45 9
45 5 0 14 13 21 29 9 23 9 33 -2 50 -10 16 -10 27 0 53 10 27 9 36 -8 65 -20
33 -20 54 -20 829 0 437 -3 794 -7 794 -5 0 -32 -22 -61 -48z m-52 -1964 c0
-19 -18 -43 -25 -36 -4 3 -2 16 5 27 12 24 20 27 20 9z m145 -28 c10 -22 16
-42 13 -45 -10 -10 -60 54 -55 69 10 26 23 18 42 -24z m-62 -162 l-42 -42 -27
24 c-49 47 -50 58 -8 101 l38 39 41 -40 40 -40 -42 -42z m117 -86 c0 -43 -14
-82 -29 -82 -4 0 -22 18 -41 41 l-32 41 38 39 c35 36 40 38 51 22 7 -9 13 -37
13 -61z m-225 -20 c-3 -10 -14 -28 -24 -41 l-19 -25 -11 39 c-9 35 -8 62 5
104 3 8 14 0 30 -24 13 -20 22 -44 19 -53z m102 -74 c18 -18 33 -36 33 -42 0
-6 -14 -25 -32 -43 l-32 -33 -33 32 c-18 18 -33 36 -33 41 0 10 50 77 58 77 3
0 21 -14 39 -32z m43 -168 c-6 -12 -14 -19 -17 -17 -2 3 1 15 7 27 6 12 14 19
17 17 2 -3 -1 -15 -7 -27z m-128 -2302 c-24 -24 -30 -11 -11 24 8 15 14 17 22
9 8 -8 5 -17 -11 -33z m151 7 c23 -48 21 -53 -8 -25 -14 13 -25 32 -25 42 0
29 15 21 33 -17z m-23 -134 c-4 -9 -22 -29 -39 -45 l-31 -30 -35 34 c-19 19
-35 40 -35 47 0 7 17 28 37 46 l36 34 38 -35 c28 -26 35 -40 29 -51z m82 -100
c2 -41 -3 -73 -13 -94 -10 -17 -13 -16 -44 20 -19 21 -34 42 -35 47 0 5 15 25
33 46 28 32 34 35 45 22 6 -9 13 -27 14 -41z m-238 13 c24 -30 27 -40 17 -53
-6 -9 -16 -26 -23 -38 -19 -39 -35 -23 -40 42 -3 40 2 85 10 85 4 0 20 -16 36
-36z m123 -126 c18 -18 33 -36 33 -42 0 -6 -14 -25 -32 -43 l-32 -33 -33 32
c-18 18 -33 37 -33 44 0 13 48 74 58 74 3 0 21 -14 39 -32z m25 -180 c-7 -7
-12 -8 -12 -2 0 14 12 26 19 19 2 -3 -1 -11 -7 -17z"/>
</g>
</svg>
