<?xml version="1.0" standalone="no"?>
<!DOCTYPE svg PUBLIC "-//W3C//DTD SVG 20010904//EN"
 "http://www.w3.org/TR/2001/REC-SVG-20010904/DTD/svg10.dtd">
<svg version="1.0" xmlns="http://www.w3.org/2000/svg"
 width="2551.000000pt" height="2701.000000pt" viewBox="0 0 2551.000000 2701.000000"
 preserveAspectRatio="xMidYMid meet">

<g transform="translate(0.000000,2701.000000) scale(0.100000,-0.100000)"
fill="#65340A" stroke="none">
<path d="M19978 25070 l-57 -51 0 -755 c-1 -659 -2 -758 -16 -777 -18 -26 -19
-59 -3 -75 9 -9 9 -18 0 -37 -17 -37 -15 -59 8 -80 32 -29 25 -65 -25 -119
-57 -63 -82 -124 -68 -170 9 -30 7 -40 -18 -82 -41 -69 -39 -124 5 -194 27
-43 33 -60 29 -91 -6 -42 24 -104 71 -148 31 -30 33 -63 5 -102 -15 -22 -19
-38 -14 -57 8 -34 8 -50 -1 -85 -4 -19 -1 -33 10 -46 15 -16 16 -85 17 -754 0
-669 -2 -739 -17 -769 -14 -27 -15 -37 -4 -66 9 -25 9 -37 1 -45 -17 -17 -13
-56 9 -74 35 -31 26 -72 -30 -132 -60 -65 -79 -117 -61 -166 11 -30 9 -37 -19
-81 -43 -68 -42 -122 5 -191 28 -41 33 -58 29 -82 -9 -45 1 -71 51 -129 51
-60 56 -89 23 -134 -18 -26 -20 -35 -10 -62 9 -24 9 -40 0 -64 -11 -28 -10
-35 9 -61 l22 -29 0 -872 c0 -479 -4 -882 -8 -894 -5 -12 -25 -30 -45 -41 -30
-17 -33 -21 -22 -35 30 -33 29 -59 -2 -88 -17 -16 -32 -39 -34 -53 l-3 -24
173 -3 172 -2 0 33 c0 25 -7 38 -30 55 -33 25 -38 48 -15 78 20 27 19 30 -15
44 -17 7 -35 21 -40 31 -6 11 -10 354 -10 898 0 855 1 882 20 917 17 33 17 40
5 64 -9 17 -10 31 -4 41 14 22 11 65 -6 79 -8 7 -15 28 -15 48 0 28 9 45 46
84 46 50 47 50 40 105 -6 52 -4 57 29 104 50 67 49 113 -3 192 -21 32 -23 41
-13 63 24 54 15 89 -44 155 -46 52 -55 68 -55 100 0 21 9 53 20 72 17 29 19
39 9 60 -9 19 -9 34 0 57 9 27 8 36 -9 60 -20 27 -20 46 -20 760 0 712 1 734
20 765 17 27 18 36 8 63 -9 23 -9 37 0 56 12 27 -1 76 -20 76 -4 0 -8 16 -8
36 0 30 9 46 45 85 47 50 55 81 36 132 -8 20 -3 32 30 73 57 72 60 102 14 171
-29 43 -35 61 -30 82 22 85 20 93 -39 159 -48 53 -56 69 -56 102 0 21 9 54 20
73 17 28 18 38 8 65 -10 25 -9 36 2 57 12 23 11 28 -8 55 l-22 29 0 796 c0
437 -3 795 -7 795 -5 0 -34 -23 -65 -50z m96 -1984 c29 -61 17 -75 -22 -26
-16 20 -21 37 -17 50 8 26 18 19 39 -24z m-158 -4 c-22 -23 -29 -10 -9 18 11
16 18 19 21 11 2 -7 -3 -20 -12 -29z m97 -89 l39 -36 -41 -41 -41 -40 -35 34
c-19 19 -35 38 -35 44 0 11 60 76 69 76 4 0 23 -17 44 -37z m117 -156 c0 -32
-11 -69 -27 -86 -5 -7 -73 61 -73 73 0 6 17 27 37 48 35 35 39 37 50 21 7 -9
13 -34 13 -56z m-220 -9 c0 -14 -42 -78 -50 -73 -13 8 -21 73 -14 111 l6 35
29 -33 c15 -18 28 -36 29 -40z m95 -90 c19 -17 35 -36 35 -42 0 -5 -14 -25
-32 -43 l-32 -33 -33 32 c-18 18 -33 36 -33 41 0 9 50 77 56 77 3 0 20 -14 39
-32z m45 -169 c-7 -11 -14 -18 -17 -15 -8 8 5 36 17 36 7 0 7 -6 0 -21z m20
-2289 c23 -44 24 -50 11 -50 -17 0 -51 58 -45 74 9 23 11 21 34 -24z m-150 -9
c-10 -20 -30 -29 -30 -13 0 4 8 18 17 32 19 27 30 12 13 -19z m95 -161 l-41
-40 -39 40 -39 40 39 40 39 40 41 -40 40 -40 -40 -40z m115 -66 c9 -38 -9
-104 -27 -104 -9 0 -63 65 -63 75 0 15 66 83 73 76 5 -5 12 -26 17 -47z m-236
10 l28 -34 -28 -42 -29 -41 -12 29 c-13 32 -16 67 -7 102 8 29 13 27 48 -14z
m121 -126 c19 -17 35 -36 35 -42 0 -7 -16 -26 -35 -44 l-35 -33 -35 35 c-19
19 -35 38 -35 40 0 7 61 76 66 76 3 0 20 -14 39 -32z m35 -168 c0 -5 -5 -10
-11 -10 -5 0 -7 5 -4 10 3 6 8 10 11 10 2 0 4 -4 4 -10z"/>
</g>
</svg>
