<?xml version="1.0" standalone="no"?>
<!DOCTYPE svg PUBLIC "-//W3C//DTD SVG 20010904//EN"
 "http://www.w3.org/TR/2001/REC-SVG-20010904/DTD/svg10.dtd">
<svg version="1.0" xmlns="http://www.w3.org/2000/svg"
 width="2551.000000pt" height="2701.000000pt" viewBox="0 0 2551.000000 2701.000000"
 preserveAspectRatio="xMidYMid meet">

<g transform="translate(0.000000,2701.000000) scale(0.100000,-0.100000)"
fill="#65340A" stroke="none">
<path d="M23420 26675 c0 -252 -2 -279 -19 -313 -16 -32 -17 -41 -6 -61 10
-20 10 -30 -1 -57 -12 -29 -12 -34 9 -60 34 -44 29 -72 -21 -129 -59 -65 -75
-106 -69 -169 3 -39 -1 -59 -19 -94 -36 -68 -33 -127 12 -193 25 -38 34 -59
29 -76 -7 -29 22 -98 59 -138 39 -42 42 -67 13 -116 -24 -39 -24 -45 -12 -70
13 -24 13 -31 0 -55 -14 -27 -8 -55 15 -69 7 -4 10 -266 10 -745 0 -728 0
-739 -21 -774 -19 -33 -19 -36 -4 -60 15 -22 15 -28 2 -53 -16 -30 -10 -51 20
-81 24 -25 15 -66 -23 -103 -20 -18 -47 -53 -61 -77 -22 -37 -25 -51 -20 -99
5 -49 2 -62 -20 -100 -35 -61 -30 -130 15 -192 25 -34 31 -52 27 -72 -8 -34
13 -85 55 -133 39 -44 45 -80 19 -117 -20 -29 -24 -65 -10 -88 5 -7 4 -25 -3
-43 -9 -24 -8 -35 7 -59 16 -29 17 -117 17 -1397 0 -752 -4 -1372 -8 -1378 -4
-6 -22 -19 -40 -28 -29 -15 -31 -18 -17 -32 24 -25 18 -63 -16 -95 -55 -51
-41 -56 155 -58 l176 -2 0 26 c0 17 -11 35 -30 52 -33 27 -38 57 -15 90 14 19
13 21 -9 27 -60 15 -56 -92 -56 1415 0 1246 2 1380 16 1392 11 9 14 22 9 43
-8 40 -8 55 1 89 5 21 1 36 -15 58 -27 37 -20 72 25 119 43 46 53 74 40 120
-8 31 -6 42 8 62 9 12 28 38 41 57 34 46 31 77 -10 145 -33 55 -34 59 -20 86
28 54 20 84 -40 151 -49 55 -55 66 -55 105 0 25 8 57 19 75 17 28 18 35 6 58
-11 22 -11 32 0 58 12 27 11 35 -6 62 -18 30 -19 61 -19 762 0 698 1 731 19
767 16 32 17 41 6 62 -11 21 -11 29 2 54 14 26 13 31 -7 58 -33 45 -29 83 13
126 49 50 60 83 43 123 -13 31 -12 34 30 92 26 34 44 70 44 85 0 15 -16 53
-36 84 -34 57 -35 59 -20 90 28 54 21 79 -39 145 -50 55 -55 65 -55 107 0 27
8 58 19 77 18 30 19 35 5 61 -14 27 -14 32 1 54 15 24 15 27 -4 60 -20 33 -21
50 -21 300 l0 264 -70 0 -70 0 0 -275z m175 -747 c9 -37 -7 -36 -39 3 -29 34
-32 49 -14 67 9 9 16 6 29 -16 10 -15 21 -39 24 -54z m-175 36 c-18 -21 -24
-10 -9 18 8 14 14 18 17 10 2 -7 -2 -19 -8 -28z m87 -86 c18 -18 33 -37 33
-43 0 -6 -17 -28 -38 -48 l-38 -37 -39 40 -39 40 39 40 c21 22 41 40 44 40 3
0 20 -14 38 -32z m120 -129 c19 -36 -4 -119 -32 -119 -6 0 -26 16 -45 35 l-34
35 39 40 c43 44 54 45 72 9z m-227 -39 c10 -18 -28 -87 -41 -73 -8 8 -12 55
-10 108 l1 30 21 -25 c11 -14 24 -32 29 -40z m98 -96 c18 -15 32 -32 32 -38 0
-7 -13 -27 -29 -46 l-29 -35 -31 29 c-17 17 -31 34 -31 40 0 12 43 76 51 76 3
0 20 -12 37 -26z m52 -154 c-6 -11 -13 -20 -16 -20 -2 0 0 9 6 20 6 11 13 20
16 20 2 0 0 -9 -6 -20z m31 -2306 c12 -25 18 -48 15 -52 -8 -7 -66 48 -66 63
0 10 19 35 28 35 2 0 12 -21 23 -46z m-151 23 c0 -8 -9 -22 -20 -32 -20 -18
-20 -18 -9 13 11 32 29 43 29 19z m87 -112 l37 -36 -42 -42 -42 -41 -35 34
c-19 19 -35 38 -35 44 0 12 61 76 72 76 5 0 25 -16 45 -35z m114 -135 c11 -34
10 -46 -4 -75 -9 -19 -20 -35 -25 -35 -4 0 -23 16 -42 35 l-33 34 34 40 c19
21 39 40 46 40 7 1 18 -17 24 -39z m-243 -3 c27 -41 27 -42 1 -79 -17 -23 -24
-27 -30 -17 -13 25 -15 129 -1 129 4 0 17 -15 30 -33z m121 -123 c17 -14 31
-31 31 -37 0 -7 -14 -27 -31 -46 l-31 -34 -35 36 -36 35 28 36 c15 20 31 36
35 36 5 0 22 -12 39 -26z"/>
</g>
</svg>
