<?xml version="1.0" standalone="no"?>
<!DOCTYPE svg PUBLIC "-//W3C//DTD SVG 20010904//EN"
 "http://www.w3.org/TR/2001/REC-SVG-20010904/DTD/svg10.dtd">
<svg version="1.0" xmlns="http://www.w3.org/2000/svg"
 width="2551.000000pt" height="2701.000000pt" viewBox="0 0 2551.000000 2701.000000"
 preserveAspectRatio="xMidYMid meet">

<g transform="translate(0.000000,2701.000000) scale(0.100000,-0.100000)"
fill="#65340A" stroke="none">
<path d="M7125 14493 c-16 -14 -42 -36 -57 -49 l-28 -24 0 -754 c0 -698 -1
-757 -17 -785 -15 -25 -16 -35 -6 -60 8 -24 8 -38 0 -62 -10 -25 -9 -35 6 -60
27 -48 22 -94 -11 -118 -16 -11 -39 -40 -53 -65 -21 -41 -22 -48 -10 -81 12
-34 11 -38 -29 -98 -49 -73 -49 -95 1 -175 30 -50 32 -55 20 -88 -18 -51 -6
-85 49 -139 46 -45 50 -53 50 -95 0 -25 -7 -54 -15 -64 -18 -24 -19 -58 -3
-74 9 -9 9 -18 0 -37 -16 -35 -15 -60 3 -75 13 -11 15 -107 15 -751 0 -675 -1
-741 -17 -774 -14 -30 -15 -41 -5 -67 7 -20 8 -37 2 -49 -14 -26 -12 -55 5
-73 29 -29 18 -74 -30 -128 -53 -59 -63 -88 -46 -135 12 -31 10 -37 -28 -94
-23 -34 -41 -71 -41 -82 0 -12 16 -48 36 -80 35 -56 36 -60 24 -102 -14 -49
-8 -76 23 -108 93 -95 102 -119 66 -188 -17 -35 -19 -46 -9 -69 9 -21 9 -34 1
-48 -15 -29 -14 -57 4 -72 13 -11 15 -175 13 -1394 l-3 -1381 -27 -13 c-42
-20 -53 -47 -28 -72 26 -26 25 -34 -7 -58 -22 -16 -27 -29 -31 -76 l-4 -56
155 0 c175 0 167 -4 167 86 0 34 -5 45 -25 58 -29 19 -31 33 -10 72 14 27 13
28 -23 49 l-37 21 -3 1372 c-1 1056 1 1378 10 1395 18 33 20 177 2 204 -26 41
-17 72 36 129 53 59 67 98 56 164 -4 24 -2 41 5 46 20 12 49 88 49 130 0 28
-9 55 -31 89 -22 35 -30 57 -26 79 7 49 -12 95 -59 146 -48 51 -55 83 -28 125
12 18 15 37 10 68 -4 24 -2 55 3 69 7 19 5 32 -10 57 -18 30 -19 59 -19 759 0
700 1 729 19 766 16 31 18 42 8 63 -8 18 -8 32 1 56 11 28 10 35 -8 59 -33 45
-26 87 21 133 58 56 72 88 66 150 -5 46 -2 58 24 96 41 63 40 118 -5 189 -26
42 -32 59 -26 76 14 36 -7 90 -56 145 -50 56 -56 89 -25 140 15 25 17 36 8 60
-8 21 -8 37 0 58 9 24 7 35 -8 60 -18 30 -19 69 -21 830 l-3 799 -30 -25z
m-79 -1991 c-14 -14 -16 -14 -16 -1 0 20 23 44 29 28 2 -6 -4 -18 -13 -27z
m101 -74 c18 -18 33 -36 33 -42 0 -6 -14 -25 -32 -43 l-32 -33 -38 37 -37 36
32 38 c18 20 34 38 37 38 2 1 19 -13 37 -31z m-121 -136 l32 -37 -39 -44 -39
-43 -10 27 c-19 49 -7 137 18 134 4 0 21 -17 38 -37z m219 -42 c0 -86 -9 -88
-61 -13 -15 21 -14 24 12 57 36 45 49 34 49 -44z m-65 -129 c0 -17 -52 -71
-67 -71 -5 0 -24 16 -43 35 l-34 35 39 40 39 40 33 -32 c18 -18 33 -39 33 -47z
m-139 -112 c15 -21 18 -34 11 -41 -7 -7 -15 -1 -26 20 -29 56 -19 69 15 21z
m137 -24 c-6 -13 -15 -22 -19 -19 -11 6 8 44 21 44 6 0 5 -10 -2 -25z m-118
-2277 c-1 -18 -29 -53 -36 -45 -4 3 1 18 10 32 18 28 26 32 26 13z m92 -95
c15 -15 28 -33 28 -40 0 -19 -41 -73 -55 -73 -6 0 -26 16 -44 34 l-34 35 29
35 c16 19 33 35 38 35 6 1 23 -11 38 -26z m-92 -180 c0 -5 -16 -25 -36 -44
-34 -33 -36 -33 -50 -15 -19 26 -18 96 1 123 l16 22 34 -38 c19 -21 35 -43 35
-48z m183 35 c3 -18 3 -51 -1 -72 l-7 -39 -28 42 -28 42 21 35 c25 39 35 37
43 -8z m-83 -120 c16 -18 30 -38 30 -44 0 -5 -16 -25 -35 -44 l-35 -34 -35 34
c-19 19 -35 38 -35 44 0 12 61 76 72 76 5 0 22 -15 38 -32z m-100 -185 c0 -13
-4 -23 -10 -23 -12 0 -40 53 -40 76 0 15 4 14 25 -6 14 -13 25 -34 25 -47z
m120 10 c0 -5 -5 -15 -10 -23 -8 -12 -10 -11 -10 8 0 12 5 22 10 22 6 0 10 -3
10 -7z"/>
</g>
</svg>
