<?xml version="1.0" standalone="no"?>
<!DOCTYPE svg PUBLIC "-//W3C//DTD SVG 20010904//EN"
 "http://www.w3.org/TR/2001/REC-SVG-20010904/DTD/svg10.dtd">
<svg version="1.0" xmlns="http://www.w3.org/2000/svg"
 width="2551.000000pt" height="2701.000000pt" viewBox="0 0 2551.000000 2701.000000"
 preserveAspectRatio="xMidYMid meet">

<g transform="translate(0.000000,2701.000000) scale(0.100000,-0.100000)"
fill="#65340A" stroke="none">
<path d="M8272 15438 l-52 -42 0 -355 c0 -196 0 -535 0 -753 0 -375 -1 -399
-19 -433 -16 -29 -17 -42 -9 -66 7 -20 7 -39 -1 -61 -10 -28 -9 -36 9 -60 32
-43 26 -78 -20 -123 -58 -56 -75 -98 -61 -146 11 -37 10 -42 -24 -91 -47 -70
-47 -109 0 -183 29 -44 34 -59 25 -74 -5 -11 -10 -36 -10 -55 0 -30 10 -47 55
-96 62 -68 69 -96 34 -155 -19 -32 -20 -39 -8 -61 10 -20 10 -32 1 -56 -9 -25
-8 -36 8 -68 18 -36 19 -68 20 -759 0 -712 0 -722 -21 -762 -17 -35 -19 -45
-9 -70 9 -20 9 -37 2 -56 -10 -29 -2 -66 17 -78 26 -15 11 -66 -33 -113 -58
-62 -70 -92 -55 -142 11 -35 9 -41 -25 -91 -47 -71 -48 -107 0 -177 35 -53 36
-54 20 -93 -20 -49 -12 -69 53 -141 57 -63 64 -97 32 -158 -15 -26 -16 -39 -8
-57 7 -16 7 -34 0 -57 -9 -29 -7 -40 8 -66 18 -29 19 -66 19 -915 l0 -885 -40
-25 c-42 -27 -49 -45 -25 -65 22 -18 18 -43 -10 -68 -21 -18 -25 -31 -25 -74
l0 -53 142 2 c78 1 148 5 155 7 8 4 13 25 13 60 0 46 -3 56 -25 70 -25 17 -33
50 -15 61 5 3 15 15 20 26 9 16 7 21 -17 30 -15 6 -36 18 -45 26 -17 15 -18
70 -18 895 0 785 2 882 16 910 11 22 14 43 9 74 -3 25 -2 52 4 63 12 21 -3 71
-21 71 -4 0 -8 15 -8 33 0 25 9 42 36 68 63 61 77 93 71 160 -3 32 -1 62 4 65
22 13 49 86 49 132 0 36 -7 60 -30 96 -22 33 -28 54 -24 72 12 45 -5 90 -56
148 -28 32 -50 64 -50 73 0 9 9 36 20 59 17 34 19 46 9 67 -8 19 -9 34 0 57 9
26 7 38 -6 63 -16 29 -17 99 -19 757 -1 701 -1 726 18 764 17 32 18 43 8 67
-10 23 -10 36 0 60 11 27 11 33 -9 59 -34 46 -28 79 24 130 58 57 81 115 66
163 -11 33 -9 39 21 82 45 63 45 113 0 184 -26 43 -31 60 -26 87 9 51 -2 79
-56 139 -56 62 -61 85 -29 140 19 32 20 39 8 61 -10 20 -10 31 0 59 11 31 10
38 -7 63 -18 26 -19 54 -19 820 0 436 -2 795 -5 797 -3 3 -28 -14 -56 -37z
m-56 -1976 c-14 -14 -16 -14 -16 -1 0 20 23 44 29 28 2 -6 -4 -18 -13 -27z
m102 -71 c39 -33 38 -52 -7 -95 l-28 -27 -37 42 -38 41 33 34 c18 19 35 34 38
34 4 -1 21 -14 39 -29z m-119 -132 l33 -39 -33 -39 c-19 -22 -38 -38 -44 -37
-18 5 -28 76 -16 117 7 21 15 39 19 38 4 0 22 -18 41 -40z m215 9 c8 -30 6
-88 -3 -111 -6 -16 -11 -13 -39 22 l-33 41 28 35 c33 41 39 43 47 13z m-84
-144 l32 -37 -38 -38 -38 -39 -38 37 c-20 20 -35 41 -31 47 11 21 58 65 69 65
7 1 26 -15 44 -35z m-112 -156 c9 -15 13 -30 9 -34 -8 -9 -33 22 -41 49 -6 26
13 16 32 -15z m132 -19 c-7 -11 -14 -18 -17 -15 -8 8 5 36 17 36 7 0 7 -6 0
-21z m-119 -2288 c-11 -20 -41 -47 -41 -37 0 18 32 66 40 61 7 -4 7 -13 1 -24z
m128 -124 c1 -4 -14 -24 -32 -44 l-33 -36 -37 37 -37 37 32 39 33 38 36 -31
c21 -18 38 -35 38 -40z m-162 -89 c18 -18 33 -37 33 -42 -1 -6 -16 -28 -34
-49 -28 -32 -35 -35 -46 -23 -19 24 -25 94 -10 122 7 13 16 24 19 24 3 0 20
-14 38 -32z m219 -13 c7 -41 -3 -105 -16 -105 -6 0 -10 5 -10 12 0 6 -9 22
-21 34 l-21 22 24 36 c13 20 26 36 30 36 4 0 10 -16 14 -35z m-60 -158 c4 -13
-4 -29 -27 -53 -18 -19 -35 -34 -38 -34 -4 0 -21 19 -40 41 l-33 41 38 39 38
39 28 -27 c15 -14 31 -35 34 -46z m-137 -117 c20 -28 21 -50 2 -50 -8 0 -41
60 -41 74 0 15 18 3 39 -24z m122 -43 c-8 -8 -11 -7 -11 4 0 9 3 19 7 23 4 4
9 2 11 -4 3 -7 -1 -17 -7 -23z"/>
</g>
</svg>
