<?xml version="1.0" standalone="no"?>
<!DOCTYPE svg PUBLIC "-//W3C//DTD SVG 20010904//EN"
 "http://www.w3.org/TR/2001/REC-SVG-20010904/DTD/svg10.dtd">
<svg version="1.0" xmlns="http://www.w3.org/2000/svg"
 width="2551.000000pt" height="2701.000000pt" viewBox="0 0 2551.000000 2701.000000"
 preserveAspectRatio="xMidYMid meet">

<g transform="translate(0.000000,2701.000000) scale(0.100000,-0.100000)"
fill="#65340A" stroke="none">
<path d="M10613 17364 l-52 -45 0 -754 c0 -650 -2 -759 -15 -784 -12 -23 -13
-35 -4 -59 9 -23 9 -37 0 -57 -11 -23 -10 -32 8 -62 30 -52 26 -78 -24 -131
-65 -71 -81 -115 -57 -161 8 -14 2 -30 -25 -70 -52 -76 -53 -104 -9 -176 35
-56 37 -63 27 -100 -13 -51 3 -92 63 -156 51 -54 56 -80 25 -132 -17 -28 -18
-38 -8 -64 9 -24 9 -38 0 -58 -10 -21 -9 -32 3 -55 23 -44 23 -1492 0 -1537
-12 -25 -13 -36 -4 -56 9 -19 9 -34 0 -58 -9 -27 -8 -37 9 -66 28 -48 25 -68
-18 -116 -73 -80 -87 -120 -61 -168 9 -17 4 -31 -31 -82 -49 -74 -49 -98 2
-179 32 -50 33 -55 21 -91 -16 -48 -7 -71 57 -141 56 -63 61 -85 30 -144 -17
-33 -19 -44 -9 -65 9 -19 9 -34 0 -58 -9 -26 -8 -37 8 -63 18 -30 18 -70 17
-916 l-1 -885 -37 -24 c-41 -26 -47 -41 -23 -61 22 -19 18 -48 -10 -66 -22
-14 -25 -24 -25 -70 l0 -54 38 -1 c20 -1 88 -2 149 -3 l113 -1 0 62 c0 52 -3
63 -19 68 -30 9 -34 36 -11 67 11 15 20 30 20 32 0 3 -15 13 -32 22 -18 9 -36
22 -40 28 -4 6 -8 408 -8 894 0 797 2 886 16 914 14 27 15 37 4 66 -9 25 -9
37 -1 45 15 15 14 50 -4 73 -28 38 -19 80 30 131 54 56 73 107 57 152 -10 28
-8 36 21 77 27 38 32 55 32 102 0 46 -5 65 -28 97 -23 34 -26 46 -21 86 7 54
-5 83 -65 151 -45 51 -51 80 -24 127 15 25 16 35 6 60 -8 24 -8 38 0 62 10 25
9 35 -6 60 -16 28 -17 86 -17 766 0 677 1 737 17 764 14 24 15 34 6 59 -8 22
-8 38 0 61 10 25 9 35 -6 60 -27 48 -22 77 23 125 61 66 76 105 63 157 -10 36
-9 45 7 62 59 66 64 128 15 209 -27 45 -32 62 -25 76 6 10 10 29 10 42 0 28
-45 102 -84 137 -31 29 -35 78 -9 117 14 21 14 31 5 58 -9 24 -9 39 0 63 10
26 9 35 -5 57 -16 23 -17 93 -17 826 0 440 -3 800 -7 800 -5 0 -31 -21 -60
-46z m-43 -1964 c-10 -19 -30 -36 -30 -26 0 16 24 55 31 50 5 -3 5 -14 -1 -24z
m130 -13 c0 -5 -7 -4 -15 3 -8 7 -15 20 -15 29 1 13 3 13 15 -3 8 -11 15 -24
15 -29z m-10 -114 c0 -7 -13 -27 -29 -45 l-30 -33 -35 34 c-20 19 -36 39 -36
45 0 6 14 25 32 43 l32 33 33 -32 c18 -18 33 -38 33 -45z m-151 -93 l33 -41
-36 -40 -36 -39 -10 25 c-16 42 -9 135 9 135 4 0 22 -18 40 -40z m221 0 c11
-41 2 -101 -15 -106 -6 -2 -22 13 -37 33 l-28 36 31 38 c17 22 32 39 34 39 3
0 9 -18 15 -40z m-90 -205 c-19 -19 -37 -35 -41 -35 -14 0 -69 55 -69 69 0 8
14 30 32 48 l32 33 40 -40 40 -40 -34 -35z m-90 -107 c0 -15 -20 -8 -30 11
-17 33 -11 47 10 21 11 -14 20 -28 20 -32z m109 0 c-8 -14 -14 -18 -17 -10 -4
13 17 46 25 38 3 -2 -1 -15 -8 -28z m-109 -2267 c0 -5 -9 -19 -20 -32 -21 -26
-27 -11 -10 22 11 19 30 26 30 10z m88 -101 c17 -16 32 -33 32 -36 0 -14 -52
-74 -64 -74 -6 0 -27 16 -46 35 l-34 35 34 35 c19 19 36 35 39 35 4 0 21 -14
39 -30z m-98 -170 c0 -9 -16 -31 -35 -50 l-34 -33 -11 27 c-13 36 -13 92 1
118 11 20 12 19 45 -13 19 -18 34 -40 34 -49z m194 -6 c-2 -75 -14 -84 -47
-33 l-27 40 27 34 c35 44 48 32 47 -41z m-91 -88 c15 -19 27 -39 27 -44 0 -10
-69 -78 -72 -71 -2 2 -18 21 -37 41 l-33 36 33 36 c19 20 39 36 44 36 6 0 22
-16 38 -34z m-109 -148 c18 -25 21 -48 6 -48 -8 0 -40 51 -40 65 0 13 20 3 34
-17z m126 -33 c-7 -9 -15 -13 -18 -10 -3 2 1 11 8 20 7 9 15 13 18 10 3 -2 -1
-11 -8 -20z"/>
</g>
</svg>
