<?xml version="1.0" standalone="no"?>
<!DOCTYPE svg PUBLIC "-//W3C//DTD SVG 20010904//EN"
 "http://www.w3.org/TR/2001/REC-SVG-20010904/DTD/svg10.dtd">
<svg version="1.0" xmlns="http://www.w3.org/2000/svg"
 width="2551.000000pt" height="2701.000000pt" viewBox="0 0 2551.000000 2701.000000"
 preserveAspectRatio="xMidYMid meet">

<g transform="translate(0.000000,2701.000000) scale(0.100000,-0.100000)"
fill="#65340A" stroke="none">
<path d="M14138 20265 l-58 -47 0 -754 c0 -675 -2 -757 -16 -787 -12 -26 -14
-42 -7 -63 6 -17 6 -41 -1 -65 -8 -31 -7 -41 7 -57 32 -35 22 -79 -33 -138
-53 -59 -69 -104 -52 -152 8 -25 5 -36 -24 -82 -44 -71 -44 -108 0 -182 28
-45 33 -63 28 -85 -13 -50 -2 -81 49 -137 55 -60 62 -92 32 -145 -15 -25 -16
-35 -6 -60 8 -23 8 -39 0 -61 -9 -25 -8 -35 6 -59 16 -27 17 -87 17 -759 0
-676 -1 -733 -17 -761 -15 -25 -16 -35 -6 -60 8 -24 8 -38 0 -62 -10 -25 -9
-35 6 -60 30 -53 23 -85 -33 -145 -54 -60 -69 -104 -51 -155 9 -28 7 -36 -20
-76 -48 -70 -49 -111 -5 -183 34 -54 36 -63 27 -96 -13 -46 -2 -73 52 -132 53
-56 64 -97 37 -132 -22 -28 -25 -52 -10 -79 6 -12 5 -29 -3 -50 -9 -26 -9 -36
6 -60 16 -27 17 -122 17 -1400 l0 -1370 -22 -20 c-12 -12 -30 -23 -40 -27 -17
-5 -17 -7 3 -33 16 -22 18 -32 10 -53 -5 -15 -19 -29 -31 -33 -18 -6 -21 -13
-18 -53 l3 -47 125 -5 c161 -6 184 -3 187 30 3 42 -6 68 -27 75 -28 9 -34 40
-13 76 18 30 17 31 -2 41 -10 6 -28 21 -40 32 -20 21 -20 26 -19 1386 0 1254
2 1368 17 1397 13 25 14 37 6 62 -8 24 -8 39 1 62 11 27 10 34 -9 59 -33 45
-27 73 28 134 53 59 69 103 53 147 -9 22 -5 33 26 77 47 69 48 120 3 190 -28
43 -30 53 -21 78 19 48 3 91 -56 155 -60 65 -64 85 -32 137 18 30 20 39 10 66
-9 24 -9 39 0 63 10 26 9 35 -5 57 -16 23 -17 89 -17 766 0 675 1 743 17 766
14 21 14 31 5 58 -9 24 -9 39 0 64 11 28 10 35 -11 63 -30 40 -23 68 35 132
51 57 61 86 47 138 -8 31 -7 41 9 60 10 13 28 42 39 63 26 48 21 81 -22 148
-28 44 -30 50 -19 83 17 51 7 78 -55 145 -60 65 -65 86 -31 149 15 28 16 38 6
62 -10 23 -10 35 0 58 9 23 9 34 -2 53 -10 18 -14 183 -18 832 l-5 808 -57
-47z m-64 -1986 c-24 -27 -30 -15 -9 18 12 17 20 23 23 15 2 -7 -4 -22 -14
-33z m141 11 c17 -33 18 -40 8 -40 -14 1 -44 50 -38 60 9 15 13 13 30 -20z
m-35 -95 l34 -35 -39 -40 -39 -40 -40 40 -40 40 34 35 c19 19 39 35 44 35 6 0
27 -16 46 -35z m100 -159 c0 -47 -9 -86 -19 -86 -4 0 -22 18 -40 40 l-33 41
34 38 c29 33 35 36 46 23 6 -9 12 -34 12 -56z m-226 -39 c-13 -16 -24 -33 -24
-38 0 -5 -4 -9 -10 -9 -13 0 -30 69 -24 99 12 57 14 58 49 16 l33 -39 -24 -29z
m113 -59 c18 -18 33 -36 33 -42 0 -6 -14 -25 -32 -43 l-32 -33 -33 32 c-18 18
-33 37 -33 44 0 13 48 74 58 74 3 0 21 -14 39 -32z m34 -181 c-16 -16 -26 0
-10 19 9 11 15 12 17 4 2 -6 -1 -17 -7 -23z m-111 2 c0 -6 -4 -7 -10 -4 -5 3
-10 11 -10 16 0 6 5 7 10 4 6 -3 10 -11 10 -16z m0 -2272 c0 -8 -9 -22 -20
-32 -23 -21 -25 -16 -8 20 12 27 28 34 28 12z m130 -24 c0 -13 -3 -13 -15 -3
-8 7 -15 19 -15 27 0 13 3 13 15 3 8 -7 15 -19 15 -27z m-43 -75 c18 -18 33
-37 33 -43 0 -6 -16 -26 -35 -45 l-35 -34 -35 34 c-19 19 -35 38 -35 44 0 10
60 76 69 76 3 0 20 -14 38 -32z m-127 -130 c16 -18 29 -37 29 -43 0 -5 -13
-26 -30 -45 -24 -29 -31 -32 -39 -20 -20 31 -16 140 5 140 3 0 19 -15 35 -32z
m224 10 c9 -35 7 -101 -4 -118 -8 -12 -15 -9 -39 20 -33 38 -33 47 2 90 27 35
33 36 41 8z m-97 -140 c18 -18 33 -37 33 -43 0 -6 -16 -27 -36 -46 l-36 -34
-33 39 -33 40 31 38 c18 21 34 38 37 38 2 0 19 -14 37 -32z m-89 -169 c7 -12
11 -24 8 -27 -6 -6 -35 27 -36 41 0 14 15 7 28 -14z m116 -13 c-3 -9 -10 -13
-16 -10 -5 3 -4 12 3 20 15 18 22 13 13 -10z"/>
</g>
</svg>
