<?xml version="1.0" standalone="no"?>
<!DOCTYPE svg PUBLIC "-//W3C//DTD SVG 20010904//EN"
 "http://www.w3.org/TR/2001/REC-SVG-20010904/DTD/svg10.dtd">
<svg version="1.0" xmlns="http://www.w3.org/2000/svg"
 width="3542.000000pt" height="3750.000000pt" viewBox="0 0 3542.000000 3750.000000"
 preserveAspectRatio="xMidYMid meet">

<g transform="translate(0.000000,3750.000000) scale(0.100000,-0.100000)"
fill="#3a4548" stroke="none">
<path d="M12300 17315 l0 -1306 -25 -27 c-28 -31 -32 -54 -10 -72 20 -16 19
-41 -2 -78 -16 -28 -16 -30 6 -60 12 -18 27 -32 32 -32 14 0 10 -82 -6 -110
-8 -14 -14 -37 -15 -52 0 -17 -20 -51 -55 -95 -81 -100 -87 -144 -35 -228 l22
-35 -31 -54 c-48 -83 -44 -118 27 -211 47 -62 57 -82 54 -106 -3 -19 5 -44 22
-73 35 -59 34 -96 -4 -138 -33 -36 -38 -59 -15 -78 8 -7 15 -23 15 -35 0 -12
-7 -28 -15 -35 -22 -18 -19 -41 10 -72 l24 -26 2 -906 c1 -819 -1 -907 -15
-921 -35 -35 -38 -54 -17 -88 l20 -31 -21 -37 -20 -37 23 -31 c12 -17 26 -31
31 -31 13 0 8 -83 -7 -110 -8 -14 -14 -39 -15 -57 0 -23 -13 -48 -48 -90 -83
-100 -89 -128 -46 -217 l27 -53 -32 -55 c-47 -84 -43 -111 29 -202 51 -65 59
-79 54 -105 -5 -22 1 -42 20 -75 35 -60 34 -103 -4 -140 -35 -35 -37 -49 -10
-83 l20 -26 -21 -33 c-21 -35 -18 -54 17 -88 14 -14 15 -133 15 -1166 1 -632
-3 -1154 -6 -1161 -4 -6 -32 -22 -61 -35 l-54 -24 25 -24 c41 -41 26 -91 -35
-116 -28 -11 -30 -16 -30 -61 0 -54 -5 -50 105 -69 39 -7 83 -16 100 -19 17
-4 87 3 165 16 74 12 138 23 143 23 4 0 7 22 7 49 0 45 -2 50 -30 61 -61 25
-76 75 -35 116 l25 24 -54 24 c-29 13 -56 29 -60 34 -4 6 -7 529 -6 1162 0
1138 0 1151 20 1172 29 31 34 57 16 77 -20 22 -21 55 -1 71 8 7 15 20 15 29
-1 19 -34 61 -49 61 -21 0 -12 87 14 136 14 26 25 56 25 66 0 11 19 45 43 76
23 31 48 70 55 85 18 43 14 112 -9 163 -21 44 -21 46 -4 85 35 78 16 166 -53
241 -43 46 -82 139 -82 195 0 21 10 42 30 65 36 39 36 41 10 83 l-20 32 22 28
c21 27 21 28 3 61 -10 19 -22 34 -27 34 -4 0 -8 410 -8 910 l0 911 25 27 c28
31 32 54 10 72 -8 7 -15 23 -15 35 0 12 7 28 15 35 23 19 18 42 -15 78 -37 41
-38 76 -5 142 14 27 25 61 25 76 0 16 15 43 39 70 76 87 91 162 47 247 l-23
47 21 43 c40 80 23 150 -60 247 -24 28 -44 61 -44 73 -1 12 -7 33 -15 47 -16
28 -20 110 -6 110 5 0 20 14 32 32 22 30 22 32 6 60 -21 37 -22 62 -2 78 22
18 18 41 -10 72 l-25 27 0 1306 0 1305 -100 0 -100 0 0 -1305z m150 -1794 c0
-9 -9 -27 -19 -41 -19 -24 -20 -24 -40 -6 -33 30 -36 55 -10 82 l23 24 23 -22
c13 -12 23 -29 23 -37z m-127 -97 l26 -37 -47 -53 c-25 -29 -50 -50 -54 -48
-15 10 -8 75 13 125 12 27 25 49 29 49 4 0 18 -16 33 -36z m219 -15 c9 -24 17
-60 17 -79 l1 -35 -45 45 -45 45 18 37 c9 21 22 36 27 34 6 -1 18 -23 27 -47z
m-37 -172 c14 -20 12 -24 -37 -74 l-53 -53 -55 55 -55 56 55 49 55 48 37 -30
c21 -16 45 -39 53 -51z m-201 -136 l48 -49 -32 -41 c-19 -23 -36 -41 -40 -41
-7 0 -34 59 -45 98 -7 25 2 82 14 82 4 0 29 -22 55 -49z m260 -26 c-7 -48 -30
-105 -41 -105 -4 0 -16 18 -26 40 l-18 40 37 45 c43 51 58 45 48 -20z m-125
-124 c27 -38 26 -49 -6 -83 l-27 -28 -28 27 c-15 15 -28 31 -28 35 0 12 53 78
62 78 4 0 16 -13 27 -29z m-7 -2818 c20 -18 23 -54 8 -84 -15 -26 -31 -23 -58
11 l-23 29 22 31 c26 35 27 35 51 13z m-98 -144 l29 -41 -51 -50 c-28 -28 -55
-48 -61 -44 -24 15 -4 121 30 163 17 19 21 17 53 -28z m206 -1 c19 -43 27
-109 13 -107 -5 0 -23 18 -41 39 -32 38 -33 39 -18 74 8 20 18 36 21 36 3 0
15 -19 25 -42z m-56 -147 l49 -49 -21 -29 c-11 -15 -34 -41 -51 -58 l-32 -29
-55 55 -56 56 54 51 c29 28 55 52 58 52 3 0 28 -22 54 -49z m-170 -170 l48
-49 -35 -47 c-36 -46 -36 -46 -56 -26 -19 19 -41 79 -41 114 0 22 18 57 28 57
4 0 29 -22 56 -49z m253 -20 c-3 -28 -15 -67 -25 -87 l-19 -38 -20 44 -20 45
36 43 c19 23 39 42 45 42 5 0 6 -22 3 -49z m-113 -144 l21 -36 -32 -33 -33
-32 -29 34 -28 34 31 38 c17 21 35 36 40 35 5 -2 18 -19 30 -40z"/>
</g>
</svg>
