<?xml version="1.0" standalone="no"?>
<!DOCTYPE svg PUBLIC "-//W3C//DTD SVG 20010904//EN"
 "http://www.w3.org/TR/2001/REC-SVG-20010904/DTD/svg10.dtd">
<svg version="1.0" xmlns="http://www.w3.org/2000/svg"
 width="3542.000000pt" height="3750.000000pt" viewBox="0 0 3542.000000 3750.000000"
 preserveAspectRatio="xMidYMid meet">

<g transform="translate(0.000000,3750.000000) scale(0.100000,-0.100000)"
fill="#3a4548" stroke="none">
<path d="M15450 17420 l0 -1241 -25 -27 c-28 -31 -32 -54 -10 -72 20 -16 19
-40 -2 -69 -15 -22 -15 -26 2 -57 10 -19 24 -34 32 -34 19 0 16 -58 -7 -105
-11 -22 -19 -52 -20 -67 0 -17 -15 -44 -40 -73 -78 -90 -87 -136 -43 -215 l27
-47 -24 -39 c-51 -87 -46 -123 30 -219 35 -44 50 -71 46 -83 -3 -10 3 -35 14
-57 34 -67 36 -102 7 -131 -35 -35 -41 -59 -23 -86 20 -29 20 -47 -1 -70 -16
-18 -16 -21 2 -54 10 -18 22 -34 27 -34 4 0 8 -389 8 -864 l0 -865 -25 -27
c-28 -31 -32 -56 -10 -74 19 -16 19 -35 -1 -70 -16 -26 -16 -29 5 -59 12 -17
27 -31 32 -31 17 0 9 -69 -12 -110 -12 -22 -19 -48 -17 -58 5 -17 -4 -32 -79
-132 -41 -53 -42 -86 -6 -157 l28 -54 -28 -48 c-39 -69 -37 -120 6 -168 56
-64 77 -100 77 -132 0 -17 9 -48 20 -68 28 -53 25 -85 -10 -123 -34 -36 -37
-52 -15 -70 20 -17 19 -49 -2 -72 -16 -18 -16 -21 2 -54 10 -18 22 -34 27 -34
4 0 8 -495 8 -1099 0 -928 -2 -1102 -14 -1114 -8 -7 -35 -21 -60 -31 l-47 -18
26 -24 c14 -12 25 -32 25 -44 0 -24 -42 -70 -65 -70 -16 0 -17 -4 -19 -62 -1
-42 -13 -37 144 -63 91 -15 101 -15 216 4 67 12 124 21 128 21 3 0 6 23 6 50
0 42 -3 50 -18 50 -26 0 -62 41 -62 70 0 13 10 34 21 46 l21 23 -37 15 c-21 9
-40 16 -44 16 -4 0 -14 9 -24 20 -16 19 -17 93 -17 1110 l0 1089 25 27 c29 31
32 60 9 85 -15 17 -15 20 0 43 23 35 20 59 -10 91 -21 23 -25 35 -21 69 8 63
45 157 79 195 39 44 68 107 68 149 0 18 -9 55 -21 82 -20 46 -20 49 -3 81 23
44 23 124 0 167 -9 18 -34 52 -54 74 -37 41 -60 98 -69 176 -4 36 -1 46 21 69
29 29 33 54 11 86 -13 20 -13 26 0 51 20 39 19 58 -7 85 l-21 23 -3 856 -3
855 25 32 c27 36 30 61 9 89 -13 17 -13 22 0 42 21 33 19 57 -10 88 -31 33
-33 82 -5 133 11 21 20 47 20 59 0 12 16 41 36 65 77 93 92 162 51 239 l-23
43 23 45 c39 78 27 131 -52 228 -25 31 -45 66 -45 77 -1 12 -7 33 -15 47 -23
40 -19 95 10 126 28 30 31 60 10 88 -12 16 -12 22 0 47 21 40 19 63 -9 90
l-23 24 2 1238 2 1237 -93 0 -94 0 0 -1240z m122 -1677 c23 -21 23 -55 -2 -84
l-19 -24 -25 30 c-31 37 -31 43 -4 72 26 27 26 28 50 6z m-83 -168 c0 -15 -86
-105 -93 -98 -14 14 -5 89 16 131 l21 45 28 -34 c16 -19 28 -38 28 -44z m197
-3 c9 -29 13 -60 9 -70 -5 -13 -13 -7 -44 28 l-39 45 20 39 c23 45 29 40 54
-42z m-81 -103 c25 -23 45 -46 45 -52 0 -6 -21 -33 -47 -59 l-47 -48 -48 47
c-26 26 -48 51 -48 56 0 7 89 95 98 97 1 0 23 -19 47 -41z m-155 -164 c47 -48
47 -53 1 -114 l-19 -25 -21 42 c-21 41 -30 142 -13 142 4 0 28 -20 52 -45z
m250 -3 c0 -30 -27 -119 -39 -126 -3 -2 -16 13 -28 34 l-21 39 35 40 c41 48
53 51 53 13z m-104 -176 c4 -12 -2 -27 -20 -44 l-25 -26 -26 24 c-32 30 -31
41 2 80 l26 32 19 -24 c10 -12 20 -31 24 -42z m-13 -2668 c18 -24 18 -27 2
-57 -19 -37 -29 -36 -62 6 l-23 30 21 27 c24 31 35 30 62 -6z m-110 -112 c15
-19 27 -39 27 -43 0 -15 -96 -104 -103 -97 -14 15 -6 89 14 131 11 24 24 43
27 43 4 0 19 -16 35 -34z m211 -29 c31 -92 16 -110 -37 -45 -28 35 -28 36 -12
73 18 45 26 40 49 -28z m-66 -120 c23 -23 42 -47 42 -53 0 -5 -21 -31 -47 -57
l-47 -48 -53 53 -54 53 48 47 c27 25 53 47 58 47 6 1 30 -18 53 -42z m-160
-160 c23 -23 42 -46 42 -51 0 -4 -14 -26 -31 -48 l-32 -39 -18 28 c-29 42 -41
96 -29 127 5 14 13 26 18 26 4 0 27 -19 50 -43z m242 -14 c0 -21 -10 -58 -21
-83 l-21 -45 -20 42 -20 42 34 40 c18 23 36 41 41 41 4 0 7 -17 7 -37z m-103
-161 c6 -25 -20 -72 -41 -72 -12 0 -35 22 -50 47 -3 6 8 28 26 48 30 35 33 36
45 18 8 -10 16 -28 20 -41z"/>
</g>
</svg>
