<?xml version="1.0" standalone="no"?>
<!DOCTYPE svg PUBLIC "-//W3C//DTD SVG 20010904//EN"
 "http://www.w3.org/TR/2001/REC-SVG-20010904/DTD/svg10.dtd">
<svg version="1.0" xmlns="http://www.w3.org/2000/svg"
 width="3542.000000pt" height="3750.000000pt" viewBox="0 0 3542.000000 3750.000000"
 preserveAspectRatio="xMidYMid meet">

<g transform="translate(0.000000,3750.000000) scale(0.100000,-0.100000)"
fill="#3a4548" stroke="none">
<path d="M20085 18721 c-3 -2 -5 -519 -5 -1148 0 -1130 0 -1144 -20 -1165 -21
-23 -27 -63 -10 -73 6 -3 10 -17 10 -30 0 -13 -4 -27 -10 -30 -18 -11 -10 -53
15 -76 30 -29 32 -62 5 -112 -11 -20 -20 -49 -20 -64 0 -18 -18 -51 -50 -92
-60 -76 -65 -119 -25 -189 l25 -44 -25 -42 c-43 -74 -35 -108 48 -209 21 -25
36 -51 32 -56 -3 -6 3 -32 14 -57 27 -61 26 -88 -4 -118 -27 -28 -32 -56 -13
-86 10 -16 10 -24 0 -40 -17 -28 -15 -53 8 -78 20 -21 20 -35 20 -817 0 -782
0 -796 -20 -817 -23 -25 -25 -46 -8 -83 9 -21 9 -31 0 -46 -18 -29 -14 -55 13
-80 30 -29 32 -62 5 -112 -11 -20 -20 -50 -20 -66 0 -19 -16 -49 -50 -92 -59
-76 -65 -116 -24 -184 l25 -44 -25 -48 c-39 -73 -35 -100 29 -180 33 -41 53
-74 50 -84 -3 -9 4 -36 15 -60 22 -50 26 -99 7 -99 -6 0 -18 -14 -26 -31 -12
-28 -12 -35 2 -59 14 -24 15 -29 2 -46 -20 -27 -18 -57 5 -82 20 -21 20 -35
20 -1031 0 -555 -3 -1017 -6 -1025 -4 -9 -28 -26 -54 -37 l-48 -20 25 -25 c17
-18 22 -31 18 -47 -8 -26 -41 -57 -61 -57 -10 0 -14 -13 -14 -44 0 -51 -10
-46 144 -67 71 -10 106 -10 179 0 130 19 137 22 137 71 0 27 -4 40 -14 40 -7
0 -25 9 -40 21 -31 25 -34 61 -6 89 l20 20 -47 21 c-26 11 -51 26 -55 32 -10
16 -10 2047 0 2047 4 0 15 12 25 25 17 24 17 26 0 55 -16 27 -16 32 -2 58 20
35 19 45 -8 76 -13 15 -23 38 -23 51 0 49 41 148 79 192 47 52 63 106 49 165
-5 23 -14 48 -20 55 -8 10 -5 26 11 62 11 28 21 61 21 76 0 37 -25 92 -65 141
-19 23 -35 50 -35 59 0 8 -9 33 -20 55 -21 41 -27 120 -10 120 5 0 17 11 26
25 16 24 16 28 -2 60 -17 32 -17 35 -1 53 23 26 21 44 -8 76 l-25 27 0 790 0
790 26 35 c27 34 27 35 9 68 -17 31 -17 34 -1 59 17 25 17 28 0 57 -10 16 -22
30 -26 30 -14 0 -8 84 7 110 8 14 14 33 15 43 0 10 17 39 39 65 21 26 44 57
50 70 18 34 16 98 -5 143 -17 39 -17 41 4 85 35 71 25 126 -36 195 -17 19 -40
62 -52 94 -25 67 -37 155 -22 155 5 0 17 12 27 26 16 25 16 28 -1 59 -16 30
-16 34 -1 56 22 31 21 39 -8 71 l-25 27 0 1151 0 1151 -80 -2 c-45 -2 -83 -5
-85 -8z m114 -2715 c25 -27 23 -52 -8 -80 -17 -16 -20 -15 -45 14 l-26 32 22
28 c28 36 29 36 57 6z m-104 -122 l27 -36 -43 -44 c-45 -46 -59 -44 -59 6 0
24 34 110 43 110 3 0 17 -16 32 -36z m215 -79 l0 -40 -41 41 -40 41 22 38 23
39 18 -40 c10 -21 18 -57 18 -79z m-80 -60 l44 -45 -47 -48 -47 -47 -47 47
-47 48 44 45 c24 25 47 45 50 45 3 0 26 -20 50 -45z m-147 -150 l38 -43 -25
-37 -25 -37 -21 34 c-19 32 -29 129 -12 127 4 0 24 -20 45 -44z m207 -71 c-11
-26 -22 -45 -24 -43 -2 2 -11 19 -20 36 -16 33 -16 33 21 74 l38 42 3 -31 c2
-17 -6 -52 -18 -78z m-80 -94 c0 -9 -9 -25 -21 -36 -21 -19 -21 -18 -40 5 -24
29 -24 32 3 66 l22 28 18 -23 c10 -12 18 -30 18 -40z m-4 -2516 l-17 -37 -30
28 c-35 34 -36 42 -7 72 l22 24 25 -25 c25 -25 25 -26 7 -62z m-104 -63 l27
-38 -44 -43 c-25 -24 -48 -40 -52 -36 -22 21 9 157 35 156 4 0 19 -18 34 -39z
m206 -76 l-3 -34 -32 39 -33 38 17 39 16 38 19 -43 c11 -24 18 -58 16 -77z
m-74 -55 c20 -22 36 -46 36 -53 0 -7 -18 -31 -40 -52 l-40 -39 -47 47 -47 47
44 45 c24 25 47 45 51 45 4 0 23 -18 43 -40z m-144 -155 l44 -45 -24 -27 c-14
-16 -28 -32 -32 -37 -14 -17 -48 58 -48 107 0 26 4 47 8 47 4 0 28 -20 52 -45z
m216 -15 c-7 -44 -25 -90 -36 -90 -4 0 -13 14 -20 31 -12 28 -11 32 21 65 18
18 35 34 37 34 3 0 2 -18 -2 -40z m-96 -151 c0 -15 -7 -32 -16 -39 -13 -11
-19 -9 -40 12 l-25 25 26 32 c26 30 28 30 41 14 7 -10 14 -30 14 -44z"/>
</g>
</svg>
