<?xml version="1.0" standalone="no"?>
<!DOCTYPE svg PUBLIC "-//W3C//DTD SVG 20010904//EN"
 "http://www.w3.org/TR/2001/REC-SVG-20010904/DTD/svg10.dtd">
<svg version="1.0" xmlns="http://www.w3.org/2000/svg"
 width="2550.000000pt" height="2700.000000pt" viewBox="0 0 2550.000000 2700.000000"
 preserveAspectRatio="xMidYMid meet">

<g transform="translate(0.000000,2700.000000) scale(0.100000,-0.100000)"
fill="#C5C3C1" stroke="none">
<path d="M1421 13614 l-41 -47 -2 -571 -3 -571 -95 -5 -95 -5 -1 -2633 -2
-2632 25 -6 c24 -6 72 -2 141 12 l32 7 -2 -759 -3 -759 -43 -23 c-41 -23 -42
-25 -27 -42 24 -27 15 -62 -22 -85 -25 -15 -32 -27 -33 -51 0 -36 15 -43 90
-44 25 0 64 -5 88 -10 24 -6 49 -7 55 -3 7 5 50 17 97 28 l85 20 3 35 c2 31
-2 37 -30 50 -37 17 -49 58 -24 80 9 7 16 16 16 20 0 15 -85 29 -123 21 -20
-5 -39 -5 -42 -1 -7 11 2 16 42 25 l33 7 2 761 3 761 87 16 c47 8 89 18 93 21
4 5 8 3854 5 5143 l0 68 -92 -3 -93 -4 -3 613 -2 612 -39 0 c-34 0 -45 -6 -80
-46z m157 -3791 l2 -2503 -27 -6 c-16 -3 -44 -10 -63 -14 -19 -5 -61 -12 -93
-15 l-57 -7 2 2518 3 2519 80 6 c44 3 96 5 115 5 l35 -1 3 -2502z"/>
</g>
</svg>
