<?xml version="1.0" standalone="no"?>
<!DOCTYPE svg PUBLIC "-//W3C//DTD SVG 20010904//EN"
 "http://www.w3.org/TR/2001/REC-SVG-20010904/DTD/svg10.dtd">
<svg version="1.0" xmlns="http://www.w3.org/2000/svg"
 width="2550.000000pt" height="2700.000000pt" viewBox="0 0 2550.000000 2700.000000"
 preserveAspectRatio="xMidYMid meet">

<g transform="translate(0.000000,2700.000000) scale(0.100000,-0.100000)"
fill="#C5C3C1" stroke="none">
<path d="M4851 15368 l-31 -42 0 -543 0 -543 -85 0 -85 0 0 -2526 0 -2527 85
7 85 6 0 -42 c3 -330 -2 -1391 -6 -1402 -3 -7 -23 -22 -45 -31 -36 -17 -38
-20 -24 -35 24 -26 18 -57 -15 -82 -22 -16 -30 -30 -30 -53 l0 -32 93 -8 c123
-10 130 -10 220 10 l77 18 0 34 c0 26 -5 35 -24 43 -14 5 -29 17 -34 27 -11
20 1 63 18 63 24 0 7 17 -32 30 l-43 15 -3 736 -2 735 77 12 c43 7 81 16 85
20 4 4 7 1126 5 2492 l-2 2485 -84 5 -84 5 -1 582 -1 583 -42 0 c-37 0 -44 -4
-72 -42z m137 -3630 l-3 -2403 -83 -13 c-45 -8 -88 -12 -95 -9 -10 4 -13 491
-14 2408 -1 1321 0 2406 3 2411 3 4 48 8 100 8 l94 0 -2 -2402z"/>
</g>
</svg>
