<?xml version="1.0" standalone="no"?>
<!DOCTYPE svg PUBLIC "-//W3C//DTD SVG 20010904//EN"
 "http://www.w3.org/TR/2001/REC-SVG-20010904/DTD/svg10.dtd">
<svg version="1.0" xmlns="http://www.w3.org/2000/svg"
 width="2550.000000pt" height="2700.000000pt" viewBox="0 0 2550.000000 2700.000000"
 preserveAspectRatio="xMidYMid meet">

<g transform="translate(0.000000,2700.000000) scale(0.100000,-0.100000)"
fill="#C5C3C1" stroke="none">
<path d="M6425 16461 c-3 -2 -5 -170 -5 -372 l0 -368 -77 -3 -78 -3 -3 -2607
-2 -2608 25 -6 c14 -3 50 -3 80 1 l55 6 0 -400 0 -401 -44 -22 -45 -21 19 -25
c23 -29 13 -56 -26 -74 -18 -9 -24 -19 -24 -45 0 -27 4 -33 23 -34 12 0 31 -2
42 -4 64 -13 173 -17 179 -6 4 6 25 11 46 11 62 0 90 15 90 47 0 21 -8 33 -30
45 -34 19 -40 57 -14 79 14 12 11 16 -28 34 l-43 20 0 405 0 405 75 10 75 10
2 2581 3 2581 -47 7 c-25 3 -61 6 -79 6 l-34 0 0 374 0 375 -42 6 c-44 6 -86
4 -93 -4z m143 -856 c9 -4 12 -510 12 -2490 0 -1979 -3 -2487 -12 -2490 -23
-8 -158 -22 -158 -16 -1 15 -1 4978 -1 4991 1 13 14 15 74 12 39 -2 78 -5 85
-7z"/>
</g>
</svg>
