<?xml version="1.0" standalone="no"?>
<!DOCTYPE svg PUBLIC "-//W3C//DTD SVG 20010904//EN"
 "http://www.w3.org/TR/2001/REC-SVG-20010904/DTD/svg10.dtd">
<svg version="1.0" xmlns="http://www.w3.org/2000/svg"
 width="2550.000000pt" height="2700.000000pt" viewBox="0 0 2550.000000 2700.000000"
 preserveAspectRatio="xMidYMid meet">

<g transform="translate(0.000000,2700.000000) scale(0.100000,-0.100000)"
fill="#C5C3C1" stroke="none">
<path d="M7620 16020 l0 -360 -70 0 -70 0 0 -2516 0 -2516 70 4 70 4 0 -381
c0 -209 -4 -385 -8 -391 -4 -5 -22 -16 -39 -23 -38 -15 -38 -17 -18 -37 24
-24 18 -53 -15 -72 -23 -13 -30 -24 -30 -49 l0 -32 108 -3 c59 -2 139 2 177 7
69 10 70 11 73 42 3 26 -2 34 -25 45 -33 16 -41 49 -17 72 19 20 20 19 -28 39
l-38 16 0 389 c0 430 -4 402 63 402 18 0 42 3 55 6 l22 6 0 2489 0 2488 -67 3
-68 3 -3 363 -2 362 -70 0 -70 0 0 -360z m145 -2865 l0 -2400 -63 -8 c-34 -5
-69 -6 -77 -3 -13 5 -15 310 -15 2411 l0 2406 78 -3 77 -3 0 -2400z"/>
</g>
</svg>
