<?xml version="1.0" standalone="no"?>
<!DOCTYPE svg PUBLIC "-//W3C//DTD SVG 20010904//EN"
 "http://www.w3.org/TR/2001/REC-SVG-20010904/DTD/svg10.dtd">
<svg version="1.0" xmlns="http://www.w3.org/2000/svg"
 width="2550.000000pt" height="2700.000000pt" viewBox="0 0 2550.000000 2700.000000"
 preserveAspectRatio="xMidYMid meet">

<g transform="translate(0.000000,2700.000000) scale(0.100000,-0.100000)"
fill="#C5C3C1" stroke="none">
<path d="M18847 22152 l-48 -49 -1 -572 0 -572 -25 -10 c-13 -5 -57 -9 -96 -9
-40 0 -89 -3 -110 -6 l-37 -7 2 -2746 3 -2746 120 0 c66 0 125 -3 131 -7 8 -6
12 -105 12 -340 0 -368 1 -367 -62 -388 l-36 -11 22 -29 c18 -25 20 -33 10
-55 -7 -14 -23 -30 -37 -35 -23 -9 -26 -15 -23 -47 l3 -38 65 2 c36 1 122 2
193 2 l127 1 0 33 c0 26 -6 36 -25 45 -39 18 -52 55 -30 88 14 22 15 28 4 35
-8 5 -19 9 -26 9 -6 0 -21 12 -32 26 -20 25 -21 37 -18 368 l2 341 133 3 132
3 0 2758 c0 2625 -1 2759 -18 2763 -9 3 -66 2 -125 -1 -74 -4 -112 -2 -118 5
-5 6 -9 262 -8 614 1 695 6 663 -84 572z m213 -3956 l0 -2644 -72 -7 c-40 -3
-127 -5 -193 -3 l-120 3 -3 2637 -2 2636 72 6 c121 10 159 12 241 14 l77 2 0
-2644z"/>
</g>
</svg>
