<?xml version="1.0" standalone="no"?>
<!DOCTYPE svg PUBLIC "-//W3C//DTD SVG 20010904//EN"
 "http://www.w3.org/TR/2001/REC-SVG-20010904/DTD/svg10.dtd">
<svg version="1.0" xmlns="http://www.w3.org/2000/svg"
 width="2550.000000pt" height="2700.000000pt" viewBox="0 0 2550.000000 2700.000000"
 preserveAspectRatio="xMidYMid meet">

<g transform="translate(0.000000,2700.000000) scale(0.100000,-0.100000)"
fill="#C5C3C1" stroke="none">
<path d="M21021 24232 l-52 -47 -2 -590 -2 -590 -105 -8 c-58 -4 -120 -10
-137 -13 l-33 -5 0 -2794 c0 -2229 3 -2795 13 -2797 6 -1 68 -2 137 -2 l125
-1 2 -345 c2 -382 5 -366 -65 -396 l-33 -13 20 -23 c12 -12 21 -29 21 -38 0
-19 -40 -60 -58 -60 -7 0 -12 -14 -12 -32 l0 -31 137 6 c75 4 162 7 195 7 50
0 58 3 58 18 0 11 -11 24 -25 30 -39 18 -52 55 -30 88 14 22 15 28 4 35 -8 5
-19 9 -26 9 -6 0 -20 11 -31 24 -18 23 -19 44 -18 369 1 190 4 348 8 352 3 3
65 9 137 12 l131 6 0 2802 c0 2373 -2 2804 -14 2814 -10 8 -46 9 -132 3 -66
-5 -120 -8 -122 -6 -2 1 -4 282 -4 624 -1 715 5 675 -87 592z m219 -4032 l0
-2690 -68 0 c-38 0 -130 -3 -205 -7 l-137 -6 0 2682 c0 2136 3 2683 13 2686
15 6 241 22 330 24 l67 1 0 -2690z"/>
</g>
</svg>
