<?xml version="1.0" standalone="no"?>
<!DOCTYPE svg PUBLIC "-//W3C//DTD SVG 20010904//EN"
 "http://www.w3.org/TR/2001/REC-SVG-20010904/DTD/svg10.dtd">
<svg version="1.0" xmlns="http://www.w3.org/2000/svg"
 width="2550.000000pt" height="2700.000000pt" viewBox="0 0 2550.000000 2700.000000"
 preserveAspectRatio="xMidYMid meet">

<g transform="translate(0.000000,2700.000000) scale(0.100000,-0.100000)"
fill="#C5C3C1" stroke="none">
<path d="M12693 13533 l-33 -4 0 -678 0 -678 -31 -7 c-17 -3 -51 -6 -75 -6
l-44 0 0 -2915 0 -2915 26 -6 c14 -4 47 -4 74 -1 l49 6 3 -92 c5 -139 -1
-1529 -7 -1552 -2 -12 -23 -30 -50 -43 l-45 -22 20 -20 c11 -11 20 -29 20 -40
0 -22 -41 -70 -60 -70 -5 0 -10 -20 -10 -44 l0 -44 106 -7 c59 -4 119 -11 134
-15 16 -5 31 -5 35 -2 4 4 39 19 78 33 l72 26 3 42 c2 32 0 41 -13 41 -9 0
-27 11 -41 25 -27 27 -26 54 3 86 13 15 10 19 -32 34 -29 12 -47 25 -50 39 -3
12 -4 394 -3 850 l3 830 65 19 c36 10 68 22 72 25 4 4 8 1301 9 2882 l2 2875
-74 0 -74 0 -3 678 -2 677 -48 -2 c-26 0 -62 -3 -79 -5z m118 -1475 c0 -2 3
-1243 5 -2759 5 -2450 4 -2757 -10 -2768 -13 -11 -106 -41 -129 -41 -4 0 -6
1250 -5 2778 l3 2777 50 6 c70 8 85 9 86 7z"/>
</g>
</svg>
