<?xml version="1.0" standalone="no"?>
<!DOCTYPE svg PUBLIC "-//W3C//DTD SVG 20010904//EN"
 "http://www.w3.org/TR/2001/REC-SVG-20010904/DTD/svg10.dtd">
<svg version="1.0" xmlns="http://www.w3.org/2000/svg"
 width="2550.000000pt" height="2700.000000pt" viewBox="0 0 2550.000000 2700.000000"
 preserveAspectRatio="xMidYMid meet">

<g transform="translate(0.000000,2700.000000) scale(0.100000,-0.100000)"
fill="#C5C3C1" stroke="none">
<path d="M13661 14575 c-5 -5 -17 -26 -27 -45 -18 -33 -19 -73 -24 -620 l-5
-585 -67 -3 -68 -3 0 -2799 0 -2800 48 -1 c26 -1 57 0 70 1 l22 1 -2 -343 -3
-343 -43 -23 c-40 -22 -42 -25 -28 -41 32 -35 14 -86 -36 -104 -13 -4 -18 -17
-18 -41 0 -19 4 -37 8 -40 5 -3 69 -8 143 -11 115 -6 143 -4 194 12 60 19 60
19 63 61 2 31 -1 42 -11 42 -18 0 -57 42 -57 61 0 8 9 25 20 37 l21 22 -26 10
c-15 6 -30 10 -34 10 -4 0 -15 8 -25 18 -15 17 -16 54 -14 367 l3 348 25 8
c14 4 44 13 68 19 l42 11 0 2764 0 2765 -70 0 -70 0 0 624 0 624 -46 4 c-25 2
-49 -1 -53 -7z m90 -2592 c1 -1661 1 -3977 0 -4036 -1 -53 -8 -58 -88 -72
l-43 -7 0 2671 0 2670 43 4 c23 2 52 4 65 5 l22 2 1 -1237z"/>
</g>
</svg>
