<?xml version="1.0" standalone="no"?>
<!DOCTYPE svg PUBLIC "-//W3C//DTD SVG 20010904//EN"
 "http://www.w3.org/TR/2001/REC-SVG-20010904/DTD/svg10.dtd">
<svg version="1.0" xmlns="http://www.w3.org/2000/svg"
 width="2550.000000pt" height="2700.000000pt" viewBox="0 0 2550.000000 2700.000000"
 preserveAspectRatio="xMidYMid meet">

<g transform="translate(0.000000,2700.000000) scale(0.100000,-0.100000)"
fill="#C5C3C1" stroke="none">
<path d="M14198 15481 l-23 -36 -5 -600 -5 -600 -68 -3 -67 -3 0 -2739 0
-2740 70 0 70 0 0 -771 c0 -461 -4 -777 -9 -788 -6 -10 -28 -26 -51 -36 l-40
-18 21 -23 c28 -30 19 -68 -22 -89 -26 -14 -30 -21 -27 -53 l3 -37 120 -8 c66
-4 125 -8 130 -8 6 0 39 8 75 19 63 18 65 20 68 55 3 30 -1 37 -25 49 -37 18
-52 61 -30 86 23 26 22 28 -23 46 -25 10 -41 24 -45 38 -3 13 -4 372 -3 798
l3 775 63 15 62 15 2 670 c0 368 2 1017 2 1442 1 424 4 775 9 779 4 4 7 571 7
1260 l0 1253 -72 3 -73 3 -5 640 -5 640 -42 1 c-39 2 -45 -1 -65 -35z m100
-3958 l-3 -2608 -53 -11 c-33 -8 -54 -8 -58 -2 -5 8 -6 1597 -4 5191 l0 37 60
0 60 0 -2 -2607z"/>
</g>
</svg>
