<?xml version="1.0" standalone="no"?>
<!DOCTYPE svg PUBLIC "-//W3C//DTD SVG 20010904//EN"
 "http://www.w3.org/TR/2001/REC-SVG-20010904/DTD/svg10.dtd">
<svg version="1.0" xmlns="http://www.w3.org/2000/svg"
 width="2550.000000pt" height="2700.000000pt" viewBox="0 0 2550.000000 2700.000000"
 preserveAspectRatio="xMidYMid meet">

<g transform="translate(0.000000,2700.000000) scale(0.100000,-0.100000)"
fill="#C5C3C1" stroke="none">
<path d="M15728 19169 l-48 -41 0 -584 c0 -459 -3 -586 -12 -589 -27 -10 -66
-14 -154 -14 l-92 -1 -1 -2680 -1 -2679 128 -3 127 -3 3 -765 c1 -421 0 -775
-3 -787 -3 -14 -22 -31 -46 -44 -38 -19 -40 -22 -25 -38 24 -27 19 -56 -14
-84 -23 -20 -30 -34 -30 -61 l0 -36 138 0 c75 0 161 3 190 6 l52 7 0 37 c0 29
-5 39 -19 43 -10 2 -27 17 -36 31 -17 26 -17 28 3 56 l21 28 -30 13 c-63 26
-59 -31 -59 815 0 730 1 774 18 775 9 1 43 0 74 -1 42 -1 62 3 74 14 8 9 31
16 50 16 l34 0 0 2674 0 2674 -26 6 c-14 4 -70 4 -125 0 l-99 -7 -2 629 c-3
621 -3 629 -23 631 -11 2 -40 -15 -67 -38z m202 -3910 l0 -2581 -172 4 c-95 2
-179 7 -185 11 -10 6 -13 545 -13 2567 0 2417 1 2560 18 2569 9 6 90 11 185
11 l167 0 0 -2581z"/>
</g>
</svg>
