<?xml version="1.0" standalone="no"?>
<!DOCTYPE svg PUBLIC "-//W3C//DTD SVG 20010904//EN"
 "http://www.w3.org/TR/2001/REC-SVG-20010904/DTD/svg10.dtd">
<svg version="1.0" xmlns="http://www.w3.org/2000/svg"
 width="2644.000000pt" height="2800.000000pt" viewBox="0 0 2644.000000 2800.000000"
 preserveAspectRatio="xMidYMid meet">

<g transform="translate(0.000000,2800.000000) scale(0.100000,-0.100000)"
fill="#3a4548" stroke="none">
<path d="M8953 17323 l-33 -4 0 -875 c0 -751 -2 -874 -14 -874 -24 0 -46 -30
-46 -61 0 -41 17 -69 40 -69 28 0 27 -53 -2 -122 -19 -46 -22 -72 -23 -193 0
-121 3 -149 23 -207 28 -80 26 -112 -5 -116 -16 -2 -24 -12 -29 -37 -9 -49 -2
-68 29 -83 l27 -13 0 -735 0 -734 -24 -10 c-29 -11 -40 -40 -32 -85 5 -25 13
-35 29 -37 31 -4 33 -45 5 -121 -20 -54 -22 -81 -23 -207 0 -127 3 -152 23
-200 29 -73 29 -108 0 -112 -49 -7 -47 -128 2 -128 19 0 20 -6 20 -200 0 -192
-1 -200 -22 -220 -12 -11 -27 -20 -34 -20 -22 0 -25 -19 -8 -45 16 -24 15 -26
-15 -54 -39 -36 -44 -86 -8 -93 56 -10 245 -9 251 1 4 6 23 11 42 11 32 0 34
2 34 33 0 25 -6 36 -30 49 -33 19 -39 48 -14 73 9 9 15 17 13 18 -2 2 -21 10
-41 20 l-38 17 0 210 c0 199 1 210 19 210 23 0 31 19 31 70 0 34 -22 70 -39
62 -16 -7 -10 58 11 122 32 98 32 270 0 366 -29 86 -29 140 -2 140 39 0 42
108 3 125 l-23 10 0 737 0 737 23 3 c20 3 22 9 22 58 0 49 -2 55 -22 58 -30 4
-31 51 -1 135 31 89 31 274 0 367 -29 86 -29 140 -2 140 39 0 42 108 3 125
l-23 10 0 868 0 867 -26 10 c-14 6 -28 9 -32 8 -4 0 -22 -3 -39 -5z m37 -2205
c0 -57 -3 -78 -10 -68 -15 24 -10 150 6 150 2 0 4 -37 4 -82z m0 -2375 c0 -54
-3 -73 -10 -63 -16 25 -11 140 6 140 2 0 4 -35 4 -77z"/>
</g>
</svg>
