<?xml version="1.0" standalone="no"?>
<!DOCTYPE svg PUBLIC "-//W3C//DTD SVG 20010904//EN"
 "http://www.w3.org/TR/2001/REC-SVG-20010904/DTD/svg10.dtd">
<svg version="1.0" xmlns="http://www.w3.org/2000/svg"
 width="2644.000000pt" height="2800.000000pt" viewBox="0 0 2644.000000 2800.000000"
 preserveAspectRatio="xMidYMid meet">

<g transform="translate(0.000000,2800.000000) scale(0.100000,-0.100000)"
fill="#3a4548" stroke="none">
<path d="M9420 17273 c0 -4 0 -391 0 -859 l0 -852 -24 -6 c-46 -11 -46 -109 1
-127 22 -8 24 -14 20 -47 -3 -20 -15 -68 -26 -107 -27 -96 -27 -218 1 -321 29
-109 30 -148 1 -152 -16 -2 -24 -12 -29 -37 -8 -45 3 -74 32 -85 l24 -10 0
-721 0 -721 -21 -5 c-46 -12 -47 -107 -2 -124 22 -8 24 -14 20 -47 -2 -20 -12
-62 -21 -92 -9 -30 -19 -98 -23 -150 -5 -80 -2 -108 17 -180 36 -135 36 -148
7 -159 -45 -17 -44 -112 2 -124 20 -5 21 -11 21 -197 0 -106 -4 -200 -10 -210
-5 -10 -23 -23 -40 -28 l-30 -11 18 -31 17 -31 -32 -28 c-25 -20 -33 -36 -33
-59 l0 -32 114 0 c62 0 141 3 175 6 l61 7 0 33 c0 22 -5 34 -13 34 -8 0 -24
11 -37 25 -22 24 -22 25 -5 51 14 22 15 28 4 35 -8 5 -19 9 -25 9 -31 0 -36
31 -36 223 l-1 193 27 27 c39 39 34 101 -10 118 -30 11 -30 30 -2 105 18 50
22 81 22 199 1 122 -2 148 -21 200 -29 76 -29 101 1 120 43 29 44 108 2 125
l-22 8 1 717 0 718 21 8 c43 15 42 108 -1 127 -21 10 -24 17 -21 44 3 18 12
53 22 78 10 28 18 87 21 155 4 93 1 124 -19 200 -26 102 -26 141 2 148 27 7
37 70 16 102 -9 14 -22 25 -29 25 -9 0 -12 187 -12 858 l-1 857 -62 3 c-34 2
-62 -1 -62 -5z m70 -2158 c0 -37 -4 -65 -10 -65 -6 0 -10 28 -10 65 0 37 4 65
10 65 6 0 10 -28 10 -65z m0 -2336 c0 -44 -4 -68 -10 -64 -5 3 -10 35 -10 71
0 36 4 64 10 64 6 0 10 -30 10 -71z"/>
</g>
</svg>
