<?xml version="1.0" standalone="no"?>
<!DOCTYPE svg PUBLIC "-//W3C//DTD SVG 20010904//EN"
 "http://www.w3.org/TR/2001/REC-SVG-20010904/DTD/svg10.dtd">
<svg version="1.0" xmlns="http://www.w3.org/2000/svg"
 width="2644.000000pt" height="2800.000000pt" viewBox="0 0 2644.000000 2800.000000"
 preserveAspectRatio="xMidYMid meet">

<g transform="translate(0.000000,2800.000000) scale(0.100000,-0.100000)"
fill="#3a4548" stroke="none">
<path d="M9900 16396 c0 -834 0 -844 -20 -849 -44 -11 -45 -102 -2 -122 29
-13 29 -47 0 -128 -18 -51 -22 -84 -22 -187 0 -103 4 -136 22 -187 28 -80 29
-113 2 -113 -45 0 -48 -104 -4 -121 l24 -9 0 -710 0 -710 -25 -10 c-21 -8 -25
-16 -25 -49 0 -52 8 -71 31 -71 26 0 25 -46 -3 -130 -31 -95 -31 -281 0 -365
30 -81 29 -113 -4 -125 -23 -9 -25 -14 -22 -57 2 -39 7 -50 26 -58 22 -10 22
-10 20 -210 l-3 -199 -38 -22 c-33 -18 -36 -23 -22 -34 24 -20 18 -47 -15 -72
-21 -15 -30 -30 -30 -50 0 -27 2 -28 53 -29 28 -1 58 -1 65 0 6 1 12 -3 12 -8
0 -11 67 -8 155 6 47 8 50 10 53 41 3 26 -1 34 -22 41 -32 13 -43 47 -22 70
21 23 20 28 -8 35 -54 13 -56 22 -56 233 0 187 1 195 20 200 42 11 44 115 2
121 -29 4 -29 36 0 122 31 94 31 279 0 367 -29 84 -29 121 2 133 43 16 41 112
-2 118 l-22 3 2 712 c3 622 5 712 18 712 8 0 21 13 28 29 19 39 5 90 -26 94
-29 4 -29 33 0 115 18 51 22 84 22 187 0 103 -4 136 -22 187 -29 82 -29 121 0
125 45 6 44 113 -2 125 -20 5 -20 13 -18 844 3 831 3 838 -17 843 -11 3 -39 6
-62 6 l-43 0 0 -844z m70 -1287 c0 -31 -4 -48 -10 -44 -5 3 -10 26 -10 51 0
24 5 44 10 44 6 0 10 -23 10 -51z m0 -2284 c0 -30 -4 -55 -10 -55 -11 0 -14
93 -3 103 12 12 13 8 13 -48z"/>
</g>
</svg>
