<?xml version="1.0" standalone="no"?>
<!DOCTYPE svg PUBLIC "-//W3C//DTD SVG 20010904//EN"
 "http://www.w3.org/TR/2001/REC-SVG-20010904/DTD/svg10.dtd">
<svg version="1.0" xmlns="http://www.w3.org/2000/svg"
 width="2644.000000pt" height="2800.000000pt" viewBox="0 0 2644.000000 2800.000000"
 preserveAspectRatio="xMidYMid meet">

<g transform="translate(0.000000,2800.000000) scale(0.100000,-0.100000)"
fill="#3a4548" stroke="none">
<path d="M3007 14034 c-4 -4 -7 -517 -7 -1141 l0 -1133 -24 0 c-33 0 -49 -23
-50 -74 -1 -50 16 -76 50 -76 22 0 24 -4 24 -54 0 -30 -4 -57 -8 -60 -5 -3
-20 -40 -33 -83 -42 -137 -32 -336 23 -445 10 -21 18 -58 18 -83 0 -41 -2 -45
-24 -45 -33 0 -49 -23 -50 -74 -1 -50 16 -76 50 -76 l24 0 0 -890 0 -890 -26
0 c-37 0 -60 -59 -45 -112 10 -33 16 -38 41 -38 28 0 30 -2 30 -39 0 -22 -14
-81 -31 -132 -53 -157 -50 -333 7 -458 14 -31 24 -72 24 -98 0 -40 -2 -45 -19
-40 -30 7 -54 -26 -55 -76 -1 -51 16 -77 50 -77 l24 0 0 -1182 c0 -651 -4
-1188 -8 -1194 -4 -6 -27 -21 -51 -33 l-43 -22 21 -23 c12 -12 21 -29 21 -37
0 -19 -38 -54 -67 -64 -19 -5 -23 -14 -23 -44 0 -38 0 -38 48 -44 168 -22 224
-20 320 8 l92 28 0 38 c0 35 -4 40 -34 53 -45 19 -54 50 -27 86 l20 28 -44 15
c-31 11 -54 13 -81 7 -21 -5 -40 -7 -43 -5 -4 5 44 25 60 25 5 0 9 459 9 1190
l0 1190 25 0 c37 0 62 56 49 107 -7 31 -14 39 -39 43 -28 5 -30 8 -29 50 1 25
14 79 29 120 51 137 44 344 -15 460 -12 24 -20 59 -20 90 0 49 1 50 29 50 24
0 31 6 40 31 22 64 2 119 -45 119 l-24 0 0 885 0 885 24 0 c13 0 29 6 35 14
18 21 24 77 12 109 -8 21 -17 27 -42 27 -31 0 -31 0 -26 48 2 26 17 81 32 122
51 137 44 344 -15 460 -12 24 -20 59 -20 90 0 49 1 50 29 50 24 0 31 6 40 31
6 18 11 42 11 53 0 33 -28 66 -56 66 l-24 0 -2 1133 -3 1132 -75 3 c-42 1 -79
0 -83 -4z m98 -2809 c0 -92 -4 -138 -12 -146 -20 -20 -28 16 -28 136 0 124 9
175 28 156 8 -8 12 -55 12 -146z m-1 -2726 c18 -89 -3 -294 -28 -269 -13 13
-16 228 -3 273 10 36 23 34 31 -4z"/>
</g>
</svg>
