<?xml version="1.0" standalone="no"?>
<!DOCTYPE svg PUBLIC "-//W3C//DTD SVG 20010904//EN"
 "http://www.w3.org/TR/2001/REC-SVG-20010904/DTD/svg10.dtd">
<svg version="1.0" xmlns="http://www.w3.org/2000/svg"
 width="2644.000000pt" height="2800.000000pt" viewBox="0 0 2644.000000 2800.000000"
 preserveAspectRatio="xMidYMid meet">

<g transform="translate(0.000000,2800.000000) scale(0.100000,-0.100000)"
fill="#3a4548" stroke="none">
<path d="M3720 13318 c0 -398 0 -839 0 -980 l0 -258 -25 0 c-29 0 -45 -26 -45
-75 0 -49 16 -75 45 -75 23 0 25 -4 25 -41 0 -23 -11 -72 -24 -109 -52 -144
-54 -316 -5 -447 12 -32 24 -79 26 -105 4 -43 3 -48 -15 -48 -28 0 -52 -37
-52 -78 0 -46 16 -72 45 -72 l25 0 2 -477 c2 -263 2 -659 0 -880 l-2 -403 -25
0 c-29 0 -45 -26 -45 -75 0 -50 15 -75 46 -75 25 0 26 -2 21 -52 -3 -29 -17
-91 -32 -138 -23 -72 -28 -102 -28 -200 0 -101 4 -124 28 -190 15 -41 29 -96
32 -122 4 -43 3 -48 -15 -48 -29 0 -52 -37 -52 -85 0 -46 14 -65 46 -65 l21 0
6 -512 c10 -1000 7 -2102 -6 -2118 -7 -8 -29 -23 -49 -32 -41 -19 -46 -29 -23
-48 23 -19 18 -56 -11 -79 -15 -12 -33 -21 -40 -21 -10 0 -14 -13 -14 -39 0
-37 2 -39 38 -44 20 -4 80 -9 132 -13 81 -6 106 -3 170 15 41 12 83 25 93 27
22 7 25 84 3 84 -22 0 -66 40 -66 61 0 10 9 28 20 39 21 21 21 22 -33 39 -20
7 -41 20 -46 29 -8 15 -9 771 -3 2230 2 381 3 392 21 392 28 0 51 38 51 83 0
51 -15 77 -45 77 -22 0 -25 4 -25 37 0 20 11 64 25 98 55 139 56 320 1 456
-15 38 -26 85 -26 112 0 43 2 47 25 47 30 0 45 26 45 79 0 43 -20 71 -51 71
-19 0 -19 16 -17 872 3 864 3 873 23 876 30 5 45 31 45 75 0 51 -15 77 -45 77
-22 0 -25 4 -25 37 0 20 11 64 24 97 58 145 55 356 -5 478 -11 21 -19 59 -19
88 0 47 2 50 25 50 29 0 45 26 45 75 0 49 -16 75 -45 75 l-25 0 0 573 c0 314
0 753 0 975 l0 402 -85 0 -85 0 0 -722z m105 -1688 c12 -120 -12 -276 -32
-204 -18 66 -5 274 16 274 5 0 12 -31 16 -70z m0 -2863 c0 -120 -9 -177 -26
-160 -17 17 -22 145 -9 222 18 108 35 79 35 -62z"/>
</g>
</svg>
