<?xml version="1.0" standalone="no"?>
<!DOCTYPE svg PUBLIC "-//W3C//DTD SVG 20010904//EN"
 "http://www.w3.org/TR/2001/REC-SVG-20010904/DTD/svg10.dtd">
<svg version="1.0" xmlns="http://www.w3.org/2000/svg"
 width="2644.000000pt" height="2800.000000pt" viewBox="0 0 2644.000000 2800.000000"
 preserveAspectRatio="xMidYMid meet">

<g transform="translate(0.000000,2800.000000) scale(0.100000,-0.100000)"
fill="#3a4548" stroke="none">
<path d="M6726 16559 l2 -930 -26 -10 c-34 -13 -42 -26 -42 -70 0 -40 16 -66
45 -71 29 -5 29 -51 -2 -133 -25 -63 -27 -83 -28 -210 0 -129 2 -146 28 -217
32 -86 32 -121 2 -126 -28 -5 -45 -30 -45 -67 0 -37 17 -62 45 -67 20 -3 20
-12 22 -796 3 -746 2 -793 -15 -799 -35 -12 -52 -36 -52 -73 0 -41 16 -67 45
-72 30 -5 30 -47 -2 -130 -25 -68 -27 -84 -27 -218 -1 -134 2 -150 26 -212 31
-78 32 -121 3 -126 -28 -5 -45 -30 -45 -67 0 -37 17 -62 45 -67 20 -3 20 -12
23 -1082 3 -1196 8 -1113 -63 -1136 l-37 -12 23 -24 c19 -20 21 -27 11 -49 -7
-14 -23 -30 -37 -37 -19 -9 -25 -19 -25 -44 0 -17 6 -34 13 -36 28 -11 266 -7
322 4 60 13 60 13 60 48 0 29 -4 36 -23 38 -12 2 -30 15 -39 28 -15 24 -15 27
4 52 l21 27 -42 20 -41 20 -3 1093 c-2 942 0 1092 12 1092 27 0 46 30 46 74 0
46 -13 66 -43 66 -17 0 -18 6 -14 43 3 23 15 76 28 117 33 113 32 268 -4 373
-15 42 -27 95 -27 117 0 36 3 40 24 40 27 0 36 16 36 65 0 49 -9 65 -36 65
l-24 0 0 794 0 795 28 13 c20 10 28 22 30 47 5 52 -5 79 -31 83 -33 5 -33 50
-1 144 23 68 27 95 27 194 0 98 -4 127 -26 195 -32 97 -36 155 -9 155 28 0 42
21 42 63 0 48 -15 77 -40 77 -20 0 -20 12 -20 935 l0 935 -72 0 -73 0 1 -931z
m84 -1431 c0 -93 -11 -133 -24 -85 -8 29 -8 136 0 177 12 57 24 11 24 -92z m0
-2546 c0 -99 -11 -146 -23 -100 -9 30 -9 137 -1 177 12 59 24 20 24 -77z"/>
</g>
</svg>
