<?xml version="1.0" standalone="no"?>
<!DOCTYPE svg PUBLIC "-//W3C//DTD SVG 20010904//EN"
 "http://www.w3.org/TR/2001/REC-SVG-20010904/DTD/svg10.dtd">
<svg version="1.0" xmlns="http://www.w3.org/2000/svg"
 width="2644.000000pt" height="2800.000000pt" viewBox="0 0 2644.000000 2800.000000"
 preserveAspectRatio="xMidYMid meet">

<g transform="translate(0.000000,2800.000000) scale(0.100000,-0.100000)"
fill="#3a4548" stroke="none">
<path d="M14988 14533 l-78 -160 0 -762 c0 -656 -2 -761 -14 -761 -22 0 -46
-40 -46 -77 0 -48 16 -83 40 -83 17 0 20 -6 20 -43 0 -24 -10 -79 -22 -123
-31 -116 -31 -374 0 -488 29 -106 29 -154 0 -158 -27 -4 -41 -47 -33 -105 5
-35 11 -44 31 -49 l24 -6 0 -932 0 -931 -22 -10 c-29 -13 -42 -56 -34 -110 6
-35 11 -44 29 -47 32 -4 34 -67 5 -176 -32 -126 -33 -362 0 -475 12 -42 22
-95 22 -116 0 -33 -4 -40 -22 -43 -19 -2 -25 -12 -32 -51 -12 -60 1 -101 32
-105 l22 -3 0 -840 c0 -818 0 -839 -19 -858 -11 -11 -34 -27 -51 -36 l-32 -17
22 -23 c29 -31 20 -70 -20 -93 -26 -15 -30 -23 -30 -59 l0 -41 48 -6 c26 -3
91 -8 144 -12 87 -5 105 -3 163 17 l65 24 0 42 c0 36 -4 44 -27 55 -41 20 -52
61 -26 96 l21 29 -36 13 c-21 7 -43 17 -49 22 -10 8 -13 191 -13 854 0 831 0
843 20 849 46 15 47 140 1 160 -21 9 -22 15 -18 65 3 30 13 89 22 130 24 103
24 309 0 410 -21 90 -33 177 -26 188 4 4 15 12 26 18 41 23 36 154 -5 154 -20
0 -20 14 -20 935 0 788 2 935 14 935 24 0 38 27 38 74 0 61 -10 86 -33 86 -16
0 -19 7 -19 43 0 24 10 79 21 123 31 116 32 347 1 457 -26 90 -29 177 -8 177
22 0 35 24 37 66 3 73 0 84 -26 94 l-25 9 -2 918 -3 917 -77 -161z"/>
</g>
</svg>
