<?xml version="1.0" standalone="no"?>
<!DOCTYPE svg PUBLIC "-//W3C//DTD SVG 20010904//EN"
 "http://www.w3.org/TR/2001/REC-SVG-20010904/DTD/svg10.dtd">
<svg version="1.0" xmlns="http://www.w3.org/2000/svg"
 width="2644.000000pt" height="2800.000000pt" viewBox="0 0 2644.000000 2800.000000"
 preserveAspectRatio="xMidYMid meet">

<g transform="translate(0.000000,2800.000000) scale(0.100000,-0.100000)"
fill="#3a4548" stroke="none">
<path d="M15478 15528 l-78 -159 0 -749 0 -748 -26 -31 c-33 -39 -31 -91 4
-106 22 -9 23 -14 18 -75 -2 -36 -12 -94 -20 -130 -24 -100 -22 -316 4 -420
26 -109 27 -170 1 -170 -23 0 -31 -19 -31 -75 0 -56 8 -75 31 -75 19 0 19 -24
19 -914 0 -906 0 -915 -20 -921 -24 -8 -32 -36 -28 -101 3 -42 6 -49 26 -52
19 -3 22 -9 22 -51 0 -26 -9 -87 -20 -137 -25 -112 -27 -318 -4 -414 8 -36 18
-93 21 -127 4 -53 3 -63 -10 -63 -25 0 -38 -36 -35 -93 2 -42 7 -54 26 -63
l22 -11 0 -1311 c0 -721 -3 -1318 -6 -1327 -4 -9 -24 -25 -45 -36 -43 -21 -47
-30 -24 -49 30 -25 16 -74 -27 -96 -26 -14 -29 -19 -26 -57 l3 -42 45 -2 c25
-1 89 -8 142 -14 91 -10 101 -10 142 9 24 12 56 24 70 28 23 5 26 11 26 50 0
36 -3 44 -18 44 -24 0 -62 41 -62 65 0 10 9 29 21 41 l21 22 -39 12 c-21 7
-44 19 -50 28 -10 12 -13 295 -13 1334 0 804 4 1318 9 1318 24 0 41 34 41 80
0 62 -7 80 -32 80 -19 0 -20 5 -15 63 3 34 13 94 22 132 24 98 23 297 0 395
-10 41 -20 103 -22 138 -4 57 -3 62 15 62 25 0 32 18 32 78 0 52 -6 65 -32 75
-17 6 -18 59 -18 917 0 893 0 910 19 910 24 0 34 28 33 88 -1 46 -15 72 -38
72 -19 0 -18 70 2 140 9 33 18 116 21 205 5 123 2 165 -12 230 -10 44 -20 108
-23 143 -3 51 -1 62 12 62 24 0 37 36 34 93 -2 43 -7 54 -25 62 l-23 10 -2
895 -3 896 -77 -158z"/>
<path d="M15356 14234 c-3 -9 -6 -28 -6 -42 l0 -27 20 33 c11 18 20 37 20 42
0 16 -27 11 -34 -6z"/>
</g>
</svg>
