<?xml version="1.0" standalone="no"?>
<!DOCTYPE svg PUBLIC "-//W3C//DTD SVG 20010904//EN"
 "http://www.w3.org/TR/2001/REC-SVG-20010904/DTD/svg10.dtd">
<svg version="1.0" xmlns="http://www.w3.org/2000/svg"
 width="2644.000000pt" height="2800.000000pt" viewBox="0 0 2644.000000 2800.000000"
 preserveAspectRatio="xMidYMid meet">

<g transform="translate(0.000000,2800.000000) scale(0.100000,-0.100000)"
fill="#3a4548" stroke="none">
<path d="M18125 24949 l-45 -42 0 -938 0 -939 -34 0 c-58 0 -94 -67 -65 -122
6 -11 31 -29 55 -39 40 -18 44 -23 44 -55 0 -23 -11 -51 -30 -79 -59 -85 -74
-139 -74 -260 0 -122 19 -186 75 -257 23 -30 29 -47 29 -87 l0 -50 -33 6 c-38
6 -63 -12 -73 -53 -12 -48 4 -75 56 -97 l50 -21 0 -898 0 -898 -30 0 c-40 0
-80 -39 -80 -78 0 -41 33 -78 75 -86 34 -7 35 -9 35 -50 0 -27 -7 -52 -19 -67
-114 -147 -119 -377 -11 -534 23 -33 30 -55 30 -90 l0 -46 -34 6 c-28 6 -36 3
-55 -20 -41 -54 -17 -120 49 -134 l35 -7 0 -889 0 -890 -43 -23 c-40 -22 -41
-25 -27 -45 8 -12 15 -31 15 -43 0 -21 -28 -54 -47 -54 -11 0 -24 -59 -14 -64
3 -2 95 -1 204 2 181 4 197 6 197 23 0 10 -14 26 -30 36 -39 22 -48 55 -25 89
14 22 15 28 4 35 -8 5 -19 9 -25 9 -5 0 -20 9 -32 20 l-22 21 0 889 0 890 31
0 c43 0 65 15 78 50 18 53 -4 88 -71 109 -33 11 -38 17 -38 42 0 18 13 50 32
76 109 159 108 387 -3 526 -26 32 -30 44 -27 90 l3 52 40 0 c36 0 42 4 58 36
26 53 11 84 -53 111 l-50 21 0 898 0 899 33 0 c39 1 63 17 77 54 15 41 -6 76
-62 106 -59 31 -61 49 -12 125 106 167 103 380 -6 517 -25 31 -30 46 -30 93
l0 55 39 -6 c34 -5 41 -3 56 19 10 16 15 40 13 64 -3 35 -8 41 -55 66 l-53 28
0 954 0 954 -22 15 c-31 22 -33 21 -83 -25z m91 -2296 c39 -80 45 -201 14
-293 -43 -128 -91 -156 -128 -77 -54 115 -50 256 10 369 42 79 66 80 104 1z
m-2 -2917 c53 -106 46 -259 -17 -371 -32 -56 -60 -58 -87 -6 -54 107 -62 234
-21 340 48 121 79 130 125 37z"/>
</g>
</svg>
