<?xml version="1.0" standalone="no"?>
<!DOCTYPE svg PUBLIC "-//W3C//DTD SVG 20010904//EN"
 "http://www.w3.org/TR/2001/REC-SVG-20010904/DTD/svg10.dtd">
<svg version="1.0" xmlns="http://www.w3.org/2000/svg"
 width="3542.000000pt" height="3750.000000pt" viewBox="0 0 3542.000000 3750.000000"
 preserveAspectRatio="xMidYMid meet">

<g transform="translate(0.000000,3750.000000) scale(0.100000,-0.100000)"
fill="#65340A" stroke="none">
<path d="M12300 17678 c0 -1076 -7 -1231 -78 -1628 -44 -250 -34 -320 47 -345
29 -8 32 -13 29 -44 -3 -32 -6 -36 -42 -43 -62 -13 -68 -24 -35 -58 17 -17 29
-39 29 -55 0 -32 -44 -75 -76 -75 -14 0 -24 -6 -24 -14 0 -8 -13 -19 -30 -25
-40 -13 -43 -57 -5 -67 14 -3 30 -15 36 -25 5 -11 19 -19 30 -19 28 0 69 -44
69 -74 0 -14 -13 -37 -30 -55 -34 -33 -30 -39 35 -56 36 -10 40 -14 43 -45 2
-31 -2 -37 -30 -50 -79 -37 -90 -99 -54 -292 62 -330 86 -631 86 -1061 0 -446
-20 -709 -81 -1063 -20 -115 -29 -195 -25 -217 9 -47 39 -83 76 -90 26 -6 30
-11 30 -40 0 -32 -3 -34 -55 -51 l-56 -17 31 -35 c16 -19 30 -46 30 -59 0 -32
-32 -64 -70 -72 -17 -3 -30 -11 -30 -18 0 -7 -13 -18 -30 -24 -45 -15 -36 -71
12 -71 10 0 18 -6 18 -14 0 -8 11 -16 23 -20 77 -19 99 -83 46 -135 -27 -28
-29 -32 -12 -37 10 -3 26 -10 35 -15 10 -5 27 -9 38 -9 17 0 20 -7 20 -37 0
-33 -5 -40 -33 -54 -20 -9 -41 -32 -55 -60 -27 -52 -26 -76 11 -279 14 -74 33
-200 42 -280 9 -80 19 -161 22 -180 3 -19 8 -500 10 -1069 5 -1156 11 -1051
-70 -1087 -23 -10 -44 -19 -46 -21 -3 -2 5 -12 17 -23 41 -39 23 -93 -41 -124
-18 -10 -22 -20 -22 -57 l0 -46 117 -23 117 -23 138 22 c75 13 141 25 145 27
8 5 3 78 -7 94 -3 5 -12 10 -19 10 -21 0 -56 45 -56 73 0 15 9 36 21 48 11 11
19 22 17 23 -1 1 -27 13 -56 26 -34 15 -54 31 -58 45 -7 30 2 2070 10 2125 3
25 13 106 22 180 8 74 26 200 40 280 39 222 40 239 12 280 -14 21 -37 39 -56
45 -29 8 -32 13 -32 47 0 31 4 38 20 38 10 0 35 7 54 17 l35 16 -30 29 c-50
50 -29 115 44 133 15 4 27 13 27 21 0 8 8 14 18 14 48 0 57 56 12 71 -16 6
-30 17 -30 24 0 7 -13 15 -30 18 -71 15 -91 80 -39 133 l31 32 -56 17 c-54 17
-56 19 -56 52 0 26 5 35 23 42 34 13 75 66 83 106 3 20 -6 101 -25 207 -68
388 -85 647 -78 1168 6 427 17 561 73 903 24 143 34 230 29 254 -8 42 -54 93
-85 93 -18 0 -21 5 -18 36 3 34 7 38 44 49 65 19 68 23 34 55 -39 37 -41 80
-4 109 15 12 33 21 40 21 7 0 20 8 30 17 10 10 27 23 38 28 12 6 22 21 24 33
3 17 -3 25 -27 33 -17 6 -31 17 -31 25 0 8 -10 14 -25 14 -34 0 -75 42 -75 75
0 16 12 39 30 57 17 17 29 33 26 36 -3 3 -27 10 -53 17 -45 11 -48 15 -51 46
-2 30 1 36 35 54 22 11 46 35 56 55 22 42 19 80 -17 285 -27 153 -50 340 -66
539 -6 76 -10 518 -10 1072 l0 944 -95 0 -95 0 0 -932z"/>
</g>
</svg>
