<?xml version="1.0" standalone="no"?>
<!DOCTYPE svg PUBLIC "-//W3C//DTD SVG 20010904//EN"
 "http://www.w3.org/TR/2001/REC-SVG-20010904/DTD/svg10.dtd">
<svg version="1.0" xmlns="http://www.w3.org/2000/svg"
 width="3542.000000pt" height="3750.000000pt" viewBox="0 0 3542.000000 3750.000000"
 preserveAspectRatio="xMidYMid meet">

<g transform="translate(0.000000,3750.000000) scale(0.100000,-0.100000)"
fill="#65340A" stroke="none">
<path d="M21747 18733 c-3 -5 -5 -385 -5 -846 0 -461 -3 -879 -7 -930 -10
-139 -34 -348 -55 -483 -23 -141 -18 -173 34 -220 25 -23 33 -38 29 -53 -3
-12 -12 -21 -20 -21 -8 0 -27 -7 -43 -15 l-29 -15 24 -25 c42 -41 27 -97 -30
-111 -13 -3 -26 -12 -29 -20 -3 -8 -12 -14 -20 -14 -9 0 -20 -9 -26 -20 -9
-16 -6 -22 17 -37 16 -10 34 -23 41 -30 7 -7 19 -13 26 -13 20 0 46 -34 46
-60 0 -13 -12 -36 -27 -52 l-26 -27 46 -12 c62 -17 69 -48 21 -92 -52 -46 -57
-83 -35 -223 20 -122 45 -333 57 -484 4 -47 6 -260 6 -475 -1 -419 -13 -600
-57 -889 -29 -187 -25 -225 29 -257 27 -15 32 -24 28 -44 -2 -14 -8 -25 -12
-25 -4 0 -24 -7 -43 -15 l-36 -15 24 -25 c32 -31 33 -78 3 -99 -12 -9 -28 -16
-35 -16 -7 0 -22 -8 -32 -17 -11 -10 -26 -24 -35 -31 -19 -15 -11 -39 17 -48
12 -4 25 -11 28 -16 3 -5 21 -17 40 -26 46 -23 51 -63 14 -102 l-27 -28 43
-14 c61 -20 69 -50 25 -91 -55 -51 -61 -92 -38 -227 11 -63 28 -185 37 -270 8
-85 18 -173 22 -195 3 -22 7 -435 10 -918 l4 -878 -22 -20 c-12 -10 -36 -24
-54 -31 l-33 -11 20 -28 c27 -36 18 -73 -22 -91 -26 -11 -30 -18 -30 -54 0
-48 -7 -45 153 -64 61 -7 107 -7 155 0 37 6 82 13 100 16 31 5 32 7 32 49 0
32 -4 45 -14 45 -47 0 -78 79 -42 105 23 17 21 21 -26 40 -24 9 -46 22 -50 28
-4 7 -8 392 -8 857 0 913 4 991 57 1367 23 166 25 197 14 234 -9 31 -20 44
-42 53 -25 9 -29 15 -27 40 2 25 9 31 38 39 50 12 55 21 26 50 -42 42 -30 88
29 107 19 6 35 15 35 19 0 4 11 13 25 19 15 7 25 20 25 32 0 13 -9 22 -25 26
-14 3 -25 12 -25 20 0 8 -8 14 -19 14 -26 0 -71 38 -71 60 0 10 11 32 25 48
14 17 25 32 25 35 0 3 -20 11 -45 18 -57 17 -61 46 -11 93 19 18 38 45 42 61
4 18 -3 105 -20 220 -49 353 -51 371 -51 860 0 495 4 569 51 895 14 96 23 190
20 209 -6 36 -41 81 -63 81 -8 0 -13 12 -13 34 0 31 3 34 39 40 51 8 57 19 26
50 -14 14 -25 34 -25 46 0 25 32 58 65 66 14 3 25 10 25 15 0 5 12 14 26 19
31 12 29 41 -4 55 -12 5 -22 15 -22 22 0 7 -8 13 -19 13 -26 0 -71 38 -71 60
0 10 11 32 25 48 14 17 25 32 25 35 0 3 -20 11 -45 18 -39 12 -45 17 -45 40 0
17 9 32 25 43 13 9 32 30 41 48 19 36 17 65 -15 278 -11 74 -25 194 -31 265
-5 72 -12 155 -15 185 -2 30 -4 427 -5 883 l0 827 -79 0 c-44 0 -82 -3 -84 -7z"/>
</g>
</svg>
