<?xml version="1.0" standalone="no"?>
<!DOCTYPE svg PUBLIC "-//W3C//DTD SVG 20010904//EN"
 "http://www.w3.org/TR/2001/REC-SVG-20010904/DTD/svg10.dtd">
<svg version="1.0" xmlns="http://www.w3.org/2000/svg"
 width="3542.000000pt" height="3750.000000pt" viewBox="0 0 3542.000000 3750.000000"
 preserveAspectRatio="xMidYMid meet">

<g transform="translate(0.000000,3750.000000) scale(0.100000,-0.100000)"
fill="#65340A" stroke="none">
<path d="M28570 17793 c0 -512 -5 -950 -10 -1018 -12 -143 -42 -351 -75 -520
-19 -95 -22 -130 -14 -158 10 -37 59 -87 85 -87 11 0 14 -10 12 -37 -3 -33 -7
-38 -38 -46 -50 -12 -58 -23 -32 -47 34 -32 38 -67 11 -96 -12 -13 -28 -24
-35 -24 -7 0 -19 -6 -26 -13 -7 -7 -25 -20 -40 -30 -36 -23 -35 -43 2 -62 17
-9 30 -20 30 -25 0 -6 9 -10 20 -10 27 0 70 -43 70 -69 0 -11 -12 -34 -27 -51
-30 -36 -24 -45 35 -56 28 -5 32 -10 32 -38 0 -27 -5 -34 -35 -45 -41 -15 -66
-56 -67 -109 0 -20 9 -84 20 -142 70 -362 85 -568 80 -1090 -5 -462 -16 -582
-78 -897 -31 -157 -29 -196 12 -240 12 -14 33 -29 46 -34 19 -7 23 -15 20 -41
-3 -27 -8 -33 -38 -41 -52 -13 -56 -22 -26 -57 14 -17 26 -40 26 -51 0 -24
-32 -57 -65 -65 -14 -3 -25 -10 -25 -15 0 -4 -12 -14 -27 -21 -17 -8 -28 -21
-28 -33 0 -12 11 -25 28 -33 15 -7 27 -17 27 -21 0 -5 11 -12 25 -15 30 -8 65
-44 65 -67 0 -10 -12 -31 -26 -48 -31 -37 -25 -49 27 -57 36 -6 39 -9 39 -39
0 -27 -5 -35 -29 -43 -37 -13 -67 -46 -74 -82 -4 -16 5 -84 18 -152 81 -416
87 -525 88 -1548 0 -487 -3 -895 -7 -908 -5 -14 -26 -31 -57 -45 -47 -22 -48
-23 -29 -40 29 -25 26 -71 -6 -96 -15 -12 -33 -21 -40 -21 -10 0 -14 -14 -14
-45 0 -50 -9 -45 120 -64 148 -22 183 -22 270 -4 l85 18 3 46 c3 43 1 47 -28
59 -54 22 -65 66 -26 105 l24 24 -49 16 c-27 9 -54 26 -60 36 -7 14 -9 314 -6
962 3 892 5 951 25 1107 12 91 33 226 47 300 40 205 41 220 16 269 -15 29 -33
47 -57 57 -28 12 -34 20 -34 43 0 26 5 31 50 46 28 9 50 18 50 20 0 2 -11 15
-25 29 -46 46 -27 105 38 121 15 4 27 13 27 21 0 8 9 14 20 14 25 0 41 30 29
53 -6 9 -19 17 -29 17 -11 0 -20 7 -20 15 0 8 -8 15 -19 15 -10 0 -30 9 -45
21 -34 27 -35 71 -1 105 14 14 25 27 25 29 0 2 -21 11 -47 18 -42 12 -48 18
-51 44 -3 26 1 31 30 39 20 6 42 23 56 44 28 41 27 64 -12 269 -25 135 -48
310 -65 496 -12 143 -13 726 -1 880 14 179 37 349 66 507 39 203 40 227 12
268 -13 19 -38 42 -55 50 -27 12 -33 21 -33 48 0 26 4 32 20 32 12 0 35 7 51
16 l30 15 -25 26 c-18 18 -26 37 -26 60 0 31 4 36 45 54 25 11 45 24 45 29 0
6 5 10 12 10 6 0 20 7 29 16 14 13 16 21 8 35 -5 11 -16 19 -24 19 -8 0 -18 6
-22 13 -4 7 -22 19 -40 26 -63 26 -74 73 -28 121 30 32 30 32 -35 48 -32 7
-35 12 -35 42 0 27 5 36 20 38 32 6 74 53 81 91 4 20 1 63 -5 96 -26 123 -53
285 -73 440 -20 150 -21 217 -25 1108 l-4 947 -90 0 -89 0 0 -897z"/>
</g>
</svg>
