<?xml version="1.0" standalone="no"?>
<!DOCTYPE svg PUBLIC "-//W3C//DTD SVG 20010904//EN"
 "http://www.w3.org/TR/2001/REC-SVG-20010904/DTD/svg10.dtd">
<svg version="1.0" xmlns="http://www.w3.org/2000/svg"
 width="3542.000000pt" height="3750.000000pt" viewBox="0 0 3542.000000 3750.000000"
 preserveAspectRatio="xMidYMid meet">

<g transform="translate(0.000000,3750.000000) scale(0.100000,-0.100000)"
fill="#65340A" stroke="none">
<path d="M3577 17333 c-3 -1113 -4 -1164 -25 -1326 -26 -204 -43 -307 -83
-504 -21 -102 -29 -163 -25 -187 9 -49 59 -104 102 -112 33 -6 34 -8 34 -50 0
-40 -2 -44 -25 -44 -14 0 -42 -7 -62 -15 l-36 -15 30 -33 c38 -40 47 -67 32
-100 -12 -26 -63 -57 -93 -57 -9 0 -16 -6 -16 -14 0 -7 -13 -19 -29 -26 -51
-21 -51 -59 0 -80 16 -7 29 -18 29 -26 0 -7 16 -16 35 -20 39 -7 85 -53 85
-85 0 -10 -16 -37 -36 -59 l-36 -40 34 -14 c19 -8 46 -18 61 -21 23 -6 27 -12
27 -45 0 -35 -3 -39 -35 -50 -64 -21 -113 -106 -102 -179 3 -20 19 -101 36
-181 36 -170 75 -448 91 -642 12 -160 12 -992 -1 -1123 -20 -203 -53 -432 -90
-623 -33 -170 -38 -209 -29 -241 12 -45 55 -86 100 -96 27 -6 30 -10 30 -45 0
-33 -4 -39 -27 -45 -15 -3 -43 -13 -62 -21 -35 -15 -35 -15 -13 -30 25 -18 52
-65 52 -92 0 -24 -48 -69 -82 -77 -16 -4 -28 -11 -28 -17 0 -5 -16 -16 -35
-24 -26 -10 -35 -20 -35 -37 0 -28 17 -47 43 -47 10 0 21 -9 24 -19 3 -11 17
-21 34 -25 39 -7 79 -49 79 -81 0 -15 -14 -41 -35 -64 -35 -39 -36 -39 -13
-46 13 -3 32 -10 43 -15 11 -4 28 -11 38 -14 21 -7 25 -86 4 -86 -24 0 -84
-49 -100 -82 -32 -68 -32 -71 17 -300 21 -99 52 -293 71 -443 21 -163 25 -398
25 -1377 0 -603 -3 -1104 -6 -1112 -3 -9 -10 -16 -15 -16 -5 0 -33 -11 -62
-26 l-54 -25 29 -30 c24 -24 29 -35 23 -57 -8 -35 -29 -57 -66 -72 -29 -12
-30 -15 -27 -69 l3 -56 105 -28 c117 -31 117 -31 368 15 l113 20 -3 57 c-3 49
-6 56 -25 59 -12 2 -33 15 -47 29 -34 34 -34 76 0 108 l27 25 -59 26 c-32 14
-64 33 -71 42 -11 14 -12 230 -10 1167 2 633 7 1166 10 1185 3 19 13 100 22
180 17 149 55 385 81 500 21 89 28 154 20 184 -10 41 -55 85 -97 96 -39 11
-40 13 -37 48 2 30 8 38 28 43 30 6 90 30 90 34 0 2 -13 17 -30 33 -55 55 -33
134 42 149 18 3 33 14 35 25 3 10 13 18 23 18 24 0 54 36 46 56 -3 8 -20 21
-36 27 -17 6 -30 16 -30 23 0 6 -17 16 -38 22 -81 24 -99 89 -41 148 28 29 31
36 19 44 -8 5 -23 10 -32 10 -9 0 -20 5 -23 10 -3 6 -17 10 -31 10 -21 0 -24
4 -24 40 0 30 5 42 18 46 65 21 110 74 119 142 3 23 -5 86 -20 158 -25 114
-50 254 -62 339 -3 22 -8 51 -10 65 -7 39 -24 195 -32 305 -13 165 -9 974 5
1130 16 175 65 510 93 635 31 143 35 200 13 245 -19 40 -66 75 -101 75 -20 0
-23 5 -23 40 0 24 5 42 13 44 6 2 33 10 60 16 26 7 47 16 47 21 0 4 -13 21
-30 37 -54 54 -27 133 50 148 16 4 30 12 30 18 0 7 15 19 33 27 24 10 32 20
32 39 0 19 -8 29 -32 39 -18 8 -33 20 -33 27 0 7 -13 15 -30 19 -82 18 -107
90 -50 147 17 16 30 33 30 37 0 5 -27 16 -60 25 -60 17 -60 17 -60 55 0 34 3
40 28 46 45 11 73 34 93 78 25 56 24 86 -10 251 -34 163 -65 361 -88 561 -14
119 -17 311 -20 1268 l-4 1127 -109 0 -109 0 -4 -1157z"/>
</g>
</svg>
