<?xml version="1.0" standalone="no"?>
<!DOCTYPE svg PUBLIC "-//W3C//DTD SVG 20010904//EN"
 "http://www.w3.org/TR/2001/REC-SVG-20010904/DTD/svg10.dtd">
<svg version="1.0" xmlns="http://www.w3.org/2000/svg"
 width="2644.000000pt" height="2800.000000pt" viewBox="0 0 2644.000000 2800.000000"
 preserveAspectRatio="xMidYMid meet">

<g transform="translate(0.000000,2800.000000) scale(0.100000,-0.100000)"
fill="#65340A" stroke="none">
<path d="M7860 16722 l0 -687 -36 -20 c-133 -71 -253 -325 -283 -598 -29 -261
-18 -333 168 -1023 45 -166 81 -309 81 -318 0 -13 -11 -16 -58 -16 -36 0 -66
-6 -80 -16 -52 -36 -86 -158 -62 -228 18 -57 33 -66 105 -66 58 0 66 3 81 25
9 14 19 45 22 70 l5 45 -52 0 c-48 0 -51 -1 -51 -26 0 -15 -4 -23 -11 -19 -22
14 24 165 51 165 30 0 120 -200 120 -268 0 -19 6 -43 14 -51 16 -18 69 -218
87 -326 17 -106 14 -353 -6 -470 -33 -195 -84 -332 -143 -388 -38 -36 -62 -30
-103 25 -70 97 -92 284 -45 384 29 62 41 71 57 43 18 -34 6 -119 -20 -140 -35
-28 -25 -39 34 -39 52 0 57 2 75 33 14 23 20 50 20 95 0 57 -3 67 -29 93 -27
27 -33 28 -100 25 -79 -3 -100 -16 -131 -77 -47 -91 -46 -240 2 -364 21 -56
77 -127 108 -137 10 -3 2 -15 -28 -42 -202 -183 -160 -803 65 -946 27 -17 61
-30 79 -30 69 0 64 57 64 -670 0 -719 4 -674 -58 -699 -30 -13 -30 -13 -11
-32 10 -10 19 -26 19 -34 0 -15 -38 -55 -52 -55 -4 0 -8 -15 -8 -34 l0 -33
109 -13 c61 -7 118 -9 128 -5 10 5 41 11 68 14 49 6 50 6 53 44 3 31 0 38 -21
46 -22 9 -37 29 -37 52 0 5 9 18 20 29 l20 20 -27 10 c-63 22 -58 -35 -61 702
l-2 675 26 14 c47 25 132 129 178 218 104 202 149 499 116 771 -6 47 -62 280
-125 517 -63 238 -115 437 -115 443 0 5 24 10 54 10 66 0 105 28 131 92 22 55
22 145 1 187 -16 30 -18 31 -86 31 -69 0 -71 -1 -90 -32 -11 -18 -20 -50 -20
-71 l0 -38 47 3 c41 3 48 6 54 28 6 21 7 18 8 -15 1 -41 -35 -130 -53 -130
-26 0 -135 257 -123 289 3 8 -1 23 -8 33 -17 24 -69 229 -84 330 -14 91 -14
313 -1 421 24 188 93 381 151 422 27 20 32 21 53 6 51 -33 102 -153 112 -266
7 -71 -11 -157 -41 -195 l-15 -20 -16 20 c-23 29 -14 113 15 136 34 28 25 39
-32 39 -71 0 -89 -20 -95 -100 -5 -68 10 -115 41 -132 11 -6 49 -13 84 -15 62
-4 65 -3 97 29 38 38 54 84 62 178 11 126 -43 294 -112 347 l-35 26 36 29 c88
73 119 180 119 408 -1 186 -17 268 -78 395 -58 121 -143 195 -224 195 l-32 0
0 680 0 680 -70 0 -70 0 0 -688z m174 -726 c122 -72 207 -297 207 -547 0 -170
-39 -308 -102 -365 -62 -56 -150 85 -151 240 0 72 26 168 47 170 18 2 29 -90
17 -131 -17 -56 -16 -57 36 -57 47 0 47 0 61 42 19 62 7 145 -27 182 -26 28
-29 29 -89 21 -76 -9 -105 -33 -129 -103 -26 -79 -16 -226 20 -301 15 -32 43
-70 62 -85 19 -15 34 -29 34 -32 0 -3 -13 -11 -30 -18 -78 -35 -150 -224 -185
-485 -4 -27 -9 -46 -12 -44 -5 6 -18 53 -93 342 -61 239 -78 392 -61 555 31
299 147 541 293 614 29 14 54 26 57 26 2 0 23 -11 45 -24z m114 -3226 c76
-292 84 -341 83 -515 0 -317 -105 -618 -255 -731 -102 -77 -132 -78 -200 -10
-52 52 -99 144 -127 251 -41 156 -26 413 31 525 27 54 78 110 99 110 63 0 122
-175 102 -302 -11 -66 -37 -132 -49 -124 -18 11 -22 83 -7 132 8 27 15 50 15
52 0 1 -23 2 -50 2 -45 0 -52 -3 -60 -26 -18 -45 -12 -146 10 -181 17 -29 25
-33 62 -33 24 0 49 -4 57 -9 21 -14 65 12 89 51 33 55 44 106 44 198 0 105
-29 180 -95 248 -23 23 -37 42 -31 42 22 0 78 68 106 126 34 74 73 223 89 351
7 51 16 90 19 86 4 -5 35 -114 68 -243z"/>
</g>
</svg>
