<?xml version="1.0" standalone="no"?>
<!DOCTYPE svg PUBLIC "-//W3C//DTD SVG 20010904//EN"
 "http://www.w3.org/TR/2001/REC-SVG-20010904/DTD/svg10.dtd">
<svg version="1.0" xmlns="http://www.w3.org/2000/svg"
 width="2644.000000pt" height="2800.000000pt" viewBox="0 0 2644.000000 2800.000000"
 preserveAspectRatio="xMidYMid meet">

<g transform="translate(0.000000,2800.000000) scale(0.100000,-0.100000)"
fill="#65340A" stroke="none">
<path d="M18133 24921 l-53 -48 0 -527 c0 -444 -2 -526 -14 -526 -8 0 -55 -21
-105 -46 -263 -131 -458 -384 -532 -689 -17 -69 -22 -122 -23 -225 0 -207 19
-276 166 -584 55 -116 122 -256 148 -311 26 -55 80 -167 120 -250 114 -236
160 -337 160 -348 0 -6 -17 5 -37 25 -21 21 -64 48 -96 62 -100 45 -195 31
-273 -37 -144 -127 -107 -300 68 -314 59 -5 66 -3 96 22 64 54 82 128 36 145
-37 15 -41 13 -48 -22 -9 -47 -33 -78 -72 -94 -42 -18 -66 -7 -84 36 -40 97
77 240 197 240 58 0 90 -18 148 -82 87 -97 137 -176 141 -221 3 -32 10 -47 30
-61 44 -32 149 -270 183 -413 66 -284 10 -604 -149 -848 -52 -80 -96 -120
-175 -156 -50 -24 -75 -29 -150 -30 -107 -2 -144 13 -216 88 -107 111 -141
263 -84 379 30 62 71 97 139 120 89 30 156 -7 156 -87 0 -46 -37 -95 -80 -104
-55 -12 -32 -45 31 -45 48 0 85 26 109 75 37 76 14 147 -58 184 -131 66 -265
36 -348 -79 -68 -94 -72 -216 -11 -342 51 -107 118 -170 219 -209 l56 -21 -78
-39 c-130 -65 -219 -184 -251 -334 -18 -82 -15 -246 5 -325 8 -36 37 -108 63
-160 37 -74 63 -110 118 -165 116 -114 239 -167 448 -191 l47 -5 -2 -562 -3
-562 -42 -20 c-46 -22 -50 -29 -28 -51 8 -9 15 -26 15 -38 0 -23 -28 -56 -47
-56 -12 0 -25 -52 -15 -62 4 -3 96 -4 205 -1 l197 6 0 23 c0 13 -6 24 -13 24
-21 0 -57 39 -57 60 0 11 9 29 20 40 20 20 20 20 -23 41 -23 12 -45 27 -49 33
-12 18 -10 1156 2 1156 6 0 46 14 90 31 101 39 216 114 303 198 269 258 373
667 261 1022 -21 68 -184 417 -468 1003 -53 110 -94 202 -91 204 3 3 22 -10
43 -30 46 -45 82 -63 153 -77 67 -14 119 -5 183 33 49 29 77 62 107 131 35 79
3 161 -77 195 -104 45 -190 7 -225 -97 -10 -32 -9 -38 7 -50 10 -7 28 -13 40
-13 17 0 23 8 29 37 8 46 57 93 95 93 37 0 70 -41 70 -87 0 -108 -137 -218
-247 -199 -78 14 -271 256 -264 331 2 27 -3 37 -27 55 -33 24 -106 169 -147
290 -73 215 -71 485 6 711 38 114 120 259 179 319 75 76 140 105 258 114 84 7
97 5 139 -15 135 -65 231 -260 194 -395 -14 -53 -61 -117 -109 -149 -41 -27
-122 -42 -167 -31 -33 8 -59 65 -50 107 8 35 59 89 85 89 28 0 36 21 15 37
-52 37 -143 -10 -166 -87 -26 -88 17 -157 116 -186 152 -44 284 23 341 172 28
73 16 186 -30 278 -43 87 -93 136 -197 191 l-71 37 68 33 c120 58 215 180 250
318 25 99 25 278 -1 367 -55 192 -175 335 -360 428 -84 42 -135 55 -245 61
l-95 6 -2 544 c-3 632 2 606 -100 512z m310 -1116 c150 -32 293 -147 365 -296
58 -116 74 -184 73 -309 0 -170 -39 -278 -139 -382 -80 -84 -138 -110 -259
-113 -86 -3 -102 -1 -145 21 -91 46 -157 174 -144 277 10 72 40 130 93 177 56
49 113 69 146 51 60 -32 75 -122 31 -186 -29 -43 -26 -60 10 -67 31 -6 58 22
77 79 29 90 -36 193 -142 223 -82 24 -203 -51 -256 -157 -86 -176 21 -387 232
-458 16 -5 8 -11 -38 -29 -76 -31 -147 -87 -198 -155 -47 -64 -117 -205 -148
-301 -48 -149 -70 -346 -52 -474 6 -44 9 -81 7 -83 -2 -3 -29 46 -59 109 -29
62 -124 260 -211 439 -168 351 -198 436 -212 601 -22 278 102 599 306 792 111
105 203 161 340 210 124 45 217 54 323 31z m-25 -3297 c16 -35 108 -227 204
-428 204 -424 223 -477 243 -660 7 -67 -10 -235 -31 -310 -63 -228 -206 -434
-388 -559 -120 -83 -296 -141 -425 -141 -157 0 -272 51 -385 171 -124 132
-180 277 -180 464 0 171 43 287 140 381 80 79 140 104 244 102 62 0 95 -6 123
-20 84 -42 158 -148 173 -245 19 -127 -110 -284 -221 -271 -68 8 -97 136 -46
206 13 18 22 34 20 35 -2 1 -14 8 -27 15 -20 11 -25 10 -47 -14 -48 -52 -57
-127 -22 -194 42 -85 151 -113 252 -66 162 75 207 284 95 440 -37 52 -73 80
-154 123 -38 19 -55 33 -46 36 161 51 236 122 330 312 88 179 127 364 118 570
-3 63 -4 115 -2 115 2 0 16 -28 32 -62z"/>
</g>
</svg>
