<?xml version="1.0" standalone="no"?>
<!DOCTYPE svg PUBLIC "-//W3C//DTD SVG 20010904//EN"
 "http://www.w3.org/TR/2001/REC-SVG-20010904/DTD/svg10.dtd">
<svg version="1.0" xmlns="http://www.w3.org/2000/svg"
 width="2550.000000pt" height="2700.000000pt" viewBox="0 0 2550.000000 2700.000000"
 preserveAspectRatio="xMidYMid meet">

<g transform="translate(0.000000,2700.000000) scale(0.100000,-0.100000)"
fill="#C5C3C1" stroke="none">
<path d="M15476 19781 l-48 -49 1 -571 1 -571 -130 0 -130 0 0 -2516 0 -2516
128 4 127 3 0 -327 c0 -179 -3 -324 -7 -321 -5 2 -8 0 -8 -6 0 -6 -10 -15 -21
-22 -17 -9 -20 -8 -14 3 6 10 5 10 -4 2 -10 -9 -10 -17 2 -35 21 -33 16 -74
-9 -74 -16 0 -20 -8 -22 -47 -4 -59 -1 -60 163 -56 l120 3 3 47 c2 38 -1 49
-16 57 -29 15 -34 39 -15 68 16 24 16 26 -2 39 -10 8 -24 14 -31 14 -21 0 -24
40 -24 348 l0 302 23 1 c12 0 73 1 135 1 l112 1 -2 2511 -3 2511 -133 3 -132
3 2 619 c2 423 0 620 -7 620 -6 0 -32 -22 -59 -49z m-163 -1308 c-7 -2 -19 -2
-25 0 -7 3 -2 5 12 5 14 0 19 -2 13 -5z m50 0 c-7 -2 -19 -2 -25 0 -7 3 -2 5
12 5 14 0 19 -2 13 -5z m328 -1995 c0 -1102 1 -2186 2 -2409 l2 -406 -81 2
c-45 1 -87 6 -94 10 -8 5 -11 4 -7 -2 5 -8 -155 -9 -228 -1 -6 1 -9 106 -8
297 1 163 2 1240 2 2394 l1 2097 203 2 202 2 -150 6 -150 6 153 2 152 2 1
-2002z"/>
</g>
</svg>
