<?xml version="1.0" standalone="no"?>
<!DOCTYPE svg PUBLIC "-//W3C//DTD SVG 20010904//EN"
 "http://www.w3.org/TR/2001/REC-SVG-20010904/DTD/svg10.dtd">
<svg version="1.0" xmlns="http://www.w3.org/2000/svg"
 width="2550.000000pt" height="2700.000000pt" viewBox="0 0 2550.000000 2700.000000"
 preserveAspectRatio="xMidYMid meet">

<g transform="translate(0.000000,2700.000000) scale(0.100000,-0.100000)"
fill="#C5C3C1" stroke="none">
<path d="M18210 22375 l-44 -45 3 -595 c2 -457 0 -599 -9 -610 -10 -12 -40
-15 -137 -15 l-124 0 5 -2512 4 -2513 129 -5 128 -5 0 -735 0 -735 -32 -20
c-21 -13 -30 -25 -26 -35 17 -44 14 -67 -11 -87 -18 -15 -26 -30 -26 -52 l0
-31 144 0 144 0 4 30 c3 23 -1 33 -17 44 -28 18 -37 59 -19 85 13 17 10 21
-21 40 l-35 20 0 739 0 739 68 6 c37 4 95 7 130 7 l62 0 -2 2518 -3 2517 -127
-4 -128 -4 0 652 c0 358 -4 651 -8 651 -4 0 -28 -20 -52 -45z m215 -1367 c3
-13 4 -1105 3 -2428 l-3 -2405 -208 -3 -207 -2 2 2422 3 2423 155 5 c85 3 176
7 202 8 42 2 48 -1 53 -20z"/>
</g>
</svg>
