<?xml version="1.0" standalone="no"?>
<!DOCTYPE svg PUBLIC "-//W3C//DTD SVG 20010904//EN"
 "http://www.w3.org/TR/2001/REC-SVG-20010904/DTD/svg10.dtd">
<svg version="1.0" xmlns="http://www.w3.org/2000/svg"
 width="2550.000000pt" height="2700.000000pt" viewBox="0 0 2550.000000 2700.000000"
 preserveAspectRatio="xMidYMid meet">

<g transform="translate(0.000000,2700.000000) scale(0.100000,-0.100000)"
fill="#C5C3C1" stroke="none">
<path d="M19034 23249 l-49 -50 0 -582 0 -582 -45 -7 c-25 -4 -81 -11 -124
-15 l-79 -8 2 -2519 c1 -1385 4 -2523 7 -2528 3 -5 57 -8 122 -6 l117 3 3
-323 2 -322 -32 -20 c-18 -11 -37 -22 -43 -23 -5 -2 -2 -13 8 -24 25 -28 21
-49 -13 -75 -21 -15 -30 -30 -30 -50 l0 -28 103 0 c56 0 132 3 170 7 55 5 67
9 67 24 0 10 -13 27 -30 39 -33 24 -39 54 -14 81 16 17 15 19 -10 29 -15 5
-33 10 -41 10 -11 0 -13 57 -12 338 l2 337 40 2 c22 2 77 5 123 9 l82 6 0
2533 c0 2256 -2 2535 -15 2543 -9 4 -46 5 -83 1 -37 -5 -86 -8 -109 -8 l-43
-1 0 624 c0 519 -2 625 -14 629 -8 3 -34 -16 -62 -44z m204 -3743 c1 -1337 -1
-2433 -5 -2437 -5 -4 -90 -11 -190 -15 l-183 -7 0 2432 c0 1936 3 2433 13
2436 21 9 219 23 292 21 l70 -1 3 -2429z"/>
</g>
</svg>
