<?xml version="1.0" standalone="no"?>
<!DOCTYPE svg PUBLIC "-//W3C//DTD SVG 20010904//EN"
 "http://www.w3.org/TR/2001/REC-SVG-20010904/DTD/svg10.dtd">
<svg version="1.0" xmlns="http://www.w3.org/2000/svg"
 width="2550.000000pt" height="2700.000000pt" viewBox="0 0 2550.000000 2700.000000"
 preserveAspectRatio="xMidYMid meet">

<g transform="translate(0.000000,2700.000000) scale(0.100000,-0.100000)"
fill="#C5C3C1" stroke="none">
<path d="M20720 25157 l-41 -53 1 -596 1 -596 -63 -10 c-35 -6 -87 -14 -116
-17 l-52 -7 2 -2576 3 -2577 30 1 c17 1 66 3 110 5 l80 4 0 -330 0 -330 -41
-21 -40 -20 19 -26 c19 -25 19 -28 4 -52 -9 -13 -26 -27 -37 -31 -13 -4 -20
-15 -20 -32 0 -24 2 -25 43 -19 23 3 106 8 185 12 78 4 145 10 147 15 3 4 -8
16 -25 25 -38 23 -46 48 -26 79 9 13 16 26 16 29 0 6 -61 20 -85 18 -12 0 -14
1 -5 4 13 4 15 49 12 344 -2 271 0 341 10 344 11 4 161 15 206 16 9 0 12 526
12 2594 l0 2594 -23 6 c-13 3 -61 -1 -108 -8 -53 -9 -88 -10 -96 -4 -9 7 -11
161 -8 626 3 424 0 620 -7 629 -20 25 -47 13 -88 -40z m194 -1344 c3 -10 5
-1126 4 -2480 0 -1825 -3 -2465 -12 -2471 -11 -10 -305 -32 -318 -25 -5 2 -8
1113 -8 2469 l0 2464 23 10 c19 8 237 45 289 49 9 0 19 -7 22 -16z"/>
</g>
</svg>
