<?xml version="1.0" standalone="no"?>
<!DOCTYPE svg PUBLIC "-//W3C//DTD SVG 20010904//EN"
 "http://www.w3.org/TR/2001/REC-SVG-20010904/DTD/svg10.dtd">
<svg version="1.0" xmlns="http://www.w3.org/2000/svg"
 width="2550.000000pt" height="2700.000000pt" viewBox="0 0 2550.000000 2700.000000"
 preserveAspectRatio="xMidYMid meet">

<g transform="translate(0.000000,2700.000000) scale(0.100000,-0.100000)"
fill="#C5C3C1" stroke="none">
<path d="M21576 26217 l-45 -53 5 -627 5 -627 -23 -8 c-13 -5 -63 -15 -113
-22 -49 -7 -93 -16 -97 -19 -4 -4 -8 -1179 -9 -2611 l-1 -2605 28 -3 c16 -2
66 -1 112 3 82 7 82 7 82 35 0 15 6 30 14 33 7 3 95 13 195 23 l181 18 0 2593
0 2593 -23 9 c-15 6 -50 4 -98 -5 -41 -8 -84 -14 -96 -14 l-23 0 0 656 c0 614
-1 658 -17 670 -10 7 -21 14 -25 14 -3 0 -27 -24 -52 -53z m198 -1413 c10 -27
7 -5012 -3 -5019 -15 -9 -321 -36 -332 -30 -11 7 -13 4984 -1 5001 5 8 238 54
318 63 7 0 15 -6 18 -15z"/>
<path d="M21534 18730 c1 -286 -1 -541 -3 -566 -3 -42 -6 -47 -40 -61 -47 -20
-45 -17 -25 -48 14 -22 15 -30 4 -49 -7 -13 -23 -29 -36 -35 -15 -6 -24 -19
-24 -32 0 -21 3 -22 73 -16 39 4 125 10 190 13 113 7 149 17 110 31 -50 18
-67 60 -37 94 14 16 13 18 -19 30 -20 7 -40 23 -46 36 -8 16 -11 199 -11 567
l0 543 -46 7 c-26 3 -57 6 -69 6 l-21 0 0 -520z m146 -626 c0 -2 -7 -4 -15 -4
-8 0 -15 4 -15 10 0 5 7 7 15 4 8 -4 15 -8 15 -10z"/>
</g>
</svg>
