<?xml version="1.0" standalone="no"?>
<!DOCTYPE svg PUBLIC "-//W3C//DTD SVG 20010904//EN"
 "http://www.w3.org/TR/2001/REC-SVG-20010904/DTD/svg10.dtd">
<svg version="1.0" xmlns="http://www.w3.org/2000/svg"
 width="2550.000000pt" height="2700.000000pt" viewBox="0 0 2550.000000 2700.000000"
 preserveAspectRatio="xMidYMid meet">

<g transform="translate(0.000000,2700.000000) scale(0.100000,-0.100000)"
fill="#C5C3C1" stroke="none">
<path d="M11190 15456 l-65 -74 -5 -523 -5 -524 -120 -5 -120 -5 3 -155 c1
-85 5 -1255 10 -2600 l7 -2445 113 2 112 2 0 -739 c0 -406 -3 -746 -6 -755 -4
-9 -24 -23 -45 -32 -36 -14 -52 -33 -29 -33 5 0 13 -11 16 -26 5 -18 0 -32
-17 -50 -12 -13 -29 -24 -36 -24 -10 0 -13 -11 -11 -37 l3 -37 75 -18 c44 -11
92 -16 115 -12 22 3 73 9 114 15 41 5 78 14 81 19 10 17 -1 70 -15 70 -17 0
-45 33 -45 55 0 10 7 27 17 37 9 10 14 19 12 21 -2 1 -22 11 -44 22 l-40 20 0
760 0 760 109 12 c59 6 110 13 111 15 9 9 9 5168 0 5169 -5 0 -56 0 -112 -1
l-103 -1 -1 73 c-1 40 -5 308 -8 595 l-6 522 -65 -73z m160 -3698 c0 -1360 -4
-2478 -8 -2484 -7 -10 -299 -44 -308 -35 -2 2 -4 1126 -4 2498 l0 2493 160 0
160 0 0 -2472z"/>
</g>
</svg>
