<?xml version="1.0" standalone="no"?>
<!DOCTYPE svg PUBLIC "-//W3C//DTD SVG 20010904//EN"
 "http://www.w3.org/TR/2001/REC-SVG-20010904/DTD/svg10.dtd">
<svg version="1.0" xmlns="http://www.w3.org/2000/svg"
 width="2644.000000pt" height="2800.000000pt" viewBox="0 0 2644.000000 2800.000000"
 preserveAspectRatio="xMidYMid meet">

<g transform="translate(0.000000,2800.000000) scale(0.100000,-0.100000)"
fill="#C5C3C1" stroke="none">
<path d="M1580 9802 c0 -4025 -1 -4240 -17 -4254 -10 -8 -33 -20 -50 -28 -31
-12 -45 -30 -23 -30 6 0 15 -11 22 -25 14 -31 -10 -72 -47 -81 -22 -5 -25 -12
-25 -49 l0 -43 103 -7 c56 -4 113 -8 127 -9 14 -2 68 9 120 23 l95 26 3 37 c3
34 0 38 -32 52 -46 19 -58 57 -27 90 l21 22 -50 21 c-33 14 -50 28 -51 40 -1
10 -2 1915 -3 4233 l-1 4215 -82 3 -83 3 0 -4239z"/>
</g>
</svg>
