<?xml version="1.0" standalone="no"?>
<!DOCTYPE svg PUBLIC "-//W3C//DTD SVG 20010904//EN"
 "http://www.w3.org/TR/2001/REC-SVG-20010904/DTD/svg10.dtd">
<svg version="1.0" xmlns="http://www.w3.org/2000/svg"
 width="2644.000000pt" height="2800.000000pt" viewBox="0 0 2644.000000 2800.000000"
 preserveAspectRatio="xMidYMid meet">

<g transform="translate(0.000000,2800.000000) scale(0.100000,-0.100000)"
fill="#C5C3C1" stroke="none">
<path d="M8400 13765 l0 -3585 -32 -20 c-18 -11 -37 -22 -43 -23 -5 -2 -2 -13
8 -25 23 -26 15 -59 -19 -74 -18 -9 -24 -19 -24 -45 0 -30 3 -33 30 -33 17 0
30 -4 30 -9 0 -5 45 -9 100 -10 55 -1 100 2 100 7 0 5 23 12 50 16 49 7 50 7
50 41 0 27 -4 35 -18 35 -10 0 -23 5 -30 12 -16 16 -15 60 1 77 7 8 8 15 2 17
-5 2 -25 13 -42 24 l-33 20 0 3574 0 3574 -31 6 c-17 3 -47 6 -65 6 l-34 0 0
-3585z"/>
</g>
</svg>
