<?xml version="1.0" standalone="no"?>
<!DOCTYPE svg PUBLIC "-//W3C//DTD SVG 20010904//EN"
 "http://www.w3.org/TR/2001/REC-SVG-20010904/DTD/svg10.dtd">
<svg version="1.0" xmlns="http://www.w3.org/2000/svg"
 width="2644.000000pt" height="2800.000000pt" viewBox="0 0 2644.000000 2800.000000"
 preserveAspectRatio="xMidYMid meet">

<g transform="translate(0.000000,2800.000000) scale(0.100000,-0.100000)"
fill="#C5C3C1" stroke="none">
<path d="M3000 9756 l0 -4285 -27 -20 c-14 -12 -37 -24 -50 -27 -27 -7 -29
-17 -8 -34 8 -7 15 -26 15 -42 0 -22 -8 -33 -35 -49 -30 -18 -35 -26 -35 -59
0 -36 2 -38 38 -43 20 -3 80 -9 132 -12 84 -6 105 -4 178 19 45 14 86 27 90
30 14 9 0 77 -17 83 -51 18 -66 66 -31 98 21 19 21 19 -27 38 -26 10 -51 24
-55 30 -4 7 -8 431 -8 942 0 512 0 2434 0 4273 l0 3342 -80 0 -80 0 0 -4284z"/>
</g>
</svg>
