<?xml version="1.0" standalone="no"?>
<!DOCTYPE svg PUBLIC "-//W3C//DTD SVG 20010904//EN"
 "http://www.w3.org/TR/2001/REC-SVG-20010904/DTD/svg10.dtd">
<svg version="1.0" xmlns="http://www.w3.org/2000/svg"
 width="2644.000000pt" height="2800.000000pt" viewBox="0 0 2644.000000 2800.000000"
 preserveAspectRatio="xMidYMid meet">

<g transform="translate(0.000000,2800.000000) scale(0.100000,-0.100000)"
fill="#C5C3C1" stroke="none">
<path d="M7305 17440 c-2 -3 -4 -1612 -4 -3575 0 -1964 0 -3636 0 -3718 l-1
-147 -44 -21 c-42 -21 -43 -22 -25 -40 11 -11 19 -26 19 -34 0 -17 -35 -55
-50 -55 -6 0 -10 -18 -10 -40 l0 -40 43 0 c23 0 74 -3 112 -6 39 -3 101 1 140
8 70 13 70 13 73 48 2 30 -2 37 -28 52 -34 19 -40 51 -14 80 16 17 15 19 -20
33 -20 9 -39 21 -42 28 -2 7 -5 1679 -7 3717 l-2 3705 -68 5 c-38 3 -70 3 -72
0z"/>
</g>
</svg>
