<?xml version="1.0" standalone="no"?>
<!DOCTYPE svg PUBLIC "-//W3C//DTD SVG 20010904//EN"
 "http://www.w3.org/TR/2001/REC-SVG-20010904/DTD/svg10.dtd">
<svg version="1.0" xmlns="http://www.w3.org/2000/svg"
 width="2644.000000pt" height="2800.000000pt" viewBox="0 0 2644.000000 2800.000000"
 preserveAspectRatio="xMidYMid meet">

<g transform="translate(0.000000,2800.000000) scale(0.100000,-0.100000)"
fill="#C5C3C1" stroke="none">
<path d="M7860 13746 l0 -3656 -44 -21 c-42 -21 -43 -22 -25 -40 26 -26 24
-43 -11 -72 -21 -18 -30 -35 -30 -55 0 -32 -12 -29 173 -48 27 -3 68 2 97 10
55 16 53 16 75 16 10 0 15 11 15 35 0 28 -5 37 -24 45 -13 5 -27 18 -31 29 -7
23 10 61 28 62 7 0 -8 10 -33 22 l-45 22 -3 3648 -2 3647 -33 0 c-17 0 -49 3
-69 6 l-38 7 0 -3657z"/>
</g>
</svg>
