<?xml version="1.0" standalone="no"?>
<!DOCTYPE svg PUBLIC "-//W3C//DTD SVG 20010904//EN"
 "http://www.w3.org/TR/2001/REC-SVG-20010904/DTD/svg10.dtd">
<svg version="1.0" xmlns="http://www.w3.org/2000/svg"
 width="2644.000000pt" height="2800.000000pt" viewBox="0 0 2644.000000 2800.000000"
 preserveAspectRatio="xMidYMid meet">

<g transform="translate(0.000000,2800.000000) scale(0.100000,-0.100000)"
fill="#C5C3C1" stroke="none">
<path d="M20476 27188 l-57 -53 1 -3902 1 -3901 -27 -21 c-15 -12 -38 -24 -51
-27 -28 -7 -28 -8 -2 -43 17 -24 19 -31 8 -54 -7 -15 -23 -30 -36 -33 -14 -4
-23 -14 -23 -26 0 -18 8 -19 133 -17 73 0 163 3 200 6 l68 6 -30 18 c-42 25
-50 63 -21 94 l23 24 -42 17 c-27 10 -46 26 -52 41 -5 15 -9 1571 -9 3961 0
3244 -2 3938 -13 3949 -11 11 -23 4 -71 -39z"/>
</g>
</svg>
