<?xml version="1.0" standalone="no"?>
<!DOCTYPE svg PUBLIC "-//W3C//DTD SVG 20010904//EN"
 "http://www.w3.org/TR/2001/REC-SVG-20010904/DTD/svg10.dtd">
<svg version="1.0" xmlns="http://www.w3.org/2000/svg"
 width="2644.000000pt" height="2800.000000pt" viewBox="0 0 2644.000000 2800.000000"
 preserveAspectRatio="xMidYMid meet">

<g transform="translate(0.000000,2800.000000) scale(0.100000,-0.100000)"
fill="#C5C3C1" stroke="none">
<path d="M25330 25871 c0 -1171 -3 -2137 -6 -2146 -4 -9 -27 -26 -52 -36 l-45
-20 21 -20 c28 -26 28 -56 0 -87 l-23 -24 30 5 c17 3 85 9 152 13 l122 6 6 30
c4 16 13 32 21 35 23 9 16 22 -31 55 l-45 32 0 2143 0 2143 -75 0 -75 0 0
-2129z"/>
</g>
</svg>
