<?xml version="1.0" standalone="no"?>
<!DOCTYPE svg PUBLIC "-//W3C//DTD SVG 20010904//EN"
 "http://www.w3.org/TR/2001/REC-SVG-20010904/DTD/svg10.dtd">
<svg version="1.0" xmlns="http://www.w3.org/2000/svg"
 width="2644.000000pt" height="2800.000000pt" viewBox="0 0 2644.000000 2800.000000"
 preserveAspectRatio="xMidYMid meet">

<g transform="translate(0.000000,2800.000000) scale(0.100000,-0.100000)"
fill="#C5C3C1" stroke="none">
<path d="M14750 9199 c0 -3271 -3 -4786 -10 -4800 -6 -10 -29 -28 -50 -39 -44
-22 -48 -31 -24 -50 26 -22 14 -72 -23 -95 -29 -18 -32 -25 -33 -67 0 -55 -3
-54 155 -63 55 -4 113 -11 128 -17 20 -8 31 -8 35 -1 4 6 34 24 67 40 59 29
60 30 63 75 3 42 1 46 -26 57 -53 22 -62 77 -19 112 19 16 18 17 -31 33 -27 9
-53 24 -56 32 -3 9 -6 2164 -6 4790 l0 4774 -85 0 -85 0 0 -4781z"/>
</g>
</svg>
