<?xml version="1.0" standalone="no"?>
<!DOCTYPE svg PUBLIC "-//W3C//DTD SVG 20010904//EN"
 "http://www.w3.org/TR/2001/REC-SVG-20010904/DTD/svg10.dtd">
<svg version="1.0" xmlns="http://www.w3.org/2000/svg"
 width="2644.000000pt" height="2800.000000pt" viewBox="0 0 2644.000000 2800.000000"
 preserveAspectRatio="xMidYMid meet">

<g transform="translate(0.000000,2800.000000) scale(0.100000,-0.100000)"
fill="#C5C3C1" stroke="none">
<path d="M18142 24964 l-52 -52 0 -3825 c0 -2104 -3 -3833 -6 -3842 -4 -9 -27
-26 -52 -36 l-45 -20 23 -24 c29 -31 21 -69 -20 -90 -24 -12 -30 -22 -30 -47
l0 -31 53 7 c28 3 118 6 200 6 146 0 147 0 147 23 0 14 -11 28 -30 39 -23 13
-30 24 -30 46 0 16 7 35 15 42 22 18 19 27 -13 38 -16 5 -36 17 -45 27 -16 15
-17 267 -17 3889 0 3739 -1 3873 -18 3889 -10 10 -20 16 -23 15 -2 -1 -28 -25
-57 -54z"/>
</g>
</svg>
