<?xml version="1.0" standalone="no"?>
<!DOCTYPE svg PUBLIC "-//W3C//DTD SVG 20010904//EN"
 "http://www.w3.org/TR/2001/REC-SVG-20010904/DTD/svg10.dtd">
<svg version="1.0" xmlns="http://www.w3.org/2000/svg"
 width="2551.000000pt" height="2701.000000pt" viewBox="0 0 2551.000000 2701.000000"
 preserveAspectRatio="xMidYMid meet">

<g transform="translate(0.000000,2701.000000) scale(0.100000,-0.100000)"
fill="#C5C3C1" stroke="none">
<path d="M15302 21265 l-53 -44 1 -996 c0 -826 -2 -995 -13 -995 -7 0 -21 -6
-31 -13 -17 -13 -17 -15 -2 -45 25 -48 20 -66 -29 -106 -49 -41 -56 -67 -26
-93 11 -9 18 -20 15 -25 -3 -4 1 -5 9 -2 18 6 47 -32 47 -61 0 -12 -7 -30 -15
-41 -22 -29 -18 -41 15 -53 l30 -10 0 -1185 c0 -1154 -1 -1186 -19 -1186 -32
0 -45 -26 -27 -52 27 -38 21 -76 -16 -98 -18 -11 -29 -20 -23 -20 5 0 -1 -7
-13 -16 -33 -23 -27 -46 23 -88 50 -43 57 -74 28 -115 -15 -23 -15 -25 2 -37
10 -8 25 -14 32 -14 11 0 13 -195 13 -1112 l-1 -1111 -36 -34 c-27 -26 -33
-37 -24 -46 26 -26 2 -111 -27 -93 -5 3 -9 -17 -8 -47 l1 -52 140 -1 c77 -1
147 0 156 2 10 3 16 17 17 42 2 32 -2 41 -28 60 -34 25 -39 56 -13 85 17 18
17 19 -2 30 -11 6 -30 21 -42 33 l-23 23 0 1110 1 1110 29 6 c40 9 45 20 21
51 -36 46 -29 63 48 124 41 33 40 59 -5 90 -66 44 -77 85 -36 126 15 15 14 17
-3 30 -10 8 -27 14 -37 14 -17 0 -18 51 -18 1185 l0 1185 35 14 c41 17 41 20
15 53 -30 38 -25 55 30 104 60 53 63 75 12 109 -20 14 -43 32 -49 40 -15 18
-8 58 14 82 19 21 11 35 -27 43 l-30 7 0 1035 c0 570 -1 1038 -3 1039 -1 1
-26 -17 -55 -41z"/>
</g>
</svg>
