<?xml version="1.0" standalone="no"?>
<!DOCTYPE svg PUBLIC "-//W3C//DTD SVG 20010904//EN"
 "http://www.w3.org/TR/2001/REC-SVG-20010904/DTD/svg10.dtd">
<svg version="1.0" xmlns="http://www.w3.org/2000/svg"
 width="2551.000000pt" height="2701.000000pt" viewBox="0 0 2551.000000 2701.000000"
 preserveAspectRatio="xMidYMid meet">

<g transform="translate(0.000000,2701.000000) scale(0.100000,-0.100000)"
fill="#C5C3C1" stroke="none">
<path d="M7085 14503 l-56 -48 1 -1017 0 -1017 -35 -17 c-19 -9 -35 -18 -35
-21 0 -2 10 -17 21 -33 26 -34 20 -74 -14 -91 -29 -15 -66 -60 -67 -80 0 -9
12 -25 27 -35 59 -42 75 -64 68 -92 -4 -15 -13 -35 -22 -44 -13 -15 -13 -18 6
-27 11 -6 27 -11 35 -11 14 0 16 -116 16 -1179 l0 -1179 -35 -26 -35 -27 21
-30 c25 -36 20 -73 -14 -90 -32 -17 -66 -61 -67 -86 0 -16 13 -30 45 -48 55
-33 63 -55 36 -101 -12 -19 -21 -37 -21 -39 0 -3 15 -8 33 -13 l32 -8 3 -1567
2 -1567 -21 -18 c-69 -57 -64 -48 -43 -88 14 -28 16 -38 6 -41 -6 -3 -9 -10
-6 -15 4 -7 2 -8 -4 -4 -17 10 -44 -50 -40 -92 l3 -37 145 -2 c80 -2 150 0
157 5 14 9 22 131 8 133 -5 0 -12 -8 -16 -18 -6 -15 -9 -14 -19 12 -9 22 -9
38 -1 60 10 26 8 31 -17 51 l-27 22 -8 369 c-4 202 -6 730 -3 1173 3 443 6
988 6 1213 l0 407 24 9 c34 14 40 40 17 72 -24 32 -18 67 15 79 27 11 50 43
58 85 6 28 4 32 -29 44 -20 7 -34 15 -31 19 3 3 -3 11 -13 19 -20 14 -21 36
-2 71 15 28 7 57 -17 60 l-22 3 -2 1168 c-2 642 -2 1175 0 1183 2 9 14 19 28
22 28 7 30 16 8 58 -19 37 -12 73 19 89 32 18 59 51 54 69 -3 8 -6 22 -8 30
-2 8 -16 21 -31 28 -37 19 -52 65 -33 102 20 39 19 47 -11 62 l-25 13 1 1063
c0 584 -2 1062 -4 1062 -3 0 -30 -21 -61 -47z"/>
</g>
</svg>
