<?xml version="1.0" standalone="no"?>
<!DOCTYPE svg PUBLIC "-//W3C//DTD SVG 20010904//EN"
 "http://www.w3.org/TR/2001/REC-SVG-20010904/DTD/svg10.dtd">
<svg version="1.0" xmlns="http://www.w3.org/2000/svg"
 width="2551.000000pt" height="2701.000000pt" viewBox="0 0 2551.000000 2701.000000"
 preserveAspectRatio="xMidYMid meet">

<g transform="translate(0.000000,2701.000000) scale(0.100000,-0.100000)"
fill="#C5C3C1" stroke="none">
<path d="M8256 15466 l-50 -44 0 -991 -1 -991 -32 -19 -31 -20 20 -40 c19 -39
19 -43 4 -66 -9 -14 -21 -25 -26 -25 -14 0 -60 -53 -60 -70 0 -17 33 -51 66
-68 31 -16 35 -46 13 -89 -10 -20 -19 -38 -19 -40 0 -1 15 -6 33 -11 l32 -8 0
-1179 0 -1179 -27 -15 c-35 -20 -42 -39 -24 -60 26 -30 29 -59 6 -78 -87 -76
-97 -94 -66 -127 13 -14 28 -26 33 -26 18 0 43 -36 43 -61 0 -14 -7 -34 -15
-45 -21 -27 -19 -32 18 -47 l32 -14 0 -1108 0 -1107 -43 -37 c-41 -36 -42 -37
-22 -54 27 -23 25 -37 -10 -75 -23 -25 -30 -43 -30 -73 l0 -39 43 -1 c140 -2
262 3 267 11 3 5 5 33 5 62 -1 48 -3 53 -23 52 -12 0 -23 3 -23 8 -1 4 -2 14
-4 21 -1 6 4 21 10 32 26 46 25 54 -8 71 -18 9 -35 22 -39 28 -4 6 -8 507 -8
1112 l0 1102 30 12 c33 14 39 40 14 60 -20 18 -14 70 10 84 11 6 28 18 38 27
22 19 41 76 27 84 -5 4 -9 1 -9 -5 0 -6 -11 1 -25 15 -14 14 -30 25 -36 25 -6
0 -8 4 -4 9 3 5 1 12 -5 16 -15 9 -12 48 5 71 22 29 18 41 -15 53 l-30 10 0
1181 0 1180 24 10 c34 13 39 26 21 54 -21 31 -16 76 9 90 26 14 65 58 66 72 0
6 -20 31 -45 55 -48 47 -57 80 -30 115 20 27 19 31 -15 49 l-30 16 0 1034 c0
569 -3 1035 -7 1035 -5 -1 -30 -20 -57 -44z"/>
</g>
</svg>
