<?xml version="1.0" standalone="no"?>
<!DOCTYPE svg PUBLIC "-//W3C//DTD SVG 20010904//EN"
 "http://www.w3.org/TR/2001/REC-SVG-20010904/DTD/svg10.dtd">
<svg version="1.0" xmlns="http://www.w3.org/2000/svg"
 width="2551.000000pt" height="2701.000000pt" viewBox="0 0 2551.000000 2701.000000"
 preserveAspectRatio="xMidYMid meet">

<g transform="translate(0.000000,2701.000000) scale(0.100000,-0.100000)"
fill="#C5C3C1" stroke="none">
<path d="M9433 16436 l-52 -41 0 -1022 c-1 -836 -3 -1023 -14 -1023 -7 0 -22
-6 -33 -14 -18 -14 -18 -16 -1 -44 21 -37 22 -67 1 -84 -38 -31 -84 -78 -84
-86 0 -5 23 -28 50 -52 53 -45 61 -71 35 -106 -22 -29 -18 -41 15 -53 l30 -10
0 -1180 0 -1180 -30 -16 c-33 -17 -37 -31 -15 -59 25 -33 18 -62 -23 -94 -21
-17 -44 -42 -52 -57 -13 -24 -12 -28 13 -50 14 -14 30 -25 35 -25 15 0 42 -36
42 -56 0 -11 -7 -30 -16 -42 -20 -28 -13 -49 18 -54 l23 -3 3 -1572 2 -1573
-35 -22 c-43 -28 -50 -46 -29 -69 19 -21 12 -71 -9 -63 -15 5 -15 4 -23 -73
-5 -44 -3 -53 10 -54 9 0 45 0 81 0 36 0 99 0 140 0 l75 1 -1 68 c-1 37 -3 59
-6 50 -6 -23 -20 -23 -33 1 -14 28 -13 58 4 73 13 11 9 18 -22 44 l-37 32 0
1567 c0 862 2 1570 5 1574 3 3 17 14 32 24 l28 17 -20 33 c-29 46 -25 60 25
101 58 48 59 74 6 116 -47 38 -55 63 -34 107 17 36 9 57 -26 68 -17 5 -18 71
-18 1186 l0 1180 34 14 33 14 -20 33 c-11 18 -20 39 -20 46 0 7 23 35 50 62
28 27 50 54 50 60 0 5 -9 15 -20 22 -11 7 -20 18 -20 24 0 7 -9 14 -20 17 -11
3 -25 17 -32 32 -10 22 -9 32 7 62 19 34 19 35 1 49 -10 7 -24 15 -30 17 -8 3
-11 297 -12 1061 -1 581 -3 1059 -5 1060 -2 2 -27 -15 -56 -38z"/>
</g>
</svg>
