<?xml version="1.0" standalone="no"?>
<!DOCTYPE svg PUBLIC "-//W3C//DTD SVG 20010904//EN"
 "http://www.w3.org/TR/2001/REC-SVG-20010904/DTD/svg10.dtd">
<svg version="1.0" xmlns="http://www.w3.org/2000/svg"
 width="2551.000000pt" height="2701.000000pt" viewBox="0 0 2551.000000 2701.000000"
 preserveAspectRatio="xMidYMid meet">

<g transform="translate(0.000000,2701.000000) scale(0.100000,-0.100000)"
fill="#C5C3C1" stroke="none">
<path d="M10612 17404 l-54 -44 0 -995 0 -996 -35 -14 -35 -15 21 -34 c12 -18
21 -40 21 -49 0 -8 -22 -34 -50 -58 -27 -23 -50 -50 -50 -58 0 -9 14 -27 31
-41 64 -50 71 -60 64 -88 -4 -15 -13 -34 -21 -43 -14 -15 -13 -19 8 -33 12 -9
28 -16 34 -16 9 0 11 -292 10 -1182 -1 -1172 -1 -1183 -21 -1193 -46 -23 -46
-24 -23 -64 21 -37 21 -40 5 -65 -10 -14 -24 -26 -32 -26 -8 0 -15 -4 -15 -8
0 -5 -9 -19 -20 -32 -28 -32 -25 -44 16 -76 73 -58 79 -73 43 -118 -24 -30
-19 -42 19 -51 l29 -6 1 -1097 c2 -1063 0 -1151 -27 -1152 -3 0 -17 -9 -30
-19 -23 -17 -23 -19 -7 -42 21 -31 20 -42 -5 -70 -11 -13 -17 -18 -13 -10 5 9
3 12 -4 7 -7 -4 -12 -31 -12 -61 l0 -54 38 -3 c20 -2 87 -2 149 0 l112 3 3 27
c6 49 -3 91 -17 86 -8 -3 -19 4 -25 16 -9 17 -7 29 9 61 l21 40 -23 8 c-13 5
-31 17 -40 26 -16 15 -17 107 -17 1126 0 907 2 1109 13 1109 7 0 22 6 32 14
18 13 18 15 2 39 -28 44 -22 71 28 111 25 21 45 44 45 53 0 16 -35 66 -43 61
-3 -2 -14 6 -26 16 -24 22 -27 64 -6 92 21 28 18 40 -15 54 l-30 12 0 1184 c0
969 2 1184 13 1184 7 0 22 6 32 14 17 12 17 14 2 37 -29 41 -22 72 28 115 25
21 45 46 45 55 0 10 -20 35 -45 56 -49 40 -59 79 -30 117 17 23 4 46 -26 46
-18 0 -19 31 -21 1044 l-3 1043 -53 -43z"/>
</g>
</svg>
