<?xml version="1.0" standalone="no"?>
<!DOCTYPE svg PUBLIC "-//W3C//DTD SVG 20010904//EN"
 "http://www.w3.org/TR/2001/REC-SVG-20010904/DTD/svg10.dtd">
<svg version="1.0" xmlns="http://www.w3.org/2000/svg"
 width="2550.000000pt" height="2700.000000pt" viewBox="0 0 2550.000000 2700.000000"
 preserveAspectRatio="xMidYMid meet">

<g transform="translate(0.000000,2700.000000) scale(0.100000,-0.100000)"
fill="#65340A" stroke="none">
<path d="M16430 20635 l-45 -36 1 -742 c1 -574 -2 -747 -12 -762 -16 -26 -13
-170 4 -187 24 -24 13 -60 -33 -109 -50 -54 -62 -87 -46 -127 11 -26 8 -34
-24 -83 -44 -64 -43 -93 4 -160 28 -40 30 -47 20 -75 -17 -44 -5 -79 46 -133
45 -48 57 -85 34 -108 -16 -16 -20 -163 -5 -188 15 -26 18 -1324 3 -1343 -17
-21 -17 -164 -1 -189 23 -37 16 -64 -31 -114 -50 -53 -62 -85 -47 -127 8 -25
5 -36 -24 -82 -19 -30 -34 -66 -34 -81 0 -15 15 -49 34 -76 24 -35 31 -54 25
-64 -25 -40 -3 -102 55 -158 38 -37 48 -85 24 -109 -16 -16 -19 -152 -4 -177
9 -15 12 -311 11 -1249 l-2 -1229 -21 -18 c-12 -9 -28 -19 -35 -22 -9 -4 -9
-7 1 -18 19 -20 15 -67 -8 -81 -15 -10 -20 -24 -20 -56 l0 -42 133 2 132 3 3
36 c2 29 -2 39 -22 53 -30 19 -34 51 -10 77 14 16 14 18 -4 28 -56 30 -52 -64
-52 1274 0 1113 2 1235 16 1255 13 19 14 28 4 52 -9 21 -9 33 0 50 9 17 8 29
-9 62 -23 48 -19 66 33 122 45 50 60 93 46 131 -9 24 -6 34 22 78 41 64 42
103 1 161 -27 38 -30 50 -26 89 6 50 -13 91 -61 136 -30 28 -34 75 -10 109 13
20 14 28 4 53 -10 24 -10 35 0 54 11 20 10 28 -4 49 -14 23 -16 90 -16 686 0
586 2 665 16 692 13 26 14 35 3 54 -10 20 -10 29 1 49 11 20 10 28 -4 49 -26
40 -20 74 20 118 46 52 66 100 59 141 -5 25 1 46 23 89 35 65 32 102 -11 166
-19 29 -23 46 -20 79 5 46 -14 88 -61 132 -30 28 -34 67 -10 113 13 25 14 35
3 54 -10 19 -10 29 0 50 9 22 9 31 -4 50 -13 20 -15 123 -17 804 l-3 782 -45
-37z m-30 -1879 c0 -7 -11 -23 -25 -36 -28 -27 -32 -13 -10 31 15 28 35 32 35
5z m98 -5 c3 -8 -1 -12 -9 -9 -7 2 -15 10 -17 17 -3 8 1 12 9 9 7 -2 15 -10
17 -17z m-16 -78 c35 -33 35 -41 -1 -83 l-29 -35 -41 40 -41 39 32 33 c18 18
36 33 42 33 5 0 23 -12 38 -27z m-114 -118 c18 -19 32 -38 32 -42 0 -5 -17
-24 -36 -43 -34 -34 -36 -34 -50 -16 -24 34 -13 136 15 136 4 0 22 -16 39 -35z
m196 -32 c1 -27 -3 -57 -7 -67 -7 -18 -10 -16 -37 15 -16 19 -29 38 -30 42 0
5 12 24 27 43 32 43 46 33 47 -33z m-80 -87 c14 -19 26 -39 26 -43 0 -12 -53
-63 -65 -63 -5 0 -24 14 -42 32 l-33 32 37 38 c20 21 40 38 44 38 4 0 18 -15
33 -34z m-104 -130 c21 -23 22 -56 2 -56 -7 0 -42 62 -42 75 0 12 19 3 40 -19z
m130 -12 c0 -13 -21 -44 -30 -44 -14 0 -12 24 2 38 13 13 28 16 28 6z m-110
-2053 c0 -14 -38 -57 -45 -50 -9 10 17 59 32 59 7 0 13 -4 13 -9z m100 -11 c9
-16 8 -20 -5 -20 -8 0 -15 2 -15 4 0 2 -3 11 -6 20 -9 23 13 20 26 -4z m-22
-83 l32 -33 -34 -40 -34 -39 -36 34 c-20 19 -36 38 -36 42 0 11 53 66 66 68 5
0 25 -14 42 -32z m-88 -154 c0 -5 -16 -25 -35 -43 -30 -29 -37 -32 -45 -20
-13 21 -12 97 1 122 11 20 12 20 45 -15 19 -20 34 -40 34 -44z m170 39 c12
-39 3 -103 -15 -109 -6 -1 -22 14 -36 34 l-26 37 26 37 c14 21 29 38 33 39 4
0 12 -17 18 -38z m-81 -120 l30 -39 -37 -36 -38 -37 -37 38 -37 38 37 37 c21
20 41 37 44 37 4 0 21 -17 38 -38z m-100 -136 c13 -14 20 -29 16 -35 -11 -19
-21 -12 -38 24 -19 41 -10 45 22 11z m126 -16 c-16 -30 -35 -40 -35 -18 0 14
30 48 42 48 5 0 2 -13 -7 -30z"/>
</g>
</svg>
