<?xml version="1.0" standalone="no"?>
<!DOCTYPE svg PUBLIC "-//W3C//DTD SVG 20010904//EN"
 "http://www.w3.org/TR/2001/REC-SVG-20010904/DTD/svg10.dtd">
<svg version="1.0" xmlns="http://www.w3.org/2000/svg"
 width="2550.000000pt" height="2700.000000pt" viewBox="0 0 2550.000000 2700.000000"
 preserveAspectRatio="xMidYMid meet">

<g transform="translate(0.000000,2700.000000) scale(0.100000,-0.100000)"
fill="#65340A" stroke="none">
<path d="M18208 22367 l-46 -42 2 -740 c2 -700 1 -742 -16 -772 -15 -26 -16
-35 -7 -57 9 -20 9 -32 0 -52 -10 -22 -8 -31 9 -59 32 -51 26 -89 -20 -139
-63 -68 -72 -91 -53 -138 15 -38 15 -40 -16 -89 -40 -65 -39 -92 5 -156 34
-49 35 -54 24 -88 -13 -40 -2 -67 51 -117 35 -33 37 -68 7 -108 -17 -23 -19
-33 -10 -42 15 -15 15 -51 0 -66 -10 -10 -8 -19 6 -43 17 -28 18 -76 21 -692
4 -644 3 -662 -16 -693 -16 -27 -18 -36 -8 -58 9 -20 9 -32 0 -52 -9 -22 -8
-30 9 -54 34 -47 26 -83 -30 -151 -52 -63 -61 -94 -39 -142 9 -20 6 -31 -20
-72 -40 -64 -40 -97 4 -161 32 -46 34 -54 24 -82 -12 -36 -4 -58 47 -115 40
-43 43 -76 12 -117 -17 -23 -19 -33 -10 -42 15 -15 15 -51 1 -65 -9 -9 -6 -21
9 -48 l22 -36 -5 -1232 c-3 -678 -5 -1235 -5 -1239 0 -3 -16 -16 -36 -28 -33
-21 -34 -23 -18 -41 20 -23 12 -64 -16 -79 -14 -8 -20 -21 -20 -45 l0 -35 150
0 150 0 0 33 c0 21 -7 36 -20 44 -32 21 -41 46 -24 77 17 34 17 36 1 36 -7 0
-23 9 -35 20 l-22 21 0 1234 c0 1156 1 1235 18 1264 14 26 15 34 4 52 -11 17
-11 27 -2 50 10 24 10 33 -4 54 -25 38 -21 87 10 116 38 34 66 101 56 130 -7
18 -2 32 20 64 16 23 32 60 35 84 5 35 1 50 -26 93 -22 36 -29 54 -22 61 6 6
11 27 11 47 0 37 -33 94 -79 134 -26 23 -28 81 -4 108 14 16 15 24 4 53 -9 27
-9 38 1 55 11 17 10 25 -4 51 -17 28 -18 80 -18 691 0 601 2 662 17 688 14 24
15 34 5 54 -9 20 -9 32 0 52 10 20 9 30 -5 54 -25 42 -21 78 14 118 40 45 61
95 53 126 -4 17 3 37 23 67 37 56 40 138 6 185 -19 26 -21 40 -17 81 5 42 2
56 -19 89 -13 21 -36 50 -51 63 -30 28 -34 69 -10 106 14 21 14 30 4 54 -9 23
-9 33 1 49 11 18 10 27 -4 57 -16 33 -17 97 -17 783 0 411 0 766 0 790 0 23
-3 42 -7 42 -5 -1 -29 -20 -55 -43z m22 -1837 c0 -5 -4 -10 -10 -10 -5 0 -10
5 -10 10 0 6 5 10 10 10 6 0 10 -4 10 -10z m-40 -83 c0 -14 -50 -67 -63 -67
-12 0 0 46 20 76 12 19 19 22 29 13 8 -6 14 -16 14 -22z m120 -19 c0 -16 -26
-7 -38 12 -19 31 -3 47 19 19 10 -13 19 -27 19 -31z m-30 -143 c-19 -19 -36
-35 -39 -35 -4 0 -23 16 -45 36 l-39 35 39 40 38 39 40 -40 40 -40 -34 -35z
m-121 -46 l34 -41 -37 -36 -37 -37 -20 25 c-22 27 -21 88 1 115 17 21 21 19
59 -26z m191 -16 c0 -52 -9 -93 -19 -93 -3 1 -16 17 -28 36 l-23 35 26 35 c15
19 30 34 35 34 5 0 9 -21 9 -47z m-83 -95 c36 -41 37 -48 7 -79 -34 -36 -43
-36 -77 -1 -34 35 -34 40 1 74 33 33 43 34 69 6z m-91 -143 c22 -34 8 -47 -16
-15 -22 28 -25 40 -10 40 5 0 17 -11 26 -25z m54 -1995 c0 -5 -4 -10 -10 -10
-5 0 -10 5 -10 10 0 6 5 10 10 10 6 0 10 -4 10 -10z m-46 -67 c4 -10 -3 -26
-21 -45 -45 -47 -59 -30 -23 30 22 36 35 40 44 15z m126 -39 c0 -22 -18 -16
-36 11 -22 33 -7 56 18 26 10 -13 18 -29 18 -37z m-43 -56 c18 -18 33 -37 33
-43 0 -6 -16 -26 -35 -45 l-35 -34 -40 39 -40 39 37 38 c20 21 39 38 42 38 3
0 20 -14 38 -32z m-115 -125 l37 -38 -35 -38 c-40 -43 -58 -39 -69 14 -7 29
10 99 24 99 4 0 23 -17 43 -37z m198 -27 c0 -29 -6 -60 -13 -70 -12 -16 -15
-14 -38 21 l-25 39 29 37 c17 20 34 34 38 31 5 -3 9 -29 9 -58z m-86 -87 c33
-39 33 -49 -4 -84 l-30 -29 -37 37 -37 37 34 35 c19 19 37 35 41 35 4 0 19
-14 33 -31z m-84 -148 c6 -13 6 -22 1 -26 -9 -5 -31 24 -31 39 0 14 20 4 30
-13z"/>
</g>
</svg>
