<?xml version="1.0" standalone="no"?>
<!DOCTYPE svg PUBLIC "-//W3C//DTD SVG 20010904//EN"
 "http://www.w3.org/TR/2001/REC-SVG-20010904/DTD/svg10.dtd">
<svg version="1.0" xmlns="http://www.w3.org/2000/svg"
 width="2550.000000pt" height="2700.000000pt" viewBox="0 0 2550.000000 2700.000000"
 preserveAspectRatio="xMidYMid meet">

<g transform="translate(0.000000,2700.000000) scale(0.100000,-0.100000)"
fill="#65340A" stroke="none">
<path d="M20726 25158 c-30 -32 -46 -59 -46 -77 0 -14 0 -358 0 -764 0 -735 0
-739 -21 -768 -20 -28 -20 -31 -5 -55 16 -23 16 -27 -1 -54 -17 -29 -16 -30 7
-55 41 -44 24 -138 -38 -212 -52 -63 -56 -80 -32 -128 26 -50 26 -52 -10 -116
-16 -30 -30 -57 -30 -61 0 -4 22 -35 49 -70 41 -54 47 -69 43 -97 -3 -23 2
-41 16 -61 35 -47 37 -73 6 -109 -23 -27 -25 -36 -16 -50 23 -31 24 -42 8 -60
-21 -23 -20 -28 4 -58 20 -25 20 -41 20 -711 l0 -686 -22 -23 c-22 -23 -22
-24 -4 -54 16 -28 17 -32 2 -48 -21 -23 -20 -31 8 -65 22 -28 22 -33 11 -92
-9 -48 -21 -73 -52 -111 -55 -66 -59 -84 -32 -140 18 -38 20 -49 10 -65 -7
-11 -21 -37 -32 -58 -23 -44 -20 -56 37 -127 27 -32 34 -51 34 -84 0 -28 7
-50 19 -63 28 -31 30 -77 3 -110 -26 -34 -26 -35 -7 -64 14 -19 14 -24 -1 -46
-15 -24 -15 -27 5 -55 21 -29 21 -30 19 -858 l-3 -828 -41 -21 -40 -20 19 -26
c19 -25 19 -28 4 -52 -9 -13 -26 -27 -37 -31 -13 -4 -20 -15 -20 -31 0 -20 4
-24 23 -20 12 3 94 8 182 11 88 4 164 10 168 15 5 4 -5 16 -22 26 -39 23 -47
48 -27 79 21 31 20 32 -8 39 -59 15 -56 -38 -56 863 0 812 0 825 20 850 19 25
19 28 4 51 -15 23 -15 27 0 53 15 26 15 29 -9 57 -31 37 -31 66 0 117 14 22
25 51 25 64 0 14 16 48 36 77 47 68 55 127 26 183 -19 37 -20 43 -7 74 23 54
2 117 -61 187 -45 50 -57 117 -25 149 23 23 26 43 10 72 -8 15 -7 26 5 43 13
21 13 26 -5 55 -18 30 -19 58 -19 712 0 620 1 682 17 705 14 22 15 31 5 56 -7
20 -8 37 -2 49 15 27 12 47 -10 69 -26 26 -25 51 5 108 14 26 25 56 25 68 0
12 13 38 29 58 17 21 35 53 42 73 12 38 6 118 -12 139 -7 9 -8 32 -1 73 11 72
-2 108 -67 185 -33 38 -41 56 -41 87 0 21 4 39 9 39 5 0 16 11 25 25 15 23 15
27 1 49 -15 22 -15 28 -1 53 13 26 13 31 -5 53 -18 24 -19 56 -19 836 l0 811
-24 11 c-23 10 -29 7 -70 -40z m48 -1924 c18 -48 -7 -74 -32 -33 -10 16 -10
24 -1 35 15 18 25 18 33 -2z m-65 -88 l23 -25 -33 -41 c-41 -50 -64 -49 -63 2
1 36 26 88 42 88 5 0 19 -11 31 -24z m145 -16 c19 -49 19 -50 4 -50 -21 1 -50
48 -43 70 10 30 21 24 39 -20z m-31 -98 l38 -39 -40 -44 -40 -44 -43 42 -42
43 39 40 c21 22 42 40 45 40 3 0 23 -17 43 -38z m-130 -123 c20 -17 37 -36 37
-43 0 -7 -15 -27 -33 -44 -32 -31 -34 -32 -50 -14 -9 10 -22 33 -28 50 -9 26
-8 37 5 57 9 14 20 25 24 25 4 0 24 -14 45 -31z m186 -16 c-2 -83 -26 -115
-46 -62 -10 27 -9 35 10 65 28 44 37 43 36 -3z m-83 -100 c20 -27 17 -57 -9
-81 l-23 -22 -29 30 -29 30 29 30 c33 35 43 37 61 13z m-22 -2159 c19 -49 -4
-78 -33 -42 -18 21 -18 25 -4 41 20 21 29 22 37 1z m-73 -86 c26 -32 24 -39
-21 -83 -33 -32 -40 -36 -46 -21 -9 22 2 70 22 101 20 31 21 31 45 3z m155
-23 c22 -58 7 -78 -25 -34 -16 21 -21 38 -17 55 9 36 22 29 42 -21z m-42 -94
l39 -40 -24 -29 c-46 -57 -57 -59 -103 -13 l-40 41 39 40 c21 22 42 40 45 40
3 0 23 -18 44 -39z m-130 -130 l38 -39 -28 -36 c-16 -20 -32 -36 -35 -36 -26
0 -53 89 -38 126 12 32 19 30 63 -15z m196 -10 c0 -43 -15 -91 -27 -91 -5 0
-16 14 -25 31 -18 30 -17 31 10 65 15 19 30 34 35 34 4 0 7 -18 7 -39z m-86
-106 c22 -33 20 -48 -9 -75 l-25 -23 -25 23 c-31 30 -31 37 2 72 33 34 36 34
57 3z"/>
</g>
</svg>
