<?xml version="1.0" standalone="no"?>
<!DOCTYPE svg PUBLIC "-//W3C//DTD SVG 20010904//EN"
 "http://www.w3.org/TR/2001/REC-SVG-20010904/DTD/svg10.dtd">
<svg version="1.0" xmlns="http://www.w3.org/2000/svg"
 width="2550.000000pt" height="2700.000000pt" viewBox="0 0 2550.000000 2700.000000"
 preserveAspectRatio="xMidYMid meet">

<g transform="translate(0.000000,2700.000000) scale(0.100000,-0.100000)"
fill="#65340A" stroke="none">
<path d="M21620 26263 c-1 -5 -20 -30 -44 -56 l-44 -48 5 -772 5 -773 -26 -32
c-26 -30 -27 -32 -10 -57 16 -25 16 -28 1 -55 -17 -27 -16 -29 9 -59 22 -26
25 -38 20 -69 -3 -20 -6 -46 -7 -56 0 -11 -22 -47 -48 -80 -64 -82 -66 -90
-36 -143 l25 -45 -35 -60 c-19 -32 -35 -62 -35 -66 0 -4 22 -35 49 -69 44 -56
49 -67 44 -101 -4 -31 0 -44 21 -69 33 -39 33 -81 1 -112 -29 -27 -30 -34 -10
-51 20 -16 19 -39 -1 -61 -16 -17 -15 -21 9 -53 l27 -34 0 -684 0 -684 -24
-33 c-24 -32 -24 -35 -9 -58 15 -23 15 -27 0 -53 -17 -27 -16 -29 9 -59 27
-32 27 -35 11 -129 -3 -12 -22 -44 -44 -70 -66 -79 -69 -87 -42 -144 l23 -50
-32 -59 c-37 -67 -37 -69 28 -152 33 -41 37 -52 33 -85 -4 -31 0 -44 21 -69
33 -40 34 -82 1 -113 -24 -22 -24 -24 -8 -51 16 -27 16 -31 1 -57 -16 -27 -16
-29 7 -58 l25 -29 -1 -495 c0 -472 1 -495 18 -493 10 1 39 5 66 8 l47 6 0 485
c0 480 0 485 21 514 19 25 20 33 10 58 -9 22 -9 35 0 56 11 23 10 30 -9 56
-28 38 -27 75 3 125 14 22 25 51 25 64 0 13 11 39 26 58 56 73 66 131 35 199
-16 34 -17 48 -8 81 16 60 2 106 -53 175 -42 51 -50 68 -50 103 0 29 6 47 20
60 23 20 26 45 8 63 -9 9 -9 20 1 47 11 31 10 38 -8 64 -21 29 -21 38 -21 715
l0 687 22 29 c19 26 20 33 8 54 -10 20 -10 31 0 55 11 26 9 34 -9 60 -27 38
-26 77 4 126 14 22 25 52 25 66 0 15 7 32 16 40 21 18 52 79 62 127 8 33 5 48
-14 88 -16 34 -20 52 -13 65 15 29 10 97 -10 137 -11 20 -35 53 -55 71 -32 31
-36 41 -36 83 0 26 3 48 8 48 4 0 13 9 20 21 10 16 10 27 0 55 -9 26 -9 37 0
46 18 18 15 41 -8 66 -20 22 -21 31 -20 843 1 452 0 822 -2 823 -2 0 -13 7
-25 14 -13 7 -23 9 -23 5z m12 -2023 c4 -29 -19 -34 -35 -8 -8 12 -7 21 3 33
16 19 27 10 32 -25z m-65 -69 l21 -27 -40 -43 c-35 -39 -41 -42 -55 -28 -19
18 -10 65 18 102 25 31 29 31 56 -4z m142 -15 c8 -20 11 -40 7 -44 -11 -10
-46 40 -46 66 0 35 22 22 39 -22z m-30 -90 c23 -24 31 -40 27 -52 -8 -23 -52
-74 -63 -74 -10 1 -83 68 -83 77 0 9 72 83 80 83 3 0 21 -15 39 -34z m-124
-136 l39 -40 -37 -37 -37 -38 -26 26 c-31 31 -35 80 -9 109 10 11 21 20 25 20
3 0 24 -18 45 -40z m185 -7 c0 -36 -19 -103 -28 -103 -5 0 -14 16 -21 35 -11
31 -10 37 10 65 28 37 39 38 39 3z m-70 -146 c0 -19 -36 -67 -50 -67 -3 0 -17
14 -29 31 l-23 31 33 35 34 34 17 -22 c10 -11 18 -31 18 -42z m-40 -2163 c17
-44 -14 -63 -38 -23 -10 16 -10 24 -1 35 17 21 28 17 39 -12z m-50 -103 c0 -3
-16 -24 -34 -45 -34 -39 -66 -44 -66 -12 0 23 20 69 37 89 16 16 17 16 40 -5
13 -12 23 -24 23 -27z m126 14 c27 -65 15 -84 -23 -36 -14 18 -20 36 -16 49 8
32 22 27 39 -13z m-32 -104 l38 -39 -40 -43 -40 -43 -40 34 c-22 19 -41 39
-41 45 -1 10 69 85 79 85 3 0 23 -18 44 -39z m-129 -131 l39 -40 -37 -38 -38
-37 -19 25 c-30 39 -23 130 10 130 3 0 24 -18 45 -40z m192 -27 c-3 -31 -12
-62 -19 -69 -11 -12 -17 -8 -32 20 l-18 34 28 36 c16 20 33 36 38 36 5 0 6
-25 3 -57z m-67 -127 c0 -7 -13 -25 -28 -40 l-29 -27 -26 34 -26 34 32 32 32
32 23 -26 c12 -14 22 -32 22 -39z"/>
<path d="M21533 18709 c1 -299 -2 -555 -6 -569 -4 -18 -18 -30 -42 -39 -20 -7
-35 -16 -33 -19 35 -69 35 -62 -5 -97 -20 -18 -37 -40 -37 -50 0 -16 7 -17 73
-12 39 4 125 10 190 13 113 7 149 17 110 31 -49 17 -70 67 -38 93 21 18 19 27
-10 34 -14 4 -34 15 -45 26 -19 19 -20 36 -20 570 l0 550 -24 0 c-13 0 -44 3
-68 6 l-45 6 0 -543z"/>
</g>
</svg>
