<?xml version="1.0" standalone="no"?>
<!DOCTYPE svg PUBLIC "-//W3C//DTD SVG 20010904//EN"
 "http://www.w3.org/TR/2001/REC-SVG-20010904/DTD/svg10.dtd">
<svg version="1.0" xmlns="http://www.w3.org/2000/svg"
 width="2550.000000pt" height="2700.000000pt" viewBox="0 0 2550.000000 2700.000000"
 preserveAspectRatio="xMidYMid meet">

<g transform="translate(0.000000,2700.000000) scale(0.100000,-0.100000)"
fill="#65340A" stroke="none">
<path d="M24850 26624 c0 -361 -1 -377 -20 -401 -23 -30 -25 -46 -8 -72 9 -15
9 -25 0 -46 -17 -37 -15 -49 14 -78 28 -28 27 -26 6 -124 -6 -27 -27 -64 -56
-99 -61 -74 -64 -91 -31 -151 l27 -48 -36 -62 c-20 -34 -36 -65 -36 -70 0 -5
24 -41 53 -79 50 -64 53 -71 44 -101 -9 -29 -6 -36 22 -68 38 -44 40 -81 6
-114 -27 -25 -32 -50 -13 -69 9 -9 9 -20 -1 -48 -12 -33 -11 -39 8 -65 l21
-28 0 -1371 c0 -910 -3 -1378 -10 -1390 -6 -11 -28 -25 -50 -31 -22 -7 -40
-14 -40 -16 0 -1 9 -12 20 -23 11 -11 20 -27 20 -35 0 -17 -33 -53 -65 -71
-38 -22 -7 -31 62 -18 37 7 111 17 163 24 129 16 132 17 119 42 -9 16 -7 26
10 49 l22 29 -41 16 c-22 9 -45 25 -50 35 -6 11 -10 252 -10 628 0 396 -4 612
-10 616 -6 4 -10 97 -10 245 0 148 4 241 10 245 6 4 10 188 10 521 0 283 4
514 8 514 4 0 15 13 24 28 16 26 16 31 2 50 -13 19 -13 28 -3 57 12 31 11 38
-9 64 -29 39 -28 79 3 132 14 24 25 52 25 61 0 10 15 39 33 65 37 53 61 106
62 138 0 11 -8 41 -17 67 -13 34 -16 64 -11 115 7 81 -6 112 -73 185 -39 41
-44 53 -44 93 0 32 6 51 20 65 22 22 25 42 9 71 -7 14 -7 29 2 54 12 31 11 38
-9 64 -22 30 -22 35 -22 406 l0 375 -75 0 -75 0 0 -376z m104 -750 c3 -9 6
-28 6 -42 l0 -27 -27 27 c-22 23 -24 29 -13 42 16 20 26 20 34 0z m86 -104 c7
-22 10 -43 7 -47 -12 -11 -47 35 -47 62 0 39 25 30 40 -15z m-153 8 c31 -29
29 -36 -14 -80 -43 -44 -59 -47 -74 -14 -9 18 -7 31 6 57 34 67 45 72 82 37z
m127 -117 l38 -39 -31 -46 c-17 -25 -35 -47 -39 -49 -4 -3 -29 15 -57 38 l-50
44 45 45 c24 26 47 46 50 46 3 0 23 -18 44 -39z m-133 -150 l44 -40 -41 -40
-41 -40 -31 29 c-36 32 -42 72 -16 108 21 31 35 28 85 -17z m189 -5 c0 -38
-18 -96 -30 -96 -4 0 -13 13 -20 29 -10 25 -9 33 12 65 29 45 38 45 38 2z
m-80 -150 c0 -17 -9 -40 -22 -53 l-22 -23 -27 32 -27 33 36 38 c34 34 38 36
49 20 7 -9 13 -30 13 -47z"/>
</g>
</svg>
