<?xml version="1.0" standalone="no"?>
<!DOCTYPE svg PUBLIC "-//W3C//DTD SVG 20010904//EN"
 "http://www.w3.org/TR/2001/REC-SVG-20010904/DTD/svg10.dtd">
<svg version="1.0" xmlns="http://www.w3.org/2000/svg"
 width="2550.000000pt" height="2700.000000pt" viewBox="0 0 2550.000000 2700.000000"
 preserveAspectRatio="xMidYMid meet">

<g transform="translate(0.000000,2700.000000) scale(0.100000,-0.100000)"
fill="#65340A" stroke="none">
<path d="M13703 18068 l-53 -54 0 -716 c0 -664 -1 -719 -17 -747 -15 -26 -16
-34 -5 -51 10 -17 10 -28 1 -55 -11 -30 -10 -37 6 -55 29 -32 20 -78 -23 -123
-33 -34 -37 -44 -37 -91 0 -42 -6 -61 -30 -96 -38 -55 -39 -101 -1 -157 26
-38 27 -45 16 -78 -16 -49 -6 -81 45 -140 49 -58 60 -105 32 -145 -20 -29 -22
-51 -5 -68 9 -9 8 -18 -2 -38 -13 -23 -12 -29 3 -56 16 -27 17 -84 17 -693 0
-613 -1 -666 -17 -694 -15 -26 -16 -34 -5 -52 11 -17 11 -27 2 -50 -10 -24
-10 -33 4 -54 25 -38 21 -87 -10 -116 -38 -35 -57 -77 -51 -113 3 -23 -4 -45
-31 -88 -41 -67 -40 -106 3 -169 22 -30 25 -41 16 -58 -26 -47 -7 -102 53
-160 30 -29 36 -42 36 -77 0 -25 -6 -47 -15 -54 -17 -14 -20 -51 -5 -66 8 -8
7 -19 -1 -38 -11 -23 -10 -32 4 -59 16 -30 17 -95 15 -837 l-3 -804 -38 -22
c-33 -18 -36 -23 -22 -34 23 -19 18 -56 -10 -78 -18 -14 -25 -29 -25 -54 0
-50 21 -56 180 -49 l134 6 0 27 c0 16 -11 37 -27 52 -30 28 -34 52 -12 83 14
19 13 22 -16 33 -16 7 -34 21 -39 31 -6 11 -10 323 -10 813 0 774 1 796 20
828 18 30 18 34 4 56 -14 21 -14 26 1 48 15 23 15 27 -5 53 -31 45 -26 94 13
138 69 78 80 112 56 166 -9 21 -7 31 15 64 42 64 43 99 4 158 -26 40 -33 60
-33 102 0 46 -4 56 -37 90 -30 30 -38 47 -38 75 0 19 7 41 15 48 17 14 20 51
5 66 -6 6 -6 20 2 41 10 26 9 35 -5 57 -16 23 -17 84 -17 691 0 607 1 668 17
691 14 22 15 31 5 56 -8 22 -8 36 -1 50 12 22 4 68 -11 68 -6 0 -10 20 -10 43
0 32 6 49 21 63 68 60 95 134 69 184 -8 16 -5 28 17 62 37 55 36 114 -3 165
-22 29 -28 48 -29 89 0 44 -6 58 -38 97 -41 50 -46 83 -20 123 14 21 15 31 5
56 -8 22 -8 36 0 54 10 20 8 32 -5 57 -16 29 -17 99 -20 795 l-2 763 -52 -53z
m39 -1905 c35 -33 35 -41 0 -82 l-28 -33 -37 38 -37 38 32 33 c18 18 34 33 37
33 3 0 18 -12 33 -27z m-108 -117 c14 -19 26 -39 26 -43 0 -5 -15 -24 -34 -42
-33 -32 -34 -33 -45 -13 -14 27 -14 74 1 107 15 33 20 32 52 -9z m197 7 c11
-28 7 -108 -5 -120 -6 -6 -20 8 -53 55 -14 21 -14 25 8 57 29 42 36 43 50 8z
m-74 -132 l32 -38 -40 -39 -39 -38 -40 39 -40 39 37 38 c20 21 42 38 48 38 5
0 24 -18 42 -39z m-109 -131 c21 -26 21 -60 1 -60 -12 0 -50 76 -42 84 10 10
17 6 41 -24z m152 10 c0 -18 -30 -70 -40 -70 -15 0 -12 28 6 55 17 26 34 33
34 15z m-85 -130 c-5 -8 -11 -8 -17 -2 -6 6 -7 16 -3 22 5 8 11 8 17 2 6 -6 7
-16 3 -22z m25 -2125 c-19 -19 -37 -35 -41 -35 -4 0 -19 16 -34 36 l-27 36 33
34 33 34 35 -35 35 -35 -34 -35z m90 -40 c11 -34 5 -115 -8 -115 -10 0 -72 63
-72 73 0 11 52 75 62 76 3 1 12 -15 18 -34z m-202 -5 c12 -16 22 -33 22 -37
-1 -14 -59 -77 -66 -71 -12 13 -15 84 -5 111 13 34 22 34 49 -3z m109 -112
c18 -18 33 -37 33 -43 0 -6 -16 -26 -35 -45 l-35 -34 -35 34 c-19 19 -35 38
-35 44 0 10 60 76 69 76 3 0 20 -14 38 -32z m48 -167 c-17 -35 -30 -39 -39
-14 -4 10 3 27 21 45 33 35 44 17 18 -31z m-125 -13 c0 -39 -34 -12 -46 37
l-7 30 27 -24 c14 -14 26 -33 26 -43z m51 -71 c-1 -12 -15 -9 -19 4 -3 6 1 10
8 8 6 -3 11 -8 11 -12z"/>
</g>
</svg>
