<?xml version="1.0" standalone="no"?>
<!DOCTYPE svg PUBLIC "-//W3C//DTD SVG 20010904//EN"
 "http://www.w3.org/TR/2001/REC-SVG-20010904/DTD/svg10.dtd">
<svg version="1.0" xmlns="http://www.w3.org/2000/svg"
 width="3542.000000pt" height="3750.000000pt" viewBox="0 0 3542.000000 3750.000000"
 preserveAspectRatio="xMidYMid meet">

<g transform="translate(0.000000,3750.000000) scale(0.100000,-0.100000)"
fill="#65340A" stroke="none">
<path d="M21730 17616 l0 -1115 -27 -3 c-41 -5 -69 -65 -53 -113 9 -28 46 -64
58 -57 30 21 29 -66 -2 -132 -30 -63 -56 -186 -56 -263 0 -77 23 -182 55 -250
14 -31 25 -73 25 -94 0 -36 -2 -39 -28 -39 -39 0 -57 -36 -53 -107 1 -29 27
-53 57 -53 l24 0 0 -914 0 -913 -29 -6 c-76 -16 -71 -167 6 -167 21 0 23 -5
23 -44 0 -27 -10 -63 -24 -93 -71 -142 -72 -374 -2 -514 15 -28 26 -68 26 -90
0 -35 -3 -39 -25 -39 -36 0 -68 -53 -59 -100 7 -44 18 -57 55 -65 l29 -7 0
-1121 c0 -617 -4 -1127 -8 -1134 -4 -6 -26 -19 -49 -28 l-42 -17 21 -29 c18
-24 20 -32 9 -55 -6 -14 -25 -31 -41 -37 -27 -10 -30 -16 -30 -53 l0 -42 83
-13 c103 -17 201 -17 295 0 l72 13 0 43 c0 39 -3 44 -30 53 -42 15 -58 53 -36
87 9 14 22 25 28 25 6 0 -13 12 -43 28 l-54 27 -3 1133 -2 1132 23 0 c61 0 89
107 41 154 -8 9 -26 16 -40 16 -20 0 -24 5 -24 30 0 17 11 57 25 90 75 178 75
373 0 522 -15 31 -25 67 -25 94 0 42 1 44 31 44 25 0 32 6 45 35 27 66 8 121
-44 127 l-27 3 -3 913 -2 912 23 0 c43 0 74 56 62 110 -9 39 -30 60 -61 60
-21 0 -24 5 -24 35 0 20 11 57 24 83 74 147 74 377 1 522 -16 31 -25 66 -25
95 0 44 1 45 31 45 25 0 32 6 45 37 17 39 12 94 -9 111 -6 6 -23 12 -37 14
l-25 3 -3 1113 -2 1112 -85 0 -85 0 0 -1114z m110 -1562 c14 -72 9 -204 -10
-268 -14 -48 -22 -38 -40 49 -18 87 3 285 30 285 4 0 13 -30 20 -66z m-3
-2911 c13 -61 7 -253 -9 -298 l-15 -40 -13 40 c-26 76 -10 335 20 335 5 0 13
-17 17 -37z"/>
</g>
</svg>
