<?xml version="1.0" standalone="no"?>
<!DOCTYPE svg PUBLIC "-//W3C//DTD SVG 20010904//EN"
 "http://www.w3.org/TR/2001/REC-SVG-20010904/DTD/svg10.dtd">
<svg version="1.0" xmlns="http://www.w3.org/2000/svg"
 width="3542.000000pt" height="3750.000000pt" viewBox="0 0 3542.000000 3750.000000"
 preserveAspectRatio="xMidYMid meet">

<g transform="translate(0.000000,3750.000000) scale(0.100000,-0.100000)"
fill="#65340A" stroke="none">
<path d="M25440 17575 l0 -1145 -24 0 c-13 0 -35 -9 -50 -21 -21 -16 -26 -29
-26 -63 0 -57 22 -86 66 -86 33 0 34 -1 34 -42 0 -30 -12 -67 -40 -123 -82
-163 -82 -319 1 -492 48 -100 51 -140 12 -149 -49 -10 -54 -13 -67 -46 -25
-57 14 -128 70 -128 l24 0 0 -935 0 -934 -34 -7 c-47 -8 -70 -36 -68 -80 2
-55 25 -84 67 -84 l35 0 0 -50 c0 -36 -7 -59 -25 -85 -52 -78 -69 -141 -69
-270 -1 -131 11 -185 65 -282 45 -81 37 -123 -21 -123 -50 0 -69 -109 -27
-148 13 -12 35 -22 50 -22 l27 0 0 -1156 c0 -1121 -2 -1194 -29 -1194 -5 0
-25 -7 -46 -16 -37 -15 -37 -16 -16 -30 28 -20 28 -67 -1 -94 -12 -11 -28 -20
-35 -20 -9 0 -13 -15 -13 -45 0 -52 -10 -47 152 -69 99 -13 115 -12 200 5 51
10 96 18 101 19 4 0 7 20 7 45 0 31 -4 45 -14 45 -25 0 -66 41 -66 65 0 13 10
33 22 44 l21 21 -49 21 c-27 12 -53 27 -57 33 -6 8 -4 2303 2 2312 1 1 17 5
36 8 46 9 70 44 62 92 -8 47 -31 72 -71 76 -28 3 -31 6 -32 37 0 22 14 62 37
106 47 90 61 146 60 255 0 100 -20 181 -63 262 -32 60 -43 127 -24 140 6 4 23
8 37 8 20 0 31 8 43 34 22 47 20 70 -10 105 -17 21 -35 31 -53 31 l-28 0 1
938 1 937 31 3 c63 6 92 80 55 140 -17 26 -27 32 -56 32 l-35 0 4 44 c3 24 16
62 30 84 45 71 66 156 66 262 0 120 -21 197 -84 307 -7 12 -12 39 -11 60 1 35
3 38 38 46 91 22 85 158 -8 169 l-30 3 0 1145 -1 1145 -87 3 -87 3 0 -1146z
m136 -1634 c11 -49 15 -94 11 -135 -6 -63 -29 -150 -47 -176 -9 -13 -11 -13
-20 0 -5 8 -19 43 -30 76 -35 103 -27 247 18 343 l15 33 18 -33 c10 -19 26
-67 35 -108z m5 -3053 c9 -53 10 -86 1 -141 -12 -77 -36 -147 -51 -147 -5 0
-20 26 -33 58 -19 49 -23 75 -23 182 0 113 3 129 24 170 l24 45 23 -49 c13
-28 28 -81 35 -118z"/>
</g>
</svg>
