<?xml version="1.0" standalone="no"?>
<!DOCTYPE svg PUBLIC "-//W3C//DTD SVG 20010904//EN"
 "http://www.w3.org/TR/2001/REC-SVG-20010904/DTD/svg10.dtd">
<svg version="1.0" xmlns="http://www.w3.org/2000/svg"
 width="3542.000000pt" height="3750.000000pt" viewBox="0 0 3542.000000 3750.000000"
 preserveAspectRatio="xMidYMid meet">

<g transform="translate(0.000000,3750.000000) scale(0.100000,-0.100000)"
fill="#65340A" stroke="none">
<path d="M6290 17099 l0 -1419 -40 0 c-75 0 -119 -82 -84 -155 22 -46 37 -55
94 -55 30 0 30 0 30 -56 0 -43 -5 -62 -25 -88 -29 -38 -66 -120 -86 -191 -9
-31 -14 -97 -14 -175 0 -145 20 -221 87 -326 31 -51 38 -70 38 -113 l0 -53
-39 7 c-32 5 -43 3 -60 -14 -32 -32 -44 -93 -27 -134 17 -41 29 -50 81 -57
l40 -5 2 -1162 3 -1163 -39 0 c-54 0 -91 -43 -91 -104 0 -60 28 -93 85 -102
l45 -6 0 -53 c0 -42 -7 -64 -35 -111 -62 -102 -88 -201 -89 -334 -1 -70 4
-135 13 -165 16 -57 63 -157 92 -193 14 -18 19 -41 19 -84 l0 -60 -32 5 c-18
2 -41 1 -50 -4 -42 -22 -64 -124 -35 -163 7 -10 36 -24 63 -31 l49 -12 3
-1423 c2 -1286 1 -1425 -14 -1441 -8 -9 -39 -27 -68 -39 l-53 -21 28 -29 c16
-16 29 -38 29 -50 0 -26 -40 -67 -75 -76 -25 -6 -26 -9 -23 -63 l3 -56 113
-28 113 -28 167 29 167 28 3 57 c2 45 0 57 -12 57 -8 0 -28 12 -45 26 -40 33
-42 75 -5 109 l27 25 -48 20 c-25 11 -50 20 -55 20 -4 0 -15 11 -24 25 -15 22
-16 151 -14 1452 l3 1428 28 -3 c85 -10 137 117 75 184 -11 13 -38 25 -64 29
-43 6 -44 7 -44 45 0 26 10 55 30 86 114 181 133 450 44 627 -15 28 -38 66
-51 84 -21 27 -24 40 -21 94 l3 64 41 -3 c37 -3 44 0 64 29 50 69 18 169 -54
169 -63 0 -59 -65 -52 906 4 489 7 1009 6 1156 l0 266 36 0 c50 0 85 36 91 93
6 66 -22 106 -81 114 l-46 7 0 45 c0 32 10 63 39 116 46 85 66 146 81 245 21
146 -22 329 -101 431 -14 17 -19 40 -19 87 l0 63 42 3 c55 4 83 40 83 108 0
61 -24 89 -84 97 l-41 6 0 1414 0 1414 -110 -2 -110 -1 0 -1419z m144 -1891
c65 -147 61 -322 -9 -475 -13 -29 -28 -53 -33 -53 -10 0 -38 61 -63 135 -18
52 -18 237 0 290 23 68 63 155 73 155 5 0 20 -24 32 -52z m23 -3779 c32 -91
35 -231 9 -325 -19 -67 -65 -164 -77 -164 -14 0 -48 76 -64 142 -30 128 -8
305 51 406 23 38 28 42 40 30 8 -8 26 -48 41 -89z"/>
</g>
</svg>
