<?xml version="1.0" standalone="no"?>
<!DOCTYPE svg PUBLIC "-//W3C//DTD SVG 20010904//EN"
 "http://www.w3.org/TR/2001/REC-SVG-20010904/DTD/svg10.dtd">
<svg version="1.0" xmlns="http://www.w3.org/2000/svg"
 width="3542.000000pt" height="3750.000000pt" viewBox="0 0 3542.000000 3750.000000"
 preserveAspectRatio="xMidYMid meet">

<g transform="translate(0.000000,3750.000000) scale(0.100000,-0.100000)"
fill="#65340A" stroke="none">
<path d="M11263 18583 l-93 -4 0 -1319 0 -1320 -35 0 c-59 0 -94 -53 -81 -124
8 -42 31 -62 79 -71 36 -7 37 -8 37 -50 0 -31 -12 -66 -40 -122 -102 -199
-100 -433 5 -607 28 -46 35 -69 35 -108 l0 -50 -33 6 c-45 8 -77 -25 -84 -88
-5 -40 -2 -48 25 -76 21 -20 40 -30 61 -30 l30 0 1 -1085 0 -1085 -34 0 c-59
0 -98 -68 -76 -134 13 -41 22 -48 70 -56 34 -5 35 -6 38 -58 2 -39 -2 -59 -16
-80 -11 -15 -31 -56 -45 -92 -73 -187 -60 -402 33 -553 24 -39 30 -60 30 -104
l0 -55 -34 6 c-29 6 -37 3 -54 -19 -26 -33 -34 -72 -24 -110 9 -31 36 -50 85
-60 l27 -5 0 -1326 c0 -894 -3 -1332 -10 -1345 -6 -10 -14 -19 -19 -19 -5 0
-29 -9 -55 -21 l-47 -20 26 -20 c47 -38 24 -109 -40 -125 -24 -6 -26 -10 -23
-58 l3 -51 115 -23 115 -23 135 21 c183 29 170 23 170 80 0 47 -1 49 -35 60
-59 20 -75 83 -30 119 l26 20 -47 20 c-26 12 -50 21 -55 21 -5 0 -13 9 -19 19
-7 13 -10 454 -10 1355 l0 1336 33 0 c71 0 108 100 62 164 -8 10 -31 22 -52
25 -36 6 -38 8 -41 48 -2 31 4 55 27 95 46 83 72 181 78 293 6 125 -12 210
-67 313 -34 62 -40 83 -40 134 l0 60 31 -7 c56 -12 98 57 78 130 -11 40 -20
47 -69 55 l-35 5 -3 1083 -2 1082 33 0 c67 0 105 82 70 150 -15 28 -26 36 -60
43 -41 8 -43 10 -43 45 0 23 15 67 40 117 48 95 70 189 70 305 0 106 -18 182
-70 285 -30 60 -40 92 -40 128 0 47 0 47 33 47 50 0 80 37 81 99 1 60 -19 86
-74 95 l-40 6 0 1320 c0 726 -3 1319 -7 1318 -5 -1 -50 -4 -100 -5z m49 -3138
c30 -95 30 -224 0 -320 -11 -38 -28 -79 -36 -90 -14 -19 -15 -18 -35 27 -24
56 -41 144 -41 207 0 61 24 170 50 228 25 56 29 52 62 -52z m0 -3461 c43 -117
23 -358 -36 -439 -18 -25 -22 -21 -48 51 -42 120 -34 289 22 418 24 58 31 54
62 -30z"/>
</g>
</svg>
