<?xml version="1.0" standalone="no"?>
<!DOCTYPE svg PUBLIC "-//W3C//DTD SVG 20010904//EN"
 "http://www.w3.org/TR/2001/REC-SVG-20010904/DTD/svg10.dtd">
<svg version="1.0" xmlns="http://www.w3.org/2000/svg"
 width="2550.000000pt" height="2700.000000pt" viewBox="0 0 2550.000000 2700.000000"
 preserveAspectRatio="xMidYMid meet">

<g transform="translate(0.000000,2700.000000) scale(0.100000,-0.100000)"
fill="#3a4548" stroke="none">
<path d="M15498 19795 l-48 -43 0 -505 0 -504 -71 -23 c-149 -48 -325 -183
-421 -323 -142 -208 -183 -478 -107 -723 14 -45 437 -921 516 -1069 3 -5 -16
11 -43 37 -60 58 -107 78 -178 78 -92 0 -169 -43 -213 -117 -35 -60 -30 -139
12 -183 81 -85 220 -47 241 66 8 45 -15 76 -40 54 -9 -7 -16 -22 -16 -34 0
-23 -32 -58 -62 -69 -32 -11 -79 14 -94 49 -16 37 -12 55 23 102 46 62 142 89
210 60 53 -23 107 -73 170 -158 42 -56 63 -94 63 -113 0 -17 10 -37 25 -51 28
-26 123 -219 153 -313 69 -211 49 -443 -57 -658 -61 -125 -113 -184 -193 -224
-55 -28 -71 -31 -151 -31 -79 0 -97 4 -152 30 -105 50 -174 147 -183 256 -6
79 10 124 58 168 51 46 107 61 171 46 52 -13 79 -39 79 -76 0 -40 -12 -56 -56
-75 -33 -13 -44 -24 -44 -40 0 -20 4 -21 46 -16 66 7 105 48 112 116 4 42 0
57 -19 86 -60 87 -212 96 -313 19 -102 -78 -125 -220 -58 -356 36 -74 115
-154 182 -185 42 -19 51 -33 22 -33 -51 0 -188 -125 -223 -204 -24 -56 -49
-174 -49 -237 0 -72 36 -203 78 -284 49 -94 163 -209 257 -257 88 -46 139 -60
240 -67 l80 -6 3 -522 2 -523 -35 -22 c-38 -25 -43 -39 -20 -58 22 -18 19 -37
-10 -62 -18 -16 -25 -32 -25 -57 0 -61 3 -62 151 -59 l134 3 3 46 c2 35 -2 49
-18 64 -24 22 -26 52 -4 76 14 15 12 19 -20 39 -20 12 -38 31 -41 43 -3 12 -4
253 -3 535 l3 514 70 22 c367 118 604 463 583 850 -9 165 -30 217 -297 750
-135 270 -247 496 -249 501 -3 6 13 -6 34 -26 76 -71 161 -93 256 -65 68 20
141 91 158 156 33 121 -101 225 -207 160 -43 -26 -66 -63 -67 -108 -1 -33 2
-37 24 -37 20 0 25 6 31 35 17 81 116 93 154 19 16 -29 16 -34 0 -70 -43 -94
-147 -133 -240 -90 -78 36 -235 231 -235 292 0 18 -9 35 -25 47 -28 23 -113
195 -143 292 -67 219 -48 440 58 657 58 118 118 186 201 227 144 70 330 19
423 -117 114 -167 54 -345 -118 -355 -69 -3 -103 10 -125 49 -20 35 -7 75 29
94 16 8 33 15 37 14 14 -1 26 28 19 46 -5 14 -13 16 -39 11 -73 -14 -121 -80
-114 -156 11 -105 154 -159 282 -106 105 44 167 169 144 289 -22 119 -96 221
-199 276 l-62 33 49 23 c101 47 186 148 219 260 24 83 24 249 0 330 -43 146
-140 275 -265 357 -90 59 -178 88 -296 96 l-90 7 -3 538 c-1 295 -6 537 -10
537 -4 -1 -28 -20 -54 -45z m282 -1126 c78 -25 174 -85 235 -146 195 -197 219
-520 52 -686 -64 -63 -127 -91 -219 -95 -65 -3 -85 0 -130 20 -73 34 -122 79
-152 140 -55 111 -14 226 96 273 52 21 76 19 114 -10 48 -36 55 -83 20 -135
-30 -46 -31 -53 -10 -71 14 -11 20 -9 45 18 61 69 62 157 3 222 -91 101 -254
56 -330 -92 -10 -17 -19 -62 -22 -98 -4 -56 -1 -75 21 -122 31 -69 87 -131
150 -167 l49 -28 -43 -20 c-99 -44 -165 -116 -234 -252 -84 -167 -123 -390
-95 -555 4 -27 6 -52 4 -54 -6 -7 -411 820 -428 874 -77 245 -25 515 139 724
173 220 498 335 735 260z m357 -3649 c24 -91 24 -301 0 -390 -76 -277 -293
-493 -567 -565 -311 -82 -625 100 -701 405 -18 75 -16 222 4 290 45 149 198
259 345 248 97 -7 179 -59 241 -152 22 -33 26 -51 26 -111 0 -61 -4 -78 -27
-112 -30 -45 -96 -83 -146 -83 -21 0 -43 10 -64 29 -41 37 -45 93 -9 141 25
34 22 60 -7 60 -61 0 -98 -138 -56 -210 46 -78 158 -99 248 -46 158 92 165
315 15 450 -28 25 -66 51 -85 58 -36 13 -45 28 -16 28 32 0 118 58 171 116 62
67 140 222 173 339 18 67 22 107 22 243 l1 163 208 -418 c121 -245 214 -445
224 -483z"/>
</g>
</svg>
