<?xml version="1.0" standalone="no"?>
<!DOCTYPE svg PUBLIC "-//W3C//DTD SVG 20010904//EN"
 "http://www.w3.org/TR/2001/REC-SVG-20010904/DTD/svg10.dtd">
<svg version="1.0" xmlns="http://www.w3.org/2000/svg"
 width="3542.000000pt" height="3750.000000pt" viewBox="0 0 3542.000000 3750.000000"
 preserveAspectRatio="xMidYMid meet">

<g transform="translate(0.000000,3750.000000) scale(0.100000,-0.100000)"
fill="#3a4548" stroke="none">
<path d="M12300 13644 c0 -3410 -3 -4981 -10 -4995 -6 -10 -14 -19 -19 -19 -5
0 -29 -9 -55 -21 l-47 -20 26 -20 c43 -35 30 -96 -25 -119 -28 -11 -30 -16
-30 -61 0 -55 -10 -49 136 -79 l102 -21 118 21 c180 31 164 23 164 80 0 44 -3
52 -23 59 -61 23 -77 84 -32 120 l26 20 -47 20 c-26 12 -50 21 -55 21 -5 0
-13 9 -19 19 -7 14 -10 1585 -10 4995 l0 4976 -100 0 -100 0 0 -4976z"/>
</g>
</svg>
