<?xml version="1.0" standalone="no"?>
<!DOCTYPE svg PUBLIC "-//W3C//DTD SVG 20010904//EN"
 "http://www.w3.org/TR/2001/REC-SVG-20010904/DTD/svg10.dtd">
<svg version="1.0" xmlns="http://www.w3.org/2000/svg"
 width="3542.000000pt" height="3750.000000pt" viewBox="0 0 3542.000000 3750.000000"
 preserveAspectRatio="xMidYMid meet">

<g transform="translate(0.000000,3750.000000) scale(0.100000,-0.100000)"
fill="#3a4548" stroke="none">
<path d="M16430 14011 c0 -2568 -3 -4676 -6 -4684 -3 -9 -30 -25 -60 -37 l-54
-22 25 -20 c41 -32 29 -86 -25 -108 -27 -11 -30 -16 -30 -60 l0 -47 124 -20
123 -20 122 20 121 21 0 46 c0 42 -3 46 -38 65 -47 25 -55 65 -21 101 l23 24
-52 22 c-29 12 -54 29 -57 38 -3 9 -6 2117 -8 4683 l-2 4667 -92 0 -92 0 -1
-4669z"/>
</g>
</svg>
