<?xml version="1.0" standalone="no"?>
<!DOCTYPE svg PUBLIC "-//W3C//DTD SVG 20010904//EN"
 "http://www.w3.org/TR/2001/REC-SVG-20010904/DTD/svg10.dtd">
<svg version="1.0" xmlns="http://www.w3.org/2000/svg"
 width="3542.000000pt" height="3750.000000pt" viewBox="0 0 3542.000000 3750.000000"
 preserveAspectRatio="xMidYMid meet">

<g transform="translate(0.000000,3750.000000) scale(0.100000,-0.100000)"
fill="#3a4548" stroke="none">
<path d="M18358 18702 l-48 -3 0 -4527 c0 -2490 -4 -4532 -8 -4539 -4 -6 -29
-21 -56 -33 l-49 -21 22 -22 c37 -40 22 -86 -36 -108 -19 -7 -23 -15 -23 -54
0 -25 2 -45 4 -45 3 0 58 -9 123 -20 110 -19 124 -19 208 -5 159 27 145 20
145 76 0 35 -4 49 -14 49 -24 0 -66 41 -66 65 0 13 11 32 25 43 l25 20 -58 28
-57 29 -3 4538 -2 4537 -43 -2 c-23 -2 -63 -4 -89 -6z"/>
</g>
</svg>
