<?xml version="1.0" standalone="no"?>
<!DOCTYPE svg PUBLIC "-//W3C//DTD SVG 20010904//EN"
 "http://www.w3.org/TR/2001/REC-SVG-20010904/DTD/svg10.dtd">
<svg version="1.0" xmlns="http://www.w3.org/2000/svg"
 width="3542.000000pt" height="3750.000000pt" viewBox="0 0 3542.000000 3750.000000"
 preserveAspectRatio="xMidYMid meet">

<g transform="translate(0.000000,3750.000000) scale(0.100000,-0.100000)"
fill="#3a4548" stroke="none">
<path d="M19210 14251 c0 -3926 -2 -4461 -15 -4474 -8 -9 -35 -23 -60 -32
l-44 -18 24 -19 c14 -11 25 -30 25 -42 0 -23 -32 -58 -62 -69 -14 -5 -18 -17
-18 -50 l0 -44 73 -12 c156 -26 170 -27 277 -9 58 10 108 18 113 18 4 0 7 23
7 50 0 38 -4 50 -15 50 -21 0 -65 45 -65 65 0 9 11 26 25 39 l25 23 -43 19
c-23 10 -50 26 -59 36 -17 16 -18 243 -18 4473 l0 4455 -85 0 -85 0 0 -4459z"/>
</g>
</svg>
