<?xml version="1.0" standalone="no"?>
<!DOCTYPE svg PUBLIC "-//W3C//DTD SVG 20010904//EN"
 "http://www.w3.org/TR/2001/REC-SVG-20010904/DTD/svg10.dtd">
<svg version="1.0" xmlns="http://www.w3.org/2000/svg"
 width="3542.000000pt" height="3750.000000pt" viewBox="0 0 3542.000000 3750.000000"
 preserveAspectRatio="xMidYMid meet">

<g transform="translate(0.000000,3750.000000) scale(0.100000,-0.100000)"
fill="#3a4548" stroke="none">
<path d="M25430 14338 c0 -2416 -4 -4398 -8 -4404 -4 -6 -32 -23 -62 -37 -30
-14 -50 -26 -43 -26 20 -1 43 -31 43 -56 0 -20 -32 -57 -59 -67 -14 -5 -20
-77 -7 -86 6 -5 66 -16 133 -25 108 -15 129 -15 200 -2 132 25 123 20 123 70
0 31 -4 45 -14 45 -19 0 -66 46 -66 65 0 9 11 27 24 40 l25 25 -45 19 c-81 36
-74 -44 -73 863 0 447 0 2423 0 4391 l-1 3577 -85 0 -85 0 0 -4392z"/>
</g>
</svg>
