<?xml version="1.0" standalone="no"?>
<!DOCTYPE svg PUBLIC "-//W3C//DTD SVG 20010904//EN"
 "http://www.w3.org/TR/2001/REC-SVG-20010904/DTD/svg10.dtd">
<svg version="1.0" xmlns="http://www.w3.org/2000/svg"
 width="3542.000000pt" height="3750.000000pt" viewBox="0 0 3542.000000 3750.000000"
 preserveAspectRatio="xMidYMid meet">

<g transform="translate(0.000000,3750.000000) scale(0.100000,-0.100000)"
fill="#3a4548" stroke="none">
<path d="M26450 14803 c0 -2155 0 -4161 0 -4457 0 -490 -1 -541 -16 -558 -10
-10 -20 -18 -24 -18 -4 0 -24 -7 -44 -15 l-37 -15 28 -24 c24 -21 26 -27 18
-52 -6 -17 -23 -35 -42 -44 -30 -14 -33 -19 -33 -61 l0 -46 134 -18 c127 -16
138 -16 235 1 l101 17 0 49 c0 37 -4 48 -15 48 -21 0 -65 45 -65 65 0 9 11 27
24 40 l25 25 -50 21 c-27 12 -54 30 -59 40 -6 11 -10 1644 -10 4468 l0 4451
-85 0 -85 0 0 -3917z"/>
</g>
</svg>
