<?xml version="1.0" standalone="no"?>
<!DOCTYPE svg PUBLIC "-//W3C//DTD SVG 20010904//EN"
 "http://www.w3.org/TR/2001/REC-SVG-20010904/DTD/svg10.dtd">
<svg version="1.0" xmlns="http://www.w3.org/2000/svg"
 width="3542.000000pt" height="3750.000000pt" viewBox="0 0 3542.000000 3750.000000"
 preserveAspectRatio="xMidYMid meet">

<g transform="translate(0.000000,3750.000000) scale(0.100000,-0.100000)"
fill="#3a4548" stroke="none">
<path d="M6300 16348 c-1 -1206 -1 -3649 -1 -5428 1 -2632 -2 -3238 -12 -3252
-7 -9 -39 -28 -71 -42 l-58 -26 27 -23 c38 -32 37 -73 -4 -109 -17 -15 -38
-28 -47 -28 -12 0 -14 -11 -12 -57 l3 -57 114 -28 115 -28 150 25 c83 14 160
28 171 30 18 4 20 11 17 59 -3 49 -6 55 -33 67 -61 25 -76 83 -34 125 14 14
25 26 25 28 0 2 -27 14 -59 27 -46 18 -62 29 -67 49 -4 14 -8 2457 -10 5430
-1 2973 -3 5411 -3 5418 -1 9 -29 12 -106 12 l-105 0 0 -2192z"/>
</g>
</svg>
