<?xml version="1.0" standalone="no"?>
<!DOCTYPE svg PUBLIC "-//W3C//DTD SVG 20010904//EN"
 "http://www.w3.org/TR/2001/REC-SVG-20010904/DTD/svg10.dtd">
<svg version="1.0" xmlns="http://www.w3.org/2000/svg"
 width="2644.000000pt" height="2800.000000pt" viewBox="0 0 2644.000000 2800.000000"
 preserveAspectRatio="xMidYMid meet">

<g transform="translate(0.000000,2800.000000) scale(0.100000,-0.100000)"
fill="#3a4548" stroke="none">
<path d="M1586 14032 c-2 -4 -5 -874 -5 -1932 0 -1059 -1 -1964 -1 -2011 l0
-87 -35 -6 c-44 -9 -51 -20 -25 -46 11 -11 20 -30 20 -43 0 -27 -38 -67 -63
-67 -9 0 -17 -5 -17 -10 0 -6 -11 -15 -25 -20 -15 -6 -25 -17 -25 -30 0 -13
10 -24 25 -30 14 -5 25 -14 25 -20 0 -5 8 -10 18 -10 55 0 82 -69 42 -105 -28
-26 -25 -33 20 -46 l40 -12 0 -486 c-1 -267 2 -1163 5 -1991 4 -1248 3 -1508
-9 -1522 -7 -10 -32 -26 -54 -36 -42 -19 -42 -19 -22 -37 11 -10 20 -28 20
-40 0 -23 -32 -57 -63 -68 -14 -5 -18 -15 -15 -44 l3 -38 120 -12 c118 -12
122 -12 222 15 l103 27 0 42 c0 35 -3 42 -21 45 -12 2 -31 15 -42 30 l-21 28
22 29 22 30 -35 11 c-19 6 -42 18 -50 27 -13 13 -15 255 -15 2008 l0 1993 35
6 c46 9 52 22 26 57 -11 15 -21 34 -21 42 0 17 39 53 68 62 12 3 22 10 22 14
0 4 11 13 25 19 32 15 32 39 0 54 -14 6 -25 15 -25 20 0 4 -9 8 -20 8 -24 0
-70 42 -70 64 0 8 12 28 26 45 l26 31 -27 10 c-14 5 -35 10 -46 10 -19 0 -19
29 -19 2015 l0 2015 -79 0 c-44 0 -82 -3 -85 -8z"/>
</g>
</svg>
