<?xml version="1.0" standalone="no"?>
<!DOCTYPE svg PUBLIC "-//W3C//DTD SVG 20010904//EN"
 "http://www.w3.org/TR/2001/REC-SVG-20010904/DTD/svg10.dtd">
<svg version="1.0" xmlns="http://www.w3.org/2000/svg"
 width="2644.000000pt" height="2800.000000pt" viewBox="0 0 2644.000000 2800.000000"
 preserveAspectRatio="xMidYMid meet">

<g transform="translate(0.000000,2800.000000) scale(0.100000,-0.100000)"
fill="#3a4548" stroke="none">
<path d="M8918 15709 l-3 -1613 -32 -8 c-36 -9 -41 -19 -18 -38 20 -17 19 -53
-3 -73 -10 -10 -22 -17 -26 -17 -4 0 -12 -5 -19 -10 -7 -6 -21 -17 -32 -25
l-20 -15 20 -15 c11 -8 25 -18 30 -22 6 -5 22 -14 38 -20 20 -10 27 -20 27
-42 0 -16 -7 -34 -15 -41 -23 -19 -18 -29 18 -38 l32 -8 3 -900 c1 -494 0
-909 -3 -922 -4 -14 -19 -29 -40 -38 -40 -16 -40 -17 -19 -49 16 -24 15 -26
-15 -54 -36 -34 -43 -86 -13 -94 39 -10 252 -8 252 2 0 6 18 11 40 11 38 0 40
1 40 33 0 25 -6 36 -30 49 -33 19 -39 48 -14 73 9 9 15 17 13 18 -2 2 -21 10
-41 20 l-38 17 0 920 c0 881 1 920 18 920 10 0 26 6 36 13 16 12 16 14 -3 31
-12 11 -21 27 -21 36 0 17 29 50 46 50 5 1 22 11 38 24 30 25 31 56 1 56 -8 0
-15 4 -15 9 0 5 -11 12 -25 15 -14 4 -31 18 -37 32 -10 21 -8 29 11 54 l22 30
-26 10 c-15 6 -31 10 -36 10 -5 0 -9 614 -9 1599 l0 1598 -47 6 c-27 3 -56 9
-65 12 -17 7 -18 -75 -20 -1606z"/>
</g>
</svg>
