<?xml version="1.0" standalone="no"?>
<!DOCTYPE svg PUBLIC "-//W3C//DTD SVG 20010904//EN"
 "http://www.w3.org/TR/2001/REC-SVG-20010904/DTD/svg10.dtd">
<svg version="1.0" xmlns="http://www.w3.org/2000/svg"
 width="2644.000000pt" height="2800.000000pt" viewBox="0 0 2644.000000 2800.000000"
 preserveAspectRatio="xMidYMid meet">

<g transform="translate(0.000000,2800.000000) scale(0.100000,-0.100000)"
fill="#3a4548" stroke="none">
<path d="M10360 15661 l0 -1519 -31 -7 c-16 -4 -29 -10 -27 -13 35 -70 35 -83
-7 -106 -11 -6 -25 -17 -33 -23 -7 -7 -18 -13 -23 -13 -25 0 -3 -32 41 -59 54
-34 64 -59 33 -93 -15 -17 -15 -20 -3 -28 8 -6 23 -10 33 -10 21 0 20 84 18
-1272 l-1 -487 -32 -17 c-44 -22 -44 -21 -24 -43 20 -22 10 -53 -24 -71 -13
-7 -20 -21 -20 -41 l0 -29 163 2 162 3 3 33 c3 26 -1 34 -21 41 -32 13 -41 39
-22 67 14 22 14 24 -17 40 -18 9 -36 22 -41 28 -4 6 -5 355 -2 776 2 421 5
811 5 867 l0 101 30 7 c33 7 37 16 15 35 -24 20 -18 57 13 77 15 10 29 20 32
23 3 4 13 9 23 13 23 9 22 38 -3 44 -11 3 -20 9 -20 14 0 5 -6 9 -14 9 -39 0
-61 65 -31 90 22 19 18 28 -15 35 l-30 7 -2 1516 -3 1517 -62 3 -63 3 0 -1520z"/>
</g>
</svg>
