<?xml version="1.0" standalone="no"?>
<!DOCTYPE svg PUBLIC "-//W3C//DTD SVG 20010904//EN"
 "http://www.w3.org/TR/2001/REC-SVG-20010904/DTD/svg10.dtd">
<svg version="1.0" xmlns="http://www.w3.org/2000/svg"
 width="2644.000000pt" height="2800.000000pt" viewBox="0 0 2644.000000 2800.000000"
 preserveAspectRatio="xMidYMid meet">

<g transform="translate(0.000000,2800.000000) scale(0.100000,-0.100000)"
fill="#3a4548" stroke="none">
<path d="M3007 14034 c-4 -4 -7 -921 -7 -2039 l0 -2031 -47 -12 -46 -13 26
-27 c15 -16 27 -38 27 -50 0 -27 -33 -62 -60 -62 -11 0 -20 -4 -20 -10 0 -5
-14 -17 -31 -25 -42 -22 -34 -42 30 -76 30 -16 60 -34 68 -40 21 -18 15 -50
-14 -81 l-26 -27 27 -11 c15 -5 36 -10 47 -10 19 0 19 -29 19 -2022 0 -1113
-4 -2028 -8 -2034 -4 -6 -27 -21 -51 -33 l-43 -22 21 -23 c12 -12 21 -29 21
-37 0 -17 -36 -53 -62 -62 -13 -5 -18 -17 -18 -45 0 -38 2 -40 38 -45 20 -3
80 -9 132 -13 81 -5 106 -3 170 15 41 12 83 25 93 27 12 4 17 16 17 45 0 35
-4 40 -34 53 -45 19 -54 50 -27 86 l21 29 -38 12 c-20 6 -43 16 -49 22 -10 7
-13 425 -13 2028 0 1152 4 2019 9 2019 5 0 25 7 46 16 l37 15 -26 28 c-14 15
-26 37 -26 48 0 23 43 63 67 63 7 0 16 7 19 15 4 8 12 15 19 15 7 0 19 7 26
16 11 14 8 20 -21 45 -19 16 -43 29 -52 29 -24 0 -58 35 -58 59 0 11 12 33 26
50 l26 31 -46 12 -46 12 -2 2031 -3 2030 -75 3 c-42 1 -79 0 -83 -4z"/>
</g>
</svg>
