<?xml version="1.0" standalone="no"?>
<!DOCTYPE svg PUBLIC "-//W3C//DTD SVG 20010904//EN"
 "http://www.w3.org/TR/2001/REC-SVG-20010904/DTD/svg10.dtd">
<svg version="1.0" xmlns="http://www.w3.org/2000/svg"
 width="2644.000000pt" height="2800.000000pt" viewBox="0 0 2644.000000 2800.000000"
 preserveAspectRatio="xMidYMid meet">

<g transform="translate(0.000000,2800.000000) scale(0.100000,-0.100000)"
fill="#3a4548" stroke="none">
<path d="M5162 15538 l-72 -102 0 -1557 0 -1556 -40 -12 c-45 -13 -48 -20 -20
-46 28 -25 26 -69 -5 -89 -13 -9 -31 -16 -39 -16 -7 0 -16 -7 -20 -15 -3 -8
-12 -15 -20 -15 -20 0 -28 -27 -11 -42 32 -29 43 -36 66 -43 13 -4 30 -12 37
-17 19 -16 14 -63 -8 -83 -29 -26 -25 -34 20 -41 l40 -7 0 -2038 c0 -1743 -2
-2040 -14 -2052 -8 -8 -28 -20 -45 -27 -35 -14 -38 -22 -16 -40 32 -26 11 -76
-38 -93 -14 -5 -18 -15 -15 -44 l3 -38 120 -8 c99 -7 134 -6 200 8 44 9 83 22
87 29 15 22 9 66 -9 73 -51 18 -67 61 -37 94 16 18 14 20 -30 38 l-46 20 0
663 c0 1394 0 3374 0 3394 0 16 10 24 40 33 36 11 56 31 30 31 -5 0 -17 11
-26 25 -20 31 -10 63 24 79 53 24 103 59 99 70 -2 6 -16 17 -30 24 -15 7 -27
17 -27 23 0 5 -8 9 -18 9 -20 0 -62 39 -62 57 0 6 12 25 26 42 l26 31 -27 10
c-14 5 -33 10 -41 10 -11 0 -14 16 -15 68 0 37 0 784 1 1660 0 875 -3 1592 -7
1592 -5 0 -41 -46 -81 -102z"/>
</g>
</svg>
