<?xml version="1.0" standalone="no"?>
<!DOCTYPE svg PUBLIC "-//W3C//DTD SVG 20010904//EN"
 "http://www.w3.org/TR/2001/REC-SVG-20010904/DTD/svg10.dtd">
<svg version="1.0" xmlns="http://www.w3.org/2000/svg"
 width="2644.000000pt" height="2800.000000pt" viewBox="0 0 2644.000000 2800.000000"
 preserveAspectRatio="xMidYMid meet">

<g transform="translate(0.000000,2800.000000) scale(0.100000,-0.100000)"
fill="#3a4548" stroke="none">
<path d="M20480 27201 l-75 -69 -1 -889 c-1 -2497 -3 -2853 -18 -2853 -8 0
-26 -4 -41 -10 l-25 -10 25 -38 c23 -35 24 -42 14 -66 -8 -17 -23 -29 -41 -33
-15 -3 -28 -12 -28 -19 0 -8 -9 -14 -19 -14 -11 0 -23 -9 -26 -21 -6 -17 1
-28 30 -53 61 -50 95 -84 95 -94 0 -6 -12 -25 -27 -42 -28 -34 -29 -34 30 -66
l27 -15 -2 -1797 -3 -1797 -48 -24 c-46 -23 -47 -24 -27 -38 31 -22 26 -68
-10 -95 -16 -12 -30 -30 -30 -39 0 -19 21 -20 299 -3 l94 6 -31 25 c-37 28
-41 58 -11 89 l20 21 -40 16 c-22 9 -45 25 -50 36 -8 14 -11 578 -11 1809 l0
1790 35 6 c40 8 55 25 32 38 -9 5 -19 25 -23 45 -6 32 -3 40 20 60 15 13 34
23 42 23 8 0 14 4 14 9 0 5 9 11 20 14 42 11 7 71 -72 120 -34 21 -38 65 -8
92 28 25 26 31 -20 56 l-41 23 3 1938 c2 1066 3 1938 3 1938 0 -1 -34 -32 -75
-69z"/>
</g>
</svg>
