<?xml version="1.0" standalone="no"?>
<!DOCTYPE svg PUBLIC "-//W3C//DTD SVG 20010904//EN"
 "http://www.w3.org/TR/2001/REC-SVG-20010904/DTD/svg10.dtd">
<svg version="1.0" xmlns="http://www.w3.org/2000/svg"
 width="2644.000000pt" height="2800.000000pt" viewBox="0 0 2644.000000 2800.000000"
 preserveAspectRatio="xMidYMid meet">

<g transform="translate(0.000000,2800.000000) scale(0.100000,-0.100000)"
fill="#3a4548" stroke="none">
<path d="M18156 24979 l-76 -71 0 -1834 0 -1834 -27 -11 c-16 -5 -34 -12 -42
-15 -11 -4 -11 -7 1 -22 34 -38 40 -62 24 -87 -9 -13 -25 -27 -37 -30 -13 -4
-27 -12 -33 -17 -6 -5 -19 -14 -30 -22 -21 -14 -14 -56 9 -56 8 0 18 -6 22
-13 4 -7 20 -20 35 -30 42 -26 51 -51 33 -87 -9 -16 -20 -30 -25 -30 -24 0 -6
-22 30 -36 l40 -16 -2 -1767 -3 -1766 -42 -20 c-46 -22 -50 -29 -28 -51 8 -9
15 -26 15 -38 0 -23 -28 -56 -47 -56 -16 0 -22 -61 -7 -67 7 -2 46 -2 86 1 40
3 126 5 191 5 115 1 117 1 117 24 0 15 -9 26 -30 35 -37 17 -48 53 -26 87 9
13 16 26 16 28 0 2 -18 12 -40 22 -24 11 -43 27 -45 39 -3 12 -4 808 -3 1770
l3 1750 35 9 c46 12 46 12 21 43 -11 15 -21 37 -21 50 0 24 35 64 56 64 16 0
64 43 64 57 0 9 -36 42 -92 84 -33 24 -36 56 -8 92 11 14 20 27 20 30 0 2 -18
12 -40 22 l-41 18 3 1909 c2 1049 2 1908 2 1908 -1 0 -36 -32 -78 -71z"/>
</g>
</svg>
