<?xml version="1.0" standalone="no"?>
<!DOCTYPE svg PUBLIC "-//W3C//DTD SVG 20010904//EN"
 "http://www.w3.org/TR/2001/REC-SVG-20010904/DTD/svg10.dtd">
<svg version="1.0" xmlns="http://www.w3.org/2000/svg"
 width="2644.000000pt" height="2800.000000pt" viewBox="0 0 2644.000000 2800.000000"
 preserveAspectRatio="xMidYMid meet">

<g transform="translate(0.000000,2800.000000) scale(0.100000,-0.100000)"
fill="#C5C3C1" stroke="none">
<path d="M8920 17303 c0 -5 0 -119 0 -255 l1 -247 -29 -15 c-111 -57 -203
-216 -253 -435 -26 -112 -36 -358 -20 -472 10 -70 88 -391 209 -862 13 -54 22
-100 20 -103 -3 -2 -30 -7 -59 -11 -62 -7 -85 -22 -110 -78 -33 -72 -18 -212
24 -216 39 -5 94 -6 110 -2 22 6 44 48 48 93 l4 35 -47 3 c-41 3 -48 0 -49
-15 0 -16 -1 -16 -8 2 -13 32 21 125 45 125 26 0 107 -192 105 -249 0 -19 6
-42 13 -50 19 -21 63 -198 81 -324 28 -198 12 -451 -40 -632 -30 -104 -53
-151 -93 -188 -25 -24 -33 -27 -50 -18 -102 55 -147 355 -68 448 l23 27 12
-36 c15 -46 0 -113 -30 -128 -31 -17 -13 -30 41 -30 68 0 90 28 90 117 0 59
-3 67 -30 95 -29 29 -34 30 -95 26 -45 -3 -70 -10 -86 -23 -104 -93 -81 -394
38 -510 l35 -34 -34 -33 c-43 -40 -71 -93 -94 -179 -28 -97 -25 -355 4 -462
31 -112 77 -199 132 -251 45 -42 62 -49 140 -59 13 -2 15 -35 18 -217 1 -118
0 -224 -2 -236 -3 -12 -22 -28 -45 -39 l-40 -18 19 -24 c22 -28 15 -55 -21
-73 -16 -9 -19 -19 -17 -48 l3 -37 138 -3 c93 -3 137 0 137 7 0 6 16 11 35 11
33 0 35 2 35 33 0 25 -6 36 -30 49 -33 19 -39 48 -15 72 20 20 19 23 -9 30
-55 14 -56 18 -56 276 l0 238 35 22 c174 108 296 514 265 882 -9 102 -30 198
-121 555 -60 238 -109 435 -109 438 0 3 26 5 58 5 68 0 92 18 117 89 27 76 10
199 -27 202 -13 1 -92 1 -114 0 -17 -1 -44 -64 -44 -101 l0 -32 51 4 51 3 -6
-34 c-3 -18 -13 -45 -22 -59 l-17 -26 -17 22 c-23 29 -76 155 -91 218 -6 27
-19 76 -29 109 -87 293 -98 595 -30 867 33 132 54 180 99 222 l31 30 28 -27
c61 -58 109 -211 99 -314 -6 -55 -40 -143 -55 -143 -13 0 -22 35 -22 83 0 27
7 45 25 63 14 14 25 29 25 34 0 13 -86 13 -110 0 -38 -20 -52 -113 -26 -175
19 -44 42 -55 114 -55 50 0 63 4 85 26 77 77 77 305 0 447 -15 27 -38 58 -52
68 l-25 20 36 29 c85 70 126 253 107 476 -22 255 -126 452 -257 484 l-52 12 0
244 0 244 -65 0 c-36 0 -65 -3 -65 -7z m157 -540 c45 -30 109 -128 141 -216
70 -194 70 -464 -1 -603 -34 -67 -59 -89 -84 -73 -25 15 -67 82 -84 134 -27
82 -6 265 30 265 23 0 26 -89 5 -158 -6 -22 -5 -23 42 -20 49 3 49 3 60 47 15
62 1 148 -28 177 -21 21 -28 22 -87 15 -74 -9 -92 -26 -117 -111 -34 -112 2
-285 73 -356 19 -20 33 -37 31 -38 -1 -2 -13 -9 -26 -15 -72 -38 -130 -196
-168 -460 -3 -18 -7 -31 -10 -29 -5 6 -89 328 -115 443 -41 183 -35 465 12
637 45 162 145 319 231 361 42 21 63 21 95 0z m113 -3145 l65 -253 0 -205 c0
-216 -6 -261 -52 -405 -52 -161 -125 -278 -209 -334 -26 -17 -52 -31 -57 -31
-24 0 -96 52 -120 87 -80 117 -111 238 -111 438 -1 128 3 161 22 222 23 76 76
156 106 161 61 12 125 -166 105 -292 -12 -70 -36 -123 -51 -108 -11 11 -6 127
6 155 7 15 2 17 -42 17 -49 0 -51 -1 -62 -36 -15 -44 -7 -136 14 -168 12 -19
27 -24 77 -29 35 -3 71 -1 82 5 28 15 66 106 73 176 12 111 -32 254 -91 301
l-27 20 38 33 c21 19 49 59 65 93 33 75 75 239 85 333 3 40 9 72 13 72 3 0 35
-114 71 -252z"/>
</g>
</svg>
