<?xml version="1.0" standalone="no"?>
<!DOCTYPE svg PUBLIC "-//W3C//DTD SVG 20010904//EN"
 "http://www.w3.org/TR/2001/REC-SVG-20010904/DTD/svg10.dtd">
<svg version="1.0" xmlns="http://www.w3.org/2000/svg"
 width="2644.000000pt" height="2800.000000pt" viewBox="0 0 2644.000000 2800.000000"
 preserveAspectRatio="xMidYMid meet">

<g transform="translate(0.000000,2800.000000) scale(0.100000,-0.100000)"
fill="#C5C3C1" stroke="none">
<path d="M9900 16976 l0 -244 -35 -22 c-178 -110 -288 -500 -244 -865 11 -96
29 -175 140 -620 38 -154 71 -290 74 -302 5 -22 2 -23 -48 -23 -46 0 -57 -4
-81 -29 -50 -52 -64 -171 -27 -238 10 -20 20 -23 77 -23 65 0 65 0 80 35 7 19
14 44 14 55 0 36 16 21 32 -29 9 -27 13 -62 10 -77 -3 -18 0 -31 11 -39 10 -7
29 -64 49 -151 31 -135 32 -146 33 -364 0 -193 -3 -239 -22 -321 -29 -132 -60
-212 -98 -256 -38 -43 -53 -41 -93 17 -57 84 -78 283 -38 363 10 21 24 36 30
34 29 -10 21 -122 -9 -134 -8 -3 -15 -11 -15 -19 0 -10 15 -14 56 -14 54 0 55
1 71 37 24 58 14 140 -22 170 -24 21 -35 24 -87 19 -69 -6 -93 -22 -118 -81
-27 -61 -32 -140 -16 -233 17 -95 43 -155 88 -200 l31 -33 -30 -32 c-154 -162
-141 -652 22 -846 33 -38 96 -70 138 -71 l27 0 -2 -227 -3 -227 -36 -21 c-35
-20 -35 -20 -20 -48 16 -28 15 -29 -16 -56 -22 -18 -33 -36 -33 -54 0 -26 1
-27 63 -27 35 0 68 -5 74 -11 11 -11 38 -9 148 8 47 8 50 10 53 41 3 26 -1 34
-22 41 -32 13 -43 47 -22 70 21 23 20 28 -8 35 -55 14 -56 19 -56 265 l0 228
39 27 c80 56 165 207 205 367 50 196 59 402 26 591 -10 62 -58 268 -104 458
-47 190 -88 355 -91 368 -5 20 -2 22 43 22 61 0 84 17 112 82 18 42 21 64 17
111 -7 80 -24 97 -98 97 -55 0 -59 -2 -74 -30 -8 -16 -15 -40 -15 -55 0 -14
-4 -25 -8 -25 -12 0 -42 100 -42 138 0 17 -4 33 -9 37 -10 6 -55 192 -71 295
-15 100 -12 349 6 464 27 173 77 305 127 336 26 16 49 -7 87 -84 51 -105 57
-254 14 -337 -22 -43 -39 -23 -38 43 0 40 5 55 22 69 35 27 27 39 -26 39 -70
0 -87 -22 -87 -112 0 -64 2 -72 28 -94 42 -36 125 -34 167 4 89 81 71 360 -31
476 l-38 43 29 21 c89 66 132 310 95 537 -24 147 -67 254 -132 326 -42 47 -65
61 -113 69 l-35 5 0 238 0 237 -62 0 -63 0 0 -244z m150 -291 c67 -49 117
-144 153 -285 31 -125 30 -348 -2 -440 -29 -83 -65 -132 -94 -128 -36 5 -88
120 -94 205 -6 71 17 183 37 183 22 0 25 -102 5 -152 -6 -15 -2 -18 23 -18 17
0 37 -3 45 -6 19 -7 37 43 37 103 0 46 -23 112 -43 125 -22 14 -121 -3 -145
-25 -78 -72 -64 -320 25 -418 20 -22 34 -41 32 -42 -2 -2 -16 -11 -31 -20 -57
-36 -113 -183 -142 -372 -7 -49 -16 -83 -19 -75 -15 37 -108 432 -117 495 -5
39 -10 126 -10 195 0 247 55 455 158 596 29 39 114 104 137 104 6 0 27 -11 45
-25z m-226 -1873 c7 -15 17 -37 20 -49 7 -22 5 -23 -44 -23 -50 0 -50 0 -44
28 11 43 34 83 44 77 6 -4 16 -18 24 -33z m346 -377 c0 -25 -28 -85 -39 -85
-11 0 -51 71 -51 90 0 5 20 10 45 10 34 0 45 -4 45 -15z m-21 -770 c74 -304
87 -459 56 -671 -35 -235 -145 -452 -258 -511 -57 -29 -124 26 -183 151 -100
213 -76 625 41 702 25 16 27 16 50 -6 38 -36 65 -120 65 -203 0 -94 -26 -185
-46 -164 -10 10 -10 94 0 135 l9 32 -46 0 c-46 0 -46 0 -58 -42 -14 -53 -5
-125 20 -158 16 -22 26 -25 82 -25 61 0 64 1 86 34 35 52 46 107 41 206 -5 99
-30 170 -75 217 l-26 27 30 28 c59 55 111 199 134 376 7 53 16 93 20 89 4 -4
30 -101 58 -217z"/>
</g>
</svg>
