<?xml version="1.0" standalone="no"?>
<!DOCTYPE svg PUBLIC "-//W3C//DTD SVG 20010904//EN"
 "http://www.w3.org/TR/2001/REC-SVG-20010904/DTD/svg10.dtd">
<svg version="1.0" xmlns="http://www.w3.org/2000/svg"
 width="2644.000000pt" height="2800.000000pt" viewBox="0 0 2644.000000 2800.000000"
 preserveAspectRatio="xMidYMid meet">

<g transform="translate(0.000000,2800.000000) scale(0.100000,-0.100000)"
fill="#C5C3C1" stroke="none">
<path d="M4498 14603 c-79 -111 -72 -63 -69 -469 l2 -252 -38 -23 c-21 -13
-49 -34 -63 -46 -14 -13 -33 -26 -42 -29 -10 -3 -18 -10 -18 -15 0 -6 -10 -20
-22 -33 -80 -82 -170 -285 -207 -466 -31 -148 -36 -247 -21 -412 13 -153 32
-234 120 -518 28 -91 80 -259 115 -375 35 -115 71 -229 79 -252 8 -22 12 -44
9 -47 -4 -3 -36 -6 -73 -6 -84 0 -124 -24 -160 -95 -35 -69 -36 -183 -3 -217
26 -26 126 -38 161 -19 26 14 47 53 56 104 l7 37 -50 0 -49 0 -7 -40 c-5 -30
-11 -40 -26 -40 -16 0 -19 7 -19 53 1 77 57 187 96 187 16 0 95 -127 128 -208
16 -37 24 -73 21 -89 -3 -19 2 -34 16 -49 27 -29 94 -259 114 -390 30 -199 14
-456 -40 -652 -42 -155 -82 -240 -141 -299 -58 -58 -73 -62 -121 -34 -135 83
-178 394 -72 516 42 47 65 46 79 -5 15 -55 3 -109 -32 -141 -15 -15 -28 -30
-28 -34 0 -3 26 -5 57 -3 53 3 59 6 80 37 33 49 33 148 -1 188 -21 24 -32 28
-94 31 -94 5 -139 -19 -189 -102 -34 -55 -37 -66 -41 -158 -4 -91 -2 -105 23
-171 39 -101 72 -147 128 -176 26 -14 47 -31 47 -37 0 -6 -15 -22 -33 -34 -32
-22 -107 -118 -107 -138 0 -5 -11 -34 -24 -63 -73 -159 -56 -495 34 -675 69
-140 172 -214 297 -214 l43 0 -2 -532 -3 -533 -47 -25 -48 -26 22 -22 c18 -18
20 -26 12 -49 -5 -15 -22 -34 -37 -41 -22 -11 -27 -20 -27 -52 l0 -38 133 -6
c109 -6 145 -4 207 11 l75 18 3 41 c3 37 0 42 -23 48 -33 8 -51 46 -36 75 7
11 16 21 21 21 23 0 7 19 -25 30 -69 23 -65 -15 -65 578 l1 537 50 34 c166
113 326 435 343 691 2 36 7 108 11 161 8 101 -4 239 -31 359 -13 56 -155 528
-260 864 -18 59 -31 112 -28 118 3 5 37 8 76 7 86 -2 111 13 152 95 36 72 40
162 8 205 -18 24 -25 26 -93 26 l-74 0 -22 -45 c-13 -24 -23 -55 -23 -67 0
-20 5 -23 43 -23 42 0 44 1 53 38 5 22 15 37 24 37 12 0 15 -14 14 -67 0 -56
-5 -75 -30 -115 -42 -68 -64 -68 -106 -1 -51 81 -98 194 -103 248 -2 27 -10
59 -19 72 -18 29 -70 216 -92 333 -24 125 -24 386 0 520 51 283 147 475 238
475 81 0 177 -206 165 -358 -7 -96 -78 -221 -102 -182 -32 52 -22 135 20 168
40 32 31 42 -38 42 -71 0 -86 -10 -106 -69 -26 -77 -4 -159 50 -186 24 -13 51
-16 105 -13 64 3 77 7 103 32 130 124 92 478 -62 582 l-46 32 39 26 c153 101
211 454 124 753 -28 98 -42 126 -97 205 -68 99 -134 138 -231 138 l-66 0 -2
400 -3 399 -67 -96z m168 -761 c114 -84 186 -219 219 -416 38 -222 -3 -446
-102 -556 -52 -58 -77 -63 -122 -24 -80 67 -121 231 -87 347 20 68 60 120 76
97 19 -30 23 -99 7 -147 -9 -26 -15 -48 -14 -49 1 -1 25 -4 53 -8 l52 -6 16
47 c9 25 16 65 16 87 0 44 -27 113 -52 134 -21 17 -152 8 -183 -12 -57 -38
-101 -168 -92 -272 11 -116 71 -230 139 -265 26 -13 36 -24 31 -35 -3 -10 -13
-14 -25 -11 -31 9 -94 -57 -132 -137 -60 -124 -95 -264 -120 -471 -3 -22 -6
-42 -6 -45 -4 -32 -180 545 -201 660 -22 122 -17 383 11 505 66 296 195 501
365 581 66 32 103 30 151 -4z m28 -3264 c2 -7 38 -127 80 -265 43 -139 84
-283 92 -320 22 -97 29 -346 15 -472 -40 -343 -204 -642 -408 -745 -43 -22
-77 -20 -129 5 -108 54 -190 193 -220 374 -3 17 -10 40 -16 52 -12 25 -5 224
11 308 31 164 128 305 209 305 40 0 67 -26 98 -95 59 -128 50 -270 -23 -382
-43 -66 -84 67 -48 154 8 19 15 37 15 39 0 2 -20 4 -46 4 -42 0 -46 -2 -60
-35 -16 -39 -19 -122 -4 -159 13 -36 46 -53 116 -59 58 -6 62 -5 94 26 97 94
117 283 44 428 -22 44 -84 109 -104 109 -22 0 -8 26 25 48 96 62 185 294 215
562 14 123 16 130 30 130 6 0 12 -6 14 -12z"/>
</g>
</svg>
