<?xml version="1.0" standalone="no"?>
<!DOCTYPE svg PUBLIC "-//W3C//DTD SVG 20010904//EN"
 "http://www.w3.org/TR/2001/REC-SVG-20010904/DTD/svg10.dtd">
<svg version="1.0" xmlns="http://www.w3.org/2000/svg"
 width="3542.000000pt" height="3750.000000pt" viewBox="0 0 3542.000000 3750.000000"
 preserveAspectRatio="xMidYMid meet">

<g transform="translate(0.000000,3750.000000) scale(0.100000,-0.100000)"
fill="#65340A" stroke="none">
<path d="M20930 17800 l0 -930 -47 -24 c-267 -137 -454 -530 -454 -954 0 -244
6 -266 191 -802 86 -249 220 -642 220 -645 0 -1 -26 3 -57 8 -105 18 -138 15
-180 -19 -44 -35 -89 -117 -98 -178 -8 -54 10 -121 40 -152 21 -21 33 -24 103
-24 83 0 102 10 129 65 15 29 25 93 16 98 -4 3 -30 7 -58 8 l-49 4 -8 -44 c-9
-54 -33 -84 -48 -61 -14 21 -12 95 2 143 7 23 32 61 55 86 40 42 43 43 65 29
55 -36 181 -255 173 -299 -3 -14 5 -37 20 -59 33 -47 110 -283 131 -400 24
-128 24 -410 1 -535 -34 -186 -99 -368 -163 -456 -51 -70 -99 -99 -165 -99
-50 0 -58 3 -91 38 -107 111 -141 324 -73 457 17 32 44 69 62 82 l32 24 20
-20 c26 -26 35 -62 26 -107 -6 -33 -21 -53 -69 -92 -27 -22 -8 -32 58 -32 54
0 67 4 88 25 71 71 55 216 -27 251 -53 22 -167 28 -201 11 -91 -48 -144 -157
-144 -297 0 -172 88 -343 196 -382 32 -11 46 -28 23 -28 -22 0 -122 -107 -154
-165 -44 -81 -61 -140 -75 -268 -41 -368 116 -711 351 -766 52 -13 94 -19 132
-20 l27 -1 0 -597 c0 -329 -4 -603 -8 -610 -4 -7 -30 -22 -56 -34 -41 -18 -46
-23 -32 -31 44 -25 35 -88 -15 -109 -26 -10 -29 -17 -29 -54 0 -49 -8 -46 155
-66 88 -11 112 -10 198 6 l97 17 0 44 c0 33 -4 46 -17 51 -54 19 -69 67 -33
103 l21 21 -38 15 c-80 33 -74 -26 -73 664 l1 616 47 24 c26 14 88 65 137 115
131 131 211 275 274 496 42 146 53 223 52 384 0 252 7 227 -301 1120 -26 77
-60 171 -74 209 -14 37 -26 70 -26 71 0 2 40 3 90 2 80 0 94 3 129 26 82 54
126 206 85 292 -18 39 -46 51 -132 60 -60 7 -63 6 -91 -24 -27 -29 -59 -120
-48 -138 3 -4 29 -8 57 -8 l53 0 12 48 c15 59 23 67 42 42 38 -51 -14 -197
-85 -238 -40 -24 -45 -20 -108 75 -68 103 -104 190 -97 232 4 29 1 39 -23 62
-33 34 -96 218 -125 367 -59 302 -19 642 106 913 35 76 91 146 136 170 16 8
46 14 67 14 112 0 227 -216 208 -393 -10 -103 -76 -207 -130 -207 -20 0 -46
50 -46 90 0 46 26 98 54 112 45 20 35 28 -49 41 -17 3 -41 -1 -56 -10 -79 -47
-78 -227 1 -268 36 -18 174 -19 210 0 136 70 172 323 74 516 -32 64 -103 134
-151 150 l-36 12 39 19 c238 116 307 613 131 952 -81 159 -206 252 -351 263
l-76 6 0 913 0 914 -85 0 -85 0 0 -930z m257 -962 c81 -30 185 -135 236 -238
142 -292 100 -713 -87 -850 -46 -34 -107 -40 -144 -15 -53 38 -103 142 -117
246 -11 84 25 198 80 249 l27 25 17 -22 c34 -41 34 -168 1 -188 -6 -3 -10 -15
-10 -26 0 -16 7 -19 55 -19 l56 0 19 43 c27 58 26 132 -2 187 -27 53 -50 66
-138 74 -62 7 -68 5 -107 -23 -119 -86 -148 -322 -58 -476 30 -50 107 -125
130 -125 27 0 16 -15 -31 -39 -25 -14 -60 -42 -78 -63 -95 -110 -187 -405
-203 -648 l-6 -94 -17 39 c-9 22 -67 189 -128 370 -132 392 -148 473 -139 700
13 299 114 568 277 739 76 80 133 121 210 153 69 28 85 28 157 1z m133 -3788
c50 -146 97 -283 105 -305 37 -101 57 -223 62 -370 10 -312 -68 -590 -227
-804 -140 -189 -348 -293 -466 -233 -104 53 -203 205 -245 377 -33 134 -31
318 5 438 31 104 46 135 94 200 119 156 253 112 308 -102 27 -108 -2 -235 -69
-302 -35 -36 -48 -33 -64 12 -18 53 -15 92 12 143 14 26 25 49 25 51 0 2 -13
6 -30 9 -16 3 -42 8 -58 11 -35 7 -57 -27 -67 -106 -9 -70 8 -133 45 -171 27
-26 34 -28 108 -28 73 0 84 3 112 27 85 71 131 215 110 336 -22 119 -108 239
-181 254 l-31 6 31 13 c56 24 137 110 175 187 73 149 128 360 142 542 4 47 8
84 10 82 2 -1 44 -122 94 -267z"/>
</g>
</svg>
