<?xml version="1.0" standalone="no"?>
<!DOCTYPE svg PUBLIC "-//W3C//DTD SVG 20010904//EN"
 "http://www.w3.org/TR/2001/REC-SVG-20010904/DTD/svg10.dtd">
<svg version="1.0" xmlns="http://www.w3.org/2000/svg"
 width="3542.000000pt" height="3750.000000pt" viewBox="0 0 3542.000000 3750.000000"
 preserveAspectRatio="xMidYMid meet">

<g transform="translate(0.000000,3750.000000) scale(0.100000,-0.100000)"
fill="#65340A" stroke="none">
<path d="M33227 18633 c-2 -5 -3 -468 -2 -1030 l1 -1022 -85 -6 c-135 -10
-189 -23 -289 -71 -78 -38 -108 -59 -177 -129 -72 -72 -91 -99 -134 -187 -66
-137 -82 -198 -88 -353 -7 -158 12 -264 64 -375 48 -100 144 -198 239 -242
l68 -32 -52 -17 c-107 -36 -193 -118 -248 -233 -85 -180 -59 -357 69 -472 47
-42 122 -74 171 -74 35 0 165 37 191 54 58 38 76 145 36 209 -31 50 -62 67
-136 72 -59 5 -65 3 -65 -13 0 -13 13 -24 39 -34 51 -20 76 -59 76 -119 0 -53
-25 -88 -76 -109 -61 -26 -173 50 -219 148 -64 136 -16 336 111 457 81 77 103
85 219 76 109 -9 150 -26 227 -95 132 -119 250 -402 283 -677 19 -163 -3 -385
-55 -543 -40 -123 -123 -299 -152 -323 -20 -16 -27 -32 -29 -60 -5 -117 -231
-393 -321 -393 -56 0 -149 74 -189 152 -39 75 -10 187 47 180 35 -3 78 -55 85
-102 4 -22 10 -42 14 -45 7 -4 86 17 90 25 2 3 0 24 -3 47 -9 51 -55 108 -100
121 -51 16 -160 9 -191 -11 -90 -59 -89 -190 2 -313 39 -53 137 -104 199 -104
62 0 179 35 219 65 19 14 34 24 34 22 0 -2 -59 -132 -131 -288 -438 -951 -456
-993 -484 -1143 -101 -541 180 -1109 666 -1348 l79 -38 0 -688 c-1 -550 -3
-690 -14 -704 -7 -10 -36 -28 -64 -41 l-51 -24 24 -21 c14 -13 25 -33 25 -47
0 -28 -32 -65 -55 -65 -9 0 -19 -10 -24 -23 -9 -23 -7 -74 3 -85 3 -3 76 -15
162 -27 165 -23 152 -24 307 16 36 10 37 10 37 59 0 45 -3 50 -25 56 -27 7
-65 48 -65 70 0 7 11 26 25 42 l25 30 -46 18 c-25 10 -52 24 -60 31 -12 12
-14 125 -14 689 l0 674 58 0 c61 0 210 29 281 54 144 52 292 197 367 360 83
181 88 469 12 649 -60 142 -173 262 -299 315 l-41 18 58 18 c163 51 281 205
300 388 12 118 -41 250 -126 318 -57 45 -110 60 -214 60 -110 0 -168 -23 -198
-80 -41 -76 -3 -206 72 -245 35 -18 106 -12 137 10 16 12 14 14 -20 29 -97 40
-129 153 -62 219 35 36 139 8 203 -54 108 -103 126 -247 51 -409 -35 -77 -106
-153 -176 -188 -35 -18 -52 -20 -129 -15 -76 4 -98 10 -150 39 -123 67 -228
221 -307 449 -59 171 -72 256 -72 465 0 167 3 195 27 290 35 140 157 430 180
430 37 1 76 78 48 95 -32 20 189 310 256 335 25 10 89 -1 130 -23 39 -20 102
-90 120 -133 27 -65 10 -149 -36 -174 -38 -20 -87 25 -105 97 l-12 48 -44 -2
c-24 -1 -47 -2 -51 -2 -28 -3 15 -123 58 -160 46 -41 93 -48 174 -27 72 19
105 44 126 95 29 70 6 154 -63 231 -68 76 -108 93 -228 98 -94 3 -103 2 -157
-25 l-57 -29 13 30 c8 17 42 92 76 166 203 439 470 1034 488 1085 134 392 43
864 -229 1183 -107 126 -253 232 -401 292 l-58 24 0 1048 0 1048 -94 0 c-52 0
-97 -3 -99 -7z m112 -2142 c49 -16 115 -44 147 -61 374 -201 604 -651 564
-1103 -17 -188 -42 -260 -268 -756 l-207 -456 -6 145 c-10 217 -49 384 -134
566 -52 112 -108 196 -168 251 -49 45 -141 96 -197 108 l-35 8 47 12 c139 37
248 160 279 318 24 119 -38 267 -140 336 -42 28 -64 35 -123 41 -40 3 -88 3
-107 -1 -37 -8 -85 -49 -107 -92 -23 -44 -21 -137 5 -190 29 -59 44 -72 70
-58 11 6 31 11 45 11 27 0 34 14 15 26 -19 11 -49 87 -49 124 0 48 31 112 62
129 52 27 156 -49 202 -148 16 -35 21 -66 21 -131 0 -76 -4 -91 -32 -145 -37
-70 -79 -117 -141 -156 -39 -24 -54 -28 -125 -28 -103 0 -143 17 -229 98 -105
98 -155 216 -173 406 -7 76 7 207 32 293 55 195 191 362 358 442 99 48 109 50
218 44 63 -3 115 -13 176 -33z m-288 -3873 c-9 -293 93 -628 254 -838 45 -59
138 -129 200 -151 l34 -13 -68 -33 c-121 -58 -199 -159 -223 -289 -20 -110 24
-243 108 -327 44 -44 127 -87 166 -87 42 0 150 39 176 63 69 64 76 185 16 264
-23 30 -29 33 -72 30 -56 -4 -64 -21 -32 -65 47 -63 42 -162 -11 -206 -25 -21
-33 -23 -59 -15 -45 16 -113 81 -145 140 -23 43 -30 69 -33 134 -5 105 19 173
90 250 63 69 98 89 141 79 18 -4 54 -7 80 -6 98 4 234 -94 312 -223 127 -213
113 -570 -32 -792 -79 -120 -221 -223 -352 -253 -178 -42 -465 76 -663 273
-81 80 -135 152 -190 252 -120 220 -168 399 -169 628 0 245 21 310 274 857 33
71 138 305 178 398 10 23 20 42 21 42 2 0 1 -51 -1 -112z"/>
</g>
</svg>
