<?xml version="1.0" standalone="no"?>
<!DOCTYPE svg PUBLIC "-//W3C//DTD SVG 20010904//EN"
 "http://www.w3.org/TR/2001/REC-SVG-20010904/DTD/svg10.dtd">
<svg version="1.0" xmlns="http://www.w3.org/2000/svg"
 width="3542.000000pt" height="3750.000000pt" viewBox="0 0 3542.000000 3750.000000"
 preserveAspectRatio="xMidYMid meet">

<g transform="translate(0.000000,3750.000000) scale(0.100000,-0.100000)"
fill="#65340A" stroke="none">
<path d="M6305 18518 c-3 -7 -4 -530 -3 -1163 l3 -1150 -105 -51 c-227 -110
-403 -288 -528 -531 -160 -313 -202 -687 -116 -1020 20 -81 99 -279 204 -518
40 -91 155 -357 264 -608 64 -147 122 -279 130 -295 7 -15 17 -37 20 -49 l7
-22 -43 23 c-61 34 -180 60 -235 52 -101 -14 -192 -89 -245 -203 -25 -53 -30
-73 -26 -116 6 -66 32 -121 71 -149 46 -33 179 -38 236 -9 51 26 94 97 95 155
1 39 0 41 -34 46 -20 3 -41 10 -48 14 -21 12 -42 -14 -42 -51 0 -61 -49 -123
-97 -123 -28 0 -53 51 -53 108 0 130 146 283 245 258 36 -9 111 -81 183 -175
78 -102 110 -159 110 -199 1 -47 10 -67 35 -81 44 -24 178 -358 214 -538 28
-137 25 -472 -5 -612 -33 -149 -74 -269 -141 -406 -100 -204 -214 -304 -361
-317 -41 -3 -87 -9 -101 -13 -60 -16 -178 79 -236 190 -42 81 -67 200 -59 278
8 77 51 170 102 221 49 48 133 89 167 81 45 -12 70 -50 74 -113 5 -73 -19
-115 -83 -143 -31 -14 -44 -26 -42 -37 3 -14 16 -17 80 -17 74 0 78 1 112 34
74 71 79 209 11 268 -34 30 -149 63 -219 63 -212 0 -367 -242 -315 -492 40
-190 164 -334 328 -378 l45 -12 -61 -32 c-190 -102 -308 -287 -342 -539 -42
-308 49 -603 243 -784 121 -114 267 -171 484 -189 l80 -7 0 -736 c-1 -613 -3
-739 -14 -757 -8 -12 -41 -32 -73 -44 l-58 -24 28 -24 c50 -42 30 -111 -36
-128 -23 -6 -25 -11 -25 -64 l0 -58 105 -26 c57 -14 115 -26 127 -26 13 0 94
12 181 27 l157 27 0 58 c0 46 -3 58 -16 58 -23 0 -72 37 -79 60 -7 23 9 59 38
81 19 16 17 17 -51 45 l-72 29 0 780 0 781 58 28 c362 176 636 567 718 1022
24 136 24 375 0 504 -30 153 -47 196 -406 1020 -141 325 -220 509 -220 514 0
3 19 -4 42 -16 33 -18 64 -23 139 -26 87 -4 103 -2 152 21 68 31 128 92 163
164 22 47 25 67 22 123 -5 86 -37 134 -101 150 -23 5 -57 15 -75 21 -19 6 -49
8 -68 4 -71 -13 -143 -107 -144 -186 l0 -35 60 -2 c57 -2 60 -1 60 22 0 56 54
136 92 136 10 0 27 -15 38 -32 69 -113 -47 -310 -197 -334 -40 -6 -44 -4 -98
47 -105 99 -235 301 -217 336 5 10 8 23 7 28 -2 6 -6 22 -9 36 -4 17 -18 32
-39 42 -25 12 -37 27 -47 59 -8 24 -31 82 -52 130 -174 405 -168 840 17 1278
67 160 163 281 261 329 38 20 67 25 138 27 81 3 94 1 138 -23 132 -72 221
-237 222 -413 0 -70 -4 -94 -25 -140 -33 -70 -70 -114 -123 -144 -63 -37 -106
-42 -134 -16 -76 71 -46 203 56 246 48 20 35 38 -34 47 -73 9 -94 5 -129 -30
-94 -93 -82 -254 23 -311 36 -20 57 -24 145 -24 125 0 185 21 246 87 118 128
139 301 61 489 -57 136 -150 227 -279 272 -36 13 -59 23 -50 23 9 1 48 17 87
36 372 187 435 862 116 1249 -134 162 -289 239 -511 253 l-103 6 0 1144 0
1143 -105 0 c-75 0 -107 -4 -110 -12z m341 -2339 c32 -6 95 -28 139 -48 194
-91 325 -260 391 -506 23 -85 28 -121 28 -235 1 -234 -51 -386 -174 -511 -90
-91 -150 -119 -255 -119 -75 0 -86 3 -121 29 -159 117 -219 319 -145 486 30
67 74 118 124 145 43 23 46 23 72 6 32 -21 64 -88 65 -134 0 -36 -23 -97 -46
-123 -9 -10 -14 -25 -12 -35 2 -15 13 -18 56 -17 28 1 56 1 61 2 5 1 21 24 35
53 63 127 13 276 -103 308 -82 23 -155 23 -204 2 -138 -61 -229 -250 -200
-419 26 -148 137 -297 254 -339 27 -10 49 -20 49 -23 0 -4 -33 -21 -73 -40
-137 -64 -245 -211 -337 -453 -70 -186 -104 -373 -113 -616 l-2 -63 -129 298
c-72 164 -146 334 -167 378 -173 378 -205 503 -196 787 3 123 11 199 25 263
101 440 386 786 743 900 46 15 89 28 94 30 21 7 84 4 141 -6z m260 -4714 c222
-512 228 -526 253 -652 29 -141 36 -270 21 -409 -54 -535 -374 -977 -817
-1131 -67 -23 -95 -27 -193 -27 -114 -1 -115 -1 -186 37 -211 113 -348 352
-370 647 -12 158 29 361 96 477 42 73 137 172 204 212 48 28 66 34 110 32 29
-1 64 3 77 8 75 27 208 -101 251 -242 24 -82 21 -153 -13 -243 -40 -107 -180
-220 -226 -182 -25 21 -43 73 -43 125 0 48 28 124 49 137 26 16 8 33 -46 46
-52 11 -58 11 -71 -6 -59 -77 -72 -200 -31 -275 36 -64 64 -80 163 -91 82 -9
90 -8 141 16 96 43 169 138 201 259 56 212 -78 446 -285 498 l-44 11 55 22
c79 32 117 58 179 121 67 69 125 162 183 297 87 205 124 372 133 601 3 87 9
154 14 150 4 -4 92 -201 195 -438z"/>
</g>
</svg>
