<?xml version="1.0" standalone="no"?>
<!DOCTYPE svg PUBLIC "-//W3C//DTD SVG 20010904//EN"
 "http://www.w3.org/TR/2001/REC-SVG-20010904/DTD/svg10.dtd">
<svg version="1.0" xmlns="http://www.w3.org/2000/svg"
 width="2550.000000pt" height="2700.000000pt" viewBox="0 0 2550.000000 2700.000000"
 preserveAspectRatio="xMidYMid meet">

<g transform="translate(0.000000,2700.000000) scale(0.100000,-0.100000)"
fill="#C5C3C1" stroke="none">
<path d="M8740 16295 c-1 -5 -1 -267 -1 -582 l1 -571 -44 -26 c-183 -107 -298
-412 -283 -750 6 -150 19 -201 162 -691 48 -165 90 -307 92 -317 4 -13 -5 -17
-54 -23 -80 -9 -99 -18 -122 -63 -30 -59 -36 -130 -14 -172 16 -32 23 -36 73
-41 30 -3 62 -2 71 2 17 8 33 42 43 92 6 26 5 27 -38 27 -40 0 -44 -2 -49 -30
-9 -45 -27 -36 -27 13 0 55 38 132 66 132 28 0 125 -195 117 -236 -4 -22 0
-36 14 -52 20 -23 51 -120 78 -248 22 -103 30 -296 16 -406 -32 -259 -130
-479 -205 -457 -65 19 -118 105 -136 219 -18 111 22 235 77 243 42 6 43 -123
0 -153 -26 -18 -23 -21 30 -28 32 -4 46 -1 58 13 27 30 37 80 24 133 -15 64
-42 78 -129 68 -55 -7 -67 -12 -90 -40 -36 -43 -52 -101 -51 -186 2 -124 52
-238 122 -279 34 -20 33 -23 -17 -54 -27 -17 -77 -102 -97 -166 -19 -60 -22
-93 -21 -216 0 -106 5 -162 18 -209 35 -128 108 -240 181 -278 16 -9 52 -18
80 -22 l50 -6 2 -445 c2 -482 2 -482 -52 -496 -30 -7 -30 -8 -9 -39 16 -24 15
-26 -16 -55 -23 -22 -31 -36 -28 -57 l3 -28 125 -3 c69 -1 144 1 165 6 36 7
40 11 43 40 3 26 0 32 -15 32 -11 0 -24 5 -31 12 -15 15 -16 60 -1 75 7 7 1
14 -21 23 -17 7 -35 21 -40 31 -14 26 -10 918 4 930 6 5 31 24 55 43 158 122
261 399 261 706 0 161 -12 217 -144 673 -58 202 -106 372 -106 378 0 6 23 9
59 7 51 -2 63 1 85 21 14 13 32 38 40 56 28 58 16 175 -18 188 -6 2 -37 2 -68
-1 -53 -4 -58 -7 -72 -37 -9 -18 -16 -42 -16 -54 0 -18 6 -21 45 -21 43 0 45
1 45 30 0 36 15 40 24 6 8 -32 -19 -119 -45 -142 -21 -19 -21 -19 -41 6 -29
35 -85 158 -99 216 -6 27 -15 57 -20 66 -16 33 -68 244 -78 321 -38 282 39
669 150 748 35 25 41 24 79 -7 102 -86 133 -323 55 -411 -24 -27 -25 -28 -40
-9 -8 11 -15 39 -15 63 0 34 6 49 25 67 14 13 25 27 25 31 0 16 -103 -2 -117
-20 -32 -45 -23 -154 15 -174 9 -4 45 -11 78 -15 57 -6 64 -5 92 19 49 41 65
99 60 213 -6 119 -38 202 -101 259 -23 20 -36 38 -30 40 48 16 111 116 134
213 20 85 15 290 -9 380 -52 194 -151 317 -263 328 l-49 5 0 572 0 573 -60 4
c-35 2 -60 -1 -60 -7z m193 -1209 c120 -99 186 -297 174 -524 -6 -124 -25
-188 -73 -255 -27 -37 -40 -47 -63 -47 -61 0 -126 121 -125 235 1 61 33 155
53 155 30 0 38 -84 16 -157 -7 -21 -5 -23 34 -21 52 2 62 18 63 98 1 41 -5 68
-19 92 -19 32 -21 33 -86 32 -75 -1 -88 -9 -120 -68 -18 -34 -22 -57 -22 -136
0 -115 25 -181 88 -235 22 -19 35 -35 29 -35 -6 0 -28 -15 -48 -32 -67 -59
-137 -250 -151 -415 -4 -46 -10 -73 -18 -73 -12 0 -135 417 -156 530 -28 153
-9 410 41 556 56 161 173 303 278 334 36 11 59 3 105 -34z m25 -2708 c5 -24
34 -129 65 -234 70 -241 81 -318 74 -498 -6 -136 -22 -226 -61 -334 -52 -144
-176 -305 -260 -337 -41 -16 -45 -16 -82 3 -87 45 -162 160 -191 294 -21 98
-20 274 2 358 21 82 39 116 83 163 58 59 91 48 145 -48 31 -57 32 -211 1 -269
-28 -53 -41 -55 -55 -7 -12 39 -8 69 17 127 3 8 -9 11 -38 10 -41 -1 -44 -3
-57 -41 -16 -46 -9 -118 14 -148 9 -13 31 -20 77 -24 59 -4 65 -3 90 24 31 32
55 92 64 161 11 87 -47 239 -102 264 -32 15 -30 29 6 50 79 45 134 201 176
496 7 45 21 40 32 -10z"/>
</g>
</svg>
