<?xml version="1.0" standalone="no"?>
<!DOCTYPE svg PUBLIC "-//W3C//DTD SVG 20010904//EN"
 "http://www.w3.org/TR/2001/REC-SVG-20010904/DTD/svg10.dtd">
<svg version="1.0" xmlns="http://www.w3.org/2000/svg"
 width="2550.000000pt" height="2700.000000pt" viewBox="0 0 2550.000000 2700.000000"
 preserveAspectRatio="xMidYMid meet">

<g transform="translate(0.000000,2700.000000) scale(0.100000,-0.100000)"
fill="#C5C3C1" stroke="none">
<path d="M18847 22122 l-47 -48 0 -534 0 -535 -71 -29 c-139 -56 -289 -177
-384 -311 -61 -85 -119 -212 -152 -331 -23 -86 -27 -118 -27 -239 0 -136 7
-190 41 -300 14 -44 101 -235 439 -957 45 -98 80 -178 77 -178 -3 0 -23 16
-45 36 -58 52 -122 77 -193 77 -69 0 -108 -16 -160 -69 -65 -64 -84 -158 -45
-221 26 -44 53 -56 128 -55 69 0 98 17 128 74 22 43 18 65 -13 71 -36 7 -39 4
-47 -37 -8 -42 -47 -76 -87 -76 -22 0 -34 8 -49 33 -25 41 -25 70 1 124 38 79
125 132 196 118 75 -14 253 -226 253 -300 0 -24 7 -39 25 -53 29 -23 113 -195
149 -304 35 -110 50 -210 50 -338 -1 -184 -37 -330 -123 -494 -56 -108 -101
-160 -177 -206 -54 -32 -64 -35 -154 -37 -93 -2 -99 -1 -151 30 -103 62 -172
186 -172 312 -1 83 21 133 82 188 70 63 156 67 201 10 41 -53 9 -156 -52 -165
-12 -2 -23 -9 -26 -17 -4 -11 7 -13 53 -9 49 4 62 9 82 34 41 52 43 116 3 167
-30 37 -141 72 -203 63 -63 -10 -135 -60 -172 -120 -28 -46 -30 -56 -30 -146
0 -91 2 -100 38 -172 52 -105 109 -155 237 -206 23 -9 24 -10 5 -16 -149 -49
-256 -170 -296 -336 -18 -76 -16 -240 4 -320 48 -184 178 -352 328 -423 85
-40 134 -53 237 -63 l72 -7 0 -533 0 -533 -27 -20 c-14 -12 -37 -24 -50 -27
l-24 -6 22 -24 c19 -20 21 -29 13 -52 -5 -15 -22 -33 -37 -40 -24 -12 -28 -19
-25 -50 l3 -37 130 2 c72 1 158 2 193 2 l62 1 0 35 c0 28 -5 38 -24 46 -32 15
-46 48 -33 77 6 12 14 22 19 22 21 0 5 17 -27 29 -19 7 -40 21 -45 31 -7 12
-9 210 -8 561 l3 541 67 23 c137 46 283 150 378 268 66 82 154 261 181 367 30
119 37 298 15 414 -26 134 -9 96 -399 931 -80 171 -143 312 -141 314 2 3 17
-7 32 -21 48 -46 85 -58 172 -58 96 0 140 18 194 82 84 97 66 203 -41 249 -57
24 -90 24 -130 -1 -41 -25 -62 -56 -65 -100 -3 -33 -1 -35 30 -38 28 -3 32 0
32 20 0 25 23 64 50 85 45 36 110 -11 110 -81 -1 -94 -86 -177 -191 -184 l-61
-5 -67 69 c-37 38 -88 101 -114 141 -41 62 -47 77 -42 106 6 30 3 37 -28 63
-53 44 -141 245 -171 392 -53 258 -7 537 126 766 50 85 110 147 176 180 39 20
67 25 138 28 84 2 93 1 144 -28 146 -82 223 -283 160 -417 -42 -89 -142 -147
-225 -131 -42 8 -65 40 -65 91 0 54 43 112 83 113 24 0 21 13 -6 26 -48 22
-117 -19 -138 -83 -26 -79 18 -153 102 -173 125 -30 237 11 296 109 39 66 49
126 35 205 -24 127 -102 228 -225 290 l-68 34 66 30 c176 83 277 280 262 517
-10 168 -84 334 -192 434 -109 99 -267 167 -406 173 l-74 4 -3 559 c-2 568 -3
574 -37 575 -6 0 -32 -22 -58 -48z m278 -1137 c135 -35 277 -148 342 -270 59
-113 78 -187 77 -315 0 -119 -15 -193 -54 -270 -31 -60 -106 -135 -169 -169
-55 -29 -70 -32 -149 -33 -97 -1 -125 9 -180 63 -137 135 -112 353 49 433 48
23 54 24 80 10 60 -31 77 -115 34 -178 -32 -47 -31 -52 3 -59 47 -9 82 41 82
120 0 62 -25 102 -83 136 -56 33 -114 35 -174 6 -164 -80 -193 -325 -54 -468
47 -48 115 -91 146 -91 31 0 13 -16 -54 -47 -87 -41 -145 -97 -202 -198 -55
-96 -90 -180 -121 -295 -19 -73 -23 -109 -23 -257 0 -95 -2 -173 -5 -173 -11
0 -386 820 -409 895 -22 71 -25 98 -25 245 -1 143 2 176 22 250 50 181 136
326 270 451 189 177 419 260 597 214z m60 -3300 c43 -93 116 -251 163 -350
165 -352 177 -393 176 -610 -1 -133 -4 -160 -28 -240 -77 -258 -235 -453 -451
-560 -114 -56 -198 -77 -305 -77 -174 0 -325 95 -439 277 -100 158 -118 424
-41 588 30 64 102 142 164 178 45 26 60 29 137 29 76 0 90 -3 130 -28 100 -64
166 -181 156 -278 -9 -87 -58 -160 -134 -198 -44 -22 -76 -20 -101 7 -48 51
-54 116 -17 172 15 20 25 38 23 39 -2 1 -15 7 -30 14 -25 10 -29 9 -50 -21
-19 -26 -23 -45 -23 -104 0 -62 3 -75 25 -98 36 -38 73 -55 122 -55 142 0 248
111 248 260 0 125 -77 237 -202 295 l-69 32 43 12 c126 37 210 117 287 273 88
178 129 373 118 552 -5 72 -3 86 7 75 7 -8 48 -90 91 -184z"/>
</g>
</svg>
