<?xml version="1.0" standalone="no"?>
<!DOCTYPE svg PUBLIC "-//W3C//DTD SVG 20010904//EN"
 "http://www.w3.org/TR/2001/REC-SVG-20010904/DTD/svg10.dtd">
<svg version="1.0" xmlns="http://www.w3.org/2000/svg"
 width="2550.000000pt" height="2700.000000pt" viewBox="0 0 2550.000000 2700.000000"
 preserveAspectRatio="xMidYMid meet">

<g transform="translate(0.000000,2700.000000) scale(0.100000,-0.100000)"
fill="#C5C3C1" stroke="none">
<path d="M21022 24207 l-52 -53 0 -545 0 -545 -57 -24 c-342 -141 -580 -485
-600 -866 -7 -128 7 -246 42 -349 13 -38 141 -315 284 -614 144 -300 261 -549
261 -554 0 -6 -23 11 -50 37 -99 93 -199 117 -295 72 -93 -43 -151 -132 -142
-220 4 -41 11 -55 41 -83 33 -31 41 -33 104 -33 80 0 106 14 133 74 24 54 24
61 -7 75 -31 14 -36 11 -49 -37 -12 -41 -63 -82 -102 -82 -27 0 -63 50 -63 88
0 92 114 201 211 202 60 0 134 -64 232 -201 35 -49 47 -76 47 -102 0 -27 7
-41 29 -59 36 -28 130 -229 166 -354 47 -160 49 -390 4 -555 -64 -238 -174
-407 -307 -469 -52 -25 -189 -35 -254 -19 -56 14 -141 98 -180 177 -29 59 -33
76 -33 152 0 75 3 91 28 132 38 65 106 110 173 116 45 4 55 1 84 -25 57 -51
41 -138 -32 -170 -52 -23 -50 -43 6 -43 51 0 92 27 112 76 32 76 6 131 -79
174 -90 45 -166 39 -249 -19 -75 -53 -127 -173 -112 -260 27 -165 124 -292
257 -337 45 -15 63 -34 32 -34 -33 0 -120 -54 -172 -106 -32 -32 -66 -79 -84
-117 -132 -284 -32 -653 224 -825 92 -61 173 -89 300 -105 l97 -11 0 -534 c0
-326 -4 -540 -10 -551 -5 -10 -28 -26 -50 -35 l-40 -16 20 -20 c33 -33 24 -72
-22 -96 -23 -12 -29 -21 -26 -41 3 -26 3 -26 93 -24 50 0 136 4 193 7 91 6
102 9 102 25 0 11 -4 19 -8 19 -5 0 -18 9 -30 20 -25 24 -29 62 -7 80 22 18
19 25 -20 39 -19 7 -40 21 -45 31 -7 12 -9 214 -8 571 l3 552 50 17 c506 172
768 779 554 1284 -16 39 -139 298 -273 576 -134 278 -242 507 -240 509 2 2 23
-14 47 -36 55 -51 103 -67 193 -67 59 1 80 5 117 27 92 54 141 149 118 227
-24 82 -150 134 -219 91 -69 -44 -96 -141 -41 -148 23 -3 28 1 33 31 7 38 64
96 94 96 31 0 61 -30 72 -70 32 -121 -141 -257 -267 -209 -37 14 -93 69 -152
149 -66 89 -82 123 -75 158 5 23 1 34 -17 51 -12 11 -27 21 -32 21 -13 0 -112
215 -136 295 -34 116 -44 210 -38 355 8 208 65 388 171 548 72 108 183 185
261 181 22 -1 59 1 82 5 107 19 247 -101 289 -248 51 -181 -68 -350 -236 -334
-61 6 -79 26 -80 85 0 33 7 50 31 78 17 19 39 35 49 35 31 0 31 15 1 33 -26
15 -30 15 -67 -3 -102 -51 -106 -197 -8 -245 53 -26 195 -28 240 -3 50 27 95
78 122 137 35 76 29 183 -16 274 -38 77 -125 163 -201 198 -28 13 -50 26 -51
29 0 3 29 20 64 38 122 63 216 191 246 334 16 81 14 241 -5 313 -48 182 -166
331 -335 419 -87 46 -162 66 -262 71 l-83 4 -3 570 c-2 541 -3 571 -20 580
-15 8 -28 1 -70 -42z m392 -1200 c148 -70 273 -228 312 -393 31 -135 17 -304
-33 -412 -33 -70 -118 -161 -185 -197 -47 -26 -64 -29 -151 -31 -113 -3 -144
7 -199 62 -134 133 -105 356 55 433 61 29 90 27 121 -10 36 -42 36 -111 1
-164 -15 -20 -24 -39 -22 -41 2 -2 18 -7 35 -10 27 -6 33 -2 51 27 33 55 36
104 9 156 -69 134 -217 142 -326 18 -110 -125 -92 -311 41 -431 27 -24 71 -52
98 -61 27 -10 49 -20 49 -24 0 -3 -25 -16 -56 -28 -81 -34 -149 -93 -202 -174
-130 -201 -199 -478 -175 -703 6 -55 9 -101 7 -103 -2 -2 -35 61 -73 140 -38
79 -106 221 -151 314 -226 468 -243 518 -244 720 0 137 20 248 66 365 95 241
292 443 524 540 102 42 141 49 264 47 99 -2 110 -5 184 -40z m-53 -3303 c50
-104 116 -241 146 -304 200 -419 217 -472 216 -675 -1 -105 -6 -149 -27 -229
-74 -283 -267 -516 -516 -621 -258 -109 -466 -79 -636 90 -78 78 -140 188
-169 300 -32 124 -15 327 36 428 30 57 134 158 190 185 36 16 66 21 130 21 94
0 119 -10 186 -72 83 -77 119 -188 92 -284 -27 -97 -159 -195 -222 -166 -57
26 -73 139 -28 202 l22 30 -21 11 c-29 15 -46 7 -70 -32 -27 -45 -27 -131 0
-176 30 -48 75 -72 140 -72 183 0 299 189 229 375 -27 72 -104 151 -185 189
-57 27 -58 29 -34 39 172 69 258 164 343 377 54 137 94 354 82 451 -13 102
-14 142 -4 132 5 -5 51 -95 100 -199z"/>
</g>
</svg>
