<?xml version="1.0" standalone="no"?>
<!DOCTYPE svg PUBLIC "-//W3C//DTD SVG 20010904//EN"
 "http://www.w3.org/TR/2001/REC-SVG-20010904/DTD/svg10.dtd">
<svg version="1.0" xmlns="http://www.w3.org/2000/svg"
 width="3542.000000pt" height="3750.000000pt" viewBox="0 0 3542.000000 3750.000000"
 preserveAspectRatio="xMidYMid meet">

<g transform="translate(0.000000,3750.000000) scale(0.100000,-0.100000)"
fill="#3a4548" stroke="none">
<path d="M19243 18702 l-43 -3 0 -613 0 -613 -31 -7 c-17 -3 -53 -6 -80 -6
l-49 0 0 -1710 0 -1711 80 4 80 3 0 -97 0 -96 -31 -7 c-17 -3 -53 -6 -80 -6
l-49 0 0 -1509 0 -1509 31 -7 c17 -4 55 -4 83 -1 l52 7 -1 -513 c0 -282 -5
-519 -9 -526 -4 -7 -31 -24 -58 -36 -47 -22 -50 -24 -30 -35 45 -24 31 -90
-24 -111 -20 -8 -24 -16 -24 -53 l0 -43 116 -19 c114 -19 118 -19 233 1 l116
19 1 42 c2 39 -1 44 -35 60 -45 22 -55 69 -21 101 l21 19 -49 21 c-28 12 -52
29 -56 38 -3 8 -6 253 -6 544 l0 528 80 12 80 12 0 1491 0 1490 -80 -7 -80 -6
0 105 0 105 80 0 80 0 0 1711 0 1712 -80 -5 -80 -5 0 618 0 618 -47 -2 c-27
-1 -67 -3 -90 -5z m155 -2939 l-3 -1588 -107 -3 -107 -3 2 1583 2 1583 75 6
c41 3 90 6 108 7 l32 2 -2 -1587z m0 -3399 l2 -1361 -93 -16 c-51 -10 -101
-17 -110 -17 -15 0 -16 104 -14 1373 l2 1372 75 6 c41 3 89 5 105 5 l30 -1 3
-1361z"/>
</g>
</svg>
