<?xml version="1.0" standalone="no"?>
<!DOCTYPE svg PUBLIC "-//W3C//DTD SVG 20010904//EN"
 "http://www.w3.org/TR/2001/REC-SVG-20010904/DTD/svg10.dtd">
<svg version="1.0" xmlns="http://www.w3.org/2000/svg"
 width="3542.000000pt" height="3750.000000pt" viewBox="0 0 3542.000000 3750.000000"
 preserveAspectRatio="xMidYMid meet">

<g transform="translate(0.000000,3750.000000) scale(0.100000,-0.100000)"
fill="#3a4548" stroke="none">
<path d="M20920 18126 c0 -477 -3 -604 -12 -603 -7 0 -39 -1 -70 -1 l-58 -2 0
-1649 c0 -1494 1 -1649 16 -1655 9 -3 40 -6 70 -6 l54 0 0 -100 c0 -85 -2 -99
-15 -94 -9 4 -40 3 -70 -1 l-55 -6 0 -1469 0 -1468 35 -6 c19 -4 51 -4 70 0
l35 6 0 -497 c0 -295 -4 -504 -10 -514 -5 -10 -30 -26 -56 -36 -37 -14 -43
-20 -30 -27 46 -26 39 -86 -13 -108 -28 -11 -31 -17 -31 -54 l0 -42 116 -18
c114 -18 139 -18 272 5 l62 11 0 42 c-1 35 -5 44 -33 61 -40 25 -47 65 -18 94
l21 21 -50 21 c-33 14 -52 29 -55 43 -3 11 -4 248 -3 526 l3 504 35 7 c19 4
52 10 73 13 l37 7 0 1449 0 1450 -75 0 -75 0 0 95 0 94 73 3 72 3 3 1658 2
1658 -62 -1 c-35 -1 -69 -1 -75 -1 -10 1 -13 127 -13 596 l0 595 -85 0 -85 0
0 -604z m190 -2256 l0 -1541 -97 3 -96 3 -1 1523 c-1 837 1 1527 4 1532 6 10
51 16 133 18 l57 2 0 -1540z m-3 -3297 l-2 -1327 -93 -16 c-51 -9 -95 -14 -97
-10 -3 4 2 2595 5 2662 0 8 49 14 132 16 l58 2 -3 -1327z"/>
</g>
</svg>
