<?xml version="1.0" standalone="no"?>
<!DOCTYPE svg PUBLIC "-//W3C//DTD SVG 20010904//EN"
 "http://www.w3.org/TR/2001/REC-SVG-20010904/DTD/svg10.dtd">
<svg version="1.0" xmlns="http://www.w3.org/2000/svg"
 width="3542.000000pt" height="3750.000000pt" viewBox="0 0 3542.000000 3750.000000"
 preserveAspectRatio="xMidYMid meet">

<g transform="translate(0.000000,3750.000000) scale(0.100000,-0.100000)"
fill="#3a4548" stroke="none">
<path d="M21740 18151 c0 -664 9 -601 -86 -601 l-54 0 0 -1655 0 -1655 70 0
70 0 0 -85 0 -85 -70 0 -70 0 0 -1439 0 -1438 30 -7 c17 -3 49 -3 73 0 l42 6
0 -488 c0 -269 -4 -497 -9 -506 -4 -9 -27 -25 -52 -34 l-43 -17 19 -25 c11
-13 20 -32 20 -42 0 -18 -35 -53 -62 -63 -13 -5 -18 -17 -18 -46 l0 -39 116
-17 c99 -15 129 -16 203 -6 139 19 131 15 131 64 0 38 -4 44 -33 57 -40 19
-49 66 -18 94 20 18 19 19 -32 45 l-52 26 -3 513 c-2 405 0 513 10 517 7 2 39
9 71 15 l57 11 0 1415 0 1414 -70 0 -70 0 0 85 0 85 70 0 70 0 -2 1658 -3
1657 -67 -3 -68 -4 0 591 0 591 -85 0 -85 0 0 -589z m180 -2250 l0 -1539 -63
-7 c-34 -4 -76 -5 -92 -3 l-30 3 -3 1537 -2 1537 37 4 c21 2 64 4 96 5 l57 2
0 -1539z m2 -2788 c2 -467 2 -1051 0 -1299 l-2 -451 -78 -12 c-42 -7 -85 -15
-94 -17 -17 -5 -18 62 -18 1305 l0 1310 38 4 c20 2 63 4 94 5 l58 2 2 -847z"/>
</g>
</svg>
