<?xml version="1.0" standalone="no"?>
<!DOCTYPE svg PUBLIC "-//W3C//DTD SVG 20010904//EN"
 "http://www.w3.org/TR/2001/REC-SVG-20010904/DTD/svg10.dtd">
<svg version="1.0" xmlns="http://www.w3.org/2000/svg"
 width="3542.000000pt" height="3750.000000pt" viewBox="0 0 3542.000000 3750.000000"
 preserveAspectRatio="xMidYMid meet">

<g transform="translate(0.000000,3750.000000) scale(0.100000,-0.100000)"
fill="#3a4548" stroke="none">
<path d="M3580 17711 l0 -778 -52 -7 c-29 -3 -92 -6 -140 -6 l-88 0 0 -27 c-4
-904 -4 -4266 0 -4273 3 -5 67 -11 143 -12 l137 -3 0 -121 c0 -144 13 -134
-162 -134 l-117 0 -3 -32 c-2 -18 -2 -880 0 -1915 l2 -1882 43 -6 c25 -4 77 0
126 9 46 9 89 16 97 16 12 0 14 -101 14 -644 0 -354 -3 -652 -6 -661 -4 -10
-37 -30 -73 -47 -55 -24 -63 -31 -48 -39 9 -6 24 -23 32 -40 21 -39 4 -77 -48
-104 -36 -19 -37 -22 -37 -75 l0 -56 113 -28 112 -29 165 27 c91 15 173 30
183 32 14 4 17 17 17 65 0 52 -2 59 -19 59 -11 0 -33 12 -50 26 -41 34 -42 73
-1 108 l30 25 -44 20 c-24 10 -54 22 -65 26 -12 3 -21 13 -21 21 0 8 -4 14
-10 14 -7 0 -10 230 -10 670 l0 670 23 5 c12 2 73 13 136 24 62 11 115 21 117
23 2 2 4 843 4 1868 l2 1865 -136 3 -136 3 -1 29 c-1 17 -1 39 -1 50 0 11 0
54 1 95 l1 75 134 0 134 0 6 73 c3 39 6 1009 5 2154 0 1823 -2 2084 -15 2091
-8 5 -71 6 -140 4 l-124 -4 0 28 c-1 16 -1 365 -2 777 l0 747 -114 0 -114 0 0
-779z m320 -2930 c0 -1100 -3 -2002 -7 -2004 -5 -3 -98 -8 -209 -12 l-201 -7
-1 2001 -2 2001 27 1 c16 1 89 5 163 8 74 4 156 8 183 9 l47 2 0 -1999z m-6
-2602 c9 -45 7 -3399 -1 -3399 -5 0 -89 -14 -188 -30 -99 -16 -190 -30 -203
-30 l-22 0 2 1729 c2 951 6 1732 10 1736 3 4 75 10 160 14 261 13 235 15 242
-20z"/>
</g>
</svg>
