<?xml version="1.0" standalone="no"?>
<!DOCTYPE svg PUBLIC "-//W3C//DTD SVG 20010904//EN"
 "http://www.w3.org/TR/2001/REC-SVG-20010904/DTD/svg10.dtd">
<svg version="1.0" xmlns="http://www.w3.org/2000/svg"
 width="3542.000000pt" height="3750.000000pt" viewBox="0 0 3542.000000 3750.000000"
 preserveAspectRatio="xMidYMid meet">

<g transform="translate(0.000000,3750.000000) scale(0.100000,-0.100000)"
fill="#3a4548" stroke="none">
<path d="M33226 17983 c1 -362 -1 -666 -3 -675 -4 -16 -19 -18 -134 -18 l-129
0 0 -907 c-1 -2281 1 -2806 6 -2814 3 -5 61 -9 130 -9 68 0 124 -3 125 -7 6
-57 6 -201 1 -209 -4 -7 -57 -14 -130 -17 -68 -3 -126 -8 -129 -11 -6 -5 -7
-3235 -2 -3241 2 -2 64 -11 137 -21 l132 -18 0 -578 c0 -650 7 -596 -77 -633
-24 -10 -43 -20 -43 -22 0 -1 9 -12 20 -23 37 -37 17 -101 -35 -114 -23 -6
-25 -11 -25 -56 0 -28 1 -50 3 -50 1 0 72 -11 158 -23 151 -22 159 -22 225 -6
38 9 81 20 97 23 25 6 27 10 27 56 0 39 -4 50 -16 50 -21 0 -74 54 -74 76 0
10 11 30 25 44 l26 27 -48 18 c-26 9 -54 25 -60 33 -10 12 -13 144 -13 584 0
312 3 568 8 568 4 0 49 -7 100 -15 67 -10 101 -11 122 -3 l30 10 0 1658 0
1659 -117 -3 c-65 -2 -124 -1 -130 2 -10 3 -13 36 -13 118 l0 114 130 0 130 0
0 1865 0 1865 -130 0 -130 0 0 680 0 680 -98 0 -97 0 1 -657z m277 -850 c4 -2
7 -780 7 -1729 l0 -1724 -129 0 c-70 0 -156 3 -190 6 l-61 7 0 1730 0 1730
183 -8 c100 -4 185 -9 190 -12z m-103 -3952 l105 -6 0 -1509 0 -1508 -55 6
c-30 3 -115 14 -187 23 l-133 18 0 1492 0 1493 83 -1 c45 -1 129 -4 187 -8z"/>
</g>
</svg>
