<?xml version="1.0" standalone="no"?>
<!DOCTYPE svg PUBLIC "-//W3C//DTD SVG 20010904//EN"
 "http://www.w3.org/TR/2001/REC-SVG-20010904/DTD/svg10.dtd">
<svg version="1.0" xmlns="http://www.w3.org/2000/svg"
 width="3542.000000pt" height="3750.000000pt" viewBox="0 0 3542.000000 3750.000000"
 preserveAspectRatio="xMidYMid meet">

<g transform="translate(0.000000,3750.000000) scale(0.100000,-0.100000)"
fill="#65340A" stroke="none">
<path d="M12290 17300 l0 -1300 -29 0 c-17 0 -42 -10 -58 -24 -23 -20 -28 -32
-27 -70 1 -62 24 -94 71 -98 38 -3 38 -4 41 -49 2 -38 -4 -59 -32 -111 -67
-122 -92 -287 -65 -434 11 -61 68 -196 88 -208 6 -4 11 -32 11 -62 l0 -54 -40
0 c-49 0 -75 -33 -75 -96 0 -53 25 -82 77 -90 l38 -7 0 -1063 0 -1064 -29 0
c-72 0 -108 -91 -65 -164 7 -11 28 -21 50 -25 38 -6 39 -7 42 -54 2 -37 -3
-58 -27 -102 -55 -101 -76 -186 -76 -315 0 -133 17 -202 71 -293 26 -45 34
-70 34 -108 l0 -49 -40 0 c-34 0 -42 -4 -55 -30 -34 -67 -11 -150 42 -150 12
0 28 -3 37 -6 14 -6 16 -131 16 -1314 l0 -1309 -24 -18 c-13 -11 -42 -25 -65
-33 l-41 -13 25 -23 c34 -31 33 -76 -1 -103 -15 -12 -33 -21 -40 -21 -8 0 -14
-11 -15 -27 0 -16 -2 -38 -3 -51 -2 -13 1 -25 4 -27 4 -3 57 -14 116 -26 l109
-21 148 23 147 22 0 53 c0 47 -2 52 -25 58 -34 9 -65 41 -65 68 0 12 11 34 25
48 l25 26 -53 22 c-30 13 -59 33 -66 45 -8 16 -11 352 -9 1327 3 1297 3 1305
23 1305 39 1 63 16 79 49 20 42 20 59 0 101 -12 26 -23 34 -57 41 -38 8 -42
12 -45 41 -2 21 9 55 33 103 50 98 75 204 75 309 0 112 -21 198 -71 290 -34
63 -39 82 -37 125 3 51 3 51 35 48 86 -9 114 148 31 177 -17 6 -40 11 -51 11
-19 0 -19 7 -13 353 3 193 5 673 6 1065 l0 712 30 0 c52 0 89 58 76 122 -9 45
-33 68 -73 68 -33 0 -33 1 -33 46 0 32 11 69 39 127 47 99 64 174 63 287 0
103 -22 193 -68 280 -28 52 -34 75 -34 123 0 58 0 59 26 54 18 -3 34 3 52 18
23 19 27 32 27 73 0 62 -23 92 -72 92 l-33 0 0 1300 0 1300 -100 0 -100 0 0
-1300z m123 -1742 c52 -139 47 -321 -12 -436 l-19 -37 -22 49 c-33 78 -46 184
-33 275 12 79 48 191 62 191 5 0 15 -19 24 -42z m18 -3471 c30 -95 23 -251
-14 -350 -37 -100 -37 -100 -68 -11 -43 119 -34 287 22 413 24 54 29 50 60
-52z"/>
</g>
</svg>
