<?xml version="1.0" standalone="no"?>
<!DOCTYPE svg PUBLIC "-//W3C//DTD SVG 20010904//EN"
 "http://www.w3.org/TR/2001/REC-SVG-20010904/DTD/svg10.dtd">
<svg version="1.0" xmlns="http://www.w3.org/2000/svg"
 width="3542.000000pt" height="3750.000000pt" viewBox="0 0 3542.000000 3750.000000"
 preserveAspectRatio="xMidYMid meet">

<g transform="translate(0.000000,3750.000000) scale(0.100000,-0.100000)"
fill="#65340A" stroke="none">
<path d="M20910 17590 c0 -1101 0 -1130 -19 -1130 -10 0 -29 -9 -42 -19 -19
-16 -24 -29 -24 -69 0 -58 17 -82 56 -82 28 0 29 -2 29 -45 0 -28 -9 -64 -24
-94 -38 -75 -56 -159 -56 -266 0 -107 18 -191 56 -266 13 -28 24 -66 24 -89 0
-37 -2 -40 -29 -40 -36 0 -51 -18 -58 -69 -7 -54 16 -91 57 -91 l30 0 0 -930
0 -930 -22 0 c-40 0 -68 -35 -68 -85 0 -50 28 -85 68 -85 19 0 22 -5 22 -39 0
-21 -11 -63 -25 -92 -76 -168 -76 -399 1 -538 14 -25 24 -60 24 -82 0 -35 -3
-39 -24 -39 -31 0 -52 -21 -61 -60 -14 -64 13 -110 64 -110 l21 0 0 -1137 c0
-626 -4 -1143 -8 -1150 -4 -7 -29 -21 -54 -33 l-47 -20 25 -25 c13 -13 24 -28
24 -33 0 -16 -40 -61 -60 -67 -16 -5 -20 -15 -20 -51 0 -24 4 -44 10 -44 5 0
58 -7 117 -16 100 -15 115 -15 215 1 l108 18 0 41 c-1 35 -5 44 -33 61 -41 26
-49 75 -16 99 22 15 22 15 -27 36 -27 12 -52 27 -56 33 -4 7 -8 526 -8 1155
l0 1142 24 0 c79 0 88 157 11 170 -41 7 -45 49 -11 116 77 155 80 373 7 527
-19 40 -31 81 -31 106 0 39 2 41 30 41 23 0 33 7 45 30 34 65 7 140 -50 140
l-25 0 0 925 0 925 24 0 c34 0 66 44 66 89 0 50 -24 81 -61 81 -27 0 -29 3
-29 35 0 20 11 57 24 84 77 150 77 402 0 540 -15 27 -24 60 -24 87 0 40 2 44
24 44 47 0 74 50 62 115 -7 36 -30 55 -65 55 l-21 0 0 1130 0 1130 -85 0 -85
0 0 -1130z m111 -1578 c14 -71 7 -235 -13 -282 l-16 -35 -13 30 c-28 65 -9
369 22 350 4 -3 13 -31 20 -63z m-1 -2982 c8 -39 11 -94 7 -153 -6 -89 -28
-180 -39 -161 -16 26 -30 143 -26 212 6 78 25 162 38 162 4 0 13 -27 20 -60z"/>
</g>
</svg>
