<?xml version="1.0" standalone="no"?>
<!DOCTYPE svg PUBLIC "-//W3C//DTD SVG 20010904//EN"
 "http://www.w3.org/TR/2001/REC-SVG-20010904/DTD/svg10.dtd">
<svg version="1.0" xmlns="http://www.w3.org/2000/svg"
 width="3542.000000pt" height="3750.000000pt" viewBox="0 0 3542.000000 3750.000000"
 preserveAspectRatio="xMidYMid meet">

<g transform="translate(0.000000,3750.000000) scale(0.100000,-0.100000)"
fill="#65340A" stroke="none">
<path d="M7643 18532 l-73 -3 0 -1389 0 -1390 -33 0 c-68 0 -108 -63 -87 -138
13 -49 28 -62 80 -69 l40 -6 0 -52 c0 -42 -7 -64 -33 -108 -100 -166 -116
-419 -36 -587 16 -34 38 -75 49 -90 14 -20 20 -44 20 -84 0 -54 -1 -56 -23
-51 -41 11 -73 -10 -92 -59 -30 -77 9 -146 82 -146 l33 0 2 -682 c1 -376 2
-888 2 -1138 l1 -455 -38 -6 c-54 -9 -79 -37 -84 -96 -6 -70 11 -96 72 -109
l50 -10 -1 -51 c-1 -37 -11 -67 -37 -114 -60 -108 -82 -196 -82 -329 0 -137
22 -222 84 -317 34 -52 39 -67 37 -114 l-1 -54 -42 3 c-39 3 -44 1 -63 -30
-25 -41 -26 -108 -2 -137 10 -13 35 -24 62 -29 l45 -8 2 -1389 c2 -1002 0
-1396 -8 -1412 -7 -12 -38 -33 -70 -47 l-59 -25 25 -25 c45 -45 23 -111 -42
-131 -20 -5 -23 -13 -23 -60 l0 -53 116 -27 115 -27 165 28 164 27 0 53 c0 43
-3 54 -19 59 -71 22 -95 95 -45 134 l26 20 -58 26 c-31 14 -63 33 -70 42 -10
14 -12 305 -12 1420 l1 1403 23 0 c62 0 104 46 104 112 -1 56 -22 82 -77 94
-48 10 -48 10 -49 51 -1 26 6 53 18 70 70 104 102 224 102 378 0 111 -2 126
-32 201 -18 44 -46 98 -62 120 -25 33 -29 48 -30 102 l0 62 45 0 c40 0 47 4
65 33 22 36 26 84 8 122 -8 17 -24 28 -52 36 -23 5 -47 12 -54 14 -10 4 -12
110 -8 527 2 288 5 799 5 1136 l1 612 33 0 c18 0 42 7 54 15 27 19 47 76 38
113 -12 55 -44 79 -107 81 -14 1 -18 10 -18 45 0 33 11 64 40 119 100 184 107
417 19 591 -17 34 -37 68 -45 77 -9 10 -14 38 -14 77 l0 62 35 0 c26 0 43 7
60 26 26 28 33 60 26 120 -2 23 -42 52 -80 59 l-41 7 0 1388 0 1388 -37 -1
c-21 -1 -71 -3 -110 -5z m108 -3368 c22 -116 -9 -305 -60 -373 l-19 -25 -20
40 c-69 135 -69 325 0 474 l30 65 29 -61 c16 -33 34 -87 40 -120z m-20 -3574
c27 -69 37 -226 20 -308 -7 -32 -27 -88 -44 -125 -36 -79 -44 -77 -79 18 -27
75 -36 233 -18 314 7 31 25 85 41 120 34 75 43 73 80 -19z"/>
</g>
</svg>
