<?xml version="1.0" standalone="no"?>
<!DOCTYPE svg PUBLIC "-//W3C//DTD SVG 20010904//EN"
 "http://www.w3.org/TR/2001/REC-SVG-20010904/DTD/svg10.dtd">
<svg version="1.0" xmlns="http://www.w3.org/2000/svg"
 width="2550.000000pt" height="2700.000000pt" viewBox="0 0 2550.000000 2700.000000"
 preserveAspectRatio="xMidYMid meet">

<g transform="translate(0.000000,2700.000000) scale(0.100000,-0.100000)"
fill="#3a4548" stroke="none">
<path d="M9270 15547 c0 -716 0 -725 -20 -730 -43 -11 -44 -93 -2 -112 29 -13
29 -62 0 -135 -18 -46 -22 -75 -22 -170 0 -95 4 -124 22 -170 28 -70 29 -120
3 -120 -42 0 -45 -96 -3 -115 l22 -10 0 -681 c0 -672 0 -682 -20 -687 -44 -11
-46 -109 -2 -115 18 -3 22 -10 22 -40 0 -20 -10 -62 -22 -92 -32 -80 -32 -260
0 -345 30 -81 29 -113 -4 -125 -23 -9 -25 -14 -22 -57 3 -41 6 -48 26 -51 l22
-3 0 -844 c0 -910 3 -863 -50 -880 -23 -7 -25 -16 -9 -32 17 -17 6 -57 -18
-68 -17 -7 -23 -18 -23 -42 l0 -33 123 1 c163 0 201 7 205 38 3 16 -6 31 -28
50 -26 21 -31 32 -26 49 4 12 12 22 17 22 5 0 9 5 9 10 0 6 -6 10 -14 10 -7 0
-25 9 -39 21 l-26 20 -1 834 0 834 23 12 c29 16 37 28 37 61 0 39 -10 58 -31
58 -31 0 -34 27 -10 94 44 125 44 274 2 387 -28 72 -27 97 4 109 46 17 48 96
3 118 l-28 13 0 675 0 674 25 12 c46 21 48 94 3 116 -34 16 -34 23 -2 119 37
109 37 236 0 346 -33 97 -33 115 -1 127 46 17 46 103 0 120 l-25 9 -2 718 -3
718 -57 3 -58 3 0 -724z m79 -1138 c1 -59 -9 -110 -20 -103 -11 6 -12 178 -2
188 11 10 21 -30 22 -85z m0 -2195 c1 -64 -9 -115 -20 -108 -11 6 -12 178 -2
188 12 11 22 -25 22 -80z"/>
</g>
</svg>
