<?xml version="1.0" standalone="no"?>
<!DOCTYPE svg PUBLIC "-//W3C//DTD SVG 20010904//EN"
 "http://www.w3.org/TR/2001/REC-SVG-20010904/DTD/svg10.dtd">
<svg version="1.0" xmlns="http://www.w3.org/2000/svg"
 width="2550.000000pt" height="2700.000000pt" viewBox="0 0 2550.000000 2700.000000"
 preserveAspectRatio="xMidYMid meet">

<g transform="translate(0.000000,2700.000000) scale(0.100000,-0.100000)"
fill="#3a4548" stroke="none">
<path d="M2715 13580 c-3 -5 -6 -491 -6 -1079 l0 -1069 -30 -6 c-44 -8 -65
-62 -45 -111 13 -29 20 -35 45 -35 29 0 31 -2 31 -39 0 -22 -13 -66 -31 -104
-44 -95 -58 -216 -36 -322 9 -44 28 -102 42 -128 14 -27 25 -64 25 -83 0 -31
-3 -34 -30 -34 -35 0 -50 -23 -50 -78 0 -41 23 -72 53 -72 8 0 18 -8 21 -17 2
-10 5 -381 5 -825 l0 -808 -24 0 c-48 0 -73 -80 -39 -128 8 -12 26 -22 40 -22
21 0 24 -4 24 -37 0 -20 -12 -61 -26 -91 -65 -138 -67 -315 -5 -447 17 -37 31
-82 31 -101 0 -31 -3 -34 -28 -34 -21 0 -32 -7 -40 -25 -27 -59 -8 -115 38
-115 l30 0 0 -1083 c0 -1027 -1 -1085 -18 -1100 -10 -9 -32 -22 -50 -30 -32
-13 -32 -13 -12 -32 11 -10 20 -26 20 -35 0 -19 -40 -60 -58 -60 -7 0 -12 -17
-12 -44 l0 -43 115 -7 c99 -6 128 -4 210 15 l95 21 0 40 c0 28 -5 40 -17 45
-52 18 -67 58 -33 88 21 19 20 19 -30 38 l-50 18 2 1091 c3 1082 3 1091 23
1094 28 4 55 41 55 76 0 46 -17 68 -51 68 -30 0 -31 1 -26 43 2 23 17 71 32
107 59 137 57 297 -5 421 -18 36 -30 77 -30 100 0 36 2 39 28 39 21 0 32 7 40
25 27 60 7 117 -43 127 -20 3 -20 12 -21 821 -2 793 -1 817 17 817 31 0 59 36
59 76 0 51 -15 74 -50 74 -26 0 -30 4 -30 28 0 15 14 61 31 101 45 108 59 244
34 336 -10 37 -28 88 -41 114 -14 27 -24 64 -24 89 0 37 3 42 23 42 32 0 57
30 57 69 0 48 -16 71 -50 71 l-30 0 1 778 c0 427 0 913 -1 1079 l0 302 -75 0
c-41 0 -77 -4 -80 -9z m103 -2613 c4 -87 -12 -207 -29 -207 -30 0 -37 237 -10
305 12 29 13 29 24 10 6 -11 13 -60 15 -108z m-3 -2677 c0 -119 -19 -198 -39
-164 -15 26 -14 241 3 279 12 29 13 29 24 10 7 -12 12 -63 12 -125z"/>
</g>
</svg>
