<?xml version="1.0" standalone="no"?>
<!DOCTYPE svg PUBLIC "-//W3C//DTD SVG 20010904//EN"
 "http://www.w3.org/TR/2001/REC-SVG-20010904/DTD/svg10.dtd">
<svg version="1.0" xmlns="http://www.w3.org/2000/svg"
 width="2550.000000pt" height="2700.000000pt" viewBox="0 0 2550.000000 2700.000000"
 preserveAspectRatio="xMidYMid meet">

<g transform="translate(0.000000,2700.000000) scale(0.100000,-0.100000)"
fill="#3a4548" stroke="none">
<path d="M3436 13721 l-36 -49 0 -830 0 -829 -29 -6 c-24 -5 -32 -14 -41 -44
-17 -56 0 -93 41 -93 l31 0 -5 -52 c-2 -29 -16 -82 -32 -117 -21 -50 -28 -86
-32 -160 -6 -110 6 -181 43 -258 33 -68 31 -127 -5 -129 -66 -4 -64 -124 2
-132 l27 -3 0 -820 c0 -772 -1 -820 -17 -825 -38 -12 -48 -22 -57 -57 -7 -28
-6 -41 8 -62 9 -14 22 -25 29 -24 31 4 37 -3 37 -40 0 -21 -11 -63 -24 -93
-57 -128 -61 -303 -11 -418 16 -37 29 -84 29 -110 1 -42 -1 -45 -26 -48 -22
-3 -30 -11 -39 -43 -16 -51 -1 -86 38 -91 l28 -3 0 -1355 0 -1355 -47 -25
c-44 -24 -46 -26 -27 -38 31 -19 21 -62 -18 -87 -28 -17 -33 -25 -30 -54 2
-30 6 -34 32 -36 183 -16 189 -16 282 6 l93 22 0 39 c0 25 -5 38 -13 38 -18 0
-57 38 -57 55 0 8 9 24 20 35 21 21 21 22 -33 39 -24 8 -39 20 -42 34 -3 12
-4 623 -3 1357 l3 1335 22 3 c30 4 53 39 53 77 0 39 -18 63 -50 67 -22 3 -25
8 -24 43 1 22 13 68 28 103 56 129 54 299 -5 419 -21 44 -29 74 -27 100 3 33
7 39 33 43 25 4 32 12 39 41 14 55 2 87 -37 97 l-32 8 0 814 c0 807 0 815 20
818 54 10 76 90 35 127 -11 10 -20 15 -20 11 0 -4 -9 -2 -21 5 -26 13 -22 48
14 134 60 140 51 353 -18 458 -10 16 -15 41 -13 69 3 38 6 43 26 43 30 1 52
30 52 70 0 39 -18 63 -50 67 l-25 3 -3 878 -2 877 -39 0 c-35 0 -43 -5 -75
-49z m63 -2095 c14 -57 14 -147 0 -219 -21 -105 -52 -52 -53 93 -1 90 15 170
34 170 4 0 13 -20 19 -44z m2 -2628 c21 -77 -1 -278 -30 -278 -15 0 -34 138
-27 194 10 71 25 126 36 126 5 0 14 -19 21 -42z"/>
</g>
</svg>
