<?xml version="1.0" standalone="no"?>
<!DOCTYPE svg PUBLIC "-//W3C//DTD SVG 20010904//EN"
 "http://www.w3.org/TR/2001/REC-SVG-20010904/DTD/svg10.dtd">
<svg version="1.0" xmlns="http://www.w3.org/2000/svg"
 width="2550.000000pt" height="2700.000000pt" viewBox="0 0 2550.000000 2700.000000"
 preserveAspectRatio="xMidYMid meet">

<g transform="translate(0.000000,2700.000000) scale(0.100000,-0.100000)"
fill="#3a4548" stroke="none">
<path d="M4163 14616 l-33 -43 0 -816 c0 -450 -3 -817 -7 -818 -30 -3 -47 -9
-55 -21 -32 -49 -13 -111 36 -116 27 -3 28 -5 23 -50 -2 -26 -16 -76 -31 -111
-21 -48 -29 -86 -33 -155 -6 -107 6 -182 42 -258 34 -72 32 -122 -6 -126 -27
-3 -49 -35 -49 -70 0 -29 29 -62 56 -62 l24 0 0 -804 0 -803 -28 -6 c-28 -6
-52 -40 -52 -75 0 -29 29 -62 56 -62 21 0 24 -4 24 -38 0 -20 -14 -71 -32
-112 -54 -130 -51 -303 9 -424 27 -55 29 -120 3 -122 -8 -1 -20 -2 -27 -3 -7
0 -18 -19 -24 -41 -10 -33 -9 -43 5 -65 10 -15 26 -25 41 -25 l25 0 0 -878 c0
-830 -1 -880 -18 -895 -10 -9 -32 -22 -50 -30 -32 -13 -32 -13 -12 -32 11 -10
20 -26 20 -35 0 -19 -40 -60 -59 -60 -8 0 -11 -13 -9 -37 l3 -38 110 -7 c84
-5 130 -3 195 10 l85 17 3 38 c2 27 -1 37 -11 37 -38 0 -61 66 -32 90 19 16
19 30 0 30 -9 0 -29 7 -45 15 l-30 16 0 884 c0 870 0 885 19 885 41 0 65 74
41 121 -6 11 -21 19 -35 19 -23 0 -25 4 -25 43 0 24 4 47 9 52 20 21 51 136
57 211 7 88 -11 185 -46 254 -11 22 -20 59 -20 85 0 37 3 45 18 45 29 0 52 33
52 73 0 39 -21 67 -51 67 -19 0 -19 15 -17 802 3 789 3 801 23 804 61 9 61
134 0 134 -22 0 -25 4 -25 40 0 23 9 58 19 79 11 21 27 75 37 121 23 113 10
225 -38 326 -22 49 -22 131 1 126 24 -5 51 29 51 65 0 47 -16 73 -45 73 l-25
0 0 860 0 860 -42 0 c-39 -1 -46 -5 -75 -44z m67 -2086 c12 -70 2 -191 -20
-229 -29 -52 -50 216 -22 282 17 41 29 26 42 -53z m-4 -2547 c16 -100 0 -263
-26 -263 -16 0 -33 113 -27 185 9 121 39 165 53 78z"/>
</g>
</svg>
