<?xml version="1.0" standalone="no"?>
<!DOCTYPE svg PUBLIC "-//W3C//DTD SVG 20010904//EN"
 "http://www.w3.org/TR/2001/REC-SVG-20010904/DTD/svg10.dtd">
<svg version="1.0" xmlns="http://www.w3.org/2000/svg"
 width="2550.000000pt" height="2700.000000pt" viewBox="0 0 2550.000000 2700.000000"
 preserveAspectRatio="xMidYMid meet">

<g transform="translate(0.000000,2700.000000) scale(0.100000,-0.100000)"
fill="#3a4548" stroke="none">
<path d="M4861 15473 l-31 -38 0 -802 0 -803 -23 0 c-33 0 -47 -19 -47 -64 0
-50 8 -63 40 -67 21 -3 26 -10 28 -42 2 -23 -4 -56 -16 -80 -39 -84 -47 -122
-47 -227 0 -106 17 -183 52 -238 8 -13 13 -40 11 -60 -2 -31 -7 -38 -28 -41
-32 -4 -40 -17 -40 -67 0 -45 14 -64 47 -64 l23 0 0 -790 0 -790 -23 0 c-33 0
-47 -19 -47 -65 0 -49 8 -62 40 -66 36 -6 38 -58 5 -133 -57 -128 -57 -315 0
-428 34 -68 32 -123 -5 -123 -20 0 -27 -8 -36 -35 -16 -49 -4 -84 32 -90 l29
-5 3 -1294 c1 -993 -1 -1297 -10 -1308 -6 -8 -29 -21 -49 -30 -37 -14 -37 -15
-18 -34 33 -33 18 -74 -34 -92 -14 -5 -17 -15 -15 -39 l3 -33 95 -8 c127 -11
123 -12 215 10 78 17 80 19 83 49 3 27 -1 33 -28 44 -37 15 -50 53 -26 79 22
24 20 28 -11 36 -16 3 -36 14 -45 22 -17 15 -18 90 -18 1310 0 1250 1 1293 18
1293 29 0 54 35 54 75 0 43 -16 65 -48 65 -32 0 -32 34 1 117 56 140 56 307
-1 433 -30 68 -30 123 1 128 34 7 45 23 45 66 0 47 -13 66 -47 66 l-23 0 2
788 c3 661 5 787 17 784 26 -6 51 29 51 73 0 47 -13 65 -48 65 -22 0 -24 3
-19 43 2 23 17 71 33 107 25 59 28 76 28 180 0 103 -3 122 -29 185 -15 39 -28
90 -29 115 -1 39 2 45 21 48 33 5 45 26 41 73 -3 41 -11 51 -50 63 -17 5 -18
54 -18 841 l0 835 -39 0 c-33 0 -44 -6 -70 -37z m54 -1990 c23 -59 12 -283
-15 -283 -13 0 -30 85 -30 150 0 65 17 150 30 150 4 0 11 -8 15 -17z m12
-2610 c3 -46 1 -101 -6 -135 -23 -107 -46 -59 -45 92 0 102 17 169 35 138 5
-10 12 -52 16 -95z"/>
</g>
</svg>
