<?xml version="1.0" standalone="no"?>
<!DOCTYPE svg PUBLIC "-//W3C//DTD SVG 20010904//EN"
 "http://www.w3.org/TR/2001/REC-SVG-20010904/DTD/svg10.dtd">
<svg version="1.0" xmlns="http://www.w3.org/2000/svg"
 width="2550.000000pt" height="2700.000000pt" viewBox="0 0 2550.000000 2700.000000"
 preserveAspectRatio="xMidYMid meet">

<g transform="translate(0.000000,2700.000000) scale(0.100000,-0.100000)"
fill="#3a4548" stroke="none">
<path d="M7628 15618 l-3 -762 -25 -6 c-50 -12 -48 -115 2 -122 31 -4 36 -54
10 -105 -52 -101 -55 -287 -8 -406 32 -78 31 -111 -2 -115 -50 -7 -52 -110 -2
-122 l25 -6 2 -722 c3 -707 2 -722 -17 -722 -22 0 -50 -36 -50 -65 0 -25 28
-67 40 -60 15 9 32 -24 27 -52 -2 -16 -15 -55 -28 -88 -20 -51 -23 -78 -24
-185 0 -114 3 -130 28 -187 34 -78 34 -101 2 -113 -55 -21 -58 -103 -5 -121
l29 -11 1 -884 c0 -869 0 -884 -20 -904 -11 -11 -31 -22 -45 -26 -28 -7 -33
-19 -10 -28 33 -12 4 -86 -34 -86 -8 0 -11 -12 -9 -32 2 -22 9 -32 23 -34 51
-8 226 -7 275 2 51 8 55 11 58 39 2 24 -3 33 -28 47 -33 19 -39 48 -14 73 9 9
15 17 13 18 -2 2 -21 10 -41 20 l-38 17 0 895 c0 892 0 895 20 895 13 0 24 10
31 27 16 43 7 76 -24 91 -26 13 -28 18 -24 55 2 23 13 62 22 87 27 67 32 234
10 316 -9 35 -21 67 -26 70 -5 3 -9 27 -9 54 0 43 3 49 22 52 14 2 26 14 32
31 13 37 -3 81 -32 85 l-22 3 0 724 0 724 22 3 c49 7 48 109 -1 116 -21 3 -22
8 -18 50 2 26 13 67 23 92 29 69 27 284 -4 360 -12 30 -22 72 -22 92 0 30 4
37 22 40 49 7 49 109 0 116 l-22 3 -2 762 -3 762 -62 3 -63 3 -2 -763z m78
-1134 c7 -49 1 -181 -10 -191 -11 -11 -16 3 -22 64 -7 67 3 173 16 173 5 0 12
-21 16 -46z m2 -2411 c-4 -90 -10 -114 -25 -99 -11 10 -10 196 1 221 16 38 28
-24 24 -122z"/>
</g>
</svg>
