<?xml version="1.0" standalone="no"?>
<!DOCTYPE svg PUBLIC "-//W3C//DTD SVG 20010904//EN"
 "http://www.w3.org/TR/2001/REC-SVG-20010904/DTD/svg10.dtd">
<svg version="1.0" xmlns="http://www.w3.org/2000/svg"
 width="2550.000000pt" height="2700.000000pt" viewBox="0 0 2550.000000 2700.000000"
 preserveAspectRatio="xMidYMid meet">

<g transform="translate(0.000000,2700.000000) scale(0.100000,-0.100000)"
fill="#3a4548" stroke="none">
<path d="M18852 22107 l-52 -53 0 -802 0 -802 -30 0 c-39 0 -70 -31 -70 -71 0
-46 16 -67 60 -79 38 -10 40 -13 40 -50 0 -27 -10 -54 -34 -90 -92 -139 -88
-359 9 -486 18 -24 25 -45 25 -80 0 -46 0 -46 -30 -40 -39 7 -70 -21 -70 -65
0 -46 16 -67 60 -79 l40 -11 -2 -862 c-3 -736 -5 -862 -17 -859 -8 2 -27 -2
-42 -8 -65 -27 -49 -130 21 -140 33 -5 35 -8 38 -45 2 -32 -5 -53 -33 -100
-53 -88 -68 -151 -63 -259 4 -94 30 -172 78 -233 13 -17 20 -41 20 -69 0 -43
-1 -44 -33 -44 -43 0 -67 -26 -67 -72 0 -37 24 -68 52 -68 51 0 48 61 48 -952
0 -602 -4 -946 -10 -958 -5 -10 -26 -24 -45 -30 -31 -10 -49 -30 -27 -30 5 0
14 -12 21 -26 11 -24 8 -29 -24 -59 -25 -24 -35 -42 -35 -64 l0 -31 190 0 190
0 0 33 c0 25 -7 39 -30 55 -33 25 -40 61 -15 82 22 18 19 25 -20 39 -19 7 -40
21 -45 31 -7 12 -9 344 -8 962 l3 943 39 6 c56 9 81 59 52 105 -18 26 -22 28
-68 38 -41 9 -38 59 7 128 94 141 95 327 4 468 -34 53 -40 69 -37 108 3 45 4
46 37 47 48 0 78 41 65 87 -8 28 -17 35 -57 48 l-47 15 0 863 0 862 34 0 c25
0 40 7 55 26 37 47 19 96 -43 117 -55 18 -60 55 -16 120 98 146 98 356 0 494
-24 33 -30 52 -30 93 l0 52 31 -7 c36 -8 65 13 74 55 9 39 -12 67 -62 86 l-43
17 0 842 c0 759 -2 843 -16 849 -9 3 -17 6 -18 6 -1 0 -25 -24 -54 -53z m74
-2014 c25 -51 28 -69 29 -158 0 -92 -3 -105 -32 -168 -37 -78 -57 -91 -84 -56
-27 34 -59 143 -59 198 0 72 35 181 72 229 22 27 46 12 74 -45z m-1 -2778 c27
-55 30 -69 30 -160 -1 -103 -20 -171 -62 -217 -27 -31 -43 -20 -76 50 -29 60
-32 76 -32 157 1 72 5 100 23 140 53 115 72 120 117 30z"/>
</g>
</svg>
