<?xml version="1.0" standalone="no"?>
<!DOCTYPE svg PUBLIC "-//W3C//DTD SVG 20010904//EN"
 "http://www.w3.org/TR/2001/REC-SVG-20010904/DTD/svg10.dtd">
<svg version="1.0" xmlns="http://www.w3.org/2000/svg"
 width="2550.000000pt" height="2700.000000pt" viewBox="0 0 2550.000000 2700.000000"
 preserveAspectRatio="xMidYMid meet">

<g transform="translate(0.000000,2700.000000) scale(0.100000,-0.100000)"
fill="#3a4548" stroke="none">
<path d="M24379 26783 c0 -120 0 -410 0 -645 l1 -428 -31 0 c-38 0 -89 -48
-89 -83 0 -34 43 -83 85 -99 47 -16 46 -41 -4 -118 -60 -93 -76 -148 -75 -265
0 -87 4 -108 28 -160 15 -33 40 -77 56 -97 23 -28 30 -47 30 -82 0 -44 -12
-67 -25 -46 -12 19 -53 10 -74 -16 -39 -50 -22 -95 55 -140 l45 -26 -2 -884
-1 -884 -24 0 c-52 0 -94 -39 -94 -88 0 -30 31 -63 76 -82 57 -25 57 -48 4
-132 -56 -86 -75 -154 -74 -263 1 -103 24 -178 78 -248 24 -32 33 -54 35 -90
l2 -48 -36 7 c-43 8 -70 -12 -80 -57 -9 -41 14 -73 69 -98 l45 -20 0 -1467 c0
-808 -4 -1476 -9 -1484 -5 -9 -27 -25 -50 -35 l-40 -18 21 -23 c28 -30 21 -64
-18 -89 -61 -38 -44 -45 105 -45 75 0 160 3 189 6 l51 7 -29 24 c-34 29 -36
51 -10 85 l20 24 -35 13 c-69 25 -64 -98 -62 1536 l3 1478 45 11 c47 12 70 39
70 84 0 28 -50 79 -82 84 -36 5 -46 34 -24 71 55 91 79 143 92 190 32 121 6
263 -67 359 -36 48 -39 58 -37 103 l3 50 42 -3 c38 -3 43 0 57 27 9 16 16 39
16 49 0 30 -36 68 -80 86 l-40 16 2 887 3 888 39 6 c63 10 92 60 64 112 -14
28 -34 44 -75 63 -41 18 -42 38 -3 92 17 22 43 69 58 104 23 54 26 77 27 168
0 94 -3 111 -28 165 -15 33 -41 77 -57 97 -23 28 -30 47 -30 80 0 57 11 74 38
59 26 -14 46 -6 66 24 34 51 4 111 -72 148 l-27 12 -3 633 -2 632 -65 0 -65 0
-1 -217z m136 -1458 c27 -53 30 -70 30 -150 0 -94 -16 -156 -59 -222 -17 -26
-28 -33 -54 -33 -30 0 -35 4 -58 55 -50 108 -41 238 23 357 42 77 77 75 118
-7z m-1 -2898 c53 -107 45 -252 -21 -364 -21 -37 -30 -43 -58 -43 -30 0 -34 4
-59 59 -57 126 -38 303 42 394 30 34 64 18 96 -46z"/>
</g>
</svg>
