<?xml version="1.0" standalone="no"?>
<!DOCTYPE svg PUBLIC "-//W3C//DTD SVG 20010904//EN"
 "http://www.w3.org/TR/2001/REC-SVG-20010904/DTD/svg10.dtd">
<svg version="1.0" xmlns="http://www.w3.org/2000/svg"
 width="2550.000000pt" height="2700.000000pt" viewBox="0 0 2550.000000 2700.000000"
 preserveAspectRatio="xMidYMid meet">

<g transform="translate(0.000000,2700.000000) scale(0.100000,-0.100000)"
fill="#3a4548" stroke="none">
<path d="M12820 12351 l0 -1180 -22 -3 c-35 -5 -53 -51 -42 -107 8 -41 12 -46
37 -49 28 -3 29 -4 24 -60 -3 -31 -15 -91 -28 -132 -19 -62 -23 -98 -23 -215
0 -126 3 -148 27 -218 15 -42 27 -95 27 -117 0 -36 -3 -40 -25 -40 -20 0 -26
-7 -35 -41 -17 -63 2 -119 41 -119 18 0 19 -26 19 -905 0 -893 0 -905 -20
-905 -26 0 -43 -35 -43 -87 0 -47 16 -73 45 -73 18 0 19 -5 16 -52 -3 -29 -15
-89 -28 -133 -19 -66 -23 -105 -23 -220 -1 -127 2 -147 26 -218 15 -42 27 -95
27 -117 0 -36 -3 -40 -25 -40 -20 0 -26 -7 -36 -42 -15 -56 -2 -100 31 -108
l25 -6 3 -1174 c1 -646 0 -1184 -2 -1195 -3 -11 -26 -31 -51 -44 l-46 -24 22
-23 c29 -31 19 -69 -24 -94 -29 -17 -32 -23 -29 -59 4 -38 5 -39 50 -45 26 -3
88 -8 138 -12 84 -6 97 -5 163 21 39 15 72 32 72 38 9 68 7 75 -17 81 -36 9
-60 51 -46 81 7 14 16 25 22 25 24 0 7 19 -27 30 -21 7 -44 19 -50 28 -10 12
-13 267 -13 1198 l0 1182 24 6 c15 4 28 17 35 37 22 65 9 112 -34 123 -20 5
-25 12 -25 40 0 18 9 58 19 88 54 156 53 381 0 506 -11 24 -19 66 -19 93 0 41
3 49 19 49 26 0 39 19 46 65 7 48 -12 89 -43 93 l-22 3 0 899 0 898 25 6 c54
14 58 143 5 156 -35 8 -37 51 -5 151 47 150 45 350 -5 487 -11 29 -20 73 -20
97 0 41 2 45 24 45 19 0 27 8 36 36 20 59 -2 124 -41 124 -18 0 -19 32 -19
1175 l0 1175 -80 0 -80 0 0 -1179z m90 -1731 c0 -47 -4 -80 -10 -80 -6 0 -10
33 -10 80 0 47 4 80 10 80 6 0 10 -33 10 -80z m-10 -2984 c-7 -7 -10 14 -10
70 0 105 14 119 18 18 2 -44 -2 -82 -8 -88z"/>
</g>
</svg>
