<?xml version="1.0" standalone="no"?>
<!DOCTYPE svg PUBLIC "-//W3C//DTD SVG 20010904//EN"
 "http://www.w3.org/TR/2001/REC-SVG-20010904/DTD/svg10.dtd">
<svg version="1.0" xmlns="http://www.w3.org/2000/svg"
 width="2550.000000pt" height="2700.000000pt" viewBox="0 0 2550.000000 2700.000000"
 preserveAspectRatio="xMidYMid meet">

<g transform="translate(0.000000,2700.000000) scale(0.100000,-0.100000)"
fill="#3a4548" stroke="none">
<path d="M13695 14077 l-70 -122 -5 -565 -5 -565 -22 -3 c-27 -4 -36 -30 -31
-92 3 -38 7 -45 28 -50 23 -6 25 -10 24 -61 -1 -29 -12 -88 -24 -129 -32 -106
-32 -293 0 -400 12 -41 24 -96 27 -122 4 -42 3 -48 -14 -48 -31 0 -43 -21 -43
-75 0 -54 12 -75 42 -75 17 0 18 -39 18 -875 0 -863 0 -875 -20 -875 -23 0
-38 -26 -41 -71 -3 -49 9 -77 34 -81 19 -3 22 -9 21 -53 0 -27 -10 -84 -21
-125 -41 -149 -38 -324 8 -445 10 -27 19 -69 19 -92 0 -39 -2 -43 -25 -43 -19
0 -25 -6 -30 -33 -4 -18 -5 -49 -3 -67 2 -27 8 -35 28 -40 l25 -6 3 -944 c1
-520 0 -955 -3 -967 -3 -13 -23 -30 -49 -43 -44 -21 -45 -21 -25 -41 33 -33
21 -71 -32 -99 -14 -8 -19 -21 -19 -49 l0 -39 138 -6 c117 -5 147 -4 202 12
64 19 65 20 68 56 2 28 -1 38 -15 43 -51 18 -69 69 -37 104 16 17 15 19 -10
29 -15 5 -31 10 -36 10 -31 0 -31 53 -30 1803 0 121 3 147 14 147 22 0 46 40
46 78 0 44 -16 72 -40 72 -17 0 -20 7 -20 43 0 23 10 71 21 107 15 46 23 102
26 190 5 110 3 136 -17 210 -31 112 -38 200 -16 200 37 0 60 85 36 131 -6 10
-20 19 -30 19 -20 0 -20 12 -20 875 0 863 0 875 20 875 25 0 40 29 40 75 0 47
-15 75 -41 75 -19 0 -20 5 -16 48 2 26 14 85 27 131 19 73 22 101 17 215 -3
84 -11 151 -22 186 -9 30 -19 81 -22 113 -4 52 -3 57 16 57 26 0 41 28 41 75
0 46 -15 75 -40 75 -20 0 -20 12 -22 685 l-3 684 -70 -122z m5 -1782 c0 -37
-4 -65 -10 -65 -11 0 -14 113 -3 123 12 13 13 7 13 -58z m2 -2763 c6 -40 -3
-112 -13 -112 -5 0 -9 32 -9 70 0 69 14 96 22 42z"/>
</g>
</svg>
