<?xml version="1.0" standalone="no"?>
<!DOCTYPE svg PUBLIC "-//W3C//DTD SVG 20010904//EN"
 "http://www.w3.org/TR/2001/REC-SVG-20010904/DTD/svg10.dtd">
<svg version="1.0" xmlns="http://www.w3.org/2000/svg"
 width="2550.000000pt" height="2700.000000pt" viewBox="0 0 2550.000000 2700.000000"
 preserveAspectRatio="xMidYMid meet">

<g transform="translate(0.000000,2700.000000) scale(0.100000,-0.100000)"
fill="#3a4548" stroke="none">
<path d="M15733 19122 l-51 -47 0 -780 1 -780 -31 -3 c-84 -8 -94 -142 -11
-142 15 0 31 -6 35 -12 15 -23 3 -83 -26 -128 -85 -138 -87 -318 -4 -456 27
-46 34 -67 32 -99 -3 -37 -5 -40 -29 -37 -73 9 -94 -118 -22 -133 15 -4 34 -9
42 -13 11 -6 14 -143 13 -842 l0 -835 -33 -7 c-36 -7 -69 -40 -69 -67 0 -37
25 -66 60 -71 32 -5 35 -8 38 -44 3 -29 -6 -58 -38 -120 -22 -44 -45 -108 -51
-141 -18 -99 7 -220 62 -303 46 -68 36 -146 -15 -126 -18 7 -56 -42 -56 -71 0
-34 32 -67 63 -67 15 0 29 -4 32 -8 3 -4 5 -629 5 -1390 1 -1081 -1 -1385 -11
-1396 -7 -8 -28 -21 -46 -29 l-34 -14 21 -21 c11 -11 20 -27 20 -35 0 -18 -43
-65 -60 -65 -5 0 -10 -18 -10 -40 l0 -40 148 1 c81 0 167 4 192 7 43 7 45 8
46 45 1 25 -3 37 -12 37 -21 0 -54 37 -54 62 0 12 7 29 16 39 15 17 14 19 -22
34 -21 9 -42 21 -46 28 -4 7 -8 634 -8 1393 0 1251 1 1382 16 1388 9 3 24 6
34 6 28 0 50 28 50 64 0 41 -19 67 -50 68 -59 3 -66 53 -19 123 92 136 92 344
0 480 -26 38 -31 56 -29 89 3 40 4 41 42 46 33 4 42 10 52 35 10 24 10 37 -1
61 -10 25 -20 32 -54 38 l-41 6 2 843 3 842 30 3 c57 7 81 48 60 99 -10 23
-22 33 -52 40 -33 7 -38 13 -41 40 -2 21 6 44 27 74 94 140 95 347 2 484 -26
38 -31 56 -29 89 3 39 5 41 38 44 41 4 60 24 60 67 0 41 -17 62 -60 73 l-35 8
-3 819 c-2 812 -3 834 -32 835 -3 0 -28 -22 -57 -48z m61 -1951 c32 -63 46
-150 36 -225 -10 -66 -58 -171 -79 -171 -20 0 -60 85 -73 155 -9 45 -9 76 0
122 14 73 57 168 78 168 7 0 25 -22 38 -49z m0 -2703 c32 -66 46 -161 34 -235
-10 -64 -55 -163 -74 -163 -18 0 -58 81 -74 149 -8 32 -10 77 -6 114 7 70 57
187 80 187 8 0 26 -24 40 -52z"/>
</g>
</svg>
