<?xml version="1.0" standalone="no"?>
<!DOCTYPE svg PUBLIC "-//W3C//DTD SVG 20010904//EN"
 "http://www.w3.org/TR/2001/REC-SVG-20010904/DTD/svg10.dtd">
<svg version="1.0" xmlns="http://www.w3.org/2000/svg"
 width="2550.000000pt" height="2700.000000pt" viewBox="0 0 2550.000000 2700.000000"
 preserveAspectRatio="xMidYMid meet">

<g transform="translate(0.000000,2700.000000) scale(0.100000,-0.100000)"
fill="#3a4548" stroke="none">
<path d="M17790 21095 l-45 -46 0 -797 -1 -797 -37 -3 c-89 -8 -91 -130 -2
-146 48 -9 57 -45 25 -101 -73 -127 -95 -203 -87 -304 6 -80 29 -151 69 -210
19 -29 30 -59 31 -85 2 -40 1 -41 -31 -41 -67 0 -97 -84 -46 -124 15 -12 37
-21 49 -21 13 0 25 -6 27 -12 3 -11 2 -1677 -1 -1700 -1 -5 -16 -8 -35 -8 -25
0 -39 -7 -50 -22 -32 -46 -8 -118 39 -118 13 0 30 -2 38 -6 22 -8 12 -80 -17
-125 -52 -78 -69 -137 -70 -239 -1 -110 10 -153 60 -235 20 -33 38 -73 39 -90
3 -32 -11 -58 -27 -49 -31 19 -78 -27 -78 -77 0 -28 44 -69 73 -69 18 0 26 -6
29 -22 2 -13 3 -648 2 -1411 -2 -1034 -6 -1392 -14 -1402 -7 -8 -27 -20 -46
-27 -32 -11 -46 -28 -24 -28 6 0 15 -11 22 -25 13 -29 -8 -69 -42 -80 -15 -5
-20 -15 -20 -41 0 -19 6 -36 13 -39 36 -11 247 -13 308 -3 l69 12 0 33 c0 23
-6 36 -17 40 -53 18 -69 66 -33 98 20 18 20 18 -19 36 -22 9 -44 26 -50 37 -8
15 -11 437 -11 1421 l0 1401 30 0 c38 0 80 39 80 73 0 35 -30 67 -70 76 -51
10 -51 43 -1 127 93 154 91 320 -5 476 -27 45 -34 67 -32 95 3 36 5 38 43 43
41 5 65 32 65 76 0 28 -36 64 -64 64 -13 0 -29 6 -35 14 -8 10 -10 242 -9 857
l3 844 32 3 c20 2 40 13 53 29 39 49 19 99 -46 118 -53 14 -57 48 -15 112 55
82 75 148 75 248 0 105 -18 170 -70 246 -29 41 -35 58 -32 92 3 41 4 42 43 47
32 4 43 11 54 34 9 20 11 37 5 55 -8 22 -22 32 -84 61 -13 6 -15 110 -17 831
-2 453 -5 829 -8 836 -9 25 -41 12 -85 -32z m73 -1996 c56 -111 42 -291 -28
-374 l-25 -30 -24 29 c-67 80 -75 254 -17 371 40 81 55 81 94 4z m-10 -2726
c45 -77 58 -195 33 -290 -18 -69 -56 -134 -75 -131 -9 2 -29 29 -45 61 -54
105 -48 255 15 362 26 43 46 42 72 -2z"/>
</g>
</svg>
