<?xml version="1.0" standalone="no"?>
<!DOCTYPE svg PUBLIC "-//W3C//DTD SVG 20010904//EN"
 "http://www.w3.org/TR/2001/REC-SVG-20010904/DTD/svg10.dtd">
<svg version="1.0" xmlns="http://www.w3.org/2000/svg"
 width="2551.000000pt" height="2701.000000pt" viewBox="0 0 2551.000000 2701.000000"
 preserveAspectRatio="xMidYMid meet">

<g transform="translate(0.000000,2701.000000) scale(0.100000,-0.100000)"
fill="#3a4548" stroke="none">
<path d="M15310 21235 l-55 -45 -5 -521 -5 -521 -57 -18 c-223 -69 -446 -267
-547 -485 -108 -231 -119 -496 -31 -727 12 -32 147 -310 301 -618 153 -309
279 -564 279 -567 0 -4 -25 21 -55 54 -73 81 -137 113 -224 113 -103 0 -185
-50 -232 -143 -25 -47 -22 -111 6 -153 23 -35 98 -68 141 -61 68 11 129 78
122 135 -4 38 -31 34 -39 -6 -20 -97 -139 -120 -193 -38 -25 38 -20 78 17 131
60 88 175 121 272 76 47 -22 144 -121 203 -208 34 -51 41 -67 36 -93 -7 -33
16 -70 43 -70 20 0 147 -264 172 -358 69 -256 42 -505 -81 -744 -77 -152 -158
-229 -275 -264 -32 -10 -50 -11 -57 -4 -13 13 -103 13 -108 0 -5 -17 -101 13
-157 50 -151 96 -221 298 -148 423 52 88 150 130 246 107 58 -14 90 -44 97
-92 5 -27 1 -40 -21 -66 -15 -18 -41 -36 -58 -40 -47 -12 -42 -37 7 -36 32 1
46 9 73 37 38 42 48 73 38 124 -17 93 -155 149 -268 109 -95 -34 -169 -121
-183 -215 -26 -174 111 -371 301 -435 16 -6 8 -12 -39 -31 -205 -84 -309 -268
-293 -520 11 -166 80 -316 198 -434 118 -117 272 -188 437 -198 l82 -6 0 -573
0 -573 -26 -20 c-14 -11 -30 -21 -36 -23 -7 -3 -5 -13 6 -31 21 -31 14 -61
-20 -83 -18 -13 -24 -25 -24 -54 0 -21 6 -42 13 -48 7 -6 74 -9 162 -8 l150 1
3 39 c3 34 -1 43 -27 63 -35 27 -39 57 -14 86 17 18 17 19 -2 30 -11 6 -29 20
-41 32 l-22 22 2 578 1 579 91 31 c482 162 744 686 584 1166 -16 48 -160 349
-320 670 l-292 584 79 -77 c43 -42 98 -86 123 -97 90 -41 208 -20 280 51 70
67 90 151 50 216 -54 88 -176 96 -239 16 -27 -34 -38 -93 -20 -104 19 -12 26
-5 33 34 17 92 142 116 189 36 54 -91 -45 -217 -178 -228 -105 -9 -198 61
-316 236 -35 53 -49 83 -49 108 0 32 -22 66 -48 75 -18 7 -120 234 -146 325
-72 257 -45 513 77 748 75 144 145 215 256 256 42 17 60 19 73 11 23 -14 95
-14 104 0 10 16 71 2 137 -34 107 -56 191 -179 204 -296 14 -142 -81 -251
-220 -251 -78 0 -124 21 -142 63 -24 57 8 119 69 135 34 9 45 29 22 38 -47 18
-129 -46 -142 -111 -17 -93 68 -169 191 -169 74 1 138 27 189 80 62 63 71 88
71 189 0 80 -3 97 -32 157 -44 94 -109 160 -202 207 l-77 38 73 33 c125 56
220 172 254 310 8 31 13 103 13 165 -1 91 -5 124 -27 190 -94 285 -347 474
-633 475 l-82 0 2 555 c0 305 -1 555 -4 555 -3 -1 -30 -21 -60 -45z m275
-1120 c220 -57 386 -212 461 -434 42 -124 34 -310 -17 -418 -35 -74 -105 -150
-165 -181 -60 -30 -140 -52 -151 -41 -10 10 -34 12 -116 8 -111 -4 -257 164
-257 295 0 137 156 265 258 212 80 -41 102 -147 42 -201 -26 -23 -26 -45 0
-45 12 0 30 16 47 42 40 60 39 133 -3 185 -75 93 -192 95 -295 5 -59 -51 -84
-114 -84 -207 0 -85 18 -135 73 -200 37 -45 119 -103 162 -116 39 -12 45 -29
11 -29 -36 0 -157 -70 -202 -117 -84 -87 -168 -251 -211 -411 -25 -96 -35
-298 -19 -401 6 -40 10 -75 8 -77 -8 -9 -468 932 -492 1007 -94 297 -18 624
199 866 98 108 275 214 426 253 93 24 243 26 325 5z m175 -3507 c290 -583 292
-589 293 -803 0 -170 -19 -252 -92 -400 -89 -179 -219 -309 -396 -396 -142
-69 -205 -84 -355 -84 -96 0 -138 5 -180 19 -186 63 -315 179 -396 352 -43 92
-51 130 -53 251 -4 220 74 361 244 438 62 28 115 39 115 23 0 -7 21 -9 66 -5
58 4 72 2 124 -24 68 -34 133 -101 162 -166 30 -69 23 -168 -18 -225 -74 -106
-196 -135 -263 -64 -43 46 -44 132 -1 171 25 22 26 45 2 45 -10 0 -30 -19 -45
-42 -24 -37 -28 -51 -25 -99 5 -70 35 -114 96 -141 102 -45 244 29 297 156 25
60 21 158 -9 220 -46 94 -142 183 -218 201 -31 8 -38 25 -10 25 30 0 138 57
181 95 49 44 123 155 163 244 71 155 103 324 94 486 -3 61 -12 136 -20 168 -7
31 -12 57 -9 57 2 0 116 -226 253 -502z"/>
</g>
</svg>
