<?xml version="1.0" standalone="no"?>
<!DOCTYPE svg PUBLIC "-//W3C//DTD SVG 20010904//EN"
 "http://www.w3.org/TR/2001/REC-SVG-20010904/DTD/svg10.dtd">
<svg version="1.0" xmlns="http://www.w3.org/2000/svg"
 width="2551.000000pt" height="2701.000000pt" viewBox="0 0 2551.000000 2701.000000"
 preserveAspectRatio="xMidYMid meet">

<g transform="translate(0.000000,2701.000000) scale(0.100000,-0.100000)"
fill="#3a4548" stroke="none">
<path d="M5923 13510 l-63 -51 0 -518 0 -519 -52 -17 c-140 -45 -309 -152
-402 -256 -154 -171 -233 -362 -243 -584 -6 -136 6 -233 42 -341 13 -40 153
-329 310 -644 157 -314 285 -573 285 -576 0 -3 -28 23 -62 59 -75 77 -112 97
-188 104 -79 8 -151 -18 -212 -74 -85 -80 -98 -168 -37 -238 55 -62 138 -70
200 -18 53 45 79 133 39 133 -14 0 -22 -11 -30 -39 -22 -84 -106 -107 -166
-47 -50 50 -48 97 6 158 51 58 93 78 166 78 79 0 131 -27 203 -106 88 -96 136
-170 133 -205 -2 -22 7 -38 34 -66 41 -40 137 -233 172 -343 44 -136 56 -315
32 -465 -35 -221 -176 -472 -300 -535 -68 -34 -118 -45 -145 -30 -21 11 -34
11 -73 1 -39 -10 -55 -9 -89 3 -131 46 -220 136 -258 262 -39 129 2 232 115
290 70 35 203 15 230 -35 28 -54 -6 -141 -55 -141 -26 0 -58 -27 -50 -41 10
-15 58 -10 92 11 42 25 66 74 67 131 0 89 -67 139 -187 139 -79 0 -148 -32
-206 -95 -81 -88 -89 -213 -22 -350 38 -77 138 -175 205 -200 25 -10 46 -21
46 -24 0 -3 -23 -17 -51 -31 -65 -31 -153 -110 -195 -177 -77 -120 -98 -327
-48 -485 58 -183 141 -295 289 -389 90 -57 260 -108 368 -109 l37 0 0 -569 0
-569 -34 -21 c-41 -26 -51 -48 -31 -71 19 -21 19 -46 1 -57 -22 -14 -36 -50
-36 -97 l0 -46 150 0 149 0 16 30 c8 16 15 47 15 70 0 33 -4 42 -24 52 -35 15
-39 35 -14 68 24 33 23 35 -24 58 l-33 17 -5 410 c-3 226 -4 487 -2 581 l2
170 50 13 c63 16 210 88 271 132 132 96 228 211 302 359 63 127 88 227 94 376
6 135 -5 218 -43 334 -14 41 -149 324 -300 629 -151 304 -274 555 -274 557 0
1 23 -20 51 -47 76 -74 119 -94 209 -94 83 0 121 15 178 69 53 49 75 100 70
163 -5 57 -29 92 -80 119 -35 18 -68 18 -118 -2 -48 -20 -80 -61 -87 -114 -5
-36 -3 -40 16 -40 15 0 21 6 21 21 0 51 47 98 98 99 100 0 144 -93 83 -177
-46 -64 -86 -87 -158 -91 -53 -4 -72 0 -118 23 -60 29 -147 120 -216 228 -33
51 -38 65 -33 97 5 33 3 40 -17 51 -13 7 -28 12 -32 11 -12 -4 -122 232 -150
323 -66 209 -56 452 27 657 85 210 185 319 331 363 33 10 44 10 63 -3 20 -13
31 -13 71 -3 79 20 166 -15 249 -99 102 -103 137 -241 88 -346 -48 -104 -151
-151 -259 -120 -65 19 -91 49 -91 103 0 39 28 72 76 87 19 7 34 19 36 30 4 17
0 18 -33 13 -48 -8 -81 -30 -105 -70 -63 -102 30 -217 175 -217 232 1 342 261
203 482 -43 68 -110 125 -191 164 -40 18 -65 33 -57 34 34 0 138 60 188 106
113 107 158 234 150 427 -4 79 -12 131 -27 177 -91 267 -330 448 -617 467
l-94 6 -2 554 -3 553 -62 -50z m260 -1126 c283 -63 485 -304 501 -594 7 -152
-46 -304 -136 -385 -74 -67 -210 -124 -227 -96 -9 13 -66 17 -99 7 -58 -19
-196 84 -244 181 -35 72 -33 174 5 231 15 23 46 54 69 69 35 23 52 28 106 28
61 0 66 -2 94 -35 26 -31 29 -41 25 -88 -2 -36 -10 -59 -25 -75 -40 -42 -17
-75 24 -36 36 34 58 117 44 167 -13 51 -75 108 -127 118 -117 22 -255 -86
-283 -221 -27 -131 76 -304 214 -361 25 -11 46 -21 46 -24 0 -3 -19 -11 -41
-18 -62 -19 -155 -87 -202 -148 -95 -121 -172 -307 -197 -476 -12 -81 -9 -257
5 -358 7 -48 -458 885 -489 980 -134 420 56 870 450 1061 166 80 338 106 487
73z m166 -3478 c110 -222 216 -438 235 -479 129 -284 101 -608 -75 -868 -177
-263 -522 -420 -804 -365 -232 45 -441 238 -499 459 -35 133 -27 295 18 392
48 103 153 192 258 219 46 12 56 11 76 -2 20 -13 32 -14 65 -5 51 14 96 -1
169 -55 58 -43 99 -106 118 -184 24 -94 -30 -211 -113 -249 -84 -38 -167 -16
-200 54 -23 48 -21 80 6 114 28 34 39 60 28 68 -16 9 -60 -36 -77 -80 -57
-149 91 -275 240 -204 133 62 199 223 147 359 -32 85 -99 162 -175 201 l-64
33 52 21 c121 49 204 137 284 300 89 179 116 310 110 522 -3 84 -4 153 -2 153
1 0 93 -182 203 -404z"/>
</g>
</svg>
