<?xml version="1.0" standalone="no"?>
<!DOCTYPE svg PUBLIC "-//W3C//DTD SVG 20010904//EN"
 "http://www.w3.org/TR/2001/REC-SVG-20010904/DTD/svg10.dtd">
<svg version="1.0" xmlns="http://www.w3.org/2000/svg"
 width="2551.000000pt" height="2701.000000pt" viewBox="0 0 2551.000000 2701.000000"
 preserveAspectRatio="xMidYMid meet">

<g transform="translate(0.000000,2701.000000) scale(0.100000,-0.100000)"
fill="#65340A" stroke="none">
<path d="M16473 22220 l-63 -52 0 -832 0 -832 -27 -2 c-35 -3 -83 -49 -83 -80
0 -53 41 -89 84 -72 26 9 26 9 26 -46 0 -43 -5 -62 -25 -88 -13 -17 -37 -59
-52 -91 -25 -54 -28 -71 -28 -165 0 -94 3 -111 28 -165 15 -32 39 -74 52 -91
17 -23 25 -46 25 -73 0 -40 -1 -41 -29 -39 -38 3 -69 -25 -77 -69 -9 -45 24
-83 73 -83 l33 0 0 -875 0 -875 -26 0 c-34 0 -84 -50 -84 -85 0 -26 39 -75 60
-75 6 0 20 5 31 10 18 10 19 7 19 -46 0 -46 -5 -64 -26 -91 -106 -139 -112
-362 -14 -485 38 -47 49 -75 43 -114 -4 -27 -8 -30 -33 -26 -36 5 -80 -35 -80
-73 0 -36 42 -75 80 -75 l30 0 0 -1441 c0 -974 -3 -1447 -10 -1460 -6 -10 -16
-19 -23 -19 -31 -1 -38 -16 -21 -49 15 -29 15 -34 0 -56 -9 -14 -23 -25 -31
-25 -23 0 -21 -87 3 -98 9 -5 82 -8 162 -8 l145 1 3 36 c2 29 -2 39 -21 52
-32 21 -42 62 -23 93 15 22 14 24 -14 40 -16 10 -32 24 -35 32 -4 12 -7 1301
-5 2700 l0 202 30 0 c20 0 40 9 57 26 21 21 24 32 20 61 -9 52 -25 66 -68 60
-27 -4 -39 -1 -43 10 -13 34 -4 68 34 121 106 147 107 352 4 487 -28 38 -34
54 -34 96 l0 51 30 -7 c39 -9 80 30 80 75 0 44 -41 84 -81 78 l-29 -5 0 879 0
878 30 0 c19 0 40 9 55 25 58 57 5 151 -67 120 -16 -6 -18 -1 -18 42 0 38 6
57 26 84 55 72 77 136 82 238 5 110 -13 171 -74 262 -26 39 -34 61 -34 96 0
43 1 45 25 39 20 -5 32 0 55 23 54 54 28 131 -45 131 l-35 0 -2 886 -3 887
-62 -53z m-63 -1770 c0 -5 -7 -10 -15 -10 -8 0 -15 5 -15 10 0 6 7 10 15 10 8
0 15 -4 15 -10z m160 1 c0 -5 -7 -11 -15 -15 -9 -3 -15 0 -15 9 0 8 7 15 15
15 8 0 15 -4 15 -9z m-57 -269 c9 -10 28 -44 44 -77 48 -104 35 -255 -29 -347
-28 -41 -76 -39 -104 5 -78 123 -81 268 -8 395 20 34 30 42 53 42 15 0 35 -8
44 -18z m-103 -687 c0 -8 -7 -15 -15 -15 -16 0 -20 12 -8 23 11 12 23 8 23 -8z
m160 -5 c0 -5 -7 -10 -15 -10 -8 0 -15 5 -15 10 0 6 7 10 15 10 8 0 15 -4 15
-10z m-160 -1856 c0 -17 -22 -14 -28 4 -2 7 3 12 12 12 9 0 16 -7 16 -16z
m160 7 c0 -5 -7 -14 -15 -21 -13 -10 -15 -9 -15 9 0 12 6 21 15 21 8 0 15 -4
15 -9z m-58 -268 c75 -85 97 -260 47 -372 -40 -90 -89 -115 -128 -65 -69 88
-86 252 -37 359 15 33 34 67 43 77 21 23 55 23 75 1z m-102 -688 c0 -8 -6 -15
-14 -15 -20 0 -29 17 -14 23 22 9 28 7 28 -8z m158 -3 c2 -7 -3 -12 -12 -12
-9 0 -16 7 -16 16 0 17 22 14 28 -4z"/>
</g>
</svg>
