<?xml version="1.0" standalone="no"?>
<!DOCTYPE svg PUBLIC "-//W3C//DTD SVG 20010904//EN"
 "http://www.w3.org/TR/2001/REC-SVG-20010904/DTD/svg10.dtd">
<svg version="1.0" xmlns="http://www.w3.org/2000/svg"
 width="2551.000000pt" height="2701.000000pt" viewBox="0 0 2551.000000 2701.000000"
 preserveAspectRatio="xMidYMid meet">

<g transform="translate(0.000000,2701.000000) scale(0.100000,-0.100000)"
fill="#65340A" stroke="none">
<path d="M17638 23179 l-58 -51 0 -829 c0 -783 -1 -829 -17 -829 -31 0 -80
-37 -87 -66 -15 -60 39 -114 86 -85 17 10 18 7 18 -49 0 -53 -4 -65 -35 -106
-101 -132 -98 -356 5 -486 23 -28 30 -47 30 -81 0 -42 -1 -43 -28 -39 -23 3
-34 -3 -55 -28 -47 -56 -27 -115 44 -126 l39 -7 0 -873 0 -874 -25 0 c-60 0
-97 -56 -74 -112 12 -30 45 -44 78 -33 20 6 21 2 21 -48 0 -47 -6 -63 -39
-113 -98 -147 -94 -347 9 -476 23 -28 30 -47 30 -81 0 -42 -1 -44 -32 -44 -32
0 -78 -40 -78 -68 0 -47 44 -84 93 -76 16 2 17 -50 17 -968 l0 -971 -40 -20
c-37 -19 -39 -22 -25 -36 28 -28 12 -104 -21 -104 -12 0 -14 -10 -12 -42 l3
-43 163 -3 162 -2 0 38 c0 28 -6 44 -25 60 -28 25 -32 57 -11 88 14 19 12 22
-17 39 -18 10 -35 23 -39 29 -4 6 -8 444 -8 974 l0 962 33 0 c67 0 103 84 56
131 -16 16 -28 20 -55 14 l-34 -6 0 49 c0 33 5 54 16 62 24 21 63 93 80 149
19 66 20 183 1 243 -17 54 -58 128 -81 148 -11 8 -16 30 -16 64 0 52 0 53 29
48 22 -3 36 2 55 21 51 51 22 127 -49 127 l-35 0 0 875 0 875 24 0 c14 0 38
12 55 26 67 56 15 164 -60 124 -18 -10 -19 -7 -19 40 0 41 6 58 36 99 104 146
103 338 -2 491 -26 38 -34 60 -34 93 0 42 1 43 29 39 41 -6 81 34 81 82 0 44
-40 80 -82 74 l-28 -5 0 884 c0 486 -3 883 -7 883 -5 0 -34 -23 -65 -51z m-58
-1769 c0 -5 -7 -7 -15 -4 -8 4 -12 10 -9 15 6 11 24 2 24 -11z m149 -6 c-14
-18 -24 -11 -15 11 3 9 11 13 16 10 8 -5 7 -11 -1 -21z m-25 -287 c38 -64 60
-160 52 -232 -6 -57 -56 -184 -73 -186 -4 0 -19 -2 -32 -3 -87 -10 -149 240
-92 370 36 82 48 94 86 94 30 0 37 -6 59 -43z m-124 -662 c0 -8 -4 -15 -9 -15
-13 0 -22 16 -14 24 11 11 23 6 23 -9z m158 -3 c2 -7 -3 -12 -12 -12 -9 0 -16
7 -16 16 0 17 22 14 28 -4z m-158 -1853 c0 -5 -7 -9 -15 -9 -15 0 -20 12 -9
23 8 8 24 -1 24 -14z m150 -9 c-18 -11 -24 -6 -16 16 5 14 9 15 19 5 9 -9 9
-14 -3 -21z m-33 -273 c43 -64 58 -118 58 -208 0 -79 -3 -92 -35 -155 -33 -65
-37 -69 -72 -72 -35 -3 -37 -2 -67 60 -45 90 -57 179 -36 260 9 34 27 82 41
105 21 37 30 43 57 43 25 0 37 -7 54 -33z m-117 -673 c0 -17 -22 -14 -28 4 -2
7 3 12 12 12 9 0 16 -7 16 -16z m160 1 c0 -8 -7 -15 -15 -15 -8 0 -15 7 -15
15 0 8 7 15 15 15 8 0 15 -7 15 -15z"/>
</g>
</svg>
