<?xml version="1.0" standalone="no"?>
<!DOCTYPE svg PUBLIC "-//W3C//DTD SVG 20010904//EN"
 "http://www.w3.org/TR/2001/REC-SVG-20010904/DTD/svg10.dtd">
<svg version="1.0" xmlns="http://www.w3.org/2000/svg"
 width="2551.000000pt" height="2701.000000pt" viewBox="0 0 2551.000000 2701.000000"
 preserveAspectRatio="xMidYMid meet">

<g transform="translate(0.000000,2701.000000) scale(0.100000,-0.100000)"
fill="#65340A" stroke="none">
<path d="M22255 26153 l0 -828 -27 -3 c-34 -4 -88 -64 -88 -97 0 -13 10 -36
23 -51 19 -22 29 -26 50 -20 40 10 41 10 43 -41 1 -40 -5 -55 -41 -108 -103
-151 -99 -347 12 -492 41 -53 39 -83 -7 -98 -38 -13 -80 -60 -80 -91 0 -37 37
-72 78 -76 l37 -3 0 -864 0 -865 -32 -8 c-37 -10 -83 -60 -83 -92 0 -38 37
-68 78 -64 l36 3 1 -50 c1 -38 -4 -56 -21 -78 -13 -15 -37 -57 -55 -93 -64
-129 -47 -295 41 -414 47 -63 53 -112 13 -115 -30 -2 -72 -32 -85 -60 -22 -49
33 -115 83 -100 13 5 20 0 24 -17 3 -13 4 -446 2 -963 l-3 -940 -42 -29 c-38
-27 -40 -31 -27 -46 25 -28 18 -67 -15 -92 -16 -12 -30 -30 -30 -40 0 -17 13
-18 180 -18 l180 0 0 29 c0 21 -6 32 -21 36 -11 4 -25 18 -30 33 -8 21 -6 31
10 53 l20 27 -30 13 c-63 26 -59 -48 -59 993 l0 953 40 13 c70 23 93 73 59
129 -20 33 -24 34 -79 20 -11 -3 -16 6 -18 38 -3 34 3 50 32 90 59 82 79 145
79 253 1 83 -2 102 -26 155 -16 33 -41 77 -57 97 -22 27 -30 47 -30 77 0 39 2
41 29 41 46 0 85 39 85 85 0 46 -31 75 -80 75 l-34 0 2 867 c3 859 3 868 23
871 32 6 82 49 89 77 8 30 -19 82 -46 91 -9 3 -26 0 -37 -5 -30 -16 -31 -15
-31 38 0 31 5 53 15 61 27 23 74 116 91 181 30 118 0 253 -80 358 -30 41 -36
101 -10 101 27 0 80 38 93 66 23 52 -12 104 -71 104 l-38 0 0 830 0 830 -67 0
-68 0 0 -827z m150 -893 c3 -5 1 -10 -4 -10 -6 0 -11 5 -11 10 0 6 2 10 4 10
3 0 8 -4 11 -10z m-42 -282 c43 -59 62 -125 61 -218 0 -73 -5 -94 -30 -145
-25 -53 -33 -60 -61 -63 -28 -3 -35 2 -56 36 -73 114 -77 265 -11 380 31 53
62 56 97 10z m47 -2528 c0 -5 -4 -10 -10 -10 -5 0 -10 5 -10 10 0 6 5 10 10
10 6 0 10 -4 10 -10z m-36 -292 c54 -95 69 -201 40 -299 -25 -86 -50 -119 -88
-119 -30 0 -35 5 -67 68 -31 62 -34 74 -34 162 0 73 5 106 20 140 32 75 45 90
76 90 23 0 33 -8 53 -42z m-124 -658 c0 -5 -2 -10 -4 -10 -3 0 -8 5 -11 10 -3
6 -1 10 4 10 6 0 11 -4 11 -10z"/>
</g>
</svg>
