<?xml version="1.0" standalone="no"?>
<!DOCTYPE svg PUBLIC "-//W3C//DTD SVG 20010904//EN"
 "http://www.w3.org/TR/2001/REC-SVG-20010904/DTD/svg10.dtd">
<svg version="1.0" xmlns="http://www.w3.org/2000/svg"
 width="2551.000000pt" height="2701.000000pt" viewBox="0 0 2551.000000 2701.000000"
 preserveAspectRatio="xMidYMid meet">

<g transform="translate(0.000000,2701.000000) scale(0.100000,-0.100000)"
fill="#65340A" stroke="none">
<path d="M24554 26938 c-59 -83 -78 -144 -78 -248 -1 -87 2 -101 31 -163 18
-38 44 -82 58 -99 33 -39 34 -88 3 -88 -13 -1 -35 -11 -50 -23 -73 -60 -48
-147 41 -147 l31 0 0 -863 0 -863 -35 -12 c-48 -18 -88 -68 -80 -101 9 -39 51
-74 75 -61 33 18 40 11 40 -40 0 -41 -6 -59 -34 -98 -59 -82 -80 -145 -80
-247 0 -104 19 -164 78 -244 42 -57 50 -111 16 -111 -48 0 -107 -68 -93 -107
13 -37 36 -53 75 -53 l38 0 0 -958 c0 -1050 4 -986 -60 -1012 -28 -12 -29 -14
-15 -30 29 -32 17 -86 -24 -103 -25 -10 -24 -11 19 -16 25 -4 111 -6 190 -6
128 1 145 3 148 18 2 11 -6 21 -22 27 -40 15 -53 53 -31 87 10 15 14 28 9 30
-5 2 -24 12 -41 23 l-33 20 0 959 0 959 28 5 c50 10 82 44 82 86 0 51 -27 76
-75 68 l-35 -6 0 45 c0 34 8 55 36 93 108 151 102 367 -13 505 -18 21 -23 38
-21 64 3 31 8 37 34 44 36 9 70 43 79 80 10 39 -43 92 -85 86 l-30 -5 0 863 0
863 34 16 c73 35 96 76 71 125 -20 38 -39 47 -76 33 l-29 -11 0 46 c0 38 7 57
35 96 101 143 106 337 12 478 -22 33 -24 33 -108 36 l-85 3 -30 -43z m166 -82
c33 -66 35 -74 35 -170 -1 -83 -5 -109 -23 -148 -42 -88 -84 -86 -133 6 -27
51 -34 75 -37 142 -7 134 39 249 97 242 21 -2 32 -16 61 -72z m-10 -2783 c60
-97 67 -244 15 -348 -24 -48 -35 -60 -55 -61 -34 -2 -43 7 -76 74 -20 43 -28
77 -32 138 -5 85 3 125 41 202 17 35 25 42 49 42 23 0 34 -9 58 -47z m-120
-643 c0 -5 -4 -10 -10 -10 -5 0 -10 5 -10 10 0 6 5 10 10 10 6 0 10 -4 10 -10z"/>
</g>
</svg>
