<?xml version="1.0" standalone="no"?>
<!DOCTYPE svg PUBLIC "-//W3C//DTD SVG 20010904//EN"
 "http://www.w3.org/TR/2001/REC-SVG-20010904/DTD/svg10.dtd">
<svg version="1.0" xmlns="http://www.w3.org/2000/svg"
 width="2551.000000pt" height="2701.000000pt" viewBox="0 0 2551.000000 2701.000000"
 preserveAspectRatio="xMidYMid meet">

<g transform="translate(0.000000,2701.000000) scale(0.100000,-0.100000)"
fill="#65340A" stroke="none">
<path d="M12953 19324 l-53 -46 0 -839 c0 -745 -2 -838 -15 -833 -21 8 -74
-15 -85 -37 -17 -31 -11 -69 15 -95 15 -15 32 -23 40 -20 8 3 22 9 30 12 12 5
15 -4 15 -50 0 -48 -5 -62 -34 -101 -55 -71 -79 -146 -78 -245 0 -98 22 -168
77 -246 28 -39 35 -58 35 -96 0 -45 -11 -61 -25 -38 -20 32 -85 -21 -85 -70 0
-41 31 -70 75 -70 l35 0 0 -880 0 -880 -29 0 c-37 0 -81 -35 -81 -65 0 -61 50
-102 92 -76 17 10 18 7 18 -43 0 -48 -5 -63 -40 -112 -61 -87 -85 -190 -69
-298 10 -75 30 -123 76 -185 28 -37 33 -52 33 -99 0 -44 -3 -53 -12 -44 -18
18 -56 14 -78 -8 -45 -45 -6 -130 60 -130 l30 0 -2 -967 -3 -967 -36 -21 -36
-20 19 -26 c16 -20 17 -30 8 -53 -5 -15 -19 -30 -30 -33 -15 -4 -20 -14 -20
-38 0 -66 -3 -65 159 -65 81 0 150 2 152 5 3 2 3 26 -1 52 -3 33 -10 48 -20
48 -8 0 -19 12 -24 27 -8 21 -6 32 7 46 23 26 21 36 -10 53 -16 8 -31 18 -35
24 -4 5 -8 443 -8 971 l0 961 39 7 c65 10 92 73 53 124 -19 24 -45 30 -74 17
-16 -6 -18 -1 -18 40 0 39 7 59 40 108 49 73 70 142 71 233 1 86 -29 179 -77
242 -30 40 -34 52 -34 105 0 48 3 58 12 49 7 -7 24 -12 39 -12 59 0 81 91 33
129 -15 12 -40 21 -55 21 l-29 0 0 880 0 880 33 0 c69 0 99 73 53 127 -22 26
-27 27 -55 16 l-31 -11 0 50 c0 40 6 57 27 82 111 132 113 370 3 508 -25 31
-30 46 -30 92 0 55 0 56 25 44 48 -22 96 36 81 97 -7 29 -59 59 -86 50 -20 -6
-20 6 -20 879 0 487 -3 886 -7 886 -5 0 -32 -21 -60 -46z m-53 -1773 c0 -14
-5 -18 -20 -14 -11 3 -20 12 -20 19 0 8 9 14 20 14 13 0 20 -7 20 -19z m160 5
c0 -7 -9 -16 -20 -19 -15 -4 -20 0 -20 14 0 12 7 19 20 19 11 0 20 -6 20 -14z
m-46 -283 c41 -61 58 -122 58 -203 0 -121 -55 -240 -111 -240 -35 0 -53 20
-87 95 -22 49 -27 75 -27 145 -1 72 3 94 26 145 35 76 53 95 88 95 22 0 35 -9
53 -37z m-114 -673 c0 -13 -7 -20 -20 -20 -22 0 -28 25 -7 33 22 10 27 7 27
-13z m160 -6 c0 -8 -9 -14 -20 -14 -13 0 -20 7 -20 19 0 14 5 18 20 14 11 -3
20 -12 20 -19z m-162 -1867 c-3 -14 -5 -14 -23 -1 -17 13 -18 16 -5 24 18 11
33 -2 28 -23z m159 16 c4 -11 -26 -27 -35 -19 -2 3 -2 12 2 21 6 18 27 16 33
-2z m-29 -311 c66 -124 60 -267 -19 -389 -10 -17 -23 -23 -50 -23 -33 0 -40 5
-63 44 -62 105 -69 229 -20 336 33 72 51 90 89 90 29 0 35 -6 63 -58z m-128
-642 c0 -13 -7 -20 -20 -20 -25 0 -25 9 -2 26 22 17 22 17 22 -6z m154 -12
c-10 -16 -34 -7 -34 12 0 17 3 19 19 8 11 -7 17 -16 15 -20z"/>
</g>
</svg>
