<?xml version="1.0" standalone="no"?>
<!DOCTYPE svg PUBLIC "-//W3C//DTD SVG 20010904//EN"
 "http://www.w3.org/TR/2001/REC-SVG-20010904/DTD/svg10.dtd">
<svg version="1.0" xmlns="http://www.w3.org/2000/svg"
 width="2551.000000pt" height="2701.000000pt" viewBox="0 0 2551.000000 2701.000000"
 preserveAspectRatio="xMidYMid meet">

<g transform="translate(0.000000,2701.000000) scale(0.100000,-0.100000)"
fill="#C5C3C1" stroke="none">
<path d="M15297 21254 l-57 -46 0 -834 0 -834 -26 0 c-34 0 -84 -50 -84 -85 0
-26 39 -75 60 -75 6 0 20 5 31 10 18 10 19 7 19 -46 0 -49 -5 -64 -40 -116
-49 -74 -70 -142 -70 -228 0 -99 46 -229 95 -270 10 -8 15 -31 15 -61 0 -48 0
-48 -29 -43 -24 5 -35 1 -55 -21 -15 -16 -26 -40 -26 -55 0 -36 41 -73 80 -72
l30 1 0 -880 0 -879 -30 0 c-38 0 -80 -39 -80 -73 0 -13 10 -37 22 -52 18 -23
27 -26 55 -22 l33 6 0 -58 c0 -41 -5 -62 -16 -71 -50 -42 -94 -164 -94 -260 0
-103 25 -179 81 -251 23 -30 29 -47 29 -88 0 -48 -1 -51 -19 -41 -26 13 -65
-4 -80 -37 -16 -34 -14 -47 10 -77 15 -19 30 -26 55 -26 l34 0 1 -57 c1 -67 0
-1864 0 -1876 -1 -4 -16 -17 -35 -28 -34 -20 -34 -20 -18 -49 15 -25 15 -31 2
-56 -8 -15 -23 -29 -32 -32 -13 -3 -18 -15 -18 -43 0 -21 5 -41 11 -44 20 -13
301 -8 309 4 12 20 -1 65 -27 88 -27 25 -30 59 -7 84 14 15 12 19 -20 39 -20
12 -38 31 -41 43 -3 12 -4 450 -3 972 l3 950 39 5 c51 7 81 44 71 89 -9 42
-47 68 -79 53 -31 -14 -36 -8 -36 40 0 29 9 51 35 85 111 146 111 369 -1 502
-21 25 -27 45 -29 87 l-3 55 32 -6 c40 -8 73 17 82 60 8 42 -21 76 -72 84
l-39 6 0 875 0 875 28 2 c70 5 107 71 70 122 -22 29 -57 39 -78 21 -11 -9 -15
-7 -20 12 -10 43 -1 73 41 134 103 152 97 337 -15 497 -21 31 -29 54 -30 85 0
42 1 43 28 37 42 -9 85 30 85 79 0 45 -21 67 -65 69 -19 1 -37 6 -41 11 -3 5
-6 400 -6 878 1 477 -1 870 -3 873 -3 2 -30 -16 -62 -41z m-57 -1768 c0 -9 -7
-12 -20 -9 -11 3 -17 9 -14 14 8 14 34 10 34 -5z m160 5 c0 -5 -6 -14 -14 -20
-10 -9 -15 -8 -19 3 -3 8 -3 17 0 20 9 9 33 7 33 -3z m-57 -269 c9 -10 28 -44
44 -77 49 -107 33 -276 -34 -355 -47 -56 -96 -28 -137 79 -40 103 -31 222 25
319 24 43 34 52 58 52 15 0 35 -8 44 -18z m-107 -709 c-3 -3 -13 -2 -23 1 -17
7 -17 8 2 22 18 13 20 13 23 -1 2 -9 1 -19 -2 -22z m164 12 c0 -8 -6 -15 -14
-15 -8 0 -16 7 -20 15 -4 10 1 15 14 15 11 0 20 -7 20 -15z m-160 -1854 c0
-14 -5 -18 -20 -14 -21 5 -25 15 -13 26 13 14 33 6 33 -12z m156 8 c8 -14 -18
-31 -30 -19 -9 9 0 30 14 30 5 0 12 -5 16 -11z m-16 -333 c32 -64 35 -76 35
-161 0 -85 -3 -97 -35 -161 -35 -68 -36 -69 -75 -69 -39 0 -40 1 -74 67 -58
114 -52 258 15 361 23 34 29 38 62 35 35 -3 39 -7 72 -72z m20 -626 c0 -5 -5
-12 -11 -16 -14 -8 -33 11 -25 25 7 11 36 4 36 -9z m-160 -5 c0 -8 -6 -15 -14
-15 -17 0 -28 14 -19 24 12 12 33 6 33 -9z"/>
</g>
</svg>
