<?xml version="1.0" standalone="no"?>
<!DOCTYPE svg PUBLIC "-//W3C//DTD SVG 20010904//EN"
 "http://www.w3.org/TR/2001/REC-SVG-20010904/DTD/svg10.dtd">
<svg version="1.0" xmlns="http://www.w3.org/2000/svg"
 width="2551.000000pt" height="2701.000000pt" viewBox="0 0 2551.000000 2701.000000"
 preserveAspectRatio="xMidYMid meet">

<g transform="translate(0.000000,2701.000000) scale(0.100000,-0.100000)"
fill="#C5C3C1" stroke="none">
<path d="M18813 24147 l-63 -51 0 -833 0 -833 -29 0 c-20 0 -37 -9 -55 -31
-30 -35 -33 -74 -10 -108 14 -20 23 -22 55 -18 l39 5 0 -49 c0 -39 -7 -60 -40
-110 -99 -154 -96 -336 7 -480 23 -33 33 -58 33 -84 0 -32 -3 -36 -20 -30 -39
12 -90 -44 -90 -100 0 -30 44 -65 81 -65 l29 0 0 -869 0 -868 -30 -7 c-67 -13
-100 -83 -64 -135 14 -20 23 -22 55 -18 l39 5 0 -50 c0 -42 -7 -60 -39 -109
-56 -84 -75 -154 -68 -259 7 -106 20 -145 68 -209 31 -41 39 -60 39 -95 0 -41
-1 -43 -25 -38 -73 13 -117 -105 -52 -139 12 -7 34 -12 49 -11 l28 1 1 -877
c0 -1062 0 -1722 0 -1900 l-1 -132 -35 -17 c-36 -17 -43 -27 -25 -38 6 -3 10
-22 10 -40 0 -26 -6 -39 -25 -51 -20 -13 -25 -25 -25 -55 l0 -39 170 0 170 0
0 33 c0 25 -7 39 -30 55 -34 26 -40 65 -14 93 15 17 14 19 -20 36 -20 9 -39
26 -42 38 -2 11 -3 666 -2 1455 l3 1434 33 7 c48 10 72 36 72 79 0 48 -26 73
-72 68 -32 -3 -33 -2 -36 39 -3 34 3 49 32 87 55 72 78 146 79 251 1 102 -19
165 -79 246 -26 35 -34 57 -34 88 0 40 1 41 33 41 43 0 78 36 79 80 1 42 -41
83 -81 78 l-26 -3 -3 871 -2 872 33 6 c76 14 106 97 52 143 -15 13 -34 22 -41
19 -8 -3 -21 -9 -29 -12 -12 -5 -15 3 -15 40 0 37 7 55 34 91 57 74 80 146 79
250 0 103 -21 171 -78 251 -25 35 -35 60 -35 86 0 36 2 38 30 38 45 0 80 39
80 89 0 47 -26 71 -77 71 l-33 0 -2 884 -3 884 -62 -51z m-66 -1773 c-3 -3
-12 -4 -19 -1 -8 3 -5 6 6 6 11 1 17 -2 13 -5z m153 -4 c0 -5 -4 -10 -10 -10
-5 0 -10 5 -10 10 0 6 5 10 10 10 6 0 10 -4 10 -10z m-34 -283 c71 -110 77
-290 11 -388 -30 -46 -76 -52 -105 -14 -76 97 -82 289 -12 403 16 26 26 32 52
32 26 0 37 -7 54 -33z m-116 -667 c0 -5 -7 -10 -16 -10 -8 0 -12 5 -9 10 3 6
10 10 16 10 5 0 9 -4 9 -10z m157 -6 c-3 -3 -12 -4 -19 -1 -8 3 -5 6 6 6 11 1
17 -2 13 -5z m-162 -1844 c3 -5 -1 -10 -10 -10 -9 0 -13 5 -10 10 3 6 8 10 10
10 2 0 7 -4 10 -10z m165 -11 c0 -5 -7 -9 -15 -9 -15 0 -20 12 -9 23 8 8 24
-1 24 -14z m-29 -311 c30 -56 34 -73 37 -158 3 -79 0 -104 -17 -150 -29 -74
-42 -89 -82 -92 -33 -3 -35 -1 -69 67 -58 115 -54 250 11 359 17 30 27 36 54
36 29 0 35 -5 66 -62z m-131 -638 c0 -5 -4 -10 -9 -10 -6 0 -13 5 -16 10 -3 6
1 10 9 10 9 0 16 -4 16 -10z m160 0 c0 -5 -7 -10 -15 -10 -8 0 -15 5 -15 10 0
6 7 10 15 10 8 0 15 -4 15 -10z"/>
</g>
</svg>
