<?xml version="1.0" standalone="no"?>
<!DOCTYPE svg PUBLIC "-//W3C//DTD SVG 20010904//EN"
 "http://www.w3.org/TR/2001/REC-SVG-20010904/DTD/svg10.dtd">
<svg version="1.0" xmlns="http://www.w3.org/2000/svg"
 width="2551.000000pt" height="2701.000000pt" viewBox="0 0 2551.000000 2701.000000"
 preserveAspectRatio="xMidYMid meet">

<g transform="translate(0.000000,2701.000000) scale(0.100000,-0.100000)"
fill="#C5C3C1" stroke="none">
<path d="M21152 26070 l-63 -55 0 -827 1 -828 -21 0 c-32 0 -55 -16 -80 -56
-21 -34 -21 -38 -6 -69 18 -38 47 -51 76 -36 30 16 31 15 31 -42 0 -42 -6 -60
-26 -88 -15 -19 -40 -63 -57 -99 -26 -57 -30 -77 -31 -155 -1 -107 17 -167 74
-249 49 -69 54 -113 14 -113 -16 0 -38 -13 -57 -31 -55 -55 -32 -128 42 -134
l36 -3 3 -867 c2 -822 1 -868 -15 -868 -30 0 -79 -36 -92 -68 -23 -55 30 -118
77 -93 26 14 32 5 32 -49 0 -38 -6 -56 -35 -93 -59 -78 -79 -139 -79 -247 0
-108 20 -169 79 -247 24 -31 35 -57 35 -79 0 -30 -3 -34 -27 -34 -48 -1 -100
-61 -88 -100 9 -29 54 -60 86 -60 l29 0 0 -1441 c0 -909 -3 -1447 -10 -1458
-5 -10 -23 -24 -39 -31 -29 -11 -30 -14 -16 -33 23 -34 18 -64 -15 -89 -21
-15 -30 -30 -30 -50 l0 -28 175 0 175 0 0 29 c0 19 -10 40 -30 59 -34 34 -37
49 -15 78 20 27 19 30 -15 44 -17 7 -35 21 -40 31 -6 11 -10 553 -10 1452 l0
1435 29 5 c45 9 84 49 84 85 0 48 -29 75 -75 69 l-38 -5 0 42 c0 30 8 52 26
77 119 158 122 354 9 508 -29 41 -36 58 -33 88 3 34 6 38 33 40 35 2 85 52 85
84 0 11 -14 34 -30 51 -25 25 -36 29 -60 24 l-30 -5 0 870 c0 819 1 870 18
875 83 26 115 69 90 120 -19 40 -42 51 -78 37 l-30 -11 0 48 c0 36 6 56 24 77
32 39 61 98 81 168 32 109 3 253 -70 348 -45 59 -50 117 -10 117 33 0 84 48
91 85 8 43 -32 85 -80 85 l-36 0 -2 882 -3 882 -63 -54z m88 -1774 c0 -3 -4
-8 -10 -11 -5 -3 -10 -1 -10 4 0 6 5 11 10 11 6 0 10 -2 10 -4z m-46 -279 c77
-100 86 -255 25 -384 -19 -38 -25 -43 -55 -43 -30 0 -38 6 -64 46 -67 106 -66
270 2 382 26 43 59 43 92 -1z m-104 -667 c0 -5 -4 -10 -10 -10 -5 0 -10 5 -10
10 0 6 5 10 10 10 6 0 10 -4 10 -10z m150 -1859 c0 -6 -4 -13 -10 -16 -5 -3
-10 1 -10 9 0 9 5 16 10 16 6 0 10 -4 10 -9z m-20 -325 c33 -66 35 -74 35
-170 -1 -107 -19 -170 -63 -210 -37 -33 -64 -18 -102 59 -33 65 -35 76 -35
165 0 88 3 101 33 163 32 65 35 68 65 65 28 -3 36 -11 67 -72z m-130 -626 c0
-5 -4 -10 -9 -10 -6 0 -13 5 -16 10 -3 6 1 10 9 10 9 0 16 -4 16 -10z"/>
</g>
</svg>
