<?xml version="1.0" standalone="no"?>
<!DOCTYPE svg PUBLIC "-//W3C//DTD SVG 20010904//EN"
 "http://www.w3.org/TR/2001/REC-SVG-20010904/DTD/svg10.dtd">
<svg version="1.0" xmlns="http://www.w3.org/2000/svg"
 width="2551.000000pt" height="2701.000000pt" viewBox="0 0 2551.000000 2701.000000"
 preserveAspectRatio="xMidYMid meet">

<g transform="translate(0.000000,2701.000000) scale(0.100000,-0.100000)"
fill="#C5C3C1" stroke="none">
<path d="M23420 26635 c0 -300 -2 -345 -15 -345 -8 0 -33 -16 -55 -36 -31 -28
-40 -44 -40 -68 0 -50 64 -99 85 -66 15 24 25 6 25 -47 0 -42 -5 -62 -19 -77
-33 -35 -80 -140 -88 -197 -13 -86 1 -183 38 -255 17 -35 40 -71 50 -80 27
-24 26 -84 -1 -84 -10 0 -35 -14 -55 -31 -27 -24 -35 -39 -35 -65 0 -45 29
-74 75 -74 l35 0 -2 -867 -3 -868 -21 -3 c-11 -2 -35 -16 -52 -32 -36 -33 -42
-72 -16 -109 14 -20 23 -22 55 -18 l39 5 0 -54 c0 -46 -5 -60 -34 -99 -105
-137 -105 -345 1 -484 44 -58 46 -106 5 -114 -41 -8 -82 -51 -82 -84 0 -47 25
-73 71 -73 l39 0 0 -1449 c0 -1336 -1 -1451 -17 -1466 -9 -9 -27 -21 -41 -26
-23 -9 -24 -11 -8 -28 24 -27 19 -60 -14 -91 -16 -15 -30 -33 -30 -39 0 -8 56
-11 180 -11 175 0 180 1 180 21 0 11 -13 32 -30 46 -34 28 -37 48 -13 83 9 13
13 25 7 27 -5 2 -24 12 -41 23 l-33 20 0 1440 c0 1363 1 1441 18 1446 77 25
96 44 94 97 -1 46 -29 70 -74 63 l-38 -6 0 41 c0 29 8 52 24 73 66 88 104 219
91 322 -7 57 -52 161 -90 206 -33 39 -36 108 -5 108 33 0 75 26 88 55 17 37
15 50 -11 80 -17 20 -32 27 -60 27 l-37 0 0 863 0 863 48 23 c62 31 81 68 58
115 -17 36 -59 55 -79 35 -20 -20 -27 -12 -27 34 0 35 7 55 34 93 74 103 101
228 72 340 -18 70 -48 134 -82 175 -31 37 -34 97 -4 97 27 0 88 58 96 92 5 22
0 34 -25 59 -26 26 -37 30 -61 25 l-30 -5 0 349 0 350 -70 0 -70 0 0 -345z
m114 -702 c73 -110 80 -256 20 -376 -23 -44 -28 -48 -57 -45 -28 3 -36 11 -66
68 -43 80 -53 184 -27 271 36 123 84 153 130 82z m-12 -2790 c54 -62 86 -205
66 -298 -5 -27 -22 -72 -36 -98 -23 -43 -29 -48 -56 -45 -27 3 -35 11 -65 71
-57 113 -53 254 9 355 22 36 57 43 82 15z"/>
</g>
</svg>
