<?xml version="1.0" standalone="no"?>
<!DOCTYPE svg PUBLIC "-//W3C//DTD SVG 20010904//EN"
 "http://www.w3.org/TR/2001/REC-SVG-20010904/DTD/svg10.dtd">
<svg version="1.0" xmlns="http://www.w3.org/2000/svg"
 width="2551.000000pt" height="2701.000000pt" viewBox="0 0 2551.000000 2701.000000"
 preserveAspectRatio="xMidYMid meet">

<g transform="translate(0.000000,2701.000000) scale(0.100000,-0.100000)"
fill="#C5C3C1" stroke="none">
<path d="M5911 13529 l-61 -51 0 -833 0 -832 -32 -7 c-68 -14 -100 -81 -62
-134 17 -24 62 -30 82 -10 9 9 12 -1 12 -45 0 -49 -5 -64 -36 -106 -106 -148
-105 -356 2 -496 25 -33 34 -55 34 -83 0 -36 -2 -38 -28 -34 -19 2 -35 -4 -55
-22 -54 -50 -22 -136 51 -136 l32 0 0 -875 0 -875 -24 0 c-14 0 -38 -12 -55
-26 -35 -29 -41 -75 -15 -112 17 -24 62 -30 82 -10 9 9 12 0 12 -44 0 -48 -5
-64 -39 -114 -59 -90 -75 -144 -75 -244 1 -99 25 -172 79 -243 25 -32 35 -56
35 -81 0 -32 -2 -35 -32 -34 -23 1 -37 -6 -55 -28 -47 -59 -17 -134 54 -134
l33 0 0 -965 0 -964 -28 -15 c-46 -24 -58 -43 -38 -64 19 -22 21 -62 3 -62
-20 0 -37 -44 -37 -95 l0 -45 150 0 149 0 16 30 c20 39 20 110 0 110 -8 0 -22
11 -31 25 -15 23 -15 26 5 51 28 35 27 38 -14 53 -19 7 -40 21 -45 31 -7 12
-9 344 -8 962 l3 942 32 7 c44 9 61 24 75 71 10 34 9 42 -9 66 -22 29 -59 40
-76 23 -20 -20 -27 -11 -27 32 0 31 7 53 26 78 120 160 125 357 14 519 -45 66
-53 123 -17 119 38 -5 64 11 81 45 21 44 20 58 -5 90 -15 19 -30 26 -54 26
-24 0 -35 5 -38 18 -3 9 -4 402 -3 872 l1 854 35 7 c41 9 80 50 80 84 0 13
-11 37 -24 52 -22 26 -27 27 -55 17 -37 -14 -41 -10 -41 35 0 25 12 54 40 96
81 121 101 260 55 389 -13 38 -39 87 -57 109 -25 32 -32 50 -32 86 -1 46 -1
46 30 43 44 -4 89 48 80 92 -9 42 -29 59 -71 60 -27 1 -37 6 -40 21 -3 11 -4
410 -2 888 1 477 1 867 0 867 -1 0 -29 -23 -62 -51z m-63 -1778 c3 -8 -1 -12
-9 -9 -7 2 -15 10 -17 17 -3 8 1 12 9 9 7 -2 15 -10 17 -17z m160 1 c2 -7 -3
-12 -12 -12 -9 0 -16 7 -16 16 0 17 22 14 28 -4z m-22 -326 c33 -67 36 -82 36
-158 0 -90 -16 -148 -59 -205 -34 -46 -65 -44 -102 7 -70 96 -79 249 -21 366
30 62 32 64 70 64 38 0 39 -1 76 -74z m-136 -626 c0 -11 -7 -20 -15 -20 -18 0
-19 12 -3 28 16 16 18 15 18 -8z m160 -10 c0 -5 -7 -10 -15 -10 -8 0 -15 5
-15 10 0 6 7 10 15 10 8 0 15 -4 15 -10z m-15 -1869 c-9 -16 -25 -3 -18 15 4
10 9 12 15 6 6 -6 7 -15 3 -21z m-36 -267 c63 -80 82 -238 42 -345 -28 -74
-50 -97 -90 -91 -36 5 -60 41 -92 135 -29 85 -23 172 19 261 29 63 33 66 66
66 25 0 40 -7 55 -26z m-113 -681 c-10 -10 -19 5 -10 18 6 11 8 11 12 0 2 -7
1 -15 -2 -18z"/>
</g>
</svg>
