<?xml version="1.0" standalone="no"?>
<!DOCTYPE svg PUBLIC "-//W3C//DTD SVG 20010904//EN"
 "http://www.w3.org/TR/2001/REC-SVG-20010904/DTD/svg10.dtd">
<svg version="1.0" xmlns="http://www.w3.org/2000/svg"
 width="2551.000000pt" height="2701.000000pt" viewBox="0 0 2551.000000 2701.000000"
 preserveAspectRatio="xMidYMid meet">

<g transform="translate(0.000000,2701.000000) scale(0.100000,-0.100000)"
fill="#C5C3C1" stroke="none">
<path d="M7082 14492 l-53 -47 -2 -835 -2 -835 -32 -3 c-44 -4 -87 -55 -78
-91 12 -46 35 -64 77 -57 l38 6 0 -47 c0 -39 -7 -58 -34 -96 -64 -91 -80 -141
-80 -252 0 -113 19 -173 80 -256 42 -58 49 -122 12 -119 -47 4 -59 -1 -78 -32
-36 -58 -2 -118 66 -118 l34 0 0 -875 0 -875 -29 0 c-16 0 -39 -10 -54 -24
-48 -45 -45 -97 8 -132 23 -15 27 -15 50 0 l25 16 0 -52 c0 -44 -6 -61 -34
-101 -111 -157 -114 -352 -6 -497 33 -44 40 -62 38 -90 -3 -30 -6 -35 -25 -32
-33 5 -63 -16 -79 -53 -24 -59 8 -105 75 -105 l31 0 -2 -1447 -3 -1448 -32
-14 c-42 -18 -48 -38 -26 -79 18 -33 18 -33 -6 -51 -18 -14 -26 -32 -31 -70
-3 -28 -4 -54 -1 -59 9 -13 290 -7 303 6 6 6 13 36 16 67 4 46 2 55 -12 55 -9
0 -22 11 -28 26 -10 21 -8 30 6 56 15 25 16 32 5 39 -8 5 -19 9 -26 9 -6 0
-19 7 -27 16 -14 14 -16 160 -16 1455 l0 1439 28 0 c47 1 82 42 82 99 0 52
-56 87 -91 55 -19 -17 -19 -16 -19 35 0 40 6 60 25 85 40 52 76 142 86 214 14
97 -9 192 -67 279 -35 53 -44 74 -44 110 0 38 2 43 18 35 39 -21 92 27 92 83
0 43 -32 75 -75 75 l-35 0 0 875 0 875 30 0 c71 0 108 96 54 139 -20 16 -31
18 -50 10 -14 -5 -27 -9 -30 -9 -2 0 -4 22 -4 49 0 38 6 56 25 79 59 70 99
209 88 302 -11 85 -58 197 -98 230 -10 8 -15 31 -15 66 l0 53 33 -6 c28 -4 37
-1 55 22 44 56 16 125 -52 125 l-36 0 0 885 c0 487 -3 885 -7 885 -5 0 -32
-22 -61 -48z m93 -1785 c-20 -11 -29 -3 -21 19 5 13 9 14 22 3 14 -11 14 -13
-1 -22z m-150 13 c-3 -5 -13 -10 -21 -10 -8 0 -14 5 -14 10 0 6 9 10 21 10 11
0 17 -4 14 -10z m119 -287 c68 -105 75 -252 16 -368 -31 -61 -35 -65 -67 -65
-29 0 -37 6 -63 47 -40 62 -53 112 -52 198 0 73 17 134 53 191 17 28 27 34 55
34 28 0 38 -6 58 -37z m-116 -665 c-3 -7 -13 -15 -24 -17 -16 -3 -17 -1 -5 13
16 19 34 21 29 4z m162 -13 c0 -3 -9 -5 -20 -5 -11 0 -20 7 -20 15 0 13 4 14
20 5 11 -6 20 -13 20 -15z m-20 -1854 c0 -6 -4 -13 -10 -16 -5 -3 -10 1 -10 9
0 9 5 16 10 16 6 0 10 -4 10 -9z m-11 -324 c46 -92 54 -202 22 -289 -31 -81
-56 -110 -94 -106 -25 3 -35 12 -63 62 -59 108 -64 238 -12 341 31 60 38 66
77 63 34 -3 38 -8 70 -71z m-129 -622 c0 -8 -7 -15 -16 -15 -14 0 -14 3 -4 15
7 8 14 15 16 15 2 0 4 -7 4 -15z m150 -11 c0 -2 -7 -4 -15 -4 -8 0 -15 4 -15
10 0 5 7 7 15 4 8 -4 15 -8 15 -10z"/>
</g>
</svg>
