<?xml version="1.0" standalone="no"?>
<!DOCTYPE svg PUBLIC "-//W3C//DTD SVG 20010904//EN"
 "http://www.w3.org/TR/2001/REC-SVG-20010904/DTD/svg10.dtd">
<svg version="1.0" xmlns="http://www.w3.org/2000/svg"
 width="2551.000000pt" height="2701.000000pt" viewBox="0 0 2551.000000 2701.000000"
 preserveAspectRatio="xMidYMid meet">

<g transform="translate(0.000000,2701.000000) scale(0.100000,-0.100000)"
fill="#C5C3C1" stroke="none">
<path d="M10608 17394 l-57 -48 0 -640 c0 -353 -1 -730 -1 -838 l0 -198 -34 0
c-69 0 -97 -83 -46 -135 17 -16 24 -18 49 -8 l29 11 4 -51 c3 -43 -1 -57 -26
-91 -109 -151 -114 -365 -11 -500 30 -40 35 -54 35 -102 0 -50 -1 -54 -16 -40
-18 19 -17 19 -47 5 -72 -33 -55 -138 23 -142 l35 -2 5 -75 c3 -41 4 -436 2
-877 -2 -787 -3 -803 -22 -803 -33 0 -68 -22 -80 -50 -24 -59 25 -125 75 -102
25 12 25 11 25 -44 0 -43 -5 -62 -25 -88 -109 -144 -113 -349 -9 -498 32 -47
44 -73 44 -100 0 -37 -13 -57 -25 -38 -10 16 -51 12 -68 -8 -48 -53 -19 -128
51 -134 l37 -3 3 -950 c2 -960 1 -994 -32 -995 -6 0 -20 -7 -30 -15 -19 -14
-19 -15 0 -51 l19 -36 -27 -22 c-24 -19 -28 -29 -28 -74 l0 -52 150 0 150 0 0
55 c0 44 -4 56 -20 65 -24 13 -27 62 -5 80 23 19 18 30 -19 45 -18 8 -36 22
-40 30 -3 9 -6 446 -6 971 l0 954 33 0 c64 0 99 74 61 128 -17 24 -62 30 -82
10 -9 -9 -12 0 -12 41 0 43 5 59 30 89 41 52 67 116 80 197 18 111 -6 211 -71
297 -34 46 -39 59 -39 105 0 49 10 67 25 43 22 -36 85 20 85 76 0 39 -38 74
-81 74 l-29 0 0 875 0 875 30 0 c80 0 109 113 39 150 -16 9 -26 8 -45 -5 l-24
-15 0 51 c0 42 6 60 33 98 60 82 80 145 80 246 1 104 -22 176 -79 250 -29 39
-34 53 -34 100 0 51 10 69 25 45 21 -34 85 17 85 68 0 43 -30 72 -75 72 l-35
0 -2 886 -3 886 -57 -48z m-55 -1768 c7 -19 0 -25 -24 -19 -10 3 -19 12 -19
19 0 18 36 18 43 0z m162 4 c3 -6 -2 -13 -12 -17 -10 -4 -21 -11 -25 -17 -4
-6 -8 1 -8 17 0 20 5 27 19 27 11 0 23 -5 26 -10z m-25 -335 c32 -64 35 -77
35 -161 0 -84 -3 -96 -35 -160 -33 -65 -37 -69 -72 -72 -33 -3 -40 1 -62 35
-76 115 -77 274 -3 401 18 30 23 33 61 30 40 -3 42 -5 76 -73z m-134 -621 c-3
-9 -6 -18 -6 -20 0 -2 -9 -4 -20 -4 -25 0 -26 16 -2 29 25 15 35 13 28 -5z
m157 -9 c1 -6 -8 -11 -20 -13 -18 -3 -23 2 -23 17 0 16 4 19 21 13 11 -5 21
-12 22 -17z m-163 -1865 c0 -17 -3 -19 -19 -8 -21 13 -19 28 5 28 8 0 14 -9
14 -20z m160 10 c0 -5 -9 -14 -20 -20 -17 -9 -20 -8 -20 10 0 13 7 20 20 20
11 0 20 -4 20 -10z m-46 -282 c34 -45 66 -147 66 -209 0 -114 -63 -239 -120
-239 -23 0 -35 7 -50 33 -82 132 -81 303 1 419 29 40 70 38 103 -4z m46 -680
c0 -5 -9 -8 -20 -8 -13 0 -20 7 -20 20 0 18 2 19 20 8 11 -7 20 -16 20 -20z
m-150 12 c0 -15 -26 -23 -41 -14 -9 5 -7 10 7 15 27 11 34 10 34 -1z"/>
</g>
</svg>
