<?xml version="1.0" standalone="no"?>
<!DOCTYPE svg PUBLIC "-//W3C//DTD SVG 20010904//EN"
 "http://www.w3.org/TR/2001/REC-SVG-20010904/DTD/svg10.dtd">
<svg version="1.0" xmlns="http://www.w3.org/2000/svg"
 width="2551.000000pt" height="2701.000000pt" viewBox="0 0 2551.000000 2701.000000"
 preserveAspectRatio="xMidYMid meet">

<g transform="translate(0.000000,2701.000000) scale(0.100000,-0.100000)"
fill="#C5C3C1" stroke="none">
<path d="M11777 18357 l-47 -42 0 -837 0 -838 -29 0 c-43 0 -81 -35 -81 -74 0
-17 7 -42 16 -54 16 -23 58 -30 69 -12 15 24 25 6 25 -45 0 -47 -5 -61 -34
-100 -58 -75 -80 -146 -80 -250 1 -104 24 -177 80 -250 28 -38 34 -54 34 -95
0 -47 -11 -63 -25 -40 -11 18 -53 11 -69 -12 -39 -55 -3 -128 62 -128 l32 0
-2 -877 -3 -878 -26 0 c-14 -1 -38 -9 -53 -18 -50 -33 -25 -137 33 -137 11 0
23 5 26 10 15 24 25 6 25 -44 0 -44 -5 -60 -25 -84 -14 -17 -40 -61 -57 -99
-29 -61 -33 -78 -33 -158 0 -107 19 -169 75 -248 33 -45 40 -64 40 -101 0 -51
1 -50 -35 -34 -22 10 -29 8 -50 -12 -50 -47 -22 -129 45 -135 l35 -2 3 -1429
c1 -786 0 -1438 -2 -1449 -3 -12 -21 -29 -41 -38 -31 -15 -49 -47 -26 -47 14
0 23 -36 16 -59 -3 -10 -14 -21 -24 -24 -15 -4 -18 -14 -17 -58 l1 -54 153 -3
152 -3 0 55 c0 30 -4 58 -10 61 -5 3 -10 -1 -10 -10 0 -28 -19 -6 -26 31 -5
25 -2 40 9 52 15 16 14 19 -13 37 -16 11 -34 31 -40 45 -7 17 -9 492 -8 1460
l3 1434 34 2 c46 2 73 32 73 80 0 27 -6 43 -22 56 -25 20 -55 24 -65 8 -12
-19 -25 1 -25 38 0 26 10 51 35 86 57 81 78 148 79 251 1 107 -16 163 -74 249
-33 49 -40 67 -40 107 0 46 11 62 25 39 10 -16 51 -11 68 8 48 53 17 132 -53
136 l-35 2 -3 877 -2 877 29 0 c43 0 60 9 77 42 16 31 12 62 -14 91 -17 19
-57 23 -67 7 -12 -20 -25 2 -25 43 0 34 8 53 40 96 112 149 105 364 -17 514
-17 21 -23 41 -23 77 0 47 12 71 25 50 3 -5 16 -10 29 -10 57 0 83 94 36 131
-14 10 -40 19 -57 19 l-33 0 0 880 c0 484 -3 880 -7 880 -5 -1 -29 -20 -56
-43z m-49 -1775 c3 -21 2 -22 -20 -10 -13 7 -25 14 -27 15 -1 1 0 7 4 13 11
18 40 6 43 -18z m159 11 c2 -6 -5 -14 -17 -18 -26 -8 -33 -3 -24 19 7 19 35
18 41 -1z m-43 -290 c38 -58 56 -119 56 -192 0 -124 -47 -230 -108 -242 -29
-6 -36 -3 -58 27 -34 44 -64 143 -64 210 0 60 31 163 61 206 16 21 29 28 55
28 28 0 38 -6 58 -37z m-121 -684 c-10 -10 -43 -2 -43 10 0 3 10 11 23 16 16
8 23 7 25 -4 2 -7 0 -17 -5 -22z m167 10 c0 -11 -40 -18 -46 -8 -3 6 -3 17 0
25 5 12 9 12 26 2 11 -7 20 -16 20 -19z m-163 -1854 c3 -9 3 -18 1 -21 -9 -9
-38 8 -38 22 0 19 29 18 37 -1z m158 6 c6 -11 -33 -36 -42 -27 -3 3 -3 12 0
21 7 17 33 20 42 6z m-46 -287 c78 -99 81 -292 6 -406 -23 -35 -30 -39 -63
-36 -35 3 -39 7 -71 70 -46 90 -53 184 -21 278 31 91 53 120 95 120 24 0 39
-7 54 -26z m-109 -669 c0 -19 -24 -30 -41 -19 -9 5 -7 11 6 21 24 17 35 17 35
-2z m146 0 c18 -14 18 -14 -8 -15 -18 0 -28 5 -28 15 0 19 11 19 36 0z"/>
</g>
</svg>
