<?xml version="1.0" standalone="no"?>
<!DOCTYPE svg PUBLIC "-//W3C//DTD SVG 20010904//EN"
 "http://www.w3.org/TR/2001/REC-SVG-20010904/DTD/svg10.dtd">
<svg version="1.0" xmlns="http://www.w3.org/2000/svg"
 width="2551.000000pt" height="2701.000000pt" viewBox="0 0 2551.000000 2701.000000"
 preserveAspectRatio="xMidYMid meet">

<g transform="translate(0.000000,2701.000000) scale(0.100000,-0.100000)"
fill="#3a4548" stroke="none">
<path d="M4738 12566 l-58 -47 0 -1262 c-1 -694 -3 -1289 -6 -1322 -16 -180
-53 -406 -95 -568 -11 -44 -18 -90 -15 -102 9 -36 45 -74 79 -83 46 -12 47
-42 2 -76 l-35 -27 20 -26 c29 -37 26 -69 -8 -87 -16 -8 -41 -33 -57 -56 l-29
-41 30 -24 c16 -13 34 -24 40 -25 17 0 44 -35 44 -57 0 -11 -9 -32 -21 -47
l-21 -26 36 -15 c47 -20 46 -44 -1 -70 -50 -27 -77 -67 -77 -113 0 -20 14 -95
31 -167 85 -358 84 -331 81 -2425 l-3 -1834 -25 -13 c-13 -6 -32 -22 -41 -34
-16 -22 -16 -24 4 -51 13 -18 18 -32 11 -36 -31 -22 -54 -68 -54 -108 l0 -44
150 0 150 0 20 33 c23 38 28 117 7 117 -8 0 -22 9 -32 20 -18 20 -18 22 3 59
l22 38 -40 12 c-27 8 -42 19 -45 34 -3 12 -4 870 -2 1907 3 1669 5 1898 19
1995 26 178 48 293 74 399 13 54 24 111 24 125 0 42 -47 100 -81 101 -9 0 -23
7 -30 16 -12 14 -8 20 24 46 43 35 44 39 17 76 -22 30 -19 58 8 67 18 6 82 87
82 104 0 5 -17 19 -37 32 -21 12 -44 29 -50 37 -18 22 -16 63 3 90 18 27 19
26 -21 39 -45 14 -45 45 0 62 42 15 85 73 85 114 0 16 -11 72 -24 125 -25 100
-57 274 -77 422 -9 60 -14 480 -18 1424 l-6 1339 -57 -47z"/>
</g>
</svg>
