<?xml version="1.0" standalone="no"?>
<!DOCTYPE svg PUBLIC "-//W3C//DTD SVG 20010904//EN"
 "http://www.w3.org/TR/2001/REC-SVG-20010904/DTD/svg10.dtd">
<svg version="1.0" xmlns="http://www.w3.org/2000/svg"
 width="2551.000000pt" height="2701.000000pt" viewBox="0 0 2551.000000 2701.000000"
 preserveAspectRatio="xMidYMid meet">

<g transform="translate(0.000000,2701.000000) scale(0.100000,-0.100000)"
fill="#3a4548" stroke="none">
<path d="M17640 23182 l-55 -47 0 -1320 0 -1320 -23 -145 c-13 -80 -34 -194
-48 -255 -40 -170 -41 -205 -10 -242 14 -17 39 -33 56 -36 43 -9 41 -47 -4
-78 l-34 -23 19 -24 c27 -35 25 -76 -5 -95 -40 -27 -76 -64 -76 -78 1 -8 23
-31 50 -52 54 -42 64 -74 35 -113 -20 -27 -19 -31 15 -43 40 -13 43 -57 5 -67
-14 -3 -38 -22 -55 -40 -36 -42 -38 -76 -9 -189 27 -108 66 -346 78 -475 11
-112 15 -2796 5 -2846 -4 -22 -15 -33 -47 -47 -25 -10 -37 -21 -31 -25 6 -4
16 -17 22 -28 15 -29 -5 -84 -31 -84 -15 0 -18 -7 -15 -42 l3 -43 163 -3 162
-2 0 41 c0 32 -6 45 -25 61 -29 22 -32 54 -9 86 14 21 14 23 -21 39 -20 9 -38
26 -41 38 -3 11 -3 655 -1 1430 3 1246 5 1423 20 1524 22 153 43 264 73 394
14 59 23 118 20 131 -9 37 -45 75 -79 84 -24 6 -33 15 -35 33 -2 20 4 28 33
42 36 17 44 31 24 42 -5 4 -15 18 -20 32 -11 30 8 68 41 78 11 3 20 12 20 18
0 7 9 18 20 25 30 19 24 35 -25 71 -25 18 -49 41 -55 51 -11 20 0 63 19 75 20
11 12 25 -24 39 -50 21 -47 49 9 76 41 20 76 65 76 100 0 7 -14 70 -30 140
-35 149 -64 331 -81 515 -9 91 -14 509 -18 1387 l-6 1258 -55 -48z"/>
</g>
</svg>
