<?xml version="1.0" standalone="no"?>
<!DOCTYPE svg PUBLIC "-//W3C//DTD SVG 20010904//EN"
 "http://www.w3.org/TR/2001/REC-SVG-20010904/DTD/svg10.dtd">
<svg version="1.0" xmlns="http://www.w3.org/2000/svg"
 width="2551.000000pt" height="2701.000000pt" viewBox="0 0 2551.000000 2701.000000"
 preserveAspectRatio="xMidYMid meet">

<g transform="translate(0.000000,2701.000000) scale(0.100000,-0.100000)"
fill="#3a4548" stroke="none">
<path d="M18817 24153 l-57 -48 -1 -1280 c0 -1182 -2 -1291 -19 -1430 -16
-132 -63 -386 -88 -478 -17 -61 15 -121 72 -135 46 -12 47 -50 1 -81 l-35 -23
20 -26 c29 -36 26 -70 -7 -89 -16 -9 -41 -32 -57 -50 l-29 -34 26 -25 c14 -13
30 -24 35 -24 16 0 52 -46 52 -67 0 -11 -9 -32 -21 -47 l-21 -26 36 -15 c47
-20 48 -48 1 -70 -40 -20 -50 -30 -68 -76 -13 -31 -11 -49 24 -209 77 -353 73
-262 77 -1740 2 -1121 4 -2320 2 -2477 0 -39 -3 -44 -40 -63 -37 -19 -39 -22
-25 -36 25 -25 19 -70 -13 -93 -24 -17 -27 -25 -24 -55 l4 -36 164 0 164 0 0
34 c0 25 -8 43 -30 64 -33 33 -38 63 -15 82 22 18 19 24 -20 43 -21 10 -37 26
-41 41 -3 13 -4 867 -1 1897 4 1662 6 1888 21 1999 20 156 51 328 77 427 10
42 19 88 19 102 0 39 -35 89 -67 97 -62 15 -69 43 -18 76 38 25 43 39 20 58
-30 25 -18 64 35 110 28 24 50 51 50 61 0 10 -21 31 -50 50 -43 28 -50 37 -50
64 0 18 7 38 15 45 24 20 18 40 -14 46 -55 11 -51 49 8 77 50 23 76 70 68 123
-3 21 -17 89 -31 149 -34 146 -64 354 -74 507 -4 68 -7 688 -7 1376 0 689 -2
1252 -5 1252 -3 0 -31 -21 -63 -47z"/>
</g>
</svg>
