<?xml version="1.0" standalone="no"?>
<!DOCTYPE svg PUBLIC "-//W3C//DTD SVG 20010904//EN"
 "http://www.w3.org/TR/2001/REC-SVG-20010904/DTD/svg10.dtd">
<svg version="1.0" xmlns="http://www.w3.org/2000/svg"
 width="2551.000000pt" height="2701.000000pt" viewBox="0 0 2551.000000 2701.000000"
 preserveAspectRatio="xMidYMid meet">

<g transform="translate(0.000000,2701.000000) scale(0.100000,-0.100000)"
fill="#3a4548" stroke="none">
<path d="M22265 25768 c1 -673 -2 -1274 -7 -1336 -11 -153 -42 -358 -78 -516
-17 -71 -30 -142 -30 -157 0 -36 32 -74 80 -93 22 -9 40 -22 40 -30 0 -8 -18
-29 -41 -46 l-40 -33 20 -21 c21 -23 29 -76 11 -76 -12 0 -100 -87 -100 -99 0
-5 25 -25 55 -46 45 -29 55 -41 55 -64 0 -16 -9 -40 -20 -54 l-20 -25 28 -7
c15 -4 32 -11 38 -16 18 -14 5 -47 -20 -53 -36 -9 -77 -60 -83 -102 -3 -24 5
-77 20 -139 30 -121 62 -302 78 -445 11 -99 12 -419 9 -2385 -1 -258 -3 -478
-6 -488 -3 -9 -24 -27 -46 -38 -38 -20 -39 -21 -23 -39 26 -28 22 -67 -9 -91
-14 -11 -26 -29 -26 -40 0 -18 9 -19 175 -19 l175 0 0 29 c0 16 -6 31 -14 34
-8 3 -22 17 -31 31 -14 20 -14 29 -4 48 7 13 17 26 22 30 6 3 -8 15 -30 27
-22 11 -43 28 -47 37 -10 27 -6 2634 4 2778 13 167 43 371 76 511 47 203 43
228 -39 265 -53 24 -55 44 -7 79 l38 27 -19 25 c-19 24 -26 79 -11 79 15 0
102 83 102 97 0 7 -25 29 -55 48 -45 30 -55 41 -55 64 0 16 9 40 20 54 17 22
18 26 4 31 -9 3 -24 6 -35 6 -10 0 -19 3 -20 8 0 4 -2 15 -4 25 -2 11 5 21 19
27 42 15 85 60 92 94 4 22 -5 82 -25 169 -57 248 -97 594 -89 769 2 44 -2 72
-10 80 -9 9 -12 253 -12 1110 l0 1098 -53 0 -53 0 1 -1222z"/>
</g>
</svg>
