<?xml version="1.0" standalone="no"?>
<!DOCTYPE svg PUBLIC "-//W3C//DTD SVG 20010904//EN"
 "http://www.w3.org/TR/2001/REC-SVG-20010904/DTD/svg10.dtd">
<svg version="1.0" xmlns="http://www.w3.org/2000/svg"
 width="2551.000000pt" height="2701.000000pt" viewBox="0 0 2551.000000 2701.000000"
 preserveAspectRatio="xMidYMid meet">

<g transform="translate(0.000000,2701.000000) scale(0.100000,-0.100000)"
fill="#3a4548" stroke="none">
<path d="M5916 13533 l-57 -48 -2 -1310 c-3 -1148 -5 -1324 -20 -1420 -20
-137 -52 -306 -78 -407 -10 -42 -19 -88 -19 -101 0 -34 45 -85 83 -95 45 -12
46 -38 3 -73 l-35 -30 20 -34 c21 -36 18 -75 -5 -75 -14 0 -86 -82 -86 -97 0
-11 55 -53 69 -53 6 0 18 -11 27 -25 17 -26 12 -58 -14 -87 -14 -16 -12 -19
22 -33 41 -17 49 -49 15 -60 -37 -12 -88 -65 -95 -100 -4 -21 3 -69 19 -133
33 -130 75 -379 85 -512 5 -58 10 -718 11 -1467 1 -1230 0 -1363 -15 -1377 -8
-9 -22 -16 -30 -16 -8 0 -19 -11 -25 -24 -9 -19 -8 -29 5 -47 19 -28 21 -49 4
-49 -21 0 -48 -58 -48 -101 l0 -39 150 0 149 0 16 30 c23 44 20 107 -5 115
-35 11 -44 42 -21 72 12 14 21 29 21 33 0 4 -18 15 -40 24 -36 14 -40 19 -41
53 -7 208 4 2751 12 2833 18 186 47 356 85 504 31 118 16 171 -57 200 -45 18
-52 47 -15 64 32 14 42 48 22 71 -24 27 -19 57 13 80 29 21 71 79 71 99 0 5
-20 23 -45 39 -51 31 -64 61 -44 101 7 15 15 30 17 35 2 4 -10 12 -27 18 -23
8 -31 17 -31 35 0 14 6 24 15 24 25 0 84 60 94 95 7 26 3 60 -20 154 -16 66
-36 164 -45 218 -42 258 -42 278 -43 1642 -1 723 -3 1316 -5 1318 -2 2 -29
-18 -60 -44z"/>
</g>
</svg>
