<?xml version="1.0" standalone="no"?>
<!DOCTYPE svg PUBLIC "-//W3C//DTD SVG 20010904//EN"
 "http://www.w3.org/TR/2001/REC-SVG-20010904/DTD/svg10.dtd">
<svg version="1.0" xmlns="http://www.w3.org/2000/svg"
 width="2551.000000pt" height="2701.000000pt" viewBox="0 0 2551.000000 2701.000000"
 preserveAspectRatio="xMidYMid meet">

<g transform="translate(0.000000,2701.000000) scale(0.100000,-0.100000)"
fill="#3a4548" stroke="none">
<path d="M8263 15466 l-53 -42 -3 -1319 c-3 -1508 4 -1387 -101 -1853 -7 -35
-11 -73 -9 -85 8 -33 43 -66 77 -75 23 -6 32 -15 34 -35 3 -20 -3 -29 -27 -42
-34 -17 -38 -30 -16 -59 25 -33 17 -56 -35 -105 -27 -26 -50 -54 -49 -62 0 -7
22 -31 50 -52 52 -40 61 -67 34 -103 -22 -29 -18 -41 15 -53 46 -15 41 -51 -9
-72 -46 -20 -72 -55 -74 -101 0 -18 15 -105 35 -193 76 -331 73 -261 73 -1855
l0 -1425 -32 -15 c-37 -17 -46 -39 -27 -65 20 -27 17 -45 -11 -71 -20 -18 -25
-33 -25 -68 0 -45 0 -45 38 -48 20 -2 89 -1 152 2 l115 5 3 53 c3 47 0 57 -22
77 -30 27 -33 47 -11 65 24 20 18 38 -17 56 -18 9 -36 22 -40 28 -10 15 -9
2184 2 2581 9 345 23 475 80 728 17 73 30 146 30 163 0 40 -33 82 -73 92 -39
10 -52 56 -18 67 36 11 45 32 27 61 -22 33 -17 76 10 88 24 11 64 65 64 87 0
8 -21 29 -45 48 -50 37 -58 71 -28 117 14 22 14 27 2 35 -8 5 -22 9 -31 9 -13
0 -18 8 -18 30 0 21 5 30 16 30 26 0 70 37 84 70 15 36 11 76 -25 229 -14 63
-36 173 -48 245 -21 129 -21 155 -24 1504 -2 754 -7 1372 -11 1371 -4 0 -31
-19 -59 -43z"/>
</g>
</svg>
