<?xml version="1.0" standalone="no"?>
<!DOCTYPE svg PUBLIC "-//W3C//DTD SVG 20010904//EN"
 "http://www.w3.org/TR/2001/REC-SVG-20010904/DTD/svg10.dtd">
<svg version="1.0" xmlns="http://www.w3.org/2000/svg"
 width="2551.000000pt" height="2701.000000pt" viewBox="0 0 2551.000000 2701.000000"
 preserveAspectRatio="xMidYMid meet">

<g transform="translate(0.000000,2701.000000) scale(0.100000,-0.100000)"
fill="#3a4548" stroke="none">
<path d="M12957 19328 l-48 -43 1 -1238 c0 -777 -4 -1282 -10 -1355 -13 -142
-52 -379 -86 -524 -15 -63 -23 -117 -19 -130 11 -34 44 -66 81 -78 28 -10 34
-16 34 -41 0 -17 -5 -29 -13 -29 -7 0 -22 -6 -32 -14 -17 -12 -17 -14 -2 -37
30 -41 22 -73 -28 -113 -25 -21 -45 -45 -45 -55 0 -10 20 -36 45 -58 48 -43
57 -74 30 -109 -20 -27 -19 -31 15 -49 41 -21 42 -62 3 -71 -38 -9 -70 -40
-83 -79 -9 -27 -6 -54 15 -145 32 -138 50 -233 72 -375 15 -98 17 -262 20
-1543 l3 -1432 -33 -20 c-17 -11 -36 -22 -42 -23 -5 -2 -2 -13 8 -25 25 -27
19 -74 -10 -87 -19 -8 -23 -18 -23 -58 l0 -48 153 3 152 3 -3 42 c-1 29 -10
50 -27 67 -30 30 -31 36 -5 69 l21 26 -28 17 c-15 10 -34 24 -40 33 -17 19
-19 2661 -3 2841 15 161 35 289 76 476 34 153 35 162 20 198 -12 28 -26 42
-61 57 -36 16 -45 25 -45 44 0 14 6 25 13 25 7 0 22 6 33 14 18 14 18 16 2 44
-10 17 -18 39 -18 49 0 21 29 53 48 53 7 0 12 6 12 13 0 7 9 18 20 25 30 18
25 33 -30 81 -53 46 -61 72 -35 107 22 29 18 41 -15 53 -24 8 -30 16 -30 39 0
26 4 31 35 36 36 7 71 43 81 82 3 13 -8 83 -25 156 -38 162 -67 345 -81 498
-6 70 -10 618 -10 1393 0 702 -3 1277 -8 1277 -4 0 -29 -19 -55 -42z"/>
</g>
</svg>
