<?xml version="1.0" standalone="no"?>
<!DOCTYPE svg PUBLIC "-//W3C//DTD SVG 20010904//EN"
 "http://www.w3.org/TR/2001/REC-SVG-20010904/DTD/svg10.dtd">
<svg version="1.0" xmlns="http://www.w3.org/2000/svg"
 width="2551.000000pt" height="2701.000000pt" viewBox="0 0 2551.000000 2701.000000"
 preserveAspectRatio="xMidYMid meet">

<g transform="translate(0.000000,2701.000000) scale(0.100000,-0.100000)"
fill="#3a4548" stroke="none">
<path d="M14132 20297 l-52 -43 0 -1267 c0 -1084 -2 -1287 -16 -1409 -15 -137
-63 -406 -86 -477 -14 -45 -12 -104 4 -131 7 -12 32 -31 56 -41 53 -23 59 -60
12 -79 -35 -14 -35 -14 -14 -45 20 -31 15 -85 -10 -99 -29 -16 -65 -59 -66
-76 0 -16 20 -36 64 -65 20 -14 26 -26 26 -55 0 -21 -7 -43 -15 -50 -22 -18
-19 -27 15 -39 24 -8 30 -16 30 -39 0 -24 -5 -31 -27 -36 -71 -15 -98 -77 -76
-170 35 -146 65 -311 83 -454 19 -148 20 -218 19 -2025 0 -1059 -4 -1878 -9
-1888 -5 -9 -23 -22 -40 -29 -28 -12 -41 -30 -21 -30 5 0 14 -13 19 -29 8 -24
7 -32 -7 -45 -10 -9 -23 -16 -29 -16 -8 0 -12 -20 -12 -55 l0 -55 155 0 155 0
0 44 c0 36 -5 47 -25 60 -29 19 -33 60 -9 87 15 17 15 19 -10 30 -61 28 -57
-117 -55 1877 1 999 6 1869 11 1932 11 161 34 309 74 491 19 86 34 166 34 178
0 37 -27 78 -62 91 -18 7 -38 19 -44 27 -14 17 -7 53 10 53 7 0 21 6 31 14 18
13 18 16 4 33 -9 10 -19 26 -22 36 -7 18 11 67 24 67 15 0 69 55 69 70 0 9
-18 32 -41 51 -59 50 -64 63 -39 110 l20 41 -30 11 c-23 9 -30 18 -30 37 0 21
8 30 38 43 41 18 72 61 72 99 0 13 -13 83 -30 154 -37 162 -66 359 -78 529 -5
72 -8 691 -8 1378 1 686 0 1247 -4 1247 -3 -1 -29 -20 -58 -43z"/>
</g>
</svg>
