<?xml version="1.0" standalone="no"?>
<!DOCTYPE svg PUBLIC "-//W3C//DTD SVG 20010904//EN"
 "http://www.w3.org/TR/2001/REC-SVG-20010904/DTD/svg10.dtd">
<svg version="1.0" xmlns="http://www.w3.org/2000/svg"
 width="3542.000000pt" height="3750.000000pt" viewBox="0 0 3542.000000 3750.000000"
 preserveAspectRatio="xMidYMid meet">

<g transform="translate(0.000000,3750.000000) scale(0.100000,-0.100000)"
fill="#3a4548" stroke="none">
<path d="M14437 16803 c-3 -2025 0 -1901 -67 -2308 -17 -99 -30 -193 -30 -208
0 -50 27 -97 65 -112 31 -13 35 -20 35 -50 0 -26 -4 -35 -17 -35 -22 0 -83
-22 -83 -30 0 -4 11 -17 25 -30 47 -44 28 -109 -37 -125 -16 -4 -28 -11 -28
-16 0 -4 -12 -14 -27 -21 -41 -19 -43 -56 -4 -71 17 -6 31 -17 31 -24 0 -7 8
-13 19 -13 10 0 30 -9 45 -21 34 -27 34 -68 1 -107 l-25 -30 31 -16 c18 -9 40
-16 51 -16 14 0 18 -8 18 -34 0 -28 -6 -38 -35 -55 -39 -23 -65 -71 -65 -120
0 -17 13 -108 29 -203 70 -408 65 -251 68 -2291 3 -1227 0 -1853 -6 -1866 -6
-10 -33 -27 -61 -37 l-50 -18 25 -26 c14 -14 25 -34 25 -44 0 -22 -53 -76 -74
-76 -25 0 -23 -100 2 -101 19 -1 45 -5 117 -19 97 -19 121 -19 245 3 l125 22
1 43 c2 38 -1 44 -30 59 -60 31 -73 78 -32 117 l25 22 -51 20 c-27 10 -54 27
-59 36 -12 22 -11 3536 1 3688 12 157 27 284 50 431 48 301 46 277 25 317 -12
22 -34 43 -52 51 -28 12 -33 20 -33 48 0 21 5 33 14 33 7 0 30 7 51 16 l37 15
-24 27 c-33 36 -40 57 -27 86 11 24 47 46 74 46 8 0 15 6 15 14 0 8 14 19 30
25 45 15 36 71 -12 71 -10 0 -18 7 -18 15 0 9 -9 15 -21 15 -24 0 -79 51 -79
74 0 8 14 31 31 50 l30 35 -30 15 c-16 9 -39 16 -51 16 -17 0 -20 6 -20 38 0
32 5 39 33 52 23 11 37 28 51 63 20 47 20 50 2 150 -31 178 -55 357 -71 532
-13 144 -15 443 -15 1943 l0 1772 -95 0 -94 0 -4 -1837z"/>
</g>
</svg>
