<?xml version="1.0" standalone="no"?>
<!DOCTYPE svg PUBLIC "-//W3C//DTD SVG 20010904//EN"
 "http://www.w3.org/TR/2001/REC-SVG-20010904/DTD/svg10.dtd">
<svg version="1.0" xmlns="http://www.w3.org/2000/svg"
 width="3542.000000pt" height="3750.000000pt" viewBox="0 0 3542.000000 3750.000000"
 preserveAspectRatio="xMidYMid meet">

<g transform="translate(0.000000,3750.000000) scale(0.100000,-0.100000)"
fill="#3a4548" stroke="none">
<path d="M2159 16363 c0 -1160 -2 -2126 -4 -2148 -3 -22 -12 -112 -20 -200
-19 -186 -41 -330 -84 -543 -36 -177 -38 -215 -13 -261 19 -35 72 -71 104 -71
14 0 18 -8 18 -39 0 -37 -1 -39 -47 -51 -73 -20 -79 -28 -45 -64 37 -39 46
-67 31 -98 -12 -27 -57 -58 -84 -58 -9 0 -19 -9 -22 -20 -3 -12 -14 -20 -27
-20 -26 0 -46 -18 -46 -40 0 -21 31 -50 53 -50 9 0 17 -6 17 -14 0 -7 20 -21
45 -30 82 -32 96 -83 40 -145 -20 -22 -32 -41 -28 -44 4 -2 31 -12 59 -21 39
-13 53 -22 56 -40 7 -36 -4 -54 -51 -79 -31 -16 -52 -37 -69 -68 -29 -54 -27
-94 18 -299 37 -171 74 -421 90 -610 9 -98 12 -694 12 -2185 -1 -1127 -1
-2076 -1 -2107 -1 -68 -11 -79 -92 -109 l-60 -22 29 -19 c59 -37 47 -108 -23
-139 -39 -18 -40 -19 -41 -73 l-2 -55 52 -15 c184 -53 162 -52 363 -17 100 17
184 31 187 31 3 0 6 25 6 55 0 52 -1 55 -32 68 -34 15 -61 40 -71 68 -8 23 22
77 46 85 16 5 6 12 -51 36 -39 17 -73 37 -77 46 -7 19 -7 4194 1 4288 20 263
53 494 105 749 37 179 35 223 -13 272 -18 18 -46 36 -65 39 -33 6 -34 8 -31
47 3 37 6 42 33 48 17 4 43 12 59 18 l29 12 -31 32 c-34 35 -44 70 -30 103 11
23 58 54 83 54 9 0 19 8 22 18 2 10 19 22 36 28 27 7 32 14 32 39 0 25 -5 32
-32 40 -20 5 -33 16 -33 26 0 11 -11 19 -34 23 -33 6 -86 54 -86 77 0 17 27
63 49 83 28 26 27 33 -9 41 -16 4 -32 11 -35 16 -4 5 -17 9 -31 9 -23 0 -25 3
-22 42 2 34 7 44 23 46 33 6 81 49 100 88 17 36 17 114 1 179 -27 110 -66 326
-86 470 -39 291 -40 339 -40 2498 l0 2087 -115 0 -115 0 -1 -2107z"/>
</g>
</svg>
