<?xml version="1.0" standalone="no"?>
<!DOCTYPE svg PUBLIC "-//W3C//DTD SVG 20010904//EN"
 "http://www.w3.org/TR/2001/REC-SVG-20010904/DTD/svg10.dtd">
<svg version="1.0" xmlns="http://www.w3.org/2000/svg"
 width="3542.000000pt" height="3750.000000pt" viewBox="0 0 3542.000000 3750.000000"
 preserveAspectRatio="xMidYMid meet">

<g transform="translate(0.000000,3750.000000) scale(0.100000,-0.100000)"
fill="#3a4548" stroke="none">
<path d="M26450 17102 c-1 -889 -3 -1644 -6 -1677 -19 -239 -52 -493 -80 -610
-29 -126 -9 -211 56 -234 24 -8 30 -16 30 -40 0 -27 -5 -31 -51 -46 l-51 -17
25 -27 c39 -41 42 -67 13 -96 -14 -14 -34 -25 -46 -25 -11 0 -20 -4 -20 -10 0
-5 -14 -17 -31 -25 -35 -19 -35 -44 0 -61 13 -7 26 -16 30 -21 3 -5 21 -15 39
-22 18 -8 37 -22 42 -31 13 -24 -6 -77 -31 -91 -27 -14 -17 -24 36 -39 43 -12
46 -15 43 -44 -2 -23 -9 -32 -25 -34 -12 -2 -34 -17 -48 -33 -32 -39 -32 -69
0 -250 32 -185 52 -341 65 -514 11 -154 14 -3089 4 -3268 l-7 -106 -50 -20
-50 -21 21 -21 c39 -35 24 -89 -28 -108 -29 -10 -31 -13 -28 -53 l3 -42 130
-18 c132 -19 178 -17 298 13 35 9 37 12 37 50 0 34 -4 41 -27 50 -53 20 -69
73 -33 109 19 19 19 19 -25 39 l-45 20 0 70 c0 41 -4 71 -10 71 -14 0 -14
3047 0 3230 14 177 35 340 69 525 21 113 25 159 18 185 -10 40 -42 78 -74 91
-17 6 -23 17 -23 37 0 25 6 31 43 42 58 19 62 22 45 34 -8 6 -22 23 -32 37
-22 35 -6 72 38 90 17 7 34 17 37 22 4 5 17 14 30 21 36 18 36 45 0 59 -17 6
-31 17 -31 24 0 7 -9 13 -20 13 -24 0 -70 42 -70 64 0 9 14 31 30 50 l31 34
-51 17 c-44 15 -50 20 -50 45 0 24 6 30 35 40 42 14 68 56 67 110 0 21 -12 95
-26 166 -14 71 -35 210 -48 309 -22 179 -22 190 -28 1865 l-5 1685 -82 2 -83
2 0 -1617z"/>
</g>
</svg>
