<?xml version="1.0" standalone="no"?>
<!DOCTYPE svg PUBLIC "-//W3C//DTD SVG 20010904//EN"
 "http://www.w3.org/TR/2001/REC-SVG-20010904/DTD/svg10.dtd">
<svg version="1.0" xmlns="http://www.w3.org/2000/svg"
 width="3542.000000pt" height="3750.000000pt" viewBox="0 0 3542.000000 3750.000000"
 preserveAspectRatio="xMidYMid meet">

<g transform="translate(0.000000,3750.000000) scale(0.100000,-0.100000)"
fill="#3a4548" stroke="none">
<path d="M32010 16913 c0 -1089 -4 -1783 -10 -1858 -17 -202 -40 -362 -76
-543 -19 -95 -34 -186 -34 -201 0 -40 39 -93 83 -115 33 -16 38 -22 35 -49 -3
-26 -9 -32 -50 -44 -27 -7 -48 -16 -48 -19 0 -4 11 -19 25 -36 14 -16 25 -40
25 -54 0 -29 -30 -61 -65 -70 -14 -3 -25 -10 -25 -15 0 -4 -12 -14 -27 -21
-40 -19 -42 -53 -4 -73 17 -8 31 -20 31 -25 0 -6 8 -10 19 -10 10 0 30 -9 45
-21 34 -27 35 -71 1 -105 -14 -14 -25 -27 -25 -29 0 -9 60 -35 80 -35 16 0 20
-6 20 -34 0 -29 -4 -34 -30 -40 -39 -7 -78 -49 -86 -91 -3 -20 6 -96 25 -192
33 -174 43 -236 68 -423 15 -112 17 -312 20 -1880 3 -965 1 -1792 -2 -1837 -5
-61 -11 -83 -21 -83 -10 0 -68 -22 -92 -36 -2 -1 8 -13 22 -27 14 -15 26 -33
26 -42 0 -21 -54 -75 -74 -75 -12 0 -16 -11 -16 -48 l0 -48 155 -23 155 -23
95 23 95 23 0 48 c0 28 -5 48 -11 48 -6 0 -24 9 -40 21 -35 25 -39 69 -9 99
11 11 20 22 20 24 0 2 -20 11 -44 20 -35 14 -46 23 -51 46 -4 16 -4 34 0 40 3
5 -1 10 -9 10 -14 0 -15 186 -11 1723 3 947 7 1767 11 1822 11 195 40 390 104
702 15 72 -17 144 -76 169 -29 12 -34 19 -34 49 0 23 5 35 14 35 7 0 30 7 50
15 l37 16 -30 35 c-48 54 -38 91 29 118 22 9 40 19 40 23 0 5 14 16 30 25 38
22 38 47 0 61 -16 6 -30 17 -30 24 0 7 -9 13 -20 13 -11 0 -34 13 -51 28 -27
24 -31 33 -25 56 4 15 19 39 33 52 l26 24 -36 15 c-20 8 -44 15 -52 15 -12 0
-15 8 -13 36 3 32 8 38 38 48 27 8 40 22 58 57 l23 47 -30 148 c-39 196 -58
319 -76 500 -13 126 -15 420 -15 1927 l0 1777 -95 0 -95 0 0 -1737z"/>
</g>
</svg>
