<?xml version="1.0" standalone="no"?>
<!DOCTYPE svg PUBLIC "-//W3C//DTD SVG 20010904//EN"
 "http://www.w3.org/TR/2001/REC-SVG-20010904/DTD/svg10.dtd">
<svg version="1.0" xmlns="http://www.w3.org/2000/svg"
 width="3542.000000pt" height="3750.000000pt" viewBox="0 0 3542.000000 3750.000000"
 preserveAspectRatio="xMidYMid meet">

<g transform="translate(0.000000,3750.000000) scale(0.100000,-0.100000)"
fill="#3a4548" stroke="none">
<path d="M11240 18592 l-55 -3 0 -1081 0 -1080 -85 -43 c-153 -77 -267 -179
-370 -330 -225 -331 -295 -783 -181 -1175 10 -36 56 -157 101 -270 45 -113 91
-227 102 -255 10 -27 25 -63 33 -80 7 -16 47 -115 89 -220 41 -104 102 -255
136 -335 33 -80 60 -148 60 -153 0 -4 -10 -1 -22 7 -13 8 -60 21 -106 30 -76
15 -89 16 -136 2 -108 -32 -196 -149 -204 -271 -4 -53 -1 -68 22 -103 36 -58
60 -70 141 -72 102 -3 101 -3 144 35 46 41 64 80 59 126 -3 33 -5 34 -57 42
-59 8 -71 1 -71 -42 0 -29 -38 -98 -58 -106 -23 -8 -40 12 -50 62 -17 77 22
171 100 237 64 55 98 51 164 -19 71 -75 187 -255 183 -282 -5 -29 5 -56 30
-83 31 -35 126 -265 160 -390 81 -293 62 -651 -48 -948 -73 -196 -141 -302
-235 -367 -50 -34 -68 -41 -129 -46 -40 -4 -79 -9 -87 -13 -26 -11 -107 52
-154 118 -73 103 -108 247 -86 353 23 111 84 198 164 234 70 31 120 -12 119
-102 -1 -60 -23 -95 -74 -121 -19 -10 -34 -26 -34 -35 0 -14 12 -17 66 -20 55
-3 70 0 92 18 85 66 90 241 7 284 -34 18 -152 45 -193 45 -48 0 -127 -42 -171
-90 -72 -79 -114 -211 -101 -314 26 -204 136 -362 283 -407 23 -7 42 -15 42
-18 0 -3 -20 -15 -43 -25 -64 -29 -176 -148 -220 -233 -55 -106 -78 -204 -84
-363 -9 -219 35 -391 139 -546 111 -166 260 -246 500 -270 l68 -7 0 -691 c-1
-527 -4 -695 -13 -707 -7 -8 -38 -26 -70 -39 -47 -20 -54 -26 -40 -33 27 -14
43 -38 43 -63 0 -24 -52 -74 -76 -74 -10 0 -14 -14 -14 -53 l0 -54 75 -16
c134 -30 172 -31 318 -7 l137 23 0 53 c0 49 -2 54 -25 60 -27 7 -65 48 -65 71
0 8 13 27 29 43 l28 29 -63 27 -64 27 0 733 0 732 30 10 c100 35 278 187 381
325 246 330 340 805 238 1204 -19 78 -95 272 -373 957 -80 198 -146 361 -146
362 0 2 15 -3 34 -11 21 -9 74 -15 129 -17 86 -1 99 1 140 25 56 33 93 76 125
146 21 45 24 64 20 123 -8 109 -42 134 -204 155 -36 4 -46 1 -78 -28 -39 -34
-63 -79 -66 -126 -4 -52 -3 -53 53 -53 l53 0 12 44 c15 56 52 102 76 93 9 -4
24 -23 32 -42 36 -87 -39 -231 -145 -278 -38 -16 -47 -17 -68 -6 -66 35 -263
339 -229 352 11 4 12 14 6 40 -10 44 -17 57 -42 66 -36 13 -144 307 -174 471
-21 115 -24 399 -6 510 42 252 139 499 240 611 63 70 112 96 198 102 65 5 75
3 121 -23 99 -57 174 -181 195 -326 10 -71 9 -90 -6 -148 -57 -208 -261 -279
-261 -91 0 62 23 101 73 125 42 20 40 37 -5 43 -21 3 -47 8 -58 11 -30 10 -86
-31 -112 -84 -46 -89 -18 -205 57 -242 26 -14 59 -18 130 -18 111 0 154 16
212 76 190 199 83 620 -181 713 l-52 18 48 20 c150 63 269 240 302 450 6 39
11 118 11 175 -2 455 -279 797 -647 798 l-63 0 0 1070 0 1071 -47 -3 c-27 -2
-73 -4 -103 -6z m296 -2204 c138 -45 268 -167 345 -323 66 -135 83 -214 83
-405 0 -129 -4 -179 -18 -230 -40 -143 -109 -247 -208 -311 -55 -35 -68 -39
-125 -39 -75 0 -106 14 -156 69 -75 83 -114 199 -104 308 10 104 64 202 131
238 34 19 35 19 57 0 53 -48 63 -134 24 -211 -36 -71 -34 -74 34 -74 l59 0 26
52 c34 68 35 146 4 208 -33 63 -62 80 -156 92 -97 12 -125 4 -190 -56 -192
-177 -130 -550 110 -661 l48 -22 -65 -32 c-122 -60 -221 -205 -304 -444 -41
-118 -78 -316 -87 -460 l-6 -118 -36 88 c-19 48 -95 235 -168 414 -154 379
-177 449 -198 591 -71 474 121 985 457 1215 90 62 116 76 208 107 91 31 149
32 235 4z m189 -4423 c91 -226 177 -453 190 -505 35 -138 48 -294 35 -437 -32
-354 -170 -651 -403 -869 -203 -190 -454 -269 -607 -190 -78 41 -197 164 -242
251 -70 137 -98 259 -98 424 0 219 53 378 166 501 81 86 125 110 214 113 64 3
77 0 114 -23 89 -57 152 -198 144 -320 -9 -120 -94 -256 -173 -276 -71 -18
-97 145 -38 233 27 39 20 53 -25 53 -13 0 -32 5 -42 10 -16 9 -23 4 -45 -28
-60 -91 -52 -228 19 -289 29 -26 43 -31 117 -36 72 -6 89 -4 126 14 56 27 108
87 147 168 28 60 31 75 31 161 -1 75 -5 107 -24 153 -42 106 -129 195 -214
218 -70 19 -74 22 -36 29 49 9 116 50 168 102 152 151 264 462 292 810 7 82
14 147 15 145 2 -2 78 -187 169 -412z"/>
</g>
</svg>
