<?xml version="1.0" standalone="no"?>
<!DOCTYPE svg PUBLIC "-//W3C//DTD SVG 20010904//EN"
 "http://www.w3.org/TR/2001/REC-SVG-20010904/DTD/svg10.dtd">
<svg version="1.0" xmlns="http://www.w3.org/2000/svg"
 width="2644.000000pt" height="2800.000000pt" viewBox="0 0 2644.000000 2800.000000"
 preserveAspectRatio="xMidYMid meet">

<g transform="translate(0.000000,2800.000000) scale(0.100000,-0.100000)"
fill="#3a4548" stroke="none">
<path d="M9900 15871 c0 -1335 -1 -1371 -19 -1402 -15 -25 -17 -36 -8 -50 8
-13 8 -24 -1 -44 -9 -20 -9 -30 0 -45 7 -11 16 -20 20 -20 16 0 7 -63 -12 -87
-11 -14 -20 -40 -20 -59 0 -19 -9 -44 -24 -61 -52 -63 -59 -105 -25 -160 21
-33 21 -35 4 -73 -21 -47 -15 -69 37 -138 51 -66 62 -128 29 -163 -25 -27 -25
-28 -7 -52 11 -14 11 -24 3 -47 -9 -24 -8 -32 6 -48 16 -17 17 -71 15 -728
l-3 -708 -38 -22 c-33 -18 -36 -23 -22 -34 24 -20 18 -47 -15 -72 -21 -15 -30
-30 -30 -50 0 -28 0 -28 65 -28 37 0 65 -4 65 -10 0 -13 103 -13 116 -1 5 5
27 11 49 13 37 3 40 5 43 36 3 26 -1 34 -22 41 -13 6 -27 18 -30 29 -7 22 2
52 15 52 5 0 9 4 9 8 0 10 -67 32 -101 33 l-24 0 23 11 22 11 0 699 c0 678 1
701 19 725 17 20 18 29 9 49 -9 20 -9 30 1 46 11 18 10 25 -9 50 -29 39 -22
95 17 144 67 85 75 111 49 163 -13 25 -13 30 5 57 30 45 25 102 -13 154 -19
26 -33 57 -34 76 0 17 -10 44 -22 59 -21 26 -31 85 -14 85 4 0 13 9 20 20 9
15 9 25 0 45 -9 21 -9 31 1 47 11 18 10 25 -8 49 l-21 28 0 1368 0 1368 -60 3
-60 3 0 -1370z m94 -1775 c-24 -32 -39 -33 -60 -1 -16 25 -16 27 7 51 l23 25
24 -25 c24 -24 24 -24 6 -50z m-95 -47 l23 -31 -28 -29 c-15 -16 -31 -29 -36
-29 -12 0 -10 78 2 101 6 10 12 19 13 19 2 0 14 -14 26 -31z m177 -36 c9 -49
-7 -59 -40 -24 l-28 29 18 32 c17 28 20 29 31 14 7 -10 16 -33 19 -51z m-71
-73 l29 -30 -34 -35 -33 -34 -33 27 c-18 15 -33 31 -33 36 -1 14 50 66 64 66
6 0 24 -14 40 -30z m-106 -116 c14 -16 20 -32 16 -45 -10 -29 -32 -23 -44 12
-22 63 -10 77 28 33z m151 -35 c-14 -33 -25 -36 -39 -11 -8 13 -4 23 17 45 22
23 28 25 30 12 2 -9 -2 -30 -8 -46z m-72 -77 c2 -14 -2 -22 -12 -22 -19 0 -28
14 -20 35 9 21 28 14 32 -13z"/>
</g>
</svg>
