<?xml version="1.0" standalone="no"?>
<!DOCTYPE svg PUBLIC "-//W3C//DTD SVG 20010904//EN"
 "http://www.w3.org/TR/2001/REC-SVG-20010904/DTD/svg10.dtd">
<svg version="1.0" xmlns="http://www.w3.org/2000/svg"
 width="2644.000000pt" height="2800.000000pt" viewBox="0 0 2644.000000 2800.000000"
 preserveAspectRatio="xMidYMid meet">

<g transform="translate(0.000000,2800.000000) scale(0.100000,-0.100000)"
fill="#3a4548" stroke="none">
<path d="M3758 14177 l-38 -49 0 -1659 c0 -912 -4 -1659 -8 -1659 -5 0 -14
-11 -21 -24 -11 -19 -10 -28 3 -53 13 -27 13 -32 -1 -52 -12 -18 -13 -28 -4
-47 6 -14 18 -27 26 -30 24 -9 18 -66 -10 -104 -26 -35 -32 -64 -16 -75 5 -3
20 9 32 27 13 18 25 26 27 19 2 -7 -27 -43 -64 -81 -74 -76 -93 -103 -94 -137
0 -24 40 -113 50 -113 4 0 14 8 24 19 13 14 14 24 6 46 -11 29 0 87 22 118 12
16 15 14 41 -18 20 -25 26 -40 19 -48 -5 -7 -12 -24 -16 -39 -3 -15 -25 -42
-47 -60 -47 -38 -89 -104 -89 -140 0 -16 20 -51 53 -92 41 -52 56 -80 67 -128
8 -37 10 -66 4 -73 -48 -65 -48 -65 -31 -94 14 -25 15 -30 2 -47 -20 -26 -18
-46 4 -70 18 -20 19 -80 24 -1959 3 -1222 2 -1946 -4 -1957 -5 -10 -28 -27
-49 -38 -45 -23 -46 -26 -24 -51 23 -25 10 -66 -26 -87 -25 -14 -30 -24 -30
-53 0 -43 3 -44 156 -55 85 -5 109 -3 174 15 41 12 83 25 93 27 12 4 17 16 17
44 0 34 -3 39 -29 45 -15 3 -34 17 -41 30 -13 25 -12 31 17 86 2 3 -14 11 -37
18 -22 6 -45 21 -51 32 -8 16 -9 545 -4 1957 8 1868 8 1937 26 1956 23 24 24
44 4 70 -13 17 -12 22 2 47 15 25 15 29 -1 53 -9 14 -21 26 -26 26 -14 0 -12
58 3 100 6 19 31 59 54 88 59 74 71 117 48 179 -17 48 -17 49 8 102 24 50 25
56 11 95 -8 22 -29 58 -46 80 -17 21 -35 56 -40 79 -5 22 -18 52 -28 68 -27
37 -25 79 5 108 29 27 31 47 9 72 -15 16 -14 20 2 48 18 30 18 31 -4 61 l-22
30 -1 1694 0 1694 -46 4 c-45 3 -47 2 -85 -45z m80 -3756 c27 -23 27 -38 2
-71 l-19 -25 -33 32 -32 32 24 26 c28 30 29 30 58 6z m90 -105 c16 -36 25 -93
17 -107 -5 -8 -18 1 -40 27 -32 38 -32 39 -16 71 19 39 24 40 39 9z m-61 -138
c18 -18 33 -37 33 -43 0 -6 -18 -29 -40 -50 l-40 -39 -42 39 c-24 22 -45 41
-47 43 -7 4 82 81 94 82 5 0 24 -14 42 -32z m-143 -140 c41 -36 43 -44 16 -78
-20 -25 -20 -25 -35 -5 -27 35 -41 115 -20 115 2 0 19 -14 39 -32z m216 8 c0
-8 6 -17 13 -19 8 -4 6 -11 -9 -24 -12 -10 -27 -29 -34 -42 l-13 -25 -14 27
c-13 25 -12 30 14 62 30 37 43 44 43 21z m-104 -142 c4 -17 1 -31 -10 -42 -15
-15 -17 -15 -33 0 -14 14 -15 22 -5 43 15 32 40 32 48 -1z"/>
</g>
</svg>
