<?xml version="1.0" standalone="no"?>
<!DOCTYPE svg PUBLIC "-//W3C//DTD SVG 20010904//EN"
 "http://www.w3.org/TR/2001/REC-SVG-20010904/DTD/svg10.dtd">
<svg version="1.0" xmlns="http://www.w3.org/2000/svg"
 width="2644.000000pt" height="2800.000000pt" viewBox="0 0 2644.000000 2800.000000"
 preserveAspectRatio="xMidYMid meet">

<g transform="translate(0.000000,2800.000000) scale(0.100000,-0.100000)"
fill="#3a4548" stroke="none">
<path d="M5122 16045 l-32 -46 0 -1590 c0 -1576 0 -1590 -20 -1611 -23 -25
-26 -48 -8 -66 9 -9 9 -20 0 -46 -10 -28 -10 -39 0 -55 7 -12 16 -21 20 -21
16 0 7 -76 -12 -105 -11 -16 -20 -41 -20 -55 1 -24 2 -24 31 13 29 34 49 47
49 30 0 -5 -36 -45 -80 -90 -93 -97 -104 -126 -70 -194 29 -57 28 -56 45 -33
10 12 13 31 9 55 -5 34 20 119 35 119 11 0 51 -69 51 -90 0 -11 -26 -44 -60
-76 -66 -63 -95 -113 -86 -150 4 -13 26 -48 50 -78 25 -29 49 -71 55 -92 13
-45 15 -114 3 -114 -4 0 -13 -9 -20 -21 -10 -16 -10 -27 0 -55 9 -26 9 -37 0
-46 -18 -18 -15 -43 8 -63 20 -18 20 -31 20 -1881 l0 -1863 -27 -20 c-14 -12
-37 -24 -50 -27 -29 -8 -29 -11 -1 -34 19 -15 21 -22 13 -46 -6 -16 -23 -35
-38 -42 -22 -11 -27 -20 -27 -51 l0 -38 126 -7 c100 -5 143 -3 204 10 l78 17
4 39 c3 36 1 41 -28 53 -40 16 -48 47 -22 80 l20 25 -45 19 c-34 15 -46 26
-50 48 -3 15 -6 853 -6 1862 l0 1835 25 29 c23 27 23 30 8 56 -15 26 -15 30 0
54 16 24 16 27 1 51 -10 14 -21 26 -26 26 -13 0 -11 59 4 101 7 20 30 56 50
78 59 66 72 123 41 182 -13 26 -13 33 -1 52 45 70 39 128 -18 197 -19 23 -35
52 -35 64 0 13 -11 44 -25 70 -30 57 -32 89 -5 116 22 22 26 60 8 78 -10 10
-8 19 5 41 17 29 16 30 -8 59 l-25 29 1 1629 0 1629 -43 3 c-41 3 -45 1 -76
-43z m78 -3620 l24 -25 -20 -27 c-28 -37 -37 -38 -63 -2 l-23 31 23 24 c28 30
30 30 59 -1z m89 -107 c9 -29 15 -87 12 -111 -1 -4 -17 11 -37 33 l-37 41 19
34 c10 19 22 35 25 35 4 0 12 -15 18 -32z m51 -18 c0 -19 -11 -26 -23 -14 -8
8 3 34 14 34 5 0 9 -9 9 -20z m-118 -107 l38 -37 -42 -43 -42 -43 -43 42 -43
42 37 38 c20 21 42 38 47 38 6 0 27 -17 48 -37z m-133 -137 c28 -29 31 -37 22
-54 -6 -11 -8 -27 -5 -35 3 -8 0 -18 -7 -23 -9 -5 -11 -2 -6 9 3 9 0 18 -9 21
-16 6 -27 33 -37 84 -8 41 1 40 42 -2z m224 20 c20 7 21 1 7 -27 -6 -10 -16
-19 -23 -19 -7 0 -19 -16 -26 -35 -14 -39 -25 -39 -35 0 -5 19 1 35 20 61 16
21 30 31 34 24 4 -6 14 -8 23 -4z m-125 -128 c17 -17 15 -43 -4 -58 -12 -11
-18 -10 -31 3 -15 14 -15 20 -3 42 15 28 21 30 38 13z"/>
</g>
</svg>
