<?xml version="1.0" standalone="no"?>
<!DOCTYPE svg PUBLIC "-//W3C//DTD SVG 20010904//EN"
 "http://www.w3.org/TR/2001/REC-SVG-20010904/DTD/svg10.dtd">
<svg version="1.0" xmlns="http://www.w3.org/2000/svg"
 width="2644.000000pt" height="2800.000000pt" viewBox="0 0 2644.000000 2800.000000"
 preserveAspectRatio="xMidYMid meet">

<g transform="translate(0.000000,2800.000000) scale(0.100000,-0.100000)"
fill="#3a4548" stroke="none">
<path d="M7312 17442 c-10 -7 -12 -308 -11 -1500 2 -1436 1 -1493 -16 -1512
-17 -18 -17 -25 -6 -56 10 -26 10 -39 2 -47 -17 -17 -13 -45 9 -67 26 -26 25
-49 -5 -106 -37 -69 -33 -99 7 -48 11 14 23 23 26 20 2 -3 -22 -35 -56 -70
-78 -84 -90 -119 -62 -180 11 -25 23 -46 27 -46 17 0 30 37 25 72 -4 36 13 98
27 98 4 0 17 -14 30 -30 21 -29 21 -31 5 -65 -9 -20 -25 -40 -36 -46 -10 -5
-32 -28 -48 -51 -44 -61 -41 -102 12 -170 68 -84 86 -159 48 -193 -23 -21 -25
-37 -8 -65 10 -16 10 -24 0 -40 -16 -26 -15 -40 3 -60 14 -16 16 -182 16
-1536 0 -836 0 -1570 0 -1631 l-1 -113 -40 -20 c-39 -20 -40 -21 -24 -45 20
-30 11 -62 -22 -77 -19 -9 -24 -19 -24 -49 l0 -37 123 -6 c84 -4 141 -2 182 7
58 12 60 14 63 47 2 30 -2 38 -28 52 -34 19 -40 51 -14 80 16 17 15 19 -21 34
-22 9 -51 13 -67 10 -15 -3 -28 -1 -28 4 0 5 10 10 23 12 l22 3 3 1624 c2
1507 3 1626 19 1643 15 16 15 23 4 54 -10 26 -10 39 -2 47 17 17 13 41 -10 66
-18 19 -20 30 -15 69 3 26 15 58 26 72 87 107 97 138 65 200 -14 26 -13 31 12
75 23 42 24 51 14 84 -6 21 -26 57 -45 81 -20 26 -32 50 -29 61 3 10 -7 39
-21 63 -31 53 -33 80 -6 108 22 24 26 48 9 65 -8 8 -8 21 2 47 11 31 11 38 -4
54 -16 17 -17 122 -17 1514 l0 1496 -23 6 c-32 8 -100 7 -115 -2z m97 -3366
l22 -23 -27 -32 c-28 -34 -43 -31 -65 12 -9 15 -6 24 12 43 28 30 30 30 58 0z
m79 -101 c7 -14 12 -45 12 -67 l0 -42 -35 34 c-40 39 -41 42 -19 75 21 31 28
31 42 0z m42 -17 c0 -16 -3 -19 -11 -11 -6 6 -8 16 -5 22 11 17 16 13 16 -11z
m-114 -94 c19 -15 34 -32 34 -38 0 -7 -16 -27 -35 -46 l-35 -34 -32 30 c-18
16 -37 32 -42 36 -10 8 50 78 67 78 4 0 24 -12 43 -26z m-111 -134 c26 -27 27
-32 15 -55 -18 -34 -25 -32 -44 15 -29 74 -18 89 29 40z m192 -15 c-9 -7 -17
-16 -17 -21 0 -5 -7 -17 -15 -28 -14 -18 -15 -18 -26 8 -11 24 -10 29 16 56
25 26 29 27 43 13 14 -14 14 -17 -1 -28z m-101 -101 c8 -33 -9 -52 -31 -34
-18 15 -19 32 -3 48 18 18 27 15 34 -14z"/>
</g>
</svg>
