<?xml version="1.0" standalone="no"?>
<!DOCTYPE svg PUBLIC "-//W3C//DTD SVG 20010904//EN"
 "http://www.w3.org/TR/2001/REC-SVG-20010904/DTD/svg10.dtd">
<svg version="1.0" xmlns="http://www.w3.org/2000/svg"
 width="2644.000000pt" height="2800.000000pt" viewBox="0 0 2644.000000 2800.000000"
 preserveAspectRatio="xMidYMid meet">

<g transform="translate(0.000000,2800.000000) scale(0.100000,-0.100000)"
fill="#3a4548" stroke="none">
<path d="M7860 15926 c0 -1298 -2 -1475 -15 -1486 -18 -15 -20 -51 -4 -67 8
-8 8 -17 0 -31 -16 -30 -14 -50 9 -69 27 -23 25 -47 -6 -101 -15 -26 -24 -52
-20 -64 3 -14 -6 -34 -30 -63 -52 -64 -60 -95 -35 -149 11 -25 24 -46 29 -46
15 0 25 32 23 73 -3 38 15 97 28 97 3 0 16 -14 28 -31 27 -39 16 -78 -33 -115
-45 -35 -74 -84 -74 -125 0 -24 12 -48 45 -90 29 -37 49 -75 57 -108 11 -48
10 -52 -12 -76 -21 -23 -23 -29 -13 -55 8 -22 8 -38 0 -59 -9 -25 -8 -33 6
-49 16 -17 17 -124 15 -1623 l-3 -1604 -45 -22 c-25 -12 -40 -22 -33 -22 17
-1 35 -38 28 -60 -3 -10 -17 -24 -30 -31 -19 -10 -25 -22 -25 -45 l0 -32 98
-13 c54 -7 114 -10 133 -6 19 4 54 10 79 14 43 7 45 8 48 45 2 21 -1 37 -7 37
-16 0 -51 38 -51 55 0 8 9 24 19 34 19 19 19 20 -21 36 -25 10 -52 13 -71 9
-20 -4 -27 -3 -23 5 4 6 16 11 27 11 19 0 19 23 19 1600 0 880 4 1600 8 1600
18 0 29 44 18 72 -8 21 -7 34 2 48 10 16 10 24 0 40 -7 11 -17 20 -22 20 -5 0
-6 28 -3 61 4 50 11 67 35 93 64 68 75 105 50 173 -10 28 -9 38 10 72 30 54
28 81 -14 142 -20 30 -41 74 -45 98 -5 25 -16 52 -24 61 -15 17 -21 90 -7 90
4 0 13 9 20 20 10 17 10 24 -4 44 -14 22 -14 27 0 49 15 22 15 26 -4 50 -20
25 -20 37 -20 1496 l0 1471 -70 0 -70 0 0 -1474z m20 -1789 c0 -2 -10 -12 -22
-23 l-23 -19 19 23 c18 21 26 27 26 19z m100 -72 c0 -6 -12 -22 -26 -36 l-26
-24 -24 30 -23 30 26 27 27 28 23 -22 c13 -12 23 -27 23 -33z m68 -122 l4 -58
-37 36 -37 37 23 31 c29 40 41 29 47 -46z m42 43 c0 -3 -4 -8 -10 -11 -5 -3
-10 -1 -10 4 0 6 5 11 10 11 6 0 10 -2 10 -4z m-110 -111 l35 -36 -37 -34
c-20 -19 -41 -35 -45 -35 -5 0 -24 16 -43 35 l-34 35 34 35 c19 19 39 35 45
35 6 0 27 -16 45 -35z m-119 -127 c22 -27 25 -36 16 -55 -6 -13 -13 -23 -17
-23 -10 0 -40 68 -40 90 0 28 9 25 41 -12z m167 -41 c-18 -36 -20 -38 -33 -20
-20 26 -19 33 12 65 24 25 28 26 33 12 4 -10 -2 -35 -12 -57z m-74 -62 c8 -21
-3 -45 -20 -45 -18 0 -28 24 -20 45 3 8 12 15 20 15 7 0 16 -7 20 -15z"/>
</g>
</svg>
