<?xml version="1.0" standalone="no"?>
<!DOCTYPE svg PUBLIC "-//W3C//DTD SVG 20010904//EN"
 "http://www.w3.org/TR/2001/REC-SVG-20010904/DTD/svg10.dtd">
<svg version="1.0" xmlns="http://www.w3.org/2000/svg"
 width="2644.000000pt" height="2800.000000pt" viewBox="0 0 2644.000000 2800.000000"
 preserveAspectRatio="xMidYMid meet">

<g transform="translate(0.000000,2800.000000) scale(0.100000,-0.100000)"
fill="#3a4548" stroke="none">
<path d="M20457 27172 l-57 -58 0 -1598 0 -1598 -22 -31 c-21 -29 -21 -31 -5
-59 15 -27 15 -32 2 -59 -14 -26 -14 -32 0 -58 8 -17 19 -33 25 -36 21 -13 9
-63 -26 -109 -29 -36 -38 -58 -42 -99 -3 -33 -13 -63 -28 -83 -59 -77 -68
-147 -29 -224 21 -42 24 -56 16 -90 -16 -71 14 -144 89 -215 23 -22 30 -38 30
-66 0 -21 -6 -42 -14 -46 -29 -17 -38 -51 -21 -82 13 -27 13 -32 -2 -59 -16
-28 -16 -30 5 -60 l22 -30 -2 -1599 -3 -1598 -40 -20 c-22 -11 -42 -21 -44
-22 -2 -2 3 -11 12 -21 27 -29 21 -68 -13 -94 -55 -40 -42 -48 88 -48 66 0
153 3 195 6 l75 7 -29 24 c-34 29 -37 58 -8 89 l20 21 -40 16 c-22 9 -45 25
-50 36 -8 14 -11 516 -11 1603 0 1556 1 1583 20 1608 21 27 26 55 10 65 -13 8
-13 41 2 64 9 14 8 26 -2 50 -7 17 -16 31 -21 31 -5 0 -9 26 -9 58 0 55 2 59
55 120 54 62 72 99 62 124 -3 7 -12 29 -21 49 -15 35 -14 37 18 85 53 80 53
92 -4 177 -46 69 -49 77 -39 106 14 39 0 76 -42 117 -22 21 -29 37 -29 66 0
21 4 38 8 38 5 0 14 11 21 24 11 19 11 30 0 60 -10 28 -10 39 -1 48 18 18 14
49 -8 78 -19 25 -20 53 -20 1676 0 1638 -1 1674 -30 1674 -3 0 -31 -26 -63
-58z m37 -3738 l29 -35 -39 -40 -39 -40 -22 28 c-13 15 -23 37 -23 47 0 18 46
77 59 75 3 0 19 -16 35 -35z m110 -113 c28 -31 32 -92 8 -121 l-21 -25 -45 45
-46 44 37 38 c20 21 40 38 43 38 4 0 15 -9 24 -19z m-230 -24 c18 -32 18 -33
-5 -69 -13 -21 -27 -37 -31 -38 -9 0 -11 102 -2 124 9 24 19 20 38 -17z m119
-219 l-42 -42 -38 31 c-21 16 -39 37 -41 44 -1 8 14 34 34 58 l37 43 46 -46
46 -46 -42 -42z m101 -65 c-3 -16 -16 -43 -28 -58 l-22 -27 -18 27 -18 27 38
39 c41 42 58 40 48 -8z m-200 -25 c18 -26 21 -51 5 -46 -14 5 -41 68 -29 68 5
0 16 -10 24 -22z m90 -119 c-8 -13 -24 -1 -24 18 0 13 3 13 15 3 8 -7 12 -16
9 -21z"/>
</g>
</svg>
