<?xml version="1.0" standalone="no"?>
<!DOCTYPE svg PUBLIC "-//W3C//DTD SVG 20010904//EN"
 "http://www.w3.org/TR/2001/REC-SVG-20010904/DTD/svg10.dtd">
<svg version="1.0" xmlns="http://www.w3.org/2000/svg"
 width="2644.000000pt" height="2800.000000pt" viewBox="0 0 2644.000000 2800.000000"
 preserveAspectRatio="xMidYMid meet">

<g transform="translate(0.000000,2800.000000) scale(0.100000,-0.100000)"
fill="#3a4548" stroke="none">
<path d="M14808 14107 l-58 -52 0 -1793 c0 -1779 0 -1793 -20 -1814 -21 -23
-27 -72 -10 -83 6 -3 10 -17 10 -30 0 -13 -4 -27 -10 -30 -18 -11 -11 -49 14
-78 28 -32 26 -79 -4 -117 -36 -45 -53 -87 -46 -114 3 -14 10 -26 14 -26 4 0
24 24 45 52 23 33 37 45 37 34 0 -10 -38 -59 -85 -108 -56 -60 -89 -104 -97
-129 -10 -36 -9 -44 22 -104 18 -36 36 -65 39 -65 12 0 41 59 32 64 -28 17
-18 130 14 156 13 11 21 7 50 -26 42 -49 42 -96 -2 -133 -108 -90 -140 -138
-129 -196 4 -17 29 -58 57 -91 60 -70 69 -90 69 -155 0 -36 -6 -56 -20 -71
-22 -24 -26 -59 -8 -87 9 -15 8 -26 -5 -52 -14 -31 -14 -35 1 -61 9 -15 20
-28 24 -28 4 0 8 -1026 8 -2280 l0 -2281 -25 -23 c-14 -13 -39 -29 -56 -36
l-30 -13 21 -22 c31 -33 23 -74 -17 -100 -31 -19 -33 -23 -30 -70 l2 -50 122
-10 c67 -5 125 -13 129 -18 15 -15 50 -6 121 31 l73 37 0 48 c0 36 -4 49 -17
54 -53 19 -71 78 -33 110 19 17 18 18 -33 43 l-52 25 -3 2278 c-2 2015 0 2280
13 2293 23 23 29 63 15 90 -10 18 -11 30 -2 49 18 39 15 60 -13 86 -46 45 -33
106 43 193 65 74 81 128 58 191 -17 44 -17 45 7 87 48 82 43 137 -20 228 -19
29 -32 62 -35 93 -4 33 -17 65 -42 101 -42 62 -45 95 -11 132 25 27 33 68 15
79 -5 3 -10 17 -10 30 0 13 5 27 10 30 16 10 11 48 -10 75 -19 25 -20 54 -20
1868 l0 1842 -27 0 c-19 -1 -46 -18 -85 -53z m76 -4126 c32 -33 30 -55 -9 -91
l-26 -24 -36 36 -36 36 29 36 c16 20 34 36 40 36 5 0 23 -13 38 -29z m96 -127
c6 -14 10 -40 10 -59 0 -19 4 -36 10 -40 12 -7 1 -35 -14 -35 -6 1 -25 20 -42
43 l-31 43 21 37 c25 44 33 46 46 11z m47 -6 c-3 -8 -6 -5 -6 6 -1 11 2 17 5
13 3 -3 4 -12 1 -19z m-127 -150 c22 -24 40 -47 40 -51 0 -10 -79 -87 -89 -87
-4 0 -27 20 -51 45 l-44 45 44 45 c24 25 48 45 52 45 4 0 26 -19 48 -42z
m-159 -145 c51 -56 52 -59 34 -87 -10 -14 -21 -26 -25 -26 -10 0 -50 94 -50
119 0 28 11 26 41 -6z m229 -8 c0 -2 -10 -30 -22 -62 l-21 -57 -15 32 c-15 31
-15 33 13 62 26 27 45 38 45 25z m-170 -99 c0 -3 -4 -8 -10 -11 -5 -3 -10 -1
-10 4 0 6 5 11 10 11 6 0 10 -2 10 -4z m56 -71 c-4 -15 -12 -25 -19 -22 -17 5
-21 35 -6 53 17 21 33 2 25 -31z"/>
</g>
</svg>
