<?xml version="1.0" standalone="no"?>
<!DOCTYPE svg PUBLIC "-//W3C//DTD SVG 20010904//EN"
 "http://www.w3.org/TR/2001/REC-SVG-20010904/DTD/svg10.dtd">
<svg version="1.0" xmlns="http://www.w3.org/2000/svg"
 width="2644.000000pt" height="2800.000000pt" viewBox="0 0 2644.000000 2800.000000"
 preserveAspectRatio="xMidYMid meet">

<g transform="translate(0.000000,2800.000000) scale(0.100000,-0.100000)"
fill="#3a4548" stroke="none">
<path d="M14390 12290 c1 -1686 1 -1691 -20 -1719 -24 -35 -25 -44 -4 -76 15
-23 15 -27 0 -50 -22 -33 -20 -48 9 -79 35 -38 32 -74 -11 -129 -33 -42 -36
-51 -31 -93 5 -44 2 -50 -39 -101 -65 -79 -67 -104 -17 -190 28 -49 33 -51 51
-23 9 15 10 26 2 40 -22 41 -1 160 29 160 5 0 23 -17 39 -38 28 -35 30 -40 19
-76 -8 -25 -28 -52 -60 -78 -53 -45 -87 -102 -87 -145 0 -31 16 -59 73 -126
62 -74 74 -147 32 -201 -28 -37 -30 -53 -10 -80 12 -16 11 -23 -3 -52 -15 -33
-15 -35 6 -64 l22 -29 0 -2190 c0 -1204 -3 -2196 -6 -2205 -4 -9 -25 -26 -48
-38 -54 -27 -53 -25 -26 -52 29 -32 21 -71 -20 -94 -26 -15 -30 -23 -30 -63
l0 -46 68 -7 c236 -21 233 -21 300 13 61 31 62 32 62 74 -1 36 -5 45 -33 62
-40 25 -47 65 -18 94 l21 21 -36 15 c-20 8 -40 15 -44 15 -28 0 -29 126 -29
2230 l1 2165 25 39 c25 38 25 40 8 69 -16 27 -16 30 0 61 17 31 17 34 0 59 -9
15 -21 27 -26 27 -15 0 -10 94 7 118 8 12 29 37 46 55 36 38 68 102 67 137 0
14 -6 42 -13 62 -12 33 -11 40 7 70 48 78 42 146 -19 229 -21 29 -34 58 -34
77 0 40 -15 78 -45 114 -25 30 -36 108 -15 108 5 0 17 14 25 30 14 28 14 33
-1 59 -16 28 -16 31 -1 55 22 33 22 39 -9 75 l-25 30 1 1623 c1 893 1 1651 1
1686 l-1 62 -80 0 -80 0 0 -1690z m130 -2165 l33 -34 -28 -41 c-15 -22 -33
-39 -38 -37 -6 2 -24 20 -40 40 l-30 36 29 35 c16 19 31 35 35 35 3 1 20 -15
39 -34z m98 -134 c13 -43 16 -121 5 -121 -8 0 -73 75 -73 84 0 11 42 76 49 76
4 0 13 -17 19 -39z m-38 -186 c0 -16 -76 -88 -88 -84 -5 2 -29 21 -52 43 l-42
38 48 49 48 49 43 -42 c24 -23 43 -47 43 -53z m-185 -105 c39 -40 39 -41 23
-67 -9 -15 -21 -29 -26 -31 -11 -3 -52 88 -52 117 0 30 11 26 55 -19z m195
-42 c-11 -29 -20 -54 -20 -55 0 -2 -4 -3 -9 -3 -5 0 -12 12 -15 26 -6 21 -1
33 20 55 40 42 46 36 24 -23z m-93 -99 c2 -8 -1 -20 -6 -28 -8 -12 -12 -12
-25 -2 -12 10 -13 16 -3 32 13 21 31 20 34 -2z"/>
</g>
</svg>
