<?xml version="1.0" standalone="no"?>
<!DOCTYPE svg PUBLIC "-//W3C//DTD SVG 20010904//EN"
 "http://www.w3.org/TR/2001/REC-SVG-20010904/DTD/svg10.dtd">
<svg version="1.0" xmlns="http://www.w3.org/2000/svg"
 width="2644.000000pt" height="2800.000000pt" viewBox="0 0 2644.000000 2800.000000"
 preserveAspectRatio="xMidYMid meet">

<g transform="translate(0.000000,2800.000000) scale(0.100000,-0.100000)"
fill="#3a4548" stroke="none">
<path d="M18133 24950 l-53 -49 0 -1576 0 -1576 -21 -28 c-21 -28 -21 -30 -4
-58 16 -28 16 -31 1 -56 -18 -27 -13 -50 21 -89 19 -21 10 -80 -14 -99 -23
-19 -55 -95 -52 -122 2 -12 -14 -47 -36 -80 -48 -72 -52 -126 -15 -199 21 -43
22 -52 11 -88 -17 -56 -1 -107 53 -167 75 -84 84 -121 39 -179 -26 -35 -26
-36 -9 -64 16 -27 16 -32 0 -61 -15 -30 -15 -33 5 -60 l21 -28 -2 -1568 -3
-1568 -43 -23 c-40 -22 -41 -25 -27 -45 8 -12 15 -31 15 -43 0 -21 -28 -54
-47 -54 -11 0 -24 -59 -14 -64 3 -1 95 -1 204 2 193 4 197 5 197 26 0 14 -10
26 -30 34 -38 17 -48 53 -25 88 9 14 15 27 13 29 -2 1 -19 10 -38 20 -19 10
-38 23 -42 29 -4 6 -8 711 -8 1566 0 1528 1 1555 20 1580 21 27 26 55 10 65
-5 3 -10 17 -10 30 0 13 5 27 10 30 16 10 12 40 -10 68 -14 18 -20 40 -20 77
0 49 4 57 55 117 54 63 72 100 62 125 -3 7 -12 29 -20 48 -15 35 -15 37 19 90
19 30 34 66 34 80 0 15 -19 54 -44 89 -41 58 -44 67 -39 110 4 42 2 50 -31 88
-43 49 -48 94 -14 130 20 21 21 27 9 58 -10 28 -10 42 0 69 11 30 10 37 -9 64
l-22 30 0 1620 c0 1468 -1 1620 -16 1626 -24 9 -26 9 -81 -44z m67 -3694 c0
-20 -58 -79 -72 -74 -7 3 -22 22 -33 42 l-20 37 35 29 35 29 28 -26 c15 -15
27 -32 27 -37z m-140 -101 l21 -35 -27 -35 c-14 -19 -30 -35 -35 -35 -12 0
-11 82 1 114 5 14 11 26 14 26 2 0 14 -16 26 -35z m231 9 c18 -35 17 -100 -2
-119 -13 -13 -19 -10 -59 30 l-44 45 34 35 c41 42 52 43 71 9z m-111 -144 l45
-39 -45 -46 -46 -45 -42 43 -42 43 36 42 c19 23 39 42 43 42 4 0 27 -18 51
-40z m94 -138 c-9 -37 -35 -92 -43 -92 -4 0 -13 11 -21 24 -11 22 -10 29 20
65 34 45 54 46 44 3z m-200 -28 c10 -14 16 -35 14 -47 -3 -22 -3 -22 -20 3
-21 33 -32 70 -20 70 5 0 17 -12 26 -26z m91 -117 c0 -26 -20 -25 -23 2 -3 16
1 22 10 19 7 -3 13 -12 13 -21z"/>
</g>
</svg>
