<?xml version="1.0" standalone="no"?>
<!DOCTYPE svg PUBLIC "-//W3C//DTD SVG 20010904//EN"
 "http://www.w3.org/TR/2001/REC-SVG-20010904/DTD/svg10.dtd">
<svg version="1.0" xmlns="http://www.w3.org/2000/svg"
 width="2550.000000pt" height="2700.000000pt" viewBox="0 0 2550.000000 2700.000000"
 preserveAspectRatio="xMidYMid meet">

<g transform="translate(0.000000,2700.000000) scale(0.100000,-0.100000)"
fill="#3a4548" stroke="none">
<path d="M10313 14115 c-11 -8 -14 -317 -16 -1944 l-2 -1935 -32 -8 c-35 -9
-42 -28 -18 -48 25 -21 18 -66 -12 -89 -16 -12 -32 -24 -38 -29 -5 -4 -18 -11
-27 -15 -34 -13 -20 -44 37 -82 48 -32 55 -40 55 -69 0 -20 -8 -40 -20 -51
-20 -18 -20 -19 20 -42 l40 -24 0 -2264 c0 -1938 -2 -2266 -14 -2278 -8 -8
-28 -20 -45 -27 -34 -14 -39 -25 -16 -34 34 -13 5 -96 -33 -96 -7 0 -12 -17
-12 -42 0 -38 5 -47 40 -76 l39 -33 83 11 c46 6 110 14 143 18 l60 7 3 38 c3
31 -2 41 -27 63 -35 29 -39 58 -14 87 16 17 16 19 1 28 -9 5 -31 21 -47 35
l-31 26 2 2271 3 2271 33 8 c37 10 39 19 11 57 -17 23 -18 31 -8 54 6 14 25
31 40 38 16 6 29 15 29 20 0 5 6 9 14 9 7 0 19 7 26 16 11 13 8 19 -18 44 -17
16 -41 31 -52 35 -24 7 -49 53 -42 75 2 8 13 25 24 37 l20 22 -41 20 -41 21 0
1944 0 1943 -51 -1 c-29 0 -58 -5 -66 -11z"/>
</g>
</svg>
