<?xml version="1.0" standalone="no"?>
<!DOCTYPE svg PUBLIC "-//W3C//DTD SVG 20010904//EN"
 "http://www.w3.org/TR/2001/REC-SVG-20010904/DTD/svg10.dtd">
<svg version="1.0" xmlns="http://www.w3.org/2000/svg"
 width="2550.000000pt" height="2700.000000pt" viewBox="0 0 2550.000000 2700.000000"
 preserveAspectRatio="xMidYMid meet">

<g transform="translate(0.000000,2700.000000) scale(0.100000,-0.100000)"
fill="#3a4548" stroke="none">
<path d="M18201 22369 l-44 -39 1 -1601 0 -1601 -35 -14 c-32 -14 -34 -17 -20
-32 25 -28 31 -67 12 -86 -9 -9 -20 -16 -25 -16 -13 0 -60 -46 -60 -58 0 -6
22 -30 50 -54 54 -46 59 -61 33 -97 -16 -23 -15 -25 15 -50 l31 -26 0 -2033
c1 -1277 -3 -2040 -9 -2051 -5 -10 -23 -24 -40 -31 -34 -14 -37 -22 -15 -40
23 -19 18 -47 -15 -77 -30 -26 -37 -56 -21 -81 9 -15 260 -24 299 -10 33 11
31 70 -3 92 -26 17 -35 68 -15 81 6 3 10 12 10 18 0 7 -4 6 -10 -3 -9 -14 -11
-13 -14 10 0 5 -11 17 -23 25 l-23 16 0 2050 c0 1945 1 2049 18 2049 9 0 23 4
31 9 12 8 12 13 -2 35 -22 33 -22 75 1 83 33 13 72 47 72 64 0 10 -20 35 -45
57 -48 42 -54 64 -29 100 15 21 14 24 -8 42 -13 11 -26 19 -30 20 -5 0 -8 740
-8 1645 0 1560 -1 1645 -17 1645 -10 -1 -38 -19 -62 -41z m144 -3510 c-8 -12
-35 -12 -35 0 0 11 22 20 33 14 4 -2 5 -9 2 -14z"/>
</g>
</svg>
