<?xml version="1.0" standalone="no"?>
<!DOCTYPE svg PUBLIC "-//W3C//DTD SVG 20010904//EN"
 "http://www.w3.org/TR/2001/REC-SVG-20010904/DTD/svg10.dtd">
<svg version="1.0" xmlns="http://www.w3.org/2000/svg"
 width="2550.000000pt" height="2700.000000pt" viewBox="0 0 2550.000000 2700.000000"
 preserveAspectRatio="xMidYMid meet">

<g transform="translate(0.000000,2700.000000) scale(0.100000,-0.100000)"
fill="#3a4548" stroke="none">
<path d="M20726 25158 c-30 -33 -46 -59 -46 -77 0 -14 -1 -746 -3 -1625 l-2
-1599 -30 -10 c-40 -13 -40 -11 -14 -46 20 -27 21 -34 9 -55 -7 -14 -26 -30
-41 -35 -16 -5 -29 -15 -29 -20 0 -6 -7 -11 -15 -11 -30 0 -29 -31 1 -56 16
-13 34 -23 40 -24 13 0 54 -43 54 -57 0 -6 -9 -22 -21 -37 -24 -31 -19 -42 21
-51 l30 -7 0 -1683 0 -1684 -26 -20 c-15 -12 -33 -21 -40 -21 -18 0 -18 -5 2
-35 15 -23 15 -27 0 -49 -8 -14 -25 -27 -36 -31 -26 -8 -29 -59 -2 -51 9 2 92
8 185 12 92 3 170 10 172 15 3 4 -8 15 -24 23 -37 20 -47 50 -27 81 9 13 16
27 16 29 0 3 -24 9 -52 13 -29 4 -46 8 -38 10 13 3 15 198 12 1697 l-2 1694
35 6 c36 7 46 22 21 32 -22 8 -29 53 -13 78 8 11 35 31 61 44 51 26 59 48 21
62 -14 5 -25 14 -25 20 0 5 -6 10 -13 10 -21 0 -57 39 -57 60 0 11 10 30 21
41 23 23 17 33 -28 45 l-23 6 0 1667 0 1668 -24 11 c-23 10 -29 7 -70 -40z"/>
</g>
</svg>
