<?xml version="1.0" standalone="no"?>
<!DOCTYPE svg PUBLIC "-//W3C//DTD SVG 20010904//EN"
 "http://www.w3.org/TR/2001/REC-SVG-20010904/DTD/svg10.dtd">
<svg version="1.0" xmlns="http://www.w3.org/2000/svg"
 width="2550.000000pt" height="2700.000000pt" viewBox="0 0 2550.000000 2700.000000"
 preserveAspectRatio="xMidYMid meet">

<g transform="translate(0.000000,2700.000000) scale(0.100000,-0.100000)"
fill="#3a4548" stroke="none">
<path d="M22249 26993 c0 -5 -1 -707 -2 -1562 l-2 -1555 -35 -9 c-46 -12 -46
-12 -21 -43 11 -15 21 -34 21 -43 -1 -21 -22 -48 -46 -59 -41 -17 -84 -48 -84
-60 0 -7 10 -17 23 -23 65 -29 107 -64 107 -89 0 -10 -9 -29 -20 -43 -26 -32
-25 -33 7 -42 16 -4 34 -11 40 -17 10 -8 13 -363 13 -1732 0 -1893 5 -1757
-60 -1771 -35 -8 -35 -8 -14 -40 20 -31 12 -56 -26 -78 -16 -10 -30 -25 -30
-34 0 -17 -12 -18 265 10 l119 12 -27 18 c-30 20 -36 57 -12 77 24 20 18 28
-30 35 l-45 7 3 1751 2 1751 35 9 c45 11 45 12 20 37 -31 31 -24 78 15 99 84
46 105 74 68 88 -10 4 -22 12 -26 20 -4 7 -16 13 -26 13 -24 0 -51 31 -51 60
0 13 10 34 21 47 l22 22 -29 11 c-16 6 -35 13 -41 15 -10 3 -13 325 -13 1565
l0 1560 -70 0 c-38 0 -70 -3 -71 -7z"/>
</g>
</svg>
