<?xml version="1.0" standalone="no"?>
<!DOCTYPE svg PUBLIC "-//W3C//DTD SVG 20010904//EN"
 "http://www.w3.org/TR/2001/REC-SVG-20010904/DTD/svg10.dtd">
<svg version="1.0" xmlns="http://www.w3.org/2000/svg"
 width="2550.000000pt" height="2700.000000pt" viewBox="0 0 2550.000000 2700.000000"
 preserveAspectRatio="xMidYMid meet">

<g transform="translate(0.000000,2700.000000) scale(0.100000,-0.100000)"
fill="#3a4548" stroke="none">
<path d="M23957 26993 c-4 -3 -7 -189 -7 -412 0 -223 0 -436 0 -472 l0 -66
-40 -13 c-42 -14 -49 -24 -26 -37 7 -4 18 -18 25 -30 16 -31 -1 -61 -45 -79
-19 -8 -34 -18 -34 -22 0 -4 -10 -12 -22 -17 -12 -6 -23 -15 -25 -21 -3 -10
86 -74 104 -74 14 0 34 -49 27 -63 -4 -7 -16 -22 -27 -34 l-20 -23 39 -16 c21
-9 40 -17 42 -19 1 -1 2 -807 2 -1790 0 -1632 -1 -1790 -16 -1806 -9 -10 -29
-21 -45 -24 -33 -7 -36 -17 -13 -35 24 -21 13 -62 -23 -85 -35 -21 -45 -50
-15 -41 18 5 92 16 245 37 89 12 89 13 83 39 -3 16 1 36 11 49 8 12 13 24 11
26 -2 2 -26 10 -53 16 -55 14 -80 29 -49 29 19 0 19 21 16 1795 l-2 1794 40
12 c22 7 40 14 40 16 0 2 -10 17 -21 33 -29 38 -19 77 24 95 18 8 46 25 62 39
l30 25 -30 26 c-16 14 -47 34 -67 45 -44 24 -49 53 -17 94 12 15 20 28 18 29
-2 2 -21 10 -41 20 l-38 17 0 475 0 475 -68 0 c-38 0 -72 -3 -75 -7z"/>
</g>
</svg>
