<?xml version="1.0" standalone="no"?>
<!DOCTYPE svg PUBLIC "-//W3C//DTD SVG 20010904//EN"
 "http://www.w3.org/TR/2001/REC-SVG-20010904/DTD/svg10.dtd">
<svg version="1.0" xmlns="http://www.w3.org/2000/svg"
 width="2550.000000pt" height="2700.000000pt" viewBox="0 0 2550.000000 2700.000000"
 preserveAspectRatio="xMidYMid meet">

<g transform="translate(0.000000,2700.000000) scale(0.100000,-0.100000)"
fill="#3a4548" stroke="none">
<path d="M24730 26985 c0 -6 -11 -17 -25 -23 -31 -14 -32 -38 -2 -53 12 -7 25
-16 28 -21 3 -5 21 -17 40 -26 42 -21 49 -54 19 -94 -12 -16 -20 -30 -18 -32
1 -1 20 -9 41 -19 l37 -17 0 -2273 c0 -2041 -2 -2275 -16 -2295 -8 -12 -19
-22 -24 -22 -5 0 -20 -4 -35 -10 l-25 -10 20 -20 c29 -29 22 -61 -22 -89 -40
-26 -43 -56 -4 -41 12 4 53 11 91 15 67 6 159 19 217 31 25 5 27 8 17 26 -9
16 -7 26 10 49 23 31 24 30 -39 49 -25 7 -49 17 -55 22 -6 6 -4 7 5 3 13 -5
15 67 12 617 -1 388 -6 626 -12 632 -14 14 -13 483 0 491 7 4 10 487 10 1416
l0 1410 45 19 45 19 -25 25 c-45 45 -31 78 50 122 72 39 78 56 29 74 -13 5
-24 16 -24 24 0 12 -32 14 -195 14 -147 0 -195 -3 -195 -13z"/>
</g>
</svg>
