<?xml version="1.0" standalone="no"?>
<!DOCTYPE svg PUBLIC "-//W3C//DTD SVG 20010904//EN"
 "http://www.w3.org/TR/2001/REC-SVG-20010904/DTD/svg10.dtd">
<svg version="1.0" xmlns="http://www.w3.org/2000/svg"
 width="2550.000000pt" height="2700.000000pt" viewBox="0 0 2550.000000 2700.000000"
 preserveAspectRatio="xMidYMid meet">

<g transform="translate(0.000000,2700.000000) scale(0.100000,-0.100000)"
fill="#3a4548" stroke="none">
<path d="M11190 15454 l-65 -73 -5 -1552 -5 -1552 -39 -11 -38 -11 21 -19 c25
-23 28 -68 5 -87 -17 -14 -48 -33 -74 -45 -31 -15 -34 -54 -4 -54 8 0 14 -4
14 -9 0 -5 17 -18 38 -28 46 -22 55 -63 23 -97 l-21 -23 25 -11 c14 -7 32 -12
40 -12 13 0 15 -272 15 -2114 0 -1972 -1 -2116 -17 -2131 -9 -10 -29 -22 -44
-27 -27 -9 -27 -10 -11 -38 20 -35 5 -75 -33 -90 -25 -9 -34 -42 -17 -65 4 -6
41 -19 82 -28 69 -16 83 -16 180 -2 58 9 110 17 116 20 16 5 10 68 -7 73 -46
14 -62 61 -32 94 9 10 14 19 12 21 -2 1 -22 11 -44 22 l-40 20 -3 2123 c-2
1839 0 2122 12 2122 8 0 27 5 41 10 l27 10 -26 31 c-14 17 -26 35 -26 40 0 13
46 59 60 59 6 0 16 5 23 10 7 6 21 17 32 25 20 14 19 16 -15 45 -19 16 -40 30
-47 30 -19 0 -52 50 -46 68 3 9 15 27 25 38 l19 22 -38 9 -38 9 -5 1626 -5
1626 -65 -74z"/>
</g>
</svg>
