<?xml version="1.0" standalone="no"?>
<!DOCTYPE svg PUBLIC "-//W3C//DTD SVG 20010904//EN"
 "http://www.w3.org/TR/2001/REC-SVG-20010904/DTD/svg10.dtd">
<svg version="1.0" xmlns="http://www.w3.org/2000/svg"
 width="2550.000000pt" height="2700.000000pt" viewBox="0 0 2550.000000 2700.000000"
 preserveAspectRatio="xMidYMid meet">

<g transform="translate(0.000000,2700.000000) scale(0.100000,-0.100000)"
fill="#3a4548" stroke="none">
<path d="M12867 17222 l-57 -58 0 -1573 c0 -1254 -3 -1572 -12 -1568 -7 2 -24
0 -37 -5 l-24 -8 21 -23 c12 -13 22 -32 22 -43 -1 -26 -23 -54 -44 -54 -9 0
-19 -6 -22 -14 -3 -8 -14 -16 -25 -19 -25 -7 -25 -37 1 -44 11 -3 20 -9 20
-14 0 -6 8 -12 18 -16 52 -18 68 -67 32 -103 -19 -19 -19 -20 0 -30 10 -5 26
-10 34 -10 15 0 16 -198 16 -2073 0 -1963 -1 -2075 -17 -2089 -10 -9 -28 -19
-40 -22 -22 -7 -32 -26 -14 -26 17 0 23 -40 9 -70 -7 -17 -21 -30 -30 -30 -14
0 -18 -8 -18 -35 0 -32 3 -35 48 -48 36 -11 76 -12 172 -7 69 5 126 8 128 9 1
1 2 17 2 36 0 24 -6 37 -20 45 -34 18 -44 48 -25 77 9 13 15 26 13 28 -2 1
-18 10 -35 19 -18 9 -35 26 -38 39 -3 12 -4 949 -3 2081 l3 2059 30 10 c40 13
40 11 14 46 -19 26 -21 34 -11 55 6 14 22 28 36 32 13 3 27 12 30 20 3 8 12
14 20 14 7 0 16 6 19 14 6 16 -11 36 -30 36 -7 0 -13 5 -13 10 0 6 -11 15 -25
20 -14 5 -30 21 -37 35 -10 22 -8 30 10 55 22 29 22 29 3 40 -11 5 -27 10 -35
10 -14 0 -16 157 -16 1625 0 894 -4 1625 -8 1625 -4 0 -33 -26 -65 -58z"/>
</g>
</svg>
