<?xml version="1.0" standalone="no"?>
<!DOCTYPE svg PUBLIC "-//W3C//DTD SVG 20010904//EN"
 "http://www.w3.org/TR/2001/REC-SVG-20010904/DTD/svg10.dtd">
<svg version="1.0" xmlns="http://www.w3.org/2000/svg"
 width="2550.000000pt" height="2700.000000pt" viewBox="0 0 2550.000000 2700.000000"
 preserveAspectRatio="xMidYMid meet">

<g transform="translate(0.000000,2700.000000) scale(0.100000,-0.100000)"
fill="#3a4548" stroke="none">
<path d="M13707 18072 l-49 -50 1 -1556 2 -1556 -35 -17 c-19 -9 -33 -20 -30
-25 3 -4 10 -5 16 -2 7 4 8 2 4 -4 -4 -6 -1 -20 5 -30 20 -31 3 -72 -32 -79
-21 -4 -26 -8 -18 -14 17 -10 4 -24 -22 -24 -23 0 -25 -19 -1 -21 35 -3 37 -4
22 -14 -8 -5 -12 -10 -10 -12 3 -2 19 -11 35 -20 26 -14 30 -23 30 -59 1 -31
-4 -43 -18 -48 -15 -6 -12 -10 19 -24 l36 -18 -5 -1632 c-3 -898 -7 -1639 -9
-1648 -7 -31 -30 -50 -52 -44 -12 4 -16 3 -10 -2 17 -13 24 -54 12 -76 -9 -17
-8 -19 8 -13 14 4 12 1 -5 -13 -14 -10 -31 -17 -38 -14 -9 4 -13 -5 -13 -30 0
-32 3 -35 38 -43 20 -5 91 -7 157 -4 l119 5 0 27 c0 16 -11 37 -27 52 -30 28
-35 61 -12 86 14 16 13 18 -15 30 -17 7 -35 21 -40 31 -6 11 -10 627 -10 1658
0 1556 1 1641 18 1641 9 0 23 4 31 9 12 8 12 13 -2 35 -28 42 -21 63 33 103
28 20 50 42 50 48 0 6 -22 28 -50 48 -53 40 -63 67 -35 103 20 27 19 32 -15
39 l-30 7 -2 1609 -3 1610 -48 -49z"/>
</g>
</svg>
