<?xml version="1.0" standalone="no"?>
<!DOCTYPE svg PUBLIC "-//W3C//DTD SVG 20010904//EN"
 "http://www.w3.org/TR/2001/REC-SVG-20010904/DTD/svg10.dtd">
<svg version="1.0" xmlns="http://www.w3.org/2000/svg"
 width="3542.000000pt" height="3750.000000pt" viewBox="0 0 3542.000000 3750.000000"
 preserveAspectRatio="xMidYMid meet">

<g transform="translate(0.000000,3750.000000) scale(0.100000,-0.100000)"
fill="#3a4548" stroke="none">
<path d="M15454 18657 c-2 -7 -5 -648 -7 -1426 l-2 -1414 -47 -14 c-49 -14
-60 -26 -34 -36 8 -3 22 -20 31 -38 22 -42 8 -75 -43 -96 -20 -8 -39 -18 -42
-22 -3 -3 -17 -14 -32 -24 -36 -23 -35 -46 2 -60 17 -6 30 -17 30 -24 0 -7 9
-13 21 -13 11 0 34 -13 50 -30 35 -34 33 -58 -8 -101 -27 -29 -27 -30 35 -49
l42 -13 0 -1373 0 -1372 -50 -17 c-44 -15 -67 -35 -40 -35 10 0 50 -58 50 -72
0 -16 -54 -68 -71 -68 -11 0 -22 -6 -25 -14 -3 -8 -19 -19 -35 -25 -40 -14
-40 -49 1 -64 17 -6 30 -17 30 -24 0 -7 9 -13 21 -13 11 0 33 -13 49 -29 34
-33 32 -61 -8 -103 -24 -26 -24 -28 -6 -33 10 -4 27 -11 36 -16 10 -5 25 -9
33 -9 13 0 15 -160 15 -1428 0 -1349 -1 -1430 -17 -1444 -10 -8 -37 -23 -60
-33 l-43 -18 25 -23 c14 -13 25 -32 25 -44 0 -27 -43 -70 -70 -70 -17 0 -20
-6 -20 -49 0 -28 4 -52 9 -55 5 -4 60 -15 122 -25 111 -19 113 -19 241 1 l128
21 0 53 c0 42 -3 54 -15 54 -24 0 -65 46 -65 74 0 14 10 33 25 44 l25 20 -54
22 c-30 12 -57 28 -60 37 -3 8 -6 654 -6 1436 l0 1422 50 19 50 19 -30 34
c-17 18 -30 42 -30 51 0 29 28 60 61 67 17 4 33 13 36 21 3 8 11 14 18 14 6 0
20 9 30 20 14 16 15 22 5 34 -6 9 -20 18 -31 21 -10 4 -19 12 -19 19 0 8 -13
16 -30 19 -36 8 -70 40 -70 67 0 10 13 35 30 53 l30 35 -51 18 -51 19 1 1295
c0 712 0 1330 1 1373 0 62 3 77 15 77 8 0 23 4 33 9 9 5 25 12 35 15 17 6 16
10 -12 41 -17 20 -31 45 -31 55 0 27 34 59 70 67 17 3 30 11 30 18 0 7 11 16
24 19 13 3 27 13 30 22 7 19 -19 54 -41 54 -7 0 -13 7 -13 15 0 9 -9 15 -25
15 -31 0 -75 41 -75 69 0 11 14 36 30 55 l30 34 -31 11 c-18 6 -40 11 -50 11
-15 0 -19 8 -20 38 0 20 -2 663 -2 1427 l-2 1390 -88 2 c-60 1 -90 -2 -93 -10z"/>
</g>
</svg>
