<?xml version="1.0" standalone="no"?>
<!DOCTYPE svg PUBLIC "-//W3C//DTD SVG 20010904//EN"
 "http://www.w3.org/TR/2001/REC-SVG-20010904/DTD/svg10.dtd">
<svg version="1.0" xmlns="http://www.w3.org/2000/svg"
 width="3542.000000pt" height="3750.000000pt" viewBox="0 0 3542.000000 3750.000000"
 preserveAspectRatio="xMidYMid meet">

<g transform="translate(0.000000,3750.000000) scale(0.100000,-0.100000)"
fill="#3a4548" stroke="none">
<path d="M19208 17379 l-3 -1342 -50 -14 c-48 -15 -49 -15 -28 -31 22 -18 43
-53 43 -72 0 -17 -51 -60 -71 -60 -11 0 -19 -5 -19 -10 0 -6 -11 -15 -25 -20
-14 -5 -28 -17 -31 -25 -8 -20 13 -45 37 -45 11 0 19 -6 19 -14 0 -8 14 -17
30 -21 17 -4 38 -18 47 -31 13 -20 13 -29 3 -54 -7 -17 -19 -34 -28 -39 -21
-12 -9 -25 37 -41 l41 -13 0 -1294 0 -1293 -21 0 c-17 0 -54 -14 -68 -26 -2
-2 8 -17 23 -34 14 -17 26 -40 26 -50 0 -23 -36 -59 -67 -66 -12 -3 -24 -12
-27 -20 -3 -8 -12 -14 -19 -14 -8 0 -20 -6 -26 -14 -13 -16 -4 -46 14 -46 6 0
22 -9 35 -20 13 -11 28 -20 35 -20 17 0 55 -43 55 -62 0 -9 -12 -31 -26 -48
-15 -17 -25 -32 -23 -34 14 -12 51 -26 68 -26 l21 0 0 -1344 c0 -1175 -2
-1346 -15 -1359 -8 -9 -35 -23 -60 -32 l-44 -18 24 -19 c43 -33 27 -86 -32
-109 -19 -7 -23 -16 -23 -53 0 -29 5 -46 14 -49 8 -3 65 -13 128 -22 106 -15
120 -15 218 2 l105 18 3 53 c2 42 0 52 -13 52 -21 0 -65 44 -65 65 0 9 11 27
24 40 l23 23 -41 18 c-22 10 -49 24 -58 32 -16 13 -17 107 -18 1353 0 1274 0
1340 17 1345 10 3 33 12 50 19 l33 14 -25 25 c-46 46 -27 105 38 121 15 4 27
11 27 16 0 5 11 14 25 19 33 12 33 47 1 60 -13 5 -25 12 -27 17 -2 4 -22 17
-44 28 -51 26 -60 71 -22 109 29 29 22 39 -33 53 l-35 9 -2 1291 -3 1292 38
11 c20 6 43 13 50 16 10 3 7 12 -12 35 -14 17 -26 41 -26 54 0 26 42 65 71 65
11 0 19 6 19 14 0 8 11 17 25 20 18 5 25 13 25 31 0 18 -7 26 -25 31 -14 3
-25 12 -25 20 0 8 -8 14 -19 14 -10 0 -30 9 -45 21 -34 27 -34 65 1 101 l26
27 -27 11 c-15 5 -36 10 -46 10 -10 0 -21 7 -24 16 -3 9 -6 614 -6 1345 l0
1329 -85 0 -85 0 -2 -1341z"/>
</g>
</svg>
