<?xml version="1.0" standalone="no"?>
<!DOCTYPE svg PUBLIC "-//W3C//DTD SVG 20010904//EN"
 "http://www.w3.org/TR/2001/REC-SVG-20010904/DTD/svg10.dtd">
<svg version="1.0" xmlns="http://www.w3.org/2000/svg"
 width="3542.000000pt" height="3750.000000pt" viewBox="0 0 3542.000000 3750.000000"
 preserveAspectRatio="xMidYMid meet">

<g transform="translate(0.000000,3750.000000) scale(0.100000,-0.100000)"
fill="#3a4548" stroke="none">
<path d="M21748 17468 c-3 -1274 -3 -1283 -23 -1287 -11 -2 -30 -7 -43 -12
l-24 -9 26 -31 c14 -17 26 -38 26 -48 0 -19 -39 -61 -57 -61 -7 0 -18 -6 -25
-12 -8 -7 -23 -18 -33 -24 -26 -14 -26 -44 0 -58 11 -6 24 -17 28 -23 4 -7 16
-13 26 -13 21 0 61 -40 61 -62 0 -9 -12 -31 -26 -48 -15 -17 -25 -32 -23 -34
2 -1 23 -8 47 -16 l42 -13 0 -1239 c0 -1221 0 -1238 -20 -1238 -25 0 -70 -21
-70 -32 0 -5 6 -11 14 -14 8 -3 19 -18 26 -34 16 -38 1 -65 -45 -81 -19 -7
-35 -16 -35 -19 0 -4 -11 -12 -25 -18 -15 -7 -25 -20 -25 -32 0 -13 10 -24 25
-30 14 -5 25 -14 25 -19 0 -5 11 -12 25 -15 30 -8 65 -40 65 -60 0 -8 -12 -29
-26 -46 -30 -35 -26 -44 26 -57 l35 -9 0 -1290 0 -1289 -53 -26 c-52 -25 -52
-25 -32 -44 32 -29 24 -76 -18 -95 -30 -14 -32 -18 -30 -60 l3 -45 115 -18
c106 -16 123 -16 214 -2 54 8 102 18 107 21 5 3 9 25 9 49 0 37 -3 44 -25 49
-54 14 -69 83 -23 107 19 10 17 13 -33 38 l-54 26 -3 1291 -2 1292 32 6 c57
11 63 20 34 49 -14 14 -26 37 -26 50 0 24 27 57 46 57 18 0 94 62 94 76 0 8
-11 20 -25 26 -14 6 -25 15 -25 20 0 4 -8 8 -19 8 -29 0 -71 39 -71 66 0 14
12 37 26 51 29 29 23 38 -33 49 l-33 6 0 1239 c0 704 4 1239 9 1239 5 0 25 7
46 15 l37 16 -26 26 c-45 45 -23 113 36 113 9 0 21 6 25 13 4 6 17 17 28 23
11 6 20 19 20 29 0 10 -9 23 -20 29 -11 6 -24 17 -28 24 -4 6 -16 12 -25 12
-30 0 -62 29 -62 58 0 14 12 38 27 54 l26 27 -27 11 c-15 5 -36 10 -47 10 -19
0 -19 21 -19 1285 l0 1285 -85 0 -85 0 -2 -1282z"/>
</g>
</svg>
