<?xml version="1.0" standalone="no"?>
<!DOCTYPE svg PUBLIC "-//W3C//DTD SVG 20010904//EN"
 "http://www.w3.org/TR/2001/REC-SVG-20010904/DTD/svg10.dtd">
<svg version="1.0" xmlns="http://www.w3.org/2000/svg"
 width="3542.000000pt" height="3750.000000pt" viewBox="0 0 3542.000000 3750.000000"
 preserveAspectRatio="xMidYMid meet">

<g transform="translate(0.000000,3750.000000) scale(0.100000,-0.100000)"
fill="#3a4548" stroke="none">
<path d="M28570 17321 l0 -1379 -50 -17 -51 -17 31 -34 c16 -19 30 -41 30 -48
0 -24 -40 -64 -70 -71 -17 -4 -30 -11 -30 -16 0 -5 -12 -14 -26 -19 -30 -12
-30 -47 1 -64 11 -6 24 -17 28 -23 4 -7 17 -13 28 -13 26 0 69 -44 69 -70 0
-12 -13 -35 -30 -51 l-30 -30 35 -15 c19 -8 41 -14 50 -14 13 0 15 -140 13
-1331 l-3 -1332 -47 -14 c-49 -14 -60 -26 -33 -37 8 -3 23 -22 32 -42 l18 -36
-33 -29 c-18 -16 -41 -29 -52 -29 -11 0 -20 -6 -20 -14 0 -8 -11 -17 -25 -20
-30 -8 -36 -53 -7 -63 9 -3 25 -14 35 -25 10 -10 26 -18 37 -18 26 0 59 -45
53 -73 -3 -12 -17 -34 -30 -48 l-24 -27 50 -18 51 -18 0 -1377 c0 -1204 -2
-1379 -15 -1392 -8 -9 -34 -23 -59 -32 l-43 -17 23 -23 c39 -39 28 -83 -26
-105 -28 -11 -30 -16 -30 -61 0 -57 -10 -52 165 -73 123 -15 135 -15 218 3 49
10 93 23 98 28 5 5 7 28 3 50 -4 29 -13 44 -30 51 -12 6 -30 22 -39 36 -14 20
-14 29 -4 48 7 13 19 28 27 34 11 8 5 14 -30 29 -23 10 -51 25 -61 34 -16 14
-17 87 -16 1388 l1 1374 29 14 c15 8 35 15 43 15 28 0 28 22 1 50 -40 42 -32
79 22 105 23 11 42 25 43 32 0 6 10 13 21 15 31 4 46 32 30 52 -8 9 -22 16
-32 16 -11 0 -19 6 -19 13 -1 6 -20 21 -43 32 -54 26 -62 67 -21 108 31 32 28
38 -29 52 l-42 11 -3 1327 c-2 1258 -1 1328 15 1333 10 3 33 12 52 20 l34 15
-27 28 c-34 35 -34 73 0 100 15 12 35 21 45 21 11 0 19 6 19 14 0 8 11 17 24
20 13 3 27 13 30 22 7 19 -10 44 -31 44 -7 0 -16 6 -19 14 -3 8 -15 17 -27 20
-35 8 -67 44 -67 73 0 15 11 39 27 55 l26 27 -28 11 c-15 6 -37 12 -49 14
l-21 3 -3 1373 c-2 1084 -5 1376 -15 1382 -6 4 -47 8 -89 8 l-78 0 0 -1379z"/>
</g>
</svg>
