<?xml version="1.0" standalone="no"?>
<!DOCTYPE svg PUBLIC "-//W3C//DTD SVG 20010904//EN"
 "http://www.w3.org/TR/2001/REC-SVG-20010904/DTD/svg10.dtd">
<svg version="1.0" xmlns="http://www.w3.org/2000/svg"
 width="3542.000000pt" height="3750.000000pt" viewBox="0 0 3542.000000 3750.000000"
 preserveAspectRatio="xMidYMid meet">

<g transform="translate(0.000000,3750.000000) scale(0.100000,-0.100000)"
fill="#3a4548" stroke="none">
<path d="M29680 17280 l0 -1400 -20 0 c-12 0 -34 -7 -50 -15 l-29 -15 30 -29
c16 -16 29 -39 29 -51 0 -26 -43 -70 -69 -70 -11 0 -24 -6 -28 -14 -4 -7 -18
-19 -31 -25 -28 -15 -26 -49 3 -65 11 -6 24 -17 28 -23 4 -7 16 -13 26 -13 25
0 71 -45 71 -69 0 -11 -12 -33 -26 -50 -31 -37 -25 -49 27 -57 l39 -7 0 -1353
0 -1354 -20 0 c-12 0 -35 -7 -51 -16 l-30 -15 25 -26 c14 -14 28 -34 31 -45 9
-26 -19 -66 -53 -74 -26 -7 -33 -11 -79 -53 -27 -24 -21 -49 13 -57 13 -3 24
-12 24 -20 0 -8 9 -14 21 -14 11 0 33 -13 49 -28 33 -34 31 -72 -6 -101 -13
-10 -24 -21 -24 -24 0 -3 23 -13 50 -22 l50 -17 0 -1393 c0 -766 -3 -1401 -6
-1409 -4 -9 -28 -26 -55 -37 -27 -12 -49 -25 -49 -29 0 -4 9 -15 20 -25 11
-10 20 -28 20 -40 0 -25 -39 -65 -63 -65 -14 0 -17 -10 -17 -55 0 -30 3 -55 8
-55 4 0 69 -9 145 -19 135 -19 139 -19 230 0 51 10 95 19 100 19 4 0 7 25 7
55 0 47 -3 55 -18 55 -27 0 -62 42 -62 73 0 16 8 32 20 39 29 18 25 24 -25 44
-25 9 -50 25 -55 35 -6 11 -10 548 -10 1413 l0 1394 38 12 c54 18 58 25 28 60
-14 17 -26 40 -26 51 0 26 34 58 70 66 17 3 30 11 30 17 0 6 10 16 23 21 33
15 34 52 3 67 -14 6 -26 15 -26 19 0 4 -16 13 -35 19 -38 12 -65 43 -65 73 0
10 13 32 30 48 l30 30 -35 15 c-19 8 -41 14 -50 14 -13 0 -15 144 -15 1354 l0
1354 33 6 c58 11 64 20 34 56 -15 17 -27 42 -27 55 0 26 42 65 71 65 11 0 19
6 19 13 0 7 14 18 30 24 20 7 30 18 30 32 0 13 -11 26 -30 36 -16 9 -30 21
-30 27 0 6 -3 9 -6 5 -10 -9 -62 21 -74 42 -16 30 -12 47 17 81 30 36 24 45
-34 56 l-33 6 0 372 c0 204 0 833 0 1399 l0 1027 -95 0 -95 0 0 -1400z"/>
</g>
</svg>
