<?xml version="1.0" standalone="no"?>
<!DOCTYPE svg PUBLIC "-//W3C//DTD SVG 20010904//EN"
 "http://www.w3.org/TR/2001/REC-SVG-20010904/DTD/svg10.dtd">
<svg version="1.0" xmlns="http://www.w3.org/2000/svg"
 width="3542.000000pt" height="3750.000000pt" viewBox="0 0 3542.000000 3750.000000"
 preserveAspectRatio="xMidYMid meet">

<g transform="translate(0.000000,3750.000000) scale(0.100000,-0.100000)"
fill="#3a4548" stroke="none">
<path d="M10018 17043 l-3 -1547 -40 -11 c-63 -16 -67 -22 -34 -54 52 -52 30
-123 -41 -138 -17 -3 -30 -11 -30 -17 0 -6 -13 -17 -30 -23 -44 -17 -36 -73
11 -73 9 0 19 -9 22 -20 3 -11 14 -20 25 -20 10 0 31 -9 46 -21 37 -29 35 -74
-5 -115 l-32 -33 38 -15 c21 -9 46 -16 56 -16 18 0 19 -35 20 -1302 1 -717 3
-1390 4 -1495 2 -177 1 -193 -15 -193 -14 0 -75 -25 -89 -37 -3 -2 7 -16 21
-31 40 -42 43 -65 13 -100 -14 -17 -39 -33 -55 -37 -17 -4 -30 -12 -30 -19 0
-6 -13 -17 -30 -23 -44 -17 -36 -73 11 -73 9 0 19 -9 22 -20 3 -11 14 -20 25
-20 10 0 31 -9 46 -21 35 -28 36 -77 1 -109 -30 -28 -32 -50 -6 -50 11 0 23
-4 26 -10 3 -5 17 -10 31 -10 l24 0 1 -557 c3 -1609 -3 -2548 -16 -2563 -8 -8
-36 -24 -64 -34 l-50 -20 25 -22 c45 -43 23 -114 -41 -130 -23 -6 -25 -11 -25
-59 0 -60 -14 -52 146 -85 95 -20 96 -20 222 0 202 32 182 23 182 85 0 47 -3
55 -22 60 -66 20 -88 87 -43 129 l25 24 -55 22 c-31 12 -60 31 -65 41 -6 11
-10 589 -10 1563 0 1506 0 1546 19 1546 10 0 35 7 55 15 l37 16 -30 35 c-39
44 -41 85 -5 113 15 12 33 21 40 21 8 0 22 9 31 20 10 11 22 20 29 20 6 0 18
8 27 18 15 16 15 20 1 40 -8 12 -24 22 -35 22 -10 0 -19 6 -19 14 0 8 -11 16
-23 20 -13 3 -36 15 -50 27 -35 27 -35 68 -1 108 14 17 23 35 20 40 -3 5 -26
15 -51 22 l-45 13 0 1492 0 1491 38 6 c21 4 46 13 56 20 17 13 16 15 -13 44
-19 19 -31 42 -31 58 0 32 44 75 76 75 15 0 24 6 24 15 0 8 11 17 25 21 29 7
48 35 39 58 -3 8 -19 19 -35 25 -16 5 -29 14 -29 19 0 6 -11 12 -23 16 -78 19
-100 86 -45 138 26 24 29 31 17 39 -8 5 -22 9 -31 9 -10 0 -18 5 -18 10 0 6
-11 10 -25 10 l-25 0 0 1545 0 1545 -105 0 -105 0 -2 -1547z"/>
</g>
</svg>
