<?xml version="1.0" standalone="no"?>
<!DOCTYPE svg PUBLIC "-//W3C//DTD SVG 20010904//EN"
 "http://www.w3.org/TR/2001/REC-SVG-20010904/DTD/svg10.dtd">
<svg version="1.0" xmlns="http://www.w3.org/2000/svg"
 width="2551.000000pt" height="2701.000000pt" viewBox="0 0 2551.000000 2701.000000"
 preserveAspectRatio="xMidYMid meet">

<g transform="translate(0.000000,2701.000000) scale(0.100000,-0.100000)"
fill="#C5C3C1" stroke="none">
<path d="M15312 21246 l-52 -51 0 -572 0 -573 -95 0 -95 0 0 -1336 0 -1335
105 7 105 7 0 -143 0 -142 -105 7 -105 7 -2 -674 c-2 -370 -2 -971 0 -1335 l2
-663 95 0 95 0 0 -355 0 -355 -32 -20 c-18 -11 -37 -21 -42 -23 -5 -2 1 -17
13 -34 19 -25 21 -34 12 -52 -6 -11 -21 -25 -32 -31 -16 -9 -20 -19 -17 -58
l3 -47 158 -3 157 -3 0 40 c0 49 -8 71 -26 71 -8 0 -20 11 -26 25 -10 22 -8
30 10 55 l22 29 -32 17 c-18 9 -36 22 -40 28 -4 6 -8 170 -8 364 l0 352 100 0
100 0 0 1336 0 1336 -102 -4 -103 -3 0 135 0 135 103 -3 102 -3 0 1336 0 1335
-100 0 -100 0 2 625 c2 412 0 625 -7 624 -5 -1 -34 -25 -63 -53z m178 -2521
l0 -1215 -170 0 -170 0 0 1208 c0 665 3 1212 7 1215 3 4 80 7 170 7 l163 0 0
-1215z m2 -2142 c2 -225 2 -769 0 -1210 l-2 -803 -170 0 -170 0 0 1210 0 1210
170 0 170 0 2 -407z"/>
</g>
</svg>
