<?xml version="1.0" standalone="no"?>
<!DOCTYPE svg PUBLIC "-//W3C//DTD SVG 20010904//EN"
 "http://www.w3.org/TR/2001/REC-SVG-20010904/DTD/svg10.dtd">
<svg version="1.0" xmlns="http://www.w3.org/2000/svg"
 width="2551.000000pt" height="2701.000000pt" viewBox="0 0 2551.000000 2701.000000"
 preserveAspectRatio="xMidYMid meet">

<g transform="translate(0.000000,2701.000000) scale(0.100000,-0.100000)"
fill="#C5C3C1" stroke="none">
<path d="M21204 26096 c-6 -6 -30 -27 -53 -47 l-43 -35 0 -597 -1 -597 -98 0
-99 0 0 -1340 0 -1340 105 0 105 0 0 -135 0 -135 -105 0 -105 0 0 -1320 0
-1320 95 0 95 0 0 -809 c0 -445 -3 -816 -6 -825 -3 -9 -21 -25 -40 -37 -30
-18 -32 -22 -19 -35 8 -9 15 -26 15 -40 0 -24 -31 -64 -50 -64 -5 0 -10 -16
-10 -35 l0 -35 175 0 175 0 0 34 c0 25 -6 38 -24 50 -33 21 -40 49 -22 84 15
29 15 30 -15 42 -16 7 -34 21 -39 31 -6 11 -10 329 -10 828 l0 811 95 0 95 0
0 1320 0 1320 -105 0 -105 0 0 135 0 135 28 1 c15 1 62 0 105 -1 l77 -2 0
1341 0 1341 -100 0 -100 0 0 642 c0 352 -1 642 -2 644 -2 1 -8 -3 -14 -10z
m134 -2613 l-3 -1218 -167 -3 -168 -2 0 1220 0 1220 170 0 170 0 -2 -1217z m0
-2935 l-3 -1203 -159 -2 c-111 -2 -164 1 -174 9 -12 11 -13 139 -8 908 3 492
6 1029 6 1193 l0 297 170 0 170 0 -2 -1202z"/>
</g>
</svg>
