<?xml version="1.0" standalone="no"?>
<!DOCTYPE svg PUBLIC "-//W3C//DTD SVG 20010904//EN"
 "http://www.w3.org/TR/2001/REC-SVG-20010904/DTD/svg10.dtd">
<svg version="1.0" xmlns="http://www.w3.org/2000/svg"
 width="2551.000000pt" height="2701.000000pt" viewBox="0 0 2551.000000 2701.000000"
 preserveAspectRatio="xMidYMid meet">

<g transform="translate(0.000000,2701.000000) scale(0.100000,-0.100000)"
fill="#C5C3C1" stroke="none">
<path d="M24480 26118 c0 -491 3 -924 7 -961 l6 -68 99 7 98 7 0 -143 0 -142
-102 4 -103 3 1 -880 c1 -484 2 -1084 3 -1332 l1 -453 85 0 85 0 0 -353 c0
-383 2 -369 -58 -405 -28 -17 -31 -21 -17 -32 31 -26 4 -110 -35 -110 -5 0
-10 -4 -10 -10 0 -6 68 -10 184 -10 159 0 185 2 190 16 8 20 -1 34 -19 34 -8
0 -22 11 -31 25 -14 21 -14 30 -4 55 7 17 18 30 24 30 6 1 -9 11 -34 23 l-45
22 -3 358 -2 357 90 0 90 0 0 1336 0 1336 -97 -4 -98 -3 0 135 0 135 98 -3 97
-3 0 961 0 960 -40 0 -40 0 0 -895 0 -895 -165 0 -165 0 0 895 0 895 -45 0
-45 0 0 -892z m420 -2628 l0 -1210 -165 0 c-125 0 -165 3 -166 13 0 6 0 210 0
452 0 242 1 781 1 1198 l0 757 165 0 165 0 0 -1210z"/>
</g>
</svg>
