<?xml version="1.0" standalone="no"?>
<!DOCTYPE svg PUBLIC "-//W3C//DTD SVG 20010904//EN"
 "http://www.w3.org/TR/2001/REC-SVG-20010904/DTD/svg10.dtd">
<svg version="1.0" xmlns="http://www.w3.org/2000/svg"
 width="2551.000000pt" height="2701.000000pt" viewBox="0 0 2551.000000 2701.000000"
 preserveAspectRatio="xMidYMid meet">

<g transform="translate(0.000000,2701.000000) scale(0.100000,-0.100000)"
fill="#C5C3C1" stroke="none">
<path d="M10617 17375 l-57 -48 2 -573 3 -574 -87 0 -88 0 -2 -1160 c-2 -638
-3 -1242 -3 -1342 l0 -183 103 3 102 4 0 -142 0 -142 -102 4 -103 3 3 -665 c2
-366 3 -961 3 -1322 l-1 -658 88 0 87 0 -1 -352 c-1 -194 -3 -356 -3 -360 -1
-4 -19 -17 -41 -28 -22 -11 -40 -23 -40 -26 0 -2 10 -18 21 -34 24 -32 20 -59
-11 -67 -17 -5 -20 -14 -20 -64 l0 -59 155 0 155 0 0 54 c0 46 -3 56 -25 70
-28 19 -33 57 -10 76 24 20 18 33 -23 55 l-37 20 -3 358 -2 357 100 0 100 0 1
1108 c0 609 1 1204 2 1322 l2 215 -100 0 -100 0 0 135 0 135 100 0 100 0 0
190 c-1 105 -2 709 -3 1343 l-2 1152 -100 0 -100 0 -2 621 -3 621 -58 -47z
m181 -2532 l2 -1223 -165 0 -165 0 0 1218 c0 670 2 1221 5 1224 3 2 76 4 162
4 l158 -1 3 -1222z m0 -2945 l-3 -1203 -160 0 -160 0 -3 1203 -2 1202 165 0
165 0 -2 -1202z"/>
</g>
</svg>
