<?xml version="1.0" standalone="no"?>
<!DOCTYPE svg PUBLIC "-//W3C//DTD SVG 20010904//EN"
 "http://www.w3.org/TR/2001/REC-SVG-20010904/DTD/svg10.dtd">
<svg version="1.0" xmlns="http://www.w3.org/2000/svg"
 width="2551.000000pt" height="2701.000000pt" viewBox="0 0 2551.000000 2701.000000"
 preserveAspectRatio="xMidYMid meet">

<g transform="translate(0.000000,2701.000000) scale(0.100000,-0.100000)"
fill="#C5C3C1" stroke="none">
<path d="M12962 19306 l-52 -51 0 -572 0 -573 -100 0 -100 0 0 -1267 c0 -698
3 -1299 7 -1336 l6 -68 99 7 98 7 0 -143 0 -142 -102 4 -103 3 1 -900 c1 -495
2 -1095 3 -1332 l1 -433 95 0 95 0 0 -355 0 -355 -32 -20 c-18 -11 -37 -21
-42 -23 -5 -2 1 -17 13 -34 19 -25 21 -34 12 -52 -6 -11 -21 -25 -32 -31 -16
-9 -20 -19 -17 -58 l3 -47 158 -3 157 -3 0 40 c0 49 -8 71 -26 71 -8 0 -20 11
-26 25 -10 22 -8 30 10 55 l22 29 -32 17 c-18 9 -36 22 -40 28 -4 6 -8 170 -8
364 l0 354 43 -2 c23 -1 63 -1 90 -1 l47 1 0 1336 0 1336 -97 -4 -98 -3 0 135
0 135 98 -3 97 -3 0 1336 0 1335 -90 0 -90 0 2 625 c2 412 0 625 -7 624 -5 -1
-34 -25 -63 -53z m166 -2523 l2 -1213 -165 0 -165 0 0 1215 0 1215 163 -2 162
-3 3 -1212z m2 -2943 l0 -1210 -165 0 c-150 0 -165 2 -166 18 0 9 0 123 0 252
1 129 1 666 1 1193 l0 957 165 0 165 0 0 -1210z"/>
</g>
</svg>
