<?xml version="1.0" standalone="no"?>
<!DOCTYPE svg PUBLIC "-//W3C//DTD SVG 20010904//EN"
 "http://www.w3.org/TR/2001/REC-SVG-20010904/DTD/svg10.dtd">
<svg version="1.0" xmlns="http://www.w3.org/2000/svg"
 width="2550.000000pt" height="2700.000000pt" viewBox="0 0 2550.000000 2700.000000"
 preserveAspectRatio="xMidYMid meet">

<g transform="translate(0.000000,2700.000000) scale(0.100000,-0.100000)"
fill="#3a4548" stroke="none">
<path d="M10306 14114 c-4 -9 -6 -488 -6 -1064 0 -1138 4 -1060 -51 -1060 -27
0 -59 -35 -59 -65 0 -36 42 -75 80 -75 29 0 30 -1 30 -46 0 -32 -7 -54 -24
-77 -110 -148 -113 -375 -6 -509 27 -33 31 -45 28 -86 l-3 -47 -39 -1 c-44 -1
-66 -22 -66 -64 0 -37 18 -57 65 -73 l40 -14 0 -874 0 -874 -37 -3 c-42 -4
-68 -31 -68 -70 0 -32 52 -82 84 -82 24 0 26 -4 26 -41 0 -28 -9 -53 -30 -84
-75 -109 -99 -250 -61 -373 12 -40 37 -91 59 -121 35 -46 38 -54 33 -98 l-6
-48 -36 3 c-66 6 -93 -67 -42 -114 15 -14 40 -28 55 -31 l28 -5 0 -1434 c0
-1415 0 -1434 -20 -1454 -11 -11 -31 -22 -44 -26 l-25 -6 21 -28 c20 -27 20
-29 2 -58 -9 -17 -26 -33 -36 -35 -13 -4 -18 -15 -18 -40 0 -28 8 -43 38 -72
36 -35 38 -36 92 -29 30 4 97 12 149 18 l94 11 0 37 c0 29 -6 42 -31 63 -35
29 -41 59 -17 85 14 16 13 19 -10 34 -15 10 -35 26 -46 37 -19 19 -19 49 -19
1464 l0 1445 29 0 c40 0 81 35 81 69 0 39 -26 69 -70 81 -36 10 -40 14 -40 44
0 18 9 45 20 59 11 14 35 56 52 94 62 131 48 289 -35 415 -31 46 -37 64 -37
107 l0 51 39 -6 c34 -5 41 -3 56 19 9 15 15 40 13 58 -3 34 -19 47 -80 69
l-28 10 0 876 0 876 28 -7 c41 -8 82 26 82 69 0 47 -24 74 -68 78 -35 3 -37 5
-40 40 -2 28 3 46 22 71 115 150 115 371 2 520 -20 27 -26 45 -26 87 l0 52 34
-6 c43 -8 76 22 76 69 0 38 -26 65 -72 74 l-33 7 -3 1062 -2 1062 -59 0 c-45
0 -60 -4 -65 -16z m146 -2159 c0 -5 -5 -11 -11 -13 -6 -2 -11 4 -11 13 0 9 5
15 11 13 6 -2 11 -8 11 -13z m-152 -10 c0 -8 -4 -15 -9 -15 -13 0 -22 16 -14
24 11 11 23 6 23 -9z m134 -310 c29 -55 31 -68 31 -160 0 -94 -2 -105 -33
-168 -33 -66 -61 -91 -89 -80 -7 3 -27 35 -45 71 -30 61 -33 74 -33 162 0 78
4 104 23 145 39 85 50 97 85 93 27 -3 35 -11 61 -63z m24 -637 c-6 -18 -28
-21 -28 -4 0 9 7 16 16 16 9 0 14 -5 12 -12z m-158 -6 c0 -13 -12 -22 -22 -16
-10 6 -1 24 13 24 5 0 9 -4 9 -8z m0 -1862 c0 -5 -7 -10 -16 -10 -8 0 -12 5
-9 10 3 6 10 10 16 10 5 0 9 -4 9 -10z m134 -298 c22 -43 29 -71 33 -136 6
-96 -10 -166 -56 -238 -37 -57 -60 -61 -94 -15 -79 103 -74 305 9 414 39 51
71 43 108 -25z m16 -642 c0 -5 -4 -10 -10 -10 -5 0 -10 5 -10 10 0 6 5 10 10
10 6 0 10 -4 10 -10z"/>
</g>
</svg>
