<?xml version="1.0" standalone="no"?>
<!DOCTYPE svg PUBLIC "-//W3C//DTD SVG 20010904//EN"
 "http://www.w3.org/TR/2001/REC-SVG-20010904/DTD/svg10.dtd">
<svg version="1.0" xmlns="http://www.w3.org/2000/svg"
 width="2550.000000pt" height="2700.000000pt" viewBox="0 0 2550.000000 2700.000000"
 preserveAspectRatio="xMidYMid meet">

<g transform="translate(0.000000,2700.000000) scale(0.100000,-0.100000)"
fill="#3a4548" stroke="none">
<path d="M16422 20642 l-52 -47 0 -797 0 -798 -24 0 c-41 0 -76 -36 -76 -79 0
-58 56 -101 88 -69 9 9 12 1 12 -36 0 -34 -7 -56 -24 -79 -13 -18 -35 -57 -50
-88 -22 -48 -26 -69 -26 -150 1 -89 15 -141 34 -122 4 4 4 0 1 -9 -6 -16 36
-101 57 -114 6 -4 2 6 -7 22 -17 29 -17 29 1 6 14 -16 18 -34 15 -68 -2 -33
-6 -43 -14 -35 -17 17 -32 13 -61 -14 -51 -47 -21 -135 47 -135 l27 0 0 -779
c0 -751 -1 -779 -18 -774 -11 2 -32 -7 -50 -22 -39 -32 -42 -73 -10 -110 23
-27 47 -32 66 -13 9 9 12 1 12 -36 0 -34 -6 -56 -24 -79 -13 -18 -36 -56 -50
-86 -22 -47 -26 -68 -26 -146 0 -81 3 -98 29 -147 30 -59 66 -110 72 -103 2 2
2 -16 1 -39 -3 -40 -6 -43 -28 -38 -36 7 -74 -32 -74 -74 0 -26 7 -36 34 -53
19 -12 41 -18 50 -15 14 6 16 -105 18 -1296 l3 -1302 -30 -24 c-16 -12 -32
-20 -35 -17 -3 3 1 8 7 10 7 3 23 13 35 24 20 17 19 17 -14 -2 -40 -22 -46
-33 -25 -46 8 -4 17 -22 20 -40 5 -24 2 -34 -12 -45 -11 -8 -21 -30 -24 -55
l-5 -43 137 0 c150 0 161 4 161 55 0 24 -7 35 -30 48 -34 21 -39 50 -12 80 16
19 16 20 -2 31 -10 6 -27 18 -38 27 -20 15 -20 26 -20 985 1 1762 -1 1604 23
1604 11 0 34 9 50 21 58 41 26 139 -41 126 -29 -6 -30 -5 -30 29 0 20 9 48 19
63 11 15 33 54 50 86 29 55 31 67 31 162 0 57 -4 103 -8 103 -4 0 -13 15 -20
34 -7 18 -26 53 -42 77 -20 29 -30 57 -30 82 0 34 2 37 24 31 35 -9 76 33 76
79 0 42 -40 81 -77 74 l-23 -4 0 778 0 778 33 3 c22 2 31 7 29 18 -2 8 0 12 4
8 14 -15 34 15 34 51 0 58 -56 101 -88 69 -24 -24 -13 60 12 101 63 99 76 140
76 236 0 78 -4 99 -26 146 -14 30 -37 68 -50 86 -28 38 -35 109 -8 99 8 -3 12
-2 9 4 -3 6 1 10 10 10 64 0 91 90 36 123 -16 9 -39 17 -50 17 l-21 0 0 845
c0 465 -3 845 -7 845 -5 0 -32 -22 -61 -48z m-52 -1692 c0 -5 -4 -10 -10 -10
-5 0 -10 5 -10 10 0 6 5 10 10 10 6 0 10 -4 10 -10z m-35 -93 c16 -5 15 -5 -4
-4 -13 1 -30 13 -39 27 l-14 25 18 -22 c11 -11 28 -24 39 -26z m141 -158 c1
-5 2 -14 3 -20 0 -5 5 -7 11 -4 6 4 7 -1 3 -11 -4 -11 -2 -15 4 -11 6 4 11 1
10 -6 -1 -30 4 -48 12 -43 4 3 6 -6 3 -21 -3 -15 -1 -23 4 -20 19 12 -4 -142
-30 -198 -25 -55 -26 -56 -63 -53 -32 3 -41 9 -60 43 -54 99 -53 227 1 313 20
32 32 41 58 44 35 3 42 1 44 -13z m-152 -658 c-2 -3 -12 3 -22 13 -16 17 -16
18 5 5 12 -7 20 -15 17 -18z m46 -1622 c0 -6 -4 -7 -10 -4 -5 3 -10 11 -10 16
0 6 5 7 10 4 6 -3 10 -11 10 -16z m140 7 c0 -3 -4 -8 -10 -11 -5 -3 -10 -1
-10 4 0 6 5 11 10 11 6 0 10 -2 10 -4z m-39 -253 c24 -31 36 -56 49 -112 17
-72 7 -151 -27 -220 -44 -88 -89 -81 -133 20 -41 98 -35 209 17 292 18 28 30
37 52 37 15 0 34 -8 42 -17z m-105 -620 c-10 -10 -19 5 -10 18 6 11 8 11 12 0
2 -7 1 -15 -2 -18z m154 13 c0 -11 -19 -15 -25 -6 -3 5 1 10 9 10 9 0 16 -2
16 -4z"/>
<path d="M16546 18855 c-11 -8 -15 -15 -9 -15 6 0 16 7 23 15 16 19 11 19 -14
0z"/>
<path d="M16298 12786 c-28 -23 -38 -69 -18 -81 6 -4 10 7 10 26 0 20 9 42 22
56 28 30 21 29 -14 -1z"/>
</g>
</svg>
