<?xml version="1.0" standalone="no"?>
<!DOCTYPE svg PUBLIC "-//W3C//DTD SVG 20010904//EN"
 "http://www.w3.org/TR/2001/REC-SVG-20010904/DTD/svg10.dtd">
<svg version="1.0" xmlns="http://www.w3.org/2000/svg"
 width="2550.000000pt" height="2700.000000pt" viewBox="0 0 2550.000000 2700.000000"
 preserveAspectRatio="xMidYMid meet">

<g transform="translate(0.000000,2700.000000) scale(0.100000,-0.100000)"
fill="#3a4548" stroke="none">
<path d="M18200 22367 l-45 -42 2 -802 2 -803 -29 0 c-19 0 -36 -10 -54 -31
-31 -37 -32 -44 -6 -87 21 -34 55 -53 79 -44 24 9 5 -66 -27 -112 -39 -54 -72
-152 -72 -214 0 -68 25 -147 70 -217 46 -74 57 -168 13 -124 -24 24 -83 -27
-83 -70 0 -19 61 -80 83 -83 l22 -3 0 -780 c0 -673 -2 -780 -14 -777 -30 7
-61 -9 -77 -40 -15 -30 -15 -34 1 -64 18 -34 56 -57 80 -48 31 12 17 -56 -25
-120 -91 -141 -91 -288 1 -429 26 -41 38 -70 37 -92 -1 -30 -3 -32 -37 -31
-31 1 -38 -4 -56 -36 l-20 -37 21 -27 c11 -15 36 -33 55 -39 l34 -12 0 -1289
c0 -709 -3 -1296 -7 -1305 -4 -9 -21 -22 -38 -29 -35 -14 -36 -17 -14 -41 22
-24 11 -62 -21 -77 -27 -12 -33 -48 -15 -82 9 -16 23 -18 152 -17 79 1 149 6
156 10 6 5 12 23 12 41 0 25 -7 38 -25 50 -30 20 -35 70 -8 85 10 5 14 13 10
17 -5 5 -12 2 -17 -6 -9 -15 -11 -13 -14 12 0 6 -7 13 -15 16 -9 3 -11 0 -6
-8 5 -9 4 -11 -4 -6 -6 4 -9 11 -6 16 3 5 1 11 -5 15 -7 4 -10 437 -10 1309
l0 1303 23 -4 c34 -7 77 32 77 68 0 37 -40 79 -75 79 -21 0 -25 5 -25 29 0 16
15 51 34 80 19 27 42 74 52 103 36 106 17 227 -52 329 -26 39 -34 62 -34 95 0
43 1 43 29 38 21 -5 34 -1 50 15 42 42 14 115 -50 128 l-29 6 0 782 0 782 24
-4 c33 -7 76 36 76 75 0 34 -46 82 -78 82 -18 0 -22 6 -22 29 0 15 8 39 18 52
38 50 61 100 77 167 16 66 16 75 1 146 -12 52 -29 94 -57 135 -31 47 -39 68
-39 105 0 44 1 46 20 36 27 -14 57 -4 65 21 4 10 10 19 15 19 14 0 -8 62 -32
87 -12 12 -32 23 -45 23 l-23 0 0 845 c0 956 7 884 -80 802z m95 -1697 c-3 -5
-11 -10 -16 -10 -6 0 -7 5 -4 10 3 6 11 10 16 10 6 0 7 -4 4 -10z m-15 -295
c21 -42 25 -64 25 -140 0 -80 -3 -97 -30 -150 -26 -52 -34 -60 -61 -63 -29 -3
-34 1 -53 40 -43 90 -46 202 -7 293 23 55 43 74 74 72 22 -2 32 -12 52 -52z
m15 -2245 c3 -5 1 -10 -4 -10 -6 0 -11 5 -11 10 0 6 2 10 4 10 3 0 8 -4 11
-10z m-135 -10 c0 -5 -4 -10 -10 -10 -5 0 -10 5 -10 10 0 6 5 10 10 10 6 0 10
-4 10 -10z m120 -285 c21 -42 25 -64 25 -140 0 -80 -3 -97 -30 -150 -27 -53
-33 -60 -60 -60 -26 0 -33 7 -59 59 -47 96 -38 229 22 324 11 17 23 22 46 20
26 -3 35 -11 56 -53z m15 -564 c3 -5 1 -12 -5 -16 -5 -3 -10 1 -10 9 0 18 6
21 15 7z m29 -2797 c3 -8 2 -12 -4 -9 -6 3 -10 10 -10 16 0 14 7 11 14 -7z"/>
<path d="M17310 21505 c0 -9 9 -15 21 -15 18 0 19 2 9 15 -7 8 -16 15 -21 15
-5 0 -9 -7 -9 -15z"/>
</g>
</svg>
