<?xml version="1.0" standalone="no"?>
<!DOCTYPE svg PUBLIC "-//W3C//DTD SVG 20010904//EN"
 "http://www.w3.org/TR/2001/REC-SVG-20010904/DTD/svg10.dtd">
<svg version="1.0" xmlns="http://www.w3.org/2000/svg"
 width="2550.000000pt" height="2700.000000pt" viewBox="0 0 2550.000000 2700.000000"
 preserveAspectRatio="xMidYMid meet">

<g transform="translate(0.000000,2700.000000) scale(0.100000,-0.100000)"
fill="#3a4548" stroke="none">
<path d="M19030 23245 l-44 -45 3 -815 3 -815 -36 0 c-25 0 -39 -6 -50 -22
-32 -46 -13 -93 45 -112 48 -15 51 -57 9 -122 -40 -63 -70 -162 -70 -229 0
-69 29 -160 68 -218 23 -32 32 -57 32 -85 0 -48 -5 -54 -37 -39 -22 10 -28 8
-44 -12 -23 -29 -25 -74 -2 -92 9 -8 30 -18 47 -24 l31 -10 0 -795 0 -795 -26
3 c-34 3 -69 -31 -69 -67 0 -32 19 -51 64 -66 45 -15 48 -60 6 -122 -39 -60
-70 -160 -70 -228 0 -69 29 -161 69 -220 26 -38 31 -56 29 -89 -3 -39 -5 -41
-31 -38 -36 5 -67 -22 -67 -58 0 -31 22 -53 65 -67 l30 -10 3 -868 c2 -949 6
-894 -54 -909 -28 -7 -30 -18 -9 -36 24 -20 18 -47 -15 -72 -22 -16 -30 -30
-30 -51 l0 -30 128 6 c70 4 146 7 170 7 35 0 42 3 42 19 0 11 -13 29 -30 41
-33 24 -40 60 -15 80 19 16 4 30 -31 30 -12 0 -27 7 -34 15 -7 8 -9 15 -4 15
5 0 8 386 6 885 l-2 885 33 0 c85 0 90 96 7 121 -36 11 -40 15 -40 45 0 20 12
50 30 78 49 71 63 122 64 221 1 79 -2 97 -27 150 -16 33 -37 70 -48 81 -16 17
-20 32 -17 75 l3 54 32 -3 c25 -2 35 2 49 22 26 40 12 74 -41 97 l-45 20 0
794 0 795 34 0 c37 0 66 28 66 62 0 21 -47 67 -77 74 -33 9 -30 53 7 108 41
61 60 118 67 201 6 83 -16 158 -69 233 -29 42 -32 52 -28 97 5 49 6 50 37 48
23 -2 36 3 47 19 29 41 20 66 -34 100 l-50 31 0 842 c0 759 -2 843 -16 849 -9
3 -17 6 -18 6 -1 0 -22 -20 -46 -45z m53 -1965 c37 -44 52 -96 52 -186 0 -71
-4 -87 -35 -150 -19 -38 -42 -70 -51 -72 -51 -9 -96 111 -86 232 6 72 60 205
84 206 6 0 22 -13 36 -30z m-10 -2538 c64 -70 83 -239 39 -337 -46 -100 -79
-111 -116 -36 -31 61 -42 158 -27 231 11 55 64 160 80 160 4 0 15 -8 24 -18z"/>
</g>
</svg>
