<?xml version="1.0" standalone="no"?>
<!DOCTYPE svg PUBLIC "-//W3C//DTD SVG 20010904//EN"
 "http://www.w3.org/TR/2001/REC-SVG-20010904/DTD/svg10.dtd">
<svg version="1.0" xmlns="http://www.w3.org/2000/svg"
 width="2550.000000pt" height="2700.000000pt" viewBox="0 0 2550.000000 2700.000000"
 preserveAspectRatio="xMidYMid meet">

<g transform="translate(0.000000,2700.000000) scale(0.100000,-0.100000)"
fill="#3a4548" stroke="none">
<path d="M22248 26088 l-3 -573 -30 -5 c-22 -4 -35 -15 -50 -42 -26 -48 -11
-82 45 -104 33 -13 40 -21 40 -44 0 -15 -11 -47 -24 -71 -88 -159 -91 -349 -6
-483 24 -38 30 -57 28 -90 -3 -40 -4 -41 -36 -38 -29 3 -34 0 -48 -33 -22 -53
-8 -87 42 -101 l39 -11 0 -834 c0 -787 -1 -834 -17 -831 -27 4 -54 -14 -68
-48 -18 -44 1 -87 43 -96 58 -12 61 -42 12 -139 -78 -156 -76 -338 6 -467 23
-35 30 -56 27 -85 -3 -36 -5 -38 -37 -38 -31 0 -37 -4 -49 -38 -19 -48 -5 -84
35 -93 15 -3 34 -7 41 -10 9 -3 12 -193 12 -909 0 -997 3 -946 -61 -960 -34
-8 -34 -8 -13 -40 20 -31 11 -61 -27 -80 -16 -9 -29 -23 -29 -31 0 -18 -14
-18 248 7 l134 13 -26 19 c-30 21 -33 52 -10 78 16 17 15 19 -10 29 -15 5 -36
10 -46 10 -19 0 -19 22 -20 940 l0 940 25 0 c36 0 65 33 65 74 0 37 -14 54
-57 65 -41 11 -42 49 -4 125 79 159 80 332 2 458 -27 43 -31 59 -29 102 3 50
3 51 34 48 37 -4 57 27 52 78 -3 35 -15 45 -61 55 l-27 5 2 838 3 837 27 3
c34 4 58 36 58 78 0 35 -15 52 -57 63 -40 10 -41 47 -4 123 81 167 79 350 -6
465 -18 24 -23 45 -23 88 l0 57 29 -7 c23 -5 32 -2 45 17 17 23 21 75 8 94 -4
6 -18 15 -32 19 -52 16 -50 -11 -50 586 l0 559 -70 0 -70 0 -2 -572z m114
-924 c34 -96 21 -231 -32 -346 -18 -38 -28 -35 -50 15 -26 60 -34 141 -20 217
14 78 55 173 72 168 7 -3 20 -27 30 -54z m3 -2699 c24 -79 17 -210 -15 -289
-14 -33 -31 -61 -37 -64 -18 -5 -51 76 -58 145 -8 71 7 158 40 231 30 65 43
61 70 -23z"/>
<path d="M21576 26209 c-41 -46 -46 -56 -46 -100 l0 -49 70 0 70 0 0 95 c0 52
-4 95 -9 95 -5 0 -16 2 -24 6 -9 3 -32 -14 -61 -47z"/>
</g>
</svg>
