<?xml version="1.0" standalone="no"?>
<!DOCTYPE svg PUBLIC "-//W3C//DTD SVG 20010904//EN"
 "http://www.w3.org/TR/2001/REC-SVG-20010904/DTD/svg10.dtd">
<svg version="1.0" xmlns="http://www.w3.org/2000/svg"
 width="2550.000000pt" height="2700.000000pt" viewBox="0 0 2550.000000 2700.000000"
 preserveAspectRatio="xMidYMid meet">

<g transform="translate(0.000000,2700.000000) scale(0.100000,-0.100000)"
fill="#3a4548" stroke="none">
<path d="M22244 26985 c-4 -8 -4 -70 0 -137 3 -68 5 -140 6 -160 l0 -38 70 0
70 0 0 175 0 175 -70 0 c-54 0 -72 -4 -76 -15z"/>
<path d="M23088 26819 l-3 -183 -32 -8 c-39 -10 -63 -42 -63 -84 0 -35 20 -57
65 -71 42 -13 44 -49 7 -116 -51 -90 -67 -152 -66 -258 0 -109 18 -170 65
-231 23 -29 29 -47 29 -84 0 -46 0 -46 -30 -41 -23 5 -33 1 -50 -20 -36 -46
-22 -107 29 -118 16 -3 34 -12 40 -19 8 -9 10 -261 9 -847 l-3 -834 -27 -3
c-76 -9 -93 -129 -21 -147 65 -16 67 -40 14 -150 -47 -94 -61 -163 -55 -260 6
-92 16 -127 60 -197 27 -45 34 -67 32 -95 -3 -36 -5 -38 -36 -38 -34 -1 -48
-13 -58 -52 -12 -44 3 -70 48 -85 l43 -13 2 -1389 c2 -1245 0 -1391 -14 -1412
-8 -13 -19 -24 -23 -24 -5 0 -21 -5 -36 -10 l-27 -11 22 -23 c29 -31 21 -58
-24 -85 -34 -20 -43 -35 -27 -44 4 -3 86 4 182 14 96 10 181 19 189 19 9 0 4
9 -13 25 -30 28 -32 42 -10 73 14 21 14 23 -11 32 -14 6 -34 10 -44 10 -10 0
-18 7 -18 18 1 9 0 281 -1 603 -2 578 -2 587 -22 592 -19 5 -20 14 -20 235 0
222 1 231 20 237 20 6 20 15 20 581 0 451 3 575 13 578 6 3 24 7 38 10 34 7
56 57 43 94 -6 18 -22 30 -51 40 -37 12 -43 17 -43 42 0 16 15 58 34 92 83
151 80 338 -6 467 -24 36 -28 52 -26 95 3 51 3 51 35 48 29 -3 35 1 49 31 19
40 12 85 -14 93 -9 3 -29 11 -45 16 l-27 10 2 847 3 846 27 3 c30 4 68 44 68
73 0 34 -13 51 -56 70 -55 23 -56 40 -9 134 81 160 79 337 -5 462 -26 39 -31
53 -28 97 3 50 3 51 34 48 26 -2 33 2 49 31 27 51 15 84 -40 107 l-45 19 0
169 0 168 -70 2 -70 3 -2 -182z m101 -503 c31 -37 47 -172 31 -252 -7 -30 -23
-80 -36 -110 -30 -69 -50 -69 -75 1 -33 95 -20 235 32 338 21 40 30 45 48 23z
m4 -2743 c51 -119 47 -246 -12 -360 -31 -62 -45 -56 -75 31 -30 93 -16 227 35
329 11 20 23 37 28 37 4 0 15 -17 24 -37z"/>
</g>
</svg>
