<?xml version="1.0" standalone="no"?>
<!DOCTYPE svg PUBLIC "-//W3C//DTD SVG 20010904//EN"
 "http://www.w3.org/TR/2001/REC-SVG-20010904/DTD/svg10.dtd">
<svg version="1.0" xmlns="http://www.w3.org/2000/svg"
 width="2550.000000pt" height="2700.000000pt" viewBox="0 0 2550.000000 2700.000000"
 preserveAspectRatio="xMidYMid meet">

<g transform="translate(0.000000,2700.000000) scale(0.100000,-0.100000)"
fill="#3a4548" stroke="none">
<path d="M24850 26550 l0 -450 -29 0 c-37 0 -71 -40 -71 -85 0 -35 18 -55 68
-75 43 -17 42 -48 -3 -138 -61 -122 -80 -251 -51 -357 15 -59 48 -126 70 -144
11 -9 16 -31 16 -68 l0 -55 -29 7 c-23 5 -33 1 -50 -21 -29 -36 -28 -89 2
-108 12 -7 34 -16 50 -20 l27 -6 0 -1433 c0 -787 -3 -1442 -6 -1454 -4 -14
-19 -26 -43 -34 -52 -17 -52 -18 -30 -40 29 -29 20 -60 -24 -88 -69 -45 -46
-46 213 -10 116 16 121 18 110 39 -11 21 -3 50 18 66 18 13 12 17 -53 34 -27
7 -54 17 -60 23 -6 6 -3 7 10 3 20 -6 20 -2 17 615 -1 380 -6 628 -12 639 -13
25 -13 477 0 485 6 4 10 212 10 591 0 591 0 591 33 585 19 -3 50 23 63 54 19
47 6 74 -47 99 -56 27 -60 50 -21 119 100 175 95 393 -10 513 -15 17 -18 34
-16 80 l3 59 35 0 c30 0 37 5 53 36 23 48 10 79 -46 105 l-42 19 -3 433 -2
432 -75 0 -75 0 0 -450z m122 -797 c32 -72 36 -193 9 -280 -24 -79 -56 -136
-74 -131 -7 2 -22 33 -35 69 -18 51 -22 80 -19 144 5 105 55 245 88 245 5 0
20 -21 31 -47z m-97 -393 c3 -5 1 -10 -4 -10 -6 0 -11 5 -11 10 0 6 2 10 4 10
3 0 8 -4 11 -10z"/>
</g>
</svg>
