<?xml version="1.0" standalone="no"?>
<!DOCTYPE svg PUBLIC "-//W3C//DTD SVG 20010904//EN"
 "http://www.w3.org/TR/2001/REC-SVG-20010904/DTD/svg10.dtd">
<svg version="1.0" xmlns="http://www.w3.org/2000/svg"
 width="2550.000000pt" height="2700.000000pt" viewBox="0 0 2550.000000 2700.000000"
 preserveAspectRatio="xMidYMid meet">

<g transform="translate(0.000000,2700.000000) scale(0.100000,-0.100000)"
fill="#3a4548" stroke="none">
<path d="M9309 14103 c0 -10 -1 -468 -2 -1018 l-2 -1000 -31 -3 c-71 -7 -71
-127 0 -134 28 -3 31 -6 34 -42 2 -28 -5 -56 -27 -100 -38 -77 -52 -141 -52
-233 0 -100 8 -137 48 -220 44 -91 43 -136 -3 -141 -66 -6 -75 -132 -10 -132
13 0 29 -6 35 -14 8 -10 11 -238 9 -852 l-3 -839 -27 -3 c-73 -9 -76 -142 -3
-142 36 0 44 -56 17 -109 -84 -161 -84 -395 -1 -513 14 -20 19 -40 17 -70 -3
-40 -5 -43 -33 -43 -21 0 -33 -7 -42 -25 -29 -57 -4 -110 50 -110 l27 0 -1
-1387 c0 -1107 -3 -1392 -13 -1405 -7 -10 -30 -25 -50 -33 l-37 -16 20 -25
c27 -35 11 -77 -36 -95 -17 -6 -23 -16 -23 -38 0 -16 4 -33 10 -36 5 -3 51
-14 102 -23 l93 -18 107 26 108 25 0 38 c0 24 -5 37 -13 37 -22 0 -57 39 -57
64 0 13 7 29 15 36 22 18 19 27 -12 33 -16 3 -36 12 -45 19 -17 12 -18 93 -18
1408 l-1 1395 26 3 c66 8 77 142 11 142 -52 0 -55 42 -12 135 15 32 35 96 43
143 20 107 7 207 -37 298 -22 44 -30 76 -30 114 0 50 1 52 24 46 32 -8 56 24
56 74 0 41 -14 60 -46 60 -13 0 -25 4 -28 9 -3 5 -6 386 -6 847 l-1 839 26 3
c70 9 76 142 6 142 -25 0 -29 4 -33 35 -3 24 5 53 25 94 15 33 36 96 44 141
22 109 9 209 -42 315 -19 41 -35 88 -35 103 0 33 20 55 43 47 20 -8 47 31 47
68 0 44 -17 67 -50 67 -19 0 -30 6 -34 18 -3 9 -4 465 -3 1012 l2 995 -73 3
c-63 3 -72 1 -73 -15z m105 -2391 c22 -80 21 -185 -5 -267 -12 -39 -25 -65
-32 -62 -22 7 -49 137 -43 212 6 85 32 175 50 175 8 0 20 -25 30 -58z m-3
-2694 c21 -64 18 -230 -5 -296 -10 -29 -23 -51 -29 -49 -18 6 -46 106 -46 167
-1 85 35 220 58 220 4 0 14 -19 22 -42z"/>
</g>
</svg>
