<?xml version="1.0" standalone="no"?>
<!DOCTYPE svg PUBLIC "-//W3C//DTD SVG 20010904//EN"
 "http://www.w3.org/TR/2001/REC-SVG-20010904/DTD/svg10.dtd">
<svg version="1.0" xmlns="http://www.w3.org/2000/svg"
 width="2550.000000pt" height="2700.000000pt" viewBox="0 0 2550.000000 2700.000000"
 preserveAspectRatio="xMidYMid meet">

<g transform="translate(0.000000,2700.000000) scale(0.100000,-0.100000)"
fill="#3a4548" stroke="none">
<path d="M14636 18951 l-49 -50 -1 -787 -1 -787 -30 -10 c-45 -15 -65 -36 -65
-72 0 -39 14 -52 60 -57 33 -3 35 -5 38 -45 2 -33 -3 -50 -27 -83 -101 -140
-96 -344 12 -466 12 -15 17 -33 15 -55 -3 -29 -8 -34 -36 -40 -39 -8 -61 -33
-62 -70 0 -32 19 -49 63 -58 l32 -7 3 -778 c1 -567 -1 -782 -9 -792 -6 -8 -21
-14 -34 -14 -42 0 -70 -60 -46 -99 5 -8 26 -17 47 -20 37 -6 39 -8 42 -47 2
-33 -4 -51 -36 -100 -52 -78 -62 -112 -62 -204 0 -91 20 -156 67 -223 46 -65
44 -108 -6 -118 -42 -9 -63 -30 -63 -64 0 -34 21 -55 63 -64 l34 -7 0 -1307 0
-1306 -24 -23 c-16 -16 -25 -19 -28 -10 -3 6 -9 12 -13 12 -5 0 -2 -13 8 -29
15 -26 15 -32 2 -57 -8 -15 -23 -29 -32 -32 -13 -3 -18 -14 -18 -36 0 -46 35
-56 190 -50 l125 4 3 30 c3 24 -3 36 -27 56 -34 28 -39 55 -16 74 22 18 19 24
-20 43 -20 9 -37 26 -40 39 -3 13 -4 601 -3 1308 l3 1284 35 7 c42 9 73 44 64
73 -11 38 -36 57 -68 54 -29 -3 -31 -1 -34 33 -2 27 5 48 32 87 93 139 93 308
0 439 -26 36 -34 58 -34 90 l0 43 40 0 c34 0 42 4 55 30 14 27 14 33 0 59 -12
24 -23 30 -52 33 l-38 3 0 790 0 789 34 7 c42 9 64 30 64 63 0 42 -31 69 -70
61 -33 -6 -33 -6 -33 35 0 29 8 51 25 74 102 134 106 307 9 454 -27 41 -34 62
-32 90 3 35 5 37 41 40 32 3 41 8 52 35 20 48 -2 85 -52 89 l-38 3 -5 843 -5
843 -49 -50z m-56 -1677 c0 -17 -22 -14 -28 4 -2 7 3 12 12 12 9 0 16 -7 16
-16z m135 -14 c-5 -8 -11 -8 -17 -2 -6 6 -7 16 -3 22 5 8 11 8 17 2 6 -6 7
-16 3 -22z m-10 -286 c26 -52 30 -69 30 -144 0 -68 -5 -95 -24 -138 -43 -96
-92 -96 -137 0 -39 85 -41 205 -5 286 45 101 84 100 136 -4z m-125 -560 c0
-17 -22 -14 -28 4 -2 7 3 12 12 12 9 0 16 -7 16 -16z m141 -9 c-1 -15 -24 -12
-29 3 -3 9 2 13 12 10 10 -1 17 -7 17 -13z m-138 -1660 c1 -5 -6 -11 -15 -13
-11 -2 -18 3 -18 13 0 17 30 18 33 0z m137 0 c0 -8 -7 -15 -15 -15 -8 0 -15 7
-15 15 0 8 7 15 15 15 8 0 15 -7 15 -15z m-49 -236 c42 -42 63 -108 64 -199 0
-73 -4 -94 -29 -148 -21 -44 -36 -64 -52 -68 -37 -10 -50 0 -80 63 -52 106
-36 279 33 355 21 24 38 23 64 -3z m-86 -619 c3 -6 -1 -13 -10 -16 -19 -8 -30
0 -20 15 8 14 22 14 30 1z m135 -5 c0 -8 -7 -15 -15 -15 -16 0 -20 12 -8 23
11 12 23 8 23 -8z m-160 -2779 c0 -3 -4 -8 -10 -11 -5 -3 -10 -1 -10 4 0 6 5
11 10 11 6 0 10 -2 10 -4z"/>
</g>
</svg>
