<?xml version="1.0" standalone="no"?>
<!DOCTYPE svg PUBLIC "-//W3C//DTD SVG 20010904//EN"
 "http://www.w3.org/TR/2001/REC-SVG-20010904/DTD/svg10.dtd">
<svg version="1.0" xmlns="http://www.w3.org/2000/svg"
 width="2550.000000pt" height="2700.000000pt" viewBox="0 0 2550.000000 2700.000000"
 preserveAspectRatio="xMidYMid meet">

<g transform="translate(0.000000,2700.000000) scale(0.100000,-0.100000)"
fill="#65340A" stroke="none">
<path d="M1854 13701 c-2 -2 -4 -520 -4 -1151 0 -1134 0 -1147 -20 -1165 -24
-21 -25 -43 -5 -69 13 -17 13 -22 0 -42 -21 -32 -19 -47 10 -74 28 -26 31 -53
10 -90 -8 -14 -14 -34 -15 -46 0 -11 -9 -29 -20 -39 -71 -64 -98 -156 -64
-215 16 -26 16 -31 -6 -83 -22 -54 -23 -57 -6 -100 9 -24 32 -59 51 -77 20
-19 35 -44 35 -57 0 -13 9 -40 20 -60 26 -49 25 -67 -5 -97 -26 -26 -32 -50
-15 -61 13 -8 13 -52 0 -60 -16 -10 -11 -41 10 -60 20 -18 20 -31 20 -719 0
-680 -1 -702 -20 -726 -23 -29 -24 -43 -8 -70 10 -16 10 -24 0 -40 -18 -29
-15 -44 12 -71 38 -38 19 -121 -46 -200 -60 -73 -74 -139 -43 -198 13 -26 12
-33 -7 -79 -19 -44 -20 -56 -10 -90 7 -22 30 -60 52 -85 22 -25 40 -52 40 -61
0 -9 9 -33 20 -53 22 -41 18 -75 -12 -107 -21 -23 -23 -39 -6 -66 10 -15 9
-24 -2 -44 -11 -22 -11 -30 0 -51 7 -14 17 -25 22 -25 11 0 10 -1907 -1 -1929
-6 -10 -28 -26 -51 -36 l-40 -18 21 -24 c19 -19 21 -26 11 -48 -7 -14 -23 -30
-37 -37 -20 -9 -25 -18 -25 -50 0 -33 3 -38 23 -39 12 0 60 -4 107 -8 72 -7
100 -4 182 15 54 12 102 25 106 28 14 9 1 67 -17 73 -49 18 -65 61 -35 94 18
20 20 18 -55 44 -7 3 -31 0 -53 -6 -22 -5 -43 -8 -46 -4 -9 9 19 25 46 25 22
0 22 1 22 168 0 92 3 524 6 960 5 769 6 795 25 815 23 25 24 50 4 67 -14 12
-14 15 0 36 21 32 19 47 -10 74 -30 28 -31 54 -5 98 11 18 20 45 20 61 0 18
14 46 39 77 69 89 71 102 25 175 l-22 36 23 39 c40 64 30 107 -39 173 -22 22
-36 45 -36 60 -1 15 -7 37 -15 51 -21 37 -18 72 10 99 29 27 31 39 10 67 -12
19 -12 24 0 40 20 26 18 48 -5 69 -20 18 -20 31 -20 727 0 389 4 708 8 708 5
0 15 11 22 25 11 21 11 29 0 51 -11 20 -12 29 -2 44 18 29 15 44 -13 70 -30
28 -32 59 -5 102 11 18 20 44 20 57 0 13 18 47 39 75 62 81 67 100 35 161
l-26 52 21 41 c34 67 28 93 -41 171 -21 24 -38 53 -38 65 -1 12 -7 32 -15 46
-21 37 -18 72 10 99 29 27 31 39 10 67 -12 19 -12 24 0 40 20 26 18 48 -5 69
-20 18 -20 33 -22 1169 l-3 1151 -73 0 c-40 0 -75 -2 -78 -4z m101 -2661 c18
-20 18 -21 -5 -45 -29 -31 -36 -31 -56 0 -16 24 -16 27 1 45 23 25 37 25 60 0z
m-85 -126 c0 -14 -65 -76 -73 -68 -8 9 3 63 21 98 l14 29 19 -24 c10 -13 19
-29 19 -35z m175 26 c15 -29 21 -100 8 -100 -4 0 -24 16 -44 36 l-38 37 22 28
c26 36 33 36 52 -1z m-77 -118 l42 -38 -44 -43 -44 -44 -29 21 c-15 11 -37 30
-48 42 l-20 22 45 39 c25 21 47 39 50 39 3 -1 24 -18 48 -38z m96 -140 c-1
-38 -26 -93 -42 -91 -4 0 -18 14 -31 30 l-24 30 39 40 c21 21 43 38 49 36 5
-2 10 -22 9 -45z m-225 -4 c28 -32 29 -34 13 -60 -9 -16 -20 -28 -25 -28 -12
0 -37 65 -37 95 0 34 14 32 49 -7z m116 -114 c17 -26 16 -27 -9 -52 -25 -25
-26 -25 -46 -7 -24 22 -25 42 -3 67 22 25 38 23 58 -8z m-10 -2194 c17 -18 17
-21 1 -45 -20 -30 -37 -32 -54 -4 -11 17 -11 25 3 45 19 29 27 30 50 4z m100
-100 c18 -35 20 -100 3 -100 -15 0 -78 60 -78 74 0 12 40 56 51 56 5 0 15 -13
24 -30z m-191 -6 c5 -18 0 -33 -16 -54 -28 -35 -48 -39 -41 -7 19 87 44 114
57 61z m103 -113 l42 -38 -42 -41 c-24 -23 -47 -42 -52 -42 -13 0 -75 62 -75
74 0 11 70 86 80 86 3 -1 24 -18 47 -39z m108 -111 c8 -25 -11 -94 -31 -111
-13 -10 -20 -8 -47 19 l-31 32 39 39 c45 45 61 50 70 21z m-232 -38 c25 -26
26 -31 15 -60 -7 -18 -17 -31 -22 -29 -21 7 -47 117 -28 117 5 0 20 -13 35
-28z m116 -111 l20 -28 -24 -23 c-21 -20 -27 -21 -42 -9 -30 24 -32 32 -15 61
21 35 35 35 61 -1z"/>
</g>
</svg>
