<?xml version="1.0" standalone="no"?>
<!DOCTYPE svg PUBLIC "-//W3C//DTD SVG 20010904//EN"
 "http://www.w3.org/TR/2001/REC-SVG-20010904/DTD/svg10.dtd">
<svg version="1.0" xmlns="http://www.w3.org/2000/svg"
 width="2550.000000pt" height="2700.000000pt" viewBox="0 0 2550.000000 2700.000000"
 preserveAspectRatio="xMidYMid meet">

<g transform="translate(0.000000,2700.000000) scale(0.100000,-0.100000)"
fill="#65340A" stroke="none">
<path d="M2680 12562 c0 -1136 0 -1149 -20 -1167 -23 -20 -26 -55 -8 -73 10
-10 10 -17 0 -32 -17 -29 -15 -54 8 -75 36 -33 15 -141 -39 -200 -68 -75 -80
-119 -50 -182 l20 -42 -20 -40 c-12 -22 -21 -52 -21 -66 0 -33 31 -93 64 -124
14 -14 26 -32 26 -41 0 -9 9 -33 20 -55 20 -39 27 -105 12 -105 -5 0 -15 -11
-22 -24 -10 -21 -11 -31 0 -56 10 -23 10 -34 1 -43 -17 -17 -13 -52 9 -72 20
-18 20 -31 20 -713 l0 -694 -22 -30 c-19 -27 -20 -34 -9 -65 10 -26 10 -38 2
-46 -18 -18 -13 -56 9 -69 15 -10 20 -24 20 -55 0 -23 -4 -45 -10 -48 -5 -3
-10 -14 -10 -25 0 -10 -16 -37 -36 -61 -68 -81 -83 -143 -51 -204 14 -28 13
-33 -4 -65 -34 -64 -16 -142 45 -199 14 -14 26 -32 26 -40 0 -9 9 -33 20 -54
11 -20 20 -52 20 -70 0 -21 -7 -36 -20 -45 -21 -13 -27 -56 -10 -67 15 -9 12
-36 -6 -56 -16 -17 -15 -21 10 -53 l26 -35 0 -941 c0 -568 -4 -948 -9 -959 -6
-10 -28 -26 -50 -36 -38 -17 -54 -35 -31 -35 5 0 14 -9 20 -20 14 -26 -1 -55
-40 -75 -25 -13 -30 -22 -30 -50 0 -19 3 -35 8 -36 4 0 16 -2 27 -4 102 -16
205 -13 295 9 l95 23 3 36 c3 30 -1 36 -20 42 -31 10 -58 35 -58 53 0 9 9 26
21 38 l20 22 -45 15 c-33 11 -55 13 -78 6 -41 -11 -48 -11 -48 1 0 5 16 12 35
16 l35 6 0 950 0 949 22 30 c20 27 21 32 9 65 -9 26 -10 39 -2 47 18 18 13 56
-9 69 -25 16 -27 74 -3 100 9 11 17 34 16 52 -1 26 9 46 43 87 60 72 63 91 30
155 l-27 52 20 41 c33 64 28 92 -28 156 -32 36 -51 69 -55 93 -18 104 -18 107
3 126 24 21 27 47 9 75 -9 15 -8 24 4 43 15 22 15 27 0 51 -9 15 -20 27 -24
27 -5 0 -8 317 -8 705 0 388 3 705 8 705 4 0 15 12 24 27 15 24 15 29 0 51
-14 22 -14 26 2 53 17 28 16 29 -8 54 -32 32 -33 71 -5 120 12 19 18 42 15 51
-3 9 13 40 44 80 58 75 61 98 24 161 l-25 44 20 35 c37 63 27 108 -41 180 -29
31 -45 74 -55 146 -4 28 0 41 16 57 24 24 26 43 9 71 -10 15 -9 24 2 44 11 22
11 30 0 51 -7 14 -17 25 -22 25 -4 0 -8 518 -8 1150 l0 1150 -75 0 -75 0 0
-1148z m101 -1508 c10 -13 10 -20 -3 -42 -22 -36 -34 -38 -54 -7 -16 24 -16
27 1 45 22 24 38 25 56 4z m101 -136 c6 -20 8 -44 4 -53 -5 -15 -12 -12 -45
16 -22 19 -40 38 -40 42 -1 4 9 21 21 38 21 28 23 29 36 12 7 -10 18 -34 24
-55z m-197 36 c17 -26 16 -27 -16 -60 -38 -39 -49 -42 -49 -14 0 25 30 100 40
100 4 0 15 -12 25 -26z m109 -120 l40 -34 -39 -40 c-22 -22 -44 -40 -50 -40
-7 0 -29 15 -51 34 l-39 34 40 41 c21 23 44 41 50 41 5 -1 28 -16 49 -36z m96
-131 c0 -31 -25 -103 -37 -103 -7 0 -52 55 -53 65 0 14 72 85 82 79 4 -3 8
-21 8 -41z m-227 -8 c26 -33 27 -38 15 -65 -16 -38 -24 -38 -43 0 -15 30 -21
100 -7 100 4 0 20 -16 35 -35z m115 -113 c20 -27 20 -27 -2 -55 l-22 -28 -27
21 c-32 26 -33 30 -6 64 26 33 33 33 57 -2z m-3 -2192 c18 -20 18 -21 -5 -45
-29 -31 -38 -31 -52 0 -9 21 -8 28 7 45 23 25 27 25 50 0z m-110 -160 c-16
-17 -33 -30 -38 -30 -11 0 1 56 21 95 l15 30 15 -33 c15 -31 15 -33 -13 -62z
m201 65 c19 -29 25 -96 9 -101 -5 -2 -28 12 -49 30 l-39 34 22 31 c27 38 36
38 57 6z m-81 -125 l40 -41 -45 -39 c-25 -21 -47 -39 -50 -40 -3 0 -23 18 -45
40 l-38 39 40 41 c22 22 45 40 50 40 5 0 27 -18 48 -40z m103 -141 c-3 -32
-12 -58 -25 -70 -19 -19 -19 -19 -48 11 l-29 30 39 40 c54 56 69 53 63 -11z
m-210 -62 c-7 -15 -18 -27 -24 -27 -16 0 -34 46 -34 88 l0 37 35 -35 c33 -33
34 -37 23 -63z m91 -51 c22 -23 22 -25 6 -50 -20 -30 -32 -32 -57 -9 -22 20
-23 32 -2 61 19 28 25 28 53 -2z"/>
</g>
</svg>
