<?xml version="1.0" standalone="no"?>
<!DOCTYPE svg PUBLIC "-//W3C//DTD SVG 20010904//EN"
 "http://www.w3.org/TR/2001/REC-SVG-20010904/DTD/svg10.dtd">
<svg version="1.0" xmlns="http://www.w3.org/2000/svg"
 width="2550.000000pt" height="2700.000000pt" viewBox="0 0 2550.000000 2700.000000"
 preserveAspectRatio="xMidYMid meet">

<g transform="translate(0.000000,2700.000000) scale(0.100000,-0.100000)"
fill="#65340A" stroke="none">
<path d="M4866 15480 l-36 -40 0 -750 c0 -413 -4 -750 -8 -750 -5 0 -14 -11
-21 -24 -10 -19 -10 -27 0 -44 11 -17 11 -25 -1 -46 -11 -22 -11 -30 0 -51 7
-14 17 -25 22 -25 13 0 9 -64 -6 -85 -7 -11 -17 -31 -21 -45 -7 -24 -5 -23 29
9 20 19 38 32 42 29 3 -4 -30 -45 -75 -93 -70 -74 -81 -90 -81 -121 0 -34 26
-94 42 -94 14 0 22 25 19 61 -2 34 21 109 33 109 2 0 14 -14 26 -30 19 -26 20
-35 10 -64 -6 -18 -28 -47 -49 -64 -47 -37 -84 -110 -76 -144 4 -14 25 -48 48
-76 65 -79 85 -164 47 -204 -22 -24 -26 -48 -9 -65 9 -9 9 -20 -1 -43 -12 -28
-11 -34 9 -60 21 -29 21 -30 21 -688 0 -646 0 -659 -20 -677 -23 -21 -25 -37
-8 -65 10 -16 10 -24 0 -40 -17 -28 -15 -44 8 -65 23 -21 26 -66 6 -98 -8 -12
-17 -33 -21 -47 -6 -24 -5 -23 24 8 29 30 51 41 51 24 0 -4 -30 -37 -66 -72
-96 -95 -110 -130 -78 -193 22 -42 21 -42 39 -27 11 9 13 23 9 49 -6 37 16
111 34 111 4 0 19 -14 31 -31 17 -23 20 -34 12 -42 -6 -6 -11 -18 -11 -27 0
-9 -25 -40 -55 -70 -89 -88 -91 -117 -15 -210 37 -44 47 -68 57 -143 4 -31 1
-41 -16 -53 -24 -17 -26 -36 -9 -64 10 -16 10 -24 0 -40 -17 -28 -15 -44 8
-65 20 -18 20 -28 18 -1254 l-3 -1236 -47 -25 -48 -26 22 -22 c19 -18 20 -25
10 -47 -7 -14 -23 -30 -37 -35 -20 -8 -25 -16 -25 -45 0 -31 3 -35 28 -35 15
0 70 -3 122 -6 72 -4 113 -1 169 13 72 17 74 19 77 51 3 24 -1 34 -14 39 -26
9 -52 34 -52 51 0 9 8 24 18 35 9 11 13 22 7 23 -5 2 -26 12 -45 22 l-35 17
-3 1228 -2 1229 21 29 c18 26 20 34 9 60 -10 23 -10 33 -1 42 17 17 13 41 -9
65 -34 36 -18 126 32 180 62 66 77 133 43 185 -15 23 -15 27 4 58 29 48 27 96
-8 151 -16 25 -34 49 -40 52 -6 4 -11 17 -11 29 0 12 -9 39 -20 60 -11 20 -20
48 -20 62 0 14 9 34 20 45 22 22 26 50 9 67 -9 9 -9 19 1 42 11 26 9 34 -9 60
-21 29 -21 35 -21 685 0 643 0 657 20 678 22 24 26 48 9 65 -9 9 -9 19 0 42
13 30 2 71 -19 71 -14 0 -12 53 3 101 6 22 31 63 55 92 51 63 55 89 26 158
-15 34 -14 38 5 70 12 19 21 48 21 65 0 29 -46 114 -69 128 -6 4 -11 17 -11
29 0 12 -9 39 -20 60 -20 37 -27 97 -12 97 5 0 15 11 22 25 11 21 11 29 0 51
-11 20 -12 29 -2 44 17 28 15 44 -8 65 -20 18 -20 31 -20 802 l0 783 -34 0
c-27 0 -41 -8 -70 -40z m64 -1895 l24 -26 -28 -27 -27 -27 -25 29 -25 28 22
24 c28 30 30 30 59 -1z m86 -100 c15 -37 19 -95 6 -95 -4 0 -23 15 -41 34
l-33 34 23 31 c12 17 24 31 26 31 2 0 11 -16 19 -35z m44 -20 c0 -14 -4 -25
-10 -25 -11 0 -14 33 -3 43 11 11 13 8 13 -18z m-119 -86 c21 -17 39 -37 39
-44 0 -13 -64 -75 -77 -75 -4 0 -24 17 -45 37 l-38 37 37 38 c20 21 39 38 41
38 2 0 22 -14 43 -31z m-96 -184 c-4 -11 -8 -28 -9 -38 -1 -9 -8 -23 -15 -30
-10 -9 -11 -9 -6 4 3 9 -3 32 -14 50 -12 19 -21 50 -21 68 l0 35 36 -35 c26
-25 33 -39 29 -54z m196 60 c26 9 24 -9 -6 -42 -14 -16 -31 -37 -39 -47 -13
-19 -14 -18 -31 13 l-17 33 34 35 c25 26 34 31 36 18 3 -11 10 -14 23 -10z
m-101 -145 c0 -4 -9 -15 -20 -25 -16 -15 -22 -15 -35 -5 -20 16 -19 39 2 63
17 18 18 18 35 -3 10 -12 18 -26 18 -30z m-6 -2097 c-26 -35 -32 -35 -57 -1
l-21 28 24 25 24 26 25 -26 25 -25 -20 -27z m82 -48 c15 -37 19 -95 6 -95 -5
0 -21 13 -37 30 -29 30 -29 30 -12 65 9 19 19 35 22 35 3 0 13 -16 21 -35z
m40 -42 c-11 -11 -19 6 -11 24 8 17 8 17 12 0 3 -10 2 -21 -1 -24z m-96 -78
l34 -35 -34 -35 c-19 -19 -40 -35 -47 -35 -7 0 -30 16 -51 35 l-37 35 40 35
c22 19 45 35 51 35 5 0 25 -16 44 -35z m-101 -158 c1 -12 -30 -57 -40 -57 -15
0 -39 58 -39 96 l0 36 39 -33 c22 -19 40 -38 40 -42z m184 49 c20 7 21 3 5
-31 -6 -14 -17 -25 -23 -25 -6 0 -17 -12 -24 -27 -12 -27 -13 -27 -27 -8 -8
10 -14 26 -14 34 0 21 52 74 60 61 4 -6 14 -8 23 -4z m-113 -126 c23 -44 -27
-80 -54 -38 -8 13 -6 22 8 37 24 26 32 26 46 1z m-109 -13 c-10 -9 -11 -8 -5
6 3 10 9 15 12 12 3 -3 0 -11 -7 -18z"/>
</g>
</svg>
