<?xml version="1.0" standalone="no"?>
<!DOCTYPE svg PUBLIC "-//W3C//DTD SVG 20010904//EN"
 "http://www.w3.org/TR/2001/REC-SVG-20010904/DTD/svg10.dtd">
<svg version="1.0" xmlns="http://www.w3.org/2000/svg"
 width="2550.000000pt" height="2700.000000pt" viewBox="0 0 2550.000000 2700.000000"
 preserveAspectRatio="xMidYMid meet">

<g transform="translate(0.000000,2700.000000) scale(0.100000,-0.100000)"
fill="#65340A" stroke="none">
<path d="M7040 16323 c0 -54 0 -376 0 -716 l0 -618 -22 -29 c-19 -26 -20 -32
-8 -55 11 -20 11 -29 1 -49 -10 -18 -10 -29 -2 -45 7 -11 16 -21 21 -21 17 0
11 -54 -10 -85 -11 -16 -20 -39 -20 -50 1 -17 4 -16 25 10 13 16 27 26 31 22
5 -4 -20 -36 -54 -70 -85 -87 -97 -129 -55 -193 14 -22 17 -23 28 -7 7 10 11
32 8 53 -4 31 17 100 31 100 2 0 13 -14 24 -32 24 -37 19 -48 -43 -118 -48
-53 -70 -100 -61 -133 3 -13 23 -46 44 -73 21 -27 43 -65 50 -85 14 -42 16
-89 2 -89 -5 0 -14 -10 -21 -21 -8 -16 -8 -27 2 -45 10 -20 10 -29 -1 -49 -12
-22 -11 -29 8 -54 20 -28 21 -34 21 -640 l1 -612 -22 -30 c-19 -26 -21 -33 -9
-50 10 -17 10 -27 0 -50 -10 -26 -9 -32 10 -53 26 -28 27 -62 1 -101 -11 -16
-20 -39 -20 -50 1 -17 5 -14 30 15 16 19 30 29 30 21 0 -8 -29 -44 -64 -81
-78 -81 -87 -106 -57 -167 20 -42 23 -44 35 -27 8 11 12 32 9 54 -5 32 17 100
32 100 2 0 13 -13 24 -29 20 -28 20 -29 1 -68 -10 -22 -30 -47 -43 -55 -33
-23 -71 -99 -64 -129 3 -13 22 -43 41 -65 50 -59 88 -184 56 -184 -6 0 -15
-11 -22 -25 -8 -19 -8 -28 2 -40 10 -12 10 -21 0 -45 -11 -27 -10 -33 8 -53
l22 -23 -1 -834 c0 -459 -3 -843 -5 -853 -3 -9 -24 -27 -46 -38 -37 -19 -39
-22 -24 -38 9 -10 16 -24 16 -33 0 -17 -31 -48 -48 -48 -7 0 -12 -15 -12 -35
0 -29 4 -35 23 -36 12 0 58 -4 101 -8 43 -5 93 -5 110 -1 17 5 52 11 79 15 46
6 47 7 47 41 0 22 -5 34 -13 34 -18 0 -47 32 -47 52 0 9 7 21 15 28 8 7 15 15
15 19 0 15 -73 33 -106 27 -20 -4 -34 -3 -34 3 0 5 12 11 28 13 l27 3 3 849
c2 782 3 851 19 868 14 16 15 24 5 51 -8 20 -8 35 -2 41 16 16 11 44 -12 66
-21 19 -21 23 -8 73 8 32 26 67 47 90 54 61 68 121 38 164 -14 20 -14 26 5 62
33 66 26 103 -31 169 -17 19 -29 44 -29 60 0 15 -9 41 -20 57 -25 38 -25 66 0
88 22 19 26 47 8 65 -9 9 -9 17 1 36 13 24 7 66 -10 66 -5 0 -9 247 -9 629 0
546 2 630 15 641 17 14 20 51 5 66 -6 6 -6 21 2 42 11 28 10 34 -10 55 -12 13
-22 30 -22 38 0 32 33 106 59 134 54 57 64 101 36 155 -14 27 -14 33 5 67 32
61 26 92 -32 163 -15 19 -28 46 -28 60 0 14 -9 39 -20 55 -26 39 -25 63 2 92
20 21 21 27 10 55 -8 21 -8 36 -2 42 15 15 12 52 -5 66 -13 11 -15 104 -15
730 l0 717 -37 7 c-21 3 -50 6 -65 6 l-28 0 0 -97z m91 -1696 c16 -21 15 -24
-3 -47 -15 -18 -23 -22 -36 -14 -31 20 -37 41 -18 63 24 27 37 26 57 -2z m89
-143 c0 -24 -3 -44 -7 -44 -5 0 -21 16 -36 35 -28 35 -28 35 -10 66 l18 30 17
-22 c11 -13 18 -38 18 -65z m26 19 c-11 -11 -19 6 -11 24 8 17 8 17 12 0 3
-10 2 -21 -1 -24z m-102 -75 l37 -33 -39 -38 -39 -39 -37 32 c-20 18 -36 36
-36 41 0 10 61 68 71 69 3 0 22 -15 43 -32z m-116 -119 c25 -28 27 -35 18 -65
l-11 -34 -22 38 c-20 33 -32 92 -18 92 3 0 18 -14 33 -31z m186 9 c-5 -7 -1
-9 9 -5 26 10 21 -16 -8 -41 -14 -12 -25 -26 -25 -32 0 -19 -21 -10 -32 15
-10 22 -8 29 17 55 26 27 54 33 39 8z m-84 -128 c0 -28 -27 -45 -45 -30 -19
16 -19 29 2 52 18 21 43 8 43 -22z m-2 -1919 c27 -23 27 -29 2 -61 l-19 -25
-27 26 c-26 27 -26 27 -8 53 23 30 23 30 52 7z m80 -96 c13 -28 16 -95 5 -95
-3 0 -19 15 -34 33 -26 31 -26 33 -11 60 20 33 26 34 40 2z m38 -32 c-10 -10
-19 5 -10 18 6 11 8 11 12 0 2 -7 1 -15 -2 -18z m-99 -75 c18 -18 33 -36 33
-40 0 -11 -62 -67 -75 -68 -5 0 -24 14 -42 32 l-33 32 37 38 c20 21 39 38 42
38 3 0 20 -14 38 -32z m-112 -128 c26 -27 27 -32 15 -55 -7 -14 -17 -25 -21
-25 -13 0 -39 57 -39 85 0 33 10 32 45 -5z m198 17 c4 3 7 -3 7 -15 0 -12 -9
-26 -19 -32 -11 -5 -23 -19 -26 -30 -9 -27 -19 -25 -34 6 -11 24 -9 30 15 55
19 20 31 26 39 19 7 -5 15 -7 18 -3z m-107 -123 c4 -17 1 -31 -8 -40 -12 -13
-17 -12 -33 6 -17 19 -17 21 0 40 24 27 33 25 41 -6z"/>
</g>
</svg>
