<?xml version="1.0" standalone="no"?>
<!DOCTYPE svg PUBLIC "-//W3C//DTD SVG 20010904//EN"
 "http://www.w3.org/TR/2001/REC-SVG-20010904/DTD/svg10.dtd">
<svg version="1.0" xmlns="http://www.w3.org/2000/svg"
 width="2550.000000pt" height="2700.000000pt" viewBox="0 0 2550.000000 2700.000000"
 preserveAspectRatio="xMidYMid meet">

<g transform="translate(0.000000,2700.000000) scale(0.100000,-0.100000)"
fill="#65340A" stroke="none">
<path d="M7630 16368 c-1 -7 0 -324 0 -704 l1 -691 -22 -27 c-19 -24 -20 -30
-9 -52 11 -19 11 -29 1 -48 -11 -19 -10 -27 0 -45 8 -11 17 -21 21 -21 16 0 7
-56 -12 -85 -32 -49 -24 -63 15 -25 22 22 35 29 35 19 0 -8 -29 -44 -65 -79
-80 -79 -93 -112 -68 -169 10 -23 21 -41 24 -41 12 0 22 34 23 82 1 28 7 54
17 63 14 14 18 12 42 -22 l26 -37 -59 -62 c-93 -96 -97 -129 -27 -217 18 -23
38 -58 45 -78 14 -43 16 -89 2 -89 -5 0 -14 -10 -21 -21 -8 -16 -8 -27 2 -45
10 -19 10 -27 1 -36 -18 -18 -15 -43 8 -63 19 -17 20 -32 19 -623 -1 -602 -1
-605 -22 -634 -18 -25 -20 -32 -8 -49 10 -17 10 -27 0 -50 -10 -26 -9 -32 10
-53 26 -28 27 -60 1 -93 -11 -14 -20 -35 -20 -47 1 -18 4 -17 29 13 15 19 34
32 42 29 9 -3 -9 -29 -58 -79 -91 -94 -101 -117 -72 -176 19 -39 22 -42 34
-26 7 10 11 32 8 53 -3 24 1 49 12 70 l17 33 24 -29 c34 -43 30 -64 -26 -119
-56 -55 -84 -106 -75 -135 3 -11 23 -41 44 -67 46 -60 81 -173 53 -173 -5 0
-14 -11 -21 -24 -10 -19 -10 -27 0 -44 10 -17 11 -25 1 -44 -11 -19 -9 -29 7
-62 20 -38 20 -59 20 -848 0 -445 -3 -816 -6 -824 -3 -9 -23 -24 -45 -34 -33
-15 -36 -19 -23 -30 30 -25 6 -90 -34 -90 -8 0 -11 -12 -9 -32 l3 -33 105 -8
c67 -5 118 -4 140 3 19 5 51 11 70 12 32 3 35 6 38 36 2 22 -1 32 -11 32 -19
0 -47 33 -47 55 0 10 7 26 15 35 14 16 12 18 -29 30 -25 7 -57 10 -71 6 -14
-4 -25 -2 -25 3 0 5 11 12 25 15 l25 6 0 826 c0 822 0 825 21 853 18 24 19 32
9 51 -9 18 -9 27 0 45 13 24 0 65 -20 65 -13 0 -13 49 1 91 7 19 24 48 39 64
51 56 62 99 39 164 -9 26 -8 36 6 58 29 44 23 95 -19 151 -20 27 -36 60 -36
73 0 13 -9 35 -20 49 -26 33 -25 64 2 101 19 26 21 33 9 50 -10 17 -10 27 0
50 10 26 9 33 -9 52 -21 23 -22 26 -22 625 l0 603 22 29 c19 26 20 33 9 54
-10 18 -10 28 -1 46 10 19 9 27 -9 51 -35 47 -22 102 41 182 42 54 49 97 24
146 -13 25 -13 30 5 57 31 47 25 101 -16 153 -20 25 -35 55 -35 70 0 14 -9 40
-20 56 -21 32 -27 85 -10 85 6 0 15 11 22 25 8 19 8 28 -2 40 -10 12 -10 21 0
45 11 28 10 33 -9 54 l-21 22 0 701 0 700 -37 7 c-58 9 -83 7 -83 -6z m81
-1740 c24 -29 24 -41 -1 -63 -20 -18 -21 -18 -47 8 l-27 26 24 26 c29 30 27
30 51 3z m89 -112 c0 -6 5 -5 12 2 16 16 28 15 28 -3 0 -8 -7 -15 -15 -15 -10
0 -15 -11 -15 -35 0 -19 -3 -35 -6 -35 -4 0 -21 17 -39 37 l-32 37 21 29 c19
26 21 27 33 11 7 -10 13 -22 13 -28z m-70 -91 l34 -35 -36 -37 -37 -36 -35 29
c-19 16 -35 33 -35 39 -1 10 59 75 69 75 3 0 21 -16 40 -35z m-105 -125 c22
-23 26 -32 16 -44 -9 -10 -9 -15 -1 -18 7 -2 3 -13 -10 -28 -15 -18 -20 -20
-16 -7 3 9 -3 32 -14 50 -20 32 -27 77 -12 77 5 0 21 -13 37 -30z m196 20 c15
0 10 -16 -13 -42 -13 -14 -28 -33 -33 -43 -10 -16 -12 -16 -29 10 -18 27 -18
27 10 56 16 16 34 27 42 24 7 -3 18 -5 23 -5z m-107 -123 c16 -25 -16 -56 -38
-37 -19 15 -20 32 -4 48 15 15 28 11 42 -11z m11 -1896 c16 -19 16 -21 -5 -51
l-22 -31 -24 22 c-28 27 -30 36 -7 61 21 23 36 23 58 -1z m71 -96 c7 -19 14
-49 14 -67 l0 -33 -36 37 -36 36 18 31 c10 17 20 31 22 31 2 0 10 -16 18 -35z
m44 -9 c0 -8 -4 -18 -10 -21 -5 -3 -10 3 -10 14 0 12 5 21 10 21 6 0 10 -6 10
-14z m-100 -96 l34 -30 -34 -35 c-19 -19 -38 -35 -44 -35 -6 0 -25 14 -43 32
l-33 32 32 33 c18 18 37 33 42 33 6 -1 27 -14 46 -30z m-116 -119 c16 -16 25
-34 21 -41 -4 -6 -8 -22 -10 -36 -1 -14 -8 -31 -15 -37 -10 -10 -12 -8 -7 6 4
10 -2 34 -13 55 -20 37 -27 82 -12 82 5 0 21 -13 36 -29z m206 9 c0 -9 -10
-26 -22 -37 -13 -11 -28 -29 -34 -39 -11 -18 -12 -17 -25 9 -11 25 -10 30 14
55 29 31 67 37 67 12z m-115 -111 c5 -14 1 -27 -9 -37 -15 -15 -17 -15 -32 0
-13 13 -14 19 -2 37 16 27 35 27 43 0z"/>
</g>
</svg>
