<?xml version="1.0" standalone="no"?>
<!DOCTYPE svg PUBLIC "-//W3C//DTD SVG 20010904//EN"
 "http://www.w3.org/TR/2001/REC-SVG-20010904/DTD/svg10.dtd">
<svg version="1.0" xmlns="http://www.w3.org/2000/svg"
 width="2550.000000pt" height="2700.000000pt" viewBox="0 0 2550.000000 2700.000000"
 preserveAspectRatio="xMidYMid meet">

<g transform="translate(0.000000,2700.000000) scale(0.100000,-0.100000)"
fill="#65340A" stroke="none">
<path d="M18847 22102 l-47 -48 0 -815 c0 -802 -1 -816 -20 -834 -23 -21 -25
-47 -8 -75 10 -16 10 -24 0 -40 -17 -28 -15 -53 8 -78 29 -30 25 -71 -11 -120
-20 -28 -32 -56 -33 -82 -1 -26 -13 -54 -36 -86 -46 -65 -53 -140 -17 -198 22
-36 23 -41 10 -78 -17 -51 -4 -105 40 -156 18 -20 35 -39 38 -42 33 -27 38
-108 9 -135 -23 -21 -26 -46 -8 -75 10 -15 9 -24 -1 -44 -11 -20 -12 -31 -1
-55 7 -17 16 -31 20 -31 5 0 9 -291 9 -646 1 -631 0 -647 -19 -671 -23 -30
-25 -46 -8 -73 10 -16 10 -24 0 -40 -17 -28 -15 -53 8 -78 29 -31 25 -71 -12
-122 -24 -32 -33 -55 -33 -84 0 -28 -8 -52 -26 -76 -58 -77 -64 -127 -25 -195
24 -40 24 -44 10 -84 -20 -59 -6 -102 56 -176 58 -69 66 -114 28 -166 -20 -27
-21 -32 -9 -65 9 -26 10 -39 2 -47 -17 -17 -13 -51 8 -74 19 -20 20 -45 19
-889 0 -478 -4 -876 -8 -884 -5 -9 -27 -25 -49 -34 l-40 -18 21 -28 c25 -35
17 -65 -23 -85 -24 -13 -29 -22 -29 -50 l0 -35 200 0 200 0 0 35 c0 28 -5 37
-29 50 -16 8 -32 24 -36 35 -7 21 10 60 25 60 22 0 8 19 -22 29 -17 6 -40 19
-50 28 -17 15 -18 58 -18 885 l0 869 22 30 c20 26 21 33 9 64 -9 25 -9 40 -2
54 16 29 14 44 -9 69 -14 15 -20 35 -20 66 0 39 6 53 51 106 68 81 76 107 51
162 l-19 43 34 62 c40 72 39 77 -18 163 -33 48 -39 66 -34 89 7 33 -11 75 -44
105 -27 24 -27 70 -1 103 23 30 25 46 8 73 -10 16 -10 24 0 40 17 28 15 48 -8
80 -19 27 -20 44 -20 665 0 621 1 638 20 662 23 30 25 46 8 73 -10 15 -9 24 1
44 11 20 12 31 1 55 -7 17 -17 31 -22 31 -6 0 -9 22 -6 54 3 40 12 64 31 88
15 18 39 48 54 66 31 39 33 73 9 123 -17 36 -17 36 15 87 17 28 32 63 32 78 0
14 -19 53 -43 87 -35 51 -41 66 -35 94 6 36 -10 76 -44 107 -27 25 -28 77 -1
101 23 21 25 46 8 75 -10 16 -10 24 0 40 17 27 15 43 -8 73 -20 25 -20 40 -20
885 0 775 -2 860 -16 866 -25 10 -27 8 -77 -42z m44 -2123 l21 -30 -28 -30
c-15 -16 -31 -29 -35 -29 -4 0 -17 14 -30 31 l-21 30 28 30 c15 16 31 29 35
29 4 0 17 -14 30 -31z m115 -146 c8 -40 -2 -83 -19 -82 -6 0 -27 19 -46 40
l-34 40 34 35 c31 32 35 33 46 18 7 -10 16 -32 19 -51z m-224 26 c18 -30 17
-31 -9 -64 -15 -19 -31 -31 -35 -29 -19 12 -1 124 19 124 5 0 16 -14 25 -31z
m112 -128 l39 -40 -38 -35 c-21 -20 -40 -36 -43 -36 -10 0 -72 64 -72 74 0 11
60 76 70 76 3 0 23 -18 44 -39z m87 -134 c-4 -17 -15 -45 -23 -61 l-15 -29
-18 27 c-18 27 -18 27 15 61 42 43 50 44 41 2z m-190 -19 c20 -26 24 -44 9
-53 -5 -3 -16 8 -25 24 -26 52 -17 68 16 29z m89 -119 c0 -10 -4 -19 -9 -19
-12 0 -23 29 -15 41 8 14 24 0 24 -22z m19 -2090 l24 -31 -31 -31 c-30 -30
-32 -30 -51 -13 -33 30 -36 55 -10 82 29 31 39 30 68 -7z m-116 -110 c9 -17
17 -34 17 -39 0 -15 -52 -70 -61 -64 -19 11 -1 134 19 134 4 0 15 -14 25 -31z
m223 -36 c7 -36 -1 -83 -15 -83 -4 0 -22 18 -40 40 l-32 40 27 36 c26 33 29
35 41 18 7 -10 16 -32 19 -51z m-103 -101 l37 -38 -40 -39 -40 -39 -40 39 -40
39 37 38 c20 21 40 38 43 38 3 0 23 -17 43 -38z m77 -141 c-19 -66 -43 -89
-55 -51 -4 13 2 30 17 50 31 38 49 39 38 1z m-170 -42 c0 -10 -4 -20 -10 -24
-11 -6 -40 45 -40 71 0 15 4 14 25 -6 14 -13 25 -31 25 -41z m74 -75 c7 -17 0
-34 -14 -34 -11 0 -21 30 -14 41 8 14 21 11 28 -7z"/>
</g>
</svg>
