<?xml version="1.0" standalone="no"?>
<!DOCTYPE svg PUBLIC "-//W3C//DTD SVG 20010904//EN"
 "http://www.w3.org/TR/2001/REC-SVG-20010904/DTD/svg10.dtd">
<svg version="1.0" xmlns="http://www.w3.org/2000/svg"
 width="2550.000000pt" height="2700.000000pt" viewBox="0 0 2550.000000 2700.000000"
 preserveAspectRatio="xMidYMid meet">

<g transform="translate(0.000000,2700.000000) scale(0.100000,-0.100000)"
fill="#65340A" stroke="none">
<path d="M13240 12379 l0 -1271 -25 -30 c-29 -35 -31 -46 -9 -76 14 -21 14
-25 -1 -48 -18 -28 -14 -53 15 -79 29 -26 25 -72 -11 -125 -24 -36 -29 -52
-25 -79 4 -27 0 -41 -24 -71 -22 -28 -32 -55 -40 -109 -11 -66 -10 -74 10
-108 21 -35 21 -38 4 -75 -26 -59 -14 -118 38 -178 23 -27 48 -68 55 -92 15
-50 17 -108 4 -108 -5 0 -17 -12 -26 -27 -17 -25 -17 -28 0 -59 16 -30 16 -34
1 -55 -21 -31 -20 -39 9 -71 l25 -27 0 -772 c0 -753 -1 -772 -20 -799 -23 -32
-25 -49 -9 -84 10 -20 9 -30 -5 -51 -18 -27 -12 -49 18 -75 21 -17 21 -84 0
-101 -28 -23 -45 -68 -39 -103 5 -26 1 -39 -20 -64 -24 -28 -65 -128 -65 -158
0 -7 13 -32 29 -56 27 -40 28 -44 15 -71 -8 -15 -17 -49 -20 -75 -5 -45 -4
-49 50 -114 51 -60 57 -72 63 -127 5 -53 3 -65 -14 -84 -33 -36 -35 -46 -17
-76 16 -28 16 -31 1 -55 -22 -33 -22 -36 8 -68 l25 -27 0 -1054 c-1 -1168 5
-1078 -69 -1112 -41 -18 -41 -18 -21 -37 11 -10 20 -29 20 -42 0 -23 -37 -66
-58 -66 -8 0 -12 -18 -12 -48 l0 -49 138 -10 137 -10 78 29 77 29 0 42 c0 37
-4 44 -33 57 -41 19 -49 61 -17 95 l22 23 -31 7 c-16 3 -41 15 -55 26 l-24 19
-1 1060 c0 583 3 1060 7 1060 4 0 16 14 25 30 17 28 17 32 1 58 -15 26 -15 31
-1 58 16 31 9 57 -21 80 -26 19 -11 109 26 147 79 84 104 153 79 225 -14 39
-13 44 9 88 38 75 28 133 -36 214 -16 21 -30 50 -30 64 0 28 -32 100 -50 111
-16 10 -12 81 6 95 31 26 37 50 18 77 -16 25 -16 28 1 59 18 33 18 34 -8 67
l-26 34 -1 771 c0 514 3 773 10 777 6 3 17 20 25 36 14 27 14 32 -1 58 -15 26
-15 30 0 54 19 27 13 51 -18 77 -18 14 -21 75 -7 112 5 13 30 48 55 78 60 70
73 116 52 181 -16 47 -15 49 9 95 38 71 30 123 -31 203 -22 29 -34 55 -34 76
0 17 -13 52 -30 78 -29 47 -42 117 -20 117 5 0 17 14 25 31 15 28 15 33 0 56
-16 24 -16 27 1 58 17 32 17 33 -5 64 l-23 32 1 1269 2 1270 -81 0 -80 0 0
-1271z m118 -1722 l32 -33 -32 -38 -33 -37 -34 35 -34 35 29 35 c16 19 31 35
35 35 3 1 20 -14 37 -32z m-118 -119 c16 -18 30 -37 30 -43 0 -13 -72 -85 -86
-85 -30 0 -24 107 9 148 13 16 13 16 47 -20z m218 -19 c14 -49 13 -94 -4 -94
-5 0 -25 16 -42 37 l-32 36 22 36 c13 19 27 34 33 32 5 -1 15 -22 23 -47z
m-78 -124 l44 -45 -39 -40 c-21 -22 -46 -40 -55 -40 -9 0 -34 18 -55 40 l-39
40 44 45 c24 25 47 45 50 45 3 0 26 -20 50 -45z m-110 -190 c0 -5 -9 -21 -20
-35 -19 -25 -19 -25 -34 -5 -22 28 -40 90 -32 111 6 15 12 12 46 -21 22 -22
40 -44 40 -50z m175 38 c-3 -15 -13 -43 -21 -62 -15 -34 -16 -35 -30 -17 -20
28 -18 40 12 75 32 39 48 40 39 4z m-107 -120 c10 -19 -1 -63 -16 -63 -5 0
-15 7 -22 15 -11 13 -11 20 0 40 16 29 26 31 38 8z m24 -2420 c34 -33 35 -38
2 -80 l-26 -35 -34 33 c-19 18 -34 36 -34 40 0 10 50 69 58 69 3 0 19 -12 34
-27z m-119 -215 c-34 -35 -50 -45 -59 -37 -31 26 -24 100 13 142 16 17 19 16
55 -20 l38 -37 -47 -48z m217 74 c12 -44 13 -89 2 -96 -4 -2 -22 13 -40 35
l-33 39 21 35 c25 41 35 38 50 -13z m-70 -127 l44 -45 -47 -48 -47 -47 -47 47
-47 48 44 45 c24 25 47 45 50 45 3 0 26 -20 50 -45z m-148 -142 c21 -20 38
-42 38 -48 -1 -13 -36 -55 -47 -55 -22 0 -62 107 -48 130 10 16 17 13 57 -27z
m202 -15 c-3 -13 -13 -39 -21 -58 -14 -33 -15 -34 -29 -16 -20 27 -18 36 13
68 32 34 47 36 37 6z m-100 -113 c6 -16 -9 -65 -19 -65 -4 0 -13 7 -21 15 -13
13 -13 17 2 40 19 29 29 32 38 10z"/>
</g>
</svg>
