<?xml version="1.0" standalone="no"?>
<!DOCTYPE svg PUBLIC "-//W3C//DTD SVG 20010904//EN"
 "http://www.w3.org/TR/2001/REC-SVG-20010904/DTD/svg10.dtd">
<svg version="1.0" xmlns="http://www.w3.org/2000/svg"
 width="2550.000000pt" height="2700.000000pt" viewBox="0 0 2550.000000 2700.000000"
 preserveAspectRatio="xMidYMid meet">

<g transform="translate(0.000000,2700.000000) scale(0.100000,-0.100000)"
fill="#65340A" stroke="none">
<path d="M15727 19112 l-47 -48 0 -792 0 -793 -21 -29 c-21 -28 -21 -30 -5
-55 16 -24 16 -27 0 -54 -15 -26 -15 -30 1 -54 9 -15 21 -27 26 -27 19 0 7
-57 -21 -99 -19 -28 -30 -57 -30 -79 0 -22 -10 -46 -29 -71 -59 -76 -66 -120
-27 -188 24 -41 24 -44 9 -82 -21 -55 -11 -97 38 -156 23 -28 48 -64 55 -82
16 -38 18 -93 4 -93 -5 0 -17 -11 -25 -24 -15 -22 -15 -28 -2 -53 13 -25 13
-32 1 -56 -14 -25 -13 -30 6 -56 20 -29 20 -40 20 -655 0 -626 0 -627 -21
-656 -21 -28 -21 -30 -5 -55 16 -24 16 -27 0 -54 -15 -26 -15 -30 1 -54 9 -15
21 -27 26 -27 21 0 7 -59 -22 -96 -23 -29 -30 -47 -28 -75 2 -28 -5 -47 -35
-88 -52 -70 -57 -115 -21 -177 27 -46 27 -46 10 -84 -25 -55 -14 -95 44 -164
39 -45 50 -67 55 -106 6 -43 4 -52 -19 -76 -29 -31 -30 -41 -10 -68 12 -16 12
-22 -1 -48 -14 -26 -13 -31 6 -57 20 -29 20 -36 20 -1339 0 -721 -3 -1318 -6
-1327 -4 -9 -24 -25 -45 -36 l-39 -20 21 -28 c18 -24 19 -31 8 -49 -7 -11 -23
-26 -36 -33 -18 -10 -23 -21 -23 -51 l0 -38 118 -2 c227 -4 266 3 270 49 2 23
-2 34 -17 42 -51 28 -65 69 -35 102 16 17 15 19 -12 29 -16 6 -37 18 -46 27
-17 15 -18 93 -18 1326 0 1292 0 1309 20 1337 23 32 26 60 8 78 -9 9 -9 18 0
37 17 36 15 48 -9 74 -18 19 -21 31 -16 73 5 40 14 59 46 93 21 23 44 52 51
65 16 30 15 81 -2 115 -14 25 -13 31 15 82 36 67 32 101 -20 169 -28 37 -36
56 -34 83 1 25 -6 46 -29 77 -35 49 -38 86 -10 116 23 25 25 40 9 69 -7 14 -7
29 2 53 11 30 10 37 -9 64 -22 30 -22 31 -21 648 0 594 1 619 20 645 22 32 23
42 7 69 -10 16 -10 24 0 40 17 28 15 43 -9 74 -31 39 -21 117 19 160 75 81 89
128 58 189 -14 25 -13 31 15 84 36 68 34 86 -20 163 -30 44 -37 62 -34 90 4
28 -2 43 -26 74 -31 38 -44 106 -21 106 22 0 33 47 20 80 -10 23 -10 34 -1 43
17 17 13 46 -9 74 -20 25 -20 40 -20 855 0 456 -2 833 -5 839 -13 20 -43 7
-88 -39z m52 -2053 l23 -31 -19 -27 c-26 -33 -51 -33 -76 1 l-21 28 29 30 c16
16 32 30 35 30 3 0 17 -14 29 -31z m-105 -113 l18 -34 -28 -36 c-16 -20 -32
-36 -36 -36 -12 0 -9 99 2 121 15 27 23 24 44 -15z m205 3 c13 -38 14 -89 2
-108 -7 -10 -17 -4 -45 25 -19 22 -36 43 -36 47 0 14 44 66 57 66 6 1 16 -13
22 -30z m-96 -124 c20 -20 37 -38 37 -42 0 -4 -17 -24 -37 -45 l-37 -38 -43
42 -43 42 37 38 c20 21 40 38 43 38 3 0 22 -16 43 -35z m87 -125 c0 -27 -30
-100 -41 -100 -5 0 -14 11 -21 25 -9 21 -7 29 18 59 34 40 44 44 44 16z m-175
-73 c-4 -15 -11 -27 -17 -27 -12 0 -38 63 -38 92 0 22 1 21 31 -8 24 -25 29
-36 24 -57z m71 -61 c10 -39 -17 -65 -30 -30 -8 20 2 54 14 54 6 0 12 -11 16
-24z m18 -2045 l29 -30 -24 -30 c-30 -37 -42 -38 -68 -5 -26 33 -26 42 1 71
27 29 29 29 62 -6z m-105 -117 l24 -35 -36 -37 c-20 -20 -39 -33 -43 -29 -19
19 1 137 24 137 4 0 18 -16 31 -36z m200 5 c14 -40 14 -109 1 -109 -5 0 -25
17 -44 37 l-34 37 25 33 c14 18 29 33 33 33 5 0 13 -14 19 -31z m-86 -122 c20
-19 37 -38 37 -43 0 -6 -17 -26 -37 -46 l-38 -37 -43 41 -44 40 38 39 c21 22
41 39 44 39 3 0 22 -15 43 -33z m-113 -149 c22 -26 25 -35 16 -55 -6 -12 -14
-23 -17 -23 -8 0 -28 39 -38 78 -12 42 4 42 39 0z m190 17 c0 -21 -31 -95 -39
-95 -5 0 -13 12 -20 26 -11 24 -9 30 15 55 31 32 44 36 44 14z m-100 -126 c15
-27 -5 -56 -26 -38 -17 14 -18 31 -2 47 16 16 15 16 28 -9z"/>
</g>
</svg>
