<?xml version="1.0" standalone="no"?>
<!DOCTYPE svg PUBLIC "-//W3C//DTD SVG 20010904//EN"
 "http://www.w3.org/TR/2001/REC-SVG-20010904/DTD/svg10.dtd">
<svg version="1.0" xmlns="http://www.w3.org/2000/svg"
 width="2550.000000pt" height="2700.000000pt" viewBox="0 0 2550.000000 2700.000000"
 preserveAspectRatio="xMidYMid meet">

<g transform="translate(0.000000,2700.000000) scale(0.100000,-0.100000)"
fill="#65340A" stroke="none">
<path d="M17792 21089 l-52 -48 0 -806 0 -806 -21 -29 c-20 -26 -20 -32 -9
-59 10 -25 10 -37 0 -61 -10 -25 -9 -33 9 -59 29 -40 26 -78 -9 -130 -19 -28
-30 -57 -30 -78 0 -21 -10 -47 -25 -67 -30 -39 -55 -98 -55 -128 0 -13 11 -44
25 -70 20 -38 23 -52 15 -73 -13 -35 -13 -91 1 -118 7 -12 31 -45 55 -74 37
-42 44 -58 44 -92 0 -27 -8 -52 -21 -70 -19 -26 -20 -32 -8 -65 10 -28 10 -39
1 -48 -17 -17 -15 -39 8 -68 19 -24 20 -45 20 -663 l0 -638 -22 -30 c-21 -28
-21 -31 -5 -58 14 -25 15 -30 2 -47 -20 -26 -18 -47 5 -72 28 -30 25 -76 -7
-119 -19 -24 -28 -49 -29 -78 -1 -33 -11 -55 -38 -90 -56 -73 -58 -120 -11
-196 20 -31 21 -38 9 -60 -31 -55 -14 -113 56 -194 35 -40 40 -52 40 -96 0
-27 -4 -49 -9 -49 -5 0 -14 -14 -21 -31 -10 -22 -10 -33 -1 -42 14 -14 15 -54
1 -62 -16 -10 -11 -38 10 -65 19 -25 20 -50 20 -1362 0 -1139 -2 -1339 -14
-1351 -8 -8 -28 -20 -45 -27 -35 -14 -38 -22 -16 -40 16 -13 20 -48 7 -66 -4
-6 -17 -16 -29 -23 -18 -9 -23 -20 -23 -51 l0 -40 189 0 c204 0 201 -1 201 56
0 16 -9 28 -29 39 -40 20 -48 50 -22 85 l20 28 -30 13 c-64 26 -59 -85 -59
1383 0 1182 2 1345 15 1356 18 15 19 40 4 74 -9 19 -8 29 4 47 15 20 15 25 -1
51 -9 15 -20 28 -24 28 -12 0 -10 64 2 96 6 15 29 47 51 71 57 62 65 87 44
149 l-17 51 26 45 c38 65 34 103 -15 172 -30 43 -39 63 -35 81 7 29 -7 69 -39
107 -30 36 -32 78 -5 103 23 20 25 43 9 78 -9 19 -8 30 5 49 15 23 15 27 -4
51 -20 25 -20 39 -20 669 1 549 3 646 15 662 18 24 19 58 3 74 -10 10 -9 18 5
41 16 28 16 30 -8 65 -41 61 -31 114 36 191 61 70 66 91 40 149 l-20 47 29 46
c41 64 39 97 -9 166 -33 46 -39 63 -38 99 2 36 -4 52 -31 85 -38 48 -40 73
-10 114 20 27 21 32 9 65 -9 26 -10 39 -2 47 15 15 14 49 -4 74 -13 18 -15
136 -17 873 -3 844 -3 853 -23 860 -16 6 -32 -3 -73 -41z m43 -2099 l29 -30
-29 -30 c-34 -36 -41 -37 -66 -7 -24 29 -24 46 3 74 27 29 28 29 63 -7z m-95
-146 c0 -3 -12 -21 -27 -41 -24 -31 -28 -33 -34 -17 -9 21 -1 80 13 108 9 17
12 15 29 -13 10 -17 19 -34 19 -37z m195 36 c17 -33 20 -87 5 -110 -8 -12 -17
-8 -52 27 l-42 43 34 35 c19 19 35 35 37 35 1 0 9 -13 18 -30z m-92 -138 l37
-38 -40 -39 -40 -39 -42 42 -42 42 34 35 c19 19 39 35 45 35 6 0 28 -17 48
-38z m87 -117 c0 -26 -32 -95 -44 -95 -6 0 -17 10 -24 21 -12 19 -10 25 19 55
36 37 49 42 49 19z m-180 -72 c0 -34 -19 -28 -36 12 -21 50 -17 62 11 35 14
-13 25 -34 25 -47z m74 -69 c7 -17 0 -34 -14 -34 -11 0 -21 30 -14 41 8 14 21
11 28 -7z m13 -2076 c29 -27 29 -36 -3 -72 -24 -28 -25 -28 -45 -10 -39 35
-43 54 -18 80 28 30 36 30 66 2z m-109 -118 c12 -16 22 -33 22 -37 -1 -8 -57
-73 -64 -73 -2 0 -6 12 -9 28 -6 29 11 112 22 112 4 0 17 -13 29 -30z m211 -1
c14 -41 14 -96 0 -105 -6 -3 -26 11 -44 32 l-33 38 25 33 c14 18 29 33 33 33
5 0 13 -14 19 -31z m-59 -164 c0 -6 -17 -28 -38 -48 l-38 -37 -39 40 -39 40
38 39 39 40 38 -32 c21 -18 39 -37 39 -42z m50 -87 c0 -7 -9 -33 -20 -57 -19
-42 -21 -43 -35 -25 -20 27 -19 34 12 66 29 30 43 35 43 16z m-192 -28 c21
-26 22 -60 1 -60 -11 0 -39 54 -39 75 0 22 12 18 38 -15z m87 -111 c9 -27 -8
-45 -24 -26 -12 15 -5 47 9 47 5 0 12 -9 15 -21z"/>
</g>
</svg>
