<?xml version="1.0" standalone="no"?>
<!DOCTYPE svg PUBLIC "-//W3C//DTD SVG 20010904//EN"
 "http://www.w3.org/TR/2001/REC-SVG-20010904/DTD/svg10.dtd">
<svg version="1.0" xmlns="http://www.w3.org/2000/svg"
 width="2550.000000pt" height="2700.000000pt" viewBox="0 0 2550.000000 2700.000000"
 preserveAspectRatio="xMidYMid meet">

<g transform="translate(0.000000,2700.000000) scale(0.100000,-0.100000)"
fill="#C5C3C1" stroke="none">
<path d="M8737 15683 c-3 -505 -8 -652 -21 -753 -32 -244 -32 -242 -2 -277 36
-42 34 -70 -5 -78 -16 -4 -29 -10 -27 -13 38 -74 36 -82 -28 -118 -49 -28 -49
-50 0 -78 64 -36 66 -44 28 -118 -2 -3 11 -9 27 -13 37 -8 42 -41 11 -67 -31
-27 -34 -60 -16 -196 29 -228 36 -352 36 -687 0 -316 -11 -520 -41 -729 -12
-93 -6 -140 22 -160 28 -19 22 -58 -10 -66 -30 -7 -37 -23 -16 -40 8 -7 15
-20 15 -30 0 -17 -29 -50 -46 -50 -30 -1 -73 -70 -44 -70 6 0 28 -11 50 -25
43 -27 53 -62 25 -85 -22 -19 -18 -28 15 -35 37 -8 40 -38 8 -73 -29 -30 -29
-98 -3 -282 16 -108 19 -224 22 -872 l4 -748 -36 -21 c-26 -15 -33 -25 -26
-32 19 -19 12 -55 -16 -77 -14 -11 -27 -31 -29 -44 -5 -47 4 -49 152 -44 166
7 194 15 186 54 -3 15 -17 38 -31 50 -24 20 -25 25 -14 53 11 30 10 32 -23 46
l-35 15 4 757 c3 659 6 774 22 883 10 69 18 154 19 188 1 55 -2 66 -21 82 -32
26 -29 53 7 67 l30 11 -17 31 c-20 34 -12 57 23 76 71 37 78 59 28 85 -63 31
-83 72 -49 100 22 19 18 28 -15 35 -37 8 -40 38 -7 73 28 30 28 82 2 272 -13
103 -19 225 -23 515 -4 383 3 563 34 784 19 138 18 145 -11 179 -35 42 -33 69
6 77 16 4 29 10 27 13 -38 74 -36 82 28 118 48 27 50 51 7 74 -18 10 -40 23
-48 30 -19 16 -19 54 0 70 22 18 18 28 -12 32 -36 4 -44 42 -14 69 11 11 23
30 27 43 3 13 -5 99 -17 192 -21 156 -23 216 -26 795 l-4 626 -46 7 c-91 12
-81 86 -86 -621z"/>
</g>
</svg>
