<?xml version="1.0" standalone="no"?>
<!DOCTYPE svg PUBLIC "-//W3C//DTD SVG 20010904//EN"
 "http://www.w3.org/TR/2001/REC-SVG-20010904/DTD/svg10.dtd">
<svg version="1.0" xmlns="http://www.w3.org/2000/svg"
 width="2550.000000pt" height="2700.000000pt" viewBox="0 0 2550.000000 2700.000000"
 preserveAspectRatio="xMidYMid meet">

<g transform="translate(0.000000,2700.000000) scale(0.100000,-0.100000)"
fill="#C5C3C1" stroke="none">
<path d="M10279 15709 c0 -277 -2 -517 -4 -534 -2 -16 -6 -75 -9 -130 -4 -55
-14 -155 -22 -223 -17 -135 -13 -186 16 -205 25 -15 27 -57 3 -57 -37 0 -45
-15 -26 -47 20 -37 11 -53 -44 -80 -19 -9 -37 -22 -40 -30 -5 -13 33 -52 53
-53 6 0 19 -9 30 -21 18 -20 18 -22 1 -51 -19 -33 -12 -48 26 -48 26 0 21 -35
-9 -65 -30 -30 -30 -26 1 -300 35 -302 30 -840 -11 -1165 -19 -160 -19 -176
11 -206 33 -33 32 -53 -5 -66 -17 -5 -29 -13 -28 -17 32 -61 32 -60 13 -81
-10 -11 -23 -20 -29 -20 -6 0 -24 -11 -40 -23 l-29 -24 31 -21 c16 -12 34 -22
39 -22 13 0 43 -34 43 -48 0 -7 -9 -21 -20 -32 l-20 -20 25 -10 c15 -6 31 -10
36 -10 17 0 9 -32 -17 -63 -30 -36 -30 -50 2 -307 12 -98 17 -273 21 -806 l5
-681 -27 -22 c-15 -11 -35 -21 -43 -21 -13 0 -13 -3 1 -18 24 -27 21 -49 -12
-73 -17 -12 -28 -29 -27 -42 1 -18 9 -23 51 -29 73 -11 183 -13 233 -4 40 7
42 10 42 42 0 23 -5 34 -15 34 -8 0 -22 11 -31 25 -16 24 -16 27 1 45 21 23
21 22 -22 39 -18 7 -35 21 -38 31 -3 9 -3 307 -1 661 4 599 10 758 36 947 17
123 14 160 -16 187 -33 30 -25 60 17 69 l30 6 -23 31 -23 31 30 24 c17 14 35
29 42 34 7 6 17 10 23 10 5 0 10 8 10 18 0 12 -16 27 -44 42 -55 28 -63 46
-36 82 l20 27 -32 9 c-40 10 -47 33 -18 60 30 28 34 80 16 217 -40 309 -45
828 -11 1150 31 293 31 277 1 312 -34 41 -33 51 9 69 l35 14 -20 22 c-11 12
-20 27 -20 33 0 14 32 45 46 45 5 0 22 11 38 23 l29 24 -29 19 c-16 10 -38 24
-48 30 -37 20 -42 41 -18 73 l22 30 -31 6 c-41 9 -46 29 -15 66 30 36 31 49
11 212 -26 218 -35 444 -35 910 l0 457 -39 0 c-22 0 -46 3 -55 6 -14 6 -16
-43 -17 -497z"/>
</g>
</svg>
