<?xml version="1.0" standalone="no"?>
<!DOCTYPE svg PUBLIC "-//W3C//DTD SVG 20010904//EN"
 "http://www.w3.org/TR/2001/REC-SVG-20010904/DTD/svg10.dtd">
<svg version="1.0" xmlns="http://www.w3.org/2000/svg"
 width="2550.000000pt" height="2700.000000pt" viewBox="0 0 2550.000000 2700.000000"
 preserveAspectRatio="xMidYMid meet">

<g transform="translate(0.000000,2700.000000) scale(0.100000,-0.100000)"
fill="#C5C3C1" stroke="none">
<path d="M1847 12713 c-4 -971 -4 -973 -63 -1299 -23 -130 -24 -145 -10 -177
8 -21 27 -42 45 -52 24 -12 31 -22 31 -44 0 -23 -5 -30 -27 -34 -52 -12 -60
-23 -35 -50 38 -40 23 -84 -35 -101 -37 -12 -26 -26 20 -28 l42 -1 -37 -4
c-20 -2 -47 1 -59 7 -15 8 -19 9 -15 1 4 -6 0 -11 -8 -11 -27 0 -19 -39 9 -46
14 -3 25 -10 25 -15 0 -5 6 -9 14 -9 8 0 27 -10 42 -23 21 -19 26 -29 20 -50
-3 -14 -13 -33 -22 -42 -20 -19 -18 -21 26 -32 28 -7 36 -15 38 -36 3 -21 -2
-29 -20 -36 -64 -24 -75 -69 -49 -205 49 -254 63 -415 68 -781 6 -401 -7 -585
-58 -876 -35 -198 -34 -215 29 -254 26 -16 31 -26 29 -50 -1 -21 -8 -31 -22
-34 -11 -2 -30 -7 -42 -12 l-23 -8 25 -25 c14 -14 25 -34 25 -45 0 -25 -37
-61 -62 -61 -20 0 -25 -26 -5 -33 6 -3 -4 -4 -23 -3 -29 1 -36 -3 -38 -21 -3
-18 2 -23 18 -23 11 0 23 -7 26 -15 4 -8 15 -15 25 -15 25 0 59 -35 59 -60 0
-12 -11 -32 -24 -45 -28 -28 -26 -30 27 -40 32 -6 37 -11 37 -34 0 -20 -7 -29
-30 -38 -18 -7 -36 -25 -47 -47 -16 -35 -16 -41 6 -154 64 -334 64 -338 68
-1301 3 -486 2 -894 -1 -906 -4 -15 -20 -29 -46 -39 -39 -16 -40 -17 -25 -39
9 -14 14 -38 12 -58 -4 -30 -8 -34 -36 -37 -29 -3 -31 -6 -31 -43 0 -36 2 -39
28 -40 15 0 63 -4 107 -8 69 -7 94 -5 183 17 l102 24 0 35 c0 23 -5 36 -17 40
-51 18 -67 61 -37 94 16 17 15 19 -10 29 -15 5 -31 10 -35 10 -4 0 -14 8 -22
18 -13 15 -15 140 -14 882 1 913 2 953 51 1225 41 229 39 212 21 249 -9 19
-30 42 -47 51 -25 13 -31 22 -28 42 2 20 13 29 46 42 43 17 43 17 23 35 -11
10 -23 27 -27 38 -7 24 19 64 48 74 13 4 38 18 56 32 25 19 30 28 21 38 -6 8
-18 14 -25 14 -8 0 -14 5 -14 10 0 6 -9 10 -20 10 -24 0 -70 42 -70 64 0 8 11
28 24 43 l25 28 -42 10 c-37 10 -42 14 -45 43 -3 24 1 32 13 32 9 0 30 13 46
29 36 36 36 52 4 226 -49 267 -60 410 -59 810 0 397 10 528 60 802 13 73 24
145 24 161 0 35 -33 80 -67 93 -20 7 -24 15 -21 41 3 27 8 33 38 41 19 5 37
10 38 12 2 2 -6 17 -18 33 -29 39 -19 68 28 90 21 9 41 23 45 30 4 6 14 12 21
12 30 0 24 29 -10 49 -19 12 -39 21 -43 21 -18 0 -61 43 -61 60 0 10 11 32 24
47 l25 28 -42 10 c-35 9 -43 15 -45 37 -3 21 3 30 27 42 38 20 61 53 61 88 0
16 -11 90 -25 166 -58 321 -58 336 -62 1290 l-4 882 -74 0 -74 0 -4 -897z
m-14 -1980 c-7 -2 -19 -2 -25 0 -7 3 -2 5 12 5 14 0 19 -2 13 -5z m4 -2669
c-3 -3 -12 -4 -19 -1 -8 3 -5 6 6 6 11 1 17 -2 13 -5z"/>
</g>
</svg>
