<?xml version="1.0" standalone="no"?>
<!DOCTYPE svg PUBLIC "-//W3C//DTD SVG 20010904//EN"
 "http://www.w3.org/TR/2001/REC-SVG-20010904/DTD/svg10.dtd">
<svg version="1.0" xmlns="http://www.w3.org/2000/svg"
 width="2550.000000pt" height="2700.000000pt" viewBox="0 0 2550.000000 2700.000000"
 preserveAspectRatio="xMidYMid meet">

<g transform="translate(0.000000,2700.000000) scale(0.100000,-0.100000)"
fill="#C5C3C1" stroke="none">
<path d="M2679 13513 c0 -54 -2 -449 -4 -878 -3 -791 -7 -886 -45 -1145 -11
-74 -23 -153 -26 -175 -7 -52 9 -92 46 -113 46 -26 38 -61 -18 -80 l-42 -14
25 -30 c14 -16 25 -36 25 -43 0 -16 -56 -65 -76 -65 -8 0 -14 -3 -14 -8 0 -4
-10 -12 -22 -17 -37 -16 -27 -38 32 -68 85 -42 98 -70 54 -114 -14 -14 -24
-27 -22 -29 3 -2 22 -7 44 -12 55 -11 59 -44 10 -84 -48 -40 -52 -72 -27 -225
38 -227 52 -402 58 -708 7 -386 -7 -623 -59 -961 -24 -157 -19 -186 35 -212
22 -11 27 -19 25 -40 -2 -17 -10 -28 -23 -31 -11 -2 -31 -8 -44 -13 l-24 -9
28 -29 c25 -26 27 -33 17 -55 -7 -14 -28 -33 -47 -41 -19 -8 -35 -18 -35 -22
0 -4 -10 -12 -23 -17 -36 -16 -26 -36 33 -66 50 -25 80 -52 80 -70 0 -4 -12
-21 -26 -38 l-26 -31 24 -9 c13 -5 32 -10 43 -12 31 -6 32 -52 1 -69 -27 -14
-56 -65 -56 -99 0 -11 9 -76 20 -143 50 -312 52 -343 57 -1276 4 -715 3 -885
-8 -898 -7 -9 -30 -22 -51 -31 l-37 -15 21 -28 c20 -28 20 -30 4 -55 -9 -14
-28 -30 -42 -35 -19 -8 -24 -17 -24 -45 0 -21 5 -35 13 -36 41 -2 177 -19 205
-25 18 -3 32 -2 32 3 0 6 38 18 85 28 l85 18 0 39 c0 32 -4 40 -25 48 -14 5
-30 21 -37 35 -10 22 -8 29 11 49 l22 24 -46 15 c-33 12 -53 13 -71 7 -32 -13
-54 -13 -54 0 0 5 16 12 34 16 l35 6 4 932 c3 890 4 938 25 1086 12 85 26 179
32 209 20 105 7 166 -37 177 -18 5 -23 13 -23 40 0 31 3 34 41 44 l41 11 -19
22 c-11 12 -23 27 -27 34 -12 21 16 63 51 75 18 7 33 16 33 20 0 5 11 13 25
18 31 12 32 27 3 40 -13 6 -30 14 -38 19 -8 5 -23 12 -32 15 -9 3 -24 16 -33
30 -15 22 -15 27 0 55 8 17 20 31 26 31 23 0 -4 20 -36 26 -32 6 -35 9 -35 40
0 24 5 34 15 34 23 0 55 60 55 102 0 21 -9 93 -20 160 -39 247 -50 415 -50
797 0 384 8 518 41 741 32 216 34 242 15 278 -10 20 -24 32 -37 32 -17 0 -20
5 -17 37 3 33 7 37 42 47 35 10 37 12 22 25 -47 39 -37 92 21 113 18 7 33 15
33 18 0 4 11 12 25 18 32 15 32 30 0 42 -14 5 -25 14 -25 20 0 5 -11 10 -23
10 -55 0 -78 69 -37 110 l20 20 -25 10 c-15 6 -33 10 -41 10 -28 0 -16 56 21
93 39 39 44 70 25 168 -6 30 -20 122 -32 204 -20 142 -22 200 -27 1080 l-6
930 -72 3 -73 3 -1 -98z"/>
</g>
</svg>
