<?xml version="1.0" standalone="no"?>
<!DOCTYPE svg PUBLIC "-//W3C//DTD SVG 20010904//EN"
 "http://www.w3.org/TR/2001/REC-SVG-20010904/DTD/svg10.dtd">
<svg version="1.0" xmlns="http://www.w3.org/2000/svg"
 width="2550.000000pt" height="2700.000000pt" viewBox="0 0 2550.000000 2700.000000"
 preserveAspectRatio="xMidYMid meet">

<g transform="translate(0.000000,2700.000000) scale(0.100000,-0.100000)"
fill="#C5C3C1" stroke="none">
<path d="M4199 14104 l-66 -84 -6 -358 c-5 -349 -17 -508 -52 -726 -24 -154
-18 -202 32 -225 18 -9 24 -18 21 -38 -2 -21 -10 -29 -38 -36 -46 -12 -47 -13
-21 -41 32 -34 25 -67 -21 -89 -21 -10 -38 -23 -38 -28 0 -5 -6 -9 -14 -9 -18
0 -37 -23 -28 -35 9 -13 38 -31 79 -49 44 -20 53 -59 23 -92 -27 -28 -24 -34
22 -43 48 -10 49 -42 4 -85 -44 -41 -45 -63 -17 -252 40 -266 46 -361 46 -764
0 -402 -9 -549 -50 -795 -25 -155 -19 -196 33 -224 33 -17 30 -57 -5 -64 -53
-12 -60 -23 -34 -50 31 -34 24 -65 -18 -88 -19 -10 -37 -22 -40 -26 -3 -4 -15
-13 -25 -19 -29 -16 -31 -33 -4 -44 59 -27 103 -57 106 -74 2 -10 -6 -32 -18
-48 -12 -16 -20 -31 -18 -33 1 -2 19 -7 38 -12 49 -13 50 -41 5 -86 -42 -42
-44 -71 -20 -223 44 -269 47 -341 52 -1032 3 -371 2 -685 -1 -698 -4 -15 -21
-30 -51 -43 l-46 -20 21 -21 c11 -11 20 -26 20 -33 0 -16 -42 -57 -58 -57 -7
0 -12 -15 -12 -38 l0 -39 103 -7 c75 -4 128 -2 200 11 l97 16 0 39 c0 25 -5
38 -13 38 -20 0 -47 33 -47 57 0 11 7 26 15 33 23 19 18 27 -19 34 -19 4 -39
13 -46 21 -15 19 -8 1413 8 1530 7 44 21 148 33 232 24 168 19 206 -28 224
-39 15 -30 51 19 72 l41 17 -21 23 c-12 13 -22 32 -22 44 0 19 28 53 44 53 4
0 21 10 39 23 54 38 53 43 -20 82 -68 36 -81 70 -42 111 l22 23 -29 6 c-16 4
-35 8 -41 11 -22 6 -14 45 16 75 16 16 32 42 36 57 3 16 -5 107 -19 203 -41
287 -49 433 -43 851 5 381 13 489 53 732 19 116 10 169 -32 188 -17 8 -24 19
-24 40 0 18 5 28 14 28 8 0 27 5 42 10 l27 11 -22 22 c-11 13 -21 35 -21 49 0
22 10 32 60 60 33 18 62 38 64 45 3 7 -21 27 -59 49 -54 30 -65 40 -65 62 0
14 10 36 21 49 l22 22 -27 11 c-15 5 -34 10 -42 10 -22 0 -18 57 5 65 11 3 27
22 37 43 16 34 16 42 0 147 -44 285 -48 344 -53 818 -3 257 -8 467 -11 466 -4
0 -37 -39 -73 -85z"/>
</g>
</svg>
