<?xml version="1.0" standalone="no"?>
<!DOCTYPE svg PUBLIC "-//W3C//DTD SVG 20010904//EN"
 "http://www.w3.org/TR/2001/REC-SVG-20010904/DTD/svg10.dtd">
<svg version="1.0" xmlns="http://www.w3.org/2000/svg"
 width="2550.000000pt" height="2700.000000pt" viewBox="0 0 2550.000000 2700.000000"
 preserveAspectRatio="xMidYMid meet">

<g transform="translate(0.000000,2700.000000) scale(0.100000,-0.100000)"
fill="#C5C3C1" stroke="none">
<path d="M23278 26367 l-57 -52 -4 -620 c-4 -676 -8 -731 -72 -1035 -34 -157
-40 -221 -26 -248 6 -12 32 -33 56 -48 44 -25 62 -64 31 -64 -8 0 -27 -5 -41
-10 l-26 -10 20 -26 c37 -47 17 -114 -32 -114 -9 0 -17 -5 -17 -10 0 -6 -11
-15 -25 -20 -14 -5 -25 -15 -25 -21 0 -14 53 -66 93 -92 34 -22 37 -67 5 -97
-12 -11 -20 -21 -17 -23 2 -2 21 -14 42 -26 50 -30 51 -62 1 -80 -43 -15 -74
-62 -74 -111 0 -19 11 -85 25 -146 72 -321 88 -500 82 -949 -4 -391 -14 -490
-69 -755 -42 -205 -45 -248 -19 -282 12 -15 37 -33 56 -39 51 -19 48 -51 -7
-72 l-42 -17 23 -24 c33 -35 26 -85 -14 -106 -16 -8 -32 -17 -35 -20 -3 -3
-14 -10 -24 -16 -11 -6 -21 -15 -23 -21 -5 -14 29 -47 80 -79 44 -28 49 -65
17 -107 l-21 -26 41 -21 c50 -25 56 -62 13 -78 -37 -13 -71 -47 -79 -77 -8
-33 -3 -72 34 -250 65 -311 65 -311 69 -1114 3 -404 2 -745 -2 -758 -3 -15
-19 -29 -45 -39 -44 -18 -48 -25 -25 -44 8 -7 15 -26 15 -42 0 -22 -7 -33 -30
-46 -16 -9 -30 -24 -30 -32 0 -13 17 -15 108 -13 192 6 278 14 256 25 -43 23
-58 74 -29 98 22 18 19 27 -13 38 -66 23 -62 -26 -62 715 0 795 11 951 89
1299 16 70 26 138 24 152 -6 31 -43 70 -84 86 -24 10 -29 18 -27 38 2 20 11
28 38 35 45 11 46 12 21 38 -12 13 -21 35 -21 49 0 26 26 60 46 60 5 0 25 14
44 29 l35 29 -35 34 c-19 18 -47 41 -62 51 -35 22 -38 67 -6 99 12 12 18 23
12 25 -72 24 -100 86 -44 98 16 4 41 21 56 38 23 28 26 37 21 92 -3 33 -17
114 -32 180 -53 242 -66 373 -72 743 -7 436 14 671 86 995 36 161 32 185 -40
229 -47 30 -67 68 -34 68 8 0 25 5 39 11 l25 12 -19 27 c-11 16 -20 39 -20 52
0 27 28 58 52 58 9 0 18 7 22 15 3 8 12 15 20 15 7 0 17 7 20 16 7 17 -35 65
-87 98 -33 22 -36 65 -7 91 11 10 20 21 20 24 0 3 -18 17 -40 31 -51 31 -51
54 -2 79 47 24 72 60 74 104 0 17 -11 84 -25 147 -76 335 -87 487 -87 1205 0
460 -3 585 -13 593 -9 8 -27 -2 -69 -41z"/>
</g>
</svg>
