<?xml version="1.0" standalone="no"?>
<!DOCTYPE svg PUBLIC "-//W3C//DTD SVG 20010904//EN"
 "http://www.w3.org/TR/2001/REC-SVG-20010904/DTD/svg10.dtd">
<svg version="1.0" xmlns="http://www.w3.org/2000/svg"
 width="2550.000000pt" height="2700.000000pt" viewBox="0 0 2550.000000 2700.000000"
 preserveAspectRatio="xMidYMid meet">

<g transform="translate(0.000000,2700.000000) scale(0.100000,-0.100000)"
fill="#C5C3C1" stroke="none">
<path d="M13293 13669 c-26 -23 -50 -43 -52 -45 -3 -2 -6 -431 -7 -952 -2
-1072 -4 -1111 -86 -1506 -29 -143 -16 -190 60 -223 27 -11 33 -19 30 -40 -2
-19 -13 -29 -43 -41 -22 -8 -42 -17 -44 -18 -2 -2 8 -17 23 -34 14 -17 26 -37
26 -44 0 -19 -30 -57 -43 -54 -7 2 -26 -10 -43 -25 -17 -15 -39 -34 -50 -42
-19 -15 -19 -15 0 -30 11 -8 25 -15 32 -15 6 0 14 -7 18 -15 3 -8 14 -15 25
-15 21 0 61 -43 61 -66 0 -7 -11 -26 -25 -42 -28 -33 -24 -41 29 -51 26 -6 32
-12 34 -38 3 -28 -1 -32 -33 -43 -63 -21 -88 -86 -65 -170 14 -52 58 -296 65
-365 4 -33 11 -91 17 -130 16 -115 22 -749 9 -909 -16 -186 -46 -395 -77 -530
-13 -60 -24 -120 -24 -135 0 -39 36 -90 75 -107 29 -12 35 -20 35 -43 0 -25
-6 -31 -37 -41 -54 -18 -58 -24 -29 -53 14 -14 26 -34 26 -45 0 -19 -34 -62
-50 -62 -11 0 -90 -71 -90 -82 0 -5 11 -13 25 -18 14 -5 25 -14 25 -19 0 -4
13 -11 30 -14 16 -4 37 -18 46 -32 16 -24 16 -29 1 -61 -9 -19 -21 -34 -27
-34 -5 0 -10 -4 -10 -10 0 -9 40 -24 80 -29 6 0 10 -14 10 -29 0 -24 -6 -31
-40 -45 -28 -11 -44 -26 -57 -51 -16 -35 -16 -41 15 -204 78 -409 80 -463 81
-1557 0 -776 -2 -934 -14 -951 -8 -12 -34 -30 -59 -40 -25 -11 -46 -23 -46
-27 0 -5 4 -6 9 -2 13 8 41 -23 41 -45 0 -32 -12 -50 -41 -66 -24 -12 -29 -21
-29 -54 0 -47 -2 -47 161 -55 122 -7 128 -6 197 21 l72 28 0 40 c0 36 -4 43
-33 56 -39 18 -48 61 -21 91 16 17 16 22 4 29 -8 6 -20 10 -26 10 -6 0 -23 9
-37 21 l-27 20 0 910 c0 544 4 967 10 1052 13 166 51 431 80 553 11 47 20 100
20 117 0 45 -34 96 -75 113 -29 12 -35 19 -35 44 0 17 4 30 9 30 5 0 25 7 45
15 l37 16 -25 30 c-14 17 -26 39 -26 50 0 22 45 69 66 69 7 0 17 6 21 13 4 6
17 17 28 23 11 6 20 20 20 30 0 11 -8 20 -20 22 -11 3 -24 10 -28 18 -4 8 -14
14 -21 14 -22 0 -66 40 -66 60 0 10 12 33 26 50 15 17 25 32 23 34 -2 2 -22 7
-44 13 -31 7 -41 14 -43 31 -4 28 14 52 38 52 29 0 70 57 70 97 0 19 -13 99
-29 177 -57 276 -81 529 -81 868 0 373 26 673 82 928 41 189 32 242 -47 275
-31 12 -36 19 -33 41 2 20 12 30 43 42 52 20 52 19 28 45 -44 48 -36 88 23
113 19 8 34 18 34 23 0 4 11 13 25 19 14 6 25 19 25 27 0 9 -11 20 -25 25 -14
5 -25 14 -25 20 0 5 -6 10 -14 10 -21 0 -76 49 -76 67 0 9 11 31 26 50 l25 33
-23 9 c-13 5 -32 10 -43 12 -14 3 -21 13 -23 36 -3 27 0 32 26 38 39 8 72 44
79 88 3 21 -5 84 -21 158 -33 160 -62 368 -75 545 -7 84 -11 507 -11 1057 l0
917 -24 0 c-15 0 -45 -17 -73 -41z"/>
</g>
</svg>
