<?xml version="1.0" standalone="no"?>
<!DOCTYPE svg PUBLIC "-//W3C//DTD SVG 20010904//EN"
 "http://www.w3.org/TR/2001/REC-SVG-20010904/DTD/svg10.dtd">
<svg version="1.0" xmlns="http://www.w3.org/2000/svg"
 width="2550.000000pt" height="2700.000000pt" viewBox="0 0 2550.000000 2700.000000"
 preserveAspectRatio="xMidYMid meet">

<g transform="translate(0.000000,2700.000000) scale(0.100000,-0.100000)"
fill="#C5C3C1" stroke="none">
<path d="M12861 13672 l-31 -49 0 -924 c0 -953 -5 -1118 -45 -1438 -18 -139
-13 -180 22 -215 37 -37 29 -77 -17 -89 -46 -12 -46 -12 -21 -43 11 -15 21
-37 21 -50 0 -27 -36 -64 -62 -64 -10 0 -18 -6 -18 -13 0 -7 -10 -17 -22 -22
-33 -14 -35 -43 -4 -55 14 -5 26 -14 26 -20 0 -5 7 -10 16 -10 8 0 29 -13 45
-29 32 -32 31 -50 -5 -89 -17 -20 -18 -24 -6 -32 8 -5 21 -10 28 -11 6 -1 17
-2 24 -3 6 0 15 -14 19 -29 6 -20 3 -32 -10 -45 -49 -47 -53 -91 -28 -302 31
-257 40 -457 40 -875 0 -416 -10 -621 -47 -939 -15 -130 -8 -182 27 -208 17
-13 24 -26 22 -40 -3 -11 -6 -21 -7 -22 -2 -1 -20 -10 -42 -19 l-39 -18 21
-22 c31 -35 35 -61 12 -89 -11 -14 -31 -29 -45 -32 -14 -4 -25 -11 -25 -16 0
-6 -11 -15 -25 -20 -14 -5 -25 -16 -25 -25 0 -8 11 -21 25 -27 14 -6 25 -14
25 -18 0 -3 15 -11 33 -18 45 -16 60 -50 41 -88 -9 -16 -20 -32 -27 -36 -14
-9 -11 -11 38 -30 46 -18 55 -48 22 -78 -40 -38 -46 -100 -26 -275 37 -337 41
-460 42 -1487 0 -830 -2 -1010 -13 -1023 -8 -9 -31 -24 -52 -32 l-39 -16 20
-21 c12 -12 21 -31 21 -42 0 -24 -35 -64 -55 -64 -11 0 -15 -12 -15 -44 l0
-43 48 -6 c26 -3 88 -9 139 -13 84 -6 97 -4 162 21 l71 27 0 44 c0 37 -3 44
-19 44 -22 0 -51 35 -51 62 0 10 9 27 20 38 25 25 25 30 3 30 -10 0 -33 9 -50
20 l-33 20 0 990 c0 1007 5 1202 40 1515 21 185 16 240 -19 264 -13 8 -21 24
-21 40 0 21 8 30 40 44 22 9 40 19 40 22 0 3 -9 14 -20 25 -40 40 -17 105 41
113 13 2 23 8 22 13 -1 5 9 15 23 22 30 16 28 43 -4 57 -12 5 -22 13 -22 17 0
5 -8 8 -18 8 -25 0 -62 41 -62 69 0 13 9 35 20 49 l21 26 -23 13 c-13 7 -31
12 -40 13 -25 0 -24 52 1 74 34 30 44 93 32 192 -41 338 -46 448 -46 989 0
476 6 611 41 907 17 140 10 196 -27 222 -32 22 -22 67 18 80 45 16 48 22 24
52 -22 28 -28 69 -11 79 6 3 10 14 10 23 0 9 19 33 42 53 39 34 41 38 26 53
-9 9 -21 16 -26 16 -19 0 -62 50 -62 73 0 13 9 33 20 45 29 31 25 39 -20 47
-37 6 -40 9 -40 39 0 19 8 38 19 48 37 32 43 87 26 231 -8 73 -20 182 -27 242
-7 70 -13 491 -17 1150 l-6 1040 -46 3 c-46 3 -47 2 -78 -46z"/>
</g>
</svg>
