<?xml version="1.0" standalone="no"?>
<!DOCTYPE svg PUBLIC "-//W3C//DTD SVG 20010904//EN"
 "http://www.w3.org/TR/2001/REC-SVG-20010904/DTD/svg10.dtd">
<svg version="1.0" xmlns="http://www.w3.org/2000/svg"
 width="2550.000000pt" height="2700.000000pt" viewBox="0 0 2550.000000 2700.000000"
 preserveAspectRatio="xMidYMid meet">

<g transform="translate(0.000000,2700.000000) scale(0.100000,-0.100000)"
fill="#C5C3C1" stroke="none">
<path d="M13040 12963 c0 -590 -7 -789 -37 -1063 -9 -85 -17 -190 -17 -233 -1
-74 1 -80 27 -102 41 -36 37 -70 -10 -85 -53 -17 -57 -23 -28 -50 14 -13 25
-34 25 -46 0 -23 -42 -64 -66 -64 -8 0 -14 -5 -14 -10 0 -6 -11 -15 -25 -20
-32 -12 -33 -47 -2 -60 36 -17 91 -51 99 -64 14 -20 8 -44 -17 -74 l-24 -29
25 -12 c14 -6 34 -11 44 -11 29 0 26 -45 -5 -81 -13 -16 -27 -45 -30 -63 -4
-18 3 -118 14 -222 30 -271 41 -495 41 -854 0 -338 -10 -553 -37 -800 -9 -85
-17 -188 -17 -228 -1 -69 1 -75 27 -96 41 -33 36 -61 -18 -85 l-45 -20 25 -25
c33 -33 32 -69 -1 -95 -15 -12 -30 -21 -34 -21 -14 0 -70 -54 -70 -67 0 -8 10
-18 23 -24 110 -50 132 -86 86 -135 -26 -28 -19 -41 26 -50 31 -6 35 -10 35
-38 0 -20 -7 -35 -20 -43 -39 -25 -44 -81 -21 -288 11 -104 25 -264 31 -355
11 -175 14 -2507 4 -2534 -3 -9 -25 -25 -49 -37 l-44 -22 21 -28 c18 -24 20
-33 10 -53 -6 -14 -24 -32 -39 -40 -25 -13 -28 -19 -25 -54 l4 -39 131 -10
c129 -10 134 -9 202 15 39 14 71 26 72 27 2 1 5 18 7 38 5 33 2 39 -24 52 -46
24 -56 52 -31 86 12 15 21 30 21 32 0 2 -18 9 -40 16 -22 6 -44 20 -50 31 -14
25 -13 2230 0 2485 6 105 17 260 26 345 31 318 31 305 -5 339 -45 42 -41 66
14 91 l46 21 -26 30 c-14 17 -25 37 -25 45 0 17 44 64 60 64 5 0 19 8 29 18
11 9 27 23 36 30 12 11 13 17 4 28 -6 8 -18 14 -26 14 -7 0 -16 7 -19 15 -4 8
-14 15 -23 15 -22 0 -61 41 -61 62 0 9 11 30 25 46 l25 30 -42 14 c-53 18 -60
45 -24 88 37 44 40 84 22 248 -23 219 -25 242 -36 427 -22 376 -9 883 31 1288
12 115 18 224 14 243 -3 19 -17 45 -31 56 -37 33 -32 64 14 79 54 17 55 18 27
51 -14 16 -25 36 -25 44 0 17 44 64 60 64 5 0 18 8 28 18 10 9 27 22 38 28 16
10 17 13 5 28 -7 9 -20 16 -27 16 -8 0 -14 4 -14 10 0 5 -15 16 -34 24 -59 24
-67 65 -23 113 l20 22 -27 11 c-15 5 -33 10 -40 10 -22 0 -26 49 -5 68 43 40
47 95 24 292 -31 270 -37 434 -40 1050 l-2 635 -77 3 -76 3 0 -578z"/>
</g>
</svg>
