<?xml version="1.0" standalone="no"?>
<!DOCTYPE svg PUBLIC "-//W3C//DTD SVG 20010904//EN"
 "http://www.w3.org/TR/2001/REC-SVG-20010904/DTD/svg10.dtd">
<svg version="1.0" xmlns="http://www.w3.org/2000/svg"
 width="2550.000000pt" height="2700.000000pt" viewBox="0 0 2550.000000 2700.000000"
 preserveAspectRatio="xMidYMid meet">

<g transform="translate(0.000000,2700.000000) scale(0.100000,-0.100000)"
fill="#C5C3C1" stroke="none">
<path d="M15728 19143 l-47 -48 -4 -595 c-4 -647 -7 -686 -68 -983 -25 -123
-28 -154 -19 -182 11 -34 47 -65 75 -65 12 0 15 -8 13 -32 -2 -24 -8 -32 -28
-35 -39 -6 -44 -19 -19 -52 19 -26 21 -34 10 -57 -6 -14 -25 -31 -41 -37 -17
-6 -30 -15 -30 -19 0 -4 -7 -8 -15 -8 -8 0 -19 -9 -24 -19 -9 -16 -5 -23 24
-45 18 -14 38 -26 43 -26 4 0 19 -11 32 -25 20 -22 22 -27 10 -55 -7 -16 -16
-30 -21 -30 -24 0 -5 -28 24 -36 26 -8 33 -15 35 -42 2 -24 -1 -32 -12 -32 -9
0 -30 -13 -48 -29 -41 -37 -42 -71 -6 -241 55 -259 63 -358 63 -810 0 -454 -5
-520 -67 -826 -28 -142 -29 -153 -14 -188 11 -26 26 -41 51 -51 29 -13 35 -20
35 -45 0 -19 -5 -30 -14 -30 -8 0 -27 -5 -41 -10 l-27 -10 26 -31 c14 -17 26
-36 26 -43 0 -15 -42 -56 -58 -56 -6 0 -26 -14 -44 -31 -32 -29 -33 -30 -13
-44 11 -8 25 -18 31 -24 6 -5 25 -16 41 -25 28 -14 43 -34 43 -56 0 -5 -11
-22 -25 -39 l-26 -30 41 -12 c33 -10 40 -16 40 -38 0 -19 -9 -30 -32 -41 -18
-8 -41 -30 -52 -48 l-19 -34 32 -161 c68 -346 64 -265 68 -1566 4 -1306 9
-1204 -57 -1231 l-29 -12 21 -28 c20 -27 20 -30 5 -54 -9 -13 -26 -27 -37 -31
-16 -5 -20 -15 -20 -46 l0 -39 118 -1 c64 -1 124 -2 132 -3 8 0 42 4 75 9 60
10 60 10 61 46 2 30 -2 37 -27 48 -36 16 -47 52 -25 86 16 25 16 26 -11 36
-64 24 -59 -73 -57 1181 2 1259 2 1259 65 1573 17 83 31 165 30 184 -1 45 -25
79 -67 97 -37 16 -45 43 -17 65 9 8 18 13 20 12 6 -5 18 -3 32 6 11 7 9 14 -9
39 -12 16 -20 38 -18 48 1 10 30 36 63 58 32 23 59 46 58 51 0 6 -10 14 -22
20 -11 5 -21 13 -21 17 0 4 -16 15 -35 24 -46 21 -55 55 -26 94 11 16 21 31
21 34 0 3 -16 8 -35 12 -36 6 -50 28 -39 58 3 9 12 16 20 16 22 0 64 43 73 75
5 19 3 54 -6 95 -67 319 -86 515 -87 875 -1 405 15 597 75 870 33 153 23 200
-47 230 -46 19 -44 53 3 69 45 16 48 22 24 52 -11 15 -21 34 -21 44 0 18 30
50 47 50 5 0 19 8 31 18 11 9 29 22 39 29 17 12 17 13 -2 27 -11 9 -27 21 -35
28 -8 7 -27 18 -42 25 -38 16 -47 56 -19 93 21 29 21 29 2 40 -11 5 -27 10
-35 10 -9 0 -16 3 -17 8 0 4 -2 14 -4 23 -4 22 4 32 37 46 35 16 60 55 60 95
0 18 -11 87 -25 153 -61 292 -69 398 -72 1057 -2 323 -6 592 -10 598 -13 21
-42 8 -87 -37z"/>
</g>
</svg>
