<?xml version="1.0" standalone="no"?>
<!DOCTYPE svg PUBLIC "-//W3C//DTD SVG 20010904//EN"
 "http://www.w3.org/TR/2001/REC-SVG-20010904/DTD/svg10.dtd">
<svg version="1.0" xmlns="http://www.w3.org/2000/svg"
 width="2550.000000pt" height="2700.000000pt" viewBox="0 0 2550.000000 2700.000000"
 preserveAspectRatio="xMidYMid meet">

<g transform="translate(0.000000,2700.000000) scale(0.100000,-0.100000)"
fill="#C5C3C1" stroke="none">
<path d="M17790 21118 l-45 -43 -6 -620 c-6 -673 -6 -665 -71 -992 -31 -158
-32 -163 -15 -198 11 -24 29 -41 53 -51 29 -12 35 -19 32 -41 -2 -21 -10 -29
-35 -35 -39 -10 -39 -12 -13 -45 11 -14 20 -34 20 -44 0 -17 -44 -59 -62 -59
-5 0 -16 -6 -23 -12 -8 -7 -22 -19 -31 -27 -14 -12 -13 -16 16 -42 17 -16 36
-29 41 -29 15 0 59 -47 59 -64 0 -8 -12 -28 -26 -45 l-26 -31 29 -10 c38 -14
55 -24 54 -32 -1 -5 -1 -17 -1 -28 0 -12 -7 -20 -16 -20 -28 0 -84 -65 -84
-96 0 -16 13 -93 29 -172 60 -289 66 -366 66 -842 0 -469 -4 -522 -61 -795
-14 -66 -28 -138 -31 -161 -7 -55 16 -99 62 -115 30 -11 35 -18 35 -45 0 -28
-4 -32 -35 -38 -40 -8 -42 -12 -15 -46 11 -14 20 -32 20 -41 0 -16 -40 -59
-56 -59 -5 0 -24 -13 -43 -29 -31 -25 -32 -29 -17 -42 9 -8 22 -19 29 -25 7
-6 27 -19 44 -28 17 -8 35 -25 38 -37 7 -22 -11 -69 -27 -69 -23 0 -4 -28 25
-36 26 -8 33 -15 35 -42 3 -24 -1 -32 -13 -32 -28 0 -85 -64 -85 -95 0 -15 13
-91 29 -169 68 -330 66 -275 66 -1601 l0 -1200 -42 -23 -43 -23 22 -29 c20
-28 20 -30 3 -56 -9 -14 -26 -29 -36 -31 -15 -4 -19 -14 -19 -45 l0 -40 184 4
c101 2 186 5 189 8 3 3 8 20 12 38 5 26 3 33 -12 39 -28 10 -53 34 -53 53 0
10 9 28 19 42 l20 24 -34 13 c-18 6 -38 18 -45 26 -17 20 -18 2274 -1 2425 17
150 39 289 67 414 13 60 24 119 24 132 0 26 -45 84 -65 84 -21 0 -44 28 -40
47 2 10 4 21 4 26 1 4 11 7 24 7 43 0 52 15 27 48 -28 38 -21 78 18 95 43 19
82 48 82 62 0 14 -62 65 -79 65 -13 0 -41 41 -41 60 0 9 10 27 22 40 21 22 21
23 3 36 -10 8 -27 14 -36 14 -20 0 -33 29 -23 54 3 9 14 16 23 16 23 0 68 48
76 81 4 14 -7 89 -24 173 -60 286 -73 440 -73 836 1 418 16 589 78 869 15 68
23 127 20 146 -7 35 -38 69 -73 80 -17 5 -23 14 -23 35 0 23 5 30 30 35 38 8
46 21 26 41 -9 8 -19 27 -22 41 -6 21 -1 31 20 50 15 13 34 23 42 23 8 0 14 4
14 9 0 5 9 11 20 14 26 7 26 44 1 52 -11 3 -22 12 -25 20 -3 8 -12 15 -20 15
-20 0 -56 39 -56 61 0 9 10 29 21 44 24 29 19 39 -28 51 -14 4 -23 14 -23 25
0 10 -1 22 -1 27 -1 4 15 15 35 25 23 11 43 31 53 53 16 33 16 40 -1 117 -79
365 -86 460 -89 1167 l-2 605 -25 3 c-18 1 -38 -10 -70 -40z"/>
</g>
</svg>
