<?xml version="1.0" standalone="no"?>
<!DOCTYPE svg PUBLIC "-//W3C//DTD SVG 20010904//EN"
 "http://www.w3.org/TR/2001/REC-SVG-20010904/DTD/svg10.dtd">
<svg version="1.0" xmlns="http://www.w3.org/2000/svg"
 width="3542.000000pt" height="3750.000000pt" viewBox="0 0 3542.000000 3750.000000"
 preserveAspectRatio="xMidYMid meet">

<g transform="translate(0.000000,3750.000000) scale(0.100000,-0.100000)"
fill="#3a4548" stroke="none">
<path d="M659 15733 c-1 -1501 0 -2743 1 -2761 1 -19 -4 -34 -12 -36 -127 -36
-129 -38 -90 -74 34 -31 48 -69 37 -101 -7 -24 -64 -61 -94 -61 -14 0 -21 -6
-21 -19 0 -13 -9 -20 -30 -24 -55 -11 -51 -77 5 -91 14 -4 25 -12 25 -20 0 -7
13 -16 29 -19 15 -3 42 -18 60 -32 43 -37 42 -73 -4 -124 l-35 -38 43 -16 c23
-8 52 -18 64 -22 l23 -6 0 -2765 c0 -2619 -1 -2766 -17 -2784 -10 -10 -44 -30
-75 -43 l-58 -26 30 -30 c49 -49 32 -106 -40 -135 -38 -15 -38 -15 -37 -70 l2
-55 65 -20 c169 -51 143 -51 432 1 l118 21 0 57 c0 56 -1 58 -32 69 -48 17
-68 40 -68 78 0 23 8 42 25 59 14 14 25 26 25 28 0 2 -27 14 -60 26 -34 13
-65 31 -70 41 -9 16 -11 1045 -10 5192 l0 367 29 0 c17 0 33 5 36 10 3 6 15
10 25 10 30 0 34 19 7 40 -30 24 -46 66 -37 100 6 27 62 70 91 70 11 0 19 6
19 13 0 7 14 20 32 28 46 20 57 43 34 68 -11 12 -27 21 -37 21 -10 0 -20 9
-24 19 -3 12 -19 21 -40 25 -46 9 -83 54 -77 94 2 17 17 43 33 58 16 15 29 31
29 34 0 8 -67 38 -95 42 -20 3 -20 12 -23 2766 l-2 2762 -115 0 -115 0 -1
-2727z"/>
</g>
</svg>
