<?xml version="1.0" standalone="no"?>
<!DOCTYPE svg PUBLIC "-//W3C//DTD SVG 20010904//EN"
 "http://www.w3.org/TR/2001/REC-SVG-20010904/DTD/svg10.dtd">
<svg version="1.0" xmlns="http://www.w3.org/2000/svg"
 width="3542.000000pt" height="3750.000000pt" viewBox="0 0 3542.000000 3750.000000"
 preserveAspectRatio="xMidYMid meet">

<g transform="translate(0.000000,3750.000000) scale(0.100000,-0.100000)"
fill="#3a4548" stroke="none">
<path d="M29680 16482 l0 -2198 -50 -18 -50 -18 30 -34 c16 -19 30 -43 30 -53
0 -23 -54 -71 -81 -71 -10 0 -19 -6 -19 -14 0 -8 -11 -17 -25 -20 -18 -5 -25
-13 -25 -31 0 -18 7 -26 25 -31 14 -3 25 -12 25 -19 0 -8 13 -16 29 -20 16 -3
39 -17 51 -30 27 -29 22 -65 -16 -100 l-26 -24 37 -15 c21 -9 44 -16 51 -16
12 0 14 -209 15 -1342 1 -739 2 -1732 3 -2207 l1 -863 -23 -19 c-13 -10 -39
-23 -58 -29 -39 -13 -42 -20 -14 -38 39 -24 21 -91 -30 -112 -27 -11 -30 -17
-30 -56 0 -24 2 -44 5 -44 2 0 68 -9 146 -21 l143 -20 98 22 98 23 0 43 c0 39
-3 44 -35 57 -55 23 -64 67 -24 112 19 20 18 20 -29 37 -26 10 -53 26 -60 37
-10 16 -11 455 -7 2168 3 1181 5 2170 5 2197 l0 51 45 13 c25 7 45 17 45 22 0
4 -11 20 -25 35 -14 15 -25 37 -25 49 0 24 34 59 68 70 12 3 22 11 22 16 0 6
14 15 31 21 37 13 37 46 0 64 -13 7 -26 16 -30 21 -3 5 -21 15 -39 22 -57 23
-66 77 -21 122 25 25 20 32 -30 49 -38 12 -41 16 -42 49 0 20 0 1009 -1 2199
l-1 2162 -93 0 -94 0 0 -2198z"/>
</g>
</svg>
