<?xml version="1.0" standalone="no"?>
<!DOCTYPE svg PUBLIC "-//W3C//DTD SVG 20010904//EN"
 "http://www.w3.org/TR/2001/REC-SVG-20010904/DTD/svg10.dtd">
<svg version="1.0" xmlns="http://www.w3.org/2000/svg"
 width="3542.000000pt" height="3750.000000pt" viewBox="0 0 3542.000000 3750.000000"
 preserveAspectRatio="xMidYMid meet">

<g transform="translate(0.000000,3750.000000) scale(0.100000,-0.100000)"
fill="#3a4548" stroke="none">
<path d="M10026 18581 c-3 -4 -5 -1090 -5 -2412 0 -1322 -1 -2414 -1 -2426 0
-16 -6 -23 -20 -23 -11 0 -37 -7 -56 -15 l-36 -15 31 -29 c43 -40 43 -91 2
-120 -16 -12 -36 -21 -45 -21 -8 0 -19 -6 -23 -13 -4 -7 -20 -20 -35 -30 -38
-24 -37 -55 2 -70 17 -6 30 -17 30 -24 0 -7 7 -13 16 -13 9 0 32 -9 50 -21 43
-26 47 -72 9 -117 -14 -17 -25 -32 -25 -36 0 -3 25 -13 55 -21 l55 -16 0
-2433 c0 -2394 0 -2433 -19 -2453 -11 -12 -40 -29 -65 -38 -25 -10 -46 -19
-46 -21 0 -2 11 -14 25 -28 41 -41 26 -91 -35 -116 -29 -12 -31 -15 -28 -63
l3 -51 110 -24 c109 -25 110 -25 215 -8 235 37 212 28 208 84 -3 42 -6 48 -37
63 -44 20 -64 59 -51 94 5 14 17 28 25 31 26 10 17 21 -40 45 -34 14 -57 30
-61 43 -5 15 -9 4836 -5 4877 1 4 18 9 39 13 63 10 71 21 39 54 -49 51 -25
125 44 139 16 3 29 12 29 19 0 8 6 14 14 14 8 0 24 8 36 18 19 16 21 22 11 40
-6 12 -23 25 -36 28 -14 3 -25 12 -25 19 0 7 -13 15 -30 18 -71 15 -92 82 -40
132 16 15 27 32 24 36 -3 5 -26 15 -52 22 l-47 14 -3 2432 -2 2431 -99 0 c-55
0 -102 -4 -105 -9z"/>
</g>
</svg>
