<?xml version="1.0" standalone="no"?>
<!DOCTYPE svg PUBLIC "-//W3C//DTD SVG 20010904//EN"
 "http://www.w3.org/TR/2001/REC-SVG-20010904/DTD/svg10.dtd">
<svg version="1.0" xmlns="http://www.w3.org/2000/svg"
 width="3542.000000pt" height="3750.000000pt" viewBox="0 0 3542.000000 3750.000000"
 preserveAspectRatio="xMidYMid meet">

<g transform="translate(0.000000,3750.000000) scale(0.100000,-0.100000)"
fill="#C5C3C1" stroke="none">
<path d="M18358 18702 l-48 -3 0 -1360 0 -1359 -21 0 c-17 0 -54 -14 -68 -26
-2 -2 8 -17 23 -34 14 -17 26 -40 26 -50 0 -20 -54 -70 -76 -70 -8 0 -14 -4
-14 -9 0 -6 -12 -16 -27 -23 -39 -18 -41 -45 -6 -60 15 -7 32 -18 36 -25 4 -7
14 -13 21 -13 7 0 25 -9 40 -21 33 -26 34 -62 0 -96 -29 -29 -25 -35 29 -53
l37 -12 0 -1313 0 -1313 -32 -6 c-59 -11 -65 -20 -35 -56 15 -17 27 -39 27
-49 0 -23 -35 -59 -65 -67 -14 -3 -25 -10 -25 -15 0 -4 -12 -14 -27 -21 -17
-8 -28 -21 -28 -33 0 -12 11 -25 28 -33 15 -7 27 -17 27 -21 0 -5 13 -11 30
-14 36 -8 64 -48 55 -78 -4 -12 -19 -33 -33 -45 l-25 -24 36 -15 c20 -8 43
-15 52 -15 13 0 15 -145 15 -1362 0 -750 -4 -1368 -8 -1375 -4 -7 -29 -22 -56
-33 l-48 -22 21 -22 c36 -38 23 -86 -29 -105 -30 -10 -31 -13 -28 -58 l3 -48
122 -19 c120 -19 123 -19 235 0 l113 19 3 48 c3 38 0 48 -15 54 -30 10 -63 45
-63 67 0 11 10 30 22 43 l21 23 -49 21 c-27 12 -52 27 -56 33 -4 6 -8 624 -8
1374 0 1150 2 1362 14 1362 7 0 30 7 51 15 l37 16 -26 26 c-14 14 -28 34 -31
45 -9 27 21 68 55 75 17 3 30 9 30 14 0 5 14 15 30 24 17 9 30 24 30 34 0 12
-11 23 -30 30 -16 5 -30 15 -30 20 0 6 -6 11 -14 11 -22 0 -76 50 -76 70 0 10
12 33 26 50 15 17 25 32 23 34 -14 12 -51 26 -68 26 l-21 0 0 1314 0 1314 50
17 51 17 -31 34 c-16 19 -30 41 -30 48 0 25 41 66 65 66 13 0 28 6 32 14 4 7
18 19 31 25 29 15 26 54 -3 59 -11 3 -28 13 -38 23 -10 10 -24 19 -32 19 -16
0 -55 47 -55 66 0 7 14 29 30 48 l30 34 -31 11 c-18 6 -40 11 -50 11 -18 0
-19 43 -19 1363 l0 1362 -42 0 c-24 0 -64 -1 -90 -3z"/>
</g>
</svg>
