<?xml version="1.0" standalone="no"?>
<!DOCTYPE svg PUBLIC "-//W3C//DTD SVG 20010904//EN"
 "http://www.w3.org/TR/2001/REC-SVG-20010904/DTD/svg10.dtd">
<svg version="1.0" xmlns="http://www.w3.org/2000/svg"
 width="3542.000000pt" height="3750.000000pt" viewBox="0 0 3542.000000 3750.000000"
 preserveAspectRatio="xMidYMid meet">

<g transform="translate(0.000000,3750.000000) scale(0.100000,-0.100000)"
fill="#C5C3C1" stroke="none">
<path d="M25430 17411 l0 -1319 -32 -6 c-59 -11 -65 -20 -35 -56 15 -17 27
-40 27 -50 0 -20 -44 -60 -66 -60 -7 0 -17 -6 -21 -12 -4 -7 -17 -18 -28 -24
-28 -16 -27 -58 3 -62 12 -2 22 -10 22 -18 0 -8 9 -14 20 -14 27 0 70 -43 70
-70 0 -11 -11 -32 -25 -46 -31 -31 -25 -42 26 -50 l39 -7 -2 -1275 -3 -1276
-35 -9 c-52 -13 -56 -22 -26 -57 14 -17 26 -38 26 -46 0 -20 -45 -64 -65 -64
-8 0 -24 -8 -34 -17 -11 -10 -27 -24 -35 -31 -19 -15 -5 -52 20 -52 8 0 17 -7
20 -15 4 -8 15 -15 26 -15 22 0 68 -43 68 -64 0 -8 -12 -29 -26 -46 -30 -35
-26 -44 26 -57 l35 -9 3 -1310 c1 -720 0 -1319 -3 -1330 -3 -14 -22 -29 -55
-43 -49 -21 -50 -21 -30 -41 11 -11 20 -30 20 -43 0 -24 -37 -67 -57 -67 -12
0 -23 -55 -16 -81 3 -12 24 -19 71 -27 144 -24 198 -25 296 -7 l96 17 0 49 c0
38 -4 49 -15 49 -21 0 -65 45 -65 65 0 9 11 27 24 40 l23 23 -41 18 c-22 10
-49 26 -59 36 -18 18 -18 74 -15 1333 l3 1315 48 16 c26 9 47 17 47 19 0 2
-11 15 -25 29 -42 43 -27 98 31 112 13 3 24 10 24 15 0 4 12 14 28 21 33 16
36 49 5 63 -13 5 -23 15 -23 22 0 7 -8 13 -19 13 -29 0 -71 39 -71 65 0 13 12
37 26 54 28 33 28 33 -36 49 l-35 8 0 1274 0 1273 49 14 48 14 -24 27 c-40 43
-42 60 -9 93 16 16 37 29 45 29 9 0 16 4 16 9 0 6 12 16 27 23 40 19 42 46 4
61 -17 6 -31 15 -31 19 0 4 -16 14 -35 22 -57 24 -66 78 -19 115 20 16 22 21
10 30 -8 7 -30 15 -50 18 l-36 6 0 1318 0 1319 -85 0 -85 0 0 -1319z"/>
</g>
</svg>
