<?xml version="1.0" standalone="no"?>
<!DOCTYPE svg PUBLIC "-//W3C//DTD SVG 20010904//EN"
 "http://www.w3.org/TR/2001/REC-SVG-20010904/DTD/svg10.dtd">
<svg version="1.0" xmlns="http://www.w3.org/2000/svg"
 width="3542.000000pt" height="3750.000000pt" viewBox="0 0 3542.000000 3750.000000"
 preserveAspectRatio="xMidYMid meet">

<g transform="translate(0.000000,3750.000000) scale(0.100000,-0.100000)"
fill="#C5C3C1" stroke="none">
<path d="M34478 17139 l-3 -1492 -47 -14 c-52 -15 -58 -25 -29 -45 11 -8 25
-26 32 -41 11 -24 10 -31 -8 -55 -11 -15 -34 -31 -51 -37 -18 -5 -32 -15 -32
-22 0 -7 -7 -13 -15 -13 -8 0 -24 -9 -35 -20 -16 -16 -18 -25 -10 -40 6 -11
19 -20 30 -20 11 0 24 -9 30 -20 6 -11 18 -20 28 -20 22 -1 46 -19 61 -47 13
-25 4 -51 -31 -90 l-20 -21 30 -16 c17 -9 40 -16 52 -16 l20 0 0 -1438 0
-1438 -45 -13 c-25 -7 -48 -17 -51 -22 -3 -5 8 -26 26 -45 22 -26 29 -42 25
-57 -9 -30 -55 -67 -82 -67 -14 0 -23 -6 -23 -15 0 -8 -6 -15 -14 -15 -8 0
-22 -10 -30 -22 -18 -26 -5 -58 24 -58 11 0 20 -7 20 -15 0 -9 12 -18 29 -21
69 -14 93 -82 46 -130 -14 -14 -25 -27 -25 -29 0 -9 60 -35 80 -35 l20 0 0
-1493 c0 -1180 -3 -1496 -12 -1508 -7 -9 -33 -24 -58 -34 -25 -10 -46 -20 -48
-21 -2 -1 8 -13 22 -27 14 -15 26 -35 26 -47 0 -27 -43 -70 -70 -70 -19 0 -21
-5 -18 -57 l3 -58 168 -23 168 -23 87 24 87 23 3 58 c2 35 -1 56 -7 52 -5 -3
-23 6 -40 20 -38 32 -43 86 -11 106 28 18 25 23 -20 38 -22 7 -49 22 -60 32
-20 19 -20 23 -18 1510 l3 1492 25 7 c14 4 38 12 53 18 l28 11 -30 31 c-53 52
-33 118 40 134 16 4 29 12 29 19 0 6 14 17 30 23 21 8 30 18 30 33 0 15 -9 25
-30 33 -16 6 -30 17 -30 24 0 7 -8 13 -17 13 -10 0 -33 9 -50 20 -41 25 -44
65 -8 108 14 17 25 33 25 36 0 8 -69 36 -83 33 -9 -1 -13 337 -15 1441 l-2
1442 20 0 c12 0 34 7 51 15 l30 16 -26 30 c-45 55 -24 119 46 134 16 4 29 13
29 20 0 8 10 15 21 17 12 2 27 11 33 21 9 15 6 22 -14 38 -14 10 -32 26 -41
34 -9 8 -23 15 -31 15 -8 0 -27 9 -42 21 -35 28 -35 73 0 110 33 34 26 46 -31
55 l-45 6 0 1494 0 1494 -100 0 -100 0 -2 -1491z"/>
</g>
</svg>
