<?xml version="1.0" standalone="no"?>
<!DOCTYPE svg PUBLIC "-//W3C//DTD SVG 20010904//EN"
 "http://www.w3.org/TR/2001/REC-SVG-20010904/DTD/svg10.dtd">
<svg version="1.0" xmlns="http://www.w3.org/2000/svg"
 width="2550.000000pt" height="2700.000000pt" viewBox="0 0 2550.000000 2700.000000"
 preserveAspectRatio="xMidYMid meet">

<g transform="translate(0.000000,2700.000000) scale(0.100000,-0.100000)"
fill="#3a4548" stroke="none">
<path d="M8228 16343 l-38 -4 0 -349 0 -349 -67 -3 -68 -3 -3 -2467 -2 -2468
37 -1 c21 -1 53 0 71 1 l32 2 0 -370 c0 -204 -3 -377 -6 -386 -3 -8 -21 -20
-40 -26 -31 -11 -47 -30 -25 -30 14 0 23 -34 15 -54 -4 -10 -18 -22 -31 -27
-20 -7 -24 -15 -21 -41 3 -32 4 -32 58 -35 30 -1 73 -4 95 -7 22 -2 74 1 115
8 74 11 75 12 78 44 3 26 -1 34 -22 41 -35 14 -43 47 -16 76 l22 23 -30 7
c-64 14 -63 3 -60 416 l3 374 68 9 67 9 0 2443 0 2443 -70 7 -70 7 0 353 c0
299 -2 354 -14 354 -8 0 -20 1 -28 3 -7 2 -30 2 -50 0z m90 -811 c10 -7 12
-486 10 -2363 l-3 -2354 -60 -7 c-33 -5 -66 -6 -72 -3 -10 3 -13 485 -13 2363
0 1297 3 2362 7 2365 9 10 115 8 131 -1z"/>
</g>
</svg>
