<?xml version="1.0" standalone="no"?>
<!DOCTYPE svg PUBLIC "-//W3C//DTD SVG 20010904//EN"
 "http://www.w3.org/TR/2001/REC-SVG-20010904/DTD/svg10.dtd">
<svg version="1.0" xmlns="http://www.w3.org/2000/svg"
 width="2550.000000pt" height="2700.000000pt" viewBox="0 0 2550.000000 2700.000000"
 preserveAspectRatio="xMidYMid meet">

<g transform="translate(0.000000,2700.000000) scale(0.100000,-0.100000)"
fill="#3a4548" stroke="none">
<path d="M8740 15960 l0 -350 -69 0 -68 0 1 -2422 1 -2423 68 -3 67 -3 0 -369
0 -370 -41 -20 c-40 -21 -40 -22 -23 -41 14 -15 15 -24 6 -43 -6 -13 -20 -27
-32 -31 -17 -5 -20 -13 -18 -38 l3 -32 125 -3 c69 -1 144 1 165 6 34 6 41 12
43 35 3 20 -4 33 -22 48 -30 23 -33 45 -10 70 14 15 12 18 -23 35 l-38 19 -3
376 -2 376 37 7 c21 3 50 6 66 6 l27 0 0 2405 0 2405 -65 0 -65 0 -2 353 -3
352 -62 3 -63 3 0 -351z m128 -455 c6 -5 1 -4620 -5 -4626 -5 -4 -35 -9 -68
-11 l-60 -3 -3 2315 c-1 1273 0 2321 3 2327 3 9 22 11 67 6 35 -3 64 -7 66 -8z"/>
</g>
</svg>
