<?xml version="1.0" standalone="no"?>
<!DOCTYPE svg PUBLIC "-//W3C//DTD SVG 20010904//EN"
 "http://www.w3.org/TR/2001/REC-SVG-20010904/DTD/svg10.dtd">
<svg version="1.0" xmlns="http://www.w3.org/2000/svg"
 width="2550.000000pt" height="2700.000000pt" viewBox="0 0 2550.000000 2700.000000"
 preserveAspectRatio="xMidYMid meet">

<g transform="translate(0.000000,2700.000000) scale(0.100000,-0.100000)"
fill="#3a4548" stroke="none">
<path d="M10279 16193 c-1 -5 -2 -152 -3 -328 l-1 -320 -62 -3 -63 -3 0 -2299
0 -2299 61 -3 61 -3 -1 -345 c-1 -190 -1 -348 -1 -353 0 -4 -16 -15 -35 -24
-33 -16 -46 -33 -26 -33 15 0 22 -30 11 -50 -5 -10 -19 -22 -30 -25 -14 -4
-20 -15 -20 -35 l0 -28 86 -7 c79 -7 186 -1 220 12 23 9 17 53 -11 75 -27 21
-32 47 -12 67 7 8 8 15 2 17 -5 3 -21 10 -35 17 l-25 13 0 359 0 360 55 5 55
5 8 245 c4 135 6 1161 4 2280 l-3 2035 -54 3 c-30 2 -58 9 -62 15 -4 7 -8 157
-8 335 l0 322 -55 0 c-30 0 -56 -3 -56 -7z m116 -2940 c0 -1205 -4 -2195 -8
-2199 -9 -9 -105 -22 -112 -16 -3 3 -5 997 -5 2209 l0 2204 63 -3 62 -3 0
-2192z"/>
</g>
</svg>
