<?xml version="1.0" standalone="no"?>
<!DOCTYPE svg PUBLIC "-//W3C//DTD SVG 20010904//EN"
 "http://www.w3.org/TR/2001/REC-SVG-20010904/DTD/svg10.dtd">
<svg version="1.0" xmlns="http://www.w3.org/2000/svg"
 width="2550.000000pt" height="2700.000000pt" viewBox="0 0 2550.000000 2700.000000"
 preserveAspectRatio="xMidYMid meet">

<g transform="translate(0.000000,2700.000000) scale(0.100000,-0.100000)"
fill="#3a4548" stroke="none">
<path d="M1850 13000 l0 -590 -110 0 -110 0 0 -2649 0 -2649 23 -6 c12 -3 47
-6 78 -6 31 0 71 -3 88 -6 l31 -7 -2 -776 -3 -776 -48 -26 c-35 -19 -44 -28
-33 -32 28 -11 31 -55 5 -83 -12 -13 -28 -24 -36 -24 -9 0 -13 -13 -13 -40 0
-37 2 -40 28 -41 15 0 63 -4 107 -8 78 -8 125 -2 248 30 34 9 37 13 37 45 0
24 -5 37 -17 41 -53 18 -67 59 -33 93 19 19 19 21 3 27 -10 3 -33 12 -50 19
l-33 13 0 767 0 767 68 -7 c38 -4 87 -4 110 0 l42 7 0 2658 0 2658 -107 3
-108 3 -3 579 c-1 408 -5 583 -13 593 -8 8 -35 13 -80 13 l-69 0 0 -590z m218
-3254 l2 -2548 -132 7 c-73 4 -136 9 -140 12 -5 2 -8 1147 -8 2544 l0 2540
138 -3 137 -3 3 -2549z"/>
</g>
</svg>
