<?xml version="1.0" standalone="no"?>
<!DOCTYPE svg PUBLIC "-//W3C//DTD SVG 20010904//EN"
 "http://www.w3.org/TR/2001/REC-SVG-20010904/DTD/svg10.dtd">
<svg version="1.0" xmlns="http://www.w3.org/2000/svg"
 width="2550.000000pt" height="2700.000000pt" viewBox="0 0 2550.000000 2700.000000"
 preserveAspectRatio="xMidYMid meet">

<g transform="translate(0.000000,2700.000000) scale(0.100000,-0.100000)"
fill="#3a4548" stroke="none">
<path d="M2712 13610 l-33 -40 0 -579 1 -578 -38 -7 c-20 -3 -65 -6 -100 -6
l-62 0 2 -2662 3 -2663 55 0 c30 1 73 3 95 5 l40 5 3 -740 c1 -407 0 -750 -3
-763 -3 -14 -22 -31 -50 -44 -48 -23 -54 -32 -30 -42 9 -3 15 -18 15 -36 0
-24 -7 -35 -35 -51 -29 -17 -35 -27 -35 -54 0 -30 3 -33 38 -39 20 -3 55 -6
78 -6 23 0 56 -5 73 -11 24 -8 38 -9 54 -1 12 7 56 20 97 30 l75 18 3 37 c2
29 -1 39 -15 44 -27 9 -53 34 -53 51 0 9 9 26 21 38 l20 22 -45 15 c-33 11
-55 13 -78 6 -41 -11 -48 -11 -48 1 0 5 15 13 33 18 l32 8 3 766 c2 719 3 767
20 771 9 3 52 13 95 22 l77 16 0 2630 0 2629 -95 0 -95 0 0 615 0 615 -42 0
c-38 0 -47 -5 -76 -40z m155 -3828 l2 -2523 -22 -9 c-23 -10 -170 -40 -193
-40 -12 0 -14 376 -14 2545 l0 2544 68 4 c37 2 87 3 112 3 l45 -1 2 -2523z"/>
</g>
</svg>
