<?xml version="1.0" standalone="no"?>
<!DOCTYPE svg PUBLIC "-//W3C//DTD SVG 20010904//EN"
 "http://www.w3.org/TR/2001/REC-SVG-20010904/DTD/svg10.dtd">
<svg version="1.0" xmlns="http://www.w3.org/2000/svg"
 width="2550.000000pt" height="2700.000000pt" viewBox="0 0 2550.000000 2700.000000"
 preserveAspectRatio="xMidYMid meet">

<g transform="translate(0.000000,2700.000000) scale(0.100000,-0.100000)"
fill="#3a4548" stroke="none">
<path d="M3429 13615 l-37 -45 0 -398 c0 -218 0 -474 -1 -568 l-1 -171 -90 -7
-90 -8 0 -2625 0 -2626 95 6 95 6 0 -742 c-1 -599 -3 -745 -14 -759 -7 -10
-30 -25 -50 -33 l-37 -16 20 -25 c19 -24 19 -28 6 -55 -9 -16 -27 -32 -41 -35
-22 -6 -25 -11 -22 -42 l3 -35 70 -5 c39 -2 88 -7 110 -11 28 -5 68 0 138 17
l97 24 0 37 c0 31 -5 38 -33 51 -36 17 -48 58 -23 80 20 16 20 30 1 30 -9 0
-29 7 -45 15 l-30 16 0 763 0 764 90 17 90 17 0 2594 0 2594 -90 0 -90 0 0
610 0 610 -42 0 c-39 0 -47 -5 -79 -45z m151 -3780 c0 -1501 -4 -2496 -9
-2499 -16 -10 -195 -45 -203 -40 -5 3 -8 1134 -8 2514 l0 2510 23 5 c28 6 168
11 185 6 9 -2 12 -510 12 -2496z"/>
</g>
</svg>
