<?xml version="1.0" standalone="no"?>
<!DOCTYPE svg PUBLIC "-//W3C//DTD SVG 20010904//EN"
 "http://www.w3.org/TR/2001/REC-SVG-20010904/DTD/svg10.dtd">
<svg version="1.0" xmlns="http://www.w3.org/2000/svg"
 width="2550.000000pt" height="2700.000000pt" viewBox="0 0 2550.000000 2700.000000"
 preserveAspectRatio="xMidYMid meet">

<g transform="translate(0.000000,2700.000000) scale(0.100000,-0.100000)"
fill="#3a4548" stroke="none">
<path d="M4152 14506 l-32 -44 0 -530 0 -529 -31 -7 c-17 -3 -58 -6 -90 -6
l-59 0 0 -2569 0 -2568 40 -7 c22 -3 52 -4 65 -1 14 3 36 7 50 10 l25 5 0
-314 c0 -343 2 -330 -59 -356 -30 -12 -42 -30 -21 -30 15 0 23 -46 11 -68 -6
-12 -20 -23 -30 -27 -21 -6 -39 -62 -25 -75 5 -4 59 -10 119 -13 82 -5 131 -2
195 11 l85 17 3 38 c2 26 -1 37 -11 37 -18 0 -57 37 -57 55 0 8 9 24 20 35 21
21 21 22 -33 39 -24 8 -39 20 -42 34 -3 12 -4 161 -3 332 l3 310 85 15 85 15
3 2543 2 2542 -90 0 -90 0 0 575 0 575 -43 0 c-40 0 -46 -4 -75 -44z m148
-3651 c0 -2069 -2 -2446 -14 -2451 -7 -3 -52 -13 -99 -23 -73 -14 -87 -15 -92
-3 -3 7 -5 1115 -5 2462 0 1949 3 2449 13 2453 6 3 54 6 105 6 l92 1 0 -2445z"/>
</g>
</svg>
