<?xml version="1.0" standalone="no"?>
<!DOCTYPE svg PUBLIC "-//W3C//DTD SVG 20010904//EN"
 "http://www.w3.org/TR/2001/REC-SVG-20010904/DTD/svg10.dtd">
<svg version="1.0" xmlns="http://www.w3.org/2000/svg"
 width="2550.000000pt" height="2700.000000pt" viewBox="0 0 2550.000000 2700.000000"
 preserveAspectRatio="xMidYMid meet">

<g transform="translate(0.000000,2700.000000) scale(0.100000,-0.100000)"
fill="#3a4548" stroke="none">
<path d="M7030 16055 l0 -365 -75 0 -75 0 2 -2562 3 -2563 73 1 72 2 0 -388
c0 -422 1 -412 -56 -426 -28 -7 -30 -16 -9 -34 24 -20 18 -49 -15 -68 -23 -13
-30 -24 -30 -49 0 -30 2 -32 48 -39 57 -9 177 -10 212 -1 14 3 42 9 63 12 34
6 37 8 37 40 0 24 -5 35 -15 35 -8 0 -22 11 -30 24 -13 19 -14 29 -5 45 6 12
15 21 20 21 25 0 6 18 -30 29 -27 8 -41 19 -45 34 -3 12 -4 193 -3 402 l3 380
73 8 72 9 -2 2536 -3 2537 -72 3 -73 3 0 369 0 370 -70 0 -70 0 0 -365z m113
-471 l37 -7 0 -2443 0 -2443 -42 -5 c-24 -3 -59 -7 -78 -8 l-35 -3 -3 2458 -2
2457 42 0 c24 0 60 -3 81 -6z"/>
</g>
</svg>
