<?xml version="1.0" standalone="no"?>
<!DOCTYPE svg PUBLIC "-//W3C//DTD SVG 20010904//EN"
 "http://www.w3.org/TR/2001/REC-SVG-20010904/DTD/svg10.dtd">
<svg version="1.0" xmlns="http://www.w3.org/2000/svg"
 width="2550.000000pt" height="2700.000000pt" viewBox="0 0 2550.000000 2700.000000"
 preserveAspectRatio="xMidYMid meet">

<g transform="translate(0.000000,2700.000000) scale(0.100000,-0.100000)"
fill="#3a4548" stroke="none">
<path d="M22127 25293 l-47 -49 0 -616 0 -616 -52 -5 c-29 -4 -92 -9 -140 -13
l-88 -6 0 -2824 0 -2824 140 0 140 0 0 -815 c0 -798 0 -815 -20 -835 -11 -11
-31 -22 -45 -26 -29 -7 -31 -16 -10 -34 8 -7 15 -26 15 -42 0 -22 -7 -33 -30
-46 -22 -13 -30 -24 -30 -46 l0 -29 128 6 c70 4 155 7 190 7 55 0 62 2 62 20
0 11 -4 20 -8 20 -5 0 -18 9 -30 20 -26 24 -30 78 -7 86 23 9 18 21 -13 32
-67 23 -62 -43 -62 868 l0 824 63 0 c35 0 98 3 140 6 l77 7 0 2828 c0 2794 0
2828 -20 2839 -13 7 -54 7 -132 0 -62 -5 -116 -10 -120 -10 -5 0 -9 296 -10
658 -3 649 -3 657 -23 660 -13 2 -37 -14 -68 -45z m231 -4110 l2 -2713 -47 0
c-27 0 -121 -3 -210 -7 l-163 -6 0 2702 c0 2152 3 2703 13 2706 14 6 353 33
382 31 20 -1 20 -9 23 -2713z"/>
</g>
</svg>
