<?xml version="1.0" standalone="no"?>
<!DOCTYPE svg PUBLIC "-//W3C//DTD SVG 20010904//EN"
 "http://www.w3.org/TR/2001/REC-SVG-20010904/DTD/svg10.dtd">
<svg version="1.0" xmlns="http://www.w3.org/2000/svg"
 width="2550.000000pt" height="2700.000000pt" viewBox="0 0 2550.000000 2700.000000"
 preserveAspectRatio="xMidYMid meet">

<g transform="translate(0.000000,2700.000000) scale(0.100000,-0.100000)"
fill="#3a4548" stroke="none">
<path d="M24370 26590 l0 -410 -22 -4 c-13 -3 -54 -8 -93 -11 -38 -3 -94 -8
-122 -11 l-53 -6 0 -2873 c0 -2290 3 -2874 13 -2878 6 -2 72 -2 145 1 l132 5
0 -830 c0 -778 -1 -831 -18 -846 -9 -8 -30 -20 -45 -26 -27 -10 -27 -12 -13
-33 24 -35 20 -65 -14 -90 -16 -12 -30 -29 -30 -37 0 -14 20 -15 172 -10 95 4
182 7 193 8 17 1 15 4 -12 20 -17 11 -34 29 -38 40 -7 22 9 61 25 61 23 0 7
19 -25 30 -19 6 -40 20 -45 30 -6 12 -10 320 -10 853 l0 834 68 6 c37 4 102 7
145 7 l77 0 0 2884 c0 2565 -2 2885 -15 2896 -15 12 -67 11 -222 -7 l-53 -6 0
407 0 406 -70 0 -70 0 0 -410z m290 -3289 l0 -2758 -142 -7 c-79 -4 -178 -9
-220 -13 l-78 -6 0 2752 0 2751 23 4 c32 7 314 33 370 35 l47 1 0 -2759z"/>
</g>
</svg>
