<?xml version="1.0" standalone="no"?>
<!DOCTYPE svg PUBLIC "-//W3C//DTD SVG 20010904//EN"
 "http://www.w3.org/TR/2001/REC-SVG-20010904/DTD/svg10.dtd">
<svg version="1.0" xmlns="http://www.w3.org/2000/svg"
 width="2550.000000pt" height="2700.000000pt" viewBox="0 0 2550.000000 2700.000000"
 preserveAspectRatio="xMidYMid meet">

<g transform="translate(0.000000,2700.000000) scale(0.100000,-0.100000)"
fill="#3a4548" stroke="none">
<path d="M25252 24253 l3 -2748 50 -3 c28 -2 83 -1 123 3 l72 7 0 63 0 64 -55
-6 -55 -6 0 2687 0 2686 -70 0 -70 0 2 -2747z"/>
<path d="M25473 20748 l-22 -10 21 -28 c25 -34 17 -65 -23 -89 -35 -22 -31
-28 16 -23 l35 4 0 79 c0 43 -1 79 -2 78 -2 0 -13 -5 -25 -11z"/>
</g>
</svg>
