<?xml version="1.0" standalone="no"?>
<!DOCTYPE svg PUBLIC "-//W3C//DTD SVG 20010904//EN"
 "http://www.w3.org/TR/2001/REC-SVG-20010904/DTD/svg10.dtd">
<svg version="1.0" xmlns="http://www.w3.org/2000/svg"
 width="2550.000000pt" height="2700.000000pt" viewBox="0 0 2550.000000 2700.000000"
 preserveAspectRatio="xMidYMid meet">

<g transform="translate(0.000000,2700.000000) scale(0.100000,-0.100000)"
fill="#3a4548" stroke="none">
<path d="M17791 21144 l-51 -46 0 -598 0 -597 -61 -7 c-34 -3 -93 -6 -130 -6
l-69 0 0 -2725 0 -2724 128 -3 127 -3 3 -780 c1 -429 0 -789 -3 -801 -2 -12
-21 -28 -45 -39 -44 -20 -47 -26 -25 -45 24 -20 18 -56 -15 -83 -23 -20 -30
-34 -30 -60 0 -43 3 -43 190 -41 193 3 184 1 188 52 3 35 0 42 -15 42 -10 0
-27 14 -37 31 -18 30 -18 32 2 59 l21 28 -39 16 c-26 10 -41 24 -45 38 -3 13
-4 374 -3 803 l3 780 95 3 c88 2 96 4 105 25 6 12 20 23 33 25 l22 3 0 2704
c0 2025 -3 2706 -11 2711 -7 4 -65 6 -130 5 l-119 -2 0 630 c0 610 -1 631 -19
641 -16 8 -28 2 -70 -36z m209 -3979 l0 -2625 -190 0 -190 0 0 308 c-1 315 0
4659 0 4834 l0 97 78 4 c42 1 128 4 190 5 l112 2 0 -2625z"/>
</g>
</svg>
