<?xml version="1.0" standalone="no"?>
<!DOCTYPE svg PUBLIC "-//W3C//DTD SVG 20010904//EN"
 "http://www.w3.org/TR/2001/REC-SVG-20010904/DTD/svg10.dtd">
<svg version="1.0" xmlns="http://www.w3.org/2000/svg"
 width="2550.000000pt" height="2700.000000pt" viewBox="0 0 2550.000000 2700.000000"
 preserveAspectRatio="xMidYMid meet">

<g transform="translate(0.000000,2700.000000) scale(0.100000,-0.100000)"
fill="#C5C3C1" stroke="none">
<path d="M15475 19778 l-46 -43 1 -797 0 -798 -23 0 c-40 0 -77 -36 -77 -76 0
-46 26 -84 57 -84 13 0 22 4 19 8 -3 5 1 9 9 9 28 0 18 -73 -15 -118 -48 -66
-72 -143 -72 -232 0 -92 20 -156 67 -223 27 -37 35 -59 34 -89 0 -22 -3 -34
-6 -27 -8 21 -60 14 -77 -10 -37 -52 -5 -128 54 -128 l30 0 0 -781 c0 -760 0
-780 -19 -774 -30 9 -81 -40 -81 -79 0 -53 57 -95 88 -64 9 9 12 2 12 -33 0
-34 -8 -55 -35 -93 -47 -66 -67 -133 -67 -221 0 -88 20 -155 67 -221 26 -36
35 -59 35 -88 0 -31 -3 -37 -12 -28 -18 18 -42 14 -66 -11 -44 -47 -14 -127
47 -127 l31 0 0 -868 -1 -869 -29 -22 c-32 -23 -42 -18 -12 6 15 13 15 13 -5
3 -27 -13 -27 -14 -9 -43 21 -33 11 -87 -17 -87 -6 0 -2 7 9 16 18 14 18 15
-4 4 -20 -10 -23 -18 -20 -58 l3 -47 143 -3 142 -3 0 52 c0 29 -3 49 -6 46 -4
-3 -16 5 -27 20 -16 20 -18 29 -9 42 24 32 25 44 6 58 -10 7 -23 12 -30 9 -6
-2 -12 1 -14 7 -2 7 -5 400 -7 875 l-3 862 33 0 c25 0 39 7 55 30 29 38 28 59
-3 93 -28 30 -37 32 -66 17 -17 -10 -19 -7 -19 27 0 27 10 52 35 87 19 27 39
65 46 85 6 20 15 40 20 46 12 12 12 172 0 180 -5 3 -12 18 -16 35 -3 16 -24
56 -46 90 -29 46 -39 71 -39 102 0 33 3 39 12 30 7 -7 19 -12 28 -12 22 0 70
55 70 79 0 32 -46 74 -80 74 l-30 0 0 779 c0 734 1 778 18 779 55 2 91 32 92
75 0 41 -69 100 -86 73 -11 -19 -24 -8 -24 21 0 17 16 54 39 90 22 34 43 74
46 90 4 17 11 32 16 35 5 4 9 41 9 84 0 88 -30 179 -81 243 -33 42 -40 102
-13 112 8 3 12 2 9 -4 -8 -13 25 -13 45 0 8 5 11 10 5 10 -5 0 1 7 13 16 33
23 29 66 -10 99 -21 18 -39 25 -55 22 l-23 -4 0 843 c0 496 -4 844 -9 844 -5
0 -30 -19 -56 -42z m-45 -1698 c0 -5 -2 -10 -4 -10 -3 0 -8 5 -11 10 -3 6 -1
10 4 10 6 0 11 -4 11 -10z m135 0 c-3 -5 -11 -10 -16 -10 -6 0 -7 5 -4 10 3 6
11 10 16 10 6 0 7 -4 4 -10z m-37 -237 c0 -5 11 -35 27 -68 39 -85 39 -177 0
-260 -31 -66 -39 -75 -72 -75 -15 0 -30 12 -46 38 -65 103 -66 241 -3 339 18
27 27 33 59 33 20 0 36 -3 35 -7z m-98 -613 c0 -5 -5 -10 -11 -10 -5 0 -7 5
-4 10 3 6 8 10 11 10 2 0 4 -4 4 -10z m0 -1675 c0 -9 -6 -12 -15 -9 -8 4 -15
10 -15 15 0 5 7 9 15 9 8 0 15 -7 15 -15z m140 6 c0 -12 -20 -25 -27 -18 -7 7
6 27 18 27 5 0 9 -4 9 -9z m-20 -295 c27 -54 32 -77 33 -139 1 -65 -2 -81 -33
-143 -31 -61 -38 -69 -60 -66 -33 5 -48 18 -72 65 -42 83 -41 206 3 291 25 48
35 56 71 56 23 0 31 -9 58 -64z m-120 -561 c0 -8 -7 -15 -15 -15 -26 0 -18 20
13 29 1 1 2 -6 2 -14z m135 -5 c3 -5 2 -10 -4 -10 -5 0 -13 5 -16 10 -3 6 -2
10 4 10 5 0 13 -4 16 -10z"/>
</g>
</svg>
