<?xml version="1.0" standalone="no"?>
<!DOCTYPE svg PUBLIC "-//W3C//DTD SVG 20010904//EN"
 "http://www.w3.org/TR/2001/REC-SVG-20010904/DTD/svg10.dtd">
<svg version="1.0" xmlns="http://www.w3.org/2000/svg"
 width="2550.000000pt" height="2700.000000pt" viewBox="0 0 2550.000000 2700.000000"
 preserveAspectRatio="xMidYMid meet">

<g transform="translate(0.000000,2700.000000) scale(0.100000,-0.100000)"
fill="#C5C3C1" stroke="none">
<path d="M19940 24211 l-45 -39 4 -826 3 -826 -31 0 c-54 0 -85 -51 -65 -105
4 -9 26 -25 50 -36 56 -23 57 -45 9 -125 -53 -87 -68 -151 -63 -254 5 -89 23
-139 74 -207 16 -21 24 -45 24 -71 0 -48 -5 -54 -37 -39 -22 10 -28 8 -44 -12
-38 -47 -17 -106 42 -118 19 -3 31 -13 34 -27 3 -11 4 -372 3 -801 l-3 -780
-30 -3 c-42 -5 -65 -29 -65 -67 0 -36 17 -55 64 -70 46 -15 47 -57 1 -124 -91
-136 -89 -319 5 -455 24 -36 30 -55 28 -84 -3 -35 -5 -37 -34 -34 -43 4 -66
-20 -62 -66 3 -37 5 -38 78 -72 13 -6 15 -165 18 -1323 l2 -1316 -29 -20 c-16
-12 -34 -21 -40 -21 -15 0 -14 -6 5 -35 18 -28 8 -55 -31 -81 -15 -10 -25 -26
-25 -40 l0 -25 175 1 175 2 0 23 c0 15 -9 29 -22 36 -42 22 -50 59 -21 91 15
17 15 18 -8 18 -29 0 -53 15 -55 32 0 7 -2 255 -2 550 l-2 537 -22 3 c-23 3
-23 4 -26 206 l-2 203 25 23 25 23 2 564 3 564 27 -3 c33 -4 68 28 68 62 0 27
-38 63 -77 72 -12 4 -23 9 -24 13 -5 42 -1 57 28 98 97 137 95 320 -7 453 -22
30 -26 43 -22 88 l4 53 33 -7 c28 -5 36 -2 50 20 25 39 13 70 -42 103 l-48 30
-1 779 c-1 472 2 786 8 797 6 12 16 16 28 12 24 -8 70 35 70 65 0 25 -32 58
-76 76 -43 18 -43 34 1 103 50 78 70 144 70 231 0 87 -20 149 -70 214 -25 33
-31 50 -30 82 2 21 3 47 4 57 1 15 7 17 35 12 29 -6 37 -3 51 19 25 38 13 67
-45 104 l-51 33 2 847 c2 726 0 847 -12 849 -8 2 -34 -15 -59 -36z m54 -1980
c24 -26 56 -133 56 -184 0 -87 -56 -221 -98 -235 -27 -9 -68 54 -80 125 -16
87 -3 165 38 251 34 67 53 77 84 43z m28 -2628 c42 -94 32 -231 -22 -317 -46
-71 -81 -59 -115 39 -36 105 -12 262 51 330 25 27 25 27 46 9 11 -11 29 -38
40 -61z"/>
</g>
</svg>
