<?xml version="1.0" standalone="no"?>
<!DOCTYPE svg PUBLIC "-//W3C//DTD SVG 20010904//EN"
 "http://www.w3.org/TR/2001/REC-SVG-20010904/DTD/svg10.dtd">
<svg version="1.0" xmlns="http://www.w3.org/2000/svg"
 width="2550.000000pt" height="2700.000000pt" viewBox="0 0 2550.000000 2700.000000"
 preserveAspectRatio="xMidYMid meet">

<g transform="translate(0.000000,2700.000000) scale(0.100000,-0.100000)"
fill="#C5C3C1" stroke="none">
<path d="M20726 25158 c-30 -32 -46 -59 -46 -77 0 -14 0 -389 0 -833 l0 -808
-29 0 c-34 0 -61 -31 -61 -70 0 -36 14 -53 52 -66 28 -9 33 -16 36 -47 2 -24
-3 -47 -15 -65 -91 -133 -95 -347 -8 -471 21 -31 26 -48 23 -82 -3 -42 -4 -44
-34 -41 -24 3 -33 -2 -42 -23 -26 -56 -13 -91 39 -105 l39 -11 0 -809 0 -810
-29 0 c-49 0 -77 -61 -51 -110 6 -11 26 -22 45 -26 33 -6 35 -9 35 -43 0 -22
-12 -60 -29 -92 -78 -145 -79 -317 -2 -440 23 -37 31 -62 31 -95 0 -45 0 -46
-29 -39 -23 5 -32 2 -45 -17 -34 -48 -14 -104 39 -110 l30 -3 3 -892 2 -891
-26 -21 c-15 -12 -33 -21 -40 -21 -18 0 -18 -5 1 -34 20 -30 4 -72 -31 -80
-17 -5 -24 -13 -24 -30 0 -26 -21 -25 254 -8 113 7 136 18 91 42 -33 17 -40
45 -21 75 9 13 16 27 16 29 0 3 -23 8 -50 12 -28 4 -53 11 -56 16 -4 6 1 8 12
4 19 -6 19 18 16 899 l-2 905 29 0 c20 0 35 8 45 22 30 42 13 108 -27 108 -59
1 -63 43 -14 141 45 89 61 171 53 259 -7 65 -39 150 -73 194 -14 17 -17 36
-15 75 4 51 4 52 32 46 22 -5 31 -1 44 17 20 28 21 72 2 87 -8 7 -27 16 -43
20 l-28 7 -5 803 c-3 441 -1 809 3 817 5 9 16 12 27 9 12 -4 25 3 39 21 37 47
26 88 -30 110 -51 21 -52 43 -8 132 80 158 75 335 -12 446 -15 19 -22 41 -22
69 1 71 0 70 33 63 27 -5 32 -2 47 28 22 48 12 78 -36 99 -32 14 -40 23 -42
50 -2 17 -4 406 -3 864 l0 832 -22 10 c-20 9 -28 4 -68 -41z m80 -2076 c25
-85 16 -204 -22 -278 -16 -33 -36 -59 -44 -59 -8 0 -24 18 -35 40 -16 32 -20
60 -20 145 0 106 11 149 53 218 14 21 16 22 34 6 10 -10 26 -42 34 -72z m0
-2611 c30 -101 8 -251 -49 -326 -14 -19 -15 -18 -36 15 -61 100 -56 268 12
379 l20 33 19 -23 c10 -13 25 -48 34 -78z"/>
</g>
</svg>
