<?xml version="1.0" standalone="no"?>
<!DOCTYPE svg PUBLIC "-//W3C//DTD SVG 20010904//EN"
 "http://www.w3.org/TR/2001/REC-SVG-20010904/DTD/svg10.dtd">
<svg version="1.0" xmlns="http://www.w3.org/2000/svg"
 width="2550.000000pt" height="2700.000000pt" viewBox="0 0 2550.000000 2700.000000"
 preserveAspectRatio="xMidYMid meet">

<g transform="translate(0.000000,2700.000000) scale(0.100000,-0.100000)"
fill="#C5C3C1" stroke="none">
<path d="M21535 25273 l0 -797 -33 -7 c-37 -8 -61 -33 -62 -66 0 -38 12 -55
56 -74 55 -23 57 -45 9 -131 -91 -166 -84 -341 17 -479 13 -18 18 -38 16 -65
-3 -37 -4 -39 -35 -36 -75 7 -88 -116 -14 -133 16 -3 34 -12 40 -19 8 -9 10
-256 9 -822 l-3 -809 -32 -3 c-75 -7 -88 -119 -16 -137 15 -3 34 -11 40 -17
19 -15 16 -56 -6 -86 -103 -148 -106 -358 -5 -503 19 -27 24 -47 22 -75 -3
-37 -5 -39 -35 -36 -36 3 -63 -26 -63 -68 0 -36 11 -48 55 -63 l40 -14 0 -557
0 -556 36 0 c20 0 51 3 68 6 l31 7 0 558 0 559 29 0 c32 0 71 39 71 69 0 27
-24 53 -61 65 -29 9 -35 16 -37 44 -2 20 3 41 12 51 26 29 64 124 76 191 19
107 -1 207 -62 298 -21 33 -28 55 -28 93 l0 50 34 -7 c31 -5 36 -3 50 25 30
56 17 85 -48 106 l-31 10 -3 822 -2 822 31 3 c21 2 39 13 52 30 29 38 15 76
-38 104 -22 11 -41 28 -43 38 -2 9 15 54 37 99 51 105 67 192 51 283 -15 89
-68 193 -90 179 -4 -3 -11 2 -14 11 -3 8 -2 12 4 9 6 -4 10 15 10 50 l0 56 34
-7 c31 -5 36 -3 50 25 29 56 21 75 -47 111 l-32 17 -3 787 -2 786 -68 0 -67 0
0 -797z m117 -1130 c17 -38 22 -67 22 -143 0 -82 -4 -105 -28 -163 -16 -37
-32 -70 -37 -72 -12 -8 -60 6 -54 15 3 4 -2 30 -10 56 -19 62 -19 165 -1 225
21 69 54 129 72 129 8 0 24 -21 36 -47z m5 -2662 c13 -32 18 -73 18 -136 -1
-80 -5 -98 -32 -158 -39 -81 -56 -85 -85 -19 -44 97 -33 251 25 354 19 35 22
37 38 22 10 -9 26 -37 36 -63z"/>
<path d="M21539 18713 c-1 -296 -1 -544 0 -550 3 -24 -18 -50 -51 -63 -44 -18
-44 -17 -23 -40 24 -26 13 -66 -25 -85 -19 -10 -30 -23 -30 -36 0 -18 4 -20
38 -15 20 3 106 8 190 12 143 6 187 16 145 31 -50 17 -67 60 -37 94 14 15 12
18 -17 28 -18 6 -43 11 -55 11 -13 0 -24 4 -24 10 0 5 6 7 13 5 9 -4 11 110 9
557 -1 309 -4 563 -5 564 -1 1 -30 4 -64 8 l-63 7 -1 -538z"/>
<path d="M20920 17904 c0 -8 5 -12 10 -9 6 4 8 11 5 16 -9 14 -15 11 -15 -7z"/>
</g>
</svg>
