<?xml version="1.0" standalone="no"?>
<!DOCTYPE svg PUBLIC "-//W3C//DTD SVG 20010904//EN"
 "http://www.w3.org/TR/2001/REC-SVG-20010904/DTD/svg10.dtd">
<svg version="1.0" xmlns="http://www.w3.org/2000/svg"
 width="2550.000000pt" height="2700.000000pt" viewBox="0 0 2550.000000 2700.000000"
 preserveAspectRatio="xMidYMid meet">

<g transform="translate(0.000000,2700.000000) scale(0.100000,-0.100000)"
fill="#C5C3C1" stroke="none">
<path d="M9110 13076 l0 -1045 -27 -13 c-22 -10 -29 -21 -31 -52 -5 -57 5 -84
31 -88 20 -3 22 -8 21 -58 -1 -30 -11 -86 -24 -125 -32 -101 -32 -297 0 -405
13 -41 23 -95 24 -120 1 -39 -2 -45 -21 -48 -16 -2 -25 -13 -32 -38 -13 -48 3
-102 32 -106 l22 -3 2 -855 c1 -470 0 -863 -3 -872 -3 -10 -14 -18 -24 -18
-19 0 -43 -49 -35 -73 2 -7 6 -24 9 -39 4 -18 14 -28 29 -30 34 -5 34 -66 1
-164 -24 -70 -27 -94 -27 -209 0 -111 3 -145 27 -233 30 -112 29 -149 -6 -154
-30 -4 -42 -54 -26 -105 7 -21 19 -39 26 -39 6 -1 16 -2 22 -3 14 -2 13 -2846
-1 -2872 -5 -11 -28 -27 -50 -36 -22 -9 -36 -19 -31 -22 5 -3 14 -16 21 -29
10 -19 10 -28 -4 -48 -9 -14 -27 -29 -40 -34 -20 -8 -24 -16 -23 -45 1 -33 5
-36 54 -55 30 -11 62 -25 72 -31 14 -9 33 -8 83 4 35 9 92 19 127 22 67 8 75
13 76 58 1 22 -6 32 -26 43 -38 20 -52 48 -37 77 7 12 17 25 22 29 6 4 -2 12
-19 19 -16 7 -39 22 -51 33 l-23 19 0 1429 0 1428 26 6 c31 8 47 46 38 88 -8
39 -22 56 -45 56 -26 0 -26 62 0 127 10 27 25 93 31 146 14 111 3 232 -30 339
-11 35 -20 80 -20 100 0 30 4 37 22 40 56 8 60 120 5 146 l-27 13 0 865 0 864
25 10 c36 14 49 54 33 104 -10 30 -18 41 -33 41 -29 0 -32 61 -6 130 33 89 46
218 31 331 -6 52 -20 121 -31 151 -10 31 -19 76 -19 100 0 39 2 43 24 43 28 0
36 16 36 73 0 49 -8 63 -35 68 -20 4 -20 13 -23 1049 -2 820 -5 1046 -15 1052
-6 4 -38 8 -69 8 l-58 0 0 -1044z m80 -1586 c0 -33 -4 -60 -10 -60 -6 0 -10
27 -10 60 0 33 4 60 10 60 6 0 10 -27 10 -60z m0 -2796 c0 -34 -4 -53 -10 -49
-5 3 -10 28 -10 56 0 27 5 49 10 49 6 0 10 -25 10 -56z"/>
</g>
</svg>
