<?xml version="1.0" standalone="no"?>
<!DOCTYPE svg PUBLIC "-//W3C//DTD SVG 20010904//EN"
 "http://www.w3.org/TR/2001/REC-SVG-20010904/DTD/svg10.dtd">
<svg version="1.0" xmlns="http://www.w3.org/2000/svg"
 width="2550.000000pt" height="2700.000000pt" viewBox="0 0 2550.000000 2700.000000"
 preserveAspectRatio="xMidYMid meet">

<g transform="translate(0.000000,2700.000000) scale(0.100000,-0.100000)"
fill="#C5C3C1" stroke="none">
<path d="M12867 17222 l-57 -57 0 -754 c0 -414 -2 -757 -5 -761 -3 -5 -19 -11
-35 -15 -41 -9 -64 -44 -51 -78 12 -31 28 -42 61 -42 23 0 25 -4 28 -46 2 -38
-3 -56 -27 -94 -84 -133 -85 -301 -1 -435 16 -25 30 -61 32 -80 3 -36 1 -37
-70 -56 -7 -2 -17 -15 -22 -29 -15 -40 12 -85 50 -85 16 0 31 -4 35 -9 6 -11
7 -1592 0 -1599 -2 -3 -16 -6 -30 -8 -54 -5 -75 -46 -50 -94 9 -18 22 -30 28
-27 7 2 22 1 35 -4 34 -13 30 -75 -8 -136 -83 -130 -83 -310 0 -433 21 -32 30
-57 30 -87 0 -42 -1 -43 -35 -43 -26 0 -39 -6 -51 -26 -26 -40 -9 -76 44 -92
l42 -14 0 -1312 c0 -1259 -1 -1314 -18 -1329 -10 -10 -23 -17 -28 -17 -5 0
-15 -4 -23 -9 -12 -8 -12 -12 2 -26 21 -20 22 -49 2 -65 -8 -7 -12 -16 -9 -21
3 -5 -4 -9 -15 -9 -17 0 -21 -6 -21 -35 0 -32 3 -35 48 -49 45 -13 90 -13 262
-2 43 2 45 4 46 35 1 24 -5 36 -27 52 -38 26 -45 55 -22 81 10 12 14 23 8 25
-5 1 -25 12 -42 23 l-33 20 0 1326 0 1326 24 -6 c29 -7 63 18 71 55 8 35 -23
73 -61 74 -26 0 -29 4 -32 36 -2 27 5 49 28 85 84 134 82 336 -5 450 -21 28
-26 43 -23 82 3 46 3 47 35 44 27 -3 34 1 48 28 26 50 -2 100 -56 100 l-29 0
0 805 0 805 34 0 c40 0 59 20 59 61 0 37 -25 64 -61 64 -24 0 -27 4 -30 38 -3
29 4 50 27 86 46 71 62 127 62 216 1 91 -23 175 -66 230 -18 25 -25 46 -25 79
0 43 2 46 28 46 33 0 45 8 61 37 24 47 -8 93 -63 93 l-26 0 0 820 c0 451 -4
820 -8 820 -4 0 -33 -26 -65 -58z m20 -1850 c7 -4 24 -34 39 -66 48 -105 42
-239 -16 -333 -25 -42 -43 -42 -69 2 -60 103 -65 228 -13 339 31 66 37 72 59
58z m39 -2624 c25 -54 29 -76 29 -148 0 -75 -4 -93 -32 -153 -40 -84 -56 -85
-97 -5 -50 101 -44 238 16 336 30 49 51 42 84 -30z"/>
</g>
</svg>
