<?xml version="1.0" standalone="no"?>
<!DOCTYPE svg PUBLIC "-//W3C//DTD SVG 20010904//EN"
 "http://www.w3.org/TR/2001/REC-SVG-20010904/DTD/svg10.dtd">
<svg version="1.0" xmlns="http://www.w3.org/2000/svg"
 width="2550.000000pt" height="2700.000000pt" viewBox="0 0 2550.000000 2700.000000"
 preserveAspectRatio="xMidYMid meet">

<g transform="translate(0.000000,2700.000000) scale(0.100000,-0.100000)"
fill="#C5C3C1" stroke="none">
<path d="M13705 18070 l-50 -51 4 -774 c3 -748 3 -775 -15 -781 -72 -22 -84
-33 -84 -73 0 -42 22 -65 58 -59 54 9 58 -65 7 -136 -93 -131 -93 -311 0 -442
23 -32 35 -60 35 -81 0 -30 -3 -33 -30 -33 -38 0 -70 -31 -70 -68 0 -35 25
-59 65 -64 l30 -3 3 -784 c1 -571 -1 -787 -9 -797 -6 -8 -21 -14 -34 -14 -53
0 -76 -85 -31 -115 14 -9 30 -15 38 -14 32 4 38 -2 38 -42 0 -30 -8 -50 -30
-77 -53 -67 -74 -128 -74 -222 -1 -95 16 -152 70 -235 25 -39 31 -57 27 -82
-4 -28 -10 -33 -32 -33 -14 0 -31 -4 -37 -8 -20 -13 -33 -48 -27 -71 6 -22 49
-51 76 -51 8 0 18 -8 22 -17 3 -10 4 -405 0 -878 l-6 -860 -26 -27 c-16 -16
-23 -33 -19 -43 7 -20 -26 -83 -42 -77 -8 2 -12 -7 -12 -27 0 -50 31 -59 185
-52 l130 6 0 25 c0 14 -12 37 -28 53 -29 27 -31 45 -12 89 5 12 -1 21 -24 33
-17 8 -33 25 -36 38 -3 12 -4 409 -3 882 l3 860 25 1 c44 1 49 4 64 32 12 23
12 32 1 60 -13 29 -18 32 -55 32 l-40 0 0 42 c0 27 7 49 19 62 30 33 68 116
81 178 18 91 -12 209 -76 295 -17 23 -24 45 -24 79 0 46 0 46 30 40 38 -7 70
21 70 62 0 35 -25 59 -65 64 l-30 3 -3 798 -2 797 34 0 c59 0 88 68 46 110
-14 14 -27 18 -50 14 -30 -6 -30 -6 -30 35 0 31 8 55 31 87 87 127 96 262 26
400 -14 27 -33 56 -41 63 -11 9 -16 30 -16 62 l0 49 34 0 c60 0 88 68 45 111
-13 13 -30 19 -47 17 l-27 -3 -5 833 -5 833 -50 -51z m-55 -1655 c0 -8 -7 -15
-15 -15 -8 0 -15 7 -15 15 0 8 7 15 15 15 8 0 15 -7 15 -15z m140 0 c0 -8 -7
-15 -15 -15 -8 0 -15 7 -15 15 0 8 7 15 15 15 8 0 15 -7 15 -15z m-50 -235
c43 -43 65 -110 65 -205 0 -80 -3 -96 -30 -150 -28 -56 -32 -60 -65 -60 -32 0
-37 5 -62 50 -51 94 -54 225 -8 315 36 71 64 86 100 50z m-92 -634 c3 -12 -1
-17 -10 -14 -7 3 -15 13 -16 22 -3 12 1 17 10 14 7 -3 15 -13 16 -22z m146 -7
c-8 -14 -34 -11 -34 4 0 8 3 17 7 20 9 9 34 -13 27 -24z m-144 -1664 c0 -8 -7
-15 -15 -15 -8 0 -15 7 -15 15 0 8 7 15 15 15 8 0 15 -7 15 -15z m143 0 c1 -5
-6 -11 -15 -13 -11 -2 -18 3 -18 13 0 17 30 18 33 0z m-57 -233 c6 -4 24 -32
40 -62 26 -49 29 -65 29 -146 0 -81 -3 -97 -30 -149 -22 -44 -37 -60 -58 -66
-32 -9 -48 4 -76 60 -53 105 -43 245 25 349 14 22 48 29 70 14z m-86 -637 c0
-8 -7 -15 -15 -15 -8 0 -15 7 -15 15 0 8 7 15 15 15 8 0 15 -7 15 -15z m140 0
c0 -8 -7 -15 -15 -15 -8 0 -15 7 -15 15 0 8 7 15 15 15 8 0 15 -7 15 -15z
m-170 -1925 c0 -5 -4 -10 -10 -10 -5 0 -10 5 -10 10 0 6 5 10 10 10 6 0 10 -4
10 -10z"/>
</g>
</svg>
