<?xml version="1.0" standalone="no"?>
<!DOCTYPE svg PUBLIC "-//W3C//DTD SVG 20010904//EN"
 "http://www.w3.org/TR/2001/REC-SVG-20010904/DTD/svg10.dtd">
<svg version="1.0" xmlns="http://www.w3.org/2000/svg"
 width="2550.000000pt" height="2700.000000pt" viewBox="0 0 2550.000000 2700.000000"
 preserveAspectRatio="xMidYMid meet">

<g transform="translate(0.000000,2700.000000) scale(0.100000,-0.100000)"
fill="#3a4548" stroke="none">
<path d="M6420 15841 l0 -629 -52 -31 c-29 -16 -74 -51 -100 -76 l-48 -46 0
-70 c0 -38 4 -69 10 -69 5 0 18 17 29 38 52 101 161 199 253 227 42 12 49 12
88 -7 95 -47 186 -178 226 -328 14 -48 18 -103 18 -210 0 -124 -3 -155 -22
-215 -66 -203 -167 -233 -252 -74 -56 105 -53 248 6 319 32 38 39 38 53 -1 15
-44 14 -109 -3 -141 l-14 -26 45 -4 c52 -4 61 6 69 80 7 59 -13 119 -46 143
-21 14 -35 16 -88 9 -71 -9 -92 -23 -120 -84 -60 -127 -17 -319 89 -395 l39
-29 -31 -12 c-48 -20 -90 -69 -125 -146 -38 -80 -79 -229 -89 -319 -9 -87 -16
-116 -24 -111 -4 3 -27 68 -51 146 -24 77 -47 140 -52 140 -11 0 -10 -277 2
-298 9 -17 110 -332 110 -345 0 -4 -17 -7 -37 -7 -62 0 -83 -10 -83 -36 0 -28
7 -30 32 -7 29 26 47 9 110 -115 46 -89 56 -117 52 -141 -5 -23 -1 -37 18 -60
26 -30 80 -204 98 -315 51 -311 -20 -698 -153 -833 -45 -47 -86 -56 -123 -28
-10 8 -22 15 -26 15 -5 0 -8 -31 -8 -70 0 -38 3 -70 8 -70 4 0 21 9 37 20 17
11 40 20 52 20 48 0 118 -113 130 -209 11 -95 -35 -237 -75 -229 -39 7 -54 90
-28 153 l15 35 -39 0 c-33 0 -41 -4 -54 -32 -21 -41 -20 -105 2 -148 16 -34
20 -35 87 -43 86 -9 107 3 150 88 27 53 30 70 29 145 0 65 -6 97 -23 135 -23
53 -86 125 -108 125 -24 0 -13 18 23 41 52 32 107 123 143 237 32 100 61 247
61 314 0 72 19 46 59 -79 131 -417 140 -454 148 -609 14 -278 -64 -544 -211
-715 -48 -56 -143 -130 -181 -140 -46 -13 -118 18 -171 72 -21 21 -42 39 -46
39 -4 0 -8 -22 -8 -48 0 -46 2 -49 38 -67 20 -10 64 -21 97 -24 l60 -6 0 -490
0 -489 -33 -22 c-18 -13 -38 -25 -45 -28 -8 -3 -6 -8 6 -16 28 -18 21 -58 -13
-78 -23 -13 -30 -24 -30 -49 l0 -31 76 -7 c72 -7 222 0 272 12 31 7 32 64 0
78 -37 17 -50 46 -34 77 14 26 13 27 -19 38 -18 6 -36 18 -39 26 -3 9 -6 237
-6 509 l0 493 70 50 c155 114 265 339 300 614 14 114 13 207 -5 318 -18 109
-27 139 -169 595 -59 187 -109 348 -112 358 -5 16 1 18 69 15 69 -3 78 -1 103
22 58 54 82 166 49 229 -19 37 -30 40 -104 34 -67 -6 -77 -15 -91 -79 -7 -32
-7 -32 36 -36 37 -3 44 0 44 15 0 22 18 57 29 57 14 0 20 -67 9 -107 -13 -51
-49 -103 -70 -103 -9 0 -28 15 -42 33 -39 51 -105 192 -112 239 -4 24 -11 48
-16 55 -15 18 -74 221 -89 303 -22 120 -17 373 10 499 49 232 132 371 220 371
27 0 86 -64 116 -125 35 -71 50 -177 36 -246 -13 -61 -43 -116 -68 -126 -26
-10 -53 32 -53 84 0 37 5 50 31 74 l31 29 -51 0 c-78 0 -110 -43 -98 -132 8
-58 33 -78 108 -88 90 -11 125 6 163 83 24 49 29 69 28 135 -1 136 -58 265
-140 317 -17 11 -31 22 -32 25 0 3 17 14 38 25 48 26 96 99 124 189 19 60 23
93 22 211 -1 121 -5 152 -28 228 -63 211 -167 327 -306 344 l-50 6 0 617 0
617 -46 7 c-26 3 -55 6 -65 6 -18 0 -19 -22 -19 -629z"/>
<path d="M6229 13072 c-5 -13 -9 -41 -9 -63 0 -34 3 -39 23 -39 36 0 56 21 72
73 8 26 13 47 12 48 -1 0 -22 1 -46 2 -37 2 -45 -1 -52 -21z"/>
<path d="M6220 12240 c0 -5 12 -21 26 -35 23 -23 26 -33 22 -76 -4 -33 -13
-58 -28 -74 l-23 -24 26 -6 c63 -16 105 20 114 97 6 50 -14 101 -46 118 -25
13 -91 13 -91 0z"/>
</g>
</svg>
