<?xml version="1.0" standalone="no"?>
<!DOCTYPE svg PUBLIC "-//W3C//DTD SVG 20010904//EN"
 "http://www.w3.org/TR/2001/REC-SVG-20010904/DTD/svg10.dtd">
<svg version="1.0" xmlns="http://www.w3.org/2000/svg"
 width="2550.000000pt" height="2700.000000pt" viewBox="0 0 2550.000000 2700.000000"
 preserveAspectRatio="xMidYMid meet">

<g transform="translate(0.000000,2700.000000) scale(0.100000,-0.100000)"
fill="#3a4548" stroke="none">
<path d="M13617 14733 c-3 -5 -5 -309 -5 -677 l-1 -669 -56 -50 c-71 -63 -125
-142 -169 -248 -85 -208 -109 -352 -110 -659 0 -196 3 -236 21 -310 12 -47 73
-290 137 -540 86 -340 112 -456 103 -462 -7 -4 -36 -8 -65 -8 -47 0 -58 -4
-81 -29 -41 -44 -65 -129 -58 -208 7 -87 21 -100 112 -105 l70 -3 23 45 c12
24 22 59 22 78 l0 34 -61 -4 -60 -3 6 35 c7 39 44 110 57 110 30 0 112 -206
110 -275 -2 -38 2 -53 17 -65 20 -16 59 -163 86 -330 21 -129 21 -435 -1 -577
-32 -219 -87 -387 -149 -462 -32 -37 -54 -39 -82 -8 -100 109 -125 399 -43
507 24 32 40 17 40 -40 0 -56 -14 -100 -37 -117 -22 -17 -18 -19 50 -26 l59
-6 19 42 c26 58 25 151 -1 195 -20 32 -20 32 -101 32 -80 0 -81 0 -118 -37
-20 -21 -39 -37 -42 -36 -9 3 -27 -99 -34 -197 -8 -97 14 -228 40 -243 8 -4
15 -13 15 -20 0 -20 59 -86 92 -103 l30 -15 -39 -34 c-56 -48 -103 -142 -135
-270 -23 -92 -27 -132 -27 -245 0 -165 12 -268 39 -323 102 -209 155 -264 270
-276 l55 -6 2 -529 c1 -332 -2 -536 -8 -548 -5 -10 -28 -27 -50 -39 -38 -19
-40 -22 -25 -38 31 -34 13 -88 -34 -103 -15 -5 -25 -74 -11 -82 4 -3 68 -8
142 -11 115 -6 143 -4 194 12 60 19 60 19 63 60 2 33 0 41 -16 45 -11 3 -28
18 -37 32 -17 26 -17 28 4 56 l22 30 -41 16 c-22 9 -45 24 -50 33 -5 10 -9
254 -10 559 l-1 541 36 27 c46 34 111 127 159 222 112 223 169 558 146 847
-13 164 -12 158 -150 718 -60 247 -110 453 -110 459 0 7 21 8 60 4 59 -7 62
-6 91 25 67 72 88 247 36 303 -20 21 -28 23 -86 17 -76 -7 -101 -31 -104 -101
l-2 -45 55 -5 c51 -5 55 -7 52 -29 -3 -34 -39 -111 -51 -111 -25 0 -121 235
-121 297 0 19 -7 47 -15 61 -14 27 -42 138 -71 282 -21 107 -29 392 -15 520
31 280 98 488 173 541 33 24 46 18 83 -42 78 -123 92 -383 25 -469 -17 -21
-21 -23 -30 -10 -19 26 -7 127 18 153 34 36 28 45 -30 40 -73 -6 -77 -8 -93
-48 -34 -81 -6 -204 47 -206 13 0 50 -2 84 -5 59 -6 61 -5 92 30 44 50 63 122
63 237 -1 162 -51 309 -121 359 l-30 21 35 33 c127 120 170 478 95 778 -52
203 -146 327 -260 343 l-50 7 0 106 c0 59 -1 346 -1 637 0 292 -2 542 -5 558
-5 26 -7 27 -74 27 -38 0 -71 -3 -73 -7z m216 -1415 c93 -94 146 -237 169
-455 20 -195 -12 -397 -82 -506 -36 -57 -54 -66 -81 -41 -57 51 -94 179 -86
293 5 74 31 161 47 161 5 0 12 -20 16 -45 6 -41 -2 -92 -21 -137 -5 -14 2 -17
51 -20 52 -3 57 -1 67 22 16 37 14 169 -2 208 -19 44 -35 50 -115 43 -63 -6
-71 -9 -97 -41 -101 -126 -63 -453 61 -529 l30 -18 -34 -15 c-69 -33 -124
-157 -171 -383 -14 -66 -25 -138 -25 -160 0 -51 -16 -80 -24 -44 -3 13 -31
124 -61 246 -77 312 -88 397 -82 623 7 258 44 425 134 604 62 124 180 244 241
246 7 0 37 -24 65 -52z m86 -3653 c65 -266 81 -367 81 -530 0 -412 -143 -814
-336 -942 -50 -33 -53 -34 -81 -20 -83 44 -152 170 -188 342 -20 100 -21 321
-1 435 26 143 120 301 164 274 28 -17 69 -109 82 -184 13 -77 3 -167 -27 -241
-19 -49 -30 -49 -39 -3 -6 33 0 74 21 140 6 19 2 21 -48 23 -52 1 -55 0 -67
-29 -7 -17 -13 -64 -14 -105 -1 -60 3 -79 20 -102 18 -24 30 -29 89 -35 39 -4
76 -3 86 3 10 5 32 39 50 75 29 59 33 77 37 174 6 145 -19 233 -83 298 l-44
44 36 35 c19 20 49 64 65 98 36 78 82 259 98 385 6 52 14 106 17 120 5 24 6
24 14 5 5 -11 35 -128 68 -260z"/>
</g>
</svg>
