<?xml version="1.0" standalone="no"?>
<!DOCTYPE svg PUBLIC "-//W3C//DTD SVG 20010904//EN"
 "http://www.w3.org/TR/2001/REC-SVG-20010904/DTD/svg10.dtd">
<svg version="1.0" xmlns="http://www.w3.org/2000/svg"
 width="2550.000000pt" height="2700.000000pt" viewBox="0 0 2550.000000 2700.000000"
 preserveAspectRatio="xMidYMid meet">

<g transform="translate(0.000000,2700.000000) scale(0.100000,-0.100000)"
fill="#3a4548" stroke="none">
<path d="M16752 20114 l-52 -45 -2 -526 -3 -526 -66 -28 c-181 -74 -347 -234
-440 -424 -63 -129 -90 -240 -96 -388 -10 -236 7 -294 240 -802 275 -600 287
-628 282 -633 -3 -3 -18 7 -34 22 -38 37 -120 66 -185 66 -71 0 -130 -32 -176
-95 -31 -44 -35 -56 -35 -113 0 -61 2 -65 37 -98 33 -29 45 -34 88 -34 78 0
117 21 141 76 22 49 19 59 -22 69 -24 6 -27 3 -33 -29 -7 -38 -55 -86 -86 -86
-10 0 -28 14 -41 31 -44 62 -12 158 74 220 91 66 180 14 308 -180 35 -54 47
-81 43 -97 -4 -17 1 -30 20 -47 29 -27 105 -185 143 -296 72 -216 72 -464 -2
-681 -61 -180 -150 -307 -248 -354 -66 -32 -194 -38 -245 -12 -141 73 -232
268 -190 407 13 46 68 113 109 134 68 36 147 8 169 -60 16 -48 -11 -106 -56
-120 -44 -14 -45 -29 -2 -33 44 -4 91 19 114 53 26 40 15 132 -19 161 -38 33
-162 59 -214 45 -134 -36 -208 -186 -169 -341 33 -127 111 -224 221 -271 54
-24 70 -39 40 -39 -9 0 -39 -12 -67 -26 -261 -132 -307 -560 -93 -859 99 -140
277 -235 437 -235 l58 0 0 -527 c0 -291 -4 -533 -8 -539 -4 -6 -23 -19 -42
-29 -46 -23 -45 -22 -26 -40 9 -9 16 -27 16 -39 0 -24 -28 -56 -49 -56 -8 0
-11 -14 -9 -42 l3 -43 182 0 c100 0 183 2 186 5 2 3 7 19 10 37 6 28 3 34 -24
50 -37 22 -46 55 -25 87 15 24 15 25 -27 48 l-42 23 -3 538 -2 537 22 9 c13 5
55 21 93 36 228 87 406 295 493 575 24 78 26 99 26 260 0 161 -2 182 -27 262
-15 48 -133 319 -262 603 -129 283 -235 518 -235 522 0 4 10 -3 23 -14 47 -43
89 -57 164 -56 39 1 88 9 110 18 113 47 171 189 108 264 -31 37 -112 66 -160
57 -40 -8 -90 -61 -100 -105 -9 -40 -2 -49 34 -43 23 3 30 10 35 34 3 16 19
43 36 60 l30 30 32 -19 c42 -24 57 -65 46 -122 -18 -84 -132 -164 -207 -146
-36 9 -149 128 -204 217 -40 63 -46 79 -41 110 6 32 3 37 -24 54 -46 27 -133
229 -167 389 -23 103 -23 321 -1 422 50 234 162 430 283 495 40 22 63 27 134
29 77 2 90 0 138 -26 168 -92 236 -339 130 -468 -60 -73 -174 -100 -218 -53
-50 53 -28 154 39 179 39 15 38 23 -5 31 -51 10 -92 -15 -117 -71 -23 -52 -19
-97 14 -138 30 -39 77 -55 155 -55 107 1 177 41 225 131 19 36 23 59 23 129 0
74 -4 93 -31 150 -43 90 -92 142 -166 178 -35 17 -71 34 -81 36 -21 7 -14 26
10 26 32 0 136 65 178 112 161 180 167 514 12 745 -105 157 -265 247 -479 268
l-68 7 0 548 c0 490 -2 548 -16 554 -9 3 -16 6 -17 6 -2 0 -26 -21 -55 -46z
m293 -1129 c231 -81 379 -309 379 -580 -1 -162 -45 -277 -140 -364 -74 -68
-114 -84 -209 -86 -94 -2 -134 14 -185 71 -71 81 -97 188 -70 285 13 46 72
115 121 140 36 18 41 18 69 4 62 -32 78 -131 31 -191 -29 -37 -27 -44 13 -44
70 0 106 98 67 184 -17 40 -28 50 -76 71 -66 30 -106 31 -161 6 -120 -54 -175
-217 -122 -358 26 -72 114 -164 173 -183 60 -19 61 -26 8 -44 -104 -35 -179
-113 -252 -261 -86 -176 -123 -357 -115 -560 l4 -80 -41 85 c-90 187 -327 718
-342 765 -61 194 -49 449 32 642 151 363 534 597 816 498z m133 -3463 c113
-250 188 -428 201 -479 119 -467 -142 -955 -574 -1074 -123 -33 -219 -25 -329
29 -143 71 -244 190 -302 357 -25 71 -28 94 -29 210 0 153 14 212 75 303 28
41 61 74 102 102 57 38 64 40 134 40 89 0 127 -14 189 -71 84 -77 122 -191 96
-287 -15 -53 -73 -119 -125 -143 -36 -16 -43 -16 -68 -3 -58 30 -75 117 -37
188 11 21 19 40 17 41 -2 2 -16 5 -32 7 -26 3 -33 -3 -53 -37 -48 -83 -18
-191 63 -226 38 -17 52 -19 99 -10 71 13 103 31 148 80 122 135 59 369 -125
461 -34 16 -68 30 -77 31 -9 0 9 7 39 15 117 32 207 114 277 255 83 168 117
307 117 491 1 65 4 118 7 118 3 0 87 -179 187 -398z"/>
</g>
</svg>
