<?xml version="1.0" standalone="no"?>
<!DOCTYPE svg PUBLIC "-//W3C//DTD SVG 20010904//EN"
 "http://www.w3.org/TR/2001/REC-SVG-20010904/DTD/svg10.dtd">
<svg version="1.0" xmlns="http://www.w3.org/2000/svg"
 width="3542.000000pt" height="3750.000000pt" viewBox="0 0 3542.000000 3750.000000"
 preserveAspectRatio="xMidYMid meet">

<g transform="translate(0.000000,3750.000000) scale(0.100000,-0.100000)"
fill="#65340A" stroke="none">
<path d="M16513 18663 l-83 -4 0 -872 c0 -1030 -9 -1200 -81 -1606 -11 -63
-18 -129 -14 -148 7 -40 50 -93 76 -93 15 0 19 -7 19 -35 0 -32 -3 -35 -42
-46 -61 -16 -61 -17 -33 -51 40 -47 32 -87 -22 -113 -23 -11 -42 -26 -43 -32
0 -7 -8 -13 -19 -13 -24 0 -45 -25 -37 -45 3 -8 16 -19 30 -25 13 -5 25 -12
27 -17 2 -4 22 -17 44 -28 52 -26 59 -67 20 -114 l-27 -31 27 -10 c14 -5 37
-13 50 -16 20 -5 25 -13 25 -38 0 -25 -6 -34 -29 -44 -19 -8 -38 -30 -52 -59
l-22 -46 26 -161 c60 -363 77 -588 77 -1001 0 -458 -16 -646 -91 -1116 -11
-69 -10 -79 7 -115 12 -24 31 -45 52 -54 27 -13 32 -20 30 -44 -3 -25 -9 -31
-50 -43 -49 -14 -59 -26 -34 -40 8 -4 21 -21 30 -37 13 -26 13 -33 1 -57 -9
-16 -29 -32 -49 -39 -19 -6 -37 -17 -40 -25 -3 -8 -12 -15 -19 -15 -8 0 -21
-7 -28 -16 -11 -14 -10 -19 11 -35 14 -10 32 -26 41 -34 9 -8 22 -15 30 -15
25 0 56 -28 61 -54 5 -27 -24 -86 -42 -86 -27 0 -5 -19 38 -32 41 -13 47 -19
50 -46 3 -26 -2 -33 -27 -47 -67 -34 -77 -93 -46 -271 68 -392 68 -394 72
-1473 5 -1097 11 -1005 -67 -1031 -22 -7 -40 -15 -40 -17 0 -2 10 -17 21 -33
19 -25 20 -32 10 -59 -7 -16 -26 -35 -42 -41 -28 -12 -34 -27 -29 -75 3 -28 9
-31 130 -50 112 -18 132 -17 298 16 l52 10 0 43 c0 39 -3 45 -30 56 -52 21
-66 72 -30 105 28 25 26 30 -20 45 -78 26 -71 -68 -67 1046 2 550 6 1010 9
1024 4 14 9 59 13 100 8 95 42 337 55 393 14 62 12 144 -5 176 -8 16 -28 34
-45 39 -26 9 -30 16 -30 46 0 29 4 36 20 36 23 0 70 20 70 30 0 4 -7 14 -16
21 -48 40 -35 102 26 126 22 9 40 20 40 25 0 5 11 13 25 18 15 6 25 17 25 30
0 12 -10 25 -25 32 -14 6 -25 15 -25 19 0 4 -16 13 -35 19 -37 12 -65 43 -65
71 0 10 14 31 30 47 17 17 30 33 30 36 0 3 -21 12 -47 19 -43 12 -48 17 -51
45 -3 26 2 33 27 47 62 32 76 94 51 234 -20 111 -42 272 -61 431 -17 147 -24
861 -10 1068 13 184 38 397 70 590 13 77 16 125 10 150 -8 38 -49 82 -75 82
-9 0 -14 11 -14 33 0 31 4 35 43 47 61 19 61 20 34 49 -14 14 -28 35 -31 47
-9 28 26 71 64 79 17 4 30 13 30 21 0 8 8 14 19 14 10 0 24 6 30 14 17 20 -3
56 -29 56 -11 0 -20 6 -20 14 0 8 -13 17 -30 21 -38 8 -73 51 -64 79 3 12 17
33 31 47 27 29 27 30 -34 49 -39 12 -43 16 -43 47 0 21 5 33 13 33 24 0 69 58
77 98 4 26 -1 85 -16 174 -13 74 -33 215 -45 314 -22 172 -23 217 -26 1162 -3
540 -7 981 -11 980 -4 -1 -44 -4 -89 -5z"/>
</g>
</svg>
