<?xml version="1.0" standalone="no"?>
<!DOCTYPE svg PUBLIC "-//W3C//DTD SVG 20010904//EN"
 "http://www.w3.org/TR/2001/REC-SVG-20010904/DTD/svg10.dtd">
<svg version="1.0" xmlns="http://www.w3.org/2000/svg"
 width="3542.000000pt" height="3750.000000pt" viewBox="0 0 3542.000000 3750.000000"
 preserveAspectRatio="xMidYMid meet">

<g transform="translate(0.000000,3750.000000) scale(0.100000,-0.100000)"
fill="#65340A" stroke="none">
<path d="M27499 18693 c-1 -5 -2 -408 -4 -898 -2 -996 -5 -1048 -76 -1438 -19
-105 -29 -181 -25 -202 7 -36 58 -95 82 -95 8 0 15 -7 15 -15 1 -8 2 -22 3
-31 1 -11 -14 -21 -44 -31 -25 -8 -47 -17 -49 -19 -2 -2 8 -17 23 -34 14 -17
26 -42 26 -55 0 -26 -42 -65 -71 -65 -11 0 -19 -7 -19 -15 0 -8 -6 -15 -14
-15 -8 0 -22 -7 -30 -16 -20 -20 -5 -54 24 -54 11 0 20 -7 20 -15 0 -8 8 -15
19 -15 10 0 30 -9 45 -21 34 -27 34 -68 1 -99 -14 -13 -25 -26 -25 -30 0 -4
19 -13 43 -20 23 -7 46 -17 51 -21 13 -11 -2 -59 -18 -59 -8 0 -28 -12 -45
-26 -45 -38 -48 -75 -17 -233 63 -331 83 -586 80 -1046 -3 -403 -23 -632 -84
-933 -11 -53 -20 -111 -20 -128 0 -37 36 -94 70 -111 28 -14 44 -57 27 -71 -7
-5 -29 -15 -49 -21 -21 -7 -38 -16 -38 -19 0 -4 12 -18 25 -31 43 -41 23 -101
-40 -117 -14 -3 -25 -12 -25 -20 0 -8 -8 -14 -19 -14 -45 0 -50 -55 -6 -66 13
-3 26 -12 29 -20 3 -8 12 -14 19 -14 25 0 67 -41 67 -65 0 -13 -12 -37 -26
-54 l-25 -30 37 -16 c20 -8 40 -15 45 -15 31 0 11 -67 -23 -72 -30 -4 -68 -63
-68 -104 0 -18 6 -63 14 -101 23 -110 55 -317 73 -473 21 -193 32 -1939 12
-1976 -7 -13 -28 -29 -48 -35 -51 -16 -56 -24 -32 -48 12 -12 21 -29 21 -40 0
-21 -46 -71 -66 -71 -10 0 -14 -14 -14 -45 0 -25 2 -45 4 -45 2 0 65 -9 139
-20 124 -19 140 -19 199 -5 61 14 104 23 121 24 4 1 7 21 7 46 0 31 -4 45 -14
45 -7 0 -25 9 -40 21 -32 25 -35 68 -6 94 20 18 20 19 -32 44 l-53 26 0 895
c0 492 4 942 8 1000 10 140 41 356 72 512 34 166 22 213 -62 257 -27 14 -33
71 -8 71 8 0 23 4 33 9 9 5 26 12 36 16 18 5 18 7 -6 33 -40 42 -43 67 -14 97
14 14 34 25 46 25 11 0 20 4 20 10 0 5 14 16 30 25 37 19 40 52 5 65 -14 5
-25 14 -25 19 0 5 -12 12 -26 15 -14 4 -36 17 -49 30 -28 28 -24 58 13 98 l24
27 -48 14 c-43 12 -49 17 -52 44 -3 26 1 32 25 38 68 17 91 76 69 181 -8 38
-17 87 -20 109 -3 22 -11 63 -16 90 -15 80 -38 277 -51 438 -15 196 -6 857 14
1022 19 149 40 280 67 408 24 119 17 168 -30 210 -17 15 -37 27 -45 27 -10 0
-15 11 -15 35 0 29 4 35 20 35 12 0 35 7 52 16 27 14 29 18 15 26 -30 16 -48
64 -36 91 11 25 47 47 74 47 8 0 14 5 13 10 -2 6 8 16 22 23 14 7 25 21 25 32
0 11 -11 25 -25 32 -14 7 -24 17 -22 23 1 5 -5 10 -13 10 -29 0 -72 29 -78 51
-7 26 15 74 40 88 16 8 13 12 -19 25 -21 9 -44 16 -53 16 -11 0 -15 10 -15 35
0 27 4 35 19 35 30 0 70 39 81 79 8 31 5 63 -14 162 -77 390 -86 542 -86 1542
l0 857 -85 0 c-47 0 -85 -3 -86 -7z"/>
</g>
</svg>
