<?xml version="1.0" standalone="no"?>
<!DOCTYPE svg PUBLIC "-//W3C//DTD SVG 20010904//EN"
 "http://www.w3.org/TR/2001/REC-SVG-20010904/DTD/svg10.dtd">
<svg version="1.0" xmlns="http://www.w3.org/2000/svg"
 width="3542.000000pt" height="3750.000000pt" viewBox="0 0 3542.000000 3750.000000"
 preserveAspectRatio="xMidYMid meet">

<g transform="translate(0.000000,3750.000000) scale(0.100000,-0.100000)"
fill="#65340A" stroke="none">
<path d="M11180 17648 c0 -1080 -8 -1259 -77 -1643 -44 -252 -43 -244 -28
-287 13 -40 42 -68 80 -78 14 -4 21 -16 23 -42 3 -34 2 -36 -35 -41 -21 -4
-47 -13 -57 -20 -17 -13 -16 -15 13 -44 18 -18 31 -42 31 -56 0 -29 -51 -77
-81 -77 -10 0 -19 -7 -19 -15 0 -8 -11 -17 -25 -21 -51 -13 -51 -65 0 -78 14
-4 25 -12 25 -20 0 -7 13 -16 30 -19 70 -15 90 -78 40 -129 -32 -31 -32 -48 0
-48 10 0 22 -4 25 -10 3 -5 17 -10 31 -10 21 0 24 -5 24 -34 0 -30 -5 -37 -37
-53 -78 -38 -90 -102 -54 -284 35 -181 61 -381 81 -624 14 -183 5 -977 -14
-1137 -19 -167 -52 -389 -72 -481 -29 -141 -8 -220 64 -242 29 -8 32 -13 32
-47 0 -32 -3 -38 -20 -38 -11 0 -37 -7 -56 -15 l-36 -15 31 -31 c41 -41 41
-79 0 -113 -17 -14 -39 -26 -50 -26 -10 0 -19 -6 -19 -13 0 -7 -13 -18 -30
-24 -45 -17 -36 -73 12 -73 10 0 18 -6 18 -14 0 -8 12 -17 28 -21 39 -9 72
-44 72 -76 0 -16 -12 -39 -29 -58 -32 -34 -30 -38 33 -56 37 -11 41 -16 44
-47 3 -32 -1 -37 -34 -55 -20 -10 -46 -35 -56 -54 -23 -41 -21 -111 10 -274
24 -125 36 -202 59 -395 14 -115 17 -286 20 -1177 3 -692 1 -1049 -6 -1061 -6
-11 -35 -29 -65 -41 l-54 -22 24 -24 c13 -13 24 -36 24 -50 0 -31 -41 -75 -70
-75 -19 0 -21 -5 -18 -52 l3 -53 116 -24 117 -24 143 24 144 24 3 50 c3 48 1
51 -26 61 -64 24 -79 99 -26 127 25 13 24 13 -33 37 -32 13 -63 31 -70 39 -9
12 -11 259 -9 1036 3 1152 5 1177 86 1651 30 171 30 198 1 251 -6 12 -29 28
-51 37 -37 15 -41 19 -38 48 3 27 9 33 44 43 66 19 68 23 34 61 -16 19 -30 44
-30 55 0 27 43 68 80 75 16 4 27 10 24 15 -3 5 5 13 18 18 54 20 61 65 13 77
-14 3 -25 10 -25 15 0 4 -20 17 -44 28 -72 31 -83 71 -36 124 17 19 30 37 30
39 0 3 -25 13 -55 23 -51 16 -55 19 -55 48 0 27 6 35 38 52 25 14 45 35 61 68
l24 49 -18 96 c-37 205 -45 251 -60 365 -8 65 -20 171 -25 235 -14 155 -14
966 0 1112 25 267 47 430 81 602 14 69 19 120 14 144 -7 42 -54 94 -83 94 -14
0 -21 8 -24 28 -6 39 0 52 22 52 10 0 22 5 25 10 3 6 15 10 25 10 29 0 35 21
12 39 -12 9 -26 29 -32 45 -9 25 -8 34 8 55 10 15 34 31 52 37 19 6 36 17 38
23 2 7 15 16 28 21 36 14 42 40 13 62 -13 10 -31 24 -39 30 -8 7 -28 18 -44
23 -16 6 -38 22 -49 37 -20 27 -20 29 -4 63 9 20 24 38 32 41 8 4 15 10 15 14
0 11 -59 40 -82 40 -14 0 -18 8 -18 40 0 30 4 40 16 40 26 0 72 54 84 99 9 35
6 67 -19 209 -32 176 -56 354 -67 487 -3 44 -8 91 -10 105 -2 14 -4 481 -4
1038 l-1 1012 -99 0 -100 0 0 -942z"/>
</g>
</svg>
