<?xml version="1.0" standalone="no"?>
<!DOCTYPE svg PUBLIC "-//W3C//DTD SVG 20010904//EN"
 "http://www.w3.org/TR/2001/REC-SVG-20010904/DTD/svg10.dtd">
<svg version="1.0" xmlns="http://www.w3.org/2000/svg"
 width="2644.000000pt" height="2800.000000pt" viewBox="0 0 2644.000000 2800.000000"
 preserveAspectRatio="xMidYMid meet">

<g transform="translate(0.000000,2800.000000) scale(0.100000,-0.100000)"
fill="#3a4548"  stroke="none">
<path d="M8390 16775 l0 -585 -50 0 -50 0 0 -927 c0 -511 -1 -1066 -3 -1235
-2 -344 -8 -318 71 -318 l32 0 0 -90 0 -90 -55 0 -55 0 4 -82 c2 -46 5 -539 5
-1095 l1 -1013 50 0 50 0 0 -580 0 -580 -32 -20 c-18 -11 -37 -22 -43 -23 -5
-2 -1 -14 9 -26 16 -18 17 -25 7 -47 -6 -14 -20 -28 -31 -31 -15 -4 -20 -14
-20 -39 0 -30 3 -34 36 -40 42 -8 270 1 297 11 25 10 24 75 -2 75 -28 0 -45
70 -21 85 17 11 11 23 -14 29 -59 15 -56 -15 -56 622 0 459 3 585 13 589 6 2
29 6 50 10 l37 6 0 1069 0 1070 -50 0 -50 0 0 95 0 95 50 0 50 0 0 1235 0
1235 -50 0 -50 0 -2 588 -3 587 -62 3 -63 3 0 -586z m120 -1825 l0 -1140 -55
0 -55 0 0 1140 0 1140 55 0 55 0 0 -1140z m0 -2504 l0 -983 -31 -7 c-17 -3
-42 -6 -55 -6 l-24 0 0 990 0 990 55 0 55 0 0 -984z"/>
</g>
</svg>
