<?xml version="1.0" standalone="no"?>
<!DOCTYPE svg PUBLIC "-//W3C//DTD SVG 20010904//EN"
 "http://www.w3.org/TR/2001/REC-SVG-20010904/DTD/svg10.dtd">
<svg version="1.0" xmlns="http://www.w3.org/2000/svg"
 width="2644.000000pt" height="2800.000000pt" viewBox="0 0 2644.000000 2800.000000"
 preserveAspectRatio="xMidYMid meet">

<g transform="translate(0.000000,2800.000000) scale(0.100000,-0.100000)"
fill="#3a4548"  stroke="none">
<path d="M8910 17150 l0 -160 -50 0 -50 0 0 -1215 0 -1215 34 0 c63 0 66 -4
66 -96 l0 -84 -50 0 -50 0 0 -1075 0 -1075 50 0 50 0 -2 -172 -3 -172 -36 -21
c-34 -19 -35 -21 -22 -41 17 -26 1 -70 -29 -79 -13 -5 -18 -16 -18 -41 l0 -34
123 0 c67 0 146 3 175 6 51 7 52 7 52 40 0 22 -5 34 -13 34 -18 0 -47 32 -47
53 0 8 7 22 15 31 14 14 12 17 -25 36 l-40 20 0 174 c0 190 -1 186 61 186 l29
0 0 1055 0 1055 -44 0 c-43 0 -44 0 -50 40 -3 22 -3 64 0 95 l7 54 43 -6 44
-6 0 1217 0 1216 -45 0 -45 0 -2 168 -3 167 -62 3 -63 3 0 -161z m113 -277 c4
-2 7 -506 6 -1119 -1 -1027 -2 -1114 -18 -1114 -9 0 -33 3 -53 6 l-38 7 0
1119 0 1120 48 -7 c26 -4 50 -9 55 -12z m-1 -2609 c3 -2 6 -435 6 -961 0 -722
-2 -960 -11 -965 -7 -4 -31 -8 -54 -8 l-43 0 0 976 0 976 48 -7 c26 -4 50 -9
54 -11z"/>
</g>
</svg>
