<?xml version="1.0" standalone="no"?>
<!DOCTYPE svg PUBLIC "-//W3C//DTD SVG 20010904//EN"
 "http://www.w3.org/TR/2001/REC-SVG-20010904/DTD/svg10.dtd">
<svg version="1.0" xmlns="http://www.w3.org/2000/svg"
 width="2644.000000pt" height="2800.000000pt" viewBox="0 0 2644.000000 2800.000000"
 preserveAspectRatio="xMidYMid meet">

<g transform="translate(0.000000,2800.000000) scale(0.100000,-0.100000)"
fill="#3a4548"  stroke="none">
<path d="M9410 17105 l0 -155 -45 0 -45 0 2 -1177 3 -1178 35 -3 c19 -2 38 -9
42 -15 4 -7 8 -47 8 -89 l0 -78 -45 0 -45 0 0 -1070 0 -1070 45 0 45 0 0 -156
c0 -85 -4 -163 -10 -173 -5 -10 -22 -24 -39 -30 -29 -13 -29 -13 -13 -43 17
-29 17 -30 -15 -57 -22 -18 -33 -36 -33 -53 0 -25 2 -26 85 -33 47 -4 123 -4
170 0 l85 7 0 34 c0 24 -5 34 -21 39 -11 4 -25 18 -31 31 -9 20 -8 28 8 45 16
17 16 22 4 29 -8 6 -20 10 -27 10 -6 0 -19 7 -27 16 -13 13 -16 44 -16 184 l0
169 38 3 c37 3 37 3 42 54 3 28 5 499 5 1045 l0 994 -40 5 -40 5 -3 98 -3 97
46 0 46 0 -5 1158 c-3 636 -6 1162 -6 1169 0 6 -17 13 -37 15 l-38 3 -3 163
-2 162 -60 0 -60 0 0 -155z m103 -274 c4 -4 6 -488 5 -1077 l-3 -1069 -45 0
-45 0 -3 1084 -2 1084 42 -7 c24 -4 46 -10 51 -15z m-1 -2537 c4 -3 8 -434 8
-959 l0 -953 -40 -7 c-21 -4 -44 -4 -50 0 -7 4 -10 316 -10 972 l0 966 42 -7
c22 -4 45 -9 50 -12z"/>
</g>
</svg>
