<?xml version="1.0" standalone="no"?>
<!DOCTYPE svg PUBLIC "-//W3C//DTD SVG 20010904//EN"
 "http://www.w3.org/TR/2001/REC-SVG-20010904/DTD/svg10.dtd">
<svg version="1.0" xmlns="http://www.w3.org/2000/svg"
 width="2644.000000pt" height="2800.000000pt" viewBox="0 0 2644.000000 2800.000000"
 preserveAspectRatio="xMidYMid meet">

<g transform="translate(0.000000,2800.000000) scale(0.100000,-0.100000)"
fill="#3a4548"  stroke="none">
<path d="M9890 17065 l0 -155 -45 0 -45 0 0 -1169 0 -1170 43 -3 42 -3 3 -87
3 -88 -46 0 -45 0 0 -1034 0 -1035 21 -6 c11 -4 31 -4 45 -1 l24 7 -2 -168 -3
-167 -37 -21 c-34 -19 -36 -22 -21 -37 21 -22 10 -61 -22 -76 -19 -9 -25 -19
-25 -42 l0 -30 88 -1 c227 -4 252 0 252 41 0 17 -4 30 -10 30 -15 0 -50 38
-50 54 0 8 7 21 15 30 14 14 12 17 -17 32 -18 9 -36 22 -40 28 -4 6 -8 84 -8
172 l0 162 45 6 45 7 0 1014 0 1014 -42 3 -43 3 -3 97 -3 97 43 3 43 3 3 1158
2 1157 -45 0 -45 0 0 165 0 165 -60 0 -60 0 0 -155z m98 -263 c10 -7 12 -228
10 -1073 l-3 -1064 -47 -3 -48 -3 0 1075 0 1076 38 0 c20 0 43 -4 50 -8z m1
-2526 c8 -10 10 -261 9 -932 l-3 -919 -40 -6 c-22 -4 -43 -5 -47 -2 -5 2 -8
425 -8 939 l0 934 39 0 c21 0 44 -6 50 -14z"/>
</g>
</svg>
