<?xml version="1.0" standalone="no"?>
<!DOCTYPE svg PUBLIC "-//W3C//DTD SVG 20010904//EN"
 "http://www.w3.org/TR/2001/REC-SVG-20010904/DTD/svg10.dtd">
<svg version="1.0" xmlns="http://www.w3.org/2000/svg"
 width="2644.000000pt" height="2800.000000pt" viewBox="0 0 2644.000000 2800.000000"
 preserveAspectRatio="xMidYMid meet">

<g transform="translate(0.000000,2800.000000) scale(0.100000,-0.100000)"
fill="#3a4548"  stroke="none">
<path d="M4498 14616 l-78 -110 0 -338 0 -338 -60 0 -60 0 -2 -322 c-2 -178
-2 -810 0 -1405 l2 -1083 60 0 60 0 0 -105 0 -105 -60 0 -60 0 -2 -1217 c-2
-670 -2 -1229 0 -1241 3 -22 7 -23 63 -20 l59 3 -2 -335 -3 -335 -47 -25 -48
-26 22 -21 c28 -28 18 -67 -22 -85 -26 -11 -30 -18 -30 -54 l0 -41 124 -7
c101 -6 141 -4 210 10 l86 18 0 43 c0 29 -4 43 -13 43 -17 0 -57 42 -57 59 0
6 11 22 23 35 l24 24 -40 13 c-70 23 -67 4 -67 384 l0 343 65 13 65 13 0 1209
0 1210 -65 -7 -65 -7 0 106 0 105 65 0 65 0 0 1411 0 1412 -65 -7 -65 -7 -2
448 -3 448 -77 -109z m82 -2191 l0 -1295 -75 0 -75 0 0 1295 0 1295 75 0 75 0
0 -1295z m-2 -2822 l-3 -1097 -67 -17 c-37 -9 -70 -14 -73 -11 -3 3 -5 504 -5
1114 l0 1108 75 0 75 0 -2 -1097z"/>
</g>
</svg>
