<?xml version="1.0" standalone="no"?>
<!DOCTYPE svg PUBLIC "-//W3C//DTD SVG 20010904//EN"
 "http://www.w3.org/TR/2001/REC-SVG-20010904/DTD/svg10.dtd">
<svg version="1.0" xmlns="http://www.w3.org/2000/svg"
 width="2644.000000pt" height="2800.000000pt" viewBox="0 0 2644.000000 2800.000000"
 preserveAspectRatio="xMidYMid meet">

<g transform="translate(0.000000,2800.000000) scale(0.100000,-0.100000)"
fill="#3a4548"  stroke="none">
<path d="M5168 15556 l-78 -110 0 -358 0 -358 -60 0 -60 0 0 -1360 0 -1360 60
0 60 0 0 -100 0 -100 -60 0 -60 0 0 -1229 0 -1229 29 -7 c16 -3 44 -3 63 0
l33 6 -5 -773 c-3 -425 -6 -773 -8 -774 -28 -12 -88 -38 -90 -40 -2 -1 6 -12
17 -23 12 -12 21 -28 21 -36 0 -19 -36 -55 -55 -55 -11 0 -15 -12 -15 -44 l0
-43 128 -8 c105 -5 141 -3 202 11 41 10 78 23 82 28 15 21 8 66 -9 73 -49 17
-69 67 -38 93 23 19 19 26 -25 40 -26 9 -42 21 -45 34 -3 12 -4 365 -3 786 l3
765 55 10 55 10 3 1203 2 1202 -60 0 -60 0 0 100 0 100 60 0 60 0 0 1360 0
1360 -60 0 -60 0 -2 468 -3 467 -77 -109z m72 -2186 l0 -1250 -70 0 -70 0 0
1250 0 1250 70 0 70 0 0 -1250z m0 -2769 l0 -1099 -35 -6 c-19 -3 -51 -9 -70
-12 l-35 -6 0 1111 0 1111 70 0 70 0 0 -1099z"/>
</g>
</svg>
