<?xml version="1.0" standalone="no"?>
<!DOCTYPE svg PUBLIC "-//W3C//DTD SVG 20010904//EN"
 "http://www.w3.org/TR/2001/REC-SVG-20010904/DTD/svg10.dtd">
<svg version="1.0" xmlns="http://www.w3.org/2000/svg"
 width="2644.000000pt" height="2800.000000pt" viewBox="0 0 2644.000000 2800.000000"
 preserveAspectRatio="xMidYMid meet">

<g transform="translate(0.000000,2800.000000) scale(0.100000,-0.100000)"
fill="#3a4548"  stroke="none">
<path d="M6720 16895 l0 -615 -50 0 -50 0 -2 -1296 c-2 -858 0 -1297 7 -1299
6 -1 28 -7 50 -11 l40 -9 3 -97 3 -98 -51 0 -50 0 0 -1166 0 -1166 50 4 50 3
-2 -615 -3 -614 -33 -22 c-18 -13 -38 -25 -45 -27 -8 -3 -6 -10 6 -25 25 -28
18 -53 -20 -77 -25 -15 -32 -27 -33 -51 0 -27 4 -32 31 -38 52 -10 227 -7 295
6 63 11 64 12 64 44 0 26 -6 36 -27 46 -34 16 -44 67 -18 88 15 12 11 16 -27
34 l-43 21 -3 626 -2 626 52 9 53 9 0 1132 c0 1124 0 1132 -20 1137 -11 3 -35
6 -52 6 l-33 0 0 100 0 100 53 0 52 0 -2 1297 c-2 1233 -3 1298 -20 1305 -10
3 -33 7 -50 7 l-33 1 0 620 0 620 -70 0 -70 0 0 -615z m130 -1930 c0 -1009 -2
-1205 -14 -1205 -7 0 -34 3 -60 6 l-46 7 0 1198 0 1199 60 0 60 0 0 -1205z m0
-2649 l0 -1043 -37 -7 c-21 -3 -48 -6 -60 -6 l-23 0 0 1050 0 1050 60 0 60 0
0 -1044z"/>
</g>
</svg>
