<?xml version="1.0" standalone="no"?>
<!DOCTYPE svg PUBLIC "-//W3C//DTD SVG 20010904//EN"
 "http://www.w3.org/TR/2001/REC-SVG-20010904/DTD/svg10.dtd">
<svg version="1.0" xmlns="http://www.w3.org/2000/svg"
 width="2644.000000pt" height="2800.000000pt" viewBox="0 0 2644.000000 2800.000000"
 preserveAspectRatio="xMidYMid meet">

<g transform="translate(0.000000,2800.000000) scale(0.100000,-0.100000)"
fill="#3a4548"  stroke="none">
<path d="M15900 13961 c-7 -13 -10 -256 -10 -720 l0 -700 -42 -3 -43 -3 0
-1580 0 -1580 43 -3 42 -3 0 -134 0 -134 -42 -3 -43 -3 0 -1455 0 -1455 42 -3
43 -3 0 -876 c-1 -757 -3 -879 -16 -904 -8 -16 -18 -29 -22 -29 -4 0 -22 -9
-41 -21 l-33 -20 21 -23 c32 -34 27 -62 -19 -94 -38 -25 -40 -30 -37 -72 l2
-45 159 -14 160 -13 62 31 c59 29 62 33 66 72 4 40 -10 69 -32 69 -17 0 -40
32 -40 56 0 13 9 33 21 45 11 11 19 22 17 23 -1 2 -23 11 -48 20 -25 10 -48
23 -52 29 -4 7 -8 423 -8 925 l0 912 45 22 45 22 0 1418 0 1418 -45 -7 -45 -6
0 127 0 126 45 0 45 0 0 1600 0 1600 -45 -7 -45 -6 0 712 0 711 -70 0 c-58 0
-71 -3 -80 -19z m108 -2998 l-3 -1458 -32 -3 -33 -3 0 1455 c0 1154 3 1455 13
1459 6 3 22 6 35 6 l22 1 -2 -1457z m2 -3266 l0 -1283 -35 -17 -35 -17 0 1294
c0 1026 3 1295 13 1299 6 3 22 6 35 6 l22 1 0 -1283z"/>
</g>
</svg>
