<?xml version="1.0" standalone="no"?>
<!DOCTYPE svg PUBLIC "-//W3C//DTD SVG 20010904//EN"
 "http://www.w3.org/TR/2001/REC-SVG-20010904/DTD/svg10.dtd">
<svg version="1.0" xmlns="http://www.w3.org/2000/svg"
 width="2644.000000pt" height="2800.000000pt" viewBox="0 0 2644.000000 2800.000000"
 preserveAspectRatio="xMidYMid meet">

<g transform="translate(0.000000,2800.000000) scale(0.100000,-0.100000)"
fill="#3a4548"  stroke="none">
<path d="M22550 26575 l0 -1425 24 -6 c12 -3 66 -1 119 5 53 6 101 11 107 11
6 0 10 -43 10 -118 l0 -119 -127 -14 -128 -14 0 -1340 0 -1340 75 0 c41 0 98
2 125 5 l50 5 3 -355 c1 -195 0 -365 -3 -378 -4 -16 -21 -30 -50 -43 l-45 -20
21 -28 c27 -37 22 -61 -18 -86 -18 -11 -32 -24 -33 -28 0 -9 299 0 332 9 14 4
15 10 7 31 -8 22 -6 32 11 55 l20 27 -39 20 c-21 11 -41 27 -45 36 -3 9 -6
184 -6 390 l0 373 31 6 c17 3 61 7 98 7 36 1 80 4 96 8 l30 6 1 1343 c1 1143
-1 1344 -13 1354 -10 8 -43 9 -124 2 -61 -5 -113 -7 -115 -5 -2 2 -4 53 -4
113 0 78 4 110 13 113 6 2 61 9 121 15 65 6 113 15 117 22 6 9 6 2552 0 2751
l-1 38 -61 -3 -62 -3 1 -1320 c0 -726 -2 -1328 -4 -1337 -5 -15 -18 -18 -95
-18 -49 0 -134 -7 -190 -15 -55 -8 -105 -13 -110 -10 -5 4 -9 540 -9 1356 l0
1349 -65 0 -65 0 0 -1425z m537 -2981 c0 -949 -2 -1207 -12 -1210 -17 -7 -378
-32 -387 -27 -5 2 -8 543 -8 1202 l0 1198 158 18 c86 9 162 18 167 20 6 2 26
4 46 4 l36 1 0 -1206z"/>
</g>
</svg>
