<?xml version="1.0" standalone="no"?>
<!DOCTYPE svg PUBLIC "-//W3C//DTD SVG 20010904//EN"
 "http://www.w3.org/TR/2001/REC-SVG-20010904/DTD/svg10.dtd">
<svg version="1.0" xmlns="http://www.w3.org/2000/svg"
 width="2644.000000pt" height="2800.000000pt" viewBox="0 0 2644.000000 2800.000000"
 preserveAspectRatio="xMidYMid meet">

<g transform="translate(0.000000,2800.000000) scale(0.100000,-0.100000)"
fill="#3a4548"  stroke="none">
<path d="M15478 15536 l-78 -159 0 -323 0 -324 -35 0 -35 0 0 -1480 0 -1480
35 0 36 0 -3 -107 -3 -108 -30 -5 -30 -5 0 -1340 0 -1340 35 -3 35 -3 -5 -832
c-3 -458 -6 -833 -8 -834 -1 -2 -21 -12 -44 -24 -56 -28 -55 -27 -30 -45 12
-8 22 -25 22 -38 0 -26 -34 -66 -55 -66 -11 0 -15 -12 -15 -45 0 -55 -2 -55
185 -58 117 -2 148 1 188 17 46 18 47 20 47 60 -1 35 -5 44 -33 61 -40 25 -46
59 -17 90 l22 23 -36 12 c-71 23 -66 -48 -66 889 l0 847 38 10 37 9 0 1340 c0
887 -3 1340 -10 1339 -5 -1 -23 -4 -38 -8 l-28 -7 3 112 3 112 35 12 35 12 3
1441 2 1442 -40 0 -40 0 -2 483 -3 482 -77 -159z m40 -2254 l2 -1322 -26 -10
c-14 -6 -30 -10 -35 -10 -5 0 -9 514 -9 1336 l0 1335 33 -3 32 -3 3 -1323z m2
-3027 l0 -1205 -26 -10 c-14 -6 -30 -10 -35 -10 -5 0 -9 464 -9 1205 l0 1206
23 9 c12 5 28 9 35 9 9 1 12 -246 12 -1204z"/>
</g>
</svg>
