<?xml version="1.0" standalone="no"?>
<!DOCTYPE svg PUBLIC "-//W3C//DTD SVG 20010904//EN"
 "http://www.w3.org/TR/2001/REC-SVG-20010904/DTD/svg10.dtd">
<svg version="1.0" xmlns="http://www.w3.org/2000/svg"
 width="2644.000000pt" height="2800.000000pt" viewBox="0 0 2644.000000 2800.000000"
 preserveAspectRatio="xMidYMid meet">

<g transform="translate(0.000000,2800.000000) scale(0.100000,-0.100000)"
fill="#3a4548"  stroke="none">
<path d="M17008 23844 l-58 -53 0 -569 0 -569 -31 -7 c-17 -3 -55 -6 -84 -6
-29 0 -67 -3 -84 -6 l-31 -6 0 -1445 0 -1445 115 7 115 7 0 -115 0 -114 -31
-7 c-17 -3 -55 -6 -84 -6 -29 0 -67 -3 -84 -6 l-31 -6 0 -1299 0 -1299 115 0
115 0 0 -829 c0 -907 4 -844 -59 -871 -35 -14 -38 -22 -16 -40 29 -24 16 -74
-25 -95 -24 -12 -28 -20 -27 -52 l2 -38 180 0 c231 -1 225 -2 225 45 0 30 -5
40 -20 45 -34 11 -55 51 -42 80 7 14 16 25 22 25 20 0 10 18 -13 24 -13 3 -36
15 -50 27 l-27 20 0 835 0 834 115 0 115 0 1 53 c4 392 -1 2558 -6 2567 -6 10
-35 11 -117 7 l-109 -7 3 113 3 112 112 9 111 9 4 71 c8 163 2 2802 -6 2815
-7 11 -31 13 -118 8 l-109 -7 1 598 c1 328 1 602 1 609 -1 7 -9 17 -18 22 -14
7 -30 -2 -75 -45z m195 -1331 c6 -22 6 -2594 0 -2610 -3 -7 -42 -14 -101 -17
-53 -4 -132 -9 -174 -12 l-78 -5 0 1319 0 1320 128 9 c205 16 220 15 225 -4z
m-1 -3125 c0 -7 2 -540 3 -1184 l1 -1171 -119 -7 c-66 -3 -146 -6 -179 -6
l-58 0 0 1179 0 1179 128 9 c191 15 222 15 224 1z"/>
</g>
</svg>
