<?xml version="1.0" standalone="no"?>
<!DOCTYPE svg PUBLIC "-//W3C//DTD SVG 20010904//EN"
 "http://www.w3.org/TR/2001/REC-SVG-20010904/DTD/svg10.dtd">
<svg version="1.0" xmlns="http://www.w3.org/2000/svg"
 width="2644.000000pt" height="2800.000000pt" viewBox="0 0 2644.000000 2800.000000"
 preserveAspectRatio="xMidYMid meet">

<g transform="translate(0.000000,2800.000000) scale(0.100000,-0.100000)"
fill="#3a4548"  stroke="none">
<path d="M18137 24923 l-57 -57 0 -547 0 -548 -57 -6 c-32 -3 -85 -9 -117 -13
l-60 -7 0 -1453 c0 -1208 2 -1454 13 -1461 7 -5 60 -6 117 -3 l104 5 0 -111 0
-111 -57 -6 c-32 -3 -85 -9 -117 -13 l-59 -7 -1 -1307 c-1 -1239 0 -1307 16
-1312 10 -2 63 -2 118 1 l100 6 -2 -369 -3 -369 -45 -25 c-44 -24 -45 -26 -28
-42 10 -10 18 -29 18 -41 0 -25 -28 -57 -48 -57 -7 0 -12 -6 -12 -12 0 -7 -3
-24 -7 -37 l-6 -24 204 6 c112 4 205 7 207 7 10 0 -1 50 -11 50 -21 0 -57 39
-57 60 0 11 9 29 20 40 20 20 20 20 -23 41 -23 12 -45 27 -49 33 -4 6 -8 176
-8 377 0 287 3 367 13 366 6 0 60 1 120 1 l107 2 0 1325 c0 1255 -1 1325 -17
1326 -26 2 -90 0 -160 -7 l-63 -6 0 110 0 109 46 7 c26 3 71 6 101 6 30 0 63
5 74 10 19 11 19 37 19 1465 0 1426 0 1454 -19 1465 -11 5 -26 8 -33 6 -7 -2
-53 -7 -101 -10 l-88 -6 1 587 c1 564 0 589 -17 600 -17 11 -26 6 -76 -44z
m201 -2605 l-3 -1333 -78 -6 c-43 -4 -124 -8 -179 -10 l-102 -4 0 1322 c0 728
4 1326 7 1330 7 6 228 28 320 32 l37 1 -2 -1332z m2 -3021 l0 -1194 -122 -6
c-200 -11 -235 -10 -240 11 -6 28 0 2343 6 2350 6 5 233 27 319 31 l37 1 0
-1193z"/>
</g>
</svg>
