<?xml version="1.0" standalone="no"?>
<!DOCTYPE svg PUBLIC "-//W3C//DTD SVG 20010904//EN"
 "http://www.w3.org/TR/2001/REC-SVG-20010904/DTD/svg10.dtd">
<svg version="1.0" xmlns="http://www.w3.org/2000/svg"
 width="2550.000000pt" height="2700.000000pt" viewBox="0 0 2550.000000 2700.000000"
 preserveAspectRatio="xMidYMid meet">

<g transform="translate(0.000000,2700.000000) scale(0.100000,-0.100000)"
fill="#3a4548" stroke="none">
<path d="M10310 14115 c-7 -8 -10 -569 -10 -1699 l0 -1687 -21 -28 c-21 -28
-21 -30 -4 -58 16 -28 16 -31 1 -56 -19 -27 -13 -51 18 -77 10 -7 16 -28 16
-52 0 -32 -8 -47 -44 -86 -67 -73 -86 -108 -75 -146 5 -17 14 -41 20 -52 9
-18 6 -28 -19 -62 -16 -23 -35 -55 -42 -72 -12 -28 -10 -34 34 -98 43 -64 46
-72 40 -114 -6 -42 -4 -48 28 -84 65 -72 70 -96 33 -140 -30 -34 -30 -41 -8
-66 17 -19 17 -21 0 -50 -17 -29 -17 -31 3 -63 20 -32 20 -45 20 -2104 0
-2049 0 -2071 -20 -2091 -11 -11 -31 -22 -44 -26 l-25 -6 20 -28 c24 -32 16
-58 -26 -86 -39 -26 -34 -71 14 -118 l38 -37 84 11 c46 6 111 14 144 18 59 7
60 8 63 40 3 26 -4 41 -33 73 -35 39 -36 47 -8 80 12 15 10 19 -19 39 -18 13
-39 30 -45 38 -10 13 -13 444 -13 2085 l0 2069 22 31 c21 29 21 31 5 59 -16
28 -16 32 -1 58 16 26 16 29 -5 58 -25 35 -28 94 -5 112 33 28 66 100 61 133
-4 25 3 44 34 91 53 79 54 110 8 190 -20 36 -25 55 -19 66 5 8 10 34 10 57 0
33 -8 52 -46 102 -25 33 -50 63 -55 66 -18 12 -10 85 13 116 21 28 21 31 6 56
-14 24 -14 30 -1 59 15 30 14 34 -6 62 l-21 30 0 1699 0 1700 -55 0 c-31 0
-59 -5 -65 -12z m70 -3741 c0 -16 -16 -19 -25 -4 -8 13 4 32 16 25 5 -4 9 -13
9 -21z m-61 -71 c11 -24 9 -29 -20 -60 -38 -38 -49 -41 -49 -13 0 25 37 100
49 100 4 0 13 -12 20 -27z m134 -2 c9 -16 17 -37 17 -47 0 -15 -3 -14 -25 6
-14 13 -25 34 -25 47 0 31 12 29 33 -6z m-29 -110 l38 -39 -20 -29 c-11 -15
-28 -36 -39 -45 -18 -17 -21 -16 -63 27 l-44 45 39 40 c21 22 42 40 45 40 3 0
23 -18 44 -39z m-94 -181 c0 -3 -17 -23 -37 -44 l-36 -39 -19 23 c-21 26 -25
119 -6 138 9 9 22 3 55 -30 24 -23 43 -45 43 -48z m178 22 c3 -51 -10 -92 -28
-92 -6 0 -10 5 -10 11 0 6 -9 22 -19 36 l-20 24 27 39 c15 22 32 38 37 36 6
-1 11 -26 13 -54z m-88 -108 l32 -37 -38 -38 -38 -39 -33 32 c-18 18 -33 36
-33 42 0 11 60 76 71 76 4 0 21 -16 39 -36z"/>
</g>
</svg>
