<?xml version="1.0" standalone="no"?>
<!DOCTYPE svg PUBLIC "-//W3C//DTD SVG 20010904//EN"
 "http://www.w3.org/TR/2001/REC-SVG-20010904/DTD/svg10.dtd">
<svg version="1.0" xmlns="http://www.w3.org/2000/svg"
 width="2550.000000pt" height="2700.000000pt" viewBox="0 0 2550.000000 2700.000000"
 preserveAspectRatio="xMidYMid meet">

<g transform="translate(0.000000,2700.000000) scale(0.100000,-0.100000)"
fill="#3a4548" stroke="none">
<path d="M16430 20637 l-45 -42 3 -1364 c4 -1282 3 -1366 -14 -1402 -14 -31
-15 -44 -6 -64 9 -19 9 -31 0 -51 -10 -20 -9 -30 5 -54 26 -43 21 -65 -28
-120 -50 -57 -60 -84 -51 -140 3 -22 2 -41 -4 -45 -18 -11 -50 -83 -50 -113 0
-15 14 -49 30 -75 25 -40 29 -55 24 -86 -7 -45 4 -69 57 -128 43 -47 47 -66
22 -117 -13 -29 -14 -40 -5 -61 8 -18 9 -32 1 -49 -8 -18 -7 -30 5 -54 15 -28
16 -204 16 -1883 l-1 -1852 -34 -31 c-30 -28 -32 -33 -19 -50 19 -26 18 -30
-11 -64 -17 -20 -25 -42 -25 -66 l0 -37 133 3 132 3 3 30 c2 22 -4 37 -23 55
-27 25 -32 58 -12 79 10 10 6 18 -21 39 l-32 27 4 1875 c2 1031 6 1900 8 1930
2 30 7 61 11 68 5 7 0 24 -13 42 -28 39 -19 72 36 132 45 49 54 80 33 119 -9
17 -4 29 25 72 44 64 45 92 5 158 -29 46 -31 54 -21 86 13 42 1 72 -52 131
-45 50 -51 82 -26 125 17 29 19 39 9 61 -10 20 -10 32 0 52 9 22 9 31 -4 50
-13 20 -15 187 -17 1438 l-3 1415 -45 -42z m-40 -3140 c0 -18 -27 -53 -35 -46
-7 8 15 59 27 59 4 0 8 -6 8 -13z m117 -22 c9 -19 13 -38 9 -42 -11 -11 -55
47 -49 64 9 22 23 15 40 -22z m-46 -72 c16 -16 29 -33 29 -39 0 -5 -16 -25
-35 -44 l-35 -34 -37 37 -37 37 34 35 c19 19 38 35 43 35 5 0 22 -12 38 -27z
m-108 -124 l27 -40 -27 -34 c-16 -19 -31 -35 -34 -35 -16 0 -26 101 -13 134 9
23 16 20 47 -25z m206 10 c6 -18 11 -40 11 -50 0 -24 -21 -69 -32 -69 -11 0
-67 62 -68 75 0 10 60 75 71 75 4 0 12 -14 18 -31z m-102 -121 c18 -18 33 -37
33 -43 0 -13 -52 -65 -65 -65 -5 0 -24 14 -42 32 l-32 31 30 39 c17 21 33 38
37 38 3 0 21 -14 39 -32z m63 -124 c0 -3 -10 -19 -21 -36 -14 -19 -25 -26 -31
-20 -7 7 -4 19 8 36 17 23 44 35 44 20z m-133 -34 c8 -11 9 -21 3 -25 -8 -5
-30 24 -30 39 0 13 16 5 27 -14z"/>
</g>
</svg>
