<?xml version="1.0" standalone="no"?>
<!DOCTYPE svg PUBLIC "-//W3C//DTD SVG 20010904//EN"
 "http://www.w3.org/TR/2001/REC-SVG-20010904/DTD/svg10.dtd">
<svg version="1.0" xmlns="http://www.w3.org/2000/svg"
 width="2550.000000pt" height="2700.000000pt" viewBox="0 0 2550.000000 2700.000000"
 preserveAspectRatio="xMidYMid meet">

<g transform="translate(0.000000,2700.000000) scale(0.100000,-0.100000)"
fill="#3a4548" stroke="none">
<path d="M17277 21470 l-48 -45 1 -1372 c1 -1281 0 -1374 -16 -1399 -15 -22
-16 -31 -6 -56 8 -21 8 -37 1 -49 -10 -20 -2 -69 12 -69 5 0 9 -17 9 -38 0
-29 -7 -45 -26 -63 -39 -36 -57 -77 -51 -115 4 -23 0 -40 -12 -56 -30 -38 -51
-85 -51 -114 0 -15 13 -51 29 -79 20 -35 26 -56 20 -66 -25 -40 5 -118 67
-176 29 -27 33 -87 7 -115 -14 -16 -15 -24 -6 -49 8 -21 8 -37 0 -58 -9 -23
-7 -34 6 -55 16 -23 17 -133 17 -1455 0 -1548 3 -1449 -51 -1466 -14 -5 -18
-12 -13 -23 19 -44 16 -69 -10 -89 -19 -16 -26 -30 -26 -57 l0 -36 129 0 c72
0 132 4 136 10 3 5 12 7 20 3 11 -4 15 3 15 29 0 28 -5 35 -30 45 -27 10 -30
15 -25 44 3 18 8 35 10 39 2 4 -9 20 -25 35 l-30 29 0 1433 c0 1272 2 1436 15
1457 13 19 13 28 4 50 -10 20 -10 32 0 52 10 22 8 32 -9 61 -31 52 -26 76 29
137 59 65 67 85 51 141 -11 41 -10 45 19 85 40 55 39 83 -4 147 -31 46 -34 56
-29 100 6 46 4 50 -40 101 -25 30 -46 60 -46 68 0 8 10 28 22 44 19 26 20 32
8 55 -11 20 -11 29 -1 49 11 19 11 28 0 47 -12 20 -15 278 -19 1454 l-5 1430
-48 -45z m61 -3141 c7 -12 11 -23 8 -26 -8 -9 -36 17 -36 33 0 20 13 17 28 -7z
m-25 -84 l28 -34 -37 -37 -37 -38 -34 38 -35 38 33 34 c18 19 38 34 43 33 6 0
24 -16 39 -34z m-110 -116 l21 -36 -28 -36 c-16 -20 -32 -34 -37 -31 -10 6
-12 104 -3 129 9 23 23 15 47 -26z m198 25 c16 -20 18 -109 1 -126 -10 -10
-20 -4 -54 30 l-42 42 34 35 c39 40 43 41 61 19z m-53 -174 c1 -3 -15 -23 -37
-44 l-39 -38 -42 38 -41 39 36 43 37 43 42 -38 c22 -20 42 -39 44 -43z m32
-76 c0 -22 -30 -84 -41 -84 -4 0 -13 8 -18 18 -7 14 -4 26 15 50 28 35 44 41
44 16z m-140 -67 c0 -10 -5 -17 -12 -15 -15 5 -47 60 -41 71 8 13 53 -34 53
-56z m50 -62 c0 -8 -4 -15 -10 -15 -5 0 -10 7 -10 15 0 8 5 15 10 15 6 0 10
-7 10 -15z"/>
</g>
</svg>
