<?xml version="1.0" standalone="no"?>
<!DOCTYPE svg PUBLIC "-//W3C//DTD SVG 20010904//EN"
 "http://www.w3.org/TR/2001/REC-SVG-20010904/DTD/svg10.dtd">
<svg version="1.0" xmlns="http://www.w3.org/2000/svg"
 width="2550.000000pt" height="2700.000000pt" viewBox="0 0 2550.000000 2700.000000"
 preserveAspectRatio="xMidYMid meet">

<g transform="translate(0.000000,2700.000000) scale(0.100000,-0.100000)"
fill="#3a4548" stroke="none">
<path d="M19031 23246 l-43 -44 1 -1385 c2 -1366 2 -1385 -18 -1418 -18 -29
-18 -35 -6 -59 12 -23 12 -30 -2 -49 -14 -21 -14 -25 6 -52 25 -33 28 -91 5
-110 -24 -19 -44 -65 -44 -97 0 -18 -15 -52 -35 -82 -46 -68 -49 -107 -13
-172 18 -32 19 -42 10 -79 -13 -53 6 -104 62 -166 43 -48 48 -97 15 -142 -18
-25 -19 -31 -8 -49 11 -17 11 -28 2 -51 -9 -24 -7 -35 8 -60 18 -30 19 -79 19
-1476 l0 -1445 -32 -20 c-18 -11 -37 -22 -43 -23 -5 -2 -2 -13 8 -24 25 -28
21 -49 -13 -75 -21 -15 -30 -30 -30 -51 l0 -29 108 5 c59 4 135 7 170 7 55 0
62 2 62 20 0 11 -11 27 -25 36 -33 22 -42 59 -20 84 16 18 15 19 -24 30 l-41
11 0 1463 c0 1292 2 1465 15 1476 18 15 20 51 3 68 -10 10 -10 17 0 32 17 27
15 43 -6 71 -11 14 -17 37 -16 54 1 17 3 37 3 46 1 9 24 42 51 73 54 62 60 84
35 142 -14 33 -13 37 15 81 17 26 30 57 30 68 0 12 -18 49 -39 83 -34 51 -39
67 -34 97 5 31 1 41 -28 71 -38 39 -46 98 -16 115 20 12 22 50 5 67 -10 10
-10 17 0 32 16 27 15 55 -3 70 -13 11 -15 184 -15 1450 0 1302 -1 1438 -16
1444 -9 3 -17 6 -18 6 -1 0 -21 -20 -45 -44z m62 -3270 c-15 -28 -48 -56 -65
-56 -11 0 -25 14 -35 35 -17 35 -17 35 12 65 l29 30 33 -32 c18 -17 29 -36 26
-42z m-133 -58 c0 -6 7 -19 16 -29 15 -16 14 -20 -11 -53 -15 -20 -31 -36 -35
-36 -22 0 -21 78 2 123 9 18 28 15 28 -5z m199 8 c32 -38 30 -136 -2 -136 -13
0 -77 60 -77 73 0 11 52 75 61 76 4 1 12 -5 18 -13z m-86 -141 c20 -20 37 -37
37 -40 0 -3 -17 -22 -38 -44 l-37 -39 -38 33 c-20 18 -37 38 -37 46 0 13 58
79 69 79 4 0 23 -16 44 -35z m87 -116 c0 -23 -27 -86 -41 -94 -4 -3 -15 6 -24
19 -16 24 -15 27 12 61 32 39 53 45 53 14z m-181 -33 c22 -24 26 -56 6 -58 -9
-1 -43 57 -45 75 0 14 17 7 39 -17z m79 -89 c13 -15 -1 -42 -17 -33 -13 8 -15
46 -2 46 5 0 13 -6 19 -13z"/>
</g>
</svg>
