<?xml version="1.0" standalone="no"?>
<!DOCTYPE svg PUBLIC "-//W3C//DTD SVG 20010904//EN"
 "http://www.w3.org/TR/2001/REC-SVG-20010904/DTD/svg10.dtd">
<svg version="1.0" xmlns="http://www.w3.org/2000/svg"
 width="2550.000000pt" height="2700.000000pt" viewBox="0 0 2550.000000 2700.000000"
 preserveAspectRatio="xMidYMid meet">

<g transform="translate(0.000000,2700.000000) scale(0.100000,-0.100000)"
fill="#3a4548" stroke="none">
<path d="M21580 26214 l-45 -55 4 -1432 3 -1432 -23 -29 c-20 -26 -21 -31 -10
-63 10 -25 10 -38 2 -46 -17 -17 -13 -52 9 -72 26 -23 26 -69 0 -104 -10 -16
-24 -47 -29 -70 -5 -24 -18 -53 -29 -64 -52 -57 -68 -153 -35 -203 14 -21 14
-33 5 -74 -16 -70 1 -120 65 -191 46 -51 56 -115 24 -150 -24 -26 -26 -41 -9
-69 10 -16 10 -24 0 -40 -17 -27 -15 -43 8 -73 20 -25 20 -37 18 -1176 l-3
-1151 36 0 c20 0 51 3 68 6 l31 7 0 1144 0 1144 22 29 c19 26 20 33 8 54 -10
20 -10 31 -1 54 10 24 10 34 -1 51 -7 12 -16 21 -20 21 -11 0 -10 66 1 113 5
21 26 57 50 82 53 58 59 85 32 144 l-23 47 32 52 c39 61 36 76 -20 150 -34 45
-40 58 -35 86 5 26 1 39 -19 63 -33 39 -34 88 -5 119 19 21 20 26 9 54 -10 24
-10 36 0 59 10 26 9 33 -10 58 l-21 29 3 1477 c3 1400 2 1478 -14 1483 -10 3
-18 10 -18 15 0 19 -16 6 -60 -47z m39 -3325 l24 -30 -34 -35 -34 -35 -17 22
c-24 29 -23 58 4 86 12 13 24 23 27 22 3 0 17 -14 30 -30z m-100 -117 c11 -25
9 -34 -11 -65 -13 -20 -26 -36 -30 -37 -12 0 -9 86 3 114 14 30 22 27 38 -12z
m200 12 c24 -30 27 -80 7 -106 -7 -10 -16 -18 -19 -18 -3 0 -25 18 -49 40
l-43 39 35 36 c18 19 37 35 41 35 4 0 17 -12 28 -26z m-97 -132 l37 -37 -40
-42 c-22 -24 -43 -43 -46 -43 -14 0 -73 64 -73 79 0 18 59 81 74 81 6 -1 28
-18 48 -38z m98 -132 c0 -27 -8 -48 -24 -66 l-23 -28 -26 29 -26 30 41 42 c23
23 45 40 50 37 4 -3 8 -23 8 -44z m-180 -66 c0 -40 -27 -28 -43 20 -8 25 -12
47 -9 51 11 11 52 -45 52 -71z m74 -57 c8 -12 7 -21 -6 -33 -15 -15 -17 -15
-28 6 -22 42 9 67 34 27z"/>
<path d="M21531 18728 c1 -288 0 -540 0 -561 -1 -31 -7 -41 -33 -57 -18 -11
-37 -21 -42 -23 -5 -2 -1 -15 9 -30 16 -26 16 -28 0 -53 -9 -15 -26 -29 -36
-31 -12 -4 -19 -14 -19 -31 l0 -25 78 6 c42 4 128 10 190 13 108 7 144 17 105
31 -49 17 -70 67 -38 93 22 18 19 25 -20 39 -19 7 -39 20 -44 29 -4 9 -8 261
-7 560 1 299 -1 545 -4 547 -3 1 -35 6 -72 10 l-67 6 0 -523z"/>
</g>
</svg>
