<?xml version="1.0" standalone="no"?>
<!DOCTYPE svg PUBLIC "-//W3C//DTD SVG 20010904//EN"
 "http://www.w3.org/TR/2001/REC-SVG-20010904/DTD/svg10.dtd">
<svg version="1.0" xmlns="http://www.w3.org/2000/svg"
 width="2550.000000pt" height="2700.000000pt" viewBox="0 0 2550.000000 2700.000000"
 preserveAspectRatio="xMidYMid meet">

<g transform="translate(0.000000,2700.000000) scale(0.100000,-0.100000)"
fill="#3a4548" stroke="none">
<path d="M9110 12442 c0 -1676 0 -1689 -20 -1707 -22 -20 -26 -55 -8 -73 9 -9
9 -18 0 -37 -17 -37 -15 -52 9 -76 19 -19 21 -30 16 -80 -5 -52 -10 -64 -56
-117 -62 -71 -70 -103 -41 -164 l21 -45 -32 -48 c-44 -65 -41 -94 16 -167 38
-49 45 -65 40 -88 -7 -30 12 -77 39 -99 18 -15 22 -91 6 -91 -21 0 -34 -47
-21 -79 11 -24 10 -33 -3 -54 -15 -22 -15 -26 9 -61 l25 -37 0 -2045 c0 -1303
-4 -2052 -10 -2063 -5 -10 -29 -26 -52 -36 -37 -14 -40 -18 -27 -28 28 -21 31
-52 8 -80 -11 -15 -27 -27 -35 -27 -18 0 -20 -90 -1 -90 6 0 37 -11 68 -23
l55 -23 130 21 129 22 3 40 c3 35 0 42 -18 48 -11 4 -28 18 -37 31 -15 24 -15
27 6 54 l21 29 -32 17 c-18 9 -41 23 -50 32 -17 14 -18 125 -18 2069 0 2040 0
2055 20 2080 23 29 25 54 8 71 -9 9 -9 20 1 48 11 30 11 41 0 60 -7 13 -16 24
-21 24 -19 0 -7 72 18 110 15 22 27 55 28 73 1 18 13 47 27 67 65 86 74 138
35 205 -24 41 -24 42 -8 88 21 59 8 99 -59 180 -43 51 -49 65 -49 104 0 30 7
53 20 70 23 30 25 46 8 73 -10 16 -10 24 0 40 17 29 15 54 -8 75 -20 18 -20
31 -20 1695 l0 1676 -33 12 c-18 7 -50 12 -70 12 l-37 0 0 -1688z m100 -2066
c0 -6 -5 -18 -10 -26 -8 -13 -13 -12 -32 7 -21 22 -21 23 -3 43 18 20 20 20
32 4 7 -10 13 -23 13 -28z m-80 -79 c14 -25 13 -28 -25 -67 -49 -50 -65 -41
-47 27 21 78 43 91 72 40z m162 -20 c21 -56 11 -66 -27 -27 -21 22 -26 34 -21
55 9 37 28 26 48 -28z m-12 -131 c0 -7 -18 -29 -40 -51 l-39 -38 -46 37 c-25
21 -45 40 -45 44 0 3 19 25 42 49 l41 42 44 -36 c23 -19 43 -41 43 -47z m-178
-93 c21 -20 38 -42 38 -48 0 -5 -15 -25 -32 -44 l-31 -34 -18 24 c-23 31 -34
92 -19 118 14 28 18 27 62 -16z m218 -17 c0 -48 -14 -96 -28 -96 -5 0 -17 15
-27 34 -18 33 -18 33 10 70 15 20 31 36 36 36 5 0 9 -20 9 -44z m-91 -115 c27
-38 27 -42 -9 -76 l-30 -29 -30 29 c-16 16 -30 32 -30 36 0 14 52 69 65 69 8
0 23 -13 34 -29z"/>
</g>
</svg>
