<?xml version="1.0" standalone="no"?>
<!DOCTYPE svg PUBLIC "-//W3C//DTD SVG 20010904//EN"
 "http://www.w3.org/TR/2001/REC-SVG-20010904/DTD/svg10.dtd">
<svg version="1.0" xmlns="http://www.w3.org/2000/svg"
 width="2550.000000pt" height="2700.000000pt" viewBox="0 0 2550.000000 2700.000000"
 preserveAspectRatio="xMidYMid meet">

<g transform="translate(0.000000,2700.000000) scale(0.100000,-0.100000)"
fill="#3a4548" stroke="none">
<path d="M24727 26994 c-3 -4 0 -19 8 -35 11 -21 12 -35 5 -54 -25 -67 -1
-149 64 -218 21 -22 42 -58 48 -83 11 -41 11 -45 -15 -72 -30 -31 -33 -52 -15
-82 10 -16 10 -24 0 -40 -17 -29 -15 -54 8 -75 20 -18 20 -31 20 -2094 0
-1142 -3 -2086 -6 -2098 -4 -14 -19 -26 -43 -34 -52 -17 -52 -18 -31 -39 11
-11 20 -26 20 -33 0 -21 -31 -58 -58 -68 -16 -6 -22 -13 -16 -19 6 -6 70 -2
174 11 203 26 194 23 179 50 -9 18 -7 26 9 49 l21 28 -42 16 c-24 9 -50 16
-60 16 -9 0 -17 4 -17 10 0 5 6 7 13 5 9 -4 11 122 9 617 -1 388 -6 626 -12
632 -14 14 -13 483 0 491 7 4 10 423 10 1224 0 1205 0 1218 20 1236 21 19 28
65 10 65 -5 0 -10 11 -10 24 0 14 5 28 10 31 16 10 12 34 -11 66 -18 26 -20
38 -14 98 6 63 11 73 61 136 30 37 54 73 54 79 0 7 -12 37 -26 66 -20 41 -24
58 -16 71 16 25 6 29 -75 29 -56 0 -73 -3 -73 -14 0 -8 7 -16 15 -20 24 -9 17
-28 -26 -76 l-41 -45 -39 43 c-39 41 -39 42 -24 71 8 17 15 32 15 36 0 7 -95
6 -103 -1z m315 -111 c27 -24 22 -59 -15 -99 l-33 -37 -27 25 c-15 14 -27 29
-27 33 0 10 69 95 77 95 4 0 15 -7 25 -17z m-210 -70 c20 -17 24 -58 8 -68 -6
-4 -17 9 -25 29 -24 57 -18 71 17 39z m105 -109 c3 -8 -1 -21 -8 -30 -12 -14
-14 -14 -26 2 -7 10 -13 28 -13 41 0 21 3 22 21 13 11 -6 23 -18 26 -26z"/>
</g>
</svg>
