<?xml version="1.0" standalone="no"?>
<!DOCTYPE svg PUBLIC "-//W3C//DTD SVG 20010904//EN"
 "http://www.w3.org/TR/2001/REC-SVG-20010904/DTD/svg10.dtd">
<svg version="1.0" xmlns="http://www.w3.org/2000/svg"
 width="2550.000000pt" height="2700.000000pt" viewBox="0 0 2550.000000 2700.000000"
 preserveAspectRatio="xMidYMid meet">

<g transform="translate(0.000000,2700.000000) scale(0.100000,-0.100000)"
fill="#3a4548" stroke="none">
<path d="M11978 16323 l-58 -64 0 -1331 0 -1332 -21 -22 c-20 -21 -20 -26 -9
-54 10 -24 10 -37 1 -57 -10 -23 -9 -31 8 -54 13 -18 21 -43 21 -69 0 -36 -7
-50 -50 -97 -58 -66 -69 -101 -45 -153 l17 -37 -36 -56 c-20 -31 -36 -59 -36
-63 0 -3 21 -37 46 -75 25 -38 44 -77 44 -86 -5 -42 2 -62 30 -98 29 -37 43
-105 20 -105 -20 0 -33 -41 -20 -66 10 -18 10 -29 0 -53 -11 -26 -9 -34 9 -60
l21 -29 0 -1454 c0 -1297 -2 -1456 -16 -1476 -8 -12 -21 -22 -27 -22 -29 -1
-37 -15 -25 -47 14 -39 -4 -83 -34 -83 -16 0 -19 -6 -16 -37 3 -36 6 -39 53
-54 28 -9 59 -15 70 -13 11 1 68 6 128 9 l107 7 0 32 c0 24 -7 38 -30 54 -21
16 -30 31 -30 52 0 16 5 32 10 35 17 11 11 22 -20 35 -17 7 -35 21 -40 31 -6
11 -10 561 -10 1474 l0 1456 22 29 c19 26 20 33 8 54 -10 20 -10 31 -1 54 10
24 10 34 -1 51 -7 12 -16 21 -20 21 -5 0 -8 16 -8 36 0 24 9 47 31 74 23 29
30 46 28 72 -2 26 5 45 29 78 17 24 36 58 43 77 9 29 7 39 -20 88 -28 54 -29
57 -15 92 21 49 11 83 -47 155 -56 71 -65 118 -28 167 17 24 18 31 8 54 -10
21 -10 33 0 53 10 22 9 31 -6 53 -17 25 -18 103 -23 1422 l-5 1396 -57 -64z
m17 -3063 c0 -27 -22 -39 -31 -16 -8 22 3 49 19 43 6 -2 12 -14 12 -27z m-63
-65 c9 -21 7 -29 -18 -59 -16 -19 -32 -35 -36 -35 -13 -1 -9 47 6 84 18 41 32
44 48 10z m142 -15 c29 -74 18 -90 -25 -37 -20 25 -25 37 -18 55 12 32 25 27
43 -18z m-47 -92 c18 -18 33 -36 33 -42 0 -13 -61 -76 -74 -76 -6 0 -27 17
-48 37 l-38 37 37 38 c20 21 42 38 47 38 6 0 25 -14 43 -32z m-123 -127 l39
-40 -28 -33 c-15 -18 -33 -33 -39 -33 -18 0 -39 71 -32 110 4 19 10 35 14 35
5 0 25 -18 46 -39z m206 -25 c0 -45 -21 -102 -32 -86 -2 3 -13 20 -26 38 l-23
32 32 40 c18 22 36 37 40 34 5 -3 9 -29 9 -58z m-91 -92 c27 -34 26 -42 -6
-76 l-27 -28 -32 31 -33 32 26 33 c31 41 45 42 72 8z"/>
</g>
</svg>
