<?xml version="1.0" standalone="no"?>
<!DOCTYPE svg PUBLIC "-//W3C//DTD SVG 20010904//EN"
 "http://www.w3.org/TR/2001/REC-SVG-20010904/DTD/svg10.dtd">
<svg version="1.0" xmlns="http://www.w3.org/2000/svg"
 width="2550.000000pt" height="2700.000000pt" viewBox="0 0 2550.000000 2700.000000"
 preserveAspectRatio="xMidYMid meet">

<g transform="translate(0.000000,2700.000000) scale(0.100000,-0.100000)"
fill="#3a4548" stroke="none">
<path d="M13706 18071 l-50 -50 3 -1351 3 -1350 -21 -36 c-19 -32 -19 -37 -6
-58 12 -18 13 -28 3 -53 -10 -26 -9 -35 5 -57 29 -43 22 -73 -33 -133 -57 -63
-67 -90 -51 -143 10 -35 9 -42 -23 -95 -39 -64 -38 -74 15 -152 24 -36 28 -51
23 -78 -7 -38 5 -64 52 -118 38 -42 42 -69 16 -112 -15 -24 -16 -35 -8 -58 8
-20 7 -33 -2 -48 -11 -17 -10 -25 7 -53 20 -32 20 -43 15 -1467 -5 -1077 -9
-1440 -18 -1459 -8 -17 -19 -24 -33 -23 -21 2 -21 1 -7 -25 14 -24 14 -31 0
-64 -11 -26 -21 -36 -31 -32 -12 5 -15 -2 -15 -27 0 -52 31 -61 182 -55 l123
4 3 32 c3 23 -3 37 -22 55 -29 27 -33 51 -11 82 14 19 13 22 -16 33 -16 7 -34
21 -39 31 -6 11 -10 553 -10 1453 0 1337 1 1436 17 1464 15 27 16 33 3 56 -10
20 -11 29 -2 38 17 17 15 53 -3 68 -27 22 -18 74 20 120 41 50 51 80 35 110
-10 18 -8 26 8 43 32 35 62 90 62 114 0 12 -14 46 -31 74 -26 44 -29 56 -20
76 21 46 13 76 -39 140 -56 69 -64 108 -33 161 15 27 16 33 3 56 -10 20 -11
29 -2 38 17 17 15 53 -3 68 -13 11 -15 185 -17 1422 l-3 1409 -49 -50z m9
-3081 c-5 -8 -11 -8 -17 -2 -6 6 -7 16 -3 22 5 8 11 8 17 2 6 -6 7 -16 3 -22z
m-45 -70 c0 -3 -13 -19 -30 -35 -29 -28 -30 -28 -30 -6 0 12 7 36 16 53 16 30
17 31 30 13 8 -10 14 -22 14 -25z m114 8 c9 -12 16 -34 16 -48 l0 -25 -30 31
c-21 20 -29 36 -24 47 8 23 20 21 38 -5z m-40 -93 c38 -34 38 -35 22 -60 -9
-13 -28 -32 -42 -41 -24 -17 -26 -16 -59 16 -19 19 -35 39 -35 44 0 11 60 75
70 75 3 0 22 -15 44 -34z m-115 -123 l30 -39 -26 -36 c-14 -20 -29 -37 -33
-37 -22 0 -39 96 -24 134 9 24 19 20 53 -22z m207 1 c7 -39 -5 -105 -21 -109
-5 -1 -23 13 -38 32 l-29 34 32 40 c17 22 36 40 40 40 5 0 12 -16 16 -37z
m-66 -152 c0 -4 -14 -21 -30 -39 l-30 -33 -35 28 c-19 15 -35 32 -35 38 0 5
14 24 32 42 l32 33 33 -32 c18 -18 33 -34 33 -37z"/>
</g>
</svg>
