<?xml version="1.0" standalone="no"?>
<!DOCTYPE svg PUBLIC "-//W3C//DTD SVG 20010904//EN"
 "http://www.w3.org/TR/2001/REC-SVG-20010904/DTD/svg10.dtd">
<svg version="1.0" xmlns="http://www.w3.org/2000/svg"
 width="2550.000000pt" height="2700.000000pt" viewBox="0 0 2550.000000 2700.000000"
 preserveAspectRatio="xMidYMid meet">

<g transform="translate(0.000000,2700.000000) scale(0.100000,-0.100000)"
fill="#65340A" stroke="none">
<path d="M9277 16263 c-4 -3 -7 -385 -7 -849 l0 -842 -30 -7 c-34 -7 -37 -16
-14 -35 34 -29 0 -83 -68 -106 -31 -11 -20 -31 32 -63 53 -33 66 -66 35 -91
-22 -19 -18 -28 15 -35 l30 -7 -2 -931 -3 -932 -27 -3 c-31 -4 -35 -14 -13
-32 19 -16 19 -54 0 -70 -8 -7 -30 -20 -48 -30 -38 -21 -46 -46 -18 -55 12 -3
21 -11 21 -16 0 -5 8 -9 18 -9 41 0 56 -48 25 -82 -15 -17 -15 -20 -3 -28 8
-6 23 -10 33 -10 16 0 17 -53 17 -970 l0 -969 -32 -17 c-43 -22 -43 -21 -29
-38 18 -22 9 -60 -16 -71 -17 -7 -23 -18 -23 -42 l0 -33 123 1 c67 0 140 3
162 7 34 6 40 11 43 35 3 21 -1 30 -16 34 -29 7 -47 46 -33 71 6 11 11 23 11
26 0 10 -71 27 -90 21 -11 -4 -20 -2 -20 4 0 6 9 11 20 11 20 0 20 7 20 961
l0 960 35 15 35 14 -22 30 -22 30 24 25 c13 14 29 25 37 25 7 0 13 5 13 10 0
6 6 10 14 10 28 0 28 23 0 46 -16 13 -35 23 -41 24 -7 0 -20 11 -29 26 -16 24
-16 26 4 53 l21 28 -32 10 -32 9 -3 927 c-1 574 1 927 7 927 5 0 21 4 36 10
l26 10 -22 30 -23 30 24 25 c13 14 29 25 37 25 7 0 13 5 13 10 0 6 6 10 14 10
28 0 28 23 0 46 -16 13 -35 23 -41 24 -7 0 -20 11 -28 24 -13 19 -14 29 -5 45
6 12 15 21 20 21 23 0 7 18 -22 26 l-33 10 -3 847 -2 847 -53 0 c-30 0 -57 -3
-60 -7z"/>
</g>
</svg>
