<?xml version="1.0" standalone="no"?>
<!DOCTYPE svg PUBLIC "-//W3C//DTD SVG 20010904//EN"
 "http://www.w3.org/TR/2001/REC-SVG-20010904/DTD/svg10.dtd">
<svg version="1.0" xmlns="http://www.w3.org/2000/svg"
 width="2550.000000pt" height="2700.000000pt" viewBox="0 0 2550.000000 2700.000000"
 preserveAspectRatio="xMidYMid meet">

<g transform="translate(0.000000,2700.000000) scale(0.100000,-0.100000)"
fill="#65340A" stroke="none">
<path d="M9789 16228 c0 -2 -2 -372 -3 -823 -2 -451 -4 -826 -5 -832 -1 -7
-12 -13 -25 -13 -31 0 -40 -14 -21 -30 30 -25 5 -90 -33 -90 -7 0 -12 -4 -12
-9 0 -5 -9 -11 -20 -14 -32 -8 -24 -23 30 -56 53 -33 66 -66 35 -91 -22 -18
-18 -28 14 -35 26 -5 29 -11 33 -50 1 -24 2 -434 2 -911 l-2 -868 -28 -10
c-39 -12 -40 -13 -20 -35 22 -24 17 -62 -9 -76 -39 -20 -75 -47 -75 -57 0 -5
9 -12 20 -15 11 -3 20 -9 20 -14 0 -5 6 -9 13 -9 19 0 47 -33 47 -55 0 -10 -7
-27 -17 -37 -15 -17 -14 -18 15 -24 20 -4 32 -13 32 -23 0 -9 3 -435 6 -948
l6 -932 -33 -20 c-19 -12 -38 -22 -44 -24 -5 -2 -2 -11 8 -21 9 -10 17 -21 17
-24 0 -16 -32 -52 -46 -52 -9 0 -14 -10 -14 -29 0 -29 0 -29 76 -36 75 -7 196
-1 228 11 25 9 19 53 -9 76 -25 20 -33 52 -15 63 6 3 10 10 10 15 0 13 -67 32
-90 25 -11 -4 -20 -2 -20 4 0 6 9 11 20 11 20 0 20 7 20 950 0 898 1 950 18
950 37 0 44 15 25 48 -17 29 -17 31 1 51 11 12 24 21 30 21 18 1 58 39 54 51
-2 6 -21 21 -43 33 -56 32 -64 49 -38 84 l22 29 -32 10 -32 9 -3 912 c-1 564
1 912 7 912 5 0 21 4 36 10 l25 10 -20 20 c-11 11 -20 26 -20 33 0 15 31 47
46 47 13 1 54 36 54 47 0 12 -34 40 -60 48 -11 4 -26 18 -32 31 -10 20 -8 28
12 49 l22 24 -33 9 -34 8 -3 832 -2 832 -55 0 c-30 0 -55 -1 -56 -2z"/>
</g>
</svg>
