<?xml version="1.0" standalone="no"?>
<!DOCTYPE svg PUBLIC "-//W3C//DTD SVG 20010904//EN"
 "http://www.w3.org/TR/2001/REC-SVG-20010904/DTD/svg10.dtd">
<svg version="1.0" xmlns="http://www.w3.org/2000/svg"
 width="2550.000000pt" height="2700.000000pt" viewBox="0 0 2550.000000 2700.000000"
 preserveAspectRatio="xMidYMid meet">

<g transform="translate(0.000000,2700.000000) scale(0.100000,-0.100000)"
fill="#65340A" stroke="none">
<path d="M2680 12455 c0 -995 -2 -1145 -15 -1145 -8 0 -25 -5 -39 -11 l-25
-12 19 -25 c11 -13 20 -35 20 -48 0 -23 -42 -64 -66 -64 -8 0 -14 -4 -14 -9 0
-5 -11 -12 -25 -15 -49 -12 -31 -36 62 -80 44 -20 53 -58 24 -97 -23 -31 -23
-31 32 -43 l27 -6 -2 -1127 -3 -1127 -35 -9 c-19 -5 -37 -10 -38 -12 -2 -2 6
-17 18 -33 30 -40 23 -73 -19 -94 -19 -9 -37 -21 -40 -25 -3 -4 -15 -13 -25
-19 -34 -18 -29 -31 21 -55 88 -42 104 -73 62 -118 -24 -26 -22 -31 23 -40
l33 -7 3 -1324 c1 -729 0 -1334 -3 -1346 -2 -12 -21 -28 -44 -38 -38 -18 -38
-19 -25 -45 20 -38 18 -47 -21 -78 -24 -20 -35 -36 -35 -55 0 -33 7 -35 135
-43 85 -5 113 -2 190 18 86 22 90 24 93 53 2 24 -3 31 -30 44 -36 16 -48 53
-29 89 10 17 7 21 -24 31 -19 6 -40 20 -45 31 -15 27 -11 2656 4 2668 6 5 23
12 39 16 28 7 35 19 16 30 -5 4 -15 18 -20 32 -12 31 9 68 43 79 30 9 78 45
78 58 0 12 -55 46 -74 46 -17 0 -56 43 -56 62 0 8 9 27 20 41 11 14 20 28 20
31 0 3 -18 9 -40 12 l-39 6 -1 1117 c0 614 4 1121 8 1127 4 6 22 15 40 19 17
3 32 9 32 11 0 3 -10 18 -22 34 -18 25 -20 33 -10 55 7 14 24 31 40 38 42 19
82 48 82 61 0 6 -17 20 -37 30 -21 10 -45 22 -53 26 -8 4 -22 19 -30 33 -13
24 -13 28 9 57 12 17 21 33 19 35 -1 2 -19 7 -38 12 l-35 9 -3 1142 -2 1142
-75 0 -75 0 0 -1145z"/>
</g>
</svg>
