<?xml version="1.0" standalone="no"?>
<!DOCTYPE svg PUBLIC "-//W3C//DTD SVG 20010904//EN"
 "http://www.w3.org/TR/2001/REC-SVG-20010904/DTD/svg10.dtd">
<svg version="1.0" xmlns="http://www.w3.org/2000/svg"
 width="2550.000000pt" height="2700.000000pt" viewBox="0 0 2550.000000 2700.000000"
 preserveAspectRatio="xMidYMid meet">

<g transform="translate(0.000000,2700.000000) scale(0.100000,-0.100000)"
fill="#65340A" stroke="none">
<path d="M4898 14961 l-68 -85 0 -697 0 -697 -41 -7 -41 -7 20 -22 c10 -11 22
-29 25 -38 8 -22 -29 -68 -54 -68 -10 0 -19 -5 -19 -10 0 -6 -11 -15 -25 -20
-14 -5 -25 -14 -25 -19 0 -12 48 -46 78 -55 12 -4 29 -18 38 -31 17 -26 10
-49 -22 -76 -15 -13 -13 -15 22 -25 l39 -11 3 -1066 2 -1066 -40 -12 -39 -12
24 -29 c14 -16 25 -33 25 -37 0 -16 -42 -61 -56 -61 -8 0 -20 -5 -27 -10 -7
-6 -21 -17 -32 -25 l-20 -15 20 -15 c11 -8 25 -18 31 -23 6 -5 20 -13 33 -17
12 -3 29 -18 38 -31 15 -24 15 -27 -6 -54 -11 -16 -21 -31 -21 -34 0 -3 16 -8
35 -12 l35 -6 0 -1412 c0 -776 -4 -1416 -8 -1422 -4 -6 -24 -20 -45 -31 -34
-17 -37 -21 -23 -32 26 -22 19 -58 -17 -85 -24 -18 -33 -33 -32 -53 l0 -28
112 -7 c90 -6 129 -5 195 10 81 16 83 18 85 47 2 24 -3 34 -29 50 -39 24 -46
49 -21 77 10 12 14 23 8 24 -5 2 -26 12 -45 22 l-35 17 -3 1408 -2 1407 40 16
c22 9 40 18 40 20 0 2 -9 13 -21 25 -32 32 -20 59 44 102 31 22 57 45 57 52 0
6 -25 24 -55 39 -67 32 -80 64 -45 102 27 27 27 27 -20 40 l-35 10 0 1064 0
1064 38 9 c33 8 53 27 27 27 -16 0 -32 41 -25 67 3 14 19 31 38 40 68 32 77
38 77 54 0 9 -8 19 -17 23 -27 9 -87 47 -95 60 -13 19 -9 42 13 65 25 26 24
26 -21 38 l-35 9 -5 780 -5 780 -67 -85z"/>
</g>
</svg>
