<?xml version="1.0" standalone="no"?>
<!DOCTYPE svg PUBLIC "-//W3C//DTD SVG 20010904//EN"
 "http://www.w3.org/TR/2001/REC-SVG-20010904/DTD/svg10.dtd">
<svg version="1.0" xmlns="http://www.w3.org/2000/svg"
 width="2550.000000pt" height="2700.000000pt" viewBox="0 0 2550.000000 2700.000000"
 preserveAspectRatio="xMidYMid meet">

<g transform="translate(0.000000,2700.000000) scale(0.100000,-0.100000)"
fill="#65340A" stroke="none">
<path d="M6426 15549 c1 -501 0 -919 -3 -929 -3 -11 -18 -21 -39 -25 l-35 -6
21 -26 c11 -14 20 -33 20 -43 0 -21 -31 -50 -53 -50 -9 0 -17 -5 -17 -10 0 -6
-11 -15 -25 -20 -14 -5 -25 -14 -25 -19 0 -11 43 -42 82 -58 38 -17 45 -49 19
-84 -23 -30 -19 -37 23 -43 8 -1 19 -6 23 -10 8 -8 14 -2002 6 -2023 -2 -6
-20 -14 -39 -17 -39 -8 -42 -16 -14 -41 32 -29 21 -56 -42 -98 -32 -20 -58
-41 -58 -46 0 -5 19 -19 43 -31 80 -41 95 -70 57 -105 -28 -25 -25 -33 15 -41
19 -3 36 -13 39 -23 2 -9 3 -482 2 -1053 -2 -801 -5 -1040 -14 -1051 -7 -8
-26 -20 -42 -27 -28 -12 -41 -30 -21 -30 16 0 23 -38 12 -59 -6 -11 -20 -23
-31 -26 -27 -9 -29 -75 -2 -75 9 0 55 -4 102 -9 68 -8 101 -6 165 7 79 17 80
18 83 50 2 22 -1 32 -11 32 -20 0 -47 33 -47 57 0 11 7 26 16 33 13 12 11 15
-18 28 -18 8 -52 14 -76 13 -27 -1 -41 3 -37 9 3 5 17 10 31 10 l24 0 0 1055
0 1054 42 12 c36 9 40 13 27 22 -9 7 -21 22 -27 33 -10 18 -8 27 9 48 11 14
25 26 30 26 15 0 69 43 69 55 0 6 -21 22 -46 35 -26 14 -53 34 -61 46 -12 18
-11 24 7 47 26 33 26 35 -12 45 l-33 8 -3 1016 -2 1016 30 7 c32 7 48 23 33
34 -6 3 -15 16 -21 27 -10 18 -8 27 9 48 11 14 29 26 40 26 10 0 19 4 19 9 0
5 9 13 20 16 11 3 20 12 20 19 0 14 -46 50 -78 60 -12 4 -27 17 -33 28 -9 16
-7 26 10 49 12 15 21 30 21 33 0 3 -15 9 -32 14 l-33 8 -3 927 -2 927 -68 0
-67 0 1 -911z"/>
</g>
</svg>
