<?xml version="1.0" standalone="no"?>
<!DOCTYPE svg PUBLIC "-//W3C//DTD SVG 20010904//EN"
 "http://www.w3.org/TR/2001/REC-SVG-20010904/DTD/svg10.dtd">
<svg version="1.0" xmlns="http://www.w3.org/2000/svg"
 width="2550.000000pt" height="2700.000000pt" viewBox="0 0 2550.000000 2700.000000"
 preserveAspectRatio="xMidYMid meet">

<g transform="translate(0.000000,2700.000000) scale(0.100000,-0.100000)"
fill="#65340A" stroke="none">
<path d="M7040 15510 l0 -909 -41 -11 -41 -11 22 -24 c29 -31 23 -65 -15 -85
-16 -8 -32 -18 -35 -21 -3 -3 -13 -8 -22 -12 -10 -3 -18 -13 -18 -22 0 -9 8
-19 18 -22 9 -4 19 -9 22 -12 3 -3 19 -13 35 -21 38 -20 44 -54 14 -86 l-22
-23 27 -11 c15 -5 34 -10 42 -10 12 0 14 -137 14 -995 0 -788 -3 -997 -12
-1000 -7 -2 -25 -9 -41 -15 l-27 -10 20 -20 c30 -30 23 -70 -15 -90 -16 -8
-32 -18 -35 -21 -3 -3 -13 -8 -22 -12 -10 -3 -18 -13 -18 -22 0 -9 8 -19 18
-22 9 -4 19 -9 22 -12 3 -3 19 -13 35 -21 38 -20 44 -54 15 -85 l-23 -24 29
-6 c16 -4 35 -8 42 -11 10 -3 12 -216 10 -1041 l-3 -1038 -42 -23 c-38 -21
-41 -25 -28 -38 23 -24 18 -51 -15 -76 -21 -15 -30 -30 -30 -49 0 -27 0 -27
95 -34 88 -7 146 -4 233 11 29 6 32 10 32 40 0 23 -5 34 -15 34 -8 0 -22 11
-31 25 -15 23 -15 27 0 50 9 13 16 26 16 28 0 10 -82 27 -105 21 -15 -4 -25
-2 -25 4 0 6 10 12 23 14 l22 3 3 1036 2 1037 35 6 c41 8 42 12 13 43 -18 19
-20 27 -10 48 6 13 22 27 36 31 13 3 27 12 30 20 3 8 12 14 21 14 39 0 -7 69
-47 70 -17 0 -48 36 -48 55 0 6 10 22 21 34 18 19 19 25 8 32 -8 5 -24 9 -37
9 l-22 0 2 1002 c3 961 4 1001 21 1004 46 6 49 12 26 43 -28 38 -21 54 41 92
27 17 50 37 50 44 0 7 -23 27 -50 44 -62 38 -69 54 -41 92 23 30 21 34 -24 41
-20 3 -20 12 -23 916 l-2 912 -65 0 -65 0 0 -910z"/>
</g>
</svg>
