<?xml version="1.0" standalone="no"?>
<!DOCTYPE svg PUBLIC "-//W3C//DTD SVG 20010904//EN"
 "http://www.w3.org/TR/2001/REC-SVG-20010904/DTD/svg10.dtd">
<svg version="1.0" xmlns="http://www.w3.org/2000/svg"
 width="2550.000000pt" height="2700.000000pt" viewBox="0 0 2550.000000 2700.000000"
 preserveAspectRatio="xMidYMid meet">

<g transform="translate(0.000000,2700.000000) scale(0.100000,-0.100000)"
fill="#65340A" stroke="none">
<path d="M21027 24172 l-47 -48 0 -1047 -1 -1048 -39 -15 c-22 -9 -40 -18 -40
-20 0 -3 10 -18 21 -34 30 -39 19 -77 -26 -96 -19 -8 -35 -19 -35 -24 0 -6 -7
-10 -15 -10 -29 0 -28 -30 1 -60 16 -16 34 -30 40 -30 18 0 54 -45 54 -67 0
-11 -9 -28 -20 -38 -28 -25 -25 -32 18 -52 l37 -18 0 -1109 0 -1110 -35 -9
c-19 -5 -37 -10 -39 -12 -2 -2 6 -17 18 -33 12 -17 21 -39 21 -50 0 -22 -43
-62 -66 -62 -8 0 -14 -4 -14 -9 0 -5 -9 -13 -20 -16 -36 -11 -23 -41 35 -80
66 -43 78 -73 46 -115 -26 -36 -26 -37 3 -44 59 -15 55 62 55 -1138 0 -1226 6
-1123 -67 -1153 l-33 -14 21 -21 c11 -11 20 -28 20 -38 0 -20 -39 -62 -58 -62
-7 0 -12 -13 -12 -29 0 -27 3 -29 28 -27 15 2 100 4 189 5 145 1 162 3 165 19
2 10 -8 25 -27 37 -36 25 -43 59 -19 86 16 17 16 22 4 30 -8 5 -23 7 -33 5 -9
-2 -27 5 -40 16 -12 11 -17 17 -12 15 7 -3 10 374 10 1121 l0 1126 38 9 c42
10 45 17 17 42 -43 39 -19 88 63 130 41 22 45 44 9 60 -12 5 -22 15 -22 22 0
7 -7 13 -15 13 -23 0 -55 37 -55 64 0 13 9 35 20 49 l20 26 -35 12 c-21 8 -38
22 -41 34 -2 11 -3 512 -2 1114 l3 1095 35 9 c45 11 45 12 21 36 -26 26 -27
72 -3 93 9 9 36 26 60 38 23 12 42 27 42 32 0 13 -49 58 -86 80 -38 22 -44 68
-14 98 12 12 20 23 18 24 -1 1 -20 13 -40 25 l-38 23 -2 1096 c-3 969 -5 1097
-18 1100 -8 1 -37 -19 -63 -46z"/>
</g>
</svg>
