<?xml version="1.0" standalone="no"?>
<!DOCTYPE svg PUBLIC "-//W3C//DTD SVG 20010904//EN"
 "http://www.w3.org/TR/2001/REC-SVG-20010904/DTD/svg10.dtd">
<svg version="1.0" xmlns="http://www.w3.org/2000/svg"
 width="2550.000000pt" height="2700.000000pt" viewBox="0 0 2550.000000 2700.000000"
 preserveAspectRatio="xMidYMid meet">

<g transform="translate(0.000000,2700.000000) scale(0.100000,-0.100000)"
fill="#65340A" stroke="none">
<path d="M13693 14099 l-73 -124 0 -742 c0 -643 -2 -743 -15 -743 -8 0 -26 -5
-40 -12 -25 -11 -25 -12 -6 -32 31 -34 34 -60 10 -89 -11 -15 -29 -27 -40 -27
-11 0 -22 -6 -25 -14 -3 -8 -14 -16 -25 -19 -35 -9 -22 -41 31 -70 81 -46 95
-85 46 -127 -25 -20 -19 -29 24 -36 l40 -7 1 -431 c1 -454 1 -1101 0 -1622
l-1 -311 -41 -16 -41 -16 26 -31 c14 -18 26 -37 26 -44 0 -13 -51 -66 -63 -66
-15 0 -67 -44 -67 -57 0 -7 11 -18 25 -23 14 -5 25 -14 25 -20 0 -5 7 -10 15
-10 9 0 27 -11 41 -25 28 -28 26 -54 -8 -92 l-20 -22 41 -12 41 -12 1 -146 c6
-1116 3 -2058 -9 -2078 -6 -12 -28 -27 -47 -34 -39 -14 -42 -21 -20 -39 8 -7
15 -26 15 -42 0 -22 -8 -33 -35 -49 -29 -17 -35 -27 -35 -54 0 -19 3 -36 8
-38 4 -3 66 -8 137 -11 110 -6 140 -4 195 12 l65 19 3 41 c3 36 0 42 -17 42
-23 0 -51 35 -51 64 0 11 7 28 16 38 16 17 15 19 -22 34 -21 9 -42 21 -46 28
-4 6 -8 507 -8 1113 l0 1102 38 17 c20 10 39 19 40 20 2 1 -6 12 -17 23 -39
39 -21 98 36 115 11 4 24 13 27 21 3 8 12 15 20 15 7 0 16 6 19 14 6 15 -11
36 -29 36 -6 0 -15 7 -18 16 -3 8 -10 12 -16 9 -6 -3 -24 7 -40 24 -33 32 -32
49 3 88 24 27 23 28 -23 40 l-35 9 -3 1181 -2 1180 27 6 c52 12 60 23 35 50
-12 13 -22 33 -22 45 0 25 33 62 55 62 7 0 18 6 22 13 4 6 17 17 28 23 26 15
25 37 -2 49 -13 5 -23 13 -23 17 0 5 -6 8 -14 8 -24 0 -66 41 -66 64 0 13 10
35 21 50 25 31 25 31 -21 43 l-35 9 -5 864 -5 864 -72 -125z"/>
</g>
</svg>
