<?xml version="1.0" standalone="no"?>
<!DOCTYPE svg PUBLIC "-//W3C//DTD SVG 20010904//EN"
 "http://www.w3.org/TR/2001/REC-SVG-20010904/DTD/svg10.dtd">
<svg version="1.0" xmlns="http://www.w3.org/2000/svg"
 width="2550.000000pt" height="2700.000000pt" viewBox="0 0 2550.000000 2700.000000"
 preserveAspectRatio="xMidYMid meet">

<g transform="translate(0.000000,2700.000000) scale(0.100000,-0.100000)"
fill="#65340A" stroke="none">
<path d="M16758 20086 l-48 -44 -2 -1018 -3 -1018 -35 -10 c-47 -13 -47 -13
-21 -40 32 -33 25 -76 -14 -96 -16 -8 -32 -19 -34 -23 -2 -5 -14 -12 -27 -17
-30 -12 -31 -36 -2 -51 12 -6 27 -16 32 -20 6 -5 23 -18 39 -30 32 -24 35 -61
7 -89 -11 -11 -20 -22 -20 -24 0 -2 18 -11 40 -20 l40 -16 -2 -1072 -3 -1072
-35 -9 c-46 -12 -47 -13 -21 -41 32 -33 25 -76 -14 -96 -16 -8 -32 -19 -34
-23 -2 -5 -14 -12 -27 -17 -31 -12 -31 -37 1 -52 14 -6 25 -15 25 -20 0 -4 6
-8 13 -8 21 0 57 -44 57 -68 0 -12 -9 -31 -20 -42 -11 -11 -20 -22 -20 -25 0
-2 18 -10 40 -16 l40 -12 -2 -1081 -3 -1080 -33 -22 c-18 -13 -38 -25 -45 -27
-8 -3 -6 -11 7 -26 25 -27 13 -70 -25 -88 -21 -10 -24 -17 -21 -51 l4 -39 176
1 c98 1 183 5 190 9 17 12 16 77 -2 77 -16 0 -56 46 -56 64 0 7 9 22 19 33 20
21 20 21 -11 34 -69 28 -64 -67 -62 1119 0 588 4 1073 8 1077 3 4 16 8 29 10
36 6 40 19 16 52 -19 26 -21 34 -11 56 7 14 24 31 39 38 16 6 34 17 41 24 7 7
18 13 23 13 5 0 9 9 9 20 0 11 -4 20 -9 20 -5 0 -16 6 -23 13 -7 8 -27 20 -43
28 -44 21 -54 59 -26 98 l22 31 -26 10 c-14 5 -30 10 -34 10 -5 0 -10 10 -12
23 -3 17 -3 2103 0 2128 1 4 17 10 36 13 41 8 41 10 15 43 -11 14 -20 33 -20
43 0 21 41 60 63 60 9 0 17 4 17 9 0 5 9 13 20 16 11 3 20 15 20 25 0 10 -9
22 -20 25 -11 3 -20 10 -20 16 0 5 -16 15 -35 23 -45 19 -56 57 -26 96 27 37
27 37 -10 45 -17 4 -33 14 -36 22 -3 8 -6 488 -7 1066 -1 1044 -1 1052 -21
1054 -12 2 -39 -15 -67 -41z"/>
</g>
</svg>
