<?xml version="1.0" standalone="no"?>
<!DOCTYPE svg PUBLIC "-//W3C//DTD SVG 20010904//EN"
 "http://www.w3.org/TR/2001/REC-SVG-20010904/DTD/svg10.dtd">
<svg version="1.0" xmlns="http://www.w3.org/2000/svg"
 width="2551.000000pt" height="2701.000000pt" viewBox="0 0 2551.000000 2701.000000"
 preserveAspectRatio="xMidYMid meet">

<g transform="translate(0.000000,2701.000000) scale(0.100000,-0.100000)"
fill="#65340A" stroke="none">
<path d="M4743 12539 l-63 -51 0 -599 0 -599 -90 0 -90 0 -1 -47 c-1 -74 -1
-4431 0 -5030 l1 -533 90 0 90 0 0 -815 0 -814 -30 -16 c-42 -21 -56 -52 -36
-74 18 -19 21 -51 6 -51 -18 0 -40 -58 -40 -105 l0 -45 150 0 150 0 20 33 c27
43 27 113 1 122 -40 12 -46 33 -22 75 l21 38 -37 13 c-21 6 -41 17 -45 23 -4
6 -8 372 -8 814 l0 802 89 0 c72 0 90 3 95 16 3 9 6 1271 6 2805 l0 2789 -95
0 -95 0 -2 650 -3 650 -62 -51z m165 -1892 l2 -517 -160 0 -160 0 0 505 c0
278 0 508 0 513 0 6 188 18 280 17 l35 -1 3 -517z m2 -762 l0 -125 -160 0
-160 0 0 125 0 125 160 0 160 0 0 -125z m0 -1455 l0 -1210 -160 0 -160 0 0
1210 0 1210 160 0 160 0 0 -1210z m-2 -1452 l-3 -123 -157 -3 -158 -3 -2 48
c-1 38 0 189 2 201 0 1 72 2 160 2 l161 0 -3 -122z m2 -705 l0 -463 -160 0
-160 0 -6 27 c-5 18 1 873 6 900 0 2 72 2 160 0 l160 -2 0 -462z"/>
</g>
</svg>
