<?xml version="1.0" standalone="no"?>
<!DOCTYPE svg PUBLIC "-//W3C//DTD SVG 20010904//EN"
 "http://www.w3.org/TR/2001/REC-SVG-20010904/DTD/svg10.dtd">
<svg version="1.0" xmlns="http://www.w3.org/2000/svg"
 width="2551.000000pt" height="2701.000000pt" viewBox="0 0 2551.000000 2701.000000"
 preserveAspectRatio="xMidYMid meet">

<g transform="translate(0.000000,2701.000000) scale(0.100000,-0.100000)"
fill="#65340A" stroke="none">
<path d="M16477 22197 l-57 -52 0 -587 0 -588 -90 0 -90 0 -1 -42 c-1 -70 -1
-4448 0 -5025 l1 -533 90 0 90 0 -2 -822 -3 -822 -39 -22 c-24 -14 -34 -24
-26 -29 6 -4 16 -18 21 -32 11 -29 -11 -73 -36 -73 -23 0 -21 -87 3 -98 9 -5
82 -8 162 -8 l145 1 3 47 c3 40 0 47 -18 53 -31 10 -44 51 -26 86 13 27 13 30
-4 39 -53 28 -50 -25 -50 861 l0 819 89 0 c72 0 90 3 95 16 3 9 6 1269 6 2800
l0 2784 -95 0 -95 0 0 640 c0 352 -3 640 -7 640 -5 -1 -34 -24 -66 -53z m171
-1864 l-3 -518 -157 -3 -158 -3 -2 517 c-2 283 -1 518 1 520 2 2 76 4 163 4
l158 0 -2 -517z m2 -760 l0 -123 -32 0 c-18 0 -78 -3 -133 -5 -55 -3 -112 -2
-127 1 l-28 6 0 125 0 125 160 -4 160 -3 0 -122z m0 -1453 l0 -1210 -160 0
-160 0 0 1210 0 1210 160 0 160 0 0 -1210z m0 -1455 l0 -125 -160 0 -160 0 -2
43 c-1 34 0 195 2 205 0 1 72 2 160 2 l160 0 0 -125z m0 -705 l0 -460 -160 0
-160 0 -6 26 c-5 19 1 865 6 892 0 1 72 2 160 2 l160 0 0 -460z"/>
</g>
</svg>
