<?xml version="1.0" standalone="no"?>
<!DOCTYPE svg PUBLIC "-//W3C//DTD SVG 20010904//EN"
 "http://www.w3.org/TR/2001/REC-SVG-20010904/DTD/svg10.dtd">
<svg version="1.0" xmlns="http://www.w3.org/2000/svg"
 width="2551.000000pt" height="2701.000000pt" viewBox="0 0 2551.000000 2701.000000"
 preserveAspectRatio="xMidYMid meet">

<g transform="translate(0.000000,2701.000000) scale(0.100000,-0.100000)"
fill="#65340A" stroke="none">
<path d="M23431 26903 l2 -108 -87 -3 -86 -3 -1 -42 c-1 -61 -1 -4392 0 -5024
l1 -533 85 0 85 0 -2 -827 -3 -827 -38 -22 c-33 -18 -36 -23 -22 -34 22 -18
19 -66 -7 -90 -12 -11 -26 -20 -31 -20 -4 0 -7 -10 -5 -22 3 -23 4 -23 180
-23 l178 0 0 31 c0 23 -5 33 -20 37 -11 3 -25 17 -32 32 -10 23 -9 32 5 57
l17 29 -34 14 c-18 8 -36 22 -40 30 -3 9 -6 381 -6 825 l0 809 93 3 92 3 3
2798 2 2797 -95 0 -95 0 0 110 0 110 -71 0 -70 0 2 -107z m237 -755 l2 -518
-160 0 -160 0 -2 516 c-2 284 -1 518 1 520 3 3 75 3 160 2 l156 -3 3 -517z m2
-763 l0 -125 -160 0 -160 0 0 125 0 125 160 0 160 0 0 -125z m0 -1450 l0
-1205 -160 0 -160 0 0 1205 0 1205 160 0 160 0 0 -1205z m0 -1450 l0 -125
-160 0 -160 0 -2 43 c-3 84 -3 192 0 200 2 4 75 7 163 7 l159 0 0 -125z m0
-705 l0 -460 -162 2 -163 3 0 380 c0 209 1 415 3 458 l4 77 159 0 159 0 0
-460z"/>
</g>
</svg>
