<?xml version="1.0" standalone="no"?>
<!DOCTYPE svg PUBLIC "-//W3C//DTD SVG 20010904//EN"
 "http://www.w3.org/TR/2001/REC-SVG-20010904/DTD/svg10.dtd">
<svg version="1.0" xmlns="http://www.w3.org/2000/svg"
 width="2551.000000pt" height="2701.000000pt" viewBox="0 0 2551.000000 2701.000000"
 preserveAspectRatio="xMidYMid meet">

<g transform="translate(0.000000,2701.000000) scale(0.100000,-0.100000)"
fill="#65340A" stroke="none">
<path d="M24429 26988 c-3 -19 -3 -1946 0 -4280 l1 -547 83 -3 82 -3 3 -340
c1 -187 0 -350 -3 -362 -3 -12 -23 -33 -45 -46 -35 -21 -39 -26 -25 -37 21
-18 19 -66 -5 -90 -11 -11 -24 -20 -30 -20 -5 0 -10 -4 -10 -10 0 -6 68 -10
184 -10 159 0 185 2 190 16 8 20 -1 34 -19 34 -8 0 -22 11 -31 25 -14 21 -14
30 -4 55 7 17 18 30 24 30 6 1 -9 11 -34 23 l-45 22 -3 357 -2 357 92 3 93 3
3 2423 2 2422 -45 0 -45 0 0 -110 0 -110 -87 -2 c-91 -1 -185 -1 -215 1 -16 1
-18 13 -18 111 l0 110 -44 0 c-38 0 -44 -3 -47 -22z m409 -455 l-3 -128 -157
-3 -158 -3 0 131 0 130 160 0 161 0 -3 -127z m2 -1513 l0 -1260 -160 0 -160 0
0 1260 0 1260 160 0 160 0 0 -1260z m0 -1510 l0 -130 -160 0 -160 0 -1 48 c-4
105 -4 197 -1 205 2 4 75 7 163 7 l159 0 0 -130z m0 -740 l0 -480 -159 0
c-142 0 -160 2 -166 18 -6 16 -4 680 3 860 l4 82 159 0 159 0 0 -480z"/>
</g>
</svg>
