<?xml version="1.0" standalone="no"?>
<!DOCTYPE svg PUBLIC "-//W3C//DTD SVG 20010904//EN"
 "http://www.w3.org/TR/2001/REC-SVG-20010904/DTD/svg10.dtd">
<svg version="1.0" xmlns="http://www.w3.org/2000/svg"
 width="2551.000000pt" height="2701.000000pt" viewBox="0 0 2551.000000 2701.000000"
 preserveAspectRatio="xMidYMid meet">

<g transform="translate(0.000000,2701.000000) scale(0.100000,-0.100000)"
fill="#65340A" stroke="none">
<path d="M10618 17375 l-58 -47 0 -569 0 -569 -85 0 -85 0 -1 -52 c-4 -227 1
-5561 5 -5565 3 -3 42 -6 88 -7 l83 -1 0 -340 c0 -187 -1 -346 -3 -353 -3 -7
-22 -22 -43 -33 -22 -11 -39 -22 -39 -25 0 -2 10 -18 21 -34 24 -32 20 -59
-11 -67 -17 -5 -20 -14 -20 -64 l0 -59 155 0 155 0 0 54 c0 46 -3 56 -25 70
-28 19 -33 57 -10 76 24 20 18 33 -23 55 l-37 20 0 350 0 350 95 0 c52 0 98 5
102 10 4 6 8 1271 8 2813 l0 2802 -105 0 -105 0 -2 616 -3 616 -57 -47z m177
-1830 l0 -520 -157 -3 -158 -3 0 511 c0 280 -1 513 -2 518 -3 6 182 17 287 17
l30 0 0 -520z m-77 -645 l83 0 -3 -122 -3 -123 -157 -3 -158 -3 0 131 0 131
78 -5 c42 -3 114 -5 160 -6z m25 -370 l57 0 0 -1210 0 -1210 -160 0 -160 0 0
1216 0 1216 103 -6 c56 -3 128 -6 160 -6z m57 -2665 l0 -125 -160 0 -160 0 -2
43 c-3 84 -3 192 0 200 2 4 75 7 163 7 l159 0 0 -125z m0 -705 l0 -460 -162 2
-163 3 0 380 c0 209 1 415 3 458 l4 77 159 0 159 0 0 -460z"/>
</g>
</svg>
