<?xml version="1.0" standalone="no"?>
<!DOCTYPE svg PUBLIC "-//W3C//DTD SVG 20010904//EN"
 "http://www.w3.org/TR/2001/REC-SVG-20010904/DTD/svg10.dtd">
<svg version="1.0" xmlns="http://www.w3.org/2000/svg"
 width="3542.000000pt" height="3750.000000pt" viewBox="0 0 3542.000000 3750.000000"
 preserveAspectRatio="xMidYMid meet">

<g transform="translate(0.000000,3750.000000) scale(0.100000,-0.100000)"
fill="#C5C3C1" stroke="none">
<path d="M13387 16743 c-3 -2069 1 -1919 -67 -2328 -17 -99 -30 -198 -30 -220
0 -54 32 -104 70 -112 27 -5 30 -9 30 -43 0 -35 -2 -38 -37 -44 -64 -10 -72
-21 -41 -53 42 -45 44 -69 9 -103 -16 -17 -39 -30 -50 -30 -12 0 -21 -6 -21
-13 0 -7 -14 -18 -31 -24 -24 -9 -30 -17 -27 -35 2 -12 14 -28 27 -34 13 -7
26 -16 30 -21 3 -5 21 -15 39 -23 49 -19 68 -52 52 -90 -7 -17 -21 -35 -31
-41 -30 -16 -23 -26 31 -44 46 -15 50 -19 50 -48 -1 -25 -8 -36 -33 -52 -72
-45 -79 -106 -38 -330 26 -141 48 -307 61 -465 11 -137 15 -3726 4 -3755 -4
-9 -31 -27 -60 -40 l-54 -24 25 -25 c41 -41 28 -87 -31 -112 -31 -13 -34 -18
-34 -59 0 -38 3 -45 23 -50 81 -19 220 -44 225 -41 4 2 27 7 52 11 25 3 81 12
125 18 l80 12 3 53 c2 40 0 52 -11 52 -8 0 -26 9 -41 21 -32 25 -35 70 -6 99
11 11 20 22 20 24 0 2 -22 12 -49 22 -27 9 -54 27 -61 38 -8 15 -10 523 -7
1871 4 2055 -1 1922 73 2365 30 180 34 220 25 252 -12 40 -52 78 -82 78 -15 0
-19 8 -19 35 0 32 3 35 43 46 64 17 69 25 36 59 -16 16 -29 39 -29 53 0 29 51
77 81 77 10 0 19 6 19 13 0 7 14 18 30 24 21 8 30 18 30 33 0 15 -9 25 -30 33
-16 6 -30 17 -30 23 0 6 -13 14 -30 17 -70 14 -90 78 -41 128 33 32 29 38 -34
54 -34 9 -40 15 -43 41 -2 25 3 34 34 55 21 13 46 40 56 59 23 41 21 64 -17
280 -14 80 -35 226 -47 325 -21 177 -22 215 -25 2023 l-4 1842 -94 0 -94 0 -4
-1877z"/>
</g>
</svg>
