<?xml version="1.0" standalone="no"?>
<!DOCTYPE svg PUBLIC "-//W3C//DTD SVG 20010904//EN"
 "http://www.w3.org/TR/2001/REC-SVG-20010904/DTD/svg10.dtd">
<svg version="1.0" xmlns="http://www.w3.org/2000/svg"
 width="3542.000000pt" height="3750.000000pt" viewBox="0 0 3542.000000 3750.000000"
 preserveAspectRatio="xMidYMid meet">

<g transform="translate(0.000000,3750.000000) scale(0.100000,-0.100000)"
fill="#C5C3C1" stroke="none">
<path d="M16518 18662 l-78 -3 0 -1682 c0 -1902 -1 -1919 -77 -2383 -26 -160
-26 -161 -7 -200 12 -24 32 -45 51 -54 27 -12 33 -21 33 -47 0 -27 -4 -33 -20
-33 -12 0 -35 -7 -52 -16 l-30 -16 26 -27 c15 -15 26 -39 26 -54 0 -29 -31
-67 -54 -67 -8 0 -21 -6 -28 -13 -7 -7 -25 -20 -40 -30 -36 -23 -35 -46 2 -60
17 -6 30 -17 30 -24 0 -7 8 -13 19 -13 10 0 30 -9 45 -21 34 -27 35 -71 1
-105 -14 -14 -25 -27 -25 -29 0 -2 21 -11 48 -18 41 -12 47 -18 50 -44 3 -25
-3 -34 -31 -51 -24 -14 -40 -34 -52 -66 -17 -44 -17 -49 9 -203 77 -470 78
-484 74 -2408 l-3 -1670 -44 -22 c-24 -12 -49 -24 -55 -26 -7 -3 -2 -14 12
-29 12 -13 22 -31 22 -39 0 -23 -30 -59 -56 -69 -20 -8 -24 -16 -24 -54 0 -52
-7 -48 136 -71 97 -16 105 -16 217 4 64 12 119 21 122 21 3 0 5 20 5 45 0 39
-4 47 -24 55 -28 10 -56 47 -56 72 0 9 10 27 23 39 13 13 17 23 11 26 -6 2
-31 14 -55 26 l-44 22 -3 1680 c-2 1173 0 1731 8 1850 12 186 39 415 70 597
11 65 17 130 14 145 -10 42 -41 81 -67 85 -18 2 -22 9 -22 37 0 32 3 35 48 48
26 7 47 18 47 23 0 6 -5 10 -10 10 -17 0 -48 60 -43 81 7 25 50 59 74 59 11 0
19 6 19 14 0 8 11 17 24 20 35 9 42 37 14 58 -13 10 -28 22 -34 27 -7 6 -28
17 -48 25 -37 15 -58 48 -48 76 3 8 16 27 30 42 l24 26 -30 16 c-17 9 -40 16
-52 16 -29 0 -29 66 0 75 27 8 58 50 70 93 7 28 4 68 -15 176 -13 78 -34 222
-47 321 -22 179 -22 186 -28 1959 -3 1175 -8 1780 -15 1781 -5 0 -45 -1 -87
-3z"/>
</g>
</svg>
