<?xml version="1.0" standalone="no"?>
<!DOCTYPE svg PUBLIC "-//W3C//DTD SVG 20010904//EN"
 "http://www.w3.org/TR/2001/REC-SVG-20010904/DTD/svg10.dtd">
<svg version="1.0" xmlns="http://www.w3.org/2000/svg"
 width="3542.000000pt" height="3750.000000pt" viewBox="0 0 3542.000000 3750.000000"
 preserveAspectRatio="xMidYMid meet">

<g transform="translate(0.000000,3750.000000) scale(0.100000,-0.100000)"
fill="#C5C3C1" stroke="none">
<path d="M19210 17036 c1 -1806 1 -1796 -55 -2160 -36 -231 -33 -271 25 -304
23 -13 30 -24 30 -48 0 -29 -3 -32 -39 -38 -51 -8 -57 -19 -26 -50 33 -33 32
-69 -1 -95 -15 -12 -33 -21 -40 -21 -7 0 -17 -6 -21 -12 -4 -7 -17 -18 -28
-24 -28 -16 -27 -58 3 -62 12 -2 22 -10 22 -18 0 -8 8 -14 19 -14 29 0 71 -39
71 -65 0 -13 -12 -37 -26 -54 l-25 -30 37 -16 c20 -8 40 -15 45 -15 5 0 9 -15
9 -33 0 -26 -6 -36 -25 -45 -59 -27 -66 -92 -31 -307 55 -344 64 -708 65
-2686 1 -1081 0 -1147 -16 -1162 -10 -8 -37 -23 -59 -32 l-42 -16 24 -24 c13
-13 24 -30 24 -37 0 -22 -30 -59 -56 -68 -20 -8 -24 -16 -24 -49 0 -38 2 -41
38 -50 20 -5 75 -14 122 -21 73 -10 100 -9 190 7 l105 18 3 46 c3 43 1 47 -22
53 -37 9 -59 47 -47 79 6 14 17 30 26 35 14 7 7 13 -33 30 -27 12 -53 29 -56
38 -11 28 -7 3286 4 3424 13 168 26 285 54 469 25 161 23 206 -10 242 -9 10
-25 19 -36 19 -14 0 -18 8 -18 35 0 19 4 35 9 35 5 0 25 7 45 15 l37 16 -25
30 c-14 17 -26 38 -26 48 0 28 28 59 60 66 17 4 30 13 30 21 0 8 9 14 20 14
29 0 44 34 24 54 -8 9 -22 16 -30 16 -8 0 -14 7 -14 15 0 8 -8 15 -19 15 -28
0 -71 39 -71 64 0 13 11 35 25 50 31 33 26 44 -26 52 -35 6 -39 9 -39 37 0 22
10 38 36 61 52 45 56 83 28 252 -19 118 -36 261 -59 509 -2 28 -5 794 -5 1703
l0 1652 -90 0 -90 0 0 -1664z"/>
</g>
</svg>
