<?xml version="1.0" standalone="no"?>
<!DOCTYPE svg PUBLIC "-//W3C//DTD SVG 20010904//EN"
 "http://www.w3.org/TR/2001/REC-SVG-20010904/DTD/svg10.dtd">
<svg version="1.0" xmlns="http://www.w3.org/2000/svg"
 width="3542.000000pt" height="3750.000000pt" viewBox="0 0 3542.000000 3750.000000"
 preserveAspectRatio="xMidYMid meet">

<g transform="translate(0.000000,3750.000000) scale(0.100000,-0.100000)"
fill="#C5C3C1" stroke="none">
<path d="M23480 17167 c0 -1720 0 -1728 -56 -2052 -38 -216 -39 -236 -19 -274
9 -18 30 -40 46 -49 22 -13 29 -24 29 -48 0 -29 -4 -32 -37 -39 -55 -10 -57
-14 -28 -45 19 -20 26 -36 23 -56 -3 -28 -14 -37 -105 -85 -30 -16 -38 -42
-17 -54 9 -5 26 -18 36 -27 10 -10 25 -18 33 -18 23 0 55 -37 55 -64 0 -12
-11 -35 -24 -49 -27 -29 -27 -29 27 -46 31 -11 37 -17 37 -41 0 -21 -7 -30
-30 -40 -33 -14 -60 -55 -60 -92 0 -13 13 -102 29 -198 60 -352 60 -375 64
-2005 1 -819 1 -1536 -1 -1593 l-4 -102 -49 -22 -50 -21 21 -22 c30 -32 22
-65 -21 -93 -32 -21 -37 -29 -35 -60 1 -41 4 -42 146 -57 36 -4 68 -9 73 -12
4 -2 57 4 117 14 l110 18 0 42 c0 32 -4 43 -15 43 -21 0 -65 45 -65 65 0 9 11
27 24 40 l24 24 -49 17 c-26 10 -51 24 -54 32 -3 8 -5 722 -5 1586 0 1332 2
1597 15 1732 16 162 45 373 64 454 24 104 7 176 -49 205 -23 12 -30 22 -30 45
0 17 4 30 9 30 5 0 25 7 45 15 l37 16 -25 30 c-14 17 -26 38 -26 48 0 22 41
61 63 61 10 0 20 6 23 14 3 8 14 16 25 19 27 7 37 38 15 51 -10 6 -27 19 -38
29 -12 9 -27 17 -35 17 -19 0 -53 37 -53 59 0 11 12 33 26 50 l26 31 -24 9
c-13 5 -32 10 -43 12 -26 5 -35 69 -10 69 9 0 30 13 46 29 37 37 37 63 4 259
-62 369 -59 256 -62 2045 l-4 1637 -84 0 -85 0 0 -1583z"/>
</g>
</svg>
