<?xml version="1.0" standalone="no"?>
<!DOCTYPE svg PUBLIC "-//W3C//DTD SVG 20010904//EN"
 "http://www.w3.org/TR/2001/REC-SVG-20010904/DTD/svg10.dtd">
<svg version="1.0" xmlns="http://www.w3.org/2000/svg"
 width="3542.000000pt" height="3750.000000pt" viewBox="0 0 3542.000000 3750.000000"
 preserveAspectRatio="xMidYMid meet">

<g transform="translate(0.000000,3750.000000) scale(0.100000,-0.100000)"
fill="#C5C3C1" stroke="none">
<path d="M24437 17063 c-3 -1668 -3 -1679 -25 -1833 -12 -85 -31 -200 -42
-254 -11 -54 -20 -118 -20 -141 0 -50 35 -108 68 -113 18 -3 22 -10 22 -37 0
-30 -4 -35 -37 -46 -56 -17 -57 -19 -28 -49 38 -39 32 -79 -15 -102 -32 -16
-45 -24 -88 -54 -19 -14 -9 -44 17 -51 11 -3 22 -11 25 -19 3 -8 12 -14 19
-14 25 0 67 -41 67 -65 0 -13 -12 -37 -26 -54 l-26 -31 46 -12 c43 -11 46 -14
46 -45 0 -22 -5 -33 -14 -33 -8 0 -27 -10 -41 -23 -38 -32 -41 -84 -16 -219
28 -151 58 -398 65 -528 9 -163 18 -3027 10 -3167 -5 -88 -10 -123 -19 -123
-7 0 -31 -8 -53 -18 -37 -17 -39 -19 -21 -30 45 -28 29 -91 -28 -113 -19 -7
-23 -16 -23 -48 l0 -40 48 -6 c26 -4 81 -12 122 -18 74 -12 107 -10 228 14
l52 10 0 45 c0 32 -4 44 -15 44 -23 0 -55 37 -55 63 0 13 9 32 20 42 20 18 20
19 -32 44 l-53 26 -3 1540 c-2 1068 0 1592 8 1710 12 187 38 392 71 558 13 63
19 121 15 141 -7 39 -55 96 -81 96 -12 0 -16 8 -13 31 2 26 9 33 41 44 21 7
41 16 44 19 3 3 -6 19 -21 36 -14 17 -26 38 -26 46 0 22 46 64 70 64 11 0 20
7 20 15 0 8 6 15 14 15 8 0 22 7 31 16 15 15 15 18 -1 35 -9 11 -23 19 -31 19
-7 0 -13 4 -13 9 0 5 -13 14 -29 19 -59 21 -73 83 -27 121 25 21 20 27 -29 41
-39 11 -45 16 -45 39 0 21 7 31 32 42 18 8 41 29 52 48 17 30 18 40 8 100 -92
554 -85 369 -89 2224 l-4 1647 -84 0 -84 0 -4 -1677z"/>
</g>
</svg>
