<?xml version="1.0" standalone="no"?>
<!DOCTYPE svg PUBLIC "-//W3C//DTD SVG 20010904//EN"
 "http://www.w3.org/TR/2001/REC-SVG-20010904/DTD/svg10.dtd">
<svg version="1.0" xmlns="http://www.w3.org/2000/svg"
 width="3542.000000pt" height="3750.000000pt" viewBox="0 0 3542.000000 3750.000000"
 preserveAspectRatio="xMidYMid meet">

<g transform="translate(0.000000,3750.000000) scale(0.100000,-0.100000)"
fill="#C5C3C1" stroke="none">
<path d="M25430 17112 c0 -1364 -2 -1643 -15 -1776 -18 -189 -38 -327 -66
-462 -20 -91 -20 -106 -8 -145 10 -32 24 -51 52 -68 28 -19 37 -31 37 -53 0
-15 -5 -28 -10 -28 -6 0 -27 -7 -46 -15 l-36 -15 27 -31 c37 -45 31 -78 -20
-104 -22 -11 -42 -24 -44 -28 -2 -5 -14 -12 -27 -17 -32 -13 -31 -47 1 -62 14
-6 25 -15 25 -19 0 -4 16 -13 35 -19 59 -19 70 -61 30 -109 l-26 -30 30 -16
c17 -8 37 -15 46 -15 10 0 15 -10 15 -33 0 -28 -4 -34 -32 -42 -24 -7 -38 -21
-52 -49 -19 -39 -19 -39 8 -185 73 -395 69 -302 75 -1881 3 -784 5 -1552 3
-1706 l-2 -282 -54 -22 -54 -21 24 -24 c13 -13 24 -31 24 -40 0 -20 -44 -65
-65 -65 -11 0 -15 -11 -15 -44 0 -50 -9 -47 159 -67 83 -10 119 -10 180 0 124
20 121 19 121 57 0 34 -3 38 -52 75 -35 26 -38 71 -7 93 21 14 20 15 -30 37
-33 14 -53 29 -57 43 -2 11 -3 766 -1 1676 4 1810 1 1722 63 2070 39 217 41
248 12 290 -13 19 -36 41 -51 48 -20 10 -27 20 -27 43 0 18 5 29 14 29 7 0 31
7 52 16 32 13 35 17 21 25 -9 6 -24 24 -33 40 -14 28 -14 33 1 55 9 14 27 29
41 34 13 5 30 14 37 20 6 5 23 18 37 29 21 16 22 21 11 35 -7 9 -19 16 -25 16
-6 0 -19 9 -29 20 -9 11 -23 20 -31 20 -8 0 -24 11 -35 25 -16 22 -18 31 -9
56 6 17 17 33 24 36 21 8 17 33 -5 33 -11 0 -23 5 -26 10 -3 6 -15 10 -26 10
-17 0 -20 6 -17 33 2 24 8 33 25 35 12 2 34 17 48 33 30 36 32 83 10 189 -33
155 -61 381 -80 635 -2 39 -5 780 -5 1648 l0 1577 -85 0 -85 0 0 -1618z"/>
</g>
</svg>
