<?xml version="1.0" standalone="no"?>
<!DOCTYPE svg PUBLIC "-//W3C//DTD SVG 20010904//EN"
 "http://www.w3.org/TR/2001/REC-SVG-20010904/DTD/svg10.dtd">
<svg version="1.0" xmlns="http://www.w3.org/2000/svg"
 width="3542.000000pt" height="3750.000000pt" viewBox="0 0 3542.000000 3750.000000"
 preserveAspectRatio="xMidYMid meet">

<g transform="translate(0.000000,3750.000000) scale(0.100000,-0.100000)"
fill="#C5C3C1" stroke="none">
<path d="M28567 16928 c-3 -1747 -3 -1764 -25 -1913 -12 -82 -34 -219 -51
-303 -33 -174 -30 -211 19 -254 17 -16 37 -28 46 -28 11 0 14 -9 12 -37 -3
-33 -7 -38 -38 -46 -52 -13 -57 -23 -27 -53 15 -15 27 -37 27 -50 0 -27 -34
-62 -67 -70 -13 -4 -23 -10 -23 -15 0 -4 -12 -14 -27 -21 -17 -8 -28 -21 -28
-33 0 -12 11 -25 28 -33 15 -7 27 -17 27 -21 0 -5 11 -12 25 -15 33 -8 65 -41
65 -65 0 -11 -12 -33 -26 -50 -31 -37 -26 -47 26 -56 37 -6 40 -9 40 -39 0
-28 -5 -34 -35 -45 -41 -15 -68 -59 -67 -111 0 -19 14 -111 31 -205 17 -93 40
-255 51 -360 18 -179 19 -283 21 -1830 0 -902 1 -1672 0 -1711 l-1 -71 -55
-24 c-53 -23 -54 -24 -35 -42 29 -26 26 -71 -6 -96 -15 -12 -33 -21 -40 -21
-10 0 -14 -14 -14 -44 0 -53 -9 -49 165 -71 124 -16 134 -16 220 2 l90 18 3
47 c3 44 1 48 -23 54 -29 7 -55 39 -55 67 0 10 11 29 24 42 l24 24 -49 16
c-27 9 -54 25 -59 35 -13 24 -12 3316 1 3475 12 156 46 399 76 545 13 69 22
139 20 157 -8 45 -40 88 -77 103 -26 11 -31 18 -28 43 3 26 9 32 51 45 42 13
64 32 37 32 -17 0 -48 60 -43 81 7 25 50 59 74 59 11 0 19 7 19 15 0 8 6 15
14 15 8 0 22 7 30 16 20 20 5 54 -24 54 -11 0 -20 6 -20 14 0 8 -13 17 -29 21
-43 9 -66 40 -62 82 0 6 12 25 27 42 l25 30 -48 14 c-43 12 -48 17 -51 45 -3
27 1 31 33 42 70 23 89 92 60 215 -17 70 -49 270 -65 400 -27 233 -30 430 -30
2003 l0 1642 -90 0 -89 0 -4 -1762z"/>
</g>
</svg>
