<?xml version="1.0" standalone="no"?>
<!DOCTYPE svg PUBLIC "-//W3C//DTD SVG 20010904//EN"
 "http://www.w3.org/TR/2001/REC-SVG-20010904/DTD/svg10.dtd">
<svg version="1.0" xmlns="http://www.w3.org/2000/svg"
 width="3542.000000pt" height="3750.000000pt" viewBox="0 0 3542.000000 3750.000000"
 preserveAspectRatio="xMidYMid meet">

<g transform="translate(0.000000,3750.000000) scale(0.100000,-0.100000)"
fill="#C5C3C1" stroke="none">
<path d="M4980 16520 c0 -2093 -1 -2147 -46 -2473 -14 -103 -57 -351 -85 -488
-10 -50 -9 -61 9 -102 20 -45 41 -61 105 -81 14 -5 18 -14 15 -42 -3 -35 -6
-38 -51 -49 -68 -17 -74 -27 -38 -63 58 -57 39 -121 -41 -142 -21 -6 -38 -17
-38 -24 0 -8 -11 -17 -25 -20 -35 -9 -48 -37 -29 -64 8 -12 24 -22 35 -22 10
0 19 -7 19 -15 0 -8 16 -19 39 -25 50 -13 85 -54 76 -90 -4 -14 -20 -39 -37
-57 -29 -30 -30 -31 -10 -42 12 -6 38 -15 59 -19 36 -7 38 -10 41 -48 3 -37 1
-40 -33 -52 -40 -15 -79 -62 -92 -112 -10 -35 -3 -91 31 -246 20 -92 63 -377
72 -479 3 -44 9 -89 12 -100 4 -11 8 -960 9 -2109 3 -1946 2 -2090 -13 -2107
-10 -11 -20 -19 -24 -19 -4 0 -28 -9 -53 -20 l-45 -20 29 -29 c16 -16 29 -38
29 -48 0 -29 -29 -64 -66 -79 -33 -14 -34 -17 -34 -68 0 -60 -6 -57 153 -91
78 -17 79 -17 253 11 l174 29 0 58 c0 51 -2 57 -21 57 -28 0 -79 53 -79 83 0
13 12 36 26 51 l27 26 -61 26 c-43 19 -64 34 -71 53 -11 28 -10 4103 1 4151 3
14 9 61 12 105 11 136 36 313 67 480 56 298 54 281 34 325 -22 50 -45 71 -87
79 -30 6 -33 10 -33 45 0 38 1 39 48 51 67 17 77 29 44 55 -31 25 -44 74 -27
106 7 13 33 31 56 41 24 10 44 24 44 31 0 6 8 12 18 12 11 0 27 9 36 19 25 27
12 60 -25 68 -16 3 -29 11 -29 18 0 7 -14 18 -32 24 -80 28 -100 87 -48 139
17 17 30 35 30 41 0 6 -19 15 -42 22 -68 18 -75 24 -70 62 3 28 10 36 38 46
42 15 84 74 91 130 3 22 -2 70 -11 108 -9 37 -27 131 -40 208 -79 452 -76 352
-76 2648 l0 2028 -110 -2 -110 -1 0 -1988z"/>
</g>
</svg>
