<?xml version="1.0" standalone="no"?>
<!DOCTYPE svg PUBLIC "-//W3C//DTD SVG 20010904//EN"
 "http://www.w3.org/TR/2001/REC-SVG-20010904/DTD/svg10.dtd">
<svg version="1.0" xmlns="http://www.w3.org/2000/svg"
 width="3542.000000pt" height="3750.000000pt" viewBox="0 0 3542.000000 3750.000000"
 preserveAspectRatio="xMidYMid meet">

<g transform="translate(0.000000,3750.000000) scale(0.100000,-0.100000)"
fill="#65340A" stroke="none">
<path d="M20943 18723 c-10 -4 -13 -333 -13 -1601 0 -1727 0 -1741 -55 -2116
-14 -94 -25 -184 -25 -200 0 -41 34 -96 60 -96 16 0 20 -7 20 -33 0 -30 -4
-34 -45 -46 -25 -7 -45 -16 -45 -20 0 -3 12 -17 25 -30 14 -13 25 -34 25 -46
0 -24 -42 -65 -66 -65 -7 0 -17 -6 -21 -12 -4 -7 -17 -18 -28 -24 -11 -6 -20
-19 -20 -29 0 -10 9 -23 20 -29 11 -6 24 -17 28 -23 4 -7 16 -13 26 -13 23 0
61 -41 61 -65 0 -10 -12 -31 -26 -46 l-26 -27 30 -16 c17 -9 38 -16 47 -16 11
0 15 -10 15 -35 0 -24 -5 -35 -14 -35 -21 0 -54 -47 -62 -86 -4 -20 5 -111 19
-212 29 -199 33 -236 47 -411 11 -136 15 -3297 4 -3325 -3 -9 -26 -25 -51 -36
l-44 -19 22 -31 c20 -26 21 -33 9 -54 -7 -14 -26 -30 -41 -37 -26 -10 -29 -16
-29 -55 0 -24 4 -44 9 -44 5 0 60 -7 123 -15 105 -15 120 -14 213 3 l100 18 3
41 c3 36 0 41 -27 53 -42 17 -56 61 -30 94 l20 25 -43 22 c-24 12 -46 27 -50
33 -4 6 -7 740 -7 1631 2 1738 2 1746 54 2100 14 94 25 186 25 203 0 44 -25
91 -55 102 -18 7 -25 17 -25 38 0 24 6 29 45 41 25 7 45 15 45 18 0 3 -11 18
-25 35 -14 16 -25 37 -25 47 0 22 40 61 63 61 9 0 20 6 24 13 4 6 17 17 28 23
27 15 25 47 -2 59 -13 5 -23 15 -23 22 0 7 -8 13 -19 13 -26 0 -71 38 -71 60
0 10 12 33 27 50 30 36 24 45 -34 56 -30 6 -33 10 -33 40 0 23 5 34 14 34 21
0 55 47 62 88 4 22 -2 93 -15 177 -57 372 -54 273 -58 2083 l-4 1672 -72 -1
c-40 0 -78 -3 -84 -6z"/>
</g>
</svg>
