<?xml version="1.0" standalone="no"?>
<!DOCTYPE svg PUBLIC "-//W3C//DTD SVG 20010904//EN"
 "http://www.w3.org/TR/2001/REC-SVG-20010904/DTD/svg10.dtd">
<svg version="1.0" xmlns="http://www.w3.org/2000/svg"
 width="3542.000000pt" height="3750.000000pt" viewBox="0 0 3542.000000 3750.000000"
 preserveAspectRatio="xMidYMid meet">

<g transform="translate(0.000000,3750.000000) scale(0.100000,-0.100000)"
fill="#65340A" stroke="none">
<path d="M21750 17144 c0 -1728 0 -1735 -55 -2102 -14 -90 -22 -175 -18 -190
10 -41 33 -72 54 -72 15 0 19 -7 19 -35 0 -25 -4 -35 -15 -35 -9 0 -29 -7 -45
-15 l-29 -15 24 -25 c42 -41 27 -97 -30 -111 -13 -3 -26 -12 -29 -20 -3 -8
-12 -14 -19 -14 -8 0 -21 -7 -28 -16 -14 -17 -16 -15 56 -69 10 -8 24 -15 30
-15 19 0 45 -35 45 -60 0 -13 -12 -36 -27 -52 l-26 -27 46 -13 c42 -11 47 -15
47 -41 0 -19 -10 -36 -30 -53 -48 -41 -53 -83 -31 -226 59 -377 61 -412 65
-2133 4 -1257 2 -1594 -8 -1607 -7 -9 -31 -24 -55 -34 l-42 -17 21 -22 c30
-31 22 -64 -20 -93 -28 -19 -36 -31 -38 -61 l-2 -38 118 -16 c107 -16 127 -16
217 -2 55 8 103 15 108 15 4 0 7 19 7 43 0 38 -3 44 -30 54 -16 6 -35 23 -41
37 -11 23 -9 31 9 55 l21 29 -44 18 c-25 10 -47 24 -50 32 -3 8 -5 723 -5
1589 0 1771 -2 1710 71 2223 11 77 10 89 -6 123 -10 23 -27 40 -41 43 -19 5
-24 13 -24 40 0 27 4 34 20 34 10 0 30 5 44 11 l25 12 -24 29 c-39 46 -29 86
27 109 18 7 37 19 41 26 4 7 14 13 21 13 8 0 17 7 20 16 7 19 -10 44 -29 44
-7 0 -15 7 -19 15 -3 8 -12 15 -19 15 -25 0 -67 41 -67 64 0 13 11 35 25 50
l24 26 -29 15 c-16 8 -36 15 -45 15 -28 0 -17 49 19 84 48 45 52 81 27 239
-56 347 -54 270 -58 2055 l-4 1652 -84 0 -85 0 0 -1596z"/>
</g>
</svg>
