<?xml version="1.0" standalone="no"?>
<!DOCTYPE svg PUBLIC "-//W3C//DTD SVG 20010904//EN"
 "http://www.w3.org/TR/2001/REC-SVG-20010904/DTD/svg10.dtd">
<svg version="1.0" xmlns="http://www.w3.org/2000/svg"
 width="3542.000000pt" height="3750.000000pt" viewBox="0 0 3542.000000 3750.000000"
 preserveAspectRatio="xMidYMid meet">

<g transform="translate(0.000000,3750.000000) scale(0.100000,-0.100000)"
fill="#65340A" stroke="none">
<path d="M30827 16884 c-3 -1609 -5 -1802 -20 -1919 -20 -154 -38 -263 -74
-442 l-26 -132 24 -48 c17 -34 35 -53 62 -66 30 -15 37 -24 37 -47 0 -26 -5
-31 -42 -41 -61 -17 -65 -25 -35 -55 35 -35 36 -76 1 -103 -15 -12 -35 -21
-45 -21 -11 0 -19 -6 -19 -13 0 -7 -13 -18 -30 -24 -21 -8 -30 -18 -30 -33 0
-15 9 -25 30 -33 17 -6 30 -17 30 -24 0 -7 8 -13 19 -13 10 0 30 -9 45 -21 34
-27 35 -71 1 -105 -14 -14 -23 -29 -20 -33 2 -5 25 -14 50 -21 42 -12 45 -15
45 -45 0 -29 -4 -33 -35 -39 -36 -7 -69 -42 -80 -88 -4 -15 4 -80 19 -150 29
-141 49 -267 73 -453 15 -116 17 -323 20 -1930 l4 -1800 -61 -24 -60 -24 25
-23 c40 -37 30 -77 -29 -112 -30 -18 -34 -25 -33 -61 1 -47 -13 -41 178 -67
119 -16 131 -16 205 0 121 27 114 22 114 72 0 40 -3 45 -34 58 -46 19 -61 49
-46 86 7 16 19 31 28 35 12 4 0 13 -40 32 l-56 25 -7 122 c-3 66 -5 875 -3
1796 4 1519 6 1687 21 1805 26 196 35 246 69 420 l31 160 -21 48 c-17 38 -30
52 -62 65 -35 15 -40 21 -40 50 0 25 4 32 19 32 11 0 23 5 26 10 3 6 15 10 25
10 30 0 32 17 5 44 -34 34 -33 78 1 105 15 12 35 21 45 21 11 0 19 6 19 13 0
7 14 18 30 24 21 8 30 18 30 33 0 15 -9 25 -30 33 -16 6 -30 17 -30 24 0 7 -8
13 -19 13 -10 0 -30 9 -45 21 -34 27 -34 68 1 103 30 31 27 37 -30 51 -39 10
-42 13 -42 45 0 30 4 35 32 42 38 10 70 48 79 93 3 18 -3 72 -15 127 -26 121
-57 312 -78 487 -15 121 -17 329 -20 1909 l-4 1772 -22 0 c-12 0 -52 3 -89 6
l-67 7 -4 -1789z"/>
</g>
</svg>
