<?xml version="1.0" standalone="no"?>
<!DOCTYPE svg PUBLIC "-//W3C//DTD SVG 20010904//EN"
 "http://www.w3.org/TR/2001/REC-SVG-20010904/DTD/svg10.dtd">
<svg version="1.0" xmlns="http://www.w3.org/2000/svg"
 width="3542.000000pt" height="3750.000000pt" viewBox="0 0 3542.000000 3750.000000"
 preserveAspectRatio="xMidYMid meet">

<g transform="translate(0.000000,3750.000000) scale(0.100000,-0.100000)"
fill="#65340A" stroke="none">
<path d="M33229 16883 c0 -967 -2 -1765 -3 -1773 -2 -8 -6 -67 -10 -130 -9
-149 -48 -424 -86 -599 -23 -110 -27 -145 -19 -173 13 -49 43 -85 84 -99 30
-11 35 -17 35 -46 0 -31 -3 -33 -55 -49 l-56 -16 31 -34 c16 -19 30 -45 30
-58 0 -27 -35 -62 -72 -71 -16 -4 -28 -12 -28 -19 0 -6 -13 -17 -30 -23 -21
-8 -30 -18 -30 -33 0 -15 9 -25 30 -33 17 -6 30 -17 30 -23 0 -6 13 -14 30
-17 70 -14 90 -78 41 -128 l-30 -29 22 -12 c12 -6 36 -14 52 -18 26 -5 30 -10
30 -40 0 -29 -4 -35 -29 -41 -40 -11 -74 -46 -86 -87 -7 -26 -3 -62 15 -151
28 -136 59 -324 82 -501 14 -110 17 -329 20 -1845 3 -946 1 -1779 -2 -1851
l-7 -131 -51 -23 c-66 -29 -65 -28 -39 -46 32 -22 30 -76 -4 -103 -15 -12 -33
-21 -40 -21 -10 0 -14 -14 -14 -49 0 -56 -19 -49 192 -77 l128 -18 95 24 95
24 0 47 c0 41 -3 48 -25 53 -33 8 -65 44 -65 73 0 13 11 34 24 47 l25 22 -51
20 c-27 10 -55 28 -61 39 -7 14 -10 551 -9 1810 2 1503 4 1815 17 1948 18 189
36 305 76 497 18 85 29 160 26 182 -7 50 -40 94 -83 110 -32 11 -35 15 -32 47
3 31 7 35 51 48 26 7 47 17 47 20 0 4 -11 18 -24 32 -40 43 -42 67 -7 101 16
17 39 30 50 30 12 0 21 6 21 13 0 7 14 18 30 24 45 17 36 73 -12 73 -10 0 -18
6 -18 13 0 6 -18 20 -40 29 -51 21 -67 56 -44 99 8 17 22 33 30 36 26 10 15
21 -36 38 -47 15 -50 19 -50 50 0 28 4 33 30 39 39 7 78 49 86 92 4 21 -5 93
-25 192 -45 233 -50 266 -71 470 -19 177 -20 279 -20 1985 l0 1797 -95 0 -95
0 -1 -1757z"/>
</g>
</svg>
