<?xml version="1.0" standalone="no"?>
<!DOCTYPE svg PUBLIC "-//W3C//DTD SVG 20010904//EN"
 "http://www.w3.org/TR/2001/REC-SVG-20010904/DTD/svg10.dtd">
<svg version="1.0" xmlns="http://www.w3.org/2000/svg"
 width="3542.000000pt" height="3750.000000pt" viewBox="0 0 3542.000000 3750.000000"
 preserveAspectRatio="xMidYMid meet">

<g transform="translate(0.000000,3750.000000) scale(0.100000,-0.100000)"
fill="#65340A" stroke="none">
<path d="M6348 18522 l-38 -3 0 -1972 c0 -1684 -2 -1998 -15 -2147 -19 -212
-44 -392 -86 -606 -22 -109 -30 -172 -25 -197 9 -47 49 -95 89 -105 28 -7 32
-13 35 -45 2 -20 0 -37 -5 -38 -21 -2 -41 -8 -78 -23 l-39 -17 26 -22 c35 -30
51 -64 44 -93 -7 -26 -59 -64 -88 -64 -10 0 -18 -7 -18 -15 0 -8 -11 -17 -25
-21 -54 -13 -57 -64 -5 -83 17 -5 30 -14 30 -20 0 -5 16 -15 35 -21 38 -13 75
-52 75 -81 0 -10 -14 -35 -32 -55 -31 -35 -31 -37 -13 -50 11 -8 36 -17 57
-21 37 -5 38 -7 38 -48 0 -39 -2 -43 -30 -48 -35 -7 -86 -73 -95 -121 -4 -19
6 -94 25 -186 41 -207 67 -383 85 -587 20 -230 23 -4140 3 -4165 -7 -8 -39
-25 -71 -38 -57 -22 -57 -23 -35 -38 30 -21 38 -32 38 -60 0 -29 -51 -82 -80
-82 -19 0 -21 -5 -18 -57 l3 -57 50 -13 c165 -43 169 -43 346 -12 90 15 165
28 167 29 1 0 2 24 2 54 0 49 -2 54 -25 60 -64 16 -86 86 -41 131 l25 25 -46
20 c-25 11 -48 20 -52 20 -4 0 -14 9 -24 20 -17 20 -17 127 -14 2058 3 1466 7
2065 15 2137 26 216 55 417 83 559 16 82 29 165 29 185 0 53 -40 108 -90 121
-38 10 -40 13 -40 50 0 38 2 40 30 40 17 0 30 5 30 10 0 6 8 10 18 10 9 0 23
4 31 9 12 8 8 14 -16 35 -17 14 -33 37 -35 51 -8 38 25 82 72 96 22 7 40 17
40 23 0 7 14 17 30 23 22 8 30 18 30 36 0 18 -8 29 -30 39 -16 7 -30 18 -30
24 0 6 -12 14 -28 17 -81 16 -108 89 -52 142 36 34 37 42 8 50 -13 3 -32 10
-43 15 -11 4 -28 11 -37 14 -13 4 -18 16 -18 41 0 28 4 35 20 35 30 0 88 57
101 99 14 48 10 92 -34 326 -86 462 -87 481 -87 2698 l0 1918 -67 -3 c-38 -2
-85 -4 -105 -6z"/>
</g>
</svg>
