<?xml version="1.0" standalone="no"?>
<!DOCTYPE svg PUBLIC "-//W3C//DTD SVG 20010904//EN"
 "http://www.w3.org/TR/2001/REC-SVG-20010904/DTD/svg10.dtd">
<svg version="1.0" xmlns="http://www.w3.org/2000/svg"
 width="2550.000000pt" height="2700.000000pt" viewBox="0 0 2550.000000 2700.000000"
 preserveAspectRatio="xMidYMid meet">

<g transform="translate(0.000000,2700.000000) scale(0.100000,-0.100000)"
fill="#C5C3C1" stroke="none">
<path d="M16422 20642 l-52 -47 0 -550 c0 -303 0 -945 0 -1427 l0 -878 -23 0
c-26 0 -76 -43 -78 -68 -2 -31 2 -43 23 -68 24 -26 47 -31 66 -12 9 9 12 1 12
-36 0 -34 -6 -56 -24 -79 -41 -55 -76 -140 -83 -199 -7 -72 24 -176 73 -245
24 -33 34 -59 34 -84 0 -33 -2 -36 -26 -31 -36 7 -74 -31 -74 -74 0 -38 38
-74 76 -74 l24 0 0 -1920 0 -1921 -35 -20 c-38 -23 -43 -34 -20 -43 23 -9 18
-50 -10 -76 -26 -25 -35 -83 -14 -96 14 -8 275 -8 289 1 5 3 10 21 10 38 0 26
-7 37 -30 50 -33 20 -40 56 -15 77 22 18 19 26 -20 49 l-35 20 0 1921 0 1920
24 0 c41 0 76 36 76 79 0 48 -27 75 -70 69 -29 -4 -30 -3 -30 31 0 23 10 51
27 76 63 93 73 124 74 225 0 87 -3 100 -31 154 -17 33 -40 72 -51 87 -10 15
-19 43 -19 63 0 34 1 35 29 30 37 -8 71 33 71 85 0 30 -5 40 -29 54 -16 9 -39
17 -50 17 l-21 0 0 1475 c0 811 -3 1475 -7 1475 -5 -1 -32 -22 -61 -48z m88
-2956 c0 -3 -4 -8 -10 -11 -5 -3 -10 -1 -10 4 0 6 5 11 10 11 6 0 10 -2 10 -4z
m-32 -264 c59 -82 65 -220 15 -320 -44 -89 -89 -82 -133 19 -42 98 -35 214 16
292 31 47 72 51 102 9z m-108 -592 c0 -5 -5 -10 -11 -10 -5 0 -7 5 -4 10 3 6
8 10 11 10 2 0 4 -4 4 -10z"/>
</g>
</svg>
