<?xml version="1.0" standalone="no"?>
<!DOCTYPE svg PUBLIC "-//W3C//DTD SVG 20010904//EN"
 "http://www.w3.org/TR/2001/REC-SVG-20010904/DTD/svg10.dtd">
<svg version="1.0" xmlns="http://www.w3.org/2000/svg"
 width="2550.000000pt" height="2700.000000pt" viewBox="0 0 2550.000000 2700.000000"
 preserveAspectRatio="xMidYMid meet">

<g transform="translate(0.000000,2700.000000) scale(0.100000,-0.100000)"
fill="#C5C3C1" stroke="none">
<path d="M21579 26211 l-44 -50 0 -1503 0 -1503 -30 -2 c-41 -3 -67 -37 -63
-82 3 -32 8 -39 51 -59 58 -27 59 -39 12 -129 -20 -37 -42 -93 -50 -123 -31
-117 -8 -261 55 -347 25 -33 30 -49 27 -80 -4 -36 -6 -38 -35 -35 -39 4 -65
-31 -60 -80 2 -25 10 -36 33 -46 17 -7 37 -17 45 -21 13 -7 15 -154 16 -1222
1 -1190 1 -1214 20 -1212 10 1 40 5 66 8 l48 6 2 1217 3 1216 33 7 c39 8 61
34 62 72 0 31 -31 67 -58 67 -23 0 -42 19 -42 42 0 9 16 46 35 80 85 156 81
344 -10 464 -21 28 -26 43 -23 82 3 46 3 47 35 44 29 -3 35 1 49 31 25 52 13
82 -42 106 l-45 20 2 1531 c0 842 -1 1533 -3 1534 -1 2 -13 6 -24 10 -17 5
-30 -3 -65 -43z m61 -3373 c32 -53 44 -133 33 -213 -11 -76 -56 -185 -78 -185
-34 0 -70 135 -62 232 6 72 55 198 77 198 5 0 19 -15 30 -32z"/>
<path d="M21539 19194 c0 -33 -1 -279 -1 -549 0 -279 -4 -497 -9 -507 -5 -10
-24 -25 -42 -34 -18 -9 -33 -18 -35 -19 -1 -1 5 -17 15 -34 l18 -32 -38 -34
c-25 -22 -37 -40 -35 -52 2 -10 8 -17 14 -16 38 6 251 23 301 23 61 0 91 14
56 27 -49 17 -70 67 -38 93 21 17 19 30 -5 30 -12 0 -32 11 -45 25 l-25 24 0
551 0 550 -27 0 c-16 0 -45 3 -65 6 l-38 7 -1 -59z"/>
</g>
</svg>
