<?xml version="1.0" standalone="no"?>
<!DOCTYPE svg PUBLIC "-//W3C//DTD SVG 20010904//EN"
 "http://www.w3.org/TR/2001/REC-SVG-20010904/DTD/svg10.dtd">
<svg version="1.0" xmlns="http://www.w3.org/2000/svg"
 width="2550.000000pt" height="2700.000000pt" viewBox="0 0 2550.000000 2700.000000"
 preserveAspectRatio="xMidYMid meet">

<g transform="translate(0.000000,2700.000000) scale(0.100000,-0.100000)"
fill="#C5C3C1" stroke="none">
<path d="M9145 14130 c-3 -5 -17 -10 -31 -10 l-24 0 0 -1745 c0 -1745 0 -1745
-20 -1745 -49 0 -51 -114 -2 -135 22 -9 23 -15 19 -70 -3 -33 -13 -85 -23
-115 -26 -81 -26 -310 0 -400 11 -36 21 -91 24 -122 4 -57 3 -58 -22 -58 -21
0 -26 -6 -32 -34 -8 -45 7 -88 34 -101 l22 -10 -2 -2140 -3 -2140 -40 -20
c-29 -14 -35 -20 -22 -23 15 -3 16 -10 10 -40 -3 -20 -7 -47 -7 -59 -1 -29
-13 -38 -30 -24 -22 18 -36 5 -36 -33 0 -32 3 -35 60 -56 33 -12 63 -27 66
-31 7 -11 57 -12 69 -1 6 5 48 14 95 21 132 19 130 18 130 57 0 24 -5 37 -17
41 -28 10 -63 45 -63 64 0 9 7 22 15 29 8 7 15 19 15 28 0 8 -3 13 -6 9 -10
-9 -62 21 -74 42 -7 13 -10 707 -10 2145 l0 2126 24 0 c27 0 36 16 36 66 0 46
-16 74 -40 74 -17 0 -20 7 -20 40 0 22 9 68 20 101 42 124 42 327 0 462 -11
34 -20 83 -20 110 0 43 2 47 24 47 27 0 36 16 36 66 0 46 -16 74 -40 74 -20 0
-20 17 -20 1750 l0 1750 -35 0 c-19 0 -35 5 -35 10 0 6 -4 10 -9 10 -6 0 -13
-4 -16 -10z m35 -4035 c0 -36 -4 -65 -9 -65 -12 0 -26 104 -16 119 16 26 25 6
25 -54z m-75 -4846 c-10 -15 -25 -10 -19 6 4 8 10 12 15 9 5 -3 7 -10 4 -15z"/>
</g>
</svg>
