<?xml version="1.0" standalone="no"?>
<!DOCTYPE svg PUBLIC "-//W3C//DTD SVG 20010904//EN"
 "http://www.w3.org/TR/2001/REC-SVG-20010904/DTD/svg10.dtd">
<svg version="1.0" xmlns="http://www.w3.org/2000/svg"
 width="2550.000000pt" height="2700.000000pt" viewBox="0 0 2550.000000 2700.000000"
 preserveAspectRatio="xMidYMid meet">

<g transform="translate(0.000000,2700.000000) scale(0.100000,-0.100000)"
fill="#C5C3C1" stroke="none">
<path d="M24750 26947 c0 -71 32 -171 70 -221 22 -29 30 -50 30 -81 0 -49 -6
-58 -31 -44 -15 8 -24 4 -45 -16 -20 -20 -25 -33 -22 -68 3 -39 6 -44 51 -66
l47 -23 0 -2135 c0 -1427 -3 -2141 -10 -2153 -6 -11 -28 -25 -50 -31 -36 -11
-55 -29 -30 -29 6 0 15 -11 21 -24 14 -31 -1 -60 -42 -81 -29 -16 -35 -43 -8
-37 8 2 84 13 169 23 85 11 160 22 166 24 6 2 9 17 6 34 -3 21 1 38 13 51 17
19 16 20 -27 39 -25 10 -48 27 -52 36 -3 9 -6 291 -6 625 0 395 -4 611 -10
615 -13 8 -14 477 0 491 6 6 11 458 12 1293 l3 1283 35 12 c44 14 74 63 65
107 -6 24 -16 35 -52 51 -24 11 -47 26 -50 35 -3 8 10 45 30 82 38 71 64 152
69 216 l3 40 -51 3 -52 3 -7 -48 c-9 -61 -41 -146 -66 -175 -19 -23 -19 -23
-34 -3 -22 28 -38 90 -41 160 l-3 60 -50 3 -51 3 0 -54z"/>
</g>
</svg>
