<?xml version="1.0" standalone="no"?>
<!DOCTYPE svg PUBLIC "-//W3C//DTD SVG 20010904//EN"
 "http://www.w3.org/TR/2001/REC-SVG-20010904/DTD/svg10.dtd">
<svg version="1.0" xmlns="http://www.w3.org/2000/svg"
 width="2550.000000pt" height="2700.000000pt" viewBox="0 0 2550.000000 2700.000000"
 preserveAspectRatio="xMidYMid meet">

<g transform="translate(0.000000,2700.000000) scale(0.100000,-0.100000)"
fill="#C5C3C1" stroke="none">
<path d="M12873 17228 l-63 -64 0 -1402 0 -1402 -26 0 c-59 0 -87 -46 -59
-100 13 -25 22 -30 50 -30 35 0 35 0 35 -45 0 -34 -7 -55 -29 -86 -44 -60 -66
-132 -65 -219 0 -92 13 -138 59 -215 27 -44 35 -68 33 -95 -3 -32 -6 -35 -38
-40 -45 -7 -70 -46 -52 -84 12 -27 16 -30 65 -40 l27 -6 0 -1955 0 -1955 -32
-20 c-18 -11 -37 -22 -43 -23 -5 -2 -1 -14 9 -26 16 -18 17 -25 8 -46 -7 -14
-22 -30 -36 -36 -18 -9 -23 -18 -21 -43 2 -28 7 -33 51 -48 48 -16 82 -16 249
-2 59 5 61 6 60 33 0 19 -12 39 -33 59 -38 35 -39 48 -11 78 l22 23 -26 6
c-14 4 -35 17 -46 29 l-21 22 2 1955 3 1954 35 5 c48 7 72 48 50 88 -10 18
-28 30 -53 36 -33 9 -37 13 -37 42 0 18 14 56 35 90 45 75 58 122 59 209 0 86
-23 167 -64 223 -23 32 -30 53 -30 87 0 42 2 45 26 45 39 0 62 17 69 50 9 43
-15 78 -57 82 l-33 3 -5 1463 -5 1463 -62 -63z m58 -3211 c18 -41 23 -71 23
-137 1 -75 -3 -93 -31 -152 -18 -38 -38 -68 -47 -68 -23 0 -64 81 -77 154 -18
96 7 210 59 269 14 16 17 16 33 1 9 -8 27 -39 40 -67z"/>
</g>
</svg>
