<?xml version="1.0" standalone="no"?>
<!DOCTYPE svg PUBLIC "-//W3C//DTD SVG 20010904//EN"
 "http://www.w3.org/TR/2001/REC-SVG-20010904/DTD/svg10.dtd">
<svg version="1.0" xmlns="http://www.w3.org/2000/svg"
 width="2550.000000pt" height="2700.000000pt" viewBox="0 0 2550.000000 2700.000000"
 preserveAspectRatio="xMidYMid meet">

<g transform="translate(0.000000,2700.000000) scale(0.100000,-0.100000)"
fill="#C5C3C1" stroke="none">
<path d="M13703 18069 l-53 -57 0 -1411 0 -1411 -28 0 c-56 0 -92 -69 -59
-113 6 -9 28 -18 47 -20 33 -2 35 -4 38 -45 2 -32 -3 -49 -21 -74 -60 -80 -71
-116 -72 -228 0 -94 3 -111 28 -165 16 -33 37 -70 48 -81 15 -16 19 -32 17
-60 -3 -37 -5 -39 -34 -36 -24 3 -36 -2 -48 -20 -35 -50 -11 -101 52 -114 l32
-6 0 -1495 c0 -937 -4 -1501 -10 -1512 -5 -10 -23 -24 -39 -31 -29 -11 -30
-14 -16 -33 22 -31 18 -53 -11 -76 -17 -13 -28 -33 -29 -51 -2 -25 3 -34 28
-46 24 -13 52 -15 155 -10 68 3 127 8 132 11 4 2 7 17 8 33 0 21 -7 35 -29 51
-33 24 -37 51 -12 77 13 13 15 18 5 22 -7 2 -26 15 -42 29 l-30 25 2 1506 c3
1499 3 1507 23 1508 65 3 96 44 70 94 -16 30 -20 33 -65 34 -22 1 -25 6 -28
40 -2 27 2 44 16 60 107 115 115 314 21 456 -32 48 -40 67 -37 97 3 33 7 38
28 39 46 2 49 4 65 34 14 27 14 33 1 59 -16 31 -34 41 -72 41 l-24 0 -2 1468
-3 1468 -52 -57z m-53 -2924 c0 -8 -7 -15 -15 -15 -8 0 -15 7 -15 15 0 8 7 15
15 15 8 0 15 -7 15 -15z m140 0 c0 -8 -7 -15 -15 -15 -8 0 -15 7 -15 15 0 8 7
15 15 15 8 0 15 -7 15 -15z m-28 -280 c54 -100 54 -220 0 -320 -23 -43 -31
-50 -57 -50 -27 0 -33 7 -60 60 -27 54 -30 69 -30 155 0 80 4 102 24 140 33
64 41 71 70 68 20 -2 33 -15 53 -53z m-114 -586 c-2 -6 -8 -10 -13 -10 -5 0
-11 4 -13 10 -2 6 4 11 13 11 9 0 15 -5 13 -11z m140 0 c-2 -6 -8 -10 -13 -10
-5 0 -11 4 -13 10 -2 6 4 11 13 11 9 0 15 -5 13 -11z"/>
</g>
</svg>
