<?xml version="1.0" standalone="no"?>
<!DOCTYPE svg PUBLIC "-//W3C//DTD SVG 20010904//EN"
 "http://www.w3.org/TR/2001/REC-SVG-20010904/DTD/svg10.dtd">
<svg version="1.0" xmlns="http://www.w3.org/2000/svg"
 width="2550.000000pt" height="2700.000000pt" viewBox="0 0 2550.000000 2700.000000"
 preserveAspectRatio="xMidYMid meet">

<g transform="translate(0.000000,2700.000000) scale(0.100000,-0.100000)"
fill="#3a4548" stroke="none">
<path d="M8740 15960 l0 -350 -50 0 -50 0 0 -2425 0 -2425 50 0 50 0 0 -370 0
-370 -41 -20 c-40 -21 -40 -22 -23 -41 14 -15 15 -24 6 -43 -6 -13 -20 -27
-32 -31 -17 -5 -20 -13 -18 -38 l3 -32 125 -3 c69 -1 144 1 165 6 34 6 41 12
43 35 3 20 -4 33 -22 48 -30 23 -33 45 -10 70 14 15 12 18 -23 35 l-38 19 -3
376 -2 377 22 6 c13 3 33 6 46 6 l22 0 0 2405 0 2405 -45 0 -45 0 -2 353 -3
352 -62 3 -63 3 0 -351z m96 -450 l24 0 0 -450 0 -450 -55 0 -55 0 0 456 0
457 31 -7 c17 -3 42 -6 55 -6z m0 -990 c24 0 24 0 24 -120 l0 -120 -55 0 -55
0 0 126 0 127 31 -7 c17 -3 42 -6 55 -6z m0 -330 l24 0 0 -1055 0 -1055 -55 0
-55 0 0 1061 0 1062 31 -7 c17 -3 42 -6 55 -6z m0 -2200 c24 0 24 -1 24 -105
l0 -105 -55 0 -55 0 0 111 0 112 31 -7 c17 -3 42 -6 55 -6z m0 -300 l24 0 0
-405 c0 -316 -3 -406 -12 -409 -7 -3 -32 -7 -55 -9 l-43 -5 0 420 0 421 31 -7
c17 -3 42 -6 55 -6z"/>
</g>
</svg>
