<?xml version="1.0" standalone="no"?>
<!DOCTYPE svg PUBLIC "-//W3C//DTD SVG 20010904//EN"
 "http://www.w3.org/TR/2001/REC-SVG-20010904/DTD/svg10.dtd">
<svg version="1.0" xmlns="http://www.w3.org/2000/svg"
 width="2550.000000pt" height="2700.000000pt" viewBox="0 0 2550.000000 2700.000000"
 preserveAspectRatio="xMidYMid meet">

<g transform="translate(0.000000,2700.000000) scale(0.100000,-0.100000)"
fill="#3a4548" stroke="none">
<path d="M9787 16233 c-4 -3 -7 -156 -7 -340 l0 -333 -45 0 -45 0 0 -2340 0
-2340 45 0 45 0 0 -354 0 -355 -26 -20 c-15 -12 -34 -21 -42 -21 -13 0 -13 -3
1 -18 24 -26 21 -49 -8 -68 -17 -11 -25 -25 -25 -45 0 -24 5 -29 33 -34 53
-10 179 -9 232 1 46 8 50 11 53 41 2 24 -1 33 -17 38 -26 8 -38 50 -21 70 15
18 15 17 -27 39 l-33 17 0 364 0 364 43 8 42 9 3 2316 2 2317 -42 3 -43 3 -3
334 c-2 253 -5 337 -15 343 -15 9 -91 11 -100 1z m103 -1196 l0 -432 -50 -1
-50 -1 0 433 0 434 50 0 50 0 0 -433z m0 -635 l0 -117 -50 -1 -50 -1 0 118 0
119 50 0 50 0 0 -118z m0 -1225 l0 -1022 -50 -1 -50 -1 0 1023 0 1024 50 0 50
0 0 -1023z m0 -1215 l0 -107 -50 -1 -50 -1 0 108 0 109 50 0 50 0 0 -108z m0
-581 l0 -388 -37 -7 c-21 -3 -44 -6 -50 -6 -10 0 -13 86 -13 395 l0 395 50 0
50 0 0 -389z"/>
</g>
</svg>
