<?xml version="1.0" standalone="no"?>
<!DOCTYPE svg PUBLIC "-//W3C//DTD SVG 20010904//EN"
 "http://www.w3.org/TR/2001/REC-SVG-20010904/DTD/svg10.dtd">
<svg version="1.0" xmlns="http://www.w3.org/2000/svg"
 width="2550.000000pt" height="2700.000000pt" viewBox="0 0 2550.000000 2700.000000"
 preserveAspectRatio="xMidYMid meet">

<g transform="translate(0.000000,2700.000000) scale(0.100000,-0.100000)"
fill="#3a4548" stroke="none">
<path d="M4851 15368 l-31 -42 0 -543 0 -543 -60 0 -60 0 0 -2526 0 -2527 60
6 60 5 0 -41 c3 -324 -2 -1390 -6 -1401 -3 -7 -23 -22 -45 -31 -36 -17 -38
-20 -24 -35 24 -26 18 -57 -15 -82 -22 -16 -30 -30 -30 -53 l0 -32 93 -8 c123
-10 130 -10 220 10 l77 18 0 34 c0 26 -5 35 -24 43 -14 5 -29 17 -34 27 -11
20 1 63 18 63 24 0 7 17 -32 30 l-43 15 -5 737 -5 737 35 6 c19 3 47 8 63 11
l27 6 0 2493 0 2494 -61 3 -62 3 -1 582 -1 583 -42 0 c-37 0 -44 -4 -72 -42z
m119 -1683 l0 -455 -80 0 -80 0 0 448 c0 247 3 452 7 455 3 4 39 7 80 7 l73 0
0 -455z m0 -670 l0 -115 -80 0 -80 0 0 108 c0 60 3 112 7 115 3 4 39 7 80 7
l73 0 0 -115z m0 -1310 l0 -1095 -80 0 -80 0 0 1088 c0 599 3 1092 7 1095 3 4
39 7 80 7 l73 0 0 -1095z m0 -1305 l0 -110 -80 0 -80 0 0 103 c0 57 3 107 7
110 3 4 39 7 80 7 l73 0 0 -110z m-2 -637 l-3 -428 -63 -13 c-34 -8 -69 -11
-77 -8 -13 5 -15 67 -15 434 0 236 3 432 7 435 3 4 39 7 80 7 l73 0 -2 -427z"/>
</g>
</svg>
