<?xml version="1.0" standalone="no"?>
<!DOCTYPE svg PUBLIC "-//W3C//DTD SVG 20010904//EN"
 "http://www.w3.org/TR/2001/REC-SVG-20010904/DTD/svg10.dtd">
<svg version="1.0" xmlns="http://www.w3.org/2000/svg"
 width="2550.000000pt" height="2700.000000pt" viewBox="0 0 2550.000000 2700.000000"
 preserveAspectRatio="xMidYMid meet">

<g transform="translate(0.000000,2700.000000) scale(0.100000,-0.100000)"
fill="#3a4548" stroke="none">
<path d="M7030 16055 l0 -365 -55 0 -55 0 0 -2566 0 -2566 55 4 55 3 0 -387
c0 -420 1 -410 -56 -424 -28 -7 -30 -16 -9 -34 24 -20 18 -49 -15 -68 -23 -13
-30 -24 -30 -49 0 -30 2 -32 48 -39 57 -9 177 -10 212 -1 14 3 42 9 63 12 34
6 37 8 37 40 0 24 -5 35 -15 35 -8 0 -22 11 -30 24 -13 19 -14 29 -5 45 6 12
15 21 20 21 23 0 7 19 -20 25 -62 14 -60 -1 -60 430 l0 393 55 7 55 6 -2 2537
-3 2537 -52 3 -53 3 0 370 0 369 -70 0 -70 0 0 -365z m109 -471 l31 -7 -2
-466 -3 -466 -44 -3 c-25 -2 -55 -1 -68 3 l-23 5 0 464 c0 254 3 466 7 469 8
9 61 9 102 1z m0 -1030 l32 -7 -3 -126 -3 -126 -44 -3 c-92 -7 -91 -8 -91 132
0 67 3 126 7 129 8 9 61 9 102 1z m0 -350 l31 -7 -2 -1121 -3 -1121 -44 -3
c-25 -2 -55 -1 -68 3 l-23 5 0 1119 c0 615 3 1121 7 1124 8 9 61 9 102 1z m0
-2340 l32 -7 -3 -106 -3 -106 -44 -3 c-90 -7 -91 -6 -91 112 0 56 3 106 7 109
8 9 61 9 102 1z m0 -310 l31 -6 0 -429 0 -428 -32 -5 c-18 -3 -49 -7 -68 -8
l-35 -3 -3 430 c-1 237 0 436 3 443 5 13 53 16 104 6z"/>
</g>
</svg>
