<?xml version="1.0" standalone="no"?>
<!DOCTYPE svg PUBLIC "-//W3C//DTD SVG 20010904//EN"
 "http://www.w3.org/TR/2001/REC-SVG-20010904/DTD/svg10.dtd">
<svg version="1.0" xmlns="http://www.w3.org/2000/svg"
 width="2550.000000pt" height="2700.000000pt" viewBox="0 0 2550.000000 2700.000000"
 preserveAspectRatio="xMidYMid meet">

<g transform="translate(0.000000,2700.000000) scale(0.100000,-0.100000)"
fill="#3a4548" stroke="none">
<path d="M7620 16021 l0 -360 -52 -3 -53 -3 0 -2510 0 -2510 53 -3 52 -3 0
-377 c0 -207 -4 -382 -8 -388 -4 -5 -22 -16 -39 -23 -38 -15 -38 -17 -18 -37
24 -24 18 -53 -15 -72 -23 -13 -30 -24 -30 -49 l0 -32 108 -3 c59 -2 139 2
177 7 69 10 70 11 73 42 3 26 -2 34 -25 45 -33 16 -41 49 -17 72 19 20 20 19
-29 39 l-37 16 2 393 3 393 30 3 c17 1 40 5 53 7 l22 5 0 2490 0 2490 -55 0
-55 0 0 365 0 365 -70 0 -70 0 0 -359z m140 -926 l0 -465 -65 0 -65 0 0 465 0
465 65 0 65 0 0 -465z m0 -680 l0 -125 -65 0 -65 0 0 125 0 125 65 0 65 0 0
-125z m0 -1315 l0 -1100 -65 0 -65 0 0 1100 0 1100 65 0 65 0 0 -1100z m0
-1305 l0 -115 -65 0 -65 0 0 115 0 115 65 0 65 0 0 -115z m0 -619 c0 -228 -3
-417 -7 -419 -5 -3 -34 -8 -65 -12 l-58 -7 0 426 0 426 65 0 65 0 0 -414z"/>
</g>
</svg>
