<?xml version="1.0" standalone="no"?>
<!DOCTYPE svg PUBLIC "-//W3C//DTD SVG 20010904//EN"
 "http://www.w3.org/TR/2001/REC-SVG-20010904/DTD/svg10.dtd">
<svg version="1.0" xmlns="http://www.w3.org/2000/svg"
 width="2550.000000pt" height="2700.000000pt" viewBox="0 0 2550.000000 2700.000000"
 preserveAspectRatio="xMidYMid meet">

<g transform="translate(0.000000,2700.000000) scale(0.100000,-0.100000)"
fill="#3a4548" stroke="none">
<path d="M14301 13511 c-8 -13 -11 -230 -11 -665 l0 -646 -50 0 -50 0 0 -2965
0 -2965 50 0 50 0 0 -827 c-1 -635 -3 -832 -13 -844 -7 -9 -28 -24 -47 -34
-46 -23 -46 -22 -26 -44 27 -29 17 -72 -21 -96 -29 -18 -33 -24 -30 -60 l2
-40 141 -12 141 -12 69 29 c67 28 69 30 71 67 3 33 -1 40 -30 58 -37 23 -49
73 -23 95 24 19 20 26 -24 39 -22 6 -44 20 -50 31 -7 13 -10 303 -10 868 l1
848 49 21 50 21 0 2921 0 2921 -45 0 -45 0 -1 68 c0 37 -1 330 -2 652 l-2 585
-67 3 c-58 3 -68 0 -77 -17z m119 -1971 l0 -550 -55 0 -55 0 0 538 c0 405 3
541 12 550 7 7 31 12 55 12 l43 0 0 -550z m0 -810 l0 -140 -55 0 -55 0 0 140
0 140 55 0 55 0 0 -140z m0 -1550 l0 -1290 -55 0 -55 0 0 1290 0 1290 55 0 55
0 0 -1290z m0 -1525 l0 -115 -55 0 -55 0 0 115 0 115 55 0 55 0 0 -115z m-2
-707 l-3 -473 -39 -18 c-21 -10 -45 -16 -52 -13 -12 4 -14 87 -14 491 l0 485
55 0 55 0 -2 -472z"/>
</g>
</svg>
