<?xml version="1.0" standalone="no"?>
<!DOCTYPE svg PUBLIC "-//W3C//DTD SVG 20010904//EN"
 "http://www.w3.org/TR/2001/REC-SVG-20010904/DTD/svg10.dtd">
<svg version="1.0" xmlns="http://www.w3.org/2000/svg"
 width="2550.000000pt" height="2700.000000pt" viewBox="0 0 2550.000000 2700.000000"
 preserveAspectRatio="xMidYMid meet">

<g transform="translate(0.000000,2700.000000) scale(0.100000,-0.100000)"
fill="#3a4548" stroke="none">
<path d="M18847 22152 l-48 -49 -1 -572 0 -572 -25 -10 c-13 -5 -50 -9 -82 -9
-32 0 -73 -3 -90 -6 l-31 -6 0 -2751 0 -2750 114 6 114 7 0 -343 c0 -378 1
-376 -62 -397 l-36 -11 22 -29 c18 -25 20 -33 10 -55 -7 -14 -23 -30 -37 -35
-23 -9 -26 -15 -23 -47 l3 -38 65 2 c36 1 122 2 193 2 l127 1 0 33 c0 26 -6
36 -25 45 -39 18 -52 55 -30 88 14 22 15 28 4 35 -8 5 -19 9 -26 9 -6 0 -21
12 -32 26 -20 25 -20 39 -20 370 l-1 344 105 0 105 0 0 2759 c0 2234 -2 2760
-13 2764 -7 2 -54 2 -105 -2 l-92 -6 1 614 c1 707 6 675 -84 583z m178 -1809
l1 -493 -41 -2 c-22 0 -46 -1 -53 -1 -7 1 -59 -5 -115 -13 -56 -7 -108 -14
-114 -14 -10 0 -13 106 -13 499 l0 499 63 6 c124 12 143 13 207 12 l65 -1 0
-492z m-2 -630 c6 -23 3 -220 -3 -227 -3 -2 -42 -7 -88 -10 -45 -4 -113 -11
-150 -16 -37 -5 -73 -10 -79 -10 -10 0 -13 32 -13 129 l0 129 63 6 c212 20
265 20 270 -1z m-2 -385 c1 -18 3 -549 4 -1180 l2 -1148 -41 -2 c-23 0 -47 -1
-54 -1 -7 1 -59 -5 -115 -13 -56 -7 -108 -14 -114 -14 -10 0 -13 243 -13 1184
l0 1184 63 6 c106 10 140 13 205 14 l62 2 1 -32z m1 -2460 c6 -17 3 -216 -2
-222 -3 -2 -42 -7 -88 -10 -45 -4 -113 -11 -150 -16 -37 -5 -73 -10 -79 -10
-10 0 -13 31 -13 124 l0 124 63 6 c192 18 264 19 269 4z m0 -390 c2 -24 4
-241 4 -483 l-1 -440 -40 -7 c-22 -4 -97 -7 -167 -7 l-128 -1 0 479 0 479 63
6 c105 10 140 13 203 14 l62 2 4 -42z"/>
</g>
</svg>
