<?xml version="1.0" standalone="no"?>
<!DOCTYPE svg PUBLIC "-//W3C//DTD SVG 20010904//EN"
 "http://www.w3.org/TR/2001/REC-SVG-20010904/DTD/svg10.dtd">
<svg version="1.0" xmlns="http://www.w3.org/2000/svg"
 width="2550.000000pt" height="2700.000000pt" viewBox="0 0 2550.000000 2700.000000"
 preserveAspectRatio="xMidYMid meet">

<g transform="translate(0.000000,2700.000000) scale(0.100000,-0.100000)"
fill="#3a4548" stroke="none">
<path d="M19922 23177 l-52 -52 -2 -605 -3 -605 -50 -2 c-27 -2 -78 -6 -113
-9 l-62 -6 2 -2771 3 -2772 113 1 112 1 -2 -811 -3 -811 -43 -23 c-40 -22 -42
-25 -28 -41 30 -33 8 -101 -32 -101 -7 0 -12 -16 -12 -40 l0 -40 190 0 190 0
0 40 c0 27 -4 40 -13 40 -39 0 -62 75 -31 101 14 11 12 14 -13 27 -69 35 -63
-42 -63 854 l0 808 108 0 107 0 -2 2777 c-1 1527 -5 2783 -8 2791 -4 11 -24
12 -105 7 l-100 -8 0 640 c0 628 -2 663 -30 663 -3 0 -29 -24 -58 -53z m181
-1384 c3 -10 4 -234 3 -498 l-1 -480 -172 -3 -173 -2 0 485 c0 380 3 487 13
490 12 4 214 21 289 24 27 1 38 -3 41 -16z m-2 -1110 c1 -5 2 -63 4 -130 l3
-123 -72 0 c-39 0 -117 -3 -173 -7 l-103 -6 0 122 c0 88 3 123 13 126 12 4
215 21 290 24 20 0 38 -2 38 -6z m0 -380 c5 -25 4 -2355 0 -2362 -3 -5 -81
-12 -173 -16 l-168 -7 0 1181 c0 936 3 1183 13 1186 12 4 215 21 290 24 20 0
38 -2 38 -6z m1 -2505 c1 -7 2 -61 2 -119 l1 -107 -155 -6 c-85 -4 -163 -9
-172 -12 -16 -5 -18 5 -18 111 0 83 3 117 13 120 12 4 215 21 290 24 23 0 38
-4 39 -11z m0 -360 c2 -7 4 -227 4 -488 l-1 -475 -165 -5 c-91 -3 -168 -4
-172 -2 -5 2 -8 217 -8 478 0 371 3 476 13 479 12 4 213 21 288 24 22 0 39 -4
41 -11z"/>
</g>
</svg>
