<?xml version="1.0" standalone="no"?>
<!DOCTYPE svg PUBLIC "-//W3C//DTD SVG 20010904//EN"
 "http://www.w3.org/TR/2001/REC-SVG-20010904/DTD/svg10.dtd">
<svg version="1.0" xmlns="http://www.w3.org/2000/svg"
 width="2550.000000pt" height="2700.000000pt" viewBox="0 0 2550.000000 2700.000000"
 preserveAspectRatio="xMidYMid meet">

<g transform="translate(0.000000,2700.000000) scale(0.100000,-0.100000)"
fill="#3a4548" stroke="none">
<path d="M21021 24232 l-52 -47 -2 -590 -2 -590 -95 -8 c-52 -5 -105 -10 -117
-13 l-23 -4 0 -2794 c0 -2302 2 -2795 13 -2799 7 -3 57 -3 111 0 77 4 100 2
107 -8 5 -8 8 -165 8 -349 0 -371 2 -357 -67 -386 l-33 -13 20 -23 c12 -12 21
-29 21 -38 0 -19 -40 -60 -58 -60 -7 0 -12 -14 -12 -32 l0 -31 137 6 c75 4
162 7 195 7 50 0 58 3 58 18 0 11 -11 24 -25 30 -39 18 -52 55 -30 88 14 22
15 28 4 35 -8 5 -19 9 -25 9 -6 0 -19 9 -30 21 -18 20 -19 42 -20 379 l0 358
25 -1 c14 -1 63 0 109 1 l82 2 0 2809 c0 2238 -3 2810 -12 2814 -7 3 -55 2
-105 -1 l-93 -5 -1 89 c0 49 -1 329 -1 622 -1 616 4 587 -87 504z m179 -1509
c1 -434 -1 -837 -3 -840 -5 -4 -331 -20 -342 -17 -16 6 -8 993 8 999 16 6 206
22 280 24 l57 1 0 -167z m0 -1091 l0 -118 -122 -12 c-68 -7 -147 -12 -175 -12
l-53 0 0 115 c0 84 3 117 13 120 16 6 205 22 280 24 l57 1 0 -118z m2 -909 c2
-362 2 -902 0 -1200 l-2 -541 -108 -6 c-59 -3 -137 -8 -174 -11 l-68 -5 0
1195 c0 947 3 1197 13 1200 16 6 205 22 279 24 l58 1 2 -657z m-2 -1987 l0
-113 -92 -7 c-51 -3 -130 -9 -175 -12 l-83 -6 0 111 c0 80 4 113 13 116 16 6
205 22 280 24 l57 1 0 -114z m0 -736 l0 -490 -53 0 c-30 0 -109 -3 -175 -7
l-122 -6 0 482 c0 376 3 483 13 486 16 6 205 22 280 24 l57 1 0 -490z"/>
</g>
</svg>
