<?xml version="1.0" standalone="no"?>
<!DOCTYPE svg PUBLIC "-//W3C//DTD SVG 20010904//EN"
 "http://www.w3.org/TR/2001/REC-SVG-20010904/DTD/svg10.dtd">
<svg version="1.0" xmlns="http://www.w3.org/2000/svg"
 width="2550.000000pt" height="2700.000000pt" viewBox="0 0 2550.000000 2700.000000"
 preserveAspectRatio="xMidYMid meet">

<g transform="translate(0.000000,2700.000000) scale(0.100000,-0.100000)"
fill="#3a4548" stroke="none">
<path d="M23261 26377 l-52 -54 1 -139 c1 -76 1 -344 1 -595 l-1 -456 -117
-12 c-64 -6 -118 -13 -120 -15 -6 -6 -3 -5689 3 -5695 3 -3 57 -4 120 -3 l114
4 0 -355 c0 -387 2 -371 -59 -396 l-30 -13 21 -29 c18 -24 20 -32 10 -54 -7
-14 -23 -30 -38 -35 -16 -6 -24 -16 -22 -27 3 -15 17 -17 113 -15 61 1 145 5
187 8 l77 6 -30 25 c-32 27 -38 63 -14 83 22 19 19 25 -24 45 -23 10 -42 26
-45 39 -3 11 -6 179 -6 373 l0 351 115 7 115 7 0 2858 c0 2274 -3 2860 -12
2867 -8 6 -42 7 -88 2 -41 -4 -87 -8 -102 -8 l-28 -1 0 634 c0 569 -2 634 -16
640 -9 3 -17 6 -18 6 -1 0 -25 -24 -55 -53z m199 -1861 l0 -504 -27 -6 c-25
-5 -128 -16 -291 -31 l-52 -5 2 507 3 508 155 16 c85 9 167 17 183 18 l27 1 0
-504z m0 -760 l0 -114 -27 -6 c-25 -5 -127 -16 -291 -31 l-53 -5 3 117 3 118
155 16 c85 9 167 17 183 18 l27 1 0 -114z m0 -1475 l0 -1219 -27 -6 c-25 -5
-128 -16 -291 -31 l-52 -5 2 1222 3 1223 155 16 c85 9 167 17 183 18 l27 1 0
-1219z m0 -1485 l0 -124 -27 -6 c-25 -5 -127 -16 -291 -31 l-53 -5 3 127 3
128 155 16 c85 9 167 17 183 18 l27 1 0 -124z m0 -756 c0 -384 -3 -491 -12
-494 -7 -3 -91 -7 -186 -10 l-172 -6 2 482 3 483 155 16 c85 9 167 17 183 18
l27 1 0 -490z"/>
</g>
</svg>
