<?xml version="1.0" standalone="no"?>
<!DOCTYPE svg PUBLIC "-//W3C//DTD SVG 20010904//EN"
 "http://www.w3.org/TR/2001/REC-SVG-20010904/DTD/svg10.dtd">
<svg version="1.0" xmlns="http://www.w3.org/2000/svg"
 width="2550.000000pt" height="2700.000000pt" viewBox="0 0 2550.000000 2700.000000"
 preserveAspectRatio="xMidYMid meet">

<g transform="translate(0.000000,2700.000000) scale(0.100000,-0.100000)"
fill="#3a4548" stroke="none">
<path d="M25290 26968 c-1 -43 -1 -5451 0 -5461 0 -4 46 -6 103 -5 l102 3 3
67 3 67 -66 -5 -65 -4 0 490 0 490 65 0 65 0 0 65 0 64 -65 -5 -65 -4 0 125 0
125 65 0 65 0 0 65 0 64 -65 -5 -65 -4 0 1225 0 1225 65 0 65 0 0 65 0 64 -65
-5 -65 -4 0 150 0 150 65 0 65 0 0 65 0 64 -65 -5 -65 -4 0 455 0 455 -40 0
c-38 0 -40 -1 -40 -32z"/>
<path d="M25473 20748 l-22 -10 21 -28 c25 -34 17 -65 -23 -89 -35 -22 -31
-28 16 -23 l35 4 0 79 c0 43 -1 79 -2 78 -2 0 -13 -5 -25 -11z"/>
</g>
</svg>
