<?xml version="1.0" standalone="no"?>
<!DOCTYPE svg PUBLIC "-//W3C//DTD SVG 20010904//EN"
 "http://www.w3.org/TR/2001/REC-SVG-20010904/DTD/svg10.dtd">
<svg version="1.0" xmlns="http://www.w3.org/2000/svg"
 width="2550.000000pt" height="2700.000000pt" viewBox="0 0 2550.000000 2700.000000"
 preserveAspectRatio="xMidYMid meet">

<g transform="translate(0.000000,2700.000000) scale(0.100000,-0.100000)"
fill="#3a4548" stroke="none">
<path d="M12693 13533 l-33 -4 -2 -682 -3 -682 -48 -3 -47 -3 2 -2917 3 -2917
47 -3 47 -3 3 -87 c5 -131 -1 -1524 -7 -1547 -2 -12 -23 -30 -50 -43 l-45 -22
20 -20 c11 -11 20 -29 20 -40 0 -22 -41 -70 -60 -70 -5 0 -10 -20 -10 -44 l0
-44 106 -7 c59 -4 119 -11 134 -15 16 -5 31 -5 35 -2 4 4 39 19 78 33 l72 26
3 42 c2 32 0 41 -13 41 -9 0 -27 11 -41 25 -27 27 -26 54 3 86 12 15 9 18 -29
34 -24 9 -46 22 -50 28 -4 7 -8 391 -8 853 l0 842 50 18 50 18 0 1905 c-1
1049 1 2345 2 2881 l3 975 -45 -1 c-25 -1 -48 4 -52 10 -4 6 -8 311 -8 679 l0
667 -47 -2 c-27 0 -63 -3 -80 -5z m105 -1982 l2 -502 -37 -15 c-21 -8 -46 -19
-55 -24 -13 -7 -18 -4 -22 18 -3 15 -4 250 -2 522 l4 495 43 6 c24 3 49 5 54
4 6 -1 11 -179 13 -504z m0 -783 l-3 -122 -41 -16 c-23 -8 -48 -20 -56 -27
-12 -10 -14 5 -17 116 l-2 128 53 20 c29 12 57 21 61 22 4 0 6 -54 5 -121z m2
-1529 l0 -1250 -37 -15 c-21 -8 -45 -19 -55 -24 -12 -6 -18 -5 -22 6 -3 9 -6
571 -6 1250 0 967 3 1235 13 1241 14 9 88 40 100 42 4 1 7 -562 7 -1250z m0
-1515 l0 -115 -37 -15 c-21 -8 -46 -19 -55 -24 -24 -14 -30 13 -26 125 3 89 3
90 33 103 17 7 41 19 55 26 14 8 26 15 28 15 1 1 2 -51 2 -115z m0 -735 l0
-460 -35 -15 c-19 -8 -45 -15 -57 -17 l-23 -2 -3 449 c-1 297 1 453 8 460 9 9
85 43 103 45 4 1 7 -206 7 -460z"/>
</g>
</svg>
