<?xml version="1.0" standalone="no"?>
<!DOCTYPE svg PUBLIC "-//W3C//DTD SVG 20010904//EN"
 "http://www.w3.org/TR/2001/REC-SVG-20010904/DTD/svg10.dtd">
<svg version="1.0" xmlns="http://www.w3.org/2000/svg"
 width="2550.000000pt" height="2700.000000pt" viewBox="0 0 2550.000000 2700.000000"
 preserveAspectRatio="xMidYMid meet">

<g transform="translate(0.000000,2700.000000) scale(0.100000,-0.100000)"
fill="#3a4548" stroke="none">
<path d="M13166 13546 l-26 -45 0 -624 c0 -692 6 -637 -66 -637 l-34 0 0
-2866 0 -2866 50 4 50 3 0 -798 c0 -530 -3 -805 -10 -818 -6 -10 -29 -28 -50
-39 l-40 -21 20 -28 c18 -23 19 -32 10 -53 -7 -13 -25 -32 -41 -42 -23 -13
-29 -24 -29 -50 0 -40 7 -42 180 -51 106 -6 120 -5 175 17 58 23 60 25 63 64
3 35 0 42 -23 52 -14 6 -30 23 -37 37 -10 21 -8 30 9 54 l21 28 -36 13 c-21 7
-43 17 -49 22 -10 8 -13 189 -13 842 l0 831 50 18 50 18 0 2830 0 2830 -50 -7
-50 -7 0 667 0 666 -49 0 c-47 0 -50 -1 -75 -44z m102 -1908 l-3 -503 -42 -13
c-24 -8 -43 -18 -43 -24 0 -5 -4 -6 -10 -3 -11 7 -15 1027 -3 1038 3 4 28 7
55 7 l48 0 -2 -502z m0 -755 l-3 -108 -42 -13 c-24 -8 -43 -18 -43 -24 0 -5
-4 -6 -10 -3 -6 4 -10 53 -10 115 l0 108 43 15 c70 25 68 29 65 -90z m0 -1475
l-3 -1223 -42 -13 c-24 -8 -43 -18 -43 -24 0 -5 -4 -6 -10 -3 -7 4 -10 425
-10 1230 l0 1223 43 15 c23 9 48 16 55 16 10 1 12 -246 10 -1221z m0 -1475
l-3 -108 -42 -13 c-24 -8 -43 -18 -43 -24 0 -5 -4 -6 -10 -3 -6 4 -10 53 -10
115 l0 108 43 15 c70 25 68 29 65 -90z m0 -740 l-3 -488 -42 -13 c-24 -8 -43
-18 -43 -24 0 -5 -4 -6 -10 -3 -6 4 -10 180 -10 495 l0 488 43 15 c23 9 48 16
55 16 10 1 12 -99 10 -486z"/>
</g>
</svg>
