<?xml version="1.0" standalone="no"?>
<!DOCTYPE svg PUBLIC "-//W3C//DTD SVG 20010904//EN"
 "http://www.w3.org/TR/2001/REC-SVG-20010904/DTD/svg10.dtd">
<svg version="1.0" xmlns="http://www.w3.org/2000/svg"
 width="2550.000000pt" height="2700.000000pt" viewBox="0 0 2550.000000 2700.000000"
 preserveAspectRatio="xMidYMid meet">

<g transform="translate(0.000000,2700.000000) scale(0.100000,-0.100000)"
fill="#3a4548" stroke="none">
<path d="M15728 19169 l-48 -41 0 -583 c0 -433 -3 -586 -12 -591 -6 -4 -56 -9
-110 -12 l-98 -5 0 -2678 0 -2678 107 -3 108 -3 3 -765 c1 -421 0 -775 -3
-787 -3 -14 -22 -31 -46 -44 -38 -19 -40 -22 -25 -38 24 -27 19 -56 -14 -84
-23 -20 -30 -34 -30 -61 l0 -36 138 0 c75 0 161 3 190 6 l52 7 0 37 c0 29 -5
39 -19 43 -10 2 -27 17 -36 31 -17 26 -17 28 3 56 l21 28 -30 13 c-63 26 -59
-31 -59 818 l0 778 53 -5 c36 -3 65 1 95 14 l42 19 0 2672 0 2672 -20 6 c-12
4 -54 3 -95 0 l-75 -7 -2 628 c-3 621 -3 629 -23 631 -11 2 -40 -15 -67 -38z
m166 -1823 l1 -483 -119 -7 c-66 -3 -136 -6 -158 -6 l-38 0 0 490 0 490 23 5
c36 8 271 11 281 3 6 -5 10 -202 10 -492z m-2 -720 c1 -64 -1 -118 -3 -120 -2
-2 -73 -7 -156 -11 l-153 -8 0 127 c0 122 1 126 23 131 33 8 271 11 280 4 5
-4 9 -59 9 -123z m2 -1382 c-1 -624 -3 -1136 -5 -1138 -2 -2 -73 -7 -156 -11
l-153 -8 0 1147 0 1146 23 5 c37 9 271 11 282 2 6 -5 9 -406 9 -1143z m1
-1388 l2 -126 -46 0 c-25 0 -97 -3 -158 -7 l-113 -6 0 131 c0 128 1 132 23
137 34 8 271 11 281 3 5 -3 10 -63 11 -132z m-2 -708 l-1 -463 -123 -1 c-68
-1 -139 0 -156 3 l-33 5 0 459 c0 253 1 460 3 461 10 6 294 11 301 6 6 -5 10
-192 9 -470z"/>
</g>
</svg>
