<?xml version="1.0" standalone="no"?>
<!DOCTYPE svg PUBLIC "-//W3C//DTD SVG 20010904//EN"
 "http://www.w3.org/TR/2001/REC-SVG-20010904/DTD/svg10.dtd">
<svg version="1.0" xmlns="http://www.w3.org/2000/svg"
 width="2550.000000pt" height="2700.000000pt" viewBox="0 0 2550.000000 2700.000000"
 preserveAspectRatio="xMidYMid meet">

<g transform="translate(0.000000,2700.000000) scale(0.100000,-0.100000)"
fill="#3a4548" stroke="none">
<path d="M16747 20142 l-47 -48 -2 -564 c-3 -557 -3 -565 -23 -567 -11 -1 -59
-5 -107 -8 l-88 -7 0 -2699 0 -2698 108 -3 107 -3 3 -330 c1 -181 0 -339 -2
-351 -3 -12 -22 -28 -46 -39 -44 -20 -47 -26 -25 -45 30 -25 5 -90 -34 -90 -8
0 -11 -14 -9 -42 l3 -42 115 -4 c63 -1 148 0 188 3 l72 7 0 36 c0 30 -5 40
-29 53 -37 21 -44 52 -20 83 l19 24 -31 12 c-61 26 -59 10 -59 386 l0 344 98
-2 97 -3 3 2713 2 2712 -27 1 c-16 0 -61 0 -100 -1 l-73 -1 0 604 c0 542 -2
605 -16 611 -25 10 -27 8 -77 -42z m171 -1788 l2 -501 -91 -6 c-51 -4 -123 -7
-161 -7 l-68 0 0 500 0 500 23 5 c21 5 187 12 257 11 l35 -1 3 -501z m0 -730
l3 -121 -92 -6 c-51 -4 -123 -7 -161 -7 l-69 0 3 123 3 122 120 6 c66 3 136 5
155 5 l35 -1 3 -121z m0 -1395 l2 -1166 -91 -6 c-51 -4 -123 -7 -161 -7 l-68
0 2 1168 3 1167 120 6 c66 3 136 5 155 5 l35 -1 3 -1166z m0 -1395 l3 -121
-92 -6 c-51 -4 -123 -7 -161 -7 l-69 0 3 123 3 122 120 6 c66 3 136 5 155 5
l35 -1 3 -121z m0 -706 l2 -478 -160 0 -160 0 2 473 3 472 120 6 c66 3 136 5
155 5 l35 -1 3 -477z"/>
</g>
</svg>
