<?xml version="1.0" standalone="no"?>
<!DOCTYPE svg PUBLIC "-//W3C//DTD SVG 20010904//EN"
 "http://www.w3.org/TR/2001/REC-SVG-20010904/DTD/svg10.dtd">
<svg version="1.0" xmlns="http://www.w3.org/2000/svg"
 width="2550.000000pt" height="2700.000000pt" viewBox="0 0 2550.000000 2700.000000"
 preserveAspectRatio="xMidYMid meet">

<g transform="translate(0.000000,2700.000000) scale(0.100000,-0.100000)"
fill="#3a4548" stroke="none">
<path d="M17791 21144 l-51 -46 0 -598 0 -597 -52 -7 c-29 -3 -79 -6 -110 -6
l-58 0 0 -1042 c0 -815 0 -3153 0 -4260 l0 -148 110 0 110 0 0 -794 c0 -869 4
-809 -59 -836 -35 -14 -38 -22 -16 -40 24 -20 18 -56 -15 -83 -23 -20 -30 -34
-30 -60 0 -43 3 -43 190 -41 193 3 184 1 188 52 3 35 0 42 -15 42 -10 0 -27
14 -37 31 -18 30 -18 32 2 59 l21 28 -38 15 c-21 9 -41 23 -45 32 -3 9 -6 372
-6 806 l0 789 90 0 c78 0 91 2 100 19 7 14 10 882 10 2735 0 2580 -1 2716 -17
2717 -10 1 -55 0 -100 -1 l-83 -2 0 631 c0 610 -1 631 -19 641 -16 8 -28 2
-70 -36z m169 -1848 l0 -494 -23 -6 c-13 -3 -87 -9 -165 -12 l-142 -7 0 489
c0 269 4 494 8 501 8 12 67 18 230 21 l92 2 0 -494z m0 -740 c0 -147 19 -132
-188 -142 l-142 -7 0 119 c0 65 4 124 8 131 8 12 67 18 230 21 l92 2 0 -124z
m0 -1415 l0 -1169 -23 -6 c-13 -3 -87 -9 -165 -12 l-142 -7 0 1164 c0 640 4
1169 8 1176 8 12 67 18 230 21 l92 2 0 -1169z m0 -1405 c0 -135 18 -122 -188
-132 l-142 -7 0 109 c0 60 4 114 8 121 8 12 67 18 230 21 l92 2 0 -114z m0
-716 l0 -480 -162 2 -163 3 -3 450 c-1 248 0 460 3 472 6 24 24 27 233 31 l92
2 0 -480z"/>
</g>
</svg>
