<?xml version="1.0" standalone="no"?>
<!DOCTYPE svg PUBLIC "-//W3C//DTD SVG 20010904//EN"
 "http://www.w3.org/TR/2001/REC-SVG-20010904/DTD/svg10.dtd">
<svg version="1.0" xmlns="http://www.w3.org/2000/svg"
 width="2550.000000pt" height="2700.000000pt" viewBox="0 0 2550.000000 2700.000000"
 preserveAspectRatio="xMidYMid meet">

<g transform="translate(0.000000,2700.000000) scale(0.100000,-0.100000)"
fill="#65340A" stroke="none">
<path d="M17252 21457 c-23 -24 -40 -45 -37 -48 4 -5 6 -506 5 -1333 0 -230
-2 -257 -16 -252 -8 3 -28 -1 -44 -9 -52 -27 -53 -98 -3 -131 16 -10 36 -17
46 -17 31 3 21 -54 -23 -119 -52 -78 -63 -123 -58 -233 4 -94 21 -141 74 -211
26 -34 37 -131 12 -106 -31 31 -88 -11 -88 -65 0 -34 33 -68 76 -79 l24 -6 2
-347 c2 -190 2 -540 0 -777 l-2 -431 -30 0 c-41 0 -70 -29 -70 -70 0 -49 37
-80 88 -74 28 4 12 -68 -28 -130 -52 -81 -63 -125 -58 -234 4 -94 21 -141 74
-211 15 -19 24 -44 24 -67 0 -36 -1 -36 -31 -30 -26 5 -35 2 -50 -18 -10 -13
-19 -39 -19 -57 0 -26 6 -36 33 -52 17 -11 40 -20 49 -20 16 0 18 -24 20 -312
2 -172 2 -559 0 -861 l-2 -547 -33 -20 c-17 -11 -36 -22 -42 -23 -5 -2 -2 -13
8 -24 24 -27 21 -49 -8 -75 -31 -27 -37 -98 -7 -99 27 -1 223 -1 265 0 l37 1
0 46 c0 43 -2 46 -22 41 -23 -6 -48 8 -48 26 0 5 9 2 20 -8 11 -10 20 -13 20
-7 0 6 -4 14 -10 17 -15 9 -12 41 5 55 22 18 19 24 -20 43 l-35 17 -2 342 c-1
189 -2 579 -2 868 l-1 525 24 -3 c34 -5 71 34 71 75 0 42 -30 73 -70 73 -26 0
-30 4 -30 26 0 15 15 50 33 78 53 81 67 127 67 221 0 95 -20 162 -66 222 -18
24 -28 51 -31 84 l-3 49 30 -7 c39 -7 70 19 70 59 0 44 -16 66 -59 79 l-39 12
0 778 0 778 29 -1 c40 -1 69 27 69 69 0 42 -38 83 -76 83 -25 0 -26 2 -20 32
3 18 18 49 32 69 46 67 66 137 66 226 -1 87 -18 141 -67 213 -14 21 -26 56
-29 88 -5 49 -4 52 14 42 27 -14 37 -13 60 10 30 30 27 83 -7 109 -14 12 -36
24 -49 27 l-23 6 1 831 1 832 -24 3 c-17 2 -36 -9 -67 -41z m-22 -1691 c0 -3
-4 -8 -10 -11 -5 -3 -10 -1 -10 4 0 6 5 11 10 11 6 0 10 -2 10 -4z m110 -281
c47 -94 37 -246 -22 -328 -71 -100 -161 107 -114 264 24 84 51 121 84 117 21
-2 32 -14 52 -53z m65 -605 c-3 -5 -12 -10 -18 -10 -7 0 -6 4 3 10 19 12 23
12 15 0z m-185 -1640 c0 -5 -4 -10 -10 -10 -5 0 -10 5 -10 10 0 6 5 10 10 10
6 0 10 -4 10 -10z m99 -246 c58 -73 68 -233 20 -328 -43 -87 -75 -87 -118 -2
-29 58 -40 174 -21 232 20 64 59 124 80 124 10 0 28 -12 39 -26z m37 -621
c-10 -10 -19 5 -10 18 6 11 8 11 12 0 2 -7 1 -15 -2 -18z m-136 7 c0 -5 -4
-10 -10 -10 -5 0 -10 5 -10 10 0 6 5 10 10 10 6 0 10 -4 10 -10z m180 -1820
c0 -17 -13 -17 -31 1 -26 26 -24 31 6 17 14 -6 25 -14 25 -18z"/>
</g>
</svg>
