<?xml version="1.0" standalone="no"?>
<!DOCTYPE svg PUBLIC "-//W3C//DTD SVG 20010904//EN"
 "http://www.w3.org/TR/2001/REC-SVG-20010904/DTD/svg10.dtd">
<svg version="1.0" xmlns="http://www.w3.org/2000/svg"
 width="2550.000000pt" height="2700.000000pt" viewBox="0 0 2550.000000 2700.000000"
 preserveAspectRatio="xMidYMid meet">

<g transform="translate(0.000000,2700.000000) scale(0.100000,-0.100000)"
fill="#65340A" stroke="none">
<path d="M23910 26986 c0 -6 9 -22 20 -36 14 -17 20 -41 20 -77 0 -52 0 -52
-28 -47 -33 7 -56 -16 -65 -62 -7 -39 9 -64 54 -78 l34 -11 3 -863 c2 -836 2
-863 -16 -858 -25 8 -68 -27 -75 -61 -8 -43 9 -71 53 -89 36 -15 40 -20 40
-51 0 -19 -11 -53 -24 -76 -86 -149 -87 -380 -2 -492 20 -26 26 -45 26 -84 l0
-51 -32 2 c-29 3 -35 -1 -51 -34 -16 -32 -17 -41 -5 -64 8 -17 27 -32 48 -39
l35 -12 3 -934 c1 -514 0 -944 -3 -956 -4 -15 -18 -26 -45 -34 -44 -13 -48
-20 -25 -39 32 -26 4 -85 -47 -102 -6 -2 -9 -9 -5 -15 4 -7 29 -6 79 2 40 7
119 18 175 25 l101 13 -9 25 c-7 18 -5 31 7 49 8 14 14 26 12 28 -2 2 -26 10
-53 16 -55 14 -80 29 -49 29 19 0 19 15 19 957 l0 958 33 3 c37 4 65 37 65 78
0 32 -22 54 -65 68 -47 15 -47 43 1 139 81 165 80 333 -4 457 -29 44 -35 61
-35 107 l0 55 29 -7 c33 -7 57 12 67 51 12 45 -3 70 -51 88 l-45 18 0 859 0
859 25 0 c41 0 77 43 73 88 -3 33 -8 40 -50 61 -55 28 -61 50 -28 103 11 18
20 36 20 41 0 4 -52 7 -115 6 -78 -1 -115 -5 -115 -13z m148 -2348 c44 -85 54
-190 27 -290 -15 -60 -52 -138 -65 -138 -27 0 -61 96 -62 180 -2 77 16 157 49
223 26 53 35 57 51 25z"/>
</g>
</svg>
