<?xml version="1.0" standalone="no"?>
<!DOCTYPE svg PUBLIC "-//W3C//DTD SVG 20010904//EN"
 "http://www.w3.org/TR/2001/REC-SVG-20010904/DTD/svg10.dtd">
<svg version="1.0" xmlns="http://www.w3.org/2000/svg"
 width="2550.000000pt" height="2700.000000pt" viewBox="0 0 2550.000000 2700.000000"
 preserveAspectRatio="xMidYMid meet">

<g transform="translate(0.000000,2700.000000) scale(0.100000,-0.100000)"
fill="#65340A" stroke="none">
<path d="M10394 14587 c-12 -15 -26 -27 -31 -27 -5 0 -25 -19 -45 -43 l-36
-43 0 -731 c0 -402 -2 -735 -6 -741 -3 -6 -15 -8 -25 -5 -11 3 -28 -4 -40 -16
-36 -36 -22 -111 22 -111 60 -1 65 -57 15 -157 -20 -40 -42 -99 -48 -130 -21
-101 3 -240 55 -317 17 -26 25 -50 25 -81 0 -43 -1 -45 -28 -45 -37 0 -62 -28
-62 -68 0 -39 23 -62 61 -62 l29 0 0 -835 0 -835 -28 0 c-41 0 -64 -30 -60
-76 3 -38 14 -49 61 -59 24 -5 27 -10 27 -45 0 -26 -11 -59 -29 -93 -44 -78
-64 -168 -58 -257 5 -79 35 -172 67 -213 13 -17 20 -41 20 -71 0 -46 0 -46
-35 -46 -39 0 -55 -20 -55 -68 0 -33 16 -50 57 -61 l28 -7 5 -210 c8 -294 3
-1585 -5 -1607 -4 -10 -23 -24 -42 -32 -34 -14 -34 -15 -17 -40 21 -32 7 -69
-31 -87 -22 -10 -26 -17 -23 -47 3 -35 3 -35 76 -52 59 -13 89 -15 150 -7 154
19 157 20 160 52 3 23 -4 34 -32 58 -40 33 -44 52 -18 81 12 14 13 21 5 24 -7
2 -27 14 -45 27 l-33 22 0 914 0 915 29 0 c33 1 66 35 66 69 0 32 -28 66 -54
66 -53 0 -60 47 -17 117 50 82 65 139 65 243 0 104 -20 174 -69 240 -16 22
-25 47 -25 71 0 41 13 55 47 51 42 -6 70 71 40 112 -7 10 -29 21 -47 25 l-35
7 0 824 0 825 32 3 c37 4 63 33 63 72 0 37 -21 61 -60 69 -30 6 -35 11 -38 38
-2 20 5 43 22 68 49 71 68 142 68 245 0 103 -19 174 -68 245 -19 28 -24 48
-22 79 3 38 5 41 35 44 35 4 63 33 63 67 0 34 -28 63 -63 67 l-32 3 -5 805 -5
805 -21 -28z m6 -1945 c26 -68 29 -196 7 -258 -20 -56 -46 -104 -55 -104 -15
0 -52 92 -64 158 -9 56 -9 79 5 141 21 90 53 147 73 130 7 -6 23 -36 34 -67z
m1 -2660 c31 -83 24 -212 -15 -299 -16 -35 -32 -63 -35 -63 -14 0 -50 89 -61
149 -13 75 2 174 37 244 29 59 42 53 74 -31z"/>
</g>
</svg>
