<?xml version="1.0" standalone="no"?>
<!DOCTYPE svg PUBLIC "-//W3C//DTD SVG 20010904//EN"
 "http://www.w3.org/TR/2001/REC-SVG-20010904/DTD/svg10.dtd">
<svg version="1.0" xmlns="http://www.w3.org/2000/svg"
 width="2550.000000pt" height="2700.000000pt" viewBox="0 0 2550.000000 2700.000000"
 preserveAspectRatio="xMidYMid meet">

<g transform="translate(0.000000,2700.000000) scale(0.100000,-0.100000)"
fill="#65340A" stroke="none">
<path d="M11183 15447 l-63 -72 0 -727 0 -728 -28 0 c-35 0 -62 -28 -62 -64 0
-46 17 -66 55 -66 35 0 35 0 35 -45 0 -31 -8 -58 -24 -83 -36 -58 -58 -129
-63 -208 -7 -89 9 -160 53 -242 22 -41 34 -76 34 -102 0 -38 -1 -39 -37 -42
-31 -2 -39 -8 -47 -30 -16 -45 3 -82 44 -88 l35 -5 3 -822 2 -823 -29 0 c-54
0 -82 -50 -57 -99 12 -22 24 -31 48 -33 30 -3 33 -6 36 -41 2 -27 -5 -52 -27
-90 -71 -125 -81 -283 -27 -404 16 -35 35 -68 42 -74 9 -7 14 -31 14 -61 0
-49 0 -50 -28 -43 -20 4 -33 1 -44 -12 -41 -47 -25 -105 32 -113 l35 -5 3
-1338 c1 -874 -1 -1345 -8 -1357 -5 -10 -25 -23 -44 -30 l-34 -11 16 -29 c15
-27 16 -32 2 -57 -9 -16 -26 -29 -38 -31 -20 -3 -23 -9 -20 -39 l3 -36 79 -19
c75 -17 85 -17 190 -2 61 9 113 18 115 20 12 11 5 67 -9 72 -48 17 -64 60 -33
94 9 10 14 19 12 21 -2 1 -22 11 -44 22 l-40 20 -3 1353 -2 1352 29 0 c49 0
77 61 51 111 -6 10 -19 19 -30 19 -61 0 -65 38 -15 137 46 91 63 194 46 293
-11 68 -49 161 -71 175 -5 3 -10 31 -10 60 l0 55 29 -6 c22 -5 32 -1 45 17 34
50 6 119 -49 119 l-25 0 2 818 3 817 30 3 c35 4 55 26 55 62 0 39 -26 70 -61
70 -26 0 -29 3 -29 34 0 20 15 65 35 104 72 142 68 326 -11 442 -17 24 -24 49
-24 82 0 46 1 48 29 48 20 0 35 8 45 22 34 49 8 108 -47 108 l-27 0 0 800 c0
440 -3 800 -7 800 -5 0 -36 -33 -70 -73z m39 -1854 c26 -59 38 -152 28 -224
-8 -59 -47 -159 -62 -159 -13 0 -48 88 -61 153 -8 42 -8 76 0 120 13 71 47
157 63 157 6 0 20 -21 32 -47z m6 -2638 c40 -100 28 -259 -28 -345 -8 -13 -11
-13 -23 0 -40 43 -63 174 -46 264 11 62 49 148 63 143 6 -2 22 -30 34 -62z"/>
</g>
</svg>
