<?xml version="1.0" standalone="no"?>
<!DOCTYPE svg PUBLIC "-//W3C//DTD SVG 20010904//EN"
 "http://www.w3.org/TR/2001/REC-SVG-20010904/DTD/svg10.dtd">
<svg version="1.0" xmlns="http://www.w3.org/2000/svg"
 width="2550.000000pt" height="2700.000000pt" viewBox="0 0 2550.000000 2700.000000"
 preserveAspectRatio="xMidYMid meet">

<g transform="translate(0.000000,2700.000000) scale(0.100000,-0.100000)"
fill="#65340A" stroke="none">
<path d="M11978 16323 l-58 -64 0 -737 c0 -561 -3 -741 -12 -750 -7 -7 -22
-12 -33 -12 -28 0 -55 -30 -55 -59 0 -39 17 -58 60 -65 39 -6 40 -7 40 -46 0
-29 -10 -55 -35 -93 -88 -132 -87 -310 1 -443 43 -65 46 -110 8 -125 -15 -5
-29 -7 -32 -4 -12 12 -42 -30 -42 -60 0 -38 12 -50 60 -62 l35 -9 3 -799 c2
-832 2 -833 -39 -822 -29 8 -59 -20 -59 -56 0 -44 13 -60 57 -72 33 -9 38 -15
41 -44 2 -23 -4 -44 -22 -69 -51 -74 -70 -132 -74 -229 -5 -104 8 -152 65
-240 25 -38 33 -61 31 -85 -3 -30 -6 -33 -42 -38 -33 -4 -42 -10 -52 -36 -18
-44 0 -75 51 -90 l40 -11 3 -873 c2 -953 5 -911 -54 -926 -18 -5 -23 -11 -18
-23 15 -37 16 -54 4 -77 -8 -13 -22 -24 -32 -24 -16 0 -19 -6 -16 -37 3 -36 6
-39 53 -54 28 -9 64 -15 80 -13 17 2 74 6 128 10 l97 6 0 33 c0 24 -7 37 -25
49 -38 25 -46 48 -29 80 17 35 17 36 0 36 -7 0 -25 11 -40 25 l-26 24 0 886 0
885 33 0 c20 0 41 8 50 18 32 35 15 112 -24 112 -64 0 -77 52 -30 116 96 130
94 332 -5 475 -19 27 -24 47 -22 75 3 37 5 39 37 39 40 1 61 25 61 71 0 37
-17 54 -63 63 l-32 7 0 804 0 805 30 3 c41 5 65 29 65 67 0 38 -24 62 -65 67
-26 3 -30 8 -33 36 -2 24 4 45 22 70 44 65 69 134 74 207 6 98 -12 172 -59
245 -33 51 -40 70 -37 104 3 39 4 41 36 41 39 0 62 25 62 66 0 28 -21 58 -43
60 -7 1 -21 2 -32 3 -20 1 -20 10 -25 812 l-5 811 -57 -64z m24 -1840 c24 -28
46 -79 59 -139 15 -67 1 -162 -36 -235 -32 -62 -44 -68 -70 -35 -62 78 -80
243 -36 341 22 49 48 85 61 85 4 0 14 -8 22 -17z m0 -2590 c73 -84 82 -252 20
-368 -35 -65 -57 -66 -88 -5 -59 116 -52 261 18 363 23 32 30 33 50 10z"/>
</g>
</svg>
