<?xml version="1.0" standalone="no"?>
<!DOCTYPE svg PUBLIC "-//W3C//DTD SVG 20010904//EN"
 "http://www.w3.org/TR/2001/REC-SVG-20010904/DTD/svg10.dtd">
<svg version="1.0" xmlns="http://www.w3.org/2000/svg"
 width="2550.000000pt" height="2700.000000pt" viewBox="0 0 2550.000000 2700.000000"
 preserveAspectRatio="xMidYMid meet">

<g transform="translate(0.000000,2700.000000) scale(0.100000,-0.100000)"
fill="#65340A" stroke="none">
<path d="M17272 21469 l-43 -40 -2 -1237 c-2 -1214 -3 -1239 -24 -1367 -12
-71 -33 -183 -47 -248 -39 -178 -35 -202 34 -237 30 -16 40 -26 40 -45 0 -17
-6 -25 -17 -25 -10 0 -24 -4 -32 -9 -11 -7 -11 -13 3 -32 21 -31 20 -62 -2
-82 -10 -10 -21 -17 -25 -17 -3 0 -19 -12 -34 -26 l-28 -26 31 -26 c17 -15 41
-35 52 -44 25 -21 29 -60 7 -78 -22 -18 -19 -28 16 -45 24 -13 30 -22 27 -42
-2 -21 -11 -29 -35 -35 -40 -10 -63 -42 -63 -86 0 -18 11 -83 25 -143 14 -61
35 -172 47 -247 22 -136 22 -150 25 -1429 l4 -1291 -22 -21 c-13 -12 -29 -21
-37 -21 -10 0 -12 -6 -7 -17 20 -45 17 -70 -9 -90 -18 -15 -26 -30 -26 -53 l0
-31 150 2 150 2 0 32 c0 28 -4 33 -31 39 -31 6 -32 6 -25 54 6 43 4 51 -19 70
l-26 22 4 1313 c3 1303 3 1313 25 1442 12 72 33 176 47 233 14 57 25 116 25
131 0 36 -26 70 -66 87 -26 11 -34 20 -34 39 0 23 33 53 53 47 4 -1 -2 11 -14
27 -15 21 -19 35 -13 52 4 13 9 30 10 38 4 21 27 31 41 19 9 -7 13 -7 13 0 0
6 -5 12 -11 14 -8 3 -8 10 2 26 13 21 11 25 -24 57 -37 34 -46 58 -26 70 6 4
8 13 5 21 -3 8 -2 13 2 13 23 -4 21 4 -8 29 -41 36 -37 60 15 86 61 32 64 52
27 223 -70 320 -65 207 -69 1641 -2 716 -7 1302 -11 1302 -4 0 -26 -19 -50
-41z"/>
<path d="M17430 18060 c0 -5 5 -10 10 -10 6 0 10 5 10 10 0 6 -4 10 -10 10 -5
0 -10 -4 -10 -10z"/>
</g>
</svg>
