<?xml version="1.0" standalone="no"?>
<!DOCTYPE svg PUBLIC "-//W3C//DTD SVG 20010904//EN"
 "http://www.w3.org/TR/2001/REC-SVG-20010904/DTD/svg10.dtd">
<svg version="1.0" xmlns="http://www.w3.org/2000/svg"
 width="2550.000000pt" height="2700.000000pt" viewBox="0 0 2550.000000 2700.000000"
 preserveAspectRatio="xMidYMid meet">

<g transform="translate(0.000000,2700.000000) scale(0.100000,-0.100000)"
fill="#65340A" stroke="none">
<path d="M19031 23246 l-44 -45 2 -1193 c2 -1328 3 -1319 -65 -1668 -42 -215
-40 -231 27 -258 34 -13 40 -19 37 -40 -2 -18 -12 -28 -33 -35 -40 -13 -40
-11 -14 -47 22 -29 22 -32 7 -58 -9 -15 -26 -28 -37 -30 -12 -2 -21 -8 -21
-13 0 -5 -11 -14 -25 -19 -34 -13 -24 -33 35 -69 60 -37 70 -63 40 -103 -25
-34 -25 -32 15 -45 22 -7 31 -17 33 -36 3 -22 -3 -29 -32 -41 -42 -17 -70 -66
-63 -110 2 -17 18 -98 35 -181 62 -303 62 -306 62 -1687 0 -1203 -1 -1256 -18
-1271 -10 -10 -23 -17 -28 -17 -5 0 -15 -4 -23 -9 -12 -8 -12 -12 2 -26 25
-25 21 -52 -13 -77 -22 -16 -30 -30 -30 -51 l0 -30 153 6 c83 4 160 7 170 7
29 0 21 43 -13 62 -34 19 -41 57 -15 78 19 16 4 30 -31 30 -12 0 -27 7 -34 15
-7 8 -9 15 -4 15 5 0 8 542 6 1247 -4 1429 -4 1429 75 1791 30 141 27 156 -37
197 -29 18 -40 32 -40 50 0 14 4 25 9 25 5 0 21 4 36 10 l25 10 -20 20 c-11
11 -20 30 -20 43 0 24 37 67 58 67 7 0 12 5 12 10 0 6 6 10 14 10 43 0 20 36
-59 93 -31 22 -32 53 -4 83 l21 23 -36 15 c-30 12 -36 20 -36 44 0 24 6 31 39
44 62 25 69 62 37 196 -14 59 -35 170 -48 247 -22 140 -22 143 -25 1445 -4
1296 -4 1319 -33 1320 -3 0 -25 -20 -49 -44z m144 -3396 c3 -5 2 -10 -4 -10
-5 0 -13 5 -16 10 -3 6 -2 10 4 10 5 0 13 -4 16 -10z m-40 -180 c3 -5 1 -10
-4 -10 -6 0 -11 5 -11 10 0 6 2 10 4 10 3 0 8 -4 11 -10z"/>
</g>
</svg>
