<?xml version="1.0" standalone="no"?>
<!DOCTYPE svg PUBLIC "-//W3C//DTD SVG 20010904//EN"
 "http://www.w3.org/TR/2001/REC-SVG-20010904/DTD/svg10.dtd">
<svg version="1.0" xmlns="http://www.w3.org/2000/svg"
 width="2550.000000pt" height="2700.000000pt" viewBox="0 0 2550.000000 2700.000000"
 preserveAspectRatio="xMidYMid meet">

<g transform="translate(0.000000,2700.000000) scale(0.100000,-0.100000)"
fill="#65340A" stroke="none">
<path d="M21579 26212 l-44 -49 3 -1189 c3 -825 0 -1235 -8 -1339 -12 -163
-41 -374 -66 -488 -28 -127 -29 -159 -4 -189 12 -16 30 -28 40 -28 23 0 44
-26 36 -45 -3 -9 -22 -23 -42 -31 l-36 -15 21 -23 c41 -43 27 -69 -62 -121
-55 -32 -55 -33 29 -88 56 -37 68 -71 34 -102 -28 -25 -26 -31 20 -49 52 -21
54 -49 5 -78 -39 -22 -65 -63 -65 -100 0 -13 11 -73 25 -133 13 -61 34 -180
46 -265 24 -172 30 -526 29 -1612 l0 -548 34 0 c18 0 48 3 65 6 l31 7 0 942
c0 1085 4 1160 81 1525 24 114 18 137 -41 175 -52 33 -52 65 0 79 46 12 45 11
21 35 -23 23 -28 75 -8 85 6 3 26 15 42 26 17 11 38 23 48 26 24 9 21 31 -5
45 -13 7 -25 15 -28 19 -3 4 -20 15 -37 24 -40 20 -45 64 -11 96 12 11 20 21
17 23 -2 1 -21 10 -41 20 -29 13 -38 23 -38 41 0 15 7 27 19 31 31 9 68 53 75
86 3 17 -1 61 -10 98 -22 94 -41 198 -61 331 -16 104 -18 246 -20 1463 -2 775
-7 1347 -12 1347 -5 0 -16 3 -24 6 -9 3 -31 -13 -58 -44z"/>
<path d="M21540 19148 c0 -57 0 -305 0 -552 -1 -254 -5 -456 -10 -466 -5 -9
-24 -23 -42 -30 -18 -8 -34 -15 -36 -16 -2 -1 4 -14 13 -28 21 -32 12 -62 -26
-81 -18 -10 -29 -23 -29 -36 0 -19 4 -21 43 -15 23 3 108 9 190 12 114 5 147
10 147 20 0 8 -6 14 -13 14 -19 0 -47 33 -47 55 0 10 7 26 16 36 14 15 12 18
-17 28 -18 6 -43 11 -55 11 -13 0 -24 4 -24 10 0 5 6 7 13 5 9 -4 11 110 9
557 -1 309 -4 563 -5 564 -1 1 -30 4 -64 8 l-63 7 0 -103z"/>
</g>
</svg>
