<?xml version="1.0" standalone="no"?>
<!DOCTYPE svg PUBLIC "-//W3C//DTD SVG 20010904//EN"
 "http://www.w3.org/TR/2001/REC-SVG-20010904/DTD/svg10.dtd">
<svg version="1.0" xmlns="http://www.w3.org/2000/svg"
 width="2550.000000pt" height="2700.000000pt" viewBox="0 0 2550.000000 2700.000000"
 preserveAspectRatio="xMidYMid meet">

<g transform="translate(0.000000,2700.000000) scale(0.100000,-0.100000)"
fill="#65340A" stroke="none">
<path d="M9317 14114 c-4 -4 -7 -635 -7 -1401 0 -1470 -2 -1564 -47 -1858 -37
-248 -40 -301 -17 -327 11 -11 29 -24 42 -29 18 -7 23 -15 20 -36 -2 -21 -10
-29 -38 -36 -46 -12 -46 -12 -21 -43 11 -15 21 -34 21 -44 0 -22 -44 -70 -65
-70 -8 0 -15 -3 -15 -8 0 -4 -10 -12 -22 -17 -28 -12 -29 -34 -3 -49 11 -6 22
-14 25 -18 3 -4 18 -11 33 -17 15 -6 32 -22 39 -36 10 -22 8 -30 -10 -55 -12
-16 -22 -31 -22 -34 0 -2 18 -11 40 -20 22 -9 40 -22 40 -30 0 -24 -12 -46
-25 -46 -19 0 -46 -36 -55 -74 -5 -22 -3 -62 5 -104 25 -128 47 -297 60 -452
10 -119 13 -571 14 -1939 l1 -1783 -31 -29 c-17 -16 -40 -29 -50 -29 -10 0
-19 -4 -19 -10 0 -5 4 -10 8 -10 5 0 13 -10 19 -23 14 -29 -5 -69 -41 -85 -19
-9 -26 -19 -26 -41 0 -16 4 -33 10 -36 5 -3 52 -14 103 -24 l94 -17 104 26
104 26 2 34 c3 30 -2 38 -30 55 -36 23 -47 64 -23 85 24 19 20 26 -24 39 -28
8 -42 19 -46 35 -3 13 -6 840 -7 1837 -2 1991 -4 1905 59 2287 25 153 25 161
9 195 -10 22 -28 39 -46 46 -48 16 -31 66 26 77 19 3 35 8 35 11 0 3 -11 18
-25 35 -14 16 -25 34 -25 39 0 15 47 59 64 59 8 0 19 6 23 13 4 6 16 17 26 22
23 13 24 27 1 40 -10 6 -23 15 -29 22 -5 6 -19 13 -29 15 -10 1 -28 15 -38 29
-19 25 -19 28 -4 58 9 17 21 31 26 31 6 0 10 4 10 10 0 5 -17 12 -37 16 -61
11 -72 51 -24 80 38 22 66 83 58 126 -86 497 -81 371 -83 2023 l-2 1460 -64 3
c-35 2 -67 0 -71 -4z"/>
</g>
</svg>
