<?xml version="1.0" standalone="no"?>
<!DOCTYPE svg PUBLIC "-//W3C//DTD SVG 20010904//EN"
 "http://www.w3.org/TR/2001/REC-SVG-20010904/DTD/svg10.dtd">
<svg version="1.0" xmlns="http://www.w3.org/2000/svg"
 width="2550.000000pt" height="2700.000000pt" viewBox="0 0 2550.000000 2700.000000"
 preserveAspectRatio="xMidYMid meet">

<g transform="translate(0.000000,2700.000000) scale(0.100000,-0.100000)"
fill="#65340A" stroke="none">
<path d="M9107 12553 c-4 -1587 -5 -1629 -42 -1933 -18 -140 -12 -196 25 -235
30 -32 23 -66 -17 -79 -43 -15 -48 -22 -29 -41 29 -29 31 -64 5 -91 -12 -13
-31 -24 -41 -24 -10 0 -18 -5 -18 -10 0 -6 -11 -15 -25 -20 -14 -5 -25 -16
-25 -25 0 -9 11 -20 25 -25 14 -5 25 -14 25 -20 0 -5 7 -10 15 -10 20 0 65
-44 65 -64 0 -8 -12 -28 -26 -45 -19 -23 -22 -32 -12 -35 7 -3 27 -8 43 -13
38 -12 47 -56 16 -72 -39 -21 -43 -73 -21 -282 10 -107 24 -279 30 -384 14
-262 14 -3809 -1 -3836 -5 -11 -28 -27 -50 -35 -32 -13 -37 -18 -25 -28 25
-20 28 -51 5 -79 -11 -15 -27 -27 -35 -27 -10 0 -14 -12 -14 -41 0 -37 3 -41
38 -55 20 -8 51 -22 69 -31 27 -13 39 -14 75 -4 24 7 81 17 128 24 l85 12 3
43 c2 32 0 42 -12 42 -8 0 -24 12 -35 27 -23 28 -20 59 7 80 13 11 11 15 -19
27 -19 8 -42 23 -52 34 -17 19 -18 114 -14 1973 2 1075 7 1974 10 1999 4 25
12 92 17 150 6 58 16 143 21 190 13 96 2 159 -32 188 -10 9 -19 28 -19 43 0
21 7 28 40 39 22 7 40 15 40 17 0 2 -9 17 -21 32 -28 39 -22 72 19 92 17 9 47
28 65 42 l32 26 -35 30 c-19 17 -40 31 -46 31 -16 0 -54 44 -54 62 0 8 9 27
20 41 11 14 20 27 20 30 0 3 -18 12 -40 21 -32 12 -40 21 -40 41 0 14 8 29 19
35 34 18 44 69 31 172 -44 377 -43 326 -47 1978 -3 1207 -7 1576 -16 1582 -7
4 -38 8 -69 8 l-57 0 -4 -1567z"/>
</g>
</svg>
