<?xml version="1.0" standalone="no"?>
<!DOCTYPE svg PUBLIC "-//W3C//DTD SVG 20010904//EN"
 "http://www.w3.org/TR/2001/REC-SVG-20010904/DTD/svg10.dtd">
<svg version="1.0" xmlns="http://www.w3.org/2000/svg"
 width="2550.000000pt" height="2700.000000pt" viewBox="0 0 2550.000000 2700.000000"
 preserveAspectRatio="xMidYMid meet">

<g transform="translate(0.000000,2700.000000) scale(0.100000,-0.100000)"
fill="#65340A" stroke="none">
<path d="M12030 16383 c-3 -6 -28 -36 -57 -66 l-52 -55 -3 -1183 c-4 -1302 -1
-1239 -68 -1570 -17 -80 -30 -156 -30 -170 0 -35 27 -69 67 -85 29 -12 34 -19
31 -42 -2 -19 -11 -29 -33 -36 -40 -14 -40 -13 -23 -33 8 -10 18 -25 21 -34 6
-19 -27 -74 -46 -74 -8 0 -22 -8 -31 -18 -10 -9 -22 -17 -27 -17 -18 0 -9 -32
11 -37 11 -3 20 -10 20 -15 0 -5 13 -14 29 -19 15 -6 34 -22 40 -36 10 -23 9
-31 -8 -54 -27 -36 -27 -37 12 -47 26 -7 33 -14 35 -39 3 -28 -1 -32 -32 -43
-44 -14 -66 -44 -66 -86 0 -18 12 -86 26 -151 14 -65 35 -181 47 -258 20 -136
21 -177 24 -1456 l4 -1317 -27 -21 c-15 -12 -33 -21 -40 -21 -16 0 -19 -16 -4
-25 27 -17 -2 -103 -33 -97 -16 3 -18 -2 -15 -35 3 -36 6 -39 53 -54 28 -9 64
-15 80 -13 17 2 74 6 128 10 l97 6 0 33 c0 24 -7 37 -25 49 -39 26 -49 53 -31
81 20 30 20 35 2 35 -7 0 -25 11 -40 25 l-26 24 0 1253 c0 1001 3 1282 15
1398 15 158 35 288 66 418 10 45 19 98 19 116 0 42 -31 82 -70 91 -25 5 -30
12 -30 36 0 21 5 29 18 29 10 0 27 6 37 14 18 13 18 16 4 33 -9 10 -19 26 -22
35 -6 18 27 68 46 68 7 0 26 11 42 25 l30 24 -26 24 c-14 14 -35 28 -47 32
-13 3 -30 17 -38 31 -15 22 -15 26 5 60 12 20 21 38 19 39 -2 1 -16 7 -33 12
-24 8 -30 15 -30 39 0 22 5 30 22 32 30 4 73 57 73 91 0 15 -9 69 -21 121 -22
102 -44 227 -61 355 -8 52 -13 511 -17 1330 -3 688 -8 1245 -11 1238z"/>
</g>
</svg>
