<?xml version="1.0" standalone="no"?>
<!DOCTYPE svg PUBLIC "-//W3C//DTD SVG 20010904//EN"
 "http://www.w3.org/TR/2001/REC-SVG-20010904/DTD/svg10.dtd">
<svg version="1.0" xmlns="http://www.w3.org/2000/svg"
 width="2550.000000pt" height="2700.000000pt" viewBox="0 0 2550.000000 2700.000000"
 preserveAspectRatio="xMidYMid meet">

<g transform="translate(0.000000,2700.000000) scale(0.100000,-0.100000)"
fill="#65340A" stroke="none">
<path d="M13707 18072 l-48 -49 0 -1134 c1 -1300 -1 -1347 -79 -1694 -27 -125
-29 -139 -16 -170 10 -23 27 -40 53 -52 51 -24 52 -58 3 -84 -20 -11 -28 -19
-17 -19 9 0 17 -7 17 -15 0 -8 4 -15 8 -15 18 0 -3 -66 -29 -93 -16 -16 -29
-32 -29 -36 0 -18 32 -69 45 -75 17 -6 21 -81 5 -91 -16 -10 -11 -21 15 -33
40 -18 33 -54 -14 -73 -25 -11 -46 -29 -56 -49 -16 -30 -15 -38 15 -172 35
-158 55 -284 70 -443 14 -148 14 -2542 0 -2550 -6 -4 -8 -11 -4 -16 3 -5 -6
-19 -21 -31 -18 -14 -25 -27 -22 -40 8 -29 -20 -89 -38 -82 -12 5 -15 -2 -15
-28 0 -29 4 -35 33 -45 17 -6 57 -9 87 -7 30 2 85 3 123 4 l67 0 0 31 c0 21
-9 40 -25 55 -27 25 -33 62 -12 83 10 11 8 15 -7 25 -11 6 -28 19 -38 29 -18
17 -19 56 -15 1325 3 1195 4 1316 21 1412 23 136 53 286 66 330 25 86 4 150
-56 170 -28 10 -34 16 -34 41 0 21 5 29 18 29 9 0 23 4 31 9 12 8 12 13 -2 35
-28 42 -21 63 33 103 28 20 50 42 50 48 0 6 -22 28 -50 48 -56 42 -64 73 -30
107 19 19 19 20 0 30 -10 5 -26 10 -35 10 -12 0 -15 8 -13 32 2 25 9 34 33 41
41 14 64 45 65 87 0 20 -11 85 -25 145 -14 61 -35 171 -47 245 -21 132 -22
163 -27 1403 l-6 1268 -48 -49z m-87 -6992 c0 -5 -4 -10 -10 -10 -5 0 -10 5
-10 10 0 6 5 10 10 10 6 0 10 -4 10 -10z"/>
<path d="M13525 14710 c-7 -11 22 -26 32 -16 4 3 1 6 -6 6 -7 0 -9 5 -6 10 3
6 2 10 -4 10 -5 0 -13 -5 -16 -10z"/>
<path d="M13560 14670 c0 -5 5 -10 11 -10 5 0 7 5 4 10 -3 6 -8 10 -11 10 -2
0 -4 -4 -4 -10z"/>
</g>
</svg>
