<?xml version="1.0" standalone="no"?>
<!DOCTYPE svg PUBLIC "-//W3C//DTD SVG 20010904//EN"
 "http://www.w3.org/TR/2001/REC-SVG-20010904/DTD/svg10.dtd">
<svg version="1.0" xmlns="http://www.w3.org/2000/svg"
 width="2550.000000pt" height="2700.000000pt" viewBox="0 0 2550.000000 2700.000000"
 preserveAspectRatio="xMidYMid meet">

<g transform="translate(0.000000,2700.000000) scale(0.100000,-0.100000)"
fill="#65340A" stroke="none">
<path d="M14590 17623 c0 -634 -4 -1072 -11 -1143 -12 -135 -41 -320 -69 -438
-34 -143 -25 -177 53 -210 44 -19 30 -64 -28 -87 -19 -7 -19 -8 4 -14 14 -4
27 -13 29 -20 3 -8 0 -11 -7 -7 -14 9 -14 0 -1 -24 12 -23 4 -47 -18 -55 -10
-3 -22 -17 -29 -31 -11 -23 -8 -29 23 -63 32 -36 44 -59 26 -47 -5 3 -9 -14
-8 -37 1 -26 -3 -42 -11 -42 -6 0 -15 -3 -19 -7 -4 -5 2 -8 12 -8 35 0 58 -24
50 -53 -3 -15 -13 -27 -20 -27 -8 0 -29 -12 -46 -27 -31 -25 -32 -29 -27 -82
3 -31 16 -109 31 -175 64 -296 61 -210 61 -2093 l0 -1712 -24 -23 c-16 -16
-25 -19 -28 -10 -3 6 -9 12 -13 12 -5 0 -2 -13 7 -28 14 -25 15 -32 2 -60 -8
-19 -21 -32 -31 -32 -14 0 -18 -8 -18 -33 0 -28 5 -35 33 -44 17 -7 57 -10 87
-8 30 2 88 4 128 4 l72 1 0 31 c0 21 -9 38 -30 56 -33 27 -38 54 -15 73 22 18
19 26 -15 40 -17 7 -35 21 -40 31 -14 26 -13 3263 1 3422 12 145 41 323 75
465 22 97 23 106 9 137 -15 30 -35 45 -77 59 -11 3 -18 15 -18 31 0 19 8 28
36 40 l35 14 -22 30 c-19 26 -21 34 -11 56 7 14 23 30 37 35 14 5 25 13 25 18
0 5 11 14 24 22 25 13 25 13 -35 56 -64 48 -71 66 -38 108 l20 26 -26 10 c-14
5 -31 10 -36 10 -5 0 -9 13 -9 29 0 24 5 31 29 36 30 6 50 25 70 62 9 18 7 43
-14 128 -31 131 -61 315 -75 465 -6 71 -10 510 -10 1138 l0 1022 -50 0 -50 0
0 -1027z m-30 -6517 c0 -3 -4 -8 -10 -11 -5 -3 -10 -1 -10 4 0 6 5 11 10 11 6
0 10 -2 10 -4z"/>
<path d="M14455 15570 c-3 -6 2 -13 12 -17 10 -4 23 -14 30 -22 6 -9 15 -12
20 -8 4 5 0 13 -10 18 -9 6 -17 17 -17 24 0 17 -26 20 -35 5z"/>
</g>
</svg>
