<?xml version="1.0" standalone="no"?>
<!DOCTYPE svg PUBLIC "-//W3C//DTD SVG 20010904//EN"
 "http://www.w3.org/TR/2001/REC-SVG-20010904/DTD/svg10.dtd">
<svg version="1.0" xmlns="http://www.w3.org/2000/svg"
 width="2644.000000pt" height="2800.000000pt" viewBox="0 0 2644.000000 2800.000000"
 preserveAspectRatio="xMidYMid meet">

<g transform="translate(0.000000,2800.000000) scale(0.100000,-0.100000)"
fill="#3a4548" stroke="none">
<path d="M1587 14034 c-4 -4 -7 -584 -7 -1289 l0 -1282 -27 -6 c-16 -4 -35
-11 -43 -16 -12 -9 -11 -13 6 -33 32 -35 36 -46 24 -68 -12 -22 -64 -53 -74
-43 -3 4 -6 0 -6 -9 0 -8 -11 -20 -25 -26 -14 -7 -25 -20 -25 -31 0 -12 9 -21
25 -25 14 -4 25 -11 25 -16 0 -6 8 -10 18 -10 18 -1 39 -15 60 -42 11 -14 11
-22 -3 -47 -8 -17 -20 -31 -25 -31 -6 0 -10 -6 -10 -14 0 -9 15 -17 40 -21
l40 -7 2 -206 c2 -114 2 -649 0 -1188 l-2 -982 -28 -5 c-53 -12 -58 -22 -29
-57 15 -17 27 -35 27 -40 0 -12 -48 -60 -60 -60 -5 0 -15 -6 -22 -13 -7 -7
-25 -20 -40 -30 -32 -20 -28 -44 8 -53 13 -3 24 -10 24 -15 0 -5 8 -9 18 -9
18 -1 39 -15 60 -42 12 -14 11 -22 -4 -48 -10 -16 -22 -30 -26 -30 -4 0 -8 -6
-8 -14 0 -9 15 -17 38 -21 l39 -6 6 -602 c4 -331 7 -922 7 -1313 0 -692 -1
-711 -20 -731 -11 -12 -35 -27 -55 -34 l-35 -13 26 -27 c26 -27 26 -27 8 -59
-10 -17 -29 -33 -41 -36 -19 -5 -23 -13 -23 -49 l0 -42 93 -9 c135 -12 173
-10 265 17 l82 24 0 42 c0 35 -3 43 -18 43 -20 0 -62 39 -62 57 0 6 9 22 20
35 l19 25 -44 17 c-24 10 -46 25 -49 34 -2 9 -6 604 -8 1320 l-3 1304 45 15
c25 8 47 17 49 19 2 2 -8 16 -22 30 -15 15 -27 34 -27 44 0 20 41 60 65 64 9
1 20 7 23 13 4 5 17 15 30 22 29 15 28 39 -3 53 -14 6 -25 15 -25 20 0 4 -9 8
-20 8 -24 0 -70 42 -70 64 0 8 12 28 26 45 l26 31 -27 10 c-14 5 -37 10 -51
10 l-24 0 0 1171 c0 751 4 1177 10 1189 6 11 26 21 50 25 25 4 40 12 40 21 0
8 -4 14 -10 14 -5 0 -17 11 -26 25 -23 35 -7 69 40 86 20 7 36 19 36 25 0 7
10 14 23 16 28 4 30 37 2 52 -11 6 -22 14 -25 17 -3 3 -20 11 -38 18 -56 23
-65 67 -22 106 29 26 25 33 -25 41 l-45 6 -2 1287 -3 1286 -75 3 c-42 1 -79 0
-83 -4z"/>
</g>
</svg>
