<?xml version="1.0" standalone="no"?>
<!DOCTYPE svg PUBLIC "-//W3C//DTD SVG 20010904//EN"
 "http://www.w3.org/TR/2001/REC-SVG-20010904/DTD/svg10.dtd">
<svg version="1.0" xmlns="http://www.w3.org/2000/svg"
 width="2644.000000pt" height="2800.000000pt" viewBox="0 0 2644.000000 2800.000000"
 preserveAspectRatio="xMidYMid meet">

<g transform="translate(0.000000,2800.000000) scale(0.100000,-0.100000)"
fill="#3a4548" stroke="none">
<path d="M8953 17323 l-33 -4 0 -999 0 -998 -35 -6 c-38 -7 -43 -17 -20 -36 8
-7 15 -25 15 -41 0 -24 -9 -35 -50 -60 -27 -17 -50 -37 -50 -44 0 -7 23 -27
50 -44 54 -33 63 -58 35 -98 -14 -20 -14 -23 4 -33 11 -5 27 -10 35 -10 14 0
16 -108 16 -1094 l0 -1094 -35 -6 c-21 -4 -35 -13 -35 -21 0 -8 4 -15 8 -15 5
0 14 -11 20 -24 13 -29 -8 -66 -37 -66 -11 0 -21 -7 -25 -15 -3 -8 -12 -15
-21 -15 -9 0 -15 -9 -15 -25 0 -14 5 -25 10 -25 6 0 28 -11 50 -25 43 -27 51
-56 25 -91 -21 -28 -19 -32 20 -40 l35 -6 0 -244 c0 -231 -1 -245 -20 -264
-11 -11 -26 -20 -34 -20 -24 0 -28 -18 -10 -45 16 -24 15 -26 -15 -54 -39 -36
-44 -86 -8 -93 57 -10 247 -9 247 1 0 6 18 11 40 11 39 0 40 1 40 35 0 23 -5
35 -13 35 -25 0 -50 37 -43 65 4 14 11 25 16 25 24 0 6 18 -30 30 l-40 13 2
256 3 255 33 8 c38 10 38 12 12 38 -11 11 -20 28 -20 38 0 21 30 52 49 52 22
0 62 45 55 63 -3 9 -10 17 -15 17 -5 0 -27 11 -49 25 -44 28 -50 52 -20 80 11
10 20 22 20 26 0 9 -40 24 -57 21 -10 -2 -13 222 -13 1093 0 672 4 1095 9
1095 5 0 21 4 36 10 l26 10 -22 30 c-19 25 -21 33 -11 54 6 14 23 28 37 32 14
3 25 10 25 14 0 4 9 10 20 13 11 3 20 13 20 22 0 9 -9 19 -20 22 -11 3 -20 9
-20 13 0 4 -14 13 -30 20 -41 17 -50 54 -20 85 l23 24 -27 11 c-15 5 -32 10
-37 10 -5 0 -9 385 -9 995 l0 995 -26 10 c-14 6 -28 9 -32 8 -4 0 -22 -3 -39
-5z"/>
</g>
</svg>
