<?xml version="1.0" standalone="no"?>
<!DOCTYPE svg PUBLIC "-//W3C//DTD SVG 20010904//EN"
 "http://www.w3.org/TR/2001/REC-SVG-20010904/DTD/svg10.dtd">
<svg version="1.0" xmlns="http://www.w3.org/2000/svg"
 width="2644.000000pt" height="2800.000000pt" viewBox="0 0 2644.000000 2800.000000"
 preserveAspectRatio="xMidYMid meet">

<g transform="translate(0.000000,2800.000000) scale(0.100000,-0.100000)"
fill="#3a4548" stroke="none">
<path d="M9900 16275 c0 -592 -4 -965 -9 -965 -5 0 -21 -4 -36 -10 l-26 -10
22 -29 c21 -29 21 -31 5 -55 -9 -15 -22 -26 -29 -26 -6 -1 -25 -12 -42 -26
l-30 -25 30 -24 c17 -14 36 -25 42 -25 7 0 20 -11 29 -26 16 -24 16 -26 -5
-54 -21 -29 -21 -29 -2 -40 11 -5 27 -10 35 -10 14 0 16 -105 16 -1060 0 -651
-4 -1060 -9 -1060 -5 0 -22 -5 -37 -10 l-27 -11 22 -22 c11 -13 21 -30 21 -39
0 -16 -30 -48 -46 -48 -5 -1 -22 -11 -38 -24 -28 -23 -28 -46 0 -46 8 0 14 -4
14 -9 0 -6 12 -16 27 -23 44 -22 51 -43 25 -78 -24 -31 -22 -35 23 -42 19 -3
20 -11 20 -248 l0 -244 -38 -22 c-33 -18 -36 -23 -22 -34 24 -20 18 -47 -15
-72 -21 -15 -30 -30 -30 -50 0 -28 0 -28 65 -28 40 0 65 -4 65 -11 0 -11 54
-8 155 8 47 8 50 10 53 41 3 26 -1 34 -22 41 -13 6 -27 18 -30 29 -7 22 2 52
15 52 24 0 4 18 -31 29 l-40 12 0 248 0 249 35 6 c41 8 42 12 14 42 -26 28
-18 60 19 77 60 27 90 77 46 77 -8 0 -14 4 -14 9 0 5 -11 12 -25 15 -14 4 -31
18 -37 31 -10 22 -8 29 12 50 26 28 26 29 -15 42 l-30 10 -3 1056 c-2 959 -1
1057 13 1057 9 0 25 5 36 10 19 11 19 11 -2 40 -21 28 -21 30 -5 54 9 15 23
26 32 26 8 0 27 11 42 25 l27 25 -30 25 c-16 13 -36 24 -42 25 -7 0 -20 11
-29 26 -16 24 -16 26 4 54 23 31 22 34 -21 44 l-27 6 0 963 0 962 -60 3 -60 3
0 -966z"/>
</g>
</svg>
