<?xml version="1.0" standalone="no"?>
<!DOCTYPE svg PUBLIC "-//W3C//DTD SVG 20010904//EN"
 "http://www.w3.org/TR/2001/REC-SVG-20010904/DTD/svg10.dtd">
<svg version="1.0" xmlns="http://www.w3.org/2000/svg"
 width="2644.000000pt" height="2800.000000pt" viewBox="0 0 2644.000000 2800.000000"
 preserveAspectRatio="xMidYMid meet">

<g transform="translate(0.000000,2800.000000) scale(0.100000,-0.100000)"
fill="#3a4548" stroke="none">
<path d="M10398 17202 l-38 -3 0 -949 0 -948 -30 -7 c-33 -7 -37 -16 -15 -35
31 -25 18 -58 -35 -91 -52 -32 -64 -57 -30 -66 11 -3 20 -9 20 -14 0 -5 6 -9
13 -9 20 0 47 -33 47 -57 0 -11 -7 -26 -15 -33 -22 -19 -18 -28 15 -35 l30 -7
1 -956 c0 -526 2 -984 4 -1017 5 -91 -1 -113 -36 -120 -35 -8 -35 -8 -7 -45
25 -35 19 -46 -48 -85 -47 -28 -56 -50 -24 -60 11 -3 20 -11 20 -16 0 -5 7 -9
16 -9 14 0 54 -35 54 -47 0 -3 -9 -18 -21 -34 -19 -28 -20 -29 -2 -35 36 -11
48 -22 47 -43 0 -11 -1 -118 -2 -236 l-2 -214 -32 -17 c-44 -22 -44 -21 -24
-43 20 -22 10 -53 -24 -71 -13 -7 -20 -21 -20 -41 l0 -30 163 3 162 3 3 33 c3
26 -1 34 -21 41 -32 13 -41 39 -22 68 15 23 15 24 -18 38 -22 9 -37 23 -40 37
-2 13 -4 122 -3 242 l1 219 30 10 c40 13 40 13 21 32 -31 32 -20 63 34 96 28
17 50 34 50 38 0 9 -56 51 -69 51 -16 0 -40 41 -34 59 3 9 13 24 21 33 13 15
11 18 -19 26 l-34 8 -1 620 c-1 340 1 809 4 1041 l5 422 29 6 c31 7 35 17 13
35 -30 25 -8 90 31 90 8 0 14 4 14 9 0 5 9 11 20 14 25 6 26 35 3 44 -10 4
-20 9 -23 13 -3 3 -17 13 -32 23 -31 20 -37 57 -13 77 22 19 18 28 -15 35
l-30 7 0 786 c-1 433 -1 860 0 948 l1 162 -28 3 c-15 2 -45 3 -65 1z"/>
</g>
</svg>
