<?xml version="1.0" standalone="no"?>
<!DOCTYPE svg PUBLIC "-//W3C//DTD SVG 20010904//EN"
 "http://www.w3.org/TR/2001/REC-SVG-20010904/DTD/svg10.dtd">
<svg version="1.0" xmlns="http://www.w3.org/2000/svg"
 width="2644.000000pt" height="2800.000000pt" viewBox="0 0 2644.000000 2800.000000"
 preserveAspectRatio="xMidYMid meet">

<g transform="translate(0.000000,2800.000000) scale(0.100000,-0.100000)"
fill="#3a4548" stroke="none">
<path d="M6727 16442 c1 -576 0 -1057 -3 -1069 -2 -13 -9 -23 -14 -23 -5 0
-21 -5 -35 -10 l-26 -10 20 -26 c12 -15 21 -35 21 -45 0 -19 -44 -59 -66 -59
-8 0 -14 -4 -14 -9 0 -5 -9 -11 -20 -14 -32 -8 -24 -40 17 -62 86 -46 100 -73
62 -114 -24 -25 -21 -32 24 -47 l32 -11 -3 -1169 c-2 -905 -6 -1169 -15 -1170
-54 -5 -64 -17 -38 -49 11 -15 21 -36 21 -46 0 -21 -36 -49 -62 -49 -10 0 -18
-7 -18 -15 0 -8 -6 -15 -13 -15 -19 0 -36 -20 -30 -36 3 -8 12 -14 19 -14 8 0
17 -7 20 -15 4 -8 14 -15 23 -15 22 0 61 -36 61 -57 0 -9 -10 -27 -22 -40 -19
-20 -20 -25 -8 -33 8 -5 24 -10 36 -10 21 0 21 -4 27 -287 3 -159 7 -670 7
-1137 1 -941 5 -883 -65 -906 l-37 -12 23 -24 c19 -20 21 -27 11 -49 -7 -14
-23 -30 -37 -37 -19 -9 -25 -19 -25 -44 0 -17 6 -34 13 -37 27 -10 260 -7 317
4 l60 12 0 37 c0 32 -4 39 -25 44 -13 3 -29 16 -36 27 -9 17 -7 27 10 49 l20
28 -39 16 c-23 9 -52 13 -70 10 -19 -4 -30 -2 -30 5 0 6 11 11 25 11 l25 0 0
1145 c0 988 2 1145 14 1145 8 0 27 5 41 10 l27 10 -26 30 c-29 36 -24 67 15
87 13 7 32 18 42 25 54 37 52 35 38 52 -7 9 -19 16 -26 16 -8 0 -15 3 -17 8
-1 4 -16 14 -33 22 -39 20 -46 63 -14 96 l22 23 -27 11 c-15 5 -34 10 -42 10
-12 0 -14 160 -14 1169 l0 1169 30 7 c37 8 46 22 27 43 -27 32 -28 52 -2 78
13 13 31 24 40 24 8 0 15 5 15 10 0 6 7 10 15 10 21 0 37 34 23 48 -7 7 -18
12 -25 12 -7 0 -13 5 -13 10 0 6 -7 10 -15 10 -17 0 -65 43 -65 59 0 5 11 23
25 39 l24 29 -25 12 c-14 6 -31 11 -39 11 -13 0 -15 141 -15 1070 l0 1070 -72
0 -73 0 2 -1048z"/>
</g>
</svg>
