<?xml version="1.0" standalone="no"?>
<!DOCTYPE svg PUBLIC "-//W3C//DTD SVG 20010904//EN"
 "http://www.w3.org/TR/2001/REC-SVG-20010904/DTD/svg10.dtd">
<svg version="1.0" xmlns="http://www.w3.org/2000/svg"
 width="2644.000000pt" height="2800.000000pt" viewBox="0 0 2644.000000 2800.000000"
 preserveAspectRatio="xMidYMid meet">

<g transform="translate(0.000000,2800.000000) scale(0.100000,-0.100000)"
fill="#3a4548" stroke="none">
<path d="M7305 17440 c-2 -3 -3 -476 -3 -1050 l0 -1044 -33 -9 c-45 -12 -46
-13 -20 -41 30 -32 24 -67 -14 -86 -47 -24 -85 -51 -85 -61 0 -5 26 -26 57
-46 32 -21 59 -47 61 -57 2 -10 -6 -31 -17 -47 l-22 -29 28 -10 c15 -6 33 -12
39 -14 7 -3 9 -95 8 -282 -1 -154 -2 -672 -3 -1152 -1 -692 -4 -873 -13 -871
-19 2 -58 -12 -58 -21 0 -4 9 -15 20 -25 11 -10 20 -26 20 -35 0 -21 -41 -60
-64 -60 -9 0 -14 -4 -11 -10 3 -5 0 -10 -8 -10 -8 0 -21 -7 -28 -16 -12 -14
-9 -20 16 -40 17 -13 35 -24 42 -24 17 0 53 -41 53 -60 0 -9 -10 -27 -21 -39
-18 -19 -19 -25 -8 -32 8 -5 24 -9 37 -9 l22 0 1 -207 c3 -654 4 -2002 0
-2026 -3 -22 -13 -33 -46 -49 -41 -20 -42 -21 -24 -39 11 -11 19 -26 19 -34 0
-17 -35 -55 -50 -55 -6 0 -10 -18 -10 -40 l0 -40 43 0 c23 0 74 -3 112 -6 40
-3 100 1 140 9 70 13 70 13 73 48 2 29 -2 37 -28 51 -34 19 -40 51 -14 80 16
17 15 19 -21 34 -21 9 -51 14 -67 12 -15 -3 -28 -1 -28 3 0 4 10 9 23 11 l22
3 2 490 c1 270 2 775 2 1123 1 567 3 632 17 632 8 0 24 5 35 11 19 10 19 10
-1 36 -11 14 -20 33 -20 43 0 21 31 50 53 50 9 0 17 4 17 8 0 5 11 14 25 20
14 6 25 19 25 27 0 8 -11 21 -25 27 -14 6 -25 15 -25 20 0 5 -4 7 -9 4 -14 -9
-61 33 -61 55 0 10 9 28 20 39 28 28 25 37 -15 44 l-35 7 -2 1117 c-2 614 -1
1132 1 1150 2 17 7 32 11 32 5 0 21 5 35 10 l26 10 -20 26 c-12 15 -21 34 -21
44 0 17 29 50 44 50 12 0 76 52 76 61 0 5 -11 14 -25 19 -14 5 -25 14 -25 20
0 5 -8 10 -18 10 -23 0 -52 30 -52 55 0 10 10 29 21 42 l22 22 -27 11 c-15 5
-32 10 -37 10 -5 0 -9 114 -9 283 0 155 0 627 0 1049 l0 766 -27 6 c-34 8
-112 5 -118 -4z"/>
</g>
</svg>
