<?xml version="1.0" standalone="no"?>
<!DOCTYPE svg PUBLIC "-//W3C//DTD SVG 20010904//EN"
 "http://www.w3.org/TR/2001/REC-SVG-20010904/DTD/svg10.dtd">
<svg version="1.0" xmlns="http://www.w3.org/2000/svg"
 width="2644.000000pt" height="2800.000000pt" viewBox="0 0 2644.000000 2800.000000"
 preserveAspectRatio="xMidYMid meet">

<g transform="translate(0.000000,2800.000000) scale(0.100000,-0.100000)"
fill="#3a4548" stroke="none">
<path d="M15888 12485 l-3 -1509 -38 -9 c-47 -11 -55 -29 -28 -56 29 -29 28
-85 -1 -105 -12 -9 -30 -16 -40 -16 -10 0 -18 -6 -18 -13 0 -7 -10 -17 -22
-22 -34 -15 -36 -53 -4 -65 14 -5 26 -14 26 -19 0 -5 10 -13 23 -17 57 -17 76
-79 37 -122 -29 -31 -25 -40 23 -49 l42 -9 3 -1328 c1 -935 -1 -1333 -9 -1342
-6 -7 -24 -16 -40 -19 -39 -9 -44 -21 -20 -51 12 -15 21 -39 21 -55 0 -31 -34
-69 -62 -69 -10 0 -18 -6 -18 -13 0 -7 -10 -17 -22 -22 -34 -15 -36 -53 -4
-65 14 -5 26 -14 26 -20 0 -5 11 -12 24 -16 58 -14 76 -76 35 -120 -26 -28
-20 -38 31 -51 l35 -9 3 -1435 c2 -1123 0 -1439 -10 -1457 -7 -13 -30 -33 -53
-44 -22 -11 -42 -22 -43 -23 -2 -2 6 -13 17 -24 32 -32 27 -65 -16 -100 -31
-25 -36 -36 -36 -71 0 -22 2 -42 4 -44 2 -2 74 -10 159 -16 l155 -13 63 32 62
32 0 50 c0 37 -4 49 -15 49 -23 0 -55 37 -55 65 0 14 9 33 20 42 28 24 26 28
-20 42 -77 23 -70 -121 -70 1482 l0 1439 25 6 c14 3 25 10 25 14 0 4 9 10 20
13 20 5 20 6 -5 43 -14 20 -25 43 -25 51 0 20 55 73 74 73 9 0 16 6 16 13 0 7
10 17 23 22 14 7 22 19 22 35 0 18 -6 26 -22 28 -13 2 -23 8 -23 13 0 5 -6 9
-14 9 -19 0 -76 55 -76 73 0 8 11 31 25 52 15 20 25 38 23 40 -2 1 -21 6 -43
12 l-40 9 -3 1337 -2 1337 22 0 c13 0 34 9 47 19 l25 19 -27 32 c-15 17 -27
38 -27 47 0 19 54 73 74 73 9 0 16 6 16 14 0 8 10 16 23 18 29 4 30 46 2 62
-11 6 -24 17 -28 24 -4 6 -15 12 -23 12 -19 0 -64 44 -64 63 0 8 11 31 25 51
14 20 25 38 25 40 0 5 -42 18 -65 19 -20 2 -20 11 -25 1512 -3 831 -6 1504 -8
1498 -1 -9 -24 -13 -71 -13 -46 0 -71 4 -74 13 -3 6 -7 -667 -9 -1498z"/>
</g>
</svg>
