<?xml version="1.0" standalone="no"?>
<!DOCTYPE svg PUBLIC "-//W3C//DTD SVG 20010904//EN"
 "http://www.w3.org/TR/2001/REC-SVG-20010904/DTD/svg10.dtd">
<svg version="1.0" xmlns="http://www.w3.org/2000/svg"
 width="2644.000000pt" height="2800.000000pt" viewBox="0 0 2644.000000 2800.000000"
 preserveAspectRatio="xMidYMid meet">

<g transform="translate(0.000000,2800.000000) scale(0.100000,-0.100000)"
fill="#3a4548" stroke="none">
<path d="M23973 27979 c33 -25 35 -55 5 -87 l-23 -24 44 -37 43 -37 2 -1238
c1 -1092 -1 -1240 -14 -1247 -8 -5 -27 -13 -42 -19 l-28 -9 25 -37 c14 -20 25
-43 25 -51 0 -19 -45 -63 -65 -63 -8 0 -15 -3 -15 -8 0 -4 -10 -12 -22 -17
-38 -17 -32 -35 37 -101 67 -63 67 -64 55 -94 -7 -17 -20 -35 -29 -40 -14 -8
-13 -11 9 -27 14 -9 34 -27 45 -38 20 -20 20 -27 20 -1636 0 -1290 -3 -1619
-13 -1632 -7 -8 -27 -21 -45 -28 -43 -17 -42 -16 -25 -36 32 -35 26 -79 -12
-101 -44 -25 -37 -32 28 -27 31 3 110 8 175 11 86 4 116 9 108 17 -17 17 -13
55 9 77 20 20 20 20 -11 35 -16 9 -39 25 -50 36 -19 19 -19 47 -19 1649 l0
1629 40 12 c22 7 40 14 40 17 0 2 -9 15 -20 29 -37 47 -20 100 38 117 12 4 22
11 22 16 0 4 9 10 20 13 34 9 22 41 -40 102 -33 33 -60 67 -60 76 0 9 9 28 20
42 l21 26 -33 30 c-18 17 -36 31 -40 31 -5 0 -8 560 -8 1245 l0 1245 28 11
c15 5 33 12 40 14 10 4 7 13 -12 36 -40 47 -31 86 24 109 16 7 30 16 30 21 0
5 -80 9 -177 9 l-178 -1 28 -20z"/>
</g>
</svg>
