<?xml version="1.0" standalone="no"?>
<!DOCTYPE svg PUBLIC "-//W3C//DTD SVG 20010904//EN"
 "http://www.w3.org/TR/2001/REC-SVG-20010904/DTD/svg10.dtd">
<svg version="1.0" xmlns="http://www.w3.org/2000/svg"
 width="2644.000000pt" height="2800.000000pt" viewBox="0 0 2644.000000 2800.000000"
 preserveAspectRatio="xMidYMid meet">

<g transform="translate(0.000000,2800.000000) scale(0.100000,-0.100000)"
fill="#3a4548" stroke="none">
<path d="M14395 13981 c-3 -5 -5 -682 -4 -1505 0 -823 -2 -1500 -6 -1506 -3
-5 -14 -10 -24 -10 -9 0 -25 -6 -36 -13 -17 -13 -17 -15 4 -44 32 -43 25 -83
-18 -105 -19 -9 -37 -21 -40 -26 -3 -5 -16 -14 -28 -21 -31 -16 -30 -49 2 -61
14 -5 25 -14 25 -20 0 -5 6 -10 14 -10 7 0 25 -9 40 -21 32 -25 35 -71 6 -96
-30 -26 -24 -40 24 -52 l43 -11 -2 -1252 c-1 -689 -3 -1269 -4 -1289 -1 -33
-5 -38 -41 -53 -22 -9 -40 -19 -40 -22 0 -3 9 -17 20 -31 28 -36 26 -77 -6
-102 -15 -12 -33 -21 -40 -21 -8 0 -14 -5 -14 -10 0 -6 -11 -16 -25 -22 -30
-14 -30 -45 0 -62 10 -6 25 -17 33 -23 7 -7 19 -13 26 -13 21 0 46 -34 46 -62
0 -14 -9 -37 -20 -51 -11 -14 -20 -27 -20 -30 0 -4 36 -17 60 -21 3 -1 10 -4
15 -8 11 -7 12 -2608 1 -2651 -4 -16 -23 -35 -52 -52 l-46 -27 21 -22 c12 -12
21 -29 21 -38 0 -21 -38 -68 -56 -68 -10 0 -14 -13 -14 -49 l0 -48 63 -6 c225
-22 238 -22 305 12 61 31 62 32 62 74 -1 36 -5 45 -33 62 -40 25 -46 59 -17
90 l22 24 -37 15 c-21 9 -41 16 -46 16 -4 0 -11 10 -14 21 -4 12 -8 613 -9
1336 l-1 1315 40 20 c53 27 52 25 25 53 -12 13 -22 36 -22 50 0 27 27 65 47
65 16 0 85 63 85 78 0 7 -11 17 -25 22 -14 5 -25 14 -25 20 0 5 -8 10 -18 10
-10 0 -31 13 -46 29 -26 27 -27 30 -13 64 8 19 20 38 26 41 21 14 11 26 -28
32 -33 5 -40 11 -43 33 -1 14 -3 595 -3 1290 l0 1263 40 16 c52 20 52 19 28
45 -41 44 -31 99 22 118 19 7 35 18 35 24 0 5 10 15 22 20 33 14 35 43 4 55
-14 5 -26 14 -26 20 0 5 -7 10 -16 10 -8 0 -29 13 -45 30 -33 33 -33 58 2 96
26 28 24 32 -18 40 -21 4 -41 12 -45 18 -4 6 -8 687 -8 1514 l0 1502 -74 0
c-41 0 -77 -4 -81 -9z"/>
</g>
</svg>
