<?xml version="1.0" standalone="no"?>
<!DOCTYPE svg PUBLIC "-//W3C//DTD SVG 20010904//EN"
 "http://www.w3.org/TR/2001/REC-SVG-20010904/DTD/svg10.dtd">
<svg version="1.0" xmlns="http://www.w3.org/2000/svg"
 width="2644.000000pt" height="2800.000000pt" viewBox="0 0 2644.000000 2800.000000"
 preserveAspectRatio="xMidYMid meet">

<g transform="translate(0.000000,2800.000000) scale(0.100000,-0.100000)"
fill="#3a4548" stroke="none">
<path d="M16992 23867 l-42 -43 0 -1072 c0 -925 -2 -1072 -14 -1072 -8 0 -26
-4 -40 -10 l-26 -9 25 -37 c14 -20 25 -41 25 -46 0 -15 -48 -58 -65 -58 -8 0
-15 -5 -15 -10 0 -6 -11 -15 -25 -20 -14 -5 -25 -14 -25 -19 0 -20 13 -41 26
-41 7 0 17 -6 21 -14 4 -7 18 -18 31 -25 12 -6 29 -22 38 -36 14 -21 14 -26
-1 -54 -8 -17 -20 -31 -25 -31 -24 0 -7 -19 30 -34 l40 -16 0 -1215 c0 -1049
-2 -1215 -14 -1215 -8 0 -26 -4 -40 -10 l-26 -9 25 -37 c14 -20 25 -40 25 -44
0 -17 -43 -60 -61 -60 -10 0 -19 -5 -19 -10 0 -6 -11 -15 -25 -20 -27 -10 -33
-33 -12 -50 45 -39 61 -50 77 -55 9 -3 22 -16 29 -29 14 -25 6 -49 -26 -81
-19 -20 -8 -31 40 -42 l27 -5 0 -1549 c0 -1321 -2 -1550 -14 -1562 -8 -8 -28
-20 -45 -27 -35 -14 -38 -22 -16 -40 8 -7 15 -25 15 -41 0 -22 -8 -34 -32 -49
-24 -14 -32 -27 -35 -54 l-4 -36 206 0 205 0 0 40 c0 27 -4 40 -13 40 -19 0
-57 43 -57 63 0 9 9 26 20 37 20 20 20 20 -13 36 -17 9 -40 23 -49 32 -17 14
-18 101 -18 1558 l0 1543 40 11 c22 6 40 13 40 16 0 3 -9 17 -20 31 -11 14
-20 36 -20 49 0 23 42 64 66 64 8 0 14 4 14 9 0 5 9 13 20 16 42 13 9 67 -65
105 -38 19 -46 67 -15 95 28 26 26 33 -20 51 l-40 16 2 1211 3 1211 35 9 c46
12 46 12 21 43 -11 15 -21 37 -21 49 0 22 38 65 58 65 16 0 62 41 62 55 0 12
-67 75 -80 75 -17 0 -40 32 -40 56 0 13 9 33 20 44 28 28 26 33 -20 53 l-40
17 0 1099 0 1100 -32 15 c-17 9 -32 16 -32 16 -1 0 -21 -19 -44 -43z"/>
</g>
</svg>
