<?xml version="1.0" standalone="no"?>
<!DOCTYPE svg PUBLIC "-//W3C//DTD SVG 20010904//EN"
 "http://www.w3.org/TR/2001/REC-SVG-20010904/DTD/svg10.dtd">
<svg version="1.0" xmlns="http://www.w3.org/2000/svg"
 width="2644.000000pt" height="2800.000000pt" viewBox="0 0 2644.000000 2800.000000"
 preserveAspectRatio="xMidYMid meet">

<g transform="translate(0.000000,2800.000000) scale(0.100000,-0.100000)"
fill="#C5C3C1" stroke="none">
<path d="M1580 12460 c0 -1747 0 -1761 -20 -1782 -23 -25 -25 -50 -8 -78 10
-16 10 -24 0 -40 -18 -29 -15 -58 8 -72 35 -22 23 -122 -23 -192 -10 -15 -25
-49 -33 -76 -8 -26 -21 -53 -29 -60 -19 -15 -19 -47 -1 -81 15 -30 8 -139 -12
-175 -12 -23 -4 -40 55 -107 21 -23 33 -48 33 -65 0 -16 7 -37 15 -48 21 -28
19 -91 -5 -116 -22 -24 -26 -58 -9 -75 9 -9 9 -20 -1 -43 -11 -25 -10 -35 0
-56 7 -13 17 -24 22 -24 4 0 8 -857 8 -1903 0 -1801 -1 -1905 -17 -1919 -10
-8 -33 -20 -51 -28 -30 -12 -44 -30 -22 -30 6 0 15 -11 22 -25 14 -31 -10 -72
-47 -81 -22 -5 -25 -12 -25 -48 l0 -42 128 -11 c126 -12 128 -12 222 15 l95
28 3 37 c3 33 0 37 -32 51 -46 19 -58 57 -26 90 l21 24 -43 14 c-24 8 -48 24
-54 36 -7 15 -9 586 -7 1907 4 1858 4 1887 23 1908 24 25 25 45 4 68 -15 16
-14 20 2 48 16 28 16 31 0 55 -9 14 -21 26 -26 26 -18 0 -10 62 11 97 12 20
22 49 21 66 -1 22 10 44 37 76 71 86 75 108 34 182 l-28 49 23 40 c38 66 29
104 -40 176 -21 22 -41 53 -44 69 -3 15 -9 36 -14 46 -12 22 -13 89 -1 89 5 0
17 12 26 27 16 24 16 28 1 54 -15 25 -15 29 1 57 16 28 16 30 -5 59 l-22 31 0
1709 0 1709 -48 47 c-40 39 -54 47 -85 47 l-37 0 0 -1760z m102 -2137 c23 -21
23 -34 -2 -56 -26 -22 -26 -22 -45 7 -14 20 -14 28 -3 45 16 25 26 26 50 4z
m92 -97 c19 -30 32 -101 19 -109 -5 -4 -27 11 -47 32 l-38 39 18 31 c22 37 27
38 48 7z m-186 -10 c9 -21 6 -29 -23 -63 l-34 -38 -1 28 c0 32 25 97 38 97 5
0 14 -11 20 -24z m113 -128 c27 -22 49 -46 49 -53 0 -18 -57 -69 -62 -54 -3 9
-9 8 -26 -2 -20 -13 -25 -11 -64 28 l-42 43 39 40 c21 22 43 40 48 40 5 0 31
-19 58 -42z m100 -110 c3 -54 -19 -128 -37 -128 -8 0 -53 54 -54 65 0 11 71
85 82 85 4 0 8 -10 9 -22z m-236 -33 c24 -33 25 -38 13 -65 -7 -17 -17 -30
-21 -30 -12 0 -37 66 -37 100 0 39 12 38 45 -5z m112 -117 c29 -27 29 -36 1
-65 l-22 -23 -23 22 c-27 25 -29 45 -6 70 20 23 22 23 50 -4z"/>
</g>
</svg>
