<?xml version="1.0" standalone="no"?>
<!DOCTYPE svg PUBLIC "-//W3C//DTD SVG 20010904//EN"
 "http://www.w3.org/TR/2001/REC-SVG-20010904/DTD/svg10.dtd">
<svg version="1.0" xmlns="http://www.w3.org/2000/svg"
 width="2644.000000pt" height="2800.000000pt" viewBox="0 0 2644.000000 2800.000000"
 preserveAspectRatio="xMidYMid meet">

<g transform="translate(0.000000,2800.000000) scale(0.100000,-0.100000)"
fill="#C5C3C1" stroke="none">
<path d="M8400 15914 c0 -1434 0 -1446 -20 -1471 -19 -24 -19 -28 -5 -50 12
-17 13 -28 5 -42 -15 -28 -12 -45 10 -71 23 -26 19 -59 -13 -102 -13 -18 -18
-36 -14 -54 4 -23 -3 -37 -33 -71 -51 -58 -55 -82 -28 -144 20 -48 23 -50 35
-33 9 11 12 31 9 48 -7 34 10 106 25 106 18 0 48 -43 49 -69 0 -16 -15 -38
-42 -63 -95 -87 -101 -132 -31 -221 39 -50 47 -69 51 -111 3 -39 0 -55 -12
-65 -18 -15 -21 -52 -5 -68 8 -8 6 -18 -6 -36 -14 -21 -14 -29 -3 -46 7 -12
16 -21 20 -21 5 0 8 -709 8 -1575 l0 -1575 -32 -20 c-18 -11 -37 -21 -42 -23
-5 -2 -1 -15 8 -29 20 -31 10 -62 -24 -73 -32 -10 -27 -67 7 -82 33 -16 229
-18 238 -3 3 6 17 10 30 10 42 0 55 11 55 44 0 23 -6 34 -22 41 -25 11 -37 60
-19 78 6 6 11 14 11 18 0 12 -70 31 -96 26 -29 -5 -33 13 -4 20 20 5 20 14 20
1565 l0 1560 21 30 c19 26 20 33 9 54 -11 19 -11 29 -1 48 11 19 10 27 0 45
-8 11 -17 21 -21 21 -5 0 -8 17 -8 38 0 40 17 76 68 142 34 46 41 89 20 135
-9 21 -8 32 10 69 33 66 29 91 -27 165 -14 18 -26 48 -27 66 0 18 -10 46 -22
63 -28 38 -28 65 0 102 19 26 20 32 8 55 -11 21 -11 29 0 49 11 21 10 28 -9
54 l-21 30 0 1441 0 1441 -65 0 -65 0 0 -1446z m6 -1779 c-9 -14 -21 -25 -27
-25 -5 0 0 13 12 30 27 35 39 32 15 -5z m93 -31 l24 -25 -30 -31 -30 -30 -23
32 -22 31 23 25 c28 30 28 30 58 -2z m80 -105 c13 -37 15 -89 3 -89 -10 0 -62
53 -62 63 0 12 32 57 40 57 5 0 13 -14 19 -31z m41 -4 c0 -8 -4 -15 -10 -15
-5 0 -10 7 -10 15 0 8 5 15 10 15 6 0 10 -7 10 -15z m-110 -100 l34 -35 -37
-38 -37 -37 -37 37 -37 38 34 35 c19 19 37 35 40 35 3 0 21 -16 40 -35z m-95
-170 c-4 -11 -7 -25 -7 -32 -3 -36 -48 47 -48 89 0 21 1 21 31 -8 21 -21 28
-34 24 -49z m185 43 c0 -4 -8 -12 -19 -17 -10 -6 -22 -22 -25 -36 -8 -31 -20
-32 -33 -2 -8 18 -5 28 14 54 21 28 27 30 44 20 10 -6 19 -15 19 -19z m-110
-119 c0 -25 -19 -34 -37 -16 -12 12 -13 18 -2 35 15 24 39 12 39 -19z"/>
</g>
</svg>
