<?xml version="1.0" standalone="no"?>
<!DOCTYPE svg PUBLIC "-//W3C//DTD SVG 20010904//EN"
 "http://www.w3.org/TR/2001/REC-SVG-20010904/DTD/svg10.dtd">
<svg version="1.0" xmlns="http://www.w3.org/2000/svg"
 width="2644.000000pt" height="2800.000000pt" viewBox="0 0 2644.000000 2800.000000"
 preserveAspectRatio="xMidYMid meet">

<g transform="translate(0.000000,2800.000000) scale(0.100000,-0.100000)"
fill="#C5C3C1" stroke="none">
<path d="M8937 17322 c-16 -3 -17 -95 -17 -1425 l0 -1421 -22 -23 c-19 -20
-20 -26 -8 -48 10 -19 11 -30 2 -50 -9 -20 -9 -30 0 -45 7 -11 16 -20 20 -20
16 0 7 -66 -12 -90 -11 -14 -20 -36 -19 -50 0 -25 0 -25 29 8 16 17 32 32 35
32 15 0 -2 -24 -59 -82 -82 -84 -95 -120 -66 -185 20 -45 22 -47 36 -28 9 12
12 30 8 50 -3 19 1 47 10 70 l17 39 28 -35 c16 -18 26 -41 23 -49 -3 -8 -31
-43 -64 -77 -79 -83 -79 -114 -1 -209 45 -55 54 -120 24 -161 -19 -25 -20 -33
-11 -55 9 -19 9 -31 0 -48 -10 -19 -9 -27 9 -51 21 -28 21 -33 21 -748 l0
-720 -22 -21 c-12 -11 -27 -20 -34 -20 -22 0 -25 -19 -8 -45 16 -24 15 -26
-15 -54 -39 -36 -44 -86 -8 -93 57 -10 247 -9 247 1 0 6 18 11 40 11 38 0 40
1 40 33 0 25 -6 36 -30 49 -33 19 -39 48 -14 73 9 9 15 17 13 18 -20 14 -67
27 -97 28 l-37 1 28 11 27 11 0 725 c0 668 1 726 17 743 14 16 15 24 5 51 -8
20 -8 35 -2 41 16 16 11 45 -11 67 -33 33 -19 93 36 157 52 62 62 97 41 147
-15 35 -15 40 4 70 30 49 26 94 -15 154 -20 28 -35 63 -35 79 0 15 -11 43 -25
62 -31 42 -32 67 -3 97 19 21 21 27 11 54 -9 24 -9 35 0 50 10 16 9 25 -5 50
-17 29 -18 116 -18 1444 0 1373 -1 1415 -19 1424 -17 10 -53 11 -94 3z m73
-3202 c11 -11 20 -23 20 -27 -1 -11 -37 -53 -45 -53 -9 0 -44 43 -45 54 0 12
30 46 42 46 4 0 17 -9 28 -20z m79 -92 c13 -37 20 -97 12 -102 -4 -3 -22 10
-40 28 l-32 33 18 31 c21 38 31 40 42 10z m43 -13 c0 -5 -5 -11 -11 -13 -6 -2
-11 4 -11 13 0 9 5 15 11 13 6 -2 11 -8 11 -13z m-105 -107 l33 -32 -32 -33
c-18 -18 -36 -33 -42 -33 -6 0 -25 14 -43 32 l-33 32 32 33 c18 18 36 33 42
33 6 0 25 -14 43 -32z m-90 -160 c-3 -9 -1 -18 4 -20 4 -2 -1 -14 -12 -28 -11
-14 -19 -18 -17 -10 1 8 -6 29 -15 47 -9 18 -17 44 -17 59 l0 28 31 -30 c18
-17 28 -36 26 -46z m183 53 c0 -4 -11 -17 -25 -29 -14 -12 -25 -28 -25 -36 0
-27 -20 -27 -32 -1 -10 22 -8 29 16 54 18 19 34 27 47 24 10 -3 19 -8 19 -12z
m-110 -132 c0 -3 -6 -12 -14 -18 -22 -18 -41 11 -25 40 11 22 12 22 25 4 8
-10 14 -22 14 -26z"/>
</g>
</svg>
