<?xml version="1.0" standalone="no"?>
<!DOCTYPE svg PUBLIC "-//W3C//DTD SVG 20010904//EN"
 "http://www.w3.org/TR/2001/REC-SVG-20010904/DTD/svg10.dtd">
<svg version="1.0" xmlns="http://www.w3.org/2000/svg"
 width="2644.000000pt" height="2800.000000pt" viewBox="0 0 2644.000000 2800.000000"
 preserveAspectRatio="xMidYMid meet">

<g transform="translate(0.000000,2800.000000) scale(0.100000,-0.100000)"
fill="#C5C3C1" stroke="none">
<path d="M10398 17202 l-38 -3 0 -1350 c0 -1236 -1 -1352 -16 -1375 -14 -21
-15 -29 -4 -48 9 -19 9 -27 -1 -44 -12 -18 -10 -25 9 -51 28 -38 28 -52 -3
-97 -14 -21 -24 -49 -23 -64 1 -17 -9 -40 -29 -66 -46 -57 -50 -85 -19 -140
23 -42 24 -48 11 -67 -26 -38 -19 -80 25 -134 64 -81 75 -130 39 -169 -19 -21
-20 -26 -9 -54 9 -23 10 -33 1 -44 -9 -11 -8 -22 7 -49 10 -20 18 -46 16 -59
-1 -13 -3 -323 -3 -690 l-1 -667 -32 -17 c-44 -22 -44 -21 -24 -43 20 -22 10
-53 -24 -71 -13 -7 -20 -21 -20 -41 l0 -30 163 3 162 3 3 33 c3 26 -1 34 -21
41 -32 13 -41 39 -22 68 15 23 15 24 -21 39 -20 9 -45 13 -56 11 -10 -3 -18
-1 -18 4 0 5 7 9 15 9 8 0 15 6 15 13 0 6 2 319 4 695 4 601 6 686 20 707 13
20 14 29 4 50 -9 19 -9 28 0 37 17 17 15 31 -9 57 -17 18 -20 30 -15 66 4 24
14 49 23 57 25 20 73 100 73 120 0 11 -7 32 -15 48 -14 27 -14 32 5 62 29 48
26 97 -10 146 -17 24 -30 55 -30 71 0 15 -11 45 -25 65 -24 36 -34 86 -17 86
5 0 15 11 22 25 11 20 11 27 0 40 -10 12 -10 21 -1 42 9 21 9 30 -4 49 -13 21
-15 177 -15 1373 l0 1349 -27 3 c-16 2 -45 3 -65 1z m72 -3071 c-1 -3 -10 -17
-21 -30 l-20 -25 -27 27 -26 26 24 26 24 25 23 -22 c13 -12 23 -24 23 -27z
m-109 -63 c10 -13 18 -28 19 -34 0 -15 -55 -66 -63 -57 -11 10 -8 59 5 88 14
31 15 31 39 3z m168 -9 c12 -36 14 -72 4 -82 -3 -4 -19 8 -34 25 -26 32 -26
34 -11 61 21 35 28 34 41 -4z m-67 -96 c35 -34 35 -43 -2 -78 l-30 -29 -35 34
-35 34 32 33 c18 18 34 33 37 33 3 0 18 -12 33 -27z m-86 -169 c-6 -24 -9 -25
-22 -12 -8 8 -17 32 -21 54 l-5 39 27 -27 c22 -21 26 -31 21 -54z m135 13
c-12 -30 -26 -35 -35 -11 -3 9 4 30 16 47 21 29 23 30 26 11 2 -11 -2 -32 -7
-47z m-71 -72 c0 -16 -6 -25 -15 -25 -15 0 -21 31 -8 43 13 14 23 6 23 -18z"/>
</g>
</svg>
