<?xml version="1.0" standalone="no"?>
<!DOCTYPE svg PUBLIC "-//W3C//DTD SVG 20010904//EN"
 "http://www.w3.org/TR/2001/REC-SVG-20010904/DTD/svg10.dtd">
<svg version="1.0" xmlns="http://www.w3.org/2000/svg"
 width="2644.000000pt" height="2800.000000pt" viewBox="0 0 2644.000000 2800.000000"
 preserveAspectRatio="xMidYMid meet">

<g transform="translate(0.000000,2800.000000) scale(0.100000,-0.100000)"
fill="#C5C3C1" stroke="none">
<path d="M3000 12441 c0 -1596 -2 -1780 -16 -1791 -31 -26 -36 -49 -18 -79 15
-26 15 -30 0 -54 -19 -27 -13 -51 18 -77 34 -28 8 -135 -52 -214 -70 -93 -76
-115 -42 -180 l19 -39 -24 -49 c-14 -27 -25 -58 -25 -69 0 -33 26 -85 64 -127
24 -26 36 -49 36 -68 0 -16 9 -42 20 -59 24 -36 26 -88 4 -105 -31 -26 -36
-49 -18 -79 15 -26 15 -30 0 -54 -18 -27 -13 -51 18 -76 14 -12 16 -211 16
-1923 0 -1263 -4 -1916 -10 -1928 -6 -11 -31 -28 -57 -40 -46 -20 -46 -21 -25
-36 36 -25 30 -70 -13 -95 -30 -18 -35 -26 -35 -59 0 -38 0 -39 48 -46 26 -4
94 -8 152 -8 86 0 117 4 175 24 l70 25 0 40 c0 32 -4 40 -20 43 -53 10 -72 66
-34 101 l21 19 -50 16 c-28 10 -53 24 -56 32 -3 8 -6 874 -6 1923 0 1707 2
1910 16 1922 31 25 36 48 18 79 -17 28 -17 30 1 50 15 17 16 24 7 45 -7 14
-19 28 -27 31 -23 9 -19 71 7 106 12 17 21 45 21 62 0 19 12 48 31 75 78 110
80 118 39 191 l-27 48 23 50 c30 65 23 97 -38 165 -47 50 -54 68 -67 158 -5
29 -1 41 20 64 30 33 31 38 10 70 -14 22 -14 26 1 53 17 27 17 30 0 55 -9 15
-21 27 -26 27 -5 0 -9 734 -9 1733 l0 1733 -48 47 c-37 36 -55 47 -80 47 l-32
0 0 -1779z m98 -2153 c18 -18 15 -42 -7 -62 -19 -17 -20 -17 -36 7 -27 42 10
88 43 55z m-94 -113 c5 -19 0 -34 -16 -55 -27 -34 -38 -37 -38 -10 0 28 31
101 40 95 4 -3 11 -16 14 -30z m191 5 c8 -16 15 -48 15 -72 l0 -42 -44 43 -45
44 22 28 c26 36 33 36 52 -1z m-70 -135 l50 -44 -21 -28 c-12 -16 -31 -28 -45
-29 -13 -1 -31 -4 -39 -8 -10 -4 -29 7 -55 34 l-39 40 39 40 c21 22 44 40 50
40 5 -1 32 -21 60 -45z m95 -136 c0 -36 -23 -99 -35 -99 -3 0 -18 15 -35 33
l-29 32 41 42 c23 23 45 40 50 37 4 -3 8 -23 8 -45z m-237 -4 c27 -33 28 -35
12 -64 -20 -39 -30 -39 -44 0 -13 36 -15 99 -3 98 4 0 20 -16 35 -34z m114
-117 c28 -26 28 -36 4 -65 -24 -29 -32 -29 -60 1 -23 25 -22 34 7 69 19 22 21
21 49 -5z"/>
</g>
</svg>
