<?xml version="1.0" standalone="no"?>
<!DOCTYPE svg PUBLIC "-//W3C//DTD SVG 20010904//EN"
 "http://www.w3.org/TR/2001/REC-SVG-20010904/DTD/svg10.dtd">
<svg version="1.0" xmlns="http://www.w3.org/2000/svg"
 width="2644.000000pt" height="2800.000000pt" viewBox="0 0 2644.000000 2800.000000"
 preserveAspectRatio="xMidYMid meet">

<g transform="translate(0.000000,2800.000000) scale(0.100000,-0.100000)"
fill="#C5C3C1" stroke="none">
<path d="M4456 15131 l-36 -49 0 -1618 c0 -1591 -1 -1619 -20 -1644 -23 -29
-25 -51 -8 -68 9 -9 9 -20 -1 -47 -13 -37 -6 -57 27 -78 20 -13 14 -61 -13
-97 -14 -19 -25 -45 -25 -59 1 -25 1 -25 33 12 18 20 35 37 40 37 20 0 1 -31
-49 -80 -74 -72 -114 -127 -114 -157 0 -19 32 -96 46 -112 12 -13 34 37 29 66
-6 36 10 109 26 119 6 3 23 -9 38 -27 25 -30 26 -35 16 -66 -7 -19 -34 -54
-62 -78 -59 -52 -88 -105 -78 -143 3 -15 27 -53 51 -84 25 -32 47 -70 50 -85
3 -14 9 -34 14 -44 16 -29 11 -57 -15 -85 -28 -30 -31 -45 -13 -74 10 -16 10
-24 0 -40 -17 -28 -15 -43 8 -68 20 -21 20 -32 18 -1459 l-3 -1438 -47 -25
-48 -26 22 -22 c18 -18 20 -26 12 -49 -5 -15 -22 -34 -37 -41 -22 -11 -27 -20
-27 -51 l0 -39 133 -6 c109 -5 145 -3 207 11 l75 18 3 40 c3 37 0 41 -27 52
-41 15 -51 56 -21 88 l22 23 -36 12 c-72 23 -66 -111 -66 1471 0 786 4 1429 8
1429 5 0 14 11 21 24 11 19 11 30 0 60 -10 28 -10 39 -1 48 19 19 14 43 -15
72 -26 26 -26 27 -13 83 10 39 26 70 53 102 67 77 80 124 50 186 -16 34 -16
37 5 80 37 75 30 112 -34 192 -20 25 -34 53 -34 70 0 15 -12 46 -25 68 -31 50
-31 74 0 104 27 25 32 50 13 69 -9 9 -9 20 1 48 11 30 11 41 0 60 -7 13 -16
24 -21 24 -4 0 -8 752 -8 1670 l0 1670 -44 0 c-41 0 -47 -3 -80 -49z m103
-3711 c1 -3 -10 -18 -23 -35 l-24 -30 -26 24 c-32 30 -32 38 -5 67 l22 23 28
-22 c15 -12 28 -24 28 -27z m67 -85 c15 -36 19 -105 7 -105 -5 0 -22 17 -39
37 l-31 37 19 33 c11 18 22 33 24 33 3 0 12 -16 20 -35z m47 -30 c-3 -8 -9
-15 -14 -15 -10 0 -12 24 -3 33 11 11 24 -3 17 -18z m-116 -97 c18 -18 33 -36
33 -42 0 -6 -16 -27 -36 -48 l-37 -37 -43 36 c-24 19 -44 39 -44 44 0 11 72
78 85 79 5 0 24 -14 42 -32z m-135 -144 l38 -35 -22 -30 c-12 -16 -23 -29 -25
-29 -1 0 -9 13 -17 28 -18 35 -31 102 -20 102 5 0 26 -16 46 -36z m236 -6 c-6
-15 -17 -28 -25 -28 -8 0 -20 -13 -26 -30 -14 -38 -20 -38 -35 2 -11 29 -10
34 13 58 16 17 36 27 54 27 27 0 28 -2 19 -29z m-132 -113 c12 -48 -18 -74
-46 -40 -10 12 -9 20 4 40 21 32 34 32 42 0z m-105 -8 c-10 -9 -11 -8 -5 6 3
10 9 15 12 12 3 -3 0 -11 -7 -18z"/>
</g>
</svg>
