<?xml version="1.0" standalone="no"?>
<!DOCTYPE svg PUBLIC "-//W3C//DTD SVG 20010904//EN"
 "http://www.w3.org/TR/2001/REC-SVG-20010904/DTD/svg10.dtd">
<svg version="1.0" xmlns="http://www.w3.org/2000/svg"
 width="2644.000000pt" height="2800.000000pt" viewBox="0 0 2644.000000 2800.000000"
 preserveAspectRatio="xMidYMid meet">

<g transform="translate(0.000000,2800.000000) scale(0.100000,-0.100000)"
fill="#C5C3C1" stroke="none">
<path d="M15941 14108 l-60 -53 -1 -1793 c0 -1580 -2 -1795 -15 -1808 -22 -22
-30 -64 -16 -85 14 -23 14 -56 1 -64 -17 -10 -11 -54 9 -74 18 -18 25 -43 22
-83 -1 -9 -17 -35 -37 -59 -28 -34 -34 -49 -32 -77 4 -50 21 -50 57 0 17 23
31 37 31 30 0 -6 -33 -47 -72 -92 -117 -129 -127 -159 -81 -238 43 -76 44 -76
64 -45 14 21 15 30 6 41 -18 23 -14 115 7 147 l19 29 38 -45 c52 -61 46 -86
-36 -164 -88 -83 -111 -136 -83 -188 6 -12 30 -44 53 -72 57 -68 67 -90 67
-146 0 -34 -5 -54 -21 -70 -23 -25 -27 -60 -9 -88 9 -15 9 -25 0 -46 -17 -37
-15 -58 8 -83 20 -21 20 -32 18 -2304 l-3 -2283 -53 -34 c-50 -32 -51 -35 -32
-48 36 -25 24 -85 -21 -109 -26 -13 -29 -20 -29 -64 l0 -50 35 -1 c19 -1 38
-2 43 -3 4 -1 62 -6 128 -10 l122 -8 61 33 c60 34 61 34 61 79 0 41 -3 47 -30
57 -16 6 -35 23 -41 37 -11 23 -9 31 9 56 12 16 22 31 22 34 0 2 -17 10 -37
16 -21 7 -44 19 -50 28 -10 13 -13 487 -13 2294 0 1302 4 2278 9 2278 5 0 14
14 21 31 11 27 11 35 -4 60 -16 28 -16 32 -2 54 22 33 20 48 -9 79 -19 21 -25
38 -25 73 0 40 5 51 48 98 27 29 56 69 65 88 20 41 22 105 5 142 -10 21 -7 32
17 76 23 43 27 60 23 109 -3 46 -11 67 -41 109 -25 35 -37 62 -37 85 0 46 -15
82 -50 123 -38 43 -40 91 -5 129 29 31 31 51 9 83 -16 22 -16 25 0 51 21 37
20 52 -4 78 -21 22 -21 25 -21 1867 l0 1845 -24 0 c-15 0 -47 -20 -84 -52z
m66 -4130 c18 -18 33 -37 33 -42 0 -6 -14 -27 -30 -46 l-29 -35 -35 34 c-20
19 -36 39 -36 44 0 9 51 75 60 76 2 1 19 -13 37 -31z m113 -191 c5 -34 6 -65
1 -70 -4 -4 -24 12 -44 37 l-37 44 27 41 c32 50 40 42 53 -52z m-88 -94 c21
-20 38 -42 38 -48 0 -6 -20 -31 -45 -55 l-45 -44 -47 47 -47 47 44 45 c24 25
49 45 54 45 6 0 27 -17 48 -37z m-148 -162 l37 -38 -19 -32 c-15 -25 -21 -29
-30 -18 -30 35 -54 127 -34 127 4 0 25 -17 46 -39z m205 -8 c0 -10 -9 -36 -18
-58 l-18 -40 -13 27 c-11 24 -10 30 11 57 27 34 39 39 38 14z m-106 -125 c5
-17 -3 -48 -14 -48 -14 0 -21 19 -14 40 7 23 21 26 28 8z"/>
</g>
</svg>
