<?xml version="1.0" standalone="no"?>
<!DOCTYPE svg PUBLIC "-//W3C//DTD SVG 20010904//EN"
 "http://www.w3.org/TR/2001/REC-SVG-20010904/DTD/svg10.dtd">
<svg version="1.0" xmlns="http://www.w3.org/2000/svg"
 width="2644.000000pt" height="2800.000000pt" viewBox="0 0 2644.000000 2800.000000"
 preserveAspectRatio="xMidYMid meet">

<g transform="translate(0.000000,2800.000000) scale(0.100000,-0.100000)"
fill="#C5C3C1" stroke="none">
<path d="M14308 14115 l-58 -54 0 -1766 c0 -1752 0 -1766 -20 -1787 -21 -23
-27 -63 -10 -73 6 -3 10 -17 10 -30 0 -13 -4 -27 -10 -30 -19 -12 -10 -59 16
-86 22 -23 25 -34 20 -62 -3 -19 -16 -43 -28 -53 -29 -26 -47 -74 -41 -107 5
-24 22 -39 23 -19 1 12 70 88 70 76 0 -7 -32 -47 -72 -90 -87 -97 -108 -129
-108 -172 0 -26 32 -101 57 -132 3 -3 13 6 23 20 13 17 16 29 9 42 -14 27 -10
106 7 140 l17 32 38 -42 c53 -56 47 -88 -31 -162 -118 -113 -122 -162 -26
-272 67 -77 85 -165 41 -207 -27 -25 -32 -60 -13 -91 10 -16 10 -24 0 -40 -17
-28 -15 -54 8 -83 20 -25 20 -40 20 -2265 0 -2043 -1 -2242 -16 -2257 -9 -8
-34 -25 -56 -36 -39 -20 -40 -21 -19 -35 14 -11 21 -26 21 -50 0 -29 -6 -38
-35 -55 -31 -19 -35 -25 -35 -64 0 -50 0 -50 155 -60 50 -4 100 -11 112 -17
17 -8 35 -4 95 26 73 37 85 51 87 104 1 13 -6 25 -16 29 -30 10 -63 45 -63 67
0 11 10 30 22 43 l21 23 -36 15 c-20 8 -41 15 -46 15 -5 0 -12 7 -15 16 -3 9
-6 1021 -6 2249 l0 2234 22 36 c20 35 20 38 4 65 -15 27 -15 31 0 63 15 32 15
36 -1 61 -10 14 -21 26 -26 26 -14 0 -10 88 5 118 8 15 24 36 36 47 13 11 36
40 52 64 32 51 37 114 14 160 -14 26 -13 31 10 65 49 72 44 146 -13 222 -27
35 -39 62 -44 101 -5 35 -17 67 -38 95 -39 53 -41 96 -6 134 29 31 31 46 9 79
-15 23 -15 27 0 50 21 31 20 41 -4 75 -20 28 -20 41 -20 1844 l0 1816 -28 0
c-19 -1 -44 -17 -84 -55z m74 -4062 c35 -33 35 -41 -1 -83 l-29 -35 -36 34
c-20 19 -36 39 -36 45 0 13 51 66 64 66 5 0 23 -12 38 -27z m93 -126 c16 -38
23 -123 11 -134 -7 -7 -27 13 -62 63 -13 19 -12 25 8 62 13 23 24 42 26 42 2
0 9 -15 17 -33z m-73 -154 c21 -20 38 -42 38 -48 0 -6 -20 -30 -43 -53 l-44
-43 -46 42 c-26 23 -47 45 -47 50 0 11 82 88 95 89 5 0 26 -17 47 -37z m-128
-231 c-10 -17 -22 -28 -27 -25 -16 10 -47 87 -47 118 l0 30 46 -46 46 -47 -18
-30z m186 61 c-25 -86 -43 -104 -54 -57 -6 21 -1 33 20 55 35 36 45 37 34 2z
m-107 -151 c-6 -26 -16 -28 -33 -7 -10 13 -9 19 6 36 14 16 19 17 25 6 5 -7 5
-23 2 -35z"/>
</g>
</svg>
