<?xml version="1.0" standalone="no"?>
<!DOCTYPE svg PUBLIC "-//W3C//DTD SVG 20010904//EN"
 "http://www.w3.org/TR/2001/REC-SVG-20010904/DTD/svg10.dtd">
<svg version="1.0" xmlns="http://www.w3.org/2000/svg"
 width="2644.000000pt" height="2800.000000pt" viewBox="0 0 2644.000000 2800.000000"
 preserveAspectRatio="xMidYMid meet">

<g transform="translate(0.000000,2800.000000) scale(0.100000,-0.100000)"
fill="#C5C3C1" stroke="none">
<path d="M14935 15170 l-25 -49 0 -1702 c0 -1686 0 -1701 -20 -1726 -22 -28
-26 -58 -10 -68 6 -3 10 -17 10 -30 0 -13 -4 -27 -10 -30 -17 -11 -11 -50 12
-75 32 -35 29 -80 -10 -124 -24 -28 -32 -46 -32 -76 0 -22 4 -40 8 -40 5 0 23
21 41 46 18 25 35 43 38 40 9 -9 -21 -52 -79 -111 -53 -55 -108 -134 -108
-155 0 -5 16 -36 36 -69 33 -55 38 -60 50 -44 9 13 11 37 7 80 -6 61 9 123 28
123 5 0 23 -15 39 -32 47 -52 41 -87 -21 -140 -58 -49 -99 -112 -99 -152 0
-34 13 -58 60 -116 50 -60 59 -80 61 -133 2 -31 -3 -51 -14 -62 -23 -22 -32
-64 -18 -78 14 -14 14 -42 -1 -66 -9 -14 -8 -26 2 -50 7 -17 16 -31 21 -31 5
0 9 -699 9 -1628 0 -1288 -3 -1631 -12 -1644 -10 -12 -41 -32 -86 -55 -2 -1 6
-15 19 -32 19 -26 21 -34 11 -55 -6 -14 -24 -32 -39 -40 -26 -13 -28 -19 -25
-54 4 -40 5 -40 50 -46 26 -3 91 -8 145 -12 86 -5 105 -3 162 17 l65 23 0 43
c0 33 -4 45 -17 50 -52 18 -66 59 -36 103 9 13 13 25 7 27 -5 2 -25 12 -44 21
l-35 17 -3 1633 -2 1633 22 30 c22 29 22 31 5 61 -16 28 -16 33 -2 54 21 32
19 48 -10 75 -18 17 -25 35 -25 62 0 47 11 68 66 130 58 65 72 111 52 172 -16
46 -15 47 15 106 29 57 30 62 19 106 -7 26 -28 68 -47 94 -25 33 -35 57 -35
83 0 41 -11 67 -46 109 -24 29 -34 97 -14 97 5 0 17 14 26 32 15 29 15 33 -1
60 -15 27 -16 31 0 54 17 26 13 54 -11 78 -12 13 -14 257 -14 1765 l0 1751
-55 0 -55 0 -25 -50z m125 -3951 c0 -13 -51 -69 -63 -69 -7 0 -25 16 -41 36
l-28 36 33 34 33 34 33 -32 c18 -18 33 -35 33 -39z m68 -101 c19 -77 21 -93
13 -107 -7 -10 -17 -4 -45 25 -19 22 -36 42 -36 46 0 12 42 78 50 78 4 0 12
-19 18 -42z m52 11 c0 -5 -7 -9 -15 -9 -9 0 -12 6 -9 15 6 15 24 11 24 -6z
m-130 -144 l44 -45 -45 -46 -46 -46 -49 46 -49 45 45 46 c24 25 47 45 50 45 3
0 26 -20 50 -45z m-141 -149 c32 -33 33 -37 21 -65 -7 -17 -16 -31 -20 -31
-10 0 -39 61 -46 99 -8 40 4 39 45 -3z m221 4 c-7 -5 -21 -28 -31 -51 -20 -52
-34 -59 -43 -23 -8 29 21 69 59 84 24 9 35 2 15 -10z m-170 -83 c0 -2 -10 -12
-21 -23 -22 -19 -22 -19 -8 4 12 19 29 30 29 19z m50 -61 c0 -14 -5 -28 -11
-32 -17 -10 -32 12 -24 35 9 29 35 27 35 -3z"/>
</g>
</svg>
