<?xml version="1.0" standalone="no"?>
<!DOCTYPE svg PUBLIC "-//W3C//DTD SVG 20010904//EN"
 "http://www.w3.org/TR/2001/REC-SVG-20010904/DTD/svg10.dtd">
<svg version="1.0" xmlns="http://www.w3.org/2000/svg"
 width="3542.000000pt" height="3750.000000pt" viewBox="0 0 3542.000000 3750.000000"
 preserveAspectRatio="xMidYMid meet">

<g transform="translate(0.000000,3750.000000) scale(0.100000,-0.100000)"
fill="#3a4548" stroke="none">
<path d="M657 17293 c-3 -812 -7 -1191 -16 -1268 -28 -256 -66 -492 -120 -745
-17 -77 -18 -102 -9 -137 13 -52 53 -94 105 -109 34 -10 38 -14 41 -47 2 -24
-1 -38 -10 -41 -7 -2 -31 -9 -53 -15 -69 -19 -75 -27 -38 -56 36 -29 51 -77
33 -109 -14 -27 -60 -56 -88 -56 -11 0 -22 -8 -25 -20 -3 -11 -14 -20 -25 -20
-52 0 -56 -69 -4 -85 21 -6 32 -15 32 -27 0 -12 7 -18 21 -18 12 0 37 -9 55
-21 57 -35 57 -90 1 -142 -38 -35 -34 -38 91 -73 13 -4 16 -52 4 -70 -4 -6
-17 -14 -30 -18 -32 -11 -80 -54 -99 -89 -22 -43 -19 -103 16 -257 88 -399
119 -726 120 -1280 2 -500 -31 -847 -121 -1269 -36 -174 -35 -227 8 -272 16
-17 48 -36 72 -42 42 -11 43 -12 40 -51 -2 -30 -8 -40 -23 -42 -10 -2 -39 -10
-62 -19 l-44 -17 36 -39 c43 -48 46 -85 9 -122 -14 -15 -41 -29 -60 -33 -19
-3 -34 -12 -34 -20 0 -8 -16 -20 -35 -28 -23 -10 -35 -22 -35 -34 0 -23 30
-52 53 -52 9 0 17 -7 17 -15 0 -8 16 -18 36 -24 94 -26 111 -105 36 -168 l-25
-21 39 -18 c21 -10 50 -20 64 -24 21 -4 25 -12 28 -46 3 -38 1 -42 -25 -47
-68 -13 -123 -92 -123 -174 0 -26 11 -93 25 -148 48 -197 97 -529 114 -770 13
-178 14 -2335 1 -2335 -5 0 -10 -7 -10 -15 0 -8 -4 -15 -9 -15 -5 0 -34 -12
-65 -26 l-57 -26 24 -22 c54 -50 42 -106 -28 -137 l-45 -20 3 -56 2 -57 112
-32 c109 -31 114 -31 185 -19 40 7 118 20 173 29 55 10 110 19 123 22 20 4 22
10 22 64 0 48 -3 60 -16 60 -29 0 -73 33 -84 63 -11 33 7 79 37 96 15 8 7 14
-45 37 -41 18 -68 36 -76 53 -11 21 -13 237 -11 1171 2 991 4 1166 19 1304 9
88 18 171 21 185 2 14 11 78 20 141 9 63 32 192 52 285 39 190 41 229 18 278
-15 32 -39 49 -108 76 -24 9 -28 16 -25 42 3 27 9 33 55 49 77 27 78 27 38 71
-19 21 -35 50 -35 63 0 35 36 74 81 87 21 7 39 17 39 24 0 6 15 18 33 26 45
20 45 58 -1 78 -17 8 -32 20 -32 26 0 7 -18 17 -39 24 -45 13 -81 52 -81 87 0
13 16 42 36 64 l36 40 -33 14 c-19 7 -47 18 -64 23 -27 9 -30 14 -30 48 0 32
4 40 23 45 32 7 89 56 108 91 21 41 19 108 -5 209 -29 117 -77 398 -95 555
-26 219 -33 404 -30 810 5 527 25 748 109 1170 45 227 46 252 18 308 -16 32
-68 67 -100 67 -20 0 -23 5 -23 45 0 37 3 45 19 45 16 0 90 26 100 36 2 2 -13
22 -33 44 -34 38 -45 73 -28 95 17 24 66 55 88 55 16 0 24 6 24 18 0 12 11 21
33 27 27 8 32 15 32 40 0 24 -6 33 -32 44 -18 8 -33 21 -33 28 0 7 -8 13 -17
13 -26 0 -80 35 -93 60 -16 30 -4 68 31 101 17 16 28 32 25 37 -4 7 -38 20
-103 38 -8 2 -13 20 -13 43 0 36 3 40 33 50 36 12 76 50 97 90 19 38 15 106
-14 234 -32 139 -68 349 -92 537 -16 121 -18 257 -21 1343 l-4 1207 -114 0
-114 0 -4 -1157z"/>
</g>
</svg>
