<?xml version="1.0" standalone="no"?>
<!DOCTYPE svg PUBLIC "-//W3C//DTD SVG 20010904//EN"
 "http://www.w3.org/TR/2001/REC-SVG-20010904/DTD/svg10.dtd">
<svg version="1.0" xmlns="http://www.w3.org/2000/svg"
 width="3542.000000pt" height="3750.000000pt" viewBox="0 0 3542.000000 3750.000000"
 preserveAspectRatio="xMidYMid meet">

<g transform="translate(0.000000,3750.000000) scale(0.100000,-0.100000)"
fill="#3a4548" stroke="none">
<path d="M13380 17673 c0 -1104 -5 -1200 -89 -1677 -19 -114 -17 -145 14 -193
9 -14 30 -29 46 -35 24 -8 29 -15 29 -44 0 -26 -4 -34 -18 -34 -18 0 -82 -28
-82 -35 0 -2 11 -15 25 -29 47 -47 23 -116 -46 -131 -16 -4 -29 -13 -29 -21 0
-8 -9 -14 -20 -14 -26 0 -46 -36 -29 -56 6 -8 17 -14 23 -14 6 0 19 -9 29 -20
9 -11 23 -20 31 -20 7 0 25 -9 40 -21 35 -28 36 -77 1 -109 -14 -13 -25 -26
-25 -30 0 -8 61 -30 83 -30 13 0 17 -9 17 -37 0 -33 -5 -40 -32 -53 -68 -32
-84 -106 -54 -252 27 -133 56 -350 72 -548 13 -155 15 -285 11 -635 -3 -242
-10 -478 -16 -525 -6 -47 -13 -114 -17 -150 -3 -36 -19 -144 -35 -240 -16 -96
-29 -192 -29 -213 0 -54 23 -93 65 -108 33 -12 36 -16 33 -48 -3 -31 -7 -35
-50 -48 -27 -7 -48 -18 -48 -23 0 -6 4 -10 10 -10 15 0 43 -48 43 -75 0 -33
-27 -62 -64 -70 -16 -4 -29 -10 -29 -15 0 -5 -12 -15 -27 -22 -41 -19 -43 -56
-4 -71 17 -6 31 -17 31 -24 0 -7 9 -13 21 -13 11 0 34 -13 50 -30 35 -34 33
-58 -9 -102 -14 -15 -24 -30 -21 -32 2 -2 24 -11 49 -19 40 -13 45 -18 48 -48
2 -29 -2 -37 -27 -51 -43 -24 -71 -74 -71 -128 0 -25 9 -94 21 -155 29 -158
56 -377 69 -550 7 -98 10 -478 8 -1095 l-3 -945 -58 -28 -58 -28 25 -24 c42
-39 27 -90 -34 -115 -27 -11 -30 -16 -30 -59 l0 -48 128 -21 c116 -20 133 -21
192 -8 36 7 93 17 128 21 l62 7 0 54 c0 47 -2 54 -20 54 -53 0 -79 81 -38 119
l21 21 -56 25 c-40 17 -58 31 -62 48 -8 31 0 2042 8 2087 4 19 14 100 22 180
9 80 29 219 44 310 31 186 29 231 -14 267 -14 13 -35 23 -46 23 -15 0 -19 7
-19 39 0 37 2 39 38 45 63 10 69 20 39 56 -35 41 -35 82 -1 109 15 12 34 21
42 21 8 0 22 7 31 15 9 8 26 23 39 33 28 21 21 49 -14 58 -13 3 -24 12 -24 20
0 8 -7 14 -15 14 -30 0 -75 31 -81 55 -7 30 12 82 35 95 21 12 8 23 -46 40
-39 12 -43 16 -43 47 0 25 5 36 23 42 66 26 91 103 71 216 -7 39 -19 111 -28
160 -52 296 -70 598 -63 1073 3 219 7 411 10 427 3 17 8 62 11 100 14 148 38
315 62 444 33 173 22 226 -52 257 -29 12 -34 19 -34 49 0 28 4 35 19 35 10 0
35 7 55 15 l37 16 -30 28 c-40 38 -42 81 -5 110 15 12 32 21 38 21 7 0 21 7
31 15 70 53 70 53 59 72 -6 10 -21 19 -33 21 -11 2 -21 9 -21 17 0 7 -11 15
-23 19 -76 19 -99 83 -48 134 l29 29 -37 16 c-21 10 -45 17 -54 17 -13 0 -17
9 -17 36 0 30 4 37 29 45 16 6 37 22 46 36 35 53 36 79 5 262 -35 209 -56 378
-66 521 -3 58 -8 116 -9 130 -2 14 -3 447 -4 963 l-1 937 -95 0 -95 0 0 -947z"/>
</g>
</svg>
