<?xml version="1.0" standalone="no"?>
<!DOCTYPE svg PUBLIC "-//W3C//DTD SVG 20010904//EN"
 "http://www.w3.org/TR/2001/REC-SVG-20010904/DTD/svg10.dtd">
<svg version="1.0" xmlns="http://www.w3.org/2000/svg"
 width="3542.000000pt" height="3750.000000pt" viewBox="0 0 3542.000000 3750.000000"
 preserveAspectRatio="xMidYMid meet">

<g transform="translate(0.000000,3750.000000) scale(0.100000,-0.100000)"
fill="#3a4548" stroke="none">
<path d="M17377 17698 c-4 -1069 -4 -1073 -67 -1439 -30 -175 -19 -234 48
-260 17 -6 22 -16 22 -42 0 -32 -2 -35 -39 -41 -52 -8 -58 -20 -27 -57 14 -17
26 -39 26 -50 0 -24 -32 -57 -65 -65 -14 -3 -25 -10 -25 -15 0 -4 -12 -14 -27
-21 -34 -16 -37 -49 -5 -63 12 -5 22 -13 22 -17 0 -5 18 -15 40 -24 65 -26 76
-63 34 -113 -31 -37 -25 -49 27 -57 37 -6 39 -8 39 -43 0 -28 -5 -39 -22 -46
-33 -15 -68 -73 -68 -112 0 -19 9 -87 20 -151 61 -358 73 -560 67 -1084 -5
-458 -13 -571 -63 -883 -14 -87 -24 -177 -21 -198 6 -43 41 -87 69 -87 14 0
18 -8 18 -35 0 -25 -5 -35 -15 -35 -8 0 -23 -4 -33 -9 -9 -5 -25 -12 -36 -15
-17 -6 -17 -8 7 -32 15 -14 29 -35 32 -46 9 -27 -19 -64 -60 -79 -19 -7 -35
-17 -35 -21 0 -5 -11 -13 -25 -18 -34 -13 -33 -47 3 -63 15 -6 31 -17 35 -24
4 -7 14 -13 21 -13 24 0 66 -41 66 -65 0 -13 -11 -37 -25 -53 -14 -17 -25 -32
-25 -35 0 -3 20 -11 45 -18 42 -12 45 -16 45 -46 0 -26 -6 -36 -25 -45 -28
-12 -65 -81 -65 -119 0 -14 9 -72 19 -130 11 -57 27 -167 36 -244 9 -77 19
-153 22 -170 8 -38 16 -1991 8 -2022 -3 -15 -22 -30 -56 -44 l-50 -22 21 -22
c28 -30 26 -69 -6 -94 -15 -12 -33 -21 -40 -21 -10 0 -14 -14 -14 -44 l0 -45
53 -10 c174 -34 172 -34 279 -16 158 26 148 21 148 70 0 38 -3 44 -30 55 -54
22 -66 76 -26 108 l25 19 -55 22 c-37 16 -56 30 -60 45 -3 12 -3 459 -1 992 5
1010 5 1017 53 1339 44 298 43 324 -23 355 -27 12 -33 21 -33 48 0 21 5 32 14
32 7 0 30 7 51 16 36 15 37 16 18 29 -11 8 -26 28 -33 45 -16 39 4 73 55 90
19 6 35 16 35 21 0 5 6 9 13 9 8 0 22 9 31 19 17 18 17 20 -2 38 -24 23 -48
39 -92 61 -48 23 -54 71 -14 113 l26 28 -37 15 c-21 9 -44 16 -51 16 -9 0 -14
12 -14 33 0 24 6 35 22 42 12 6 33 25 45 44 28 41 29 90 8 211 -13 72 -28 184
-50 365 -29 235 -34 865 -10 1164 9 105 27 266 41 358 46 301 44 342 -23 370
-30 12 -34 18 -31 45 3 28 8 33 51 45 26 7 47 18 47 23 0 6 -5 10 -10 10 -16
0 -49 61 -43 79 10 29 34 50 64 56 16 4 29 12 29 20 0 7 11 16 25 19 18 5 25
13 25 31 0 18 -7 26 -25 31 -14 3 -25 12 -25 20 0 8 -8 14 -19 14 -10 0 -30 9
-45 21 -35 27 -35 71 0 106 30 30 23 39 -38 49 -35 6 -38 9 -38 41 0 27 5 35
25 43 36 14 65 67 65 120 0 25 -7 83 -15 130 -22 123 -53 383 -65 545 -6 80
-10 514 -10 1013 l0 872 -89 0 -90 0 -4 -982z"/>
</g>
</svg>
