<?xml version="1.0" standalone="no"?>
<!DOCTYPE svg PUBLIC "-//W3C//DTD SVG 20010904//EN"
 "http://www.w3.org/TR/2001/REC-SVG-20010904/DTD/svg10.dtd">
<svg version="1.0" xmlns="http://www.w3.org/2000/svg"
 width="3542.000000pt" height="3750.000000pt" viewBox="0 0 3542.000000 3750.000000"
 preserveAspectRatio="xMidYMid meet">

<g transform="translate(0.000000,3750.000000) scale(0.100000,-0.100000)"
fill="#3a4548" stroke="none">
<path d="M24440 17877 c0 -937 -4 -1027 -56 -1323 -37 -212 -40 -261 -15 -301
11 -18 32 -35 46 -39 21 -5 25 -12 25 -40 0 -24 -5 -34 -15 -34 -9 0 -29 -7
-45 -15 l-29 -15 24 -25 c14 -13 25 -35 25 -49 0 -29 -35 -66 -61 -66 -10 0
-22 -6 -26 -14 -4 -7 -18 -18 -30 -25 -13 -6 -23 -18 -23 -26 0 -8 10 -20 23
-26 12 -7 26 -18 30 -25 4 -8 17 -14 27 -14 28 0 60 -35 60 -65 0 -14 -11 -37
-25 -50 l-24 -25 29 -15 c16 -8 36 -15 45 -15 11 0 15 -10 15 -35 0 -28 -4
-35 -19 -35 -11 0 -31 -14 -45 -31 -32 -38 -33 -76 -6 -217 11 -56 30 -178 42
-270 21 -154 23 -205 23 -672 0 -541 -5 -616 -65 -924 -11 -55 -20 -119 -20
-141 0 -48 30 -101 65 -117 21 -9 25 -18 23 -42 -2 -23 -10 -31 -33 -39 -16
-5 -36 -11 -44 -13 -11 -3 -8 -12 12 -32 45 -47 31 -98 -33 -117 -13 -4 -30
-13 -37 -19 -7 -6 -19 -17 -28 -24 -22 -19 -18 -41 10 -52 14 -5 25 -14 25
-19 0 -5 12 -12 28 -16 64 -16 79 -63 36 -114 l-26 -31 46 -12 c43 -11 46 -14
46 -45 0 -23 -5 -33 -16 -33 -8 0 -29 -14 -46 -31 -30 -29 -30 -32 -25 -97 3
-37 15 -119 26 -182 59 -329 67 -507 69 -1435 1 -605 -2 -794 -11 -806 -7 -8
-32 -24 -57 -34 l-46 -18 23 -23 c13 -13 23 -32 23 -42 0 -20 -34 -55 -62 -65
-13 -5 -18 -17 -18 -46 l0 -40 48 -6 c26 -4 81 -12 122 -18 74 -12 107 -10
228 14 l52 10 0 45 c0 32 -4 44 -15 44 -23 0 -55 37 -55 65 0 14 9 33 20 42
19 17 18 18 -33 43 l-52 25 -1 840 c-2 968 3 1060 72 1447 26 144 27 148 9
193 -13 34 -26 51 -51 63 -26 12 -34 22 -34 43 0 23 6 29 38 39 50 17 58 26
38 46 -47 47 -39 94 19 115 19 7 35 19 35 25 0 7 10 14 23 16 31 4 35 43 5 59
-13 7 -25 15 -28 18 -3 4 -17 12 -32 18 -15 7 -34 24 -44 38 -15 23 -15 27 2
53 9 15 24 32 33 39 13 9 7 14 -34 26 -44 12 -50 18 -53 43 -3 26 2 31 33 43
27 9 41 23 52 49 16 40 17 36 -21 252 -45 259 -57 416 -63 780 -7 446 10 689
73 1030 14 74 23 149 19 166 -7 39 -40 83 -71 94 -17 7 -24 17 -24 38 0 25 5
29 45 40 48 13 54 22 29 43 -46 38 -36 91 22 115 19 8 34 18 34 23 0 5 11 12
25 15 18 5 25 13 25 31 0 18 -7 26 -25 31 -14 3 -25 12 -25 20 0 8 -9 14 -20
14 -24 0 -70 42 -70 64 0 8 12 29 27 46 30 36 24 45 -34 56 -28 5 -33 11 -33
34 0 23 7 32 37 47 27 13 42 29 52 56 13 34 12 51 -12 185 -70 389 -77 522
-77 1475 l0 807 -85 0 -85 0 0 -863z"/>
</g>
</svg>
