<?xml version="1.0" standalone="no"?>
<!DOCTYPE svg PUBLIC "-//W3C//DTD SVG 20010904//EN"
 "http://www.w3.org/TR/2001/REC-SVG-20010904/DTD/svg10.dtd">
<svg version="1.0" xmlns="http://www.w3.org/2000/svg"
 width="3542.000000pt" height="3750.000000pt" viewBox="0 0 3542.000000 3750.000000"
 preserveAspectRatio="xMidYMid meet">

<g transform="translate(0.000000,3750.000000) scale(0.100000,-0.100000)"
fill="#3a4548" stroke="none">
<path d="M30827 17698 c-3 -830 -6 -992 -21 -1103 -22 -176 -52 -355 -76 -467
-13 -55 -18 -104 -14 -122 10 -45 42 -86 81 -103 30 -12 34 -18 31 -45 -3 -28
-8 -33 -45 -43 -56 -13 -59 -18 -29 -48 35 -35 35 -79 0 -106 -15 -12 -35 -21
-45 -21 -11 0 -19 -6 -19 -13 0 -7 -13 -18 -30 -24 -21 -8 -30 -18 -30 -33 0
-15 9 -25 30 -33 17 -6 30 -17 30 -24 0 -7 8 -13 19 -13 10 0 30 -9 45 -21 34
-27 35 -71 1 -105 -14 -14 -23 -29 -20 -33 2 -5 25 -14 50 -20 43 -11 45 -13
45 -46 0 -25 -4 -35 -16 -35 -33 0 -74 -35 -89 -75 -15 -38 -14 -49 14 -195
73 -383 82 -482 86 -965 4 -446 -1 -548 -41 -825 -8 -58 -28 -173 -45 -255
-22 -116 -27 -158 -19 -184 14 -51 38 -81 76 -97 28 -12 34 -20 34 -44 0 -27
-4 -31 -45 -41 -25 -6 -48 -16 -51 -21 -4 -5 6 -22 20 -37 34 -35 34 -73 0
-100 -15 -12 -35 -21 -45 -21 -11 0 -19 -6 -19 -14 0 -8 -13 -19 -30 -25 -45
-15 -36 -71 12 -71 10 0 18 -7 18 -15 0 -8 8 -15 19 -15 10 0 30 -9 45 -21 34
-27 35 -71 1 -105 -14 -14 -25 -27 -25 -29 0 -7 64 -35 82 -35 13 0 18 -8 18
-30 0 -24 -6 -33 -27 -40 -46 -16 -56 -25 -77 -65 l-20 -38 23 -116 c94 -479
94 -483 98 -1588 3 -608 1 -969 -6 -980 -5 -10 -32 -27 -60 -37 l-52 -18 26
-24 c40 -37 30 -77 -29 -112 -30 -18 -34 -25 -33 -61 1 -47 -13 -42 179 -67
119 -15 133 -15 205 1 120 25 113 21 113 71 0 40 -3 45 -34 58 -46 19 -61 49
-46 86 7 16 19 31 28 35 11 4 0 13 -38 31 -30 14 -58 31 -62 37 -11 16 -8
1799 3 1917 24 268 31 318 75 549 31 159 34 190 25 223 -14 44 -51 85 -86 94
-20 5 -25 13 -25 38 0 29 4 33 45 45 25 7 47 17 50 21 3 5 -6 21 -20 36 -44
48 -27 103 38 119 15 4 27 11 27 16 0 4 12 14 28 21 37 18 42 55 7 68 -14 5
-28 17 -31 25 -4 8 -14 15 -24 15 -9 0 -29 9 -44 21 -34 27 -34 65 1 101 31
32 27 39 -35 58 -39 12 -43 16 -40 43 2 24 10 32 38 41 37 12 80 65 80 100 0
12 -13 89 -30 171 -37 190 -65 405 -81 613 -16 221 -7 830 15 1012 19 156 60
398 83 485 26 102 -2 181 -72 206 -30 11 -35 18 -35 45 0 29 4 32 45 44 25 7
48 16 50 21 3 4 -6 19 -20 33 -34 34 -33 78 1 105 15 12 35 21 45 21 11 0 19
6 19 13 0 7 14 18 30 24 39 15 41 49 3 66 -16 6 -32 17 -36 24 -4 7 -14 13
-21 13 -7 0 -25 9 -40 21 -34 27 -34 67 0 104 29 32 24 41 -31 53 -37 7 -40
10 -40 42 0 30 4 35 32 42 35 9 70 51 79 95 3 16 -8 96 -25 178 -35 171 -66
399 -81 594 -6 79 -10 502 -10 1012 l0 876 -61 7 c-34 3 -75 6 -90 6 l-28 0
-4 -972z"/>
</g>
</svg>
