<?xml version="1.0" standalone="no"?>
<!DOCTYPE svg PUBLIC "-//W3C//DTD SVG 20010904//EN"
 "http://www.w3.org/TR/2001/REC-SVG-20010904/DTD/svg10.dtd">
<svg version="1.0" xmlns="http://www.w3.org/2000/svg"
 width="3542.000000pt" height="3750.000000pt" viewBox="0 0 3542.000000 3750.000000"
 preserveAspectRatio="xMidYMid meet">

<g transform="translate(0.000000,3750.000000) scale(0.100000,-0.100000)"
fill="#3a4548" stroke="none">
<path d="M32007 17663 c-4 -929 -5 -997 -25 -1143 -25 -191 -47 -318 -74 -434
-11 -50 -18 -105 -15 -127 7 -51 40 -95 82 -110 30 -11 35 -18 35 -44 0 -28
-4 -32 -45 -44 -25 -7 -47 -17 -50 -21 -3 -5 6 -21 20 -36 33 -36 33 -76 -1
-103 -15 -12 -33 -21 -41 -21 -7 0 -16 -6 -19 -14 -3 -8 -19 -19 -36 -25 -38
-13 -36 -50 5 -69 15 -7 27 -17 27 -21 0 -5 11 -12 25 -15 65 -17 84 -80 38
-128 -32 -33 -24 -44 40 -54 36 -6 38 -8 35 -42 -3 -30 -8 -36 -38 -46 -40
-13 -80 -66 -80 -107 0 -16 13 -95 30 -176 69 -347 90 -587 90 -1030 0 -183
-5 -390 -11 -460 -14 -172 -54 -454 -84 -587 -30 -132 -31 -156 -4 -207 14
-29 32 -46 60 -58 34 -14 39 -20 39 -48 0 -19 -5 -33 -12 -33 -16 0 -88 -33
-88 -40 0 -4 11 -17 25 -30 14 -14 25 -35 25 -50 0 -29 -37 -70 -63 -70 -9 0
-22 -8 -29 -19 -7 -10 -22 -20 -33 -22 -13 -3 -21 -14 -23 -32 -3 -21 2 -29
23 -37 15 -6 33 -17 41 -25 9 -8 21 -15 28 -15 22 0 56 -40 56 -67 0 -16 -12
-39 -27 -55 -31 -32 -26 -39 35 -57 40 -11 43 -14 40 -43 -2 -25 -9 -33 -32
-39 -41 -11 -75 -47 -82 -86 -4 -21 6 -95 25 -196 86 -447 91 -539 91 -1623 0
-713 -3 -913 -12 -925 -7 -9 -33 -24 -58 -34 -25 -10 -46 -20 -48 -21 -2 -1 8
-13 22 -27 14 -15 26 -33 26 -42 0 -21 -54 -75 -74 -75 -12 0 -16 -11 -16 -48
l0 -48 155 -23 155 -23 95 23 95 23 0 48 c0 34 -4 48 -14 48 -23 0 -66 48 -66
75 0 14 9 34 20 45 11 11 20 22 20 24 0 2 -21 11 -47 21 -27 10 -53 26 -60 34
-9 12 -11 253 -9 971 4 1094 5 1122 92 1560 14 69 25 141 26 161 1 59 -39 118
-89 133 -18 6 -23 15 -23 40 0 29 4 33 50 50 28 10 50 19 50 21 0 2 -13 17
-30 33 -16 17 -30 39 -30 49 0 30 27 61 65 73 19 6 35 18 35 26 0 8 8 14 19
14 24 0 45 25 37 45 -3 8 -17 20 -31 25 -14 5 -25 14 -25 19 0 5 -16 15 -35
21 -38 12 -65 43 -65 73 0 10 14 32 30 49 17 16 30 31 30 33 0 3 -21 11 -47
18 -44 13 -48 17 -51 49 -3 32 0 36 27 41 39 8 67 37 79 81 8 28 3 72 -24 213
-65 336 -77 452 -83 853 -9 567 8 816 83 1188 35 171 35 206 2 256 -8 14 -31
30 -51 37 -31 12 -35 17 -35 50 0 35 2 37 38 44 52 10 68 24 44 41 -11 7 -25
27 -32 44 -11 28 -11 34 7 58 11 15 34 31 52 36 17 5 31 14 31 20 0 7 14 17
30 23 37 14 38 37 3 60 -16 10 -32 23 -36 30 -4 7 -17 13 -28 13 -26 0 -69 43
-69 69 0 11 14 36 30 55 17 19 27 36 23 38 -4 3 -27 10 -50 18 -39 12 -43 16
-43 46 0 28 4 33 29 39 38 8 67 41 80 90 8 33 7 56 -8 120 -32 133 -70 387
-95 635 -3 25 -5 476 -5 1003 l-1 957 -94 0 -95 0 -4 -987z"/>
</g>
</svg>
