<?xml version="1.0" standalone="no"?>
<!DOCTYPE svg PUBLIC "-//W3C//DTD SVG 20010904//EN"
 "http://www.w3.org/TR/2001/REC-SVG-20010904/DTD/svg10.dtd">
<svg version="1.0" xmlns="http://www.w3.org/2000/svg"
 width="3542.000000pt" height="3750.000000pt" viewBox="0 0 3542.000000 3750.000000"
 preserveAspectRatio="xMidYMid meet">

<g transform="translate(0.000000,3750.000000) scale(0.100000,-0.100000)"
fill="#3a4548" stroke="none">
<path d="M7580 17513 c0 -818 -3 -1062 -15 -1193 -18 -202 -48 -420 -80 -583
-29 -142 -31 -197 -10 -241 16 -33 61 -66 89 -66 12 0 16 -10 16 -40 0 -31 -4
-40 -17 -40 -22 0 -93 -32 -93 -41 0 -5 6 -12 13 -16 22 -13 47 -56 47 -79 0
-26 -53 -74 -82 -74 -11 0 -22 -8 -25 -19 -3 -11 -14 -21 -25 -23 -49 -7 -48
-69 1 -76 11 -2 21 -9 21 -17 0 -7 14 -18 32 -24 43 -15 78 -50 78 -77 0 -13
-14 -39 -31 -58 -32 -37 -31 -56 1 -56 10 0 22 -4 25 -10 3 -5 17 -10 31 -10
21 0 24 -4 24 -39 0 -32 -4 -40 -23 -45 -52 -13 -98 -80 -99 -144 0 -20 11
-95 26 -167 41 -208 68 -403 86 -633 10 -127 14 -915 5 -1012 -10 -116 -26
-276 -30 -305 -13 -102 -40 -267 -61 -375 -28 -146 -30 -190 -9 -230 15 -30
61 -60 90 -60 11 0 15 -10 15 -38 0 -36 -2 -38 -43 -50 -69 -21 -72 -25 -38
-61 39 -42 41 -83 5 -116 -14 -13 -39 -27 -55 -30 -16 -4 -29 -13 -29 -20 0
-8 -10 -15 -21 -17 -49 -7 -49 -69 0 -76 11 -2 21 -10 21 -18 0 -8 13 -17 29
-20 15 -3 40 -17 55 -30 36 -34 34 -73 -4 -114 -17 -18 -29 -34 -28 -35 16
-12 75 -35 90 -35 14 0 18 -8 18 -39 0 -34 -4 -40 -31 -51 -45 -19 -81 -72
-87 -128 -2 -30 7 -105 26 -202 33 -165 44 -234 69 -425 14 -102 17 -289 20
-1230 2 -610 1 -1120 -2 -1133 -4 -16 -23 -30 -65 -49 l-60 -26 25 -25 c35
-35 33 -74 -6 -106 -17 -14 -37 -26 -45 -26 -10 0 -14 -14 -14 -53 0 -54 0
-54 38 -65 20 -6 73 -18 117 -27 79 -17 81 -17 235 10 85 15 156 28 157 29 1
1 5 22 8 48 6 47 6 47 -34 67 -66 34 -78 76 -33 120 l27 27 -55 24 c-30 13
-61 30 -67 39 -20 24 -18 2026 2 2251 19 211 48 428 80 587 14 70 25 148 25
173 0 63 -32 112 -83 124 -34 9 -37 12 -37 46 0 33 3 36 43 48 72 22 75 26 39
63 -53 55 -36 112 43 140 19 7 35 19 35 25 0 7 10 14 21 16 49 7 49 69 0 76
-11 2 -21 9 -21 15 0 7 -20 20 -44 30 -73 30 -85 91 -29 143 14 13 24 26 22
28 -14 12 -75 36 -91 36 -14 0 -18 8 -18 38 0 33 5 39 37 57 80 43 98 110 69
252 -26 121 -57 314 -78 478 -17 137 -20 232 -23 650 -2 270 0 537 6 595 17
195 50 443 84 622 33 179 34 214 6 266 -12 23 -60 52 -86 52 -11 0 -15 10 -15
38 0 38 1 39 51 52 27 8 53 18 55 22 3 5 -8 24 -25 44 -17 19 -31 44 -31 55 0
27 52 79 79 79 11 0 25 8 30 19 6 10 21 21 35 25 44 11 44 61 0 72 -14 4 -29
15 -35 25 -5 11 -19 19 -30 19 -27 0 -79 52 -79 79 0 11 14 36 30 54 17 19 30
37 30 41 0 8 -69 36 -91 36 -15 0 -19 7 -19 38 0 34 3 39 35 51 53 19 88 77
87 144 0 30 -5 71 -11 93 -32 121 -89 540 -105 774 -3 41 -6 528 -6 1083 l0
1007 -105 0 -105 0 0 -1027z"/>
</g>
</svg>
