<?xml version="1.0" standalone="no"?>
<!DOCTYPE svg PUBLIC "-//W3C//DTD SVG 20010904//EN"
 "http://www.w3.org/TR/2001/REC-SVG-20010904/DTD/svg10.dtd">
<svg version="1.0" xmlns="http://www.w3.org/2000/svg"
 width="3542.000000pt" height="3750.000000pt" viewBox="0 0 3542.000000 3750.000000"
 preserveAspectRatio="xMidYMid meet">

<g transform="translate(0.000000,3750.000000) scale(0.100000,-0.100000)"
fill="#3a4548" stroke="none">
<path d="M10020 17596 c0 -774 -3 -1019 -15 -1161 -17 -209 -45 -416 -81 -599
-17 -82 -23 -141 -19 -164 8 -42 63 -102 94 -102 18 0 21 -6 21 -40 0 -34 -3
-40 -20 -40 -11 0 -37 -7 -56 -15 l-36 -15 31 -35 c17 -20 31 -47 31 -60 0
-32 -32 -64 -70 -72 -17 -3 -30 -11 -30 -18 0 -7 -14 -18 -30 -24 -17 -5 -33
-17 -36 -26 -8 -20 23 -55 48 -55 10 0 18 -6 18 -14 0 -8 12 -17 28 -21 72
-18 93 -83 42 -132 -16 -15 -30 -31 -30 -35 0 -4 25 -14 55 -23 53 -15 55 -17
55 -50 0 -30 -5 -37 -34 -49 -39 -16 -63 -46 -77 -99 -8 -31 -4 -69 20 -200
17 -89 35 -198 41 -242 6 -44 13 -91 15 -105 23 -154 30 -321 30 -745 0 -456
-4 -566 -25 -745 -6 -47 -13 -105 -15 -130 -7 -52 -39 -242 -59 -348 -21 -111
3 -183 67 -200 28 -7 32 -13 35 -45 3 -35 2 -36 -40 -48 -66 -19 -70 -26 -37
-59 51 -51 29 -122 -43 -137 -16 -3 -28 -12 -28 -19 0 -8 -11 -16 -25 -20 -53
-13 -55 -55 -4 -73 16 -5 29 -14 29 -20 0 -5 14 -14 32 -20 75 -26 90 -82 37
-137 l-32 -33 38 -15 c21 -9 46 -16 56 -16 15 0 19 -8 19 -40 0 -36 -3 -41
-33 -54 -77 -32 -93 -104 -61 -268 89 -455 94 -548 94 -1726 0 -626 -4 -1010
-10 -1021 -5 -10 -34 -29 -65 -41 l-55 -22 25 -24 c46 -43 24 -107 -46 -129
-15 -5 -19 -16 -19 -54 l0 -48 68 -16 c174 -40 156 -39 316 -12 82 14 151 25
153 25 2 0 3 22 3 50 0 47 -2 50 -34 64 -59 24 -73 80 -32 121 l24 23 -59 26
c-42 18 -60 32 -64 48 -3 13 -4 498 -2 1078 3 894 6 1076 20 1195 26 221 49
376 84 548 14 73 14 82 -2 123 -16 43 -53 74 -90 74 -11 0 -15 11 -15 40 0 33
3 40 20 40 11 0 28 4 38 9 9 5 25 12 35 15 17 6 16 10 -12 41 -49 57 -35 112
34 135 19 6 35 16 35 21 0 6 13 15 29 20 40 14 48 39 19 61 -13 10 -30 24 -38
32 -8 7 -26 17 -40 21 -39 11 -70 45 -70 76 0 16 12 40 30 59 17 18 30 34 30
36 0 1 -25 11 -55 20 -52 17 -55 19 -55 51 0 26 6 36 29 48 72 37 96 104 76
214 -7 42 -22 128 -34 191 -53 299 -71 543 -71 972 0 522 23 789 102 1200 29
151 12 211 -68 240 -32 11 -35 15 -32 47 3 31 6 35 51 46 26 7 50 15 53 18 4
4 -7 22 -25 42 -17 20 -31 44 -31 54 0 31 38 70 75 77 19 3 35 12 35 19 0 7
11 16 24 19 49 12 42 67 -9 80 -14 4 -24 11 -22 18 1 6 -11 14 -27 19 -39 11
-76 48 -76 75 0 13 14 39 30 58 34 38 32 42 -34 61 -37 11 -41 16 -44 47 -3
31 0 36 21 42 35 8 85 69 93 111 4 23 -4 92 -25 198 -35 188 -56 340 -71 522
-6 72 -12 153 -15 180 -2 28 -5 488 -5 1023 l0 973 -100 -2 -100 -3 0 -980z"/>
</g>
</svg>
