<?xml version="1.0" standalone="no"?>
<!DOCTYPE svg PUBLIC "-//W3C//DTD SVG 20010904//EN"
 "http://www.w3.org/TR/2001/REC-SVG-20010904/DTD/svg10.dtd">
<svg version="1.0" xmlns="http://www.w3.org/2000/svg"
 width="2550.000000pt" height="2700.000000pt" viewBox="0 0 2550.000000 2700.000000"
 preserveAspectRatio="xMidYMid meet">

<g transform="translate(0.000000,2700.000000) scale(0.100000,-0.100000)"
fill="#3a4548" stroke="none">
<path d="M1389 13706 c-2 -2 -3 -513 -3 -1135 l1 -1130 -23 -22 c-28 -27 -30
-36 -7 -61 16 -18 16 -21 0 -48 -17 -28 -17 -31 -1 -55 9 -14 21 -25 26 -25
29 0 -19 -150 -62 -195 -30 -32 -60 -92 -60 -122 0 -10 9 -35 20 -56 20 -37
20 -37 0 -69 -28 -47 -25 -96 8 -149 16 -24 36 -50 45 -58 9 -7 17 -21 17 -30
0 -9 9 -33 20 -54 27 -50 25 -87 -5 -116 -29 -27 -31 -38 -9 -62 16 -18 15
-29 -8 -61 -10 -14 -8 -22 12 -43 l25 -27 -1 -693 -2 -693 -22 -30 c-21 -28
-21 -31 -5 -55 15 -24 15 -27 0 -51 -15 -23 -15 -26 0 -50 10 -14 22 -26 27
-26 13 0 5 -63 -13 -110 -8 -19 -33 -60 -57 -92 -52 -68 -62 -113 -37 -169 17
-37 17 -42 2 -75 -33 -67 -18 -131 42 -188 17 -17 31 -37 31 -46 0 -9 9 -33
20 -55 26 -52 25 -78 -5 -111 -29 -32 -31 -41 -9 -65 15 -16 14 -20 -2 -47
-16 -29 -16 -31 5 -60 l22 -31 3 -940 c4 -1043 10 -949 -62 -986 -32 -16 -33
-17 -17 -35 24 -27 15 -62 -22 -85 -25 -15 -32 -27 -33 -52 0 -29 3 -32 38
-37 124 -18 188 -16 282 6 l95 23 3 35 c2 31 -2 37 -30 50 -39 18 -48 52 -22
81 20 22 21 22 -31 37 -25 7 -54 8 -78 3 -21 -5 -39 -5 -43 0 -5 9 2 13 48 23
l26 6 1 941 1 940 22 29 c18 25 19 33 9 58 -9 22 -9 35 -1 54 12 26 0 68 -19
68 -21 0 -21 53 -1 87 11 19 20 47 20 62 0 17 16 49 45 85 25 32 46 66 46 75
3 34 -4 57 -22 82 -24 34 -24 41 1 89 30 59 26 82 -30 149 -27 33 -50 70 -50
81 0 12 -5 30 -11 42 -21 39 -19 64 6 94 28 33 30 46 13 74 -10 15 -9 24 2 44
11 22 11 30 0 51 -7 14 -17 25 -22 25 -4 0 -8 314 -8 698 0 686 0 699 20 717
23 21 25 37 8 65 -10 16 -10 24 0 40 18 29 15 45 -13 71 -30 29 -31 54 -5 94
11 17 20 43 20 58 0 19 15 47 45 84 25 30 45 62 46 71 3 39 -4 68 -22 93 -24
34 -24 41 1 81 33 55 27 89 -30 155 -31 36 -50 67 -50 84 0 14 -4 29 -9 35 -5
5 -12 23 -15 40 -5 24 -2 36 19 58 29 31 29 35 13 71 -9 21 -9 31 0 46 17 27
15 43 -8 64 -20 18 -20 31 -20 1152 l0 1133 -73 0 c-41 0 -76 -2 -78 -4z m95
-2625 c17 -18 17 -21 1 -45 -20 -30 -33 -33 -51 -8 -17 22 -17 39 -1 57 17 20
31 18 51 -4z m90 -88 c20 -40 27 -86 16 -103 -8 -12 -16 -8 -49 24 l-40 39 26
33 c14 19 27 34 29 34 2 0 10 -12 18 -27z m-184 -13 c12 -29 11 -33 -15 -60
-35 -37 -45 -38 -45 -4 0 29 28 94 40 94 4 0 13 -14 20 -30z m112 -117 l38
-37 -37 -38 c-20 -21 -44 -38 -52 -38 -17 0 -81 58 -81 73 0 12 71 76 85 77 5
0 26 -17 47 -37z m98 -122 c0 -35 -27 -101 -41 -101 -5 0 -21 12 -34 28 l-24
27 41 42 c45 46 58 47 58 4z m-215 -81 c-15 -29 -18 -31 -32 -17 -9 9 -18 39
-20 69 l-5 53 37 -36 37 -36 -17 -33z m103 -52 c16 -27 16 -29 -6 -50 -17 -18
-26 -20 -39 -12 -32 20 -37 39 -18 68 21 32 41 30 63 -6z m2 -2183 c0 -7 -8
-23 -19 -36 -16 -20 -21 -21 -35 -10 -21 17 -20 49 1 73 15 17 17 17 35 2 10
-10 18 -23 18 -29z m85 -75 c16 -30 21 -110 7 -110 -4 0 -25 18 -46 39 l-38
39 23 31 c28 38 35 39 54 1z m-188 -7 c11 -23 10 -29 -15 -59 -33 -40 -42 -42
-42 -9 0 30 25 95 37 95 4 0 14 -12 20 -27z m108 -119 l40 -36 -45 -39 c-24
-21 -48 -39 -52 -39 -5 0 -25 15 -46 34 l-37 35 40 40 c21 23 44 41 50 41 5
-1 28 -17 50 -36z m100 -105 c8 -24 -1 -66 -21 -96 -19 -30 -26 -29 -53 8
l-23 31 38 39 c44 45 50 47 59 18z m-226 -40 c20 -27 21 -34 10 -60 -10 -25
-14 -28 -25 -17 -14 15 -35 94 -26 103 10 10 18 5 41 -26z m111 -104 l24 -26
-27 -26 c-26 -26 -27 -26 -47 -8 -24 22 -25 33 -4 63 19 28 25 28 54 -3z"/>
</g>
</svg>
