<?xml version="1.0" standalone="no"?>
<!DOCTYPE svg PUBLIC "-//W3C//DTD SVG 20010904//EN"
 "http://www.w3.org/TR/2001/REC-SVG-20010904/DTD/svg10.dtd">
<svg version="1.0" xmlns="http://www.w3.org/2000/svg"
 width="2550.000000pt" height="2700.000000pt" viewBox="0 0 2550.000000 2700.000000"
 preserveAspectRatio="xMidYMid meet">

<g transform="translate(0.000000,2700.000000) scale(0.100000,-0.100000)"
fill="#3a4548" stroke="none">
<path d="M8740 15617 c0 -596 -2 -686 -15 -697 -18 -15 -19 -42 -3 -58 10 -10
10 -17 0 -32 -17 -28 -15 -44 8 -65 25 -23 25 -39 -1 -82 -13 -21 -19 -42 -15
-57 4 -17 -1 -30 -20 -47 -56 -52 -70 -115 -38 -163 23 -36 44 -18 37 32 -5
39 10 92 26 92 5 0 16 -12 26 -26 18 -28 17 -32 -65 -138 -43 -56 -41 -100 8
-163 21 -26 44 -70 52 -96 12 -45 11 -49 -9 -71 -24 -25 -27 -46 -9 -64 10
-10 10 -17 0 -32 -16 -26 -15 -45 3 -60 13 -11 15 -90 15 -602 0 -529 -2 -591
-16 -614 -15 -21 -15 -28 -4 -50 11 -19 11 -27 2 -36 -18 -18 -15 -43 8 -63
25 -23 25 -41 0 -83 -11 -18 -20 -42 -20 -54 0 -21 0 -21 28 3 15 13 8 3 -15
-21 -94 -102 -105 -139 -61 -202 17 -25 18 -30 3 -57 -25 -49 -19 -84 24 -138
21 -28 44 -70 51 -99 12 -48 12 -52 -8 -72 -25 -25 -28 -42 -10 -60 10 -10 10
-17 0 -32 -16 -26 -15 -45 3 -60 13 -11 15 -111 13 -824 l-3 -811 -37 -18
c-34 -17 -36 -20 -23 -34 8 -8 15 -22 15 -32 0 -20 -30 -51 -49 -51 -8 0 -11
-12 -9 -32 l3 -33 110 -3 c61 -1 135 1 165 5 52 8 55 10 58 39 2 24 -2 33 -23
42 -19 9 -25 19 -25 41 0 17 7 34 16 39 13 7 9 12 -23 25 -21 8 -51 13 -66 10
-15 -3 -27 -1 -27 5 0 6 10 12 23 14 l22 3 5 806 c4 671 7 809 19 823 11 14
12 21 2 40 -10 19 -10 27 0 44 12 19 10 25 -10 53 -22 30 -23 36 -12 77 6 24
27 63 47 85 44 52 50 78 35 138 -11 41 -10 51 3 71 31 43 15 118 -33 162 -13
11 -21 32 -21 50 0 17 -9 42 -20 56 -25 32 -25 54 2 90 19 26 20 33 9 53 -10
20 -10 28 0 45 10 17 10 24 -4 46 -15 23 -17 79 -17 611 0 527 2 588 16 611
15 21 15 28 4 50 -11 19 -11 27 -2 36 17 17 15 35 -9 59 -18 18 -20 28 -14 65
4 27 17 58 34 77 65 76 75 111 47 166 -13 25 -13 30 5 57 30 46 25 94 -16 147
-19 25 -35 56 -35 69 0 13 -9 38 -20 56 -25 41 -25 56 2 92 19 26 20 33 9 53
-10 20 -10 28 0 45 10 17 10 24 -5 46 -15 24 -17 83 -19 704 l-2 677 -62 3
-63 3 0 -684z m88 -1010 l22 -24 -21 -27 -21 -27 -24 22 c-29 27 -30 37 -6 60
22 23 25 23 50 -4z m81 -98 c13 -39 14 -76 2 -83 -5 -3 -21 10 -36 30 -25 33
-26 36 -11 59 22 33 32 31 45 -6z m41 -3 c0 -3 -4 -8 -10 -11 -5 -3 -10 -1
-10 4 0 6 5 11 10 11 6 0 10 -2 10 -4z m-109 -160 l-34 -35 -33 27 c-19 15
-34 31 -34 37 0 5 14 24 32 42 l32 33 35 -35 35 -35 -33 -34z m-81 -81 c0 -6
-6 -20 -14 -30 -13 -18 -14 -17 -30 13 -9 17 -16 43 -16 58 l0 28 30 -29 c17
-16 30 -34 30 -40z m154 43 c10 -9 7 -19 -13 -51 -23 -35 -26 -37 -38 -21 -18
24 -16 34 9 61 25 27 25 27 42 11z m-89 -108 c4 -12 1 -28 -6 -36 -11 -13 -14
-13 -27 -1 -17 17 -8 57 13 57 8 0 17 -9 20 -20z m5 -1827 c25 -22 25 -32 -1
-63 l-21 -25 -24 30 -23 29 21 23 c26 27 23 27 48 6z m-81 -102 c20 -28 20
-28 1 -46 -11 -10 -20 -23 -20 -30 0 -7 -8 -19 -18 -28 -17 -15 -18 -14 -20
31 -2 47 13 102 29 102 4 0 17 -13 28 -29z m159 4 c14 -30 16 -85 4 -85 -5 0
-21 13 -36 29 -27 28 -27 30 -11 55 22 32 29 33 43 1z m-53 -105 l29 -30 -37
-38 -37 -37 -37 38 -38 38 33 30 c41 36 51 36 87 -1z m-115 -110 c24 -27 26
-34 16 -55 -14 -32 -22 -31 -41 5 -15 29 -21 80 -8 80 3 0 18 -14 33 -30z
m176 5 c13 -12 13 -17 -3 -33 -10 -10 -23 -27 -29 -38 -11 -18 -12 -17 -25 9
-11 24 -10 30 11 52 28 29 27 29 46 10z m-91 -96 c10 -15 -4 -61 -17 -57 -23
8 -33 35 -19 52 16 19 27 20 36 5z"/>
</g>
</svg>
