<?xml version="1.0" standalone="no"?>
<!DOCTYPE svg PUBLIC "-//W3C//DTD SVG 20010904//EN"
 "http://www.w3.org/TR/2001/REC-SVG-20010904/DTD/svg10.dtd">
<svg version="1.0" xmlns="http://www.w3.org/2000/svg"
 width="2550.000000pt" height="2700.000000pt" viewBox="0 0 2550.000000 2700.000000"
 preserveAspectRatio="xMidYMid meet">

<g transform="translate(0.000000,2700.000000) scale(0.100000,-0.100000)"
fill="#3a4548" stroke="none">
<path d="M9277 16264 c-4 -4 -7 -306 -7 -671 0 -599 -2 -666 -16 -689 -15 -21
-15 -28 -4 -50 11 -19 11 -27 2 -36 -18 -18 -15 -43 7 -62 22 -20 21 -53 -2
-87 -10 -13 -17 -32 -17 -41 0 -14 7 -11 29 14 16 18 33 30 37 26 4 -4 -25
-41 -65 -83 -76 -80 -86 -110 -59 -170 21 -46 42 -25 40 39 -1 23 4 52 12 65
l13 24 27 -36 28 -36 -22 -31 c-12 -16 -26 -30 -31 -30 -5 0 -22 -19 -39 -42
-42 -57 -40 -94 8 -155 21 -26 44 -70 52 -96 12 -45 11 -49 -9 -71 -23 -24
-27 -46 -11 -62 8 -8 7 -19 -1 -37 -10 -23 -9 -30 4 -45 15 -17 17 -73 17
-605 0 -356 -4 -587 -9 -587 -16 0 -23 -38 -11 -61 9 -15 9 -24 1 -32 -16 -16
-13 -35 11 -68 l23 -30 -23 -39 c-33 -58 -29 -84 7 -40 16 19 32 32 36 28 11
-10 -11 -42 -57 -83 -80 -71 -94 -114 -62 -177 15 -29 17 -30 27 -12 6 10 10
37 8 59 -1 23 4 48 13 60 14 20 15 20 40 -4 14 -14 26 -31 26 -39 0 -8 -27
-43 -60 -79 -75 -80 -78 -108 -22 -180 21 -26 43 -66 50 -88 10 -34 9 -44 -10
-82 -18 -35 -19 -45 -8 -58 11 -13 11 -20 0 -40 -11 -20 -10 -28 4 -49 14 -23
16 -99 16 -810 0 -700 -2 -786 -16 -800 -8 -9 -18 -16 -22 -16 -4 0 -13 -4
-20 -9 -11 -7 -12 -12 -1 -29 16 -25 -1 -72 -26 -72 -11 0 -15 -10 -15 -36 l0
-36 156 4 c122 3 157 7 164 18 17 27 11 49 -17 62 -30 14 -42 53 -24 71 6 6
11 14 11 18 0 13 -69 31 -90 24 -11 -4 -20 -2 -20 4 0 6 9 11 20 11 20 0 20 7
20 788 0 754 1 788 19 811 15 20 17 29 8 48 -7 16 -7 30 1 47 9 20 7 28 -10
46 -31 33 -20 98 26 155 52 62 61 94 42 140 -15 34 -14 39 5 77 24 48 19 81
-20 135 -15 21 -31 55 -35 75 -3 20 -13 41 -21 48 -20 17 -19 69 2 92 13 15
15 24 7 46 -8 20 -7 33 3 48 12 18 11 24 -7 47 -20 25 -20 39 -20 599 1 496 3
576 16 593 10 14 13 31 9 56 -4 22 -2 40 4 43 12 8 -6 56 -21 56 -11 0 -10 63
2 95 6 15 26 45 44 67 44 51 51 80 30 123 -15 33 -15 37 5 78 28 58 27 66 -14
126 -19 28 -35 61 -35 73 0 13 -9 37 -20 53 -24 37 -25 72 -3 97 14 16 15 24
6 48 -8 22 -8 33 3 48 12 17 11 23 -6 45 -19 24 -20 43 -20 691 l0 666 -39 0
c-22 0 -46 2 -53 5 -8 3 -17 2 -21 -1z m81 -1667 l22 -23 -25 -24 c-24 -23
-25 -23 -45 -5 -24 22 -25 33 -3 57 21 23 25 23 51 -5z m83 -122 c12 -65 3
-73 -36 -28 l-33 38 20 28 c25 35 37 26 49 -38z m31 13 c-15 -15 -26 -4 -18
18 5 13 9 15 18 6 9 -9 9 -15 0 -24z m-103 -79 l34 -31 -37 -36 -36 -36 -35
34 -35 34 32 33 c18 18 34 33 37 33 4 0 21 -14 40 -31z m-99 -113 c12 -14 20
-32 17 -40 -3 -8 -2 -16 4 -18 5 -2 2 -14 -7 -27 l-17 -23 -14 38 c-20 54 -27
94 -16 94 5 0 20 -11 33 -24z m190 2 c0 -9 -9 -22 -19 -28 -11 -5 -23 -19 -26
-30 -8 -26 -20 -25 -32 3 -8 17 -6 27 11 49 24 30 66 34 66 6z m-106 -101 c8
-12 7 -21 -5 -33 -15 -14 -18 -14 -32 1 -14 13 -14 20 -4 36 13 22 26 21 41
-4z m4 -1797 c24 -20 23 -29 -6 -63 -15 -16 -17 -16 -39 5 -28 26 -28 32 -5
57 22 24 22 24 50 1z m87 -131 c10 -56 -2 -64 -35 -25 -35 39 -35 39 -13 72
15 24 18 25 29 9 7 -9 15 -34 19 -56z m25 17 c-14 -14 -24 0 -16 21 6 15 8 15
16 3 6 -9 5 -19 0 -24z m-92 -79 l32 -33 -34 -33 -34 -33 -36 27 c-20 15 -36
30 -36 33 0 8 62 72 70 72 3 0 20 -15 38 -33z m-104 -116 c18 -19 24 -31 16
-36 -6 -4 -8 -15 -5 -24 3 -10 -2 -24 -11 -32 -13 -11 -15 -11 -13 2 2 7 -5
28 -14 46 -18 34 -23 73 -9 73 5 0 21 -13 36 -29z m186 7 c0 -9 -8 -22 -19
-27 -10 -6 -22 -22 -25 -36 -8 -31 -21 -26 -30 11 -5 20 -1 33 15 50 25 26 59
28 59 2z m-106 -126 c-13 -20 -25 -20 -38 1 -7 10 -5 21 4 32 12 15 15 15 29
0 12 -12 13 -19 5 -33z"/>
</g>
</svg>
