<?xml version="1.0" standalone="no"?>
<!DOCTYPE svg PUBLIC "-//W3C//DTD SVG 20010904//EN"
 "http://www.w3.org/TR/2001/REC-SVG-20010904/DTD/svg10.dtd">
<svg version="1.0" xmlns="http://www.w3.org/2000/svg"
 width="2550.000000pt" height="2700.000000pt" viewBox="0 0 2550.000000 2700.000000"
 preserveAspectRatio="xMidYMid meet">

<g transform="translate(0.000000,2700.000000) scale(0.100000,-0.100000)"
fill="#3a4548" stroke="none">
<path d="M9780 15568 c0 -603 -1 -663 -17 -680 -14 -16 -14 -22 -3 -43 11 -20
11 -27 0 -40 -11 -13 -11 -20 0 -40 7 -14 17 -25 22 -25 15 0 8 -45 -12 -75
-22 -34 -27 -71 -8 -59 7 4 -9 -19 -35 -52 -51 -65 -57 -95 -31 -145 21 -41
45 -24 37 26 -5 31 12 95 24 95 9 0 42 -45 43 -58 0 -7 -17 -31 -39 -55 -81
-89 -87 -136 -27 -211 19 -23 41 -63 47 -89 12 -44 12 -48 -11 -72 -21 -22
-22 -28 -11 -49 10 -19 10 -27 0 -44 -10 -17 -10 -24 4 -46 15 -23 17 -78 17
-592 0 -511 -2 -569 -16 -585 -14 -16 -15 -23 -5 -48 10 -23 10 -33 0 -49 -12
-18 -10 -24 9 -45 27 -29 27 -44 2 -82 -11 -16 -20 -41 -20 -54 0 -24 0 -24
23 -5 12 10 6 1 -14 -21 -84 -94 -93 -119 -63 -176 23 -45 39 -31 39 34 0 71
15 90 49 58 23 -21 23 -24 8 -54 -8 -18 -32 -49 -53 -69 -54 -52 -60 -96 -23
-149 63 -88 95 -179 64 -179 -6 0 -15 -11 -22 -25 -8 -19 -8 -28 2 -40 11 -13
11 -20 0 -40 -11 -21 -11 -27 3 -43 16 -17 17 -85 17 -800 l0 -781 -32 -17
c-43 -22 -43 -21 -28 -39 17 -20 5 -62 -20 -70 -14 -4 -20 -15 -20 -36 0 -16
3 -29 8 -30 132 -12 192 -15 221 -8 20 4 48 10 64 14 22 4 27 11 27 35 0 20
-6 31 -20 35 -24 7 -37 52 -21 68 6 6 11 14 11 18 0 12 -69 31 -91 26 -10 -3
-21 -1 -24 3 -3 5 5 10 17 12 l23 3 3 776 c2 675 4 778 17 789 18 15 19 42 3
58 -9 9 -9 15 0 24 17 17 15 44 -4 63 -28 28 -13 95 35 156 44 55 52 94 30
143 -10 20 -9 30 5 50 25 40 21 96 -13 142 -15 21 -31 55 -35 75 -4 21 -13 42
-21 49 -17 14 -21 80 -5 80 16 0 23 49 10 65 -10 12 -10 18 0 30 13 16 6 65
-10 65 -6 0 -10 205 -10 572 0 524 1 573 17 590 14 15 15 24 6 47 -7 19 -7 34
0 46 7 13 5 27 -8 51 -26 49 -14 106 35 162 43 48 51 87 28 137 -9 21 -9 31 4
53 16 27 21 51 19 83 0 9 -17 37 -36 62 -21 27 -32 52 -29 61 3 9 -3 31 -15
49 -25 42 -27 74 -4 99 14 15 15 24 7 46 -7 18 -7 35 -1 50 7 16 5 28 -7 46
-14 23 -16 90 -16 674 l0 650 -22 6 c-13 3 -40 6 -60 6 l-38 0 0 -662z m82
-975 c22 -20 23 -31 1 -55 -21 -24 -29 -23 -49 7 -16 24 -16 27 1 45 22 24 24
24 47 3z m78 -89 c6 -14 10 -42 10 -62 l0 -37 -36 37 -37 36 19 26 c24 32 32
32 44 0z m-30 -135 c0 -5 -16 -20 -35 -35 l-36 -27 -29 28 c-17 16 -30 34 -30
39 0 6 14 23 32 38 l33 27 33 -32 c17 -17 32 -34 32 -38z m-131 -73 c19 -20
21 -29 13 -57 l-8 -34 -17 26 c-20 30 -33 89 -20 89 5 0 20 -11 32 -24z m161
-1 c0 -26 -19 -75 -29 -75 -3 0 -12 9 -19 20 -11 18 -10 25 10 50 28 36 38 37
38 5z m-80 -95 c12 -23 6 -40 -15 -40 -19 0 -27 17 -20 40 8 26 21 25 35 0z
m8 -1770 c22 -18 22 -20 6 -45 -20 -31 -38 -32 -58 -4 -13 20 -13 24 2 45 21
28 21 28 50 4z m79 -124 c6 -51 0 -56 -34 -24 -27 26 -28 31 -7 64 22 32 35
20 41 -40z m-65 -63 c15 -15 28 -32 28 -37 0 -6 -15 -23 -34 -38 l-33 -27 -33
34 -32 33 33 31 c19 17 36 31 38 31 3 0 18 -12 33 -27z m-99 -111 c26 -27 27
-30 13 -57 l-15 -28 -20 34 c-21 34 -28 79 -13 79 5 0 20 -13 35 -28z m157 -3
c0 -17 -14 -54 -26 -68 -3 -3 -10 4 -18 15 -12 16 -12 22 6 46 23 33 38 36 38
7z m-76 -96 c9 -22 -20 -51 -35 -36 -14 14 -2 53 16 53 7 0 16 -8 19 -17z"/>
</g>
</svg>
