<?xml version="1.0" standalone="no"?>
<!DOCTYPE svg PUBLIC "-//W3C//DTD SVG 20010904//EN"
 "http://www.w3.org/TR/2001/REC-SVG-20010904/DTD/svg10.dtd">
<svg version="1.0" xmlns="http://www.w3.org/2000/svg"
 width="2550.000000pt" height="2700.000000pt" viewBox="0 0 2550.000000 2700.000000"
 preserveAspectRatio="xMidYMid meet">

<g transform="translate(0.000000,2700.000000) scale(0.100000,-0.100000)"
fill="#3a4548" stroke="none">
<path d="M4163 14616 l-33 -43 0 -752 c0 -738 0 -753 -20 -778 -23 -29 -26
-53 -9 -70 9 -9 9 -19 0 -42 -13 -30 -2 -71 19 -71 17 0 11 -64 -10 -105 -25
-49 -18 -56 20 -20 16 16 33 26 36 22 4 -4 -26 -40 -66 -80 -39 -41 -76 -80
-81 -88 -14 -23 -9 -82 10 -118 l18 -34 17 25 c9 14 14 33 10 42 -8 21 3 76
21 100 13 18 15 17 39 -10 34 -40 26 -66 -49 -144 -92 -97 -95 -121 -22 -212
43 -52 54 -77 64 -150 4 -28 0 -42 -16 -59 -24 -26 -26 -41 -9 -69 10 -16 10
-24 0 -40 -17 -28 -15 -44 8 -65 20 -18 20 -31 20 -695 0 -664 0 -677 -20
-695 -23 -21 -25 -37 -8 -65 10 -15 9 -24 -2 -44 -11 -22 -11 -30 0 -51 7 -14
17 -25 22 -25 13 0 9 -72 -6 -89 -18 -22 -30 -61 -17 -61 5 0 18 11 29 25 19
23 42 34 42 18 0 -4 -36 -44 -80 -89 -70 -71 -80 -86 -80 -117 0 -20 10 -52
21 -72 20 -33 22 -34 35 -18 8 11 11 32 7 54 -5 35 19 109 36 109 4 0 17 -10
29 -23 34 -36 20 -79 -43 -139 -64 -61 -90 -106 -81 -141 3 -14 26 -49 50 -77
42 -49 50 -69 63 -152 4 -28 0 -41 -16 -57 -23 -23 -27 -51 -10 -68 9 -9 9
-20 -1 -43 -12 -28 -11 -34 9 -60 l21 -29 0 -810 0 -810 -27 -20 c-14 -12 -37
-24 -50 -27 l-24 -6 23 -25 c21 -22 21 -26 8 -51 -9 -15 -26 -31 -38 -37 -17
-8 -22 -18 -22 -47 l0 -38 58 -1 c31 0 66 -2 77 -5 46 -9 105 -5 184 12 82 19
84 20 87 51 3 27 -1 34 -31 52 -41 24 -47 61 -13 85 l21 15 -27 11 c-15 5 -31
10 -36 10 -5 0 -16 7 -24 16 -14 14 -16 102 -16 826 l0 810 22 30 c19 28 20
32 6 56 -14 22 -14 28 1 53 15 27 15 29 -12 57 -15 15 -27 36 -27 45 0 28 39
117 61 140 58 60 75 131 44 190 -13 25 -12 31 5 60 36 58 25 115 -34 186 -20
23 -36 51 -36 62 0 10 -9 36 -20 56 -26 49 -25 57 7 99 25 34 26 36 10 63 -15
25 -15 30 0 50 13 19 13 27 3 47 -8 13 -17 24 -22 24 -4 0 -8 308 -8 685 0
377 4 685 8 685 5 0 14 11 21 24 11 20 10 28 -3 48 -14 21 -14 27 -1 44 20 27
19 39 -10 65 -13 13 -25 31 -25 39 0 36 38 119 78 168 47 60 55 108 26 164
-15 29 -15 33 6 70 31 56 23 104 -29 169 -23 28 -41 62 -41 75 0 13 -9 38 -20
56 -26 43 -25 68 5 97 29 27 31 39 11 67 -12 16 -12 22 1 45 15 25 15 29 -6
57 l-21 30 0 796 0 796 -42 0 c-39 -1 -46 -5 -75 -44z m87 -1950 c-1 -6 -10
-22 -20 -35 -17 -20 -23 -21 -36 -11 -33 28 -37 50 -13 76 l23 24 23 -22 c13
-12 23 -26 23 -32z m68 -73 c16 -42 22 -92 13 -97 -4 -3 -23 10 -41 28 l-32
34 18 31 c22 38 29 39 42 4z m-65 -119 c23 -21 35 -40 30 -47 -9 -14 -65 -62
-73 -62 -3 0 -23 15 -45 32 l-39 33 39 40 c21 22 42 40 45 40 3 0 22 -16 43
-36z m-129 -130 c35 -35 36 -38 21 -60 -8 -13 -12 -29 -9 -37 3 -8 -3 -20 -12
-28 -16 -12 -17 -12 -11 4 4 11 -1 34 -13 57 -17 34 -28 100 -16 100 2 0 20
-16 40 -36z m206 11 c0 -8 7 -15 15 -15 9 0 12 -6 9 -15 -4 -8 -12 -15 -19
-15 -7 0 -18 -13 -25 -30 -16 -38 -22 -38 -39 1 -13 29 -12 32 15 60 31 32 44
36 44 14z m-96 -128 c14 -21 -3 -52 -29 -52 -31 0 -42 31 -20 55 21 23 33 22
49 -3z m3 -2108 c22 -21 22 -23 6 -50 -21 -36 -36 -36 -62 -2 l-21 26 22 24
c26 28 26 28 55 2z m97 -156 c8 -52 -4 -55 -38 -10 -31 40 -31 40 -9 73 l16
26 12 -24 c7 -12 15 -42 19 -65z m-66 -68 l37 -34 -42 -42 -42 -42 -40 34
c-21 19 -40 38 -40 44 -1 14 61 75 76 75 7 0 30 -16 51 -35z m-140 -125 c37
-35 39 -43 12 -77 l-19 -25 -21 34 c-19 32 -28 98 -12 98 4 0 22 -14 40 -30z
m202 4 c0 -14 3 -14 15 -4 23 19 19 -6 -4 -29 -11 -11 -24 -29 -31 -40 -14
-27 -22 -26 -37 4 -10 22 -8 29 14 55 28 33 43 38 43 14z m-90 -139 c0 -12 -7
-28 -16 -35 -13 -11 -19 -10 -37 8 l-21 22 24 25 c27 28 50 19 50 -20z m-100
21 c0 -2 -7 -9 -15 -16 -13 -11 -14 -10 -9 4 5 14 24 23 24 12z"/>
</g>
</svg>
