<?xml version="1.0" standalone="no"?>
<!DOCTYPE svg PUBLIC "-//W3C//DTD SVG 20010904//EN"
 "http://www.w3.org/TR/2001/REC-SVG-20010904/DTD/svg10.dtd">
<svg version="1.0" xmlns="http://www.w3.org/2000/svg"
 width="2550.000000pt" height="2700.000000pt" viewBox="0 0 2550.000000 2700.000000"
 preserveAspectRatio="xMidYMid meet">

<g transform="translate(0.000000,2700.000000) scale(0.100000,-0.100000)"
fill="#3a4548" stroke="none">
<path d="M6420 15729 c0 -720 0 -731 -20 -760 -20 -27 -20 -30 -4 -54 13 -20
14 -29 5 -38 -17 -17 -13 -52 9 -72 11 -10 20 -25 20 -34 0 -9 -9 -33 -20 -54
-11 -20 -20 -46 -20 -57 0 -12 -18 -45 -40 -74 -46 -61 -51 -102 -19 -155 20
-33 20 -33 0 -73 -27 -54 -17 -88 45 -158 37 -41 70 -160 45 -160 -5 0 -16
-12 -26 -26 -15 -23 -15 -27 -1 -43 20 -22 20 -35 1 -51 -14 -11 -13 -17 5
-47 19 -33 20 -50 20 -667 0 -551 -2 -635 -15 -646 -18 -15 -20 -51 -3 -68 9
-9 9 -15 0 -24 -18 -18 -14 -53 8 -73 25 -23 25 -52 0 -90 -11 -16 -20 -44
-20 -61 0 -20 -9 -39 -26 -55 -57 -53 -67 -107 -33 -169 20 -35 20 -39 5 -68
-28 -53 -21 -94 24 -144 61 -70 85 -162 49 -194 -21 -19 -25 -54 -7 -72 9 -9
9 -15 0 -24 -17 -17 -15 -53 3 -68 13 -11 15 -118 13 -884 l-3 -871 -42 -20
-43 -21 22 -21 c20 -21 20 -23 5 -47 -9 -13 -26 -27 -37 -31 -15 -5 -20 -15
-20 -40 l0 -33 68 -8 c95 -11 157 -9 231 5 79 15 81 16 81 49 0 18 -7 31 -22
37 -11 6 -27 19 -35 31 -12 18 -11 24 7 47 l20 25 -37 13 c-21 8 -55 12 -77
10 -26 -2 -36 1 -32 8 4 6 18 11 32 11 l24 0 0 861 c0 851 0 861 20 890 19 26
20 30 6 52 -14 21 -14 25 0 45 16 23 9 47 -19 70 -26 22 -2 105 50 172 37 48
45 66 45 99 0 23 -8 51 -16 63 -14 20 -14 25 6 57 35 56 19 131 -40 184 -11
10 -19 30 -20 46 0 15 -9 43 -20 60 -22 36 -19 62 11 103 20 27 20 28 2 48
-17 18 -17 21 -1 45 16 24 16 27 -4 54 -20 29 -20 41 -20 656 0 615 0 627 20
656 19 26 20 30 6 52 -14 21 -14 25 0 46 15 21 15 25 -4 50 -40 54 -28 121 34
194 52 60 60 105 28 155 -14 21 -13 26 5 56 33 54 28 100 -20 163 -22 30 -38
60 -36 68 3 7 -5 33 -19 58 -25 48 -24 65 8 106 17 22 17 26 3 48 -14 21 -14
25 1 48 15 23 15 26 -5 54 -21 29 -21 34 -21 754 0 652 -2 725 -16 731 -9 3
-40 6 -70 6 l-54 0 0 -731z m96 -1090 l23 -21 -21 -29 -22 -29 -28 27 -28 27
22 23 c26 28 26 28 54 2z m-88 -101 c16 -27 15 -28 -13 -58 -16 -16 -32 -30
-37 -30 -12 0 -10 65 4 95 14 30 24 29 46 -7z m172 6 c12 -31 13 -94 2 -94
-10 0 -62 53 -62 63 0 13 32 57 41 57 5 0 14 -12 19 -26z m-66 -113 l37 -38
-40 -32 -41 -32 -35 27 c-19 14 -35 31 -35 37 0 12 60 77 70 77 3 0 23 -17 44
-39z m-101 -178 c-14 -21 -18 -22 -30 -10 -8 8 -17 34 -20 58 l-6 44 36 -34
c34 -32 35 -35 20 -58z m172 54 c-12 -42 -28 -77 -35 -77 -3 0 -13 11 -20 25
-12 23 -11 28 15 55 31 32 49 31 40 -3z m-93 -102 c10 -21 9 -29 -5 -43 -16
-15 -18 -15 -34 1 -15 14 -15 20 -3 42 17 32 27 32 42 0z m12 -1974 c18 -20
16 -31 -12 -64 -15 -16 -17 -16 -39 5 -27 26 -28 35 -6 60 21 23 36 23 57 -1z
m-94 -101 l21 -29 -34 -36 c-18 -19 -36 -32 -40 -28 -18 18 2 123 24 123 4 0
17 -13 29 -30z m170 4 c6 -14 10 -42 10 -62 l0 -36 -35 34 c-34 33 -34 33 -17
62 20 35 30 35 42 2z m-51 -118 l25 -26 -34 -35 c-19 -19 -38 -35 -44 -35 -6
0 -25 14 -43 32 l-33 32 37 38 c40 41 49 40 92 -6z m-125 -115 c24 -25 26 -31
15 -55 -15 -33 -32 -33 -47 -1 -14 30 -16 85 -4 85 5 0 21 -13 36 -29z m181
-4 c-12 -43 -28 -77 -35 -77 -4 0 -11 10 -17 23 -8 18 -5 28 15 54 26 35 47
35 37 0z m-89 -131 c-7 -29 -27 -34 -46 -11 -10 12 -9 20 5 41 15 24 19 25 32
11 10 -10 13 -24 9 -41z"/>
</g>
</svg>
