<?xml version="1.0" standalone="no"?>
<!DOCTYPE svg PUBLIC "-//W3C//DTD SVG 20010904//EN"
 "http://www.w3.org/TR/2001/REC-SVG-20010904/DTD/svg10.dtd">
<svg version="1.0" xmlns="http://www.w3.org/2000/svg"
 width="2550.000000pt" height="2700.000000pt" viewBox="0 0 2550.000000 2700.000000"
 preserveAspectRatio="xMidYMid meet">

<g transform="translate(0.000000,2700.000000) scale(0.100000,-0.100000)"
fill="#3a4548" stroke="none">
<path d="M21020 24184 l-50 -47 0 -829 c0 -815 0 -830 -20 -855 -23 -29 -25
-54 -8 -71 9 -9 8 -21 -2 -51 -11 -36 -11 -42 9 -69 30 -42 26 -72 -14 -132
-23 -35 -35 -64 -35 -87 0 -22 -11 -50 -29 -77 -55 -79 -60 -160 -16 -223 13
-19 14 -30 4 -68 -15 -60 7 -121 68 -186 35 -37 43 -53 43 -83 0 -23 -8 -48
-20 -63 -23 -30 -25 -46 -8 -73 10 -16 10 -24 0 -40 -17 -28 -15 -51 8 -80 19
-24 20 -45 20 -678 0 -639 0 -654 -20 -679 -23 -29 -25 -54 -8 -71 9 -9 8 -21
-2 -51 -11 -36 -11 -42 9 -69 30 -42 26 -72 -14 -132 -26 -39 -35 -63 -35 -94
0 -30 -6 -48 -19 -60 -11 -10 -29 -40 -40 -67 -25 -57 -22 -96 14 -154 21 -36
21 -40 7 -77 -21 -53 -5 -101 58 -175 41 -48 50 -65 50 -96 0 -24 -8 -49 -20
-64 -23 -30 -25 -46 -8 -73 10 -16 10 -24 0 -40 -17 -28 -15 -48 8 -80 20 -28
20 -43 20 -912 0 -485 -4 -888 -8 -894 -4 -6 -26 -21 -49 -33 -43 -21 -43 -21
-23 -41 29 -29 25 -54 -17 -87 -29 -24 -35 -34 -30 -54 6 -23 10 -25 64 -22
346 16 333 14 333 32 -1 9 -15 25 -33 36 -39 25 -46 59 -17 90 l21 22 -40 16
c-22 9 -45 25 -50 36 -8 13 -11 305 -11 904 0 871 0 884 20 902 23 21 26 46 8
75 -10 15 -9 24 1 44 11 20 12 31 1 55 -7 17 -16 31 -21 31 -5 0 -9 22 -9 50
0 44 5 55 45 102 25 29 52 69 61 88 15 32 15 37 -4 81 l-19 47 31 48 c44 68
41 107 -11 176 -37 49 -40 59 -36 99 5 40 1 49 -31 88 -26 31 -36 52 -36 77 0
19 4 34 8 34 5 0 14 11 21 24 11 19 11 30 0 60 -10 28 -10 39 -1 48 17 17 15
42 -8 71 -20 25 -20 40 -20 677 0 652 0 652 22 682 18 26 20 35 10 62 -9 24
-9 40 0 64 11 28 10 35 -10 61 -15 21 -22 44 -22 75 0 39 6 52 45 98 25 29 53
68 62 85 16 31 16 35 -6 82 l-23 49 31 45 c50 73 50 92 -2 168 -41 59 -45 69
-40 111 5 41 2 49 -31 85 -41 46 -46 82 -16 120 23 29 25 54 8 71 -9 9 -8 21
2 51 11 36 11 42 -9 69 l-21 30 0 875 c0 789 -2 875 -16 881 -23 9 -21 10 -74
-40z m60 -2198 c0 -14 -51 -66 -66 -66 -13 0 -44 43 -44 62 0 6 12 25 27 40
l27 28 28 -27 c15 -15 28 -31 28 -37z m84 -78 c21 -29 21 -102 0 -119 -13 -11
-21 -6 -57 29 l-41 42 34 35 c40 41 44 42 64 13z m-219 -18 c14 -28 14 -32 -7
-65 -13 -19 -26 -35 -30 -35 -9 0 -10 76 -2 108 8 30 21 28 39 -8z m110 -130
l39 -40 -35 -37 c-18 -21 -35 -40 -37 -42 -3 -6 -82 70 -82 79 0 9 61 80 69
80 4 0 25 -18 46 -40z m99 -127 c-10 -41 -35 -93 -45 -93 -5 0 -15 11 -21 25
-10 23 -8 29 22 60 41 42 53 44 44 8z m-178 -72 c-10 -16 -23 -13 -29 7 -2 9
-8 26 -12 37 -6 17 -3 16 20 -6 15 -15 24 -32 21 -38z m71 -66 c8 -22 -6 -33
-17 -15 -13 20 -12 30 0 30 6 0 13 -7 17 -15z m16 -2138 l25 -33 -30 -33 c-34
-38 -47 -36 -76 11 -16 27 -15 28 13 58 16 16 32 30 36 30 4 0 18 -15 32 -33z
m-114 -123 l21 -35 -28 -35 c-15 -18 -30 -34 -34 -34 -11 0 -10 84 2 114 5 14
11 26 14 26 2 0 13 -16 25 -36z m219 11 c15 -33 15 -112 1 -121 -6 -3 -30 12
-52 35 l-41 41 34 35 c19 19 37 35 40 35 4 0 12 -11 18 -25z m-101 -141 l45
-37 -38 -38 c-21 -22 -43 -39 -48 -39 -13 0 -76 61 -76 74 0 10 60 76 68 76 3
0 25 -16 49 -36z m73 -173 c-13 -28 -26 -51 -30 -51 -4 0 -12 11 -18 24 -9 20
-6 29 20 60 42 51 56 34 28 -33z m-160 -23 c0 -27 -18 -22 -35 12 -22 43 -18
57 10 30 14 -13 25 -32 25 -42z m70 -78 c0 -11 -4 -20 -10 -20 -5 0 -10 2 -10
4 0 2 -3 11 -6 20 -4 11 -1 16 10 16 9 0 16 -8 16 -20z"/>
</g>
</svg>
