<?xml version="1.0" standalone="no"?>
<!DOCTYPE svg PUBLIC "-//W3C//DTD SVG 20010904//EN"
 "http://www.w3.org/TR/2001/REC-SVG-20010904/DTD/svg10.dtd">
<svg version="1.0" xmlns="http://www.w3.org/2000/svg"
 width="2550.000000pt" height="2700.000000pt" viewBox="0 0 2550.000000 2700.000000"
 preserveAspectRatio="xMidYMid meet">

<g transform="translate(0.000000,2700.000000) scale(0.100000,-0.100000)"
fill="#65340A" stroke="none">
<path d="M19036 23251 l-49 -49 -1 -1454 -1 -1453 -27 0 c-38 -1 -68 -32 -68
-70 0 -36 17 -55 64 -70 39 -13 47 -55 18 -94 -102 -138 -109 -330 -17 -468
28 -42 35 -62 33 -91 -3 -35 -5 -37 -34 -34 -40 4 -66 -25 -62 -69 3 -33 6
-36 78 -69 13 -6 15 -184 18 -1496 1 -819 0 -1499 -3 -1511 -3 -13 -20 -30
-38 -39 -43 -22 -43 -21 -23 -43 22 -24 14 -55 -20 -77 -17 -11 -24 -26 -24
-47 l0 -30 163 6 c89 4 165 7 170 7 4 0 7 11 7 23 0 16 -9 28 -25 35 -32 15
-43 57 -21 81 21 23 20 28 -8 35 -60 15 -56 -105 -56 1552 l0 1514 33 0 c39 0
67 25 67 59 0 36 -17 58 -60 75 -34 13 -40 20 -40 45 0 17 4 32 9 36 16 10 60
96 76 148 32 106 8 242 -56 332 -25 34 -30 50 -27 86 3 43 4 44 35 41 38 -4
66 30 61 75 -2 22 -13 33 -51 52 l-47 23 0 1481 c0 1209 -2 1483 -13 1494 -10
11 -21 4 -61 -36z m29 -3227 c23 -9 51 -70 65 -142 18 -91 -7 -207 -58 -264
-29 -33 -51 -22 -80 40 -23 48 -27 70 -26 142 1 89 9 117 50 188 27 46 25 45
49 36z"/>
</g>
</svg>
