<?xml version="1.0" standalone="no"?>
<!DOCTYPE svg PUBLIC "-//W3C//DTD SVG 20010904//EN"
 "http://www.w3.org/TR/2001/REC-SVG-20010904/DTD/svg10.dtd">
<svg version="1.0" xmlns="http://www.w3.org/2000/svg"
 width="2550.000000pt" height="2700.000000pt" viewBox="0 0 2550.000000 2700.000000"
 preserveAspectRatio="xMidYMid meet">

<g transform="translate(0.000000,2700.000000) scale(0.100000,-0.100000)"
fill="#65340A" stroke="none">
<path d="M22248 26993 c-1 -5 -3 -640 -3 -1412 l0 -1405 -32 -8 c-78 -20 -85
-124 -10 -143 53 -14 57 -51 15 -130 -40 -76 -60 -157 -60 -243 0 -96 14 -152
58 -223 32 -54 35 -68 25 -131 0 -4 -14 -5 -31 -2 -26 6 -31 3 -46 -29 -22
-45 -12 -84 24 -98 15 -6 34 -15 42 -19 13 -6 15 -193 16 -1581 1 -1745 7
-1595 -64 -1624 l-33 -14 21 -21 c11 -11 20 -24 20 -29 0 -15 -40 -60 -60 -66
-20 -6 -27 -30 -12 -38 4 -3 52 1 107 8 55 7 139 16 188 20 l87 7 -25 24 c-28
26 -32 56 -10 74 21 18 19 27 -10 34 -14 4 -34 15 -45 26 -20 20 -20 40 -20
1610 l0 1590 23 0 c33 0 56 20 66 56 12 43 -5 74 -49 89 -47 16 -49 46 -11
122 82 160 79 352 -5 474 -20 29 -25 47 -22 85 3 46 4 49 30 46 31 -4 58 28
58 69 0 45 -10 58 -51 69 l-39 11 0 1404 0 1405 -70 0 c-38 0 -71 -3 -72 -7z
m116 -3186 c20 -61 21 -182 0 -244 -19 -60 -46 -113 -57 -113 -12 0 -37 64
-48 127 -13 69 2 172 36 250 22 49 27 55 39 42 8 -8 21 -36 30 -62z"/>
</g>
</svg>
