<?xml version="1.0" standalone="no"?>
<!DOCTYPE svg PUBLIC "-//W3C//DTD SVG 20010904//EN"
 "http://www.w3.org/TR/2001/REC-SVG-20010904/DTD/svg10.dtd">
<svg version="1.0" xmlns="http://www.w3.org/2000/svg"
 width="2550.000000pt" height="2700.000000pt" viewBox="0 0 2550.000000 2700.000000"
 preserveAspectRatio="xMidYMid meet">

<g transform="translate(0.000000,2700.000000) scale(0.100000,-0.100000)"
fill="#65340A" stroke="none">
<path d="M23084 26986 c-3 -8 -4 -389 -1 -847 2 -458 2 -842 -1 -854 -3 -15
-9 -21 -21 -18 -28 7 -71 -41 -71 -79 0 -44 12 -60 52 -74 47 -16 53 -54 18
-119 -48 -88 -64 -152 -64 -255 -1 -110 12 -160 57 -227 30 -45 35 -64 29
-124 -2 -11 -10 -14 -31 -11 -35 5 -61 -27 -61 -74 0 -35 18 -54 64 -69 l31
-10 0 -2073 c0 -2060 0 -2073 -20 -2092 -11 -10 -32 -22 -47 -25 -33 -9 -34
-12 -8 -40 18 -19 19 -26 9 -48 -6 -14 -25 -31 -40 -38 -17 -7 -29 -19 -29
-30 0 -11 3 -19 8 -19 4 0 63 6 132 14 69 8 156 17 194 21 56 6 66 9 50 17
-46 25 -55 57 -24 88 l20 20 -43 19 c-24 11 -47 27 -51 36 -3 9 -6 277 -6 595
0 569 0 578 -20 583 -19 5 -20 14 -20 237 0 223 1 232 20 237 20 5 20 16 22
1262 l3 1256 27 3 c76 9 93 129 21 147 -62 15 -67 42 -24 119 43 77 64 159 63
256 0 96 -18 161 -63 228 -22 33 -29 54 -29 94 0 49 1 50 26 44 18 -5 32 -2
45 10 39 35 32 124 -9 124 -10 0 -28 7 -40 16 l-22 15 0 850 0 849 -70 0 c-52
0 -72 -4 -76 -14z m109 -2048 c31 -67 42 -151 28 -225 -13 -71 -57 -183 -73
-183 -17 0 -50 96 -55 160 -3 36 0 90 6 120 13 62 55 160 69 160 6 0 17 -15
25 -32z"/>
</g>
</svg>
