<?xml version="1.0" standalone="no"?>
<!DOCTYPE svg PUBLIC "-//W3C//DTD SVG 20010904//EN"
 "http://www.w3.org/TR/2001/REC-SVG-20010904/DTD/svg10.dtd">
<svg version="1.0" xmlns="http://www.w3.org/2000/svg"
 width="2550.000000pt" height="2700.000000pt" viewBox="0 0 2550.000000 2700.000000"
 preserveAspectRatio="xMidYMid meet">

<g transform="translate(0.000000,2700.000000) scale(0.100000,-0.100000)"
fill="#65340A" stroke="none">
<path d="M10390 14585 l-23 -25 26 0 c22 0 27 5 27 25 0 14 -1 25 -3 25 -2 0
-14 -11 -27 -25z"/>
<path d="M10315 14520 l-29 -30 -3 -1118 c-2 -614 -3 -1249 -3 -1409 l0 -293
-29 0 c-84 0 -86 -132 -2 -142 41 -5 41 -60 1 -132 -80 -142 -80 -310 0 -452
22 -40 30 -66 28 -92 -3 -33 -6 -37 -32 -38 -35 -1 -56 -27 -56 -67 0 -43 16
-64 55 -71 l35 -7 0 -1568 c0 -1481 -1 -1569 -17 -1583 -10 -8 -31 -20 -47
-26 -27 -12 -27 -14 -12 -31 24 -27 19 -57 -15 -84 -25 -19 -30 -30 -27 -57 3
-33 5 -34 73 -51 55 -14 83 -16 135 -8 36 4 91 11 123 15 l57 5 0 39 c0 30 -5
40 -20 45 -11 4 -28 18 -37 31 -15 24 -15 27 5 54 l21 28 -39 16 c-21 8 -44
25 -50 37 -9 16 -11 423 -7 1582 l5 1562 33 7 c18 3 39 14 46 24 30 41 3 114
-42 114 -25 0 -38 13 -42 42 -2 9 15 50 36 90 46 88 66 176 58 261 -7 72 -38
162 -69 202 -22 28 -32 77 -22 108 4 14 13 18 31 14 28 -5 50 13 59 50 11 42
-7 76 -42 84 -17 3 -36 9 -43 13 -10 6 -12 316 -9 1434 l3 1427 -40 3 c-34 2
-45 -2 -70 -28z m76 -3187 c20 -41 24 -63 24 -153 0 -93 -3 -111 -27 -162 -15
-32 -32 -58 -37 -58 -18 0 -51 77 -60 142 -5 38 -5 87 0 122 12 71 46 156 64
156 7 0 23 -21 36 -47z"/>
</g>
</svg>
