<?xml version="1.0" standalone="no"?>
<!DOCTYPE svg PUBLIC "-//W3C//DTD SVG 20010904//EN"
 "http://www.w3.org/TR/2001/REC-SVG-20010904/DTD/svg10.dtd">
<svg version="1.0" xmlns="http://www.w3.org/2000/svg"
 width="2550.000000pt" height="2700.000000pt" viewBox="0 0 2550.000000 2700.000000"
 preserveAspectRatio="xMidYMid meet">

<g transform="translate(0.000000,2700.000000) scale(0.100000,-0.100000)"
fill="#65340A" stroke="none">
<path d="M11188 15453 l-68 -76 0 -1383 0 -1384 -29 0 c-38 0 -61 -23 -61 -61
0 -45 16 -66 55 -73 31 -6 35 -10 35 -39 0 -17 -19 -69 -41 -115 -38 -75 -42
-93 -47 -176 -5 -107 12 -183 59 -257 18 -29 29 -59 29 -82 0 -34 -3 -37 -27
-37 -16 0 -33 -4 -40 -8 -12 -7 -33 -54 -33 -73 0 -20 50 -59 75 -59 l25 0 -2
-1997 -3 -1997 -33 -22 c-18 -13 -38 -25 -45 -27 -8 -3 -6 -10 6 -25 25 -28
18 -53 -21 -77 -27 -17 -32 -25 -29 -54 2 -34 3 -34 77 -52 69 -17 84 -17 189
-3 62 8 117 17 122 20 5 3 9 18 9 34 0 22 -7 32 -27 42 -39 18 -52 61 -28 88
10 11 16 21 14 23 -2 1 -21 10 -41 20 -23 10 -40 25 -43 39 -3 13 -4 916 -3
2008 l3 1985 29 0 c34 1 56 28 56 68 0 38 -17 67 -40 67 -59 0 -66 42 -20 123
55 98 73 216 49 329 -12 55 -51 142 -69 153 -5 3 -10 28 -10 56 0 48 0 49 31
49 39 0 58 23 59 71 0 42 -18 62 -58 63 l-27 1 -5 1457 -5 1457 -67 -76z m35
-3170 c18 -40 21 -66 22 -158 0 -95 -3 -117 -24 -162 -13 -29 -28 -53 -33 -53
-14 0 -48 84 -61 151 -8 45 -8 75 0 114 14 63 52 155 65 155 5 0 19 -21 31
-47z"/>
</g>
</svg>
