<?xml version="1.0" standalone="no"?>
<!DOCTYPE svg PUBLIC "-//W3C//DTD SVG 20010904//EN"
 "http://www.w3.org/TR/2001/REC-SVG-20010904/DTD/svg10.dtd">
<svg version="1.0" xmlns="http://www.w3.org/2000/svg"
 width="2550.000000pt" height="2700.000000pt" viewBox="0 0 2550.000000 2700.000000"
 preserveAspectRatio="xMidYMid meet">

<g transform="translate(0.000000,2700.000000) scale(0.100000,-0.100000)"
fill="#65340A" stroke="none">
<path d="M11977 16325 l-57 -64 -3 -1393 -2 -1393 -34 -5 c-22 -3 -41 -15 -54
-32 -20 -27 -20 -29 -4 -62 14 -29 22 -35 54 -38 36 -3 38 -5 41 -40 2 -28 -4
-46 -27 -78 -96 -132 -99 -335 -8 -463 21 -30 33 -57 32 -79 0 -30 -3 -33 -32
-36 -35 -4 -73 -42 -73 -74 0 -27 45 -68 75 -68 14 0 25 -6 26 -12 1 -14 0
-3024 0 -3046 -1 -7 -18 -20 -38 -29 -21 -10 -40 -19 -42 -20 -2 -2 3 -11 12
-21 27 -29 21 -61 -13 -80 -26 -15 -30 -22 -28 -52 3 -33 7 -36 53 -50 42 -13
71 -14 178 -6 l127 9 0 39 c0 25 -5 38 -13 38 -20 0 -47 33 -47 58 0 11 7 27
15 36 14 14 12 17 -23 35 -22 11 -42 27 -46 36 -3 9 -6 703 -6 1541 l0 1524
24 0 c38 0 56 10 71 41 25 47 -3 94 -60 101 -45 5 -45 43 0 117 93 150 89 327
-9 460 -19 25 -26 47 -26 78 0 42 1 43 33 43 41 0 67 26 67 67 0 36 -24 60
-65 65 l-30 3 -5 1456 -5 1457 -58 -63z m48 -3178 c53 -114 52 -210 -1 -324
-30 -63 -47 -71 -73 -34 -40 55 -56 113 -56 196 0 71 4 89 33 148 43 86 63 89
97 14z"/>
</g>
</svg>
