<?xml version="1.0" standalone="no"?>
<!DOCTYPE svg PUBLIC "-//W3C//DTD SVG 20010904//EN"
 "http://www.w3.org/TR/2001/REC-SVG-20010904/DTD/svg10.dtd">
<svg version="1.0" xmlns="http://www.w3.org/2000/svg"
 width="2550.000000pt" height="2700.000000pt" viewBox="0 0 2550.000000 2700.000000"
 preserveAspectRatio="xMidYMid meet">

<g transform="translate(0.000000,2700.000000) scale(0.100000,-0.100000)"
fill="#65340A" stroke="none">
<path d="M14635 18952 l-50 -47 -5 -1425 -5 -1425 -25 -3 c-33 -5 -70 -40 -70
-67 0 -38 29 -67 64 -63 31 3 31 2 34 -46 3 -38 -1 -53 -17 -70 -11 -11 -32
-48 -48 -81 -23 -50 -27 -74 -28 -145 0 -101 13 -151 61 -221 27 -40 34 -61
32 -88 -3 -32 -6 -36 -33 -38 -34 -2 -65 -35 -65 -68 0 -29 34 -59 68 -61 l27
-1 3 -1931 2 -1931 -25 -20 c-15 -11 -31 -22 -38 -24 -9 -3 -9 -8 1 -18 22
-23 15 -68 -13 -81 -20 -9 -25 -18 -25 -48 0 -32 4 -39 28 -49 32 -12 259 -12
285 1 27 14 22 62 -8 76 -14 7 -30 23 -37 37 -9 21 -8 28 8 46 14 17 16 23 6
27 -7 2 -25 14 -39 27 l-27 22 -3 1932 c-2 1062 0 1931 4 1932 50 4 71 12 86
30 35 44 9 96 -51 101 -34 3 -37 6 -40 35 -2 23 6 45 32 83 40 58 76 162 76
219 0 80 -41 190 -92 247 -14 15 -18 33 -16 60 3 36 6 39 35 42 20 2 40 13 53
29 25 32 25 44 -1 77 -15 19 -30 26 -55 26 l-34 0 2 1475 c2 811 1 1475 -2
1475 -3 0 -27 -22 -55 -48z m-55 -2942 c0 -5 -7 -10 -15 -10 -8 0 -15 5 -15
10 0 6 7 10 15 10 8 0 15 -4 15 -10z m140 -6 c0 -17 -22 -14 -28 4 -2 7 3 12
12 12 9 0 16 -7 16 -16z m-54 -231 c26 -26 62 -115 70 -171 7 -55 -13 -141
-48 -204 -37 -66 -72 -59 -112 24 -50 103 -43 248 16 329 31 43 48 48 74 22z
m-86 -628 c0 -8 -4 -15 -9 -15 -13 0 -22 16 -14 24 11 11 23 6 23 -9z m140 0
c0 -8 -4 -15 -9 -15 -13 0 -22 16 -14 24 11 11 23 6 23 -9z"/>
</g>
</svg>
