<?xml version="1.0" standalone="no"?>
<!DOCTYPE svg PUBLIC "-//W3C//DTD SVG 20010904//EN"
 "http://www.w3.org/TR/2001/REC-SVG-20010904/DTD/svg10.dtd">
<svg version="1.0" xmlns="http://www.w3.org/2000/svg"
 width="2551.000000pt" height="2701.000000pt" viewBox="0 0 2551.000000 2701.000000"
 preserveAspectRatio="xMidYMid meet">

<g transform="translate(0.000000,2701.000000) scale(0.100000,-0.100000)"
fill="#C5C3C1" stroke="none">
<path d="M15303 21224 l-53 -46 0 -1454 c0 -1349 -1 -1456 -17 -1489 -14 -29
-15 -41 -6 -65 8 -22 8 -38 0 -59 -9 -23 -7 -34 6 -55 9 -14 17 -42 17 -62 0
-29 -8 -44 -44 -81 -59 -60 -73 -94 -58 -147 10 -35 9 -45 -7 -66 -61 -85 -64
-125 -16 -205 29 -47 34 -64 29 -91 -9 -51 2 -81 50 -132 50 -53 60 -94 33
-132 -19 -28 -22 -53 -7 -79 6 -12 5 -29 -3 -50 -10 -27 -9 -37 6 -62 16 -29
17 -128 17 -1614 0 -871 -3 -1591 -6 -1600 -4 -8 -19 -22 -35 -31 -29 -14 -29
-15 -14 -45 19 -36 13 -62 -21 -84 -21 -14 -25 -23 -22 -58 l3 -42 158 -3 157
-3 0 39 c0 27 -7 45 -21 58 -36 32 -41 51 -24 84 14 27 14 30 -4 40 -55 29
-51 -96 -51 1636 0 1454 1 1598 16 1626 14 27 15 37 4 66 -9 25 -9 37 -1 45
17 17 13 46 -9 77 -28 39 -18 73 36 132 50 53 62 89 46 132 -11 27 -8 35 25
84 49 70 50 110 5 182 -30 48 -32 56 -22 86 17 50 4 88 -50 148 -55 59 -66
104 -37 146 19 28 22 61 6 77 -8 8 -8 20 1 45 11 29 10 39 -4 66 -15 28 -16
165 -16 1532 0 825 -3 1500 -7 1500 -5 0 -32 -21 -60 -46z m-43 -3367 c0 -8
-9 -22 -20 -32 -22 -20 -27 -6 -8 25 15 23 28 26 28 7z m128 -12 c19 -42 13
-52 -13 -22 -14 16 -23 33 -20 38 10 16 21 10 33 -16z m-9 -130 c1 -12 -60
-75 -74 -75 -6 0 -26 16 -45 35 l-34 35 39 40 38 39 38 -32 c20 -18 38 -36 38
-42z m-130 -135 c0 -3 -13 -21 -29 -40 -38 -44 -55 -31 -54 44 2 78 11 86 50
40 18 -22 33 -41 33 -44z m195 64 c11 -28 6 -110 -7 -127 -11 -16 -15 -14 -44
24 l-33 42 33 38 c36 43 42 45 51 23z m-96 -230 l-36 -37 -36 29 c-20 16 -36
36 -36 44 0 8 14 29 32 47 l32 33 40 -40 41 -40 -37 -36z m22 -99 c-7 -9 -15
-13 -18 -10 -3 2 1 11 8 20 7 9 15 13 18 10 3 -2 -1 -11 -8 -20z m-110 5 c0
-5 -2 -10 -4 -10 -3 0 -8 5 -11 10 -3 6 -1 10 4 10 6 0 11 -4 11 -10z"/>
</g>
</svg>
