<?xml version="1.0" standalone="no"?>
<!DOCTYPE svg PUBLIC "-//W3C//DTD SVG 20010904//EN"
 "http://www.w3.org/TR/2001/REC-SVG-20010904/DTD/svg10.dtd">
<svg version="1.0" xmlns="http://www.w3.org/2000/svg"
 width="2551.000000pt" height="2701.000000pt" viewBox="0 0 2551.000000 2701.000000"
 preserveAspectRatio="xMidYMid meet">

<g transform="translate(0.000000,2701.000000) scale(0.100000,-0.100000)"
fill="#C5C3C1" stroke="none">
<path d="M16478 22193 l-58 -46 0 -1459 c0 -1326 -1 -1461 -16 -1483 -12 -19
-15 -37 -10 -70 4 -24 3 -53 -3 -63 -7 -14 -5 -27 10 -51 28 -45 25 -92 -7
-122 -73 -66 -101 -138 -75 -187 7 -13 0 -32 -26 -72 -43 -69 -42 -121 4 -190
27 -39 30 -52 26 -91 -6 -54 9 -88 61 -138 40 -39 49 -90 20 -122 -8 -9 -15
-25 -14 -35 1 -11 2 -50 3 -88 1 -45 6 -71 15 -73 9 -4 12 -429 12 -2081 0
-1142 -4 -2082 -8 -2088 -4 -6 -22 -20 -40 -31 -28 -18 -31 -22 -17 -33 24
-20 19 -66 -12 -89 -27 -22 -38 -74 -20 -98 7 -10 52 -13 163 -13 l154 0 0 41
c0 32 -6 45 -26 62 -26 20 -29 54 -10 99 5 11 1 18 -13 23 -55 17 -51 -138
-51 2119 0 1632 3 2085 12 2094 18 18 19 171 2 199 -25 40 -17 72 31 125 52
58 62 86 47 136 -10 32 -9 39 17 71 62 79 64 118 11 201 -26 40 -29 51 -20 74
21 55 13 81 -45 145 -60 68 -70 108 -39 156 11 17 14 35 10 57 -8 41 -8 45 0
86 5 23 2 38 -10 51 -14 16 -16 153 -18 1524 l-3 1507 -57 -47z m77 -3383 c21
-41 18 -60 -5 -31 -18 21 -28 61 -15 61 2 0 11 -13 20 -30z m-125 12 c0 -15
-28 -47 -35 -40 -8 8 13 48 25 48 6 0 10 -4 10 -8z m118 -139 c7 -3 -62 -83
-72 -83 -14 0 -76 61 -76 76 0 7 16 26 36 44 l36 32 37 -34 c20 -18 37 -34 39
-35z m-138 -139 c0 -9 -14 -30 -47 -74 -2 -2 -8 2 -13 10 -11 17 -13 123 -3
133 7 8 62 -52 63 -69z m204 60 c10 -25 7 -104 -4 -124 -10 -18 -13 -17 -46
20 l-36 39 34 40 c37 45 43 48 52 25z m-74 -188 c0 -6 -14 -25 -32 -43 l-32
-33 -33 32 c-18 18 -33 36 -33 42 0 6 14 25 32 43 l32 33 33 -32 c18 -18 33
-36 33 -42z m4 -131 c-4 -8 -11 -15 -16 -15 -6 0 -5 6 2 15 7 8 14 15 16 15 2
0 1 -7 -2 -15z"/>
</g>
</svg>
