<?xml version="1.0" standalone="no"?>
<!DOCTYPE svg PUBLIC "-//W3C//DTD SVG 20010904//EN"
 "http://www.w3.org/TR/2001/REC-SVG-20010904/DTD/svg10.dtd">
<svg version="1.0" xmlns="http://www.w3.org/2000/svg"
 width="2551.000000pt" height="2701.000000pt" viewBox="0 0 2551.000000 2701.000000"
 preserveAspectRatio="xMidYMid meet">

<g transform="translate(0.000000,2701.000000) scale(0.100000,-0.100000)"
fill="#C5C3C1" stroke="none">
<path d="M18812 24112 l-52 -47 0 -1453 0 -1453 -22 -39 c-20 -34 -21 -41 -9
-64 11 -21 12 -30 1 -56 -12 -28 -11 -34 9 -60 32 -44 27 -75 -20 -128 -61
-70 -72 -97 -66 -160 5 -47 2 -59 -24 -100 -41 -65 -40 -114 6 -182 30 -44 34
-58 29 -90 -8 -46 13 -94 61 -140 41 -39 46 -81 15 -120 -22 -29 -25 -51 -8
-68 9 -9 8 -21 -2 -52 -12 -37 -12 -42 8 -63 l22 -23 0 -2072 0 -2071 -22 -20
c-12 -12 -30 -23 -40 -27 -17 -5 -17 -7 -3 -27 23 -34 18 -64 -15 -89 -24 -17
-30 -29 -30 -60 l0 -38 73 -1 c39 -1 115 -1 167 -1 l95 1 3 40 c2 23 -1 41 -7
41 -17 0 -51 43 -51 65 0 11 7 30 15 42 14 19 13 22 -16 33 -16 7 -34 21 -39
31 -6 11 -10 781 -10 2086 0 2028 0 2069 19 2100 17 26 18 36 8 62 -8 22 -8
36 1 55 12 27 -1 76 -20 76 -4 0 -8 16 -8 36 0 29 9 46 44 85 48 53 59 87 44
130 -9 25 -5 36 32 91 49 74 49 101 -1 174 -29 43 -31 50 -20 79 19 53 13 81
-27 132 -21 26 -46 54 -55 62 -23 19 -22 82 3 124 17 28 18 38 8 64 -9 24 -9
38 0 58 11 23 9 31 -8 55 -20 28 -20 41 -20 1529 0 826 -3 1501 -7 1501 -5 0
-32 -22 -61 -48z m-60 -3394 c-24 -24 -30 -10 -10 22 8 13 16 16 22 10 7 -7 3
-18 -12 -32z m148 10 c31 -51 25 -68 -10 -32 -21 20 -29 36 -24 47 8 23 11 22
34 -15z m-53 -90 c18 -18 33 -37 33 -43 0 -6 -17 -28 -38 -48 l-39 -38 -37 42
-38 41 38 39 c21 21 40 39 43 39 3 0 20 -14 38 -32z m-115 -154 c19 -22 19
-22 -4 -58 -13 -20 -26 -36 -30 -36 -12 0 -28 72 -22 99 12 54 15 58 26 36 6
-11 19 -30 30 -41z m222 34 c9 -35 7 -84 -4 -114 l-11 -27 -34 33 c-19 19 -35
41 -35 49 0 15 58 81 71 81 4 0 9 -10 13 -22z m-106 -225 l-38 -37 -35 34
c-19 19 -35 37 -35 40 0 3 14 23 31 44 l32 38 41 -41 41 -41 -37 -37z m32 -88
c-7 -9 -15 -13 -18 -10 -3 2 1 11 8 20 7 9 15 13 18 10 3 -2 -1 -11 -8 -20z"/>
</g>
</svg>
