<?xml version="1.0" standalone="no"?>
<!DOCTYPE svg PUBLIC "-//W3C//DTD SVG 20010904//EN"
 "http://www.w3.org/TR/2001/REC-SVG-20010904/DTD/svg10.dtd">
<svg version="1.0" xmlns="http://www.w3.org/2000/svg"
 width="2551.000000pt" height="2701.000000pt" viewBox="0 0 2551.000000 2701.000000"
 preserveAspectRatio="xMidYMid meet">

<g transform="translate(0.000000,2701.000000) scale(0.100000,-0.100000)"
fill="#C5C3C1" stroke="none">
<path d="M5918 13503 l-58 -46 0 -1464 c0 -1342 -1 -1466 -16 -1489 -15 -22
-15 -30 -4 -65 10 -30 11 -42 2 -51 -17 -17 -15 -42 8 -71 28 -36 25 -61 -13
-104 -68 -77 -82 -117 -57 -164 9 -16 4 -29 -30 -76 -52 -73 -53 -109 -4 -182
l36 -53 -17 -38 c-22 -50 -14 -72 51 -143 61 -66 67 -94 32 -153 -18 -31 -20
-40 -9 -69 9 -26 9 -39 -1 -59 -10 -22 -9 -32 4 -54 15 -25 17 -176 19 -1625
3 -1575 3 -1597 -16 -1612 -11 -8 -25 -15 -31 -15 -6 0 -15 -10 -21 -22 -7
-17 -5 -26 9 -40 24 -24 23 -30 -12 -66 -25 -26 -30 -40 -30 -79 l0 -48 152 2
c173 1 178 4 178 81 0 35 -5 48 -25 64 -29 23 -31 39 -9 74 19 28 18 30 -28
52 l-33 17 -3 1599 c-1 1210 1 1602 10 1613 18 22 20 190 2 207 -26 26 -16 65
27 114 60 69 72 97 66 156 -4 43 0 59 25 104 38 66 35 114 -9 187 -24 39 -29
58 -26 86 6 43 -21 100 -66 143 -35 33 -40 67 -16 112 11 20 14 43 9 76 -3 25
-1 55 5 65 7 15 5 27 -10 52 -19 31 -19 64 -19 1531 0 825 -3 1500 -7 1500 -5
0 -34 -21 -65 -47z m-38 -3362 c-16 -31 -32 -36 -18 -7 6 14 15 26 20 26 5 0
4 -9 -2 -19z m95 -83 c19 -17 35 -35 35 -39 0 -5 -14 -24 -31 -44 l-32 -36
-33 32 c-19 18 -34 37 -34 42 0 8 50 74 58 76 1 1 18 -13 37 -31z m-117 -208
c-18 -19 -36 -39 -40 -44 -11 -15 -30 36 -30 82 1 24 7 51 13 59 10 12 18 8
51 -24 l38 -37 -32 -36z m208 -6 l-7 -37 -25 36 c-29 44 -29 41 -2 86 l23 36
9 -42 c5 -23 5 -58 2 -79z m-60 -108 c-7 -11 -25 -29 -40 -40 l-26 -20 -37 37
-37 37 39 40 39 40 38 -37 c34 -33 37 -39 24 -57z m-126 -127 c0 -10 -4 -19
-8 -19 -10 0 -42 65 -42 83 1 20 50 -43 50 -64z m120 1 c0 -5 -5 -10 -11 -10
-5 0 -7 5 -4 10 3 6 8 10 11 10 2 0 4 -4 4 -10z"/>
</g>
</svg>
