<?xml version="1.0" standalone="no"?>
<!DOCTYPE svg PUBLIC "-//W3C//DTD SVG 20010904//EN"
 "http://www.w3.org/TR/2001/REC-SVG-20010904/DTD/svg10.dtd">
<svg version="1.0" xmlns="http://www.w3.org/2000/svg"
 width="2551.000000pt" height="2701.000000pt" viewBox="0 0 2551.000000 2701.000000"
 preserveAspectRatio="xMidYMid meet">

<g transform="translate(0.000000,2701.000000) scale(0.100000,-0.100000)"
fill="#C5C3C1" stroke="none">
<path d="M9442 16402 l-52 -47 0 -1457 c0 -1342 -1 -1460 -17 -1492 -13 -29
-14 -40 -4 -62 9 -20 9 -34 -1 -60 -11 -30 -10 -37 11 -65 30 -41 22 -69 -40
-137 -51 -56 -63 -98 -38 -143 8 -16 4 -29 -26 -69 -53 -73 -55 -105 -11 -179
35 -57 37 -63 25 -94 -17 -48 -5 -82 50 -141 64 -67 69 -86 40 -148 -19 -41
-21 -53 -11 -69 10 -16 10 -27 0 -55 -10 -29 -10 -39 4 -62 14 -24 16 -220 19
-2100 l4 -2074 -25 -18 c-63 -47 -63 -47 -38 -81 l23 -31 -21 -17 c-28 -22
-44 -54 -44 -85 0 -56 0 -56 161 -56 l149 0 0 66 c0 48 -3 65 -12 61 -15 -4
-37 21 -38 42 0 8 7 22 16 32 15 17 13 21 -25 57 l-41 39 5 2072 c5 1868 7
2075 21 2103 13 24 14 36 5 56 -9 18 -9 33 0 59 10 31 9 39 -10 64 -31 42 -26
62 29 124 60 70 76 111 60 159 -10 32 -9 38 19 77 52 71 51 135 -3 208 -19 25
-23 40 -19 71 8 58 -2 85 -57 145 -28 30 -50 63 -50 73 0 9 10 36 22 59 19 36
21 45 9 66 -11 20 -11 31 -1 59 11 30 11 39 -3 59 -16 22 -17 146 -17 1531 0
830 -3 1508 -7 1508 -5 -1 -32 -22 -61 -48z m-50 -3384 c-24 -24 -30 -10 -10
22 8 13 16 16 22 10 7 -7 3 -18 -12 -32z m123 22 c3 -5 1 -10 -4 -10 -6 0 -11
5 -11 10 0 6 2 10 4 10 3 0 8 -4 11 -10z m15 -133 c0 -4 -15 -24 -34 -45 l-35
-37 -35 34 c-20 19 -36 39 -36 45 0 6 14 25 31 42 l32 33 38 -32 c21 -18 39
-35 39 -40z m-163 -89 c18 -18 33 -37 33 -42 -1 -16 -69 -90 -76 -83 -3 3 -10
23 -14 44 -9 37 3 113 17 113 4 0 22 -14 40 -32z m225 -50 c0 -59 -15 -81 -36
-52 -39 52 -40 60 -10 99 24 32 29 34 37 20 5 -10 9 -40 9 -67z m-93 -83 c17
-20 31 -39 31 -43 0 -5 -16 -23 -35 -42 l-35 -34 -35 34 c-19 19 -35 39 -35
44 0 11 59 73 71 75 4 1 21 -15 38 -34z m-108 -156 c15 -21 18 -34 11 -41 -7
-7 -15 -1 -26 20 -29 56 -19 69 15 21z m133 -23 c-6 -16 -24 -23 -24 -8 0 10
22 33 27 28 2 -2 1 -11 -3 -20z"/>
</g>
</svg>
