<?xml version="1.0" standalone="no"?>
<!DOCTYPE svg PUBLIC "-//W3C//DTD SVG 20010904//EN"
 "http://www.w3.org/TR/2001/REC-SVG-20010904/DTD/svg10.dtd">
<svg version="1.0" xmlns="http://www.w3.org/2000/svg"
 width="2551.000000pt" height="2701.000000pt" viewBox="0 0 2551.000000 2701.000000"
 preserveAspectRatio="xMidYMid meet">

<g transform="translate(0.000000,2701.000000) scale(0.100000,-0.100000)"
fill="#C5C3C1" stroke="none">
<path d="M14138 20266 l-58 -47 0 -1459 c0 -1367 -1 -1460 -17 -1489 -15 -25
-16 -35 -6 -62 8 -21 9 -38 3 -50 -14 -26 -12 -55 5 -73 8 -8 15 -32 15 -53 0
-32 -7 -46 -41 -78 -65 -64 -84 -118 -59 -166 9 -16 4 -31 -26 -79 -44 -72
-43 -113 4 -182 26 -38 29 -49 25 -95 -6 -58 10 -94 66 -147 36 -34 41 -81 14
-122 -13 -21 -15 -32 -6 -55 8 -21 8 -37 0 -60 -10 -25 -9 -35 6 -60 16 -29
17 -153 17 -2104 l0 -2074 -22 -20 c-12 -12 -30 -23 -40 -27 -17 -5 -17 -7 3
-33 16 -22 18 -32 10 -53 -5 -15 -19 -29 -30 -33 -16 -5 -21 -15 -21 -43 0
-20 4 -42 8 -49 5 -8 46 -12 127 -13 199 -2 180 -6 180 40 -1 31 -7 46 -28 66
-30 28 -35 55 -12 74 21 17 19 37 -5 45 -11 3 -28 17 -39 30 -18 24 -19 70
-16 2094 3 1959 4 2072 21 2100 15 25 16 34 6 57 -10 20 -10 33 0 60 11 30 10
37 -10 63 -35 48 -28 74 39 148 45 49 56 82 41 129 -9 30 -7 38 12 62 32 38
56 87 56 115 0 13 -16 50 -36 83 -34 56 -35 61 -23 97 16 47 1 81 -65 156 -51
58 -57 88 -26 128 23 29 25 54 8 71 -9 9 -8 21 2 51 11 34 11 43 -1 57 -12 14
-15 254 -19 1532 l-5 1515 -57 -47z m-48 -3369 c0 -8 -9 -22 -20 -32 -23 -21
-25 -16 -8 20 12 27 28 34 28 12z m125 -17 c16 -30 9 -40 -13 -18 -12 12 -17
48 -7 48 2 0 11 -13 20 -30z m-6 -125 c1 -12 -60 -75 -73 -75 -12 0 -66 60
-66 74 0 5 14 25 32 43 l31 32 38 -32 c20 -18 38 -36 38 -42z m-130 -135 c0
-3 -13 -21 -29 -40 -37 -44 -52 -32 -54 42 -1 79 10 88 50 42 18 -22 33 -41
33 -44z m197 44 c6 -35 1 -111 -10 -121 -6 -7 -54 46 -61 70 -6 16 39 84 57
86 4 1 10 -15 14 -35z m-96 -139 l34 -35 -37 -38 -37 -37 -37 37 -36 37 27 35
c15 20 33 36 40 36 6 0 27 -16 46 -35z m-90 -171 c0 -8 -4 -12 -10 -9 -5 3
-10 13 -10 21 0 8 5 12 10 9 6 -3 10 -13 10 -21z m114 2 c-3 -9 -10 -13 -16
-10 -5 3 -4 12 3 20 15 18 22 13 13 -10z"/>
</g>
</svg>
