<?xml version="1.0" standalone="no"?>
<!DOCTYPE svg PUBLIC "-//W3C//DTD SVG 20010904//EN"
 "http://www.w3.org/TR/2001/REC-SVG-20010904/DTD/svg10.dtd">
<svg version="1.0" xmlns="http://www.w3.org/2000/svg"
 width="2644.000000pt" height="2800.000000pt" viewBox="0 0 2644.000000 2800.000000"
 preserveAspectRatio="xMidYMid meet">

<g transform="translate(0.000000,2800.000000) scale(0.100000,-0.100000)"
fill="#3a4548" stroke="none">
<path d="M8400 15850 l0 -1490 -24 -10 c-13 -5 -27 -19 -31 -30 -8 -27 2 -90
15 -91 6 -1 16 -2 23 -3 19 -2 13 -89 -13 -176 -28 -99 -24 -263 9 -355 28
-79 28 -113 -3 -124 -54 -21 -46 -131 10 -131 12 0 14 -224 14 -1630 l0 -1630
-32 -20 c-18 -11 -37 -22 -43 -23 -5 -2 -2 -13 8 -25 23 -26 15 -59 -19 -74
-18 -9 -24 -19 -24 -45 0 -30 3 -33 30 -33 17 0 30 -4 30 -10 0 -6 40 -10 100
-10 55 0 100 4 100 9 0 5 23 11 50 15 49 7 50 7 50 41 0 27 -4 35 -18 35 -10
0 -23 5 -30 12 -16 16 -15 60 1 77 7 8 8 15 2 17 -5 2 -25 13 -42 24 l-33 20
0 1624 0 1625 28 13 c21 10 28 21 30 50 4 46 -12 78 -38 78 -26 0 -26 29 -1
103 47 134 46 284 0 424 -25 77 -23 117 8 121 45 7 45 99 1 120 l-28 13 0
1483 0 1483 -37 7 c-21 3 -50 6 -65 6 l-28 0 0 -1490z m79 -1955 c0 -33 -4
-69 -8 -80 -13 -30 -25 64 -16 122 9 63 25 37 24 -42z"/>
</g>
</svg>
