<?xml version="1.0" standalone="no"?>
<!DOCTYPE svg PUBLIC "-//W3C//DTD SVG 20010904//EN"
 "http://www.w3.org/TR/2001/REC-SVG-20010904/DTD/svg10.dtd">
<svg version="1.0" xmlns="http://www.w3.org/2000/svg"
 width="2644.000000pt" height="2800.000000pt" viewBox="0 0 2644.000000 2800.000000"
 preserveAspectRatio="xMidYMid meet">

<g transform="translate(0.000000,2800.000000) scale(0.100000,-0.100000)"
fill="#3a4548" stroke="none">
<path d="M9420 15815 l0 -1435 -24 -10 c-47 -17 -46 -103 1 -121 22 -8 24 -14
20 -47 -2 -20 -14 -73 -26 -116 -27 -102 -27 -225 0 -321 34 -120 35 -133 6
-144 -47 -18 -48 -104 -1 -121 l24 -10 0 -765 c0 -481 -4 -773 -10 -785 -5
-10 -23 -23 -40 -28 l-30 -11 18 -31 17 -31 -32 -28 c-24 -20 -33 -36 -33 -58
l0 -31 107 -1 c59 -1 137 1 175 5 l68 7 0 33 c0 22 -5 34 -13 34 -8 0 -24 11
-37 25 -22 24 -22 25 -5 51 14 22 15 28 4 35 -8 5 -20 9 -26 9 -7 0 -19 10
-27 23 -12 18 -14 142 -12 786 l2 764 21 8 c40 15 42 119 2 119 -25 0 -25 51
1 149 26 99 26 232 -1 326 -11 39 -23 87 -26 107 -4 34 -2 39 21 47 45 18 48
104 4 120 l-22 8 -1 1426 c0 784 -3 1428 -5 1430 -3 2 -31 7 -62 11 l-58 6 0
-1435z m70 -1886 c0 -44 -4 -68 -10 -64 -18 11 -12 135 7 135 2 0 3 -32 3 -71z"/>
</g>
</svg>
