<?xml version="1.0" standalone="no"?>
<!DOCTYPE svg PUBLIC "-//W3C//DTD SVG 20010904//EN"
 "http://www.w3.org/TR/2001/REC-SVG-20010904/DTD/svg10.dtd">
<svg version="1.0" xmlns="http://www.w3.org/2000/svg"
 width="2644.000000pt" height="2800.000000pt" viewBox="0 0 2644.000000 2800.000000"
 preserveAspectRatio="xMidYMid meet">

<g transform="translate(0.000000,2800.000000) scale(0.100000,-0.100000)"
fill="#3a4548" stroke="none">
<path d="M9900 15791 l0 -1410 -22 -3 c-42 -6 -44 -103 -2 -118 30 -12 31 -46
4 -126 -12 -34 -23 -99 -27 -154 -5 -80 -2 -109 17 -180 36 -135 36 -148 7
-159 -46 -18 -44 -121 3 -121 20 0 20 -2 18 -767 l-3 -767 -38 -22 c-33 -18
-36 -23 -22 -34 24 -20 18 -47 -15 -72 -21 -15 -30 -30 -30 -50 0 -28 0 -28
65 -28 36 0 65 -4 65 -9 0 -11 91 -13 105 -1 6 5 31 10 55 12 43 3 45 5 48 36
3 26 -1 34 -22 41 -13 6 -27 18 -30 29 -7 22 2 52 15 52 22 0 6 19 -21 25 -17
4 -35 15 -40 25 -6 12 -10 294 -10 774 0 739 0 756 19 756 46 0 48 122 2 128
-27 4 -26 20 8 146 27 102 27 216 0 311 -11 39 -23 89 -26 112 -4 37 -3 42 18
45 45 6 47 101 3 118 l-24 10 0 1399 0 1399 -22 6 c-13 3 -40 6 -60 6 l-38 0
0 -1409z m70 -1848 c0 -41 -3 -54 -10 -43 -17 26 -12 100 7 100 2 0 3 -26 3
-57z"/>
</g>
</svg>
