<?xml version="1.0" standalone="no"?>
<!DOCTYPE svg PUBLIC "-//W3C//DTD SVG 20010904//EN"
 "http://www.w3.org/TR/2001/REC-SVG-20010904/DTD/svg10.dtd">
<svg version="1.0" xmlns="http://www.w3.org/2000/svg"
 width="2644.000000pt" height="2800.000000pt" viewBox="0 0 2644.000000 2800.000000"
 preserveAspectRatio="xMidYMid meet">

<g transform="translate(0.000000,2800.000000) scale(0.100000,-0.100000)"
fill="#3a4548" stroke="none">
<path d="M10365 17161 c-3 -2 -5 -626 -5 -1387 0 -1363 0 -1382 -20 -1387 -38
-10 -38 -104 0 -114 26 -7 26 -46 0 -148 -24 -95 -26 -228 -5 -305 9 -30 19
-77 22 -103 5 -43 3 -49 -15 -54 -40 -10 -42 -105 -3 -118 25 -8 28 -36 26
-225 -1 -85 -3 -410 -4 -722 l-1 -567 -32 -17 c-44 -22 -44 -21 -24 -43 20
-22 10 -53 -24 -71 -13 -7 -20 -21 -20 -40 l0 -29 103 -3 c56 -2 129 -1 162 2
59 5 60 5 63 38 3 26 -1 34 -21 41 -32 13 -41 39 -22 68 15 23 15 24 -18 38
-19 8 -37 21 -41 30 -4 13 -4 375 3 1398 1 87 4 107 16 107 40 0 44 107 4 117
-25 7 -25 38 1 138 12 47 20 111 20 160 0 49 -8 113 -20 160 -26 102 -26 141
-1 148 40 10 36 117 -4 117 -13 0 -15 174 -15 1378 l0 1378 -60 10 c-33 6 -63
8 -65 5z m62 -3218 c-2 -16 -4 -5 -4 22 0 28 2 40 4 28 2 -13 2 -35 0 -50z"/>
</g>
</svg>
