<?xml version="1.0" standalone="no"?>
<!DOCTYPE svg PUBLIC "-//W3C//DTD SVG 20010904//EN"
 "http://www.w3.org/TR/2001/REC-SVG-20010904/DTD/svg10.dtd">
<svg version="1.0" xmlns="http://www.w3.org/2000/svg"
 width="2644.000000pt" height="2800.000000pt" viewBox="0 0 2644.000000 2800.000000"
 preserveAspectRatio="xMidYMid meet">

<g transform="translate(0.000000,2800.000000) scale(0.100000,-0.100000)"
fill="#3a4548" stroke="none">
<path d="M2158 14033 l-28 -4 0 -1835 0 -1834 -25 0 c-35 0 -75 -42 -75 -78 0
-16 10 -41 21 -56 17 -22 27 -26 50 -21 29 7 29 6 29 -42 0 -36 -10 -68 -40
-128 -78 -155 -71 -336 17 -477 14 -23 23 -53 23 -78 0 -38 -2 -40 -29 -40
-36 0 -71 -40 -71 -82 0 -36 40 -78 75 -78 l25 0 0 -1917 c0 -1055 -4 -1923
-8 -1929 -4 -6 -27 -21 -51 -33 l-43 -22 22 -24 c20 -22 21 -27 11 -54 -7 -16
-26 -35 -42 -41 -25 -11 -29 -18 -29 -51 0 -45 -4 -44 153 -56 100 -7 115 -6
200 18 l92 26 3 40 c3 37 0 41 -28 53 -41 17 -53 42 -38 74 6 14 15 26 20 26
23 0 4 20 -29 31 -21 6 -44 16 -50 22 -10 7 -13 404 -13 1922 0 1735 1 1913
16 1919 9 3 24 6 34 6 43 0 66 83 34 128 -11 15 -25 22 -50 22 -33 0 -34 1
-34 41 0 25 8 52 21 70 96 135 102 347 14 507 -23 41 -35 76 -35 101 0 36 2
39 35 45 19 4 41 17 50 29 36 52 3 127 -55 127 l-30 0 0 1835 0 1835 -29 0
c-16 0 -41 2 -57 4 -16 2 -41 2 -56 -1z m91 -4069 c35 -84 36 -235 2 -311 -13
-29 -27 -53 -31 -53 -15 0 -53 107 -60 170 -11 101 23 267 54 257 6 -2 22 -30
35 -63z"/>
</g>
</svg>
