<?xml version="1.0" standalone="no"?>
<!DOCTYPE svg PUBLIC "-//W3C//DTD SVG 20010904//EN"
 "http://www.w3.org/TR/2001/REC-SVG-20010904/DTD/svg10.dtd">
<svg version="1.0" xmlns="http://www.w3.org/2000/svg"
 width="2644.000000pt" height="2800.000000pt" viewBox="0 0 2644.000000 2800.000000"
 preserveAspectRatio="xMidYMid meet">

<g transform="translate(0.000000,2800.000000) scale(0.100000,-0.100000)"
fill="#3a4548" stroke="none">
<path d="M4500 14636 l-75 -107 -5 -1371 c-5 -1355 -5 -1371 -25 -1374 -27 -4
-45 -32 -45 -72 0 -46 16 -72 45 -72 23 0 25 -4 25 -42 0 -23 -11 -74 -25
-115 -54 -156 -52 -331 5 -461 11 -24 20 -62 20 -83 0 -32 -4 -39 -19 -39 -28
0 -51 -38 -51 -82 0 -40 21 -68 51 -68 19 0 19 -24 17 -1542 l-3 -1543 -47
-25 -48 -26 22 -22 c30 -29 16 -71 -30 -92 -29 -12 -33 -18 -30 -50 l3 -35
120 -9 c118 -8 182 -2 278 24 34 10 37 14 37 45 0 30 -5 37 -34 49 -45 19 -54
50 -27 86 l21 29 -35 11 c-71 23 -65 -120 -65 1576 0 1484 1 1534 18 1534 31
0 52 33 52 81 0 50 -13 69 -47 69 -20 0 -23 5 -23 38 0 20 9 56 20 80 25 56
50 177 50 246 0 69 -22 176 -50 241 -27 62 -24 128 5 133 35 7 45 23 45 71 0
52 -13 71 -47 71 l-23 0 -2 1476 -3 1476 -75 -106z m18 -3383 c-3 -107 -9
-135 -25 -119 -11 11 -10 236 1 261 16 40 28 -26 24 -142z"/>
</g>
</svg>
