<?xml version="1.0" standalone="no"?>
<!DOCTYPE svg PUBLIC "-//W3C//DTD SVG 20010904//EN"
 "http://www.w3.org/TR/2001/REC-SVG-20010904/DTD/svg10.dtd">
<svg version="1.0" xmlns="http://www.w3.org/2000/svg"
 width="2644.000000pt" height="2800.000000pt" viewBox="0 0 2644.000000 2800.000000"
 preserveAspectRatio="xMidYMid meet">

<g transform="translate(0.000000,2800.000000) scale(0.100000,-0.100000)"
fill="#3a4548" stroke="none">
<path d="M6725 15908 c0 -1575 0 -1583 -20 -1586 -29 -5 -45 -31 -45 -72 0
-41 16 -67 45 -72 28 -5 25 -65 -6 -143 -21 -53 -24 -76 -24 -205 0 -137 2
-149 28 -212 32 -77 33 -121 2 -126 -28 -5 -45 -30 -45 -67 0 -37 17 -62 45
-67 20 -3 20 -12 22 -1713 3 -1890 8 -1742 -62 -1765 l-37 -12 23 -24 c19 -20
21 -27 11 -49 -7 -14 -23 -30 -37 -37 -19 -9 -25 -19 -25 -44 0 -17 6 -34 13
-37 28 -11 275 -6 327 6 54 12 55 13 55 47 0 29 -4 36 -23 38 -12 2 -30 15
-39 28 -15 24 -15 27 4 52 l21 27 -42 20 -41 20 -3 1723 c-2 1707 -2 1722 18
1722 25 0 40 29 40 77 0 42 -14 63 -42 63 -25 0 -24 49 1 116 11 28 25 91 31
138 14 100 2 215 -31 301 -23 61 -26 125 -5 125 27 0 46 30 46 74 0 45 -13 66
-42 66 -17 0 -18 65 -18 1579 0 1430 -1 1579 -16 1585 -9 3 -41 6 -72 6 l-57
0 0 -1582z m85 -2073 c0 -93 -12 -138 -23 -93 -9 30 -9 137 -1 178 12 55 24
11 24 -85z"/>
</g>
</svg>
