<?xml version="1.0" standalone="no"?>
<!DOCTYPE svg PUBLIC "-//W3C//DTD SVG 20010904//EN"
 "http://www.w3.org/TR/2001/REC-SVG-20010904/DTD/svg10.dtd">
<svg version="1.0" xmlns="http://www.w3.org/2000/svg"
 width="2644.000000pt" height="2800.000000pt" viewBox="0 0 2644.000000 2800.000000"
 preserveAspectRatio="xMidYMid meet">

<g transform="translate(0.000000,2800.000000) scale(0.100000,-0.100000)"
fill="#3a4548" stroke="none">
<path d="M20455 27176 l-50 -44 -1 -793 c0 -437 -1 -1153 -2 -1591 l-2 -798
-33 0 c-45 0 -77 -34 -77 -83 0 -43 22 -69 74 -88 32 -12 36 -17 36 -50 0 -21
-8 -47 -20 -62 -11 -14 -35 -56 -52 -92 -26 -56 -32 -83 -36 -161 -6 -119 14
-201 69 -279 33 -47 39 -64 39 -107 0 -41 -3 -49 -15 -44 -8 3 -22 9 -30 12
-23 10 -65 -40 -65 -78 0 -46 23 -75 70 -89 l40 -12 -2 -1751 -3 -1751 -40
-20 c-22 -11 -42 -21 -44 -22 -2 -2 3 -11 12 -21 27 -29 21 -68 -13 -94 -16
-12 -30 -29 -30 -37 0 -14 15 -16 102 -13 57 1 144 5 195 8 l92 6 -29 25 c-35
29 -38 58 -9 89 l20 21 -40 16 c-22 9 -45 25 -50 36 -8 14 -11 566 -11 1770
l0 1751 33 0 c42 0 74 23 82 58 10 48 -10 81 -65 105 -41 18 -50 26 -50 48 0
15 9 38 20 52 11 14 34 54 50 89 74 159 62 320 -37 461 -28 40 -33 56 -33 103
0 59 -1 59 56 37 17 -6 64 55 64 84 0 29 -43 74 -90 93 l-30 12 0 1611 c0
1521 -1 1611 -17 1623 -25 18 -23 19 -78 -30z m58 -3564 c9 -10 26 -40 39 -67
30 -67 32 -206 4 -280 -31 -81 -63 -125 -90 -125 -50 0 -101 168 -85 284 12
91 73 206 110 206 3 0 13 -8 22 -18z"/>
</g>
</svg>
