<?xml version="1.0" standalone="no"?>
<!DOCTYPE svg PUBLIC "-//W3C//DTD SVG 20010904//EN"
 "http://www.w3.org/TR/2001/REC-SVG-20010904/DTD/svg10.dtd">
<svg version="1.0" xmlns="http://www.w3.org/2000/svg"
 width="2644.000000pt" height="2800.000000pt" viewBox="0 0 2644.000000 2800.000000"
 preserveAspectRatio="xMidYMid meet">

<g transform="translate(0.000000,2800.000000) scale(0.100000,-0.100000)"
fill="#3a4548" stroke="none">
<path d="M21597 26988 c-4 -557 -7 -1218 -7 -1469 l0 -456 -30 0 c-43 0 -80
-37 -80 -80 0 -50 16 -72 66 -94 40 -18 44 -23 44 -55 0 -22 -9 -48 -24 -67
-60 -80 -87 -169 -87 -280 0 -45 6 -103 14 -129 17 -53 58 -128 81 -148 11 -9
16 -30 16 -70 l0 -58 -31 11 c-28 11 -33 10 -55 -16 -16 -19 -24 -40 -24 -66
0 -43 16 -62 73 -86 l37 -15 -2 -2278 -3 -2277 -40 -20 c-22 -11 -42 -21 -43
-22 -2 -1 6 -14 18 -30 18 -25 19 -33 9 -55 -6 -14 -22 -31 -35 -37 -14 -6
-24 -19 -24 -32 0 -20 2 -20 188 -14 103 4 193 9 201 11 10 3 5 11 -17 24 -43
26 -51 64 -22 95 l23 24 -45 20 c-25 10 -48 27 -52 36 -3 9 -6 1042 -6 2296
l0 2279 39 0 c47 0 81 35 81 83 0 34 -55 94 -92 99 -31 4 -37 52 -10 82 125
138 136 396 22 547 -36 48 -40 59 -40 112 0 52 2 58 18 52 41 -17 52 -16 76 9
41 40 36 85 -14 130 -22 20 -49 36 -60 36 -20 0 -20 7 -20 1460 l0 1460 -68 0
-69 0 -6 -1012z m137 -2310 c52 -109 50 -247 -6 -358 -31 -60 -36 -65 -69 -68
-35 -3 -37 -1 -59 49 -54 126 -44 266 26 387 20 34 30 42 54 42 25 0 32 -7 54
-52z"/>
</g>
</svg>
