<?xml version="1.0" standalone="no"?>
<!DOCTYPE svg PUBLIC "-//W3C//DTD SVG 20010904//EN"
 "http://www.w3.org/TR/2001/REC-SVG-20010904/DTD/svg10.dtd">
<svg version="1.0" xmlns="http://www.w3.org/2000/svg"
 width="2644.000000pt" height="2800.000000pt" viewBox="0 0 2644.000000 2800.000000"
 preserveAspectRatio="xMidYMid meet">

<g transform="translate(0.000000,2800.000000) scale(0.100000,-0.100000)"
fill="#3a4548" stroke="none">
<path d="M14260 13778 c0 -112 -1 -1046 -2 -2076 l-2 -1874 -22 -9 c-52 -19
-53 -163 -1 -171 31 -4 33 -55 8 -148 -49 -176 -50 -397 -1 -551 11 -35 20
-81 20 -101 0 -34 -3 -38 -24 -38 -25 0 -29 -6 -41 -67 -9 -46 11 -101 38
-105 l22 -3 2 -2029 c3 -1797 1 -2032 -12 -2053 -8 -12 -34 -32 -56 -44 l-41
-20 21 -23 c35 -37 24 -78 -30 -106 -15 -8 -19 -22 -19 -59 l0 -49 118 -6 c64
-4 125 -11 134 -16 26 -15 34 -13 114 27 l74 36 0 46 c0 42 -3 47 -33 61 -41
19 -49 68 -17 100 l20 20 -25 10 c-15 6 -30 10 -35 10 -5 0 -18 10 -30 22 -20
22 -20 23 -20 2055 l0 2033 24 9 c29 12 36 29 36 95 0 55 -12 76 -43 76 -17 0
-18 6 -14 48 2 26 14 92 27 147 30 134 25 371 -9 478 -27 83 -26 164 2 159 22
-4 37 34 37 96 0 54 -7 68 -35 73 -20 4 -20 13 -23 2077 l-2 2072 -80 0 -80 0
0 -202z"/>
</g>
</svg>
