<?xml version="1.0" standalone="no"?>
<!DOCTYPE svg PUBLIC "-//W3C//DTD SVG 20010904//EN"
 "http://www.w3.org/TR/2001/REC-SVG-20010904/DTD/svg10.dtd">
<svg version="1.0" xmlns="http://www.w3.org/2000/svg"
 width="2644.000000pt" height="2800.000000pt" viewBox="0 0 2644.000000 2800.000000"
 preserveAspectRatio="xMidYMid meet">

<g transform="translate(0.000000,2800.000000) scale(0.100000,-0.100000)"
fill="#3a4548" stroke="none">
<path d="M14988 14513 l-78 -160 0 -1536 0 -1536 -22 -3 c-17 -2 -25 -13 -31
-40 -13 -54 3 -112 31 -116 19 -3 22 -10 22 -46 0 -24 -10 -78 -22 -122 -30
-110 -32 -367 -4 -464 11 -36 21 -89 24 -118 4 -48 2 -54 -18 -59 -24 -6 -40
-39 -40 -83 0 -41 10 -60 36 -71 l24 -9 0 -1555 c0 -1528 0 -1555 -19 -1574
-11 -11 -34 -27 -51 -36 l-32 -17 22 -23 c29 -31 20 -70 -20 -93 -26 -15 -30
-23 -30 -59 l0 -41 58 -6 c197 -20 228 -19 296 5 l66 24 0 42 c0 36 -4 44 -27
55 -41 20 -52 61 -26 96 l21 29 -36 13 c-21 7 -43 17 -49 22 -10 8 -13 335
-13 1574 0 1547 0 1564 20 1564 14 0 22 10 30 39 5 21 8 45 6 52 -2 8 -7 26
-10 42 -5 19 -13 27 -27 27 -20 0 -21 4 -16 63 3 34 13 94 23 132 26 105 24
314 -4 425 -11 47 -22 104 -24 128 -2 37 1 45 22 55 46 23 48 149 2 155 l-22
3 -2 1691 -3 1692 -77 -161z"/>
</g>
</svg>
