<?xml version="1.0" standalone="no"?>
<!DOCTYPE svg PUBLIC "-//W3C//DTD SVG 20010904//EN"
 "http://www.w3.org/TR/2001/REC-SVG-20010904/DTD/svg10.dtd">
<svg version="1.0" xmlns="http://www.w3.org/2000/svg"
 width="2644.000000pt" height="2800.000000pt" viewBox="0 0 2644.000000 2800.000000"
 preserveAspectRatio="xMidYMid meet">

<g transform="translate(0.000000,2800.000000) scale(0.100000,-0.100000)"
fill="#3a4548" stroke="none">
<path d="M19276 26049 l-46 -41 0 -1574 0 -1574 -34 0 c-42 0 -76 -38 -76 -84
0 -39 27 -70 75 -86 31 -10 35 -15 35 -47 0 -19 -8 -47 -19 -61 -99 -141 -119
-323 -51 -469 18 -40 41 -80 51 -89 14 -13 19 -31 19 -70 l0 -53 -36 6 c-31 5
-40 2 -55 -18 -24 -31 -25 -91 -1 -111 9 -9 34 -21 55 -28 l37 -12 0 -2234 c0
-2211 0 -2234 -20 -2254 -11 -11 -31 -22 -45 -26 -29 -7 -31 -16 -10 -34 31
-26 6 -100 -33 -100 -7 0 -12 -14 -12 -33 l0 -33 83 2 c45 1 135 2 200 3 110
1 117 2 117 21 0 12 -10 25 -24 31 -13 6 -30 22 -37 36 -12 21 -11 29 5 56 10
19 13 33 7 35 -5 2 -25 13 -43 26 l-33 22 -3 2247 -2 2247 31 0 c43 0 65 15
78 51 17 50 -6 92 -63 114 -58 22 -60 46 -12 119 68 103 94 218 76 333 -11 70
-59 179 -91 209 -15 13 -19 31 -19 76 0 59 8 69 39 49 22 -14 50 5 67 44 20
49 5 79 -56 110 l-50 25 2 1589 3 1588 -22 16 c-30 23 -34 22 -87 -24z m89
-3562 c55 -113 52 -238 -7 -357 -27 -52 -38 -66 -59 -68 -28 -3 -42 17 -74
109 -33 93 -8 259 51 337 36 47 58 42 89 -21z"/>
</g>
</svg>
