<?xml version="1.0" standalone="no"?>
<!DOCTYPE svg PUBLIC "-//W3C//DTD SVG 20010904//EN"
 "http://www.w3.org/TR/2001/REC-SVG-20010904/DTD/svg10.dtd">
<svg version="1.0" xmlns="http://www.w3.org/2000/svg"
 width="2644.000000pt" height="2800.000000pt" viewBox="0 0 2644.000000 2800.000000"
 preserveAspectRatio="xMidYMid meet">

<g transform="translate(0.000000,2800.000000) scale(0.100000,-0.100000)"
fill="#65340A" stroke="none">
<path d="M9418 15693 l-3 -1576 -30 -10 c-40 -13 -40 -11 -14 -46 21 -29 21
-31 5 -55 -9 -15 -25 -26 -35 -26 -10 0 -21 -7 -25 -15 -3 -8 -12 -15 -21 -15
-22 0 -18 -38 5 -45 11 -3 20 -10 20 -15 0 -4 11 -11 25 -14 13 -3 29 -16 36
-27 9 -18 7 -27 -10 -50 -12 -15 -21 -30 -21 -33 0 -3 15 -9 33 -14 l32 -8 3
-885 c1 -486 0 -894 -3 -907 -4 -14 -19 -29 -40 -38 l-34 -14 17 -31 c17 -30
17 -30 -15 -58 -24 -20 -33 -36 -33 -58 l0 -31 111 -1 c61 -1 137 1 170 5 l59
7 0 33 c0 20 -5 34 -12 34 -7 0 -21 12 -31 26 -18 24 -18 26 -2 51 14 21 15
27 4 34 -8 5 -20 9 -26 9 -7 0 -19 10 -27 23 -13 19 -14 139 -11 877 2 470 4
872 4 892 1 32 5 37 31 43 33 7 37 16 15 35 -29 24 -13 90 21 90 7 0 24 11 38
24 26 23 34 46 17 46 -5 0 -16 6 -23 13 -7 6 -25 18 -40 26 -32 16 -38 60 -13
81 23 19 18 29 -17 38 l-33 8 0 1566 c0 862 -3 1569 -5 1571 -3 2 -31 7 -62
10 l-58 6 -2 -1576z"/>
</g>
</svg>
