<?xml version="1.0" standalone="no"?>
<!DOCTYPE svg PUBLIC "-//W3C//DTD SVG 20010904//EN"
 "http://www.w3.org/TR/2001/REC-SVG-20010904/DTD/svg10.dtd">
<svg version="1.0" xmlns="http://www.w3.org/2000/svg"
 width="2644.000000pt" height="2800.000000pt" viewBox="0 0 2644.000000 2800.000000"
 preserveAspectRatio="xMidYMid meet">

<g transform="translate(0.000000,2800.000000) scale(0.100000,-0.100000)"
fill="#65340A" stroke="none">
<path d="M3720 12268 c0 -975 0 -1816 0 -1869 l0 -96 -27 -6 c-52 -12 -60 -23
-35 -50 39 -42 23 -94 -35 -111 -13 -4 -23 -11 -23 -15 0 -4 -11 -13 -25 -19
-31 -14 -32 -38 -2 -53 12 -7 24 -15 27 -18 3 -3 22 -14 43 -23 31 -15 37 -23
37 -48 0 -17 -9 -39 -20 -50 -26 -26 -19 -37 25 -46 l35 -6 0 -802 c0 -440 3
-1394 7 -2119 7 -1405 8 -1359 -41 -1371 -11 -3 -30 -12 -41 -20 -19 -14 -19
-15 -2 -34 26 -28 18 -63 -20 -87 -27 -16 -32 -26 -33 -56 0 -44 2 -45 155
-54 98 -5 119 -3 190 18 l80 24 2 39 c3 34 -1 41 -30 59 -39 24 -46 56 -18 84
22 22 22 23 -32 40 -20 7 -41 21 -47 31 -6 11 -8 356 -6 926 2 500 4 1454 5
2120 l1 1212 35 6 c45 9 52 22 26 50 -12 12 -21 32 -21 44 0 25 36 62 62 62
10 0 18 5 18 10 0 6 11 16 25 22 33 15 31 51 -2 56 -13 2 -23 10 -23 18 0 8
-8 14 -18 14 -55 0 -82 69 -42 105 28 25 25 32 -17 42 l-38 9 -3 1867 -2 1867
-85 0 -85 0 0 -1772z"/>
</g>
</svg>
