<?xml version="1.0" standalone="no"?>
<!DOCTYPE svg PUBLIC "-//W3C//DTD SVG 20010904//EN"
 "http://www.w3.org/TR/2001/REC-SVG-20010904/DTD/svg10.dtd">
<svg version="1.0" xmlns="http://www.w3.org/2000/svg"
 width="2644.000000pt" height="2800.000000pt" viewBox="0 0 2644.000000 2800.000000"
 preserveAspectRatio="xMidYMid meet">

<g transform="translate(0.000000,2800.000000) scale(0.100000,-0.100000)"
fill="#65340A" stroke="none">
<path d="M4498 14643 l-77 -108 -1 -1578 c0 -1494 -1 -1578 -17 -1583 -10 -3
-29 -10 -42 -15 l-24 -10 22 -23 c11 -12 21 -34 21 -48 0 -28 -28 -58 -53 -58
-9 0 -20 -6 -24 -12 -4 -7 -17 -18 -28 -24 -30 -17 -31 -42 -1 -50 14 -3 26
-12 26 -20 0 -8 8 -14 18 -14 28 0 62 -29 62 -54 0 -13 -9 -35 -20 -49 -11
-14 -20 -28 -20 -31 0 -3 18 -9 40 -12 l40 -7 -2 -1641 -3 -1641 -47 -25 -48
-26 22 -22 c18 -18 20 -26 12 -49 -5 -15 -22 -34 -37 -41 -22 -11 -27 -20 -27
-51 l0 -39 133 -6 c109 -5 145 -3 207 11 l75 18 3 41 c3 37 0 42 -23 48 -14 4
-31 18 -37 32 -10 20 -8 29 10 54 l22 29 -35 11 c-19 6 -42 18 -50 27 -13 13
-15 213 -15 1642 l0 1629 28 5 c51 12 58 22 33 52 -11 15 -21 35 -21 45 0 21
41 60 63 60 9 0 17 6 17 14 0 8 10 16 23 18 16 2 22 10 22 28 0 18 -6 26 -22
28 -13 2 -23 7 -23 12 0 5 -10 12 -22 16 -58 17 -74 61 -37 100 26 28 19 41
-26 50 l-35 6 -2 1685 -3 1685 -77 -109z"/>
</g>
</svg>
