<?xml version="1.0" standalone="no"?>
<!DOCTYPE svg PUBLIC "-//W3C//DTD SVG 20010904//EN"
 "http://www.w3.org/TR/2001/REC-SVG-20010904/DTD/svg10.dtd">
<svg version="1.0" xmlns="http://www.w3.org/2000/svg"
 width="2644.000000pt" height="2800.000000pt" viewBox="0 0 2644.000000 2800.000000"
 preserveAspectRatio="xMidYMid meet">

<g transform="translate(0.000000,2800.000000) scale(0.100000,-0.100000)"
fill="#65340A" stroke="none">
<path d="M6725 15769 l0 -1733 -35 -9 c-46 -12 -46 -12 -21 -43 11 -15 21 -34
21 -44 0 -20 -26 -45 -57 -54 -13 -4 -23 -12 -23 -17 0 -5 -7 -9 -15 -9 -9 0
-18 -7 -22 -16 -7 -19 23 -46 74 -68 43 -19 51 -50 23 -88 -24 -33 -16 -48 26
-48 12 0 24 -6 26 -12 3 -7 5 -841 6 -1852 2 -2035 7 -1873 -63 -1896 l-37
-12 23 -24 c19 -20 21 -27 11 -49 -7 -14 -23 -30 -37 -37 -19 -9 -25 -19 -25
-44 0 -17 6 -34 13 -37 27 -10 260 -7 317 4 l60 12 0 38 c0 28 -4 39 -15 39
-8 0 -24 9 -34 19 -21 21 -19 52 6 73 13 10 8 15 -29 33 l-43 20 -3 1862 -2
1861 35 6 c32 6 59 26 36 26 -6 0 -17 12 -25 28 -18 36 -6 67 33 80 17 6 31
16 31 21 0 6 6 11 14 11 7 0 19 6 25 14 12 14 10 17 -33 54 -8 6 -22 12 -30
12 -21 0 -56 48 -49 68 3 9 13 25 22 35 13 16 13 19 1 27 -8 6 -25 10 -37 10
l-23 0 0 1730 0 1730 -29 0 c-15 0 -48 3 -72 6 l-44 6 0 -1733z"/>
</g>
</svg>
