<?xml version="1.0" standalone="no"?>
<!DOCTYPE svg PUBLIC "-//W3C//DTD SVG 20010904//EN"
 "http://www.w3.org/TR/2001/REC-SVG-20010904/DTD/svg10.dtd">
<svg version="1.0" xmlns="http://www.w3.org/2000/svg"
 width="2644.000000pt" height="2800.000000pt" viewBox="0 0 2644.000000 2800.000000"
 preserveAspectRatio="xMidYMid meet">

<g transform="translate(0.000000,2800.000000) scale(0.100000,-0.100000)"
fill="#65340A" stroke="none">
<path d="M7305 17450 c-3 -5 -4 -770 -3 -1701 1 -1453 -1 -1694 -13 -1697 -8
-3 -24 -9 -37 -13 l-23 -9 20 -26 c12 -15 21 -35 21 -45 0 -19 -36 -51 -80
-71 -42 -18 -52 -58 -15 -58 7 0 15 -7 19 -15 3 -8 14 -15 24 -15 22 0 52 -30
52 -52 0 -8 -9 -27 -20 -41 -22 -27 -18 -34 26 -46 l25 -6 0 -1680 c0 -924 0
-1746 -1 -1828 l0 -147 -44 -21 c-42 -21 -43 -22 -25 -40 11 -11 19 -26 19
-34 0 -17 -35 -55 -50 -55 -6 0 -10 -18 -10 -40 l0 -40 43 0 c23 0 74 -3 112
-6 39 -3 101 1 140 8 70 13 70 13 73 48 2 30 -2 37 -28 52 -34 19 -40 51 -14
80 16 17 15 19 -19 33 -20 8 -38 19 -41 24 -4 5 -6 454 -6 998 0 543 0 1363 0
1821 0 509 4 832 9 832 5 0 22 5 36 10 l26 10 -20 26 c-12 15 -21 34 -21 44 0
17 29 50 46 50 5 0 25 14 44 30 l35 29 -30 25 c-16 14 -37 25 -46 26 -20 0
-49 31 -49 52 0 8 9 27 21 42 l20 26 -26 10 c-14 5 -31 10 -36 10 -5 0 -9 650
-9 1695 l0 1695 -38 0 c-20 0 -52 4 -69 9 -18 5 -35 6 -38 1z"/>
</g>
</svg>
