<?xml version="1.0" standalone="no"?>
<!DOCTYPE svg PUBLIC "-//W3C//DTD SVG 20010904//EN"
 "http://www.w3.org/TR/2001/REC-SVG-20010904/DTD/svg10.dtd">
<svg version="1.0" xmlns="http://www.w3.org/2000/svg"
 width="2644.000000pt" height="2800.000000pt" viewBox="0 0 2644.000000 2800.000000"
 preserveAspectRatio="xMidYMid meet">

<g transform="translate(0.000000,2800.000000) scale(0.100000,-0.100000)"
fill="#65340A" stroke="none">
<path d="M15968 13982 l-78 -3 0 -2174 0 -2175 -45 -20 c-49 -22 -54 -30 -29
-51 45 -37 33 -96 -23 -122 -40 -18 -83 -59 -83 -79 0 -10 11 -23 25 -28 14
-5 25 -13 25 -18 0 -4 15 -13 33 -20 60 -21 67 -70 19 -125 -19 -21 -9 -32 38
-44 l35 -9 3 -2340 c1 -1286 0 -2349 -3 -2362 -3 -13 -26 -35 -56 -53 l-50
-31 20 -20 c21 -19 27 -54 13 -73 -4 -6 -21 -21 -38 -32 -26 -19 -30 -27 -28
-63 1 -22 3 -43 5 -45 2 -2 74 -9 159 -15 l156 -12 62 31 62 31 0 50 c0 38 -4
50 -15 50 -23 0 -55 37 -55 65 0 14 9 34 20 45 11 11 20 22 20 23 0 2 -18 9
-40 16 -21 6 -46 18 -55 27 -13 14 -15 260 -15 2364 l0 2349 46 20 46 21 -26
31 c-14 17 -26 39 -26 48 0 23 37 71 54 71 17 0 86 62 86 77 0 7 -10 18 -22
24 -13 7 -29 18 -36 26 -7 7 -20 13 -27 13 -16 0 -55 47 -55 65 0 7 11 29 25
49 l25 37 -23 8 c-12 5 -31 10 -42 12 -20 4 -20 14 -25 2184 l-5 2180 -77 -3z"/>
</g>
</svg>
