<?xml version="1.0" standalone="no"?>
<!DOCTYPE svg PUBLIC "-//W3C//DTD SVG 20010904//EN"
 "http://www.w3.org/TR/2001/REC-SVG-20010904/DTD/svg10.dtd">
<svg version="1.0" xmlns="http://www.w3.org/2000/svg"
 width="2644.000000pt" height="2800.000000pt" viewBox="0 0 2644.000000 2800.000000"
 preserveAspectRatio="xMidYMid meet">

<g transform="translate(0.000000,2800.000000) scale(0.100000,-0.100000)"
fill="#65340A" stroke="none">
<path d="M25297 27972 c-5 -23 -14 -31 -46 -41 -23 -6 -41 -14 -41 -16 0 -3 9
-14 20 -25 32 -32 36 -67 9 -96 -12 -13 -29 -24 -36 -24 -8 0 -21 -6 -29 -14
-7 -8 -19 -16 -25 -18 -24 -8 1 -54 57 -111 61 -60 62 -63 22 -120 -11 -15 -8
-22 30 -53 l42 -36 0 -1848 c0 -1580 -2 -1851 -14 -1863 -8 -8 -28 -20 -45
-27 -35 -14 -38 -22 -16 -40 20 -16 19 -64 0 -80 -11 -9 -13 -16 -5 -24 7 -7
14 -6 22 2 7 7 35 12 63 12 29 0 86 3 128 6 72 6 77 9 77 30 0 13 9 30 21 38
21 14 20 15 -30 51 l-51 37 -2 1649 c-2 907 -3 1744 -3 1861 l0 212 38 9 c41
10 47 25 17 52 -37 34 -15 105 34 105 9 0 19 6 22 14 3 8 14 16 25 19 33 9 21
40 -41 107 -33 36 -60 70 -60 76 0 6 10 24 22 39 l22 28 -42 39 c-23 21 -42
48 -42 58 0 18 -7 20 -69 20 -67 0 -69 -1 -74 -28z"/>
</g>
</svg>
