<?xml version="1.0" standalone="no"?>
<!DOCTYPE svg PUBLIC "-//W3C//DTD SVG 20010904//EN"
 "http://www.w3.org/TR/2001/REC-SVG-20010904/DTD/svg10.dtd">
<svg version="1.0" xmlns="http://www.w3.org/2000/svg"
 width="2644.000000pt" height="2800.000000pt" viewBox="0 0 2644.000000 2800.000000"
 preserveAspectRatio="xMidYMid meet">

<g transform="translate(0.000000,2800.000000) scale(0.100000,-0.100000)"
fill="#65340A" stroke="none">
<path d="M14760 11810 l0 -2180 -40 -16 c-22 -9 -40 -20 -40 -26 0 -5 10 -26
22 -47 21 -37 21 -39 4 -65 -9 -15 -29 -32 -43 -39 -15 -6 -41 -25 -59 -41
-27 -23 -31 -32 -23 -47 5 -11 16 -19 25 -19 8 0 17 -7 20 -15 4 -8 15 -15 26
-15 22 0 68 -42 68 -63 0 -8 -11 -31 -25 -52 -15 -20 -25 -38 -23 -40 14 -11
50 -25 67 -25 l21 0 0 -2352 c-1 -1838 -3 -2356 -13 -2369 -7 -8 -31 -26 -54
-39 -24 -13 -43 -26 -43 -29 0 -4 9 -12 20 -19 37 -23 21 -81 -30 -107 -26
-14 -30 -21 -30 -59 0 -52 -2 -51 168 -62 62 -4 115 -11 118 -15 7 -12 41 -12
46 0 2 5 31 23 65 40 l63 31 -3 42 c-2 34 -7 44 -32 58 -44 24 -54 62 -27 99
l21 29 -45 17 c-24 9 -49 25 -54 35 -6 12 -10 850 -10 2359 l0 2340 45 20 c25
11 45 23 45 27 0 4 -10 18 -21 30 -12 13 -21 35 -21 49 0 27 27 65 47 65 7 0
25 11 41 25 16 14 34 30 41 35 18 14 5 39 -23 46 -13 3 -24 12 -24 20 0 8 -9
14 -19 14 -30 0 -63 33 -63 64 0 15 9 41 21 56 26 37 27 36 -6 46 -42 11 -42
11 -53 13 -7 1 -10 653 -10 1964 0 1079 0 2059 0 2178 l0 216 -80 2 -80 1 0
-2180z"/>
</g>
</svg>
