<?xml version="1.0" standalone="no"?>
<!DOCTYPE svg PUBLIC "-//W3C//DTD SVG 20010904//EN"
 "http://www.w3.org/TR/2001/REC-SVG-20010904/DTD/svg10.dtd">
<svg version="1.0" xmlns="http://www.w3.org/2000/svg"
 width="2644.000000pt" height="2800.000000pt" viewBox="0 0 2644.000000 2800.000000"
 preserveAspectRatio="xMidYMid meet">

<g transform="translate(0.000000,2800.000000) scale(0.100000,-0.100000)"
fill="#65340A" stroke="none">
<path d="M15483 15559 l-71 -147 -6 -133 c-3 -74 -5 -819 -5 -1655 l-1 -1521
-27 -6 c-54 -12 -59 -22 -30 -57 15 -17 27 -37 27 -44 0 -18 -49 -66 -67 -66
-7 0 -16 -6 -19 -14 -3 -8 -14 -16 -25 -19 -44 -12 -14 -57 65 -97 49 -25 54
-74 12 -110 -24 -19 -19 -28 24 -41 l40 -12 0 -2208 c0 -1214 -3 -2215 -6
-2224 -4 -9 -24 -25 -45 -36 -43 -21 -47 -30 -24 -49 30 -25 16 -74 -27 -96
-26 -14 -29 -19 -26 -57 l3 -42 45 -2 c25 -1 89 -8 142 -14 82 -10 101 -10
130 3 18 8 48 21 66 28 29 11 32 16 32 56 0 30 -4 44 -13 44 -19 0 -57 43 -57
65 0 10 9 29 21 41 l21 22 -36 12 c-20 6 -43 18 -51 27 -13 13 -15 280 -15
2227 l0 2214 28 5 c37 9 61 27 44 34 -7 2 -19 18 -27 33 -12 23 -13 34 -3 55
6 14 14 25 18 25 4 0 28 14 53 31 53 35 61 64 22 79 -14 5 -25 14 -25 20 0 5
-7 10 -15 10 -9 0 -27 11 -41 25 -28 28 -26 54 9 92 l20 22 -27 11 c-15 5 -34
10 -42 10 -12 0 -14 246 -16 1803 l-3 1803 -72 -147z"/>
</g>
</svg>
