<?xml version="1.0" standalone="no"?>
<!DOCTYPE svg PUBLIC "-//W3C//DTD SVG 20010904//EN"
 "http://www.w3.org/TR/2001/REC-SVG-20010904/DTD/svg10.dtd">
<svg version="1.0" xmlns="http://www.w3.org/2000/svg"
 width="2644.000000pt" height="2800.000000pt" viewBox="0 0 2644.000000 2800.000000"
 preserveAspectRatio="xMidYMid meet">

<g transform="translate(0.000000,2800.000000) scale(0.100000,-0.100000)"
fill="#65340A" stroke="none">
<path d="M16992 23867 l-42 -43 0 -1847 c0 -1598 -2 -1847 -14 -1847 -8 0 -26
-4 -40 -10 l-26 -9 25 -37 c14 -20 25 -41 25 -46 0 -15 -48 -58 -65 -58 -8 0
-15 -4 -15 -8 0 -5 -11 -14 -25 -20 -14 -6 -25 -17 -25 -25 0 -12 55 -67 69
-67 3 0 17 -9 30 -19 30 -23 31 -64 2 -95 l-22 -23 25 -17 c14 -9 32 -16 41
-16 13 0 15 -231 15 -2219 0 -1900 -2 -2222 -14 -2234 -8 -8 -28 -20 -45 -27
-35 -14 -38 -22 -16 -40 29 -24 16 -74 -25 -95 -23 -12 -27 -20 -26 -52 l1
-38 185 0 c102 -1 193 1 203 3 26 6 24 78 -3 87 -34 11 -55 51 -42 80 7 14 16
25 22 25 20 0 10 18 -13 24 -13 3 -36 15 -50 27 l-27 20 0 2213 0 2214 28 5
c51 12 58 22 33 52 -11 15 -21 38 -21 51 0 23 42 64 66 64 8 0 14 4 14 9 0 5
9 11 20 14 44 11 16 57 -67 107 -39 23 -45 66 -13 95 28 25 25 33 -20 52 l-40
18 0 1872 0 1872 -22 15 c-32 23 -39 21 -86 -27z"/>
</g>
</svg>
