<?xml version="1.0" standalone="no"?>
<!DOCTYPE svg PUBLIC "-//W3C//DTD SVG 20010904//EN"
 "http://www.w3.org/TR/2001/REC-SVG-20010904/DTD/svg10.dtd">
<svg version="1.0" xmlns="http://www.w3.org/2000/svg"
 width="2644.000000pt" height="2800.000000pt" viewBox="0 0 2644.000000 2800.000000"
 preserveAspectRatio="xMidYMid meet">

<g transform="translate(0.000000,2800.000000) scale(0.100000,-0.100000)"
fill="#65340A" stroke="none">
<path d="M19307 26081 l-77 -76 0 -1877 c0 -1625 -2 -1878 -14 -1878 -8 0 -27
-5 -42 -10 -24 -10 -25 -12 -11 -28 9 -9 20 -29 26 -44 8 -22 6 -31 -10 -52
-11 -14 -29 -26 -40 -26 -10 0 -19 -5 -19 -10 0 -6 -11 -15 -25 -20 -48 -18
-27 -53 67 -112 35 -22 39 -75 8 -103 -24 -21 -21 -28 25 -49 l35 -17 0 -2254
c0 -2232 0 -2255 -20 -2275 -11 -11 -31 -22 -45 -26 -29 -7 -31 -16 -10 -34
31 -26 6 -100 -33 -100 -7 0 -12 -14 -12 -33 l0 -32 68 1 c37 1 127 2 200 3
124 1 132 2 132 21 0 12 -12 26 -30 35 -38 20 -48 56 -25 92 12 18 14 28 7 31
-6 2 -26 13 -44 26 l-33 22 0 2259 0 2258 32 11 c44 15 48 21 24 45 -33 33
-28 77 12 101 17 10 37 23 42 27 6 5 18 12 28 16 9 3 17 14 17 24 0 19 -49 66
-90 86 -34 17 -39 68 -9 98 l22 22 -24 18 c-13 10 -32 21 -42 25 -17 5 -18 91
-15 1960 2 1075 3 1953 3 1952 0 -1 -35 -36 -78 -77z"/>
</g>
</svg>
