<?xml version="1.0" standalone="no"?>
<!DOCTYPE svg PUBLIC "-//W3C//DTD SVG 20010904//EN"
 "http://www.w3.org/TR/2001/REC-SVG-20010904/DTD/svg10.dtd">
<svg version="1.0" xmlns="http://www.w3.org/2000/svg"
 width="3542.000000pt" height="3750.000000pt" viewBox="0 0 3542.000000 3750.000000"
 preserveAspectRatio="xMidYMid meet">

<g transform="translate(0.000000,3750.000000) scale(0.100000,-0.100000)"
fill="#3a4548" stroke="none">
<path d="M14430 17970 l0 -670 -130 0 -130 0 0 -3590 0 -3590 26 -6 c27 -7
172 2 212 12 l22 6 0 -558 c0 -308 -4 -564 -8 -570 -4 -6 -31 -23 -60 -38 -52
-26 -53 -27 -33 -44 35 -30 36 -59 2 -92 -16 -17 -37 -30 -45 -30 -12 0 -16
-11 -16 -49 l0 -50 53 -10 c181 -36 182 -36 395 0 l62 11 0 49 c0 36 -4 49
-14 49 -25 0 -76 50 -76 74 0 12 11 33 25 46 l26 24 -48 19 c-26 10 -54 25
-60 34 -10 13 -13 147 -13 588 l0 572 125 18 125 18 0 3558 0 3559 -125 0
-125 0 0 665 0 665 -95 0 -95 0 0 -670z m257 -4215 c2 -1880 -1 -3422 -5
-3426 -4 -4 -27 -10 -52 -13 -25 -3 -85 -13 -135 -21 -49 -8 -100 -15 -112
-15 l-23 0 0 3440 c0 1892 1 3441 3 3441 4 2 291 16 307 15 13 -1 15 -389 17
-3421z"/>
</g>
</svg>
