<?xml version="1.0" standalone="no"?>
<!DOCTYPE svg PUBLIC "-//W3C//DTD SVG 20010904//EN"
 "http://www.w3.org/TR/2001/REC-SVG-20010904/DTD/svg10.dtd">
<svg version="1.0" xmlns="http://www.w3.org/2000/svg"
 width="3542.000000pt" height="3750.000000pt" viewBox="0 0 3542.000000 3750.000000"
 preserveAspectRatio="xMidYMid meet">

<g transform="translate(0.000000,3750.000000) scale(0.100000,-0.100000)"
fill="#3a4548" stroke="none">
<path d="M25428 18123 l-3 -608 -122 4 -123 3 0 -3251 0 -3251 23 -4 c12 -3
68 -10 125 -17 l102 -11 0 -520 c0 -498 -3 -558 -29 -558 -5 0 -26 -7 -47 -16
-33 -14 -36 -17 -20 -26 44 -25 35 -88 -16 -110 -24 -11 -28 -18 -28 -55 0
-49 -13 -43 155 -67 98 -13 117 -13 185 0 41 9 85 18 98 20 19 4 22 11 22 49
0 31 -4 45 -14 45 -23 0 -66 40 -66 63 0 11 10 31 21 44 l22 22 -44 19 c-24
11 -50 26 -57 34 -9 12 -12 130 -10 524 l3 509 45 -5 c25 -3 81 -5 125 -5 l80
0 3 3273 3 3272 -48 0 c-59 0 -183 10 -201 16 -10 3 -13 27 -12 91 1 49 1 321
1 606 l-1 517 -85 0 -85 0 -2 -607z m205 -743 l47 0 0 -3140 c0 -2340 -3
-3140 -11 -3140 -16 0 -270 30 -294 35 -20 4 -20 13 -23 3110 -2 1708 0 3115
3 3126 7 21 11 21 119 15 61 -3 132 -6 159 -6z"/>
</g>
</svg>
