<?xml version="1.0" standalone="no"?>
<!DOCTYPE svg PUBLIC "-//W3C//DTD SVG 20010904//EN"
 "http://www.w3.org/TR/2001/REC-SVG-20010904/DTD/svg10.dtd">
<svg version="1.0" xmlns="http://www.w3.org/2000/svg"
 width="3542.000000pt" height="3750.000000pt" viewBox="0 0 3542.000000 3750.000000"
 preserveAspectRatio="xMidYMid meet">

<g transform="translate(0.000000,3750.000000) scale(0.100000,-0.100000)"
fill="#3a4548" stroke="none">
<path d="M27488 18083 l-3 -626 -127 2 -128 2 0 -2943 c-1 -3578 0 -3741 5
-3746 2 -3 62 -12 132 -21 l128 -16 1 -530 c1 -428 -1 -534 -12 -552 -7 -11
-34 -29 -59 -39 -45 -17 -46 -17 -27 -38 11 -12 22 -26 26 -33 11 -19 -15 -61
-45 -74 -26 -10 -29 -16 -29 -55 0 -50 -11 -46 158 -69 103 -15 119 -15 195 0
124 25 117 21 117 69 0 39 -3 45 -30 56 -54 22 -65 67 -25 104 l24 22 -50 18
c-27 10 -54 26 -59 36 -6 12 -10 220 -10 539 l0 521 23 0 c12 0 55 -5 96 -10
41 -5 91 -7 112 -4 l39 7 0 3367 0 3368 -135 7 -135 7 0 623 c0 559 -2 623
-16 629 -9 3 -49 6 -90 6 l-74 0 -2 -627z m143 -763 l129 0 0 -3236 0 -3237
-52 7 c-29 4 -106 13 -171 20 -65 8 -120 15 -122 18 -7 7 -7 165 -6 3417 l1
3024 46 -7 c26 -3 105 -6 175 -6z"/>
</g>
</svg>
