<?xml version="1.0" standalone="no"?>
<!DOCTYPE svg PUBLIC "-//W3C//DTD SVG 20010904//EN"
 "http://www.w3.org/TR/2001/REC-SVG-20010904/DTD/svg10.dtd">
<svg version="1.0" xmlns="http://www.w3.org/2000/svg"
 width="3542.000000pt" height="3750.000000pt" viewBox="0 0 3542.000000 3750.000000"
 preserveAspectRatio="xMidYMid meet">

<g transform="translate(0.000000,3750.000000) scale(0.100000,-0.100000)"
fill="#3a4548" stroke="none">
<path d="M30830 18015 l0 -655 -145 0 -145 0 0 -647 c0 -357 0 -1773 -1 -3148
0 -1375 -1 -2658 0 -2851 l1 -351 58 -7 c31 -3 96 -11 145 -18 l87 -11 0 -563
0 -563 -26 -20 c-14 -11 -41 -25 -60 -31 l-34 -12 25 -30 c14 -16 25 -34 25
-39 0 -21 -33 -58 -61 -68 -26 -9 -29 -14 -29 -55 0 -51 -15 -45 170 -72 117
-17 183 -14 294 17 34 10 36 12 36 54 0 42 -2 46 -35 59 -21 9 -39 26 -45 41
-11 28 -8 38 22 71 19 21 19 21 -24 39 -85 33 -78 -20 -78 598 l0 550 83 -9
c98 -10 176 -11 198 -2 15 6 16 283 15 3530 l-1 3523 -140 3 c-95 2 -142 7
-147 15 -4 7 -7 293 -8 637 0 344 0 635 0 648 0 21 -3 22 -90 22 l-90 0 0
-655z m238 -801 l52 -7 0 -3378 0 -3379 -23 0 c-38 0 -360 40 -366 45 -2 3 -6
1517 -8 3365 l-4 3360 148 0 c81 0 172 -3 201 -6z"/>
</g>
</svg>
