<?xml version="1.0" standalone="no"?>
<!DOCTYPE svg PUBLIC "-//W3C//DTD SVG 20010904//EN"
 "http://www.w3.org/TR/2001/REC-SVG-20010904/DTD/svg10.dtd">
<svg version="1.0" xmlns="http://www.w3.org/2000/svg"
 width="3542.000000pt" height="3750.000000pt" viewBox="0 0 3542.000000 3750.000000"
 preserveAspectRatio="xMidYMid meet">

<g transform="translate(0.000000,3750.000000) scale(0.100000,-0.100000)"
fill="#3a4548" stroke="none">
<path d="M32014 18647 c-2 -7 -5 -307 -7 -667 l-2 -654 -147 3 -148 3 0 -2419
c-1 -3859 0 -4686 4 -4690 2 -2 64 -11 137 -19 74 -8 140 -17 147 -19 9 -3 12
-127 12 -573 0 -439 -3 -572 -12 -584 -7 -8 -34 -23 -60 -33 -27 -10 -48 -19
-48 -21 0 -2 12 -15 26 -29 19 -19 23 -31 18 -48 -9 -31 -32 -54 -60 -61 -21
-6 -24 -12 -24 -55 0 -56 -20 -48 187 -77 121 -16 124 -16 218 5 l95 22 0 49
c0 44 -2 49 -30 60 -52 21 -67 76 -30 107 11 10 20 21 20 24 0 4 -20 15 -45
25 -25 9 -51 26 -56 36 -10 19 -16 1115 -6 1125 3 2 55 -3 116 -11 77 -10 122
-11 146 -5 l35 10 0 3579 0 3580 -73 0 c-41 0 -108 3 -150 6 l-77 7 0 663 0
664 -72 1 c-40 0 -81 2 -91 4 -10 2 -20 -2 -23 -8z m284 -1473 c10 -3 12 -689
12 -3439 l0 -3436 -28 5 c-15 3 -88 12 -162 21 -74 8 -154 18 -177 21 l-43 5
0 3419 0 3419 193 -5 c105 -3 198 -7 205 -10z"/>
</g>
</svg>
