<?xml version="1.0" standalone="no"?>
<!DOCTYPE svg PUBLIC "-//W3C//DTD SVG 20010904//EN"
 "http://www.w3.org/TR/2001/REC-SVG-20010904/DTD/svg10.dtd">
<svg version="1.0" xmlns="http://www.w3.org/2000/svg"
 width="3542.000000pt" height="3750.000000pt" viewBox="0 0 3542.000000 3750.000000"
 preserveAspectRatio="xMidYMid meet">

<g transform="translate(0.000000,3750.000000) scale(0.100000,-0.100000)"
fill="#3a4548" stroke="none">
<path d="M33226 17983 c1 -362 -1 -666 -3 -676 -4 -16 -18 -18 -149 -16 -79 1
-146 0 -149 -3 -5 -5 -9 -7207 -4 -7212 2 -2 72 -12 154 -22 l150 -19 3 -578
c2 -650 9 -595 -75 -632 -24 -10 -43 -20 -43 -22 0 -1 9 -12 20 -23 37 -37 17
-101 -35 -114 -23 -6 -25 -11 -25 -56 0 -28 1 -50 3 -50 1 0 72 -11 158 -23
151 -22 159 -22 225 -6 38 9 81 20 97 23 25 6 27 10 27 56 0 39 -4 50 -16 50
-21 0 -74 54 -74 76 0 10 11 30 25 44 l26 27 -48 18 c-26 9 -54 25 -60 33 -10
12 -13 144 -13 584 0 534 1 568 18 568 9 0 63 -7 120 -14 70 -10 114 -11 137
-5 l35 10 0 3639 0 3640 -155 0 -155 0 0 680 0 680 -98 0 -97 0 1 -657z m194
-842 l115 -6 0 -3488 0 -3489 -75 7 c-41 4 -136 14 -210 24 l-135 16 -3 3473
-2 3472 97 -1 c54 -1 150 -4 213 -8z"/>
</g>
</svg>
