<?xml version="1.0" standalone="no"?>
<!DOCTYPE svg PUBLIC "-//W3C//DTD SVG 20010904//EN"
 "http://www.w3.org/TR/2001/REC-SVG-20010904/DTD/svg10.dtd">
<svg version="1.0" xmlns="http://www.w3.org/2000/svg"
 width="3542.000000pt" height="3750.000000pt" viewBox="0 0 3542.000000 3750.000000"
 preserveAspectRatio="xMidYMid meet">

<g transform="translate(0.000000,3750.000000) scale(0.100000,-0.100000)"
fill="#3a4548" stroke="none">
<path d="M7618 18542 l-38 -3 0 -733 0 -733 -37 -7 c-21 -3 -93 -6 -161 -6
l-123 0 5 -3942 c3 -2169 5 -3957 5 -3975 1 -30 4 -32 46 -39 39 -5 149 5 238
22 l27 6 0 -621 c0 -608 0 -621 -20 -641 -11 -11 -24 -20 -30 -20 -5 0 -27 -7
-48 -16 l-38 -17 28 -28 c15 -15 28 -36 28 -47 0 -28 -35 -69 -65 -76 -25 -6
-26 -10 -23 -63 l3 -57 110 -24 110 -25 110 18 c61 9 136 21 168 27 l57 10 0
53 c0 48 -2 53 -26 59 -34 9 -74 50 -74 76 0 12 13 34 29 50 l28 29 -51 21
c-94 38 -86 -23 -86 689 l0 629 28 6 c15 3 83 13 152 22 69 10 126 18 127 19
1 0 5 1773 9 3938 l6 3938 -158 -2 -159 -1 -2 549 c-2 301 -3 633 -3 736 l0
188 -67 -3 c-38 -1 -85 -4 -105 -6z m277 -5398 c5 -2344 4 -3779 -2 -3785 -10
-10 -405 -70 -413 -62 -2 2 -4 833 -3 1846 0 1013 1 2725 2 3804 l1 1962 88 4
c48 1 139 4 203 5 l116 2 8 -3776z"/>
</g>
</svg>
