<?xml version="1.0" standalone="no"?>
<!DOCTYPE svg PUBLIC "-//W3C//DTD SVG 20010904//EN"
 "http://www.w3.org/TR/2001/REC-SVG-20010904/DTD/svg10.dtd">
<svg version="1.0" xmlns="http://www.w3.org/2000/svg"
 width="3542.000000pt" height="3750.000000pt" viewBox="0 0 3542.000000 3750.000000"
 preserveAspectRatio="xMidYMid meet">

<g transform="translate(0.000000,3750.000000) scale(0.100000,-0.100000)"
fill="#3a4548" stroke="none">
<path d="M8820 17835 l0 -725 -57 -1 c-32 -1 -71 -3 -88 -4 -16 -2 -60 -3 -97
-4 l-68 -1 0 -1047 c0 -577 3 -2333 7 -3904 l6 -2857 45 -6 c38 -5 96 0 220
20 l32 5 0 -608 c0 -334 -4 -613 -8 -620 -4 -7 -34 -24 -66 -38 l-58 -26 26
-20 c34 -27 35 -71 1 -104 -13 -14 -34 -25 -45 -25 -19 0 -21 -5 -18 -57 l3
-57 80 -18 c131 -30 162 -31 290 -9 195 35 175 25 175 86 0 48 -2 53 -25 59
-64 16 -84 78 -39 123 14 14 24 26 22 28 -2 1 -25 10 -52 20 -26 10 -54 25
-62 32 -12 12 -14 118 -14 638 l0 623 21 5 c12 3 79 14 150 23 l129 18 0 1900
c1 3908 0 5830 -4 5834 -2 2 -70 3 -150 3 l-146 -1 0 720 0 720 -105 0 -105 0
0 -725z m305 -4580 c4 -2044 5 -3719 1 -3722 -5 -5 -359 -62 -394 -63 -11 0
-12 678 -10 3738 2 2165 7 3740 12 3743 5 4 65 8 135 8 69 1 126 3 127 4 2 1
29 4 62 5 l59 3 8 -3716z"/>
</g>
</svg>
