<?xml version="1.0" standalone="no"?>
<!DOCTYPE svg PUBLIC "-//W3C//DTD SVG 20010904//EN"
 "http://www.w3.org/TR/2001/REC-SVG-20010904/DTD/svg10.dtd">
<svg version="1.0" xmlns="http://www.w3.org/2000/svg"
 width="2550.000000pt" height="2700.000000pt" viewBox="0 0 2550.000000 2700.000000"
 preserveAspectRatio="xMidYMid meet">

<g transform="translate(0.000000,2700.000000) scale(0.100000,-0.100000)"
fill="#65340A" stroke="none">
<path d="M20720 25157 l-41 -53 1 -596 c1 -564 0 -597 -17 -602 -18 -5 -141
-26 -155 -26 -5 0 -8 -585 -8 -1300 0 -715 3 -1300 8 -1300 4 0 40 7 80 15 40
9 77 13 83 10 7 -5 14 -193 7 -196 -2 0 -41 -6 -88 -12 l-85 -12 -3 -1174 c-1
-646 1 -1178 5 -1182 5 -3 45 -4 91 0 l82 6 -2 -330 -3 -330 -41 -21 -40 -20
19 -26 c19 -25 19 -28 4 -52 -9 -13 -26 -27 -37 -31 -13 -4 -20 -15 -20 -32 0
-24 2 -25 43 -19 23 3 106 8 185 12 78 4 145 10 147 15 3 4 -8 16 -25 25 -38
23 -46 48 -26 79 9 13 16 26 16 29 0 6 -61 20 -85 18 -12 0 -14 1 -5 4 13 4
15 50 12 349 l-3 345 38 0 c21 0 62 3 91 6 l52 7 0 1198 0 1199 -27 0 c-16 -1
-56 -7 -90 -14 l-63 -14 -2 27 c-1 14 -2 58 -2 98 l-1 72 35 6 c19 3 61 13 93
22 l57 16 0 1287 0 1288 -21 5 c-19 5 -105 -6 -151 -19 -15 -4 -16 41 -13 623
2 428 0 632 -7 640 -20 25 -47 13 -88 -40z m165 -2517 l0 -1184 -85 -18 c-47
-9 -109 -20 -137 -24 l-53 -6 0 1180 c0 934 3 1182 13 1189 15 9 226 52 247
49 13 -1 15 -140 15 -1186z m0 -2700 l0 -1085 -130 -11 c-71 -6 -133 -9 -137
-7 -5 2 -8 485 -8 1073 l0 1069 53 10 c142 30 193 39 207 37 13 -1 15 -129 15
-1086z"/>
</g>
</svg>
