<?xml version="1.0" standalone="no"?>
<!DOCTYPE svg PUBLIC "-//W3C//DTD SVG 20010904//EN"
 "http://www.w3.org/TR/2001/REC-SVG-20010904/DTD/svg10.dtd">
<svg version="1.0" xmlns="http://www.w3.org/2000/svg"
 width="2550.000000pt" height="2700.000000pt" viewBox="0 0 2550.000000 2700.000000"
 preserveAspectRatio="xMidYMid meet">

<g transform="translate(0.000000,2700.000000) scale(0.100000,-0.100000)"
fill="#65340A" stroke="none">
<path d="M21576 26217 l-45 -53 5 -625 c4 -502 2 -628 -8 -636 -11 -8 -137
-35 -173 -37 -7 -1 -11 -453 -13 -1331 l-2 -1331 74 7 c41 4 84 10 95 14 26 8
31 -13 28 -119 -2 -91 0 -89 -106 -105 -40 -6 -77 -14 -82 -17 -5 -3 -9 -517
-9 -1175 l0 -1169 58 1 c97 1 137 11 137 36 0 12 4 25 8 30 5 4 79 17 165 28
l157 20 3 1163 2 1163 -47 -6 c-27 -4 -64 -11 -83 -16 -71 -18 -70 -20 -70 89
l0 99 53 12 c28 7 72 15 97 19 l45 8 0 1323 c0 1256 -1 1324 -18 1336 -12 8
-30 10 -60 4 -23 -5 -59 -11 -79 -15 l-38 -7 0 658 c0 615 -1 659 -17 671 -10
7 -21 14 -25 14 -3 0 -27 -24 -52 -53z m172 -2620 l2 -1215 -67 -15 c-90 -21
-182 -37 -205 -37 -17 0 -18 46 -16 1217 l3 1217 130 27 c72 15 135 26 140 25
7 -2 11 -418 13 -1219z m0 -2740 l2 -1076 -42 -5 c-43 -6 -232 -26 -243 -26
-3 0 -4 480 -3 1067 l3 1067 130 27 c72 15 135 26 140 25 7 -2 11 -372 13
-1079z"/>
<path d="M21534 18730 c1 -286 -1 -541 -3 -566 -3 -42 -6 -47 -40 -61 -47 -20
-45 -17 -25 -48 14 -22 15 -30 4 -49 -7 -13 -23 -29 -36 -35 -15 -6 -24 -19
-24 -32 0 -21 3 -22 73 -16 39 4 125 10 190 13 113 7 149 17 110 31 -50 18
-67 60 -37 94 14 16 13 18 -19 30 -20 7 -40 23 -46 36 -8 16 -11 199 -11 567
l0 543 -46 7 c-26 3 -57 6 -69 6 l-21 0 0 -520z m146 -626 c0 -2 -7 -4 -15 -4
-8 0 -15 4 -15 10 0 5 7 7 15 4 8 -4 15 -8 15 -10z"/>
</g>
</svg>
