<?xml version="1.0" standalone="no"?>
<!DOCTYPE svg PUBLIC "-//W3C//DTD SVG 20010904//EN"
 "http://www.w3.org/TR/2001/REC-SVG-20010904/DTD/svg10.dtd">
<svg version="1.0" xmlns="http://www.w3.org/2000/svg"
 width="2550.000000pt" height="2700.000000pt" viewBox="0 0 2550.000000 2700.000000"
 preserveAspectRatio="xMidYMid meet">

<g transform="translate(0.000000,2700.000000) scale(0.100000,-0.100000)"
fill="#65340A" stroke="none">
<path d="M24649 26998 c-1 -5 -1 -572 0 -583 1 -7 26 -8 74 -4 39 4 84 8 100
8 l27 1 0 -105 c0 -75 -4 -107 -12 -110 -7 -3 -50 -9 -96 -14 -46 -5 -85 -11
-88 -13 -3 -4 -5 -1235 -4 -2294 l0 -152 24 -6 c14 -3 53 1 88 9 35 8 69 15
76 15 9 0 12 -165 12 -792 0 -436 -3 -803 -6 -815 -4 -14 -19 -26 -43 -34 -52
-17 -52 -18 -31 -39 11 -11 20 -26 20 -34 0 -20 -39 -66 -56 -66 -8 0 -14 -7
-14 -16 0 -13 7 -15 38 -11 20 3 96 13 167 22 164 21 159 19 144 46 -9 18 -7
26 10 50 23 31 22 31 -30 48 -24 8 -39 20 -43 34 -3 12 -6 293 -6 625 0 360
-4 610 -9 621 -11 19 -17 478 -7 488 3 3 54 15 113 27 l108 22 3 1168 2 1169
-42 -7 c-24 -3 -71 -9 -105 -12 l-63 -7 0 106 0 105 43 7 c23 3 70 11 105 17
l62 10 0 258 0 257 -65 2 -65 2 0 -209 0 -209 -52 -16 c-46 -13 -145 -27 -228
-31 l-25 -1 -3 231 -2 231 -60 2 c-33 1 -60 0 -61 -1z m431 -1968 l0 -1100
-22 -4 c-13 -3 -54 -11 -93 -19 -157 -34 -177 -37 -186 -32 -4 3 -7 486 -6
1107 l2 1102 34 9 c30 7 203 32 254 36 16 1 17 -58 17 -1099z m-85 -2900 c3
-5 1 -10 -4 -10 -6 0 -11 5 -11 10 0 6 2 10 4 10 3 0 8 -4 11 -10z"/>
</g>
</svg>
