<?xml version="1.0" standalone="no"?>
<!DOCTYPE svg PUBLIC "-//W3C//DTD SVG 20010904//EN"
 "http://www.w3.org/TR/2001/REC-SVG-20010904/DTD/svg10.dtd">
<svg version="1.0" xmlns="http://www.w3.org/2000/svg"
 width="2550.000000pt" height="2700.000000pt" viewBox="0 0 2550.000000 2700.000000"
 preserveAspectRatio="xMidYMid meet">

<g transform="translate(0.000000,2700.000000) scale(0.100000,-0.100000)"
fill="#65340A" stroke="none">
<path d="M10347 14552 l-67 -68 0 -507 0 -507 -95 0 -95 0 0 -1355 0 -1354 34
-6 c19 -4 49 -6 67 -4 19 1 46 1 62 0 l27 -1 0 -90 0 -90 -95 0 -95 0 0 -1195
c0 -1100 1 -1196 16 -1202 9 -3 52 -2 95 3 l79 9 0 -333 0 -333 -46 -20 c-38
-17 -43 -23 -30 -32 31 -24 24 -71 -14 -94 -26 -15 -30 -23 -28 -53 3 -34 4
-35 73 -51 62 -14 84 -15 182 -3 62 7 117 15 123 19 23 14 10 60 -25 88 -37
30 -44 57 -20 77 22 19 18 28 -17 43 -60 25 -59 15 -56 378 l3 333 88 12 c48
7 90 14 92 16 3 3 7 1981 5 2336 0 9 -26 12 -95 12 l-96 0 3 88 3 87 90 0 90
0 3 1363 2 1362 -95 0 -95 0 0 566 c1 311 0 568 -2 570 -2 2 -34 -27 -71 -64z
m143 -2431 l0 -1258 -61 -7 c-34 -3 -97 -6 -140 -6 l-79 0 0 1259 0 1260 38 4
c20 2 83 4 140 5 l102 2 0 -1259z m0 -2720 l0 -1080 -42 -6 c-24 -3 -83 -12
-133 -19 -65 -9 -92 -10 -97 -2 -4 6 -7 497 -5 1091 l2 1080 35 6 c19 4 81 7
138 8 l102 1 0 -1079z"/>
</g>
</svg>
