<?xml version="1.0" standalone="no"?>
<!DOCTYPE svg PUBLIC "-//W3C//DTD SVG 20010904//EN"
 "http://www.w3.org/TR/2001/REC-SVG-20010904/DTD/svg10.dtd">
<svg version="1.0" xmlns="http://www.w3.org/2000/svg"
 width="2550.000000pt" height="2700.000000pt" viewBox="0 0 2550.000000 2700.000000"
 preserveAspectRatio="xMidYMid meet">

<g transform="translate(0.000000,2700.000000) scale(0.100000,-0.100000)"
fill="#65340A" stroke="none">
<path d="M11977 16321 l-59 -66 1 -512 2 -513 -106 0 -105 0 0 -1324 0 -1323
68 -6 c37 -4 84 -7 105 -7 l37 0 0 -85 0 -85 -105 0 -105 0 2 -1162 3 -1163
102 3 102 4 0 -312 c1 -194 -3 -319 -9 -331 -6 -10 -27 -26 -46 -34 -33 -13
-34 -16 -20 -31 9 -8 16 -26 16 -38 0 -24 -28 -56 -48 -56 -7 0 -12 -15 -12
-36 0 -31 4 -37 38 -51 43 -18 88 -20 225 -9 l97 8 0 30 c0 21 -10 39 -35 62
-37 35 -39 58 -8 83 13 10 8 15 -25 32 -22 11 -42 27 -46 36 -3 9 -6 160 -6
335 l0 318 31 6 c17 3 62 6 100 6 l69 0 1 318 c1 174 2 691 3 1147 l1 830
-102 3 -103 3 0 83 0 84 33 5 c17 3 61 6 97 7 35 1 67 3 69 6 3 2 4 597 3
1322 l-3 1317 -99 3 -100 3 -2 578 -3 579 -58 -67z m163 -2424 l0 -1232 -160
3 -160 3 0 1228 c0 675 2 1230 4 1232 2 2 74 3 160 1 l156 -3 0 -1232z m0
-2647 l0 -1049 -32 -5 c-18 -3 -90 -8 -160 -11 l-128 -7 0 1060 c0 582 2 1061
4 1063 2 2 74 3 160 1 l156 -3 0 -1049z"/>
</g>
</svg>
