<?xml version="1.0" standalone="no"?>
<!DOCTYPE svg PUBLIC "-//W3C//DTD SVG 20010904//EN"
 "http://www.w3.org/TR/2001/REC-SVG-20010904/DTD/svg10.dtd">
<svg version="1.0" xmlns="http://www.w3.org/2000/svg"
 width="2550.000000pt" height="2700.000000pt" viewBox="0 0 2550.000000 2700.000000"
 preserveAspectRatio="xMidYMid meet">

<g transform="translate(0.000000,2700.000000) scale(0.100000,-0.100000)"
fill="#65340A" stroke="none">
<path d="M14633 18948 l-53 -54 0 -581 0 -582 -102 -3 -103 -3 -3 -1282 -3
-1283 106 0 105 0 0 -85 0 -85 -105 0 -105 0 0 -1145 0 -1145 105 0 105 0 0
-729 c0 -786 2 -749 -50 -766 -24 -8 -25 -18 -5 -35 22 -19 18 -38 -15 -72
-19 -19 -30 -40 -30 -58 0 -43 37 -51 191 -43 l129 6 0 29 c0 20 -9 37 -30 55
-33 27 -38 54 -15 73 22 18 19 26 -15 40 -17 7 -35 21 -40 31 -6 11 -10 298
-10 743 l0 726 105 0 105 0 0 1140 0 1139 -102 3 -103 3 -3 88 -3 89 106 -4
105 -3 0 1282 0 1282 -102 3 -103 3 -5 638 -5 638 -52 -53z m175 -2512 l2
-1189 -97 6 c-54 4 -132 7 -173 7 l-75 0 1 1178 c1 647 2 1180 3 1185 0 4 76
6 169 5 l167 -3 3 -1189z m-3 -2591 l0 -1040 -159 -8 c-97 -5 -163 -4 -169 2
-8 8 -17 1902 -9 2034 l4 57 166 -2 167 -3 0 -1040z"/>
</g>
</svg>
