<?xml version="1.0" standalone="no"?>
<!DOCTYPE svg PUBLIC "-//W3C//DTD SVG 20010904//EN"
 "http://www.w3.org/TR/2001/REC-SVG-20010904/DTD/svg10.dtd">
<svg version="1.0" xmlns="http://www.w3.org/2000/svg"
 width="2551.000000pt" height="2701.000000pt" viewBox="0 0 2551.000000 2701.000000"
 preserveAspectRatio="xMidYMid meet">

<g transform="translate(0.000000,2701.000000) scale(0.100000,-0.100000)"
fill="#65340A" stroke="none">
<path d="M4728 12562 l-57 -47 0 -1017 -1 -1017 -30 -16 c-33 -17 -38 -36 -15
-55 25 -20 19 -65 -12 -85 -34 -23 -72 -66 -73 -84 0 -17 46 -61 64 -61 35 0
48 -60 21 -96 -22 -29 -18 -42 15 -49 l30 -7 0 -309 c0 -170 0 -487 0 -704 0
-217 0 -610 0 -873 l0 -478 -30 -17 c-33 -20 -38 -38 -15 -57 29 -24 17 -60
-35 -112 -53 -52 -64 -86 -30 -95 11 -3 20 -9 20 -14 0 -5 6 -9 13 -9 20 0 47
-33 47 -59 0 -12 -7 -33 -16 -46 -19 -29 -11 -45 22 -45 13 0 24 -6 24 -12 1
-7 2 -712 4 -1565 3 -1642 4 -1593 -39 -1593 -8 0 -21 -12 -29 -28 -13 -24
-12 -30 5 -51 19 -23 19 -23 -11 -59 -24 -29 -30 -46 -30 -84 l0 -48 150 0
149 0 17 32 c20 39 24 118 6 118 -7 0 -15 -7 -18 -15 -4 -8 -11 -15 -16 -15
-6 0 -6 6 1 14 9 11 10 20 1 36 -6 12 -9 26 -7 33 3 7 -6 24 -20 38 l-24 26
28 -4 28 -4 -27 16 c-15 8 -31 28 -35 43 -5 15 -8 718 -8 1563 l0 1536 39 36
38 36 -26 31 c-21 25 -24 35 -16 51 6 10 16 19 23 19 7 0 27 21 45 48 32 47
41 82 22 82 -20 0 -88 51 -93 70 -2 10 4 31 14 47 25 38 24 53 -5 53 -14 0
-27 4 -31 10 -4 7 -10 2206 -6 2330 1 17 11 31 31 42 35 20 38 38 10 63 -29
26 -25 39 23 88 23 25 48 52 55 60 15 20 16 47 1 47 -6 0 -22 9 -36 20 -32 25
-50 26 -32 3 13 -16 12 -17 -3 -4 -10 7 -15 17 -13 22 3 4 0 17 -6 28 -10 15
-9 24 5 45 9 15 14 32 10 38 -4 7 -3 8 4 4 7 -4 12 -2 12 4 0 6 -13 13 -29 16
-27 6 -29 10 -33 58 -2 28 -3 507 -3 1063 0 557 -2 1013 -5 1013 -3 -1 -31
-22 -62 -48z"/>
</g>
</svg>
