<?xml version="1.0" standalone="no"?>
<!DOCTYPE svg PUBLIC "-//W3C//DTD SVG 20010904//EN"
 "http://www.w3.org/TR/2001/REC-SVG-20010904/DTD/svg10.dtd">
<svg version="1.0" xmlns="http://www.w3.org/2000/svg"
 width="2551.000000pt" height="2701.000000pt" viewBox="0 0 2551.000000 2701.000000"
 preserveAspectRatio="xMidYMid meet">

<g transform="translate(0.000000,2701.000000) scale(0.100000,-0.100000)"
fill="#65340A" stroke="none">
<path d="M16477 22231 l-58 -48 1 -1014 0 -1014 -31 -18 c-30 -17 -31 -18 -15
-42 27 -41 21 -80 -16 -106 -49 -35 -57 -49 -46 -81 6 -15 14 -25 19 -22 5 3
9 -2 9 -10 0 -9 7 -16 15 -16 36 0 46 -73 15 -113 l-20 -25 35 -16 35 -17 0
-1179 c0 -966 -2 -1180 -13 -1180 -7 0 -22 -6 -32 -14 -17 -12 -17 -14 -2 -37
28 -39 21 -71 -23 -112 -25 -23 -40 -45 -40 -60 0 -15 14 -35 40 -57 43 -36
52 -71 25 -106 -22 -29 -18 -42 15 -49 l30 -7 0 -1570 0 -1571 -35 -32 c-34
-31 -35 -33 -21 -60 21 -41 -1 -90 -35 -80 -13 5 -19 1 -19 -10 0 -9 4 -14 9
-10 11 6 11 -35 0 -50 -17 -23 31 -31 171 -30 l145 0 3 38 c3 31 -1 42 -22 58
-34 27 -41 55 -21 86 15 22 15 27 3 34 -8 5 -25 16 -37 26 l-22 18 -1 1410
c-1 1780 -1 1745 15 1745 7 0 21 6 31 13 17 12 17 15 -4 50 -21 36 -21 38 -5
63 9 15 26 29 36 31 10 3 19 12 19 19 0 8 6 14 14 14 11 0 26 20 26 34 0 8
-50 56 -58 56 -17 0 -42 37 -42 61 0 14 7 35 17 48 15 23 15 25 -2 37 -10 8
-25 14 -32 14 -16 0 -14 -143 -16 1218 l-2 1143 33 19 c37 22 38 27 13 59 -23
30 -16 67 18 89 32 21 71 62 71 75 0 11 -47 57 -59 57 -16 0 -41 37 -41 61 0
14 7 34 15 45 21 27 19 32 -17 47 l-32 13 1 1062 c0 584 0 1062 -1 1062 0 0
-27 -22 -59 -49z"/>
</g>
</svg>
