<?xml version="1.0" standalone="no"?>
<!DOCTYPE svg PUBLIC "-//W3C//DTD SVG 20010904//EN"
 "http://www.w3.org/TR/2001/REC-SVG-20010904/DTD/svg10.dtd">
<svg version="1.0" xmlns="http://www.w3.org/2000/svg"
 width="2551.000000pt" height="2701.000000pt" viewBox="0 0 2551.000000 2701.000000"
 preserveAspectRatio="xMidYMid meet">

<g transform="translate(0.000000,2701.000000) scale(0.100000,-0.100000)"
fill="#65340A" stroke="none">
<path d="M18816 24159 l-59 -50 2 -1014 c2 -676 -1 -1015 -8 -1015 -5 0 -22
-11 -37 -25 l-26 -24 21 -27 c29 -37 26 -58 -13 -87 -18 -14 -39 -39 -46 -56
-7 -17 -16 -28 -21 -25 -5 3 -9 2 -9 -2 0 -10 43 -47 73 -63 38 -20 44 -53 18
-96 l-20 -35 32 -8 32 -8 3 -1176 2 -1175 -34 -24 c-23 -16 -31 -26 -23 -31 7
-4 12 -11 13 -15 0 -4 4 -16 8 -26 13 -29 -2 -64 -34 -78 -20 -9 -32 -23 -36
-44 -4 -16 -9 -24 -11 -17 -7 20 -23 14 -23 -9 0 -12 8 -23 20 -26 11 -3 20
-12 20 -19 0 -8 5 -14 11 -14 5 0 7 6 4 13 -4 6 7 -3 24 -21 36 -38 39 -69 10
-100 l-20 -23 35 -14 35 -15 -2 -1572 -2 -1573 -38 -24 c-33 -22 -36 -26 -22
-41 8 -9 15 -30 15 -47 0 -25 -6 -34 -30 -45 -27 -11 -30 -18 -30 -55 l0 -43
165 0 165 0 0 39 c0 30 -7 46 -30 69 -31 31 -32 50 -4 82 11 14 8 19 -22 35
-19 10 -40 27 -45 37 -6 11 -7 588 -3 1582 l7 1565 21 5 c46 12 50 21 25 55
-19 25 -21 36 -13 58 5 15 18 32 29 38 26 13 75 56 75 66 0 9 -50 58 -84 82
-31 22 -32 41 -6 84 19 32 19 33 0 43 -10 5 -26 10 -34 10 -14 0 -16 116 -16
1179 l0 1179 35 22 35 22 -20 28 c-11 15 -20 36 -20 46 0 9 25 41 55 69 30 29
55 57 55 63 0 6 -23 25 -50 43 -61 40 -72 68 -40 111 24 33 20 42 -27 54 l-23
6 -2 1063 -3 1063 -59 -49z"/>
</g>
</svg>
