<?xml version="1.0" standalone="no"?>
<!DOCTYPE svg PUBLIC "-//W3C//DTD SVG 20010904//EN"
 "http://www.w3.org/TR/2001/REC-SVG-20010904/DTD/svg10.dtd">
<svg version="1.0" xmlns="http://www.w3.org/2000/svg"
 width="2551.000000pt" height="2701.000000pt" viewBox="0 0 2551.000000 2701.000000"
 preserveAspectRatio="xMidYMid meet">

<g transform="translate(0.000000,2701.000000) scale(0.100000,-0.100000)"
fill="#65340A" stroke="none">
<path d="M21147 26075 c-37 -31 -65 -60 -62 -65 3 -4 5 -455 5 -1002 l1 -993
-34 -30 -34 -31 23 -29 c32 -40 30 -48 -11 -79 -19 -15 -35 -32 -35 -38 0 -5
-11 -19 -25 -30 -29 -23 -32 -36 -7 -45 33 -13 102 -76 102 -93 0 -7 -11 -28
-25 -46 l-25 -33 34 -7 35 -6 3 -182 c2 -99 2 -629 0 -1176 l-2 -995 -35 -23
-34 -24 19 -26 c34 -49 34 -68 0 -88 -16 -10 -33 -26 -36 -36 -3 -10 -11 -18
-18 -18 -8 0 -19 -7 -26 -15 -10 -12 -10 -18 0 -30 7 -8 16 -12 21 -9 5 3 9
-2 9 -10 0 -9 6 -16 13 -16 17 0 53 -39 61 -67 5 -15 0 -28 -18 -46 -27 -27
-25 -37 10 -37 13 0 25 -4 29 -9 3 -5 5 -715 5 -1578 l0 -1568 -24 -21 c-14
-12 -31 -24 -38 -27 -10 -4 -11 -7 0 -18 6 -7 12 -28 12 -46 0 -25 -7 -37 -27
-51 -23 -14 -27 -23 -25 -49 l3 -31 170 -2 169 -1 0 39 c0 32 -5 41 -25 50
-33 15 -42 55 -20 89 10 15 14 28 9 30 -5 2 -24 12 -41 23 l-33 20 0 1570 0
1570 35 14 c19 8 35 18 35 21 0 3 -10 19 -21 35 -26 34 -20 74 14 91 65 35 98
95 58 106 -11 3 -22 11 -25 19 -3 8 -12 14 -20 14 -22 0 -48 43 -40 66 4 10
14 27 23 37 14 17 14 20 -4 33 -10 8 -27 14 -37 14 -17 0 -18 48 -18 1180 l0
1179 29 16 c42 21 45 31 20 64 -25 35 -19 64 19 89 64 41 90 95 52 107 -11 3
-20 10 -20 15 0 4 -11 11 -25 14 -44 11 -56 76 -19 107 22 18 17 27 -21 40
l-35 13 -2 1058 -3 1059 -68 -56z"/>
</g>
</svg>
