<?xml version="1.0" standalone="no"?>
<!DOCTYPE svg PUBLIC "-//W3C//DTD SVG 20010904//EN"
 "http://www.w3.org/TR/2001/REC-SVG-20010904/DTD/svg10.dtd">
<svg version="1.0" xmlns="http://www.w3.org/2000/svg"
 width="2551.000000pt" height="2701.000000pt" viewBox="0 0 2551.000000 2701.000000"
 preserveAspectRatio="xMidYMid meet">

<g transform="translate(0.000000,2701.000000) scale(0.100000,-0.100000)"
fill="#65340A" stroke="none">
<path d="M5908 13533 l-58 -46 0 -993 0 -992 -36 -21 -35 -21 20 -26 c33 -42
27 -66 -29 -113 -27 -23 -50 -49 -50 -58 0 -16 44 -63 59 -63 15 0 41 -36 41
-57 0 -11 -9 -32 -20 -46 -20 -26 -20 -26 -1 -36 11 -6 27 -11 35 -11 14 0 16
-116 16 -1182 l0 -1183 -36 -23 -35 -23 21 -26 c30 -39 25 -60 -30 -113 -52
-50 -64 -86 -32 -97 9 -4 19 -9 22 -13 3 -3 17 -13 33 -23 33 -21 34 -48 6
-93 l-21 -34 27 -10 c14 -5 31 -10 36 -10 5 0 9 -428 9 -1109 l0 -1109 -42
-36 c-39 -34 -40 -37 -25 -54 24 -26 21 -55 -8 -82 -20 -19 -25 -33 -25 -72
l0 -48 150 0 c136 0 150 2 159 19 6 10 8 28 6 40 -2 11 0 21 5 21 5 0 8 13 8
30 -1 34 -27 49 -44 25 -10 -13 -12 -13 -17 -1 -7 19 2 54 25 91 l18 30 -43
20 -42 20 -2 1105 -3 1105 30 17 c34 19 41 57 15 78 -21 17 -15 50 10 64 23
13 54 47 55 60 0 5 8 18 17 29 17 18 17 20 -12 43 -16 13 -31 21 -34 19 -5 -6
-51 47 -51 60 0 6 9 24 20 40 25 38 25 49 0 42 -11 -3 -18 -2 -15 3 3 4 -4 10
-15 13 -20 5 -20 16 -20 1181 l0 1175 23 12 c39 21 48 42 26 62 -30 28 -24 61
16 92 21 16 38 39 42 56 3 16 9 29 14 29 5 0 9 5 9 10 0 6 -7 10 -15 10 -8 0
-15 5 -15 10 0 6 -7 10 -16 10 -41 0 -67 73 -40 111 22 31 21 35 -14 49 l-30
12 -2 1039 -3 1039 -57 -47z"/>
</g>
</svg>
