<?xml version="1.0" standalone="no"?>
<!DOCTYPE svg PUBLIC "-//W3C//DTD SVG 20010904//EN"
 "http://www.w3.org/TR/2001/REC-SVG-20010904/DTD/svg10.dtd">
<svg version="1.0" xmlns="http://www.w3.org/2000/svg"
 width="2551.000000pt" height="2701.000000pt" viewBox="0 0 2551.000000 2701.000000"
 preserveAspectRatio="xMidYMid meet">

<g transform="translate(0.000000,2701.000000) scale(0.100000,-0.100000)"
fill="#65340A" stroke="none">
<path d="M11783 18368 l-53 -41 0 -1023 c0 -837 -2 -1024 -13 -1024 -7 0 -21
-6 -31 -13 -17 -12 -17 -14 0 -44 21 -36 12 -78 -21 -97 -27 -16 -54 -48 -55
-67 0 -8 20 -32 45 -53 50 -43 57 -74 28 -115 -15 -23 -15 -25 2 -37 10 -8 25
-14 32 -14 11 0 13 -215 13 -1186 l0 -1185 -30 -10 c-35 -13 -36 -17 -13 -56
19 -34 12 -81 -15 -90 -24 -8 -61 -54 -62 -75 0 -18 33 -58 48 -58 17 0 42
-37 42 -62 0 -14 -7 -31 -15 -38 -24 -20 -18 -41 15 -53 l30 -11 0 -1568 0
-1568 -21 -18 c-12 -9 -27 -22 -34 -29 -7 -7 -15 -9 -19 -6 -3 4 -6 -1 -6 -9
0 -9 7 -18 15 -22 24 -9 18 -60 -10 -86 -19 -18 -25 -34 -25 -67 l0 -43 155 0
155 0 0 55 c0 43 -3 53 -14 49 -30 -12 -48 63 -21 86 13 11 10 18 -25 50 l-40
37 0 1571 c0 1276 3 1572 13 1572 7 0 22 6 32 14 19 14 19 14 0 49 -16 30 -17
40 -7 62 7 14 20 29 29 32 29 11 61 52 56 72 -2 10 -24 35 -49 56 -50 43 -52
56 -24 103 l20 33 -35 15 -35 14 0 1185 c0 970 2 1185 13 1185 7 0 21 6 31 13
17 12 17 15 0 50 -14 30 -15 41 -6 62 7 14 19 28 29 32 21 8 48 35 56 55 6 18
-26 58 -61 77 -33 17 -38 55 -13 96 l21 36 -26 9 c-14 6 -29 10 -35 10 -5 0
-10 416 -11 1065 l-3 1064 -52 -41z"/>
</g>
</svg>
