<?xml version="1.0" standalone="no"?>
<!DOCTYPE svg PUBLIC "-//W3C//DTD SVG 20010904//EN"
 "http://www.w3.org/TR/2001/REC-SVG-20010904/DTD/svg10.dtd">
<svg version="1.0" xmlns="http://www.w3.org/2000/svg"
 width="2551.000000pt" height="2701.000000pt" viewBox="0 0 2551.000000 2701.000000"
 preserveAspectRatio="xMidYMid meet">

<g transform="translate(0.000000,2701.000000) scale(0.100000,-0.100000)"
fill="#65340A" stroke="none">
<path d="M12958 19336 l-58 -47 0 -992 0 -992 -30 -17 -29 -17 21 -39 c21 -38
21 -40 5 -66 -10 -14 -24 -26 -32 -26 -8 0 -15 -6 -15 -13 0 -7 -9 -18 -20
-25 -30 -18 -25 -31 31 -84 54 -50 56 -63 22 -116 -14 -22 -13 -24 16 -35 l31
-11 0 -1188 c0 -972 -2 -1188 -13 -1188 -7 0 -22 -6 -32 -14 -18 -13 -18 -16
-4 -33 36 -41 31 -64 -21 -114 -28 -26 -50 -55 -50 -63 0 -8 20 -32 45 -53 50
-41 58 -74 29 -119 -16 -24 -16 -25 15 -37 l31 -11 0 -1113 c0 -1077 -1 -1114
-19 -1132 -10 -10 -26 -23 -35 -28 -16 -9 -16 -11 -1 -39 13 -23 15 -35 6 -56
-6 -16 -17 -28 -26 -28 -11 0 -15 -12 -15 -52 l0 -53 151 2 c83 1 153 4 156 6
2 3 1 26 -2 51 -5 32 -13 47 -26 51 -30 10 -35 52 -9 80 l22 23 -41 26 -41 26
0 1119 0 1119 30 7 c17 4 30 8 30 11 0 2 -9 20 -19 39 -25 47 -18 69 35 107
28 20 44 39 44 52 0 22 -30 55 -67 75 -28 14 -31 65 -7 99 15 22 15 24 -2 37
-11 8 -25 15 -31 15 -10 0 -13 244 -13 1188 l0 1188 31 11 c31 12 31 13 15 37
-29 45 -21 78 29 119 25 21 45 45 45 54 0 16 -44 63 -60 63 -13 0 -30 35 -30
62 0 13 7 34 16 46 15 22 15 24 -2 37 -11 8 -25 15 -31 15 -10 0 -13 219 -15
1041 l-3 1042 -57 -47z"/>
</g>
</svg>
