<?xml version="1.0" standalone="no"?>
<!DOCTYPE svg PUBLIC "-//W3C//DTD SVG 20010904//EN"
 "http://www.w3.org/TR/2001/REC-SVG-20010904/DTD/svg10.dtd">
<svg version="1.0" xmlns="http://www.w3.org/2000/svg"
 width="2551.000000pt" height="2701.000000pt" viewBox="0 0 2551.000000 2701.000000"
 preserveAspectRatio="xMidYMid meet">

<g transform="translate(0.000000,2701.000000) scale(0.100000,-0.100000)"
fill="#65340A" stroke="none">
<path d="M14125 20298 l-50 -42 2 -1018 2 -1018 -36 -15 c-33 -14 -35 -17 -21
-33 9 -9 19 -27 22 -38 7 -23 -11 -74 -27 -74 -18 0 -57 -45 -57 -67 0 -14 15
-34 40 -54 49 -40 58 -68 33 -109 -18 -31 -18 -32 2 -45 11 -8 25 -19 32 -24
9 -8 11 -293 11 -1181 l-1 -1171 -29 -15 c-33 -17 -34 -22 -11 -62 14 -25 15
-34 5 -56 -6 -15 -20 -30 -29 -33 -26 -10 -52 -45 -53 -68 0 -12 17 -34 39
-53 49 -40 57 -62 37 -101 -22 -41 -20 -48 11 -58 l28 -10 -3 -1574 -3 -1574
-24 -21 c-13 -12 -30 -24 -37 -26 -10 -4 -8 -10 6 -26 16 -18 17 -28 9 -54 -6
-22 -15 -33 -26 -32 -14 2 -17 -8 -17 -52 l0 -54 90 -1 c241 -2 220 -6 220 42
0 32 -6 46 -25 61 -29 23 -33 63 -9 89 15 16 14 19 -15 33 -17 9 -35 25 -41
35 -7 13 -10 531 -10 1585 l0 1566 36 15 36 15 -21 26 c-38 48 -28 75 48 133
36 27 39 46 11 63 -11 7 -20 18 -20 25 0 7 -6 13 -13 13 -19 0 -47 33 -47 54
0 10 8 31 17 47 16 28 16 29 -2 44 -11 8 -26 15 -32 15 -10 0 -13 244 -13
1185 0 941 3 1185 13 1185 6 0 21 7 32 15 18 15 18 16 2 44 -27 45 -21 65 33
111 28 24 50 48 50 55 0 7 -22 31 -50 55 -53 45 -61 71 -35 106 22 29 18 41
-15 53 l-30 10 0 1060 c0 584 -3 1061 -7 1061 -5 0 -30 -19 -58 -42z"/>
</g>
</svg>
