<?xml version="1.0" standalone="no"?>
<!DOCTYPE svg PUBLIC "-//W3C//DTD SVG 20010904//EN"
 "http://www.w3.org/TR/2001/REC-SVG-20010904/DTD/svg10.dtd">
<svg version="1.0" xmlns="http://www.w3.org/2000/svg"
 width="2644.000000pt" height="2800.000000pt" viewBox="0 0 2644.000000 2800.000000"
 preserveAspectRatio="xMidYMid meet">

<g transform="translate(0.000000,2800.000000) scale(0.100000,-0.100000)"
fill="#C5C3C1" stroke="none">
<path d="M8400 16044 c0 -1291 -3 -1446 -36 -1728 -19 -158 -15 -213 16 -238
32 -26 23 -60 -17 -70 -18 -5 -33 -11 -33 -14 0 -3 9 -18 21 -33 25 -34 15
-63 -28 -79 -35 -12 -75 -50 -68 -62 3 -6 26 -22 51 -36 61 -36 72 -58 45 -95
-12 -15 -21 -30 -21 -33 0 -3 16 -8 35 -12 44 -8 46 -33 9 -77 -26 -30 -26
-35 -20 -117 3 -47 13 -143 23 -215 14 -115 17 -300 20 -1592 l4 -1463 -33
-20 c-18 -11 -37 -21 -42 -23 -6 -2 -2 -14 6 -26 19 -27 7 -67 -24 -76 -13 -5
-18 -16 -18 -41 0 -34 6 -38 48 -37 6 1 12 -3 12 -8 0 -5 45 -9 100 -9 60 0
100 4 100 10 0 6 10 10 23 10 51 0 67 11 67 45 0 24 -5 34 -20 38 -25 6 -37
54 -20 81 7 11 9 21 4 23 -5 2 -24 12 -41 23 l-33 20 0 1315 c0 1340 4 1512
40 1833 20 174 16 222 -21 245 -30 19 -23 45 16 61 38 16 43 27 20 46 -31 26
-18 58 40 95 30 19 55 39 55 44 0 11 -53 51 -67 51 -17 0 -43 36 -43 57 0 11
7 26 15 33 23 19 18 28 -20 44 -40 17 -44 37 -15 64 37 34 40 70 19 249 -33
295 -36 434 -38 1727 -1 699 -3 1272 -5 1274 -3 2 -32 6 -65 9 l-61 6 0 -1299z"/>
</g>
</svg>
