<?xml version="1.0" standalone="no"?>
<!DOCTYPE svg PUBLIC "-//W3C//DTD SVG 20010904//EN"
 "http://www.w3.org/TR/2001/REC-SVG-20010904/DTD/svg10.dtd">
<svg version="1.0" xmlns="http://www.w3.org/2000/svg"
 width="2644.000000pt" height="2800.000000pt" viewBox="0 0 2644.000000 2800.000000"
 preserveAspectRatio="xMidYMid meet">

<g transform="translate(0.000000,2800.000000) scale(0.100000,-0.100000)"
fill="#C5C3C1" stroke="none">
<path d="M3004 14025 c-2 -5 -5 -752 -7 -1660 -3 -1775 -2 -1730 -56 -2118
-21 -149 -16 -185 29 -219 43 -32 40 -63 -7 -79 -55 -17 -56 -18 -28 -51 14
-16 25 -36 25 -44 0 -22 -46 -64 -70 -64 -11 0 -20 -6 -20 -14 0 -8 -11 -17
-25 -20 -16 -4 -25 -13 -25 -26 0 -13 10 -24 25 -30 14 -5 25 -14 25 -20 0 -5
8 -10 19 -10 26 0 71 -38 71 -59 0 -10 -12 -31 -26 -46 -29 -31 -24 -40 26
-52 49 -13 53 -46 8 -83 -33 -27 -33 -29 -33 -111 0 -46 10 -165 22 -264 40
-318 43 -457 43 -2047 l0 -1537 -27 -20 c-14 -12 -37 -24 -50 -27 -28 -7 -28
-9 -4 -40 25 -32 16 -61 -25 -86 -29 -17 -34 -25 -34 -58 0 -38 0 -38 48 -44
172 -20 202 -19 298 10 l94 27 0 39 c0 28 -5 40 -17 45 -53 18 -69 66 -33 98
20 19 20 19 -27 37 -26 10 -57 15 -68 12 -11 -3 -28 -8 -37 -10 -10 -3 -18 -1
-18 5 0 5 13 12 30 16 l29 6 4 1652 c4 1777 2 1710 57 2084 23 162 17 207 -32
231 -43 20 -38 57 10 72 50 16 61 28 41 43 -50 38 -43 88 17 113 19 8 34 18
34 23 0 5 9 11 20 14 29 8 37 37 14 53 -10 7 -23 17 -29 22 -5 4 -25 14 -43
21 -57 24 -61 59 -14 113 13 16 12 18 -9 27 -13 5 -33 10 -44 12 -34 7 -31 51
4 77 49 36 56 81 32 230 -55 343 -54 306 -58 2105 l-4 1668 -76 -3 c-41 -1
-77 -7 -79 -13z"/>
</g>
</svg>
