<?xml version="1.0" standalone="no"?>
<!DOCTYPE svg PUBLIC "-//W3C//DTD SVG 20010904//EN"
 "http://www.w3.org/TR/2001/REC-SVG-20010904/DTD/svg10.dtd">
<svg version="1.0" xmlns="http://www.w3.org/2000/svg"
 width="2644.000000pt" height="2800.000000pt" viewBox="0 0 2644.000000 2800.000000"
 preserveAspectRatio="xMidYMid meet">

<g transform="translate(0.000000,2800.000000) scale(0.100000,-0.100000)"
fill="#C5C3C1" stroke="none">
<path d="M4498 14596 l-78 -110 0 -1181 c0 -1222 -2 -1284 -44 -1625 -25 -201
-22 -236 19 -268 35 -28 34 -68 -2 -75 -16 -4 -35 -11 -43 -16 -13 -9 -11 -13
8 -31 35 -33 27 -80 -17 -102 -19 -9 -37 -21 -40 -25 -3 -4 -18 -14 -33 -22
-16 -8 -28 -17 -28 -21 0 -4 12 -13 28 -21 15 -8 31 -20 35 -26 4 -7 16 -13
27 -13 48 0 65 -59 29 -104 l-20 -26 26 -10 c14 -5 33 -10 41 -10 25 0 17 -58
-12 -83 -37 -32 -45 -83 -29 -190 51 -341 50 -304 50 -1682 l0 -1290 -47 -25
-48 -26 22 -22 c18 -18 20 -26 12 -49 -5 -15 -22 -34 -37 -41 -22 -11 -27 -20
-27 -51 l0 -39 63 -6 c80 -9 333 -10 347 -1 5 3 10 30 10 60 0 48 -2 53 -25
59 -14 4 -31 18 -37 32 -10 20 -8 29 10 54 l22 29 -40 12 c-22 7 -45 18 -51
25 -7 8 -9 424 -6 1296 3 1362 3 1347 53 1683 15 101 15 113 0 148 -9 22 -25
41 -36 44 -14 4 -20 14 -20 33 0 22 6 29 40 40 22 7 40 15 40 17 0 2 -9 17
-21 32 -29 39 -22 72 20 93 19 9 37 21 40 25 3 4 18 14 34 22 32 17 31 31 -4
49 -94 51 -104 58 -107 81 -2 13 6 36 17 52 12 15 21 31 21 33 0 3 -18 9 -40
12 -36 6 -40 10 -40 35 0 18 7 32 19 39 11 5 27 29 36 53 15 40 15 52 -4 192
-12 83 -26 191 -33 240 -7 62 -13 520 -17 1450 l-6 1360 -77 -109z"/>
</g>
</svg>
