<?xml version="1.0" standalone="no"?>
<!DOCTYPE svg PUBLIC "-//W3C//DTD SVG 20010904//EN"
 "http://www.w3.org/TR/2001/REC-SVG-20010904/DTD/svg10.dtd">
<svg version="1.0" xmlns="http://www.w3.org/2000/svg"
 width="2644.000000pt" height="2800.000000pt" viewBox="0 0 2644.000000 2800.000000"
 preserveAspectRatio="xMidYMid meet">

<g transform="translate(0.000000,2800.000000) scale(0.100000,-0.100000)"
fill="#C5C3C1" stroke="none">
<path d="M25242 27990 l-23 -10 27 -40 c23 -35 25 -44 16 -65 -7 -14 -24 -31
-39 -37 -16 -7 -30 -15 -33 -18 -3 -3 -14 -10 -25 -16 -34 -19 -28 -37 39
-108 69 -73 71 -79 29 -128 -13 -14 -10 -20 26 -49 47 -37 53 -64 17 -73 -37
-9 -84 -62 -92 -103 -5 -25 1 -72 19 -147 44 -185 70 -339 87 -515 6 -64 10
-647 10 -1531 0 -1580 6 -1447 -66 -1470 l-36 -12 21 -22 c25 -27 27 -63 4
-88 -21 -24 -10 -34 22 -20 14 7 45 12 69 12 24 0 77 3 119 6 66 6 77 10 77
25 0 11 9 28 19 38 19 19 19 20 -2 38 -12 11 -35 27 -50 37 l-28 17 4 1457 c3
1308 5 1470 20 1587 22 167 52 334 84 460 20 83 23 106 14 136 -12 39 -80 109
-107 109 -32 0 -9 34 29 43 41 10 47 25 17 52 -29 26 -26 69 6 94 15 12 33 21
40 21 8 0 14 4 14 9 0 5 9 13 20 16 34 11 22 44 -40 108 -33 34 -60 67 -60 73
0 6 10 23 21 38 l21 27 -28 30 c-27 29 -29 29 -133 28 -58 0 -116 -4 -129 -9z"/>
</g>
</svg>
