<?xml version="1.0" standalone="no"?>
<!DOCTYPE svg PUBLIC "-//W3C//DTD SVG 20010904//EN"
 "http://www.w3.org/TR/2001/REC-SVG-20010904/DTD/svg10.dtd">
<svg version="1.0" xmlns="http://www.w3.org/2000/svg"
 width="2644.000000pt" height="2800.000000pt" viewBox="0 0 2644.000000 2800.000000"
 preserveAspectRatio="xMidYMid meet">

<g transform="translate(0.000000,2800.000000) scale(0.100000,-0.100000)"
fill="#C5C3C1" stroke="none">
<path d="M14250 12258 c0 -1669 -3 -1836 -32 -2143 -7 -71 -13 -171 -13 -222
0 -82 2 -94 23 -116 35 -38 27 -78 -18 -90 -50 -12 -55 -21 -26 -50 43 -43 31
-88 -31 -121 -18 -9 -33 -21 -33 -26 0 -6 -6 -10 -13 -10 -8 0 -22 -9 -32 -20
-17 -19 -16 -20 19 -41 20 -11 36 -25 36 -30 0 -5 8 -9 18 -9 24 0 62 -41 62
-67 0 -12 -12 -35 -26 -52 l-26 -31 24 -9 c13 -5 32 -10 43 -12 29 -6 31 -51
4 -89 -31 -42 -35 -116 -15 -307 9 -87 21 -225 26 -308 11 -164 14 -3922 4
-3950 -4 -9 -29 -27 -57 -42 -42 -21 -48 -27 -34 -35 47 -26 40 -86 -13 -113
-27 -14 -30 -21 -30 -60 0 -36 4 -45 18 -46 9 0 77 -6 151 -13 l134 -13 69 30
68 31 0 48 c0 33 -4 48 -13 48 -23 0 -57 40 -57 65 0 14 9 34 21 46 24 24 26
22 -27 37 -30 9 -45 20 -52 40 -13 31 -13 3487 -1 3806 4 104 18 297 30 428
24 257 21 306 -21 328 -22 12 -27 52 -7 68 6 6 25 14 40 17 38 10 43 23 18 49
-30 32 -28 79 5 105 15 12 30 21 35 21 4 0 24 15 44 33 34 32 36 35 20 50 -9
10 -23 17 -31 17 -8 0 -14 4 -14 9 0 5 -17 18 -37 28 -32 15 -38 23 -41 55 -2
27 3 43 18 58 25 25 19 35 -30 47 -45 12 -50 42 -16 91 36 53 40 98 22 277
-36 360 -37 433 -41 2125 -3 932 -5 1716 -5 1743 l0 47 -80 0 -80 0 0 -1722z"/>
</g>
</svg>
