<?xml version="1.0" standalone="no"?>
<!DOCTYPE svg PUBLIC "-//W3C//DTD SVG 20010904//EN"
 "http://www.w3.org/TR/2001/REC-SVG-20010904/DTD/svg10.dtd">
<svg version="1.0" xmlns="http://www.w3.org/2000/svg"
 width="2644.000000pt" height="2800.000000pt" viewBox="0 0 2644.000000 2800.000000"
 preserveAspectRatio="xMidYMid meet">

<g transform="translate(0.000000,2800.000000) scale(0.100000,-0.100000)"
fill="#C5C3C1" stroke="none">
<path d="M15477 15525 l-76 -155 -4 -1373 c-3 -1063 -7 -1398 -17 -1487 -8
-63 -14 -175 -14 -248 -1 -116 1 -135 17 -146 9 -8 17 -26 17 -43 0 -26 -5
-31 -40 -42 -45 -13 -48 -20 -20 -46 43 -39 33 -87 -26 -111 -19 -8 -34 -18
-34 -23 0 -6 -9 -13 -20 -16 -34 -11 -23 -41 27 -74 25 -17 49 -31 53 -31 12
0 31 -51 24 -63 -4 -7 -16 -22 -28 -35 -17 -20 -18 -24 -6 -33 8 -5 27 -12 43
-16 23 -5 27 -11 27 -39 0 -19 -4 -34 -9 -34 -5 0 -14 -14 -21 -31 -14 -32 -9
-183 12 -364 10 -95 24 -3861 13 -3902 -3 -14 -22 -31 -48 -44 -23 -12 -44
-23 -45 -24 -2 -2 6 -13 17 -24 30 -30 26 -56 -14 -88 -30 -24 -35 -34 -35
-70 0 -40 1 -41 38 -47 20 -3 89 -8 153 -12 96 -5 125 -3 172 12 l57 18 0 50
c-1 46 -4 53 -33 71 -39 25 -46 59 -17 89 l21 23 -46 17 c-30 12 -47 25 -50
39 -3 12 -4 873 -2 1912 3 1714 5 1906 21 2060 20 196 18 285 -7 313 -9 10
-17 31 -17 46 0 26 2 28 69 52 11 3 10 9 -7 27 -32 34 -36 68 -12 95 11 12 27
22 35 22 8 0 18 6 22 14 4 7 18 18 31 25 12 6 22 17 22 24 0 15 -57 67 -74 67
-7 0 -23 11 -35 24 -26 28 -22 56 12 93 l20 22 -27 11 c-15 5 -34 10 -42 10
-20 0 -18 59 4 83 25 28 24 145 -8 582 -4 61 -8 753 -9 1539 -1 786 -3 1431
-5 1433 -2 2 -38 -66 -79 -152z"/>
</g>
</svg>
