<?xml version="1.0" standalone="no"?>
<!DOCTYPE svg PUBLIC "-//W3C//DTD SVG 20010904//EN"
 "http://www.w3.org/TR/2001/REC-SVG-20010904/DTD/svg10.dtd">
<svg version="1.0" xmlns="http://www.w3.org/2000/svg"
 width="2644.000000pt" height="2800.000000pt" viewBox="0 0 2644.000000 2800.000000"
 preserveAspectRatio="xMidYMid meet">

<g transform="translate(0.000000,2800.000000) scale(0.100000,-0.100000)"
fill="#C5C3C1" stroke="none">
<path d="M16995 23869 l-44 -41 -4 -1421 c-3 -1570 0 -1470 -69 -1802 -17 -82
-33 -166 -35 -185 -5 -47 25 -95 71 -111 29 -11 36 -18 36 -40 0 -21 -6 -28
-27 -32 -54 -12 -59 -22 -30 -57 15 -17 27 -35 27 -39 0 -13 -41 -61 -51 -61
-18 0 -79 -52 -79 -66 0 -8 11 -20 25 -26 14 -6 25 -15 25 -20 0 -5 11 -13 24
-18 14 -5 32 -20 41 -34 15 -22 15 -27 0 -55 -8 -17 -20 -31 -25 -31 -24 0 -6
-22 30 -36 33 -13 40 -21 40 -43 0 -21 -8 -29 -38 -42 -26 -11 -44 -27 -55
-51 -22 -47 -22 -57 8 -182 30 -126 60 -312 74 -460 7 -73 11 -717 11 -1942 0
-1567 -2 -1835 -14 -1847 -8 -8 -28 -20 -45 -27 -35 -14 -38 -22 -16 -40 30
-25 16 -74 -26 -96 -24 -12 -29 -21 -29 -49 l0 -35 105 -1 c58 0 123 -1 145
-1 22 0 67 1 100 1 l60 1 0 38 c-1 31 -6 40 -33 57 -39 25 -45 57 -17 85 12
12 20 23 18 24 -1 1 -17 8 -35 15 -17 7 -39 21 -48 31 -14 16 -15 181 -12
1886 3 1857 3 1870 25 2020 12 83 37 223 55 311 41 195 38 214 -36 253 -39 21
-47 29 -45 49 2 19 11 27 38 34 19 5 37 10 39 12 2 2 -6 17 -18 33 -12 17 -21
39 -21 49 0 21 39 63 58 63 17 0 62 45 62 63 0 9 -9 19 -20 22 -11 3 -20 13
-20 21 0 8 -6 14 -14 14 -24 0 -66 41 -66 64 0 13 10 35 21 50 12 15 20 28 18
30 -2 1 -21 10 -42 20 -32 15 -38 22 -35 44 2 17 10 28 25 32 32 7 71 46 79
75 8 33 2 80 -30 230 -15 66 -36 188 -48 270 -21 148 -22 174 -25 1582 l-4
1431 -30 11 c-28 10 -34 7 -74 -30z"/>
</g>
</svg>
