<?xml version="1.0" standalone="no"?>
<!DOCTYPE svg PUBLIC "-//W3C//DTD SVG 20010904//EN"
 "http://www.w3.org/TR/2001/REC-SVG-20010904/DTD/svg10.dtd">
<svg version="1.0" xmlns="http://www.w3.org/2000/svg"
 width="2644.000000pt" height="2800.000000pt" viewBox="0 0 2644.000000 2800.000000"
 preserveAspectRatio="xMidYMid meet">

<g transform="translate(0.000000,2800.000000) scale(0.100000,-0.100000)"
fill="#C5C3C1" stroke="none">
<path d="M19277 26049 l-46 -40 -4 -1437 c-4 -1587 0 -1492 -69 -1827 -43
-207 -45 -243 -17 -279 12 -16 37 -35 56 -42 44 -19 47 -58 6 -67 -52 -12 -60
-23 -35 -50 38 -40 24 -95 -28 -112 -11 -3 -20 -10 -20 -15 0 -4 -9 -10 -20
-13 -37 -10 -36 -37 5 -73 21 -18 46 -36 55 -39 39 -12 42 -74 6 -104 -23 -20
-20 -26 24 -47 31 -15 40 -25 40 -44 0 -21 -7 -29 -36 -39 -43 -16 -74 -62
-74 -113 0 -20 11 -83 24 -140 33 -141 53 -267 71 -438 12 -122 15 -440 15
-2002 0 -1837 0 -1858 -20 -1878 -11 -11 -31 -22 -45 -26 -29 -7 -31 -16 -10
-34 32 -27 12 -86 -35 -102 -10 -4 -15 -17 -15 -34 l2 -29 79 1 c342 4 324 3
324 22 0 9 -16 30 -35 45 -40 32 -44 53 -15 90 l20 25 -35 12 c-71 24 -66
-147 -62 1961 3 1892 3 1905 25 2049 12 80 38 223 58 318 35 167 36 175 21
208 -11 23 -32 41 -62 56 -38 19 -45 27 -43 47 2 20 11 27 36 32 45 9 48 14
23 45 -24 30 -27 68 -8 84 6 6 33 24 60 41 50 33 61 63 27 74 -11 3 -20 10
-20 16 0 5 -18 20 -40 34 -31 20 -40 31 -40 54 0 15 9 36 20 46 28 25 26 32
-20 55 -55 28 -54 58 2 85 28 13 48 33 61 58 l20 38 -31 142 c-34 153 -43 201
-69 372 -15 99 -17 258 -20 1570 -3 1358 -4 1461 -20 1473 -26 19 -37 15 -86
-29z"/>
</g>
</svg>
