<?xml version="1.0" standalone="no"?>
<!DOCTYPE svg PUBLIC "-//W3C//DTD SVG 20010904//EN"
 "http://www.w3.org/TR/2001/REC-SVG-20010904/DTD/svg10.dtd">
<svg version="1.0" xmlns="http://www.w3.org/2000/svg"
 width="3542.000000pt" height="3750.000000pt" viewBox="0 0 3542.000000 3750.000000"
 preserveAspectRatio="xMidYMid meet">

<g transform="translate(0.000000,3750.000000) scale(0.100000,-0.100000)"
fill="#65340A" stroke="none">
<path d="M16430 16650 l0 -2030 -30 0 c-23 0 -35 -7 -50 -32 -37 -61 -15 -134
42 -140 32 -3 33 -4 36 -56 2 -33 -2 -62 -11 -75 -7 -12 -23 -47 -35 -77 -64
-160 -56 -372 18 -509 21 -39 30 -68 30 -102 l0 -48 -37 -3 c-34 -3 -39 -7
-52 -44 -24 -68 3 -124 60 -124 l29 0 0 -2039 c0 -1732 -2 -2042 -14 -2054 -8
-7 -35 -21 -60 -31 l-46 -18 25 -20 c40 -31 32 -77 -17 -103 -35 -19 -38 -23
-38 -66 l0 -45 118 -20 c118 -19 118 -19 242 1 l125 20 3 45 c3 43 1 46 -35
65 -48 25 -56 65 -22 101 l23 24 -52 22 c-28 12 -54 28 -57 35 -4 13 -6 1052
-5 3320 0 736 1 771 18 766 27 -7 70 33 77 71 4 20 1 47 -9 69 -13 33 -19 37
-50 37 -36 0 -36 0 -36 45 0 29 9 64 26 96 83 165 83 421 -1 565 -19 33 -25
57 -25 103 0 61 0 61 28 59 37 -3 48 6 62 48 20 61 -13 124 -65 124 l-25 0 0
2025 0 2025 -95 0 -95 0 0 -2030z m123 -2463 c25 -80 31 -164 17 -248 -13 -80
-37 -149 -51 -149 -19 0 -43 117 -43 215 0 78 5 115 23 168 12 37 26 67 30 67
4 0 15 -24 24 -53z"/>
</g>
</svg>
