<?xml version="1.0" standalone="no"?>
<!DOCTYPE svg PUBLIC "-//W3C//DTD SVG 20010904//EN"
 "http://www.w3.org/TR/2001/REC-SVG-20010904/DTD/svg10.dtd">
<svg version="1.0" xmlns="http://www.w3.org/2000/svg"
 width="3542.000000pt" height="3750.000000pt" viewBox="0 0 3542.000000 3750.000000"
 preserveAspectRatio="xMidYMid meet">

<g transform="translate(0.000000,3750.000000) scale(0.100000,-0.100000)"
fill="#65340A" stroke="none">
<path d="M20080 16820 l0 -1910 -30 0 c-34 0 -60 -38 -60 -90 0 -46 16 -68 55
-76 34 -6 35 -8 35 -49 0 -26 -10 -63 -24 -92 -80 -159 -80 -398 0 -542 15
-27 24 -60 24 -87 0 -42 -1 -44 -29 -44 -39 0 -61 -32 -61 -86 0 -45 19 -70
60 -76 l25 -3 3 -1905 c1 -1048 0 -1914 -3 -1926 -3 -14 -22 -29 -57 -43 -51
-21 -52 -22 -29 -37 33 -24 26 -73 -16 -99 -28 -17 -32 -26 -33 -62 0 -24 1
-43 3 -43 1 0 54 -9 118 -19 114 -19 118 -19 220 0 57 10 107 19 112 19 4 0 7
20 7 45 0 34 -4 45 -15 45 -23 0 -65 45 -65 69 0 11 9 29 21 40 l21 19 -54 28
-53 29 0 1922 0 1923 27 0 c35 0 61 37 61 88 0 55 -18 82 -53 82 -19 0 -31 6
-35 19 -6 21 3 69 16 86 4 6 20 46 34 90 52 153 43 325 -23 466 -27 57 -31 85
-23 142 1 4 12 7 24 7 37 0 60 33 60 87 0 51 -26 83 -67 83 l-23 0 -1 1833
c-1 1007 -2 1865 -2 1905 l0 72 -85 0 -85 0 0 -1910z m109 -2335 c21 -85 24
-158 8 -242 -9 -46 -20 -90 -25 -100 -17 -30 -42 79 -42 181 0 86 23 206 40
206 4 0 13 -20 19 -45z"/>
</g>
</svg>
