<?xml version="1.0" standalone="no"?>
<!DOCTYPE svg PUBLIC "-//W3C//DTD SVG 20010904//EN"
 "http://www.w3.org/TR/2001/REC-SVG-20010904/DTD/svg10.dtd">
<svg version="1.0" xmlns="http://www.w3.org/2000/svg"
 width="3542.000000pt" height="3750.000000pt" viewBox="0 0 3542.000000 3750.000000"
 preserveAspectRatio="xMidYMid meet">

<g transform="translate(0.000000,3750.000000) scale(0.100000,-0.100000)"
fill="#65340A" stroke="none">
<path d="M28568 16703 l-3 -1988 -38 -6 c-46 -7 -66 -32 -67 -80 0 -51 32 -89
76 -89 l34 0 0 -54 c0 -35 -6 -61 -17 -77 -113 -154 -119 -415 -13 -582 20
-32 30 -61 30 -86 0 -37 -1 -39 -40 -45 -53 -8 -75 -41 -67 -99 7 -49 35 -77
78 -77 l29 0 0 -1999 c0 -1100 -3 -2007 -6 -2015 -4 -9 -28 -26 -56 -38 l-49
-21 21 -22 c28 -30 26 -69 -6 -94 -15 -12 -33 -21 -40 -21 -10 0 -14 -14 -14
-48 l0 -48 145 -18 c143 -19 147 -19 238 0 l92 20 3 45 c3 43 1 47 -28 59 -54
23 -65 67 -25 105 l26 23 -35 12 c-19 6 -46 20 -60 31 l-26 20 2 1999 2 1998
36 6 c47 7 74 37 74 81 0 51 -33 90 -75 90 -33 0 -34 2 -37 40 -2 32 5 53 33
100 59 98 79 179 72 299 -5 112 -28 190 -78 270 -23 38 -29 58 -27 90 3 38 5
41 38 46 49 8 58 15 69 57 18 65 -21 123 -83 123 l-26 0 0 1990 0 1990 -90 0
-90 0 -2 -1987z m120 -2400 c59 -138 59 -291 1 -405 -11 -21 -22 -38 -25 -38
-12 0 -55 117 -66 180 -9 51 -9 89 -2 142 11 75 45 168 62 168 5 0 19 -21 30
-47z"/>
</g>
</svg>
