<?xml version="1.0" standalone="no"?>
<!DOCTYPE svg PUBLIC "-//W3C//DTD SVG 20010904//EN"
 "http://www.w3.org/TR/2001/REC-SVG-20010904/DTD/svg10.dtd">
<svg version="1.0" xmlns="http://www.w3.org/2000/svg"
 width="3542.000000pt" height="3750.000000pt" viewBox="0 0 3542.000000 3750.000000"
 preserveAspectRatio="xMidYMid meet">

<g transform="translate(0.000000,3750.000000) scale(0.100000,-0.100000)"
fill="#65340A" stroke="none">
<path d="M29680 16660 l0 -2020 -33 0 c-47 0 -77 -34 -77 -89 0 -56 36 -96 80
-86 l30 7 0 -55 c0 -45 -6 -65 -35 -113 -54 -89 -70 -152 -70 -274 0 -120 23
-212 75 -293 20 -32 30 -60 30 -86 0 -37 -1 -39 -39 -45 -48 -7 -71 -36 -71
-87 0 -52 32 -89 76 -89 l34 0 0 -1657 c1 -2406 1 -2403 -10 -2423 -5 -10 -30
-26 -55 -35 -25 -10 -45 -19 -45 -21 0 -2 9 -13 20 -24 11 -11 20 -31 20 -45
0 -28 -35 -65 -62 -65 -15 0 -18 -8 -18 -50 0 -58 -16 -51 172 -75 125 -17
129 -16 223 5 l95 22 0 44 c0 41 -3 46 -30 56 -52 18 -69 84 -28 112 26 18 26
18 -34 44 -25 11 -51 28 -56 39 -5 11 -8 350 -7 863 1 465 3 1375 3 2023 l2
1177 30 0 c73 0 109 102 55 156 -20 20 -32 24 -55 19 l-30 -7 0 50 c0 39 8 62
35 108 96 159 98 355 5 539 -27 55 -40 93 -40 121 0 44 10 54 55 54 53 0 75
96 33 145 -16 18 -34 26 -55 27 l-33 1 0 2024 0 2023 -95 0 -95 0 0 -2020z
m125 -2444 c43 -97 56 -212 34 -305 -12 -54 -49 -141 -59 -141 -9 0 -55 102
-69 155 -14 52 -14 169 0 220 18 67 51 135 61 129 6 -4 20 -30 33 -58z"/>
</g>
</svg>
