<?xml version="1.0" standalone="no"?>
<!DOCTYPE svg PUBLIC "-//W3C//DTD SVG 20010904//EN"
 "http://www.w3.org/TR/2001/REC-SVG-20010904/DTD/svg10.dtd">
<svg version="1.0" xmlns="http://www.w3.org/2000/svg"
 width="3542.000000pt" height="3750.000000pt" viewBox="0 0 3542.000000 3750.000000"
 preserveAspectRatio="xMidYMid meet">

<g transform="translate(0.000000,3750.000000) scale(0.100000,-0.100000)"
fill="#C5C3C1" stroke="none">
<path d="M18290 17500 l0 -1180 -20 0 c-34 0 -70 -44 -70 -84 0 -55 18 -85 57
-92 32 -6 33 -8 33 -54 0 -32 -9 -66 -25 -98 -80 -159 -80 -385 1 -544 15 -29
24 -65 24 -93 0 -43 -1 -45 -30 -45 -23 0 -33 -7 -45 -30 -33 -65 -9 -140 46
-140 l29 0 0 -125 c0 -69 0 -298 0 -510 0 -212 0 -592 0 -845 l0 -460 -24 0
c-15 0 -33 -11 -46 -27 -18 -23 -21 -37 -17 -77 5 -53 24 -76 64 -76 21 0 23
-5 23 -47 0 -28 -9 -66 -25 -99 -41 -88 -59 -170 -59 -279 0 -115 12 -163 60
-257 22 -44 34 -81 34 -107 0 -40 -1 -41 -34 -41 -29 0 -36 -5 -50 -34 -19
-40 -20 -69 -5 -99 16 -29 28 -37 62 -37 l27 0 0 -1191 0 -1192 -21 -18 c-12
-10 -36 -23 -55 -29 -40 -14 -41 -16 -12 -47 29 -31 16 -72 -29 -93 -30 -14
-33 -19 -33 -61 l0 -46 108 -17 c131 -20 123 -20 255 0 l107 17 0 46 c0 43 -3
48 -30 58 -16 6 -35 23 -41 37 -11 23 -9 31 10 57 13 17 21 32 19 33 -1 1 -18
9 -37 16 -18 7 -42 23 -52 34 -18 19 -19 59 -19 1213 l0 1193 28 0 c33 0 57
23 67 63 15 57 -16 107 -66 107 -27 0 -29 3 -29 35 0 20 13 62 29 94 83 164
88 375 11 538 -20 45 -30 81 -30 114 0 44 2 49 23 49 43 0 67 35 67 98 0 43
-19 66 -62 77 l-28 7 0 372 c0 651 0 1348 0 1454 0 96 1 102 20 102 34 0 70
44 70 85 0 59 -25 95 -66 95 -35 0 -36 57 -2 130 41 87 61 173 62 270 1 105
-17 191 -58 273 -24 48 -30 72 -28 110 3 44 5 47 31 47 38 0 53 21 59 79 3 40
1 52 -17 70 -11 11 -32 21 -46 21 l-25 0 0 223 c0 122 -1 653 -1 1180 l0 957
-95 0 -94 0 0 -1180z m122 -1622 c19 -76 16 -240 -5 -311 -10 -32 -21 -55 -26
-53 -37 23 -49 272 -17 364 9 28 21 52 26 52 4 0 14 -24 22 -52z m-1 -3115
c20 -68 17 -234 -4 -305 -10 -32 -22 -58 -27 -58 -18 0 -43 150 -37 229 6 79
32 181 46 181 5 0 15 -21 22 -47z"/>
</g>
</svg>
