<?xml version="1.0" standalone="no"?>
<!DOCTYPE svg PUBLIC "-//W3C//DTD SVG 20010904//EN"
 "http://www.w3.org/TR/2001/REC-SVG-20010904/DTD/svg10.dtd">
<svg version="1.0" xmlns="http://www.w3.org/2000/svg"
 width="3542.000000pt" height="3750.000000pt" viewBox="0 0 3542.000000 3750.000000"
 preserveAspectRatio="xMidYMid meet">

<g transform="translate(0.000000,3750.000000) scale(0.100000,-0.100000)"
fill="#C5C3C1" stroke="none">
<path d="M20078 18703 c-17 -4 -18 -67 -18 -1149 l0 -1144 -23 0 c-43 0 -74
-56 -62 -110 9 -39 30 -60 61 -60 22 0 24 -4 24 -44 0 -25 -11 -68 -25 -101
-73 -165 -73 -380 0 -525 16 -31 25 -66 25 -95 0 -43 -1 -45 -29 -45 -36 0
-52 -18 -57 -67 -6 -50 14 -87 51 -93 l30 -5 3 -944 c2 -857 1 -943 -14 -937
-22 8 -74 -46 -74 -78 0 -31 18 -78 33 -88 7 -4 22 -8 35 -8 20 0 22 -5 22
-45 0 -27 -9 -63 -21 -86 -77 -151 -78 -392 -3 -540 15 -30 24 -65 24 -94 0
-43 -1 -45 -24 -39 -19 4 -28 0 -41 -19 -41 -63 -24 -142 32 -149 25 -3 29 -8
34 -48 4 -25 7 -543 7 -1151 1 -1076 0 -1107 -18 -1127 -11 -11 -35 -26 -55
-33 -41 -15 -42 -19 -15 -42 35 -30 21 -76 -30 -97 -27 -11 -30 -17 -30 -56 0
-24 3 -44 6 -44 4 0 54 -7 113 -16 108 -16 152 -15 274 6 l67 12 0 43 c0 38
-3 44 -31 55 -44 18 -56 56 -29 91 11 16 20 30 20 33 0 2 -16 10 -35 16 -71
23 -65 -80 -65 1199 l0 1159 30 5 c77 16 80 159 3 173 -29 6 -33 10 -33 39 0
18 11 57 25 86 38 84 55 166 56 264 1 113 -13 184 -51 261 -20 41 -30 77 -30
108 0 45 1 46 31 46 25 0 32 6 45 35 7 19 14 47 14 63 0 35 -33 72 -65 72
l-25 0 0 940 0 940 24 0 c39 0 69 46 63 97 -6 54 -21 73 -58 73 -27 0 -29 3
-29 40 0 23 10 60 21 83 40 77 59 166 59 272 0 111 -16 188 -55 265 -17 33
-25 66 -25 100 0 48 1 50 29 50 37 0 52 19 58 73 6 49 -16 85 -57 90 l-25 4
-3 1146 -2 1147 -73 -1 c-39 -1 -80 -3 -89 -6z m98 -2740 c8 -32 14 -86 14
-121 0 -69 -26 -202 -40 -202 -27 0 -47 175 -32 270 11 72 29 126 38 117 4 -3
13 -32 20 -64z m11 -3108 c5 -80 -16 -218 -36 -238 -17 -17 -35 74 -35 178 0
69 5 118 18 160 l18 60 15 -40 c8 -22 17 -76 20 -120z"/>
</g>
</svg>
