<?xml version="1.0" standalone="no"?>
<!DOCTYPE svg PUBLIC "-//W3C//DTD SVG 20010904//EN"
 "http://www.w3.org/TR/2001/REC-SVG-20010904/DTD/svg10.dtd">
<svg version="1.0" xmlns="http://www.w3.org/2000/svg"
 width="3542.000000pt" height="3750.000000pt" viewBox="0 0 3542.000000 3750.000000"
 preserveAspectRatio="xMidYMid meet">

<g transform="translate(0.000000,3750.000000) scale(0.100000,-0.100000)"
fill="#C5C3C1" stroke="none">
<path d="M2140 16960 l0 -1500 -43 0 c-96 0 -141 -120 -72 -194 19 -21 33 -26
70 -26 l45 0 0 -57 c0 -45 -6 -65 -30 -102 -79 -124 -114 -243 -113 -386 0
-136 46 -278 117 -362 22 -26 26 -41 26 -91 l0 -60 -43 5 c-39 5 -46 2 -70
-26 -33 -39 -43 -91 -27 -132 16 -39 44 -57 95 -61 l40 -4 3 -1227 2 -1227
-30 0 c-17 0 -44 -7 -59 -15 -35 -17 -63 -82 -55 -123 8 -38 49 -82 77 -82 59
0 67 -9 67 -67 0 -39 -6 -63 -20 -83 -38 -53 -89 -174 -106 -248 -12 -56 -15
-102 -11 -181 7 -128 31 -207 93 -297 41 -59 44 -69 44 -127 l0 -64 -30 5
c-79 11 -116 -34 -111 -136 2 -36 42 -68 94 -76 l47 -7 0 -1509 c0 -1290 -2
-1511 -14 -1523 -8 -8 -42 -24 -75 -37 l-60 -22 29 -25 c54 -45 33 -113 -42
-142 -26 -10 -28 -15 -28 -65 l0 -55 68 -20 c162 -48 146 -47 324 -18 90 15
175 30 191 33 26 5 27 8 27 64 0 52 -2 58 -23 64 -77 19 -102 93 -48 139 l29
24 -56 23 c-32 12 -65 31 -74 42 -17 19 -18 107 -18 1534 l0 1514 30 0 c47 0
78 20 100 66 37 75 7 137 -76 155 l-54 12 0 47 c0 32 6 55 20 73 35 45 90 170
105 242 19 89 19 211 0 299 -14 67 -69 181 -106 222 -15 16 -19 35 -19 92 l0
72 46 -2 c51 -2 73 17 95 80 21 63 -25 132 -90 132 -11 0 -26 3 -35 6 -14 6
-16 123 -16 1229 l0 1222 40 -1 c68 -1 122 70 105 142 -11 51 -39 75 -91 81
l-49 6 -3 43 c-3 34 3 53 27 90 78 122 114 243 114 382 0 142 -41 274 -113
365 -26 33 -30 46 -30 101 l0 64 39 0 c56 0 69 7 91 51 46 89 1 169 -95 169
l-35 0 0 1495 0 1495 -115 0 -115 0 0 -1500z m152 -1977 c47 -89 62 -151 62
-258 0 -66 -6 -120 -18 -160 -20 -65 -74 -175 -87 -175 -15 0 -69 126 -84 195
-18 88 -19 142 0 228 14 68 79 217 94 217 4 0 19 -21 33 -47z m1 -3933 c55
-92 80 -256 58 -372 -15 -76 -65 -200 -90 -222 -21 -19 -27 -14 -60 51 -49 97
-63 232 -36 356 16 78 79 217 98 217 7 0 21 -13 30 -30z"/>
</g>
</svg>
