<?xml version="1.0" standalone="no"?>
<!DOCTYPE svg PUBLIC "-//W3C//DTD SVG 20010904//EN"
 "http://www.w3.org/TR/2001/REC-SVG-20010904/DTD/svg10.dtd">
<svg version="1.0" xmlns="http://www.w3.org/2000/svg"
 width="3542.000000pt" height="3750.000000pt" viewBox="0 0 3542.000000 3750.000000"
 preserveAspectRatio="xMidYMid meet">

<g transform="translate(0.000000,3750.000000) scale(0.100000,-0.100000)"
fill="#C5C3C1" stroke="none">
<path d="M26450 17545 l0 -1165 -30 0 c-42 0 -70 -31 -70 -79 0 -51 31 -91 71
-91 28 0 29 -1 29 -50 0 -37 -7 -61 -26 -92 -91 -144 -96 -351 -13 -518 56
-111 52 -160 -11 -160 -27 0 -50 -38 -50 -83 0 -45 36 -87 75 -87 l25 0 0
-950 0 -949 -35 -7 c-44 -8 -65 -37 -65 -87 0 -49 35 -87 73 -80 27 5 27 5 27
-55 0 -34 -5 -64 -10 -67 -19 -12 -60 -104 -75 -167 -30 -129 -11 -275 53
-393 20 -37 32 -73 32 -97 0 -35 -2 -38 -30 -38 -93 0 -95 -158 -1 -176 l28
-6 6 -526 c4 -289 7 -814 7 -1166 0 -720 5 -665 -76 -700 l-41 -18 23 -23 c13
-13 24 -31 24 -40 0 -21 -44 -65 -65 -65 -13 0 -15 -9 -13 -47 l3 -47 125 -19
c120 -18 129 -18 227 -1 l102 17 6 38 c7 41 1 59 -19 59 -22 0 -56 40 -56 65
0 14 9 34 20 45 19 19 19 19 -27 40 -26 11 -51 26 -55 33 -4 7 -8 537 -8 1179
l0 1168 28 6 c54 12 59 15 70 40 17 36 15 64 -8 102 -16 26 -26 32 -55 32 -34
0 -35 1 -35 39 0 26 11 57 35 96 48 81 67 153 67 260 -1 107 -20 187 -67 273
-23 42 -35 76 -35 102 0 39 1 40 40 46 62 10 87 71 55 133 -15 31 -33 41 -71
41 l-24 0 2 953 3 952 31 3 c63 6 92 80 55 140 -17 26 -27 32 -56 32 -34 0
-35 1 -35 39 0 26 11 57 34 95 44 72 68 171 67 271 -1 99 -21 181 -67 264 -27
49 -34 73 -32 105 2 32 7 41 23 44 56 8 64 13 75 48 21 64 -13 124 -70 124
l-30 0 0 1165 0 1165 -90 0 -90 0 0 -1165z m132 -1600 c39 -109 25 -301 -26
-370 -14 -19 -16 -18 -35 26 -49 109 -53 261 -11 373 26 69 38 65 72 -29z
m-16 -3041 c52 -117 53 -260 4 -371 l-22 -48 -19 37 c-44 86 -61 218 -39 318
10 45 39 120 47 120 2 0 15 -25 29 -56z"/>
</g>
</svg>
