<?xml version="1.0" standalone="no"?>
<!DOCTYPE svg PUBLIC "-//W3C//DTD SVG 20010904//EN"
 "http://www.w3.org/TR/2001/REC-SVG-20010904/DTD/svg10.dtd">
<svg version="1.0" xmlns="http://www.w3.org/2000/svg"
 width="3542.000000pt" height="3750.000000pt" viewBox="0 0 3542.000000 3750.000000"
 preserveAspectRatio="xMidYMid meet">

<g transform="translate(0.000000,3750.000000) scale(0.100000,-0.100000)"
fill="#C5C3C1" stroke="none">
<path d="M27500 17522 l0 -1179 -40 -7 c-53 -8 -75 -41 -67 -99 7 -49 35 -77
78 -77 28 0 29 -2 29 -47 0 -37 -8 -59 -30 -92 -101 -149 -100 -399 1 -564 32
-54 39 -111 13 -121 -9 -3 -26 -6 -40 -6 -16 0 -28 -9 -39 -30 -34 -67 -3
-140 61 -140 l34 0 0 -963 0 -963 -45 -12 c-53 -14 -69 -39 -62 -94 7 -52 32
-78 74 -78 33 0 33 0 33 -47 0 -35 -8 -58 -30 -94 -101 -156 -104 -364 -9
-547 21 -42 39 -88 39 -104 0 -25 -4 -28 -40 -34 -49 -8 -70 -34 -70 -86 0
-50 35 -91 78 -91 l32 0 0 -1189 c0 -739 -4 -1196 -9 -1207 -6 -10 -31 -26
-56 -36 l-46 -17 20 -22 c12 -12 21 -32 21 -45 0 -25 -41 -71 -65 -71 -11 0
-15 -11 -15 -45 0 -52 -13 -46 161 -70 107 -14 122 -14 200 1 46 9 91 20 98
24 21 11 24 90 4 90 -8 0 -28 13 -44 29 -31 32 -31 50 3 87 l19 22 -45 17
c-25 10 -50 23 -56 30 -11 13 -16 2368 -5 2386 4 5 19 9 35 9 34 0 70 40 70
79 0 14 -9 41 -20 59 -16 26 -26 32 -55 32 -35 0 -35 0 -35 46 0 29 7 56 19
72 58 83 83 172 83 296 0 99 -19 174 -68 266 -23 44 -34 78 -34 107 0 39 2 43
24 43 38 0 56 10 72 42 31 59 -11 138 -72 138 l-24 0 0 963 0 963 43 11 c63
17 84 71 52 132 -15 31 -33 41 -71 41 -21 0 -24 4 -24 41 0 29 9 57 29 89 99
160 97 410 -4 562 -18 27 -25 51 -25 88 l0 50 33 0 c47 0 72 30 72 87 0 52
-28 83 -76 83 l-29 0 0 1183 0 1182 -90 3 -90 3 0 -1179z m115 -1597 c36 -80
48 -176 35 -260 -11 -69 -46 -165 -60 -165 -14 0 -51 105 -62 178 -9 55 -9 90
0 141 11 66 45 161 57 161 3 0 17 -25 30 -55z m16 -3165 c37 -108 24 -288 -25
-355 -18 -26 -23 -20 -53 62 -45 122 -42 244 9 363 l20 45 13 -25 c8 -14 24
-54 36 -90z"/>
</g>
</svg>
