<?xml version="1.0" standalone="no"?>
<!DOCTYPE svg PUBLIC "-//W3C//DTD SVG 20010904//EN"
 "http://www.w3.org/TR/2001/REC-SVG-20010904/DTD/svg10.dtd">
<svg version="1.0" xmlns="http://www.w3.org/2000/svg"
 width="3542.000000pt" height="3750.000000pt" viewBox="0 0 3542.000000 3750.000000"
 preserveAspectRatio="xMidYMid meet">

<g transform="translate(0.000000,3750.000000) scale(0.100000,-0.100000)"
fill="#C5C3C1" stroke="none">
<path d="M28570 17485 l0 -1195 -30 0 c-57 0 -91 -60 -70 -125 13 -40 41 -59
76 -52 23 4 24 2 24 -50 0 -40 -6 -63 -21 -84 -81 -114 -105 -327 -54 -474 21
-62 51 -122 65 -130 5 -3 10 -28 10 -56 0 -49 0 -49 -33 -49 -47 0 -72 -30
-72 -87 0 -37 5 -49 29 -70 19 -16 37 -23 53 -20 l23 4 0 -983 0 -984 -29 0
c-48 0 -76 -31 -76 -85 0 -38 5 -51 27 -70 18 -15 34 -21 52 -18 25 5 26 4 26
-50 0 -45 -6 -65 -35 -113 -93 -154 -94 -344 -4 -529 21 -45 39 -95 39 -112 0
-29 -3 -32 -41 -38 -33 -6 -43 -13 -56 -40 -30 -63 4 -137 65 -139 l29 -1 6
-545 c4 -300 7 -843 7 -1208 0 -746 7 -684 -79 -718 -35 -14 -41 -19 -29 -28
8 -6 20 -21 27 -34 10 -19 10 -28 -4 -48 -9 -14 -27 -30 -41 -36 -13 -6 -24
-14 -25 -17 -1 -3 -3 -23 -4 -43 -4 -44 -13 -40 155 -64 120 -16 129 -16 218
1 96 19 114 31 107 71 -2 10 -4 24 -4 30 -1 6 -12 16 -25 22 -14 6 -32 22 -41
36 -14 20 -14 29 -4 48 7 13 19 28 27 34 12 9 6 14 -29 28 -86 34 -79 -37 -78
788 1 403 4 943 6 1200 l6 468 34 6 c48 9 76 49 70 97 -7 51 -32 77 -74 77
-33 0 -33 1 -33 45 0 32 8 58 26 86 14 23 37 71 51 108 22 57 26 81 25 176 0
120 -15 177 -72 283 -20 37 -30 70 -30 98 0 42 1 42 40 49 63 11 87 72 55 136
-17 32 -55 52 -80 43 -13 -5 -15 105 -15 980 l0 986 30 0 c67 0 101 77 63 141
-17 29 -28 34 -70 30 -21 -2 -23 3 -23 45 0 34 8 60 30 95 49 80 72 162 73
264 2 112 -14 179 -64 273 -30 57 -39 85 -39 123 0 49 0 49 33 49 42 0 67 26
74 77 7 52 -28 96 -75 96 l-32 0 0 1199 0 1198 -95 0 -95 0 0 -1195z m144
-1670 c23 -78 28 -148 16 -217 -14 -76 -49 -160 -64 -155 -18 6 -54 108 -66
185 -13 84 -1 170 36 252 l26 55 19 -35 c10 -19 25 -57 33 -85z m-26 -3092
c53 -126 61 -263 21 -372 -13 -36 -29 -66 -35 -68 -11 -4 -45 66 -63 127 -14
48 -19 146 -10 200 9 54 47 160 58 160 5 0 18 -21 29 -47z"/>
</g>
</svg>
