<?xml version="1.0" standalone="no"?>
<!DOCTYPE svg PUBLIC "-//W3C//DTD SVG 20010904//EN"
 "http://www.w3.org/TR/2001/REC-SVG-20010904/DTD/svg10.dtd">
<svg version="1.0" xmlns="http://www.w3.org/2000/svg"
 width="3542.000000pt" height="3750.000000pt" viewBox="0 0 3542.000000 3750.000000"
 preserveAspectRatio="xMidYMid meet">

<g transform="translate(0.000000,3750.000000) scale(0.100000,-0.100000)"
fill="#C5C3C1" stroke="none">
<path d="M30820 17425 l0 -1235 -30 0 c-67 0 -101 -80 -65 -150 13 -26 21 -30
55 -30 l40 0 0 -54 c0 -44 -7 -64 -35 -112 -55 -90 -70 -152 -70 -279 1 -125
17 -192 72 -282 24 -40 33 -67 33 -99 0 -43 0 -44 -35 -44 -47 0 -75 -31 -75
-86 0 -57 30 -94 76 -94 l34 0 0 -1009 0 -1009 -45 -11 c-25 -6 -49 -19 -55
-30 -17 -34 -12 -96 12 -126 18 -23 27 -26 55 -22 l33 6 0 -56 c0 -46 -6 -65
-30 -104 -59 -90 -74 -151 -74 -284 0 -133 18 -205 75 -298 19 -31 29 -61 29
-86 0 -37 -1 -39 -39 -45 -49 -8 -71 -36 -71 -92 0 -52 35 -94 78 -94 l29 0 6
-557 c4 -306 7 -866 7 -1245 0 -777 7 -714 -82 -744 l-48 -16 25 -20 c16 -13
25 -29 25 -48 0 -32 -33 -70 -62 -70 -15 0 -18 -8 -18 -49 0 -57 -16 -50 181
-77 124 -16 126 -16 222 6 l97 22 0 44 c0 40 -3 45 -34 58 -59 24 -71 68 -31
108 l25 25 -48 21 c-27 12 -54 28 -61 35 -9 11 -11 314 -9 1253 l3 1238 43 9
c55 11 77 42 69 98 -8 57 -39 88 -83 82 l-34 -5 0 47 c0 33 7 55 24 78 85 113
117 288 81 432 -8 33 -34 99 -58 146 -30 59 -43 99 -43 125 1 37 3 39 40 45
50 8 76 39 76 89 0 51 -31 88 -81 96 l-39 7 3 1005 2 1006 40 8 c50 10 75 39
75 88 0 55 -31 90 -81 90 l-39 0 0 46 c0 33 7 54 25 78 119 157 123 412 9 601
-25 42 -34 69 -34 101 0 44 0 44 35 44 111 0 115 172 5 184 l-35 3 -2 559 c-2
308 -3 864 -3 1237 l0 677 -95 0 -95 0 0 -1235z m149 -1708 c42 -127 37 -246
-17 -361 l-29 -61 -31 61 c-68 134 -65 333 6 442 l16 24 17 -21 c10 -12 27
-49 38 -84z m-23 -3208 c36 -72 55 -174 48 -256 -6 -68 -32 -153 -58 -189 -14
-18 -17 -15 -47 49 -41 88 -57 194 -42 280 11 66 50 167 64 167 5 0 20 -23 35
-51z"/>
</g>
</svg>
