<?xml version="1.0" standalone="no"?>
<!DOCTYPE svg PUBLIC "-//W3C//DTD SVG 20010904//EN"
 "http://www.w3.org/TR/2001/REC-SVG-20010904/DTD/svg10.dtd">
<svg version="1.0" xmlns="http://www.w3.org/2000/svg"
 width="3542.000000pt" height="3750.000000pt" viewBox="0 0 3542.000000 3750.000000"
 preserveAspectRatio="xMidYMid meet">

<g transform="translate(0.000000,3750.000000) scale(0.100000,-0.100000)"
fill="#C5C3C1" stroke="none">
<path d="M3570 17578 c0 -497 0 -1158 0 -1470 l0 -568 -35 0 c-77 0 -129 -95
-91 -169 18 -34 50 -51 97 -51 29 0 29 0 29 -59 0 -51 -5 -68 -38 -122 -133
-220 -127 -520 14 -705 19 -25 24 -43 24 -92 l0 -61 -34 6 c-43 7 -69 -8 -90
-51 -41 -87 6 -166 100 -166 l24 0 0 -217 c-1 -120 2 -662 6 -1204 l6 -986
-46 -5 c-56 -7 -83 -28 -96 -79 -8 -29 -7 -46 6 -78 16 -40 40 -55 104 -63 23
-3 25 -8 28 -55 3 -45 -1 -59 -26 -95 -70 -103 -102 -200 -109 -335 -9 -159
19 -268 99 -383 33 -49 38 -63 38 -114 l0 -59 -39 7 c-50 8 -84 -18 -100 -76
-21 -74 7 -115 88 -133 l46 -10 3 -1478 c1 -983 -1 -1477 -8 -1477 -5 0 -10
-6 -10 -13 0 -7 -21 -21 -47 -30 -78 -28 -81 -32 -50 -61 38 -35 36 -76 -4
-110 -17 -14 -39 -26 -50 -26 -17 0 -19 -7 -19 -59 0 -49 3 -61 18 -66 11 -3
63 -16 116 -30 l98 -25 121 21 c67 11 146 24 176 29 30 5 58 14 61 20 4 6 6
28 4 48 -2 20 -3 42 -3 47 -1 6 -17 17 -37 24 -24 9 -40 23 -49 43 -15 38 -10
63 21 87 13 10 24 21 24 24 0 2 -27 15 -60 27 -34 13 -65 31 -70 41 -6 11 -10
571 -10 1503 l0 1486 38 0 c111 0 140 180 34 209 -20 6 -45 11 -54 11 -15 0
-18 9 -18 46 0 35 8 59 35 103 72 116 113 286 100 416 -9 94 -48 207 -96 277
-36 53 -39 63 -39 126 l0 68 47 0 c42 -1 49 2 70 33 45 66 20 152 -50 166 -17
4 -40 9 -49 11 -17 5 -18 71 -18 1205 l0 1199 41 0 c33 0 47 6 70 31 24 26 29
40 29 81 0 41 -5 54 -29 79 -23 23 -39 29 -70 29 l-41 0 0 49 c0 32 6 56 19
72 28 37 77 138 95 199 9 30 19 94 23 141 10 144 -22 271 -97 388 -35 54 -40
69 -40 121 l0 60 43 0 c60 0 89 31 95 104 4 48 1 58 -20 79 -15 15 -42 27 -71
31 l-47 7 0 1465 0 1464 -115 0 -115 0 0 -902z m155 -2518 c76 -151 74 -353
-6 -512 -16 -32 -34 -56 -40 -53 -19 12 -61 109 -75 174 -17 84 -17 158 1 243
14 67 72 198 87 198 4 0 19 -22 33 -50z m6 -3872 c52 -102 68 -258 40 -378
-15 -62 -79 -200 -93 -200 -15 0 -67 121 -79 185 -15 79 -6 214 19 292 24 74
69 156 83 148 5 -4 19 -25 30 -47z"/>
</g>
</svg>
