<?xml version="1.0" standalone="no"?>
<!DOCTYPE svg PUBLIC "-//W3C//DTD SVG 20010904//EN"
 "http://www.w3.org/TR/2001/REC-SVG-20010904/DTD/svg10.dtd">
<svg version="1.0" xmlns="http://www.w3.org/2000/svg"
 width="3542.000000pt" height="3750.000000pt" viewBox="0 0 3542.000000 3750.000000"
 preserveAspectRatio="xMidYMid meet">

<g transform="translate(0.000000,3750.000000) scale(0.100000,-0.100000)"
fill="#C5C3C1" stroke="none">
<path d="M34470 17327 l0 -1294 -42 -6 c-67 -9 -103 -68 -78 -128 19 -46 37
-59 81 -59 l39 0 0 -55 c0 -47 -6 -64 -36 -109 -118 -178 -116 -432 6 -613 22
-32 30 -56 30 -89 0 -43 -1 -44 -33 -44 -43 0 -73 -22 -87 -66 -21 -63 21
-126 84 -126 l36 0 0 -1058 0 -1058 -32 -7 c-61 -12 -68 -16 -84 -47 -20 -39
-12 -87 21 -122 21 -23 30 -26 60 -20 l35 6 0 -61 c0 -54 -4 -66 -34 -106
-124 -162 -117 -449 16 -637 13 -19 18 -40 16 -65 -3 -35 -6 -38 -41 -44 -56
-9 -82 -39 -82 -95 0 -39 5 -50 33 -75 20 -18 43 -29 62 -29 l30 0 1 -422 c3
-1386 0 -2187 -7 -2201 -5 -9 -33 -27 -61 -40 l-52 -24 24 -23 c14 -13 25 -34
25 -47 0 -29 -42 -73 -70 -73 -18 0 -20 -6 -20 -53 l0 -53 129 -17 c206 -28
210 -28 301 -4 l85 22 3 53 c3 43 0 52 -13 52 -21 0 -75 54 -75 75 0 9 11 27
25 41 14 14 25 26 25 28 0 2 -25 14 -55 26 -38 15 -57 29 -60 44 -3 11 -4 601
-3 1311 l3 1289 42 9 c76 15 105 86 63 155 -20 32 -30 36 -82 32 -27 -1 -28 0
-28 53 0 36 5 59 15 67 21 18 71 107 91 165 13 36 18 81 18 160 0 95 -3 120
-26 184 -15 41 -43 100 -63 132 -29 48 -36 67 -33 101 3 40 5 43 42 50 51 11
74 32 82 75 12 65 -35 123 -101 123 l-25 0 0 1060 0 1060 36 0 c43 0 94 45 94
84 0 65 -35 106 -91 106 l-39 0 0 46 c0 34 7 56 29 87 71 105 96 187 95 317 0
115 -28 213 -86 302 -31 48 -38 68 -38 108 l0 50 38 0 c48 0 82 33 89 87 4 32
0 45 -22 71 -22 26 -34 32 -66 32 l-39 0 0 1295 c0 712 -3 1295 -7 1296 -5 0
-50 3 -100 5 l-93 5 0 -1294z m139 -1742 c49 -97 64 -224 41 -332 -12 -54 -63
-159 -76 -157 -5 1 -23 31 -42 68 -66 132 -67 285 -3 422 35 75 42 75 80 -1z
m-7 -3411 c75 -139 77 -329 4 -456 -11 -21 -24 -38 -28 -38 -13 0 -67 117 -83
177 -17 65 -19 148 -5 213 13 60 61 161 74 157 6 -2 23 -26 38 -53z"/>
</g>
</svg>
