<?xml version="1.0" standalone="no"?>
<!DOCTYPE svg PUBLIC "-//W3C//DTD SVG 20010904//EN"
 "http://www.w3.org/TR/2001/REC-SVG-20010904/DTD/svg10.dtd">
<svg version="1.0" xmlns="http://www.w3.org/2000/svg"
 width="2644.000000pt" height="2800.000000pt" viewBox="0 0 2644.000000 2800.000000"
 preserveAspectRatio="xMidYMid meet">

<g transform="translate(0.000000,2800.000000) scale(0.100000,-0.100000)"
fill="#C5C3C1" stroke="none">
<path d="M2140 14033 c-1 -5 -2 -593 -3 -1307 l-2 -1299 -49 -14 -48 -14 26
-28 c43 -45 29 -91 -36 -113 -15 -6 -28 -14 -28 -19 0 -5 -6 -9 -14 -9 -20 0
-37 -25 -30 -44 3 -9 13 -16 20 -16 8 0 17 -7 20 -15 4 -8 14 -15 24 -15 27 0
70 -39 70 -64 0 -13 -11 -35 -25 -49 l-26 -25 51 -13 50 -13 0 -1201 0 -1201
-50 -13 c-27 -7 -50 -16 -50 -20 0 -4 11 -18 25 -31 14 -13 25 -34 25 -46 0
-25 -43 -64 -71 -64 -11 0 -19 -6 -19 -13 0 -7 -10 -17 -22 -22 -13 -6 -23
-19 -23 -30 0 -13 8 -21 23 -23 12 -2 22 -10 22 -18 0 -8 10 -14 23 -14 30 0
67 -35 67 -64 0 -12 -12 -33 -26 -47 l-26 -24 49 -11 48 -10 -2 -1334 c-2
-734 -5 -1341 -8 -1350 -3 -9 -25 -26 -50 -38 l-46 -22 21 -22 c34 -36 21 -77
-30 -98 -28 -12 -31 -16 -28 -54 l3 -41 100 -7 c55 -4 111 -9 125 -12 14 -2
68 8 120 23 l95 29 3 39 c3 37 0 41 -28 53 -41 17 -56 45 -39 76 7 13 16 24
21 24 23 0 3 18 -32 29 -22 6 -44 20 -50 31 -7 12 -10 466 -10 1347 l0 1329
45 13 c25 7 45 16 45 19 0 3 -12 18 -26 33 -37 39 -27 75 26 96 22 9 40 22 40
29 0 7 10 14 23 16 16 2 22 10 22 28 0 18 -6 26 -22 28 -13 2 -23 8 -23 13 0
5 -18 16 -40 25 -21 9 -42 24 -45 35 -7 20 10 58 34 76 24 17 -2 35 -51 34
-10 0 -22 9 -28 19 -7 12 -9 424 -8 1207 3 1048 5 1188 18 1189 27 1 80 15 80
22 0 3 -12 18 -26 33 -36 38 -27 73 24 97 20 9 39 21 41 25 2 5 14 13 28 18
30 11 28 40 -5 54 -12 5 -22 13 -22 17 0 5 -6 8 -14 8 -23 0 -76 50 -76 71 0
11 12 31 26 46 14 14 23 27 20 30 -2 3 -23 7 -45 10 l-41 6 0 1308 0 1309 -80
0 c-44 0 -80 -3 -80 -7z"/>
</g>
</svg>
