<?xml version="1.0" standalone="no"?>
<!DOCTYPE svg PUBLIC "-//W3C//DTD SVG 20010904//EN"
 "http://www.w3.org/TR/2001/REC-SVG-20010904/DTD/svg10.dtd">
<svg version="1.0" xmlns="http://www.w3.org/2000/svg"
 width="2644.000000pt" height="2800.000000pt" viewBox="0 0 2644.000000 2800.000000"
 preserveAspectRatio="xMidYMid meet">

<g transform="translate(0.000000,2800.000000) scale(0.100000,-0.100000)"
fill="#C5C3C1" stroke="none">
<path d="M7860 16365 l0 -1035 -22 0 c-13 0 -30 -5 -38 -10 -12 -8 -11 -13 9
-34 32 -34 24 -56 -37 -95 -50 -32 -71 -71 -37 -71 7 0 18 -6 22 -14 4 -8 17
-15 28 -17 10 -2 26 -16 34 -31 14 -25 14 -29 -7 -58 l-23 -30 26 -10 c15 -6
31 -10 36 -10 5 0 9 -437 9 -1134 l0 -1134 -35 -6 c-40 -8 -43 -16 -15 -41 32
-29 21 -56 -37 -94 -33 -21 -53 -41 -53 -52 0 -11 4 -19 9 -19 5 0 16 -6 23
-12 8 -7 27 -20 43 -28 37 -19 43 -52 16 -79 -29 -29 -26 -38 14 -45 l35 -7 0
-1104 0 -1105 -40 -20 c-39 -20 -40 -21 -24 -45 19 -30 12 -58 -21 -75 -19
-10 -25 -22 -25 -45 0 -36 -16 -31 172 -51 27 -3 67 1 97 10 56 16 54 16 76
16 10 0 15 11 15 35 0 28 -5 37 -24 45 -33 12 -42 45 -21 76 16 24 15 25 -21
40 -21 9 -48 13 -65 9 -18 -4 -29 -3 -29 4 0 6 11 11 25 11 l25 0 0 1098 0
1098 35 13 c36 12 44 25 24 36 -5 4 -15 18 -20 32 -7 20 -6 30 7 44 10 11 22
19 28 19 6 0 27 14 46 30 l35 29 -30 25 c-16 14 -35 25 -42 26 -13 0 -53 39
-53 51 0 4 11 21 25 37 l25 30 -28 8 c-15 4 -31 8 -37 8 -13 1 -19 2266 -6
2266 5 0 21 4 36 10 l26 10 -23 30 c-21 29 -21 33 -8 58 9 14 24 29 36 32 11
3 33 15 50 27 l29 23 -34 30 c-18 16 -40 30 -47 30 -8 0 -21 11 -30 26 -16 24
-16 26 6 56 25 33 17 48 -27 48 l-23 0 0 1035 0 1035 -70 0 -70 0 0 -1035z"/>
</g>
</svg>
