<?xml version="1.0" standalone="no"?>
<!DOCTYPE svg PUBLIC "-//W3C//DTD SVG 20010904//EN"
 "http://www.w3.org/TR/2001/REC-SVG-20010904/DTD/svg10.dtd">
<svg version="1.0" xmlns="http://www.w3.org/2000/svg"
 width="2644.000000pt" height="2800.000000pt" viewBox="0 0 2644.000000 2800.000000"
 preserveAspectRatio="xMidYMid meet">

<g transform="translate(0.000000,2800.000000) scale(0.100000,-0.100000)"
fill="#C5C3C1" stroke="none">
<path d="M22808 27623 l-3 -378 -37 -9 c-43 -11 -46 -18 -18 -53 36 -45 20
-90 -37 -107 -13 -4 -23 -11 -23 -16 0 -4 -9 -10 -20 -13 -35 -9 -22 -43 40
-105 33 -32 60 -66 60 -74 0 -8 -10 -27 -21 -42 l-21 -27 41 -35 41 -36 0
-1253 0 -1253 -35 -6 c-45 -9 -51 -20 -26 -52 24 -30 27 -68 9 -84 -7 -6 -34
-24 -60 -40 -27 -16 -48 -37 -48 -46 0 -17 38 -58 88 -93 37 -26 41 -56 12
-94 -11 -14 -20 -27 -20 -30 0 -2 18 -16 40 -31 l40 -26 0 -1111 c0 -673 -4
-1117 -9 -1128 -6 -10 -28 -26 -50 -36 l-40 -18 19 -25 c11 -13 20 -32 20 -42
0 -19 -40 -60 -58 -60 -7 0 -12 -5 -12 -11 0 -10 167 -7 297 7 51 5 52 6 41
30 -10 20 -8 29 10 54 l22 29 -43 23 -42 23 -3 1138 c-2 984 0 1137 12 1137 8
0 27 5 41 10 l27 10 -26 31 c-14 17 -26 39 -26 50 0 24 43 69 65 69 8 0 15 3
15 8 0 4 10 12 22 17 12 6 23 15 25 21 4 13 -60 84 -99 109 -35 21 -35 45 -3
83 l25 30 -40 27 -40 28 0 1258 0 1258 39 12 40 12 -25 32 c-13 17 -24 41 -24
53 0 22 43 62 66 62 8 0 14 5 14 10 0 6 11 15 25 20 14 5 25 16 25 23 0 8 -29
43 -65 78 -36 35 -65 69 -65 75 0 6 10 23 21 38 l22 27 -36 37 -37 37 -2 370
-3 370 -72 3 -73 3 -2 -378z"/>
</g>
</svg>
