<?xml version="1.0" standalone="no"?>
<!DOCTYPE svg PUBLIC "-//W3C//DTD SVG 20010904//EN"
 "http://www.w3.org/TR/2001/REC-SVG-20010904/DTD/svg10.dtd">
<svg version="1.0" xmlns="http://www.w3.org/2000/svg"
 width="2644.000000pt" height="2800.000000pt" viewBox="0 0 2644.000000 2800.000000"
 preserveAspectRatio="xMidYMid meet">

<g transform="translate(0.000000,2800.000000) scale(0.100000,-0.100000)"
fill="#C5C3C1" stroke="none">
<path d="M14760 13960 c0 -14 0 -689 0 -1501 l0 -1476 -45 -17 c-25 -10 -45
-20 -45 -24 0 -3 10 -16 22 -29 42 -45 15 -123 -43 -123 -10 0 -19 -6 -19 -12
0 -7 -14 -21 -31 -31 -35 -20 -34 -36 4 -55 15 -7 27 -17 27 -21 0 -5 11 -12
24 -15 14 -3 32 -13 40 -22 23 -23 20 -80 -5 -105 -24 -24 -18 -34 31 -46 l35
-9 3 -1332 2 -1331 -45 -21 c-51 -23 -53 -29 -25 -55 40 -36 10 -125 -42 -125
-9 0 -18 -7 -22 -15 -3 -8 -12 -15 -20 -15 -23 0 -40 -38 -25 -56 6 -8 18 -14
26 -14 7 0 16 -6 19 -14 3 -8 17 -17 32 -21 53 -13 68 -72 31 -119 -12 -15
-20 -28 -18 -30 14 -12 51 -26 68 -26 l21 0 0 -1442 c-1 -1119 -3 -1447 -13
-1459 -7 -9 -25 -23 -42 -32 -59 -32 -59 -33 -36 -56 33 -33 24 -71 -22 -100
-34 -22 -37 -28 -35 -67 1 -39 4 -43 32 -48 37 -6 228 -21 239 -18 4 1 7 -2 7
-8 0 -12 37 -14 42 -2 2 4 32 21 68 38 l65 31 -3 52 c-3 42 -7 51 -22 51 -21
0 -50 36 -50 61 0 9 9 28 21 43 l20 26 -26 10 c-14 5 -31 10 -36 10 -5 0 -18
9 -29 20 -20 20 -20 33 -20 1455 l0 1435 45 20 c49 22 54 30 29 51 -45 37 -33
96 23 122 39 17 83 59 83 78 0 19 -24 42 -33 32 -4 -3 -9 2 -13 11 -3 9 -14
16 -23 16 -20 1 -45 19 -58 45 -13 23 3 71 31 94 16 13 15 15 -15 28 -17 7
-40 13 -50 13 -19 0 -19 34 -19 1335 0 1185 2 1335 15 1335 8 0 23 4 33 9 9 5
25 12 35 15 17 6 16 10 -12 41 -17 20 -31 43 -31 51 0 20 54 74 74 74 9 0 16
7 16 15 0 8 9 15 20 15 25 0 41 30 29 53 -6 9 -19 17 -29 17 -11 0 -20 6 -20
14 0 8 -12 17 -27 21 -28 7 -63 40 -63 60 0 7 11 29 25 49 14 20 25 38 25 40
0 5 -50 19 -70 20 -13 1 -16 178 -20 1511 -3 831 -6 1504 -8 1498 -2 -15 -102
-18 -102 -4 0 5 -11 8 -25 7 -20 -1 -25 -6 -25 -26z"/>
</g>
</svg>
