<?xml version="1.0" standalone="no"?>
<!DOCTYPE svg PUBLIC "-//W3C//DTD SVG 20010904//EN"
 "http://www.w3.org/TR/2001/REC-SVG-20010904/DTD/svg10.dtd">
<svg version="1.0" xmlns="http://www.w3.org/2000/svg"
 width="2644.000000pt" height="2800.000000pt" viewBox="0 0 2644.000000 2800.000000"
 preserveAspectRatio="xMidYMid meet">

<g transform="translate(0.000000,2800.000000) scale(0.100000,-0.100000)"
fill="#C5C3C1" stroke="none">
<path d="M14260 13948 c0 -18 -2 -629 -3 -1357 l-2 -1325 -35 -9 c-48 -12 -66
-28 -46 -39 9 -5 23 -23 32 -39 14 -28 14 -33 -1 -56 -10 -14 -30 -30 -46 -36
-16 -6 -29 -17 -29 -24 0 -7 -9 -13 -20 -13 -25 0 -41 -30 -29 -53 6 -9 17
-17 25 -17 8 0 17 -7 20 -15 4 -8 14 -15 24 -15 18 0 70 -53 70 -70 0 -5 -14
-25 -31 -44 l-30 -35 30 -15 c16 -9 39 -16 51 -16 l20 0 0 -1315 c0 -1114 -2
-1315 -14 -1315 -13 0 -44 -14 -73 -33 -10 -6 -7 -14 11 -30 40 -36 42 -63 7
-97 -16 -17 -37 -30 -45 -30 -9 0 -16 -6 -16 -13 0 -8 -11 -19 -25 -25 -32
-15 -33 -49 -1 -62 13 -5 25 -12 27 -17 2 -4 21 -17 41 -27 50 -25 56 -48 24
-96 -31 -47 -32 -50 -6 -50 11 0 20 -4 20 -8 0 -5 10 -8 23 -8 l22 1 2 -1538
3 -1538 -23 -22 c-13 -12 -38 -30 -57 -40 l-33 -18 22 -22 c11 -13 21 -32 21
-43 0 -23 -35 -64 -54 -64 -17 0 -26 -22 -26 -65 0 -40 3 -41 158 -51 61 -3
112 -10 112 -15 0 -5 11 -9 25 -9 14 0 25 3 25 8 0 9 93 52 114 52 13 0 16 11
16 55 0 44 -3 55 -16 55 -46 0 -73 89 -34 110 30 16 25 25 -22 37 -79 22 -73
-119 -75 1586 -1 1332 1 1527 13 1527 13 0 71 25 83 36 2 2 -8 17 -23 34 -29
35 -30 39 -17 73 6 16 24 30 45 38 20 7 36 18 36 24 0 5 10 15 23 20 14 7 22
19 22 35 0 18 -6 26 -22 28 -13 2 -23 10 -23 18 0 8 -9 14 -20 14 -24 0 -70
42 -70 63 0 8 11 31 25 52 15 20 24 39 22 41 -2 3 -24 8 -48 12 l-44 8 -3
1303 c-2 874 1 1307 8 1315 5 7 28 18 50 25 46 13 47 17 21 45 -33 36 -35 67
-6 99 14 15 30 27 36 27 5 0 26 16 46 35 38 37 39 65 3 65 -11 0 -20 7 -20 15
0 8 -9 15 -20 15 -12 0 -32 11 -46 26 -30 29 -27 64 8 101 12 13 20 25 17 27
-2 2 -24 8 -49 13 l-45 9 -3 1357 -2 1357 -75 0 -75 0 0 -32z"/>
</g>
</svg>
