<?xml version="1.0" standalone="no"?>
<!DOCTYPE svg PUBLIC "-//W3C//DTD SVG 20010904//EN"
 "http://www.w3.org/TR/2001/REC-SVG-20010904/DTD/svg10.dtd">
<svg version="1.0" xmlns="http://www.w3.org/2000/svg"
 width="2644.000000pt" height="2800.000000pt" viewBox="0 0 2644.000000 2800.000000"
 preserveAspectRatio="xMidYMid meet">

<g transform="translate(0.000000,2800.000000) scale(0.100000,-0.100000)"
fill="#C5C3C1" stroke="none">
<path d="M14988 14543 l-78 -160 0 -750 0 -750 -27 -6 c-52 -12 -59 -22 -34
-52 38 -49 22 -102 -36 -119 -13 -4 -23 -12 -23 -17 0 -5 -11 -14 -25 -19 -15
-6 -25 -17 -25 -30 0 -13 9 -22 25 -26 14 -3 25 -12 25 -20 0 -8 6 -14 14 -14
24 0 66 -41 66 -64 0 -13 -10 -36 -21 -51 -25 -30 -18 -40 34 -52 l27 -5 0
-1264 c0 -1031 -2 -1264 -13 -1264 -19 0 -67 -24 -67 -33 0 -4 9 -17 20 -29
28 -31 26 -72 -6 -97 -15 -12 -33 -21 -40 -21 -8 0 -14 -5 -14 -10 0 -6 -11
-16 -25 -22 -14 -6 -25 -20 -25 -30 0 -11 11 -23 25 -28 14 -5 25 -14 25 -20
0 -5 6 -10 14 -10 24 0 66 -41 66 -64 0 -13 -9 -35 -21 -50 -25 -32 -19 -43
26 -52 l35 -6 0 -1184 c0 -1160 0 -1184 -19 -1203 -11 -11 -34 -27 -51 -36
l-32 -17 22 -23 c29 -31 20 -70 -20 -93 -26 -15 -30 -23 -30 -59 l0 -41 48 -6
c26 -3 91 -8 144 -12 87 -5 105 -3 163 17 l65 24 0 42 c0 36 -4 44 -27 55 -41
20 -52 61 -26 96 l21 29 -36 13 c-21 7 -43 17 -49 22 -10 8 -13 259 -13 1194
l0 1184 40 16 c46 18 48 24 20 49 -13 11 -20 31 -20 52 0 28 6 37 31 51 18 9
39 25 48 35 8 9 21 17 27 17 18 0 26 31 13 46 -6 8 -18 14 -25 14 -8 0 -14 4
-14 9 0 5 -17 18 -37 28 -47 23 -55 61 -23 105 12 16 20 31 18 33 -1 2 -19 7
-38 12 l-35 9 -3 1262 c-2 1196 -1 1263 15 1268 10 3 28 10 41 15 l23 9 -20
26 c-29 37 -27 78 5 103 15 12 30 21 35 21 4 0 23 14 41 30 l32 30 -32 30
c-18 17 -39 30 -46 30 -20 0 -56 44 -56 70 0 13 9 34 21 46 26 28 19 41 -26
50 l-35 6 -2 911 -3 911 -77 -161z"/>
</g>
</svg>
