<?xml version="1.0" standalone="no"?>
<!DOCTYPE svg PUBLIC "-//W3C//DTD SVG 20010904//EN"
 "http://www.w3.org/TR/2001/REC-SVG-20010904/DTD/svg10.dtd">
<svg version="1.0" xmlns="http://www.w3.org/2000/svg"
 width="3542.000000pt" height="3750.000000pt" viewBox="0 0 3542.000000 3750.000000"
 preserveAspectRatio="xMidYMid meet">

<g transform="translate(0.000000,3750.000000) scale(0.100000,-0.100000)"
fill="#3a4548" stroke="none">
<path d="M12300 16460 l0 -2160 -24 0 c-38 0 -56 -10 -71 -41 -31 -59 -7 -149
39 -149 47 0 56 -9 56 -59 0 -34 -9 -64 -34 -111 -55 -103 -70 -169 -71 -300
0 -131 22 -220 75 -303 23 -37 30 -59 30 -97 l0 -50 -34 0 c-46 0 -76 -37 -76
-94 0 -56 22 -84 71 -92 l39 -7 0 -2164 c0 -1372 -4 -2171 -10 -2182 -5 -10
-35 -29 -66 -42 -51 -20 -55 -24 -36 -32 11 -5 26 -22 32 -38 15 -36 -3 -70
-49 -89 -29 -11 -31 -16 -31 -61 0 -55 -13 -48 140 -78 l94 -18 141 23 c77 13
141 24 143 24 1 0 2 23 2 51 0 47 -2 51 -30 61 -40 14 -65 60 -49 91 7 12 18
26 25 30 24 14 16 22 -36 41 -28 10 -55 26 -60 36 -7 12 -10 795 -10 2189 l0
2171 30 0 c64 0 101 83 68 155 -11 24 -22 30 -73 37 -37 6 -31 66 14 160 94
195 90 435 -9 591 -25 39 -30 58 -30 107 l0 60 40 0 c34 0 42 4 55 30 33 64 8
150 -44 150 -11 0 -26 3 -35 6 -15 6 -16 205 -16 2160 l0 2154 -100 0 -100 0
0 -2160z m140 -2638 c24 -78 29 -219 9 -297 -18 -74 -48 -140 -59 -129 -4 5
-18 38 -30 74 -24 72 -29 210 -11 291 15 66 49 141 61 134 5 -3 19 -36 30 -73z"/>
</g>
</svg>
