<?xml version="1.0" standalone="no"?>
<!DOCTYPE svg PUBLIC "-//W3C//DTD SVG 20010904//EN"
 "http://www.w3.org/TR/2001/REC-SVG-20010904/DTD/svg10.dtd">
<svg version="1.0" xmlns="http://www.w3.org/2000/svg"
 width="3542.000000pt" height="3750.000000pt" viewBox="0 0 3542.000000 3750.000000"
 preserveAspectRatio="xMidYMid meet">

<g transform="translate(0.000000,3750.000000) scale(0.100000,-0.100000)"
fill="#3a4548" stroke="none">
<path d="M13418 18632 l-38 -3 0 -2125 c0 -2018 -1 -2125 -17 -2123 -54 8
-100 -53 -89 -116 8 -39 30 -60 74 -70 31 -6 32 -8 32 -59 0 -31 -6 -61 -16
-74 -9 -13 -29 -60 -46 -105 -58 -159 -49 -350 23 -494 29 -58 39 -90 39 -125
l0 -48 -35 0 c-44 0 -70 -36 -70 -96 0 -51 24 -82 69 -86 l31 -3 6 -75 c4 -41
7 -1000 8 -2131 1 -1992 0 -2056 -18 -2075 -10 -11 -39 -28 -64 -38 l-45 -17
24 -24 c13 -13 24 -35 24 -48 0 -26 -33 -61 -67 -72 -20 -5 -23 -13 -23 -54
l0 -48 120 -23 120 -23 134 22 c73 11 136 21 140 21 3 0 6 22 6 50 0 47 -2 50
-34 64 -61 26 -73 94 -21 118 25 11 23 12 -37 42 l-63 31 -3 2146 -2 2146 23
-4 c37 -7 77 33 84 83 8 60 -19 102 -66 106 -34 3 -36 5 -39 42 -2 28 6 57 32
110 96 194 90 461 -14 606 -15 21 -20 44 -20 90 0 61 0 62 25 56 36 -9 61 8
75 50 24 72 -9 134 -72 134 l-28 0 0 2125 0 2125 -62 -3 c-35 -1 -80 -3 -100
-5z m98 -4707 c38 -109 28 -286 -22 -402 l-16 -38 -18 41 c-39 89 -49 199 -29
310 13 70 49 159 59 147 5 -4 16 -30 26 -58z"/>
</g>
</svg>
