<?xml version="1.0" standalone="no"?>
<!DOCTYPE svg PUBLIC "-//W3C//DTD SVG 20010904//EN"
 "http://www.w3.org/TR/2001/REC-SVG-20010904/DTD/svg10.dtd">
<svg version="1.0" xmlns="http://www.w3.org/2000/svg"
 width="3542.000000pt" height="3750.000000pt" viewBox="0 0 3542.000000 3750.000000"
 preserveAspectRatio="xMidYMid meet">

<g transform="translate(0.000000,3750.000000) scale(0.100000,-0.100000)"
fill="#3a4548" stroke="none">
<path d="M18310 16735 l0 -1965 -25 0 c-38 0 -65 -33 -65 -80 0 -62 17 -90 57
-90 l33 0 0 -53 c0 -30 -6 -62 -15 -73 -31 -45 -66 -174 -71 -267 -7 -111 11
-207 55 -297 21 -41 31 -77 31 -106 0 -42 -1 -44 -28 -42 -38 3 -50 -7 -62
-52 -18 -68 11 -120 67 -120 l23 0 0 -1972 c0 -1085 -4 -1978 -8 -1985 -4 -7
-29 -22 -56 -33 l-48 -22 22 -23 c33 -35 24 -76 -22 -98 -35 -17 -38 -22 -38
-61 l0 -42 108 -18 c136 -23 137 -23 265 -1 l107 18 0 44 c0 36 -4 45 -23 52
-58 22 -73 68 -36 108 l22 22 -49 21 c-27 12 -52 27 -56 33 -4 7 -8 902 -8
1990 l0 1977 28 0 c56 0 86 68 58 133 -10 25 -21 37 -35 37 -59 0 -68 47 -25
131 82 163 84 390 5 547 -22 44 -31 75 -31 111 l0 50 37 3 c33 3 39 8 51 40
24 62 -9 128 -63 128 l-25 0 0 1960 0 1960 -90 0 -90 0 0 -1965z m130 -2472
c6 -37 9 -93 5 -123 -8 -70 -35 -170 -46 -170 -18 0 -40 108 -40 197 0 87 9
142 33 202 l10 26 14 -32 c7 -17 18 -62 24 -100z"/>
</g>
</svg>
