<?xml version="1.0" standalone="no"?>
<!DOCTYPE svg PUBLIC "-//W3C//DTD SVG 20010904//EN"
 "http://www.w3.org/TR/2001/REC-SVG-20010904/DTD/svg10.dtd">
<svg version="1.0" xmlns="http://www.w3.org/2000/svg"
 width="3542.000000pt" height="3750.000000pt" viewBox="0 0 3542.000000 3750.000000"
 preserveAspectRatio="xMidYMid meet">

<g transform="translate(0.000000,3750.000000) scale(0.100000,-0.100000)"
fill="#3a4548" stroke="none">
<path d="M23480 16900 l0 -1850 -23 0 c-58 0 -89 -61 -63 -124 13 -32 19 -36
50 -36 l36 0 0 -49 c0 -34 -8 -62 -25 -92 -86 -149 -87 -364 -4 -518 18 -33
29 -70 29 -93 0 -35 -2 -38 -27 -38 -37 0 -49 -9 -63 -45 -21 -55 11 -115 62
-115 l28 0 -2 -1872 -3 -1873 -49 -23 -48 -23 23 -25 c30 -32 18 -73 -28 -94
-29 -13 -33 -20 -33 -56 l0 -41 125 -17 c116 -15 131 -15 225 0 l100 17 0 42
c0 38 -3 44 -31 55 -52 22 -59 82 -13 108 12 7 5 13 -34 30 -27 12 -52 29 -56
38 -3 8 -6 850 -6 1870 l0 1854 25 0 c33 0 75 42 75 75 0 14 -7 39 -15 55 -13
25 -22 30 -50 30 -34 0 -35 1 -35 40 0 26 12 60 35 103 82 149 80 339 -6 509
-18 35 -29 73 -29 98 0 39 1 40 35 40 28 0 37 5 50 30 18 35 19 64 4 93 -16
29 -28 37 -61 37 l-28 0 0 1855 0 1855 -85 0 -85 0 0 -1850z m117 -2263 c25
-73 25 -253 0 -319 -10 -27 -22 -48 -27 -48 -10 0 -34 61 -50 129 -17 71 -7
197 19 257 12 25 25 43 30 40 5 -4 18 -30 28 -59z"/>
</g>
</svg>
