<?xml version="1.0" standalone="no"?>
<!DOCTYPE svg PUBLIC "-//W3C//DTD SVG 20010904//EN"
 "http://www.w3.org/TR/2001/REC-SVG-20010904/DTD/svg10.dtd">
<svg version="1.0" xmlns="http://www.w3.org/2000/svg"
 width="3542.000000pt" height="3750.000000pt" viewBox="0 0 3542.000000 3750.000000"
 preserveAspectRatio="xMidYMid meet">

<g transform="translate(0.000000,3750.000000) scale(0.100000,-0.100000)"
fill="#3a4548" stroke="none">
<path d="M25430 16825 l0 -1905 -30 0 c-66 0 -94 -86 -49 -145 18 -22 28 -26
50 -21 29 5 29 5 29 -46 0 -38 -7 -62 -28 -97 -92 -149 -94 -360 -6 -528 19
-36 34 -80 34 -98 0 -29 -3 -33 -36 -38 -46 -8 -63 -31 -64 -84 0 -52 26 -83
70 -83 l30 0 0 -1914 c0 -1053 -3 -1922 -6 -1930 -4 -9 -29 -26 -56 -38 -40
-17 -47 -23 -33 -30 43 -25 33 -88 -17 -110 -24 -11 -28 -18 -28 -55 0 -24 1
-43 3 -44 1 0 60 -8 131 -19 119 -17 136 -17 205 -3 42 8 86 17 99 19 19 4 22
11 22 49 0 31 -4 45 -14 45 -23 0 -66 40 -66 63 0 11 10 31 21 44 l22 22 -44
19 c-24 11 -50 26 -56 34 -10 11 -12 437 -9 1924 l4 1909 33 7 c65 13 87 74
49 136 -17 28 -26 33 -51 30 -30 -3 -32 -1 -35 35 -2 29 5 53 32 101 47 86 65
153 66 245 0 106 -17 181 -63 274 -55 110 -53 157 7 157 27 0 36 6 50 31 10
21 14 43 10 65 -8 37 -49 76 -73 67 -33 -13 -31 -246 -33 3105 l0 712 -85 0
-85 0 0 -1905z m141 -2410 c6 -38 9 -97 6 -130 -6 -63 -42 -175 -56 -175 -14
0 -51 111 -61 178 -10 76 3 177 31 241 l21 46 23 -45 c13 -25 29 -76 36 -115z"/>
</g>
</svg>
