<?xml version="1.0" standalone="no"?>
<!DOCTYPE svg PUBLIC "-//W3C//DTD SVG 20010904//EN"
 "http://www.w3.org/TR/2001/REC-SVG-20010904/DTD/svg10.dtd">
<svg version="1.0" xmlns="http://www.w3.org/2000/svg"
 width="3542.000000pt" height="3750.000000pt" viewBox="0 0 3542.000000 3750.000000"
 preserveAspectRatio="xMidYMid meet">

<g transform="translate(0.000000,3750.000000) scale(0.100000,-0.100000)"
fill="#65340A" stroke="none">
<path d="M17390 14092 c0 -4368 -1 -4600 -17 -4614 -10 -8 -38 -23 -61 -33
-35 -15 -41 -21 -30 -29 8 -6 20 -21 27 -34 10 -19 10 -28 -4 -48 -9 -14 -29
-31 -44 -37 -22 -10 -27 -19 -30 -53 -1 -23 2 -45 8 -48 6 -4 62 -14 124 -23
108 -16 120 -16 235 2 l122 18 0 46 c0 43 -3 47 -38 66 -49 26 -57 72 -17 103
l25 20 -46 18 c-25 10 -52 24 -60 31 -12 12 -14 691 -14 4614 l0 4599 -90 0
-90 0 0 -4598z"/>
</g>
</svg>
