<?xml version="1.0" standalone="no"?>
<!DOCTYPE svg PUBLIC "-//W3C//DTD SVG 20010904//EN"
 "http://www.w3.org/TR/2001/REC-SVG-20010904/DTD/svg10.dtd">
<svg version="1.0" xmlns="http://www.w3.org/2000/svg"
 width="3542.000000pt" height="3750.000000pt" viewBox="0 0 3542.000000 3750.000000"
 preserveAspectRatio="xMidYMid meet">

<g transform="translate(0.000000,3750.000000) scale(0.100000,-0.100000)"
fill="#65340A" stroke="none">
<path d="M2149 16203 c-1 -1253 -1 -3836 1 -5740 2 -2538 -1 -3463 -9 -3463
-6 0 -11 -6 -11 -14 0 -12 -22 -24 -108 -57 l-24 -9 31 -29 c20 -18 31 -39 31
-55 0 -32 -37 -72 -74 -82 -24 -6 -26 -10 -26 -68 l0 -61 113 -31 112 -30 190
33 c105 18 191 33 193 33 1 0 2 27 2 59 0 58 -1 60 -30 66 -16 4 -41 20 -54
36 -21 25 -23 34 -15 61 5 18 9 34 9 35 0 1 12 8 26 16 25 13 25 13 -41 41
-36 16 -70 37 -75 46 -6 12 -10 2105 -10 5754 l0 5736 -115 0 -115 0 -1 -2277z"/>
</g>
</svg>
