<?xml version="1.0" standalone="no"?>
<!DOCTYPE svg PUBLIC "-//W3C//DTD SVG 20010904//EN"
 "http://www.w3.org/TR/2001/REC-SVG-20010904/DTD/svg10.dtd">
<svg version="1.0" xmlns="http://www.w3.org/2000/svg"
 width="3542.000000pt" height="3750.000000pt" viewBox="0 0 3542.000000 3750.000000"
 preserveAspectRatio="xMidYMid meet">

<g transform="translate(0.000000,3750.000000) scale(0.100000,-0.100000)"
fill="#65340A" stroke="none">
<path d="M21748 14473 l-3 -4278 -53 -26 c-52 -25 -52 -26 -32 -44 36 -32 20
-84 -30 -100 -16 -5 -20 -15 -20 -50 0 -50 -15 -43 150 -68 68 -10 100 -10
160 0 154 25 140 18 140 67 0 40 -3 45 -29 54 -54 19 -64 79 -19 103 19 10 17
13 -33 38 l-54 26 -3 4278 -2 4277 -85 0 -85 0 -2 -4277z"/>
</g>
</svg>
