<?xml version="1.0" standalone="no"?>
<!DOCTYPE svg PUBLIC "-//W3C//DTD SVG 20010904//EN"
 "http://www.w3.org/TR/2001/REC-SVG-20010904/DTD/svg10.dtd">
<svg version="1.0" xmlns="http://www.w3.org/2000/svg"
 width="3542.000000pt" height="3750.000000pt" viewBox="0 0 3542.000000 3750.000000"
 preserveAspectRatio="xMidYMid meet">

<g transform="translate(0.000000,3750.000000) scale(0.100000,-0.100000)"
fill="#65340A" stroke="none">
<path d="M23480 14481 c0 -3936 -1 -4271 -16 -4286 -9 -9 -35 -23 -56 -32 -32
-13 -37 -18 -24 -25 46 -26 37 -87 -15 -109 -26 -10 -29 -16 -29 -55 0 -28 4
-44 12 -44 7 0 62 -7 123 -16 103 -15 117 -15 213 1 l102 18 0 41 c-1 35 -5
44 -33 61 -41 26 -49 75 -17 98 21 15 21 16 -26 36 -27 12 -52 27 -56 34 -4 7
-8 1932 -8 4280 l0 4267 -85 0 -85 0 0 -4269z"/>
</g>
</svg>
