<?xml version="1.0" standalone="no"?>
<!DOCTYPE svg PUBLIC "-//W3C//DTD SVG 20010904//EN"
 "http://www.w3.org/TR/2001/REC-SVG-20010904/DTD/svg10.dtd">
<svg version="1.0" xmlns="http://www.w3.org/2000/svg"
 width="3542.000000pt" height="3750.000000pt" viewBox="0 0 3542.000000 3750.000000"
 preserveAspectRatio="xMidYMid meet">

<g transform="translate(0.000000,3750.000000) scale(0.100000,-0.100000)"
fill="#65340A" stroke="none">
<path d="M27490 14190 c0 -2842 -4 -4528 -10 -4539 -5 -10 -30 -26 -55 -36
l-46 -17 20 -22 c29 -31 27 -70 -5 -95 -15 -12 -33 -21 -41 -21 -11 0 -13 -12
-11 -47 l3 -47 138 -19 c136 -19 141 -19 235 0 l97 18 3 47 c3 40 0 47 -18 53
-27 9 -60 44 -60 66 0 9 11 27 24 40 l24 23 -47 21 c-25 12 -52 29 -58 37 -10
12 -13 939 -15 4534 l-3 4519 -87 3 -88 3 0 -4521z"/>
</g>
</svg>
