<?xml version="1.0" standalone="no"?>
<!DOCTYPE svg PUBLIC "-//W3C//DTD SVG 20010904//EN"
 "http://www.w3.org/TR/2001/REC-SVG-20010904/DTD/svg10.dtd">
<svg version="1.0" xmlns="http://www.w3.org/2000/svg"
 width="3542.000000pt" height="3750.000000pt" viewBox="0 0 3542.000000 3750.000000"
 preserveAspectRatio="xMidYMid meet">

<g transform="translate(0.000000,3750.000000) scale(0.100000,-0.100000)"
fill="#65340A" stroke="none">
<path d="M29680 14026 c0 -2560 -3 -4662 -6 -4670 -4 -9 -28 -26 -55 -37 -27
-12 -49 -25 -49 -29 0 -4 9 -15 20 -25 11 -10 20 -28 20 -41 0 -23 -42 -64
-66 -64 -10 0 -14 -14 -14 -49 0 -56 -1 -55 95 -67 33 -5 62 -9 65 -9 60 -15
149 -15 217 0 121 26 113 20 113 76 0 41 -3 49 -18 49 -27 0 -62 42 -62 73 0
16 8 32 20 39 29 18 25 24 -25 44 -25 9 -50 25 -55 35 -6 11 -10 1761 -10
4673 l0 4656 -95 0 -95 0 0 -4654z"/>
</g>
</svg>
