<?xml version="1.0" standalone="no"?>
<!DOCTYPE svg PUBLIC "-//W3C//DTD SVG 20010904//EN"
 "http://www.w3.org/TR/2001/REC-SVG-20010904/DTD/svg10.dtd">
<svg version="1.0" xmlns="http://www.w3.org/2000/svg"
 width="3542.000000pt" height="3750.000000pt" viewBox="0 0 3542.000000 3750.000000"
 preserveAspectRatio="xMidYMid meet">

<g transform="translate(0.000000,3750.000000) scale(0.100000,-0.100000)"
fill="#65340A" stroke="none">
<path d="M30830 14848 c-1 -2103 -1 -4231 0 -4730 1 -1022 9 -925 -77 -963
-49 -20 -51 -25 -23 -43 42 -26 10 -112 -42 -112 -17 0 -19 -7 -16 -52 l3 -52
150 -21 c137 -20 155 -20 215 -7 139 30 125 22 128 80 3 45 1 52 -16 52 -26 0
-62 41 -62 72 0 16 10 34 24 45 l24 19 -49 20 c-28 10 -56 28 -64 40 -11 18
-14 159 -14 870 0 467 0 2594 0 4727 l-1 3877 -90 0 -90 0 0 -3822z"/>
</g>
</svg>
