<?xml version="1.0" standalone="no"?>
<!DOCTYPE svg PUBLIC "-//W3C//DTD SVG 20010904//EN"
 "http://www.w3.org/TR/2001/REC-SVG-20010904/DTD/svg10.dtd">
<svg version="1.0" xmlns="http://www.w3.org/2000/svg"
 width="2551.000000pt" height="2701.000000pt" viewBox="0 0 2551.000000 2701.000000"
 preserveAspectRatio="xMidYMid meet">

<g transform="translate(0.000000,2701.000000) scale(0.100000,-0.100000)"
fill="#3a4548" stroke="none">
<path d="M5912 13502 l-52 -47 -3 -570 -2 -570 -145 -5 -145 -5 1 -2798 c0
-1538 3 -2800 6 -2803 3 -3 68 -6 144 -7 l139 -2 3 -352 2 -351 -34 -21 c-41
-26 -51 -48 -31 -71 21 -23 19 -41 -10 -69 -21 -19 -25 -33 -25 -77 l0 -54
150 0 149 0 16 30 c8 16 15 47 15 70 0 33 -4 42 -24 52 -35 15 -39 35 -16 68
11 15 20 31 20 34 0 3 -16 12 -35 20 -20 9 -39 26 -44 39 -5 13 -9 172 -8 353
l2 329 145 5 145 5 3 2803 2 2802 -144 0 c-106 0 -145 3 -148 13 -2 6 -3 285
-3 620 1 422 -2 607 -9 607 -6 0 -35 -22 -64 -48z m238 -1625 c-1 -172 0
-1378 2 -2682 l3 -2370 -230 0 -230 0 -3 2682 -2 2682 122 3 c68 2 171 2 231
0 l107 -3 0 -312z"/>
</g>
</svg>
