<?xml version="1.0" standalone="no"?>
<!DOCTYPE svg PUBLIC "-//W3C//DTD SVG 20010904//EN"
 "http://www.w3.org/TR/2001/REC-SVG-20010904/DTD/svg10.dtd">
<svg version="1.0" xmlns="http://www.w3.org/2000/svg"
 width="2551.000000pt" height="2701.000000pt" viewBox="0 0 2551.000000 2701.000000"
 preserveAspectRatio="xMidYMid meet">

<g transform="translate(0.000000,2701.000000) scale(0.100000,-0.100000)"
fill="#3a4548" stroke="none">
<path d="M7120 14497 c-14 -12 -38 -32 -53 -44 l-28 -22 -2 -598 -2 -598 -147
-3 -148 -3 0 -2804 0 -2805 134 0 c74 0 141 -3 150 -6 14 -6 16 -86 16 -810
l0 -805 -35 -20 c-49 -29 -60 -52 -35 -74 25 -23 25 -41 0 -55 -23 -12 -43
-73 -38 -115 l3 -30 152 0 c84 0 155 4 159 8 5 4 10 36 12 71 4 57 2 64 -17
69 -30 8 -37 35 -16 70 17 29 17 31 0 44 -11 7 -25 13 -32 13 -7 0 -17 9 -23
19 -7 13 -10 287 -10 819 l0 799 135 -1 c75 -1 140 1 145 4 9 6 13 1762 10
5037 l0 572 -142 3 -143 3 -3 643 c-1 353 -5 642 -10 642 -4 0 -18 -11 -32
-23z m205 -4068 l0 -2684 -227 -2 c-194 -2 -227 0 -232 13 -3 8 -4 95 -2 192
2 97 5 1298 5 2669 l1 2492 83 3 c45 2 147 2 227 2 l145 -1 0 -2684z"/>
</g>
</svg>
