<?xml version="1.0" standalone="no"?>
<!DOCTYPE svg PUBLIC "-//W3C//DTD SVG 20010904//EN"
 "http://www.w3.org/TR/2001/REC-SVG-20010904/DTD/svg10.dtd">
<svg version="1.0" xmlns="http://www.w3.org/2000/svg"
 width="2551.000000pt" height="2701.000000pt" viewBox="0 0 2551.000000 2701.000000"
 preserveAspectRatio="xMidYMid meet">

<g transform="translate(0.000000,2701.000000) scale(0.100000,-0.100000)"
fill="#3a4548" stroke="none">
<path d="M10618 17375 l-58 -47 0 -574 0 -574 -145 0 -145 0 0 -2805 0 -2804
147 -3 148 -3 0 -340 c0 -187 -1 -346 -3 -353 -3 -7 -22 -22 -43 -33 -22 -11
-39 -22 -39 -25 0 -2 10 -18 21 -34 24 -32 20 -59 -11 -67 -17 -5 -20 -14 -20
-64 l0 -59 155 0 155 0 0 54 c0 46 -3 56 -25 70 -28 19 -33 57 -10 76 24 20
18 33 -23 55 l-37 20 -3 353 -2 352 145 0 145 0 0 68 c4 663 7 5519 3 5529 -4
10 -39 13 -149 13 l-144 0 -2 621 -3 621 -57 -47z m237 -3995 l0 -2685 -230 0
-230 0 -3 2679 c-1 1777 1 2682 8 2686 5 3 110 6 232 6 l223 -1 0 -2685z"/>
</g>
</svg>
