<?xml version="1.0" standalone="no"?>
<!DOCTYPE svg PUBLIC "-//W3C//DTD SVG 20010904//EN"
 "http://www.w3.org/TR/2001/REC-SVG-20010904/DTD/svg10.dtd">
<svg version="1.0" xmlns="http://www.w3.org/2000/svg"
 width="2551.000000pt" height="2701.000000pt" viewBox="0 0 2551.000000 2701.000000"
 preserveAspectRatio="xMidYMid meet">

<g transform="translate(0.000000,2701.000000) scale(0.100000,-0.100000)"
fill="#3a4548" stroke="none">
<path d="M12962 19302 l-53 -47 -2 -570 -2 -570 -142 -3 -143 -3 -2 -2132 c-2
-1172 -2 -2432 0 -2799 l2 -668 145 0 145 0 0 -355 0 -355 -32 -20 c-18 -11
-37 -21 -42 -23 -5 -2 1 -17 13 -34 19 -25 21 -34 12 -52 -6 -11 -21 -25 -32
-31 -16 -9 -20 -19 -17 -58 l3 -47 158 -3 157 -3 0 40 c0 49 -8 71 -26 71 -8
0 -20 11 -26 25 -10 22 -8 30 10 55 l22 29 -32 17 c-18 9 -36 22 -40 28 -4 6
-8 170 -8 364 l0 353 78 -1 c42 -1 107 -1 145 -1 l67 1 0 2800 0 2800 -145 0
-145 0 0 620 c0 341 -3 620 -7 620 -5 0 -32 -22 -61 -48z m238 -3986 l0 -2685
-137 -3 c-76 -2 -181 -2 -234 0 l-96 3 4 2572 c2 1415 3 2623 3 2685 l0 112
230 0 230 0 0 -2684z"/>
</g>
</svg>
