<?xml version="1.0" standalone="no"?>
<!DOCTYPE svg PUBLIC "-//W3C//DTD SVG 20010904//EN"
 "http://www.w3.org/TR/2001/REC-SVG-20010904/DTD/svg10.dtd">
<svg version="1.0" xmlns="http://www.w3.org/2000/svg"
 width="2644.000000pt" height="2800.000000pt" viewBox="0 0 2644.000000 2800.000000"
 preserveAspectRatio="xMidYMid meet">

<g transform="translate(0.000000,2800.000000) scale(0.100000,-0.100000)"
fill="#C5C3C1" stroke="none">
<path d="M1590 14020 c-7 -13 -9 -216 -8 -624 l3 -604 -72 -7 -73 -7 0 -1429
0 -1429 43 -1 c23 -1 56 0 72 1 l30 1 0 -110 0 -109 -72 -7 -73 -7 0 -1269 0
-1269 38 -1 c48 -2 43 -2 77 5 l30 6 0 -792 c0 -436 -4 -801 -8 -810 -5 -9
-29 -25 -53 -34 -50 -19 -52 -24 -24 -42 29 -18 25 -57 -7 -81 -16 -12 -33
-25 -39 -30 -6 -5 -11 -24 -10 -43 l1 -33 125 -11 c120 -10 128 -9 220 16 l95
26 3 39 c2 36 -1 41 -30 55 -42 19 -51 69 -18 93 21 14 20 15 -28 31 -30 10
-66 15 -93 12 l-44 -5 37 11 38 11 2 816 3 815 40 11 c22 5 55 19 73 30 l32
19 -2 1226 -3 1225 -73 -3 -73 -4 3 109 3 108 73 3 72 3 -2 1432 -3 1432 -72
3 -73 3 0 619 0 620 -75 0 c-64 0 -76 -3 -85 -20z m177 -2657 l-2 -1318 -92
-3 -93 -3 0 1315 0 1315 28 4 c15 2 57 5 94 6 l67 1 -2 -1317z m-5 -1820 c7
-76 2 -2192 -5 -2199 -6 -6 -152 -44 -169 -44 -5 0 -8 513 -8 1139 l0 1140 28
4 c15 2 55 5 88 6 l62 1 4 -47z"/>
</g>
</svg>
