<?xml version="1.0" standalone="no"?>
<!DOCTYPE svg PUBLIC "-//W3C//DTD SVG 20010904//EN"
 "http://www.w3.org/TR/2001/REC-SVG-20010904/DTD/svg10.dtd">
<svg version="1.0" xmlns="http://www.w3.org/2000/svg"
 width="2644.000000pt" height="2800.000000pt" viewBox="0 0 2644.000000 2800.000000"
 preserveAspectRatio="xMidYMid meet">

<g transform="translate(0.000000,2800.000000) scale(0.100000,-0.100000)"
fill="#C5C3C1" stroke="none">
<path d="M10363 17174 c-10 -4 -13 -45 -13 -155 l0 -149 -35 0 -35 0 -2 -1140
-3 -1139 38 -6 37 -7 0 -84 0 -84 -35 0 -35 0 0 -1025 0 -1025 35 0 35 0 0
-165 0 -164 -32 -17 c-44 -22 -44 -21 -24 -43 20 -22 10 -53 -24 -71 -13 -7
-20 -21 -20 -40 l0 -30 83 -2 c98 -3 194 0 225 7 30 7 32 61 2 70 -33 10 -44
42 -25 71 16 24 15 25 -15 35 -17 6 -35 19 -40 29 -12 22 -13 299 -2 317 4 6
24 14 45 18 l37 7 0 1002 0 1002 -42 10 -42 9 -1 83 -1 82 43 0 43 0 0 1138 0
1138 -42 10 -42 9 -1 147 c-1 81 -4 150 -8 154 -8 9 -89 15 -104 8z m97 -1460
l0 -1056 -22 6 c-13 3 -33 6 -45 6 l-23 0 0 1050 0 1050 45 0 45 0 0 -1056z
m0 -2328 l0 -923 -37 -6 c-20 -4 -40 -4 -45 -1 -9 6 -11 1837 -1 1847 3 4 24
7 45 7 l38 0 0 -924z"/>
</g>
</svg>
