<?xml version="1.0" standalone="no"?>
<!DOCTYPE svg PUBLIC "-//W3C//DTD SVG 20010904//EN"
 "http://www.w3.org/TR/2001/REC-SVG-20010904/DTD/svg10.dtd">
<svg version="1.0" xmlns="http://www.w3.org/2000/svg"
 width="2644.000000pt" height="2800.000000pt" viewBox="0 0 2644.000000 2800.000000"
 preserveAspectRatio="xMidYMid meet">

<g transform="translate(0.000000,2800.000000) scale(0.100000,-0.100000)"
fill="#C5C3C1" stroke="none">
<path d="M3010 14021 c-6 -13 -10 -230 -10 -635 l0 -616 -32 0 c-18 0 -50 -3
-70 -6 l-38 -7 3 -1431 2 -1431 68 -3 67 -3 0 -114 0 -115 -32 0 c-18 0 -50
-3 -70 -6 l-38 -7 0 -1062 c0 -584 3 -1164 7 -1290 l6 -227 64 5 63 5 0 -802
c0 -440 -4 -806 -8 -812 -4 -6 -27 -21 -51 -33 l-43 -22 23 -25 c22 -23 23
-27 8 -52 -8 -15 -27 -33 -42 -40 -22 -11 -27 -20 -27 -51 0 -38 1 -39 43 -45
110 -15 214 -18 257 -6 156 41 150 38 150 81 0 35 -4 40 -34 53 -19 8 -37 24
-41 36 -7 23 17 70 38 71 6 0 -12 9 -42 20 -43 15 -62 17 -90 9 -19 -5 -37 -7
-39 -5 -5 5 43 25 59 25 5 0 9 320 9 825 l0 824 52 16 c28 8 58 15 65 15 11 0
13 224 13 1261 l0 1262 -65 -7 -65 -7 0 111 c0 107 1 110 23 111 12 1 29 3 37
4 8 1 27 3 43 4 l27 1 0 1446 0 1447 -65 -7 -65 -7 0 631 0 630 -75 0 c-63 0
-76 -3 -85 -19z m158 -2683 l-3 -1323 -82 -3 -83 -3 0 1320 0 1320 33 4 c17 2
56 5 85 5 l52 2 -2 -1322z m2 -2928 l0 -1139 -77 -24 c-43 -13 -81 -22 -85
-20 -5 2 -8 523 -8 1158 l0 1154 33 4 c17 2 56 5 85 5 l52 2 0 -1140z"/>
</g>
</svg>
