<?xml version="1.0" standalone="no"?>
<!DOCTYPE svg PUBLIC "-//W3C//DTD SVG 20010904//EN"
 "http://www.w3.org/TR/2001/REC-SVG-20010904/DTD/svg10.dtd">
<svg version="1.0" xmlns="http://www.w3.org/2000/svg"
 width="2644.000000pt" height="2800.000000pt" viewBox="0 0 2644.000000 2800.000000"
 preserveAspectRatio="xMidYMid meet">

<g transform="translate(0.000000,2800.000000) scale(0.100000,-0.100000)"
fill="#C5C3C1" stroke="none">
<path d="M3722 13421 c3 -613 3 -620 -17 -625 -11 -3 -41 -6 -68 -6 l-47 0 2
-1422 3 -1423 60 0 60 0 5 -105 c3 -58 4 -107 2 -110 -1 -2 -32 -6 -67 -8
l-65 -4 0 -1268 0 -1268 29 -7 c16 -3 45 -3 65 1 l36 6 0 -787 c0 -471 -4
-793 -9 -804 -6 -10 -28 -26 -51 -36 l-40 -18 21 -23 c28 -30 19 -68 -21 -89
-25 -13 -30 -21 -30 -54 0 -47 2 -48 160 -56 101 -4 124 -2 190 17 l75 23 3
43 c3 33 -1 44 -15 49 -52 18 -67 57 -33 88 11 10 20 21 20 24 0 4 -20 12 -45
19 -33 9 -46 18 -50 34 -3 13 -4 383 -3 822 l3 800 57 15 56 15 4 60 c3 34 5
591 7 1239 l2 1177 -66 0 -65 0 0 105 0 105 65 0 65 0 0 1430 0 1430 -65 0
-65 0 0 615 0 615 -85 0 -85 0 2 -619z m158 -868 c1 -265 1 -2090 1 -2288 l-1
-201 -75 0 -75 -1 0 1308 0 1308 33 4 c17 2 51 5 75 5 l42 2 0 -137z m0 -2985
c0 -29 0 -512 0 -1073 0 -561 0 -1043 0 -1072 l0 -52 -66 -21 c-36 -11 -70
-20 -75 -20 -5 0 -9 476 -9 1139 l0 1140 38 4 c20 2 54 4 75 5 l37 2 0 -52z"/>
</g>
</svg>
