<?xml version="1.0" standalone="no"?>
<!DOCTYPE svg PUBLIC "-//W3C//DTD SVG 20010904//EN"
 "http://www.w3.org/TR/2001/REC-SVG-20010904/DTD/svg10.dtd">
<svg version="1.0" xmlns="http://www.w3.org/2000/svg"
 width="2644.000000pt" height="2800.000000pt" viewBox="0 0 2644.000000 2800.000000"
 preserveAspectRatio="xMidYMid meet">

<g transform="translate(0.000000,2800.000000) scale(0.100000,-0.100000)"
fill="#C5C3C1" stroke="none">
<path d="M7298 16858 l-3 -603 -58 -3 -57 -3 2 -1277 3 -1277 55 -5 55 -5 0
-95 0 -95 -57 -3 -58 -3 0 -1140 0 -1141 60 4 60 3 0 -593 c0 -406 -3 -600
-11 -614 -6 -11 -26 -26 -46 -34 -33 -14 -34 -16 -19 -33 9 -10 16 -27 16 -38
0 -21 -29 -53 -48 -53 -7 0 -12 -16 -12 -39 l0 -40 118 -3 c104 -3 150 1 230
18 17 3 22 11 22 37 0 25 -7 36 -30 49 -34 19 -39 51 -14 79 15 17 14 19 -22
34 -21 9 -42 21 -46 28 -4 7 -8 285 -8 620 l0 607 24 0 c13 0 38 3 55 6 l31 7
0 1107 c0 1227 6 1120 -65 1120 -39 0 -42 8 -39 125 l1 80 31 -3 c18 -2 41 -1
52 3 20 6 20 11 20 1275 l0 1268 -22 6 c-13 3 -38 6 -55 6 l-33 0 0 610 0 610
-65 0 -65 0 -2 -602z m93 -718 l29 0 0 -1169 0 -1168 -31 -7 c-17 -3 -44 -6
-60 -6 l-29 0 0 1181 0 1182 31 -7 c17 -3 44 -6 60 -6z m0 -2760 l29 0 0
-1019 c0 -963 -1 -1020 -17 -1025 -10 -2 -37 -8 -60 -11 l-43 -7 0 1037 0
1038 31 -7 c17 -3 44 -6 60 -6z"/>
</g>
</svg>
