<?xml version="1.0" standalone="no"?>
<!DOCTYPE svg PUBLIC "-//W3C//DTD SVG 20010904//EN"
 "http://www.w3.org/TR/2001/REC-SVG-20010904/DTD/svg10.dtd">
<svg version="1.0" xmlns="http://www.w3.org/2000/svg"
 width="2644.000000pt" height="2800.000000pt" viewBox="0 0 2644.000000 2800.000000"
 preserveAspectRatio="xMidYMid meet">

<g transform="translate(0.000000,2800.000000) scale(0.100000,-0.100000)"
fill="#C5C3C1" stroke="none">
<path d="M23772 27103 l3 -898 133 2 132 3 0 -120 c0 -140 16 -126 -155 -134
-60 -3 -111 -6 -113 -6 -1 0 -1 -602 0 -1337 l3 -1338 133 2 132 3 -2 -873 -3
-872 -35 -17 c-19 -10 -39 -20 -45 -22 -6 -1 -3 -12 7 -22 32 -37 27 -80 -12
-102 -16 -9 -30 -21 -30 -25 0 -8 187 -2 299 9 39 4 50 9 42 17 -17 17 -13 49
10 73 l21 22 -32 17 c-17 9 -40 25 -51 36 -19 19 -19 40 -19 899 l0 880 48 0
c26 0 84 3 130 7 l82 6 0 1324 c0 1046 -3 1327 -12 1337 -10 9 -43 11 -131 7
l-117 -6 0 128 0 127 48 0 c26 0 84 3 130 7 l82 6 0 878 0 879 -65 0 -65 0 0
-810 0 -809 -32 -5 c-39 -6 -312 -26 -357 -26 l-31 0 0 825 0 825 -65 0 -65 0
2 -897z m548 -2458 l0 -1194 -32 -5 c-39 -6 -312 -26 -357 -26 l-31 0 0 1200
0 1200 58 1 c31 1 104 5 162 9 58 3 126 7 153 8 l47 2 0 -1195z"/>
</g>
</svg>
