<?xml version="1.0" standalone="no"?>
<!DOCTYPE svg PUBLIC "-//W3C//DTD SVG 20010904//EN"
 "http://www.w3.org/TR/2001/REC-SVG-20010904/DTD/svg10.dtd">
<svg version="1.0" xmlns="http://www.w3.org/2000/svg"
 width="2644.000000pt" height="2800.000000pt" viewBox="0 0 2644.000000 2800.000000"
 preserveAspectRatio="xMidYMid meet">

<g transform="translate(0.000000,2800.000000) scale(0.100000,-0.100000)"
fill="#C5C3C1" stroke="none">
<path d="M25030 27693 l0 -306 140 7 140 6 0 -120 c0 -140 15 -126 -152 -134
-59 -2 -112 -7 -118 -11 -7 -4 -10 -433 -10 -1334 0 -1162 2 -1330 15 -1341
14 -12 153 -8 228 6 l27 6 0 -374 c0 -205 -4 -378 -8 -385 -4 -6 -26 -19 -50
-28 l-43 -18 20 -21 c26 -27 27 -63 4 -89 -18 -19 -17 -19 67 -13 220 17 220
17 220 37 0 10 10 29 21 40 12 12 17 24 13 28 -5 3 -28 18 -52 34 l-42 27 0
384 0 384 63 6 c34 3 95 9 135 12 l72 7 0 1338 0 1338 -107 -5 c-60 -3 -118
-6 -130 -8 -23 -3 -23 -2 -23 125 l0 129 48 0 c26 0 84 3 130 7 l82 6 0 283 0
284 -65 0 -65 0 0 -215 0 -214 -32 -5 c-65 -11 -368 -28 -383 -22 -13 5 -15
38 -15 231 l0 225 -65 0 -65 0 0 -307z m560 -1858 c0 -657 -3 -1195 -7 -1195
-5 0 -80 -7 -168 -15 -88 -8 -181 -15 -207 -15 l-48 0 0 1195 c0 948 3 1197
13 1200 11 4 266 20 370 23 l47 2 0 -1195z"/>
</g>
</svg>
