<?xml version="1.0" standalone="no"?>
<!DOCTYPE svg PUBLIC "-//W3C//DTD SVG 20010904//EN"
 "http://www.w3.org/TR/2001/REC-SVG-20010904/DTD/svg10.dtd">
<svg version="1.0" xmlns="http://www.w3.org/2000/svg"
 width="2644.000000pt" height="2800.000000pt" viewBox="0 0 2644.000000 2800.000000"
 preserveAspectRatio="xMidYMid meet">

<g transform="translate(0.000000,2800.000000) scale(0.100000,-0.100000)"
fill="#C5C3C1" stroke="none">
<path d="M14990 14544 l-75 -149 -3 -322 -3 -323 -39 0 -40 0 0 -1495 0 -1495
40 0 40 0 0 -120 0 -120 -40 0 -40 0 0 -1384 0 -1384 40 -7 39 -7 1 -342 c0
-189 -2 -351 -6 -360 -4 -9 -25 -26 -48 -38 -22 -11 -43 -22 -44 -23 -2 -2 6
-16 18 -32 18 -25 19 -33 9 -56 -6 -14 -25 -31 -40 -38 -26 -10 -29 -16 -29
-55 0 -35 4 -44 18 -45 9 0 24 -2 32 -3 8 -2 68 -6 134 -10 108 -7 124 -5 182
15 l64 23 0 48 c0 36 -4 48 -15 48 -22 0 -55 37 -55 60 0 11 9 29 20 40 11 11
20 22 20 24 0 3 -17 10 -37 17 -21 6 -44 16 -50 22 -10 7 -13 98 -13 392 l0
382 40 12 40 12 0 387 c1 213 1 815 0 1337 0 523 0 956 0 963 0 7 -15 12 -40
12 l-40 0 0 115 0 115 40 0 40 0 0 188 c1 344 1 2777 0 2795 0 13 -9 17 -40
17 l-40 0 -2 466 -3 467 -75 -149z m40 -2289 l0 -1375 -34 0 c-19 0 -36 6 -38
13 -4 11 -3 2153 1 2575 l1 162 35 0 35 0 0 -1375z m0 -3083 l0 -1228 -32 -12
c-17 -6 -33 -10 -35 -8 -3 3 -6 2058 -3 2424 l0 52 35 0 35 0 0 -1228z"/>
</g>
</svg>
