<?xml version="1.0" standalone="no"?>
<!DOCTYPE svg PUBLIC "-//W3C//DTD SVG 20010904//EN"
 "http://www.w3.org/TR/2001/REC-SVG-20010904/DTD/svg10.dtd">
<svg version="1.0" xmlns="http://www.w3.org/2000/svg"
 width="2644.000000pt" height="2800.000000pt" viewBox="0 0 2644.000000 2800.000000"
 preserveAspectRatio="xMidYMid meet">

<g transform="translate(0.000000,2800.000000) scale(0.100000,-0.100000)"
fill="#C5C3C1" stroke="none">
<path d="M19287 26022 l-57 -58 0 -576 0 -576 -22 -5 c-13 -3 -69 -9 -126 -13
l-102 -7 2 -1466 3 -1466 124 0 124 0 -2 -110 c-1 -60 -4 -111 -7 -114 -2 -3
-58 -9 -124 -15 l-120 -9 0 -1329 0 -1328 125 0 125 0 0 -834 c0 -459 -3 -842
-6 -851 -4 -9 -24 -23 -45 -32 -43 -17 -45 -20 -24 -47 28 -37 12 -84 -35 -98
-9 -3 -15 -18 -16 -38 l-1 -33 191 6 c105 4 197 7 204 7 6 0 12 11 12 25 0 14
-6 25 -13 25 -18 0 -57 42 -57 62 0 8 9 27 20 41 l20 25 -29 10 c-16 6 -39 20
-50 31 -21 21 -21 24 -21 865 l0 844 115 7 115 7 -2 1336 -3 1337 -95 2 c-52
1 -103 2 -112 2 -16 1 -18 13 -18 105 0 61 4 107 10 111 6 4 54 11 107 16 53
5 101 13 105 17 4 4 8 662 8 1462 0 1157 -3 1457 -13 1467 -9 9 -34 11 -97 5
-47 -4 -93 -6 -103 -4 -17 3 -18 35 -17 585 0 320 1 596 0 614 0 21 -7 36 -18
42 -15 8 -29 0 -75 -47z m193 -1554 c1 -451 1 -2148 0 -2301 0 -92 -4 -156 -9
-153 -8 6 -199 -6 -313 -19 l-48 -6 0 1331 c0 1056 3 1331 13 1335 6 2 86 10
177 18 91 8 168 15 173 16 4 0 7 -99 7 -221z m0 -3045 c2 -468 0 -2326 -3
-2329 -1 -2 -85 -6 -185 -10 l-182 -7 0 1197 c0 948 3 1198 13 1201 6 2 86 10
177 18 91 8 168 15 173 16 4 0 7 -38 7 -86z"/>
</g>
</svg>
