<?xml version="1.0" standalone="no"?>
<!DOCTYPE svg PUBLIC "-//W3C//DTD SVG 20010904//EN"
 "http://www.w3.org/TR/2001/REC-SVG-20010904/DTD/svg10.dtd">
<svg version="1.0" xmlns="http://www.w3.org/2000/svg"
 width="2550.000000pt" height="2700.000000pt" viewBox="0 0 2550.000000 2700.000000"
 preserveAspectRatio="xMidYMid meet">

<g transform="translate(0.000000,2700.000000) scale(0.100000,-0.100000)"
fill="#3a4548" stroke="none">
<path d="M10362 14101 l-44 -6 -4 -3040 c-2 -1672 -4 -3669 -4 -4438 l0 -1398
-45 -20 c-44 -20 -44 -20 -25 -39 11 -11 20 -28 20 -38 0 -19 -34 -55 -60 -64
-9 -3 -15 -17 -14 -37 1 -23 11 -40 45 -69 l44 -39 85 13 c47 7 106 13 132 13
68 1 78 8 78 49 0 28 -7 41 -37 68 l-38 33 18 32 18 33 -41 35 -41 36 -2 4439
c-2 4431 -2 4439 -22 4441 -11 1 -40 -1 -63 -4z"/>
</g>
</svg>
