<?xml version="1.0" standalone="no"?>
<!DOCTYPE svg PUBLIC "-//W3C//DTD SVG 20010904//EN"
 "http://www.w3.org/TR/2001/REC-SVG-20010904/DTD/svg10.dtd">
<svg version="1.0" xmlns="http://www.w3.org/2000/svg"
 width="2550.000000pt" height="2700.000000pt" viewBox="0 0 2550.000000 2700.000000"
 preserveAspectRatio="xMidYMid meet">

<g transform="translate(0.000000,2700.000000) scale(0.100000,-0.100000)"
fill="#3a4548" stroke="none">
<path d="M19027 23232 l-47 -48 0 -3441 0 -3441 -30 -12 c-38 -16 -45 -27 -30
-45 20 -24 8 -68 -23 -83 -22 -11 -28 -19 -25 -40 l3 -27 102 -2 c56 0 106 -4
112 -7 5 -4 12 -2 16 4 3 5 31 10 61 10 48 0 54 2 54 21 0 12 -11 30 -24 40
-34 27 -42 56 -21 79 16 18 15 19 -13 34 -17 9 -33 20 -36 25 -4 5 -6 1573 -6
3485 0 3427 0 3475 -19 3486 -26 13 -21 16 -74 -38z"/>
</g>
</svg>
