<?xml version="1.0" standalone="no"?>
<!DOCTYPE svg PUBLIC "-//W3C//DTD SVG 20010904//EN"
 "http://www.w3.org/TR/2001/REC-SVG-20010904/DTD/svg10.dtd">
<svg version="1.0" xmlns="http://www.w3.org/2000/svg"
 width="2550.000000pt" height="2700.000000pt" viewBox="0 0 2550.000000 2700.000000"
 preserveAspectRatio="xMidYMid meet">

<g transform="translate(0.000000,2700.000000) scale(0.100000,-0.100000)"
fill="#3a4548" stroke="none">
<path d="M20726 25149 c-25 -28 -46 -61 -46 -73 0 -11 -1 -1591 -3 -3511 l-2
-3490 -35 -17 c-19 -10 -39 -20 -45 -22 -5 -2 -2 -10 8 -18 30 -23 19 -70 -21
-87 -24 -11 -32 -21 -30 -35 3 -20 8 -21 163 -17 88 2 164 6 170 9 5 4 19 6
29 7 26 0 32 21 7 28 -10 2 -27 16 -36 31 -16 25 -16 27 0 52 14 22 15 28 4
35 -8 5 -19 9 -25 9 -6 0 -18 8 -28 18 -15 18 -16 268 -16 3559 l0 3541 -24
16 c-24 15 -26 14 -70 -35z"/>
</g>
</svg>
