<?xml version="1.0" standalone="no"?>
<!DOCTYPE svg PUBLIC "-//W3C//DTD SVG 20010904//EN"
 "http://www.w3.org/TR/2001/REC-SVG-20010904/DTD/svg10.dtd">
<svg version="1.0" xmlns="http://www.w3.org/2000/svg"
 width="2550.000000pt" height="2700.000000pt" viewBox="0 0 2550.000000 2700.000000"
 preserveAspectRatio="xMidYMid meet">

<g transform="translate(0.000000,2700.000000) scale(0.100000,-0.100000)"
fill="#3a4548" stroke="none">
<path d="M21573 26216 l-43 -53 0 -3222 0 -3221 23 0 c12 0 46 3 75 6 l52 7 0
3253 0 3253 -22 15 c-12 9 -27 16 -33 16 -5 -1 -29 -25 -52 -54z"/>
<path d="M21535 19251 c-3 -2 -5 -253 -5 -556 0 -303 -2 -559 -5 -567 -3 -8
-24 -21 -46 -28 -21 -7 -39 -15 -39 -17 0 -1 9 -12 21 -24 27 -27 21 -49 -18
-74 -20 -13 -32 -28 -33 -42 0 -20 5 -23 41 -23 81 0 334 22 342 30 5 4 -4 14
-19 22 -40 18 -54 61 -29 88 10 11 16 21 14 23 -2 1 -21 10 -41 20 l-38 17 0
554 c0 393 -3 557 -11 562 -14 9 -128 22 -134 15z"/>
</g>
</svg>
