<?xml version="1.0" standalone="no"?>
<!DOCTYPE svg PUBLIC "-//W3C//DTD SVG 20010904//EN"
 "http://www.w3.org/TR/2001/REC-SVG-20010904/DTD/svg10.dtd">
<svg version="1.0" xmlns="http://www.w3.org/2000/svg"
 width="2550.000000pt" height="2700.000000pt" viewBox="0 0 2550.000000 2700.000000"
 preserveAspectRatio="xMidYMid meet">

<g transform="translate(0.000000,2700.000000) scale(0.100000,-0.100000)"
fill="#3a4548" stroke="none">
<path d="M22247 26994 c-4 -4 -7 -1584 -7 -3510 0 -3089 -2 -3504 -15 -3517
-8 -9 -28 -18 -45 -22 -35 -8 -37 -15 -10 -40 11 -10 20 -23 20 -30 0 -15 -42
-55 -58 -55 -7 0 -12 -12 -12 -26 0 -24 2 -25 43 -20 50 7 321 36 339 36 7 1
1 7 -14 15 -15 8 -29 24 -33 35 -7 21 10 60 25 60 23 0 8 18 -19 23 -33 7 -61
31 -62 55 0 9 -1 107 -2 217 -1 110 -6 205 -10 212 -4 6 -4 14 0 16 6 4 9
1165 4 1347 0 8 2 82 5 163 3 100 1 153 -6 162 -6 7 -7 16 -2 19 4 2 7 868 6
1923 -2 1055 -3 1925 -3 1933 1 8 1 238 1 510 l-1 495 -68 3 c-38 1 -72 0 -76
-4z"/>
</g>
</svg>
