<?xml version="1.0" standalone="no"?>
<!DOCTYPE svg PUBLIC "-//W3C//DTD SVG 20010904//EN"
 "http://www.w3.org/TR/2001/REC-SVG-20010904/DTD/svg10.dtd">
<svg version="1.0" xmlns="http://www.w3.org/2000/svg"
 width="2550.000000pt" height="2700.000000pt" viewBox="0 0 2550.000000 2700.000000"
 preserveAspectRatio="xMidYMid meet">

<g transform="translate(0.000000,2700.000000) scale(0.100000,-0.100000)"
fill="#3a4548" stroke="none">
<path d="M23087 26993 c-2 -4 -3 -1561 -2 -3460 2 -3321 1 -3453 -16 -3472
-10 -10 -32 -22 -49 -26 -33 -7 -37 -16 -15 -35 31 -26 11 -76 -37 -93 -21 -7
-25 -47 -5 -47 7 0 66 6 132 14 66 8 151 17 190 21 68 7 69 7 42 21 -22 12
-27 22 -27 50 0 22 6 37 15 40 25 10 17 20 -25 33 -22 6 -44 20 -50 31 -6 12
-10 225 -10 599 0 574 0 581 -20 581 -19 0 -20 7 -20 234 0 226 1 235 20 241
20 6 20 16 21 2308 0 1266 2 2451 2 2632 l2 330 -72 3 c-39 2 -73 -1 -76 -5z"/>
</g>
</svg>
