<?xml version="1.0" standalone="no"?>
<!DOCTYPE svg PUBLIC "-//W3C//DTD SVG 20010904//EN"
 "http://www.w3.org/TR/2001/REC-SVG-20010904/DTD/svg10.dtd">
<svg version="1.0" xmlns="http://www.w3.org/2000/svg"
 width="2550.000000pt" height="2700.000000pt" viewBox="0 0 2550.000000 2700.000000"
 preserveAspectRatio="xMidYMid meet">

<g transform="translate(0.000000,2700.000000) scale(0.100000,-0.100000)"
fill="#3a4548" stroke="none">
<path d="M23957 26993 c-4 -3 -7 -1126 -7 -2493 0 -1984 -3 -2490 -13 -2498
-6 -6 -25 -14 -40 -17 -37 -10 -42 -21 -18 -46 18 -20 19 -24 6 -49 -8 -15
-28 -33 -46 -39 -43 -15 -33 -37 17 -33 21 2 57 7 79 12 22 4 86 14 143 21 78
9 102 16 97 26 -3 7 -7 19 -10 26 -3 7 4 22 15 34 11 12 20 24 20 26 0 2 -18
10 -41 17 -22 8 -44 21 -50 31 -5 11 -9 974 -9 2503 l0 2486 -68 0 c-38 0 -72
-3 -75 -7z"/>
</g>
</svg>
