<?xml version="1.0" standalone="no"?>
<!DOCTYPE svg PUBLIC "-//W3C//DTD SVG 20010904//EN"
 "http://www.w3.org/TR/2001/REC-SVG-20010904/DTD/svg10.dtd">
<svg version="1.0" xmlns="http://www.w3.org/2000/svg"
 width="2550.000000pt" height="2700.000000pt" viewBox="0 0 2550.000000 2700.000000"
 preserveAspectRatio="xMidYMid meet">

<g transform="translate(0.000000,2700.000000) scale(0.100000,-0.100000)"
fill="#3a4548" stroke="none">
<path d="M24849 26993 c0 -4 0 -1094 0 -2422 0 -1568 -3 -2420 -9 -2432 -6
-10 -28 -24 -50 -30 -22 -7 -40 -15 -40 -17 0 -3 10 -16 22 -29 18 -19 20 -27
10 -48 -7 -14 -23 -30 -37 -37 -14 -6 -25 -19 -25 -27 0 -15 17 -14 174 9 96
14 178 28 182 32 4 4 1 15 -6 23 -11 13 -10 21 8 45 12 16 22 31 22 33 0 2
-18 9 -40 16 -21 6 -42 16 -45 21 -3 5 -5 288 -5 629 0 397 -3 620 -10 623
-14 4 -15 485 -1 502 8 10 11 459 9 1562 l-3 1549 -77 3 c-43 2 -78 -1 -79 -5z"/>
</g>
</svg>
