<?xml version="1.0" standalone="no"?>
<!DOCTYPE svg PUBLIC "-//W3C//DTD SVG 20010904//EN"
 "http://www.w3.org/TR/2001/REC-SVG-20010904/DTD/svg10.dtd">
<svg version="1.0" xmlns="http://www.w3.org/2000/svg"
 width="2550.000000pt" height="2700.000000pt" viewBox="0 0 2550.000000 2700.000000"
 preserveAspectRatio="xMidYMid meet">

<g transform="translate(0.000000,2700.000000) scale(0.100000,-0.100000)"
fill="#3a4548" stroke="none">
<path d="M14633 18950 l-53 -49 0 -3830 c0 -3468 -1 -3831 -16 -3845 -8 -9
-22 -16 -29 -16 -20 0 -28 -19 -15 -35 19 -23 8 -68 -20 -82 -17 -9 -25 -21
-26 -43 -3 -51 31 -61 189 -58 l132 3 3 36 c2 29 -2 39 -22 52 -37 24 -42 54
-15 83 18 19 19 24 7 24 -9 0 -30 12 -47 26 l-31 26 2 3879 c2 2133 1 3879 -2
3879 -3 -1 -29 -23 -57 -50z"/>
</g>
</svg>
