<?xml version="1.0" standalone="no"?>
<!DOCTYPE svg PUBLIC "-//W3C//DTD SVG 20010904//EN"
 "http://www.w3.org/TR/2001/REC-SVG-20010904/DTD/svg10.dtd">
<svg version="1.0" xmlns="http://www.w3.org/2000/svg"
 width="3542.000000pt" height="3750.000000pt" viewBox="0 0 3542.000000 3750.000000"
 preserveAspectRatio="xMidYMid meet">

<g transform="translate(0.000000,3750.000000) scale(0.100000,-0.100000)"
fill="#C5C3C1" stroke="none">
<path d="M14436 18642 c-2 -4 -5 -947 -5 -2096 0 -1149 -4 -2092 -9 -2095 -4
-3 -15 -17 -24 -30 -16 -22 -15 -26 2 -59 19 -35 19 -36 0 -67 -19 -30 -19
-31 2 -63 11 -17 24 -32 29 -32 14 0 10 -82 -6 -110 -8 -14 -14 -38 -15 -54 0
-20 -13 -46 -39 -76 -54 -64 -81 -111 -81 -140 0 -14 13 -49 29 -79 l28 -55
-29 -49 c-46 -79 -42 -113 26 -201 42 -56 56 -81 56 -107 0 -19 9 -47 20 -64
21 -32 28 -115 10 -115 -6 0 -19 -14 -30 -32 -17 -29 -18 -35 -5 -55 19 -29
19 -48 -1 -78 -17 -26 -11 -47 23 -81 17 -17 18 -122 20 -1953 2 -1517 0
-1939 -10 -1952 -6 -9 -34 -26 -61 -38 l-49 -21 21 -21 c31 -28 29 -72 -4 -98
-15 -12 -33 -21 -40 -21 -10 0 -14 -14 -14 -49 0 -53 -5 -50 80 -66 153 -31
156 -30 375 10 11 2 26 4 33 4 8 1 12 18 12 51 0 39 -4 50 -16 50 -8 0 -28 13
-44 28 -32 33 -31 73 3 97 20 14 18 15 -29 35 -27 12 -55 28 -61 37 -10 13
-13 419 -13 1951 l0 1933 25 33 c29 38 31 53 9 84 -14 21 -14 25 0 47 22 34
20 58 -9 89 -31 34 -33 91 -5 143 11 21 20 48 20 60 0 13 15 40 34 60 76 85
92 157 55 244 l-21 49 21 49 c11 27 21 57 21 67 0 41 -26 97 -71 151 -27 32
-49 67 -49 78 0 11 -7 31 -15 45 -24 41 -19 105 10 136 29 31 31 55 9 89 -15
23 -15 27 0 50 22 34 20 58 -9 85 l-25 23 0 2094 0 2093 -89 0 c-50 0 -92 -3
-95 -8z m144 -4661 c0 -9 -9 -27 -20 -41 l-20 -25 -25 30 c-30 37 -31 43 -3
72 l22 23 23 -22 c13 -12 23 -29 23 -37z m89 -110 c6 -19 11 -50 11 -70 l-1
-36 -38 44 -38 44 16 38 c18 43 30 38 50 -20z m-211 13 l23 -35 -41 -50 c-23
-27 -45 -49 -50 -49 -12 0 -22 49 -15 73 13 46 39 97 49 97 6 0 21 -16 34 -36z
m172 -174 l19 -27 -49 -48 -48 -48 -51 43 c-28 24 -51 48 -51 54 0 6 21 32 46
58 l47 47 34 -26 c18 -14 42 -38 53 -53z m-192 -133 c23 -23 42 -47 42 -52 -1
-20 -57 -78 -69 -71 -38 24 -57 166 -21 166 3 0 25 -19 48 -43z m248 -23 c-3
-24 -13 -61 -22 -81 l-15 -38 -19 35 c-11 19 -19 41 -20 49 0 18 62 89 74 83
4 -3 6 -24 2 -48z m-106 -145 c12 -28 11 -33 -16 -60 l-29 -29 -27 34 -27 33
31 37 c33 41 46 38 68 -15z"/>
</g>
</svg>
