<?xml version="1.0" standalone="no"?>
<!DOCTYPE svg PUBLIC "-//W3C//DTD SVG 20010904//EN"
 "http://www.w3.org/TR/2001/REC-SVG-20010904/DTD/svg10.dtd">
<svg version="1.0" xmlns="http://www.w3.org/2000/svg"
 width="3542.000000pt" height="3750.000000pt" viewBox="0 0 3542.000000 3750.000000"
 preserveAspectRatio="xMidYMid meet">

<g transform="translate(0.000000,3750.000000) scale(0.100000,-0.100000)"
fill="#C5C3C1" stroke="none">
<path d="M17390 16695 l0 -1996 -25 -27 c-29 -31 -31 -44 -9 -78 16 -23 16
-27 -1 -58 -17 -31 -17 -34 0 -59 9 -15 21 -27 26 -27 15 0 9 -94 -6 -114 -8
-11 -15 -34 -15 -52 0 -23 -12 -47 -43 -86 -78 -95 -82 -118 -41 -201 l27 -51
-27 -47 c-32 -58 -33 -106 -3 -147 12 -17 36 -50 53 -74 19 -26 31 -56 32 -75
0 -18 8 -43 16 -55 25 -35 20 -93 -9 -122 -29 -29 -31 -47 -9 -81 14 -22 14
-26 0 -47 -22 -31 -20 -51 9 -82 l25 -27 0 -1849 c0 -1568 -2 -1851 -14 -1863
-8 -7 -34 -21 -59 -31 l-45 -17 24 -24 c13 -13 24 -34 24 -45 0 -23 -45 -70
-67 -70 -11 0 -13 -12 -11 -47 l3 -47 115 -19 c111 -19 118 -19 225 -2 60 10
115 20 122 22 18 7 17 93 -1 93 -7 0 -25 9 -40 21 -32 25 -35 70 -6 97 21 19
20 19 -29 40 -40 16 -52 27 -58 51 -4 17 -7 855 -6 1861 l2 1830 20 29 c22 31
27 66 11 76 -15 9 -12 47 5 69 13 17 13 23 -2 45 -9 14 -22 30 -30 34 -19 11
-16 65 7 112 11 22 19 48 20 58 0 9 20 42 44 72 69 84 81 144 42 217 -24 45
-24 46 -6 74 44 66 34 136 -31 221 -45 57 -77 132 -86 196 -4 31 -1 42 21 64
29 29 33 58 11 87 -13 17 -13 22 0 42 20 31 19 54 -5 84 -19 25 -20 56 -20
2023 l0 1997 -90 0 -90 0 0 -1995z m140 -2464 c0 -9 -9 -27 -20 -41 l-19 -25
-25 24 c-32 30 -33 48 -4 78 l22 23 23 -22 c13 -12 23 -29 23 -37z m95 -153
c10 -56 -2 -61 -42 -17 l-36 40 18 40 19 40 17 -33 c10 -18 21 -50 24 -70z
m-216 56 l24 -35 -43 -44 c-25 -25 -48 -45 -52 -45 -4 0 -8 20 -8 45 0 47 26
115 44 115 6 0 22 -16 35 -36z m127 -126 c59 -54 59 -59 6 -112 l-46 -47 -51
51 -50 51 47 44 c26 25 49 45 53 45 3 0 22 -15 41 -32z m-147 -172 l43 -44
-27 -36 c-31 -40 -41 -38 -61 10 -15 36 -19 114 -6 114 4 0 27 -20 51 -44z
m236 -18 c-4 -24 -14 -56 -22 -72 l-15 -28 -19 31 c-10 17 -19 34 -19 37 0 9
63 74 72 74 6 0 7 -18 3 -42z m-105 -131 c16 -29 9 -51 -24 -71 -13 -9 -21 -6
-36 14 -24 31 -24 32 1 64 25 31 38 30 59 -7z"/>
</g>
</svg>
