<?xml version="1.0" standalone="no"?>
<!DOCTYPE svg PUBLIC "-//W3C//DTD SVG 20010904//EN"
 "http://www.w3.org/TR/2001/REC-SVG-20010904/DTD/svg10.dtd">
<svg version="1.0" xmlns="http://www.w3.org/2000/svg"
 width="3542.000000pt" height="3750.000000pt" viewBox="0 0 3542.000000 3750.000000"
 preserveAspectRatio="xMidYMid meet">

<g transform="translate(0.000000,3750.000000) scale(0.100000,-0.100000)"
fill="#C5C3C1" stroke="none">
<path d="M18310 16730 c0 -1083 -4 -1970 -8 -1970 -4 0 -15 -13 -24 -28 -16
-27 -16 -30 2 -57 17 -27 18 -32 5 -52 -21 -32 -19 -56 10 -87 30 -33 32 -64
5 -116 -11 -22 -20 -52 -20 -67 0 -19 -15 -47 -45 -83 -68 -83 -73 -107 -37
-183 l29 -63 -30 -56 c-26 -51 -28 -60 -17 -92 6 -19 31 -60 56 -89 28 -34 44
-64 44 -81 0 -15 9 -44 20 -66 21 -40 27 -100 11 -100 -5 0 -18 -15 -30 -32
-18 -30 -19 -35 -6 -55 17 -26 19 -59 5 -68 -17 -10 -11 -50 10 -73 20 -22 20
-29 21 -1840 0 -1000 -3 -1825 -6 -1834 -4 -9 -29 -26 -56 -37 l-49 -21 21
-21 c33 -33 23 -79 -22 -104 -31 -16 -37 -25 -37 -51 0 -17 3 -36 7 -41 6 -10
164 -41 226 -44 17 -1 78 6 138 16 l107 18 0 43 c0 39 -3 44 -37 61 -31 14
-39 24 -41 50 -2 22 3 38 17 52 l20 20 -46 21 c-26 11 -51 26 -55 33 -10 16
-10 3667 0 3667 4 0 15 13 25 29 16 28 16 31 0 60 -17 29 -17 32 0 60 16 28
17 32 2 55 -9 13 -22 27 -30 29 -30 12 16 177 66 234 66 76 80 138 48 213 -21
49 -21 53 -6 79 43 73 29 144 -43 231 -22 26 -40 55 -40 64 0 8 -9 38 -20 66
-24 60 -26 96 -6 103 8 3 22 17 32 31 15 24 15 28 0 51 -20 31 -20 54 0 76 15
16 14 20 -2 48 -10 17 -22 31 -26 31 -4 0 -8 887 -8 1970 l0 1970 -90 0 -90 0
0 -1970z m122 -2387 c22 -20 23 -35 2 -74 -15 -30 -16 -30 -36 -13 -38 35 -42
54 -17 80 27 29 27 29 51 7z m-99 -128 l28 -35 -45 -48 c-38 -39 -48 -44 -56
-32 -19 26 13 150 38 150 4 0 20 -16 35 -35z m201 -12 c18 -52 21 -93 7 -93
-5 0 -23 17 -39 38 -29 36 -29 38 -14 70 9 17 19 32 23 32 4 0 14 -21 23 -47z
m-64 -128 l44 -45 -44 -45 c-24 -25 -49 -45 -54 -45 -6 0 -30 19 -53 42 l-43
42 47 48 c26 26 50 48 53 48 3 0 26 -20 50 -45z m-157 -152 l44 -47 -26 -37
c-26 -38 -26 -38 -43 -18 -23 28 -40 92 -32 124 3 14 8 25 10 25 1 0 23 -21
47 -47z m235 -10 c-3 -21 -13 -56 -23 -78 l-17 -40 -19 38 -20 38 33 39 c42
49 52 49 46 3z m-98 -164 c0 -8 -10 -25 -23 -37 l-23 -22 -22 29 -22 30 27 31
26 32 18 -24 c10 -12 19 -30 19 -39z"/>
</g>
</svg>
