<?xml version="1.0" standalone="no"?>
<!DOCTYPE svg PUBLIC "-//W3C//DTD SVG 20010904//EN"
 "http://www.w3.org/TR/2001/REC-SVG-20010904/DTD/svg10.dtd">
<svg version="1.0" xmlns="http://www.w3.org/2000/svg"
 width="3542.000000pt" height="3750.000000pt" viewBox="0 0 3542.000000 3750.000000"
 preserveAspectRatio="xMidYMid meet">

<g transform="translate(0.000000,3750.000000) scale(0.100000,-0.100000)"
fill="#C5C3C1" stroke="none">
<path d="M25430 16823 c0 -1878 -1 -1908 -20 -1933 -23 -29 -25 -52 -8 -80 10
-16 10 -24 0 -40 -19 -30 -15 -55 14 -84 22 -21 26 -32 21 -61 -3 -19 -15 -47
-26 -62 -13 -15 -21 -40 -21 -64 0 -25 -8 -47 -24 -66 -46 -56 -76 -106 -76
-131 0 -13 14 -49 31 -78 l30 -53 -25 -44 c-40 -68 -36 -88 39 -187 37 -49 59
-104 72 -181 4 -19 -2 -34 -21 -52 -28 -29 -33 -56 -14 -87 10 -16 10 -24 0
-40 -17 -28 -15 -53 8 -78 20 -21 20 -37 20 -1787 0 -1114 -3 -1773 -9 -1784
-6 -10 -30 -26 -55 -35 l-44 -17 24 -24 c13 -13 24 -31 24 -40 0 -20 -44 -65
-65 -65 -11 0 -15 -11 -15 -44 l0 -45 43 -6 c214 -31 214 -31 283 -18 38 7 84
15 102 18 29 5 32 9 32 44 0 33 -5 41 -37 62 -47 30 -57 78 -23 102 21 15 21
16 -26 36 -27 12 -52 27 -56 34 -4 7 -8 807 -8 1778 0 1586 2 1768 16 1779 32
27 37 50 18 86 -17 32 -17 34 1 54 19 21 19 22 0 56 -10 18 -22 34 -27 34 -13
0 -9 72 8 120 8 25 30 61 49 80 65 69 82 143 49 213 -15 32 -15 36 5 75 37 72
24 145 -40 220 -18 22 -33 53 -35 72 -3 18 -13 47 -24 65 -24 39 -26 97 -4
115 32 27 37 50 18 86 -17 32 -17 34 0 53 20 22 15 49 -14 76 -20 18 -20 39
-20 1927 l0 1908 -85 0 -85 0 0 -1907z m129 -2407 c-13 -20 -26 -36 -29 -36
-3 0 -18 16 -34 36 l-28 36 28 29 28 29 30 -29 29 -30 -24 -35z m-130 -142
c-30 -31 -45 -40 -51 -31 -14 22 -8 77 13 118 l20 41 31 -42 31 -41 -44 -45z
m225 63 c10 -33 14 -62 9 -75 -8 -20 -10 -18 -42 19 l-33 40 18 35 c10 19 21
34 25 34 3 0 14 -24 23 -53z m-70 -119 c20 -23 36 -44 36 -48 0 -3 -19 -25
-42 -47 l-43 -42 -48 46 -49 46 43 43 c24 24 49 44 55 44 7 0 29 -19 48 -42z
m-152 -145 c21 -20 38 -41 38 -46 0 -17 -42 -67 -51 -61 -26 15 -54 144 -32
144 4 0 24 -17 45 -37z m222 -20 c-8 -44 -33 -98 -41 -89 -3 3 -11 16 -18 28
-10 20 -7 28 19 61 16 20 33 37 38 37 5 0 6 -17 2 -37z m-104 -123 c11 -26 10
-33 -5 -50 -18 -20 -18 -20 -41 1 l-23 22 20 28 c26 37 34 36 49 -1z"/>
</g>
</svg>
