<?xml version="1.0" standalone="no"?>
<!DOCTYPE svg PUBLIC "-//W3C//DTD SVG 20010904//EN"
 "http://www.w3.org/TR/2001/REC-SVG-20010904/DTD/svg10.dtd">
<svg version="1.0" xmlns="http://www.w3.org/2000/svg"
 width="3542.000000pt" height="3750.000000pt" viewBox="0 0 3542.000000 3750.000000"
 preserveAspectRatio="xMidYMid meet">

<g transform="translate(0.000000,3750.000000) scale(0.100000,-0.100000)"
fill="#C5C3C1" stroke="none">
<path d="M27491 16740 l0 -1960 -20 -29 c-25 -35 -26 -44 -5 -76 15 -23 15
-27 0 -50 -22 -33 -20 -48 9 -79 16 -17 25 -39 25 -60 0 -19 -10 -46 -25 -66
-16 -22 -25 -47 -25 -72 0 -31 -10 -52 -51 -105 -46 -61 -51 -71 -47 -108 3
-23 17 -59 32 -82 l27 -41 -25 -51 c-40 -79 -37 -91 50 -203 39 -50 48 -72 61
-161 4 -31 1 -42 -21 -64 -29 -29 -33 -58 -11 -87 13 -17 13 -22 0 -42 -20
-31 -19 -56 4 -80 18 -20 19 -76 25 -1840 5 -1508 4 -1822 -7 -1836 -7 -9 -32
-24 -55 -33 -48 -19 -50 -25 -22 -50 11 -10 20 -26 20 -35 0 -21 -47 -70 -66
-70 -10 0 -14 -14 -14 -45 0 -50 -18 -43 170 -70 110 -15 107 -16 270 20 8 2
18 4 23 4 4 1 7 21 7 46 0 31 -4 45 -14 45 -7 0 -25 9 -40 21 -32 25 -35 68
-6 94 20 18 20 19 -32 44 l-53 26 -3 1827 -2 1827 25 27 c29 32 31 42 8 73
-15 22 -15 26 2 57 17 31 17 35 1 59 -9 14 -21 25 -26 25 -15 0 -12 82 5 130
8 23 31 61 51 83 71 78 86 145 48 219 -12 24 -11 32 11 80 14 29 25 60 25 68
0 37 -24 93 -60 142 -22 29 -40 62 -40 74 0 11 -11 43 -25 70 -32 64 -32 107
0 142 28 31 32 54 10 72 -19 16 -19 35 1 65 14 22 14 26 -2 55 -10 16 -22 30
-26 30 -4 0 -8 884 -8 1965 l0 1965 -90 0 -89 0 0 -1960z m130 -2416 c26 -25
27 -29 14 -54 -26 -50 -40 -54 -69 -20 -32 38 -32 47 -4 77 27 29 26 29 59 -3z
m-81 -164 c0 -3 -21 -25 -46 -50 -37 -36 -47 -41 -55 -29 -14 21 -5 104 15
134 l18 27 33 -39 c19 -21 34 -40 35 -43z m179 44 c17 -37 25 -110 14 -117 -6
-4 -25 12 -43 34 l-32 41 18 34 c22 41 27 42 43 8z m-71 -147 c23 -23 42 -47
42 -53 0 -11 -79 -84 -90 -84 -3 0 -26 20 -50 45 l-44 45 44 45 c24 25 47 45
50 45 3 0 25 -19 48 -43z m-131 -233 c-12 -19 -24 -34 -27 -34 -23 0 -58 115
-45 147 5 15 14 10 50 -31 l44 -48 -22 -34z m207 69 c-7 -37 -35 -103 -43
-103 -4 0 -12 14 -19 32 -11 30 -10 34 20 65 39 40 50 42 42 6z m-104 -159 c0
-12 -7 -27 -15 -34 -13 -10 -19 -10 -35 5 -25 23 -25 26 2 60 20 26 22 27 35
9 7 -10 13 -28 13 -40z"/>
</g>
</svg>
