<?xml version="1.0" standalone="no"?>
<!DOCTYPE svg PUBLIC "-//W3C//DTD SVG 20010904//EN"
 "http://www.w3.org/TR/2001/REC-SVG-20010904/DTD/svg10.dtd">
<svg version="1.0" xmlns="http://www.w3.org/2000/svg"
 width="3542.000000pt" height="3750.000000pt" viewBox="0 0 3542.000000 3750.000000"
 preserveAspectRatio="xMidYMid meet">

<g transform="translate(0.000000,3750.000000) scale(0.100000,-0.100000)"
fill="#C5C3C1" stroke="none">
<path d="M34480 16468 l0 -2151 -27 -35 c-26 -34 -26 -36 -10 -64 21 -37 21
-52 1 -83 -15 -23 -15 -27 1 -52 10 -16 24 -32 32 -36 7 -5 13 -25 13 -47 0
-30 -8 -48 -32 -76 -28 -32 -33 -45 -33 -89 0 -46 -5 -57 -48 -111 -62 -78
-72 -114 -47 -171 11 -24 29 -57 40 -73 l21 -30 -25 -43 c-28 -47 -33 -95 -14
-130 6 -12 33 -47 60 -78 51 -58 78 -125 78 -192 0 -23 -5 -40 -14 -43 -7 -3
-22 -20 -32 -39 -17 -32 -17 -35 -1 -53 21 -23 21 -43 0 -80 -16 -28 -16 -30
9 -63 l26 -34 7 -1997 c4 -1416 3 -1998 -4 -1998 -6 0 -11 -7 -11 -15 0 -8 -4
-15 -9 -15 -5 0 -30 -9 -55 -20 l-46 -19 25 -25 c14 -14 25 -36 25 -50 0 -25
-34 -60 -71 -71 -15 -5 -19 -16 -19 -54 l0 -48 93 -13 c50 -7 99 -14 107 -15
89 -17 134 -16 224 5 l96 22 0 48 c0 44 -3 49 -30 60 -61 25 -76 75 -35 116
l25 24 -54 24 c-29 13 -56 32 -60 42 -4 10 -7 913 -6 2007 l0 1989 25 32 c29
38 30 53 10 80 -19 25 -19 50 0 66 23 19 18 44 -15 76 -53 52 -37 136 40 220
26 27 55 64 64 82 20 39 21 118 1 156 -14 27 -13 32 15 89 16 33 30 74 30 91
-1 41 -31 107 -75 160 -24 29 -35 53 -35 75 0 28 -13 60 -57 135 -22 37 -15
78 17 110 33 32 38 57 15 76 -20 16 -19 49 1 71 20 22 13 55 -16 86 -20 22
-20 22 -20 2173 l0 2150 -100 0 -100 0 0 -2152z m147 -2660 c18 -18 33 -37 33
-43 0 -6 -14 -28 -32 -49 l-32 -39 -37 44 -37 44 31 36 c18 21 34 38 37 38 2
1 19 -13 37 -31z m-97 -188 c0 -3 -22 -28 -50 -55 -57 -56 -72 -53 -72 16 0
45 14 93 34 117 9 11 19 5 49 -30 21 -24 38 -45 39 -48z m204 52 c19 -37 30
-116 19 -136 -7 -13 -15 -8 -47 30 l-39 47 24 43 c13 24 25 44 26 44 1 0 9
-12 17 -28z m-80 -171 c29 -30 47 -55 43 -64 -3 -8 -26 -31 -52 -52 l-46 -38
-50 49 c-27 26 -49 52 -49 56 0 8 92 97 100 98 3 0 28 -22 54 -49z m-124 -216
c-1 -13 -48 -71 -53 -65 -20 22 -47 97 -47 132 l0 42 50 -49 c28 -27 50 -54
50 -60z m180 -32 l-21 -48 -14 25 c-21 37 -18 51 18 88 l32 33 3 -25 c2 -14
-6 -47 -18 -73z m-104 -119 c-15 -22 -17 -23 -36 -7 -25 22 -25 24 2 58 l21
27 14 -27 c13 -23 12 -29 -1 -51z"/>
</g>
</svg>
