<?xml version="1.0" standalone="no"?>
<!DOCTYPE svg PUBLIC "-//W3C//DTD SVG 20010904//EN"
 "http://www.w3.org/TR/2001/REC-SVG-20010904/DTD/svg10.dtd">
<svg version="1.0" xmlns="http://www.w3.org/2000/svg"
 width="3542.000000pt" height="3750.000000pt" viewBox="0 0 3542.000000 3750.000000"
 preserveAspectRatio="xMidYMid meet">

<g transform="translate(0.000000,3750.000000) scale(0.100000,-0.100000)"
fill="#3a4548" stroke="none">
<path d="M13423 18622 l-43 -3 0 -675 0 -674 -25 -1 c-14 -1 -29 -3 -35 -4 -5
-1 -55 -3 -110 -4 l-100 -1 0 -3645 c0 -3406 1 -3646 17 -3652 24 -9 107 -9
186 1 l67 9 0 -565 c0 -436 -3 -568 -12 -581 -7 -9 -35 -26 -63 -37 -42 -18
-48 -23 -34 -33 30 -22 41 -55 28 -79 -16 -29 -39 -47 -61 -48 -15 0 -18 -9
-18 -54 l0 -54 43 -7 c23 -3 75 -13 116 -21 70 -14 83 -13 213 7 l138 23 0 53
c0 38 -4 53 -14 53 -7 0 -25 9 -40 21 -32 25 -35 68 -6 94 11 10 20 21 20 25
0 3 -22 14 -49 24 -27 9 -53 27 -60 39 -8 16 -11 175 -9 597 l3 575 45 6 c25
4 84 13 133 19 l87 12 0 3620 0 3620 -132 -3 -133 -3 -2 44 c-1 25 -2 330 -2
678 l-1 633 -52 -3 c-29 -2 -72 -4 -95 -6z m221 -4958 c4 -1912 3 -3480 -1
-3484 -11 -9 -323 -53 -330 -46 -7 7 -4 6978 3 6985 3 3 67 7 142 9 75 1 144
4 152 6 8 2 18 4 21 5 3 0 9 -1563 13 -3475z"/>
</g>
</svg>
