<?xml version="1.0" standalone="no"?>
<!DOCTYPE svg PUBLIC "-//W3C//DTD SVG 20010904//EN"
 "http://www.w3.org/TR/2001/REC-SVG-20010904/DTD/svg10.dtd">
<svg version="1.0" xmlns="http://www.w3.org/2000/svg"
 width="3542.000000pt" height="3750.000000pt" viewBox="0 0 3542.000000 3750.000000"
 preserveAspectRatio="xMidYMid meet">

<g transform="translate(0.000000,3750.000000) scale(0.100000,-0.100000)"
fill="#3a4548" stroke="none">
<path d="M17378 18043 l-3 -638 -112 -3 c-80 -2 -113 -6 -113 -15 -4 -142 2
-6832 6 -6836 8 -9 132 -7 182 2 l42 7 0 -534 c0 -597 6 -551 -75 -581 l-44
-18 25 -19 c39 -31 30 -77 -18 -103 -35 -18 -38 -24 -38 -62 0 -48 -6 -45 134
-68 92 -16 106 -16 209 0 61 9 117 19 124 22 8 3 13 22 13 49 0 37 -4 46 -23
53 -59 23 -72 66 -33 106 l24 24 -45 17 c-79 30 -73 -16 -73 593 l0 548 98 13
c53 7 106 16 117 20 20 8 20 17 20 3401 l0 3394 -115 0 -115 0 -3 633 -2 632
-90 0 -90 0 -2 -637z m233 -860 c6 -390 5 -6434 0 -6437 -4 -3 -61 -12 -127
-21 -65 -9 -127 -18 -136 -21 -17 -5 -18 156 -18 3280 l0 3285 53 4 c28 2 91
4 140 5 l87 2 1 -97z"/>
</g>
</svg>
