<?xml version="1.0" standalone="no"?>
<!DOCTYPE svg PUBLIC "-//W3C//DTD SVG 20010904//EN"
 "http://www.w3.org/TR/2001/REC-SVG-20010904/DTD/svg10.dtd">
<svg version="1.0" xmlns="http://www.w3.org/2000/svg"
 width="3542.000000pt" height="3750.000000pt" viewBox="0 0 3542.000000 3750.000000"
 preserveAspectRatio="xMidYMid meet">

<g transform="translate(0.000000,3750.000000) scale(0.100000,-0.100000)"
fill="#3a4548" stroke="none">
<path d="M29680 18034 l0 -646 -137 4 -138 3 -3 -3447 c-2 -2798 0 -3448 11
-3448 22 0 261 -31 264 -34 9 -9 2 -1099 -7 -1116 -5 -10 -30 -26 -55 -35 -25
-10 -45 -19 -45 -21 0 -2 9 -13 20 -24 11 -11 20 -31 20 -45 0 -28 -35 -65
-62 -65 -15 0 -18 -8 -18 -50 0 -58 -16 -51 172 -75 124 -17 128 -17 222 5
l96 22 0 44 c0 41 -3 46 -30 56 -51 17 -69 86 -30 110 28 18 26 23 -24 42 -25
9 -50 24 -58 33 -10 13 -13 121 -15 542 -1 289 1 533 3 541 4 14 15 14 102 3
53 -7 116 -10 140 -7 l42 6 0 3474 0 3473 -137 3 -138 3 -3 648 -2 647 -95 0
-95 0 0 -646z m277 -788 c1 -1 3 -1499 5 -3329 l3 -3327 -30 0 c-26 0 -112 10
-305 35 -19 2 -37 4 -40 5 -4 0 -4 6572 -1 6623 1 6 360 -1 368 -7z"/>
</g>
</svg>
