<?xml version="1.0" standalone="no"?>
<!DOCTYPE svg PUBLIC "-//W3C//DTD SVG 20010904//EN"
 "http://www.w3.org/TR/2001/REC-SVG-20010904/DTD/svg10.dtd">
<svg version="1.0" xmlns="http://www.w3.org/2000/svg"
 width="2550.000000pt" height="2700.000000pt" viewBox="0 0 2550.000000 2700.000000"
 preserveAspectRatio="xMidYMid meet">

<g transform="translate(0.000000,2700.000000) scale(0.100000,-0.100000)"
fill="#C5C3C1" stroke="none">
<path d="M8200 15476 c0 -475 -3 -871 -6 -880 -3 -9 -14 -16 -23 -16 -9 0 -23
-4 -31 -10 -12 -7 -12 -12 4 -29 25 -27 17 -62 -19 -81 -16 -8 -32 -18 -35
-21 -3 -3 -13 -8 -22 -12 -10 -3 -18 -10 -18 -16 0 -8 35 -35 74 -56 36 -19
43 -42 23 -77 -10 -17 -16 -32 -15 -33 2 -1 17 -7 33 -12 l30 -10 0 -958 0
-959 -32 -10 c-37 -10 -40 -18 -18 -36 8 -7 15 -22 15 -35 0 -21 -28 -55 -46
-55 -5 0 -22 -11 -39 -24 l-29 -24 57 -36 c61 -39 71 -64 40 -98 -15 -17 -15
-20 -3 -28 8 -6 22 -10 31 -10 9 0 20 -7 23 -16 10 -25 5 -1967 -5 -1985 -4
-9 -22 -22 -39 -29 -31 -13 -37 -24 -20 -35 19 -12 10 -54 -15 -71 -18 -12
-25 -25 -25 -49 l0 -32 158 1 c86 1 163 5 170 9 21 14 15 65 -9 72 -11 4 -25
18 -31 31 -9 19 -8 28 7 44 10 11 16 22 14 23 -18 15 -73 28 -93 23 -14 -3
-27 -2 -30 3 -3 5 5 12 19 15 l25 6 0 995 c0 611 4 995 9 995 5 0 21 4 36 10
l26 10 -22 29 c-21 29 -21 31 -5 55 9 15 23 26 31 26 8 0 25 11 39 24 27 24
34 46 16 46 -18 0 -91 50 -97 66 -3 9 4 28 16 44 l21 29 -32 9 -33 8 -3 962
c-1 596 1 962 7 962 5 0 21 4 36 10 l26 10 -22 29 c-21 29 -21 31 -5 55 9 15
25 26 36 26 11 0 20 4 20 9 0 5 9 13 20 16 32 10 23 32 -25 61 -54 31 -70 56
-55 84 6 11 15 20 20 20 24 0 7 20 -22 28 l-33 8 -3 877 -2 877 -60 0 -60 0 0
-864z"/>
</g>
</svg>
