<?xml version="1.0" standalone="no"?>
<!DOCTYPE svg PUBLIC "-//W3C//DTD SVG 20010904//EN"
 "http://www.w3.org/TR/2001/REC-SVG-20010904/DTD/svg10.dtd">
<svg version="1.0" xmlns="http://www.w3.org/2000/svg"
 width="2550.000000pt" height="2700.000000pt" viewBox="0 0 2550.000000 2700.000000"
 preserveAspectRatio="xMidYMid meet">

<g transform="translate(0.000000,2700.000000) scale(0.100000,-0.100000)"
fill="#C5C3C1" stroke="none">
<path d="M8778 16303 l-38 -4 0 -860 0 -859 -30 -7 c-17 -3 -29 -8 -28 -12 38
-72 36 -81 -28 -117 -49 -28 -49 -50 0 -78 64 -36 66 -44 28 -118 -2 -3 11 -9
28 -13 l30 -7 -2 -946 c-3 -938 -3 -947 -23 -950 -33 -6 -40 -20 -21 -41 23
-26 14 -67 -17 -77 -35 -11 -66 -37 -67 -56 0 -10 5 -18 10 -18 6 0 28 -11 50
-25 43 -27 53 -62 25 -85 -22 -19 -18 -28 15 -35 l30 -7 0 -984 0 -985 -36
-21 c-25 -15 -32 -24 -25 -31 19 -19 12 -55 -14 -75 -17 -14 -25 -30 -25 -51
l0 -31 118 1 c64 0 137 4 162 7 40 6 45 10 48 35 3 21 -3 33 -22 48 -29 23
-33 50 -11 73 13 13 11 16 -23 27 -20 7 -49 12 -64 10 -33 -3 -38 16 -5 21
l22 3 3 975 2 976 30 11 30 11 -17 31 c-20 34 -12 57 23 76 71 37 78 59 28 85
-63 31 -83 72 -49 100 22 19 18 28 -15 35 l-30 7 0 943 0 943 31 7 c16 4 29
10 27 13 -38 74 -36 82 28 118 21 12 39 30 39 39 0 9 -18 27 -39 39 -22 12
-44 29 -50 38 -9 16 -8 21 22 80 2 4 -9 8 -25 10 l-28 3 -3 863 c-2 735 -4
862 -16 862 -8 0 -20 1 -28 3 -7 2 -30 2 -50 0z"/>
</g>
</svg>
