<?xml version="1.0" standalone="no"?>
<!DOCTYPE svg PUBLIC "-//W3C//DTD SVG 20010904//EN"
 "http://www.w3.org/TR/2001/REC-SVG-20010904/DTD/svg10.dtd">
<svg version="1.0" xmlns="http://www.w3.org/2000/svg"
 width="2550.000000pt" height="2700.000000pt" viewBox="0 0 2550.000000 2700.000000"
 preserveAspectRatio="xMidYMid meet">

<g transform="translate(0.000000,2700.000000) scale(0.100000,-0.100000)"
fill="#C5C3C1" stroke="none">
<path d="M10280 15380 c0 -774 -1 -820 -17 -820 -37 0 -45 -15 -26 -47 20 -37
11 -53 -44 -80 -19 -9 -37 -22 -40 -30 -5 -13 33 -52 53 -53 6 0 19 -9 29 -20
19 -21 19 -19 -13 -82 -2 -3 11 -9 27 -13 l31 -7 0 -894 0 -895 -30 -11 c-17
-5 -29 -13 -28 -17 30 -57 31 -61 18 -76 -7 -8 -28 -23 -47 -32 -19 -9 -37
-22 -40 -30 -5 -13 33 -52 53 -53 6 0 19 -9 29 -20 19 -21 19 -19 -13 -82 -2
-3 11 -9 27 -13 l31 -7 0 -928 c0 -1002 3 -948 -50 -965 -22 -7 -26 -20 -10
-30 18 -11 10 -43 -15 -63 -15 -12 -25 -30 -25 -45 0 -25 2 -25 93 -32 55 -4
115 -3 151 4 33 6 61 11 63 11 2 0 3 12 3 26 0 16 -10 34 -25 46 -25 20 -33
52 -15 63 6 3 10 9 10 13 0 13 -57 30 -84 25 -15 -3 -26 -1 -26 6 0 6 9 11 20
11 20 0 20 8 22 932 l3 932 33 8 32 9 -21 28 c-27 36 -16 60 40 87 23 10 41
26 41 34 0 8 -18 24 -41 34 -56 27 -67 51 -40 87 l21 28 -32 9 -33 8 -3 896
-2 896 30 7 c17 4 30 10 28 13 -32 63 -32 62 -17 78 8 8 31 23 50 33 19 10 34
26 34 36 0 10 -15 26 -34 36 -19 10 -42 26 -50 34 -14 14 -14 19 2 47 10 17
16 31 15 32 -2 1 -15 7 -30 14 l-28 12 0 815 0 815 -55 0 -55 0 0 -820z"/>
</g>
</svg>
