<?xml version="1.0" standalone="no"?>
<!DOCTYPE svg PUBLIC "-//W3C//DTD SVG 20010904//EN"
 "http://www.w3.org/TR/2001/REC-SVG-20010904/DTD/svg10.dtd">
<svg version="1.0" xmlns="http://www.w3.org/2000/svg"
 width="2550.000000pt" height="2700.000000pt" viewBox="0 0 2550.000000 2700.000000"
 preserveAspectRatio="xMidYMid meet">

<g transform="translate(0.000000,2700.000000) scale(0.100000,-0.100000)"
fill="#C5C3C1" stroke="none">
<path d="M7630 15487 l0 -895 -35 -6 c-38 -7 -43 -17 -20 -36 8 -7 15 -26 15
-42 0 -23 -6 -32 -32 -43 -48 -21 -82 -50 -74 -64 4 -6 13 -11 21 -11 7 0 15
-4 17 -8 2 -5 17 -15 33 -23 35 -17 43 -50 21 -84 -21 -33 -21 -33 19 -41 l35
-6 -2 -982 -3 -981 -25 -3 c-37 -5 -46 -19 -26 -41 25 -27 17 -62 -19 -81 -16
-8 -35 -21 -43 -27 -7 -7 -18 -13 -23 -13 -18 0 -9 -29 11 -35 11 -3 20 -11
20 -16 0 -5 8 -9 18 -9 42 0 68 -64 37 -90 -23 -19 -18 -29 18 -38 l32 -8 3
-1000 c1 -549 0 -1009 -3 -1022 -3 -13 -20 -30 -40 -39 -36 -17 -42 -27 -25
-38 20 -12 10 -54 -19 -77 -23 -18 -28 -29 -24 -49 l5 -27 121 0 c67 0 145 2
172 6 47 7 50 9 53 40 2 22 -1 32 -11 32 -33 0 -63 69 -37 85 6 3 10 10 10 15
0 14 -69 32 -95 26 -13 -3 -27 -2 -30 4 -4 6 7 13 24 16 l31 7 0 1013 c0 622
4 1014 9 1014 5 0 21 4 36 10 l25 10 -20 20 c-11 11 -20 28 -20 38 0 21 30 52
49 52 6 0 14 7 17 15 4 8 12 15 19 15 28 0 28 24 -1 47 -16 12 -34 23 -40 23
-16 0 -44 34 -44 53 0 9 9 26 20 37 l20 20 -25 10 c-15 6 -30 10 -36 10 -5 0
-10 387 -11 976 l-3 976 25 9 c14 5 31 12 39 15 11 3 9 10 -9 29 -29 31 -21
69 17 83 16 6 39 20 53 32 l25 20 -30 23 c-16 12 -38 27 -49 32 -10 6 -24 18
-29 27 -10 16 -9 22 21 80 2 3 -11 9 -27 13 -20 4 -31 13 -31 23 0 9 -1 411
-3 892 l-2 875 -62 3 -63 3 0 -894z"/>
</g>
</svg>
