<?xml version="1.0" standalone="no"?>
<!DOCTYPE svg PUBLIC "-//W3C//DTD SVG 20010904//EN"
 "http://www.w3.org/TR/2001/REC-SVG-20010904/DTD/svg10.dtd">
<svg version="1.0" xmlns="http://www.w3.org/2000/svg"
 width="2550.000000pt" height="2700.000000pt" viewBox="0 0 2550.000000 2700.000000"
 preserveAspectRatio="xMidYMid meet">

<g transform="translate(0.000000,2700.000000) scale(0.100000,-0.100000)"
fill="#C5C3C1" stroke="none">
<path d="M14290 12221 l0 -1329 -35 -6 c-46 -9 -50 -20 -24 -56 29 -38 18 -77
-26 -100 -17 -8 -32 -19 -34 -23 -2 -5 -14 -12 -27 -17 -13 -5 -24 -16 -24
-23 0 -15 45 -51 78 -61 51 -17 64 -84 25 -128 -14 -16 -13 -18 11 -28 15 -5
34 -10 42 -10 12 0 14 -171 14 -1255 0 -1114 -2 -1255 -15 -1255 -8 0 -25 -6
-38 -13 -12 -6 -24 -13 -26 -14 -2 -1 6 -14 18 -29 11 -15 21 -37 21 -50 0
-25 -31 -60 -62 -70 -10 -3 -18 -10 -18 -15 0 -5 -11 -14 -25 -19 -14 -5 -25
-16 -25 -25 0 -9 11 -20 25 -25 14 -5 25 -14 25 -20 0 -5 9 -10 20 -10 53 0
78 -77 39 -119 -25 -26 -24 -26 21 -38 l35 -9 3 -1425 c1 -783 0 -1434 -3
-1446 -3 -13 -22 -31 -45 -43 -22 -11 -40 -23 -40 -26 0 -2 7 -16 16 -29 21
-32 6 -74 -36 -98 -26 -16 -29 -22 -23 -50 3 -18 7 -33 8 -35 1 -1 63 -7 138
-13 l136 -11 70 27 c70 28 71 29 71 64 0 29 -6 39 -30 53 -37 21 -48 60 -26
93 16 24 16 25 -21 40 -21 9 -41 21 -45 28 -4 7 -8 657 -8 1445 l0 1432 28 11
c15 5 33 12 41 15 11 3 9 10 -8 27 -28 31 -27 77 2 105 13 12 27 22 33 22 5 1
24 14 43 30 29 25 32 32 21 45 -7 8 -19 15 -26 15 -8 0 -14 5 -14 10 0 6 -6
10 -14 10 -7 0 -25 9 -40 21 -32 25 -34 66 -6 101 l19 25 -25 12 c-14 6 -31
11 -39 11 -13 0 -15 164 -15 1250 l0 1250 28 11 c15 5 33 12 40 14 10 4 8 11
-7 31 -38 48 -22 101 37 118 12 4 22 12 22 17 0 5 12 14 26 19 31 12 29 44 -4
48 -12 2 -22 10 -22 18 0 8 -8 14 -18 14 -26 0 -62 42 -62 71 0 14 9 35 21 48
25 26 24 26 -21 38 l-35 9 -3 1327 -2 1327 -80 0 -80 0 0 -1329z"/>
</g>
</svg>
