<?xml version="1.0" standalone="no"?>
<!DOCTYPE svg PUBLIC "-//W3C//DTD SVG 20010904//EN"
 "http://www.w3.org/TR/2001/REC-SVG-20010904/DTD/svg10.dtd">
<svg version="1.0" xmlns="http://www.w3.org/2000/svg"
 width="2550.000000pt" height="2700.000000pt" viewBox="0 0 2550.000000 2700.000000"
 preserveAspectRatio="xMidYMid meet">

<g transform="translate(0.000000,2700.000000) scale(0.100000,-0.100000)"
fill="#C5C3C1" stroke="none">
<path d="M18857 22096 l-47 -43 -3 -1039 -2 -1038 -35 -9 c-19 -5 -37 -10 -38
-12 -2 -2 6 -17 18 -33 31 -41 21 -78 -25 -98 -19 -8 -35 -19 -35 -24 0 -6 -7
-10 -15 -10 -9 0 -18 -7 -21 -15 -7 -17 25 -51 72 -75 44 -23 53 -63 25 -101
-13 -17 -21 -32 -19 -33 1 -1 20 -10 40 -20 l38 -17 0 -1084 0 -1085 -40 -16
c-46 -18 -48 -24 -20 -49 11 -10 20 -28 20 -40 0 -23 -38 -65 -58 -65 -16 0
-62 -41 -62 -55 0 -12 53 -55 68 -55 15 0 52 -46 52 -65 0 -10 -9 -29 -21 -41
-25 -27 -19 -41 24 -52 l32 -8 2 -1089 c3 -1203 8 -1122 -61 -1145 l-36 -11
22 -29 c18 -25 20 -33 10 -55 -7 -14 -23 -30 -37 -37 -19 -9 -25 -19 -25 -45
l0 -33 190 0 190 0 0 33 c0 25 -7 39 -30 55 -33 25 -40 61 -15 82 22 18 19 25
-20 39 -19 7 -40 21 -45 31 -7 12 -9 394 -8 1111 l3 1093 35 9 c45 12 46 12
21 38 -37 40 -17 109 32 109 9 0 17 5 17 10 0 6 11 15 25 20 29 11 33 38 8 47
-10 3 -25 12 -33 20 -8 7 -27 23 -42 34 -34 25 -36 56 -7 93 15 20 17 27 7 31
-7 2 -25 9 -41 14 l-27 11 2 1092 3 1092 35 9 c45 11 45 12 20 37 -31 31 -24
80 15 100 17 8 32 19 34 23 2 5 14 12 27 17 31 12 31 38 -1 50 -14 5 -25 14
-25 19 0 5 -9 13 -20 16 -52 16 -66 72 -29 111 l22 23 -42 17 -41 16 -2 1081
c-3 952 -5 1082 -18 1084 -8 2 -36 -17 -63 -41z m108 -7424 c-3 -3 -11 0 -18
7 -9 10 -8 11 6 5 10 -3 15 -9 12 -12z"/>
</g>
</svg>
