<?xml version="1.0" standalone="no"?>
<!DOCTYPE svg PUBLIC "-//W3C//DTD SVG 20010904//EN"
 "http://www.w3.org/TR/2001/REC-SVG-20010904/DTD/svg10.dtd">
<svg version="1.0" xmlns="http://www.w3.org/2000/svg"
 width="2550.000000pt" height="2700.000000pt" viewBox="0 0 2550.000000 2700.000000"
 preserveAspectRatio="xMidYMid meet">

<g transform="translate(0.000000,2700.000000) scale(0.100000,-0.100000)"
fill="#C5C3C1" stroke="none">
<path d="M19927 23122 l-47 -48 0 -1065 0 -1066 -41 -12 -41 -12 20 -22 c34
-38 36 -64 8 -92 -14 -14 -32 -25 -41 -25 -8 0 -15 -4 -15 -10 0 -5 -6 -10
-14 -10 -7 0 -19 -7 -26 -16 -11 -13 -9 -19 16 -42 17 -15 42 -33 56 -41 29
-15 52 -56 42 -74 -4 -7 -16 -22 -27 -34 l-20 -23 41 -17 42 -18 0 -1102 0
-1102 -41 -11 -41 -11 20 -22 c34 -38 36 -64 8 -92 -14 -14 -32 -25 -41 -25
-8 0 -15 -5 -15 -10 0 -6 -11 -15 -25 -20 -37 -14 -34 -23 19 -67 8 -7 19 -13
25 -13 5 0 21 -14 35 -30 27 -33 26 -51 -7 -87 l-20 -23 41 -17 42 -18 -3
-1565 -2 -1565 -43 -23 c-40 -22 -42 -25 -28 -41 30 -33 8 -101 -32 -101 -7 0
-12 -16 -12 -40 l0 -40 190 0 190 0 0 34 c0 25 -6 38 -25 50 -42 28 -50 54
-26 86 l20 28 -30 13 c-17 6 -37 18 -45 26 -12 12 -14 243 -14 1578 l0 1563
35 6 c19 4 35 9 35 11 0 2 -10 20 -21 40 -26 43 -16 78 28 98 16 6 34 17 41
24 7 7 18 13 23 13 18 0 9 42 -11 47 -11 3 -20 9 -20 14 0 5 -14 16 -30 24
-17 9 -36 27 -42 41 -10 21 -8 29 11 55 22 29 22 31 4 44 -10 8 -26 15 -36 15
-16 0 -17 57 -15 1107 l3 1107 33 8 c38 10 38 12 12 45 -11 14 -20 31 -20 38
0 21 40 65 60 65 10 0 20 7 24 15 3 8 12 15 21 15 40 0 -16 79 -67 96 -33 10
-41 52 -18 91 11 19 20 35 20 37 0 1 -16 8 -35 16 l-35 14 0 1112 c0 1005 -2
1112 -16 1118 -25 10 -27 8 -77 -42z"/>
</g>
</svg>
