<?xml version="1.0" standalone="no"?>
<!DOCTYPE svg PUBLIC "-//W3C//DTD SVG 20010904//EN"
 "http://www.w3.org/TR/2001/REC-SVG-20010904/DTD/svg10.dtd">
<svg version="1.0" xmlns="http://www.w3.org/2000/svg"
 width="2550.000000pt" height="2700.000000pt" viewBox="0 0 2550.000000 2700.000000"
 preserveAspectRatio="xMidYMid meet">

<g transform="translate(0.000000,2700.000000) scale(0.100000,-0.100000)"
fill="#C5C3C1" stroke="none">
<path d="M12838 12278 c-3 -1264 -3 -1273 -23 -1277 -11 -2 -31 -8 -44 -13
l-24 -9 20 -22 c37 -39 38 -64 4 -97 -16 -17 -37 -30 -45 -30 -9 0 -16 -5 -16
-10 0 -6 -11 -15 -25 -20 -14 -5 -25 -14 -25 -19 0 -12 66 -61 83 -61 17 0 44
-29 47 -50 5 -30 0 -47 -20 -68 l-21 -22 23 -9 c13 -5 32 -10 43 -12 20 -4 20
-12 20 -1233 0 -1082 -2 -1230 -15 -1237 -8 -5 -28 -14 -43 -19 l-29 -10 26
-31 c14 -17 26 -37 26 -46 0 -19 -54 -73 -74 -73 -9 0 -16 -7 -16 -15 0 -8 -6
-15 -14 -15 -18 0 -37 -23 -28 -35 9 -13 38 -31 79 -49 50 -23 61 -56 34 -102
-12 -20 -21 -38 -19 -39 2 -2 19 -7 38 -12 l35 -9 3 -1435 c1 -1010 -1 -1442
-9 -1460 -6 -16 -26 -34 -49 -44 -37 -17 -38 -17 -22 -44 21 -37 9 -78 -29
-99 -25 -15 -29 -22 -27 -52 l3 -35 133 -11 c132 -11 134 -10 209 16 100 36
116 73 50 115 -35 22 -49 74 -26 101 6 8 10 15 8 17 -2 1 -22 11 -44 22 l-40
20 -3 1446 -2 1446 40 16 c35 14 55 37 31 37 -14 0 -33 57 -27 78 4 11 21 26
39 33 37 14 87 63 87 85 0 8 -9 14 -20 14 -11 0 -20 4 -20 9 0 5 -17 18 -37
28 -52 25 -64 63 -34 104 13 17 21 32 19 34 -1 2 -19 7 -38 12 l-35 9 -3 1215
c-1 668 0 1224 3 1235 3 15 15 24 40 28 38 7 43 17 21 35 -23 19 -29 61 -11
87 8 13 21 21 28 19 6 -2 26 18 44 44 30 47 31 48 12 65 -11 9 -26 16 -33 16
-8 0 -26 14 -40 31 -29 35 -28 59 7 96 l20 22 -47 13 -46 12 0 1268 0 1268
-75 0 -75 0 -2 -1272z"/>
</g>
</svg>
