<?xml version="1.0" standalone="no"?>
<!DOCTYPE svg PUBLIC "-//W3C//DTD SVG 20010904//EN"
 "http://www.w3.org/TR/2001/REC-SVG-20010904/DTD/svg10.dtd">
<svg version="1.0" xmlns="http://www.w3.org/2000/svg"
 width="2550.000000pt" height="2700.000000pt" viewBox="0 0 2550.000000 2700.000000"
 preserveAspectRatio="xMidYMid meet">

<g transform="translate(0.000000,2700.000000) scale(0.100000,-0.100000)"
fill="#C5C3C1" stroke="none">
<path d="M15733 19108 l-43 -44 -2 -1034 -3 -1034 -37 -9 c-43 -10 -46 -17
-18 -42 11 -10 20 -28 20 -41 0 -22 -34 -64 -53 -64 -18 0 -67 -42 -67 -57 0
-8 9 -17 19 -20 11 -3 22 -11 25 -19 3 -8 12 -14 21 -14 22 0 55 -37 55 -62 0
-12 -10 -32 -21 -44 l-22 -23 24 -10 c13 -5 32 -12 42 -15 16 -5 17 -65 17
-1066 l0 -1060 -27 -11 c-16 -5 -34 -12 -41 -14 -10 -4 -8 -11 7 -31 12 -15
21 -37 21 -50 0 -23 -42 -64 -66 -64 -8 0 -14 -4 -14 -9 0 -5 -9 -13 -20 -16
-34 -11 -22 -33 38 -72 65 -44 75 -70 44 -113 l-21 -27 25 -12 c14 -6 31 -11
39 -11 13 0 15 -195 15 -1504 0 -827 -3 -1512 -6 -1521 -4 -9 -24 -25 -46 -36
-38 -19 -39 -21 -23 -39 24 -27 15 -62 -22 -85 -25 -16 -32 -27 -33 -52 0 -17
3 -34 8 -36 14 -9 277 -9 327 -1 49 9 50 10 52 47 1 37 -6 43 -46 38 -7 -2
-10 2 -7 8 4 6 1 19 -6 31 -11 17 -10 25 4 50 l17 30 -34 14 c-18 8 -38 23
-43 33 -9 19 -15 2984 -6 3016 3 9 15 17 27 17 12 0 28 4 36 9 11 7 10 13 -8
32 -11 12 -21 33 -21 45 0 23 42 64 66 64 8 0 14 4 14 9 0 5 9 13 20 16 11 3
20 15 20 25 0 10 -9 22 -20 25 -11 3 -20 10 -20 15 0 5 -10 12 -22 16 -58 17
-75 67 -37 105 24 24 16 39 -22 42 -13 0 -27 6 -31 12 -4 5 -7 483 -7 1062 1
785 4 1054 12 1061 7 5 25 12 40 16 l28 7 -21 26 c-11 14 -20 36 -20 49 0 23
42 64 66 64 8 0 14 4 14 9 0 5 9 13 20 16 33 11 23 30 -37 72 -65 44 -77 74
-43 110 11 12 20 24 20 26 0 3 -18 12 -39 20 l-39 16 0 1073 -1 1073 -23 3
c-16 2 -36 -10 -65 -40z"/>
</g>
</svg>
