<?xml version="1.0" standalone="no"?>
<!DOCTYPE svg PUBLIC "-//W3C//DTD SVG 20010904//EN"
 "http://www.w3.org/TR/2001/REC-SVG-20010904/DTD/svg10.dtd">
<svg version="1.0" xmlns="http://www.w3.org/2000/svg"
 width="2644.000000pt" height="2800.000000pt" viewBox="0 0 2644.000000 2800.000000"
 preserveAspectRatio="xMidYMid meet">

<g transform="translate(0.000000,2800.000000) scale(0.100000,-0.100000)"
fill="#65340A" stroke="none">
<path d="M9420 17273 c0 -4 0 -632 0 -1396 l0 -1387 -21 -29 c-18 -24 -19 -31
-8 -49 10 -16 10 -26 1 -47 -9 -20 -9 -30 0 -45 7 -11 16 -20 20 -20 16 0 7
-56 -12 -85 -11 -16 -20 -41 -20 -55 l1 -25 25 29 c14 15 28 26 31 22 4 -3
-23 -36 -59 -74 -78 -81 -89 -112 -58 -172 18 -35 23 -40 37 -29 10 9 13 23
10 46 -6 36 9 103 23 103 11 0 50 -54 50 -71 0 -7 -25 -38 -54 -69 -82 -86
-85 -123 -17 -205 37 -45 51 -80 51 -131 0 -13 -4 -24 -8 -24 -18 0 -29 -44
-19 -68 8 -17 7 -29 -2 -44 -11 -18 -10 -25 8 -49 21 -28 21 -34 21 -734 0
-442 -4 -713 -10 -725 -5 -10 -23 -23 -40 -28 l-30 -11 18 -31 17 -31 -32 -28
c-25 -20 -33 -36 -33 -59 l0 -32 118 0 c64 0 141 3 170 6 49 6 52 8 52 36 0
19 -10 37 -32 57 -32 28 -32 28 -14 56 21 32 13 41 -44 51 -63 10 -66 11 -42
19 12 4 22 10 23 14 0 3 2 323 3 711 2 649 4 708 20 732 14 22 15 30 5 46 -10
16 -10 26 -1 47 13 28 2 65 -20 65 -7 0 -9 17 -5 49 5 40 15 62 51 106 49 60
58 97 33 145 -11 22 -10 31 11 72 29 57 24 89 -24 152 -20 26 -31 51 -28 60 3
9 -6 36 -20 60 -25 43 -35 96 -18 96 5 0 14 11 21 24 10 19 10 27 0 44 -11 17
-11 25 1 46 12 23 11 28 -6 47 -19 21 -19 56 -19 1418 l0 1396 -62 3 c-35 2
-63 -1 -63 -5z m95 -3142 c16 -19 16 -21 -5 -51 l-22 -31 -24 22 c-28 27 -30
36 -7 61 21 23 36 23 58 -1z m74 -102 c13 -37 15 -89 4 -89 -5 0 -21 16 -36
35 -27 33 -27 36 -11 60 21 33 30 32 43 -6z m33 -11 c-9 -9 -12 -7 -12 12 0
19 3 21 12 12 9 -9 9 -15 0 -24z m-106 -85 c18 -16 34 -32 34 -37 0 -13 -51
-66 -64 -66 -5 0 -25 14 -43 32 l-33 32 32 33 c18 18 34 33 35 33 2 0 20 -12
39 -27z m-85 -172 c-10 -18 -9 -20 6 -14 16 6 16 5 4 -10 -7 -9 -18 -14 -23
-11 -14 9 -38 69 -38 96 0 22 1 21 31 -8 27 -27 29 -34 20 -53z m168 60 c11
-7 11 -10 -2 -17 -8 -5 -22 -25 -30 -44 l-14 -35 -13 28 c-12 24 -11 30 10 52
26 28 29 29 49 16z m-99 -127 c0 -15 -6 -24 -15 -24 -21 0 -30 27 -15 45 16
19 30 10 30 -21z"/>
</g>
</svg>
