<?xml version="1.0" standalone="no"?>
<!DOCTYPE svg PUBLIC "-//W3C//DTD SVG 20010904//EN"
 "http://www.w3.org/TR/2001/REC-SVG-20010904/DTD/svg10.dtd">
<svg version="1.0" xmlns="http://www.w3.org/2000/svg"
 width="2644.000000pt" height="2800.000000pt" viewBox="0 0 2644.000000 2800.000000"
 preserveAspectRatio="xMidYMid meet">

<g transform="translate(0.000000,2800.000000) scale(0.100000,-0.100000)"
fill="#65340A" stroke="none">
<path d="M2130 12436 l0 -1785 -25 -27 c-29 -31 -31 -46 -10 -64 8 -7 15 -20
15 -30 0 -10 -7 -23 -15 -30 -21 -17 -19 -31 10 -62 37 -40 29 -117 -22 -198
-12 -19 -25 -48 -28 -65 -4 -16 -18 -47 -32 -67 l-25 -36 20 -44 c12 -28 16
-51 11 -63 -4 -11 -8 -37 -8 -58 -1 -21 -6 -47 -11 -58 -13 -23 -3 -45 46
-106 19 -23 34 -52 34 -65 0 -13 9 -36 20 -53 19 -29 28 -105 12 -105 -4 0
-16 -13 -25 -30 -17 -27 -17 -31 -2 -54 15 -23 15 -27 0 -54 -17 -27 -17 -30
0 -55 9 -15 21 -27 26 -27 5 0 9 -821 9 -1923 0 -1647 -2 -1926 -14 -1943 -8
-11 -33 -29 -55 -39 -39 -17 -40 -19 -21 -32 38 -27 16 -94 -35 -107 -21 -5
-25 -12 -25 -41 0 -18 6 -37 13 -42 6 -4 65 -13 131 -19 115 -10 121 -10 215
17 l96 26 0 44 c0 36 -4 44 -20 47 -52 10 -70 60 -35 97 l20 22 -39 11 c-21 7
-44 19 -51 27 -11 13 -13 390 -11 1937 l2 1920 22 29 c20 29 21 30 3 59 -16
27 -16 32 -2 52 22 31 20 42 -9 69 -31 30 -33 77 -3 114 13 17 22 43 22 65 1
27 11 49 37 81 69 84 74 115 32 186 l-26 45 21 44 c34 70 30 95 -32 167 -51
61 -60 80 -73 170 -4 32 -1 40 21 58 30 23 32 40 11 73 -14 21 -14 26 2 53 16
29 16 31 -5 60 l-22 31 0 1729 0 1729 -53 52 c-41 41 -59 52 -85 52 l-32 0 0
-1784z m113 -2205 c-14 -37 -45 -40 -63 -6 -12 22 -11 27 5 45 l18 20 23 -21
c14 -13 20 -28 17 -38z m101 -116 c10 -52 -6 -60 -47 -21 -20 19 -37 38 -37
41 0 4 10 20 21 37 l22 30 17 -29 c10 -15 21 -41 24 -58z m-209 44 c6 -27 2
-36 -24 -63 l-31 -31 0 28 c0 34 25 97 39 97 5 0 12 -14 16 -31z m139 -148
c28 -29 28 -31 12 -55 -16 -25 -66 -60 -52 -37 9 14 -16 15 -30 1 -7 -7 -24 4
-52 32 l-43 42 42 42 42 43 26 -19 c14 -10 39 -32 55 -49z m78 -89 c6 -22 -15
-109 -30 -124 -8 -8 -18 -2 -36 18 -14 16 -26 33 -26 39 0 10 70 85 81 85 4 0
9 -8 11 -18z m-239 -37 c27 -33 28 -35 12 -64 -20 -39 -30 -39 -44 0 -13 36
-15 99 -3 98 4 0 20 -16 35 -34z m120 -177 l-27 -28 -28 27 c-25 24 -26 29
-15 47 8 12 17 27 21 34 6 11 16 6 42 -19 l34 -33 -27 -28z"/>
</g>
</svg>
