<?xml version="1.0" standalone="no"?>
<!DOCTYPE svg PUBLIC "-//W3C//DTD SVG 20010904//EN"
 "http://www.w3.org/TR/2001/REC-SVG-20010904/DTD/svg10.dtd">
<svg version="1.0" xmlns="http://www.w3.org/2000/svg"
 width="2644.000000pt" height="2800.000000pt" viewBox="0 0 2644.000000 2800.000000"
 preserveAspectRatio="xMidYMid meet">

<g transform="translate(0.000000,2800.000000) scale(0.100000,-0.100000)"
fill="#65340A" stroke="none">
<path d="M6727 15966 c1 -1492 1 -1525 -18 -1542 -22 -19 -25 -54 -7 -72 10
-10 10 -17 0 -32 -18 -29 -15 -58 8 -72 27 -17 26 -62 -2 -101 -12 -17 -22
-46 -22 -64 0 -24 -11 -46 -38 -79 -52 -63 -57 -100 -23 -163 26 -46 26 -51
11 -72 -19 -27 -21 -81 -5 -112 6 -12 24 -36 40 -52 30 -32 59 -101 59 -141 0
-13 -9 -33 -21 -45 -16 -16 -19 -28 -14 -47 8 -34 8 -50 0 -83 -5 -19 -1 -32
13 -45 19 -19 19 -43 21 -1663 2 -1820 7 -1678 -64 -1701 l-37 -12 23 -24 c19
-20 21 -27 11 -49 -7 -14 -23 -31 -37 -37 -22 -10 -26 -17 -23 -47 l3 -36 125
-3 c69 -2 155 2 193 8 l67 12 0 34 c0 27 -5 36 -24 44 -44 16 -51 54 -19 91
12 15 9 18 -26 33 -24 9 -53 13 -71 10 -19 -4 -30 -2 -30 5 0 6 11 11 25 11
l25 0 0 1660 c0 913 3 1660 8 1660 4 0 13 9 19 19 9 15 9 26 0 50 -9 25 -9 36
1 51 13 22 6 46 -22 69 -8 7 -13 20 -12 29 2 9 7 35 11 57 4 25 20 54 45 81
54 58 67 104 45 159 -15 42 -15 45 4 84 31 60 27 94 -19 160 -26 36 -40 68
-40 88 0 16 -9 41 -19 54 -25 32 -30 82 -10 106 27 31 30 42 17 62 -10 16 -10
27 -1 52 9 24 9 35 0 50 -6 10 -15 19 -19 19 -5 0 -8 689 -8 1530 l0 1530 -72
0 -73 0 2 -1524z m113 -1946 c-5 -9 -16 -23 -25 -30 -13 -11 -19 -9 -40 10
-31 29 -31 37 -3 67 l22 23 27 -26 c21 -20 26 -31 19 -44z m-111 -60 l22 -30
-32 -40 c-18 -22 -36 -37 -40 -34 -19 12 -1 134 20 134 4 0 17 -14 30 -30z
m190 -24 c10 -42 7 -77 -8 -75 -3 0 -19 16 -34 34 l-28 34 22 30 c12 17 25 28
29 26 4 -3 13 -25 19 -49z m-70 -100 l32 -33 -38 -37 c-21 -20 -40 -36 -43
-35 -3 0 -23 16 -45 35 l-40 35 37 35 c21 19 44 34 51 34 7 0 28 -15 46 -34z
m-124 -126 c27 -28 27 -30 12 -61 l-15 -32 -21 41 c-21 42 -28 82 -13 82 5 0
21 -13 37 -30z m175 -45 c-14 -41 -26 -44 -42 -10 -10 22 -8 29 18 56 27 29
29 29 32 10 2 -12 -2 -37 -8 -56z m-82 -69 c7 -17 7 -27 -1 -35 -28 -28 -57 1
-37 38 14 27 24 26 38 -3z"/>
</g>
</svg>
