<?xml version="1.0" standalone="no"?>
<!DOCTYPE svg PUBLIC "-//W3C//DTD SVG 20010904//EN"
 "http://www.w3.org/TR/2001/REC-SVG-20010904/DTD/svg10.dtd">
<svg version="1.0" xmlns="http://www.w3.org/2000/svg"
 width="2644.000000pt" height="2800.000000pt" viewBox="0 0 2644.000000 2800.000000"
 preserveAspectRatio="xMidYMid meet">

<g transform="translate(0.000000,2800.000000) scale(0.100000,-0.100000)"
fill="#65340A" stroke="none">
<path d="M21610 27980 c0 -11 -4 -20 -10 -20 -7 0 -10 -495 -10 -1465 0 -1432
0 -1465 -19 -1496 -18 -29 -18 -35 -5 -61 12 -24 13 -32 1 -55 -16 -31 -13
-45 14 -85 25 -35 24 -71 -5 -105 -35 -43 -58 -92 -60 -132 -1 -21 -12 -51
-24 -68 -58 -82 -67 -160 -27 -239 20 -40 23 -54 15 -84 -17 -65 14 -141 84
-209 43 -42 50 -96 16 -126 -22 -20 -27 -64 -9 -82 8 -8 7 -21 -2 -47 -12 -32
-11 -41 4 -69 16 -30 17 -162 15 -2157 l-3 -2125 -40 -20 c-22 -11 -42 -21
-43 -22 -2 -1 6 -14 18 -30 18 -25 19 -33 9 -55 -6 -14 -22 -31 -35 -37 -13
-6 -24 -19 -24 -30 0 -18 8 -19 188 -14 103 2 193 7 201 9 10 3 5 11 -17 24
-43 26 -51 64 -22 95 l23 24 -45 20 c-25 10 -48 27 -52 36 -3 9 -6 966 -6
2127 0 2095 0 2110 20 2135 22 28 26 58 10 68 -14 9 -13 41 2 65 11 17 9 27
-10 63 -13 26 -22 60 -22 87 0 42 5 52 60 113 65 73 74 106 45 157 -22 38 -18
56 20 113 19 28 35 62 35 75 0 22 -68 134 -90 147 -6 4 -6 15 0 31 20 50 12
82 -30 128 -31 34 -40 51 -40 80 0 20 4 36 10 36 22 0 33 42 19 82 -9 29 -10
41 -1 50 18 18 14 50 -8 78 -19 25 -20 52 -20 1497 0 926 4 1474 10 1478 5 3
7 12 3 20 -4 11 -23 15 -74 15 -62 0 -69 -2 -69 -20z m74 -3446 l28 -36 -38
-39 -39 -40 -22 27 c-12 15 -24 36 -26 46 -6 20 37 78 56 78 7 0 25 -16 41
-36z m115 -110 c28 -36 29 -104 1 -129 -20 -18 -21 -18 -65 25 l-44 44 37 42
c20 23 40 43 44 43 4 1 16 -11 27 -25z m-240 -20 l21 -35 -23 -39 c-12 -22
-25 -40 -29 -40 -7 0 -11 29 -10 65 1 21 13 85 16 85 2 0 13 -16 25 -36z m126
-144 l39 -40 -39 -42 c-22 -24 -41 -45 -43 -47 -4 -7 -82 72 -82 84 0 16 60
85 74 85 6 0 30 -18 51 -40z m105 -121 c0 -25 -27 -84 -45 -99 -9 -8 -17 -4
-29 15 -16 24 -15 26 20 65 41 45 54 50 54 19z m-192 -95 c-3 -16 -7 -13 -21
13 -23 43 -21 52 4 26 12 -11 19 -29 17 -39z m77 -63 c3 -5 1 -12 -5 -16 -5
-3 -10 1 -10 9 0 18 6 21 15 7z"/>
</g>
</svg>
