<?xml version="1.0" standalone="no"?>
<!DOCTYPE svg PUBLIC "-//W3C//DTD SVG 20010904//EN"
 "http://www.w3.org/TR/2001/REC-SVG-20010904/DTD/svg10.dtd">
<svg version="1.0" xmlns="http://www.w3.org/2000/svg"
 width="2644.000000pt" height="2800.000000pt" viewBox="0 0 2644.000000 2800.000000"
 preserveAspectRatio="xMidYMid meet">

<g transform="translate(0.000000,2800.000000) scale(0.100000,-0.100000)"
fill="#65340A" stroke="none">
<path d="M22830 27980 c0 -11 -4 -20 -10 -20 -7 0 -10 -305 -10 -895 l0 -896
-22 -30 c-20 -26 -21 -33 -9 -65 10 -28 10 -42 1 -64 -10 -23 -9 -35 1 -60 8
-16 17 -30 21 -30 5 0 8 -18 8 -39 0 -30 -8 -49 -35 -81 -34 -41 -55 -95 -53
-135 1 -11 -14 -44 -32 -73 -45 -71 -51 -140 -19 -208 17 -38 22 -63 20 -110
-3 -75 12 -113 73 -180 52 -59 60 -98 26 -141 -22 -28 -26 -58 -10 -68 6 -3
10 -17 10 -30 0 -13 -4 -27 -10 -30 -16 -10 -11 -48 10 -75 19 -25 20 -53 20
-1638 0 -987 -4 -1620 -9 -1631 -6 -10 -28 -26 -50 -36 l-40 -18 19 -25 c11
-13 20 -32 20 -42 0 -19 -40 -60 -58 -60 -7 0 -12 -5 -12 -11 0 -10 167 -7
297 7 51 5 52 6 41 30 -10 20 -8 29 10 54 l22 29 -43 23 -42 23 -3 1627 c-2
1590 -2 1628 17 1659 18 29 18 34 4 64 -14 30 -14 35 0 55 17 24 14 40 -15 82
-11 16 -18 44 -18 72 0 41 6 53 54 109 80 95 82 99 56 163 l-23 54 36 55 c55
82 55 89 -3 174 -47 68 -50 76 -40 104 17 50 12 66 -35 116 -48 52 -59 97 -29
121 28 24 33 45 17 77 -13 27 -13 34 0 60 14 25 13 31 -4 63 -17 33 -18 78
-19 942 0 567 4 909 10 913 5 3 7 12 3 20 -4 11 -23 15 -74 15 -62 0 -69 -2
-69 -20z m125 -2258 c-6 -7 -34 29 -34 43 0 6 9 -1 20 -14 11 -13 17 -26 14
-29z m-35 -94 c0 -13 -65 -78 -77 -78 -16 0 -43 46 -43 72 0 12 12 35 27 50
l27 28 33 -32 c18 -18 33 -36 33 -40z m116 -139 c5 -29 1 -41 -19 -65 l-26
-29 -47 46 -46 46 43 41 44 41 23 -23 c12 -12 25 -38 28 -57z m-267 35 l21
-35 -23 -39 c-12 -22 -25 -40 -29 -40 -9 0 -10 95 -2 128 4 12 8 22 9 22 2 0
12 -16 24 -36z m126 -144 l39 -40 -34 -37 c-19 -21 -38 -42 -42 -48 -9 -10
-88 62 -88 80 0 16 60 85 74 85 6 0 30 -18 51 -40z m105 -125 c0 -29 -21 -75
-43 -93 -12 -10 -18 -8 -30 12 -15 23 -14 25 19 65 41 47 54 51 54 16z m-185
-95 c-6 -9 -12 -6 -21 11 -20 36 -17 46 7 22 13 -12 18 -26 14 -33z m75 -70
c0 -5 -4 -10 -10 -10 -5 0 -10 5 -10 10 0 6 5 10 10 10 6 0 10 -4 10 -10z"/>
</g>
</svg>
