<?xml version="1.0" standalone="no"?>
<!DOCTYPE svg PUBLIC "-//W3C//DTD SVG 20010904//EN"
 "http://www.w3.org/TR/2001/REC-SVG-20010904/DTD/svg10.dtd">
<svg version="1.0" xmlns="http://www.w3.org/2000/svg"
 width="2644.000000pt" height="2800.000000pt" viewBox="0 0 2644.000000 2800.000000"
 preserveAspectRatio="xMidYMid meet">

<g transform="translate(0.000000,2800.000000) scale(0.100000,-0.100000)"
fill="#65340A" stroke="none">
<path d="M24053 27973 c-8 -20 -12 -121 -12 -341 1 -183 -3 -318 -9 -325 -27
-34 -31 -54 -16 -83 12 -21 13 -34 5 -52 -16 -34 -13 -64 9 -92 29 -38 24 -70
-20 -128 -37 -49 -47 -76 -54 -143 -2 -15 -13 -41 -25 -57 -12 -17 -31 -57
-41 -88 -18 -53 -19 -60 -5 -102 9 -24 21 -54 28 -66 6 -11 12 -50 12 -86 0
-78 18 -119 80 -181 37 -36 45 -51 45 -81 0 -21 -4 -38 -10 -38 -5 0 -16 -13
-24 -28 -13 -25 -13 -32 0 -58 14 -26 14 -32 -1 -57 -16 -26 -15 -30 7 -70
l23 -42 -1 -2152 c0 -1655 -3 -2155 -13 -2166 -6 -8 -26 -21 -44 -28 -43 -17
-42 -16 -25 -36 32 -35 26 -79 -12 -101 -45 -25 -37 -34 28 -28 31 3 110 8
175 12 86 4 116 9 108 17 -17 17 -13 55 9 77 20 20 20 20 -11 35 -16 9 -39 25
-50 36 -19 19 -19 52 -19 2179 0 1188 4 2160 8 2160 5 0 14 11 21 24 11 19 11
30 0 59 -11 30 -10 41 1 62 13 24 12 31 -8 68 -13 26 -22 60 -22 87 0 40 6 52
60 115 64 75 73 106 45 155 -21 37 -18 57 15 105 60 88 60 96 -12 193 -39 53
-40 55 -28 97 15 55 8 78 -41 117 -32 25 -39 38 -39 66 0 19 9 45 20 59 22 28
26 58 10 68 -5 3 -10 17 -10 30 0 13 5 27 10 30 16 10 11 48 -10 75 -19 24
-20 43 -20 378 l0 352 -63 0 c-58 0 -63 -2 -74 -27z m132 -1084 c22 -41 13
-48 -14 -11 -23 33 -26 42 -11 42 5 0 17 -14 25 -31z m-59 -84 l26 -35 -33
-39 c-19 -22 -39 -40 -44 -40 -14 -1 -45 52 -45 75 0 18 47 74 61 74 5 0 20
-16 35 -35z m122 -118 c12 -13 24 -37 28 -54 5 -25 0 -36 -23 -62 l-28 -31
-49 43 -49 43 44 42 c24 23 47 42 50 42 3 0 15 -10 27 -23z m-251 -100 c-13
-20 -27 -33 -31 -30 -10 10 -7 90 5 120 l11 28 20 -41 20 -40 -25 -37z m127
-151 c-21 -25 -41 -46 -44 -46 -3 0 -23 18 -44 39 l-39 40 18 28 c10 15 27 38
38 51 l21 23 44 -45 45 -44 -39 -46z m112 -30 c5 -14 -18 -80 -38 -103 -9 -11
-14 -11 -29 3 -25 23 -24 30 12 75 33 41 46 48 55 25z m-186 -105 c-1 -13 -3
-13 -15 3 -19 26 -19 42 0 26 8 -7 15 -20 15 -29z"/>
</g>
</svg>
