<?xml version="1.0" standalone="no"?>
<!DOCTYPE svg PUBLIC "-//W3C//DTD SVG 20010904//EN"
 "http://www.w3.org/TR/2001/REC-SVG-20010904/DTD/svg10.dtd">
<svg version="1.0" xmlns="http://www.w3.org/2000/svg"
 width="2644.000000pt" height="2800.000000pt" viewBox="0 0 2644.000000 2800.000000"
 preserveAspectRatio="xMidYMid meet">

<g transform="translate(0.000000,2800.000000) scale(0.100000,-0.100000)"
fill="#65340A" stroke="none">
<path d="M25217 27994 c-3 -3 -3 -12 -1 -19 3 -7 -9 -34 -26 -61 -56 -89 -63
-151 -25 -231 19 -42 23 -63 18 -101 -7 -63 19 -124 81 -190 35 -37 46 -57 46
-81 0 -17 -4 -31 -10 -31 -5 0 -16 -13 -25 -30 -14 -27 -14 -33 0 -60 14 -27
14 -33 0 -61 -15 -28 -15 -32 4 -65 21 -35 21 -37 21 -1689 0 -1412 -2 -1656
-14 -1668 -8 -8 -28 -20 -45 -27 -35 -14 -38 -22 -16 -40 20 -16 19 -64 0 -80
-11 -9 -13 -16 -5 -24 7 -7 14 -6 22 2 7 7 39 12 72 12 34 0 91 3 129 7 61 5
67 8 67 29 0 13 9 30 21 38 21 14 20 15 -30 51 l-51 37 0 1649 0 1650 22 29
c20 27 20 33 8 70 -10 31 -11 43 -2 52 18 18 14 50 -8 78 -14 18 -20 41 -20
80 0 53 2 57 61 124 66 75 67 78 38 172 -12 40 -12 43 24 91 56 77 56 87 -3
172 -40 56 -50 78 -46 97 6 24 6 24 -74 24 -44 0 -80 -4 -80 -8 0 -5 9 -17 20
-27 27 -25 25 -36 -13 -73 -41 -40 -52 -40 -72 -2 -20 40 -19 60 7 87 l21 23
-55 0 c-30 0 -57 -3 -61 -6z m291 -137 c32 -34 37 -76 13 -114 -12 -18 -26
-33 -31 -33 -6 0 -32 20 -58 45 -39 38 -43 44 -21 36 33 -12 69 -4 69 15 0 9
-11 14 -32 14 l-32 0 29 30 c34 36 36 36 63 7z m-243 -31 c15 -31 15 -35 -5
-70 -12 -20 -26 -33 -31 -30 -17 10 -6 134 12 134 4 0 15 -15 24 -34z m114
-139 l42 -38 -37 -44 c-20 -25 -39 -45 -43 -45 -4 0 -24 18 -45 39 -25 26 -36
44 -30 53 20 34 58 78 64 76 4 -2 26 -20 49 -41z m112 -154 c-6 -22 -20 -48
-31 -58 -20 -18 -21 -18 -35 1 -20 27 -19 29 22 74 43 48 60 41 44 -17z m-181
-62 c-1 -13 -3 -13 -15 3 -19 26 -19 42 0 26 8 -7 15 -20 15 -29z"/>
</g>
</svg>
