<?xml version="1.0" standalone="no"?>
<!DOCTYPE svg PUBLIC "-//W3C//DTD SVG 20010904//EN"
 "http://www.w3.org/TR/2001/REC-SVG-20010904/DTD/svg10.dtd">
<svg version="1.0" xmlns="http://www.w3.org/2000/svg"
 width="2644.000000pt" height="2800.000000pt" viewBox="0 0 2644.000000 2800.000000"
 preserveAspectRatio="xMidYMid meet">

<g transform="translate(0.000000,2800.000000) scale(0.100000,-0.100000)"
fill="#65340A" stroke="none">
<path d="M15421 16159 l-21 -52 0 -1659 0 -1660 -21 -30 c-20 -28 -21 -32 -7
-62 14 -28 14 -35 2 -59 -16 -29 -6 -63 22 -80 25 -15 16 -66 -21 -114 -24
-32 -35 -56 -35 -81 0 -26 3 -33 15 -28 22 8 18 -2 -16 -37 -45 -47 -82 -115
-81 -147 1 -29 47 -120 61 -120 14 0 28 45 20 65 -13 33 -10 84 6 115 9 17 18
30 20 30 3 0 19 -15 35 -32 45 -51 40 -77 -30 -144 -37 -35 -66 -74 -76 -101
-17 -43 -17 -46 4 -86 12 -23 40 -63 62 -88 35 -39 42 -55 47 -103 3 -32 2
-56 -3 -56 -6 0 -18 -13 -27 -30 -16 -27 -17 -32 -2 -60 14 -27 14 -32 -1 -55
-15 -23 -15 -27 5 -60 l21 -36 0 -2084 c0 -1146 -3 -2091 -6 -2100 -4 -9 -24
-25 -45 -36 -43 -21 -47 -30 -24 -49 30 -25 16 -74 -26 -96 -24 -12 -29 -21
-29 -54 0 -46 5 -48 108 -51 41 -1 96 -7 123 -12 38 -7 56 -6 81 6 18 8 50 20
71 27 35 11 37 13 37 56 0 30 -4 44 -13 44 -21 0 -57 39 -57 62 0 12 9 31 20
43 l20 22 -40 13 c-23 8 -45 21 -51 31 -5 11 -9 823 -9 2104 0 2086 0 2087 20
2116 20 26 20 30 5 59 -14 27 -14 33 0 60 14 27 14 32 -1 55 -9 14 -21 25 -26
25 -6 0 -9 22 -6 55 4 46 10 60 45 98 23 25 48 59 57 75 19 36 21 100 5 135
-9 21 -7 32 15 69 17 29 26 60 26 87 0 47 -9 68 -51 122 -21 26 -29 48 -29 76
0 27 -10 55 -35 93 -42 66 -43 91 -8 136 26 35 26 36 9 65 -16 27 -16 31 0 58
16 28 16 30 -5 59 l-21 30 0 1711 0 1711 -59 0 -58 0 -22 -51z m-23 -3799 c-7
-10 -14 -17 -17 -15 -4 4 18 35 25 35 2 0 -1 -9 -8 -20z m126 -29 l28 -30 -20
-29 c-36 -50 -46 -54 -68 -29 -46 52 -46 53 -18 86 32 38 43 39 78 2z m94
-133 c19 -74 20 -85 10 -102 -9 -15 -14 -13 -43 21 -19 21 -34 44 -35 51 0 14
40 72 51 72 3 0 11 -19 17 -42z m-86 -125 c21 -20 38 -42 38 -48 0 -6 -18 -29
-40 -50 l-40 -39 -45 44 -45 44 42 43 c23 24 44 43 47 43 3 0 22 -17 43 -37z
m-102 -193 c0 -9 -6 -25 -14 -35 -13 -18 -14 -17 -31 8 -9 14 -19 46 -22 69
l-6 43 37 -34 c20 -19 36 -42 36 -51z m170 45 c0 -22 -31 -95 -40 -95 -4 0
-11 11 -14 26 -5 18 0 33 16 54 26 32 38 37 38 15z m-150 -79 c0 -3 -4 -8 -10
-11 -5 -3 -10 -1 -10 4 0 6 5 11 10 11 6 0 10 -2 10 -4z m48 -60 c2 -10 -1
-23 -7 -29 -16 -16 -34 6 -26 33 8 24 28 22 33 -4z"/>
</g>
</svg>
