<?xml version="1.0" standalone="no"?>
<!DOCTYPE svg PUBLIC "-//W3C//DTD SVG 20010904//EN"
 "http://www.w3.org/TR/2001/REC-SVG-20010904/DTD/svg10.dtd">
<svg version="1.0" xmlns="http://www.w3.org/2000/svg"
 width="2644.000000pt" height="2800.000000pt" viewBox="0 0 2644.000000 2800.000000"
 preserveAspectRatio="xMidYMid meet">

<g transform="translate(0.000000,2800.000000) scale(0.100000,-0.100000)"
fill="#65340A" stroke="none">
<path d="M17003 23869 l-53 -50 0 -1559 c0 -1526 0 -1560 -19 -1591 -18 -29
-18 -35 -5 -61 13 -25 13 -31 -1 -59 -16 -29 -15 -32 9 -64 35 -45 33 -71 -9
-129 -25 -36 -35 -60 -35 -88 0 -28 -10 -52 -37 -89 -50 -70 -57 -138 -19
-204 20 -37 23 -51 15 -67 -6 -11 -11 -40 -11 -65 0 -46 12 -68 87 -161 26
-33 35 -53 35 -82 0 -22 -6 -42 -14 -47 -7 -4 -18 -18 -25 -31 -10 -18 -9 -28
5 -51 15 -26 15 -30 -1 -54 -16 -26 -16 -28 4 -62 l21 -36 0 -2039 c0 -1744
-2 -2041 -14 -2053 -8 -8 -28 -20 -45 -27 -35 -14 -38 -22 -16 -40 29 -24 16
-74 -25 -95 -19 -10 -26 -20 -24 -37 1 -13 3 -29 3 -35 1 -10 48 -13 201 -13
l200 0 0 40 c0 27 -4 40 -13 40 -19 0 -57 43 -57 63 0 9 9 26 20 37 25 25 25
27 -3 34 -13 3 -36 15 -50 27 l-27 20 0 2037 c0 2006 1 2037 20 2062 21 27 26
55 10 65 -5 3 -10 17 -10 30 0 13 5 27 10 30 16 10 11 38 -10 65 -14 17 -20
41 -20 77 0 48 4 57 45 103 48 54 75 99 75 125 0 9 -9 34 -20 56 l-21 39 33
48 c46 67 44 103 -10 181 -37 52 -42 65 -37 95 7 37 -9 79 -44 110 -14 13 -21
31 -21 58 0 21 4 38 8 38 5 0 15 11 22 24 10 20 10 31 0 55 -10 24 -10 37 0
60 10 24 9 34 -7 62 -17 32 -18 108 -23 1644 -5 1601 -5 1610 -25 1613 -13 1
-39 -17 -72 -49z m49 -3633 l27 -32 -30 -32 c-17 -18 -35 -32 -42 -32 -7 0
-23 16 -37 36 l-24 36 34 29 c19 16 37 28 40 28 3 0 17 -15 32 -33z m-117
-125 l17 -39 -28 -35 c-15 -20 -32 -33 -36 -31 -19 12 0 144 21 144 5 0 16
-18 26 -39z m213 27 c20 -26 31 -88 20 -118 -5 -17 -13 -30 -16 -30 -10 0 -82
73 -82 83 0 10 53 77 61 77 4 0 11 -6 17 -12z m-96 -155 c21 -20 38 -42 38
-48 0 -6 -18 -29 -40 -50 l-40 -39 -40 39 c-22 21 -40 44 -40 49 0 10 70 86
79 86 3 0 22 -17 43 -37z m93 -145 c-9 -40 -33 -88 -44 -88 -4 0 -14 11 -21
25 -13 24 -11 28 20 60 42 44 54 44 45 3z m-197 -23 c19 -24 20 -65 2 -65 -7
0 -40 71 -40 85 0 13 21 2 38 -20z m87 -118 c0 -26 -20 -25 -23 2 -3 16 1 22
10 19 7 -3 13 -12 13 -21z"/>
</g>
</svg>
