<?xml version="1.0" standalone="no"?>
<!DOCTYPE svg PUBLIC "-//W3C//DTD SVG 20010904//EN"
 "http://www.w3.org/TR/2001/REC-SVG-20010904/DTD/svg10.dtd">
<svg version="1.0" xmlns="http://www.w3.org/2000/svg"
 width="2644.000000pt" height="2800.000000pt" viewBox="0 0 2644.000000 2800.000000"
 preserveAspectRatio="xMidYMid meet">

<g transform="translate(0.000000,2800.000000) scale(0.100000,-0.100000)"
fill="#65340A" stroke="none">
<path d="M19288 26054 l-58 -53 0 -1587 0 -1586 -21 -30 c-20 -28 -21 -32 -7
-61 14 -29 14 -36 0 -64 -15 -31 -14 -33 12 -68 23 -29 27 -43 22 -70 -4 -18
-13 -39 -22 -46 -25 -20 -54 -86 -54 -120 0 -21 -13 -51 -36 -85 -50 -73 -55
-126 -20 -198 24 -48 26 -60 17 -93 -10 -38 -2 -102 16 -126 5 -7 31 -38 56
-70 53 -66 61 -111 27 -142 -29 -26 -33 -51 -15 -79 16 -23 15 -27 -1 -55 -18
-30 -18 -31 4 -60 l22 -30 0 -2081 c0 -2058 0 -2080 -20 -2100 -11 -11 -31
-22 -45 -26 -29 -7 -31 -16 -10 -34 31 -26 6 -100 -33 -100 -7 0 -12 -14 -12
-33 l0 -33 188 3 c103 2 193 6 200 8 22 8 13 34 -18 50 -38 20 -48 56 -25 92
12 18 14 28 7 31 -6 2 -26 13 -44 26 l-33 22 -3 2082 c-2 2072 -2 2083 18
2104 21 23 26 53 10 63 -13 8 -13 41 2 64 9 14 8 26 -2 50 -7 17 -16 31 -21
31 -5 0 -9 26 -9 58 0 55 2 59 55 120 54 62 72 99 62 124 -3 7 -12 29 -20 48
-15 35 -15 37 19 90 18 30 34 67 34 82 0 16 -19 54 -46 93 -42 62 -44 69 -34
100 13 39 -1 74 -44 114 -32 30 -35 82 -6 113 23 25 25 40 9 70 -8 16 -8 30 1
59 11 33 10 40 -9 67 l-21 30 0 1636 c0 1870 10 1696 -92 1600z m34 -3701 c15
-15 28 -32 28 -38 0 -6 -16 -26 -35 -45 l-36 -35 -24 30 c-13 17 -24 37 -25
44 0 14 47 71 59 71 3 0 18 -12 33 -27z m-121 -205 c-14 -21 -29 -38 -33 -38
-12 0 -9 95 3 127 l10 27 23 -39 23 -40 -26 -37z m243 69 c13 -27 16 -48 11
-73 -9 -52 -30 -53 -77 -6 l-41 40 34 41 c19 22 39 39 44 38 6 -2 18 -20 29
-40z m-124 -129 c22 -18 40 -38 40 -45 0 -15 -61 -83 -75 -83 -6 0 -28 18 -49
39 l-38 39 32 41 c19 23 37 41 42 41 5 0 27 -15 48 -32z m105 -145 c-7 -39
-34 -93 -46 -93 -4 0 -14 12 -24 26 -17 26 -16 27 21 65 21 21 42 39 47 39 5
0 6 -17 2 -37z m-203 -30 c22 -20 26 -72 4 -54 -16 13 -39 71 -29 71 4 0 15
-7 25 -17z m92 -109 c4 -9 4 -19 2 -21 -8 -8 -26 8 -26 23 0 19 16 18 24 -2z"/>
</g>
</svg>
