<?xml version="1.0" standalone="no"?>
<!DOCTYPE svg PUBLIC "-//W3C//DTD SVG 20010904//EN"
 "http://www.w3.org/TR/2001/REC-SVG-20010904/DTD/svg10.dtd">
<svg version="1.0" xmlns="http://www.w3.org/2000/svg"
 width="3542.000000pt" height="3750.000000pt" viewBox="0 0 3542.000000 3750.000000"
 preserveAspectRatio="xMidYMid meet">

<g transform="translate(0.000000,3750.000000) scale(0.100000,-0.100000)"
fill="#65340A" stroke="none">
<path d="M660 16931 l0 -1530 -30 -33 c-33 -35 -39 -78 -15 -98 19 -16 19 -51
0 -76 -8 -10 -14 -30 -14 -44 0 -27 30 -70 49 -70 8 0 10 -20 7 -67 -8 -108
-15 -126 -79 -199 -104 -118 -115 -168 -61 -262 l25 -42 -43 -71 c-67 -111
-62 -143 45 -273 38 -46 41 -54 41 -111 0 -57 3 -66 37 -108 33 -39 38 -52 38
-96 0 -35 -4 -51 -13 -51 -16 0 -47 -51 -47 -77 0 -11 7 -28 15 -39 19 -25 19
-58 0 -74 -24 -20 -18 -63 15 -98 l30 -33 0 -1060 c0 -934 -2 -1060 -15 -1065
-8 -4 -15 -12 -15 -19 0 -7 -7 -18 -15 -25 -19 -16 -19 -54 -1 -69 23 -19 25
-49 5 -75 -10 -13 -19 -31 -19 -39 0 -25 33 -76 54 -81 16 -4 18 -11 12 -53
-18 -126 -29 -153 -95 -232 -100 -119 -105 -146 -47 -245 l25 -42 -44 -75
c-70 -117 -66 -138 47 -270 45 -53 47 -58 38 -90 -14 -47 -5 -80 35 -126 21
-25 36 -55 40 -81 5 -38 3 -45 -30 -79 -40 -41 -43 -65 -15 -108 19 -29 19
-29 0 -61 -27 -43 -25 -64 10 -102 l30 -33 0 -1345 c0 -1267 -1 -1346 -17
-1364 -10 -10 -44 -30 -75 -43 l-58 -26 30 -30 c49 -49 32 -105 -40 -135 -33
-14 -35 -16 -36 -70 l-1 -55 66 -20 c168 -51 151 -51 463 6 l88 16 0 57 c0 56
-1 58 -32 69 -48 17 -68 40 -68 78 0 23 8 42 25 59 14 14 25 26 25 28 0 2 -27
14 -60 26 -34 13 -65 31 -71 41 -6 12 -9 509 -9 1364 l0 1347 30 38 c36 45 36
52 8 91 l-22 30 24 44 24 43 -25 36 c-13 20 -30 36 -36 36 -9 0 -13 16 -13 49
0 36 7 58 26 87 36 53 54 97 54 134 0 21 13 47 41 82 98 125 111 221 44 329
l-24 38 20 47 c40 89 14 175 -81 278 -31 34 -62 76 -68 95 -16 47 -15 128 1
138 8 4 23 22 36 39 18 24 20 35 12 56 -5 14 -15 29 -20 33 -17 10 -13 34 10
66 23 33 20 55 -17 94 l-25 27 1 1062 c0 929 2 1062 15 1072 8 6 15 14 15 18
0 4 7 14 15 22 21 21 19 47 -7 79 l-21 27 24 44 c20 37 22 47 11 62 -7 9 -15
25 -18 35 -4 9 -15 17 -25 17 -16 0 -19 8 -19 48 0 38 7 58 40 106 33 48 40
67 40 106 0 41 6 55 41 96 64 77 83 120 84 190 0 52 -5 69 -33 114 l-33 53 20
48 c42 97 22 168 -77 279 -62 70 -82 116 -82 194 0 33 4 46 14 46 8 0 25 16
37 37 l23 36 -23 39 -22 39 23 40 c22 40 22 40 3 76 -11 19 -25 38 -32 40 -11
4 -13 302 -13 1539 l0 1534 -115 0 -115 0 0 -1529z m138 -2043 c16 -16 15 -60
-1 -82 -13 -18 -15 -17 -35 9 -26 33 -27 43 -5 67 19 21 25 22 41 6z m-113
-149 l27 -41 -53 -54 c-29 -30 -57 -54 -63 -54 -17 0 3 102 29 146 14 24 27
44 29 44 2 0 16 -19 31 -41z m240 -11 c14 -29 25 -66 25 -83 l0 -30 -45 46
-46 45 16 37 c8 20 18 37 21 37 3 0 16 -24 29 -52z m-71 -159 c31 -28 56 -56
56 -62 0 -13 -100 -117 -113 -117 -11 0 -127 101 -127 111 0 9 112 119 122
119 3 0 32 -23 62 -51z m-185 -314 l-44 -56 -22 25 c-25 29 -44 108 -36 151
11 58 21 58 85 -5 l60 -58 -43 -57z m311 99 c0 -41 -25 -130 -40 -139 -4 -2
-21 18 -39 46 l-31 50 47 54 c52 59 63 57 63 -11z m-141 -178 l34 -48 -43 -39
c-24 -21 -46 -39 -48 -39 -3 0 -22 19 -43 41 l-38 41 41 49 c23 27 46 48 52
46 6 -2 26 -25 45 -51z m-31 -3338 c9 -34 2 -70 -14 -75 -6 -2 -20 10 -32 27
-22 29 -22 31 -5 55 25 33 41 31 51 -7z m112 -117 c22 -43 42 -121 31 -121 -4
0 -24 18 -46 40 -38 39 -38 40 -26 80 6 22 14 40 16 40 3 0 14 -18 25 -39z
m-253 -118 c-33 -34 -64 -60 -69 -57 -13 9 -9 82 7 122 9 20 25 47 37 59 l20
22 33 -42 33 -42 -61 -62z m209 -66 l58 -54 -31 -39 c-17 -21 -45 -52 -61 -68
l-31 -28 -65 58 c-36 31 -66 60 -66 63 0 11 115 121 126 121 6 0 37 -24 70
-53z m-203 -203 c31 -31 57 -57 57 -60 0 -2 -22 -27 -50 -56 -48 -50 -50 -51
-69 -34 -47 42 -64 151 -30 192 18 22 31 17 92 -42z m307 -6 c0 -52 -27 -148
-41 -148 -13 0 -59 92 -52 104 15 25 78 96 85 96 4 0 8 -24 8 -52z m-113 -216
c4 -18 -3 -33 -33 -63 -21 -22 -41 -38 -44 -37 -4 2 -24 22 -45 46 l-38 43 49
50 49 50 28 -33 c15 -18 30 -43 34 -56z"/>
</g>
</svg>
