<?xml version="1.0" standalone="no"?>
<!DOCTYPE svg PUBLIC "-//W3C//DTD SVG 20010904//EN"
 "http://www.w3.org/TR/2001/REC-SVG-20010904/DTD/svg10.dtd">
<svg version="1.0" xmlns="http://www.w3.org/2000/svg"
 width="3542.000000pt" height="3750.000000pt" viewBox="0 0 3542.000000 3750.000000"
 preserveAspectRatio="xMidYMid meet">

<g transform="translate(0.000000,3750.000000) scale(0.100000,-0.100000)"
fill="#65340A" stroke="none">
<path d="M27470 18702 c-7 -2 -10 -424 -10 -1182 l0 -1179 -25 -27 c-29 -31
-31 -46 -9 -79 15 -23 15 -27 0 -50 -22 -33 -20 -48 9 -79 33 -36 33 -84 -1
-133 -16 -25 -24 -48 -22 -69 2 -24 -8 -44 -39 -85 -75 -99 -79 -124 -33 -203
l29 -52 -24 -49 c-14 -27 -25 -57 -25 -67 0 -28 24 -69 74 -127 43 -51 49 -68
62 -167 5 -35 2 -45 -20 -69 -30 -32 -32 -47 -10 -80 14 -22 14 -26 0 -47 -22
-31 -20 -52 9 -79 l25 -24 0 -817 0 -817 -25 -27 c-29 -31 -31 -46 -9 -79 15
-23 15 -27 0 -50 -22 -33 -20 -48 9 -79 33 -36 33 -84 -1 -133 -18 -27 -24
-47 -21 -68 3 -24 -5 -42 -38 -85 -77 -101 -80 -117 -34 -198 l32 -55 -27 -53
c-35 -69 -30 -96 36 -175 50 -60 64 -92 75 -185 4 -35 1 -45 -21 -67 -30 -30
-31 -38 -11 -76 12 -25 12 -31 0 -47 -21 -28 -18 -59 10 -85 l24 -24 1 -1040
c0 -572 -3 -1045 -8 -1051 -4 -7 -30 -22 -58 -34 l-51 -22 24 -24 c38 -38 26
-84 -27 -102 -27 -10 -30 -15 -30 -56 0 -30 4 -46 13 -46 6 0 67 -9 135 -19
121 -19 125 -19 214 0 50 10 95 19 100 19 4 0 8 20 8 44 0 39 -3 45 -30 56
-52 22 -65 68 -29 106 l21 22 -48 22 c-27 11 -52 26 -56 33 -4 7 -8 480 -8
1053 0 1024 0 1041 20 1059 29 26 33 51 14 84 -17 28 -17 31 -1 49 23 26 21
44 -8 76 -45 49 -28 142 39 216 73 81 90 158 52 229 -12 21 -11 31 10 75 13
28 24 66 24 84 0 38 -31 105 -67 144 -14 15 -29 47 -34 73 -5 26 -18 58 -29
72 -29 37 -27 95 5 129 29 32 31 50 8 76 -17 19 -17 21 0 50 23 39 22 50 -8
82 l-25 27 0 818 0 818 25 23 c30 28 31 39 8 78 -17 29 -17 31 0 50 23 26 21
44 -8 76 -47 51 -28 145 48 234 69 82 80 142 40 212 -14 24 -13 30 11 74 41
77 31 137 -38 220 -21 26 -35 56 -38 83 -4 23 -15 54 -27 69 -21 27 -31 114
-12 114 5 0 17 12 26 27 17 25 17 28 0 59 -17 31 -17 35 -1 58 22 34 20 47 -9
78 l-25 27 0 1180 0 1179 -75 4 c-42 2 -80 2 -85 0z m115 -2822 l28 -29 -28
-37 -28 -37 -35 37 -34 38 28 29 c15 16 31 29 34 29 3 0 19 -13 35 -30z m-113
-131 l27 -36 -45 -44 c-49 -48 -64 -44 -64 16 0 37 38 122 48 109 5 -5 20 -25
34 -45z m212 1 c16 -40 21 -101 10 -112 -7 -8 -74 65 -74 80 0 14 33 72 41 72
4 0 14 -18 23 -40z m-53 -163 l22 -31 -49 -42 -49 -43 -48 47 -47 46 46 47 47
48 27 -21 c15 -11 38 -34 51 -51z m-175 -128 l42 -42 -21 -33 c-12 -19 -25
-34 -29 -34 -13 0 -38 59 -45 105 -3 25 -2 45 3 45 4 0 27 -19 50 -41z m229
-16 c-8 -42 -31 -93 -43 -93 -4 0 -13 14 -20 32 -11 30 -10 34 20 65 41 43 52
42 43 -4z m-105 -149 c0 -12 -7 -27 -15 -34 -13 -10 -19 -10 -35 5 -25 23 -25
26 1 59 20 25 22 26 35 9 7 -10 14 -28 14 -39z m5 -2530 c30 -32 30 -29 4 -71
l-22 -35 -35 35 -34 35 23 31 c28 38 33 38 64 5z m-110 -130 l27 -36 -43 -44
c-24 -24 -47 -44 -51 -44 -4 0 -10 16 -14 35 -7 41 20 125 41 125 7 0 25 -16
40 -36z m204 9 c16 -35 27 -123 15 -123 -5 0 -23 18 -41 39 -32 38 -32 38 -15
75 19 43 25 44 41 9z m-63 -150 l43 -48 -46 -47 -47 -48 -48 47 -48 47 47 48
c26 26 49 48 51 48 2 0 24 -21 48 -47z m-116 -198 c-1 -5 -11 -23 -25 -39
l-23 -29 -21 34 c-24 39 -36 91 -27 116 6 14 14 9 51 -27 25 -24 45 -49 45
-55z m185 28 c-8 -47 -33 -95 -44 -88 -5 2 -12 16 -15 31 -5 19 0 34 21 59 37
44 47 43 38 -2z m-107 -139 c3 -41 -12 -62 -35 -48 -25 16 -28 42 -7 65 23 26
38 19 42 -17z"/>
</g>
</svg>
