<?xml version="1.0" standalone="no"?>
<!DOCTYPE svg PUBLIC "-//W3C//DTD SVG 20010904//EN"
 "http://www.w3.org/TR/2001/REC-SVG-20010904/DTD/svg10.dtd">
<svg version="1.0" xmlns="http://www.w3.org/2000/svg"
 width="3542.000000pt" height="3750.000000pt" viewBox="0 0 3542.000000 3750.000000"
 preserveAspectRatio="xMidYMid meet">

<g transform="translate(0.000000,3750.000000) scale(0.100000,-0.100000)"
fill="#65340A" stroke="none">
<path d="M28530 17488 c0 -1179 -1 -1204 -20 -1228 -24 -30 -24 -42 -5 -79 12
-25 12 -31 0 -47 -8 -11 -14 -28 -14 -39 0 -24 21 -55 38 -55 22 0 12 -79 -14
-114 -17 -23 -25 -46 -25 -74 0 -32 -8 -50 -38 -89 -75 -94 -80 -127 -36 -209
l29 -53 -23 -46 c-37 -77 -27 -112 63 -218 18 -21 36 -55 39 -75 19 -110 19
-111 -8 -139 -29 -29 -33 -58 -11 -87 13 -17 13 -22 0 -42 -20 -31 -19 -56 5
-82 20 -21 20 -35 20 -857 0 -822 0 -836 -20 -857 -23 -25 -25 -55 -5 -82 13
-17 13 -22 0 -42 -21 -33 -19 -57 10 -88 16 -17 25 -39 25 -60 0 -19 -10 -46
-25 -66 -17 -23 -25 -47 -25 -74 0 -34 -9 -52 -50 -105 -64 -82 -67 -111 -20
-195 l29 -51 -25 -45 c-38 -71 -33 -98 35 -182 57 -71 66 -93 78 -184 4 -35 1
-45 -21 -67 -26 -26 -35 -70 -16 -82 6 -3 10 -17 10 -30 0 -13 -4 -27 -10 -30
-17 -11 -11 -50 12 -74 l21 -24 5 -1053 c5 -1183 13 -1067 -74 -1106 -46 -20
-47 -21 -27 -37 37 -28 38 -58 4 -91 -16 -17 -36 -30 -44 -30 -17 0 -22 -76
-6 -85 5 -4 66 -15 137 -26 130 -20 171 -19 295 12 36 9 37 11 37 54 0 35 -4
45 -20 50 -27 9 -60 45 -60 66 0 9 9 28 21 43 l21 26 -45 20 c-24 11 -50 26
-56 34 -9 10 -11 278 -11 1067 l2 1052 24 32 c28 38 29 48 8 80 -15 23 -15 27
0 50 22 33 20 48 -9 79 -48 51 -30 134 50 227 42 49 65 99 65 141 0 10 -7 38
-16 64 -15 45 -15 49 6 86 40 72 25 154 -44 236 -25 31 -36 54 -36 77 0 18
-11 48 -25 69 -15 21 -25 51 -25 71 0 22 9 43 25 61 29 31 31 46 9 79 -15 23
-15 27 0 50 22 34 20 58 -9 85 l-25 23 0 832 0 831 25 24 c29 28 31 42 8 81
-16 26 -16 29 0 47 24 26 21 55 -8 82 -47 44 -26 150 46 227 70 76 84 134 50
209 -18 40 -18 40 5 84 26 48 32 117 13 153 -6 12 -29 45 -50 73 -25 32 -39
62 -39 80 0 16 -11 47 -25 69 -33 54 -33 106 0 139 29 29 31 47 9 81 -15 23
-15 27 0 50 22 33 20 48 -9 79 l-25 27 0 1200 0 1199 -90 0 -90 0 0 -1202z
m135 -1668 l28 -29 -28 -37 -28 -36 -35 36 -36 36 29 30 c16 16 32 30 35 30 3
0 19 -13 35 -30z m-95 -163 c0 -2 -20 -26 -44 -53 -38 -42 -46 -46 -52 -31
-10 28 1 113 20 142 l17 26 30 -40 c16 -23 29 -42 29 -44z m196 38 c13 -32 20
-125 9 -125 -9 0 -74 75 -75 87 0 16 33 73 43 73 4 0 15 -16 23 -35z m-76
-240 c-24 -25 -47 -45 -50 -45 -3 1 -27 21 -55 45 l-49 45 49 50 50 50 49 -50
50 -50 -44 -45z m-156 -61 l38 -46 -18 -34 c-10 -19 -21 -34 -24 -34 -3 0 -14
13 -23 30 -20 33 -35 130 -21 130 6 0 27 -21 48 -46z m236 8 c0 -25 -30 -111
-41 -117 -4 -3 -15 8 -24 25 -16 31 -16 32 17 70 37 43 48 48 48 22z m-120
-141 c14 -28 12 -57 -5 -71 -13 -10 -19 -10 -35 5 -24 22 -25 30 -2 60 21 30
28 31 42 6z m14 -2600 c31 -32 30 -56 -4 -86 -19 -17 -21 -17 -41 1 -39 35
-42 52 -17 84 13 16 26 29 29 29 3 1 18 -12 33 -28z m-84 -169 c0 -16 -88 -94
-99 -88 -19 12 -13 98 10 136 l21 34 34 -37 c19 -20 34 -40 34 -45z m199 -42
l0 -45 -38 43 -38 44 21 39 21 39 17 -37 c10 -21 17 -58 17 -83z m-75 -74 l41
-48 -50 -44 -50 -44 -50 50 -50 50 50 44 c28 25 54 44 59 42 6 -1 28 -24 50
-50z m-124 -188 c0 -13 -43 -68 -52 -68 -25 0 -61 134 -41 154 7 7 93 -72 93
-86z m184 25 c-10 -51 -37 -105 -45 -91 -20 38 -19 57 7 87 32 38 46 40 38 4z
m-110 -119 c19 -49 -7 -91 -39 -64 -20 16 -19 39 2 62 20 22 29 23 37 2z"/>
</g>
</svg>
