<?xml version="1.0" standalone="no"?>
<!DOCTYPE svg PUBLIC "-//W3C//DTD SVG 20010904//EN"
 "http://www.w3.org/TR/2001/REC-SVG-20010904/DTD/svg10.dtd">
<svg version="1.0" xmlns="http://www.w3.org/2000/svg"
 width="3542.000000pt" height="3750.000000pt" viewBox="0 0 3542.000000 3750.000000"
 preserveAspectRatio="xMidYMid meet">

<g transform="translate(0.000000,3750.000000) scale(0.100000,-0.100000)"
fill="#65340A" stroke="none">
<path d="M3580 17025 l0 -1476 -25 -27 c-28 -30 -32 -67 -10 -96 19 -25 19
-50 0 -66 -25 -20 -18 -65 15 -100 32 -34 39 -79 21 -136 -5 -16 -12 -41 -15
-55 -3 -14 -30 -54 -61 -88 -94 -106 -105 -150 -58 -245 l27 -55 -36 -58 c-63
-102 -58 -138 31 -252 52 -65 55 -72 52 -118 -2 -44 2 -56 33 -96 47 -62 49
-111 6 -157 -33 -35 -40 -80 -15 -100 20 -17 19 -33 -4 -71 -18 -29 -18 -35
-6 -60 8 -15 21 -33 29 -41 20 -21 35 -2052 14 -2065 -19 -11 -48 -59 -48 -79
0 -9 9 -27 20 -41 l20 -26 -20 -34 c-27 -46 -25 -64 11 -101 29 -29 30 -35 26
-84 -12 -114 -20 -135 -83 -210 -98 -117 -102 -133 -53 -229 l30 -61 -40 -68
c-61 -102 -58 -127 24 -229 65 -80 66 -81 59 -129 -6 -44 -3 -51 30 -95 30
-40 36 -55 36 -97 0 -29 -4 -50 -11 -50 -17 0 -48 -43 -49 -66 0 -11 7 -29 15
-40 19 -25 19 -58 0 -74 -27 -23 -9 -88 32 -113 10 -6 13 -254 13 -1298 0
-1136 -2 -1293 -15 -1313 -9 -13 -42 -34 -74 -47 l-59 -23 29 -27 c17 -16 29
-37 29 -52 0 -34 -34 -74 -70 -82 -29 -6 -30 -8 -30 -65 l0 -58 83 -21 c45
-12 95 -26 110 -31 20 -7 80 0 212 22 l185 32 0 57 c0 53 -2 57 -26 63 -37 10
-74 50 -74 82 0 16 11 37 30 54 l30 28 -60 22 c-32 12 -65 32 -73 44 -12 18
-14 226 -14 1309 0 937 3 1292 11 1300 44 46 57 96 31 117 -19 16 -19 49 0 74
23 30 18 60 -15 92 -42 41 -41 99 1 165 17 27 33 68 36 91 4 28 18 60 43 93
89 118 103 199 52 297 l-28 53 18 40 c39 87 11 190 -76 276 -51 51 -76 109
-76 178 1 38 6 51 30 75 33 32 37 60 15 90 -19 25 -19 60 0 76 27 23 9 88 -32
113 -10 6 -11 209 -7 1029 6 1002 7 1022 26 1042 34 36 38 58 17 94 -24 42
-24 46 2 81 l21 29 -24 41 c-12 22 -29 41 -35 41 -9 0 -13 17 -13 49 0 38 6
56 25 79 31 37 45 74 45 118 0 26 11 48 46 91 58 71 74 108 74 174 0 40 -7 65
-30 105 l-30 53 20 43 c25 56 25 128 0 177 -10 21 -42 63 -70 94 -53 59 -80
121 -80 190 0 30 7 46 30 69 33 33 40 77 15 98 -20 17 -19 36 4 74 21 34 17
57 -18 93 l-21 22 0 1476 0 1475 -115 0 -115 0 0 -1475z m149 -1987 c13 -23
13 -29 -3 -53 -17 -25 -18 -26 -37 -10 -28 27 -33 54 -13 76 21 24 34 20 53
-13z m-118 -126 l26 -38 -51 -57 c-28 -31 -55 -57 -60 -57 -16 0 2 109 25 150
13 22 25 40 28 40 3 -1 18 -18 32 -38z m234 -14 c14 -29 25 -66 25 -83 l0 -30
-45 46 -46 45 16 37 c8 20 18 37 21 37 3 0 16 -24 29 -52z m-27 -194 c6 -7 12
-15 12 -19 0 -11 -103 -115 -114 -115 -6 0 -37 26 -69 58 l-58 57 63 57 63 56
45 -41 c25 -23 51 -47 58 -53z m-221 -260 c-22 -29 -45 -50 -50 -47 -35 22
-59 151 -36 195 10 19 14 17 69 -37 l59 -58 -42 -53z m293 103 c0 -49 -14
-105 -33 -131 -13 -17 -16 -15 -40 29 l-27 48 25 31 c53 67 60 74 68 69 4 -2
7 -23 7 -46z m-114 -211 c6 -19 -49 -86 -71 -86 -7 0 -26 18 -44 40 l-32 40
43 46 42 46 28 -34 c15 -18 30 -41 34 -52z m-42 -3189 c7 -26 6 -40 -4 -51
-18 -22 -26 -20 -50 15 l-22 30 23 25 c29 31 42 27 53 -19z m111 -119 c22 -47
33 -108 20 -108 -2 0 -22 19 -43 42 l-39 41 15 39 c8 21 17 38 19 38 2 0 15
-24 28 -52z m-198 -40 c-6 -19 -110 -117 -119 -112 -20 12 -3 110 26 155 l28
42 34 -39 c18 -21 32 -42 31 -46z m142 -122 c29 -30 52 -58 50 -63 -9 -22 -94
-113 -106 -113 -7 0 -39 24 -70 54 l-58 55 60 60 c33 34 62 61 65 61 3 0 30
-24 59 -54z m-141 -251 c1 -5 -19 -32 -43 -59 -39 -44 -46 -48 -61 -35 -43 35
-60 155 -27 191 16 17 19 16 73 -34 32 -29 58 -57 58 -63z m240 33 c-5 -67
-23 -128 -37 -128 -3 0 -17 20 -30 45 l-24 45 43 55 c23 30 45 55 48 55 2 0 2
-33 0 -72z m-108 -198 c0 -17 -13 -38 -35 -60 l-35 -34 -34 40 c-20 21 -35 43
-36 49 0 5 19 29 43 53 l42 43 28 -33 c15 -18 27 -44 27 -58z"/>
</g>
</svg>
