<?xml version="1.0" standalone="no"?>
<!DOCTYPE svg PUBLIC "-//W3C//DTD SVG 20010904//EN"
 "http://www.w3.org/TR/2001/REC-SVG-20010904/DTD/svg10.dtd">
<svg version="1.0" xmlns="http://www.w3.org/2000/svg"
 width="2550.000000pt" height="2700.000000pt" viewBox="0 0 2550.000000 2700.000000"
 preserveAspectRatio="xMidYMid meet">

<g transform="translate(0.000000,2700.000000) scale(0.100000,-0.100000)"
fill="#3a4548" stroke="none">
<path d="M10309 14114 c-6 -7 -10 -705 -12 -1765 -2 -1746 -2 -1754 -22 -1755
-64 -2 -102 -51 -82 -107 10 -29 61 -60 89 -55 8 2 14 -11 16 -34 2 -28 -4
-47 -31 -85 -40 -56 -60 -106 -77 -186 -21 -103 15 -242 84 -325 19 -22 26
-41 26 -74 0 -54 -5 -60 -37 -47 -32 12 -58 -3 -72 -41 -19 -55 8 -88 92 -114
17 -5 17 -107 16 -2138 0 -1678 -3 -2137 -13 -2150 -7 -9 -24 -20 -39 -23 -35
-9 -42 -21 -23 -41 9 -8 16 -26 16 -38 0 -24 -28 -56 -48 -56 -7 0 -12 -16
-12 -38 0 -31 7 -45 38 -75 l38 -37 89 11 c50 5 117 13 150 17 l59 7 0 36 c0
29 -7 42 -32 64 -35 29 -42 64 -17 85 21 18 19 22 -26 50 -22 13 -42 34 -45
45 -2 11 -3 981 -2 2155 l3 2135 23 -2 c32 -4 59 12 77 47 26 49 -7 98 -77
115 -39 10 -37 50 6 114 108 159 108 356 0 496 -28 37 -34 54 -34 93 0 58 4
64 36 50 47 -21 96 50 69 101 -13 25 -31 36 -87 55 -17 5 -18 100 -20 1762
l-3 1757 -53 1 c-30 1 -58 -4 -63 -10z m-14 -3573 c3 -5 1 -12 -5 -16 -5 -3
-10 1 -10 9 0 18 6 21 15 7z m129 -297 c65 -117 53 -284 -28 -396 -28 -40 -52
-35 -85 17 -53 83 -65 226 -27 317 33 79 57 108 86 108 23 0 33 -8 54 -46z
m22 -661 c-10 -10 -19 5 -10 18 6 11 8 11 12 0 2 -7 1 -15 -2 -18z"/>
</g>
</svg>
