<?xml version="1.0" standalone="no"?>
<!DOCTYPE svg PUBLIC "-//W3C//DTD SVG 20010904//EN"
 "http://www.w3.org/TR/2001/REC-SVG-20010904/DTD/svg10.dtd">
<svg version="1.0" xmlns="http://www.w3.org/2000/svg"
 width="2550.000000pt" height="2700.000000pt" viewBox="0 0 2550.000000 2700.000000"
 preserveAspectRatio="xMidYMid meet">

<g transform="translate(0.000000,2700.000000) scale(0.100000,-0.100000)"
fill="#3a4548" stroke="none">
<path d="M15477 19778 l-48 -43 1 -1432 0 -1433 -30 0 c-65 0 -95 -83 -47
-128 26 -25 47 -28 65 -10 9 9 12 2 12 -34 0 -35 -7 -54 -30 -83 -46 -58 -72
-139 -74 -225 -1 -89 20 -156 69 -226 27 -37 35 -59 34 -89 0 -22 -3 -34 -6
-27 -8 19 -50 14 -73 -10 -43 -46 -11 -128 49 -128 l31 0 0 -1485 c0 -1472 0
-1485 -20 -1505 -11 -11 -27 -20 -35 -20 -19 0 -19 -19 0 -44 20 -27 19 -33
-11 -61 -21 -19 -25 -31 -22 -67 l3 -43 143 -3 142 -3 0 46 c0 38 -5 50 -27
70 -24 20 -26 26 -15 42 24 35 25 46 6 60 -10 7 -27 20 -36 28 -17 14 -18 98
-18 1500 l0 1485 30 0 c36 0 80 41 80 75 0 13 -14 37 -30 55 -29 31 -31 32
-55 16 l-25 -16 0 38 c0 27 9 50 31 80 106 144 103 322 -7 468 -26 34 -37 131
-12 106 7 -7 20 -12 29 -12 22 0 69 60 69 88 0 27 -45 62 -81 62 l-29 0 0
1475 c0 811 -3 1475 -8 1475 -4 0 -29 -19 -55 -42z m-47 -2963 c0 -8 -2 -15
-4 -15 -2 0 -6 7 -10 15 -3 8 -1 15 4 15 6 0 10 -7 10 -15z m135 5 c-3 -5 -11
-10 -16 -10 -6 0 -7 5 -4 10 3 6 11 10 16 10 6 0 7 -4 4 -10z m-13 -297 c26
-55 31 -78 31 -138 0 -60 -5 -83 -31 -138 -29 -63 -33 -67 -65 -67 -30 0 -37
5 -60 48 -52 95 -52 218 -1 312 24 45 31 50 61 50 32 0 36 -4 65 -67z m-122
-558 c0 -8 -7 -15 -16 -15 -14 0 -14 3 -4 15 7 8 14 15 16 15 2 0 4 -7 4 -15z
m135 -5 c3 -5 2 -10 -4 -10 -5 0 -13 5 -16 10 -3 6 -2 10 4 10 5 0 13 -4 16
-10z"/>
</g>
</svg>
