<?xml version="1.0" standalone="no"?>
<!DOCTYPE svg PUBLIC "-//W3C//DTD SVG 20010904//EN"
 "http://www.w3.org/TR/2001/REC-SVG-20010904/DTD/svg10.dtd">
<svg version="1.0" xmlns="http://www.w3.org/2000/svg"
 width="2550.000000pt" height="2700.000000pt" viewBox="0 0 2550.000000 2700.000000"
 preserveAspectRatio="xMidYMid meet">

<g transform="translate(0.000000,2700.000000) scale(0.100000,-0.100000)"
fill="#3a4548" stroke="none">
<path d="M17272 21467 l-43 -44 -2 -1434 -2 -1434 -32 -3 c-88 -9 -87 -125 1
-134 28 -3 31 -7 34 -41 3 -29 -3 -45 -22 -68 -32 -37 -59 -98 -76 -168 -21
-89 4 -201 65 -287 25 -35 35 -60 35 -87 0 -37 0 -38 -37 -35 -32 3 -39 -1
-55 -28 -26 -44 -10 -78 46 -97 l41 -14 3 -1491 2 -1490 -26 -21 c-15 -12 -33
-21 -40 -21 -18 0 -18 -14 1 -30 22 -18 18 -48 -10 -74 -16 -15 -25 -34 -25
-55 l0 -31 150 0 150 0 0 35 c0 24 -6 37 -20 45 -28 15 -36 56 -16 79 16 18
15 20 -19 39 -19 12 -35 25 -36 29 -3 51 -7 2972 -4 2984 3 10 17 16 35 16 40
0 60 19 60 59 0 43 -30 74 -70 74 -26 0 -30 4 -30 26 0 15 15 50 33 78 54 83
69 131 69 226 0 92 -24 164 -75 232 -19 25 -25 44 -24 78 l2 45 37 -3 c42 -4
58 15 58 67 0 24 -7 36 -32 51 -17 10 -35 17 -39 14 -4 -2 -11 1 -16 8 -4 7
-8 672 -8 1477 -1 959 -4 1466 -11 1468 -5 2 -29 -16 -52 -40z m-47 -2958 c10
-15 -1 -23 -20 -15 -9 3 -13 10 -10 16 8 13 22 13 30 -1z m145 1 c0 -5 -7 -10
-15 -10 -8 0 -15 5 -15 10 0 6 7 10 15 10 8 0 15 -4 15 -10z m-26 -280 c29
-51 31 -62 31 -151 0 -86 -3 -101 -30 -155 -27 -51 -35 -59 -62 -62 -28 -3
-35 2 -57 37 -35 55 -50 121 -44 195 9 103 64 201 110 194 13 -2 32 -23 52
-58z m22 -571 c8 -14 -18 -31 -30 -19 -9 9 0 30 14 30 5 0 12 -5 16 -11z
m-141 -8 c7 -12 -12 -24 -25 -16 -11 7 -4 25 10 25 5 0 11 -4 15 -9z"/>
</g>
</svg>
