<?xml version="1.0" standalone="no"?>
<!DOCTYPE svg PUBLIC "-//W3C//DTD SVG 20010904//EN"
 "http://www.w3.org/TR/2001/REC-SVG-20010904/DTD/svg10.dtd">
<svg version="1.0" xmlns="http://www.w3.org/2000/svg"
 width="2550.000000pt" height="2700.000000pt" viewBox="0 0 2550.000000 2700.000000"
 preserveAspectRatio="xMidYMid meet">

<g transform="translate(0.000000,2700.000000) scale(0.100000,-0.100000)"
fill="#3a4548" stroke="none">
<path d="M18210 22370 l-45 -40 0 -1442 -1 -1443 -32 -3 c-34 -3 -72 -42 -72
-72 0 -29 48 -73 75 -68 20 4 24 0 28 -31 4 -29 -2 -46 -30 -87 -42 -63 -73
-159 -73 -228 0 -66 29 -151 71 -213 32 -47 43 -90 33 -126 -4 -14 -9 -15 -19
-7 -22 18 -55 8 -73 -23 -15 -25 -15 -30 -2 -54 16 -28 29 -37 74 -53 l28 -10
-3 -1928 -4 -1927 -24 -22 c-13 -13 -30 -23 -37 -23 -18 0 -18 -15 1 -30 23
-19 18 -48 -14 -78 -19 -17 -28 -36 -27 -52 l1 -25 153 -3 152 -3 0 32 c0 21
-8 37 -25 51 -26 20 -35 71 -15 83 17 11 11 22 -20 35 -17 7 -33 22 -35 34 -3
11 -4 887 -3 1946 l3 1925 30 3 c40 5 65 29 65 64 0 44 -35 73 -82 69 -31 -4
-22 56 17 115 46 68 65 132 65 215 0 83 -21 153 -65 219 -26 39 -35 63 -35 94
0 52 5 58 37 43 22 -10 28 -8 44 12 11 13 19 35 19 50 0 33 -39 73 -72 75
l-23 1 -3 1483 c-1 815 -5 1482 -10 1482 -4 -1 -27 -19 -52 -40z m-46 -2991
c-8 -13 -24 -1 -24 18 0 13 3 13 15 3 8 -7 12 -16 9 -21z m136 23 c0 -13 -12
-22 -22 -16 -10 6 -1 24 13 24 5 0 9 -4 9 -8z m-32 -259 c71 -104 70 -255 -4
-365 -42 -65 -82 -49 -125 47 -42 93 -29 212 33 313 26 42 68 44 96 5z m32
-608 c0 -8 -7 -15 -15 -15 -8 0 -15 7 -15 15 0 8 7 15 15 15 8 0 15 -7 15 -15z
m-142 -6 c-2 -6 -8 -10 -13 -10 -5 0 -11 4 -13 10 -2 6 4 11 13 11 9 0 15 -5
13 -11z"/>
</g>
</svg>
