<?xml version="1.0" standalone="no"?>
<!DOCTYPE svg PUBLIC "-//W3C//DTD SVG 20010904//EN"
 "http://www.w3.org/TR/2001/REC-SVG-20010904/DTD/svg10.dtd">
<svg version="1.0" xmlns="http://www.w3.org/2000/svg"
 width="2550.000000pt" height="2700.000000pt" viewBox="0 0 2550.000000 2700.000000"
 preserveAspectRatio="xMidYMid meet">

<g transform="translate(0.000000,2700.000000) scale(0.100000,-0.100000)"
fill="#3a4548" stroke="none">
<path d="M19945 24214 l-49 -45 -1 -1467 0 -1467 -30 -3 c-36 -4 -54 -18 -66
-49 -14 -38 5 -70 55 -92 56 -24 59 -44 17 -110 -53 -83 -73 -147 -73 -243 0
-90 20 -155 72 -228 12 -17 22 -48 23 -72 2 -38 -1 -43 -18 -41 -40 5 -63 -7
-74 -37 -14 -43 1 -72 52 -96 l42 -19 0 -1900 c1 -1045 -1 -1928 -3 -1963 -4
-62 -5 -64 -40 -80 -21 -9 -39 -18 -41 -19 -2 -2 3 -11 12 -21 26 -28 21 -59
-13 -84 -18 -13 -30 -31 -30 -45 l0 -23 177 2 c157 3 176 5 179 20 1 10 -13
28 -32 43 -36 28 -43 55 -19 75 21 18 19 23 -17 45 -18 10 -36 23 -40 29 -4 6
-8 250 -8 543 l0 532 -22 3 c-23 3 -23 4 -25 200 -3 197 -3 197 22 226 l25 30
2 1203 3 1204 30 2 c33 2 65 34 65 65 0 33 -18 55 -60 72 -51 20 -52 43 -5
122 43 70 55 109 62 195 7 81 -15 162 -63 235 -26 39 -34 62 -34 96 0 53 5 60
36 48 19 -8 27 -5 44 17 37 47 23 86 -42 116 l-38 18 0 1493 c0 1191 -3 1496
-13 1504 -9 8 -25 -1 -62 -34z m70 -3319 c25 -50 30 -71 30 -135 0 -50 -6 -92
-19 -125 -45 -119 -84 -134 -126 -50 -35 71 -40 188 -10 267 25 68 56 110 79
106 9 -2 29 -30 46 -63z"/>
</g>
</svg>
