<?xml version="1.0" standalone="no"?>
<!DOCTYPE svg PUBLIC "-//W3C//DTD SVG 20010904//EN"
 "http://www.w3.org/TR/2001/REC-SVG-20010904/DTD/svg10.dtd">
<svg version="1.0" xmlns="http://www.w3.org/2000/svg"
 width="2550.000000pt" height="2700.000000pt" viewBox="0 0 2550.000000 2700.000000"
 preserveAspectRatio="xMidYMid meet">

<g transform="translate(0.000000,2700.000000) scale(0.100000,-0.100000)"
fill="#3a4548" stroke="none">
<path d="M20738 25172 c-19 -20 -40 -44 -46 -53 -9 -13 -12 -355 -12 -1498 l0
-1481 -28 0 c-38 0 -62 -28 -62 -72 0 -39 14 -55 57 -67 23 -6 29 -13 31 -44
2 -25 -3 -46 -17 -65 -57 -80 -85 -234 -62 -343 7 -31 28 -83 47 -115 27 -46
34 -67 32 -99 -3 -38 -4 -40 -35 -37 -38 4 -56 -21 -51 -75 3 -37 14 -48 61
-58 l27 -5 -2 -1543 -3 -1542 -41 -21 -40 -20 19 -26 c19 -25 19 -28 4 -52 -9
-13 -26 -27 -37 -31 -13 -4 -20 -15 -20 -31 0 -22 3 -24 38 -20 20 3 104 8
187 11 82 3 151 8 154 10 2 3 -13 20 -35 39 -41 36 -41 30 -6 97 1 4 -8 9 -22
13 -60 15 -56 -109 -56 1582 l0 1544 25 0 c52 0 84 70 52 113 -6 10 -26 21
-42 25 -43 12 -45 54 -6 124 82 145 79 335 -9 457 -14 20 -20 45 -20 81 l0 52
29 -7 c23 -5 32 -2 45 17 18 25 21 65 6 88 -5 8 -24 20 -42 26 l-33 11 -3
1515 -2 1515 -24 11 c-21 9 -28 6 -58 -26z m55 -3359 c18 -39 22 -66 22 -148
0 -91 -3 -105 -30 -160 -16 -32 -36 -61 -43 -63 -7 -2 -22 17 -35 45 -18 39
-22 66 -22 148 0 89 3 107 29 163 16 34 35 62 43 62 8 0 24 -21 36 -47z"/>
</g>
</svg>
