<?xml version="1.0" standalone="no"?>
<!DOCTYPE svg PUBLIC "-//W3C//DTD SVG 20010904//EN"
 "http://www.w3.org/TR/2001/REC-SVG-20010904/DTD/svg10.dtd">
<svg version="1.0" xmlns="http://www.w3.org/2000/svg"
 width="2550.000000pt" height="2700.000000pt" viewBox="0 0 2550.000000 2700.000000"
 preserveAspectRatio="xMidYMid meet">

<g transform="translate(0.000000,2700.000000) scale(0.100000,-0.100000)"
fill="#3a4548" stroke="none">
<path d="M23950 26670 l0 -330 -28 0 c-47 0 -79 -52 -66 -105 5 -19 19 -32 50
-46 38 -16 44 -23 44 -48 0 -16 -13 -55 -29 -87 -44 -89 -61 -159 -61 -249 0
-96 18 -165 60 -226 23 -34 30 -55 30 -93 0 -45 -2 -48 -22 -43 -31 8 -55 -8
-67 -46 -17 -51 -1 -83 49 -98 l40 -12 0 -1628 c0 -895 -3 -1635 -6 -1644 -4
-9 -24 -23 -45 -32 -43 -17 -47 -24 -24 -43 32 -26 4 -85 -47 -102 -6 -2 -9
-9 -5 -14 4 -7 69 -1 182 15 135 19 175 28 170 38 -3 7 -8 19 -11 27 -3 8 4
24 16 36 12 12 20 23 18 24 -1 1 -19 9 -38 16 -19 8 -40 21 -47 30 -10 12 -12
382 -13 1658 l0 1642 21 0 c33 0 60 19 75 55 20 48 3 80 -52 101 -55 21 -56
37 -9 124 87 163 84 358 -7 484 -22 32 -28 51 -28 93 l0 52 36 -2 c33 -2 38 2
57 36 26 51 13 81 -48 107 l-45 19 0 311 0 310 -75 0 -75 0 0 -330z m108 -642
c35 -44 52 -194 31 -273 -18 -66 -61 -155 -75 -155 -7 0 -22 25 -33 55 -36 95
-27 220 22 335 23 52 35 61 55 38z"/>
</g>
</svg>
