<?xml version="1.0" standalone="no"?>
<!DOCTYPE svg PUBLIC "-//W3C//DTD SVG 20010904//EN"
 "http://www.w3.org/TR/2001/REC-SVG-20010904/DTD/svg10.dtd">
<svg version="1.0" xmlns="http://www.w3.org/2000/svg"
 width="2550.000000pt" height="2700.000000pt" viewBox="0 0 2550.000000 2700.000000"
 preserveAspectRatio="xMidYMid meet">

<g transform="translate(0.000000,2700.000000) scale(0.100000,-0.100000)"
fill="#3a4548" stroke="none">
<path d="M9306 12443 c0 -923 -1 -1686 -4 -1695 -2 -11 -14 -18 -27 -18 -31 0
-55 -30 -55 -69 0 -48 16 -71 50 -71 43 0 51 -55 16 -118 -78 -147 -82 -340
-11 -482 25 -50 32 -73 28 -103 -5 -33 -8 -37 -31 -35 -32 4 -53 -31 -50 -81
3 -34 12 -44 58 -60 l25 -9 -1 -2068 c-2 -2006 -2 -2068 -20 -2081 -11 -8 -31
-17 -46 -20 -29 -6 -36 -17 -17 -28 38 -24 23 -79 -27 -100 -20 -8 -27 -18
-29 -43 -3 -39 -7 -37 116 -60 l96 -18 104 25 104 26 3 38 c2 26 -1 37 -11 37
-20 0 -57 38 -57 60 0 11 8 28 19 39 18 18 17 19 -30 41 l-49 22 0 516 c0 284
0 729 -1 987 0 259 0 959 1 1558 0 1080 0 1087 20 1087 32 0 60 36 60 76 0 51
-15 74 -50 74 -28 0 -30 3 -30 37 0 20 11 60 25 89 31 66 55 164 55 229 0 73
-26 180 -55 232 -17 31 -25 61 -25 94 0 47 1 49 28 49 21 0 32 7 40 25 27 59
6 115 -44 115 l-24 0 -1 323 c0 177 -1 936 -2 1687 l-2 1365 -75 3 -75 3 1
-1678z m105 -2080 c20 -69 18 -206 -4 -276 -11 -34 -24 -57 -30 -54 -7 2 -20
35 -30 73 -20 77 -17 165 8 247 25 83 34 85 56 10z"/>
</g>
</svg>
