<?xml version="1.0" standalone="no"?>
<!DOCTYPE svg PUBLIC "-//W3C//DTD SVG 20010904//EN"
 "http://www.w3.org/TR/2001/REC-SVG-20010904/DTD/svg10.dtd">
<svg version="1.0" xmlns="http://www.w3.org/2000/svg"
 width="2550.000000pt" height="2700.000000pt" viewBox="0 0 2550.000000 2700.000000"
 preserveAspectRatio="xMidYMid meet">

<g transform="translate(0.000000,2700.000000) scale(0.100000,-0.100000)"
fill="#3a4548" stroke="none">
<path d="M1385 13598 c-3 -7 -6 -418 -8 -913 -4 -963 -2 -931 -57 -1250 -17
-101 -13 -148 13 -173 13 -12 29 -22 35 -22 7 0 12 -15 12 -35 0 -24 -5 -35
-14 -35 -8 0 -27 -5 -42 -10 l-27 -11 22 -22 c39 -43 15 -107 -41 -107 -32 0
-20 -29 15 -33 17 -2 12 -3 -13 -2 -25 1 -51 1 -57 -2 -22 -8 -14 -32 12 -39
14 -3 25 -10 25 -14 0 -5 10 -12 23 -16 56 -17 74 -67 37 -104 -11 -11 -20
-22 -20 -25 0 -3 18 -8 40 -11 36 -6 40 -9 40 -35 0 -20 -10 -38 -31 -57 -45
-40 -48 -77 -23 -230 44 -258 54 -409 54 -807 0 -398 -10 -545 -54 -820 -27
-162 -23 -201 25 -218 24 -9 29 -17 29 -44 0 -22 -5 -33 -14 -33 -8 0 -27 -5
-41 -10 l-27 -10 25 -30 c16 -19 23 -37 20 -50 -6 -24 -40 -50 -65 -50 -26 0
-22 -28 5 -33 14 -3 9 -5 -15 -6 -53 -2 -71 -10 -57 -27 6 -8 17 -14 24 -14 7
0 18 -7 25 -15 7 -8 20 -15 30 -15 46 0 66 -74 29 -109 l-21 -20 41 -12 c53
-16 54 -44 6 -92 -44 -44 -44 -64 -10 -283 39 -249 44 -365 51 -1247 5 -654 4
-833 -6 -852 -7 -12 -30 -31 -51 -41 -37 -16 -38 -18 -23 -35 12 -13 15 -28
10 -49 -3 -19 -2 -29 4 -25 6 3 10 2 10 -3 0 -12 -25 -22 -56 -22 -21 0 -24
-5 -24 -35 0 -19 1 -35 3 -35 18 -3 205 -21 212 -21 6 0 54 11 108 23 l97 23
0 37 c0 30 -4 38 -18 38 -42 0 -68 64 -37 90 8 7 15 15 15 19 0 14 -81 30
-124 25 -56 -8 -60 1 -7 16 l40 10 0 868 c-1 907 2 976 47 1267 33 213 32 225
-22 257 -53 31 -43 62 28 88 l28 9 -25 25 c-14 14 -25 32 -25 41 0 19 44 65
62 65 7 0 28 13 47 29 l34 28 -37 21 c-21 12 -43 22 -51 22 -16 0 -55 47 -55
67 0 8 11 25 25 39 l25 25 -23 8 c-12 5 -31 10 -42 12 -13 3 -21 14 -23 31 -3
21 3 30 26 42 16 8 35 29 42 46 14 34 12 59 -19 270 -33 221 -42 331 -48 625
-7 360 7 575 63 953 21 138 15 164 -39 190 -22 11 -27 20 -25 39 3 28 17 38
61 48 l28 6 -25 30 c-14 17 -26 36 -26 43 0 18 43 56 63 56 9 0 20 6 24 13 4
6 17 17 27 23 30 16 31 33 3 43 -14 6 -28 15 -32 20 -3 6 -14 11 -24 11 -23 0
-51 31 -51 57 0 11 9 32 21 47 l20 26 -26 10 c-14 5 -31 9 -38 7 -7 -1 -13 11
-15 29 -2 24 2 33 22 43 30 16 50 60 48 107 -1 19 -11 91 -22 160 -46 283 -50
389 -50 1266 l0 828 -75 0 c-52 0 -77 -4 -80 -12z m42 -2614 c-3 -3 -12 -4
-19 -1 -8 3 -5 6 6 6 11 1 17 -2 13 -5z m-27 -324 c0 -6 -13 -9 -30 -8 -16 1
-30 6 -30 10 0 4 14 8 30 8 17 0 30 -5 30 -10z m-23 -2256 c-3 -3 -12 -4 -19
-1 -8 3 -5 6 6 6 11 1 17 -2 13 -5z m3 -384 c12 -8 9 -10 -13 -10 -16 0 -26 4
-22 10 8 12 16 12 35 0z"/>
</g>
</svg>
