<?xml version="1.0" standalone="no"?>
<!DOCTYPE svg PUBLIC "-//W3C//DTD SVG 20010904//EN"
 "http://www.w3.org/TR/2001/REC-SVG-20010904/DTD/svg10.dtd">
<svg version="1.0" xmlns="http://www.w3.org/2000/svg"
 width="2550.000000pt" height="2700.000000pt" viewBox="0 0 2550.000000 2700.000000"
 preserveAspectRatio="xMidYMid meet">

<g transform="translate(0.000000,2700.000000) scale(0.100000,-0.100000)"
fill="#3a4548" stroke="none">
<path d="M8199 16349 c0 -2 -2 -263 -4 -579 -3 -561 -8 -676 -41 -923 -18
-135 -14 -178 20 -201 14 -9 23 -23 21 -33 -2 -10 -4 -21 -4 -25 -1 -5 -9 -8
-18 -8 -10 0 -25 -4 -33 -10 -12 -7 -12 -12 4 -29 25 -27 17 -62 -19 -81 -16
-8 -32 -18 -35 -21 -3 -3 -13 -8 -22 -12 -33 -12 -17 -32 56 -73 36 -19 43
-41 23 -76 -10 -17 -16 -32 -15 -33 2 -1 17 -7 33 -12 34 -11 36 -35 4 -68
-30 -34 -32 -71 -9 -250 49 -389 47 -964 -6 -1344 -20 -150 -19 -168 14 -199
38 -37 36 -64 -5 -76 -37 -10 -40 -18 -18 -36 8 -7 15 -22 15 -35 0 -21 -28
-55 -46 -55 -5 0 -22 -11 -38 -23 l-29 -24 31 -21 c16 -12 34 -22 39 -22 17 0
43 -36 43 -57 0 -11 -7 -26 -15 -33 -22 -18 -19 -27 12 -35 25 -6 42 -21 43
-36 0 -3 -11 -18 -25 -33 -37 -40 -39 -64 -21 -204 36 -285 39 -351 41 -1032
1 -377 -2 -692 -6 -701 -5 -9 -22 -22 -39 -29 -31 -13 -37 -24 -20 -35 22 -14
10 -56 -20 -73 -25 -14 -30 -23 -28 -47 l3 -30 100 -7 c58 -5 128 -4 167 2 37
6 69 10 72 10 3 0 6 15 6 33 0 25 -7 39 -30 55 -33 25 -38 43 -15 62 22 18 19
25 -20 39 -22 8 -37 21 -41 35 -3 13 -4 345 -1 737 3 675 5 724 27 894 30 237
30 262 -3 291 -26 22 -37 64 -18 64 5 0 21 4 36 10 l26 10 -22 29 c-21 29 -21
31 -5 55 9 15 21 26 27 26 17 0 69 43 69 57 0 7 -5 13 -10 13 -18 0 -91 50
-97 66 -3 9 4 29 16 45 23 30 21 34 -24 41 -26 4 -33 48 -10 61 9 5 23 24 31
42 12 28 11 52 -6 176 -48 360 -53 940 -11 1288 11 96 23 183 26 192 9 28 -14
98 -35 109 -20 11 -29 60 -11 60 5 0 21 4 36 10 l26 10 -22 29 c-21 29 -21 31
-5 55 9 15 25 26 36 26 11 0 20 4 20 9 0 5 9 13 20 16 32 10 23 32 -25 61 -54
31 -70 56 -55 84 6 11 15 20 20 20 24 0 7 20 -22 28 -43 11 -50 45 -15 72 35
28 38 58 17 215 -33 252 -40 414 -40 948 l0 527 -44 0 c-24 0 -51 3 -60 6 -9
3 -16 5 -17 3z"/>
</g>
</svg>
