<?xml version="1.0" standalone="no"?>
<!DOCTYPE svg PUBLIC "-//W3C//DTD SVG 20010904//EN"
 "http://www.w3.org/TR/2001/REC-SVG-20010904/DTD/svg10.dtd">
<svg version="1.0" xmlns="http://www.w3.org/2000/svg"
 width="2550.000000pt" height="2700.000000pt" viewBox="0 0 2550.000000 2700.000000"
 preserveAspectRatio="xMidYMid meet">

<g transform="translate(0.000000,2700.000000) scale(0.100000,-0.100000)"
fill="#3a4548" stroke="none">
<path d="M9777 15618 c-4 -568 -6 -637 -26 -776 -19 -137 -19 -156 -7 -187 8
-19 20 -35 25 -35 17 0 13 -50 -4 -55 -8 -3 -22 -7 -30 -10 -12 -4 -12 -8 3
-34 21 -38 12 -56 -43 -87 -22 -12 -41 -26 -43 -32 -3 -9 25 -32 73 -58 25
-14 31 -56 11 -74 -23 -19 -20 -28 14 -35 23 -5 30 -12 30 -31 0 -14 -7 -27
-15 -30 -26 -10 -36 -66 -25 -140 55 -374 55 -1068 0 -1440 -11 -74 -5 -109
24 -133 22 -19 21 -61 -1 -61 -10 0 -25 -4 -33 -10 -12 -7 -12 -12 4 -29 26
-29 17 -61 -24 -84 -19 -10 -42 -25 -50 -33 -13 -13 -12 -17 10 -34 14 -11 30
-20 36 -20 16 0 44 -34 44 -53 0 -8 -7 -23 -17 -32 -14 -14 -14 -18 -2 -26 8
-5 22 -9 32 -9 12 0 17 -8 17 -30 0 -16 -5 -30 -11 -30 -5 0 -17 -16 -25 -36
-12 -29 -13 -49 -5 -107 35 -233 41 -393 41 -1049 l0 -659 -40 -18 c-35 -16
-38 -20 -25 -31 22 -18 18 -46 -10 -68 -17 -14 -25 -30 -25 -51 l0 -31 143 0
c179 0 187 2 187 46 0 22 -5 34 -13 34 -8 0 -22 9 -33 21 -17 19 -17 22 -2 49
16 27 15 28 -7 34 -58 15 -55 -15 -54 629 2 615 8 811 34 1009 21 166 20 194
-11 224 -32 33 -28 56 14 68 30 8 45 26 22 26 -6 0 -16 11 -22 25 -9 21 -8 28
7 45 10 11 22 20 28 20 5 0 22 9 38 20 28 21 30 50 3 50 -8 0 -14 4 -14 9 0 5
-11 12 -25 15 -13 3 -29 16 -36 27 -9 18 -7 27 10 50 l21 28 -32 9 c-40 10
-50 45 -19 61 33 18 35 70 10 284 -21 180 -24 244 -23 582 0 293 4 413 18 525
32 276 33 284 2 315 -37 37 -34 61 9 69 19 4 35 11 35 16 0 6 -4 10 -8 10 -5
0 -15 11 -22 25 -12 22 -11 27 5 45 10 11 23 20 29 20 35 1 76 70 41 70 -8 0
-15 4 -15 9 0 5 -11 12 -25 15 -14 4 -31 18 -37 31 -10 22 -8 29 12 50 24 26
21 30 -25 37 -30 5 -30 34 0 70 31 37 31 44 -1 313 -12 98 -17 274 -21 706
l-5 577 -37 6 c-20 3 -46 6 -58 6 l-21 0 -5 -622z"/>
</g>
</svg>
