<?xml version="1.0" standalone="no"?>
<!DOCTYPE svg PUBLIC "-//W3C//DTD SVG 20010904//EN"
 "http://www.w3.org/TR/2001/REC-SVG-20010904/DTD/svg10.dtd">
<svg version="1.0" xmlns="http://www.w3.org/2000/svg"
 width="2550.000000pt" height="2700.000000pt" viewBox="0 0 2550.000000 2700.000000"
 preserveAspectRatio="xMidYMid meet">

<g transform="translate(0.000000,2700.000000) scale(0.100000,-0.100000)"
fill="#3a4548" stroke="none">
<path d="M7037 15810 c-4 -610 -11 -740 -46 -961 -19 -113 -15 -147 19 -179
43 -40 39 -64 -11 -79 l-41 -12 22 -24 c29 -31 23 -65 -15 -85 -16 -8 -32 -18
-35 -21 -3 -3 -13 -8 -22 -12 -10 -3 -18 -13 -18 -22 0 -9 8 -19 18 -22 9 -4
19 -9 22 -12 3 -3 19 -13 35 -21 38 -20 44 -54 14 -86 l-22 -23 27 -11 c15 -5
34 -10 42 -10 24 0 15 -41 -16 -70 -37 -34 -37 -49 -11 -255 54 -415 54 -946
1 -1351 -27 -206 -27 -220 10 -254 31 -29 39 -58 18 -65 -7 -2 -25 -9 -41 -15
l-27 -10 20 -20 c30 -30 23 -70 -15 -90 -16 -8 -32 -18 -35 -21 -3 -3 -13 -8
-22 -12 -10 -3 -18 -13 -18 -22 0 -9 8 -19 18 -22 9 -4 19 -9 22 -12 3 -3 19
-13 35 -21 38 -20 44 -54 15 -85 l-23 -24 29 -6 c16 -4 35 -8 42 -11 22 -6 13
-42 -19 -74 -31 -31 -32 -32 -26 -108 3 -42 13 -126 21 -187 30 -212 37 -453
34 -1085 l-3 -625 -44 -24 c-36 -19 -41 -25 -27 -33 26 -15 19 -55 -14 -80
-22 -16 -30 -30 -30 -54 l0 -32 95 -7 c52 -4 133 -4 180 0 l85 7 0 44 c0 32
-4 44 -15 44 -8 0 -22 11 -31 25 -15 23 -15 27 0 50 21 32 21 32 -11 40 -56
14 -53 -24 -53 709 0 703 5 840 41 1108 23 169 19 210 -22 223 -13 4 -19 16
-19 35 0 24 5 29 35 34 41 8 42 12 13 43 -21 22 -21 26 -7 51 8 15 24 29 34
31 11 2 24 9 28 17 4 8 14 14 21 14 8 0 16 6 19 14 6 16 -11 36 -30 36 -7 0
-13 5 -13 10 0 6 -9 10 -19 10 -20 0 -51 34 -51 55 0 6 10 22 21 34 18 19 19
25 8 32 -8 5 -24 9 -36 9 -34 0 -31 44 5 75 24 21 27 30 26 82 0 32 -8 111
-17 175 -31 221 -40 420 -34 783 6 341 10 398 43 633 18 126 15 153 -22 187
-29 27 -29 67 -1 71 46 6 50 12 28 40 -12 15 -21 32 -21 39 0 13 42 55 56 55
5 0 22 11 39 24 l29 24 -57 36 c-32 21 -61 44 -64 52 -3 9 4 29 16 45 23 30
21 34 -24 41 -31 5 -31 45 -1 73 35 32 40 64 27 150 -40 244 -43 315 -48 962
l-5 641 -63 4 -63 3 -5 -615z"/>
</g>
</svg>
