<?xml version="1.0" standalone="no"?>
<!DOCTYPE svg PUBLIC "-//W3C//DTD SVG 20010904//EN"
 "http://www.w3.org/TR/2001/REC-SVG-20010904/DTD/svg10.dtd">
<svg version="1.0" xmlns="http://www.w3.org/2000/svg"
 width="2550.000000pt" height="2700.000000pt" viewBox="0 0 2550.000000 2700.000000"
 preserveAspectRatio="xMidYMid meet">

<g transform="translate(0.000000,2700.000000) scale(0.100000,-0.100000)"
fill="#3a4548" stroke="none">
<path d="M21022 24207 l-52 -53 0 -547 c0 -655 -10 -782 -86 -1142 -24 -112
-25 -123 -11 -157 11 -25 28 -43 56 -58 31 -15 41 -26 41 -45 0 -15 -6 -25
-14 -25 -8 0 -27 -5 -42 -10 l-27 -11 20 -22 c43 -47 37 -87 -17 -105 -16 -6
-30 -16 -30 -21 0 -6 -6 -11 -14 -11 -7 0 -19 -7 -27 -16 -11 -13 -7 -20 24
-47 20 -18 48 -40 62 -50 31 -22 33 -66 5 -92 -24 -21 -21 -28 25 -49 49 -23
49 -60 0 -80 -46 -20 -78 -70 -71 -116 3 -19 18 -100 35 -180 54 -262 63 -366
68 -743 6 -448 -10 -641 -84 -985 -25 -117 -25 -125 -10 -157 10 -21 32 -42
57 -55 30 -16 40 -26 40 -45 0 -15 -6 -25 -15 -25 -8 0 -25 -5 -38 -11 l-25
-11 24 -36 c13 -19 24 -39 24 -44 0 -14 -48 -58 -63 -58 -8 0 -17 -7 -21 -15
-3 -8 -12 -15 -20 -15 -8 0 -16 -6 -19 -12 -6 -18 11 -48 27 -48 8 0 16 -7 20
-15 3 -8 12 -15 20 -15 8 0 24 -12 35 -27 24 -29 21 -55 -11 -89 l-19 -21 40
-17 c35 -14 41 -20 41 -46 0 -21 -5 -30 -16 -30 -30 0 -73 -41 -85 -78 -9 -32
-7 -57 16 -157 15 -66 38 -194 53 -285 25 -164 26 -168 29 -894 3 -401 2 -739
-1 -751 -3 -13 -22 -29 -46 -40 -37 -17 -39 -20 -25 -35 29 -32 7 -100 -33
-100 -7 0 -12 -15 -12 -35 0 -23 4 -33 13 -30 11 3 263 14 343 15 41 0 40 23
-3 56 -36 27 -44 63 -18 84 22 18 19 26 -15 40 -63 26 -60 -6 -60 691 0 765
12 951 85 1274 14 60 25 124 25 140 0 40 -23 71 -71 95 -29 15 -39 27 -39 44
0 19 7 25 35 30 45 9 52 22 25 51 -31 32 -24 75 15 95 17 8 34 21 38 28 4 6
15 12 23 12 29 0 26 30 -6 60 -18 16 -36 30 -41 30 -18 0 -49 40 -49 63 0 13
9 32 20 42 27 24 25 30 -12 46 -59 23 -66 61 -15 83 44 18 77 61 77 101 0 18
-11 81 -24 141 -71 321 -90 552 -83 972 6 341 21 494 72 733 48 225 46 248
-35 289 -27 14 -40 27 -40 40 0 19 7 24 68 45 10 4 8 11 -7 31 -24 30 -27 68
-8 84 6 6 33 24 60 40 26 16 47 34 47 39 0 14 -37 48 -82 77 -45 29 -50 64
-15 102 12 14 18 26 12 28 -36 14 -75 46 -75 64 0 13 11 24 33 33 81 35 89 78
48 267 -69 316 -74 377 -78 1090 -4 629 -6 659 -33 660 -3 0 -29 -24 -58 -53z"/>
</g>
</svg>
