<?xml version="1.0" standalone="no"?>
<!DOCTYPE svg PUBLIC "-//W3C//DTD SVG 20010904//EN"
 "http://www.w3.org/TR/2001/REC-SVG-20010904/DTD/svg10.dtd">
<svg version="1.0" xmlns="http://www.w3.org/2000/svg"
 width="2550.000000pt" height="2700.000000pt" viewBox="0 0 2550.000000 2700.000000"
 preserveAspectRatio="xMidYMid meet">

<g transform="translate(0.000000,2700.000000) scale(0.100000,-0.100000)"
fill="#3a4548" stroke="none">
<path d="M24377 26993 c-4 -3 -7 -173 -7 -377 0 -453 -15 -610 -92 -968 -21
-102 -22 -108 -6 -142 10 -20 34 -44 58 -58 50 -29 52 -53 4 -68 -19 -7 -34
-15 -32 -18 2 -4 12 -24 23 -45 22 -44 15 -64 -31 -86 -16 -8 -31 -17 -34 -21
-3 -3 -13 -9 -22 -13 -32 -12 -19 -43 42 -97 33 -29 60 -60 60 -68 0 -7 -9
-27 -21 -44 -12 -16 -20 -30 -18 -32 2 -1 19 -13 37 -25 39 -27 44 -66 9 -75
-35 -8 -76 -54 -83 -91 -3 -20 6 -85 24 -171 70 -321 83 -461 83 -891 -1 -427
-23 -652 -91 -941 -11 -46 -20 -95 -20 -109 0 -39 31 -82 72 -101 31 -14 38
-22 36 -42 -2 -18 -11 -27 -36 -34 -18 -5 -31 -12 -30 -15 50 -97 50 -99 -30
-146 -29 -16 -52 -37 -52 -46 0 -9 19 -31 41 -50 89 -73 95 -86 59 -132 -11
-14 -20 -27 -20 -29 0 -2 16 -12 35 -22 50 -27 49 -65 -3 -87 -26 -11 -44 -27
-55 -51 -22 -46 -21 -63 2 -156 28 -109 58 -285 76 -439 13 -112 15 -323 15
-1349 0 -870 -3 -1221 -11 -1230 -6 -7 -26 -19 -44 -25 l-33 -12 21 -29 c20
-27 20 -31 7 -56 -9 -15 -26 -31 -38 -37 -12 -5 -21 -16 -20 -24 2 -12 29 -14
143 -12 77 1 161 4 187 8 l47 5 -30 25 c-34 29 -37 55 -9 83 20 20 20 20 -19
40 -22 11 -43 30 -47 42 -4 13 -7 568 -6 1233 1 1164 2 1216 22 1370 11 88 35
228 52 310 17 83 33 165 36 183 7 50 -15 88 -68 121 -58 36 -60 65 -4 76 20 3
34 12 34 20 0 8 -4 15 -9 15 -14 0 -33 57 -27 78 4 10 19 25 34 33 44 22 82
52 82 64 0 14 -57 68 -87 84 -35 18 -40 57 -13 93 20 28 21 32 6 40 -38 21
-67 54 -61 69 3 8 21 21 40 28 20 7 43 26 55 47 26 41 25 68 -13 234 -64 286
-78 442 -78 874 0 432 17 602 87 908 34 150 33 162 -20 212 -24 22 -51 47 -60
54 -21 17 -13 29 24 37 41 9 45 20 19 54 -27 37 -20 77 19 94 45 20 82 48 82
64 0 7 -27 39 -60 70 -33 32 -60 62 -60 69 0 6 10 24 22 39 l22 28 -37 31
c-47 39 -47 61 -2 80 39 17 75 68 75 108 0 14 -11 74 -25 132 -28 118 -59 301
-75 446 -6 52 -12 264 -12 470 0 206 -3 381 -5 388 -5 13 -124 18 -136 5z"/>
</g>
</svg>
