<?xml version="1.0" standalone="no"?>
<!DOCTYPE svg PUBLIC "-//W3C//DTD SVG 20010904//EN"
 "http://www.w3.org/TR/2001/REC-SVG-20010904/DTD/svg10.dtd">
<svg version="1.0" xmlns="http://www.w3.org/2000/svg"
 width="2550.000000pt" height="2700.000000pt" viewBox="0 0 2550.000000 2700.000000"
 preserveAspectRatio="xMidYMid meet">

<g transform="translate(0.000000,2700.000000) scale(0.100000,-0.100000)"
fill="#3a4548" stroke="none">
<path d="M13694 14085 l-71 -124 -6 -383 c-6 -375 -11 -458 -43 -762 -18 -162
-12 -215 26 -239 12 -7 20 -23 20 -38 0 -21 -6 -28 -27 -32 -52 -12 -58 -21
-33 -55 31 -41 21 -78 -25 -98 -19 -8 -35 -18 -35 -22 0 -4 -10 -12 -22 -17
-33 -14 -35 -43 -4 -55 14 -5 26 -14 26 -20 0 -5 6 -10 14 -10 22 0 66 -40 66
-59 0 -10 -9 -30 -21 -45 -25 -32 -19 -43 26 -52 30 -5 35 -10 35 -33 0 -14
-11 -36 -25 -49 -34 -33 -39 -86 -21 -247 32 -276 37 -365 43 -720 6 -389 -3
-633 -38 -968 -22 -218 -18 -269 21 -282 14 -4 20 -15 20 -35 0 -24 -6 -30
-35 -40 -45 -15 -50 -25 -26 -52 28 -30 26 -62 -5 -87 -15 -12 -30 -21 -35
-21 -4 0 -22 -13 -40 -29 -27 -25 -30 -32 -19 -45 7 -9 19 -16 26 -16 8 0 14
-4 14 -9 0 -5 10 -13 23 -17 58 -17 72 -62 36 -108 -25 -31 -25 -31 21 -43 45
-12 51 -42 17 -83 -37 -44 -40 -88 -18 -285 11 -99 25 -260 31 -359 13 -230
14 -1481 0 -1505 -5 -10 -28 -26 -50 -35 l-41 -16 22 -29 c26 -36 19 -65 -22
-86 -25 -13 -29 -21 -29 -55 0 -35 3 -40 23 -40 12 0 74 -3 137 -6 95 -4 126
-2 180 14 64 18 65 19 68 55 2 29 -1 39 -15 44 -51 18 -69 69 -37 104 16 17
15 19 -12 29 -16 5 -36 14 -44 19 -13 7 -15 109 -15 822 1 712 3 833 19 969 9
85 20 196 23 247 5 89 5 92 -21 118 -40 40 -35 72 15 91 40 17 40 17 21 38
-43 47 -34 88 24 112 19 8 34 18 34 23 0 6 9 13 20 16 34 11 24 41 -22 65 -89
46 -102 76 -55 127 l20 22 -27 11 c-15 5 -34 10 -42 10 -23 0 -17 60 9 88 20
22 22 33 21 130 -1 59 -6 139 -12 177 -37 243 -41 1169 -8 1500 9 83 19 197
22 255 7 104 6 106 -20 137 -37 44 -32 74 14 86 46 12 46 12 21 43 -28 36 -27
68 5 93 15 12 31 21 36 21 5 0 23 13 39 28 28 26 29 30 15 43 -33 30 -45 39
-54 39 -5 0 -21 9 -36 21 -31 25 -33 57 -6 92 20 26 20 26 1 36 -11 6 -29 11
-40 11 -29 0 -28 46 2 78 20 22 22 33 21 125 0 56 -9 176 -19 267 -14 127 -19
286 -24 697 l-6 532 -71 -124z"/>
</g>
</svg>
