<?xml version="1.0" standalone="no"?>
<!DOCTYPE svg PUBLIC "-//W3C//DTD SVG 20010904//EN"
 "http://www.w3.org/TR/2001/REC-SVG-20010904/DTD/svg10.dtd">
<svg version="1.0" xmlns="http://www.w3.org/2000/svg"
 width="2551.000000pt" height="2701.000000pt" viewBox="0 0 2551.000000 2701.000000"
 preserveAspectRatio="xMidYMid meet">

<g transform="translate(0.000000,2701.000000) scale(0.100000,-0.100000)"
fill="#3a4548" stroke="none">
<path d="M17653 23159 l-63 -51 0 -1534 0 -1534 -26 0 c-15 0 -38 -12 -56 -30
-26 -26 -30 -36 -25 -66 9 -53 25 -67 69 -61 l38 5 0 -51 c0 -37 -6 -58 -24
-81 -115 -152 -115 -370 0 -522 29 -37 35 -118 9 -108 -42 17 -95 -31 -95 -86
0 -31 44 -70 80 -70 l30 0 0 -1662 c0 -915 -4 -1668 -8 -1674 -4 -6 -22 -19
-41 -29 -20 -10 -29 -20 -23 -24 6 -3 16 -19 21 -34 10 -25 8 -32 -19 -59 -25
-25 -30 -38 -28 -67 l3 -36 163 -3 162 -2 0 41 c0 32 -6 45 -25 61 -29 23 -33
63 -9 89 15 16 13 19 -18 35 -18 9 -36 22 -40 28 -4 6 -8 759 -8 1674 l0 1662
20 0 c29 0 76 26 84 45 24 62 -13 121 -70 112 l-34 -6 0 45 c0 35 7 54 30 82
112 141 111 360 -4 511 -19 25 -26 47 -26 78 0 42 1 43 34 43 69 0 104 97 50
139 -15 12 -40 21 -55 21 l-29 0 -2 1585 -3 1585 -62 -51z m-63 -3180 c0 -4
-7 -6 -15 -3 -8 4 -15 10 -15 15 0 4 7 6 15 3 8 -4 15 -10 15 -15z m160 2 c0
-5 -7 -11 -15 -15 -9 -3 -15 0 -15 9 0 8 7 15 15 15 8 0 15 -4 15 -9z m-38
-294 c30 -48 58 -142 58 -197 0 -69 -33 -164 -72 -206 -61 -68 -151 57 -151
211 -1 77 12 127 50 193 20 36 29 42 56 42 27 0 36 -7 59 -43z m-122 -662 c0
-8 -4 -15 -9 -15 -13 0 -22 16 -14 24 11 11 23 6 23 -9z m162 -7 c-11 -11 -32
-3 -32 12 0 4 9 6 21 3 13 -4 17 -9 11 -15z"/>
</g>
</svg>
