<?xml version="1.0" standalone="no"?>
<!DOCTYPE svg PUBLIC "-//W3C//DTD SVG 20010904//EN"
 "http://www.w3.org/TR/2001/REC-SVG-20010904/DTD/svg10.dtd">
<svg version="1.0" xmlns="http://www.w3.org/2000/svg"
 width="2551.000000pt" height="2701.000000pt" viewBox="0 0 2551.000000 2701.000000"
 preserveAspectRatio="xMidYMid meet">

<g transform="translate(0.000000,2701.000000) scale(0.100000,-0.100000)"
fill="#3a4548" stroke="none">
<path d="M18823 24121 l-63 -52 0 -1528 0 -1529 -24 -6 c-14 -3 -38 -18 -55
-32 -37 -31 -42 -79 -11 -112 23 -24 41 -27 71 -12 18 10 19 7 19 -45 0 -44
-5 -63 -25 -89 -109 -143 -113 -356 -10 -502 25 -35 35 -60 35 -87 0 -34 -2
-37 -24 -31 -33 8 -75 -31 -82 -76 -8 -49 19 -81 69 -83 l37 -1 1 -1575 c0
-1505 0 -2597 -1 -2688 0 -39 -3 -44 -40 -63 -37 -19 -39 -22 -25 -36 24 -24
19 -71 -10 -90 -20 -13 -25 -24 -25 -60 l0 -44 168 2 167 3 3 34 c3 28 -2 38
-27 58 -35 28 -41 66 -15 94 15 17 14 19 -20 36 -20 9 -39 26 -42 38 -2 11 -3
980 -2 2154 l3 2134 25 4 c71 10 102 82 59 137 -21 27 -30 28 -71 11 -16 -6
-18 -1 -18 42 0 36 5 55 19 67 30 27 80 136 92 201 20 107 -11 234 -77 320
-27 35 -34 55 -34 88 0 42 1 43 29 39 44 -6 81 34 81 87 0 47 -26 71 -77 71
l-33 0 -2 1587 -3 1586 -62 -52z m-63 -3171 c0 -5 -7 -10 -15 -10 -8 0 -15 5
-15 10 0 6 7 10 15 10 8 0 15 -4 15 -10z m152 -5 c0 -5 -5 -11 -11 -13 -6 -2
-11 4 -11 13 0 9 5 15 11 13 6 -2 11 -8 11 -13z m-20 -316 c55 -108 55 -229 1
-339 -24 -48 -32 -55 -60 -58 -27 -3 -35 2 -57 35 -75 113 -75 286 -1 399 13
20 23 25 52 22 33 -3 39 -8 65 -59z m-132 -639 c0 -5 -4 -10 -9 -10 -6 0 -13
5 -16 10 -3 6 1 10 9 10 9 0 16 -4 16 -10z m155 0 c3 -5 -1 -10 -9 -10 -9 0
-16 5 -16 10 0 6 4 10 9 10 6 0 13 -4 16 -10z"/>
</g>
</svg>
