<?xml version="1.0" standalone="no"?>
<!DOCTYPE svg PUBLIC "-//W3C//DTD SVG 20010904//EN"
 "http://www.w3.org/TR/2001/REC-SVG-20010904/DTD/svg10.dtd">
<svg version="1.0" xmlns="http://www.w3.org/2000/svg"
 width="2551.000000pt" height="2701.000000pt" viewBox="0 0 2551.000000 2701.000000"
 preserveAspectRatio="xMidYMid meet">

<g transform="translate(0.000000,2701.000000) scale(0.100000,-0.100000)"
fill="#3a4548" stroke="none">
<path d="M22270 26953 c-1 -5 -1 -693 -1 -1530 l-1 -1521 -25 -7 c-40 -10 -82
-46 -88 -76 -12 -53 39 -112 76 -88 30 19 39 9 39 -40 0 -38 -6 -56 -25 -79
-14 -17 -39 -61 -57 -98 -62 -133 -46 -299 42 -415 49 -65 54 -109 14 -109
-35 0 -94 -59 -94 -94 0 -39 41 -76 84 -76 l34 0 1 -1652 c0 -909 -2 -1661 -5
-1671 -3 -9 -24 -27 -46 -38 -37 -19 -39 -22 -24 -38 26 -29 20 -67 -15 -94
-21 -17 -30 -30 -26 -41 6 -14 30 -16 182 -16 l175 0 0 29 c0 19 -8 34 -24 45
-34 22 -41 52 -20 83 9 15 13 28 8 30 -5 2 -24 12 -41 23 l-33 20 0 1660 c0
1574 1 1660 18 1660 29 0 82 38 93 67 8 21 7 35 -5 60 -17 35 -59 54 -79 34
-20 -20 -27 -12 -27 34 0 35 8 55 40 101 54 78 75 142 75 239 0 95 -20 158
-76 245 -48 75 -54 130 -14 130 38 0 72 27 85 66 10 29 9 39 -5 60 -19 29 -54
45 -84 37 l-21 -5 0 1536 0 1536 -65 0 c-36 0 -65 -3 -65 -7z m150 -3123 c0
-5 -4 -10 -10 -10 -5 0 -10 5 -10 10 0 6 5 10 10 10 6 0 10 -4 10 -10z m-20
-324 c32 -64 35 -76 35 -160 0 -82 -3 -98 -32 -158 -29 -62 -35 -68 -62 -68
-84 0 -142 228 -92 361 32 82 47 101 84 97 28 -3 36 -11 67 -72z m-130 -620
c0 -11 -19 -15 -25 -6 -3 5 1 10 9 10 9 0 16 -2 16 -4z"/>
</g>
</svg>
