<?xml version="1.0" standalone="no"?>
<!DOCTYPE svg PUBLIC "-//W3C//DTD SVG 20010904//EN"
 "http://www.w3.org/TR/2001/REC-SVG-20010904/DTD/svg10.dtd">
<svg version="1.0" xmlns="http://www.w3.org/2000/svg"
 width="2551.000000pt" height="2701.000000pt" viewBox="0 0 2551.000000 2701.000000"
 preserveAspectRatio="xMidYMid meet">

<g transform="translate(0.000000,2701.000000) scale(0.100000,-0.100000)"
fill="#3a4548" stroke="none">
<path d="M5918 13502 l-58 -47 0 -1537 0 -1538 -24 0 c-14 0 -38 -12 -55 -26
-69 -58 -17 -175 60 -134 18 10 19 7 19 -42 0 -45 -6 -61 -35 -102 -56 -78
-78 -148 -79 -246 -1 -102 18 -164 74 -244 27 -39 40 -68 40 -90 0 -30 -2 -33
-26 -28 -18 3 -33 -3 -55 -24 -57 -55 -25 -144 52 -144 l29 0 0 -1665 0 -1666
-29 -16 c-43 -25 -56 -51 -37 -72 20 -22 21 -47 2 -58 -22 -14 -36 -50 -36
-97 l0 -46 150 0 149 0 16 30 c23 44 20 107 -5 115 -35 11 -42 40 -20 78 l21
35 -40 15 c-22 9 -42 25 -46 36 -11 37 -2 3303 9 3306 6 2 24 6 39 9 30 7 67
57 67 93 0 12 -11 35 -24 50 -22 26 -27 27 -55 16 -24 -8 -31 -8 -33 0 -7 58
-4 75 23 114 77 109 107 249 80 360 -15 58 -55 140 -84 171 -14 15 -21 37 -22
67 l-2 45 31 -6 c39 -7 74 26 83 79 7 47 -29 87 -80 87 l-33 0 0 1585 c1 872
-1 1585 -4 1585 -3 -1 -31 -22 -62 -48z m-58 -3182 c0 -5 -7 -7 -15 -4 -8 4
-15 8 -15 10 0 2 7 4 15 4 8 0 15 -4 15 -10z m150 2 c0 -13 -12 -22 -22 -16
-10 6 -1 24 13 24 5 0 9 -4 9 -8z m-18 -322 c55 -107 56 -231 0 -340 -22 -45
-33 -56 -56 -58 -36 -4 -58 16 -92 86 -24 49 -28 70 -28 147 -1 91 8 128 47
193 17 30 23 33 60 30 37 -3 42 -7 69 -58z m-136 -647 c-10 -10 -19 5 -10 18
6 11 8 11 12 0 2 -7 1 -15 -2 -18z m164 1 c0 -2 -7 -4 -15 -4 -8 0 -15 4 -15
10 0 5 7 7 15 4 8 -4 15 -8 15 -10z"/>
</g>
</svg>
