<?xml version="1.0" standalone="no"?>
<!DOCTYPE svg PUBLIC "-//W3C//DTD SVG 20010904//EN"
 "http://www.w3.org/TR/2001/REC-SVG-20010904/DTD/svg10.dtd">
<svg version="1.0" xmlns="http://www.w3.org/2000/svg"
 width="2551.000000pt" height="2701.000000pt" viewBox="0 0 2551.000000 2701.000000"
 preserveAspectRatio="xMidYMid meet">

<g transform="translate(0.000000,2701.000000) scale(0.100000,-0.100000)"
fill="#3a4548" stroke="none">
<path d="M7098 14472 l-58 -45 0 -651 c0 -358 -1 -1051 -3 -1540 l-2 -889 -30
-3 c-33 -3 -85 -53 -85 -82 0 -33 38 -82 64 -82 14 0 28 5 31 10 14 23 25 7
25 -40 0 -41 -6 -58 -40 -107 -108 -153 -105 -344 6 -500 22 -32 34 -59 34
-82 0 -30 -2 -33 -24 -27 -34 9 -52 -1 -77 -40 -36 -59 -1 -124 66 -124 l35 0
0 -2144 c0 -1936 -2 -2146 -16 -2160 -8 -9 -22 -16 -30 -16 -8 0 -20 -11 -26
-25 -9 -20 -8 -28 5 -43 23 -25 21 -49 -2 -57 -22 -7 -38 -72 -32 -130 1 -14
290 -10 304 4 5 5 12 34 15 64 4 49 2 55 -22 70 -29 19 -33 42 -11 71 22 28
19 34 -22 53 l-38 18 -3 2148 -2 2147 27 0 c16 0 35 6 44 13 42 32 52 104 19
137 -24 24 -47 25 -72 3 -17 -15 -18 -14 -18 36 0 40 6 60 24 84 118 158 121
375 6 519 -23 28 -30 47 -30 82 l0 45 34 -6 c28 -4 36 -1 55 25 45 64 16 136
-54 136 l-35 0 -2 1587 -3 1587 -57 -46z m-63 -3182 c3 -5 -3 -10 -14 -10 -12
0 -21 5 -21 10 0 6 6 10 14 10 8 0 18 -4 21 -10z m153 -2 c-6 -18 -28 -21 -28
-4 0 9 7 16 16 16 9 0 14 -5 12 -12z m-31 -297 c64 -95 70 -242 15 -354 -31
-63 -35 -67 -67 -67 -29 0 -39 6 -59 38 -76 113 -77 291 -4 395 17 23 26 28
56 25 29 -2 41 -10 59 -37z m-117 -656 c0 -8 -7 -15 -15 -15 -16 0 -20 12 -8
23 11 12 23 8 23 -8z m150 -5 c12 -8 11 -10 -7 -10 -13 0 -23 5 -23 10 0 13
11 13 30 0z"/>
</g>
</svg>
