<?xml version="1.0" standalone="no"?>
<!DOCTYPE svg PUBLIC "-//W3C//DTD SVG 20010904//EN"
 "http://www.w3.org/TR/2001/REC-SVG-20010904/DTD/svg10.dtd">
<svg version="1.0" xmlns="http://www.w3.org/2000/svg"
 width="2551.000000pt" height="2701.000000pt" viewBox="0 0 2551.000000 2701.000000"
 preserveAspectRatio="xMidYMid meet">

<g transform="translate(0.000000,2701.000000) scale(0.100000,-0.100000)"
fill="#3a4548" stroke="none">
<path d="M11793 18337 l-52 -42 0 -1542 -1 -1543 -33 0 c-73 0 -106 -89 -51
-141 24 -23 26 -23 55 -7 l29 17 0 -54 c0 -47 -5 -61 -34 -100 -56 -73 -79
-146 -80 -250 -1 -104 15 -157 75 -249 31 -46 39 -68 39 -104 0 -36 -3 -43
-12 -34 -20 20 -65 14 -82 -10 -39 -56 -6 -132 58 -132 l36 0 -2 -2150 -3
-2151 -37 -20 c-39 -21 -50 -48 -23 -59 23 -9 18 -50 -11 -75 -21 -18 -25 -29
-22 -69 l3 -47 153 -3 152 -3 0 55 c0 30 -4 58 -10 61 -5 3 -10 1 -10 -5 0
-22 -19 1 -25 31 -5 22 -2 36 11 50 17 19 17 20 -5 35 -12 9 -31 25 -42 37
-19 21 -19 42 -17 2165 l3 2145 35 2 c47 4 84 47 76 88 -4 17 -14 39 -23 49
-17 19 -58 24 -68 8 -14 -23 -25 -7 -25 36 0 35 6 54 26 76 121 144 124 362 8
525 -27 38 -34 58 -34 95 0 52 1 53 31 37 28 -15 57 -2 75 33 29 56 -8 118
-71 118 l-35 0 0 1581 c0 870 -1 1583 -2 1585 -2 1 -27 -16 -55 -39z m-53
-3186 c0 -17 -3 -18 -24 -8 -27 13 -25 27 5 27 12 0 19 -7 19 -19z m160 10 c0
-9 -41 -23 -48 -16 -2 2 -1 8 3 14 8 13 45 15 45 2z m-27 -330 c33 -67 37 -81
37 -152 0 -84 -23 -165 -61 -213 -29 -37 -81 -36 -108 2 -41 58 -56 113 -56
207 0 71 5 100 22 137 30 65 66 100 101 96 23 -2 33 -15 65 -77z m27 -629 c2
-2 -2 -7 -9 -12 -20 -12 -41 -1 -41 21 0 19 9 17 50 -9z m-160 4 c0 -20 -14
-28 -36 -19 -16 6 -16 7 2 20 23 17 34 17 34 -1z"/>
</g>
</svg>
