<?xml version="1.0" standalone="no"?>
<!DOCTYPE svg PUBLIC "-//W3C//DTD SVG 20010904//EN"
 "http://www.w3.org/TR/2001/REC-SVG-20010904/DTD/svg10.dtd">
<svg version="1.0" xmlns="http://www.w3.org/2000/svg"
 width="2551.000000pt" height="2701.000000pt" viewBox="0 0 2551.000000 2701.000000"
 preserveAspectRatio="xMidYMid meet">

<g transform="translate(0.000000,2701.000000) scale(0.100000,-0.100000)"
fill="#3a4548" stroke="none">
<path d="M12968 19303 l-58 -46 0 -1544 c0 -1527 0 -1544 -20 -1538 -23 7 -75
-18 -84 -40 -25 -67 47 -148 92 -103 9 9 12 -1 12 -46 0 -48 -5 -63 -30 -94
-109 -137 -111 -356 -4 -503 27 -37 34 -56 34 -93 0 -43 -11 -59 -25 -36 -11
17 -41 11 -63 -13 -47 -50 -10 -137 58 -137 l30 0 0 -1662 c0 -915 -4 -1668
-8 -1673 -4 -6 -20 -17 -37 -25 -16 -8 -32 -16 -34 -17 -3 -2 6 -14 18 -27 27
-29 22 -59 -15 -82 -18 -12 -24 -25 -24 -53 0 -62 1 -62 166 -59 l149 3 -3 45
c-3 34 -9 50 -28 63 -29 22 -31 50 -4 77 19 19 19 19 -8 39 -15 12 -33 26 -39
31 -10 9 -13 357 -13 1679 l0 1668 29 -5 c22 -3 36 2 55 21 34 34 34 80 1 112
-27 28 -37 30 -66 15 -17 -10 -19 -7 -19 35 0 35 8 56 34 95 95 138 104 314
25 456 -16 29 -36 57 -44 64 -10 9 -15 32 -15 73 0 47 3 58 12 49 45 -45 117
36 92 103 -9 22 -61 47 -84 40 -20 -6 -20 13 -22 1584 l-3 1591 -57 -47z m-58
-3182 c0 -14 -5 -18 -20 -14 -11 3 -20 12 -20 19 0 8 9 14 20 14 13 0 20 -7
20 -19z m157 3 c2 -6 -5 -14 -17 -17 -15 -4 -20 0 -20 15 0 21 30 23 37 2z
m-33 -299 c36 -64 48 -111 48 -188 -1 -119 -56 -237 -111 -237 -34 0 -53 19
-85 90 -49 109 -42 230 21 338 23 41 27 43 65 40 35 -3 43 -8 62 -43z m-124
-655 c0 -13 -7 -20 -20 -20 -25 0 -25 9 -2 26 22 17 22 17 22 -6z m154 -12
c-10 -16 -34 -7 -34 12 0 17 3 19 19 8 11 -7 17 -16 15 -20z"/>
</g>
</svg>
