<?xml version="1.0" standalone="no"?>
<!DOCTYPE svg PUBLIC "-//W3C//DTD SVG 20010904//EN"
 "http://www.w3.org/TR/2001/REC-SVG-20010904/DTD/svg10.dtd">
<svg version="1.0" xmlns="http://www.w3.org/2000/svg"
 width="3542.000000pt" height="3750.000000pt" viewBox="0 0 3542.000000 3750.000000"
 preserveAspectRatio="xMidYMid meet">

<g transform="translate(0.000000,3750.000000) scale(0.100000,-0.100000)"
fill="#C5C3C1" stroke="none">
<path d="M662 17198 l3 -1253 -87 -36 c-207 -86 -405 -240 -538 -418 l-40 -55
0 -120 1 -121 44 85 c62 117 131 208 245 320 142 141 295 235 480 296 72 24
102 28 195 28 92 0 123 -4 190 -27 253 -84 448 -300 525 -582 33 -120 38 -320
12 -447 -42 -201 -154 -358 -314 -438 -76 -38 -81 -39 -180 -38 -97 0 -103 2
-153 34 -67 42 -118 101 -158 184 -27 55 -32 77 -35 155 -3 74 0 101 18 148
29 77 92 153 159 190 l54 31 36 -20 c93 -50 109 -206 29 -291 -31 -34 -19 -47
45 -49 54 -2 59 0 86 33 89 108 56 290 -62 342 -110 49 -192 52 -274 11 -175
-88 -263 -303 -204 -498 24 -79 83 -173 142 -227 41 -36 169 -105 199 -105 8
0 -10 -11 -42 -24 -182 -75 -272 -170 -394 -416 -117 -237 -177 -517 -168
-785 l4 -110 -39 80 c-22 44 -53 109 -69 145 -16 36 -53 115 -82 175 -28 61
-72 155 -98 210 -26 55 -79 165 -119 245 l-73 145 3 -145 3 -145 96 -200 c85
-179 264 -556 384 -813 24 -51 44 -95 44 -97 0 -2 -21 9 -47 25 -62 39 -139
61 -235 67 -68 4 -83 2 -133 -21 -31 -14 -69 -35 -86 -46 l-29 -21 0 -218 0
-218 79 -6 c43 -3 93 -2 111 3 77 22 140 102 143 183 2 39 0 41 -33 50 -78 19
-84 17 -90 -35 -7 -54 -31 -92 -81 -126 -41 -28 -66 -25 -93 11 -30 40 -28
136 3 195 33 65 96 128 156 157 92 45 135 35 227 -53 127 -120 229 -261 234
-324 5 -60 11 -72 41 -90 21 -12 47 -56 102 -175 111 -238 151 -374 172 -592
38 -389 -122 -907 -347 -1121 -90 -86 -199 -143 -254 -134 -22 4 -60 0 -91 -9
-89 -26 -150 -5 -242 82 l-37 35 0 -58 0 -57 52 -24 c29 -13 75 -29 102 -36
l49 -12 -39 -15 c-21 -9 -67 -33 -101 -55 l-63 -39 0 -81 1 -82 37 41 c51 56
117 107 179 138 42 21 67 26 122 26 38 0 81 4 96 10 21 8 36 5 77 -16 113 -57
208 -189 223 -308 22 -170 -99 -361 -255 -406 -43 -12 -63 0 -89 53 -35 72
-24 157 29 224 29 37 25 50 -18 58 -20 4 -42 11 -49 16 -16 14 -49 -23 -79
-86 -32 -68 -33 -164 -1 -219 40 -71 82 -95 183 -107 81 -10 94 -9 144 10 160
61 270 244 257 430 -12 176 -129 323 -303 381 -35 12 -62 26 -58 31 3 5 10 9
16 9 21 0 133 63 183 102 137 107 268 339 346 611 48 166 62 267 63 449 1 93
3 168 6 168 11 0 477 -1005 508 -1095 224 -645 -102 -1424 -723 -1733 -141
-69 -269 -102 -399 -102 -85 0 -189 21 -243 48 -65 34 -162 112 -208 169 l-45
55 0 -70 c0 -66 2 -72 31 -96 117 -98 355 -177 549 -180 l84 -1 1 -795 c0
-631 -2 -799 -13 -816 -7 -12 -41 -34 -77 -49 l-64 -27 29 -25 c42 -35 41 -82
-1 -117 -17 -14 -39 -26 -50 -26 -17 0 -19 -7 -19 -62 l0 -63 115 -34 c103
-31 120 -33 163 -24 26 6 113 21 194 34 l148 24 0 61 c0 56 -2 62 -23 68 -78
19 -102 93 -46 140 l30 26 -23 9 c-13 5 -44 18 -70 30 -45 19 -52 19 -130 6
-45 -8 -84 -13 -86 -11 -12 13 14 24 65 30 32 4 66 9 76 12 16 5 17 54 17 838
l0 834 87 41 c436 209 750 659 823 1176 13 93 13 299 -1 388 -26 176 -59 269
-192 552 -83 177 -283 602 -358 763 -22 45 -58 121 -80 170 -105 221 -120 255
-116 259 3 2 21 -7 41 -21 51 -34 126 -49 231 -45 108 5 166 29 237 100 71 71
102 139 103 225 0 62 -3 75 -28 108 -31 40 -59 55 -152 81 -50 14 -68 15 -103
6 -82 -23 -152 -113 -152 -198 l0 -40 59 -2 58 -1 6 40 c7 53 39 103 82 126
42 22 59 15 89 -36 42 -71 17 -166 -67 -257 -46 -50 -94 -78 -161 -93 -64 -14
-95 1 -183 91 -120 123 -226 287 -205 319 20 33 -3 87 -48 110 -31 16 -42 30
-58 72 -11 29 -39 93 -61 141 -97 211 -141 409 -141 639 0 75 5 172 11 215 31
230 137 525 250 689 76 111 240 221 316 211 21 -2 62 0 91 5 49 8 58 7 123
-23 52 -24 86 -49 132 -99 176 -186 192 -462 35 -607 -61 -55 -100 -74 -167
-80 -52 -5 -58 -3 -84 24 -71 76 -34 213 68 248 22 7 40 19 40 26 0 16 -109
43 -140 35 -35 -9 -93 -63 -116 -107 -23 -45 -25 -134 -5 -182 17 -40 51 -72
97 -91 45 -19 228 -24 285 -8 96 28 194 123 234 229 68 180 6 412 -150 561
-52 51 -161 109 -219 118 -40 6 -57 24 -23 24 27 0 132 53 188 96 69 52 135
132 179 215 134 255 124 620 -25 896 -92 171 -221 296 -380 370 -104 48 -181
65 -317 70 l-133 6 0 1233 0 1234 -120 0 -120 0 2 -1252z"/>
<path d="M32 10969 c-32 -9 -32 -10 -32 -70 l0 -60 29 20 c47 34 113 61 149
61 71 0 122 -52 122 -124 0 -73 -37 -126 -108 -157 -31 -14 -43 -24 -40 -36 3
-18 13 -20 94 -24 152 -6 242 220 130 326 -62 58 -245 92 -344 64z"/>
</g>
</svg>
