<?xml version="1.0" standalone="no"?>
<!DOCTYPE svg PUBLIC "-//W3C//DTD SVG 20010904//EN"
 "http://www.w3.org/TR/2001/REC-SVG-20010904/DTD/svg10.dtd">
<svg version="1.0" xmlns="http://www.w3.org/2000/svg"
 width="3542.000000pt" height="3750.000000pt" viewBox="0 0 3542.000000 3750.000000"
 preserveAspectRatio="xMidYMid meet">

<g transform="translate(0.000000,3750.000000) scale(0.100000,-0.100000)"
fill="#C5C3C1" stroke="none">
<path d="M19253 18702 l-43 -3 0 -954 0 -954 -62 -33 c-35 -18 -96 -64 -136
-102 -209 -198 -332 -522 -332 -870 0 -214 19 -307 117 -586 52 -146 310 -871
320 -897 5 -13 -60 -9 -117 8 -158 47 -314 -230 -204 -361 25 -29 29 -30 106
-30 43 0 88 5 99 10 27 15 59 82 59 125 0 33 -2 35 -32 35 -18 0 -42 3 -54 6
-18 5 -22 0 -27 -36 -7 -54 -34 -95 -51 -80 -54 44 3 233 83 275 28 14 31 13
59 -10 62 -52 172 -245 172 -302 0 -17 6 -38 13 -45 22 -21 32 -45 77 -178 73
-219 84 -286 84 -525 1 -224 -6 -275 -60 -462 -31 -106 -92 -240 -135 -294
-45 -57 -111 -92 -173 -94 -46 0 -55 3 -94 39 -107 98 -153 302 -101 442 22
58 94 144 121 144 32 0 53 -39 53 -102 0 -59 -1 -61 -45 -99 -24 -21 -41 -41
-37 -45 14 -15 108 -14 136 1 81 41 88 220 10 261 -38 19 -169 39 -203 30 -38
-9 -104 -72 -131 -125 -103 -205 -6 -522 179 -584 l41 -14 -32 -16 c-86 -45
-184 -186 -217 -312 -75 -294 -14 -614 152 -795 75 -81 142 -117 259 -136 49
-8 91 -14 96 -14 11 0 9 -1218 -3 -1239 -5 -10 -30 -26 -56 -36 l-47 -18 23
-17 c30 -22 30 -68 0 -92 -12 -10 -28 -18 -36 -18 -10 0 -14 -14 -14 -49 l0
-48 110 -18 c114 -18 174 -17 295 8 l60 12 3 43 c3 40 1 43 -28 53 -51 18 -65
67 -29 105 l20 22 -55 23 -56 23 0 642 0 643 60 36 c226 138 405 442 461 785
8 48 14 157 14 250 0 240 -4 255 -203 815 -61 171 -135 378 -165 461 l-53 151
90 -3 c82 -3 94 -1 133 22 114 66 158 251 80 329 -28 28 -41 33 -106 39 -68 7
-75 6 -98 -16 -32 -29 -53 -77 -53 -123 l0 -35 54 0 53 0 6 38 c4 20 14 48 23
61 l17 24 13 -24 c40 -73 -13 -211 -98 -255 -15 -8 -29 -14 -32 -14 -13 0
-117 151 -150 217 -30 61 -35 80 -30 113 6 35 3 43 -24 68 -23 22 -41 60 -72
147 -69 202 -84 290 -84 520 0 224 14 318 80 514 46 139 86 210 150 271 51 49
54 50 113 50 56 0 64 -3 102 -37 54 -49 84 -97 108 -175 41 -132 34 -237 -20
-323 -25 -40 -79 -85 -102 -85 -15 0 -47 66 -47 100 0 48 29 102 63 119 37 17
25 27 -43 35 -66 7 -89 -5 -114 -59 -37 -78 -14 -193 45 -222 36 -19 184 -17
224 3 70 33 124 137 132 253 12 178 -80 367 -203 418 -50 20 -54 28 -20 37 33
8 118 87 154 143 17 27 43 84 58 128 27 76 28 89 29 265 0 218 -16 296 -92
443 -87 169 -219 266 -374 275 l-79 5 0 943 0 943 -47 -2 c-27 -1 -67 -3 -90
-5z m264 -1957 c118 -58 224 -204 275 -381 20 -69 23 -101 23 -254 0 -158 -2
-182 -24 -249 -48 -147 -161 -266 -241 -254 -53 7 -78 23 -115 73 -83 113 -97
260 -37 382 18 36 43 73 56 82 24 15 26 14 45 -9 36 -46 36 -151 0 -190 -5 -5
-9 -17 -9 -27 0 -15 9 -18 55 -18 l56 0 19 43 c35 76 21 186 -29 231 -20 18
-117 39 -169 37 -32 -1 -78 -35 -113 -84 -117 -161 -60 -460 105 -547 l44 -24
-47 -28 c-65 -36 -119 -100 -164 -192 -72 -147 -137 -414 -137 -562 0 -33 -4
-64 -8 -71 -13 -21 -257 678 -287 822 -27 129 -25 372 4 515 71 348 254 617
486 715 75 31 131 29 212 -10z m128 -3930 c64 -181 126 -370 136 -420 59 -276
22 -601 -96 -852 -120 -256 -312 -432 -506 -465 -63 -11 -67 -10 -118 18 -111
60 -205 195 -253 361 -20 68 -23 100 -22 253 0 162 2 181 27 257 33 98 93 192
155 238 38 30 53 35 97 35 46 0 56 -4 89 -36 45 -44 80 -112 95 -186 15 -71 1
-162 -37 -231 -24 -46 -73 -97 -92 -97 -12 0 -40 76 -40 108 1 15 8 45 16 67
28 74 29 70 -25 81 -48 10 -52 9 -66 -12 -38 -59 -43 -170 -10 -234 22 -43 63
-60 144 -60 63 0 73 3 112 33 84 64 133 210 112 334 -22 128 -104 243 -190
266 l-42 11 59 28 c97 47 164 146 234 347 45 130 75 276 83 403 3 54 9 95 13
91 4 -4 60 -156 125 -338z"/>
</g>
</svg>
