<?xml version="1.0" standalone="no"?>
<!DOCTYPE svg PUBLIC "-//W3C//DTD SVG 20010904//EN"
 "http://www.w3.org/TR/2001/REC-SVG-20010904/DTD/svg10.dtd">
<svg version="1.0" xmlns="http://www.w3.org/2000/svg"
 width="3542.000000pt" height="3750.000000pt" viewBox="0 0 3542.000000 3750.000000"
 preserveAspectRatio="xMidYMid meet">

<g transform="translate(0.000000,3750.000000) scale(0.100000,-0.100000)"
fill="#C5C3C1" stroke="none">
<path d="M26450 18098 c0 -343 -1 -767 -3 -943 l-2 -320 -95 -6 c-150 -11
-257 -63 -360 -177 -70 -78 -130 -187 -160 -292 -30 -104 -37 -285 -17 -405
29 -166 125 -308 244 -364 l52 -24 -59 -28 c-167 -79 -269 -314 -215 -495 34
-116 129 -204 220 -204 58 0 153 25 184 47 38 29 56 96 41 152 -18 67 -57 101
-119 103 -28 0 -57 1 -63 2 -7 1 -14 -7 -16 -16 -2 -12 5 -19 22 -24 80 -20
103 -150 37 -201 -66 -51 -179 48 -211 185 -30 131 53 333 167 403 51 32 169
29 228 -6 126 -73 239 -288 292 -554 24 -119 23 -384 -1 -504 -28 -140 -110
-360 -151 -407 -13 -14 -25 -44 -28 -68 -10 -80 -161 -302 -228 -334 -42 -21
-75 -9 -128 45 -68 68 -89 174 -46 231 13 17 16 18 38 3 24 -15 40 -47 51 -99
6 -24 9 -26 44 -22 64 9 65 11 57 52 -10 53 -40 97 -78 115 -38 17 -142 16
-175 -2 -39 -21 -62 -70 -62 -131 1 -127 108 -250 219 -250 51 0 138 18 173
36 l28 14 -20 -49 c-11 -28 -56 -137 -101 -243 -330 -780 -361 -863 -384
-1015 -20 -138 -19 -248 5 -385 32 -185 83 -317 182 -469 100 -155 233 -278
376 -349 l62 -31 0 -633 c0 -711 8 -644 -77 -680 l-42 -19 24 -19 c14 -11 25
-30 25 -43 0 -24 -42 -65 -66 -65 -10 0 -14 -14 -14 -48 l0 -49 135 -17 c128
-17 139 -17 235 0 l100 17 0 49 c0 34 -4 48 -14 48 -23 0 -66 40 -66 63 0 11
10 31 21 43 l22 23 -39 18 c-81 36 -74 -27 -74 658 l0 611 93 13 c224 31 351
112 459 296 93 158 123 403 73 600 -39 151 -140 290 -253 347 l-54 27 39 10
c75 20 169 104 211 187 95 187 48 417 -101 497 -57 30 -215 32 -263 3 -90 -54
-82 -223 12 -278 27 -16 37 -16 82 -6 59 14 66 28 22 45 -63 24 -92 132 -49
187 11 14 29 26 40 26 55 0 144 -75 174 -147 52 -123 12 -303 -87 -403 -66
-66 -100 -79 -183 -71 -84 8 -118 25 -183 90 -61 61 -122 178 -171 328 -58
179 -66 233 -65 453 1 227 14 289 104 517 43 108 57 133 76 137 26 7 40 42 31
78 -9 34 51 139 141 246 60 71 79 80 136 58 111 -43 175 -199 112 -273 -23
-27 -25 -27 -44 -10 -21 19 -36 51 -46 99 -6 26 -9 27 -54 23 l-47 -3 1 -41
c1 -51 41 -113 84 -131 45 -19 161 4 195 38 71 71 51 197 -46 290 -22 22 -57
44 -78 51 -54 16 -175 14 -216 -3 -19 -8 -35 -14 -35 -12 0 4 176 431 194 471
33 72 250 603 266 651 41 117 54 214 54 379 0 137 -4 176 -27 273 -77 329
-288 608 -540 712 l-57 24 0 958 0 958 -85 0 -85 0 0 -622z m92 -1341 c448
-164 704 -759 552 -1284 -19 -65 -150 -391 -325 -809 -12 -26 -13 -18 -20 86
-18 273 -114 559 -233 696 -48 55 -147 114 -192 115 l-29 0 25 10 c126 51 177
97 226 204 79 171 6 386 -146 433 -19 6 -65 10 -102 9 -59 -2 -70 -6 -97 -31
-40 -38 -54 -84 -49 -160 3 -43 10 -71 26 -93 20 -28 27 -31 60 -26 62 8 62 8
35 60 -34 66 -29 140 12 183 26 27 30 28 54 15 14 -7 40 -28 58 -47 107 -112
102 -301 -13 -427 -51 -57 -95 -77 -169 -76 -51 1 -68 6 -107 33 -131 90 -208
266 -208 476 0 287 159 559 375 646 66 27 173 22 267 -13z m-217 -3832 c20
-100 78 -271 117 -350 66 -131 147 -218 236 -254 l33 -14 -60 -29 c-140 -67
-218 -247 -177 -408 31 -122 131 -230 212 -230 49 0 144 27 167 47 53 49 67
155 28 231 -11 22 -24 43 -28 45 -5 3 -29 3 -56 0 -52 -6 -58 -17 -31 -58 37
-57 34 -154 -7 -191 -27 -24 -71 -3 -120 58 -47 60 -64 112 -64 203 0 88 34
165 99 229 l46 44 77 -2 c53 -2 89 -8 113 -21 56 -29 142 -125 176 -195 49
-100 59 -157 59 -325 -1 -144 -2 -154 -34 -248 -57 -167 -144 -273 -276 -338
-116 -57 -217 -49 -370 28 -148 74 -300 222 -375 363 -108 205 -152 352 -166
555 -12 181 21 354 104 555 73 176 209 504 238 577 l29 71 7 -131 c3 -73 14
-168 23 -212z"/>
</g>
</svg>
