<?xml version="1.0" standalone="no"?>
<!DOCTYPE svg PUBLIC "-//W3C//DTD SVG 20010904//EN"
 "http://www.w3.org/TR/2001/REC-SVG-20010904/DTD/svg10.dtd">
<svg version="1.0" xmlns="http://www.w3.org/2000/svg"
 width="2551.000000pt" height="2701.000000pt" viewBox="0 0 2551.000000 2701.000000"
 preserveAspectRatio="xMidYMid meet">

<g transform="translate(0.000000,2701.000000) scale(0.100000,-0.100000)"
fill="#C5C3C1" stroke="none">
<path d="M15302 21257 l-53 -42 1 -1274 c0 -1094 -2 -1293 -16 -1410 -16 -144
-55 -363 -80 -445 -30 -106 -9 -176 59 -194 27 -7 33 -14 35 -40 2 -20 -1 -32
-9 -32 -7 0 -20 -7 -30 -16 -17 -15 -16 -17 2 -49 15 -25 17 -38 9 -59 -5 -14
-14 -26 -20 -26 -12 0 -80 -68 -80 -79 0 -4 22 -23 49 -43 58 -43 65 -65 40
-113 l-20 -36 31 -10 c23 -9 30 -17 30 -38 0 -22 -8 -30 -40 -45 -72 -31 -84
-83 -50 -214 26 -106 67 -344 80 -477 7 -76 10 -541 8 -1495 l-3 -1384 -36
-21 -35 -20 18 -32 c18 -30 18 -33 2 -57 -9 -14 -23 -26 -30 -26 -10 0 -14
-13 -14 -45 l0 -45 48 -1 c39 -1 213 -1 260 1 7 0 12 14 12 35 0 26 -7 42 -30
62 -34 30 -38 57 -12 86 14 17 15 21 2 25 -8 3 -27 18 -43 33 l-27 28 1 1123
c1 1663 7 1813 89 2172 17 72 30 143 30 158 0 47 -26 84 -70 102 -51 20 -56
57 -10 76 33 14 36 26 15 54 -24 32 -19 73 13 93 29 19 72 62 72 72 0 11 -15
27 -57 60 -47 36 -56 70 -28 107 20 27 19 31 -15 43 -24 8 -30 16 -30 40 0 25
4 31 21 31 12 0 36 15 55 34 41 41 44 79 15 194 -29 114 -59 280 -78 432 -14
117 -17 309 -22 1442 l-6 1308 -53 -43z"/>
</g>
</svg>
