<?xml version="1.0" standalone="no"?>
<!DOCTYPE svg PUBLIC "-//W3C//DTD SVG 20010904//EN"
 "http://www.w3.org/TR/2001/REC-SVG-20010904/DTD/svg10.dtd">
<svg version="1.0" xmlns="http://www.w3.org/2000/svg"
 width="2551.000000pt" height="2701.000000pt" viewBox="0 0 2551.000000 2701.000000"
 preserveAspectRatio="xMidYMid meet">

<g transform="translate(0.000000,2701.000000) scale(0.100000,-0.100000)"
fill="#C5C3C1" stroke="none">
<path d="M23427 26138 c-3 -810 -5 -859 -25 -978 -25 -150 -34 -199 -61 -310
-28 -115 -27 -151 5 -189 14 -17 33 -31 43 -31 9 0 22 -5 29 -12 13 -13 16
-48 5 -48 -5 -1 -21 -11 -37 -24 l-29 -24 22 -27 c11 -15 21 -34 21 -42 0 -8
-28 -41 -62 -74 -61 -58 -62 -61 -43 -74 11 -8 25 -19 32 -25 7 -5 16 -10 21
-10 5 0 19 -11 31 -24 18 -19 21 -31 16 -54 -3 -17 -13 -33 -21 -36 -24 -9
-16 -25 19 -34 44 -11 49 -45 10 -65 -72 -38 -97 -94 -76 -177 7 -30 26 -121
43 -201 60 -300 59 -255 59 -2296 0 -1707 -1 -1863 -16 -1878 -9 -9 -27 -21
-41 -26 -23 -9 -24 -11 -8 -28 9 -9 16 -26 16 -37 0 -26 -27 -64 -46 -64 -8 0
-14 -9 -14 -20 0 -19 7 -20 180 -20 176 0 180 0 180 21 0 12 -11 30 -25 41
-43 34 -50 56 -26 88 l20 28 -29 12 c-16 6 -36 20 -45 30 -15 17 -16 169 -12
1906 3 1330 8 1914 16 1974 21 164 43 286 72 409 16 68 29 137 29 153 0 35
-56 98 -88 98 -28 0 -41 41 -17 55 9 5 28 18 41 28 l24 19 -20 25 c-28 36 -25
67 8 89 41 27 82 71 82 88 0 8 -21 28 -47 43 -27 15 -51 32 -55 38 -14 19 -8
52 13 79 15 20 17 27 7 31 -57 20 -68 26 -68 39 0 8 20 26 46 41 27 16 51 40
62 61 18 38 21 12 -36 279 -25 115 -51 300 -61 435 -4 58 -7 425 -6 815 1 391
0 720 -3 733 -4 20 -10 22 -68 22 l-63 0 -4 -852z"/>
</g>
</svg>
