<?xml version="1.0" standalone="no"?>
<!DOCTYPE svg PUBLIC "-//W3C//DTD SVG 20010904//EN"
 "http://www.w3.org/TR/2001/REC-SVG-20010904/DTD/svg10.dtd">
<svg version="1.0" xmlns="http://www.w3.org/2000/svg"
 width="2551.000000pt" height="2701.000000pt" viewBox="0 0 2551.000000 2701.000000"
 preserveAspectRatio="xMidYMid meet">

<g transform="translate(0.000000,2701.000000) scale(0.100000,-0.100000)"
fill="#C5C3C1" stroke="none">
<path d="M24600 26723 c0 -401 -22 -594 -112 -999 -10 -46 -9 -55 8 -85 13
-21 33 -38 54 -45 57 -19 61 -40 16 -79 l-39 -33 20 -33 c19 -33 21 -69 3 -69
-16 0 -100 -87 -100 -103 0 -10 4 -17 9 -17 5 0 16 -6 23 -12 8 -7 27 -20 43
-28 38 -20 45 -62 16 -101 l-20 -27 37 -9 c55 -13 54 -41 -3 -75 -27 -16 -52
-41 -61 -62 -16 -33 -16 -40 19 -198 39 -179 63 -323 76 -468 5 -52 8 -710 7
-1461 -1 -1095 -4 -1369 -14 -1381 -7 -9 -26 -21 -42 -28 -34 -14 -37 -22 -15
-40 26 -22 11 -90 -20 -90 -7 0 -17 -4 -20 -10 -4 -7 58 -10 179 -10 152 0
186 3 186 14 0 7 -11 21 -25 30 -42 28 -50 54 -26 86 l20 28 -29 12 c-66 27
-61 -99 -57 1456 3 989 7 1436 15 1499 18 133 40 256 68 380 42 183 42 189 1
230 -19 19 -44 35 -55 35 -18 0 -32 18 -32 41 0 5 18 21 40 35 l40 26 -20 26
c-29 37 -25 67 13 94 65 46 100 108 62 108 -9 0 -18 7 -21 15 -4 8 -14 15 -24
15 -22 0 -50 31 -50 57 0 11 9 32 21 47 l20 26 -23 9 c-13 5 -31 12 -40 15
-30 9 -20 33 26 62 47 30 76 69 76 102 0 12 -11 67 -25 124 -56 232 -95 549
-95 775 0 62 -4 103 -10 103 -6 0 -10 53 -10 140 l0 140 -55 0 -55 0 0 -267z"/>
</g>
</svg>
