<?xml version="1.0" standalone="no"?>
<!DOCTYPE svg PUBLIC "-//W3C//DTD SVG 20010904//EN"
 "http://www.w3.org/TR/2001/REC-SVG-20010904/DTD/svg10.dtd">
<svg version="1.0" xmlns="http://www.w3.org/2000/svg"
 width="2551.000000pt" height="2701.000000pt" viewBox="0 0 2551.000000 2701.000000"
 preserveAspectRatio="xMidYMid meet">

<g transform="translate(0.000000,2701.000000) scale(0.100000,-0.100000)"
fill="#C5C3C1" stroke="none">
<path d="M11787 18367 l-49 -43 1 -1209 c1 -1204 -3 -1362 -35 -1580 -19 -133
-21 -143 -50 -270 -14 -60 -28 -131 -31 -157 -5 -44 -3 -50 30 -83 19 -19 44
-35 55 -35 19 0 32 -18 32 -46 0 -7 -16 -20 -35 -28 l-34 -15 22 -39 c19 -36
20 -43 8 -66 -8 -14 -19 -26 -25 -26 -12 0 -66 -57 -66 -69 0 -4 23 -28 50
-53 52 -47 60 -71 35 -104 -21 -28 -18 -41 13 -56 15 -7 28 -23 30 -35 3 -17
-6 -26 -42 -42 -33 -14 -51 -30 -63 -56 -16 -34 -16 -40 0 -113 45 -207 79
-411 90 -547 10 -115 13 -577 11 -1985 -1 -1042 -5 -1835 -10 -1837 -5 -2 -24
-12 -42 -23 l-33 -20 22 -29 c24 -33 19 -66 -11 -74 -17 -4 -20 -14 -20 -61
l0 -56 150 0 150 0 0 58 c0 35 -4 52 -9 43 -6 -10 -13 -5 -25 19 -20 41 -20
49 -1 70 13 14 11 19 -20 49 -19 18 -38 43 -41 56 -3 13 -4 860 -1 1882 4
1818 5 1861 26 2014 20 149 60 365 81 439 25 86 4 148 -60 174 -31 12 -40 21
-40 40 0 15 7 27 19 31 35 11 46 33 27 54 -23 25 -18 80 8 95 30 17 66 57 66
73 0 13 -30 46 -74 81 -21 16 -21 61 0 90 15 22 15 24 -2 37 -11 8 -25 15 -31
15 -8 0 -13 13 -13 29 0 24 5 31 30 36 16 4 41 21 56 38 23 28 26 37 21 87 -3
30 -17 105 -31 165 -14 61 -36 171 -48 245 -22 134 -22 141 -25 1508 -2 754
-7 1372 -11 1372 -4 -1 -29 -20 -55 -43z"/>
</g>
</svg>
