<?xml version="1.0" standalone="no"?>
<!DOCTYPE svg PUBLIC "-//W3C//DTD SVG 20010904//EN"
 "http://www.w3.org/TR/2001/REC-SVG-20010904/DTD/svg10.dtd">
<svg version="1.0" xmlns="http://www.w3.org/2000/svg"
 width="2644.000000pt" height="2800.000000pt" viewBox="0 0 2644.000000 2800.000000"
 preserveAspectRatio="xMidYMid meet">

<g transform="translate(0.000000,2800.000000) scale(0.100000,-0.100000)"
fill="#65340A" stroke="none">
<path d="M8400 16346 l0 -1014 -30 -7 c-40 -9 -45 -20 -21 -47 12 -12 21 -28
21 -35 0 -16 -36 -53 -52 -53 -20 -1 -58 -37 -58 -55 0 -9 9 -19 20 -22 11 -3
20 -8 20 -12 0 -3 13 -12 30 -19 40 -18 47 -47 21 -83 l-22 -29 26 -10 c15 -6
31 -10 36 -10 5 0 9 -430 9 -1114 l0 -1114 -35 -6 c-19 -4 -35 -9 -35 -12 0
-3 10 -18 21 -34 12 -16 19 -35 16 -44 -3 -8 -31 -31 -61 -50 -56 -36 -64 -57
-28 -70 30 -10 75 -41 86 -58 8 -13 5 -24 -12 -47 -12 -17 -22 -32 -22 -35 0
-3 16 -8 35 -12 l35 -6 0 -1084 0 -1084 -32 -20 c-18 -11 -37 -22 -43 -23 -5
-2 -2 -13 8 -25 23 -26 15 -59 -19 -74 -18 -9 -24 -19 -24 -45 0 -30 3 -33 30
-33 17 0 30 -4 30 -10 0 -6 40 -10 100 -10 60 0 100 4 100 10 0 6 13 10 29 10
48 0 61 9 61 44 0 23 -6 34 -22 41 -25 11 -37 60 -19 78 6 6 11 14 11 18 0 12
-70 31 -96 26 -29 -5 -33 13 -4 20 20 5 20 14 20 1084 0 1021 1 1079 18 1079
9 1 27 6 40 13 l23 13 -21 19 c-35 32 -26 60 35 100 30 21 55 40 55 44 0 9
-56 51 -68 51 -15 0 -42 36 -42 55 0 10 10 29 21 41 l22 23 -29 6 c-16 4 -35
8 -41 11 -10 3 -13 234 -13 1113 l0 1109 30 7 c38 8 46 21 26 41 -9 8 -16 26
-16 38 0 22 27 56 46 56 5 0 23 11 39 25 l30 24 -30 25 c-16 14 -35 25 -41 26
-17 0 -44 35 -44 57 0 11 7 26 15 33 22 18 13 34 -21 40 l-29 5 -3 1018 -2
1017 -65 0 -65 0 0 -1014z"/>
</g>
</svg>
