<?xml version="1.0" standalone="no"?>
<!DOCTYPE svg PUBLIC "-//W3C//DTD SVG 20010904//EN"
 "http://www.w3.org/TR/2001/REC-SVG-20010904/DTD/svg10.dtd">
<svg version="1.0" xmlns="http://www.w3.org/2000/svg"
 width="2644.000000pt" height="2800.000000pt" viewBox="0 0 2644.000000 2800.000000"
 preserveAspectRatio="xMidYMid meet">

<g transform="translate(0.000000,2800.000000) scale(0.100000,-0.100000)"
fill="#65340A" stroke="none">
<path d="M9420 17273 c0 -4 -1 -446 -3 -982 l-2 -975 -32 -8 c-18 -5 -33 -11
-33 -14 0 -3 9 -18 21 -33 18 -25 19 -31 7 -50 -7 -12 -23 -24 -35 -27 -13 -4
-23 -10 -23 -14 0 -5 -9 -12 -20 -15 -11 -3 -20 -12 -20 -19 0 -13 53 -56 69
-56 6 0 18 -11 27 -26 16 -24 16 -26 -5 -55 l-22 -29 26 -10 c15 -6 31 -10 36
-10 6 0 8 -410 7 -1077 l-3 -1078 -25 -3 c-39 -6 -45 -18 -22 -46 25 -33 18
-61 -19 -78 -16 -7 -29 -16 -29 -19 0 -4 -9 -9 -20 -12 -40 -10 -17 -45 55
-82 26 -14 31 -61 9 -86 -15 -16 -15 -19 -1 -25 8 -3 24 -7 34 -8 17 -3 18
-19 21 -232 1 -126 0 -239 -3 -252 -3 -14 -19 -29 -40 -38 l-34 -14 17 -31
c17 -30 17 -30 -15 -58 -25 -20 -33 -36 -33 -59 l0 -32 118 0 c64 0 141 3 170
6 49 6 52 8 52 36 0 19 -10 37 -32 57 -32 28 -32 29 -14 56 20 31 21 29 -23
47 l-33 13 0 250 0 250 31 8 c34 8 38 18 16 37 -30 25 -8 90 31 90 8 0 14 4
14 9 0 5 9 13 20 16 11 3 20 15 20 25 0 10 -9 22 -20 25 -11 3 -20 11 -20 17
0 5 -6 8 -14 5 -18 -7 -46 23 -46 49 0 11 7 29 15 40 21 28 19 32 -17 39 l-33
6 0 1070 0 1071 34 14 c32 14 33 15 17 33 -22 25 -17 72 9 86 72 37 93 68 55
80 -11 3 -20 11 -20 16 0 5 -6 9 -13 9 -19 0 -47 33 -47 55 0 10 8 27 17 37
15 17 15 20 3 28 -8 6 -23 10 -32 10 -10 0 -18 11 -22 28 -2 15 -5 457 -5 982
l1 955 -61 3 c-34 2 -61 -1 -61 -5z"/>
</g>
</svg>
