<?xml version="1.0" standalone="no"?>
<!DOCTYPE svg PUBLIC "-//W3C//DTD SVG 20010904//EN"
 "http://www.w3.org/TR/2001/REC-SVG-20010904/DTD/svg10.dtd">
<svg version="1.0" xmlns="http://www.w3.org/2000/svg"
 width="2644.000000pt" height="2800.000000pt" viewBox="0 0 2644.000000 2800.000000"
 preserveAspectRatio="xMidYMid meet">

<g transform="translate(0.000000,2800.000000) scale(0.100000,-0.100000)"
fill="#65340A" stroke="none">
<path d="M3000 12737 l0 -1303 -47 -12 -46 -13 26 -27 c15 -16 27 -37 27 -48
0 -19 -37 -64 -53 -64 -13 0 -82 -52 -81 -61 1 -5 2 -13 3 -19 0 -5 10 -10 21
-10 11 0 23 -7 26 -15 4 -8 12 -15 19 -15 23 0 65 -41 65 -64 0 -12 -11 -33
-25 -46 -30 -28 -26 -36 25 -45 l40 -7 -2 -1201 -3 -1201 -31 -6 c-53 -11 -58
-19 -29 -47 14 -14 25 -36 25 -49 0 -23 -42 -64 -66 -64 -7 0 -17 -6 -21 -12
-4 -7 -17 -18 -28 -24 -28 -16 -25 -47 5 -54 14 -4 24 -11 23 -17 -1 -6 12
-13 29 -17 64 -13 76 -53 33 -104 -28 -34 -26 -37 28 -47 l37 -7 2 -402 c2
-688 -3 -2250 -8 -2267 -2 -8 -25 -26 -50 -38 l-45 -23 20 -19 c12 -11 21 -28
21 -38 0 -21 -32 -57 -60 -66 -15 -5 -20 -15 -20 -45 0 -37 1 -38 43 -44 155
-21 215 -19 312 9 l95 28 0 39 c0 34 -4 39 -34 52 -19 8 -37 23 -41 35 -7 22
9 61 25 61 26 0 6 21 -30 31 -22 7 -44 17 -49 23 -11 12 -26 2599 -16 2644 5
22 14 30 50 41 40 12 62 31 35 31 -5 0 -17 11 -26 25 -24 37 -11 71 36 95 22
11 40 25 40 30 0 6 9 10 19 10 10 0 22 7 25 16 7 19 -10 44 -31 44 -7 0 -16 6
-19 13 -2 7 -14 13 -25 14 -29 3 -59 32 -59 59 0 12 11 32 25 45 13 13 25 27
25 31 0 4 -23 10 -50 14 l-50 7 2 1201 3 1201 48 8 c26 5 47 12 47 16 0 4 -11
18 -25 31 -47 44 -33 73 57 120 26 13 50 31 53 38 6 17 -12 42 -31 42 -8 0
-14 4 -14 9 0 5 -11 12 -25 15 -33 8 -65 41 -65 66 0 12 12 32 26 47 14 14 23
27 21 29 -2 3 -23 8 -46 12 l-41 7 0 1286 c0 708 -3 1294 -6 1303 -5 13 -22
16 -85 16 l-79 0 0 -1303z"/>
</g>
</svg>
