<?xml version="1.0" standalone="no"?>
<!DOCTYPE svg PUBLIC "-//W3C//DTD SVG 20010904//EN"
 "http://www.w3.org/TR/2001/REC-SVG-20010904/DTD/svg10.dtd">
<svg version="1.0" xmlns="http://www.w3.org/2000/svg"
 width="2644.000000pt" height="2800.000000pt" viewBox="0 0 2644.000000 2800.000000"
 preserveAspectRatio="xMidYMid meet">

<g transform="translate(0.000000,2800.000000) scale(0.100000,-0.100000)"
fill="#65340A" stroke="none">
<path d="M3720 13388 c0 -359 0 -822 0 -1029 l0 -377 -35 -6 c-44 -9 -51 -20
-25 -46 38 -38 19 -92 -36 -106 -13 -3 -24 -10 -24 -15 0 -5 -11 -14 -25 -19
-33 -13 -34 -47 -1 -56 14 -3 27 -12 30 -20 3 -8 14 -14 24 -14 47 0 69 -72
32 -105 -28 -25 -25 -33 15 -41 19 -3 37 -10 40 -14 4 -7 6 -483 5 -1776 l0
-582 -40 -16 c-22 -9 -40 -18 -40 -21 0 -3 9 -14 20 -25 11 -11 20 -31 20 -45
0 -28 -35 -65 -62 -65 -10 0 -18 -5 -18 -10 0 -6 -11 -16 -25 -22 -31 -14 -32
-45 -2 -58 76 -34 102 -56 105 -86 2 -20 -4 -36 -18 -49 -28 -25 -25 -33 15
-41 19 -3 37 -9 39 -13 3 -4 7 -709 11 -1566 5 -1273 4 -1563 -7 -1575 -7 -9
-28 -22 -46 -29 -42 -18 -48 -28 -27 -51 24 -27 15 -62 -22 -85 -27 -16 -32
-26 -33 -56 0 -43 5 -45 165 -54 87 -5 110 -3 180 18 l80 24 2 39 c3 34 -1 41
-30 59 -39 25 -46 56 -17 85 19 19 19 21 3 27 -67 23 -83 34 -89 58 -3 14 -4
562 0 1218 3 656 5 1350 6 1544 l0 351 35 12 c45 15 50 25 25 50 -38 38 -19
92 36 106 13 3 24 10 24 15 0 5 11 14 25 19 33 12 33 47 1 60 -13 5 -27 14
-31 19 -3 6 -14 11 -24 11 -23 0 -51 31 -51 57 0 11 9 32 20 46 11 14 20 28
20 31 0 3 -18 9 -40 12 l-40 7 0 1182 0 1183 28 5 c51 12 59 23 34 50 -12 13
-22 33 -22 45 0 27 33 62 60 62 11 0 20 6 20 13 0 7 10 17 22 22 33 14 35 43
4 55 -14 5 -26 14 -26 20 0 5 -8 10 -18 10 -56 0 -80 64 -40 107 25 27 17 38
-34 50 l-28 6 0 1023 0 1024 -85 0 -85 0 0 -652z"/>
</g>
</svg>
