<?xml version="1.0" standalone="no"?>
<!DOCTYPE svg PUBLIC "-//W3C//DTD SVG 20010904//EN"
 "http://www.w3.org/TR/2001/REC-SVG-20010904/DTD/svg10.dtd">
<svg version="1.0" xmlns="http://www.w3.org/2000/svg"
 width="2644.000000pt" height="2800.000000pt" viewBox="0 0 2644.000000 2800.000000"
 preserveAspectRatio="xMidYMid meet">

<g transform="translate(0.000000,2800.000000) scale(0.100000,-0.100000)"
fill="#65340A" stroke="none">
<path d="M4498 14633 l-77 -108 -1 -746 0 -747 -35 -6 c-44 -9 -51 -20 -25
-46 38 -38 19 -92 -36 -106 -13 -3 -24 -9 -24 -13 0 -4 -11 -13 -25 -19 -14
-6 -25 -19 -25 -27 0 -8 11 -21 25 -27 14 -6 25 -15 25 -19 0 -4 11 -10 24
-13 56 -14 72 -63 35 -102 -26 -28 -19 -41 26 -50 l35 -6 0 -1158 0 -1158 -35
-6 c-45 -9 -52 -22 -26 -50 37 -39 21 -88 -34 -102 -13 -3 -26 -12 -29 -20 -3
-8 -12 -14 -20 -14 -7 0 -17 -7 -20 -16 -7 -19 10 -44 30 -44 8 0 14 -4 14 -9
0 -5 10 -13 23 -17 57 -17 73 -61 36 -100 -26 -28 -19 -41 26 -50 l35 -6 -2
-1092 -3 -1091 -47 -25 -48 -26 22 -22 c18 -18 20 -26 12 -49 -5 -15 -22 -34
-37 -41 -22 -11 -27 -20 -27 -51 l0 -39 133 -6 c109 -5 145 -3 207 11 l75 18
3 40 c3 37 0 41 -27 52 -41 15 -51 56 -22 87 l22 23 -46 17 c-30 12 -47 25
-50 39 -3 12 -4 503 -3 1091 l3 1069 32 11 c45 16 48 22 24 52 -11 15 -21 35
-21 45 0 19 44 59 66 59 8 0 14 5 14 10 0 6 12 15 26 20 31 12 29 41 -4 55
-12 5 -22 13 -22 17 0 5 -6 8 -14 8 -22 0 -66 40 -66 60 0 10 12 32 26 49 l26
31 -46 12 -46 12 2 1155 c3 1017 5 1154 18 1157 8 1 27 7 42 13 l28 10 -25 25
c-14 14 -25 34 -25 46 0 26 34 60 60 60 11 0 20 6 20 13 0 7 10 17 23 22 12 6
22 19 22 30 0 13 -8 21 -22 23 -13 2 -23 10 -23 18 0 8 -8 14 -18 14 -28 0
-62 29 -62 54 0 13 9 35 20 49 11 14 20 28 20 31 0 3 -18 9 -40 12 l-40 7 -2
854 -3 855 -77 -109z"/>
</g>
</svg>
