<?xml version="1.0" standalone="no"?>
<!DOCTYPE svg PUBLIC "-//W3C//DTD SVG 20010904//EN"
 "http://www.w3.org/TR/2001/REC-SVG-20010904/DTD/svg10.dtd">
<svg version="1.0" xmlns="http://www.w3.org/2000/svg"
 width="2644.000000pt" height="2800.000000pt" viewBox="0 0 2644.000000 2800.000000"
 preserveAspectRatio="xMidYMid meet">

<g transform="translate(0.000000,2800.000000) scale(0.100000,-0.100000)"
fill="#65340A" stroke="none">
<path d="M5163 15527 l-73 -100 0 -743 0 -742 -40 -7 c-45 -8 -49 -14 -20 -40
33 -30 23 -76 -19 -97 -19 -9 -37 -21 -40 -26 -3 -5 -14 -11 -23 -15 -24 -9
-23 -44 2 -52 11 -3 20 -10 20 -15 0 -4 11 -11 24 -14 55 -14 74 -68 36 -106
-11 -11 -20 -22 -20 -25 0 -2 18 -10 40 -16 l40 -12 0 -1132 0 -1132 -27 -6
c-50 -11 -58 -22 -34 -46 29 -29 27 -65 -5 -90 -15 -12 -31 -21 -36 -21 -5 0
-16 -6 -23 -12 -8 -7 -22 -19 -31 -27 -16 -14 -15 -17 14 -39 18 -14 47 -32
64 -41 41 -20 47 -53 18 -92 l-21 -29 26 -10 c15 -6 33 -10 41 -10 12 0 14
-204 14 -1502 0 -827 -4 -1508 -8 -1514 -4 -6 -23 -19 -42 -29 -46 -23 -46
-22 -26 -44 25 -28 16 -62 -21 -86 -28 -17 -33 -25 -30 -55 l2 -35 124 -8
c104 -7 135 -6 200 9 42 10 79 22 83 28 16 24 4 68 -22 78 -43 16 -53 57 -24
89 16 18 14 20 -30 38 l-46 20 0 283 c0 156 -1 832 -2 1503 -1 1037 1 1220 13
1227 8 4 27 13 42 18 l29 10 -26 31 c-14 17 -26 35 -26 40 0 15 47 59 64 59 8
0 19 6 23 13 4 6 17 17 28 23 33 19 23 37 -38 69 -72 37 -83 54 -62 95 8 16
20 30 25 30 6 0 10 4 10 9 0 6 -19 14 -42 18 l-41 8 -2 1128 c0 620 1 1131 4
1136 4 4 23 11 44 15 38 7 47 19 23 33 -7 4 -19 18 -25 31 -16 29 7 69 44 78
14 3 25 10 25 14 0 4 9 10 20 13 52 13 29 58 -47 91 -56 25 -63 68 -19 106 25
20 19 28 -26 37 l-43 9 2 784 c1 432 -1 810 -5 842 l-7 56 -72 -101z"/>
</g>
</svg>
