<?xml version="1.0" standalone="no"?>
<!DOCTYPE svg PUBLIC "-//W3C//DTD SVG 20010904//EN"
 "http://www.w3.org/TR/2001/REC-SVG-20010904/DTD/svg10.dtd">
<svg version="1.0" xmlns="http://www.w3.org/2000/svg"
 width="2644.000000pt" height="2800.000000pt" viewBox="0 0 2644.000000 2800.000000"
 preserveAspectRatio="xMidYMid meet">

<g transform="translate(0.000000,2800.000000) scale(0.100000,-0.100000)"
fill="#65340A" stroke="none">
<path d="M20449 27171 l-44 -39 0 -593 c0 -327 -1 -810 -3 -1075 l-2 -481 -40
-13 c-44 -15 -48 -21 -24 -41 44 -37 33 -101 -21 -115 -14 -3 -25 -10 -25 -14
0 -4 -9 -10 -20 -13 -11 -3 -23 -13 -26 -22 -6 -16 15 -40 100 -112 32 -27 32
-31 1 -77 l-24 -36 39 -22 40 -23 0 -1242 c0 -1177 -1 -1243 -17 -1243 -28 -1
-68 -26 -54 -34 6 -4 18 -20 26 -36 20 -39 5 -77 -35 -91 -16 -6 -30 -14 -30
-19 0 -4 -9 -10 -20 -13 -38 -10 -36 -37 5 -71 60 -49 95 -84 95 -94 0 -5 -11
-26 -25 -46 l-25 -37 40 -17 40 -17 -3 -1110 -2 -1110 -40 -20 c-22 -11 -42
-21 -44 -22 -2 -2 3 -11 12 -21 18 -19 22 -59 9 -78 -4 -6 -17 -16 -29 -23
-13 -6 -23 -19 -23 -29 0 -17 69 -17 368 -3 23 1 23 2 -7 27 -36 30 -39 59
-10 90 l20 21 -40 16 c-22 9 -45 25 -50 36 -8 13 -11 370 -11 1120 l0 1100 40
11 c22 6 40 13 40 16 0 3 -9 17 -20 31 -11 14 -20 36 -20 49 0 22 34 64 53 64
19 0 67 42 67 59 0 10 -11 23 -25 29 -14 6 -25 16 -25 21 0 5 -16 18 -35 30
-41 24 -47 64 -14 99 24 27 20 34 -26 56 l-35 17 0 1238 0 1238 40 12 c22 6
40 14 40 17 0 3 -9 17 -20 31 -28 36 -26 77 5 97 13 9 31 16 40 16 8 0 15 4
15 9 0 5 9 13 20 16 11 3 20 14 20 24 0 18 -61 82 -97 100 -29 15 -31 63 -3
91 11 11 20 22 20 24 0 2 -17 15 -39 29 l-38 26 -5 1095 c-4 1050 -5 1096 -23
1115 -10 12 -21 21 -25 21 -4 0 -27 -17 -51 -39z"/>
</g>
</svg>
