<?xml version="1.0" standalone="no"?>
<!DOCTYPE svg PUBLIC "-//W3C//DTD SVG 20010904//EN"
 "http://www.w3.org/TR/2001/REC-SVG-20010904/DTD/svg10.dtd">
<svg version="1.0" xmlns="http://www.w3.org/2000/svg"
 width="2644.000000pt" height="2800.000000pt" viewBox="0 0 2644.000000 2800.000000"
 preserveAspectRatio="xMidYMid meet">

<g transform="translate(0.000000,2800.000000) scale(0.100000,-0.100000)"
fill="#65340A" stroke="none">
<path d="M21600 27582 c0 -230 -3 -669 -7 -975 l-6 -556 -29 -6 c-39 -9 -41
-18 -17 -60 18 -30 20 -40 10 -61 -6 -13 -23 -30 -38 -36 -16 -7 -30 -15 -33
-19 -3 -3 -13 -8 -23 -12 -40 -15 -32 -39 36 -101 37 -34 67 -66 67 -73 0 -6
-11 -25 -25 -42 l-26 -30 41 -27 40 -27 0 -1253 c0 -1083 -2 -1254 -14 -1254
-8 0 -27 -5 -42 -10 l-27 -11 21 -22 c32 -35 37 -72 13 -96 -12 -12 -30 -21
-41 -21 -11 0 -20 -6 -20 -13 0 -7 -10 -17 -22 -22 -12 -6 -23 -15 -25 -22 -5
-14 42 -63 85 -89 45 -26 51 -56 18 -99 l-27 -34 41 -21 40 -20 -2 -1608 -3
-1607 -40 -20 c-22 -11 -42 -21 -43 -22 -2 -1 6 -14 18 -30 18 -25 19 -33 9
-55 -6 -14 -22 -31 -35 -37 -13 -6 -24 -19 -24 -30 0 -19 7 -19 188 -14 103 2
193 7 201 9 10 3 5 11 -17 24 -42 26 -51 64 -23 94 l21 22 -45 22 c-28 13 -47
30 -50 44 -3 13 -4 738 -3 1612 l3 1589 32 11 c45 16 48 22 24 52 -11 15 -21
37 -21 50 0 23 42 64 66 64 8 0 14 4 14 9 0 5 9 13 20 16 11 3 20 14 20 23 0
18 -48 68 -92 97 -33 21 -36 52 -8 88 11 14 20 28 20 31 0 3 -18 17 -40 31
l-40 25 2 1247 3 1247 38 9 c42 10 45 19 17 50 -32 34 -23 78 19 99 19 9 37
21 40 26 3 5 14 11 24 15 31 12 18 43 -43 98 -33 29 -60 61 -60 70 0 9 10 29
22 44 l21 27 -41 35 -42 35 0 969 0 969 -70 0 -70 0 0 -418z"/>
</g>
</svg>
