<?xml version="1.0" standalone="no"?>
<!DOCTYPE svg PUBLIC "-//W3C//DTD SVG 20010904//EN"
 "http://www.w3.org/TR/2001/REC-SVG-20010904/DTD/svg10.dtd">
<svg version="1.0" xmlns="http://www.w3.org/2000/svg"
 width="2644.000000pt" height="2800.000000pt" viewBox="0 0 2644.000000 2800.000000"
 preserveAspectRatio="xMidYMid meet">

<g transform="translate(0.000000,2800.000000) scale(0.100000,-0.100000)"
fill="#65340A" stroke="none">
<path d="M25300 27255 c0 -641 -2 -745 -14 -745 -8 0 -26 -4 -40 -10 l-26 -9
25 -37 c14 -20 25 -43 25 -51 0 -19 -45 -63 -65 -63 -8 0 -15 -4 -15 -8 0 -5
-11 -14 -25 -20 -14 -6 -25 -18 -25 -26 0 -8 29 -44 64 -81 67 -70 70 -81 34
-121 -19 -21 -18 -21 22 -57 l40 -37 0 -1132 c0 -623 -4 -1138 -8 -1144 -4 -6
-23 -19 -42 -29 -46 -23 -45 -22 -28 -42 26 -31 28 -51 7 -77 -20 -26 -8 -49
14 -27 6 6 34 11 62 11 29 0 86 3 128 6 72 6 77 9 77 30 0 13 9 30 21 38 21
14 20 15 -30 51 l-51 37 0 1144 c0 1081 1 1145 18 1150 9 3 27 10 40 15 l23 9
-20 26 c-21 27 -27 69 -13 90 4 6 31 24 59 40 29 16 53 35 53 43 0 8 -27 45
-60 82 -33 37 -60 73 -60 80 0 7 10 23 22 37 l23 24 -43 39 -42 40 0 734 0
735 -75 0 -75 0 0 -745z"/>
</g>
</svg>
