<?xml version="1.0" standalone="no"?>
<!DOCTYPE svg PUBLIC "-//W3C//DTD SVG 20010904//EN"
 "http://www.w3.org/TR/2001/REC-SVG-20010904/DTD/svg10.dtd">
<svg version="1.0" xmlns="http://www.w3.org/2000/svg"
 width="2644.000000pt" height="2800.000000pt" viewBox="0 0 2644.000000 2800.000000"
 preserveAspectRatio="xMidYMid meet">

<g transform="translate(0.000000,2800.000000) scale(0.100000,-0.100000)"
fill="#65340A" stroke="none">
<path d="M15478 15558 l-78 -159 0 -760 c0 -715 -1 -760 -17 -765 -10 -3 -28
-10 -40 -15 l-23 -8 25 -36 c14 -21 21 -43 18 -53 -10 -28 -35 -52 -55 -52
-10 0 -21 -7 -24 -15 -3 -8 -14 -17 -25 -20 -26 -9 -26 -55 1 -62 11 -3 20 -9
20 -14 0 -5 15 -15 34 -23 47 -20 61 -48 42 -85 -9 -16 -21 -32 -28 -34 -19
-8 20 -37 49 -37 l23 0 0 -1235 0 -1235 -40 -16 c-44 -18 -48 -25 -24 -44 49
-41 39 -73 -41 -126 -32 -21 -55 -43 -55 -54 0 -17 66 -70 87 -70 14 0 43 -39
43 -56 0 -7 -11 -26 -25 -42 -14 -17 -25 -32 -25 -34 0 -3 18 -11 40 -18 l40
-13 0 -1628 c0 -895 -3 -1635 -6 -1644 -4 -9 -24 -25 -45 -36 -43 -21 -47 -30
-24 -49 30 -25 16 -74 -27 -96 -26 -14 -29 -19 -26 -57 l3 -42 85 -6 c47 -4
113 -10 147 -14 37 -4 68 -4 75 2 7 5 34 17 61 27 46 17 47 18 47 62 0 30 -4
44 -13 44 -19 0 -57 43 -57 65 0 10 9 29 21 41 l21 22 -39 12 c-21 7 -44 19
-50 28 -10 13 -13 357 -13 1647 l0 1632 40 13 c46 15 48 20 20 45 -33 30 -24
86 16 106 18 8 39 22 48 30 8 8 22 20 30 27 19 15 11 39 -15 47 -10 4 -19 11
-19 16 0 5 -6 9 -14 9 -7 0 -25 9 -40 21 -32 25 -34 64 -5 95 26 28 19 41 -26
50 l-35 6 0 1233 0 1233 28 5 c37 9 61 27 44 34 -7 2 -19 18 -27 33 -19 37 -6
76 30 90 42 16 85 53 85 72 0 11 -11 23 -25 28 -14 5 -25 14 -25 19 0 5 -11
12 -25 15 -54 14 -65 78 -21 115 25 21 19 30 -24 37 l-40 7 -2 921 -3 922 -77
-158z"/>
</g>
</svg>
