<?xml version="1.0" standalone="no"?>
<!DOCTYPE svg PUBLIC "-//W3C//DTD SVG 20010904//EN"
 "http://www.w3.org/TR/2001/REC-SVG-20010904/DTD/svg10.dtd">
<svg version="1.0" xmlns="http://www.w3.org/2000/svg"
 width="2644.000000pt" height="2800.000000pt" viewBox="0 0 2644.000000 2800.000000"
 preserveAspectRatio="xMidYMid meet">

<g transform="translate(0.000000,2800.000000) scale(0.100000,-0.100000)"
fill="#65340A" stroke="none">
<path d="M18125 24949 l-45 -42 0 -1057 0 -1057 -40 -7 c-39 -6 -51 -18 -30
-31 6 -3 17 -20 26 -36 14 -28 14 -33 0 -55 -9 -13 -27 -26 -41 -30 -14 -3
-25 -9 -25 -13 0 -4 -11 -13 -25 -19 -34 -16 -31 -33 11 -68 20 -16 51 -41 68
-56 l31 -26 -18 -36 c-9 -20 -21 -36 -27 -36 -22 0 -8 -18 30 -36 l40 -19 0
-1221 0 -1221 -27 -6 c-54 -12 -59 -22 -30 -57 15 -17 27 -38 27 -46 0 -16
-35 -54 -51 -54 -16 0 -79 -51 -79 -64 0 -13 57 -66 71 -66 15 0 59 -48 59
-64 0 -8 -12 -28 -26 -45 l-26 -32 41 -17 41 -17 -3 -1090 -2 -1090 -43 -23
c-40 -22 -41 -25 -27 -45 8 -12 15 -31 15 -43 0 -21 -28 -54 -47 -54 -11 0
-24 -59 -14 -64 3 -2 95 -1 204 2 183 4 197 6 197 23 0 10 -13 25 -30 34 -38
19 -48 56 -25 91 9 14 15 27 13 29 -2 1 -20 10 -41 20 -21 10 -39 27 -42 39
-3 11 -4 504 -3 1095 l3 1075 35 9 c46 12 46 12 21 43 -11 15 -21 37 -21 49 0
20 37 65 54 65 13 0 66 44 66 55 0 12 -67 75 -80 75 -17 0 -40 32 -40 54 0 13
10 35 21 50 12 15 20 28 18 30 -2 1 -21 10 -41 20 l-38 17 0 1218 0 1218 40
12 c45 13 48 20 20 46 -29 26 -26 69 6 94 15 12 33 21 40 21 8 0 14 4 14 9 0
5 9 13 20 16 11 3 20 13 20 22 0 16 -65 83 -80 83 -17 0 -40 32 -40 54 0 13 9
35 20 49 l21 26 -41 23 -40 23 0 1082 0 1082 -22 15 c-31 22 -33 21 -83 -25z"/>
</g>
</svg>
