<?xml version="1.0" standalone="no"?>
<!DOCTYPE svg PUBLIC "-//W3C//DTD SVG 20010904//EN"
 "http://www.w3.org/TR/2001/REC-SVG-20010904/DTD/svg10.dtd">
<svg version="1.0" xmlns="http://www.w3.org/2000/svg"
 width="2644.000000pt" height="2800.000000pt" viewBox="0 0 2644.000000 2800.000000"
 preserveAspectRatio="xMidYMid meet">

<g transform="translate(0.000000,2800.000000) scale(0.100000,-0.100000)"
fill="#65340A" stroke="none">
<path d="M19276 26049 l-46 -41 -2 -1091 -3 -1091 -35 -9 c-46 -12 -47 -13
-23 -40 35 -38 37 -64 9 -92 -14 -14 -32 -25 -41 -25 -8 0 -15 -4 -15 -8 0 -5
-11 -14 -25 -20 -35 -16 -31 -32 16 -72 86 -73 91 -79 83 -103 -3 -12 -15 -32
-26 -44 l-20 -22 41 -20 41 -21 0 -1235 c0 -1066 -2 -1235 -14 -1235 -8 0 -27
-5 -42 -10 l-27 -11 20 -22 c35 -38 37 -64 9 -92 -14 -14 -32 -25 -41 -25 -8
0 -15 -5 -15 -10 0 -6 -11 -15 -25 -20 -32 -12 -33 -45 -2 -61 12 -7 26 -18
30 -25 4 -8 14 -14 22 -14 13 0 55 -45 55 -60 0 -4 -11 -24 -25 -44 l-25 -37
40 -17 40 -17 0 -1572 c0 -1553 0 -1573 -20 -1593 -11 -11 -31 -22 -45 -26
-29 -7 -31 -16 -10 -34 31 -26 6 -100 -33 -100 -7 0 -12 -14 -12 -32 l0 -33
187 3 c104 1 194 5 201 7 22 8 13 34 -18 50 -38 20 -48 56 -25 92 12 18 14 28
7 31 -6 2 -26 13 -44 26 l-33 22 0 1579 0 1579 35 9 c46 12 46 12 21 43 -11
15 -21 37 -21 50 0 22 34 64 52 64 19 0 68 45 68 62 0 10 -4 18 -9 18 -5 0
-20 9 -33 20 -12 11 -35 29 -50 41 -34 25 -37 68 -8 94 28 25 26 29 -20 50
l-40 18 0 1234 c0 1064 2 1233 14 1233 8 0 26 4 41 10 l26 10 -21 28 c-31 42
-24 83 19 104 19 9 37 21 40 26 3 5 14 11 24 15 9 3 17 14 17 23 0 19 -51 69
-92 90 -34 18 -38 59 -8 97 l21 26 -41 23 -40 23 0 1122 c0 1099 0 1123 -19
1133 -29 15 -34 13 -85 -31z"/>
</g>
</svg>
