<?xml version="1.0" standalone="no"?>
<!DOCTYPE svg PUBLIC "-//W3C//DTD SVG 20010904//EN"
 "http://www.w3.org/TR/2001/REC-SVG-20010904/DTD/svg10.dtd">
<svg version="1.0" xmlns="http://www.w3.org/2000/svg"
 width="2550.000000pt" height="2700.000000pt" viewBox="0 0 2550.000000 2700.000000"
 preserveAspectRatio="xMidYMid meet">

<g transform="translate(0.000000,2700.000000) scale(0.100000,-0.100000)"
fill="#65340A" stroke="none">
<path d="M8747 16304 c-4 -4 -7 -337 -7 -740 l0 -733 -22 -3 c-47 -7 -45 -118
2 -118 16 0 20 -7 20 -37 0 -21 -10 -63 -22 -93 -19 -46 -22 -74 -22 -175 0
-101 3 -129 22 -175 29 -73 29 -118 0 -122 -46 -6 -44 -118 2 -118 20 0 20 -4
20 -700 0 -611 -2 -700 -15 -700 -8 0 -22 -11 -31 -25 -22 -34 -8 -89 24 -93
18 -3 22 -10 22 -40 0 -20 -10 -62 -22 -92 -32 -81 -33 -269 0 -355 29 -77 30
-125 2 -125 -24 0 -44 -43 -35 -77 3 -13 17 -28 30 -33 l25 -10 -2 -862 -3
-863 -38 -19 c-35 -17 -37 -20 -23 -35 24 -26 19 -48 -14 -73 -23 -16 -30 -29
-28 -48 3 -24 6 -25 98 -33 58 -5 114 -4 145 2 28 6 59 12 70 13 32 5 32 54 1
79 -30 23 -33 50 -10 73 14 15 13 17 -11 26 -14 5 -30 10 -35 10 -4 0 -11 7
-14 16 -3 9 -6 399 -6 867 l0 852 22 10 c46 21 44 115 -3 115 -19 0 -20 4 -16
43 3 23 15 76 27 117 27 95 24 226 -9 310 -28 74 -28 122 1 135 45 21 44 115
-2 115 -20 0 -20 4 -20 700 0 696 0 700 20 700 46 0 48 112 2 118 -29 4 -29
49 0 122 19 46 22 74 22 175 0 101 -3 129 -22 175 -12 30 -22 72 -22 92 0 30
4 37 22 40 45 6 42 118 -3 118 -18 0 -19 22 -19 735 l0 735 -37 0 c-21 0 -47
3 -58 6 -11 3 -24 2 -28 -2z m73 -1896 c0 -81 -6 -111 -21 -102 -10 6 -12 187
-2 197 14 15 23 -21 23 -95z m0 -2233 c0 -87 -6 -119 -21 -109 -10 6 -12 163
-3 188 13 35 24 0 24 -79z"/>
</g>
</svg>
