<?xml version="1.0" standalone="no"?>
<!DOCTYPE svg PUBLIC "-//W3C//DTD SVG 20010904//EN"
 "http://www.w3.org/TR/2001/REC-SVG-20010904/DTD/svg10.dtd">
<svg version="1.0" xmlns="http://www.w3.org/2000/svg"
 width="2550.000000pt" height="2700.000000pt" viewBox="0 0 2550.000000 2700.000000"
 preserveAspectRatio="xMidYMid meet">

<g transform="translate(0.000000,2700.000000) scale(0.100000,-0.100000)"
fill="#65340A" stroke="none">
<path d="M10280 15507 l0 -697 -24 -10 c-44 -16 -43 -94 1 -111 22 -8 24 -14
20 -47 -2 -20 -13 -57 -23 -82 -28 -70 -26 -266 4 -340 29 -72 28 -98 -2 -110
-44 -16 -42 -101 3 -113 21 -5 21 -5 21 -661 l0 -656 -24 -10 c-45 -17 -45
-93 1 -111 22 -8 24 -14 20 -47 -2 -20 -13 -57 -22 -82 -11 -27 -20 -85 -22
-145 -5 -89 -2 -109 21 -178 32 -96 33 -115 2 -127 -45 -17 -45 -93 0 -110
l24 -10 0 -809 0 -810 -26 -20 c-14 -11 -30 -22 -37 -24 -9 -3 -9 -8 1 -18 19
-20 14 -46 -13 -67 -15 -12 -25 -30 -25 -45 0 -24 3 -25 85 -32 84 -7 169 -1
212 16 27 10 20 45 -14 72 -27 21 -29 39 -8 60 13 14 11 17 -23 34 l-37 18 -1
817 -1 816 23 11 c44 20 43 94 -2 111 -27 11 -27 36 1 110 11 27 19 86 22 150
5 94 3 113 -21 183 -32 96 -33 115 -2 127 42 16 43 110 2 110 -8 0 -16 6 -19
13 -2 7 -5 304 -6 660 l-2 647 24 9 c44 17 47 107 4 113 -29 4 -30 39 -4 103
31 76 31 276 0 360 -30 77 -29 103 1 115 45 17 45 93 -1 111 l-24 9 1 302 c1
167 1 479 0 695 l0 391 -55 4 -55 3 0 -698z m69 -1109 c1 -66 -7 -97 -20 -76
-10 16 -12 93 -2 139 5 28 7 30 14 14 4 -11 8 -46 8 -77z m1 -2128 c0 -36 -4
-71 -9 -79 -15 -23 -24 50 -16 116 9 74 25 51 25 -37z"/>
</g>
</svg>
