<?xml version="1.0" standalone="no"?>
<!DOCTYPE svg PUBLIC "-//W3C//DTD SVG 20010904//EN"
 "http://www.w3.org/TR/2001/REC-SVG-20010904/DTD/svg10.dtd">
<svg version="1.0" xmlns="http://www.w3.org/2000/svg"
 width="2550.000000pt" height="2700.000000pt" viewBox="0 0 2550.000000 2700.000000"
 preserveAspectRatio="xMidYMid meet">

<g transform="translate(0.000000,2700.000000) scale(0.100000,-0.100000)"
fill="#65340A" stroke="none">
<path d="M1888 12503 l-3 -1078 -25 -3 c-39 -6 -60 -31 -60 -72 0 -46 17 -68
55 -72 28 -3 30 -6 33 -47 2 -29 -2 -49 -12 -60 -29 -32 -67 -143 -73 -211 -8
-93 12 -192 53 -271 46 -87 44 -122 -6 -129 -29 -4 -37 -11 -46 -40 -15 -47
-1 -88 34 -96 15 -3 32 -7 37 -9 7 -2 10 -280 10 -826 l0 -823 -28 -7 c-45
-12 -57 -28 -57 -74 0 -48 25 -78 61 -73 39 5 34 -53 -14 -149 -35 -72 -41
-94 -45 -165 -5 -104 9 -182 49 -268 38 -84 37 -123 -6 -130 -22 -4 -32 -13
-43 -42 -19 -48 -1 -89 45 -102 17 -6 34 -18 36 -27 8 -29 9 -2133 1 -2153 -4
-10 -30 -29 -58 -42 -28 -13 -45 -24 -39 -24 7 0 20 -11 29 -25 15 -23 15 -27
0 -50 -9 -14 -27 -27 -41 -31 -21 -5 -25 -12 -25 -44 0 -37 2 -38 38 -44 129
-18 192 -17 291 5 l101 22 0 44 c0 35 -3 43 -18 43 -23 0 -52 30 -52 53 0 9 9
25 21 36 l21 19 -39 12 c-21 7 -44 17 -50 23 -10 7 -13 238 -13 1093 l0 1084
28 6 c44 11 62 33 62 76 0 49 -29 81 -65 72 -24 -6 -25 -4 -25 36 0 25 8 53
19 68 48 68 77 198 67 294 -8 63 -44 173 -71 211 -8 12 -15 38 -15 58 0 34 3
37 35 43 19 4 39 15 45 26 26 49 -3 121 -51 125 l-24 2 -2 826 -2 827 25 0
c52 0 78 58 52 115 -9 19 -19 25 -45 25 -31 0 -33 2 -33 36 0 21 15 66 35 108
67 137 67 286 -1 424 -45 93 -45 145 1 150 38 4 55 26 55 72 0 43 -24 70 -63
70 l-27 0 0 1080 0 1080 -80 0 -80 0 -2 -1077z m109 -1456 c24 -70 24 -204 0
-274 -10 -29 -23 -53 -27 -53 -18 0 -50 132 -50 205 0 62 7 94 35 173 8 22 23
4 42 -51z m-3 -2664 c29 -85 31 -172 7 -252 -12 -40 -26 -69 -31 -66 -5 3 -19
38 -31 76 -17 55 -20 88 -17 147 5 79 30 158 47 148 5 -3 16 -27 25 -53z"/>
</g>
</svg>
