<?xml version="1.0" standalone="no"?>
<!DOCTYPE svg PUBLIC "-//W3C//DTD SVG 20010904//EN"
 "http://www.w3.org/TR/2001/REC-SVG-20010904/DTD/svg10.dtd">
<svg version="1.0" xmlns="http://www.w3.org/2000/svg"
 width="2550.000000pt" height="2700.000000pt" viewBox="0 0 2550.000000 2700.000000"
 preserveAspectRatio="xMidYMid meet">

<g transform="translate(0.000000,2700.000000) scale(0.100000,-0.100000)"
fill="#65340A" stroke="none">
<path d="M6424 16461 c-2 -2 -4 -359 -4 -793 0 -752 -1 -788 -18 -788 -29 0
-42 -21 -42 -65 0 -44 13 -65 42 -65 15 0 18 -8 18 -48 0 -26 -4 -52 -9 -58
-27 -29 -45 -123 -45 -229 0 -94 4 -120 27 -181 33 -87 36 -134 8 -134 -27 0
-43 -24 -43 -65 0 -41 16 -65 43 -65 18 0 19 -23 19 -755 0 -720 -1 -755 -18
-755 -29 0 -42 -21 -42 -68 0 -40 3 -45 31 -55 29 -11 30 -14 26 -57 -3 -25
-15 -72 -28 -105 -19 -50 -23 -79 -23 -175 0 -102 3 -122 27 -181 15 -36 27
-82 27 -102 0 -32 -3 -37 -24 -37 -26 0 -36 -16 -36 -60 0 -44 10 -60 36 -60
l24 0 -2 -932 -3 -933 -33 -17 c-45 -22 -47 -25 -28 -43 9 -9 16 -23 16 -30 0
-15 -38 -55 -52 -55 -4 0 -8 -16 -8 -35 0 -27 4 -35 18 -35 9 0 55 -4 101 -10
53 -6 98 -6 125 0 22 5 59 13 80 18 32 6 41 13 47 35 6 22 4 30 -9 34 -49 17
-68 67 -36 94 13 11 10 15 -28 33 l-43 21 -3 928 c-2 913 -2 927 17 927 11 0
27 10 35 22 30 43 14 102 -29 110 -27 5 -25 55 6 133 20 52 23 77 24 190 0
121 -2 134 -27 189 -16 32 -28 76 -28 97 0 34 3 38 28 41 57 6 50 128 -8 128
-20 0 -20 10 -20 750 0 740 0 750 20 750 32 0 55 45 44 88 -7 31 -14 38 -37
40 -27 3 -29 6 -24 40 2 20 15 64 27 97 18 45 25 87 28 165 4 96 2 112 -23
180 -35 95 -39 163 -10 168 43 8 59 67 29 110 -8 12 -24 22 -35 22 -19 0 -19
14 -19 789 l0 789 -66 4 c-36 1 -68 1 -70 -1z m82 -1943 c15 -70 4 -228 -15
-228 -5 0 -11 17 -15 38 -12 77 -3 222 15 222 4 0 11 -15 15 -32z m7 -2487 c2
-131 -24 -203 -39 -105 -8 53 -1 185 11 204 15 24 27 -19 28 -99z"/>
</g>
</svg>
