<?xml version="1.0" standalone="no"?>
<!DOCTYPE svg PUBLIC "-//W3C//DTD SVG 20010904//EN"
 "http://www.w3.org/TR/2001/REC-SVG-20010904/DTD/svg10.dtd">
<svg version="1.0" xmlns="http://www.w3.org/2000/svg"
 width="2550.000000pt" height="2700.000000pt" viewBox="0 0 2550.000000 2700.000000"
 preserveAspectRatio="xMidYMid meet">

<g transform="translate(0.000000,2700.000000) scale(0.100000,-0.100000)"
fill="#65340A" stroke="none">
<path d="M7040 15648 c0 -733 -1 -779 -17 -784 -38 -12 -48 -22 -51 -52 -4
-40 12 -70 40 -74 20 -3 23 -9 22 -43 -1 -22 -13 -71 -28 -110 -42 -114 -34
-293 18 -393 24 -46 18 -85 -14 -92 -31 -7 -48 -49 -34 -87 5 -16 19 -29 34
-33 l25 -6 2 -735 2 -735 -29 -11 c-52 -20 -52 -111 0 -123 32 -7 38 -55 14
-102 -30 -58 -44 -130 -44 -228 0 -77 5 -108 26 -165 14 -38 27 -86 28 -104 1
-29 -3 -36 -24 -41 -48 -11 -52 -110 -5 -119 11 -2 23 -8 27 -15 4 -6 8 -413
8 -904 0 -874 -1 -893 -20 -912 -11 -11 -31 -22 -45 -26 -29 -7 -31 -16 -10
-34 8 -7 15 -20 15 -30 0 -19 -30 -50 -48 -50 -7 0 -12 -15 -12 -34 l0 -34 93
-8 c124 -11 119 -11 147 -3 14 4 46 10 73 14 46 6 47 7 47 41 0 23 -5 34 -15
34 -8 0 -22 11 -31 25 -15 23 -15 27 0 50 21 31 20 32 -8 39 -60 15 -56 -46
-56 942 0 878 1 904 19 904 25 0 42 22 43 57 1 49 -11 73 -38 73 -33 0 -32 32
3 124 23 62 27 85 27 191 0 109 -3 126 -28 187 -31 74 -33 133 -4 133 26 0 40
19 41 58 1 40 -17 67 -44 67 -19 0 -19 21 -17 738 l3 737 22 3 c28 4 43 46 31
90 -7 25 -14 32 -33 32 -21 0 -25 5 -25 32 0 17 12 61 27 97 25 59 27 78 27
186 0 108 -2 127 -27 186 -15 36 -27 82 -27 102 0 32 3 37 24 37 27 0 36 17
36 63 0 39 -9 54 -35 58 -20 4 -20 13 -23 777 -2 606 -5 774 -15 777 -6 2 -36
5 -64 8 l-53 4 0 -779z m74 -1134 c9 -34 9 -185 0 -207 -24 -63 -44 69 -28
187 7 51 18 59 28 20z m0 -2360 c9 -23 9 -173 1 -207 -18 -72 -42 51 -30 158
6 64 17 81 29 49z"/>
</g>
</svg>
