<?xml version="1.0" standalone="no"?>
<!DOCTYPE svg PUBLIC "-//W3C//DTD SVG 20010904//EN"
 "http://www.w3.org/TR/2001/REC-SVG-20010904/DTD/svg10.dtd">
<svg version="1.0" xmlns="http://www.w3.org/2000/svg"
 width="2550.000000pt" height="2700.000000pt" viewBox="0 0 2550.000000 2700.000000"
 preserveAspectRatio="xMidYMid meet">

<g transform="translate(0.000000,2700.000000) scale(0.100000,-0.100000)"
fill="#65340A" stroke="none">
<path d="M21022 24187 l-52 -53 0 -817 0 -817 -28 0 c-33 0 -69 -30 -78 -64
-9 -39 19 -81 65 -96 38 -12 41 -16 41 -50 0 -22 -8 -48 -20 -63 -33 -41 -68
-130 -81 -201 -18 -107 13 -239 76 -322 18 -24 25 -45 25 -80 0 -46 0 -46 -29
-41 -37 8 -69 -16 -77 -58 -7 -38 20 -74 67 -90 l34 -12 3 -878 2 -877 -21 5
c-31 8 -66 -12 -80 -45 -19 -45 8 -93 58 -105 36 -8 38 -11 41 -51 2 -32 -3
-49 -22 -74 -64 -84 -94 -208 -77 -319 13 -79 52 -178 82 -205 14 -12 19 -31
19 -66 l0 -48 -40 0 c-36 0 -42 -4 -57 -34 -14 -29 -14 -39 -3 -66 10 -24 22
-33 56 -42 l44 -12 -2 -965 -3 -966 -42 -23 -43 -23 22 -29 c20 -28 20 -30 3
-56 -9 -14 -26 -29 -36 -31 -13 -4 -19 -14 -19 -35 l0 -30 88 6 c48 3 133 5
190 6 95 0 102 1 102 20 0 10 -10 25 -22 31 -13 7 -26 17 -30 23 -13 18 -9 53
7 66 23 19 18 27 -20 40 -19 6 -40 20 -45 30 -7 12 -9 355 -8 981 l3 962 35 2
c40 3 70 35 70 74 0 39 -22 63 -66 76 -55 15 -58 53 -10 123 54 81 71 142 71
257 0 88 -4 107 -28 160 -15 32 -39 74 -52 91 -19 25 -25 45 -25 84 l0 52 34
-6 c29 -6 37 -3 55 20 41 53 23 97 -52 129 l-37 15 2 873 3 872 27 -3 c37 -4
78 36 78 78 0 36 -25 63 -74 81 -47 17 -47 46 -1 118 55 86 70 142 70 256 0
88 -4 107 -28 160 -15 32 -39 74 -52 91 -19 25 -25 45 -25 82 0 58 4 64 37 49
22 -10 28 -8 49 16 35 41 32 81 -8 109 -18 13 -42 28 -53 34 -20 11 -20 23
-23 859 -2 825 -4 875 -31 875 -4 0 -30 -24 -59 -53z m75 -2042 c34 -61 49
-163 35 -238 -16 -88 -62 -171 -95 -175 -22 -3 -30 4 -54 50 -26 48 -28 62
-28 158 0 107 13 154 61 228 22 34 54 25 81 -23z m3 -2836 c50 -107 49 -233
-5 -340 -45 -89 -72 -89 -112 -2 -50 109 -42 263 18 357 41 65 62 62 99 -15z"/>
</g>
</svg>
