<?xml version="1.0" standalone="no"?>
<!DOCTYPE svg PUBLIC "-//W3C//DTD SVG 20010904//EN"
 "http://www.w3.org/TR/2001/REC-SVG-20010904/DTD/svg10.dtd">
<svg version="1.0" xmlns="http://www.w3.org/2000/svg"
 width="2550.000000pt" height="2700.000000pt" viewBox="0 0 2550.000000 2700.000000"
 preserveAspectRatio="xMidYMid meet">

<g transform="translate(0.000000,2700.000000) scale(0.100000,-0.100000)"
fill="#65340A" stroke="none">
<path d="M22142 25257 l-52 -53 0 -827 0 -827 -29 0 c-45 0 -81 -35 -81 -79 0
-42 23 -69 78 -91 44 -17 42 -45 -8 -128 -52 -85 -72 -156 -72 -247 0 -94 22
-168 73 -243 34 -52 40 -68 37 -104 -2 -33 -7 -42 -18 -39 -45 12 -65 6 -81
-27 -26 -51 -13 -82 49 -115 l52 -28 0 -875 0 -874 -35 0 c-47 0 -75 -29 -75
-78 0 -45 19 -66 70 -79 51 -13 53 -56 7 -126 -44 -68 -66 -124 -76 -200 -16
-114 19 -248 85 -327 20 -23 25 -38 22 -72 -3 -43 -3 -43 -38 -40 -43 4 -71
-22 -72 -65 -1 -44 16 -66 64 -83 l43 -16 3 -1444 c2 -1031 -1 -1451 -9 -1466
-6 -11 -26 -26 -45 -33 -38 -14 -40 -18 -19 -45 8 -11 15 -27 15 -36 0 -19
-40 -60 -59 -60 -8 0 -11 -10 -9 -27 3 -27 4 -28 68 -27 36 0 122 1 193 2 116
2 127 4 127 20 0 11 -11 24 -25 30 -14 7 -30 23 -37 37 -10 21 -8 30 9 54 l21
28 -33 12 c-18 6 -39 19 -46 27 -10 13 -13 293 -13 1447 -1 788 1 1447 3 1465
3 29 6 32 36 32 54 0 83 50 61 104 -11 26 -24 37 -58 48 -40 14 -43 17 -40 46
2 18 19 58 38 90 58 96 83 211 65 307 -12 66 -50 154 -83 194 -19 22 -22 36
-20 83 l4 56 37 -5 c36 -5 39 -3 56 33 16 34 16 41 4 64 -12 21 -55 50 -93 63
-7 2 -12 1384 -7 1720 1 33 4 37 27 37 15 0 38 12 56 30 24 24 29 36 24 58 -7
31 -62 82 -87 82 -33 0 -29 55 7 106 102 143 105 346 9 489 -39 58 -42 67 -37
114 l4 50 36 -2 c32 -2 39 2 56 33 17 32 18 39 5 65 -8 16 -32 38 -56 49 -35
18 -42 26 -43 51 0 17 -1 402 -2 857 -1 955 5 898 -86 805z m75 -2074 c25 -53
28 -68 28 -163 0 -101 -2 -109 -35 -175 -29 -59 -40 -71 -63 -73 -25 -3 -30 2
-54 54 -52 113 -39 281 28 374 41 56 61 53 96 -17z m-1 -2848 c51 -105 48
-233 -8 -344 -27 -55 -37 -66 -58 -66 -20 0 -30 11 -54 59 -55 109 -43 282 25
378 33 46 63 38 95 -27z"/>
</g>
</svg>
