<?xml version="1.0" standalone="no"?>
<!DOCTYPE svg PUBLIC "-//W3C//DTD SVG 20010904//EN"
 "http://www.w3.org/TR/2001/REC-SVG-20010904/DTD/svg10.dtd">
<svg version="1.0" xmlns="http://www.w3.org/2000/svg"
 width="2550.000000pt" height="2700.000000pt" viewBox="0 0 2550.000000 2700.000000"
 preserveAspectRatio="xMidYMid meet">

<g transform="translate(0.000000,2700.000000) scale(0.100000,-0.100000)"
fill="#65340A" stroke="none">
<path d="M14333 13512 l-63 -3 -2 -1197 -3 -1197 -22 -3 c-39 -6 -53 -108 -20
-149 5 -7 18 -13 29 -13 18 0 19 -5 16 -52 -3 -29 -15 -89 -28 -133 -32 -115
-33 -328 0 -430 12 -38 24 -94 27 -122 4 -48 3 -53 -15 -53 -30 0 -44 -25 -44
-80 0 -54 14 -80 43 -80 18 0 19 -27 19 -920 0 -908 0 -920 -20 -920 -25 0
-41 -31 -42 -79 -1 -58 10 -81 38 -81 21 0 24 -4 24 -38 0 -20 -11 -80 -24
-132 -44 -175 -42 -360 4 -483 11 -29 20 -71 20 -94 0 -36 -3 -43 -20 -43 -25
0 -41 -31 -43 -84 -2 -47 15 -76 44 -76 18 0 19 -33 19 -1205 l0 -1204 -21
-20 c-12 -11 -34 -25 -50 -31 -28 -12 -39 -30 -19 -30 6 0 15 -11 22 -25 13
-30 -9 -71 -48 -85 -20 -8 -24 -16 -24 -49 0 -22 3 -42 8 -44 4 -3 52 -8 107
-11 55 -4 116 -9 136 -12 27 -4 56 3 113 27 l76 32 0 39 c0 28 -5 40 -17 45
-25 8 -63 44 -63 58 0 7 9 24 20 38 11 14 20 27 20 29 0 3 -18 11 -41 18 -22
8 -44 21 -50 31 -5 11 -9 489 -9 1218 0 1187 0 1201 20 1201 26 0 40 29 40 87
0 55 -7 69 -35 74 -30 6 -30 44 -1 161 14 57 28 136 31 176 8 83 -9 221 -36
301 -11 30 -19 76 -19 103 0 41 3 48 20 48 26 0 40 29 40 87 0 52 -12 73 -42
73 -17 0 -18 39 -16 918 2 504 6 915 9 912 4 -3 16 4 28 14 16 15 21 31 21 70
0 58 -11 81 -37 81 -26 0 -22 77 7 180 32 112 32 305 0 415 -12 41 -23 102
-24 135 -1 54 1 60 19 60 14 0 24 11 33 40 18 53 2 112 -31 117 l-22 3 -3
1191 c-2 1125 -3 1192 -20 1195 -9 2 -45 3 -79 1z m27 -2954 c0 -29 -3 -38 -9
-29 -5 7 -7 21 -6 30 2 9 4 22 4 29 1 6 3 12 6 12 3 0 5 -19 5 -42z m0 -2950
c0 -31 -3 -39 -11 -31 -7 7 -8 24 -4 42 9 43 15 39 15 -11z"/>
</g>
</svg>
