<?xml version="1.0" standalone="no"?>
<!DOCTYPE svg PUBLIC "-//W3C//DTD SVG 20010904//EN"
 "http://www.w3.org/TR/2001/REC-SVG-20010904/DTD/svg10.dtd">
<svg version="1.0" xmlns="http://www.w3.org/2000/svg"
 width="2550.000000pt" height="2700.000000pt" viewBox="0 0 2550.000000 2700.000000"
 preserveAspectRatio="xMidYMid meet">

<g transform="translate(0.000000,2700.000000) scale(0.100000,-0.100000)"
fill="#65340A" stroke="none">
<path d="M14245 15035 l-70 -120 -3 -556 c-2 -544 -3 -557 -22 -562 -47 -12
-50 -139 -2 -145 19 -3 22 -9 22 -50 0 -26 -10 -76 -22 -112 -18 -55 -22 -88
-22 -215 0 -127 4 -160 22 -215 12 -36 22 -84 22 -107 0 -35 -3 -42 -22 -45
-17 -2 -25 -13 -31 -41 -12 -50 -2 -86 28 -97 l25 -9 2 -788 c3 -919 3 -923
-22 -923 -12 0 -22 -12 -30 -35 -16 -48 -4 -94 27 -106 23 -9 25 -13 21 -67
-3 -31 -13 -86 -23 -122 -27 -90 -27 -300 -1 -385 11 -33 21 -86 23 -118 4
-52 3 -58 -13 -55 -20 3 -44 -34 -44 -69 0 -39 18 -73 40 -73 23 0 20 243 21
-1846 0 -528 -3 -967 -6 -976 -3 -8 -24 -24 -46 -33 -34 -16 -38 -20 -26 -34
8 -9 17 -24 20 -33 7 -20 -28 -68 -49 -68 -10 0 -14 -12 -14 -43 l0 -44 73 -2
c39 0 95 -4 124 -7 38 -5 71 0 125 16 l73 22 -3 39 c-3 22 -9 39 -17 39 -37 0
-60 75 -30 100 13 11 10 15 -23 30 -22 10 -42 23 -46 29 -5 8 -11 2633 -7
2786 1 21 8 33 23 40 45 20 46 137 1 143 -29 4 -33 48 -11 119 45 146 47 331
5 465 -13 40 -22 87 -21 103 1 17 3 35 3 42 1 6 11 13 23 15 46 7 46 129 0
136 -23 4 -23 4 -23 97 0 30 0 406 0 834 l1 780 22 3 c48 7 49 120 2 139 -24
8 -26 13 -22 57 3 26 13 76 24 112 26 90 26 309 0 395 -10 33 -21 86 -23 117
-4 53 -3 57 19 60 33 4 49 85 24 122 -9 14 -23 26 -31 26 -13 0 -15 89 -17
678 l-3 677 -70 -120z m4 -1762 c0 -36 -2 -43 -9 -27 -7 18 -3 74 6 74 2 0 4
-21 3 -47z m1 -2739 c0 -34 -4 -53 -10 -49 -16 10 -10 105 6 105 2 0 4 -25 4
-56z"/>
</g>
</svg>
