<?xml version="1.0" standalone="no"?>
<!DOCTYPE svg PUBLIC "-//W3C//DTD SVG 20010904//EN"
 "http://www.w3.org/TR/2001/REC-SVG-20010904/DTD/svg10.dtd">
<svg version="1.0" xmlns="http://www.w3.org/2000/svg"
 width="2551.000000pt" height="2701.000000pt" viewBox="0 0 2551.000000 2701.000000"
 preserveAspectRatio="xMidYMid meet">

<g transform="translate(0.000000,2701.000000) scale(0.100000,-0.100000)"
fill="#65340A" stroke="none">
<path d="M15307 21227 l-58 -52 1 -1532 0 -1533 -26 0 c-33 0 -84 -50 -84 -83
0 -54 66 -97 98 -65 9 9 12 -1 12 -46 0 -46 -5 -64 -25 -90 -13 -17 -36 -59
-52 -91 -56 -124 -38 -305 42 -409 28 -37 35 -55 35 -91 0 -44 0 -44 -29 -39
-55 11 -100 -61 -71 -115 11 -22 64 -45 85 -37 17 6 16 138 16 -2194 1 -619 0
-1131 0 -1137 -1 -7 -16 -20 -33 -29 -43 -22 -42 -20 -24 -46 23 -33 20 -55
-14 -80 -24 -17 -30 -29 -30 -59 0 -21 5 -41 11 -44 13 -9 298 -10 306 -2 3 4
6 22 6 41 1 27 -6 40 -26 56 -31 25 -35 55 -10 83 17 18 17 19 -2 30 -11 6
-30 21 -43 34 l-23 23 3 1657 3 1657 35 8 c50 13 84 53 76 91 -4 17 -14 39
-23 49 -17 20 -58 24 -68 8 -12 -19 -25 1 -25 39 0 24 9 49 26 72 121 161 124
372 8 524 -24 33 -32 52 -32 89 -1 47 -1 47 28 41 37 -8 64 7 80 45 23 55 -27
118 -86 108 -18 -3 -19 39 -20 1580 -1 870 -3 1584 -5 1586 -2 3 -30 -19 -62
-47z m-57 -3173 c0 -11 -5 -14 -16 -10 -9 3 -18 6 -20 6 -3 0 -2 5 1 10 10 16
35 12 35 -6z m154 7 c3 -5 -1 -14 -8 -20 -16 -13 -32 2 -21 19 8 12 22 13 29
1z m-16 -331 c45 -90 53 -179 22 -270 -40 -119 -86 -154 -138 -106 -32 28 -63
112 -69 185 -7 84 9 154 48 216 27 43 32 46 67 43 34 -3 39 -7 70 -68z m-138
-635 c0 -8 -6 -15 -14 -15 -17 0 -28 14 -19 24 12 12 33 6 33 -9z m159 6 c9
-6 10 -10 2 -16 -15 -8 -41 1 -41 15 0 12 20 13 39 1z"/>
</g>
</svg>
