<?xml version="1.0" standalone="no"?>
<!DOCTYPE svg PUBLIC "-//W3C//DTD SVG 20010904//EN"
 "http://www.w3.org/TR/2001/REC-SVG-20010904/DTD/svg10.dtd">
<svg version="1.0" xmlns="http://www.w3.org/2000/svg"
 width="2551.000000pt" height="2701.000000pt" viewBox="0 0 2551.000000 2701.000000"
 preserveAspectRatio="xMidYMid meet">

<g transform="translate(0.000000,2701.000000) scale(0.100000,-0.100000)"
fill="#65340A" stroke="none">
<path d="M8268 15434 l-58 -45 0 -1182 c0 -650 0 -1343 0 -1539 l0 -358 -29 0
c-37 0 -81 -43 -81 -80 0 -56 65 -101 98 -68 9 9 12 -1 12 -46 0 -46 -5 -64
-25 -90 -51 -67 -79 -146 -83 -237 -5 -106 12 -171 67 -256 24 -37 41 -76 43
-99 l3 -39 -37 3 c-33 3 -40 0 -58 -30 -11 -18 -20 -43 -20 -56 0 -33 43 -72
80 -72 28 0 30 -2 30 -37 0 -21 3 -768 5 -1660 6 -1594 6 -1622 -13 -1639 -11
-9 -32 -27 -46 -40 l-26 -24 20 -20 c27 -27 25 -40 -6 -65 -21 -17 -28 -32
-32 -73 l-5 -52 44 -1 c165 -2 264 3 271 14 4 7 8 35 8 62 0 43 -3 52 -22 60
-31 14 -34 40 -8 72 l21 27 -38 19 c-21 11 -41 25 -45 31 -4 6 -8 757 -8 1669
l0 1657 26 0 c36 0 61 16 79 51 17 32 13 62 -13 92 -16 19 -57 23 -67 7 -14
-23 -25 -7 -25 35 0 35 8 55 40 101 57 82 75 141 75 254 0 86 -3 101 -33 163
-17 38 -43 82 -57 99 -19 22 -25 41 -25 74 l0 45 33 -6 c26 -5 37 -2 57 20 52
55 19 135 -56 135 l-34 0 -2 1585 -3 1585 -57 -46z m-58 -3178 c0 -9 -7 -12
-20 -9 -11 3 -17 9 -14 14 8 14 34 10 34 -5z m154 6 c2 -4 -4 -13 -15 -20 -15
-10 -19 -10 -19 1 0 24 23 36 34 19z m-14 -335 c31 -61 34 -77 35 -150 0 -139
-41 -230 -107 -235 -30 -3 -39 2 -55 25 -48 69 -58 105 -58 208 0 94 2 104 33
163 l33 63 42 -3 c41 -3 43 -5 77 -71z m-140 -622 c0 -8 -7 -15 -16 -15 -14 0
-14 3 -4 15 7 8 14 15 16 15 2 0 4 -7 4 -15z m150 -5 c12 -8 11 -10 -7 -10
-13 0 -23 5 -23 10 0 13 11 13 30 0z"/>
</g>
</svg>
