<?xml version="1.0" standalone="no"?>
<!DOCTYPE svg PUBLIC "-//W3C//DTD SVG 20010904//EN"
 "http://www.w3.org/TR/2001/REC-SVG-20010904/DTD/svg10.dtd">
<svg version="1.0" xmlns="http://www.w3.org/2000/svg"
 width="2551.000000pt" height="2701.000000pt" viewBox="0 0 2551.000000 2701.000000"
 preserveAspectRatio="xMidYMid meet">

<g transform="translate(0.000000,2701.000000) scale(0.100000,-0.100000)"
fill="#65340A" stroke="none">
<path d="M9448 16406 l-58 -47 0 -1540 0 -1539 -30 0 c-42 0 -80 -39 -80 -82
0 -63 42 -94 91 -68 18 10 19 7 19 -42 0 -45 -6 -61 -35 -102 -58 -82 -79
-148 -79 -251 0 -103 21 -169 79 -251 27 -38 35 -59 35 -93 0 -35 -3 -42 -12
-33 -35 35 -98 -12 -98 -74 0 -45 30 -74 75 -74 l35 0 -2 -2152 -3 -2153 -32
-14 c-39 -17 -51 -45 -29 -67 22 -21 20 -55 -3 -61 -20 -5 -31 -41 -31 -99 l0
-34 155 0 155 0 0 65 c0 52 -3 65 -16 65 -9 0 -12 -5 -8 -12 4 -7 3 -9 -1 -5
-5 4 -10 13 -11 20 -1 7 -5 19 -9 28 -3 10 1 23 10 33 13 12 14 20 6 30 -6 7
-8 16 -4 20 4 4 0 4 -9 1 -11 -4 -22 2 -33 18 -15 23 -16 132 -16 1198 1 646
1 1612 1 2147 l0 972 30 0 c40 0 80 39 80 78 0 58 -64 104 -98 70 -9 -9 -12
-2 -12 35 0 37 8 59 40 107 49 77 70 148 70 237 0 107 -43 230 -94 273 -11 8
-16 30 -16 66 l0 53 33 -6 c28 -4 37 -1 55 22 12 15 22 41 22 57 0 39 -40 78
-80 78 l-30 0 -2 1586 -3 1587 -57 -47z m-63 -3177 c10 -14 1 -21 -19 -13 -9
3 -13 10 -10 15 7 12 21 11 29 -2z m150 -16 c-21 -15 -30 -10 -22 11 4 10 13
13 23 9 15 -6 15 -7 -1 -20z m-43 -260 c27 -31 49 -83 63 -150 17 -81 7 -156
-32 -232 -23 -44 -34 -56 -62 -63 -42 -12 -60 3 -95 81 -49 110 -44 226 14
329 27 46 34 52 64 52 19 0 39 -7 48 -17z m-110 -695 c-6 -6 -15 -7 -22 -3 -8
5 -6 11 7 20 20 15 32 0 15 -17z m162 1 c-8 -14 -34 -10 -34 5 0 9 7 12 20 9
11 -3 17 -9 14 -14z"/>
</g>
</svg>
