<?xml version="1.0" standalone="no"?>
<!DOCTYPE svg PUBLIC "-//W3C//DTD SVG 20010904//EN"
 "http://www.w3.org/TR/2001/REC-SVG-20010904/DTD/svg10.dtd">
<svg version="1.0" xmlns="http://www.w3.org/2000/svg"
 width="2551.000000pt" height="2701.000000pt" viewBox="0 0 2551.000000 2701.000000"
 preserveAspectRatio="xMidYMid meet">

<g transform="translate(0.000000,2701.000000) scale(0.100000,-0.100000)"
fill="#65340A" stroke="none">
<path d="M10613 17365 l-51 -45 -1 -1448 c0 -796 -1 -1488 -1 -1538 l0 -91
-32 0 c-22 0 -38 -8 -55 -27 -27 -32 -29 -56 -8 -96 12 -22 23 -30 43 -30 16
0 33 5 40 12 9 9 12 3 13 -27 2 -65 -1 -74 -41 -136 -97 -151 -92 -355 14
-494 15 -19 25 -48 27 -78 2 -26 3 -47 1 -47 -2 0 -12 5 -23 11 -28 14 -57 2
-74 -31 -20 -39 -19 -62 6 -94 15 -19 30 -26 55 -26 32 0 34 -2 34 -32 0 -18
3 -767 6 -1665 l6 -1631 -41 -27 c-44 -29 -50 -45 -26 -65 22 -19 18 -48 -10
-66 -22 -14 -25 -24 -25 -70 l0 -54 150 0 150 0 0 59 c0 42 -4 60 -14 64 -30
12 -37 43 -16 70 26 33 26 34 -12 53 -18 9 -36 22 -40 28 -4 6 -8 759 -8 1674
l0 1662 35 0 c69 0 100 76 54 134 -24 30 -45 33 -71 9 -17 -15 -18 -14 -18 33
0 40 6 58 35 98 57 81 78 148 78 251 0 104 -23 177 -79 250 -29 39 -34 53 -34
102 0 44 3 54 12 45 20 -20 65 -14 82 10 22 31 20 84 -4 108 -19 19 -36 24
-72 21 -17 -2 -18 79 -18 1583 0 872 -3 1586 -7 1586 -5 0 -31 -21 -60 -45z
m-49 -3174 c3 -4 3 -11 0 -14 -8 -7 -44 4 -44 14 0 12 37 12 44 0z m166 5 c0
-2 -11 -11 -25 -20 -24 -16 -25 -16 -25 4 0 15 7 20 25 20 14 0 25 -2 25 -4z
m-52 -290 c71 -104 79 -250 21 -364 -32 -63 -36 -67 -71 -70 -33 -3 -40 1 -62
35 -39 59 -56 119 -56 198 0 79 17 139 56 198 20 30 30 37 57 37 25 0 37 -7
55 -34z m-115 -671 c-6 -17 -43 -21 -43 -5 0 6 7 10 15 10 8 0 15 5 15 11 0 5
4 8 10 4 5 -3 7 -12 3 -20z m157 -7 c0 -5 -9 -8 -20 -8 -13 0 -20 7 -20 20 0
18 2 19 20 8 11 -7 20 -16 20 -20z"/>
</g>
</svg>
