<?xml version="1.0" standalone="no"?>
<!DOCTYPE svg PUBLIC "-//W3C//DTD SVG 20010904//EN"
 "http://www.w3.org/TR/2001/REC-SVG-20010904/DTD/svg10.dtd">
<svg version="1.0" xmlns="http://www.w3.org/2000/svg"
 width="2551.000000pt" height="2701.000000pt" viewBox="0 0 2551.000000 2701.000000"
 preserveAspectRatio="xMidYMid meet">

<g transform="translate(0.000000,2701.000000) scale(0.100000,-0.100000)"
fill="#3a4548" stroke="none">
<path d="M17642 23192 l-53 -47 1 -985 0 -985 -35 -28 c-20 -16 -33 -33 -30
-38 4 -5 11 -6 17 -3 6 4 8 2 4 -4 -3 -6 -2 -13 4 -17 15 -9 12 -53 -5 -67
-58 -48 -67 -61 -61 -91 5 -25 4 -28 -9 -17 -9 7 -15 8 -15 2 0 -12 29 -24 41
-16 5 3 9 -2 9 -10 0 -8 9 -17 19 -21 21 -6 37 -40 32 -65 -2 -8 -12 -27 -23
-42 -10 -16 -18 -28 -16 -29 2 0 11 -2 21 -4 50 -9 47 57 47 -1202 0 -1109 -1
-1174 -17 -1180 -10 -3 -26 -13 -36 -22 -17 -14 -17 -16 4 -32 35 -26 28 -64
-20 -108 -23 -21 -41 -47 -41 -59 0 -11 -3 -22 -7 -25 -5 -2 -2 -2 5 -1 6 2
12 -5 12 -16 0 -13 7 -20 18 -20 48 0 67 -68 32 -113 l-20 -25 35 -12 35 -12
0 -1110 0 -1110 -37 -35 c-23 -20 -34 -37 -27 -41 5 -4 11 -24 12 -44 2 -28
-2 -41 -18 -50 -15 -10 -20 -23 -20 -55 l0 -43 155 0 155 0 0 41 c0 32 -6 46
-25 61 -28 22 -32 54 -10 85 15 21 14 23 -17 39 -18 9 -36 22 -40 28 -4 6 -8
512 -8 1124 0 942 2 1112 14 1112 8 0 24 8 36 18 l22 17 -21 19 c-36 33 -27
69 29 117 50 43 63 75 35 86 -32 12 -85 67 -85 88 0 12 9 34 20 48 20 26 20
26 1 36 -11 6 -27 11 -35 11 -14 0 -16 116 -16 1185 l0 1184 30 16 c33 17 38
36 15 55 -25 21 -19 67 12 87 64 41 92 97 56 110 -10 4 -20 9 -23 13 -3 3 -17
13 -32 23 -34 22 -37 63 -7 101 l20 26 -26 10 c-14 5 -31 10 -36 10 -5 0 -9
402 -9 1040 0 572 -3 1040 -7 1040 -5 0 -32 -22 -61 -48z"/>
<path d="M17483 15455 c0 -27 2 -38 4 -22 2 15 2 37 0 50 -2 12 -4 0 -4 -28z"/>
</g>
</svg>
