<?xml version="1.0" standalone="no"?>
<!DOCTYPE svg PUBLIC "-//W3C//DTD SVG 20010904//EN"
 "http://www.w3.org/TR/2001/REC-SVG-20010904/DTD/svg10.dtd">
<svg version="1.0" xmlns="http://www.w3.org/2000/svg"
 width="2551.000000pt" height="2701.000000pt" viewBox="0 0 2551.000000 2701.000000"
 preserveAspectRatio="xMidYMid meet">

<g transform="translate(0.000000,2701.000000) scale(0.100000,-0.100000)"
fill="#3a4548" stroke="none">
<path d="M19985 25120 l-61 -48 2 -984 2 -983 -35 -32 -35 -31 18 -28 c29 -43
27 -60 -11 -85 -19 -13 -35 -29 -35 -36 0 -7 -9 -17 -20 -23 -22 -12 -28 -50
-7 -50 20 0 88 -63 91 -85 2 -11 -5 -35 -16 -53 -19 -31 -19 -32 -1 -38 51
-16 48 66 50 -1150 1 -621 -1 -1150 -4 -1176 -3 -27 -10 -48 -16 -48 -6 0 -18
-7 -28 -16 -17 -15 -17 -18 2 -52 10 -20 19 -42 19 -48 0 -12 -46 -54 -59 -54
-5 0 -11 -10 -13 -22 -2 -13 -10 -23 -18 -23 -29 0 -21 -33 13 -54 71 -44 92
-92 55 -131 -17 -18 -18 -24 -7 -31 8 -5 21 -9 30 -9 9 0 19 -8 21 -17 2 -10
3 -513 2 -1118 l-3 -1100 -37 -31 c-23 -20 -33 -34 -25 -38 6 -4 11 -21 11
-37 0 -21 4 -28 13 -23 6 4 1 -5 -13 -18 -14 -14 -31 -23 -37 -20 -7 2 -13 0
-14 -4 0 -5 -2 -21 -4 -35 -5 -35 16 -39 201 -39 l144 0 0 36 c0 27 -7 41 -30
61 -33 27 -37 49 -15 79 20 27 19 30 -15 44 -17 7 -35 21 -40 31 -6 11 -10
435 -10 1123 0 891 2 1106 13 1106 7 0 23 7 35 16 l22 15 -20 29 c-27 38 -25
65 6 87 44 31 84 74 84 90 0 8 -9 17 -20 20 -11 3 -20 12 -20 19 0 8 -9 14
-19 14 -22 0 -51 35 -51 61 0 9 10 29 21 44 18 22 20 29 8 36 -8 5 -24 9 -36
9 l-23 0 0 1179 0 1180 33 22 c17 12 34 24 36 25 2 2 -6 15 -18 30 -27 34 -27
60 0 82 89 73 108 105 69 117 -11 3 -20 10 -20 15 0 5 -12 15 -27 22 -45 22
-51 43 -26 89 l22 40 -25 9 c-14 6 -29 10 -35 10 -5 0 -10 407 -11 1039 l-3
1039 -60 -48z"/>
</g>
</svg>
