<?xml version="1.0" standalone="no"?>
<!DOCTYPE svg PUBLIC "-//W3C//DTD SVG 20010904//EN"
 "http://www.w3.org/TR/2001/REC-SVG-20010904/DTD/svg10.dtd">
<svg version="1.0" xmlns="http://www.w3.org/2000/svg"
 width="2551.000000pt" height="2701.000000pt" viewBox="0 0 2551.000000 2701.000000"
 preserveAspectRatio="xMidYMid meet">

<g transform="translate(0.000000,2701.000000) scale(0.100000,-0.100000)"
fill="#3a4548" stroke="none">
<path d="M22260 26983 c0 -5 0 -446 0 -982 l0 -974 -37 -32 c-35 -30 -37 -34
-23 -51 42 -53 41 -56 -21 -113 -61 -56 -73 -85 -39 -96 11 -3 20 -11 20 -16
0 -5 3 -8 8 -7 17 3 44 -17 58 -44 15 -29 15 -31 -10 -57 -33 -35 -33 -39 7
-49 l32 -8 3 -1169 2 -1169 -25 -23 c-13 -13 -29 -23 -35 -23 -14 0 -13 -10 3
-29 7 -9 18 -28 25 -44 11 -25 9 -29 -26 -55 -21 -15 -37 -32 -35 -38 2 -7 -8
-14 -22 -18 -40 -10 -32 -41 20 -72 25 -14 50 -34 55 -43 13 -25 5 -72 -14
-83 -26 -14 -19 -27 19 -34 l36 -6 -2 -1107 c-1 -899 -3 -1110 -14 -1127 -7
-11 -27 -27 -45 -34 -27 -11 -29 -15 -17 -29 8 -9 17 -24 20 -34 4 -10 12 -15
18 -11 8 5 8 1 0 -13 -6 -11 -26 -28 -45 -37 -22 -10 -33 -22 -32 -34 3 -15
20 -17 179 -20 l177 -3 0 26 c0 17 -11 37 -30 55 -35 32 -37 49 -11 81 l18 23
-41 20 -41 21 -3 1113 -2 1112 35 17 c40 19 42 26 15 55 -36 39 -26 62 58 128
18 14 32 31 32 39 0 17 -46 61 -65 61 -8 0 -22 12 -32 26 -16 26 -16 28 5 67
24 44 18 57 -25 57 l-23 0 0 1179 0 1179 35 22 c19 12 35 24 35 27 0 3 -9 16
-20 30 -11 14 -20 32 -20 40 0 8 28 41 62 73 54 50 61 60 49 74 -7 9 -18 16
-23 16 -5 0 -14 5 -21 10 -7 6 -24 19 -39 31 -33 24 -35 47 -7 83 24 31 19 42
-21 51 l-30 7 0 984 0 984 -65 0 c-36 0 -65 -3 -65 -7z"/>
</g>
</svg>
