<?xml version="1.0" standalone="no"?>
<!DOCTYPE svg PUBLIC "-//W3C//DTD SVG 20010904//EN"
 "http://www.w3.org/TR/2001/REC-SVG-20010904/DTD/svg10.dtd">
<svg version="1.0" xmlns="http://www.w3.org/2000/svg"
 width="2551.000000pt" height="2701.000000pt" viewBox="0 0 2551.000000 2701.000000"
 preserveAspectRatio="xMidYMid meet">

<g transform="translate(0.000000,2701.000000) scale(0.100000,-0.100000)"
fill="#3a4548" stroke="none">
<path d="M23430 26466 l0 -524 -38 -34 c-38 -35 -38 -35 -20 -58 28 -35 22
-54 -37 -113 -57 -57 -67 -81 -37 -91 34 -12 77 -43 88 -64 6 -12 14 -19 17
-15 17 16 4 -12 -18 -41 -14 -18 -25 -36 -25 -39 0 -4 15 -10 33 -15 l32 -8 2
-1171 3 -1171 -41 -27 -40 -28 21 -22 c11 -12 20 -27 20 -33 0 -7 5 -12 10
-12 22 0 8 -20 -34 -46 -25 -16 -43 -31 -40 -35 2 -4 -7 -14 -21 -23 -29 -19
-33 -44 -7 -53 50 -19 92 -54 92 -78 0 -14 6 -25 13 -25 6 -1 -3 -14 -21 -29
-27 -23 -30 -30 -17 -35 9 -3 25 -6 35 -6 10 0 20 -6 23 -12 7 -19 8 -3105 1
-3133 -4 -16 -20 -31 -45 -42 -34 -15 -37 -19 -25 -32 7 -9 16 -31 18 -49 4
-30 1 -34 -29 -47 -24 -10 -33 -20 -31 -32 3 -16 20 -18 181 -21 l177 -2 0 28
c0 21 -7 32 -25 40 -32 15 -42 55 -21 87 21 31 20 32 -8 39 -60 15 -56 -110
-56 1606 l0 1568 30 12 c42 17 44 25 19 59 -30 40 -19 68 41 111 27 19 52 42
55 50 6 15 -50 69 -72 70 -7 0 -19 11 -28 24 -17 25 -12 49 14 79 14 17 14 20
-4 33 -10 8 -27 14 -37 14 -17 0 -18 48 -18 1174 l0 1174 38 30 37 30 -22 24
c-13 13 -23 31 -23 38 0 8 27 41 61 72 62 60 67 74 33 92 -10 6 -21 13 -24 16
-3 3 -17 11 -32 17 -37 17 -44 47 -19 89 12 19 21 37 21 39 0 2 -16 7 -35 11
l-35 6 0 529 0 529 -65 0 -65 0 0 -524z"/>
</g>
</svg>
