<?xml version="1.0" standalone="no"?>
<!DOCTYPE svg PUBLIC "-//W3C//DTD SVG 20010904//EN"
 "http://www.w3.org/TR/2001/REC-SVG-20010904/DTD/svg10.dtd">
<svg version="1.0" xmlns="http://www.w3.org/2000/svg"
 width="2551.000000pt" height="2701.000000pt" viewBox="0 0 2551.000000 2701.000000"
 preserveAspectRatio="xMidYMid meet">

<g transform="translate(0.000000,2701.000000) scale(0.100000,-0.100000)"
fill="#3a4548" stroke="none">
<path d="M24590 26966 c0 -16 -13 -34 -37 -54 l-37 -29 22 -28 c12 -15 22 -33
22 -39 0 -6 -28 -39 -61 -74 -68 -71 -68 -76 6 -111 24 -11 46 -30 50 -41 7
-23 -12 -80 -26 -80 -5 0 -9 -4 -9 -10 0 -5 16 -12 35 -16 l35 -6 0 -1174 0
-1173 -35 -26 -34 -27 21 -28 c26 -36 19 -69 -22 -93 -17 -10 -28 -22 -25 -27
3 -5 -4 -11 -15 -15 -23 -7 -42 -37 -32 -51 4 -5 23 -18 42 -28 50 -27 70 -46
70 -68 0 -11 5 -16 11 -13 6 4 5 -2 -3 -14 -7 -12 -21 -24 -30 -27 -33 -10
-16 -36 26 -38 l21 -1 3 -1108 c1 -702 -1 -1115 -8 -1126 -5 -10 -25 -26 -44
-35 -35 -17 -35 -17 -16 -36 11 -11 20 -29 20 -41 0 -13 4 -18 12 -13 7 4 8 3
4 -4 -4 -7 -12 -12 -17 -12 -5 0 -15 -5 -22 -10 -7 -6 -21 -17 -32 -25 -18
-13 2 -14 168 -15 163 0 187 2 187 16 0 8 -13 27 -30 41 -34 28 -37 48 -14 82
14 19 14 25 3 32 -8 5 -19 9 -26 9 -6 0 -19 7 -27 16 -14 14 -16 130 -16 1124
l0 1109 33 17 c17 9 34 18 35 19 2 2 -6 17 -18 33 -27 36 -22 72 14 95 52 34
87 73 80 90 -3 9 -12 17 -19 17 -7 0 -15 7 -19 15 -3 8 -14 15 -24 15 -22 0
-52 30 -52 51 0 8 9 28 20 44 27 40 26 43 -15 51 l-35 6 0 1177 0 1176 35 23
c41 26 42 32 15 57 -27 24 -25 48 6 76 101 94 106 103 68 123 -10 6 -21 13
-24 16 -3 3 -17 11 -32 17 -37 17 -44 47 -19 89 12 19 21 37 21 39 0 2 -16 7
-35 11 -28 5 -35 11 -35 30 0 23 -3 24 -70 24 -67 0 -70 -1 -70 -24z"/>
</g>
</svg>
