<?xml version="1.0" standalone="no"?>
<!DOCTYPE svg PUBLIC "-//W3C//DTD SVG 20010904//EN"
 "http://www.w3.org/TR/2001/REC-SVG-20010904/DTD/svg10.dtd">
<svg version="1.0" xmlns="http://www.w3.org/2000/svg"
 width="2550.000000pt" height="2700.000000pt" viewBox="0 0 2550.000000 2700.000000"
 preserveAspectRatio="xMidYMid meet">

<g transform="translate(0.000000,2700.000000) scale(0.100000,-0.100000)"
fill="#C5C3C1" stroke="none">
<path d="M10307 14110 c-9 -11 -11 -214 -7 -837 l5 -822 -115 -3 -115 -3 -3
-1405 c-1 -773 0 -1415 3 -1427 5 -22 10 -23 115 -23 l109 0 3 -95 3 -94 -115
-3 -115 -3 -3 -1269 c-1 -950 1 -1272 10 -1283 7 -9 24 -12 52 -9 23 3 69 8
104 11 l62 6 0 -795 c0 -437 -3 -802 -6 -811 -4 -9 -24 -23 -45 -32 l-38 -15
20 -28 c24 -32 16 -58 -26 -86 -19 -12 -25 -25 -25 -53 0 -30 7 -42 41 -70
l40 -33 77 10 c42 6 107 14 145 18 l67 6 0 37 c0 28 -7 44 -30 66 -33 31 -39
65 -15 85 20 17 19 27 -4 35 -10 3 -31 17 -45 30 l-26 24 0 805 c0 477 4 807
9 810 5 4 60 10 121 15 61 5 113 11 115 13 3 3 8 2446 5 2514 0 8 -37 11 -122
11 l-123 -1 0 95 0 94 90 -3 c50 -2 105 0 123 3 l32 6 0 1431 0 1430 -122 -3
-123 -4 -2 835 -2 835 -56 0 c-38 0 -60 -5 -68 -15z m260 -3082 l3 -1318 -43
0 c-23 0 -111 -2 -194 -4 l-153 -3 3 1316 2 1316 105 6 c58 3 143 5 190 5 l85
-1 2 -1317z m-2 -2880 c0 -630 -3 -1149 -7 -1153 -4 -4 -86 -14 -183 -23 -150
-13 -178 -13 -185 -1 -11 17 -13 2290 -2 2306 8 12 123 20 292 19 l85 -1 0
-1147z"/>
</g>
</svg>
