<?xml version="1.0" standalone="no"?>
<!DOCTYPE svg PUBLIC "-//W3C//DTD SVG 20010904//EN"
 "http://www.w3.org/TR/2001/REC-SVG-20010904/DTD/svg10.dtd">
<svg version="1.0" xmlns="http://www.w3.org/2000/svg"
 width="2550.000000pt" height="2700.000000pt" viewBox="0 0 2550.000000 2700.000000"
 preserveAspectRatio="xMidYMid meet">

<g transform="translate(0.000000,2700.000000) scale(0.100000,-0.100000)"
fill="#C5C3C1" stroke="none">
<path d="M18210 22375 l-44 -45 3 -593 c1 -325 0 -600 -4 -609 -6 -16 -21 -18
-111 -18 l-104 0 0 -1285 0 -1285 110 0 110 0 0 -69 c0 -105 4 -101 -116 -101
l-104 0 0 -1145 0 -1145 110 0 110 0 -2 -737 -3 -738 -32 -20 c-21 -13 -30
-25 -26 -35 17 -44 14 -67 -11 -87 -18 -15 -26 -30 -26 -52 l0 -31 144 0 144
0 4 30 c3 23 -1 33 -17 44 -28 18 -37 59 -19 85 13 17 10 21 -21 40 l-35 20 0
739 0 739 53 7 c28 3 76 6 105 6 l52 0 -2 1148 -3 1147 -102 -3 -103 -4 0 80
0 80 31 6 c17 3 66 6 108 6 l76 0 -3 1290 -2 1290 -105 -7 -105 -6 0 651 c0
359 -4 652 -8 652 -4 0 -28 -20 -52 -45z m184 -1361 c3 -9 6 -544 6 -1190 0
-931 -3 -1175 -12 -1179 -7 -2 -88 -5 -181 -7 l-167 -4 2 1191 3 1190 135 5
c74 3 151 7 171 8 26 1 39 -3 43 -14z m1 -2746 c3 -13 4 -489 3 -1058 l-3
-1035 -175 0 -175 0 0 1050 0 1050 135 5 c74 3 152 7 172 8 32 2 38 -2 43 -20z"/>
</g>
</svg>
