<?xml version="1.0" standalone="no"?>
<!DOCTYPE svg PUBLIC "-//W3C//DTD SVG 20010904//EN"
 "http://www.w3.org/TR/2001/REC-SVG-20010904/DTD/svg10.dtd">
<svg version="1.0" xmlns="http://www.w3.org/2000/svg"
 width="2550.000000pt" height="2700.000000pt" viewBox="0 0 2550.000000 2700.000000"
 preserveAspectRatio="xMidYMid meet">

<g transform="translate(0.000000,2700.000000) scale(0.100000,-0.100000)"
fill="#C5C3C1" stroke="none">
<path d="M19034 23249 l-49 -50 4 -584 3 -584 -33 -5 c-19 -3 -63 -7 -97 -10
-35 -3 -67 -8 -71 -11 -5 -2 -8 -585 -9 -1295 l-1 -1290 105 0 104 0 0 -84 c0
-97 5 -93 -123 -98 -38 -1 -72 -7 -75 -13 -8 -12 -2 -2256 5 -2268 3 -5 47 -6
99 -2 l94 7 0 -326 0 -326 -32 -20 c-18 -11 -37 -22 -43 -23 -5 -2 -2 -13 8
-24 25 -28 21 -49 -13 -75 -21 -15 -30 -30 -30 -50 l0 -28 103 0 c56 0 132 3
170 7 55 5 67 9 67 24 0 10 -13 27 -30 39 -33 24 -39 54 -14 81 16 17 15 19
-10 29 -15 5 -33 10 -41 10 -11 0 -14 60 -15 340 l-1 340 54 0 c30 0 75 3 101
6 l46 7 0 1147 c0 909 -3 1149 -12 1153 -7 2 -38 1 -68 -4 -30 -4 -70 -8 -87
-8 l-33 -1 0 90 0 89 100 3 100 3 0 1294 c0 807 -4 1298 -10 1306 -6 7 -28 9
-67 4 -32 -4 -73 -8 -90 -8 l-33 -1 0 624 c0 519 -2 625 -14 629 -8 3 -34 -16
-62 -44z m176 -2508 l0 -1198 -77 -7 c-43 -3 -115 -9 -160 -12 l-83 -7 0 1197
c0 948 3 1198 13 1201 17 7 179 22 250 24 l57 1 0 -1199z m0 -2629 l0 -1049
-107 -6 c-58 -4 -130 -7 -160 -7 l-53 0 0 1040 c0 823 3 1042 13 1045 17 7
179 22 250 24 l57 1 0 -1048z"/>
</g>
</svg>
