<?xml version="1.0" standalone="no"?>
<!DOCTYPE svg PUBLIC "-//W3C//DTD SVG 20010904//EN"
 "http://www.w3.org/TR/2001/REC-SVG-20010904/DTD/svg10.dtd">
<svg version="1.0" xmlns="http://www.w3.org/2000/svg"
 width="2550.000000pt" height="2700.000000pt" viewBox="0 0 2550.000000 2700.000000"
 preserveAspectRatio="xMidYMid meet">

<g transform="translate(0.000000,2700.000000) scale(0.100000,-0.100000)"
fill="#C5C3C1" stroke="none">
<path d="M19938 24219 l-43 -51 4 -613 3 -612 -23 -6 c-13 -3 -63 -9 -111 -13
l-88 -7 -2 -1227 c-2 -675 -1 -1251 0 -1279 l4 -51 109 0 109 0 0 -99 c0 -115
10 -106 -134 -117 l-86 -7 0 -1164 0 -1165 108 3 107 3 0 -744 0 -745 -44 -24
c-38 -21 -42 -26 -27 -36 26 -20 20 -62 -14 -87 -18 -13 -30 -31 -30 -45 l0
-23 173 2 c170 3 172 3 175 25 2 17 -4 26 -23 35 -32 15 -42 51 -22 82 16 23
15 24 -14 36 -16 7 -34 21 -39 31 -6 11 -10 228 -10 548 l0 530 -22 3 c-23 3
-23 4 -26 212 -1 134 1 213 8 221 7 8 53 15 125 20 l115 7 0 1154 0 1154 -99
0 -100 0 -3 98 c-2 53 -3 98 -2 99 0 3 120 12 167 13 l38 0 -7 1288 c-5 921
-10 1289 -18 1294 -6 4 -18 6 -26 3 -8 -2 -45 -7 -82 -11 l-68 -6 0 649 c0
745 3 723 -82 622z m170 -2550 c2 -1100 1 -1177 -15 -1183 -22 -9 -193 -25
-260 -26 l-53 0 0 1168 c0 656 4 1173 9 1181 6 9 44 17 117 23 60 5 114 10
119 13 6 2 26 3 45 2 l35 -2 3 -1176z m0 -2668 c1 -586 -1 -1068 -5 -1072 -5
-4 -78 -9 -163 -10 l-155 -4 0 1060 0 1060 35 7 c49 10 208 26 250 24 l35 -1
3 -1064z"/>
</g>
</svg>
