<?xml version="1.0" standalone="no"?>
<!DOCTYPE svg PUBLIC "-//W3C//DTD SVG 20010904//EN"
 "http://www.w3.org/TR/2001/REC-SVG-20010904/DTD/svg10.dtd">
<svg version="1.0" xmlns="http://www.w3.org/2000/svg"
 width="2550.000000pt" height="2700.000000pt" viewBox="0 0 2550.000000 2700.000000"
 preserveAspectRatio="xMidYMid meet">

<g transform="translate(0.000000,2700.000000) scale(0.100000,-0.100000)"
fill="#C5C3C1" stroke="none">
<path d="M23760 26170 l0 -830 23 4 c12 3 45 8 72 11 28 4 60 9 73 12 l23 5
-3 -108 -3 -109 -92 -9 -93 -8 0 -1228 0 -1229 28 -3 c15 -2 54 2 87 9 33 7
63 12 68 13 4 0 6 -156 5 -347 l-3 -348 -40 -20 c-22 -11 -42 -21 -44 -22 -2
-2 3 -11 12 -21 31 -34 15 -77 -35 -95 -10 -4 -18 -11 -18 -17 0 -14 14 -13
197 11 160 22 161 22 151 44 -11 24 4 65 22 65 6 0 10 4 10 8 0 5 -24 14 -52
21 -29 8 -60 18 -68 23 -11 7 -10 8 5 4 20 -6 20 -2 17 358 l-3 364 101 17
100 18 0 1225 0 1225 -62 -7 c-35 -3 -80 -9 -100 -12 l-38 -6 0 105 0 105 33
5 c17 3 62 9 100 13 l67 6 0 789 0 789 -60 0 -60 0 0 -157 c-4 -1007 -6 -1302
-11 -1307 -3 -3 -66 -17 -139 -31 -105 -20 -135 -23 -142 -13 -4 7 -8 349 -8
759 l0 746 -60 2 -60 2 0 -831z m419 -2188 c0 -604 -3 -1103 -8 -1110 -9 -15
-272 -65 -283 -54 -4 4 -7 505 -6 1113 l3 1104 130 21 c72 12 138 22 148 23
16 1 17 -57 16 -1097z"/>
</g>
</svg>
