<?xml version="1.0" standalone="no"?>
<!DOCTYPE svg PUBLIC "-//W3C//DTD SVG 20010904//EN"
 "http://www.w3.org/TR/2001/REC-SVG-20010904/DTD/svg10.dtd">
<svg version="1.0" xmlns="http://www.w3.org/2000/svg"
 width="2550.000000pt" height="2700.000000pt" viewBox="0 0 2550.000000 2700.000000"
 preserveAspectRatio="xMidYMid meet">

<g transform="translate(0.000000,2700.000000) scale(0.100000,-0.100000)"
fill="#C5C3C1" stroke="none">
<path d="M9309 14098 c0 -13 0 -373 1 -800 l1 -778 -80 0 c-44 0 -82 -4 -85
-9 -4 -6 -8 -1596 -6 -2568 l0 -143 84 0 83 0 0 -102 0 -103 -84 -5 -85 -5 -1
-1238 -2 -1238 36 -9 c22 -6 47 -6 69 0 74 21 68 95 68 -745 0 -415 -2 -764
-5 -776 -4 -13 -23 -28 -51 -40 -42 -18 -44 -20 -28 -38 32 -35 14 -86 -36
-104 -13 -5 -17 -15 -14 -39 4 -36 -4 -32 131 -62 68 -16 73 -15 167 8 53 13
101 27 107 31 6 3 11 21 11 38 0 26 -6 35 -30 45 -37 17 -48 53 -26 87 9 13
16 26 16 28 0 2 -18 9 -39 16 -26 7 -42 19 -47 34 -8 22 -10 1554 -3 1562 3 2
37 12 77 22 l72 18 1 1210 1 1210 -79 -2 -80 -2 1 102 1 102 79 5 79 5 -1
1175 c-1 646 -2 1260 -2 1364 l0 189 -80 -7 -81 -7 1 768 c1 423 1 780 1 796
-1 27 -1 27 -71 27 -66 0 -70 -1 -71 -22z m181 -2932 l0 -1263 -37 -7 c-21 -3
-71 -6 -110 -6 l-73 0 0 1264 0 1265 53 4 c28 2 78 4 110 5 l57 2 0 -1264z m0
-2776 l0 -1110 -22 -10 c-35 -15 -187 -48 -193 -42 -3 3 -5 513 -5 1133 l0
1128 53 4 c28 2 78 4 110 5 l57 2 0 -1110z"/>
</g>
</svg>
