<?xml version="1.0" standalone="no"?>
<!DOCTYPE svg PUBLIC "-//W3C//DTD SVG 20010904//EN"
 "http://www.w3.org/TR/2001/REC-SVG-20010904/DTD/svg10.dtd">
<svg version="1.0" xmlns="http://www.w3.org/2000/svg"
 width="2550.000000pt" height="2700.000000pt" viewBox="0 0 2550.000000 2700.000000"
 preserveAspectRatio="xMidYMid meet">

<g transform="translate(0.000000,2700.000000) scale(0.100000,-0.100000)"
fill="#C5C3C1" stroke="none">
<path d="M11188 15453 l-68 -76 0 -523 0 -524 -106 0 -106 0 6 -172 c3 -95 9
-694 12 -1330 l6 -1158 78 0 c113 0 110 3 110 -101 l0 -88 -95 -3 -95 -3 0
-1175 0 -1175 95 2 95 2 0 -739 c0 -406 -3 -746 -6 -755 -4 -9 -24 -23 -45
-32 -36 -14 -52 -33 -29 -33 5 0 13 -11 16 -26 5 -18 0 -32 -17 -50 -12 -13
-29 -24 -36 -24 -10 0 -13 -11 -11 -37 l3 -37 75 -18 c44 -11 92 -16 115 -12
22 3 73 9 114 15 41 5 78 14 81 19 10 17 -1 70 -15 70 -17 0 -45 33 -45 55 0
10 7 27 17 37 9 10 14 19 12 21 -2 1 -22 11 -44 22 l-40 20 -3 761 -2 761 62
7 c35 4 73 10 86 13 l22 5 0 1159 0 1159 -80 0 -80 0 0 90 0 90 80 0 80 0 2
1080 c2 594 3 1195 3 1337 l0 256 -82 -2 -83 -2 -1 73 c-1 40 -5 308 -8 595
l-6 522 -67 -76z m125 -2450 c-3 -676 -7 -1230 -10 -1233 -2 -2 -62 -6 -133
-8 l-129 -4 -1 1229 c0 676 3 1232 7 1236 3 4 66 7 139 7 l133 0 -6 -1227z
m-3 -2676 l0 -1063 -125 -14 c-69 -7 -129 -10 -133 -6 -4 4 -6 382 -5 839 2
458 3 936 3 1064 l0 232 128 4 c70 1 128 4 130 5 1 1 2 -476 2 -1061z"/>
</g>
</svg>
