<?xml version="1.0" standalone="no"?>
<!DOCTYPE svg PUBLIC "-//W3C//DTD SVG 20010904//EN"
 "http://www.w3.org/TR/2001/REC-SVG-20010904/DTD/svg10.dtd">
<svg version="1.0" xmlns="http://www.w3.org/2000/svg"
 width="2550.000000pt" height="2700.000000pt" viewBox="0 0 2550.000000 2700.000000"
 preserveAspectRatio="xMidYMid meet">

<g transform="translate(0.000000,2700.000000) scale(0.100000,-0.100000)"
fill="#C5C3C1" stroke="none">
<path d="M13703 18068 l-53 -53 -2 -550 -3 -550 -102 3 -103 4 0 -1290 0
-1289 68 -6 c37 -4 84 -7 105 -7 l38 0 -3 -87 -3 -88 -102 -3 -103 -3 0 -1144
0 -1145 105 0 105 0 0 -319 c0 -277 -2 -322 -16 -335 -8 -9 -18 -16 -22 -16
-4 0 -13 -4 -20 -9 -11 -7 -11 -12 -1 -28 16 -26 4 -74 -21 -80 -16 -4 -20
-14 -20 -43 0 -35 3 -39 33 -48 17 -6 55 -9 82 -7 28 2 83 3 123 4 l72 1 0 31
c0 21 -9 40 -25 55 -28 26 -32 59 -10 84 14 16 13 18 -15 30 -17 7 -35 21 -40
31 -6 10 -10 150 -10 333 l0 316 59 0 c32 0 79 3 105 6 l46 7 0 1138 0 1139
-105 0 -105 0 0 90 0 90 105 0 105 0 0 1290 0 1290 -105 0 -105 0 -2 605 -3
606 -52 -53z m175 -2450 l2 -1198 -175 0 -175 0 0 1200 0 1200 173 -2 172 -3
3 -1197z m0 -2610 l2 -1048 -127 -1 c-71 -1 -148 -2 -173 -3 l-45 -1 -3 1053
-2 1052 172 -2 173 -3 3 -1047z"/>
</g>
</svg>
