<?xml version="1.0" standalone="no"?>
<!DOCTYPE svg PUBLIC "-//W3C//DTD SVG 20010904//EN"
 "http://www.w3.org/TR/2001/REC-SVG-20010904/DTD/svg10.dtd">
<svg version="1.0" xmlns="http://www.w3.org/2000/svg"
 width="2644.000000pt" height="2800.000000pt" viewBox="0 0 2644.000000 2800.000000"
 preserveAspectRatio="xMidYMid meet">

<g transform="translate(0.000000,2800.000000) scale(0.100000,-0.100000)"
fill="#C5C3C1" stroke="none">
<path d="M3000 13367 c0 -660 -6 -826 -35 -1057 -37 -285 -39 -313 -24 -345 8
-16 24 -34 37 -40 16 -7 22 -18 22 -41 0 -30 -3 -33 -40 -39 -51 -9 -55 -17
-25 -45 14 -13 25 -33 25 -45 0 -25 -39 -65 -62 -65 -9 0 -18 -7 -22 -15 -3
-8 -12 -15 -19 -15 -21 0 -38 -25 -31 -44 3 -9 17 -19 30 -22 13 -3 24 -10 24
-15 0 -5 6 -9 14 -9 24 0 66 -41 66 -64 0 -12 -11 -33 -25 -46 -30 -28 -26
-36 25 -45 37 -6 40 -9 40 -40 0 -24 -5 -35 -19 -40 -23 -7 -51 -63 -51 -102
0 -16 9 -91 20 -168 42 -303 52 -503 47 -950 -5 -420 -13 -550 -53 -818 -9
-59 -14 -126 -11 -148 6 -42 31 -79 54 -79 8 0 13 -12 13 -30 0 -16 -4 -30 -9
-30 -5 0 -25 -7 -46 -16 l-37 -15 26 -28 c14 -15 26 -37 26 -48 0 -23 -43 -63
-66 -63 -8 0 -14 -5 -14 -10 0 -6 -11 -15 -25 -20 -34 -13 -43 -39 -19 -56 10
-7 24 -17 29 -22 6 -5 23 -12 37 -15 60 -15 73 -57 33 -105 -28 -34 -26 -37
28 -47 32 -6 37 -11 37 -36 0 -16 -8 -33 -20 -42 -29 -20 -50 -67 -50 -110 0
-21 11 -116 24 -210 14 -95 30 -235 35 -313 12 -160 15 -2372 3 -2390 -4 -6
-27 -21 -51 -33 l-43 -22 23 -25 c22 -23 23 -27 8 -52 -8 -15 -27 -33 -42 -40
-22 -11 -27 -20 -27 -51 0 -46 3 -47 165 -57 87 -5 112 -2 190 19 l90 24 3 42
c3 39 1 42 -28 52 -17 6 -35 19 -40 29 -13 24 2 65 27 75 33 13 -78 45 -123
35 -21 -5 -40 -7 -43 -5 -4 5 44 25 59 25 5 0 11 526 13 1208 3 811 8 1235 15
1292 63 476 63 489 11 518 -44 25 -37 61 15 79 53 18 53 19 23 47 -42 39 -32
83 24 106 17 8 45 26 62 41 26 24 28 30 17 43 -7 9 -18 16 -25 16 -8 0 -15 3
-17 8 -1 4 -21 16 -43 27 -50 25 -58 60 -21 96 14 13 26 27 26 30 0 4 -20 13
-45 20 -39 12 -45 17 -45 40 0 15 7 29 15 33 26 10 55 69 55 114 0 23 -7 84
-15 135 -37 234 -47 387 -52 782 -6 428 6 664 47 960 11 77 20 154 20 173 0
42 -24 89 -50 97 -25 8 -29 65 -5 65 9 0 30 7 47 16 l30 16 -27 28 c-37 39
-31 70 20 95 22 11 44 26 48 33 4 6 14 12 21 12 8 0 17 7 20 16 7 19 -10 44
-29 44 -7 0 -15 7 -19 15 -3 8 -15 15 -26 15 -26 0 -60 34 -60 60 0 12 12 33
26 47 29 29 23 38 -33 49 -44 8 -45 44 -2 82 41 36 46 84 25 227 -46 306 -49
363 -53 1133 l-4 742 -85 0 -84 0 0 -673z"/>
</g>
</svg>
