<?xml version="1.0" standalone="no"?>
<!DOCTYPE svg PUBLIC "-//W3C//DTD SVG 20010904//EN"
 "http://www.w3.org/TR/2001/REC-SVG-20010904/DTD/svg10.dtd">
<svg version="1.0" xmlns="http://www.w3.org/2000/svg"
 width="2644.000000pt" height="2800.000000pt" viewBox="0 0 2644.000000 2800.000000"
 preserveAspectRatio="xMidYMid meet">

<g transform="translate(0.000000,2800.000000) scale(0.100000,-0.100000)"
fill="#C5C3C1" stroke="none">
<path d="M4498 14628 l-76 -107 -5 -488 c-4 -492 -10 -593 -53 -879 -17 -116
-7 -171 34 -189 30 -13 32 -75 2 -75 -10 0 -30 -5 -43 -11 l-24 -11 23 -24
c13 -12 24 -34 24 -47 0 -24 -27 -57 -48 -57 -6 0 -17 -6 -24 -12 -8 -7 -23
-18 -33 -24 -30 -17 -30 -42 -1 -55 14 -7 26 -16 26 -21 0 -4 8 -8 18 -8 56 0
80 -64 40 -107 -25 -27 -17 -38 35 -50 36 -7 37 -47 2 -75 -42 -33 -48 -79
-26 -229 42 -289 46 -372 46 -854 0 -481 -4 -562 -46 -867 -18 -134 -19 -149
-5 -183 9 -21 25 -39 36 -42 17 -4 20 -12 18 -36 -2 -25 -9 -32 -35 -39 -42
-11 -48 -23 -23 -48 28 -28 25 -64 -6 -89 -15 -12 -33 -21 -40 -21 -8 0 -14
-4 -14 -8 0 -5 -11 -14 -25 -20 -32 -15 -32 -39 0 -54 14 -6 25 -15 25 -19 0
-4 11 -10 24 -13 56 -14 72 -63 34 -103 -25 -27 -17 -38 35 -50 36 -7 37 -46
1 -76 -40 -35 -45 -83 -24 -237 43 -305 45 -364 45 -1060 l0 -675 -47 -25 -48
-26 22 -21 c28 -28 18 -67 -22 -88 -25 -13 -30 -21 -30 -54 l0 -38 124 -7 c99
-6 142 -4 210 10 l86 17 0 42 c0 37 -3 44 -25 49 -14 4 -31 18 -37 32 -10 20
-8 29 10 53 l21 29 -45 17 c-30 11 -46 24 -50 40 -3 13 -4 320 -1 682 5 675
10 774 53 1081 16 116 16 125 0 158 -9 20 -26 38 -36 41 -25 7 -29 63 -5 63 9
0 29 7 45 15 l29 15 -24 25 c-14 13 -25 33 -25 44 0 25 37 61 62 61 10 0 18 6
18 14 0 8 12 17 26 20 33 9 31 49 -3 54 -13 2 -23 10 -23 18 0 8 -8 14 -18 14
-28 0 -62 29 -62 54 0 13 12 35 26 49 l26 27 -26 10 c-15 5 -36 10 -47 10 -30
0 -26 53 6 74 40 27 49 82 31 205 -46 326 -55 486 -51 956 3 409 12 552 51
810 18 123 12 168 -27 197 -37 28 -42 78 -6 78 12 1 32 6 45 13 l23 13 -26 24
c-42 39 -27 86 33 104 12 4 22 11 22 16 0 4 9 10 20 13 29 8 37 37 14 53 -10
7 -24 17 -30 22 -6 5 -20 13 -32 16 -55 18 -67 62 -27 101 l24 25 -29 15 c-16
8 -36 15 -45 15 -23 0 -20 57 3 64 28 9 47 53 47 110 0 28 -10 130 -22 226
-12 96 -25 200 -29 230 -3 30 -9 313 -13 629 l-6 575 -77 -106z"/>
</g>
</svg>
