<?xml version="1.0" standalone="no"?>
<!DOCTYPE svg PUBLIC "-//W3C//DTD SVG 20010904//EN"
 "http://www.w3.org/TR/2001/REC-SVG-20010904/DTD/svg10.dtd">
<svg version="1.0" xmlns="http://www.w3.org/2000/svg"
 width="2644.000000pt" height="2800.000000pt" viewBox="0 0 2644.000000 2800.000000"
 preserveAspectRatio="xMidYMid meet">

<g transform="translate(0.000000,2800.000000) scale(0.100000,-0.100000)"
fill="#C5C3C1" stroke="none">
<path d="M22797 27993 c-3 -4 -15 -73 -27 -153 -11 -80 -34 -206 -51 -280 -39
-182 -39 -203 9 -249 20 -20 48 -43 61 -52 30 -19 21 -36 -24 -45 -40 -7 -43
-16 -15 -51 11 -14 20 -36 20 -48 0 -25 -29 -55 -54 -55 -9 0 -19 -6 -22 -14
-3 -8 -14 -16 -25 -19 -37 -10 -22 -49 41 -107 33 -30 60 -62 60 -71 0 -9 -10
-29 -21 -44 l-22 -27 43 -37 c24 -20 41 -43 39 -50 -3 -8 -20 -19 -39 -25 -44
-14 -80 -67 -80 -116 0 -20 13 -94 30 -166 25 -111 42 -207 64 -364 35 -244
33 -860 -4 -1130 -11 -85 -34 -220 -52 -300 -42 -198 -46 -248 -18 -283 12
-15 39 -37 61 -47 51 -26 53 -55 4 -64 -45 -9 -51 -20 -26 -52 36 -46 22 -98
-29 -109 -16 -4 -30 -10 -30 -15 0 -5 -9 -12 -20 -15 -44 -14 -8 -78 73 -130
32 -21 35 -52 7 -88 -11 -14 -20 -27 -20 -30 0 -2 18 -16 41 -31 50 -34 50
-63 -1 -80 -44 -14 -80 -67 -80 -116 0 -20 13 -94 29 -166 35 -151 67 -360 81
-529 13 -157 13 -1330 0 -1354 -5 -10 -28 -26 -50 -35 l-41 -16 22 -29 c27
-37 22 -61 -18 -86 -18 -11 -32 -24 -33 -28 0 -7 267 1 310 9 8 1 21 3 27 3 9
1 10 8 2 27 -10 29 10 74 34 74 6 1 -9 12 -35 26 -30 15 -50 33 -53 47 -4 13
-5 340 -3 727 4 780 5 783 75 1115 19 94 37 186 40 205 5 46 -23 92 -76 122
-29 16 -41 30 -41 46 0 12 6 22 14 22 8 0 27 5 42 10 l27 11 -20 22 c-31 33
-37 64 -19 92 9 14 23 25 31 25 7 0 20 6 27 13 7 7 21 16 31 20 45 17 22 55
-82 139 -27 23 -27 40 4 77 l26 30 -41 27 c-52 35 -54 65 -5 83 37 13 70 51
80 93 4 16 -7 89 -29 185 -75 336 -80 395 -81 903 0 525 8 618 87 973 16 76
27 148 24 162 -8 32 -52 82 -87 101 -37 18 -37 40 -1 47 47 11 58 22 38 43
-10 9 -22 28 -27 42 -12 31 10 69 46 78 14 3 25 9 25 13 0 4 11 13 25 19 14 6
25 18 25 25 0 8 -29 44 -65 80 -59 59 -64 67 -56 90 6 14 18 30 28 36 16 9 14
13 -24 46 -24 20 -43 44 -43 53 1 10 19 26 42 37 29 14 48 33 62 59 18 35 18
44 7 95 -42 190 -71 338 -82 419 -16 123 -30 139 -121 141 -36 1 -68 -1 -71
-6z"/>
</g>
</svg>
