<?xml version="1.0" standalone="no"?>
<!DOCTYPE svg PUBLIC "-//W3C//DTD SVG 20010904//EN"
 "http://www.w3.org/TR/2001/REC-SVG-20010904/DTD/svg10.dtd">
<svg version="1.0" xmlns="http://www.w3.org/2000/svg"
 width="2644.000000pt" height="2800.000000pt" viewBox="0 0 2644.000000 2800.000000"
 preserveAspectRatio="xMidYMid meet">

<g transform="translate(0.000000,2800.000000) scale(0.100000,-0.100000)"
fill="#C5C3C1" stroke="none">
<path d="M23981 27969 l-23 -30 41 -35 c52 -45 52 -64 1 -86 -44 -18 -80 -68
-80 -111 0 -16 9 -63 19 -105 27 -108 48 -211 72 -364 19 -115 22 -189 26
-546 6 -512 -9 -685 -88 -1036 -39 -173 -39 -180 16 -233 25 -24 52 -43 60
-43 8 0 15 -9 15 -20 0 -19 -8 -24 -67 -45 -9 -3 -5 -15 12 -41 14 -20 25 -42
25 -48 0 -21 -31 -56 -50 -56 -10 0 -23 -6 -27 -12 -4 -7 -17 -18 -28 -24 -11
-6 -21 -18 -23 -25 -2 -14 55 -77 108 -118 24 -19 25 -19 7 -55 -9 -20 -21
-36 -27 -36 -19 0 -9 -15 30 -44 44 -33 56 -76 21 -76 -25 0 -68 -35 -86 -70
-20 -38 -19 -66 5 -161 34 -132 68 -329 85 -486 14 -128 15 -311 13 -1338 l-3
-1190 -35 -17 c-19 -10 -39 -20 -45 -22 -6 -1 -3 -12 7 -22 32 -37 27 -80 -12
-102 -16 -9 -30 -21 -30 -25 0 -8 189 -2 299 9 39 4 50 9 42 17 -17 17 -13 49
10 73 l21 22 -32 17 c-17 9 -40 25 -51 36 -19 19 -19 43 -19 1153 0 688 4
1184 10 1262 15 180 45 381 85 567 31 142 34 161 21 190 -15 36 -79 97 -101
97 -8 0 -15 9 -15 20 0 14 11 22 40 30 46 12 47 16 20 50 -35 45 -15 110 33
110 9 0 20 6 24 13 4 8 16 16 26 20 31 12 18 44 -43 105 -33 32 -60 66 -60 74
0 8 10 27 21 42 l22 27 -34 29 c-19 16 -37 29 -41 30 -5 0 -8 9 -8 19 0 13 11
23 34 31 75 24 102 85 80 182 -92 421 -105 527 -111 924 -7 453 12 679 92
1048 40 187 40 194 -16 254 -17 18 -42 38 -56 43 -33 12 -24 32 20 43 42 11
45 18 17 53 -11 14 -20 34 -20 44 0 17 -9 19 -112 18 l-113 0 -24 -30z"/>
</g>
</svg>
