<?xml version="1.0" standalone="no"?>
<!DOCTYPE svg PUBLIC "-//W3C//DTD SVG 20010904//EN"
 "http://www.w3.org/TR/2001/REC-SVG-20010904/DTD/svg10.dtd">
<svg version="1.0" xmlns="http://www.w3.org/2000/svg"
 width="2644.000000pt" height="2800.000000pt" viewBox="0 0 2644.000000 2800.000000"
 preserveAspectRatio="xMidYMid meet">

<g transform="translate(0.000000,2800.000000) scale(0.100000,-0.100000)"
fill="#C5C3C1" stroke="none">
<path d="M14545 14638 c-3 -13 -39 -192 -80 -398 l-75 -374 0 -691 c-1 -696
-5 -840 -36 -1195 -18 -204 -16 -238 16 -270 24 -24 27 -80 5 -80 -9 0 -30 -7
-47 -16 l-30 -16 26 -27 c34 -35 34 -73 0 -100 -15 -12 -33 -21 -40 -21 -8 0
-14 -6 -14 -14 0 -8 -10 -16 -22 -18 -18 -2 -23 -10 -23 -33 0 -23 5 -31 23
-33 12 -2 22 -10 22 -18 0 -8 8 -14 18 -14 27 0 62 -37 62 -65 0 -13 -11 -37
-25 -53 -28 -34 -26 -37 28 -47 33 -6 37 -11 37 -37 0 -16 -9 -41 -20 -56 -32
-43 -33 -109 -10 -347 18 -182 23 -306 27 -724 6 -512 -2 -744 -33 -1081 -18
-191 -15 -247 15 -271 12 -10 21 -29 21 -43 0 -21 -9 -29 -45 -46 l-46 -21 26
-30 c14 -17 25 -41 25 -54 0 -24 -42 -65 -66 -65 -8 0 -14 -6 -14 -13 0 -7
-10 -17 -22 -22 -34 -15 -36 -53 -4 -65 14 -5 26 -14 26 -20 0 -5 6 -10 14
-10 24 0 66 -41 66 -65 0 -13 -12 -37 -26 -54 l-26 -31 46 -12 c42 -11 46 -15
46 -44 0 -17 -6 -37 -14 -43 -7 -6 -19 -32 -26 -57 -11 -39 -11 -77 4 -238 9
-105 21 -258 26 -341 11 -165 14 -2594 4 -2620 -4 -9 -28 -27 -55 -40 l-48
-25 24 -25 c14 -13 25 -29 25 -35 0 -23 -21 -50 -50 -65 -26 -14 -30 -21 -30
-59 l0 -43 68 -7 c236 -21 237 -21 307 10 l64 29 0 45 c0 40 -4 47 -32 65 -40
25 -46 59 -16 91 l22 24 -36 15 c-20 8 -41 15 -46 15 -5 0 -12 8 -15 17 -8 19
-9 2535 -2 2598 3 22 8 94 11 160 3 66 13 183 21 259 16 150 12 208 -16 236
-10 10 -20 29 -22 42 -3 21 19 38 77 61 5 2 -1 16 -13 32 -30 38 -29 78 4 104
15 12 33 21 40 21 8 0 14 6 14 13 0 7 10 17 23 22 14 7 22 19 22 35 0 18 -6
26 -22 28 -13 2 -23 10 -23 18 0 8 -8 14 -18 14 -57 0 -82 72 -41 116 26 28
19 41 -25 50 -42 7 -53 43 -25 78 33 42 42 106 30 213 -23 201 -38 436 -41
618 -8 659 0 962 36 1352 16 177 10 234 -26 253 -13 7 -20 21 -20 39 0 24 6
30 41 41 50 17 56 26 32 53 -42 46 -33 90 22 113 19 8 35 18 35 23 0 4 11 13
25 19 15 7 25 20 25 32 0 13 -9 22 -25 26 -14 3 -25 12 -25 19 0 7 -11 16 -24
19 -57 14 -73 71 -35 120 l20 26 -23 9 c-13 5 -32 10 -43 12 -29 6 -33 55 -6
80 38 36 43 87 27 252 -40 388 -41 445 -38 1585 1 611 0 1112 -3 1112 -2 0 -7
-10 -10 -22z"/>
<path d="M14758 12519 c-22 -13 -23 -48 -2 -56 19 -7 34 13 34 45 0 24 -6 27
-32 11z"/>
</g>
</svg>
