<?xml version="1.0" standalone="no"?>
<!DOCTYPE svg PUBLIC "-//W3C//DTD SVG 20010904//EN"
 "http://www.w3.org/TR/2001/REC-SVG-20010904/DTD/svg10.dtd">
<svg version="1.0" xmlns="http://www.w3.org/2000/svg"
 width="2644.000000pt" height="2800.000000pt" viewBox="0 0 2644.000000 2800.000000"
 preserveAspectRatio="xMidYMid meet">

<g transform="translate(0.000000,2800.000000) scale(0.100000,-0.100000)"
fill="#C5C3C1" stroke="none">
<path d="M15478 15536 l-78 -156 -1 -413 c-2 -434 -9 -630 -34 -865 -15 -151
-9 -228 21 -253 8 -6 14 -24 14 -39 0 -22 -6 -29 -27 -33 -52 -12 -60 -23 -35
-50 30 -32 28 -71 -4 -96 -15 -12 -33 -21 -40 -21 -8 0 -14 -7 -14 -15 0 -8
-6 -15 -14 -15 -7 0 -19 -7 -27 -16 -11 -13 -8 -20 19 -45 17 -16 35 -29 40
-29 5 0 21 -9 36 -21 32 -25 34 -64 5 -95 -26 -28 -19 -41 26 -50 32 -6 35 -9
35 -40 0 -19 -4 -34 -9 -34 -16 0 -35 -64 -35 -115 1 -27 9 -140 20 -250 16
-171 19 -287 19 -805 0 -523 -3 -631 -19 -800 -26 -260 -26 -312 2 -350 34
-46 29 -72 -19 -92 l-41 -17 21 -27 c32 -41 28 -80 -11 -104 -88 -53 -101 -66
-88 -91 6 -10 17 -19 24 -19 8 0 16 -7 20 -15 3 -8 14 -15 24 -15 26 0 52 -31
52 -62 0 -14 -9 -37 -21 -52 l-20 -26 26 -10 c14 -5 33 -10 41 -10 19 0 19
-58 -1 -80 -27 -30 -33 -102 -19 -247 7 -76 17 -218 23 -316 14 -225 15 -2521
2 -2546 -6 -10 -28 -26 -50 -36 -47 -21 -49 -25 -21 -43 11 -7 20 -23 20 -37
0 -25 -34 -65 -57 -65 -14 0 -19 -85 -5 -93 4 -3 72 -8 150 -12 134 -6 148 -5
203 15 l59 22 0 44 c0 34 -4 44 -20 49 -51 16 -65 63 -29 101 l21 22 -36 12
c-72 23 -66 -89 -65 1263 1 920 4 1267 14 1402 30 398 31 432 7 465 -34 46
-29 72 18 93 37 15 54 37 30 37 -5 0 -17 14 -25 31 -15 28 -15 33 0 55 9 14
24 28 33 31 32 12 82 58 82 76 0 10 -8 21 -17 24 -10 4 -21 10 -24 15 -3 5
-21 17 -40 26 -43 21 -50 62 -19 104 l21 28 -26 10 c-15 6 -33 10 -41 10 -19
0 -18 58 2 81 25 27 30 104 17 244 -29 314 -35 538 -30 1056 3 288 10 560 15
604 33 269 33 365 3 406 -34 46 -28 73 19 89 44 15 48 21 24 41 -44 37 -33
101 21 115 14 3 25 10 25 15 0 5 11 14 25 19 32 12 33 45 3 61 -13 7 -27 18
-31 25 -4 8 -14 14 -22 14 -44 0 -60 75 -24 111 24 24 16 35 -33 46 -23 4 -28
11 -28 35 0 16 10 42 22 58 20 27 21 36 15 147 -4 65 -12 172 -18 238 -6 66
-14 417 -18 779 l-6 659 -77 -157z"/>
</g>
</svg>
